<?xml version="1.0" encoding="UTF-8"?><svg xmlns="http://www.w3.org/2000/svg" xmlns:xlink="http://www.w3.org/1999/xlink" fill-opacity="1" color-rendering="auto" color-interpolation="auto" stroke="black" text-rendering="auto" stroke-linecap="square" width="598" stroke-miterlimit="10" stroke-opacity="1" shape-rendering="auto" fill="black" stroke-dasharray="none" font-weight="normal" stroke-width="1" height="598" font-family="'Dialog'" font-style="normal" stroke-linejoin="miter" font-size="12" stroke-dashoffset="0" image-rendering="auto">
  <!--Generated by ySVG-->
  <defs id="genericDefs"/>
  <g>
    <defs id="defs1">
      <clipPath clipPathUnits="userSpaceOnUse" id="clipPath1">
        <path d="M0 0 L598 0 L598 598 L0 598 L0 0 Z"/>
      </clipPath>
      <clipPath clipPathUnits="userSpaceOnUse" id="clipPath2">
        <path d="M486.72 270.9804 L519.68 270.9804 L519.68 294.1132 L486.72 294.1132 L486.72 270.9804 Z"/>
      </clipPath>
      <clipPath clipPathUnits="userSpaceOnUse" id="clipPath3">
        <path d="M486.72 183.8475 L588.69 183.8475 L588.69 206.9804 L486.72 206.9804 L486.72 183.8475 Z"/>
      </clipPath>
      <clipPath clipPathUnits="userSpaceOnUse" id="clipPath4">
        <path d="M837.7702 103.4902 C837.7702 112.5241 759.1849 119.8475 662.2451 119.8475 C565.3053 119.8475 486.72 112.5241 486.72 103.4902 C486.72 94.4563 565.3053 87.1328 662.2451 87.1328 C759.1849 87.1328 837.7702 94.4563 837.7702 103.4902 Z"/>
      </clipPath>
      <clipPath clipPathUnits="userSpaceOnUse" id="clipPath5">
        <path d="M486.72 0 L586.63 0 L586.63 23.1328 L486.72 23.1328 L486.72 0 Z"/>
      </clipPath>
      <clipPath clipPathUnits="userSpaceOnUse" id="clipPath6">
        <path d="M-346.34 0 L-224.8 0 L-224.8 23.1328 L-346.34 23.1328 L-346.34 0 Z"/>
      </clipPath>
      <clipPath clipPathUnits="userSpaceOnUse" id="clipPath7">
        <path d="M835.9708 -100.3574 C835.9708 -91.3234 774.9939 -84 699.775 -84 C624.5561 -84 563.5792 -91.3234 563.5792 -100.3574 C563.5792 -109.3913 624.5561 -116.7147 699.775 -116.7147 C774.9939 -116.7147 835.9708 -109.3913 835.9708 -100.3574 Z"/>
      </clipPath>
      <clipPath clipPathUnits="userSpaceOnUse" id="clipPath8">
        <path d="M-132.87 -107.1328 L436.72 -107.1328 L436.72 -84 L-132.87 -84 L-132.87 -107.1328 Z"/>
      </clipPath>
      <clipPath clipPathUnits="userSpaceOnUse" id="clipPath9">
        <path d="M0 0 L303.85 0 L303.85 302.1132 L0 302.1132 L0 0 Z"/>
      </clipPath>
      <script type="text/ecmascript"><![CDATA[
function umlload(newLocation)
{
if (newLocation.charAt(0) != '#') {
if (newLocation.indexOf("://") > -1) {
window.parent.location.href = newLocation;
} else {
var tmp = window.parent.location.href;
tmp = tmp.substring(0, tmp.lastIndexOf("/") + 1);
window.parent.location.href = tmp.concat(newLocation);
}
} else {
window.parent.location.hash = newLocation;
}
}
]]></script>
    </defs>
    <g fill="rgb(238,238,255)" transform="matrix(0.4607,0,0,0.4607,163.5516,252.0077)" stroke="rgb(238,238,255)">
      <rect width="69.7758" x="478.72" height="17.9688" y="244.9804" stroke="none"/>
    </g>
    <g fill="rgb(166,166,178)" stroke-miterlimit="1.45" transform="matrix(0.4607,0,0,0.4607,163.5516,252.0077)" stroke-linecap="butt" stroke="rgb(166,166,178)">
      <rect fill="none" width="69.7758" x="478.72" height="17.9688" y="244.9804"/>
    </g>
    <g fill="rgb(238,238,255)" transform="matrix(0.4607,0,0,0.4607,163.5516,252.0077)" stroke="rgb(238,238,255)">
      <rect width="73.96" x="478.72" height="39.1641" y="262.9491" stroke="none"/>
    </g>
    <g fill="rgb(166,166,178)" stroke-miterlimit="1.45" transform="matrix(0.4607,0,0,0.4607,163.5516,252.0077)" stroke-linecap="butt" stroke="rgb(166,166,178)">
      <rect fill="none" width="73.96" x="478.72" height="39.1641" y="262.9491"/>
    </g>
    <g font-family="sans-serif" transform="matrix(0.4607,0,0,0.4607,163.5516,252.0077)">
      <text xml:space="preserve" x="484.72" y="258.119" onclick="umlload('http://docs.oracle.com/javase/6/docs/api/java/net/package-summary.html')" stroke="none">java.net</text>
    </g>
    <g fill="rgb(187,187,255)" transform="matrix(0.4607,0,0,0.4607,163.5516,252.0077)" stroke="rgb(187,187,255)">
      <rect x="486.72" y="270.9804" clip-path="url(#clipPath2)" width="32.96" height="23.1328" stroke="none"/>
    </g>
    <g fill="rgb(130,130,178)" stroke-miterlimit="1.45" transform="matrix(0.4607,0,0,0.4607,163.5516,252.0077)" stroke-linecap="butt" stroke="rgb(130,130,178)">
      <rect fill="none" width="32.96" x="486.72" height="23.1328" y="270.9804"/>
    </g>
    <g font-size="13" font-weight="bold" font-family="sans-serif" transform="matrix(0.4607,0,0,0.4607,163.5516,252.0077)">
      <text xml:space="preserve" x="491.2" y="287.0473" onclick="umlload('http://docs.oracle.com/javase/6/docs/api/java/net/URI.html')" stroke="none">URI</text>
    </g>
    <g fill="rgb(238,238,255)" transform="matrix(0.4607,0,0,0.4607,163.5516,252.0077)" stroke="rgb(238,238,255)">
      <rect width="59.1668" x="478.72" height="17.9688" y="157.8475" stroke="none"/>
    </g>
    <g fill="rgb(166,166,178)" stroke-miterlimit="1.45" transform="matrix(0.4607,0,0,0.4607,163.5516,252.0077)" stroke-linecap="butt" stroke="rgb(166,166,178)">
      <rect fill="none" width="59.1668" x="478.72" height="17.9688" y="157.8475"/>
    </g>
    <g fill="rgb(238,238,255)" transform="matrix(0.4607,0,0,0.4607,163.5516,252.0077)" stroke="rgb(238,238,255)">
      <rect width="117.97" x="478.72" height="39.1641" y="175.8163" stroke="none"/>
    </g>
    <g fill="rgb(166,166,178)" stroke-miterlimit="1.45" transform="matrix(0.4607,0,0,0.4607,163.5516,252.0077)" stroke-linecap="butt" stroke="rgb(166,166,178)">
      <rect fill="none" width="117.97" x="478.72" height="39.1641" y="175.8163"/>
    </g>
    <g font-family="sans-serif" transform="matrix(0.4607,0,0,0.4607,163.5516,252.0077)">
      <text xml:space="preserve" x="484.72" y="170.9862" onclick="umlload('http://docs.oracle.com/javase/6/docs/api/java/io/package-summary.html')" stroke="none">java.io</text>
    </g>
    <g fill="rgb(204,204,255)" transform="matrix(0.4607,0,0,0.4607,163.5516,252.0077)" stroke="rgb(204,204,255)">
      <rect x="486.72" y="183.8475" clip-path="url(#clipPath3)" width="101.97" height="23.1328" stroke="none"/>
    </g>
    <g fill="rgb(142,142,178)" stroke-miterlimit="1.45" transform="matrix(0.4607,0,0,0.4607,163.5516,252.0077)" stroke-linecap="butt" stroke="rgb(142,142,178)">
      <rect fill="none" width="101.97" x="486.72" height="23.1328" y="183.8475"/>
    </g>
    <g font-size="13" font-weight="bold" font-family="sans-serif" transform="matrix(0.4607,0,0,0.4607,163.5516,252.0077)">
      <text xml:space="preserve" x="492.205" y="199.9144" onclick="umlload('http://docs.oracle.com/javase/6/docs/api/java/io/InputStream.html')" stroke="none">InputStream</text>
    </g>
    <g fill="rgb(238,238,255)" transform="matrix(0.4607,0,0,0.4607,163.5516,252.0077)" stroke="rgb(238,238,255)">
      <rect width="435.7863" x="478.72" height="17.9688" y="61.1328" stroke="none"/>
    </g>
    <g fill="rgb(166,166,178)" stroke-miterlimit="1.45" transform="matrix(0.4607,0,0,0.4607,163.5516,252.0077)" stroke-linecap="butt" stroke="rgb(166,166,178)">
      <rect fill="none" width="435.7863" x="478.72" height="17.9688" y="61.1328"/>
    </g>
    <g fill="rgb(238,238,255)" transform="matrix(0.4607,0,0,0.4607,163.5516,252.0077)" stroke="rgb(238,238,255)">
      <rect width="436.0502" x="478.72" height="48.746" y="79.1016" stroke="none"/>
    </g>
    <g fill="rgb(166,166,178)" stroke-miterlimit="1.45" transform="matrix(0.4607,0,0,0.4607,163.5516,252.0077)" stroke-linecap="butt" stroke="rgb(166,166,178)">
      <rect fill="none" width="436.0502" x="478.72" height="48.746" y="79.1016"/>
    </g>
    <g font-family="sans-serif" transform="matrix(0.4607,0,0,0.4607,163.5516,252.0077)">
      <text xml:space="preserve" x="484.72" y="74.2715" onclick="umlload('../../../../../../../com/msopentech/odatajclient/engine/communication/response/package-summary.html')" stroke="none">com.msopentech.odatajclient.engine.communication.response</text>
    </g>
    <g fill="rgb(221,221,255)" transform="matrix(0.4607,0,0,0.4607,163.5516,252.0077)" stroke="rgb(221,221,255)">
      <rect x="486.72" y="87.1328" clip-path="url(#clipPath4)" width="351.0502" height="32.7147" stroke="none"/>
    </g>
    <g fill="rgb(154,154,178)" stroke-miterlimit="1.45" transform="matrix(0.4607,0,0,0.4607,163.5516,252.0077)" stroke-linecap="butt" stroke="rgb(154,154,178)">
      <ellipse rx="175.5251" fill="none" ry="16.3574" cx="662.2451" cy="103.4902"/>
    </g>
    <g font-style="italic" font-size="13" font-weight="bold" font-family="sans-serif" transform="matrix(0.4607,0,0,0.4607,163.5516,252.0077)">
      <text xml:space="preserve" x="545.7451" y="107.9907" onclick="umlload('../../../../../../../com/msopentech/odatajclient/engine/communication/response/ODataPropertyUpdateResponse.html')" stroke="none">ODataPropertyUpdateResponse</text>
    </g>
    <g fill="rgb(238,238,255)" transform="matrix(0.4607,0,0,0.4607,163.5516,252.0077)" stroke="rgb(238,238,255)">
      <rect width="336.0617" x="478.72" height="17.9688" y="-26" stroke="none"/>
    </g>
    <g fill="rgb(166,166,178)" stroke-miterlimit="1.45" transform="matrix(0.4607,0,0,0.4607,163.5516,252.0077)" stroke-linecap="butt" stroke="rgb(166,166,178)">
      <rect fill="none" width="336.0617" x="478.72" height="17.9688" y="-26"/>
    </g>
    <g fill="rgb(238,238,255)" transform="matrix(0.4607,0,0,0.4607,163.5516,252.0077)" stroke="rgb(238,238,255)">
      <rect width="336.0617" x="478.72" height="39.1641" y="-8.0312" stroke="none"/>
    </g>
    <g fill="rgb(166,166,178)" stroke-miterlimit="1.45" transform="matrix(0.4607,0,0,0.4607,163.5516,252.0077)" stroke-linecap="butt" stroke="rgb(166,166,178)">
      <rect fill="none" width="336.0617" x="478.72" height="39.1641" y="-8.0312"/>
    </g>
    <g font-family="sans-serif" transform="matrix(0.4607,0,0,0.4607,163.5516,252.0077)">
      <text xml:space="preserve" x="484.72" y="-12.8613" onclick="umlload('../../../../../../../com/msopentech/odatajclient/engine/client/http/package-summary.html')" stroke="none">com.msopentech.odatajclient.engine.client.http</text>
    </g>
    <g fill="rgb(170,170,255)" transform="matrix(0.4607,0,0,0.4607,163.5516,252.0077)" stroke="rgb(170,170,255)">
      <rect x="486.72" y="0" clip-path="url(#clipPath5)" width="99.91" height="23.1328" stroke="none"/>
    </g>
    <g fill="rgb(118,118,178)" stroke-miterlimit="1.45" transform="matrix(0.4607,0,0,0.4607,163.5516,252.0077)" stroke-linecap="butt" stroke="rgb(118,118,178)">
      <rect fill="none" width="99.91" x="486.72" height="23.1328" y="0"/>
    </g>
    <g font-size="13" font-weight="bold" font-family="sans-serif" transform="matrix(0.4607,0,0,0.4607,163.5516,252.0077)">
      <text xml:space="preserve" x="492.175" y="16.0669" onclick="umlload('../../../../../../../com/msopentech/odatajclient/engine/client/http/HttpMethod.html')" stroke="none">HttpMethod</text>
    </g>
    <g fill="rgb(238,238,255)" transform="matrix(0.4607,0,0,0.4607,163.5516,252.0077)" stroke="rgb(238,238,255)">
      <rect width="298.9302" x="-354.34" height="17.9688" y="-26" stroke="none"/>
    </g>
    <g fill="rgb(166,166,178)" stroke-miterlimit="1.45" transform="matrix(0.4607,0,0,0.4607,163.5516,252.0077)" stroke-linecap="butt" stroke="rgb(166,166,178)">
      <rect fill="none" width="298.9302" x="-354.34" height="17.9688" y="-26"/>
    </g>
    <g fill="rgb(238,238,255)" transform="matrix(0.4607,0,0,0.4607,163.5516,252.0077)" stroke="rgb(238,238,255)">
      <rect width="298.9302" x="-354.34" height="39.1641" y="-8.0312" stroke="none"/>
    </g>
    <g fill="rgb(166,166,178)" stroke-miterlimit="1.45" transform="matrix(0.4607,0,0,0.4607,163.5516,252.0077)" stroke-linecap="butt" stroke="rgb(166,166,178)">
      <rect fill="none" width="298.9302" x="-354.34" height="39.1641" y="-8.0312"/>
    </g>
    <g font-family="sans-serif" transform="matrix(0.4607,0,0,0.4607,163.5516,252.0077)">
      <text xml:space="preserve" x="-348.34" y="-12.8613" onclick="umlload('../../../../../../../com/msopentech/odatajclient/engine/data/package-summary.html')" stroke="none">com.msopentech.odatajclient.engine.data</text>
    </g>
    <g fill="rgb(187,187,255)" transform="matrix(0.4607,0,0,0.4607,163.5516,252.0077)" stroke="rgb(187,187,255)">
      <rect x="-346.34" y="0" clip-path="url(#clipPath6)" width="121.54" height="23.1328" stroke="none"/>
    </g>
    <g fill="rgb(130,130,178)" stroke-miterlimit="1.45" transform="matrix(0.4607,0,0,0.4607,163.5516,252.0077)" stroke-linecap="butt" stroke="rgb(130,130,178)">
      <rect fill="none" width="121.54" x="-346.34" height="23.1328" y="0"/>
    </g>
    <g font-size="13" font-weight="bold" font-family="sans-serif" transform="matrix(0.4607,0,0,0.4607,163.5516,252.0077)">
      <text xml:space="preserve" x="-340.57" y="16.0669" onclick="umlload('../../../../../../../com/msopentech/odatajclient/engine/data/ODataProperty.html')" stroke="none">ODataProperty</text>
    </g>
    <g fill="rgb(238,238,255)" transform="matrix(0.4607,0,0,0.4607,163.5516,252.0077)" stroke="rgb(238,238,255)">
      <rect width="467.6133" x="474.5792" height="17.9688" y="-142.7147" stroke="none"/>
    </g>
    <g fill="rgb(166,166,178)" stroke-miterlimit="1.45" transform="matrix(0.4607,0,0,0.4607,163.5516,252.0077)" stroke-linecap="butt" stroke="rgb(166,166,178)">
      <rect fill="none" width="467.6133" x="474.5792" height="17.9688" y="-142.7147"/>
    </g>
    <g fill="rgb(238,238,255)" transform="matrix(0.4607,0,0,0.4607,163.5516,252.0077)" stroke="rgb(238,238,255)">
      <rect width="467.6133" x="474.5792" height="48.746" y="-124.746" stroke="none"/>
    </g>
    <g fill="rgb(166,166,178)" stroke-miterlimit="1.45" transform="matrix(0.4607,0,0,0.4607,163.5516,252.0077)" stroke-linecap="butt" stroke="rgb(166,166,178)">
      <rect fill="none" width="467.6133" x="474.5792" height="48.746" y="-124.746"/>
    </g>
    <g font-family="sans-serif" transform="matrix(0.4607,0,0,0.4607,163.5516,252.0077)">
      <text xml:space="preserve" x="480.5792" y="-129.5761" onclick="umlload('../../../../../../../com/msopentech/odatajclient/engine/communication/request/batch/package-summary.html')" stroke="none">com.msopentech.odatajclient.engine.communication.request.batch</text>
    </g>
    <g fill="rgb(221,221,255)" transform="matrix(0.4607,0,0,0.4607,163.5516,252.0077)" stroke="rgb(221,221,255)">
      <rect x="563.5792" y="-116.7147" clip-path="url(#clipPath7)" width="272.3917" height="32.7147" stroke="none"/>
    </g>
    <g fill="rgb(154,154,178)" stroke-miterlimit="1.45" transform="matrix(0.4607,0,0,0.4607,163.5516,252.0077)" stroke-linecap="butt" stroke="rgb(154,154,178)">
      <ellipse rx="136.1958" fill="none" ry="16.3574" cx="699.775" cy="-100.3574"/>
    </g>
    <g font-style="italic" font-size="13" font-weight="bold" font-family="sans-serif" transform="matrix(0.4607,0,0,0.4607,163.5516,252.0077)">
      <text xml:space="preserve" x="610.275" y="-95.8569" onclick="umlload('../../../../../../../com/msopentech/odatajclient/engine/communication/request/batch/ODataBatchableRequest.html')" stroke="none">ODataBatchableRequest</text>
    </g>
    <g fill="rgb(238,238,255)" transform="matrix(0.4607,0,0,0.4607,163.5516,252.0077)" stroke="rgb(238,238,255)">
      <rect width="425.1773" x="-140.87" height="17.9688" y="-133.1328" stroke="none"/>
    </g>
    <g fill="rgb(166,166,178)" stroke-miterlimit="1.45" transform="matrix(0.4607,0,0,0.4607,163.5516,252.0077)" stroke-linecap="butt" stroke="rgb(166,166,178)">
      <rect fill="none" width="425.1773" x="-140.87" height="17.9688" y="-133.1328"/>
    </g>
    <g fill="rgb(238,238,255)" transform="matrix(0.4607,0,0,0.4607,163.5516,252.0077)" stroke="rgb(238,238,255)">
      <rect width="585.59" x="-140.87" height="39.1641" y="-115.1641" stroke="none"/>
    </g>
    <g fill="rgb(166,166,178)" stroke-miterlimit="1.45" transform="matrix(0.4607,0,0,0.4607,163.5516,252.0077)" stroke-linecap="butt" stroke="rgb(166,166,178)">
      <rect fill="none" width="585.59" x="-140.87" height="39.1641" y="-115.1641"/>
    </g>
    <g font-family="sans-serif" transform="matrix(0.4607,0,0,0.4607,163.5516,252.0077)">
      <text xml:space="preserve" x="-134.87" y="-119.9941" onclick="umlload('../../../../../../../com/msopentech/odatajclient/engine/communication/request/package-summary.html')" stroke="none">com.msopentech.odatajclient.engine.communication.request</text>
    </g>
    <g fill="rgb(204,204,255)" transform="matrix(0.4607,0,0,0.4607,163.5516,252.0077)" stroke="rgb(204,204,255)">
      <rect x="-132.87" y="-107.1328" clip-path="url(#clipPath8)" width="569.59" height="23.1328" stroke="none"/>
    </g>
    <g fill="rgb(142,142,178)" stroke-miterlimit="1.45" transform="matrix(0.4607,0,0,0.4607,163.5516,252.0077)" stroke-linecap="butt" stroke="rgb(142,142,178)">
      <rect fill="none" width="569.59" x="-132.87" height="23.1328" y="-107.1328"/>
    </g>
    <g font-size="13" font-weight="bold" font-family="sans-serif" transform="matrix(0.4607,0,0,0.4607,163.5516,252.0077)">
      <text xml:space="preserve" x="-120.575" y="-91.0659" onclick="umlload('../../../../../../../com/msopentech/odatajclient/engine/communication/request/ODataBasicRequestImpl.html')" stroke="none">ODataBasicRequestImpl&lt;ODataPropertyUpdateResponse, ODataFormat&gt;</text>
    </g>
    <g fill="rgb(238,238,255)" transform="matrix(0.4607,0,0,0.4607,163.5516,252.0077)" stroke="rgb(238,238,255)">
      <rect width="453.8216" x="-8" height="17.9688" y="-26" stroke="none"/>
    </g>
    <g fill="rgb(166,166,178)" stroke-miterlimit="1.45" transform="matrix(0.4607,0,0,0.4607,163.5516,252.0077)" stroke-linecap="butt" stroke="rgb(166,166,178)">
      <rect fill="none" width="453.8216" x="-8" height="17.9688" y="-26"/>
    </g>
    <g fill="rgb(238,238,255)" transform="matrix(0.4607,0,0,0.4607,163.5516,252.0077)" stroke="rgb(238,238,255)">
      <rect width="453.85" x="-8" height="318.1444" y="-8.0312" stroke="none"/>
    </g>
    <g fill="rgb(166,166,178)" stroke-miterlimit="1.45" transform="matrix(0.4607,0,0,0.4607,163.5516,252.0077)" stroke-linecap="butt" stroke="rgb(166,166,178)">
      <rect fill="none" width="453.85" x="-8" height="318.1444" y="-8.0312"/>
    </g>
    <g font-family="sans-serif" transform="matrix(0.4607,0,0,0.4607,163.5516,252.0077)">
      <text xml:space="preserve" x="-2" y="-12.8613" onclick="umlload('package-summary.html')" stroke="none">com.msopentech.odatajclient.engine.communication.request.cud</text>
    </g>
    <g fill="rgb(187,187,255)" transform="matrix(0.4607,0,0,0.4607,163.5516,252.0077)" stroke="rgb(187,187,255)">
      <rect x="0" y="0" clip-path="url(#clipPath9)" width="303.85" height="26.625" stroke="none"/>
      <line clip-path="url(#clipPath9)" fill="none" x1="0" x2="303.85" y1="26.625" y2="26.625" stroke="black"/>
      <line clip-path="url(#clipPath9)" x1="0" x2="303.85" y1="27.625" y2="27.625" stroke="none"/>
      <line clip-path="url(#clipPath9)" fill="none" x1="0" x2="303.85" y1="27.625" y2="27.625" stroke="black"/>
      <rect x="0" y="28.625" clip-path="url(#clipPath9)" width="303.85" height="273.4882" stroke="none"/>
    </g>
    <g fill="rgb(130,130,178)" stroke-miterlimit="1.45" transform="matrix(0.4607,0,0,0.4607,163.5516,252.0077)" stroke-linecap="butt" stroke="rgb(130,130,178)">
      <rect fill="none" width="303.85" x="0" height="302.1132" y="0"/>
    </g>
    <g font-size="16" font-weight="bold" font-family="sans-serif" transform="matrix(0.4607,0,0,0.4607,163.5516,252.0077)">
      <text xml:space="preserve" x="16.425" y="18.8516" onclick="umlload('#')" stroke="none">ODataPropertyUpdateRequest</text>
    </g>
    <g font-family="sans-serif" transform="matrix(0.4607,0,0,0.4607,163.5516,252.0077)">
      <text xml:space="preserve" x="4" y="39.1719" stroke="none">+</text>
      <text xml:space="preserve" x="19" y="40.7637" onclick="umlload('#execute()')" stroke="none">execute() : ODataPropertyUpdateResponse</text>
    </g>
    <g font-family="sans-serif" transform="matrix(0.4607,0,0,0.4607,163.5516,252.0077)">
      <text xml:space="preserve" x="4" y="55.1719" stroke="none">#</text>
      <text xml:space="preserve" x="19" y="56.7324" onclick="umlload('#getPayload()')" stroke="none">getPayload() : InputStream</text>
    </g>
    <g font-family="sans-serif" transform="matrix(0.4607,0,0,0.4607,163.5516,252.0077)">
      <text xml:space="preserve" x="-349" y="335.1543" onclick="umlload('http://www.yworks.com/')" stroke="none">yWorks UML Doclet</text>
    </g>
    <g stroke-miterlimit="1.45" transform="matrix(0.4607,0,0,0.4607,163.5516,252.0077)" stroke-linecap="butt">
      <path fill="none" d="M151.925 0.0176 L151.925 -69"/>
      <path fill="white" d="M151.925 -84 L145.925 -68 L157.925 -68 Z" stroke="none"/>
      <path fill="none" d="M151.925 -84 L145.925 -68 L157.925 -68 Z"/>
      <path fill="none" stroke-dasharray="6,2" d="M227.8875 -0.0008 L227.8875 -51 L699.775 -51 L699.775 -69"/>
      <path fill="white" stroke-dasharray="6,2" d="M699.775 -84 L693.775 -68 L705.775 -68 Z" stroke="none"/>
      <path fill="none" d="M699.775 -84 L693.775 -68 L705.775 -68 Z"/>
      <path fill="none" d="M0.014 11.5664 L-224.8 11.5664"/>
      <line stroke-linecap="square" transform="matrix(-1,0,0,-1,-224.8,11.5664)" fill="none" x1="0" x2="-14" y1="0" y2="-4" stroke-miterlimit="10"/>
      <line stroke-linecap="square" transform="matrix(-1,0,0,-1,-224.8,11.5664)" fill="none" x1="0" x2="-14" y1="0" y2="4" stroke-miterlimit="10"/>
    </g>
    <g stroke-dasharray="6,2" stroke-miterlimit="1.45" transform="matrix(0.4607,0,0,0.4607,163.5516,252.0077)" stroke-linecap="butt">
      <path fill="none" d="M303.8618 11.5664 L486.72 11.5664"/>
      <line stroke-linecap="square" transform="matrix(1,0,0,1,486.72,11.5664)" fill="none" x1="0" x2="-14" y1="0" y2="-4" stroke-dasharray="none" stroke-miterlimit="10"/>
      <line stroke-linecap="square" transform="matrix(1,0,0,1,486.72,11.5664)" fill="none" x1="0" x2="-14" y1="0" y2="4" stroke-dasharray="none" stroke-miterlimit="10"/>
    </g>
    <g stroke-dasharray="6,2" stroke-miterlimit="1.45" transform="matrix(0.4607,0,0,0.4607,163.5516,252.0077)" stroke-linecap="butt">
      <path fill="none" d="M303.8312 103.4902 L486.72 103.4902"/>
      <line stroke-linecap="square" transform="matrix(1,0,0,1,486.72,103.4902)" fill="none" x1="0" x2="-14" y1="0" y2="-4" stroke-dasharray="none" stroke-miterlimit="10"/>
      <line stroke-linecap="square" transform="matrix(1,0,0,1,486.72,103.4902)" fill="none" x1="0" x2="-14" y1="0" y2="4" stroke-dasharray="none" stroke-miterlimit="10"/>
    </g>
    <g stroke-dasharray="6,2" stroke-miterlimit="1.45" transform="matrix(0.4607,0,0,0.4607,163.5516,252.0077)" stroke-linecap="butt">
      <path fill="none" d="M303.8918 195.414 L486.72 195.414"/>
      <line stroke-linecap="square" transform="matrix(1,0,0,1,486.72,195.414)" fill="none" x1="0" x2="-14" y1="0" y2="-4" stroke-dasharray="none" stroke-miterlimit="10"/>
      <line stroke-linecap="square" transform="matrix(1,0,0,1,486.72,195.414)" fill="none" x1="0" x2="-14" y1="0" y2="4" stroke-dasharray="none" stroke-miterlimit="10"/>
    </g>
    <g stroke-dasharray="6,2" stroke-miterlimit="1.45" transform="matrix(0.4607,0,0,0.4607,163.5516,252.0077)" stroke-linecap="butt">
      <path fill="none" d="M303.8497 282.5468 L486.72 282.5468"/>
      <line stroke-linecap="square" transform="matrix(1,0,0,1,486.72,282.5468)" fill="none" x1="0" x2="-14" y1="0" y2="-4" stroke-dasharray="none" stroke-miterlimit="10"/>
      <line stroke-linecap="square" transform="matrix(1,0,0,1,486.72,282.5468)" fill="none" x1="0" x2="-14" y1="0" y2="4" stroke-dasharray="none" stroke-miterlimit="10"/>
    </g>
  </g>
</svg>
