<?xml version="1.0" encoding="UTF-8"?><svg xmlns="http://www.w3.org/2000/svg" xmlns:xlink="http://www.w3.org/1999/xlink" fill-opacity="1" color-rendering="auto" color-interpolation="auto" stroke="black" text-rendering="auto" stroke-linecap="square" width="598" stroke-miterlimit="10" stroke-opacity="1" shape-rendering="auto" fill="black" stroke-dasharray="none" font-weight="normal" stroke-width="1" height="598" font-family="'Dialog'" font-style="normal" stroke-linejoin="miter" font-size="12" stroke-dashoffset="0" image-rendering="auto">
  <!--Generated by ySVG-->
  <defs id="genericDefs"/>
  <g>
    <defs id="defs1">
      <clipPath clipPathUnits="userSpaceOnUse" id="clipPath1">
        <path d="M0 0 L598 0 L598 598 L0 598 L0 0 Z"/>
      </clipPath>
      <clipPath clipPathUnits="userSpaceOnUse" id="clipPath2">
        <path d="M755.0345 113.0721 C755.0345 122.106 728.2959 129.4295 695.3123 129.4295 C662.3286 129.4295 635.59 122.106 635.59 113.0721 C635.59 104.0382 662.3286 96.7147 695.3123 96.7147 C728.2959 96.7147 755.0345 104.0382 755.0345 113.0721 Z"/>
      </clipPath>
      <clipPath clipPathUnits="userSpaceOnUse" id="clipPath3">
        <path d="M797.277 16.3574 C797.277 25.3913 761.0822 32.7147 716.4335 32.7147 C671.7849 32.7147 635.59 25.3913 635.59 16.3574 C635.59 7.3234 671.7849 0 716.4335 0 C761.0822 0 797.277 7.3234 797.277 16.3574 Z"/>
      </clipPath>
      <clipPath clipPathUnits="userSpaceOnUse" id="clipPath4">
        <path d="M899.3336 -100.3574 C899.3336 -91.3234 825.3135 -84 734.005 -84 C642.6965 -84 568.6764 -91.3234 568.6764 -100.3574 C568.6764 -109.3913 642.6965 -116.7147 734.005 -116.7147 C825.3135 -116.7147 899.3336 -109.3913 899.3336 -100.3574 Z"/>
      </clipPath>
      <clipPath clipPathUnits="userSpaceOnUse" id="clipPath5">
        <path d="M203.425 -107.1328 L366.165 -107.1328 L366.165 -84 L203.425 -84 L203.425 -107.1328 Z"/>
      </clipPath>
      <clipPath clipPathUnits="userSpaceOnUse" id="clipPath6">
        <path d="M0 0 L569.59 0 L569.59 137.4295 L0 137.4295 L0 0 Z"/>
      </clipPath>
      <script type="text/ecmascript"><![CDATA[
function umlload(newLocation)
{
if (newLocation.charAt(0) != '#') {
if (newLocation.indexOf("://") > -1) {
window.parent.location.href = newLocation;
} else {
var tmp = window.parent.location.href;
tmp = tmp.substring(0, tmp.lastIndexOf("/") + 1);
window.parent.location.href = tmp.concat(newLocation);
}
} else {
window.parent.location.hash = newLocation;
}
}
]]></script>
    </defs>
    <g fill="rgb(238,238,255)" transform="matrix(0.6171,0,0,0.6171,4.937,286.9659)" stroke="rgb(238,238,255)">
      <rect width="165.2568" x="627.59" height="17.9688" y="70.7147" stroke="none"/>
    </g>
    <g fill="rgb(166,166,178)" stroke-miterlimit="1.45" transform="matrix(0.6171,0,0,0.6171,4.937,286.9659)" stroke-linecap="butt" stroke="rgb(166,166,178)">
      <rect fill="none" width="165.2568" x="627.59" height="17.9688" y="70.7147"/>
    </g>
    <g fill="rgb(238,238,255)" transform="matrix(0.6171,0,0,0.6171,4.937,286.9659)" stroke="rgb(238,238,255)">
      <rect width="166.4445" x="627.59" height="48.746" y="88.6835" stroke="none"/>
    </g>
    <g fill="rgb(166,166,178)" stroke-miterlimit="1.45" transform="matrix(0.6171,0,0,0.6171,4.937,286.9659)" stroke-linecap="butt" stroke="rgb(166,166,178)">
      <rect fill="none" width="166.4445" x="627.59" height="48.746" y="88.6835"/>
    </g>
    <g font-family="sans-serif" transform="matrix(0.6171,0,0,0.6171,4.937,286.9659)">
      <text xml:space="preserve" x="633.59" y="83.8534" stroke="none">org.apache.http.client</text>
    </g>
    <g fill="rgb(221,221,255)" transform="matrix(0.6171,0,0,0.6171,4.937,286.9659)" stroke="rgb(221,221,255)">
      <rect x="635.59" y="96.7147" clip-path="url(#clipPath2)" width="119.4445" height="32.7147" stroke="none"/>
    </g>
    <g fill="rgb(154,154,178)" stroke-miterlimit="1.45" transform="matrix(0.6171,0,0,0.6171,4.937,286.9659)" stroke-linecap="butt" stroke="rgb(154,154,178)">
      <ellipse rx="59.7222" fill="none" ry="16.3574" cx="695.3122" cy="113.0721"/>
    </g>
    <g font-style="italic" font-size="13" font-weight="bold" font-family="sans-serif" transform="matrix(0.6171,0,0,0.6171,4.937,286.9659)">
      <text xml:space="preserve" x="658.3123" y="117.5726" stroke="none">HttpClient</text>
    </g>
    <g fill="rgb(238,238,255)" transform="matrix(0.6171,0,0,0.6171,4.937,286.9659)" stroke="rgb(238,238,255)">
      <rect width="124.9426" x="627.59" height="17.9688" y="-26" stroke="none"/>
    </g>
    <g fill="rgb(166,166,178)" stroke-miterlimit="1.45" transform="matrix(0.6171,0,0,0.6171,4.937,286.9659)" stroke-linecap="butt" stroke="rgb(166,166,178)">
      <rect fill="none" width="124.9426" x="627.59" height="17.9688" y="-26"/>
    </g>
    <g fill="rgb(238,238,255)" transform="matrix(0.6171,0,0,0.6171,4.937,286.9659)" stroke="rgb(238,238,255)">
      <rect width="177.687" x="627.59" height="48.746" y="-8.0312" stroke="none"/>
    </g>
    <g fill="rgb(166,166,178)" stroke-miterlimit="1.45" transform="matrix(0.6171,0,0,0.6171,4.937,286.9659)" stroke-linecap="butt" stroke="rgb(166,166,178)">
      <rect fill="none" width="177.687" x="627.59" height="48.746" y="-8.0312"/>
    </g>
    <g font-family="sans-serif" transform="matrix(0.6171,0,0,0.6171,4.937,286.9659)">
      <text xml:space="preserve" x="633.59" y="-12.8613" stroke="none">org.apache.http</text>
    </g>
    <g fill="rgb(221,221,255)" transform="matrix(0.6171,0,0,0.6171,4.937,286.9659)" stroke="rgb(221,221,255)">
      <rect x="635.59" y="0" clip-path="url(#clipPath3)" width="161.687" height="32.7147" stroke="none"/>
    </g>
    <g fill="rgb(154,154,178)" stroke-miterlimit="1.45" transform="matrix(0.6171,0,0,0.6171,4.937,286.9659)" stroke-linecap="butt" stroke="rgb(154,154,178)">
      <ellipse rx="80.8435" fill="none" ry="16.3574" cx="716.4335" cy="16.3574"/>
    </g>
    <g font-style="italic" font-size="13" font-weight="bold" font-family="sans-serif" transform="matrix(0.6171,0,0,0.6171,4.937,286.9659)">
      <text xml:space="preserve" x="664.9335" y="20.8579" stroke="none">HttpResponse</text>
    </g>
    <g fill="rgb(238,238,255)" transform="matrix(0.6171,0,0,0.6171,4.937,286.9659)" stroke="rgb(238,238,255)">
      <rect width="435.7863" x="524.6764" height="17.9688" y="-142.7147" stroke="none"/>
    </g>
    <g fill="rgb(166,166,178)" stroke-miterlimit="1.45" transform="matrix(0.6171,0,0,0.6171,4.937,286.9659)" stroke-linecap="butt" stroke="rgb(166,166,178)">
      <rect fill="none" width="435.7863" x="524.6764" height="17.9688" y="-142.7147"/>
    </g>
    <g fill="rgb(238,238,255)" transform="matrix(0.6171,0,0,0.6171,4.937,286.9659)" stroke="rgb(238,238,255)">
      <rect width="435.7863" x="524.6764" height="48.746" y="-124.746" stroke="none"/>
    </g>
    <g fill="rgb(166,166,178)" stroke-miterlimit="1.45" transform="matrix(0.6171,0,0,0.6171,4.937,286.9659)" stroke-linecap="butt" stroke="rgb(166,166,178)">
      <rect fill="none" width="435.7863" x="524.6764" height="48.746" y="-124.746"/>
    </g>
    <g font-family="sans-serif" transform="matrix(0.6171,0,0,0.6171,4.937,286.9659)">
      <text xml:space="preserve" x="530.6764" y="-129.5761" onclick="umlload('../../../../../../../com/msopentech/odatajclient/engine/communication/response/package-summary.html')" stroke="none">com.msopentech.odatajclient.engine.communication.response</text>
    </g>
    <g fill="rgb(221,221,255)" transform="matrix(0.6171,0,0,0.6171,4.937,286.9659)" stroke="rgb(221,221,255)">
      <rect x="568.6764" y="-116.7147" clip-path="url(#clipPath4)" width="330.6573" height="32.7147" stroke="none"/>
    </g>
    <g fill="rgb(154,154,178)" stroke-miterlimit="1.45" transform="matrix(0.6171,0,0,0.6171,4.937,286.9659)" stroke-linecap="butt" stroke="rgb(154,154,178)">
      <ellipse rx="165.3286" fill="none" ry="16.3574" cx="734.005" cy="-100.3574"/>
    </g>
    <g font-style="italic" font-size="13" font-weight="bold" font-family="sans-serif" transform="matrix(0.6171,0,0,0.6171,4.937,286.9659)">
      <text xml:space="preserve" x="624.505" y="-95.8569" onclick="umlload('../../../../../../../com/msopentech/odatajclient/engine/communication/response/ODataLinkOperationResponse.html')" stroke="none">ODataLinkOperationResponse</text>
    </g>
    <g fill="rgb(238,238,255)" transform="matrix(0.6171,0,0,0.6171,4.937,286.9659)" stroke="rgb(238,238,255)">
      <rect width="435.7863" x="75.425" height="17.9688" y="-133.1328" stroke="none"/>
    </g>
    <g fill="rgb(166,166,178)" stroke-miterlimit="1.45" transform="matrix(0.6171,0,0,0.6171,4.937,286.9659)" stroke-linecap="butt" stroke="rgb(166,166,178)">
      <rect fill="none" width="435.7863" x="75.425" height="17.9688" y="-133.1328"/>
    </g>
    <g fill="rgb(238,238,255)" transform="matrix(0.6171,0,0,0.6171,4.937,286.9659)" stroke="rgb(238,238,255)">
      <rect width="435.7863" x="75.425" height="39.1641" y="-115.1641" stroke="none"/>
    </g>
    <g fill="rgb(166,166,178)" stroke-miterlimit="1.45" transform="matrix(0.6171,0,0,0.6171,4.937,286.9659)" stroke-linecap="butt" stroke="rgb(166,166,178)">
      <rect fill="none" width="435.7863" x="75.425" height="39.1641" y="-115.1641"/>
    </g>
    <g font-family="sans-serif" transform="matrix(0.6171,0,0,0.6171,4.937,286.9659)">
      <text xml:space="preserve" x="81.425" y="-119.9941" onclick="umlload('../../../../../../../com/msopentech/odatajclient/engine/communication/response/package-summary.html')" stroke="none">com.msopentech.odatajclient.engine.communication.response</text>
    </g>
    <g fill="rgb(204,204,255)" transform="matrix(0.6171,0,0,0.6171,4.937,286.9659)" stroke="rgb(204,204,255)">
      <rect x="203.425" y="-107.1328" clip-path="url(#clipPath5)" width="162.74" height="23.1328" stroke="none"/>
    </g>
    <g fill="rgb(142,142,178)" stroke-miterlimit="1.45" transform="matrix(0.6171,0,0,0.6171,4.937,286.9659)" stroke-linecap="butt" stroke="rgb(142,142,178)">
      <rect fill="none" width="162.74" x="203.425" height="23.1328" y="-107.1328"/>
    </g>
    <g font-size="13" font-weight="bold" font-family="sans-serif" transform="matrix(0.6171,0,0,0.6171,4.937,286.9659)">
      <text xml:space="preserve" x="209.795" y="-91.0659" onclick="umlload('../../../../../../../com/msopentech/odatajclient/engine/communication/response/ODataResponseImpl.html')" stroke="none">ODataResponseImpl</text>
    </g>
    <g fill="rgb(238,238,255)" transform="matrix(0.6171,0,0,0.6171,4.937,286.9659)" stroke="rgb(238,238,255)">
      <rect width="453.8216" x="-8" height="17.9688" y="-26" stroke="none"/>
    </g>
    <g fill="rgb(166,166,178)" stroke-miterlimit="1.45" transform="matrix(0.6171,0,0,0.6171,4.937,286.9659)" stroke-linecap="butt" stroke="rgb(166,166,178)">
      <rect fill="none" width="453.8216" x="-8" height="17.9688" y="-26"/>
    </g>
    <g fill="rgb(238,238,255)" transform="matrix(0.6171,0,0,0.6171,4.937,286.9659)" stroke="rgb(238,238,255)">
      <rect width="585.59" x="-8" height="153.4607" y="-8.0312" stroke="none"/>
    </g>
    <g fill="rgb(166,166,178)" stroke-miterlimit="1.45" transform="matrix(0.6171,0,0,0.6171,4.937,286.9659)" stroke-linecap="butt" stroke="rgb(166,166,178)">
      <rect fill="none" width="585.59" x="-8" height="153.4607" y="-8.0312"/>
    </g>
    <g font-family="sans-serif" transform="matrix(0.6171,0,0,0.6171,4.937,286.9659)">
      <text xml:space="preserve" x="-2" y="-12.8613" onclick="umlload('package-summary.html')" stroke="none">com.msopentech.odatajclient.engine.communication.request.cud</text>
    </g>
    <g fill="rgb(187,187,255)" transform="matrix(0.6171,0,0,0.6171,4.937,286.9659)" stroke="rgb(187,187,255)">
      <rect x="0" y="0" clip-path="url(#clipPath6)" width="569.59" height="26.625" stroke="none"/>
      <line clip-path="url(#clipPath6)" fill="none" x1="0" x2="569.59" y1="26.625" y2="26.625" stroke="black"/>
      <rect x="0" y="27.625" clip-path="url(#clipPath6)" width="569.59" height="15.9688" stroke="none"/>
      <line clip-path="url(#clipPath6)" fill="none" x1="0" x2="569.59" y1="43.5938" y2="43.5938" stroke="black"/>
      <rect x="0" y="44.5938" clip-path="url(#clipPath6)" width="569.59" height="92.8357" stroke="none"/>
    </g>
    <g fill="rgb(130,130,178)" stroke-miterlimit="1.45" transform="matrix(0.6171,0,0,0.6171,4.937,286.9659)" stroke-linecap="butt" stroke="rgb(130,130,178)">
      <rect fill="none" width="569.59" x="0" height="137.4295" y="0"/>
    </g>
    <g font-size="16" font-weight="bold" font-family="sans-serif" transform="matrix(0.6171,0,0,0.6171,4.937,286.9659)">
      <text xml:space="preserve" x="28.795" y="18.8516" onclick="umlload('#')" stroke="none">ODataLinkUpdateRequest.ODataLinkUpdateResponseImpl</text>
    </g>
    <g font-family="sans-serif" transform="matrix(0.6171,0,0,0.6171,4.937,286.9659)">
      <text xml:space="preserve" x="4" y="38.1719" stroke="none">+</text>
      <text xml:space="preserve" x="19" y="39.7637" onclick="umlload('#ODataLinkUpdateRequest.ODataLinkUpdateResponseImpl(org.apache.http.client.HttpClient, org.apache.http.HttpResponse)')" stroke="none">ODataLinkUpdateRequest.ODataLinkUpdateResponseImpl(HttpClient, HttpResponse)</text>
    </g>
    <g font-family="sans-serif" transform="matrix(0.6171,0,0,0.6171,4.937,286.9659)">
      <text xml:space="preserve" x="-2" y="170.1543" onclick="umlload('http://www.yworks.com/')" stroke="none">yWorks UML Doclet</text>
    </g>
    <g stroke-miterlimit="1.45" transform="matrix(0.6171,0,0,0.6171,4.937,286.9659)" stroke-linecap="butt">
      <path fill="none" d="M284.795 -0.0039 L284.795 -69"/>
      <path fill="white" d="M284.795 -84 L278.795 -68 L290.795 -68 Z" stroke="none"/>
      <path fill="none" d="M284.795 -84 L278.795 -68 L290.795 -68 Z"/>
      <path fill="none" stroke-dasharray="6,2" d="M427.1925 0 L427.1925 -51 L734.005 -51 L734.005 -69"/>
      <path fill="white" stroke-dasharray="6,2" d="M734.005 -84 L728.005 -68 L740.005 -68 Z" stroke="none"/>
      <path fill="none" d="M734.005 -84 L728.005 -68 L740.005 -68 Z"/>
      <path fill="none" stroke-dasharray="6,2" d="M569.6121 16.3574 L635.59 16.3574"/>
      <line stroke-linecap="square" transform="matrix(1,0,0,1,635.59,16.3574)" fill="none" x1="0" x2="-14" y1="0" y2="-4" stroke-miterlimit="10"/>
      <line stroke-linecap="square" transform="matrix(1,0,0,1,635.59,16.3574)" fill="none" x1="0" x2="-14" y1="0" y2="4" stroke-miterlimit="10"/>
    </g>
    <g stroke-dasharray="6,2" stroke-miterlimit="1.45" transform="matrix(0.6171,0,0,0.6171,4.937,286.9659)" stroke-linecap="butt">
      <path fill="none" d="M569.6064 113.0721 L635.59 113.0721"/>
      <line stroke-linecap="square" transform="matrix(1,0,0,1,635.59,113.0721)" fill="none" x1="0" x2="-14" y1="0" y2="-4" stroke-dasharray="none" stroke-miterlimit="10"/>
      <line stroke-linecap="square" transform="matrix(1,0,0,1,635.59,113.0721)" fill="none" x1="0" x2="-14" y1="0" y2="4" stroke-dasharray="none" stroke-miterlimit="10"/>
    </g>
  </g>
</svg>
