<?xml version="1.0" encoding="UTF-8"?><svg xmlns="http://www.w3.org/2000/svg" xmlns:xlink="http://www.w3.org/1999/xlink" fill-opacity="1" color-rendering="auto" color-interpolation="auto" stroke="black" text-rendering="auto" stroke-linecap="square" width="598" stroke-miterlimit="10" stroke-opacity="1" shape-rendering="auto" fill="black" stroke-dasharray="none" font-weight="normal" stroke-width="1" height="598" font-family="'Dialog'" font-style="normal" stroke-linejoin="miter" font-size="12" stroke-dashoffset="0" image-rendering="auto">
  <!--Generated by ySVG-->
  <defs id="genericDefs"/>
  <g>
    <defs id="defs1">
      <clipPath clipPathUnits="userSpaceOnUse" id="clipPath1">
        <path d="M0 0 L598 0 L598 598 L0 598 L0 0 Z"/>
      </clipPath>
      <clipPath clipPathUnits="userSpaceOnUse" id="clipPath2">
        <path d="M486.72 270.9804 L519.68 270.9804 L519.68 294.1132 L486.72 294.1132 L486.72 270.9804 Z"/>
      </clipPath>
      <clipPath clipPathUnits="userSpaceOnUse" id="clipPath3">
        <path d="M486.72 183.8475 L588.69 183.8475 L588.69 206.9804 L486.72 206.9804 L486.72 183.8475 Z"/>
      </clipPath>
      <clipPath clipPathUnits="userSpaceOnUse" id="clipPath4">
        <path d="M738.7187 103.4902 C738.7187 112.5241 682.3069 119.8475 612.7194 119.8475 C543.1318 119.8475 486.72 112.5241 486.72 103.4902 C486.72 94.4563 543.1318 87.1328 612.7194 87.1328 C682.3069 87.1328 738.7187 94.4563 738.7187 103.4902 Z"/>
      </clipPath>
      <clipPath clipPathUnits="userSpaceOnUse" id="clipPath5">
        <path d="M486.72 -0 L586.63 -0 L586.63 23.1328 L486.72 23.1328 L486.72 -0 Z"/>
      </clipPath>
      <clipPath clipPathUnits="userSpaceOnUse" id="clipPath6">
        <path d="M784.9858 -100.3574 C784.9858 -91.3234 724.0089 -84 648.79 -84 C573.5711 -84 512.5942 -91.3234 512.5942 -100.3574 C512.5942 -109.3913 573.5711 -116.7147 648.79 -116.7147 C724.0089 -116.7147 784.9858 -109.3913 784.9858 -100.3574 Z"/>
      </clipPath>
      <clipPath clipPathUnits="userSpaceOnUse" id="clipPath7">
        <path d="M-141.625 -107.1328 L385.735 -107.1328 L385.735 -84 L-141.625 -84 L-141.625 -107.1328 Z"/>
      </clipPath>
      <clipPath clipPathUnits="userSpaceOnUse" id="clipPath8">
        <path d="M0 -0 L244.11 -0 L244.11 302.1132 L0 302.1132 L0 -0 Z"/>
      </clipPath>
      <script type="text/ecmascript"><![CDATA[
function umlload(newLocation)
{
if (newLocation.charAt(0) != '#') {
if (newLocation.indexOf("://") > -1) {
window.parent.location.href = newLocation;
} else {
var tmp = window.parent.location.href;
tmp = tmp.substring(0, tmp.lastIndexOf("/") + 1);
window.parent.location.href = tmp.concat(newLocation);
}
} else {
window.parent.location.hash = newLocation;
}
}
]]></script>
    </defs>
    <g fill="rgb(238,238,255)" transform="matrix(0.5615,0,0,0.5615,84.2254,242.0075)" stroke="rgb(238,238,255)">
      <rect width="69.7758" x="478.72" height="17.9688" y="244.9804" stroke="none"/>
    </g>
    <g fill="rgb(166,166,178)" stroke-miterlimit="1.45" transform="matrix(0.5615,0,0,0.5615,84.2254,242.0075)" stroke-linecap="butt" stroke="rgb(166,166,178)">
      <rect fill="none" width="69.7758" x="478.72" height="17.9688" y="244.9804"/>
    </g>
    <g fill="rgb(238,238,255)" transform="matrix(0.5615,0,0,0.5615,84.2254,242.0075)" stroke="rgb(238,238,255)">
      <rect width="73.96" x="478.72" height="39.1641" y="262.9491" stroke="none"/>
    </g>
    <g fill="rgb(166,166,178)" stroke-miterlimit="1.45" transform="matrix(0.5615,0,0,0.5615,84.2254,242.0075)" stroke-linecap="butt" stroke="rgb(166,166,178)">
      <rect fill="none" width="73.96" x="478.72" height="39.1641" y="262.9491"/>
    </g>
    <g font-family="sans-serif" transform="matrix(0.5615,0,0,0.5615,84.2254,242.0075)">
      <text xml:space="preserve" x="484.72" y="258.119" onclick="umlload('http://docs.oracle.com/javase/6/docs/api/java/net/package-summary.html')" stroke="none">java.net</text>
    </g>
    <g fill="rgb(187,187,255)" transform="matrix(0.5615,0,0,0.5615,84.2254,242.0075)" stroke="rgb(187,187,255)">
      <rect x="486.72" y="270.9804" clip-path="url(#clipPath2)" width="32.96" height="23.1328" stroke="none"/>
    </g>
    <g fill="rgb(130,130,178)" stroke-miterlimit="1.45" transform="matrix(0.5615,0,0,0.5615,84.2254,242.0075)" stroke-linecap="butt" stroke="rgb(130,130,178)">
      <rect fill="none" width="32.96" x="486.72" height="23.1328" y="270.9804"/>
    </g>
    <g font-size="13" font-weight="bold" font-family="sans-serif" transform="matrix(0.5615,0,0,0.5615,84.2254,242.0075)">
      <text xml:space="preserve" x="491.2" y="287.0473" onclick="umlload('http://docs.oracle.com/javase/6/docs/api/java/net/URI.html')" stroke="none">URI</text>
    </g>
    <g fill="rgb(238,238,255)" transform="matrix(0.5615,0,0,0.5615,84.2254,242.0075)" stroke="rgb(238,238,255)">
      <rect width="59.1668" x="478.72" height="17.9688" y="157.8475" stroke="none"/>
    </g>
    <g fill="rgb(166,166,178)" stroke-miterlimit="1.45" transform="matrix(0.5615,0,0,0.5615,84.2254,242.0075)" stroke-linecap="butt" stroke="rgb(166,166,178)">
      <rect fill="none" width="59.1668" x="478.72" height="17.9688" y="157.8475"/>
    </g>
    <g fill="rgb(238,238,255)" transform="matrix(0.5615,0,0,0.5615,84.2254,242.0075)" stroke="rgb(238,238,255)">
      <rect width="117.97" x="478.72" height="39.1641" y="175.8163" stroke="none"/>
    </g>
    <g fill="rgb(166,166,178)" stroke-miterlimit="1.45" transform="matrix(0.5615,0,0,0.5615,84.2254,242.0075)" stroke-linecap="butt" stroke="rgb(166,166,178)">
      <rect fill="none" width="117.97" x="478.72" height="39.1641" y="175.8163"/>
    </g>
    <g font-family="sans-serif" transform="matrix(0.5615,0,0,0.5615,84.2254,242.0075)">
      <text xml:space="preserve" x="484.72" y="170.9862" onclick="umlload('http://docs.oracle.com/javase/6/docs/api/java/io/package-summary.html')" stroke="none">java.io</text>
    </g>
    <g fill="rgb(204,204,255)" transform="matrix(0.5615,0,0,0.5615,84.2254,242.0075)" stroke="rgb(204,204,255)">
      <rect x="486.72" y="183.8475" clip-path="url(#clipPath3)" width="101.97" height="23.1328" stroke="none"/>
    </g>
    <g fill="rgb(142,142,178)" stroke-miterlimit="1.45" transform="matrix(0.5615,0,0,0.5615,84.2254,242.0075)" stroke-linecap="butt" stroke="rgb(142,142,178)">
      <rect fill="none" width="101.97" x="486.72" height="23.1328" y="183.8475"/>
    </g>
    <g font-size="13" font-weight="bold" font-family="sans-serif" transform="matrix(0.5615,0,0,0.5615,84.2254,242.0075)">
      <text xml:space="preserve" x="492.205" y="199.9144" onclick="umlload('http://docs.oracle.com/javase/6/docs/api/java/io/InputStream.html')" stroke="none">InputStream</text>
    </g>
    <g fill="rgb(238,238,255)" transform="matrix(0.5615,0,0,0.5615,84.2254,242.0075)" stroke="rgb(238,238,255)">
      <rect width="435.7863" x="478.72" height="17.9688" y="61.1328" stroke="none"/>
    </g>
    <g fill="rgb(166,166,178)" stroke-miterlimit="1.45" transform="matrix(0.5615,0,0,0.5615,84.2254,242.0075)" stroke-linecap="butt" stroke="rgb(166,166,178)">
      <rect fill="none" width="435.7863" x="478.72" height="17.9688" y="61.1328"/>
    </g>
    <g fill="rgb(238,238,255)" transform="matrix(0.5615,0,0,0.5615,84.2254,242.0075)" stroke="rgb(238,238,255)">
      <rect width="435.9987" x="478.72" height="48.746" y="79.1016" stroke="none"/>
    </g>
    <g fill="rgb(166,166,178)" stroke-miterlimit="1.45" transform="matrix(0.5615,0,0,0.5615,84.2254,242.0075)" stroke-linecap="butt" stroke="rgb(166,166,178)">
      <rect fill="none" width="435.9987" x="478.72" height="48.746" y="79.1016"/>
    </g>
    <g font-family="sans-serif" transform="matrix(0.5615,0,0,0.5615,84.2254,242.0075)">
      <text xml:space="preserve" x="484.72" y="74.2715" onclick="umlload('../../../../../../../com/msopentech/odatajclient/engine/communication/response/package-summary.html')" stroke="none">com.msopentech.odatajclient.engine.communication.response</text>
    </g>
    <g fill="rgb(221,221,255)" transform="matrix(0.5615,0,0,0.5615,84.2254,242.0075)" stroke="rgb(221,221,255)">
      <rect x="486.72" y="87.1328" clip-path="url(#clipPath4)" width="251.9987" height="32.7147" stroke="none"/>
    </g>
    <g fill="rgb(154,154,178)" stroke-miterlimit="1.45" transform="matrix(0.5615,0,0,0.5615,84.2254,242.0075)" stroke-linecap="butt" stroke="rgb(154,154,178)">
      <ellipse rx="125.9994" fill="none" ry="16.3574" cx="612.7194" cy="103.4902"/>
    </g>
    <g font-style="italic" font-size="13" font-weight="bold" font-family="sans-serif" transform="matrix(0.5615,0,0,0.5615,84.2254,242.0075)">
      <text xml:space="preserve" x="530.2194" y="107.9907" onclick="umlload('../../../../../../../com/msopentech/odatajclient/engine/communication/response/ODataDeleteResponse.html')" stroke="none">ODataDeleteResponse</text>
    </g>
    <g fill="rgb(238,238,255)" transform="matrix(0.5615,0,0,0.5615,84.2254,242.0075)" stroke="rgb(238,238,255)">
      <rect width="336.0617" x="478.72" height="17.9688" y="-26" stroke="none"/>
    </g>
    <g fill="rgb(166,166,178)" stroke-miterlimit="1.45" transform="matrix(0.5615,0,0,0.5615,84.2254,242.0075)" stroke-linecap="butt" stroke="rgb(166,166,178)">
      <rect fill="none" width="336.0617" x="478.72" height="17.9688" y="-26"/>
    </g>
    <g fill="rgb(238,238,255)" transform="matrix(0.5615,0,0,0.5615,84.2254,242.0075)" stroke="rgb(238,238,255)">
      <rect width="336.0617" x="478.72" height="39.1641" y="-8.0312" stroke="none"/>
    </g>
    <g fill="rgb(166,166,178)" stroke-miterlimit="1.45" transform="matrix(0.5615,0,0,0.5615,84.2254,242.0075)" stroke-linecap="butt" stroke="rgb(166,166,178)">
      <rect fill="none" width="336.0617" x="478.72" height="39.1641" y="-8.0312"/>
    </g>
    <g font-family="sans-serif" transform="matrix(0.5615,0,0,0.5615,84.2254,242.0075)">
      <text xml:space="preserve" x="484.72" y="-12.8613" onclick="umlload('../../../../../../../com/msopentech/odatajclient/engine/client/http/package-summary.html')" stroke="none">com.msopentech.odatajclient.engine.client.http</text>
    </g>
    <g fill="rgb(170,170,255)" transform="matrix(0.5615,0,0,0.5615,84.2254,242.0075)" stroke="rgb(170,170,255)">
      <rect x="486.72" y="0" clip-path="url(#clipPath5)" width="99.91" height="23.1328" stroke="none"/>
    </g>
    <g fill="rgb(118,118,178)" stroke-miterlimit="1.45" transform="matrix(0.5615,0,0,0.5615,84.2254,242.0075)" stroke-linecap="butt" stroke="rgb(118,118,178)">
      <rect fill="none" width="99.91" x="486.72" height="23.1328" y="0"/>
    </g>
    <g font-size="13" font-weight="bold" font-family="sans-serif" transform="matrix(0.5615,0,0,0.5615,84.2254,242.0075)">
      <text xml:space="preserve" x="492.175" y="16.0669" onclick="umlload('../../../../../../../com/msopentech/odatajclient/engine/client/http/HttpMethod.html')" stroke="none">HttpMethod</text>
    </g>
    <g fill="rgb(238,238,255)" transform="matrix(0.5615,0,0,0.5615,84.2254,242.0075)" stroke="rgb(238,238,255)">
      <rect width="467.6133" x="423.5942" height="17.9688" y="-142.7147" stroke="none"/>
    </g>
    <g fill="rgb(166,166,178)" stroke-miterlimit="1.45" transform="matrix(0.5615,0,0,0.5615,84.2254,242.0075)" stroke-linecap="butt" stroke="rgb(166,166,178)">
      <rect fill="none" width="467.6133" x="423.5942" height="17.9688" y="-142.7147"/>
    </g>
    <g fill="rgb(238,238,255)" transform="matrix(0.5615,0,0,0.5615,84.2254,242.0075)" stroke="rgb(238,238,255)">
      <rect width="467.6133" x="423.5942" height="48.746" y="-124.746" stroke="none"/>
    </g>
    <g fill="rgb(166,166,178)" stroke-miterlimit="1.45" transform="matrix(0.5615,0,0,0.5615,84.2254,242.0075)" stroke-linecap="butt" stroke="rgb(166,166,178)">
      <rect fill="none" width="467.6133" x="423.5942" height="48.746" y="-124.746"/>
    </g>
    <g font-family="sans-serif" transform="matrix(0.5615,0,0,0.5615,84.2254,242.0075)">
      <text xml:space="preserve" x="429.5942" y="-129.5761" onclick="umlload('../../../../../../../com/msopentech/odatajclient/engine/communication/request/batch/package-summary.html')" stroke="none">com.msopentech.odatajclient.engine.communication.request.batch</text>
    </g>
    <g fill="rgb(221,221,255)" transform="matrix(0.5615,0,0,0.5615,84.2254,242.0075)" stroke="rgb(221,221,255)">
      <rect x="512.5942" y="-116.7147" clip-path="url(#clipPath6)" width="272.3917" height="32.7147" stroke="none"/>
    </g>
    <g fill="rgb(154,154,178)" stroke-miterlimit="1.45" transform="matrix(0.5615,0,0,0.5615,84.2254,242.0075)" stroke-linecap="butt" stroke="rgb(154,154,178)">
      <ellipse rx="136.1958" fill="none" ry="16.3574" cx="648.79" cy="-100.3574"/>
    </g>
    <g font-style="italic" font-size="13" font-weight="bold" font-family="sans-serif" transform="matrix(0.5615,0,0,0.5615,84.2254,242.0075)">
      <text xml:space="preserve" x="559.29" y="-95.8569" onclick="umlload('../../../../../../../com/msopentech/odatajclient/engine/communication/request/batch/ODataBatchableRequest.html')" stroke="none">ODataBatchableRequest</text>
    </g>
    <g fill="rgb(238,238,255)" transform="matrix(0.5615,0,0,0.5615,84.2254,242.0075)" stroke="rgb(238,238,255)">
      <rect width="425.1773" x="-149.625" height="17.9688" y="-133.1328" stroke="none"/>
    </g>
    <g fill="rgb(166,166,178)" stroke-miterlimit="1.45" transform="matrix(0.5615,0,0,0.5615,84.2254,242.0075)" stroke-linecap="butt" stroke="rgb(166,166,178)">
      <rect fill="none" width="425.1773" x="-149.625" height="17.9688" y="-133.1328"/>
    </g>
    <g fill="rgb(238,238,255)" transform="matrix(0.5615,0,0,0.5615,84.2254,242.0075)" stroke="rgb(238,238,255)">
      <rect width="543.36" x="-149.625" height="39.1641" y="-115.1641" stroke="none"/>
    </g>
    <g fill="rgb(166,166,178)" stroke-miterlimit="1.45" transform="matrix(0.5615,0,0,0.5615,84.2254,242.0075)" stroke-linecap="butt" stroke="rgb(166,166,178)">
      <rect fill="none" width="543.36" x="-149.625" height="39.1641" y="-115.1641"/>
    </g>
    <g font-family="sans-serif" transform="matrix(0.5615,0,0,0.5615,84.2254,242.0075)">
      <text xml:space="preserve" x="-143.625" y="-119.9941" onclick="umlload('../../../../../../../com/msopentech/odatajclient/engine/communication/request/package-summary.html')" stroke="none">com.msopentech.odatajclient.engine.communication.request</text>
    </g>
    <g fill="rgb(204,204,255)" transform="matrix(0.5615,0,0,0.5615,84.2254,242.0075)" stroke="rgb(204,204,255)">
      <rect x="-141.625" y="-107.1328" clip-path="url(#clipPath7)" width="527.36" height="23.1328" stroke="none"/>
    </g>
    <g fill="rgb(142,142,178)" stroke-miterlimit="1.45" transform="matrix(0.5615,0,0,0.5615,84.2254,242.0075)" stroke-linecap="butt" stroke="rgb(142,142,178)">
      <rect fill="none" width="527.36" x="-141.625" height="23.1328" y="-107.1328"/>
    </g>
    <g font-size="13" font-weight="bold" font-family="sans-serif" transform="matrix(0.5615,0,0,0.5615,84.2254,242.0075)">
      <text xml:space="preserve" x="-129.945" y="-91.0659" onclick="umlload('../../../../../../../com/msopentech/odatajclient/engine/communication/request/ODataBasicRequestImpl.html')" stroke="none">ODataBasicRequestImpl&lt;ODataDeleteResponse, ODataPubFormat&gt;</text>
    </g>
    <g fill="rgb(238,238,255)" transform="matrix(0.5615,0,0,0.5615,84.2254,242.0075)" stroke="rgb(238,238,255)">
      <rect width="453.8216" x="-8" height="17.9688" y="-26" stroke="none"/>
    </g>
    <g fill="rgb(166,166,178)" stroke-miterlimit="1.45" transform="matrix(0.5615,0,0,0.5615,84.2254,242.0075)" stroke-linecap="butt" stroke="rgb(166,166,178)">
      <rect fill="none" width="453.8216" x="-8" height="17.9688" y="-26"/>
    </g>
    <g fill="rgb(238,238,255)" transform="matrix(0.5615,0,0,0.5615,84.2254,242.0075)" stroke="rgb(238,238,255)">
      <rect width="454.11" x="-8" height="318.1444" y="-8.0312" stroke="none"/>
    </g>
    <g fill="rgb(166,166,178)" stroke-miterlimit="1.45" transform="matrix(0.5615,0,0,0.5615,84.2254,242.0075)" stroke-linecap="butt" stroke="rgb(166,166,178)">
      <rect fill="none" width="454.11" x="-8" height="318.1444" y="-8.0312"/>
    </g>
    <g font-family="sans-serif" transform="matrix(0.5615,0,0,0.5615,84.2254,242.0075)">
      <text xml:space="preserve" x="-2" y="-12.8613" onclick="umlload('package-summary.html')" stroke="none">com.msopentech.odatajclient.engine.communication.request.cud</text>
    </g>
    <g fill="rgb(187,187,255)" transform="matrix(0.5615,0,0,0.5615,84.2254,242.0075)" stroke="rgb(187,187,255)">
      <rect x="0" y="0" clip-path="url(#clipPath8)" width="244.11" height="26.625" stroke="none"/>
      <line clip-path="url(#clipPath8)" fill="none" x1="0" x2="244.11" y1="26.625" y2="26.625" stroke="black"/>
      <line clip-path="url(#clipPath8)" x1="0" x2="244.11" y1="27.625" y2="27.625" stroke="none"/>
      <line clip-path="url(#clipPath8)" fill="none" x1="0" x2="244.11" y1="27.625" y2="27.625" stroke="black"/>
      <rect x="0" y="28.625" clip-path="url(#clipPath8)" width="244.11" height="273.4882" stroke="none"/>
    </g>
    <g fill="rgb(130,130,178)" stroke-miterlimit="1.45" transform="matrix(0.5615,0,0,0.5615,84.2254,242.0075)" stroke-linecap="butt" stroke="rgb(130,130,178)">
      <rect fill="none" width="244.11" x="0" height="302.1132" y="0"/>
    </g>
    <g font-size="16" font-weight="bold" font-family="sans-serif" transform="matrix(0.5615,0,0,0.5615,84.2254,242.0075)">
      <text xml:space="preserve" x="28.555" y="18.8516" onclick="umlload('#')" stroke="none">ODataDeleteRequest</text>
    </g>
    <g font-family="sans-serif" transform="matrix(0.5615,0,0,0.5615,84.2254,242.0075)">
      <text xml:space="preserve" x="4" y="39.1719" stroke="none">+</text>
      <text xml:space="preserve" x="19" y="40.7637" onclick="umlload('#execute()')" stroke="none">execute() : ODataDeleteResponse</text>
    </g>
    <g font-family="sans-serif" transform="matrix(0.5615,0,0,0.5615,84.2254,242.0075)">
      <text xml:space="preserve" x="4" y="55.1719" stroke="none">#</text>
      <text xml:space="preserve" x="19" y="56.7324" onclick="umlload('#getPayload()')" stroke="none">getPayload() : InputStream</text>
    </g>
    <g font-family="sans-serif" transform="matrix(0.5615,0,0,0.5615,84.2254,242.0075)">
      <text xml:space="preserve" x="-144" y="335.1543" onclick="umlload('http://www.yworks.com/')" stroke="none">yWorks UML Doclet</text>
    </g>
    <g stroke-miterlimit="1.45" transform="matrix(0.5615,0,0,0.5615,84.2254,242.0075)" stroke-linecap="butt">
      <path fill="none" d="M122.055 0.0176 L122.055 -69"/>
      <path fill="white" d="M122.055 -84 L116.055 -68 L128.055 -68 Z" stroke="none"/>
      <path fill="none" d="M122.055 -84 L116.055 -68 L128.055 -68 Z"/>
      <path fill="none" stroke-dasharray="6,2" d="M183.0825 -0.0008 L183.0825 -51 L648.79 -51 L648.79 -69"/>
      <path fill="white" stroke-dasharray="6,2" d="M648.79 -84 L642.79 -68 L654.79 -68 Z" stroke="none"/>
      <path fill="none" d="M648.79 -84 L642.79 -68 L654.79 -68 Z"/>
      <path fill="none" stroke-dasharray="6,2" d="M244.1078 11.5664 L486.72 11.5664"/>
      <line stroke-linecap="square" transform="matrix(1,0,0,1,486.72,11.5664)" fill="none" x1="0" x2="-14" y1="0" y2="-4" stroke-miterlimit="10"/>
      <line stroke-linecap="square" transform="matrix(1,0,0,1,486.72,11.5664)" fill="none" x1="0" x2="-14" y1="0" y2="4" stroke-miterlimit="10"/>
    </g>
    <g stroke-dasharray="6,2" stroke-miterlimit="1.45" transform="matrix(0.5615,0,0,0.5615,84.2254,242.0075)" stroke-linecap="butt">
      <path fill="none" d="M244.0922 103.4902 L486.72 103.4902"/>
      <line stroke-linecap="square" transform="matrix(1,0,0,1,486.72,103.4902)" fill="none" x1="0" x2="-14" y1="0" y2="-4" stroke-dasharray="none" stroke-miterlimit="10"/>
      <line stroke-linecap="square" transform="matrix(1,0,0,1,486.72,103.4902)" fill="none" x1="0" x2="-14" y1="0" y2="4" stroke-dasharray="none" stroke-miterlimit="10"/>
    </g>
    <g stroke-dasharray="6,2" stroke-miterlimit="1.45" transform="matrix(0.5615,0,0,0.5615,84.2254,242.0075)" stroke-linecap="butt">
      <path fill="none" d="M244.1065 195.414 L486.72 195.414"/>
      <line stroke-linecap="square" transform="matrix(1,0,0,1,486.72,195.414)" fill="none" x1="0" x2="-14" y1="0" y2="-4" stroke-dasharray="none" stroke-miterlimit="10"/>
      <line stroke-linecap="square" transform="matrix(1,0,0,1,486.72,195.414)" fill="none" x1="0" x2="-14" y1="0" y2="4" stroke-dasharray="none" stroke-miterlimit="10"/>
    </g>
    <g stroke-dasharray="6,2" stroke-miterlimit="1.45" transform="matrix(0.5615,0,0,0.5615,84.2254,242.0075)" stroke-linecap="butt">
      <path fill="none" d="M244.094 282.5468 L486.72 282.5468"/>
      <line stroke-linecap="square" transform="matrix(1,0,0,1,486.72,282.5468)" fill="none" x1="0" x2="-14" y1="0" y2="-4" stroke-dasharray="none" stroke-miterlimit="10"/>
      <line stroke-linecap="square" transform="matrix(1,0,0,1,486.72,282.5468)" fill="none" x1="0" x2="-14" y1="0" y2="4" stroke-dasharray="none" stroke-miterlimit="10"/>
    </g>
  </g>
</svg>
