<?xml version="1.0" encoding="UTF-8"?><svg xmlns="http://www.w3.org/2000/svg" xmlns:xlink="http://www.w3.org/1999/xlink" fill-opacity="1" color-rendering="auto" color-interpolation="auto" stroke="black" text-rendering="auto" stroke-linecap="square" width="598" stroke-miterlimit="10" stroke-opacity="1" shape-rendering="auto" fill="black" stroke-dasharray="none" font-weight="normal" stroke-width="1" height="598" font-family="'Dialog'" font-style="normal" stroke-linejoin="miter" font-size="12" stroke-dashoffset="0" image-rendering="auto">
  <!--Generated by ySVG-->
  <defs id="genericDefs"/>
  <g>
    <defs id="defs1">
      <clipPath clipPathUnits="userSpaceOnUse" id="clipPath1">
        <path d="M0 0 L598 0 L598 598 L0 598 L0 0 Z"/>
      </clipPath>
      <clipPath clipPathUnits="userSpaceOnUse" id="clipPath2">
        <path d="M558.34 174.2656 L591.3 174.2656 L591.3 197.3984 L558.34 197.3984 L558.34 174.2656 Z"/>
      </clipPath>
      <clipPath clipPathUnits="userSpaceOnUse" id="clipPath3">
        <path d="M558.34 87.1328 L660.31 87.1328 L660.31 110.2656 L558.34 110.2656 L558.34 87.1328 Z"/>
      </clipPath>
      <clipPath clipPathUnits="userSpaceOnUse" id="clipPath4">
        <path d="M558.34 -0 L658.25 -0 L658.25 23.1328 L558.34 23.1328 L558.34 -0 Z"/>
      </clipPath>
      <clipPath clipPathUnits="userSpaceOnUse" id="clipPath5">
        <path d="M-346.34 -0 L-248.49 -0 L-248.49 23.1328 L-346.34 23.1328 L-346.34 -0 Z"/>
      </clipPath>
      <clipPath clipPathUnits="userSpaceOnUse" id="clipPath6">
        <path d="M939.4858 -100.3574 C939.4858 -91.3234 878.5089 -84 803.29 -84 C728.0711 -84 667.0942 -91.3234 667.0942 -100.3574 C667.0942 -109.3913 728.0711 -116.7147 803.29 -116.7147 C878.5089 -116.7147 939.4858 -109.3913 939.4858 -100.3574 Z"/>
      </clipPath>
      <clipPath clipPathUnits="userSpaceOnUse" id="clipPath7">
        <path d="M-47.895 -107.1328 L540.235 -107.1328 L540.235 -84 L-47.895 -84 L-47.895 -107.1328 Z"/>
      </clipPath>
      <clipPath clipPathUnits="userSpaceOnUse" id="clipPath8">
        <path d="M-0 -0 L492.34 -0 L492.34 205.3984 L-0 205.3984 L-0 -0 Z"/>
      </clipPath>
      <script type="text/ecmascript"><![CDATA[
function umlload(newLocation)
{
if (newLocation.charAt(0) != '#') {
if (newLocation.indexOf("://") > -1) {
window.parent.location.href = newLocation;
} else {
var tmp = window.parent.location.href;
tmp = tmp.substring(0, tmp.lastIndexOf("/") + 1);
window.parent.location.href = tmp.concat(newLocation);
}
} else {
window.parent.location.hash = newLocation;
}
}
]]></script>
    </defs>
    <g fill="rgb(238,238,255)" transform="matrix(0.4268,0,0,0.4268,151.5275,276.1642)" stroke="rgb(238,238,255)">
      <rect width="69.7758" x="550.34" height="17.9688" y="148.2656" stroke="none"/>
    </g>
    <g fill="rgb(166,166,178)" stroke-miterlimit="1.45" transform="matrix(0.4268,0,0,0.4268,151.5275,276.1642)" stroke-linecap="butt" stroke="rgb(166,166,178)">
      <rect fill="none" width="69.7758" x="550.34" height="17.9688" y="148.2656"/>
    </g>
    <g fill="rgb(238,238,255)" transform="matrix(0.4268,0,0,0.4268,151.5275,276.1642)" stroke="rgb(238,238,255)">
      <rect width="73.96" x="550.34" height="39.1641" y="166.2344" stroke="none"/>
    </g>
    <g fill="rgb(166,166,178)" stroke-miterlimit="1.45" transform="matrix(0.4268,0,0,0.4268,151.5275,276.1642)" stroke-linecap="butt" stroke="rgb(166,166,178)">
      <rect fill="none" width="73.96" x="550.34" height="39.1641" y="166.2344"/>
    </g>
    <g font-family="sans-serif" transform="matrix(0.4268,0,0,0.4268,151.5275,276.1642)">
      <text xml:space="preserve" x="556.34" y="161.4043" onclick="umlload('http://docs.oracle.com/javase/6/docs/api/java/net/package-summary.html')" stroke="none">java.net</text>
    </g>
    <g fill="rgb(187,187,255)" transform="matrix(0.4268,0,0,0.4268,151.5275,276.1642)" stroke="rgb(187,187,255)">
      <rect x="558.34" y="174.2656" clip-path="url(#clipPath2)" width="32.96" height="23.1328" stroke="none"/>
    </g>
    <g fill="rgb(130,130,178)" stroke-miterlimit="1.45" transform="matrix(0.4268,0,0,0.4268,151.5275,276.1642)" stroke-linecap="butt" stroke="rgb(130,130,178)">
      <rect fill="none" width="32.96" x="558.34" height="23.1328" y="174.2656"/>
    </g>
    <g font-size="13" font-weight="bold" font-family="sans-serif" transform="matrix(0.4268,0,0,0.4268,151.5275,276.1642)">
      <text xml:space="preserve" x="562.82" y="190.3325" onclick="umlload('http://docs.oracle.com/javase/6/docs/api/java/net/URI.html')" stroke="none">URI</text>
    </g>
    <g fill="rgb(238,238,255)" transform="matrix(0.4268,0,0,0.4268,151.5275,276.1642)" stroke="rgb(238,238,255)">
      <rect width="59.1668" x="550.34" height="17.9688" y="61.1328" stroke="none"/>
    </g>
    <g fill="rgb(166,166,178)" stroke-miterlimit="1.45" transform="matrix(0.4268,0,0,0.4268,151.5275,276.1642)" stroke-linecap="butt" stroke="rgb(166,166,178)">
      <rect fill="none" width="59.1668" x="550.34" height="17.9688" y="61.1328"/>
    </g>
    <g fill="rgb(238,238,255)" transform="matrix(0.4268,0,0,0.4268,151.5275,276.1642)" stroke="rgb(238,238,255)">
      <rect width="117.97" x="550.34" height="39.1641" y="79.1016" stroke="none"/>
    </g>
    <g fill="rgb(166,166,178)" stroke-miterlimit="1.45" transform="matrix(0.4268,0,0,0.4268,151.5275,276.1642)" stroke-linecap="butt" stroke="rgb(166,166,178)">
      <rect fill="none" width="117.97" x="550.34" height="39.1641" y="79.1016"/>
    </g>
    <g font-family="sans-serif" transform="matrix(0.4268,0,0,0.4268,151.5275,276.1642)">
      <text xml:space="preserve" x="556.34" y="74.2715" onclick="umlload('http://docs.oracle.com/javase/6/docs/api/java/io/package-summary.html')" stroke="none">java.io</text>
    </g>
    <g fill="rgb(204,204,255)" transform="matrix(0.4268,0,0,0.4268,151.5275,276.1642)" stroke="rgb(204,204,255)">
      <rect x="558.34" y="87.1328" clip-path="url(#clipPath3)" width="101.97" height="23.1328" stroke="none"/>
    </g>
    <g fill="rgb(142,142,178)" stroke-miterlimit="1.45" transform="matrix(0.4268,0,0,0.4268,151.5275,276.1642)" stroke-linecap="butt" stroke="rgb(142,142,178)">
      <rect fill="none" width="101.97" x="558.34" height="23.1328" y="87.1328"/>
    </g>
    <g font-size="13" font-weight="bold" font-family="sans-serif" transform="matrix(0.4268,0,0,0.4268,151.5275,276.1642)">
      <text xml:space="preserve" x="563.825" y="103.1997" onclick="umlload('http://docs.oracle.com/javase/6/docs/api/java/io/InputStream.html')" stroke="none">InputStream</text>
    </g>
    <g fill="rgb(238,238,255)" transform="matrix(0.4268,0,0,0.4268,151.5275,276.1642)" stroke="rgb(238,238,255)">
      <rect width="336.0617" x="550.34" height="17.9688" y="-26" stroke="none"/>
    </g>
    <g fill="rgb(166,166,178)" stroke-miterlimit="1.45" transform="matrix(0.4268,0,0,0.4268,151.5275,276.1642)" stroke-linecap="butt" stroke="rgb(166,166,178)">
      <rect fill="none" width="336.0617" x="550.34" height="17.9688" y="-26"/>
    </g>
    <g fill="rgb(238,238,255)" transform="matrix(0.4268,0,0,0.4268,151.5275,276.1642)" stroke="rgb(238,238,255)">
      <rect width="336.0617" x="550.34" height="39.1641" y="-8.0312" stroke="none"/>
    </g>
    <g fill="rgb(166,166,178)" stroke-miterlimit="1.45" transform="matrix(0.4268,0,0,0.4268,151.5275,276.1642)" stroke-linecap="butt" stroke="rgb(166,166,178)">
      <rect fill="none" width="336.0617" x="550.34" height="39.1641" y="-8.0312"/>
    </g>
    <g font-family="sans-serif" transform="matrix(0.4268,0,0,0.4268,151.5275,276.1642)">
      <text xml:space="preserve" x="556.34" y="-12.8613" onclick="umlload('../../../../../../../com/msopentech/odatajclient/engine/client/http/package-summary.html')" stroke="none">com.msopentech.odatajclient.engine.client.http</text>
    </g>
    <g fill="rgb(170,170,255)" transform="matrix(0.4268,0,0,0.4268,151.5275,276.1642)" stroke="rgb(170,170,255)">
      <rect x="558.34" y="0" clip-path="url(#clipPath4)" width="99.91" height="23.1328" stroke="none"/>
    </g>
    <g fill="rgb(118,118,178)" stroke-miterlimit="1.45" transform="matrix(0.4268,0,0,0.4268,151.5275,276.1642)" stroke-linecap="butt" stroke="rgb(118,118,178)">
      <rect fill="none" width="99.91" x="558.34" height="23.1328" y="0"/>
    </g>
    <g font-size="13" font-weight="bold" font-family="sans-serif" transform="matrix(0.4268,0,0,0.4268,151.5275,276.1642)">
      <text xml:space="preserve" x="563.795" y="16.0669" onclick="umlload('../../../../../../../com/msopentech/odatajclient/engine/client/http/HttpMethod.html')" stroke="none">HttpMethod</text>
    </g>
    <g fill="rgb(238,238,255)" transform="matrix(0.4268,0,0,0.4268,151.5275,276.1642)" stroke="rgb(238,238,255)">
      <rect width="298.9302" x="-354.34" height="17.9688" y="-26" stroke="none"/>
    </g>
    <g fill="rgb(166,166,178)" stroke-miterlimit="1.45" transform="matrix(0.4268,0,0,0.4268,151.5275,276.1642)" stroke-linecap="butt" stroke="rgb(166,166,178)">
      <rect fill="none" width="298.9302" x="-354.34" height="17.9688" y="-26"/>
    </g>
    <g fill="rgb(238,238,255)" transform="matrix(0.4268,0,0,0.4268,151.5275,276.1642)" stroke="rgb(238,238,255)">
      <rect width="298.9302" x="-354.34" height="39.1641" y="-8.0312" stroke="none"/>
    </g>
    <g fill="rgb(166,166,178)" stroke-miterlimit="1.45" transform="matrix(0.4268,0,0,0.4268,151.5275,276.1642)" stroke-linecap="butt" stroke="rgb(166,166,178)">
      <rect fill="none" width="298.9302" x="-354.34" height="39.1641" y="-8.0312"/>
    </g>
    <g font-family="sans-serif" transform="matrix(0.4268,0,0,0.4268,151.5275,276.1642)">
      <text xml:space="preserve" x="-348.34" y="-12.8613" onclick="umlload('../../../../../../../com/msopentech/odatajclient/engine/data/package-summary.html')" stroke="none">com.msopentech.odatajclient.engine.data</text>
    </g>
    <g fill="rgb(204,204,255)" transform="matrix(0.4268,0,0,0.4268,151.5275,276.1642)" stroke="rgb(204,204,255)">
      <rect x="-346.34" y="0" clip-path="url(#clipPath5)" width="97.85" height="23.1328" stroke="none"/>
    </g>
    <g fill="rgb(142,142,178)" stroke-miterlimit="1.45" transform="matrix(0.4268,0,0,0.4268,151.5275,276.1642)" stroke-linecap="butt" stroke="rgb(142,142,178)">
      <rect fill="none" width="97.85" x="-346.34" height="23.1328" y="0"/>
    </g>
    <g font-size="13" font-weight="bold" font-family="sans-serif" transform="matrix(0.4268,0,0,0.4268,151.5275,276.1642)">
      <text xml:space="preserve" x="-340.915" y="16.0669" onclick="umlload('../../../../../../../com/msopentech/odatajclient/engine/data/ODataValue.html')" stroke="none">ODataValue</text>
    </g>
    <g fill="rgb(238,238,255)" transform="matrix(0.4268,0,0,0.4268,151.5275,276.1642)" stroke="rgb(238,238,255)">
      <rect width="467.6133" x="578.0942" height="17.9688" y="-142.7147" stroke="none"/>
    </g>
    <g fill="rgb(166,166,178)" stroke-miterlimit="1.45" transform="matrix(0.4268,0,0,0.4268,151.5275,276.1642)" stroke-linecap="butt" stroke="rgb(166,166,178)">
      <rect fill="none" width="467.6133" x="578.0942" height="17.9688" y="-142.7147"/>
    </g>
    <g fill="rgb(238,238,255)" transform="matrix(0.4268,0,0,0.4268,151.5275,276.1642)" stroke="rgb(238,238,255)">
      <rect width="467.6133" x="578.0942" height="48.746" y="-124.746" stroke="none"/>
    </g>
    <g fill="rgb(166,166,178)" stroke-miterlimit="1.45" transform="matrix(0.4268,0,0,0.4268,151.5275,276.1642)" stroke-linecap="butt" stroke="rgb(166,166,178)">
      <rect fill="none" width="467.6133" x="578.0942" height="48.746" y="-124.746"/>
    </g>
    <g font-family="sans-serif" transform="matrix(0.4268,0,0,0.4268,151.5275,276.1642)">
      <text xml:space="preserve" x="584.0942" y="-129.5761" onclick="umlload('../../../../../../../com/msopentech/odatajclient/engine/communication/request/batch/package-summary.html')" stroke="none">com.msopentech.odatajclient.engine.communication.request.batch</text>
    </g>
    <g fill="rgb(221,221,255)" transform="matrix(0.4268,0,0,0.4268,151.5275,276.1642)" stroke="rgb(221,221,255)">
      <rect x="667.0942" y="-116.7147" clip-path="url(#clipPath6)" width="272.3917" height="32.7147" stroke="none"/>
    </g>
    <g fill="rgb(154,154,178)" stroke-miterlimit="1.45" transform="matrix(0.4268,0,0,0.4268,151.5275,276.1642)" stroke-linecap="butt" stroke="rgb(154,154,178)">
      <ellipse rx="136.1958" fill="none" ry="16.3574" cx="803.29" cy="-100.3574"/>
    </g>
    <g font-style="italic" font-size="13" font-weight="bold" font-family="sans-serif" transform="matrix(0.4268,0,0,0.4268,151.5275,276.1642)">
      <text xml:space="preserve" x="713.79" y="-95.8569" onclick="umlload('../../../../../../../com/msopentech/odatajclient/engine/communication/request/batch/ODataBatchableRequest.html')" stroke="none">ODataBatchableRequest</text>
    </g>
    <g fill="rgb(238,238,255)" transform="matrix(0.4268,0,0,0.4268,151.5275,276.1642)" stroke="rgb(238,238,255)">
      <rect width="425.1773" x="-55.895" height="17.9688" y="-133.1328" stroke="none"/>
    </g>
    <g fill="rgb(166,166,178)" stroke-miterlimit="1.45" transform="matrix(0.4268,0,0,0.4268,151.5275,276.1642)" stroke-linecap="butt" stroke="rgb(166,166,178)">
      <rect fill="none" width="425.1773" x="-55.895" height="17.9688" y="-133.1328"/>
    </g>
    <g fill="rgb(238,238,255)" transform="matrix(0.4268,0,0,0.4268,151.5275,276.1642)" stroke="rgb(238,238,255)">
      <rect width="604.13" x="-55.895" height="39.1641" y="-115.1641" stroke="none"/>
    </g>
    <g fill="rgb(166,166,178)" stroke-miterlimit="1.45" transform="matrix(0.4268,0,0,0.4268,151.5275,276.1642)" stroke-linecap="butt" stroke="rgb(166,166,178)">
      <rect fill="none" width="604.13" x="-55.895" height="39.1641" y="-115.1641"/>
    </g>
    <g font-family="sans-serif" transform="matrix(0.4268,0,0,0.4268,151.5275,276.1642)">
      <text xml:space="preserve" x="-49.895" y="-119.9941" onclick="umlload('../../../../../../../com/msopentech/odatajclient/engine/communication/request/package-summary.html')" stroke="none">com.msopentech.odatajclient.engine.communication.request</text>
    </g>
    <g fill="rgb(204,204,255)" transform="matrix(0.4268,0,0,0.4268,151.5275,276.1642)" stroke="rgb(204,204,255)">
      <rect x="-47.895" y="-107.1328" clip-path="url(#clipPath7)" width="588.13" height="23.1328" stroke="none"/>
    </g>
    <g fill="rgb(142,142,178)" stroke-miterlimit="1.45" transform="matrix(0.4268,0,0,0.4268,151.5275,276.1642)" stroke-linecap="butt" stroke="rgb(142,142,178)">
      <rect fill="none" width="588.13" x="-47.895" height="23.1328" y="-107.1328"/>
    </g>
    <g font-size="13" font-weight="bold" font-family="sans-serif" transform="matrix(0.4268,0,0,0.4268,151.5275,276.1642)">
      <text xml:space="preserve" x="-35.33" y="-91.0659" onclick="umlload('../../../../../../../com/msopentech/odatajclient/engine/communication/request/ODataBasicRequestImpl.html')" stroke="none">ODataBasicRequestImpl&lt;ODataValueUpdateResponse, ODataValueFormat&gt;</text>
    </g>
    <g fill="rgb(238,238,255)" transform="matrix(0.4268,0,0,0.4268,151.5275,276.1642)" stroke="rgb(238,238,255)">
      <rect width="453.8216" x="-8" height="17.9688" y="-26" stroke="none"/>
    </g>
    <g fill="rgb(166,166,178)" stroke-miterlimit="1.45" transform="matrix(0.4268,0,0,0.4268,151.5275,276.1642)" stroke-linecap="butt" stroke="rgb(166,166,178)">
      <rect fill="none" width="453.8216" x="-8" height="17.9688" y="-26"/>
    </g>
    <g fill="rgb(238,238,255)" transform="matrix(0.4268,0,0,0.4268,151.5275,276.1642)" stroke="rgb(238,238,255)">
      <rect width="508.34" x="-8" height="221.4297" y="-8.0312" stroke="none"/>
    </g>
    <g fill="rgb(166,166,178)" stroke-miterlimit="1.45" transform="matrix(0.4268,0,0,0.4268,151.5275,276.1642)" stroke-linecap="butt" stroke="rgb(166,166,178)">
      <rect fill="none" width="508.34" x="-8" height="221.4297" y="-8.0312"/>
    </g>
    <g font-family="sans-serif" transform="matrix(0.4268,0,0,0.4268,151.5275,276.1642)">
      <text xml:space="preserve" x="-2" y="-12.8613" onclick="umlload('package-summary.html')" stroke="none">com.msopentech.odatajclient.engine.communication.request.cud</text>
    </g>
    <g fill="rgb(187,187,255)" transform="matrix(0.4268,0,0,0.4268,151.5275,276.1642)" stroke="rgb(187,187,255)">
      <rect x="0" y="0" clip-path="url(#clipPath8)" width="492.34" height="26.625" stroke="none"/>
      <line clip-path="url(#clipPath8)" fill="none" x1="0" x2="492.34" y1="26.625" y2="26.625" stroke="black"/>
      <line clip-path="url(#clipPath8)" x1="0" x2="492.34" y1="27.625" y2="27.625" stroke="none"/>
      <line clip-path="url(#clipPath8)" fill="none" x1="0" x2="492.34" y1="27.625" y2="27.625" stroke="black"/>
      <rect x="0" y="28.625" clip-path="url(#clipPath8)" width="492.34" height="176.7734" stroke="none"/>
    </g>
    <g fill="rgb(130,130,178)" stroke-miterlimit="1.45" transform="matrix(0.4268,0,0,0.4268,151.5275,276.1642)" stroke-linecap="butt" stroke="rgb(130,130,178)">
      <rect fill="none" width="492.34" x="0" height="205.3984" y="0"/>
    </g>
    <g font-size="16" font-weight="bold" font-family="sans-serif" transform="matrix(0.4268,0,0,0.4268,151.5275,276.1642)">
      <text xml:space="preserve" x="126.17" y="18.8516" onclick="umlload('#')" stroke="none">ODataValueUpdateRequest</text>
    </g>
    <g font-family="sans-serif" transform="matrix(0.4268,0,0,0.4268,151.5275,276.1642)">
      <text xml:space="preserve" x="4" y="39.1719" stroke="none">+</text>
      <text xml:space="preserve" x="19" y="40.7637" onclick="umlload('#execute()')" stroke="none">execute() : ODataValueUpdateRequest.ODataValueUpdateResponseImpl</text>
    </g>
    <g font-family="sans-serif" transform="matrix(0.4268,0,0,0.4268,151.5275,276.1642)">
      <text xml:space="preserve" x="4" y="55.1719" stroke="none">#</text>
      <text xml:space="preserve" x="19" y="56.7324" onclick="umlload('#getPayload()')" stroke="none">getPayload() : InputStream</text>
    </g>
    <g font-family="sans-serif" transform="matrix(0.4268,0,0,0.4268,151.5275,276.1642)">
      <text xml:space="preserve" x="-349" y="238.1543" onclick="umlload('http://www.yworks.com/')" stroke="none">yWorks UML Doclet</text>
    </g>
    <g stroke-miterlimit="1.45" transform="matrix(0.4268,0,0,0.4268,151.5275,276.1642)" stroke-linecap="butt">
      <path fill="none" d="M246.17 0.0176 L246.17 -69"/>
      <path fill="white" d="M246.17 -84 L240.17 -68 L252.17 -68 Z" stroke="none"/>
      <path fill="none" d="M246.17 -84 L240.17 -68 L252.17 -68 Z"/>
      <path fill="none" stroke-dasharray="6,2" d="M369.255 -0.0008 L369.255 -51 L803.29 -51 L803.29 -69"/>
      <path fill="white" stroke-dasharray="6,2" d="M803.29 -84 L797.29 -68 L809.29 -68 Z" stroke="none"/>
      <path fill="none" d="M803.29 -84 L797.29 -68 L809.29 -68 Z"/>
      <path fill="none" d="M0.0239 11.5664 L-248.49 11.5664"/>
      <line stroke-linecap="square" transform="matrix(-1,0,0,-1,-248.49,11.5664)" fill="none" x1="0" x2="-14" y1="0" y2="-4" stroke-miterlimit="10"/>
      <line stroke-linecap="square" transform="matrix(-1,0,0,-1,-248.49,11.5664)" fill="none" x1="0" x2="-14" y1="0" y2="4" stroke-miterlimit="10"/>
    </g>
    <g stroke-dasharray="6,2" stroke-miterlimit="1.45" transform="matrix(0.4268,0,0,0.4268,151.5275,276.1642)" stroke-linecap="butt">
      <path fill="none" d="M492.346 11.5664 L558.34 11.5664"/>
      <line stroke-linecap="square" transform="matrix(1,0,0,1,558.34,11.5664)" fill="none" x1="0" x2="-14" y1="0" y2="-4" stroke-dasharray="none" stroke-miterlimit="10"/>
      <line stroke-linecap="square" transform="matrix(1,0,0,1,558.34,11.5664)" fill="none" x1="0" x2="-14" y1="0" y2="4" stroke-dasharray="none" stroke-miterlimit="10"/>
    </g>
    <g stroke-dasharray="6,2" stroke-miterlimit="1.45" transform="matrix(0.4268,0,0,0.4268,151.5275,276.1642)" stroke-linecap="butt">
      <path fill="none" d="M492.3369 98.6992 L558.34 98.6992"/>
      <line stroke-linecap="square" transform="matrix(1,0,0,1,558.34,98.6992)" fill="none" x1="0" x2="-14" y1="0" y2="-4" stroke-dasharray="none" stroke-miterlimit="10"/>
      <line stroke-linecap="square" transform="matrix(1,0,0,1,558.34,98.6992)" fill="none" x1="0" x2="-14" y1="0" y2="4" stroke-dasharray="none" stroke-miterlimit="10"/>
    </g>
    <g stroke-dasharray="6,2" stroke-miterlimit="1.45" transform="matrix(0.4268,0,0,0.4268,151.5275,276.1642)" stroke-linecap="butt">
      <path fill="none" d="M492.3767 185.832 L558.34 185.832"/>
      <line stroke-linecap="square" transform="matrix(1,0,0,1,558.34,185.832)" fill="none" x1="0" x2="-14" y1="0" y2="-4" stroke-dasharray="none" stroke-miterlimit="10"/>
      <line stroke-linecap="square" transform="matrix(1,0,0,1,558.34,185.832)" fill="none" x1="0" x2="-14" y1="0" y2="4" stroke-dasharray="none" stroke-miterlimit="10"/>
    </g>
  </g>
</svg>
