<?xml version="1.0" encoding="UTF-8"?><svg xmlns="http://www.w3.org/2000/svg" xmlns:xlink="http://www.w3.org/1999/xlink" fill-opacity="1" color-rendering="auto" color-interpolation="auto" stroke="black" text-rendering="auto" stroke-linecap="square" width="598" stroke-miterlimit="10" stroke-opacity="1" shape-rendering="auto" fill="black" stroke-dasharray="none" font-weight="normal" stroke-width="1" height="598" font-family="'Dialog'" font-style="normal" stroke-linejoin="miter" font-size="12" stroke-dashoffset="0" image-rendering="auto">
  <!--Generated by ySVG-->
  <defs id="genericDefs"/>
  <g>
    <defs id="defs1">
      <clipPath clipPathUnits="userSpaceOnUse" id="clipPath1">
        <path d="M0 0 L598 0 L598 598 L0 598 L0 0 Z"/>
      </clipPath>
      <clipPath clipPathUnits="userSpaceOnUse" id="clipPath2">
        <path d="M486.72 183.8475 L519.68 183.8475 L519.68 206.9804 L486.72 206.9804 L486.72 183.8475 Z"/>
      </clipPath>
      <clipPath clipPathUnits="userSpaceOnUse" id="clipPath3">
        <path d="M486.72 96.7147 L588.69 96.7147 L588.69 119.8475 L486.72 119.8475 L486.72 96.7147 Z"/>
      </clipPath>
      <clipPath clipPathUnits="userSpaceOnUse" id="clipPath4">
        <path d="M801.3542 16.3574 C801.3542 25.3913 730.921 32.7147 644.0371 32.7147 C557.1533 32.7147 486.72 25.3913 486.72 16.3574 C486.72 7.3234 557.1533 0 644.0371 0 C730.921 0 801.3542 7.3234 801.3542 16.3574 Z"/>
      </clipPath>
      <clipPath clipPathUnits="userSpaceOnUse" id="clipPath5">
        <path d="M-346.34 0 L-247.46 0 L-247.46 23.1328 L-346.34 23.1328 L-346.34 0 Z"/>
      </clipPath>
      <clipPath clipPathUnits="userSpaceOnUse" id="clipPath6">
        <path d="M825.6708 -100.3574 C825.6708 -91.3234 764.6939 -84 689.475 -84 C614.2561 -84 553.2792 -91.3234 553.2792 -100.3574 C553.2792 -109.3913 614.2561 -116.7147 689.475 -116.7147 C764.6939 -116.7147 825.6708 -109.3913 825.6708 -100.3574 Z"/>
      </clipPath>
      <clipPath clipPathUnits="userSpaceOnUse" id="clipPath7">
        <path d="M-145.23 -107.1328 L426.42 -107.1328 L426.42 -84 L-145.23 -84 L-145.23 -107.1328 Z"/>
      </clipPath>
      <clipPath clipPathUnits="userSpaceOnUse" id="clipPath8">
        <path d="M0 0 L281.19 0 L281.19 214.9804 L0 214.9804 L0 0 Z"/>
      </clipPath>
      <script type="text/ecmascript"><![CDATA[
function umlload(newLocation)
{
if (newLocation.charAt(0) != '#') {
if (newLocation.indexOf("://") > -1) {
window.parent.location.href = newLocation;
} else {
var tmp = window.parent.location.href;
tmp = tmp.substring(0, tmp.lastIndexOf("/") + 1);
window.parent.location.href = tmp.concat(newLocation);
}
} else {
window.parent.location.hash = newLocation;
}
}
]]></script>
    </defs>
    <g fill="rgb(238,238,255)" transform="matrix(0.4646,0,0,0.4646,164.9495,272.2828)" stroke="rgb(238,238,255)">
      <rect width="69.7758" x="478.72" height="17.9688" y="157.8475" stroke="none"/>
    </g>
    <g fill="rgb(166,166,178)" stroke-miterlimit="1.45" transform="matrix(0.4646,0,0,0.4646,164.9495,272.2828)" stroke-linecap="butt" stroke="rgb(166,166,178)">
      <rect fill="none" width="69.7758" x="478.72" height="17.9688" y="157.8475"/>
    </g>
    <g fill="rgb(238,238,255)" transform="matrix(0.4646,0,0,0.4646,164.9495,272.2828)" stroke="rgb(238,238,255)">
      <rect width="73.96" x="478.72" height="39.1641" y="175.8163" stroke="none"/>
    </g>
    <g fill="rgb(166,166,178)" stroke-miterlimit="1.45" transform="matrix(0.4646,0,0,0.4646,164.9495,272.2828)" stroke-linecap="butt" stroke="rgb(166,166,178)">
      <rect fill="none" width="73.96" x="478.72" height="39.1641" y="175.8163"/>
    </g>
    <g font-family="sans-serif" transform="matrix(0.4646,0,0,0.4646,164.9495,272.2828)">
      <text xml:space="preserve" x="484.72" y="170.9862" onclick="umlload('http://docs.oracle.com/javase/6/docs/api/java/net/package-summary.html')" stroke="none">java.net</text>
    </g>
    <g fill="rgb(187,187,255)" transform="matrix(0.4646,0,0,0.4646,164.9495,272.2828)" stroke="rgb(187,187,255)">
      <rect x="486.72" y="183.8475" clip-path="url(#clipPath2)" width="32.96" height="23.1328" stroke="none"/>
    </g>
    <g fill="rgb(130,130,178)" stroke-miterlimit="1.45" transform="matrix(0.4646,0,0,0.4646,164.9495,272.2828)" stroke-linecap="butt" stroke="rgb(130,130,178)">
      <rect fill="none" width="32.96" x="486.72" height="23.1328" y="183.8475"/>
    </g>
    <g font-size="13" font-weight="bold" font-family="sans-serif" transform="matrix(0.4646,0,0,0.4646,164.9495,272.2828)">
      <text xml:space="preserve" x="491.2" y="199.9144" onclick="umlload('http://docs.oracle.com/javase/6/docs/api/java/net/URI.html')" stroke="none">URI</text>
    </g>
    <g fill="rgb(238,238,255)" transform="matrix(0.4646,0,0,0.4646,164.9495,272.2828)" stroke="rgb(238,238,255)">
      <rect width="59.1668" x="478.72" height="17.9688" y="70.7147" stroke="none"/>
    </g>
    <g fill="rgb(166,166,178)" stroke-miterlimit="1.45" transform="matrix(0.4646,0,0,0.4646,164.9495,272.2828)" stroke-linecap="butt" stroke="rgb(166,166,178)">
      <rect fill="none" width="59.1668" x="478.72" height="17.9688" y="70.7147"/>
    </g>
    <g fill="rgb(238,238,255)" transform="matrix(0.4646,0,0,0.4646,164.9495,272.2828)" stroke="rgb(238,238,255)">
      <rect width="117.97" x="478.72" height="39.1641" y="88.6835" stroke="none"/>
    </g>
    <g fill="rgb(166,166,178)" stroke-miterlimit="1.45" transform="matrix(0.4646,0,0,0.4646,164.9495,272.2828)" stroke-linecap="butt" stroke="rgb(166,166,178)">
      <rect fill="none" width="117.97" x="478.72" height="39.1641" y="88.6835"/>
    </g>
    <g font-family="sans-serif" transform="matrix(0.4646,0,0,0.4646,164.9495,272.2828)">
      <text xml:space="preserve" x="484.72" y="83.8534" onclick="umlload('http://docs.oracle.com/javase/6/docs/api/java/io/package-summary.html')" stroke="none">java.io</text>
    </g>
    <g fill="rgb(204,204,255)" transform="matrix(0.4646,0,0,0.4646,164.9495,272.2828)" stroke="rgb(204,204,255)">
      <rect x="486.72" y="96.7147" clip-path="url(#clipPath3)" width="101.97" height="23.1328" stroke="none"/>
    </g>
    <g fill="rgb(142,142,178)" stroke-miterlimit="1.45" transform="matrix(0.4646,0,0,0.4646,164.9495,272.2828)" stroke-linecap="butt" stroke="rgb(142,142,178)">
      <rect fill="none" width="101.97" x="486.72" height="23.1328" y="96.7147"/>
    </g>
    <g font-size="13" font-weight="bold" font-family="sans-serif" transform="matrix(0.4646,0,0,0.4646,164.9495,272.2828)">
      <text xml:space="preserve" x="492.205" y="112.7816" onclick="umlload('http://docs.oracle.com/javase/6/docs/api/java/io/InputStream.html')" stroke="none">InputStream</text>
    </g>
    <g fill="rgb(238,238,255)" transform="matrix(0.4646,0,0,0.4646,164.9495,272.2828)" stroke="rgb(238,238,255)">
      <rect width="435.7863" x="478.72" height="17.9688" y="-26" stroke="none"/>
    </g>
    <g fill="rgb(166,166,178)" stroke-miterlimit="1.45" transform="matrix(0.4646,0,0,0.4646,164.9495,272.2828)" stroke-linecap="butt" stroke="rgb(166,166,178)">
      <rect fill="none" width="435.7863" x="478.72" height="17.9688" y="-26"/>
    </g>
    <g fill="rgb(238,238,255)" transform="matrix(0.4646,0,0,0.4646,164.9495,272.2828)" stroke="rgb(238,238,255)">
      <rect width="435.7863" x="478.72" height="48.746" y="-8.0312" stroke="none"/>
    </g>
    <g fill="rgb(166,166,178)" stroke-miterlimit="1.45" transform="matrix(0.4646,0,0,0.4646,164.9495,272.2828)" stroke-linecap="butt" stroke="rgb(166,166,178)">
      <rect fill="none" width="435.7863" x="478.72" height="48.746" y="-8.0312"/>
    </g>
    <g font-family="sans-serif" transform="matrix(0.4646,0,0,0.4646,164.9495,272.2828)">
      <text xml:space="preserve" x="484.72" y="-12.8613" onclick="umlload('../../../../../../../com/msopentech/odatajclient/engine/communication/response/package-summary.html')" stroke="none">com.msopentech.odatajclient.engine.communication.response</text>
    </g>
    <g fill="rgb(221,221,255)" transform="matrix(0.4646,0,0,0.4646,164.9495,272.2828)" stroke="rgb(221,221,255)">
      <rect x="486.72" y="0" clip-path="url(#clipPath4)" width="314.6342" height="32.7147" stroke="none"/>
    </g>
    <g fill="rgb(154,154,178)" stroke-miterlimit="1.45" transform="matrix(0.4646,0,0,0.4646,164.9495,272.2828)" stroke-linecap="butt" stroke="rgb(154,154,178)">
      <ellipse rx="157.3171" fill="none" ry="16.3574" cx="644.0371" cy="16.3574"/>
    </g>
    <g font-style="italic" font-size="13" font-weight="bold" font-family="sans-serif" transform="matrix(0.4646,0,0,0.4646,164.9495,272.2828)">
      <text xml:space="preserve" x="540.0371" y="20.8579" onclick="umlload('../../../../../../../com/msopentech/odatajclient/engine/communication/response/ODataEntityCreateResponse.html')" stroke="none">ODataEntityCreateResponse</text>
    </g>
    <g fill="rgb(238,238,255)" transform="matrix(0.4646,0,0,0.4646,164.9495,272.2828)" stroke="rgb(238,238,255)">
      <rect width="298.9302" x="-354.34" height="17.9688" y="-26" stroke="none"/>
    </g>
    <g fill="rgb(166,166,178)" stroke-miterlimit="1.45" transform="matrix(0.4646,0,0,0.4646,164.9495,272.2828)" stroke-linecap="butt" stroke="rgb(166,166,178)">
      <rect fill="none" width="298.9302" x="-354.34" height="17.9688" y="-26"/>
    </g>
    <g fill="rgb(238,238,255)" transform="matrix(0.4646,0,0,0.4646,164.9495,272.2828)" stroke="rgb(238,238,255)">
      <rect width="298.9302" x="-354.34" height="39.1641" y="-8.0312" stroke="none"/>
    </g>
    <g fill="rgb(166,166,178)" stroke-miterlimit="1.45" transform="matrix(0.4646,0,0,0.4646,164.9495,272.2828)" stroke-linecap="butt" stroke="rgb(166,166,178)">
      <rect fill="none" width="298.9302" x="-354.34" height="39.1641" y="-8.0312"/>
    </g>
    <g font-family="sans-serif" transform="matrix(0.4646,0,0,0.4646,164.9495,272.2828)">
      <text xml:space="preserve" x="-348.34" y="-12.8613" onclick="umlload('../../../../../../../com/msopentech/odatajclient/engine/data/package-summary.html')" stroke="none">com.msopentech.odatajclient.engine.data</text>
    </g>
    <g fill="rgb(187,187,255)" transform="matrix(0.4646,0,0,0.4646,164.9495,272.2828)" stroke="rgb(187,187,255)">
      <rect x="-346.34" y="0" clip-path="url(#clipPath5)" width="98.88" height="23.1328" stroke="none"/>
    </g>
    <g fill="rgb(130,130,178)" stroke-miterlimit="1.45" transform="matrix(0.4646,0,0,0.4646,164.9495,272.2828)" stroke-linecap="butt" stroke="rgb(130,130,178)">
      <rect fill="none" width="98.88" x="-346.34" height="23.1328" y="0"/>
    </g>
    <g font-size="13" font-weight="bold" font-family="sans-serif" transform="matrix(0.4646,0,0,0.4646,164.9495,272.2828)">
      <text xml:space="preserve" x="-340.9" y="16.0669" onclick="umlload('../../../../../../../com/msopentech/odatajclient/engine/data/ODataEntity.html')" stroke="none">ODataEntity</text>
    </g>
    <g fill="rgb(238,238,255)" transform="matrix(0.4646,0,0,0.4646,164.9495,272.2828)" stroke="rgb(238,238,255)">
      <rect width="467.6133" x="464.2792" height="17.9688" y="-142.7147" stroke="none"/>
    </g>
    <g fill="rgb(166,166,178)" stroke-miterlimit="1.45" transform="matrix(0.4646,0,0,0.4646,164.9495,272.2828)" stroke-linecap="butt" stroke="rgb(166,166,178)">
      <rect fill="none" width="467.6133" x="464.2792" height="17.9688" y="-142.7147"/>
    </g>
    <g fill="rgb(238,238,255)" transform="matrix(0.4646,0,0,0.4646,164.9495,272.2828)" stroke="rgb(238,238,255)">
      <rect width="467.6133" x="464.2792" height="48.746" y="-124.746" stroke="none"/>
    </g>
    <g fill="rgb(166,166,178)" stroke-miterlimit="1.45" transform="matrix(0.4646,0,0,0.4646,164.9495,272.2828)" stroke-linecap="butt" stroke="rgb(166,166,178)">
      <rect fill="none" width="467.6133" x="464.2792" height="48.746" y="-124.746"/>
    </g>
    <g font-family="sans-serif" transform="matrix(0.4646,0,0,0.4646,164.9495,272.2828)">
      <text xml:space="preserve" x="470.2792" y="-129.5761" onclick="umlload('../../../../../../../com/msopentech/odatajclient/engine/communication/request/batch/package-summary.html')" stroke="none">com.msopentech.odatajclient.engine.communication.request.batch</text>
    </g>
    <g fill="rgb(221,221,255)" transform="matrix(0.4646,0,0,0.4646,164.9495,272.2828)" stroke="rgb(221,221,255)">
      <rect x="553.2792" y="-116.7147" clip-path="url(#clipPath6)" width="272.3917" height="32.7147" stroke="none"/>
    </g>
    <g fill="rgb(154,154,178)" stroke-miterlimit="1.45" transform="matrix(0.4646,0,0,0.4646,164.9495,272.2828)" stroke-linecap="butt" stroke="rgb(154,154,178)">
      <ellipse rx="136.1958" fill="none" ry="16.3574" cx="689.475" cy="-100.3574"/>
    </g>
    <g font-style="italic" font-size="13" font-weight="bold" font-family="sans-serif" transform="matrix(0.4646,0,0,0.4646,164.9495,272.2828)">
      <text xml:space="preserve" x="599.975" y="-95.8569" onclick="umlload('../../../../../../../com/msopentech/odatajclient/engine/communication/request/batch/ODataBatchableRequest.html')" stroke="none">ODataBatchableRequest</text>
    </g>
    <g fill="rgb(238,238,255)" transform="matrix(0.4646,0,0,0.4646,164.9495,272.2828)" stroke="rgb(238,238,255)">
      <rect width="425.1773" x="-153.23" height="17.9688" y="-133.1328" stroke="none"/>
    </g>
    <g fill="rgb(166,166,178)" stroke-miterlimit="1.45" transform="matrix(0.4646,0,0,0.4646,164.9495,272.2828)" stroke-linecap="butt" stroke="rgb(166,166,178)">
      <rect fill="none" width="425.1773" x="-153.23" height="17.9688" y="-133.1328"/>
    </g>
    <g fill="rgb(238,238,255)" transform="matrix(0.4646,0,0,0.4646,164.9495,272.2828)" stroke="rgb(238,238,255)">
      <rect width="587.65" x="-153.23" height="39.1641" y="-115.1641" stroke="none"/>
    </g>
    <g fill="rgb(166,166,178)" stroke-miterlimit="1.45" transform="matrix(0.4646,0,0,0.4646,164.9495,272.2828)" stroke-linecap="butt" stroke="rgb(166,166,178)">
      <rect fill="none" width="587.65" x="-153.23" height="39.1641" y="-115.1641"/>
    </g>
    <g font-family="sans-serif" transform="matrix(0.4646,0,0,0.4646,164.9495,272.2828)">
      <text xml:space="preserve" x="-147.23" y="-119.9941" onclick="umlload('../../../../../../../com/msopentech/odatajclient/engine/communication/request/package-summary.html')" stroke="none">com.msopentech.odatajclient.engine.communication.request</text>
    </g>
    <g fill="rgb(204,204,255)" transform="matrix(0.4646,0,0,0.4646,164.9495,272.2828)" stroke="rgb(204,204,255)">
      <rect x="-145.23" y="-107.1328" clip-path="url(#clipPath7)" width="571.65" height="23.1328" stroke="none"/>
    </g>
    <g fill="rgb(142,142,178)" stroke-miterlimit="1.45" transform="matrix(0.4646,0,0,0.4646,164.9495,272.2828)" stroke-linecap="butt" stroke="rgb(142,142,178)">
      <rect fill="none" width="571.65" x="-145.23" height="23.1328" y="-107.1328"/>
    </g>
    <g font-size="13" font-weight="bold" font-family="sans-serif" transform="matrix(0.4646,0,0,0.4646,164.9495,272.2828)">
      <text xml:space="preserve" x="-132.905" y="-91.0659" onclick="umlload('../../../../../../../com/msopentech/odatajclient/engine/communication/request/ODataBasicRequestImpl.html')" stroke="none">ODataBasicRequestImpl&lt;ODataEntityCreateResponse, ODataPubFormat&gt;</text>
    </g>
    <g fill="rgb(238,238,255)" transform="matrix(0.4646,0,0,0.4646,164.9495,272.2828)" stroke="rgb(238,238,255)">
      <rect width="453.8216" x="-8" height="17.9688" y="-26" stroke="none"/>
    </g>
    <g fill="rgb(166,166,178)" stroke-miterlimit="1.45" transform="matrix(0.4646,0,0,0.4646,164.9495,272.2828)" stroke-linecap="butt" stroke="rgb(166,166,178)">
      <rect fill="none" width="453.8216" x="-8" height="17.9688" y="-26"/>
    </g>
    <g fill="rgb(238,238,255)" transform="matrix(0.4646,0,0,0.4646,164.9495,272.2828)" stroke="rgb(238,238,255)">
      <rect width="454.19" x="-8" height="231.0116" y="-8.0312" stroke="none"/>
    </g>
    <g fill="rgb(166,166,178)" stroke-miterlimit="1.45" transform="matrix(0.4646,0,0,0.4646,164.9495,272.2828)" stroke-linecap="butt" stroke="rgb(166,166,178)">
      <rect fill="none" width="454.19" x="-8" height="231.0116" y="-8.0312"/>
    </g>
    <g font-family="sans-serif" transform="matrix(0.4646,0,0,0.4646,164.9495,272.2828)">
      <text xml:space="preserve" x="-2" y="-12.8613" onclick="umlload('package-summary.html')" stroke="none">com.msopentech.odatajclient.engine.communication.request.cud</text>
    </g>
    <g fill="rgb(187,187,255)" transform="matrix(0.4646,0,0,0.4646,164.9495,272.2828)" stroke="rgb(187,187,255)">
      <rect x="0" y="0" clip-path="url(#clipPath8)" width="281.19" height="26.625" stroke="none"/>
      <line clip-path="url(#clipPath8)" fill="none" x1="0" x2="281.19" y1="26.625" y2="26.625" stroke="black"/>
      <line clip-path="url(#clipPath8)" x1="0" x2="281.19" y1="27.625" y2="27.625" stroke="none"/>
      <line clip-path="url(#clipPath8)" fill="none" x1="0" x2="281.19" y1="27.625" y2="27.625" stroke="black"/>
      <rect x="0" y="28.625" clip-path="url(#clipPath8)" width="281.19" height="186.3554" stroke="none"/>
    </g>
    <g fill="rgb(130,130,178)" stroke-miterlimit="1.45" transform="matrix(0.4646,0,0,0.4646,164.9495,272.2828)" stroke-linecap="butt" stroke="rgb(130,130,178)">
      <rect fill="none" width="281.19" x="0" height="214.9804" y="0"/>
    </g>
    <g font-size="16" font-weight="bold" font-family="sans-serif" transform="matrix(0.4646,0,0,0.4646,164.9495,272.2828)">
      <text xml:space="preserve" x="20.595" y="18.8516" onclick="umlload('#')" stroke="none">ODataEntityCreateRequest</text>
    </g>
    <g font-family="sans-serif" transform="matrix(0.4646,0,0,0.4646,164.9495,272.2828)">
      <text xml:space="preserve" x="4" y="39.1719" stroke="none">+</text>
      <text xml:space="preserve" x="19" y="40.7637" onclick="umlload('#execute()')" stroke="none">execute() : ODataEntityCreateResponse</text>
    </g>
    <g font-family="sans-serif" transform="matrix(0.4646,0,0,0.4646,164.9495,272.2828)">
      <text xml:space="preserve" x="4" y="55.1719" stroke="none">#</text>
      <text xml:space="preserve" x="19" y="56.7324" onclick="umlload('#getPayload()')" stroke="none">getPayload() : InputStream</text>
    </g>
    <g font-family="sans-serif" transform="matrix(0.4646,0,0,0.4646,164.9495,272.2828)">
      <text xml:space="preserve" x="-349" y="247.1543" onclick="umlload('http://www.yworks.com/')" stroke="none">yWorks UML Doclet</text>
    </g>
    <g stroke-miterlimit="1.45" transform="matrix(0.4646,0,0,0.4646,164.9495,272.2828)" stroke-linecap="butt">
      <path fill="none" d="M140.595 0.0176 L140.595 -69"/>
      <path fill="white" d="M140.595 -84 L134.595 -68 L146.595 -68 Z" stroke="none"/>
      <path fill="none" d="M140.595 -84 L134.595 -68 L146.595 -68 Z"/>
      <path fill="none" stroke-dasharray="6,2" d="M210.8925 -0.0008 L210.8925 -51 L689.475 -51 L689.475 -69"/>
      <path fill="white" stroke-dasharray="6,2" d="M689.475 -84 L683.475 -68 L695.475 -68 Z" stroke="none"/>
      <path fill="none" d="M689.475 -84 L683.475 -68 L695.475 -68 Z"/>
      <path fill="none" d="M0.0059 11.5664 L-247.46 11.5664"/>
      <line stroke-linecap="square" transform="matrix(-1,0,0,-1,-247.46,11.5664)" fill="none" x1="0" x2="-14" y1="0" y2="-4" stroke-miterlimit="10"/>
      <line stroke-linecap="square" transform="matrix(-1,0,0,-1,-247.46,11.5664)" fill="none" x1="0" x2="-14" y1="0" y2="4" stroke-miterlimit="10"/>
    </g>
    <g stroke-dasharray="6,2" stroke-miterlimit="1.45" transform="matrix(0.4646,0,0,0.4646,164.9495,272.2828)" stroke-linecap="butt">
      <path fill="none" d="M281.1741 16.3574 L486.72 16.3574"/>
      <line stroke-linecap="square" transform="matrix(1,0,0,1,486.72,16.3574)" fill="none" x1="0" x2="-14" y1="0" y2="-4" stroke-dasharray="none" stroke-miterlimit="10"/>
      <line stroke-linecap="square" transform="matrix(1,0,0,1,486.72,16.3574)" fill="none" x1="0" x2="-14" y1="0" y2="4" stroke-dasharray="none" stroke-miterlimit="10"/>
    </g>
    <g stroke-dasharray="6,2" stroke-miterlimit="1.45" transform="matrix(0.4646,0,0,0.4646,164.9495,272.2828)" stroke-linecap="butt">
      <path fill="none" d="M281.222 108.2811 L486.72 108.2811"/>
      <line stroke-linecap="square" transform="matrix(1,0,0,1,486.72,108.2811)" fill="none" x1="0" x2="-14" y1="0" y2="-4" stroke-dasharray="none" stroke-miterlimit="10"/>
      <line stroke-linecap="square" transform="matrix(1,0,0,1,486.72,108.2811)" fill="none" x1="0" x2="-14" y1="0" y2="4" stroke-dasharray="none" stroke-miterlimit="10"/>
    </g>
    <g stroke-dasharray="6,2" stroke-miterlimit="1.45" transform="matrix(0.4646,0,0,0.4646,164.9495,272.2828)" stroke-linecap="butt">
      <path fill="none" d="M281.2195 195.414 L486.72 195.414"/>
      <line stroke-linecap="square" transform="matrix(1,0,0,1,486.72,195.414)" fill="none" x1="0" x2="-14" y1="0" y2="-4" stroke-dasharray="none" stroke-miterlimit="10"/>
      <line stroke-linecap="square" transform="matrix(1,0,0,1,486.72,195.414)" fill="none" x1="0" x2="-14" y1="0" y2="4" stroke-dasharray="none" stroke-miterlimit="10"/>
    </g>
  </g>
</svg>
