<?xml version="1.0" encoding="UTF-8"?><svg xmlns="http://www.w3.org/2000/svg" xmlns:xlink="http://www.w3.org/1999/xlink" fill-opacity="1" color-rendering="auto" color-interpolation="auto" stroke="black" text-rendering="auto" stroke-linecap="square" width="598" stroke-miterlimit="10" stroke-opacity="1" shape-rendering="auto" fill="black" stroke-dasharray="none" font-weight="normal" stroke-width="1" height="598" font-family="'Dialog'" font-style="normal" stroke-linejoin="miter" font-size="12" stroke-dashoffset="0" image-rendering="auto">
  <!--Generated by ySVG-->
  <defs id="genericDefs"/>
  <g>
    <defs id="defs1">
      <clipPath clipPathUnits="userSpaceOnUse" id="clipPath1">
        <path d="M0 0 L598 0 L598 598 L0 598 L0 0 Z"/>
      </clipPath>
      <clipPath clipPathUnits="userSpaceOnUse" id="clipPath2">
        <path d="M486.72 183.8475 L519.68 183.8475 L519.68 206.9804 L486.72 206.9804 L486.72 183.8475 Z"/>
      </clipPath>
      <clipPath clipPathUnits="userSpaceOnUse" id="clipPath3">
        <path d="M486.72 96.7147 L588.69 96.7147 L588.69 119.8475 L486.72 119.8475 L486.72 96.7147 Z"/>
      </clipPath>
      <clipPath clipPathUnits="userSpaceOnUse" id="clipPath4">
        <path d="M817.3773 16.3574 C817.3773 25.3913 743.3571 32.7147 652.0486 32.7147 C560.7402 32.7147 486.72 25.3913 486.72 16.3574 C486.72 7.3234 560.7402 0 652.0486 0 C743.3571 0 817.3773 7.3234 817.3773 16.3574 Z"/>
      </clipPath>
      <clipPath clipPathUnits="userSpaceOnUse" id="clipPath5">
        <path d="M-346.34 0 L-259.82 0 L-259.82 23.1328 L-346.34 23.1328 L-346.34 0 Z"/>
      </clipPath>
      <clipPath clipPathUnits="userSpaceOnUse" id="clipPath6">
        <path d="M821.5508 -100.3574 C821.5508 -91.3234 760.5739 -84 685.355 -84 C610.1361 -84 549.1592 -91.3234 549.1592 -100.3574 C549.1592 -109.3913 610.1361 -116.7147 685.355 -116.7147 C760.5739 -116.7147 821.5508 -109.3913 821.5508 -100.3574 Z"/>
      </clipPath>
      <clipPath clipPathUnits="userSpaceOnUse" id="clipPath7">
        <path d="M-131.84 -107.1328 L422.3 -107.1328 L422.3 -84 L-131.84 -84 L-131.84 -107.1328 Z"/>
      </clipPath>
      <clipPath clipPathUnits="userSpaceOnUse" id="clipPath8">
        <path d="M0 0 L290.46 0 L290.46 214.9804 L0 214.9804 L0 0 Z"/>
      </clipPath>
      <script type="text/ecmascript"><![CDATA[
function umlload(newLocation)
{
if (newLocation.charAt(0) != '#') {
if (newLocation.indexOf("://") > -1) {
window.parent.location.href = newLocation;
} else {
var tmp = window.parent.location.href;
tmp = tmp.substring(0, tmp.lastIndexOf("/") + 1);
window.parent.location.href = tmp.concat(newLocation);
}
} else {
window.parent.location.hash = newLocation;
}
}
]]></script>
    </defs>
    <g fill="rgb(238,238,255)" transform="matrix(0.4661,0,0,0.4661,165.4638,272.1995)" stroke="rgb(238,238,255)">
      <rect width="69.7758" x="478.72" height="17.9688" y="157.8475" stroke="none"/>
    </g>
    <g fill="rgb(166,166,178)" stroke-miterlimit="1.45" transform="matrix(0.4661,0,0,0.4661,165.4638,272.1995)" stroke-linecap="butt" stroke="rgb(166,166,178)">
      <rect fill="none" width="69.7758" x="478.72" height="17.9688" y="157.8475"/>
    </g>
    <g fill="rgb(238,238,255)" transform="matrix(0.4661,0,0,0.4661,165.4638,272.1995)" stroke="rgb(238,238,255)">
      <rect width="73.96" x="478.72" height="39.1641" y="175.8163" stroke="none"/>
    </g>
    <g fill="rgb(166,166,178)" stroke-miterlimit="1.45" transform="matrix(0.4661,0,0,0.4661,165.4638,272.1995)" stroke-linecap="butt" stroke="rgb(166,166,178)">
      <rect fill="none" width="73.96" x="478.72" height="39.1641" y="175.8163"/>
    </g>
    <g font-family="sans-serif" transform="matrix(0.4661,0,0,0.4661,165.4638,272.1995)">
      <text xml:space="preserve" x="484.72" y="170.9862" onclick="umlload('http://docs.oracle.com/javase/6/docs/api/java/net/package-summary.html')" stroke="none">java.net</text>
    </g>
    <g fill="rgb(187,187,255)" transform="matrix(0.4661,0,0,0.4661,165.4638,272.1995)" stroke="rgb(187,187,255)">
      <rect x="486.72" y="183.8475" clip-path="url(#clipPath2)" width="32.96" height="23.1328" stroke="none"/>
    </g>
    <g fill="rgb(130,130,178)" stroke-miterlimit="1.45" transform="matrix(0.4661,0,0,0.4661,165.4638,272.1995)" stroke-linecap="butt" stroke="rgb(130,130,178)">
      <rect fill="none" width="32.96" x="486.72" height="23.1328" y="183.8475"/>
    </g>
    <g font-size="13" font-weight="bold" font-family="sans-serif" transform="matrix(0.4661,0,0,0.4661,165.4638,272.1995)">
      <text xml:space="preserve" x="491.2" y="199.9144" onclick="umlload('http://docs.oracle.com/javase/6/docs/api/java/net/URI.html')" stroke="none">URI</text>
    </g>
    <g fill="rgb(238,238,255)" transform="matrix(0.4661,0,0,0.4661,165.4638,272.1995)" stroke="rgb(238,238,255)">
      <rect width="59.1668" x="478.72" height="17.9688" y="70.7147" stroke="none"/>
    </g>
    <g fill="rgb(166,166,178)" stroke-miterlimit="1.45" transform="matrix(0.4661,0,0,0.4661,165.4638,272.1995)" stroke-linecap="butt" stroke="rgb(166,166,178)">
      <rect fill="none" width="59.1668" x="478.72" height="17.9688" y="70.7147"/>
    </g>
    <g fill="rgb(238,238,255)" transform="matrix(0.4661,0,0,0.4661,165.4638,272.1995)" stroke="rgb(238,238,255)">
      <rect width="117.97" x="478.72" height="39.1641" y="88.6835" stroke="none"/>
    </g>
    <g fill="rgb(166,166,178)" stroke-miterlimit="1.45" transform="matrix(0.4661,0,0,0.4661,165.4638,272.1995)" stroke-linecap="butt" stroke="rgb(166,166,178)">
      <rect fill="none" width="117.97" x="478.72" height="39.1641" y="88.6835"/>
    </g>
    <g font-family="sans-serif" transform="matrix(0.4661,0,0,0.4661,165.4638,272.1995)">
      <text xml:space="preserve" x="484.72" y="83.8534" onclick="umlload('http://docs.oracle.com/javase/6/docs/api/java/io/package-summary.html')" stroke="none">java.io</text>
    </g>
    <g fill="rgb(204,204,255)" transform="matrix(0.4661,0,0,0.4661,165.4638,272.1995)" stroke="rgb(204,204,255)">
      <rect x="486.72" y="96.7147" clip-path="url(#clipPath3)" width="101.97" height="23.1328" stroke="none"/>
    </g>
    <g fill="rgb(142,142,178)" stroke-miterlimit="1.45" transform="matrix(0.4661,0,0,0.4661,165.4638,272.1995)" stroke-linecap="butt" stroke="rgb(142,142,178)">
      <rect fill="none" width="101.97" x="486.72" height="23.1328" y="96.7147"/>
    </g>
    <g font-size="13" font-weight="bold" font-family="sans-serif" transform="matrix(0.4661,0,0,0.4661,165.4638,272.1995)">
      <text xml:space="preserve" x="492.205" y="112.7816" onclick="umlload('http://docs.oracle.com/javase/6/docs/api/java/io/InputStream.html')" stroke="none">InputStream</text>
    </g>
    <g fill="rgb(238,238,255)" transform="matrix(0.4661,0,0,0.4661,165.4638,272.1995)" stroke="rgb(238,238,255)">
      <rect width="435.7863" x="478.72" height="17.9688" y="-26" stroke="none"/>
    </g>
    <g fill="rgb(166,166,178)" stroke-miterlimit="1.45" transform="matrix(0.4661,0,0,0.4661,165.4638,272.1995)" stroke-linecap="butt" stroke="rgb(166,166,178)">
      <rect fill="none" width="435.7863" x="478.72" height="17.9688" y="-26"/>
    </g>
    <g fill="rgb(238,238,255)" transform="matrix(0.4661,0,0,0.4661,165.4638,272.1995)" stroke="rgb(238,238,255)">
      <rect width="435.7863" x="478.72" height="48.746" y="-8.0312" stroke="none"/>
    </g>
    <g fill="rgb(166,166,178)" stroke-miterlimit="1.45" transform="matrix(0.4661,0,0,0.4661,165.4638,272.1995)" stroke-linecap="butt" stroke="rgb(166,166,178)">
      <rect fill="none" width="435.7863" x="478.72" height="48.746" y="-8.0312"/>
    </g>
    <g font-family="sans-serif" transform="matrix(0.4661,0,0,0.4661,165.4638,272.1995)">
      <text xml:space="preserve" x="484.72" y="-12.8613" onclick="umlload('../../../../../../../com/msopentech/odatajclient/engine/communication/response/package-summary.html')" stroke="none">com.msopentech.odatajclient.engine.communication.response</text>
    </g>
    <g fill="rgb(221,221,255)" transform="matrix(0.4661,0,0,0.4661,165.4638,272.1995)" stroke="rgb(221,221,255)">
      <rect x="486.72" y="0" clip-path="url(#clipPath4)" width="330.6573" height="32.7147" stroke="none"/>
    </g>
    <g fill="rgb(154,154,178)" stroke-miterlimit="1.45" transform="matrix(0.4661,0,0,0.4661,165.4638,272.1995)" stroke-linecap="butt" stroke="rgb(154,154,178)">
      <ellipse rx="165.3286" fill="none" ry="16.3574" cx="652.0486" cy="16.3574"/>
    </g>
    <g font-style="italic" font-size="13" font-weight="bold" font-family="sans-serif" transform="matrix(0.4661,0,0,0.4661,165.4638,272.1995)">
      <text xml:space="preserve" x="542.5486" y="20.8579" onclick="umlload('../../../../../../../com/msopentech/odatajclient/engine/communication/response/ODataLinkOperationResponse.html')" stroke="none">ODataLinkOperationResponse</text>
    </g>
    <g fill="rgb(238,238,255)" transform="matrix(0.4661,0,0,0.4661,165.4638,272.1995)" stroke="rgb(238,238,255)">
      <rect width="298.9302" x="-354.34" height="17.9688" y="-26" stroke="none"/>
    </g>
    <g fill="rgb(166,166,178)" stroke-miterlimit="1.45" transform="matrix(0.4661,0,0,0.4661,165.4638,272.1995)" stroke-linecap="butt" stroke="rgb(166,166,178)">
      <rect fill="none" width="298.9302" x="-354.34" height="17.9688" y="-26"/>
    </g>
    <g fill="rgb(238,238,255)" transform="matrix(0.4661,0,0,0.4661,165.4638,272.1995)" stroke="rgb(238,238,255)">
      <rect width="298.9302" x="-354.34" height="39.1641" y="-8.0312" stroke="none"/>
    </g>
    <g fill="rgb(166,166,178)" stroke-miterlimit="1.45" transform="matrix(0.4661,0,0,0.4661,165.4638,272.1995)" stroke-linecap="butt" stroke="rgb(166,166,178)">
      <rect fill="none" width="298.9302" x="-354.34" height="39.1641" y="-8.0312"/>
    </g>
    <g font-family="sans-serif" transform="matrix(0.4661,0,0,0.4661,165.4638,272.1995)">
      <text xml:space="preserve" x="-348.34" y="-12.8613" onclick="umlload('../../../../../../../com/msopentech/odatajclient/engine/data/package-summary.html')" stroke="none">com.msopentech.odatajclient.engine.data</text>
    </g>
    <g fill="rgb(187,187,255)" transform="matrix(0.4661,0,0,0.4661,165.4638,272.1995)" stroke="rgb(187,187,255)">
      <rect x="-346.34" y="0" clip-path="url(#clipPath5)" width="86.52" height="23.1328" stroke="none"/>
    </g>
    <g fill="rgb(130,130,178)" stroke-miterlimit="1.45" transform="matrix(0.4661,0,0,0.4661,165.4638,272.1995)" stroke-linecap="butt" stroke="rgb(130,130,178)">
      <rect fill="none" width="86.52" x="-346.34" height="23.1328" y="0"/>
    </g>
    <g font-size="13" font-weight="bold" font-family="sans-serif" transform="matrix(0.4661,0,0,0.4661,165.4638,272.1995)">
      <text xml:space="preserve" x="-341.08" y="16.0669" onclick="umlload('../../../../../../../com/msopentech/odatajclient/engine/data/ODataLink.html')" stroke="none">ODataLink</text>
    </g>
    <g fill="rgb(238,238,255)" transform="matrix(0.4661,0,0,0.4661,165.4638,272.1995)" stroke="rgb(238,238,255)">
      <rect width="467.6133" x="460.1592" height="17.9688" y="-142.7147" stroke="none"/>
    </g>
    <g fill="rgb(166,166,178)" stroke-miterlimit="1.45" transform="matrix(0.4661,0,0,0.4661,165.4638,272.1995)" stroke-linecap="butt" stroke="rgb(166,166,178)">
      <rect fill="none" width="467.6133" x="460.1592" height="17.9688" y="-142.7147"/>
    </g>
    <g fill="rgb(238,238,255)" transform="matrix(0.4661,0,0,0.4661,165.4638,272.1995)" stroke="rgb(238,238,255)">
      <rect width="467.6133" x="460.1592" height="48.746" y="-124.746" stroke="none"/>
    </g>
    <g fill="rgb(166,166,178)" stroke-miterlimit="1.45" transform="matrix(0.4661,0,0,0.4661,165.4638,272.1995)" stroke-linecap="butt" stroke="rgb(166,166,178)">
      <rect fill="none" width="467.6133" x="460.1592" height="48.746" y="-124.746"/>
    </g>
    <g font-family="sans-serif" transform="matrix(0.4661,0,0,0.4661,165.4638,272.1995)">
      <text xml:space="preserve" x="466.1591" y="-129.5761" onclick="umlload('../../../../../../../com/msopentech/odatajclient/engine/communication/request/batch/package-summary.html')" stroke="none">com.msopentech.odatajclient.engine.communication.request.batch</text>
    </g>
    <g fill="rgb(221,221,255)" transform="matrix(0.4661,0,0,0.4661,165.4638,272.1995)" stroke="rgb(221,221,255)">
      <rect x="549.1592" y="-116.7147" clip-path="url(#clipPath6)" width="272.3917" height="32.7147" stroke="none"/>
    </g>
    <g fill="rgb(154,154,178)" stroke-miterlimit="1.45" transform="matrix(0.4661,0,0,0.4661,165.4638,272.1995)" stroke-linecap="butt" stroke="rgb(154,154,178)">
      <ellipse rx="136.1958" fill="none" ry="16.3574" cx="685.355" cy="-100.3574"/>
    </g>
    <g font-style="italic" font-size="13" font-weight="bold" font-family="sans-serif" transform="matrix(0.4661,0,0,0.4661,165.4638,272.1995)">
      <text xml:space="preserve" x="595.855" y="-95.8569" onclick="umlload('../../../../../../../com/msopentech/odatajclient/engine/communication/request/batch/ODataBatchableRequest.html')" stroke="none">ODataBatchableRequest</text>
    </g>
    <g fill="rgb(238,238,255)" transform="matrix(0.4661,0,0,0.4661,165.4638,272.1995)" stroke="rgb(238,238,255)">
      <rect width="425.1773" x="-139.84" height="17.9688" y="-133.1328" stroke="none"/>
    </g>
    <g fill="rgb(166,166,178)" stroke-miterlimit="1.45" transform="matrix(0.4661,0,0,0.4661,165.4638,272.1995)" stroke-linecap="butt" stroke="rgb(166,166,178)">
      <rect fill="none" width="425.1773" x="-139.84" height="17.9688" y="-133.1328"/>
    </g>
    <g fill="rgb(238,238,255)" transform="matrix(0.4661,0,0,0.4661,165.4638,272.1995)" stroke="rgb(238,238,255)">
      <rect width="570.14" x="-139.84" height="39.1641" y="-115.1641" stroke="none"/>
    </g>
    <g fill="rgb(166,166,178)" stroke-miterlimit="1.45" transform="matrix(0.4661,0,0,0.4661,165.4638,272.1995)" stroke-linecap="butt" stroke="rgb(166,166,178)">
      <rect fill="none" width="570.14" x="-139.84" height="39.1641" y="-115.1641"/>
    </g>
    <g font-family="sans-serif" transform="matrix(0.4661,0,0,0.4661,165.4638,272.1995)">
      <text xml:space="preserve" x="-133.84" y="-119.9941" onclick="umlload('../../../../../../../com/msopentech/odatajclient/engine/communication/request/package-summary.html')" stroke="none">com.msopentech.odatajclient.engine.communication.request</text>
    </g>
    <g fill="rgb(204,204,255)" transform="matrix(0.4661,0,0,0.4661,165.4638,272.1995)" stroke="rgb(204,204,255)">
      <rect x="-131.84" y="-107.1328" clip-path="url(#clipPath7)" width="554.14" height="23.1328" stroke="none"/>
    </g>
    <g fill="rgb(142,142,178)" stroke-miterlimit="1.45" transform="matrix(0.4661,0,0,0.4661,165.4638,272.1995)" stroke-linecap="butt" stroke="rgb(142,142,178)">
      <rect fill="none" width="554.14" x="-131.84" height="23.1328" y="-107.1328"/>
    </g>
    <g font-size="13" font-weight="bold" font-family="sans-serif" transform="matrix(0.4661,0,0,0.4661,165.4638,272.1995)">
      <text xml:space="preserve" x="-119.77" y="-91.0659" onclick="umlload('../../../../../../../com/msopentech/odatajclient/engine/communication/request/ODataBasicRequestImpl.html')" stroke="none">ODataBasicRequestImpl&lt;ODataLinkOperationResponse, ODataFormat&gt;</text>
    </g>
    <g fill="rgb(238,238,255)" transform="matrix(0.4661,0,0,0.4661,165.4638,272.1995)" stroke="rgb(238,238,255)">
      <rect width="453.8216" x="-8" height="17.9688" y="-26" stroke="none"/>
    </g>
    <g fill="rgb(166,166,178)" stroke-miterlimit="1.45" transform="matrix(0.4661,0,0,0.4661,165.4638,272.1995)" stroke-linecap="butt" stroke="rgb(166,166,178)">
      <rect fill="none" width="453.8216" x="-8" height="17.9688" y="-26"/>
    </g>
    <g fill="rgb(238,238,255)" transform="matrix(0.4661,0,0,0.4661,165.4638,272.1995)" stroke="rgb(238,238,255)">
      <rect width="453.8216" x="-8" height="231.0116" y="-8.0312" stroke="none"/>
    </g>
    <g fill="rgb(166,166,178)" stroke-miterlimit="1.45" transform="matrix(0.4661,0,0,0.4661,165.4638,272.1995)" stroke-linecap="butt" stroke="rgb(166,166,178)">
      <rect fill="none" width="453.8216" x="-8" height="231.0116" y="-8.0312"/>
    </g>
    <g font-family="sans-serif" transform="matrix(0.4661,0,0,0.4661,165.4638,272.1995)">
      <text xml:space="preserve" x="-2" y="-12.8613" onclick="umlload('package-summary.html')" stroke="none">com.msopentech.odatajclient.engine.communication.request.cud</text>
    </g>
    <g fill="rgb(187,187,255)" transform="matrix(0.4661,0,0,0.4661,165.4638,272.1995)" stroke="rgb(187,187,255)">
      <rect x="0" y="0" clip-path="url(#clipPath8)" width="290.46" height="26.625" stroke="none"/>
      <line clip-path="url(#clipPath8)" fill="none" x1="0" x2="290.46" y1="26.625" y2="26.625" stroke="black"/>
      <line clip-path="url(#clipPath8)" x1="0" x2="290.46" y1="27.625" y2="27.625" stroke="none"/>
      <line clip-path="url(#clipPath8)" fill="none" x1="0" x2="290.46" y1="27.625" y2="27.625" stroke="black"/>
      <rect x="0" y="28.625" clip-path="url(#clipPath8)" width="290.46" height="186.3554" stroke="none"/>
    </g>
    <g fill="rgb(130,130,178)" stroke-miterlimit="1.45" transform="matrix(0.4661,0,0,0.4661,165.4638,272.1995)" stroke-linecap="butt" stroke="rgb(130,130,178)">
      <rect fill="none" width="290.46" x="0" height="214.9804" y="0"/>
    </g>
    <g font-size="16" font-weight="bold" font-family="sans-serif" transform="matrix(0.4661,0,0,0.4661,165.4638,272.1995)">
      <text xml:space="preserve" x="32.73" y="18.8516" onclick="umlload('#')" stroke="none">ODataLinkCreateRequest</text>
    </g>
    <g font-family="sans-serif" transform="matrix(0.4661,0,0,0.4661,165.4638,272.1995)">
      <text xml:space="preserve" x="4" y="39.1719" stroke="none">+</text>
      <text xml:space="preserve" x="19" y="40.7637" onclick="umlload('#execute()')" stroke="none">execute() : ODataLinkOperationResponse</text>
    </g>
    <g font-family="sans-serif" transform="matrix(0.4661,0,0,0.4661,165.4638,272.1995)">
      <text xml:space="preserve" x="4" y="55.1719" stroke="none">#</text>
      <text xml:space="preserve" x="19" y="56.7324" onclick="umlload('#getPayload()')" stroke="none">getPayload() : InputStream</text>
    </g>
    <g font-family="sans-serif" transform="matrix(0.4661,0,0,0.4661,165.4638,272.1995)">
      <text xml:space="preserve" x="-349" y="247.1543" onclick="umlload('http://www.yworks.com/')" stroke="none">yWorks UML Doclet</text>
    </g>
    <g stroke-miterlimit="1.45" transform="matrix(0.4661,0,0,0.4661,165.4638,272.1995)" stroke-linecap="butt">
      <path fill="none" d="M145.23 0.0176 L145.23 -69"/>
      <path fill="white" d="M145.23 -84 L139.23 -68 L151.23 -68 Z" stroke="none"/>
      <path fill="none" d="M145.23 -84 L139.23 -68 L151.23 -68 Z"/>
      <path fill="none" stroke-dasharray="6,2" d="M217.845 -0.0008 L217.845 -51 L685.355 -51 L685.355 -69"/>
      <path fill="white" stroke-dasharray="6,2" d="M685.355 -84 L679.355 -68 L691.355 -68 Z" stroke="none"/>
      <path fill="none" d="M685.355 -84 L679.355 -68 L691.355 -68 Z"/>
      <path fill="none" d="M0.0163 11.5664 L-259.82 11.5664"/>
      <line stroke-linecap="square" transform="matrix(-1,0,0,-1,-259.82,11.5664)" fill="none" x1="0" x2="-14" y1="0" y2="-4" stroke-miterlimit="10"/>
      <line stroke-linecap="square" transform="matrix(-1,0,0,-1,-259.82,11.5664)" fill="none" x1="0" x2="-14" y1="0" y2="4" stroke-miterlimit="10"/>
    </g>
    <g stroke-dasharray="6,2" stroke-miterlimit="1.45" transform="matrix(0.4661,0,0,0.4661,165.4638,272.1995)" stroke-linecap="butt">
      <path fill="none" d="M290.464 16.3574 L486.72 16.3574"/>
      <line stroke-linecap="square" transform="matrix(1,0,0,1,486.72,16.3574)" fill="none" x1="0" x2="-14" y1="0" y2="-4" stroke-dasharray="none" stroke-miterlimit="10"/>
      <line stroke-linecap="square" transform="matrix(1,0,0,1,486.72,16.3574)" fill="none" x1="0" x2="-14" y1="0" y2="4" stroke-dasharray="none" stroke-miterlimit="10"/>
    </g>
    <g stroke-dasharray="6,2" stroke-miterlimit="1.45" transform="matrix(0.4661,0,0,0.4661,165.4638,272.1995)" stroke-linecap="butt">
      <path fill="none" d="M290.4438 108.2811 L486.72 108.2811"/>
      <line stroke-linecap="square" transform="matrix(1,0,0,1,486.72,108.2811)" fill="none" x1="0" x2="-14" y1="0" y2="-4" stroke-dasharray="none" stroke-miterlimit="10"/>
      <line stroke-linecap="square" transform="matrix(1,0,0,1,486.72,108.2811)" fill="none" x1="0" x2="-14" y1="0" y2="4" stroke-dasharray="none" stroke-miterlimit="10"/>
    </g>
    <g stroke-dasharray="6,2" stroke-miterlimit="1.45" transform="matrix(0.4661,0,0,0.4661,165.4638,272.1995)" stroke-linecap="butt">
      <path fill="none" d="M290.4368 195.414 L486.72 195.414"/>
      <line stroke-linecap="square" transform="matrix(1,0,0,1,486.72,195.414)" fill="none" x1="0" x2="-14" y1="0" y2="-4" stroke-dasharray="none" stroke-miterlimit="10"/>
      <line stroke-linecap="square" transform="matrix(1,0,0,1,486.72,195.414)" fill="none" x1="0" x2="-14" y1="0" y2="4" stroke-dasharray="none" stroke-miterlimit="10"/>
    </g>
  </g>
</svg>
