<?xml version="1.0" encoding="UTF-8"?><svg xmlns="http://www.w3.org/2000/svg" xmlns:xlink="http://www.w3.org/1999/xlink" fill-opacity="1" color-rendering="auto" color-interpolation="auto" stroke="black" text-rendering="auto" stroke-linecap="square" width="598" stroke-miterlimit="10" stroke-opacity="1" shape-rendering="auto" fill="black" stroke-dasharray="none" font-weight="normal" stroke-width="1" height="598" font-family="'Dialog'" font-style="normal" stroke-linejoin="miter" font-size="12" stroke-dashoffset="0" image-rendering="auto">
  <!--Generated by ySVG-->
  <defs id="genericDefs"/>
  <g>
    <defs id="defs1">
      <clipPath clipPathUnits="userSpaceOnUse" id="clipPath1">
        <path d="M0 0 L598 0 L598 598 L0 598 L0 0 Z"/>
      </clipPath>
      <clipPath clipPathUnits="userSpaceOnUse" id="clipPath2">
        <path d="M783.91 559.5938 L816.87 559.5938 L816.87 582.7266 L783.91 582.7266 L783.91 559.5938 Z"/>
      </clipPath>
      <clipPath clipPathUnits="userSpaceOnUse" id="clipPath3">
        <path d="M783.91 373.0625 L882.79 373.0625 L882.79 396.1953 L783.91 396.1953 L783.91 373.0625 Z"/>
      </clipPath>
      <clipPath clipPathUnits="userSpaceOnUse" id="clipPath4">
        <path d="M783.91 406.1953 L870.43 406.1953 L870.43 429.3281 L783.91 429.3281 L783.91 406.1953 Z"/>
      </clipPath>
      <clipPath clipPathUnits="userSpaceOnUse" id="clipPath5">
        <path d="M783.91 439.3281 L948.71 439.3281 L948.71 462.4609 L783.91 462.4609 L783.91 439.3281 Z"/>
      </clipPath>
      <clipPath clipPathUnits="userSpaceOnUse" id="clipPath6">
        <path d="M783.91 472.4609 L905.45 472.4609 L905.45 495.5938 L783.91 495.5938 L783.91 472.4609 Z"/>
      </clipPath>
      <clipPath clipPathUnits="userSpaceOnUse" id="clipPath7">
        <path d="M783.91 87.1328 L951.8 87.1328 L951.8 110.2656 L783.91 110.2656 L783.91 87.1328 Z"/>
      </clipPath>
      <clipPath clipPathUnits="userSpaceOnUse" id="clipPath8">
        <path d="M783.91 120.2656 L996.09 120.2656 L996.09 143.3984 L783.91 143.3984 L783.91 120.2656 Z"/>
      </clipPath>
      <clipPath clipPathUnits="userSpaceOnUse" id="clipPath9">
        <path d="M783.91 153.3984 L1001.24 153.3984 L1001.24 176.5312 L783.91 176.5312 L783.91 153.3984 Z"/>
      </clipPath>
      <clipPath clipPathUnits="userSpaceOnUse" id="clipPath10">
        <path d="M783.91 186.5312 L983.73 186.5312 L983.73 209.6641 L783.91 209.6641 L783.91 186.5312 Z"/>
      </clipPath>
      <clipPath clipPathUnits="userSpaceOnUse" id="clipPath11">
        <path d="M783.91 219.6641 L988.88 219.6641 L988.88 242.7969 L783.91 242.7969 L783.91 219.6641 Z"/>
      </clipPath>
      <clipPath clipPathUnits="userSpaceOnUse" id="clipPath12">
        <path d="M783.91 252.7969 L1023.9 252.7969 L1023.9 275.9297 L783.91 275.9297 L783.91 252.7969 Z"/>
      </clipPath>
      <clipPath clipPathUnits="userSpaceOnUse" id="clipPath13">
        <path d="M783.91 285.9297 L1000.21 285.9297 L1000.21 309.0625 L783.91 309.0625 L783.91 285.9297 Z"/>
      </clipPath>
      <clipPath clipPathUnits="userSpaceOnUse" id="clipPath14">
        <path d="M783.91 0 L883.82 0 L883.82 23.1328 L783.91 23.1328 L783.91 0 Z"/>
      </clipPath>
      <clipPath clipPathUnits="userSpaceOnUse" id="clipPath15">
        <path d="M330.115 -107.1328 L387.795 -107.1328 L387.795 -84 L330.115 -84 L330.115 -107.1328 Z"/>
      </clipPath>
      <clipPath clipPathUnits="userSpaceOnUse" id="clipPath16">
        <path d="M0 0 L717.91 0 L717.91 590.7266 L0 590.7266 L0 0 Z"/>
      </clipPath>
      <script type="text/ecmascript"><![CDATA[
function umlload(newLocation)
{
if (newLocation.charAt(0) != '#') {
if (newLocation.indexOf("://") > -1) {
window.parent.location.href = newLocation;
} else {
var tmp = window.parent.location.href;
tmp = tmp.substring(0, tmp.lastIndexOf("/") + 1);
window.parent.location.href = tmp.concat(newLocation);
}
} else {
window.parent.location.hash = newLocation;
}
}
]]></script>
    </defs>
    <g fill="rgb(238,238,255)" transform="matrix(0.483,0,0,0.483,3.8643,178.2407)" stroke="rgb(238,238,255)">
      <rect width="69.7758" x="775.91" height="17.9688" y="533.5938" stroke="none"/>
    </g>
    <g fill="rgb(166,166,178)" stroke-miterlimit="1.45" transform="matrix(0.483,0,0,0.483,3.8643,178.2407)" stroke-linecap="butt" stroke="rgb(166,166,178)">
      <rect fill="none" width="69.7758" x="775.91" height="17.9688" y="533.5938"/>
    </g>
    <g fill="rgb(238,238,255)" transform="matrix(0.483,0,0,0.483,3.8643,178.2407)" stroke="rgb(238,238,255)">
      <rect width="73.96" x="775.91" height="39.1641" y="551.5625" stroke="none"/>
    </g>
    <g fill="rgb(166,166,178)" stroke-miterlimit="1.45" transform="matrix(0.483,0,0,0.483,3.8643,178.2407)" stroke-linecap="butt" stroke="rgb(166,166,178)">
      <rect fill="none" width="73.96" x="775.91" height="39.1641" y="551.5625"/>
    </g>
    <g font-family="sans-serif" transform="matrix(0.483,0,0,0.483,3.8643,178.2407)">
      <text xml:space="preserve" x="781.91" y="546.7324" onclick="umlload('http://docs.oracle.com/javase/6/docs/api/java/net/package-summary.html')" stroke="none">java.net</text>
    </g>
    <g fill="rgb(187,187,255)" transform="matrix(0.483,0,0,0.483,3.8643,178.2407)" stroke="rgb(187,187,255)">
      <rect x="783.91" y="559.5938" clip-path="url(#clipPath2)" width="32.96" height="23.1328" stroke="none"/>
    </g>
    <g fill="rgb(130,130,178)" stroke-miterlimit="1.45" transform="matrix(0.483,0,0,0.483,3.8643,178.2407)" stroke-linecap="butt" stroke="rgb(130,130,178)">
      <rect fill="none" width="32.96" x="783.91" height="23.1328" y="559.5938"/>
    </g>
    <g font-size="13" font-weight="bold" font-family="sans-serif" transform="matrix(0.483,0,0,0.483,3.8643,178.2407)">
      <text xml:space="preserve" x="788.39" y="575.6606" onclick="umlload('http://docs.oracle.com/javase/6/docs/api/java/net/URI.html')" stroke="none">URI</text>
    </g>
    <g fill="rgb(238,238,255)" transform="matrix(0.483,0,0,0.483,3.8643,178.2407)" stroke="rgb(238,238,255)">
      <rect width="298.9302" x="775.91" height="17.9688" y="347.0625" stroke="none"/>
    </g>
    <g fill="rgb(166,166,178)" stroke-miterlimit="1.45" transform="matrix(0.483,0,0,0.483,3.8643,178.2407)" stroke-linecap="butt" stroke="rgb(166,166,178)">
      <rect fill="none" width="298.9302" x="775.91" height="17.9688" y="347.0625"/>
    </g>
    <g fill="rgb(238,238,255)" transform="matrix(0.483,0,0,0.483,3.8643,178.2407)" stroke="rgb(238,238,255)">
      <rect width="298.9302" x="775.91" height="138.5625" y="365.0312" stroke="none"/>
    </g>
    <g fill="rgb(166,166,178)" stroke-miterlimit="1.45" transform="matrix(0.483,0,0,0.483,3.8643,178.2407)" stroke-linecap="butt" stroke="rgb(166,166,178)">
      <rect fill="none" width="298.9302" x="775.91" height="138.5625" y="365.0312"/>
    </g>
    <g font-family="sans-serif" transform="matrix(0.483,0,0,0.483,3.8643,178.2407)">
      <text xml:space="preserve" x="781.91" y="360.2012" onclick="umlload('../../../../../../../com/msopentech/odatajclient/engine/data/package-summary.html')" stroke="none">com.msopentech.odatajclient.engine.data</text>
    </g>
    <g fill="rgb(187,187,255)" transform="matrix(0.483,0,0,0.483,3.8643,178.2407)" stroke="rgb(187,187,255)">
      <rect x="783.91" y="373.0625" clip-path="url(#clipPath3)" width="98.88" height="23.1328" stroke="none"/>
    </g>
    <g fill="rgb(130,130,178)" stroke-miterlimit="1.45" transform="matrix(0.483,0,0,0.483,3.8643,178.2407)" stroke-linecap="butt" stroke="rgb(130,130,178)">
      <rect fill="none" width="98.88" x="783.91" height="23.1328" y="373.0625"/>
    </g>
    <g font-size="13" font-weight="bold" font-family="sans-serif" transform="matrix(0.483,0,0,0.483,3.8643,178.2407)">
      <text xml:space="preserve" x="789.35" y="389.1294" onclick="umlload('../../../../../../../com/msopentech/odatajclient/engine/data/ODataEntity.html')" stroke="none">ODataEntity</text>
    </g>
    <g fill="rgb(187,187,255)" transform="matrix(0.483,0,0,0.483,3.8643,178.2407)" stroke="rgb(187,187,255)">
      <rect x="783.91" y="406.1953" clip-path="url(#clipPath4)" width="86.52" height="23.1328" stroke="none"/>
    </g>
    <g fill="rgb(130,130,178)" stroke-miterlimit="1.45" transform="matrix(0.483,0,0,0.483,3.8643,178.2407)" stroke-linecap="butt" stroke="rgb(130,130,178)">
      <rect fill="none" width="86.52" x="783.91" height="23.1328" y="406.1953"/>
    </g>
    <g font-size="13" font-weight="bold" font-family="sans-serif" transform="matrix(0.483,0,0,0.483,3.8643,178.2407)">
      <text xml:space="preserve" x="789.17" y="422.2622" onclick="umlload('../../../../../../../com/msopentech/odatajclient/engine/data/ODataLink.html')" stroke="none">ODataLink</text>
    </g>
    <g fill="rgb(187,187,255)" transform="matrix(0.483,0,0,0.483,3.8643,178.2407)" stroke="rgb(187,187,255)">
      <rect x="783.91" y="439.3281" clip-path="url(#clipPath5)" width="164.8" height="23.1328" stroke="none"/>
    </g>
    <g fill="rgb(130,130,178)" stroke-miterlimit="1.45" transform="matrix(0.483,0,0,0.483,3.8643,178.2407)" stroke-linecap="butt" stroke="rgb(130,130,178)">
      <rect fill="none" width="164.8" x="783.91" height="23.1328" y="439.3281"/>
    </g>
    <g font-size="13" font-weight="bold" font-family="sans-serif" transform="matrix(0.483,0,0,0.483,3.8643,178.2407)">
      <text xml:space="preserve" x="790.31" y="455.395" onclick="umlload('../../../../../../../com/msopentech/odatajclient/engine/data/ODataPrimitiveValue.html')" stroke="none">ODataPrimitiveValue</text>
    </g>
    <g fill="rgb(187,187,255)" transform="matrix(0.483,0,0,0.483,3.8643,178.2407)" stroke="rgb(187,187,255)">
      <rect x="783.91" y="472.4609" clip-path="url(#clipPath6)" width="121.54" height="23.1328" stroke="none"/>
    </g>
    <g fill="rgb(130,130,178)" stroke-miterlimit="1.45" transform="matrix(0.483,0,0,0.483,3.8643,178.2407)" stroke-linecap="butt" stroke="rgb(130,130,178)">
      <rect fill="none" width="121.54" x="783.91" height="23.1328" y="472.4609"/>
    </g>
    <g font-size="13" font-weight="bold" font-family="sans-serif" transform="matrix(0.483,0,0,0.483,3.8643,178.2407)">
      <text xml:space="preserve" x="789.68" y="488.5278" onclick="umlload('../../../../../../../com/msopentech/odatajclient/engine/data/ODataProperty.html')" stroke="none">ODataProperty</text>
    </g>
    <g fill="rgb(238,238,255)" transform="matrix(0.483,0,0,0.483,3.8643,178.2407)" stroke="rgb(238,238,255)">
      <rect width="453.8216" x="775.91" height="17.9688" y="61.1328" stroke="none"/>
    </g>
    <g fill="rgb(166,166,178)" stroke-miterlimit="1.45" transform="matrix(0.483,0,0,0.483,3.8643,178.2407)" stroke-linecap="butt" stroke="rgb(166,166,178)">
      <rect fill="none" width="453.8216" x="775.91" height="17.9688" y="61.1328"/>
    </g>
    <g fill="rgb(238,238,255)" transform="matrix(0.483,0,0,0.483,3.8643,178.2407)" stroke="rgb(238,238,255)">
      <rect width="453.99" x="775.91" height="237.9609" y="79.1016" stroke="none"/>
    </g>
    <g fill="rgb(166,166,178)" stroke-miterlimit="1.45" transform="matrix(0.483,0,0,0.483,3.8643,178.2407)" stroke-linecap="butt" stroke="rgb(166,166,178)">
      <rect fill="none" width="453.99" x="775.91" height="237.9609" y="79.1016"/>
    </g>
    <g font-family="sans-serif" transform="matrix(0.483,0,0,0.483,3.8643,178.2407)">
      <text xml:space="preserve" x="781.91" y="74.2715" onclick="umlload('../../../../../../../com/msopentech/odatajclient/engine/communication/request/cud/package-summary.html')" stroke="none">com.msopentech.odatajclient.engine.communication.request.cud</text>
    </g>
    <g fill="rgb(187,187,255)" transform="matrix(0.483,0,0,0.483,3.8643,178.2407)" stroke="rgb(187,187,255)">
      <rect x="783.91" y="87.1328" clip-path="url(#clipPath7)" width="167.89" height="23.1328" stroke="none"/>
    </g>
    <g fill="rgb(130,130,178)" stroke-miterlimit="1.45" transform="matrix(0.483,0,0,0.483,3.8643,178.2407)" stroke-linecap="butt" stroke="rgb(130,130,178)">
      <rect fill="none" width="167.89" x="783.91" height="23.1328" y="87.1328"/>
    </g>
    <g font-size="13" font-weight="bold" font-family="sans-serif" transform="matrix(0.483,0,0,0.483,3.8643,178.2407)">
      <text xml:space="preserve" x="790.355" y="103.1997" onclick="umlload('../../../../../../../com/msopentech/odatajclient/engine/communication/request/cud/ODataDeleteRequest.html')" stroke="none">ODataDeleteRequest</text>
    </g>
    <g fill="rgb(187,187,255)" transform="matrix(0.483,0,0,0.483,3.8643,178.2407)" stroke="rgb(187,187,255)">
      <rect x="783.91" y="120.2656" clip-path="url(#clipPath8)" width="212.18" height="23.1328" stroke="none"/>
    </g>
    <g fill="rgb(130,130,178)" stroke-miterlimit="1.45" transform="matrix(0.483,0,0,0.483,3.8643,178.2407)" stroke-linecap="butt" stroke="rgb(130,130,178)">
      <rect fill="none" width="212.18" x="783.91" height="23.1328" y="120.2656"/>
    </g>
    <g font-size="13" font-weight="bold" font-family="sans-serif" transform="matrix(0.483,0,0,0.483,3.8643,178.2407)">
      <text xml:space="preserve" x="791" y="136.3325" onclick="umlload('../../../../../../../com/msopentech/odatajclient/engine/communication/request/cud/ODataEntityCreateRequest.html')" stroke="none">ODataEntityCreateRequest</text>
    </g>
    <g fill="rgb(187,187,255)" transform="matrix(0.483,0,0,0.483,3.8643,178.2407)" stroke="rgb(187,187,255)">
      <rect x="783.91" y="153.3984" clip-path="url(#clipPath9)" width="217.33" height="23.1328" stroke="none"/>
    </g>
    <g fill="rgb(130,130,178)" stroke-miterlimit="1.45" transform="matrix(0.483,0,0,0.483,3.8643,178.2407)" stroke-linecap="butt" stroke="rgb(130,130,178)">
      <rect fill="none" width="217.33" x="783.91" height="23.1328" y="153.3984"/>
    </g>
    <g font-size="13" font-weight="bold" font-family="sans-serif" transform="matrix(0.483,0,0,0.483,3.8643,178.2407)">
      <text xml:space="preserve" x="791.075" y="169.4653" onclick="umlload('../../../../../../../com/msopentech/odatajclient/engine/communication/request/cud/ODataEntityUpdateRequest.html')" stroke="none">ODataEntityUpdateRequest</text>
    </g>
    <g fill="rgb(187,187,255)" transform="matrix(0.483,0,0,0.483,3.8643,178.2407)" stroke="rgb(187,187,255)">
      <rect x="783.91" y="186.5312" clip-path="url(#clipPath10)" width="199.82" height="23.1328" stroke="none"/>
    </g>
    <g fill="rgb(130,130,178)" stroke-miterlimit="1.45" transform="matrix(0.483,0,0,0.483,3.8643,178.2407)" stroke-linecap="butt" stroke="rgb(130,130,178)">
      <rect fill="none" width="199.82" x="783.91" height="23.1328" y="186.5312"/>
    </g>
    <g font-size="13" font-weight="bold" font-family="sans-serif" transform="matrix(0.483,0,0,0.483,3.8643,178.2407)">
      <text xml:space="preserve" x="790.82" y="202.5981" onclick="umlload('../../../../../../../com/msopentech/odatajclient/engine/communication/request/cud/ODataLinkCreateRequest.html')" stroke="none">ODataLinkCreateRequest</text>
    </g>
    <g fill="rgb(187,187,255)" transform="matrix(0.483,0,0,0.483,3.8643,178.2407)" stroke="rgb(187,187,255)">
      <rect x="783.91" y="219.6641" clip-path="url(#clipPath11)" width="204.97" height="23.1328" stroke="none"/>
    </g>
    <g fill="rgb(130,130,178)" stroke-miterlimit="1.45" transform="matrix(0.483,0,0,0.483,3.8643,178.2407)" stroke-linecap="butt" stroke="rgb(130,130,178)">
      <rect fill="none" width="204.97" x="783.91" height="23.1328" y="219.6641"/>
    </g>
    <g font-size="13" font-weight="bold" font-family="sans-serif" transform="matrix(0.483,0,0,0.483,3.8643,178.2407)">
      <text xml:space="preserve" x="790.895" y="235.731" onclick="umlload('../../../../../../../com/msopentech/odatajclient/engine/communication/request/cud/ODataLinkUpdateRequest.html')" stroke="none">ODataLinkUpdateRequest</text>
    </g>
    <g fill="rgb(187,187,255)" transform="matrix(0.483,0,0,0.483,3.8643,178.2407)" stroke="rgb(187,187,255)">
      <rect x="783.91" y="252.7969" clip-path="url(#clipPath12)" width="239.99" height="23.1328" stroke="none"/>
    </g>
    <g fill="rgb(130,130,178)" stroke-miterlimit="1.45" transform="matrix(0.483,0,0,0.483,3.8643,178.2407)" stroke-linecap="butt" stroke="rgb(130,130,178)">
      <rect fill="none" width="239.99" x="783.91" height="23.1328" y="252.7969"/>
    </g>
    <g font-size="13" font-weight="bold" font-family="sans-serif" transform="matrix(0.483,0,0,0.483,3.8643,178.2407)">
      <text xml:space="preserve" x="791.405" y="268.8638" onclick="umlload('../../../../../../../com/msopentech/odatajclient/engine/communication/request/cud/ODataPropertyUpdateRequest.html')" stroke="none">ODataPropertyUpdateRequest</text>
    </g>
    <g fill="rgb(187,187,255)" transform="matrix(0.483,0,0,0.483,3.8643,178.2407)" stroke="rgb(187,187,255)">
      <rect x="783.91" y="285.9297" clip-path="url(#clipPath13)" width="216.3" height="23.1328" stroke="none"/>
    </g>
    <g fill="rgb(130,130,178)" stroke-miterlimit="1.45" transform="matrix(0.483,0,0,0.483,3.8643,178.2407)" stroke-linecap="butt" stroke="rgb(130,130,178)">
      <rect fill="none" width="216.3" x="783.91" height="23.1328" y="285.9297"/>
    </g>
    <g font-size="13" font-weight="bold" font-family="sans-serif" transform="matrix(0.483,0,0,0.483,3.8643,178.2407)">
      <text xml:space="preserve" x="791.06" y="301.9966" onclick="umlload('../../../../../../../com/msopentech/odatajclient/engine/communication/request/cud/ODataValueUpdateRequest.html')" stroke="none">ODataValueUpdateRequest</text>
    </g>
    <g fill="rgb(238,238,255)" transform="matrix(0.483,0,0,0.483,3.8643,178.2407)" stroke="rgb(238,238,255)">
      <rect width="425.1773" x="775.91" height="17.9688" y="-26" stroke="none"/>
    </g>
    <g fill="rgb(166,166,178)" stroke-miterlimit="1.45" transform="matrix(0.483,0,0,0.483,3.8643,178.2407)" stroke-linecap="butt" stroke="rgb(166,166,178)">
      <rect fill="none" width="425.1773" x="775.91" height="17.9688" y="-26"/>
    </g>
    <g fill="rgb(238,238,255)" transform="matrix(0.483,0,0,0.483,3.8643,178.2407)" stroke="rgb(238,238,255)">
      <rect width="425.1773" x="775.91" height="39.1641" y="-8.0312" stroke="none"/>
    </g>
    <g fill="rgb(166,166,178)" stroke-miterlimit="1.45" transform="matrix(0.483,0,0,0.483,3.8643,178.2407)" stroke-linecap="butt" stroke="rgb(166,166,178)">
      <rect fill="none" width="425.1773" x="775.91" height="39.1641" y="-8.0312"/>
    </g>
    <g font-family="sans-serif" transform="matrix(0.483,0,0,0.483,3.8643,178.2407)">
      <text xml:space="preserve" x="781.91" y="-12.8613" onclick="umlload('../../../../../../../com/msopentech/odatajclient/engine/communication/request/package-summary.html')" stroke="none">com.msopentech.odatajclient.engine.communication.request</text>
    </g>
    <g fill="rgb(170,170,255)" transform="matrix(0.483,0,0,0.483,3.8643,178.2407)" stroke="rgb(170,170,255)">
      <rect x="783.91" y="0" clip-path="url(#clipPath14)" width="99.91" height="23.1328" stroke="none"/>
    </g>
    <g fill="rgb(118,118,178)" stroke-miterlimit="1.45" transform="matrix(0.483,0,0,0.483,3.8643,178.2407)" stroke-linecap="butt" stroke="rgb(118,118,178)">
      <rect fill="none" width="99.91" x="783.91" height="23.1328" y="0"/>
    </g>
    <g font-size="13" font-weight="bold" font-family="sans-serif" transform="matrix(0.483,0,0,0.483,3.8643,178.2407)">
      <text xml:space="preserve" x="789.365" y="16.0669" onclick="umlload('../../../../../../../com/msopentech/odatajclient/engine/communication/request/UpdateType.html')" stroke="none">UpdateType</text>
    </g>
    <g fill="rgb(238,238,255)" transform="matrix(0.483,0,0,0.483,3.8643,178.2407)" stroke="rgb(238,238,255)">
      <rect width="76.1412" x="322.115" height="17.9688" y="-133.1328" stroke="none"/>
    </g>
    <g fill="rgb(166,166,178)" stroke-miterlimit="1.45" transform="matrix(0.483,0,0,0.483,3.8643,178.2407)" stroke-linecap="butt" stroke="rgb(166,166,178)">
      <rect fill="none" width="76.1412" x="322.115" height="17.9688" y="-133.1328"/>
    </g>
    <g fill="rgb(238,238,255)" transform="matrix(0.483,0,0,0.483,3.8643,178.2407)" stroke="rgb(238,238,255)">
      <rect width="76.1412" x="322.115" height="39.1641" y="-115.1641" stroke="none"/>
    </g>
    <g fill="rgb(166,166,178)" stroke-miterlimit="1.45" transform="matrix(0.483,0,0,0.483,3.8643,178.2407)" stroke-linecap="butt" stroke="rgb(166,166,178)">
      <rect fill="none" width="76.1412" x="322.115" height="39.1641" y="-115.1641"/>
    </g>
    <g font-family="sans-serif" transform="matrix(0.483,0,0,0.483,3.8643,178.2407)">
      <text xml:space="preserve" x="328.115" y="-119.9941" onclick="umlload('http://docs.oracle.com/javase/6/docs/api/java/lang/package-summary.html')" stroke="none">java.lang</text>
    </g>
    <g fill="rgb(187,187,255)" transform="matrix(0.483,0,0,0.483,3.8643,178.2407)" stroke="rgb(187,187,255)">
      <rect x="330.115" y="-107.1328" clip-path="url(#clipPath15)" width="57.68" height="23.1328" stroke="none"/>
    </g>
    <g fill="rgb(130,130,178)" stroke-miterlimit="1.45" transform="matrix(0.483,0,0,0.483,3.8643,178.2407)" stroke-linecap="butt" stroke="rgb(130,130,178)">
      <rect fill="none" width="57.68" x="330.115" height="23.1328" y="-107.1328"/>
    </g>
    <g font-size="13" font-weight="bold" font-family="sans-serif" transform="matrix(0.483,0,0,0.483,3.8643,178.2407)">
      <text xml:space="preserve" x="334.955" y="-91.0659" onclick="umlload('http://docs.oracle.com/javase/6/docs/api/java/lang/Object.html')" stroke="none">Object</text>
    </g>
    <g fill="rgb(238,238,255)" transform="matrix(0.483,0,0,0.483,3.8643,178.2407)" stroke="rgb(238,238,255)">
      <rect width="453.8216" x="-8" height="17.9688" y="-26" stroke="none"/>
    </g>
    <g fill="rgb(166,166,178)" stroke-miterlimit="1.45" transform="matrix(0.483,0,0,0.483,3.8643,178.2407)" stroke-linecap="butt" stroke="rgb(166,166,178)">
      <rect fill="none" width="453.8216" x="-8" height="17.9688" y="-26"/>
    </g>
    <g fill="rgb(238,238,255)" transform="matrix(0.483,0,0,0.483,3.8643,178.2407)" stroke="rgb(238,238,255)">
      <rect width="733.91" x="-8" height="606.7578" y="-8.0312" stroke="none"/>
    </g>
    <g fill="rgb(166,166,178)" stroke-miterlimit="1.45" transform="matrix(0.483,0,0,0.483,3.8643,178.2407)" stroke-linecap="butt" stroke="rgb(166,166,178)">
      <rect fill="none" width="733.91" x="-8" height="606.7578" y="-8.0312"/>
    </g>
    <g font-family="sans-serif" transform="matrix(0.483,0,0,0.483,3.8643,178.2407)">
      <text xml:space="preserve" x="-2" y="-12.8613" onclick="umlload('package-summary.html')" stroke="none">com.msopentech.odatajclient.engine.communication.request.cud</text>
    </g>
    <g fill="rgb(187,187,255)" transform="matrix(0.483,0,0,0.483,3.8643,178.2407)" stroke="rgb(187,187,255)">
      <rect x="0" y="0" clip-path="url(#clipPath16)" width="717.91" height="26.625" stroke="none"/>
      <line clip-path="url(#clipPath16)" fill="none" x1="0" x2="717.91" y1="26.625" y2="26.625" stroke="black"/>
      <line clip-path="url(#clipPath16)" x1="0" x2="717.91" y1="27.625" y2="27.625" stroke="none"/>
      <line clip-path="url(#clipPath16)" fill="none" x1="0" x2="717.91" y1="27.625" y2="27.625" stroke="black"/>
      <rect x="0" y="28.625" clip-path="url(#clipPath16)" width="717.91" height="562.1016" stroke="none"/>
    </g>
    <g fill="rgb(130,130,178)" stroke-miterlimit="1.45" transform="matrix(0.483,0,0,0.483,3.8643,178.2407)" stroke-linecap="butt" stroke="rgb(130,130,178)">
      <rect fill="none" width="717.91" x="0" height="590.7266" y="0"/>
    </g>
    <g font-size="16" font-weight="bold" font-family="sans-serif" transform="matrix(0.483,0,0,0.483,3.8643,178.2407)">
      <text xml:space="preserve" x="242.455" y="18.8516" onclick="umlload('#')" stroke="none">ODataCUDRequestFactory</text>
    </g>
    <g font-family="sans-serif" transform="matrix(0.483,0,0,0.483,3.8643,178.2407)">
      <text xml:space="preserve" x="4" y="39.1719" stroke="none">+</text>
      <text xml:space="preserve" x="19" y="40.7637" onclick="umlload('#getDeleteRequest(java.net.URI)')" stroke="none">getDeleteRequest(URI) : ODataDeleteRequest</text>
      <line y2="43.5938" fill="none" x1="19" x2="307" y1="43.5938"/>
    </g>
    <g font-family="sans-serif" transform="matrix(0.483,0,0,0.483,3.8643,178.2407)">
      <text xml:space="preserve" x="4" y="55.1719" stroke="none">+</text>
      <text xml:space="preserve" x="19" y="56.7324" onclick="umlload('#getEntityCreateRequest(java.net.URI, com.msopentech.odatajclient.engine.data.ODataEntity)')" stroke="none">getEntityCreateRequest(URI, ODataEntity) : ODataEntityCreateRequest</text>
      <line y2="59.5625" fill="none" x1="19" x2="461" y1="59.5625"/>
    </g>
    <g font-family="sans-serif" transform="matrix(0.483,0,0,0.483,3.8643,178.2407)">
      <text xml:space="preserve" x="4" y="71.1719" stroke="none">+</text>
      <text xml:space="preserve" x="19" y="72.7012" onclick="umlload('#getEntityUpdateRequest(com.msopentech.odatajclient.engine.communication.request.UpdateType, com.msopentech.odatajclient.engine.data.ODataEntity)')" stroke="none">getEntityUpdateRequest(UpdateType, ODataEntity) : ODataEntityUpdateRequest</text>
      <line y2="75.5312" fill="none" x1="19" x2="524" y1="75.5312"/>
    </g>
    <g font-family="sans-serif" transform="matrix(0.483,0,0,0.483,3.8643,178.2407)">
      <text xml:space="preserve" x="4" y="87.1719" stroke="none">+</text>
      <text xml:space="preserve" x="19" y="88.6699" onclick="umlload('#getEntityUpdateRequest(java.net.URI, com.msopentech.odatajclient.engine.communication.request.UpdateType, com.msopentech.odatajclient.engine.data.ODataEntity)')" stroke="none">getEntityUpdateRequest(URI, UpdateType, ODataEntity) : ODataEntityUpdateRequest</text>
      <line y2="91.5" fill="none" x1="19" x2="552" y1="91.5"/>
    </g>
    <g font-family="sans-serif" transform="matrix(0.483,0,0,0.483,3.8643,178.2407)">
      <text xml:space="preserve" x="4" y="103.1719" stroke="none">+</text>
      <text xml:space="preserve" x="19" y="104.6387" onclick="umlload('#getLinkCreateRequest(java.net.URI, com.msopentech.odatajclient.engine.data.ODataLink)')" stroke="none">getLinkCreateRequest(URI, ODataLink) : ODataLinkCreateRequest</text>
      <line y2="107.4688" fill="none" x1="19" x2="428" y1="107.4688"/>
    </g>
    <g font-family="sans-serif" transform="matrix(0.483,0,0,0.483,3.8643,178.2407)">
      <text xml:space="preserve" x="4" y="119.1719" stroke="none">+</text>
      <text xml:space="preserve" x="19" y="120.6074" onclick="umlload('#getLinkUpdateRequest(java.net.URI, com.msopentech.odatajclient.engine.communication.request.UpdateType, com.msopentech.odatajclient.engine.data.ODataLink)')" stroke="none">getLinkUpdateRequest(URI, UpdateType, ODataLink) : ODataLinkUpdateRequest</text>
      <line y2="123.4375" fill="none" x1="19" x2="519" y1="123.4375"/>
    </g>
    <g font-family="sans-serif" transform="matrix(0.483,0,0,0.483,3.8643,178.2407)">
      <text xml:space="preserve" x="4" y="135.1719" stroke="none">+</text>
      <text xml:space="preserve" x="19" y="136.5762" onclick="umlload('#getPropertyCollectionValueUpdateRequest(java.net.URI, com.msopentech.odatajclient.engine.data.ODataProperty)')" stroke="none">getPropertyCollectionValueUpdateRequest(URI, ODataProperty) : ODataPropertyUpdateRequest</text>
      <line y2="139.4062" fill="none" x1="19" x2="619" y1="139.4062"/>
    </g>
    <g font-family="sans-serif" transform="matrix(0.483,0,0,0.483,3.8643,178.2407)">
      <text xml:space="preserve" x="4" y="151.1719" stroke="none">+</text>
      <text xml:space="preserve" x="19" y="152.5449" onclick="umlload('#getPropertyComplexValueUpdateRequest(java.net.URI, com.msopentech.odatajclient.engine.communication.request.UpdateType, com.msopentech.odatajclient.engine.data.ODataProperty)')" stroke="none">getPropertyComplexValueUpdateRequest(URI, UpdateType, ODataProperty) : ODataPropertyUpdateRequest</text>
      <line y2="155.375" fill="none" x1="19" x2="693" y1="155.375"/>
    </g>
    <g font-family="sans-serif" transform="matrix(0.483,0,0,0.483,3.8643,178.2407)">
      <text xml:space="preserve" x="4" y="167.1719" stroke="none">+</text>
      <text xml:space="preserve" x="19" y="168.5137" onclick="umlload('#getPropertyPrimitiveValueUpdateRequest(java.net.URI, com.msopentech.odatajclient.engine.data.ODataProperty)')" stroke="none">getPropertyPrimitiveValueUpdateRequest(URI, ODataProperty) : ODataPropertyUpdateRequest</text>
      <line y2="171.3438" fill="none" x1="19" x2="610" y1="171.3438"/>
    </g>
    <g font-family="sans-serif" transform="matrix(0.483,0,0,0.483,3.8643,178.2407)">
      <text xml:space="preserve" x="4" y="183.1719" stroke="none">+</text>
      <text xml:space="preserve" x="19" y="184.4824" onclick="umlload('#getValueUpdateRequest(java.net.URI, com.msopentech.odatajclient.engine.communication.request.UpdateType, com.msopentech.odatajclient.engine.data.ODataPrimitiveValue)')" stroke="none">getValueUpdateRequest(URI, UpdateType, ODataPrimitiveValue) : ODataValueUpdateRequest</text>
      <line y2="187.3125" fill="none" x1="19" x2="604" y1="187.3125"/>
    </g>
    <g font-family="sans-serif" transform="matrix(0.483,0,0,0.483,3.8643,178.2407)">
      <text xml:space="preserve" x="-2" y="623.1543" onclick="umlload('http://www.yworks.com/')" stroke="none">yWorks UML Doclet</text>
    </g>
    <g stroke-miterlimit="1.45" transform="matrix(0.483,0,0,0.483,3.8643,178.2407)" stroke-linecap="butt">
      <path fill="none" d="M358.955 -0.0103 L358.955 -69"/>
      <path fill="white" d="M358.955 -84 L352.955 -68 L364.955 -68 Z" stroke="none"/>
      <path fill="none" d="M358.955 -84 L352.955 -68 L364.955 -68 Z"/>
      <path fill="none" stroke-dasharray="6,2" d="M717.8912 11.5664 L783.91 11.5664"/>
      <line stroke-linecap="square" transform="matrix(1,0,0,1,783.91,11.5664)" fill="none" x1="0" x2="-14" y1="0" y2="-4" stroke-miterlimit="10"/>
      <line stroke-linecap="square" transform="matrix(1,0,0,1,783.91,11.5664)" fill="none" x1="0" x2="-14" y1="0" y2="4" stroke-miterlimit="10"/>
    </g>
    <g stroke-dasharray="6,2" stroke-miterlimit="1.45" transform="matrix(0.483,0,0,0.483,3.8643,178.2407)" stroke-linecap="butt">
      <path fill="none" d="M717.9246 98.6992 L783.91 98.6992"/>
      <line stroke-linecap="square" transform="matrix(1,0,0,1,783.91,98.6992)" fill="none" x1="0" x2="-14" y1="0" y2="-4" stroke-dasharray="none" stroke-miterlimit="10"/>
      <line stroke-linecap="square" transform="matrix(1,0,0,1,783.91,98.6992)" fill="none" x1="0" x2="-14" y1="0" y2="4" stroke-dasharray="none" stroke-miterlimit="10"/>
    </g>
    <g stroke-dasharray="6,2" stroke-miterlimit="1.45" transform="matrix(0.483,0,0,0.483,3.8643,178.2407)" stroke-linecap="butt">
      <path fill="none" d="M717.9225 131.832 L783.91 131.832"/>
      <line stroke-linecap="square" transform="matrix(1,0,0,1,783.91,131.832)" fill="none" x1="0" x2="-14" y1="0" y2="-4" stroke-dasharray="none" stroke-miterlimit="10"/>
      <line stroke-linecap="square" transform="matrix(1,0,0,1,783.91,131.832)" fill="none" x1="0" x2="-14" y1="0" y2="4" stroke-dasharray="none" stroke-miterlimit="10"/>
    </g>
    <g stroke-dasharray="6,2" stroke-miterlimit="1.45" transform="matrix(0.483,0,0,0.483,3.8643,178.2407)" stroke-linecap="butt">
      <path fill="none" d="M717.9044 164.9648 L783.91 164.9648"/>
      <line stroke-linecap="square" transform="matrix(1,0,0,1,783.91,164.9648)" fill="none" x1="0" x2="-14" y1="0" y2="-4" stroke-dasharray="none" stroke-miterlimit="10"/>
      <line stroke-linecap="square" transform="matrix(1,0,0,1,783.91,164.9648)" fill="none" x1="0" x2="-14" y1="0" y2="4" stroke-dasharray="none" stroke-miterlimit="10"/>
    </g>
    <g stroke-dasharray="6,2" stroke-miterlimit="1.45" transform="matrix(0.483,0,0,0.483,3.8643,178.2407)" stroke-linecap="butt">
      <path fill="none" d="M717.9096 198.0977 L783.91 198.0977"/>
      <line stroke-linecap="square" transform="matrix(1,0,0,1,783.91,198.0977)" fill="none" x1="0" x2="-14" y1="0" y2="-4" stroke-dasharray="none" stroke-miterlimit="10"/>
      <line stroke-linecap="square" transform="matrix(1,0,0,1,783.91,198.0977)" fill="none" x1="0" x2="-14" y1="0" y2="4" stroke-dasharray="none" stroke-miterlimit="10"/>
    </g>
    <g stroke-dasharray="6,2" stroke-miterlimit="1.45" transform="matrix(0.483,0,0,0.483,3.8643,178.2407)" stroke-linecap="butt">
      <path fill="none" d="M717.9323 231.2305 L783.91 231.2305"/>
      <line stroke-linecap="square" transform="matrix(1,0,0,1,783.91,231.2305)" fill="none" x1="0" x2="-14" y1="0" y2="-4" stroke-dasharray="none" stroke-miterlimit="10"/>
      <line stroke-linecap="square" transform="matrix(1,0,0,1,783.91,231.2305)" fill="none" x1="0" x2="-14" y1="0" y2="4" stroke-dasharray="none" stroke-miterlimit="10"/>
    </g>
    <g stroke-dasharray="6,2" stroke-miterlimit="1.45" transform="matrix(0.483,0,0,0.483,3.8643,178.2407)" stroke-linecap="butt">
      <path fill="none" d="M717.9421 264.3633 L783.91 264.3633"/>
      <line stroke-linecap="square" transform="matrix(1,0,0,1,783.91,264.3633)" fill="none" x1="0" x2="-14" y1="0" y2="-4" stroke-dasharray="none" stroke-miterlimit="10"/>
      <line stroke-linecap="square" transform="matrix(1,0,0,1,783.91,264.3633)" fill="none" x1="0" x2="-14" y1="0" y2="4" stroke-dasharray="none" stroke-miterlimit="10"/>
    </g>
    <g stroke-dasharray="6,2" stroke-miterlimit="1.45" transform="matrix(0.483,0,0,0.483,3.8643,178.2407)" stroke-linecap="butt">
      <path fill="none" d="M717.8833 297.4961 L783.91 297.4961"/>
      <line stroke-linecap="square" transform="matrix(1,0,0,1,783.91,297.4961)" fill="none" x1="0" x2="-14" y1="0" y2="-4" stroke-dasharray="none" stroke-miterlimit="10"/>
      <line stroke-linecap="square" transform="matrix(1,0,0,1,783.91,297.4961)" fill="none" x1="0" x2="-14" y1="0" y2="4" stroke-dasharray="none" stroke-miterlimit="10"/>
    </g>
    <g stroke-dasharray="6,2" stroke-miterlimit="1.45" transform="matrix(0.483,0,0,0.483,3.8643,178.2407)" stroke-linecap="butt">
      <path fill="none" d="M717.9073 384.6289 L783.91 384.6289"/>
      <line stroke-linecap="square" transform="matrix(1,0,0,1,783.91,384.6289)" fill="none" x1="0" x2="-14" y1="0" y2="-4" stroke-dasharray="none" stroke-miterlimit="10"/>
      <line stroke-linecap="square" transform="matrix(1,0,0,1,783.91,384.6289)" fill="none" x1="0" x2="-14" y1="0" y2="4" stroke-dasharray="none" stroke-miterlimit="10"/>
    </g>
    <g stroke-dasharray="6,2" stroke-miterlimit="1.45" transform="matrix(0.483,0,0,0.483,3.8643,178.2407)" stroke-linecap="butt">
      <path fill="none" d="M717.9179 417.7617 L783.91 417.7617"/>
      <line stroke-linecap="square" transform="matrix(1,0,0,1,783.91,417.7617)" fill="none" x1="0" x2="-14" y1="0" y2="-4" stroke-dasharray="none" stroke-miterlimit="10"/>
      <line stroke-linecap="square" transform="matrix(1,0,0,1,783.91,417.7617)" fill="none" x1="0" x2="-14" y1="0" y2="4" stroke-dasharray="none" stroke-miterlimit="10"/>
    </g>
    <g stroke-dasharray="6,2" stroke-miterlimit="1.45" transform="matrix(0.483,0,0,0.483,3.8643,178.2407)" stroke-linecap="butt">
      <path fill="none" d="M717.8876 450.8945 L783.91 450.8945"/>
      <line stroke-linecap="square" transform="matrix(1,0,0,1,783.91,450.8945)" fill="none" x1="0" x2="-14" y1="0" y2="-4" stroke-dasharray="none" stroke-miterlimit="10"/>
      <line stroke-linecap="square" transform="matrix(1,0,0,1,783.91,450.8945)" fill="none" x1="0" x2="-14" y1="0" y2="4" stroke-dasharray="none" stroke-miterlimit="10"/>
    </g>
    <g stroke-dasharray="6,2" stroke-miterlimit="1.45" transform="matrix(0.483,0,0,0.483,3.8643,178.2407)" stroke-linecap="butt">
      <path fill="none" d="M717.8828 484.0273 L783.91 484.0273"/>
      <line stroke-linecap="square" transform="matrix(1,0,0,1,783.91,484.0273)" fill="none" x1="0" x2="-14" y1="0" y2="-4" stroke-dasharray="none" stroke-miterlimit="10"/>
      <line stroke-linecap="square" transform="matrix(1,0,0,1,783.91,484.0273)" fill="none" x1="0" x2="-14" y1="0" y2="4" stroke-dasharray="none" stroke-miterlimit="10"/>
    </g>
    <g stroke-dasharray="6,2" stroke-miterlimit="1.45" transform="matrix(0.483,0,0,0.483,3.8643,178.2407)" stroke-linecap="butt">
      <path fill="none" d="M717.9173 571.1602 L783.91 571.1602"/>
      <line stroke-linecap="square" transform="matrix(1,0,0,1,783.91,571.1602)" fill="none" x1="0" x2="-14" y1="0" y2="-4" stroke-dasharray="none" stroke-miterlimit="10"/>
      <line stroke-linecap="square" transform="matrix(1,0,0,1,783.91,571.1602)" fill="none" x1="0" x2="-14" y1="0" y2="4" stroke-dasharray="none" stroke-miterlimit="10"/>
    </g>
  </g>
</svg>
