<?xml version="1.0" encoding="UTF-8"?><svg xmlns="http://www.w3.org/2000/svg" xmlns:xlink="http://www.w3.org/1999/xlink" fill-opacity="1" color-rendering="auto" color-interpolation="auto" stroke="black" text-rendering="auto" stroke-linecap="square" width="598" stroke-miterlimit="10" stroke-opacity="1" shape-rendering="auto" fill="black" stroke-dasharray="none" font-weight="normal" stroke-width="1" height="598" font-family="'Dialog'" font-style="normal" stroke-linejoin="miter" font-size="12" stroke-dashoffset="0" image-rendering="auto">
  <!--Generated by ySVG-->
  <defs id="genericDefs"/>
  <g>
    <defs id="defs1">
      <clipPath clipPathUnits="userSpaceOnUse" id="clipPath1">
        <path d="M0 0 L598 0 L598 598 L0 598 L0 0 Z"/>
      </clipPath>
      <clipPath clipPathUnits="userSpaceOnUse" id="clipPath2">
        <path d="M8 26 L215.03 26 L215.03 49.1328 L8 49.1328 L8 26 Z"/>
      </clipPath>
      <clipPath clipPathUnits="userSpaceOnUse" id="clipPath3">
        <path d="M8 94.1328 L175.89 94.1328 L175.89 117.2656 L8 117.2656 L8 94.1328 Z"/>
      </clipPath>
      <clipPath clipPathUnits="userSpaceOnUse" id="clipPath4">
        <path d="M8 162.2656 L220.18 162.2656 L220.18 185.3984 L8 185.3984 L8 162.2656 Z"/>
      </clipPath>
      <clipPath clipPathUnits="userSpaceOnUse" id="clipPath5">
        <path d="M8 230.3984 L225.33 230.3984 L225.33 253.5312 L8 253.5312 L8 230.3984 Z"/>
      </clipPath>
      <clipPath clipPathUnits="userSpaceOnUse" id="clipPath6">
        <path d="M8 298.5312 L207.82 298.5312 L207.82 321.6641 L8 321.6641 L8 298.5312 Z"/>
      </clipPath>
      <clipPath clipPathUnits="userSpaceOnUse" id="clipPath7">
        <path d="M8 366.6641 L212.97 366.6641 L212.97 389.7969 L8 389.7969 L8 366.6641 Z"/>
      </clipPath>
      <clipPath clipPathUnits="userSpaceOnUse" id="clipPath8">
        <path d="M8 434.7969 L459.14 434.7969 L459.14 457.9297 L8 457.9297 L8 434.7969 Z"/>
      </clipPath>
      <clipPath clipPathUnits="userSpaceOnUse" id="clipPath9">
        <path d="M8 502.9297 L247.99 502.9297 L247.99 526.0625 L8 526.0625 L8 502.9297 Z"/>
      </clipPath>
      <clipPath clipPathUnits="userSpaceOnUse" id="clipPath10">
        <path d="M8 571.0625 L224.3 571.0625 L224.3 594.1953 L8 594.1953 L8 571.0625 Z"/>
      </clipPath>
      <script type="text/ecmascript"><![CDATA[
function umlload(newLocation)
{
if (newLocation.charAt(0) != '#') {
if (newLocation.indexOf("://") > -1) {
window.parent.location.href = newLocation;
} else {
var tmp = window.parent.location.href;
tmp = tmp.substring(0, tmp.lastIndexOf("/") + 1);
window.parent.location.href = tmp.concat(newLocation);
}
} else {
window.parent.location.hash = newLocation;
}
}
]]></script>
    </defs>
    <g fill="rgb(238,238,255)" transform="matrix(0.9373,0,0,0.9373,79.6708,0)" stroke="rgb(238,238,255)">
      <rect width="453.8216" x="0" height="17.9688" y="0" stroke="none"/>
    </g>
    <g fill="rgb(166,166,178)" stroke-miterlimit="1.45" transform="matrix(0.9373,0,0,0.9373,79.6708,0)" stroke-linecap="butt" stroke="rgb(166,166,178)">
      <rect fill="none" width="453.8216" x="0" height="17.9688" y="0"/>
    </g>
    <g fill="rgb(238,238,255)" transform="matrix(0.9373,0,0,0.9373,79.6708,0)" stroke="rgb(238,238,255)">
      <rect width="467.14" x="0" height="584.2266" y="17.9688" stroke="none"/>
    </g>
    <g fill="rgb(166,166,178)" stroke-miterlimit="1.45" transform="matrix(0.9373,0,0,0.9373,79.6708,0)" stroke-linecap="butt" stroke="rgb(166,166,178)">
      <rect fill="none" width="467.14" x="0" height="584.2266" y="17.9688"/>
    </g>
    <g font-family="sans-serif" transform="matrix(0.9373,0,0,0.9373,79.6708,0)">
      <text xml:space="preserve" x="6" y="13.1387" onclick="umlload('#')" stroke="none">com.msopentech.odatajclient.engine.communication.request.cud</text>
    </g>
    <g fill="rgb(187,187,255)" transform="matrix(0.9373,0,0,0.9373,79.6708,0)" stroke="rgb(187,187,255)">
      <rect x="8" y="26" clip-path="url(#clipPath2)" width="207.03" height="23.1328" stroke="none"/>
    </g>
    <g fill="rgb(130,130,178)" stroke-miterlimit="1.45" transform="matrix(0.9373,0,0,0.9373,79.6708,0)" stroke-linecap="butt" stroke="rgb(130,130,178)">
      <rect fill="none" width="207.03" x="8" height="23.1328" y="26"/>
    </g>
    <g font-size="13" font-weight="bold" font-family="sans-serif" transform="matrix(0.9373,0,0,0.9373,79.6708,0)">
      <text xml:space="preserve" x="15.015" y="42.0669" onclick="umlload('ODataCUDRequestFactory.html')" stroke="none">ODataCUDRequestFactory</text>
    </g>
    <g fill="rgb(187,187,255)" transform="matrix(0.9373,0,0,0.9373,79.6708,0)" stroke="rgb(187,187,255)">
      <rect x="8" y="94.1328" clip-path="url(#clipPath3)" width="167.89" height="23.1328" stroke="none"/>
    </g>
    <g fill="rgb(130,130,178)" stroke-miterlimit="1.45" transform="matrix(0.9373,0,0,0.9373,79.6708,0)" stroke-linecap="butt" stroke="rgb(130,130,178)">
      <rect fill="none" width="167.89" x="8" height="23.1328" y="94.1328"/>
    </g>
    <g font-size="13" font-weight="bold" font-family="sans-serif" transform="matrix(0.9373,0,0,0.9373,79.6708,0)">
      <text xml:space="preserve" x="14.445" y="110.1997" onclick="umlload('ODataDeleteRequest.html')" stroke="none">ODataDeleteRequest</text>
    </g>
    <g fill="rgb(187,187,255)" transform="matrix(0.9373,0,0,0.9373,79.6708,0)" stroke="rgb(187,187,255)">
      <rect x="8" y="162.2656" clip-path="url(#clipPath4)" width="212.18" height="23.1328" stroke="none"/>
    </g>
    <g fill="rgb(130,130,178)" stroke-miterlimit="1.45" transform="matrix(0.9373,0,0,0.9373,79.6708,0)" stroke-linecap="butt" stroke="rgb(130,130,178)">
      <rect fill="none" width="212.18" x="8" height="23.1328" y="162.2656"/>
    </g>
    <g font-size="13" font-weight="bold" font-family="sans-serif" transform="matrix(0.9373,0,0,0.9373,79.6708,0)">
      <text xml:space="preserve" x="15.09" y="178.3325" onclick="umlload('ODataEntityCreateRequest.html')" stroke="none">ODataEntityCreateRequest</text>
    </g>
    <g fill="rgb(187,187,255)" transform="matrix(0.9373,0,0,0.9373,79.6708,0)" stroke="rgb(187,187,255)">
      <rect x="8" y="230.3984" clip-path="url(#clipPath5)" width="217.33" height="23.1328" stroke="none"/>
    </g>
    <g fill="rgb(130,130,178)" stroke-miterlimit="1.45" transform="matrix(0.9373,0,0,0.9373,79.6708,0)" stroke-linecap="butt" stroke="rgb(130,130,178)">
      <rect fill="none" width="217.33" x="8" height="23.1328" y="230.3984"/>
    </g>
    <g font-size="13" font-weight="bold" font-family="sans-serif" transform="matrix(0.9373,0,0,0.9373,79.6708,0)">
      <text xml:space="preserve" x="15.165" y="246.4653" onclick="umlload('ODataEntityUpdateRequest.html')" stroke="none">ODataEntityUpdateRequest</text>
    </g>
    <g fill="rgb(187,187,255)" transform="matrix(0.9373,0,0,0.9373,79.6708,0)" stroke="rgb(187,187,255)">
      <rect x="8" y="298.5312" clip-path="url(#clipPath6)" width="199.82" height="23.1328" stroke="none"/>
    </g>
    <g fill="rgb(130,130,178)" stroke-miterlimit="1.45" transform="matrix(0.9373,0,0,0.9373,79.6708,0)" stroke-linecap="butt" stroke="rgb(130,130,178)">
      <rect fill="none" width="199.82" x="8" height="23.1328" y="298.5312"/>
    </g>
    <g font-size="13" font-weight="bold" font-family="sans-serif" transform="matrix(0.9373,0,0,0.9373,79.6708,0)">
      <text xml:space="preserve" x="14.91" y="314.5981" onclick="umlload('ODataLinkCreateRequest.html')" stroke="none">ODataLinkCreateRequest</text>
    </g>
    <g fill="rgb(187,187,255)" transform="matrix(0.9373,0,0,0.9373,79.6708,0)" stroke="rgb(187,187,255)">
      <rect x="8" y="366.6641" clip-path="url(#clipPath7)" width="204.97" height="23.1328" stroke="none"/>
    </g>
    <g fill="rgb(130,130,178)" stroke-miterlimit="1.45" transform="matrix(0.9373,0,0,0.9373,79.6708,0)" stroke-linecap="butt" stroke="rgb(130,130,178)">
      <rect fill="none" width="204.97" x="8" height="23.1328" y="366.6641"/>
    </g>
    <g font-size="13" font-weight="bold" font-family="sans-serif" transform="matrix(0.9373,0,0,0.9373,79.6708,0)">
      <text xml:space="preserve" x="14.985" y="382.731" onclick="umlload('ODataLinkUpdateRequest.html')" stroke="none">ODataLinkUpdateRequest</text>
    </g>
    <g fill="rgb(187,187,255)" transform="matrix(0.9373,0,0,0.9373,79.6708,0)" stroke="rgb(187,187,255)">
      <rect x="8" y="434.7969" clip-path="url(#clipPath8)" width="451.14" height="23.1328" stroke="none"/>
    </g>
    <g fill="rgb(130,130,178)" stroke-miterlimit="1.45" transform="matrix(0.9373,0,0,0.9373,79.6708,0)" stroke-linecap="butt" stroke="rgb(130,130,178)">
      <rect fill="none" width="451.14" x="8" height="23.1328" y="434.7969"/>
    </g>
    <g font-size="13" font-weight="bold" font-family="sans-serif" transform="matrix(0.9373,0,0,0.9373,79.6708,0)">
      <text xml:space="preserve" x="18.57" y="450.8638" onclick="umlload('ODataLinkUpdateRequest.ODataLinkUpdateResponseImpl.html')" stroke="none">ODataLinkUpdateRequest.ODataLinkUpdateResponseImpl</text>
    </g>
    <g fill="rgb(187,187,255)" transform="matrix(0.9373,0,0,0.9373,79.6708,0)" stroke="rgb(187,187,255)">
      <rect x="8" y="502.9297" clip-path="url(#clipPath9)" width="239.99" height="23.1328" stroke="none"/>
    </g>
    <g fill="rgb(130,130,178)" stroke-miterlimit="1.45" transform="matrix(0.9373,0,0,0.9373,79.6708,0)" stroke-linecap="butt" stroke="rgb(130,130,178)">
      <rect fill="none" width="239.99" x="8" height="23.1328" y="502.9297"/>
    </g>
    <g font-size="13" font-weight="bold" font-family="sans-serif" transform="matrix(0.9373,0,0,0.9373,79.6708,0)">
      <text xml:space="preserve" x="15.495" y="518.9966" onclick="umlload('ODataPropertyUpdateRequest.html')" stroke="none">ODataPropertyUpdateRequest</text>
    </g>
    <g fill="rgb(187,187,255)" transform="matrix(0.9373,0,0,0.9373,79.6708,0)" stroke="rgb(187,187,255)">
      <rect x="8" y="571.0625" clip-path="url(#clipPath10)" width="216.3" height="23.1328" stroke="none"/>
    </g>
    <g fill="rgb(130,130,178)" stroke-miterlimit="1.45" transform="matrix(0.9373,0,0,0.9373,79.6708,0)" stroke-linecap="butt" stroke="rgb(130,130,178)">
      <rect fill="none" width="216.3" x="8" height="23.1328" y="571.0625"/>
    </g>
    <g font-size="13" font-weight="bold" font-family="sans-serif" transform="matrix(0.9373,0,0,0.9373,79.6708,0)">
      <text xml:space="preserve" x="15.15" y="587.1294" onclick="umlload('ODataValueUpdateRequest.html')" stroke="none">ODataValueUpdateRequest</text>
    </g>
    <g font-family="sans-serif" transform="matrix(0.9373,0,0,0.9373,79.6708,0)">
      <text xml:space="preserve" x="6" y="627.1543" onclick="umlload('http://www.yworks.com/')" stroke="none">yWorks UML Doclet</text>
    </g>
  </g>
</svg>
