<?xml version="1.0" encoding="UTF-8"?><svg xmlns="http://www.w3.org/2000/svg" xmlns:xlink="http://www.w3.org/1999/xlink" fill-opacity="1" color-rendering="auto" color-interpolation="auto" stroke="black" text-rendering="auto" stroke-linecap="square" width="598" stroke-miterlimit="10" stroke-opacity="1" shape-rendering="auto" fill="black" stroke-dasharray="none" font-weight="normal" stroke-width="1" height="598" font-family="'Dialog'" font-style="normal" stroke-linejoin="miter" font-size="12" stroke-dashoffset="0" image-rendering="auto">
  <!--Generated by ySVG-->
  <defs id="genericDefs"/>
  <g>
    <defs id="defs1">
      <clipPath clipPathUnits="userSpaceOnUse" id="clipPath1">
        <path d="M0 0 L598 0 L598 598 L0 598 L0 0 Z"/>
      </clipPath>
      <clipPath clipPathUnits="userSpaceOnUse" id="clipPath2">
        <path d="M769.467 233.3377 C769.467 242.3717 733.2722 249.6951 688.6235 249.6951 C643.9749 249.6951 607.78 242.3717 607.78 233.3377 C607.78 224.3038 643.9749 216.9804 688.6235 216.9804 C733.2722 216.9804 769.467 224.3038 769.467 233.3377 Z"/>
      </clipPath>
      <clipPath clipPathUnits="userSpaceOnUse" id="clipPath3">
        <path d="M735.9643 103.4902 C735.9643 112.5241 707.2693 119.8475 671.8721 119.8475 C636.475 119.8475 607.78 112.5241 607.78 103.4902 C607.78 94.4563 636.475 87.1328 671.8721 87.1328 C707.2693 87.1328 735.9643 94.4563 735.9643 103.4902 Z"/>
      </clipPath>
      <clipPath clipPathUnits="userSpaceOnUse" id="clipPath4">
        <path d="M607.78 129.8475 L681.94 129.8475 L681.94 152.9804 L607.78 152.9804 L607.78 129.8475 Z"/>
      </clipPath>
      <clipPath clipPathUnits="userSpaceOnUse" id="clipPath5">
        <path d="M607.78 0 L767.43 0 L767.43 23.1328 L607.78 23.1328 L607.78 0 Z"/>
      </clipPath>
      <clipPath clipPathUnits="userSpaceOnUse" id="clipPath6">
        <path d="M-212.26 87.1328 L-110.29 87.1328 L-110.29 110.2656 L-212.26 110.2656 L-212.26 87.1328 Z"/>
      </clipPath>
      <clipPath clipPathUnits="userSpaceOnUse" id="clipPath7">
        <path d="M-212.26 120.2656 L-66 120.2656 L-66 143.3984 L-212.26 143.3984 L-212.26 120.2656 Z"/>
      </clipPath>
      <clipPath clipPathUnits="userSpaceOnUse" id="clipPath8">
        <path d="M-343.25 0 L-238.19 0 L-238.19 23.1328 L-343.25 23.1328 L-343.25 0 Z"/>
      </clipPath>
      <clipPath clipPathUnits="userSpaceOnUse" id="clipPath9">
        <path d="M208.06 -107.1328 L333.72 -107.1328 L333.72 -84 L208.06 -84 L208.06 -107.1328 Z"/>
      </clipPath>
      <clipPath clipPathUnits="userSpaceOnUse" id="clipPath10">
        <path d="M0 0 L541.78 0 L541.78 257.6951 L0 257.6951 L0 0 Z"/>
      </clipPath>
      <script type="text/ecmascript"><![CDATA[
function umlload(newLocation)
{
if (newLocation.charAt(0) != '#') {
if (newLocation.indexOf("://") > -1) {
window.parent.location.href = newLocation;
} else {
var tmp = window.parent.location.href;
tmp = tmp.substring(0, tmp.lastIndexOf("/") + 1);
window.parent.location.href = tmp.concat(newLocation);
}
} else {
window.parent.location.hash = newLocation;
}
}
]]></script>
    </defs>
    <g fill="rgb(238,238,255)" transform="matrix(0.5292,0,0,0.5292,186.2796,254.5469)" stroke="rgb(238,238,255)">
      <rect width="124.9426" x="599.78" height="17.9688" y="190.9804" stroke="none"/>
    </g>
    <g fill="rgb(166,166,178)" stroke-miterlimit="1.45" transform="matrix(0.5292,0,0,0.5292,186.2796,254.5469)" stroke-linecap="butt" stroke="rgb(166,166,178)">
      <rect fill="none" width="124.9426" x="599.78" height="17.9688" y="190.9804"/>
    </g>
    <g fill="rgb(238,238,255)" transform="matrix(0.5292,0,0,0.5292,186.2796,254.5469)" stroke="rgb(238,238,255)">
      <rect width="177.687" x="599.78" height="48.746" y="208.9491" stroke="none"/>
    </g>
    <g fill="rgb(166,166,178)" stroke-miterlimit="1.45" transform="matrix(0.5292,0,0,0.5292,186.2796,254.5469)" stroke-linecap="butt" stroke="rgb(166,166,178)">
      <rect fill="none" width="177.687" x="599.78" height="48.746" y="208.9491"/>
    </g>
    <g font-family="sans-serif" transform="matrix(0.5292,0,0,0.5292,186.2796,254.5469)">
      <text xml:space="preserve" x="605.78" y="204.119" stroke="none">org.apache.http</text>
    </g>
    <g fill="rgb(221,221,255)" transform="matrix(0.5292,0,0,0.5292,186.2796,254.5469)" stroke="rgb(221,221,255)">
      <rect x="607.78" y="216.9804" clip-path="url(#clipPath2)" width="161.687" height="32.7147" stroke="none"/>
    </g>
    <g fill="rgb(154,154,178)" stroke-miterlimit="1.45" transform="matrix(0.5292,0,0,0.5292,186.2796,254.5469)" stroke-linecap="butt" stroke="rgb(154,154,178)">
      <ellipse rx="80.8435" fill="none" ry="16.3574" cx="688.6235" cy="233.3377"/>
    </g>
    <g font-style="italic" font-size="13" font-weight="bold" font-family="sans-serif" transform="matrix(0.5292,0,0,0.5292,186.2796,254.5469)">
      <text xml:space="preserve" x="637.1235" y="237.8382" stroke="none">HttpResponse</text>
    </g>
    <g fill="rgb(238,238,255)" transform="matrix(0.5292,0,0,0.5292,186.2796,254.5469)" stroke="rgb(238,238,255)">
      <rect width="145.0997" x="599.78" height="17.9688" y="61.1328" stroke="none"/>
    </g>
    <g fill="rgb(166,166,178)" stroke-miterlimit="1.45" transform="matrix(0.5292,0,0,0.5292,186.2796,254.5469)" stroke-linecap="butt" stroke="rgb(166,166,178)">
      <rect fill="none" width="145.0997" x="599.78" height="17.9688" y="61.1328"/>
    </g>
    <g fill="rgb(238,238,255)" transform="matrix(0.5292,0,0,0.5292,186.2796,254.5469)" stroke="rgb(238,238,255)">
      <rect width="147.1843" x="599.78" height="81.8788" y="79.1016" stroke="none"/>
    </g>
    <g fill="rgb(166,166,178)" stroke-miterlimit="1.45" transform="matrix(0.5292,0,0,0.5292,186.2796,254.5469)" stroke-linecap="butt" stroke="rgb(166,166,178)">
      <rect fill="none" width="147.1843" x="599.78" height="81.8788" y="79.1016"/>
    </g>
    <g font-family="sans-serif" transform="matrix(0.5292,0,0,0.5292,186.2796,254.5469)">
      <text xml:space="preserve" x="605.78" y="74.2715" onclick="umlload('http://docs.oracle.com/javase/6/docs/api/java/util/concurrent/package-summary.html')" stroke="none">java.util.concurrent</text>
    </g>
    <g fill="rgb(221,221,255)" transform="matrix(0.5292,0,0,0.5292,186.2796,254.5469)" stroke="rgb(221,221,255)">
      <rect x="607.78" y="87.1328" clip-path="url(#clipPath3)" width="128.1843" height="32.7147" stroke="none"/>
    </g>
    <g fill="rgb(154,154,178)" stroke-miterlimit="1.45" transform="matrix(0.5292,0,0,0.5292,186.2796,254.5469)" stroke-linecap="butt" stroke="rgb(154,154,178)">
      <ellipse rx="64.0922" fill="none" ry="16.3574" cx="671.8722" cy="103.4902"/>
    </g>
    <g font-style="italic" font-size="13" font-weight="bold" font-family="sans-serif" transform="matrix(0.5292,0,0,0.5292,186.2796,254.5469)">
      <text xml:space="preserve" x="631.8721" y="107.9907" onclick="umlload('http://docs.oracle.com/javase/6/docs/api/java/util/concurrent/Future.html')" stroke="none">Future&lt;V&gt;</text>
    </g>
    <g fill="rgb(204,204,255)" transform="matrix(0.5292,0,0,0.5292,186.2796,254.5469)" stroke="rgb(204,204,255)">
      <rect x="607.78" y="129.8475" clip-path="url(#clipPath4)" width="74.16" height="23.1328" stroke="none"/>
    </g>
    <g fill="rgb(142,142,178)" stroke-miterlimit="1.45" transform="matrix(0.5292,0,0,0.5292,186.2796,254.5469)" stroke-linecap="butt" stroke="rgb(142,142,178)">
      <rect fill="none" width="74.16" x="607.78" height="23.1328" y="129.8475"/>
    </g>
    <g font-size="13" font-weight="bold" font-family="sans-serif" transform="matrix(0.5292,0,0,0.5292,186.2796,254.5469)">
      <text xml:space="preserve" x="612.86" y="145.9144" onclick="umlload('http://docs.oracle.com/javase/6/docs/api/java/util/concurrent/TimeUnit.html')" stroke="none">TimeUnit</text>
    </g>
    <g fill="rgb(238,238,255)" transform="matrix(0.5292,0,0,0.5292,186.2796,254.5469)" stroke="rgb(238,238,255)">
      <rect width="59.1668" x="599.78" height="17.9688" y="-26" stroke="none"/>
    </g>
    <g fill="rgb(166,166,178)" stroke-miterlimit="1.45" transform="matrix(0.5292,0,0,0.5292,186.2796,254.5469)" stroke-linecap="butt" stroke="rgb(166,166,178)">
      <rect fill="none" width="59.1668" x="599.78" height="17.9688" y="-26"/>
    </g>
    <g fill="rgb(238,238,255)" transform="matrix(0.5292,0,0,0.5292,186.2796,254.5469)" stroke="rgb(238,238,255)">
      <rect width="175.65" x="599.78" height="39.1641" y="-8.0312" stroke="none"/>
    </g>
    <g fill="rgb(166,166,178)" stroke-miterlimit="1.45" transform="matrix(0.5292,0,0,0.5292,186.2796,254.5469)" stroke-linecap="butt" stroke="rgb(166,166,178)">
      <rect fill="none" width="175.65" x="599.78" height="39.1641" y="-8.0312"/>
    </g>
    <g font-family="sans-serif" transform="matrix(0.5292,0,0,0.5292,186.2796,254.5469)">
      <text xml:space="preserve" x="605.78" y="-12.8613" onclick="umlload('http://docs.oracle.com/javase/6/docs/api/java/io/package-summary.html')" stroke="none">java.io</text>
    </g>
    <g fill="rgb(187,187,255)" transform="matrix(0.5292,0,0,0.5292,186.2796,254.5469)" stroke="rgb(187,187,255)">
      <rect x="607.78" y="0" clip-path="url(#clipPath5)" width="159.65" height="23.1328" stroke="none"/>
    </g>
    <g fill="rgb(130,130,178)" stroke-miterlimit="1.45" transform="matrix(0.5292,0,0,0.5292,186.2796,254.5469)" stroke-linecap="butt" stroke="rgb(130,130,178)">
      <rect fill="none" width="159.65" x="607.78" height="23.1328" y="0"/>
    </g>
    <g font-size="13" font-weight="bold" font-family="sans-serif" transform="matrix(0.5292,0,0,0.5292,186.2796,254.5469)">
      <text xml:space="preserve" x="614.105" y="16.0669" onclick="umlload('http://docs.oracle.com/javase/6/docs/api/java/io/PipedOutputStream.html')" stroke="none">PipedOutputStream</text>
    </g>
    <g fill="rgb(238,238,255)" transform="matrix(0.5292,0,0,0.5292,186.2796,254.5469)" stroke="rgb(238,238,255)">
      <rect width="59.1668" x="-220.26" height="17.9688" y="61.1328" stroke="none"/>
    </g>
    <g fill="rgb(166,166,178)" stroke-miterlimit="1.45" transform="matrix(0.5292,0,0,0.5292,186.2796,254.5469)" stroke-linecap="butt" stroke="rgb(166,166,178)">
      <rect fill="none" width="59.1668" x="-220.26" height="17.9688" y="61.1328"/>
    </g>
    <g fill="rgb(238,238,255)" transform="matrix(0.5292,0,0,0.5292,186.2796,254.5469)" stroke="rgb(238,238,255)">
      <rect width="162.26" x="-220.26" height="72.2969" y="79.1016" stroke="none"/>
    </g>
    <g fill="rgb(166,166,178)" stroke-miterlimit="1.45" transform="matrix(0.5292,0,0,0.5292,186.2796,254.5469)" stroke-linecap="butt" stroke="rgb(166,166,178)">
      <rect fill="none" width="162.26" x="-220.26" height="72.2969" y="79.1016"/>
    </g>
    <g font-family="sans-serif" transform="matrix(0.5292,0,0,0.5292,186.2796,254.5469)">
      <text xml:space="preserve" x="-214.26" y="74.2715" onclick="umlload('http://docs.oracle.com/javase/6/docs/api/java/io/package-summary.html')" stroke="none">java.io</text>
    </g>
    <g fill="rgb(204,204,255)" transform="matrix(0.5292,0,0,0.5292,186.2796,254.5469)" stroke="rgb(204,204,255)">
      <rect x="-212.26" y="87.1328" clip-path="url(#clipPath6)" width="101.97" height="23.1328" stroke="none"/>
    </g>
    <g fill="rgb(142,142,178)" stroke-miterlimit="1.45" transform="matrix(0.5292,0,0,0.5292,186.2796,254.5469)" stroke-linecap="butt" stroke="rgb(142,142,178)">
      <rect fill="none" width="101.97" x="-212.26" height="23.1328" y="87.1328"/>
    </g>
    <g font-size="13" font-weight="bold" font-family="sans-serif" transform="matrix(0.5292,0,0,0.5292,186.2796,254.5469)">
      <text xml:space="preserve" x="-206.775" y="103.1997" onclick="umlload('http://docs.oracle.com/javase/6/docs/api/java/io/InputStream.html')" stroke="none">InputStream</text>
    </g>
    <g fill="rgb(187,187,255)" transform="matrix(0.5292,0,0,0.5292,186.2796,254.5469)" stroke="rgb(187,187,255)">
      <rect x="-212.26" y="120.2656" clip-path="url(#clipPath7)" width="146.26" height="23.1328" stroke="none"/>
    </g>
    <g fill="rgb(130,130,178)" stroke-miterlimit="1.45" transform="matrix(0.5292,0,0,0.5292,186.2796,254.5469)" stroke-linecap="butt" stroke="rgb(130,130,178)">
      <rect fill="none" width="146.26" x="-212.26" height="23.1328" y="120.2656"/>
    </g>
    <g font-size="13" font-weight="bold" font-family="sans-serif" transform="matrix(0.5292,0,0,0.5292,186.2796,254.5469)">
      <text xml:space="preserve" x="-206.13" y="136.3325" onclick="umlload('http://docs.oracle.com/javase/6/docs/api/java/io/PipedInputStream.html')" stroke="none">PipedInputStream</text>
    </g>
    <g fill="rgb(238,238,255)" transform="matrix(0.5292,0,0,0.5292,186.2796,254.5469)" stroke="rgb(238,238,255)">
      <rect width="295.7475" x="-351.25" height="17.9688" y="-26" stroke="none"/>
    </g>
    <g fill="rgb(166,166,178)" stroke-miterlimit="1.45" transform="matrix(0.5292,0,0,0.5292,186.2796,254.5469)" stroke-linecap="butt" stroke="rgb(166,166,178)">
      <rect fill="none" width="295.7475" x="-351.25" height="17.9688" y="-26"/>
    </g>
    <g fill="rgb(238,238,255)" transform="matrix(0.5292,0,0,0.5292,186.2796,254.5469)" stroke="rgb(238,238,255)">
      <rect width="296.06" x="-351.25" height="39.1641" y="-8.0312" stroke="none"/>
    </g>
    <g fill="rgb(166,166,178)" stroke-miterlimit="1.45" transform="matrix(0.5292,0,0,0.5292,186.2796,254.5469)" stroke-linecap="butt" stroke="rgb(166,166,178)">
      <rect fill="none" width="296.06" x="-351.25" height="39.1641" y="-8.0312"/>
    </g>
    <g font-family="sans-serif" transform="matrix(0.5292,0,0,0.5292,186.2796,254.5469)">
      <text xml:space="preserve" x="-345.25" y="-12.8613" onclick="umlload('../../../../../../com/msopentech/odatajclient/engine/utils/package-summary.html')" stroke="none">com.msopentech.odatajclient.engine.utils</text>
    </g>
    <g fill="rgb(187,187,255)" transform="matrix(0.5292,0,0,0.5292,186.2796,254.5469)" stroke="rgb(187,187,255)">
      <rect x="-343.25" y="0" clip-path="url(#clipPath8)" width="105.06" height="23.1328" stroke="none"/>
    </g>
    <g fill="rgb(130,130,178)" stroke-miterlimit="1.45" transform="matrix(0.5292,0,0,0.5292,186.2796,254.5469)" stroke-linecap="butt" stroke="rgb(130,130,178)">
      <rect fill="none" width="105.06" x="-343.25" height="23.1328" y="0"/>
    </g>
    <g font-size="13" font-weight="bold" font-family="sans-serif" transform="matrix(0.5292,0,0,0.5292,186.2796,254.5469)">
      <text xml:space="preserve" x="-337.72" y="16.0669" onclick="umlload('../../../../../../com/msopentech/odatajclient/engine/utils/Wrapper.html')" stroke="none">Wrapper&lt;T&gt;</text>
    </g>
    <g fill="rgb(238,238,255)" transform="matrix(0.5292,0,0,0.5292,186.2796,254.5469)" stroke="rgb(238,238,255)">
      <rect width="425.1773" x="66.06" height="17.9688" y="-133.1328" stroke="none"/>
    </g>
    <g fill="rgb(166,166,178)" stroke-miterlimit="1.45" transform="matrix(0.5292,0,0,0.5292,186.2796,254.5469)" stroke-linecap="butt" stroke="rgb(166,166,178)">
      <rect fill="none" width="425.1773" x="66.06" height="17.9688" y="-133.1328"/>
    </g>
    <g fill="rgb(238,238,255)" transform="matrix(0.5292,0,0,0.5292,186.2796,254.5469)" stroke="rgb(238,238,255)">
      <rect width="425.66" x="66.06" height="39.1641" y="-115.1641" stroke="none"/>
    </g>
    <g fill="rgb(166,166,178)" stroke-miterlimit="1.45" transform="matrix(0.5292,0,0,0.5292,186.2796,254.5469)" stroke-linecap="butt" stroke="rgb(166,166,178)">
      <rect fill="none" width="425.66" x="66.06" height="39.1641" y="-115.1641"/>
    </g>
    <g font-family="sans-serif" transform="matrix(0.5292,0,0,0.5292,186.2796,254.5469)">
      <text xml:space="preserve" x="72.06" y="-119.9941" onclick="umlload('../../../../../../com/msopentech/odatajclient/engine/communication/request/package-summary.html')" stroke="none">com.msopentech.odatajclient.engine.communication.request</text>
    </g>
    <g fill="rgb(204,204,255)" transform="matrix(0.5292,0,0,0.5292,186.2796,254.5469)" stroke="rgb(204,204,255)">
      <rect x="208.06" y="-107.1328" clip-path="url(#clipPath9)" width="125.66" height="23.1328" stroke="none"/>
    </g>
    <g fill="rgb(142,142,178)" stroke-miterlimit="1.45" transform="matrix(0.5292,0,0,0.5292,186.2796,254.5469)" stroke-linecap="butt" stroke="rgb(142,142,178)">
      <rect fill="none" width="125.66" x="208.06" height="23.1328" y="-107.1328"/>
    </g>
    <g font-size="13" font-weight="bold" font-family="sans-serif" transform="matrix(0.5292,0,0,0.5292,186.2796,254.5469)">
      <text xml:space="preserve" x="213.89" y="-91.0659" onclick="umlload('../../../../../../com/msopentech/odatajclient/engine/communication/request/ODataStreamer.html')" stroke="none">ODataStreamer</text>
    </g>
    <g fill="rgb(238,238,255)" transform="matrix(0.5292,0,0,0.5292,186.2796,254.5469)" stroke="rgb(238,238,255)">
      <rect width="425.1773" x="-8" height="17.9688" y="-26" stroke="none"/>
    </g>
    <g fill="rgb(166,166,178)" stroke-miterlimit="1.45" transform="matrix(0.5292,0,0,0.5292,186.2796,254.5469)" stroke-linecap="butt" stroke="rgb(166,166,178)">
      <rect fill="none" width="425.1773" x="-8" height="17.9688" y="-26"/>
    </g>
    <g fill="rgb(238,238,255)" transform="matrix(0.5292,0,0,0.5292,186.2796,254.5469)" stroke="rgb(238,238,255)">
      <rect width="557.78" x="-8" height="273.7263" y="-8.0312" stroke="none"/>
    </g>
    <g fill="rgb(166,166,178)" stroke-miterlimit="1.45" transform="matrix(0.5292,0,0,0.5292,186.2796,254.5469)" stroke-linecap="butt" stroke="rgb(166,166,178)">
      <rect fill="none" width="557.78" x="-8" height="273.7263" y="-8.0312"/>
    </g>
    <g font-family="sans-serif" transform="matrix(0.5292,0,0,0.5292,186.2796,254.5469)">
      <text xml:space="preserve" x="-2" y="-12.8613" onclick="umlload('package-summary.html')" stroke="none">com.msopentech.odatajclient.engine.communication.request</text>
    </g>
    <g fill="rgb(204,204,255)" transform="matrix(0.5292,0,0,0.5292,186.2796,254.5469)" stroke="rgb(204,204,255)">
      <rect x="0" y="0" clip-path="url(#clipPath10)" width="541.78" height="38.5938" stroke="none"/>
      <line clip-path="url(#clipPath10)" fill="none" x1="0" x2="541.78" y1="38.5938" y2="38.5938" stroke="black"/>
      <line clip-path="url(#clipPath10)" x1="0" x2="541.78" y1="39.5938" y2="39.5938" stroke="none"/>
      <line clip-path="url(#clipPath10)" fill="none" x1="0" x2="541.78" y1="39.5938" y2="39.5938" stroke="black"/>
      <rect x="0" y="40.5938" clip-path="url(#clipPath10)" width="541.78" height="217.1013" stroke="none"/>
    </g>
    <g fill="rgb(142,142,178)" stroke-miterlimit="1.45" transform="matrix(0.5292,0,0,0.5292,186.2796,254.5469)" stroke-linecap="butt" stroke="rgb(142,142,178)">
      <rect fill="none" width="541.78" x="0" height="257.6951" y="0"/>
    </g>
    <g font-size="16" font-weight="bold" font-family="sans-serif" transform="matrix(0.5292,0,0,0.5292,186.2796,254.5469)">
      <text xml:space="preserve" x="41.39" y="16.8516" onclick="umlload('#')" stroke="none">ODataStreamManager&lt;T extends ODataResponse&gt;</text>
    </g>
    <g font-family="sans-serif" transform="matrix(0.5292,0,0,0.5292,186.2796,254.5469)">
      <text xml:space="preserve" x="468.78" y="33.7637" stroke="none">{abstract}</text>
    </g>
    <g font-family="sans-serif" transform="matrix(0.5292,0,0,0.5292,186.2796,254.5469)">
      <text xml:space="preserve" x="4" y="51.1719" stroke="none">+</text>
      <text xml:space="preserve" x="19" y="52.7324" stroke="none">ODataStreamManager(Wrapper&lt;Future&lt;HttpResponse&gt;&gt;)</text>
    </g>
    <g font-family="sans-serif" transform="matrix(0.5292,0,0,0.5292,186.2796,254.5469)">
      <text xml:space="preserve" x="4" y="67.1719" stroke="none">+</text>
      <text xml:space="preserve" x="19" y="68.7012" stroke="none">ODataStreamManager(Wrapper&lt;Future&lt;HttpResponse&gt;&gt;, InputStream)</text>
    </g>
    <g font-family="sans-serif" transform="matrix(0.5292,0,0,0.5292,186.2796,254.5469)">
      <text xml:space="preserve" x="4" y="83.1719" stroke="none">+</text>
      <text xml:space="preserve" x="19" y="84.6699" stroke="none">ODataStreamManager(Wrapper&lt;Future&lt;HttpResponse&gt;&gt;, PipedOutputStream)</text>
    </g>
    <g font-family="sans-serif" transform="matrix(0.5292,0,0,0.5292,186.2796,254.5469)">
      <text xml:space="preserve" x="4" y="99.1719" stroke="none">+</text>
      <text xml:space="preserve" x="19" y="100.6387" onclick="umlload('#finalizeBody()')" stroke="none">finalizeBody() : void</text>
    </g>
    <g font-family="sans-serif" transform="matrix(0.5292,0,0,0.5292,186.2796,254.5469)">
      <text xml:space="preserve" x="4" y="115.1719" stroke="none">+</text>
      <text xml:space="preserve" x="19" y="116.6074" onclick="umlload('#getAsyncResponse()')" stroke="none">getAsyncResponse() : Future&lt;T extends ODataResponse&gt;</text>
    </g>
    <g font-family="sans-serif" transform="matrix(0.5292,0,0,0.5292,186.2796,254.5469)">
      <text xml:space="preserve" x="4" y="131.1719" stroke="none">+</text>
      <text xml:space="preserve" x="19" y="132.5762" onclick="umlload('#getBody()')" stroke="none">getBody() : InputStream</text>
    </g>
    <g font-family="sans-serif" transform="matrix(0.5292,0,0,0.5292,186.2796,254.5469)">
      <text xml:space="preserve" x="4" y="147.1719" stroke="none">#</text>
      <text xml:space="preserve" x="19" y="148.5449" onclick="umlload('#getHttpResponse(long, java.util.concurrent.TimeUnit)')" stroke="none">getHttpResponse(long, TimeUnit) : HttpResponse</text>
    </g>
    <g font-family="sans-serif" transform="matrix(0.5292,0,0,0.5292,186.2796,254.5469)">
      <text xml:space="preserve" x="4" y="163.1719" stroke="none">+</text>
      <text xml:space="preserve" x="19" y="164.5137" onclick="umlload('#getResponse()')" stroke="none">getResponse() : T</text>
    </g>
    <g font-family="sans-serif" transform="matrix(0.5292,0,0,0.5292,186.2796,254.5469)">
      <text xml:space="preserve" x="4" y="179.1719" stroke="none">#</text>
      <text xml:space="preserve" x="19" y="180.4824" onclick="umlload('#getResponse(long, java.util.concurrent.TimeUnit)')" stroke="none">getResponse(long, TimeUnit) : T</text>
    </g>
    <g font-family="sans-serif" transform="matrix(0.5292,0,0,0.5292,186.2796,254.5469)">
      <text xml:space="preserve" x="-346" y="290.1543" onclick="umlload('http://www.yworks.com/')" stroke="none">yWorks UML Doclet</text>
    </g>
    <g stroke-miterlimit="1.45" transform="matrix(0.5292,0,0,0.5292,186.2796,254.5469)" stroke-linecap="butt">
      <path fill="none" d="M270.89 -0.0093 L270.89 -69"/>
      <path fill="white" d="M270.89 -84 L264.89 -68 L276.89 -68 Z" stroke="none"/>
      <path fill="none" d="M270.89 -84 L264.89 -68 L276.89 -68 Z"/>
      <path fill="none" d="M-0.0087 11.5664 L-238.19 11.5664"/>
      <line stroke-linecap="square" transform="matrix(-1,0,0,-1,-238.19,11.5664)" fill="none" x1="0" x2="-14" y1="0" y2="-4" stroke-miterlimit="10"/>
      <line stroke-linecap="square" transform="matrix(-1,0,0,-1,-238.19,11.5664)" fill="none" x1="0" x2="-14" y1="0" y2="4" stroke-miterlimit="10"/>
    </g>
    <g stroke-miterlimit="1.45" transform="matrix(0.5292,0,0,0.5292,186.2796,254.5469)" stroke-linecap="butt">
      <path fill="none" d="M0.0219 98.6992 L-110.29 98.6992"/>
      <line stroke-linecap="square" transform="matrix(-1,0,0,-1,-110.29,98.6992)" fill="none" x1="0" x2="-14" y1="0" y2="-4" stroke-miterlimit="10"/>
      <line stroke-linecap="square" transform="matrix(-1,0,0,-1,-110.29,98.6992)" fill="none" x1="0" x2="-14" y1="0" y2="4" stroke-miterlimit="10"/>
    </g>
    <g stroke-miterlimit="1.45" transform="matrix(0.5292,0,0,0.5292,186.2796,254.5469)" stroke-linecap="butt">
      <path fill="none" d="M-0.0125 131.832 L-66 131.832"/>
      <line stroke-linecap="square" transform="matrix(-1,0,0,-1,-66,131.832)" fill="none" x1="0" x2="-14" y1="0" y2="-4" stroke-miterlimit="10"/>
      <line stroke-linecap="square" transform="matrix(-1,0,0,-1,-66,131.832)" fill="none" x1="0" x2="-14" y1="0" y2="4" stroke-miterlimit="10"/>
    </g>
    <g stroke-dasharray="6,2" stroke-miterlimit="1.45" transform="matrix(0.5292,0,0,0.5292,186.2796,254.5469)" stroke-linecap="butt">
      <path fill="none" d="M541.7903 11.5664 L607.78 11.5664"/>
      <line stroke-linecap="square" transform="matrix(1,0,0,1,607.78,11.5664)" fill="none" x1="0" x2="-14" y1="0" y2="-4" stroke-dasharray="none" stroke-miterlimit="10"/>
      <line stroke-linecap="square" transform="matrix(1,0,0,1,607.78,11.5664)" fill="none" x1="0" x2="-14" y1="0" y2="4" stroke-dasharray="none" stroke-miterlimit="10"/>
    </g>
    <g stroke-dasharray="6,2" stroke-miterlimit="1.45" transform="matrix(0.5292,0,0,0.5292,186.2796,254.5469)" stroke-linecap="butt">
      <path fill="none" d="M541.8173 103.4902 L607.78 103.4902"/>
      <line stroke-linecap="square" transform="matrix(1,0,0,1,607.78,103.4902)" fill="none" x1="0" x2="-14" y1="0" y2="-4" stroke-dasharray="none" stroke-miterlimit="10"/>
      <line stroke-linecap="square" transform="matrix(1,0,0,1,607.78,103.4902)" fill="none" x1="0" x2="-14" y1="0" y2="4" stroke-dasharray="none" stroke-miterlimit="10"/>
    </g>
    <g stroke-dasharray="6,2" stroke-miterlimit="1.45" transform="matrix(0.5292,0,0,0.5292,186.2796,254.5469)" stroke-linecap="butt">
      <path fill="none" d="M541.7352 141.414 L607.78 141.414"/>
      <line stroke-linecap="square" transform="matrix(1,0,0,1,607.78,141.414)" fill="none" x1="0" x2="-14" y1="0" y2="-4" stroke-dasharray="none" stroke-miterlimit="10"/>
      <line stroke-linecap="square" transform="matrix(1,0,0,1,607.78,141.414)" fill="none" x1="0" x2="-14" y1="0" y2="4" stroke-dasharray="none" stroke-miterlimit="10"/>
    </g>
    <g stroke-dasharray="6,2" stroke-miterlimit="1.45" transform="matrix(0.5292,0,0,0.5292,186.2796,254.5469)" stroke-linecap="butt">
      <path fill="none" d="M541.7896 233.3377 L607.78 233.3377"/>
      <line stroke-linecap="square" transform="matrix(1,0,0,1,607.78,233.3377)" fill="none" x1="0" x2="-14" y1="0" y2="-4" stroke-dasharray="none" stroke-miterlimit="10"/>
      <line stroke-linecap="square" transform="matrix(1,0,0,1,607.78,233.3377)" fill="none" x1="0" x2="-14" y1="0" y2="4" stroke-dasharray="none" stroke-miterlimit="10"/>
    </g>
  </g>
</svg>
