<?xml version="1.0" encoding="UTF-8"?><svg xmlns="http://www.w3.org/2000/svg" xmlns:xlink="http://www.w3.org/1999/xlink" fill-opacity="1" color-rendering="auto" color-interpolation="auto" stroke="black" text-rendering="auto" stroke-linecap="square" width="598" stroke-miterlimit="10" stroke-opacity="1" shape-rendering="auto" fill="black" stroke-dasharray="none" font-weight="normal" stroke-width="1" height="598" font-family="'Dialog'" font-style="normal" stroke-linejoin="miter" font-size="12" stroke-dashoffset="0" image-rendering="auto">
  <!--Generated by ySVG-->
  <defs id="genericDefs"/>
  <g>
    <defs id="defs1">
      <clipPath clipPathUnits="userSpaceOnUse" id="clipPath1">
        <path d="M0 0 L598 0 L598 598 L0 598 L0 0 Z"/>
      </clipPath>
      <clipPath clipPathUnits="userSpaceOnUse" id="clipPath2">
        <path d="M858.5343 16.3574 C858.5343 25.3913 829.8393 32.7147 794.4421 32.7147 C759.045 32.7147 730.35 25.3913 730.35 16.3574 C730.35 7.3234 759.045 0 794.4421 0 C829.8393 0 858.5343 7.3234 858.5343 16.3574 Z"/>
      </clipPath>
      <clipPath clipPathUnits="userSpaceOnUse" id="clipPath3">
        <path d="M415.2035 -100.3574 C415.2035 -91.3234 378.0304 -84 332.175 -84 C286.3196 -84 249.1465 -91.3234 249.1465 -100.3574 C249.1465 -109.3913 286.3196 -116.7147 332.175 -116.7147 C378.0304 -116.7147 415.2035 -109.3913 415.2035 -100.3574 Z"/>
      </clipPath>
      <clipPath clipPathUnits="userSpaceOnUse" id="clipPath4">
        <path d="M0 0 L664.35 0 L664.35 104.4688 L0 104.4688 L0 0 Z"/>
      </clipPath>
      <script type="text/ecmascript"><![CDATA[
function umlload(newLocation)
{
if (newLocation.charAt(0) != '#') {
if (newLocation.indexOf("://") > -1) {
window.parent.location.href = newLocation;
} else {
var tmp = window.parent.location.href;
tmp = tmp.substring(0, tmp.lastIndexOf("/") + 1);
window.parent.location.href = tmp.concat(newLocation);
}
} else {
window.parent.location.hash = newLocation;
}
}
]]></script>
    </defs>
    <g fill="rgb(238,238,255)" transform="matrix(0.6811,0,0,0.6811,5.4487,296.9567)" stroke="rgb(238,238,255)">
      <rect width="145.0997" x="722.35" height="17.9688" y="-26" stroke="none"/>
    </g>
    <g fill="rgb(166,166,178)" stroke-miterlimit="1.45" transform="matrix(0.6811,0,0,0.6811,5.4487,296.9567)" stroke-linecap="butt" stroke="rgb(166,166,178)">
      <rect fill="none" width="145.0997" x="722.35" height="17.9688" y="-26"/>
    </g>
    <g fill="rgb(238,238,255)" transform="matrix(0.6811,0,0,0.6811,5.4487,296.9567)" stroke="rgb(238,238,255)">
      <rect width="147.1843" x="722.35" height="48.746" y="-8.0312" stroke="none"/>
    </g>
    <g fill="rgb(166,166,178)" stroke-miterlimit="1.45" transform="matrix(0.6811,0,0,0.6811,5.4487,296.9567)" stroke-linecap="butt" stroke="rgb(166,166,178)">
      <rect fill="none" width="147.1843" x="722.35" height="48.746" y="-8.0312"/>
    </g>
    <g font-family="sans-serif" transform="matrix(0.6811,0,0,0.6811,5.4487,296.9567)">
      <text xml:space="preserve" x="728.35" y="-12.8613" onclick="umlload('http://docs.oracle.com/javase/6/docs/api/java/util/concurrent/package-summary.html')" stroke="none">java.util.concurrent</text>
    </g>
    <g fill="rgb(221,221,255)" transform="matrix(0.6811,0,0,0.6811,5.4487,296.9567)" stroke="rgb(221,221,255)">
      <rect x="730.35" y="0" clip-path="url(#clipPath2)" width="128.1843" height="32.7147" stroke="none"/>
    </g>
    <g fill="rgb(154,154,178)" stroke-miterlimit="1.45" transform="matrix(0.6811,0,0,0.6811,5.4487,296.9567)" stroke-linecap="butt" stroke="rgb(154,154,178)">
      <ellipse rx="64.0922" fill="none" ry="16.3574" cx="794.4422" cy="16.3574"/>
    </g>
    <g font-style="italic" font-size="13" font-weight="bold" font-family="sans-serif" transform="matrix(0.6811,0,0,0.6811,5.4487,296.9567)">
      <text xml:space="preserve" x="754.4421" y="20.8579" onclick="umlload('http://docs.oracle.com/javase/6/docs/api/java/util/concurrent/Future.html')" stroke="none">Future&lt;V&gt;</text>
    </g>
    <g fill="rgb(238,238,255)" transform="matrix(0.6811,0,0,0.6811,5.4487,296.9567)" stroke="rgb(238,238,255)">
      <rect width="425.1773" x="128.1465" height="17.9688" y="-142.7147" stroke="none"/>
    </g>
    <g fill="rgb(166,166,178)" stroke-miterlimit="1.45" transform="matrix(0.6811,0,0,0.6811,5.4487,296.9567)" stroke-linecap="butt" stroke="rgb(166,166,178)">
      <rect fill="none" width="425.1773" x="128.1465" height="17.9688" y="-142.7147"/>
    </g>
    <g fill="rgb(238,238,255)" transform="matrix(0.6811,0,0,0.6811,5.4487,296.9567)" stroke="rgb(238,238,255)">
      <rect width="425.1773" x="128.1465" height="48.746" y="-124.746" stroke="none"/>
    </g>
    <g fill="rgb(166,166,178)" stroke-miterlimit="1.45" transform="matrix(0.6811,0,0,0.6811,5.4487,296.9567)" stroke-linecap="butt" stroke="rgb(166,166,178)">
      <rect fill="none" width="425.1773" x="128.1465" height="48.746" y="-124.746"/>
    </g>
    <g font-family="sans-serif" transform="matrix(0.6811,0,0,0.6811,5.4487,296.9567)">
      <text xml:space="preserve" x="134.1465" y="-129.5761" onclick="umlload('../../../../../../com/msopentech/odatajclient/engine/communication/request/package-summary.html')" stroke="none">com.msopentech.odatajclient.engine.communication.request</text>
    </g>
    <g fill="rgb(221,221,255)" transform="matrix(0.6811,0,0,0.6811,5.4487,296.9567)" stroke="rgb(221,221,255)">
      <rect x="249.1465" y="-116.7147" clip-path="url(#clipPath3)" width="166.057" height="32.7147" stroke="none"/>
    </g>
    <g fill="rgb(154,154,178)" stroke-miterlimit="1.45" transform="matrix(0.6811,0,0,0.6811,5.4487,296.9567)" stroke-linecap="butt" stroke="rgb(154,154,178)">
      <ellipse rx="83.0285" fill="none" ry="16.3574" cx="332.175" cy="-100.3574"/>
    </g>
    <g font-style="italic" font-size="13" font-weight="bold" font-family="sans-serif" transform="matrix(0.6811,0,0,0.6811,5.4487,296.9567)">
      <text xml:space="preserve" x="279.175" y="-95.8569" onclick="umlload('../../../../../../com/msopentech/odatajclient/engine/communication/request/ODataRequest.html')" stroke="none">ODataRequest</text>
    </g>
    <g fill="rgb(238,238,255)" transform="matrix(0.6811,0,0,0.6811,5.4487,296.9567)" stroke="rgb(238,238,255)">
      <rect width="425.1773" x="-8" height="17.9688" y="-26" stroke="none"/>
    </g>
    <g fill="rgb(166,166,178)" stroke-miterlimit="1.45" transform="matrix(0.6811,0,0,0.6811,5.4487,296.9567)" stroke-linecap="butt" stroke="rgb(166,166,178)">
      <rect fill="none" width="425.1773" x="-8" height="17.9688" y="-26"/>
    </g>
    <g fill="rgb(238,238,255)" transform="matrix(0.6811,0,0,0.6811,5.4487,296.9567)" stroke="rgb(238,238,255)">
      <rect width="680.35" x="-8" height="120.5" y="-8.0312" stroke="none"/>
    </g>
    <g fill="rgb(166,166,178)" stroke-miterlimit="1.45" transform="matrix(0.6811,0,0,0.6811,5.4487,296.9567)" stroke-linecap="butt" stroke="rgb(166,166,178)">
      <rect fill="none" width="680.35" x="-8" height="120.5" y="-8.0312"/>
    </g>
    <g font-family="sans-serif" transform="matrix(0.6811,0,0,0.6811,5.4487,296.9567)">
      <text xml:space="preserve" x="-2" y="-12.8613" onclick="umlload('package-summary.html')" stroke="none">com.msopentech.odatajclient.engine.communication.request</text>
    </g>
    <g fill="rgb(221,221,255)" transform="matrix(0.6811,0,0,0.6811,5.4487,296.9567)" stroke="rgb(221,221,255)">
      <rect x="0" y="0" clip-path="url(#clipPath4)" width="664.35" height="38.5938" stroke="none"/>
      <line clip-path="url(#clipPath4)" fill="none" x1="0" x2="664.35" y1="38.5938" y2="38.5938" stroke="black"/>
      <line clip-path="url(#clipPath4)" x1="0" x2="664.35" y1="39.5938" y2="39.5938" stroke="none"/>
      <line clip-path="url(#clipPath4)" fill="none" x1="0" x2="664.35" y1="39.5938" y2="39.5938" stroke="black"/>
      <rect x="0" y="40.5938" clip-path="url(#clipPath4)" width="664.35" height="63.875" stroke="none"/>
    </g>
    <g fill="rgb(154,154,178)" stroke-miterlimit="1.45" transform="matrix(0.6811,0,0,0.6811,5.4487,296.9567)" stroke-linecap="butt" stroke="rgb(154,154,178)">
      <rect fill="none" width="664.35" x="0" height="104.4688" y="0"/>
    </g>
    <g font-style="italic" font-size="16" font-weight="bold" font-family="sans-serif" transform="matrix(0.6811,0,0,0.6811,5.4487,296.9567)">
      <text xml:space="preserve" x="13.675" y="32.8203" onclick="umlload('#')" stroke="none">ODataBasicRequest&lt;V extends ODataResponse, T extends Enum&lt;T&gt;&gt;</text>
    </g>
    <g font-family="sans-serif" transform="matrix(0.6811,0,0,0.6811,5.4487,296.9567)">
      <text xml:space="preserve" x="297.175" y="13.1387" stroke="none">«interface»</text>
    </g>
    <g font-family="sans-serif" transform="matrix(0.6811,0,0,0.6811,5.4487,296.9567)">
      <text xml:space="preserve" x="4" y="51.1719" stroke="none">+</text>
      <text xml:space="preserve" x="19" y="52.7324" onclick="umlload('#asyncExecute()')" stroke="none">asyncExecute() : Future&lt;V extends ODataResponse&gt;</text>
    </g>
    <g font-family="sans-serif" transform="matrix(0.6811,0,0,0.6811,5.4487,296.9567)">
      <text xml:space="preserve" x="4" y="67.1719" stroke="none">+</text>
      <text xml:space="preserve" x="19" y="68.7012" onclick="umlload('#execute()')" stroke="none">execute() : V</text>
    </g>
    <g font-family="sans-serif" transform="matrix(0.6811,0,0,0.6811,5.4487,296.9567)">
      <text xml:space="preserve" x="4" y="83.1719" stroke="none">+</text>
      <text xml:space="preserve" x="19" y="84.6699" onclick="umlload('#getFormat()')" stroke="none">getFormat() : T</text>
    </g>
    <g font-family="sans-serif" transform="matrix(0.6811,0,0,0.6811,5.4487,296.9567)">
      <text xml:space="preserve" x="4" y="99.1719" stroke="none">+</text>
      <text xml:space="preserve" x="19" y="100.6387" onclick="umlload('#setFormat(T)')" stroke="none">setFormat(T) : void</text>
    </g>
    <g font-family="sans-serif" transform="matrix(0.6811,0,0,0.6811,5.4487,296.9567)">
      <text xml:space="preserve" x="-2" y="137.1543" onclick="umlload('http://www.yworks.com/')" stroke="none">yWorks UML Doclet</text>
    </g>
    <g stroke-miterlimit="1.45" transform="matrix(0.6811,0,0,0.6811,5.4487,296.9567)" stroke-linecap="butt">
      <path fill="none" d="M332.175 0 L332.175 -69"/>
      <path fill="white" d="M332.175 -84 L326.175 -68 L338.175 -68 Z" stroke="none"/>
      <path fill="none" d="M332.175 -84 L326.175 -68 L338.175 -68 Z"/>
      <path fill="none" stroke-dasharray="6,2" d="M664.3448 16.3574 L730.35 16.3574"/>
      <line stroke-linecap="square" transform="matrix(1,0,0,1,730.35,16.3574)" fill="none" x1="0" x2="-14" y1="0" y2="-4" stroke-miterlimit="10"/>
      <line stroke-linecap="square" transform="matrix(1,0,0,1,730.35,16.3574)" fill="none" x1="0" x2="-14" y1="0" y2="4" stroke-miterlimit="10"/>
    </g>
  </g>
</svg>
