<?xml version="1.0" encoding="UTF-8"?><svg xmlns="http://www.w3.org/2000/svg" xmlns:xlink="http://www.w3.org/1999/xlink" fill-opacity="1" color-rendering="auto" color-interpolation="auto" stroke="black" text-rendering="auto" stroke-linecap="square" width="598" stroke-miterlimit="10" stroke-opacity="1" shape-rendering="auto" fill="black" stroke-dasharray="none" font-weight="normal" stroke-width="1" height="598" font-family="'Dialog'" font-style="normal" stroke-linejoin="miter" font-size="12" stroke-dashoffset="0" image-rendering="auto">
  <!--Generated by ySVG-->
  <defs id="genericDefs"/>
  <g>
    <defs id="defs1">
      <clipPath clipPathUnits="userSpaceOnUse" id="clipPath1">
        <path d="M0 0 L598 0 L598 598 L0 598 L0 0 Z"/>
      </clipPath>
      <clipPath clipPathUnits="userSpaceOnUse" id="clipPath2">
        <path d="M890.4643 452.0214 C890.4643 461.0554 861.7693 468.3788 826.3721 468.3788 C790.975 468.3788 762.28 461.0554 762.28 452.0214 C762.28 442.9875 790.975 435.6641 826.3721 435.6641 C861.7693 435.6641 890.4643 442.9875 890.4643 452.0214 Z"/>
      </clipPath>
      <clipPath clipPathUnits="userSpaceOnUse" id="clipPath3">
        <path d="M762.28 348.5312 L795.24 348.5312 L795.24 371.6641 L762.28 371.6641 L762.28 348.5312 Z"/>
      </clipPath>
      <clipPath clipPathUnits="userSpaceOnUse" id="clipPath4">
        <path d="M762.28 261.3984 L815.84 261.3984 L815.84 284.5312 L762.28 284.5312 L762.28 261.3984 Z"/>
      </clipPath>
      <clipPath clipPathUnits="userSpaceOnUse" id="clipPath5">
        <path d="M762.28 174.2656 L864.25 174.2656 L864.25 197.3984 L762.28 197.3984 L762.28 174.2656 Z"/>
      </clipPath>
      <clipPath clipPathUnits="userSpaceOnUse" id="clipPath6">
        <path d="M762.28 87.1328 L923.99 87.1328 L923.99 110.2656 L762.28 110.2656 L762.28 87.1328 Z"/>
      </clipPath>
      <clipPath clipPathUnits="userSpaceOnUse" id="clipPath7">
        <path d="M762.28 0 L862.19 0 L862.19 23.1328 L762.28 23.1328 L762.28 0 Z"/>
      </clipPath>
      <clipPath clipPathUnits="userSpaceOnUse" id="clipPath8">
        <path d="M-145.31 0 L-66 0 L-66 23.1328 L-145.31 23.1328 L-145.31 0 Z"/>
      </clipPath>
      <clipPath clipPathUnits="userSpaceOnUse" id="clipPath9">
        <path d="M1361.1576 -100.3574 C1361.1576 -91.3234 1188.6613 -84 975.8763 -84 C763.0913 -84 590.595 -91.3234 590.595 -100.3574 C590.595 -109.3913 763.0913 -116.7147 975.8763 -116.7147 C1188.6613 -116.7147 1361.1576 -109.3913 1361.1576 -100.3574 Z"/>
      </clipPath>
      <clipPath clipPathUnits="userSpaceOnUse" id="clipPath10">
        <path d="M272.435 -107.1328 L423.845 -107.1328 L423.845 -84 L272.435 -84 L272.435 -107.1328 Z"/>
      </clipPath>
      <clipPath clipPathUnits="userSpaceOnUse" id="clipPath11">
        <path d="M0 0 L696.28 0 L696.28 476.3788 L0 476.3788 L0 0 Z"/>
      </clipPath>
      <script type="text/ecmascript"><![CDATA[
function umlload(newLocation)
{
if (newLocation.charAt(0) != '#') {
if (newLocation.indexOf("://") > -1) {
window.parent.location.href = newLocation;
} else {
var tmp = window.parent.location.href;
tmp = tmp.substring(0, tmp.lastIndexOf("/") + 1);
window.parent.location.href = tmp.concat(newLocation);
}
} else {
window.parent.location.hash = newLocation;
}
}
]]></script>
    </defs>
    <g fill="rgb(238,238,255)" transform="matrix(0.3924,0,0,0.3924,60.4278,224.8386)" stroke="rgb(238,238,255)">
      <rect width="145.0997" x="754.28" height="17.9688" y="409.6641" stroke="none"/>
    </g>
    <g fill="rgb(166,166,178)" stroke-miterlimit="1.45" transform="matrix(0.3924,0,0,0.3924,60.4278,224.8386)" stroke-linecap="butt" stroke="rgb(166,166,178)">
      <rect fill="none" width="145.0997" x="754.28" height="17.9688" y="409.6641"/>
    </g>
    <g fill="rgb(238,238,255)" transform="matrix(0.3924,0,0,0.3924,60.4278,224.8386)" stroke="rgb(238,238,255)">
      <rect width="147.1843" x="754.28" height="48.746" y="427.6328" stroke="none"/>
    </g>
    <g fill="rgb(166,166,178)" stroke-miterlimit="1.45" transform="matrix(0.3924,0,0,0.3924,60.4278,224.8386)" stroke-linecap="butt" stroke="rgb(166,166,178)">
      <rect fill="none" width="147.1843" x="754.28" height="48.746" y="427.6328"/>
    </g>
    <g font-family="sans-serif" transform="matrix(0.3924,0,0,0.3924,60.4278,224.8386)">
      <text xml:space="preserve" x="760.28" y="422.8027" onclick="umlload('http://docs.oracle.com/javase/6/docs/api/java/util/concurrent/package-summary.html')" stroke="none">java.util.concurrent</text>
    </g>
    <g fill="rgb(221,221,255)" transform="matrix(0.3924,0,0,0.3924,60.4278,224.8386)" stroke="rgb(221,221,255)">
      <rect x="762.28" y="435.6641" clip-path="url(#clipPath2)" width="128.1843" height="32.7147" stroke="none"/>
    </g>
    <g fill="rgb(154,154,178)" stroke-miterlimit="1.45" transform="matrix(0.3924,0,0,0.3924,60.4278,224.8386)" stroke-linecap="butt" stroke="rgb(154,154,178)">
      <ellipse rx="64.0922" fill="none" ry="16.3574" cx="826.3722" cy="452.0214"/>
    </g>
    <g font-style="italic" font-size="13" font-weight="bold" font-family="sans-serif" transform="matrix(0.3924,0,0,0.3924,60.4278,224.8386)">
      <text xml:space="preserve" x="786.3721" y="456.5219" onclick="umlload('http://docs.oracle.com/javase/6/docs/api/java/util/concurrent/Future.html')" stroke="none">Future&lt;V&gt;</text>
    </g>
    <g fill="rgb(238,238,255)" transform="matrix(0.3924,0,0,0.3924,60.4278,224.8386)" stroke="rgb(238,238,255)">
      <rect width="69.7758" x="754.28" height="17.9688" y="322.5312" stroke="none"/>
    </g>
    <g fill="rgb(166,166,178)" stroke-miterlimit="1.45" transform="matrix(0.3924,0,0,0.3924,60.4278,224.8386)" stroke-linecap="butt" stroke="rgb(166,166,178)">
      <rect fill="none" width="69.7758" x="754.28" height="17.9688" y="322.5312"/>
    </g>
    <g fill="rgb(238,238,255)" transform="matrix(0.3924,0,0,0.3924,60.4278,224.8386)" stroke="rgb(238,238,255)">
      <rect width="73.96" x="754.28" height="39.1641" y="340.5" stroke="none"/>
    </g>
    <g fill="rgb(166,166,178)" stroke-miterlimit="1.45" transform="matrix(0.3924,0,0,0.3924,60.4278,224.8386)" stroke-linecap="butt" stroke="rgb(166,166,178)">
      <rect fill="none" width="73.96" x="754.28" height="39.1641" y="340.5"/>
    </g>
    <g font-family="sans-serif" transform="matrix(0.3924,0,0,0.3924,60.4278,224.8386)">
      <text xml:space="preserve" x="760.28" y="335.6699" onclick="umlload('http://docs.oracle.com/javase/6/docs/api/java/net/package-summary.html')" stroke="none">java.net</text>
    </g>
    <g fill="rgb(187,187,255)" transform="matrix(0.3924,0,0,0.3924,60.4278,224.8386)" stroke="rgb(187,187,255)">
      <rect x="762.28" y="348.5312" clip-path="url(#clipPath3)" width="32.96" height="23.1328" stroke="none"/>
    </g>
    <g fill="rgb(130,130,178)" stroke-miterlimit="1.45" transform="matrix(0.3924,0,0,0.3924,60.4278,224.8386)" stroke-linecap="butt" stroke="rgb(130,130,178)">
      <rect fill="none" width="32.96" x="762.28" height="23.1328" y="348.5312"/>
    </g>
    <g font-size="13" font-weight="bold" font-family="sans-serif" transform="matrix(0.3924,0,0,0.3924,60.4278,224.8386)">
      <text xml:space="preserve" x="766.76" y="364.5981" onclick="umlload('http://docs.oracle.com/javase/6/docs/api/java/net/URI.html')" stroke="none">URI</text>
    </g>
    <g fill="rgb(238,238,255)" transform="matrix(0.3924,0,0,0.3924,60.4278,224.8386)" stroke="rgb(238,238,255)">
      <rect width="76.1412" x="754.28" height="17.9688" y="235.3984" stroke="none"/>
    </g>
    <g fill="rgb(166,166,178)" stroke-miterlimit="1.45" transform="matrix(0.3924,0,0,0.3924,60.4278,224.8386)" stroke-linecap="butt" stroke="rgb(166,166,178)">
      <rect fill="none" width="76.1412" x="754.28" height="17.9688" y="235.3984"/>
    </g>
    <g fill="rgb(238,238,255)" transform="matrix(0.3924,0,0,0.3924,60.4278,224.8386)" stroke="rgb(238,238,255)">
      <rect width="79.56" x="754.28" height="39.1641" y="253.3672" stroke="none"/>
    </g>
    <g fill="rgb(166,166,178)" stroke-miterlimit="1.45" transform="matrix(0.3924,0,0,0.3924,60.4278,224.8386)" stroke-linecap="butt" stroke="rgb(166,166,178)">
      <rect fill="none" width="79.56" x="754.28" height="39.1641" y="253.3672"/>
    </g>
    <g font-family="sans-serif" transform="matrix(0.3924,0,0,0.3924,60.4278,224.8386)">
      <text xml:space="preserve" x="760.28" y="248.5371" onclick="umlload('http://docs.oracle.com/javase/6/docs/api/java/lang/package-summary.html')" stroke="none">java.lang</text>
    </g>
    <g fill="rgb(187,187,255)" transform="matrix(0.3924,0,0,0.3924,60.4278,224.8386)" stroke="rgb(187,187,255)">
      <rect x="762.28" y="261.3984" clip-path="url(#clipPath4)" width="53.56" height="23.1328" stroke="none"/>
    </g>
    <g fill="rgb(130,130,178)" stroke-miterlimit="1.45" transform="matrix(0.3924,0,0,0.3924,60.4278,224.8386)" stroke-linecap="butt" stroke="rgb(130,130,178)">
      <rect fill="none" width="53.56" x="762.28" height="23.1328" y="261.3984"/>
    </g>
    <g font-size="13" font-weight="bold" font-family="sans-serif" transform="matrix(0.3924,0,0,0.3924,60.4278,224.8386)">
      <text xml:space="preserve" x="767.06" y="277.4653" onclick="umlload('http://docs.oracle.com/javase/6/docs/api/java/lang/String.html')" stroke="none">String</text>
    </g>
    <g fill="rgb(238,238,255)" transform="matrix(0.3924,0,0,0.3924,60.4278,224.8386)" stroke="rgb(238,238,255)">
      <rect width="59.1668" x="754.28" height="17.9688" y="148.2656" stroke="none"/>
    </g>
    <g fill="rgb(166,166,178)" stroke-miterlimit="1.45" transform="matrix(0.3924,0,0,0.3924,60.4278,224.8386)" stroke-linecap="butt" stroke="rgb(166,166,178)">
      <rect fill="none" width="59.1668" x="754.28" height="17.9688" y="148.2656"/>
    </g>
    <g fill="rgb(238,238,255)" transform="matrix(0.3924,0,0,0.3924,60.4278,224.8386)" stroke="rgb(238,238,255)">
      <rect width="117.97" x="754.28" height="39.1641" y="166.2344" stroke="none"/>
    </g>
    <g fill="rgb(166,166,178)" stroke-miterlimit="1.45" transform="matrix(0.3924,0,0,0.3924,60.4278,224.8386)" stroke-linecap="butt" stroke="rgb(166,166,178)">
      <rect fill="none" width="117.97" x="754.28" height="39.1641" y="166.2344"/>
    </g>
    <g font-family="sans-serif" transform="matrix(0.3924,0,0,0.3924,60.4278,224.8386)">
      <text xml:space="preserve" x="760.28" y="161.4043" onclick="umlload('http://docs.oracle.com/javase/6/docs/api/java/io/package-summary.html')" stroke="none">java.io</text>
    </g>
    <g fill="rgb(204,204,255)" transform="matrix(0.3924,0,0,0.3924,60.4278,224.8386)" stroke="rgb(204,204,255)">
      <rect x="762.28" y="174.2656" clip-path="url(#clipPath5)" width="101.97" height="23.1328" stroke="none"/>
    </g>
    <g fill="rgb(142,142,178)" stroke-miterlimit="1.45" transform="matrix(0.3924,0,0,0.3924,60.4278,224.8386)" stroke-linecap="butt" stroke="rgb(142,142,178)">
      <rect fill="none" width="101.97" x="762.28" height="23.1328" y="174.2656"/>
    </g>
    <g font-size="13" font-weight="bold" font-family="sans-serif" transform="matrix(0.3924,0,0,0.3924,60.4278,224.8386)">
      <text xml:space="preserve" x="767.765" y="190.3325" onclick="umlload('http://docs.oracle.com/javase/6/docs/api/java/io/InputStream.html')" stroke="none">InputStream</text>
    </g>
    <g fill="rgb(238,238,255)" transform="matrix(0.3924,0,0,0.3924,60.4278,224.8386)" stroke="rgb(238,238,255)">
      <rect width="467.6133" x="754.28" height="17.9688" y="61.1328" stroke="none"/>
    </g>
    <g fill="rgb(166,166,178)" stroke-miterlimit="1.45" transform="matrix(0.3924,0,0,0.3924,60.4278,224.8386)" stroke-linecap="butt" stroke="rgb(166,166,178)">
      <rect fill="none" width="467.6133" x="754.28" height="17.9688" y="61.1328"/>
    </g>
    <g fill="rgb(238,238,255)" transform="matrix(0.3924,0,0,0.3924,60.4278,224.8386)" stroke="rgb(238,238,255)">
      <rect width="467.71" x="754.28" height="39.1641" y="79.1016" stroke="none"/>
    </g>
    <g fill="rgb(166,166,178)" stroke-miterlimit="1.45" transform="matrix(0.3924,0,0,0.3924,60.4278,224.8386)" stroke-linecap="butt" stroke="rgb(166,166,178)">
      <rect fill="none" width="467.71" x="754.28" height="39.1641" y="79.1016"/>
    </g>
    <g font-family="sans-serif" transform="matrix(0.3924,0,0,0.3924,60.4278,224.8386)">
      <text xml:space="preserve" x="760.28" y="74.2715" onclick="umlload('../../../../../../com/msopentech/odatajclient/engine/communication/request/batch/package-summary.html')" stroke="none">com.msopentech.odatajclient.engine.communication.request.batch</text>
    </g>
    <g fill="rgb(187,187,255)" transform="matrix(0.3924,0,0,0.3924,60.4278,224.8386)" stroke="rgb(187,187,255)">
      <rect x="762.28" y="87.1328" clip-path="url(#clipPath6)" width="161.71" height="23.1328" stroke="none"/>
    </g>
    <g fill="rgb(130,130,178)" stroke-miterlimit="1.45" transform="matrix(0.3924,0,0,0.3924,60.4278,224.8386)" stroke-linecap="butt" stroke="rgb(130,130,178)">
      <rect fill="none" width="161.71" x="762.28" height="23.1328" y="87.1328"/>
    </g>
    <g font-size="13" font-weight="bold" font-family="sans-serif" transform="matrix(0.3924,0,0,0.3924,60.4278,224.8386)">
      <text xml:space="preserve" x="768.635" y="103.1997" onclick="umlload('../../../../../../com/msopentech/odatajclient/engine/communication/request/batch/ODataBatchRequest.html')" stroke="none">ODataBatchRequest</text>
    </g>
    <g fill="rgb(238,238,255)" transform="matrix(0.3924,0,0,0.3924,60.4278,224.8386)" stroke="rgb(238,238,255)">
      <rect width="336.0617" x="754.28" height="17.9688" y="-26" stroke="none"/>
    </g>
    <g fill="rgb(166,166,178)" stroke-miterlimit="1.45" transform="matrix(0.3924,0,0,0.3924,60.4278,224.8386)" stroke-linecap="butt" stroke="rgb(166,166,178)">
      <rect fill="none" width="336.0617" x="754.28" height="17.9688" y="-26"/>
    </g>
    <g fill="rgb(238,238,255)" transform="matrix(0.3924,0,0,0.3924,60.4278,224.8386)" stroke="rgb(238,238,255)">
      <rect width="336.0617" x="754.28" height="39.1641" y="-8.0312" stroke="none"/>
    </g>
    <g fill="rgb(166,166,178)" stroke-miterlimit="1.45" transform="matrix(0.3924,0,0,0.3924,60.4278,224.8386)" stroke-linecap="butt" stroke="rgb(166,166,178)">
      <rect fill="none" width="336.0617" x="754.28" height="39.1641" y="-8.0312"/>
    </g>
    <g font-family="sans-serif" transform="matrix(0.3924,0,0,0.3924,60.4278,224.8386)">
      <text xml:space="preserve" x="760.28" y="-12.8613" onclick="umlload('../../../../../../com/msopentech/odatajclient/engine/client/http/package-summary.html')" stroke="none">com.msopentech.odatajclient.engine.client.http</text>
    </g>
    <g fill="rgb(170,170,255)" transform="matrix(0.3924,0,0,0.3924,60.4278,224.8386)" stroke="rgb(170,170,255)">
      <rect x="762.28" y="0" clip-path="url(#clipPath7)" width="99.91" height="23.1328" stroke="none"/>
    </g>
    <g fill="rgb(118,118,178)" stroke-miterlimit="1.45" transform="matrix(0.3924,0,0,0.3924,60.4278,224.8386)" stroke-linecap="butt" stroke="rgb(118,118,178)">
      <rect fill="none" width="99.91" x="762.28" height="23.1328" y="0"/>
    </g>
    <g font-size="13" font-weight="bold" font-family="sans-serif" transform="matrix(0.3924,0,0,0.3924,60.4278,224.8386)">
      <text xml:space="preserve" x="767.735" y="16.0669" onclick="umlload('../../../../../../com/msopentech/odatajclient/engine/client/http/HttpMethod.html')" stroke="none">HttpMethod</text>
    </g>
    <g fill="rgb(238,238,255)" transform="matrix(0.3924,0,0,0.3924,60.4278,224.8386)" stroke="rgb(238,238,255)">
      <rect width="76.1412" x="-153.31" height="17.9688" y="-26" stroke="none"/>
    </g>
    <g fill="rgb(166,166,178)" stroke-miterlimit="1.45" transform="matrix(0.3924,0,0,0.3924,60.4278,224.8386)" stroke-linecap="butt" stroke="rgb(166,166,178)">
      <rect fill="none" width="76.1412" x="-153.31" height="17.9688" y="-26"/>
    </g>
    <g fill="rgb(238,238,255)" transform="matrix(0.3924,0,0,0.3924,60.4278,224.8386)" stroke="rgb(238,238,255)">
      <rect width="95.31" x="-153.31" height="39.1641" y="-8.0312" stroke="none"/>
    </g>
    <g fill="rgb(166,166,178)" stroke-miterlimit="1.45" transform="matrix(0.3924,0,0,0.3924,60.4278,224.8386)" stroke-linecap="butt" stroke="rgb(166,166,178)">
      <rect fill="none" width="95.31" x="-153.31" height="39.1641" y="-8.0312"/>
    </g>
    <g font-family="sans-serif" transform="matrix(0.3924,0,0,0.3924,60.4278,224.8386)">
      <text xml:space="preserve" x="-147.31" y="-12.8613" onclick="umlload('http://docs.oracle.com/javase/6/docs/api/java/lang/package-summary.html')" stroke="none">java.lang</text>
    </g>
    <g fill="rgb(187,187,255)" transform="matrix(0.3924,0,0,0.3924,60.4278,224.8386)" stroke="rgb(187,187,255)">
      <rect x="-145.31" y="0" clip-path="url(#clipPath8)" width="79.31" height="23.1328" stroke="none"/>
    </g>
    <g fill="rgb(130,130,178)" stroke-miterlimit="1.45" transform="matrix(0.3924,0,0,0.3924,60.4278,224.8386)" stroke-linecap="butt" stroke="rgb(130,130,178)">
      <rect fill="none" width="79.31" x="-145.31" height="23.1328" y="0"/>
    </g>
    <g font-size="13" font-weight="bold" font-family="sans-serif" transform="matrix(0.3924,0,0,0.3924,60.4278,224.8386)">
      <text xml:space="preserve" x="-140.155" y="16.0669" onclick="umlload('http://docs.oracle.com/javase/6/docs/api/java/lang/Class.html')" stroke="none">Class&lt;T&gt;</text>
    </g>
    <g fill="rgb(238,238,255)" transform="matrix(0.3924,0,0,0.3924,60.4278,224.8386)" stroke="rgb(238,238,255)">
      <rect width="425.1773" x="582.595" height="17.9688" y="-142.7147" stroke="none"/>
    </g>
    <g fill="rgb(166,166,178)" stroke-miterlimit="1.45" transform="matrix(0.3924,0,0,0.3924,60.4278,224.8386)" stroke-linecap="butt" stroke="rgb(166,166,178)">
      <rect fill="none" width="425.1773" x="582.595" height="17.9688" y="-142.7147"/>
    </g>
    <g fill="rgb(238,238,255)" transform="matrix(0.3924,0,0,0.3924,60.4278,224.8386)" stroke="rgb(238,238,255)">
      <rect width="786.5625" x="582.595" height="48.746" y="-124.746" stroke="none"/>
    </g>
    <g fill="rgb(166,166,178)" stroke-miterlimit="1.45" transform="matrix(0.3924,0,0,0.3924,60.4278,224.8386)" stroke-linecap="butt" stroke="rgb(166,166,178)">
      <rect fill="none" width="786.5625" x="582.595" height="48.746" y="-124.746"/>
    </g>
    <g font-family="sans-serif" transform="matrix(0.3924,0,0,0.3924,60.4278,224.8386)">
      <text xml:space="preserve" x="588.595" y="-129.5761" onclick="umlload('../../../../../../com/msopentech/odatajclient/engine/communication/request/package-summary.html')" stroke="none">com.msopentech.odatajclient.engine.communication.request</text>
    </g>
    <g fill="rgb(221,221,255)" transform="matrix(0.3924,0,0,0.3924,60.4278,224.8386)" stroke="rgb(221,221,255)">
      <rect x="590.595" y="-116.7147" clip-path="url(#clipPath9)" width="770.5625" height="32.7147" stroke="none"/>
    </g>
    <g fill="rgb(154,154,178)" stroke-miterlimit="1.45" transform="matrix(0.3924,0,0,0.3924,60.4278,224.8386)" stroke-linecap="butt" stroke="rgb(154,154,178)">
      <ellipse rx="385.2813" fill="none" ry="16.3574" cx="975.8763" cy="-100.3574"/>
    </g>
    <g font-style="italic" font-size="13" font-weight="bold" font-family="sans-serif" transform="matrix(0.3924,0,0,0.3924,60.4278,224.8386)">
      <text xml:space="preserve" x="715.3763" y="-95.8569" onclick="umlload('../../../../../../com/msopentech/odatajclient/engine/communication/request/ODataBasicRequest.html')" stroke="none">ODataBasicRequest&lt;V extends ODataResponse, T extends Enum&lt;T&gt;&gt;</text>
    </g>
    <g fill="rgb(238,238,255)" transform="matrix(0.3924,0,0,0.3924,60.4278,224.8386)" stroke="rgb(238,238,255)">
      <rect width="425.1773" x="143.435" height="17.9688" y="-133.1328" stroke="none"/>
    </g>
    <g fill="rgb(166,166,178)" stroke-miterlimit="1.45" transform="matrix(0.3924,0,0,0.3924,60.4278,224.8386)" stroke-linecap="butt" stroke="rgb(166,166,178)">
      <rect fill="none" width="425.1773" x="143.435" height="17.9688" y="-133.1328"/>
    </g>
    <g fill="rgb(238,238,255)" transform="matrix(0.3924,0,0,0.3924,60.4278,224.8386)" stroke="rgb(238,238,255)">
      <rect width="425.41" x="143.435" height="39.1641" y="-115.1641" stroke="none"/>
    </g>
    <g fill="rgb(166,166,178)" stroke-miterlimit="1.45" transform="matrix(0.3924,0,0,0.3924,60.4278,224.8386)" stroke-linecap="butt" stroke="rgb(166,166,178)">
      <rect fill="none" width="425.41" x="143.435" height="39.1641" y="-115.1641"/>
    </g>
    <g font-family="sans-serif" transform="matrix(0.3924,0,0,0.3924,60.4278,224.8386)">
      <text xml:space="preserve" x="149.435" y="-119.9941" onclick="umlload('../../../../../../com/msopentech/odatajclient/engine/communication/request/package-summary.html')" stroke="none">com.msopentech.odatajclient.engine.communication.request</text>
    </g>
    <g fill="rgb(187,187,255)" transform="matrix(0.3924,0,0,0.3924,60.4278,224.8386)" stroke="rgb(187,187,255)">
      <rect x="272.435" y="-107.1328" clip-path="url(#clipPath10)" width="151.41" height="23.1328" stroke="none"/>
    </g>
    <g fill="rgb(130,130,178)" stroke-miterlimit="1.45" transform="matrix(0.3924,0,0,0.3924,60.4278,224.8386)" stroke-linecap="butt" stroke="rgb(130,130,178)">
      <rect fill="none" width="151.41" x="272.435" height="23.1328" y="-107.1328"/>
    </g>
    <g font-size="13" font-weight="bold" font-family="sans-serif" transform="matrix(0.3924,0,0,0.3924,60.4278,224.8386)">
      <text xml:space="preserve" x="278.64" y="-91.0659" onclick="umlload('../../../../../../com/msopentech/odatajclient/engine/communication/request/ODataRequestImpl.html')" stroke="none">ODataRequestImpl</text>
    </g>
    <g fill="rgb(238,238,255)" transform="matrix(0.3924,0,0,0.3924,60.4278,224.8386)" stroke="rgb(238,238,255)">
      <rect width="425.1773" x="-8" height="17.9688" y="-26" stroke="none"/>
    </g>
    <g fill="rgb(166,166,178)" stroke-miterlimit="1.45" transform="matrix(0.3924,0,0,0.3924,60.4278,224.8386)" stroke-linecap="butt" stroke="rgb(166,166,178)">
      <rect fill="none" width="425.1773" x="-8" height="17.9688" y="-26"/>
    </g>
    <g fill="rgb(238,238,255)" transform="matrix(0.3924,0,0,0.3924,60.4278,224.8386)" stroke="rgb(238,238,255)">
      <rect width="712.28" x="-8" height="492.41" y="-8.0312" stroke="none"/>
    </g>
    <g fill="rgb(166,166,178)" stroke-miterlimit="1.45" transform="matrix(0.3924,0,0,0.3924,60.4278,224.8386)" stroke-linecap="butt" stroke="rgb(166,166,178)">
      <rect fill="none" width="712.28" x="-8" height="492.41" y="-8.0312"/>
    </g>
    <g font-family="sans-serif" transform="matrix(0.3924,0,0,0.3924,60.4278,224.8386)">
      <text xml:space="preserve" x="-2" y="-12.8613" onclick="umlload('package-summary.html')" stroke="none">com.msopentech.odatajclient.engine.communication.request</text>
    </g>
    <g fill="rgb(204,204,255)" transform="matrix(0.3924,0,0,0.3924,60.4278,224.8386)" stroke="rgb(204,204,255)">
      <rect x="0" y="0" clip-path="url(#clipPath11)" width="696.28" height="38.5938" stroke="none"/>
      <line clip-path="url(#clipPath11)" fill="none" x1="0" x2="696.28" y1="38.5938" y2="38.5938" stroke="black"/>
      <rect x="0" y="39.5938" clip-path="url(#clipPath11)" width="696.28" height="15.9688" stroke="none"/>
      <line clip-path="url(#clipPath11)" fill="none" x1="0" x2="696.28" y1="55.5625" y2="55.5625" stroke="black"/>
      <line clip-path="url(#clipPath11)" x1="0" x2="696.28" y1="56.5625" y2="56.5625" stroke="none"/>
      <line clip-path="url(#clipPath11)" fill="none" x1="0" x2="696.28" y1="56.5625" y2="56.5625" stroke="black"/>
      <rect x="0" y="57.5625" clip-path="url(#clipPath11)" width="696.28" height="418.8163" stroke="none"/>
    </g>
    <g fill="rgb(142,142,178)" stroke-miterlimit="1.45" transform="matrix(0.3924,0,0,0.3924,60.4278,224.8386)" stroke-linecap="butt" stroke="rgb(142,142,178)">
      <rect fill="none" width="696.28" x="0" height="476.3788" y="0"/>
    </g>
    <g font-size="16" font-weight="bold" font-family="sans-serif" transform="matrix(0.3924,0,0,0.3924,60.4278,224.8386)">
      <text xml:space="preserve" x="14.14" y="16.8516" onclick="umlload('#')" stroke="none">ODataBasicRequestImpl&lt;V extends ODataResponse, T extends Enum&lt;T&gt;&gt;</text>
    </g>
    <g font-family="sans-serif" transform="matrix(0.3924,0,0,0.3924,60.4278,224.8386)">
      <text xml:space="preserve" x="623.28" y="33.7637" stroke="none">{abstract}</text>
    </g>
    <g font-family="sans-serif" transform="matrix(0.3924,0,0,0.3924,60.4278,224.8386)">
      <text xml:space="preserve" x="4" y="50.1719" stroke="none">#</text>
      <text xml:space="preserve" x="19" y="51.7324" onclick="umlload('#formatRef')" stroke="none">formatRef : Class&lt;T extends Enum&lt;T&gt;&gt;</text>
    </g>
    <g font-family="sans-serif" transform="matrix(0.3924,0,0,0.3924,60.4278,224.8386)">
      <text xml:space="preserve" x="4" y="68.1719" stroke="none">+</text>
      <text xml:space="preserve" x="19" y="69.7012" stroke="none">ODataBasicRequestImpl(Class&lt;T&gt;, HttpMethod, URI)</text>
    </g>
    <g font-family="sans-serif" transform="matrix(0.3924,0,0,0.3924,60.4278,224.8386)">
      <text xml:space="preserve" x="4" y="84.1719" stroke="none">+</text>
      <text xml:space="preserve" x="19" y="85.6699" onclick="umlload('#asyncExecute()')" stroke="none">asyncExecute() : Future&lt;V extends ODataResponse&gt;</text>
    </g>
    <g font-family="sans-serif" transform="matrix(0.3924,0,0,0.3924,60.4278,224.8386)">
      <text xml:space="preserve" x="4" y="100.1719" stroke="none">+</text>
      <text xml:space="preserve" x="19" y="101.6387" onclick="umlload('#batch(com.msopentech.odatajclient.engine.communication.request.batch.ODataBatchRequest)')" stroke="none">batch(ODataBatchRequest) : void</text>
    </g>
    <g font-family="sans-serif" transform="matrix(0.3924,0,0,0.3924,60.4278,224.8386)">
      <text xml:space="preserve" x="4" y="116.1719" stroke="none">+</text>
      <text xml:space="preserve" x="19" y="117.6074" onclick="umlload('#batch(com.msopentech.odatajclient.engine.communication.request.batch.ODataBatchRequest, java.lang.String)')" stroke="none">batch(ODataBatchRequest, String) : void</text>
    </g>
    <g font-family="sans-serif" transform="matrix(0.3924,0,0,0.3924,60.4278,224.8386)">
      <text xml:space="preserve" x="4" y="132.1719" stroke="none">+</text>
      <text xml:space="preserve" x="19" y="133.5762" onclick="umlload('#getFormat()')" stroke="none">getFormat() : T</text>
    </g>
    <g font-family="sans-serif" transform="matrix(0.3924,0,0,0.3924,60.4278,224.8386)">
      <text xml:space="preserve" x="4" y="148.1719" stroke="none">#</text>
      <text xml:space="preserve" x="19" y="149.5449" onclick="umlload('#getPayload()')" stroke="none">getPayload() : InputStream</text>
    </g>
    <g font-family="sans-serif" transform="matrix(0.3924,0,0,0.3924,60.4278,224.8386)">
      <text xml:space="preserve" x="4" y="164.1719" stroke="none">+</text>
      <text xml:space="preserve" x="19" y="165.5137" onclick="umlload('#setFormat(T)')" stroke="none">setFormat(T) : void</text>
    </g>
    <g font-family="sans-serif" transform="matrix(0.3924,0,0,0.3924,60.4278,224.8386)">
      <text xml:space="preserve" x="-148" y="509.1543" onclick="umlload('http://www.yworks.com/')" stroke="none">yWorks UML Doclet</text>
    </g>
    <g stroke-miterlimit="1.45" transform="matrix(0.3924,0,0,0.3924,60.4278,224.8386)" stroke-linecap="butt">
      <path fill="none" d="M348.14 -0.0348 L348.14 -69"/>
      <path fill="white" d="M348.14 -84 L342.14 -68 L354.14 -68 Z" stroke="none"/>
      <path fill="none" d="M348.14 -84 L342.14 -68 L354.14 -68 Z"/>
      <path fill="none" stroke-dasharray="6,2" d="M522.21 -0.0237 L522.21 -51 L975.8763 -51 L975.8763 -69"/>
      <path fill="white" stroke-dasharray="6,2" d="M975.8763 -84 L969.8763 -68 L981.8763 -68 Z" stroke="none"/>
      <path fill="none" d="M975.8763 -84 L969.8763 -68 L981.8763 -68 Z"/>
      <path fill="none" d="M0.0108 11.5664 L-66 11.5664"/>
      <line stroke-linecap="square" transform="matrix(-1,0,0,-1,-66,11.5664)" fill="none" x1="0" x2="-14" y1="0" y2="-4" stroke-miterlimit="10"/>
      <line stroke-linecap="square" transform="matrix(-1,0,0,-1,-66,11.5664)" fill="none" x1="0" x2="-14" y1="0" y2="4" stroke-miterlimit="10"/>
    </g>
    <g stroke-dasharray="6,2" stroke-miterlimit="1.45" transform="matrix(0.3924,0,0,0.3924,60.4278,224.8386)" stroke-linecap="butt">
      <path fill="none" d="M696.2962 11.5664 L762.28 11.5664"/>
      <line stroke-linecap="square" transform="matrix(1,0,0,1,762.28,11.5664)" fill="none" x1="0" x2="-14" y1="0" y2="-4" stroke-dasharray="none" stroke-miterlimit="10"/>
      <line stroke-linecap="square" transform="matrix(1,0,0,1,762.28,11.5664)" fill="none" x1="0" x2="-14" y1="0" y2="4" stroke-dasharray="none" stroke-miterlimit="10"/>
    </g>
    <g stroke-dasharray="6,2" stroke-miterlimit="1.45" transform="matrix(0.3924,0,0,0.3924,60.4278,224.8386)" stroke-linecap="butt">
      <path fill="none" d="M696.274 98.6992 L762.28 98.6992"/>
      <line stroke-linecap="square" transform="matrix(1,0,0,1,762.28,98.6992)" fill="none" x1="0" x2="-14" y1="0" y2="-4" stroke-dasharray="none" stroke-miterlimit="10"/>
      <line stroke-linecap="square" transform="matrix(1,0,0,1,762.28,98.6992)" fill="none" x1="0" x2="-14" y1="0" y2="4" stroke-dasharray="none" stroke-miterlimit="10"/>
    </g>
    <g stroke-dasharray="6,2" stroke-miterlimit="1.45" transform="matrix(0.3924,0,0,0.3924,60.4278,224.8386)" stroke-linecap="butt">
      <path fill="none" d="M696.274 185.832 L762.28 185.832"/>
      <line stroke-linecap="square" transform="matrix(1,0,0,1,762.28,185.832)" fill="none" x1="0" x2="-14" y1="0" y2="-4" stroke-dasharray="none" stroke-miterlimit="10"/>
      <line stroke-linecap="square" transform="matrix(1,0,0,1,762.28,185.832)" fill="none" x1="0" x2="-14" y1="0" y2="4" stroke-dasharray="none" stroke-miterlimit="10"/>
    </g>
    <g stroke-dasharray="6,2" stroke-miterlimit="1.45" transform="matrix(0.3924,0,0,0.3924,60.4278,224.8386)" stroke-linecap="butt">
      <path fill="none" d="M696.2957 272.9648 L762.28 272.9648"/>
      <line stroke-linecap="square" transform="matrix(1,0,0,1,762.28,272.9648)" fill="none" x1="0" x2="-14" y1="0" y2="-4" stroke-dasharray="none" stroke-miterlimit="10"/>
      <line stroke-linecap="square" transform="matrix(1,0,0,1,762.28,272.9648)" fill="none" x1="0" x2="-14" y1="0" y2="4" stroke-dasharray="none" stroke-miterlimit="10"/>
    </g>
    <g stroke-dasharray="6,2" stroke-miterlimit="1.45" transform="matrix(0.3924,0,0,0.3924,60.4278,224.8386)" stroke-linecap="butt">
      <path fill="none" d="M696.2578 360.0977 L762.28 360.0977"/>
      <line stroke-linecap="square" transform="matrix(1,0,0,1,762.28,360.0977)" fill="none" x1="0" x2="-14" y1="0" y2="-4" stroke-dasharray="none" stroke-miterlimit="10"/>
      <line stroke-linecap="square" transform="matrix(1,0,0,1,762.28,360.0977)" fill="none" x1="0" x2="-14" y1="0" y2="4" stroke-dasharray="none" stroke-miterlimit="10"/>
    </g>
    <g stroke-dasharray="6,2" stroke-miterlimit="1.45" transform="matrix(0.3924,0,0,0.3924,60.4278,224.8386)" stroke-linecap="butt">
      <path fill="none" d="M696.2769 452.0214 L762.28 452.0214"/>
      <line stroke-linecap="square" transform="matrix(1,0,0,1,762.28,452.0214)" fill="none" x1="0" x2="-14" y1="0" y2="-4" stroke-dasharray="none" stroke-miterlimit="10"/>
      <line stroke-linecap="square" transform="matrix(1,0,0,1,762.28,452.0214)" fill="none" x1="0" x2="-14" y1="0" y2="4" stroke-dasharray="none" stroke-miterlimit="10"/>
    </g>
  </g>
</svg>
