<?xml version="1.0" encoding="UTF-8"?><svg xmlns="http://www.w3.org/2000/svg" xmlns:xlink="http://www.w3.org/1999/xlink" fill-opacity="1" color-rendering="auto" color-interpolation="auto" stroke="black" text-rendering="auto" stroke-linecap="square" width="598" stroke-miterlimit="10" stroke-opacity="1" shape-rendering="auto" fill="black" stroke-dasharray="none" font-weight="normal" stroke-width="1" height="598" font-family="'Dialog'" font-style="normal" stroke-linejoin="miter" font-size="12" stroke-dashoffset="0" image-rendering="auto">
  <!--Generated by ySVG-->
  <defs id="genericDefs"/>
  <g>
    <defs id="defs1">
      <clipPath clipPathUnits="userSpaceOnUse" id="clipPath1">
        <path d="M0 0 L598 0 L598 598 L0 598 L0 0 Z"/>
      </clipPath>
      <clipPath clipPathUnits="userSpaceOnUse" id="clipPath2">
        <path d="M620.597 364.8886 C620.597 373.9225 584.4022 381.246 539.7535 381.246 C495.1049 381.246 458.91 373.9225 458.91 364.8886 C458.91 355.8547 495.1049 348.5312 539.7535 348.5312 C584.4022 348.5312 620.597 355.8547 620.597 364.8886 Z"/>
      </clipPath>
      <clipPath clipPathUnits="userSpaceOnUse" id="clipPath3">
        <path d="M458.91 261.3984 L491.87 261.3984 L491.87 284.5312 L458.91 284.5312 L458.91 261.3984 Z"/>
      </clipPath>
      <clipPath clipPathUnits="userSpaceOnUse" id="clipPath4">
        <path d="M458.91 174.2656 L512.47 174.2656 L512.47 197.3984 L458.91 197.3984 L458.91 174.2656 Z"/>
      </clipPath>
      <clipPath clipPathUnits="userSpaceOnUse" id="clipPath5">
        <path d="M458.91 87.1328 L560.88 87.1328 L560.88 110.2656 L458.91 110.2656 L458.91 87.1328 Z"/>
      </clipPath>
      <clipPath clipPathUnits="userSpaceOnUse" id="clipPath6">
        <path d="M458.91 0 L558.82 0 L558.82 23.1328 L458.91 23.1328 L458.91 0 Z"/>
      </clipPath>
      <clipPath clipPathUnits="userSpaceOnUse" id="clipPath7">
        <path d="M0 0 L281.19 0 L281.19 439.8125 L0 439.8125 L0 0 Z"/>
      </clipPath>
      <script type="text/ecmascript"><![CDATA[
function umlload(newLocation)
{
if (newLocation.charAt(0) != '#') {
if (newLocation.indexOf("://") > -1) {
window.parent.location.href = newLocation;
} else {
var tmp = window.parent.location.href;
tmp = tmp.substring(0, tmp.lastIndexOf("/") + 1);
window.parent.location.href = tmp.concat(newLocation);
}
} else {
window.parent.location.hash = newLocation;
}
}
]]></script>
    </defs>
    <g fill="rgb(238,238,255)" transform="matrix(0.7522,0,0,0.7522,6.0176,126.3698)" stroke="rgb(238,238,255)">
      <rect width="67.654" x="450.91" height="17.9688" y="322.5312" stroke="none"/>
    </g>
    <g fill="rgb(166,166,178)" stroke-miterlimit="1.45" transform="matrix(0.7522,0,0,0.7522,6.0176,126.3698)" stroke-linecap="butt" stroke="rgb(166,166,178)">
      <rect fill="none" width="67.654" x="450.91" height="17.9688" y="322.5312"/>
    </g>
    <g fill="rgb(238,238,255)" transform="matrix(0.7522,0,0,0.7522,6.0176,126.3698)" stroke="rgb(238,238,255)">
      <rect width="177.687" x="450.91" height="48.746" y="340.5" stroke="none"/>
    </g>
    <g fill="rgb(166,166,178)" stroke-miterlimit="1.45" transform="matrix(0.7522,0,0,0.7522,6.0176,126.3698)" stroke-linecap="butt" stroke="rgb(166,166,178)">
      <rect fill="none" width="177.687" x="450.91" height="48.746" y="340.5"/>
    </g>
    <g font-family="sans-serif" transform="matrix(0.7522,0,0,0.7522,6.0176,126.3698)">
      <text xml:space="preserve" x="456.91" y="335.6699" onclick="umlload('http://docs.oracle.com/javase/6/docs/api/java/util/package-summary.html')" stroke="none">java.util</text>
    </g>
    <g fill="rgb(221,221,255)" transform="matrix(0.7522,0,0,0.7522,6.0176,126.3698)" stroke="rgb(221,221,255)">
      <rect x="458.91" y="348.5312" clip-path="url(#clipPath2)" width="161.687" height="32.7147" stroke="none"/>
    </g>
    <g fill="rgb(154,154,178)" stroke-miterlimit="1.45" transform="matrix(0.7522,0,0,0.7522,6.0176,126.3698)" stroke-linecap="butt" stroke="rgb(154,154,178)">
      <ellipse rx="80.8435" fill="none" ry="16.3574" cx="539.7535" cy="364.8886"/>
    </g>
    <g font-style="italic" font-size="13" font-weight="bold" font-family="sans-serif" transform="matrix(0.7522,0,0,0.7522,6.0176,126.3698)">
      <text xml:space="preserve" x="488.2535" y="369.3891" onclick="umlload('http://docs.oracle.com/javase/6/docs/api/java/util/Collection.html')" stroke="none">Collection&lt;E&gt;</text>
    </g>
    <g fill="rgb(238,238,255)" transform="matrix(0.7522,0,0,0.7522,6.0176,126.3698)" stroke="rgb(238,238,255)">
      <rect width="69.7758" x="450.91" height="17.9688" y="235.3984" stroke="none"/>
    </g>
    <g fill="rgb(166,166,178)" stroke-miterlimit="1.45" transform="matrix(0.7522,0,0,0.7522,6.0176,126.3698)" stroke-linecap="butt" stroke="rgb(166,166,178)">
      <rect fill="none" width="69.7758" x="450.91" height="17.9688" y="235.3984"/>
    </g>
    <g fill="rgb(238,238,255)" transform="matrix(0.7522,0,0,0.7522,6.0176,126.3698)" stroke="rgb(238,238,255)">
      <rect width="73.96" x="450.91" height="39.1641" y="253.3672" stroke="none"/>
    </g>
    <g fill="rgb(166,166,178)" stroke-miterlimit="1.45" transform="matrix(0.7522,0,0,0.7522,6.0176,126.3698)" stroke-linecap="butt" stroke="rgb(166,166,178)">
      <rect fill="none" width="73.96" x="450.91" height="39.1641" y="253.3672"/>
    </g>
    <g font-family="sans-serif" transform="matrix(0.7522,0,0,0.7522,6.0176,126.3698)">
      <text xml:space="preserve" x="456.91" y="248.5371" onclick="umlload('http://docs.oracle.com/javase/6/docs/api/java/net/package-summary.html')" stroke="none">java.net</text>
    </g>
    <g fill="rgb(187,187,255)" transform="matrix(0.7522,0,0,0.7522,6.0176,126.3698)" stroke="rgb(187,187,255)">
      <rect x="458.91" y="261.3984" clip-path="url(#clipPath3)" width="32.96" height="23.1328" stroke="none"/>
    </g>
    <g fill="rgb(130,130,178)" stroke-miterlimit="1.45" transform="matrix(0.7522,0,0,0.7522,6.0176,126.3698)" stroke-linecap="butt" stroke="rgb(130,130,178)">
      <rect fill="none" width="32.96" x="458.91" height="23.1328" y="261.3984"/>
    </g>
    <g font-size="13" font-weight="bold" font-family="sans-serif" transform="matrix(0.7522,0,0,0.7522,6.0176,126.3698)">
      <text xml:space="preserve" x="463.39" y="277.4653" onclick="umlload('http://docs.oracle.com/javase/6/docs/api/java/net/URI.html')" stroke="none">URI</text>
    </g>
    <g fill="rgb(238,238,255)" transform="matrix(0.7522,0,0,0.7522,6.0176,126.3698)" stroke="rgb(238,238,255)">
      <rect width="76.1412" x="450.91" height="17.9688" y="148.2656" stroke="none"/>
    </g>
    <g fill="rgb(166,166,178)" stroke-miterlimit="1.45" transform="matrix(0.7522,0,0,0.7522,6.0176,126.3698)" stroke-linecap="butt" stroke="rgb(166,166,178)">
      <rect fill="none" width="76.1412" x="450.91" height="17.9688" y="148.2656"/>
    </g>
    <g fill="rgb(238,238,255)" transform="matrix(0.7522,0,0,0.7522,6.0176,126.3698)" stroke="rgb(238,238,255)">
      <rect width="79.56" x="450.91" height="39.1641" y="166.2344" stroke="none"/>
    </g>
    <g fill="rgb(166,166,178)" stroke-miterlimit="1.45" transform="matrix(0.7522,0,0,0.7522,6.0176,126.3698)" stroke-linecap="butt" stroke="rgb(166,166,178)">
      <rect fill="none" width="79.56" x="450.91" height="39.1641" y="166.2344"/>
    </g>
    <g font-family="sans-serif" transform="matrix(0.7522,0,0,0.7522,6.0176,126.3698)">
      <text xml:space="preserve" x="456.91" y="161.4043" onclick="umlload('http://docs.oracle.com/javase/6/docs/api/java/lang/package-summary.html')" stroke="none">java.lang</text>
    </g>
    <g fill="rgb(187,187,255)" transform="matrix(0.7522,0,0,0.7522,6.0176,126.3698)" stroke="rgb(187,187,255)">
      <rect x="458.91" y="174.2656" clip-path="url(#clipPath4)" width="53.56" height="23.1328" stroke="none"/>
    </g>
    <g fill="rgb(130,130,178)" stroke-miterlimit="1.45" transform="matrix(0.7522,0,0,0.7522,6.0176,126.3698)" stroke-linecap="butt" stroke="rgb(130,130,178)">
      <rect fill="none" width="53.56" x="458.91" height="23.1328" y="174.2656"/>
    </g>
    <g font-size="13" font-weight="bold" font-family="sans-serif" transform="matrix(0.7522,0,0,0.7522,6.0176,126.3698)">
      <text xml:space="preserve" x="463.69" y="190.3325" onclick="umlload('http://docs.oracle.com/javase/6/docs/api/java/lang/String.html')" stroke="none">String</text>
    </g>
    <g fill="rgb(238,238,255)" transform="matrix(0.7522,0,0,0.7522,6.0176,126.3698)" stroke="rgb(238,238,255)">
      <rect width="59.1668" x="450.91" height="17.9688" y="61.1328" stroke="none"/>
    </g>
    <g fill="rgb(166,166,178)" stroke-miterlimit="1.45" transform="matrix(0.7522,0,0,0.7522,6.0176,126.3698)" stroke-linecap="butt" stroke="rgb(166,166,178)">
      <rect fill="none" width="59.1668" x="450.91" height="17.9688" y="61.1328"/>
    </g>
    <g fill="rgb(238,238,255)" transform="matrix(0.7522,0,0,0.7522,6.0176,126.3698)" stroke="rgb(238,238,255)">
      <rect width="117.97" x="450.91" height="39.1641" y="79.1016" stroke="none"/>
    </g>
    <g fill="rgb(166,166,178)" stroke-miterlimit="1.45" transform="matrix(0.7522,0,0,0.7522,6.0176,126.3698)" stroke-linecap="butt" stroke="rgb(166,166,178)">
      <rect fill="none" width="117.97" x="450.91" height="39.1641" y="79.1016"/>
    </g>
    <g font-family="sans-serif" transform="matrix(0.7522,0,0,0.7522,6.0176,126.3698)">
      <text xml:space="preserve" x="456.91" y="74.2715" onclick="umlload('http://docs.oracle.com/javase/6/docs/api/java/io/package-summary.html')" stroke="none">java.io</text>
    </g>
    <g fill="rgb(204,204,255)" transform="matrix(0.7522,0,0,0.7522,6.0176,126.3698)" stroke="rgb(204,204,255)">
      <rect x="458.91" y="87.1328" clip-path="url(#clipPath5)" width="101.97" height="23.1328" stroke="none"/>
    </g>
    <g fill="rgb(142,142,178)" stroke-miterlimit="1.45" transform="matrix(0.7522,0,0,0.7522,6.0176,126.3698)" stroke-linecap="butt" stroke="rgb(142,142,178)">
      <rect fill="none" width="101.97" x="458.91" height="23.1328" y="87.1328"/>
    </g>
    <g font-size="13" font-weight="bold" font-family="sans-serif" transform="matrix(0.7522,0,0,0.7522,6.0176,126.3698)">
      <text xml:space="preserve" x="464.395" y="103.1997" onclick="umlload('http://docs.oracle.com/javase/6/docs/api/java/io/InputStream.html')" stroke="none">InputStream</text>
    </g>
    <g fill="rgb(238,238,255)" transform="matrix(0.7522,0,0,0.7522,6.0176,126.3698)" stroke="rgb(238,238,255)">
      <rect width="336.0617" x="450.91" height="17.9688" y="-26" stroke="none"/>
    </g>
    <g fill="rgb(166,166,178)" stroke-miterlimit="1.45" transform="matrix(0.7522,0,0,0.7522,6.0176,126.3698)" stroke-linecap="butt" stroke="rgb(166,166,178)">
      <rect fill="none" width="336.0617" x="450.91" height="17.9688" y="-26"/>
    </g>
    <g fill="rgb(238,238,255)" transform="matrix(0.7522,0,0,0.7522,6.0176,126.3698)" stroke="rgb(238,238,255)">
      <rect width="336.0617" x="450.91" height="39.1641" y="-8.0312" stroke="none"/>
    </g>
    <g fill="rgb(166,166,178)" stroke-miterlimit="1.45" transform="matrix(0.7522,0,0,0.7522,6.0176,126.3698)" stroke-linecap="butt" stroke="rgb(166,166,178)">
      <rect fill="none" width="336.0617" x="450.91" height="39.1641" y="-8.0312"/>
    </g>
    <g font-family="sans-serif" transform="matrix(0.7522,0,0,0.7522,6.0176,126.3698)">
      <text xml:space="preserve" x="456.91" y="-12.8613" onclick="umlload('../../../../../../com/msopentech/odatajclient/engine/client/http/package-summary.html')" stroke="none">com.msopentech.odatajclient.engine.client.http</text>
    </g>
    <g fill="rgb(170,170,255)" transform="matrix(0.7522,0,0,0.7522,6.0176,126.3698)" stroke="rgb(170,170,255)">
      <rect x="458.91" y="0" clip-path="url(#clipPath6)" width="99.91" height="23.1328" stroke="none"/>
    </g>
    <g fill="rgb(118,118,178)" stroke-miterlimit="1.45" transform="matrix(0.7522,0,0,0.7522,6.0176,126.3698)" stroke-linecap="butt" stroke="rgb(118,118,178)">
      <rect fill="none" width="99.91" x="458.91" height="23.1328" y="0"/>
    </g>
    <g font-size="13" font-weight="bold" font-family="sans-serif" transform="matrix(0.7522,0,0,0.7522,6.0176,126.3698)">
      <text xml:space="preserve" x="464.365" y="16.0669" onclick="umlload('../../../../../../com/msopentech/odatajclient/engine/client/http/HttpMethod.html')" stroke="none">HttpMethod</text>
    </g>
    <g fill="rgb(238,238,255)" transform="matrix(0.7522,0,0,0.7522,6.0176,126.3698)" stroke="rgb(238,238,255)">
      <rect width="425.1773" x="-8" height="17.9688" y="-26" stroke="none"/>
    </g>
    <g fill="rgb(166,166,178)" stroke-miterlimit="1.45" transform="matrix(0.7522,0,0,0.7522,6.0176,126.3698)" stroke-linecap="butt" stroke="rgb(166,166,178)">
      <rect fill="none" width="425.1773" x="-8" height="17.9688" y="-26"/>
    </g>
    <g fill="rgb(238,238,255)" transform="matrix(0.7522,0,0,0.7522,6.0176,126.3698)" stroke="rgb(238,238,255)">
      <rect width="425.19" x="-8" height="455.8438" y="-8.0312" stroke="none"/>
    </g>
    <g fill="rgb(166,166,178)" stroke-miterlimit="1.45" transform="matrix(0.7522,0,0,0.7522,6.0176,126.3698)" stroke-linecap="butt" stroke="rgb(166,166,178)">
      <rect fill="none" width="425.19" x="-8" height="455.8438" y="-8.0312"/>
    </g>
    <g font-family="sans-serif" transform="matrix(0.7522,0,0,0.7522,6.0176,126.3698)">
      <text xml:space="preserve" x="-2" y="-12.8613" onclick="umlload('package-summary.html')" stroke="none">com.msopentech.odatajclient.engine.communication.request</text>
    </g>
    <g fill="rgb(221,221,255)" transform="matrix(0.7522,0,0,0.7522,6.0176,126.3698)" stroke="rgb(221,221,255)">
      <rect x="0" y="0" clip-path="url(#clipPath7)" width="281.19" height="38.5938" stroke="none"/>
      <line clip-path="url(#clipPath7)" fill="none" x1="0" x2="281.19" y1="38.5938" y2="38.5938" stroke="black"/>
      <line clip-path="url(#clipPath7)" x1="0" x2="281.19" y1="39.5938" y2="39.5938" stroke="none"/>
      <line clip-path="url(#clipPath7)" fill="none" x1="0" x2="281.19" y1="39.5938" y2="39.5938" stroke="black"/>
      <rect x="0" y="40.5938" clip-path="url(#clipPath7)" width="281.19" height="399.2188" stroke="none"/>
    </g>
    <g fill="rgb(154,154,178)" stroke-miterlimit="1.45" transform="matrix(0.7522,0,0,0.7522,6.0176,126.3698)" stroke-linecap="butt" stroke="rgb(154,154,178)">
      <rect fill="none" width="281.19" x="0" height="439.8125" y="0"/>
    </g>
    <g font-style="italic" font-size="16" font-weight="bold" font-family="sans-serif" transform="matrix(0.7522,0,0,0.7522,6.0176,126.3698)">
      <text xml:space="preserve" x="75.095" y="32.8203" onclick="umlload('#')" stroke="none">ODataRequest</text>
    </g>
    <g font-family="sans-serif" transform="matrix(0.7522,0,0,0.7522,6.0176,126.3698)">
      <text xml:space="preserve" x="105.595" y="13.1387" stroke="none">«interface»</text>
    </g>
    <g font-family="sans-serif" transform="matrix(0.7522,0,0,0.7522,6.0176,126.3698)">
      <text xml:space="preserve" x="4" y="51.1719" stroke="none">+</text>
      <text xml:space="preserve" x="19" y="52.7324" onclick="umlload('#addCustomHeader(java.lang.String, java.lang.String)')" stroke="none">addCustomHeader(String, String) : void</text>
    </g>
    <g font-family="sans-serif" transform="matrix(0.7522,0,0,0.7522,6.0176,126.3698)">
      <text xml:space="preserve" x="4" y="67.1719" stroke="none">+</text>
      <text xml:space="preserve" x="19" y="68.7012" onclick="umlload('#getAccept()')" stroke="none">getAccept() : String</text>
    </g>
    <g font-family="sans-serif" transform="matrix(0.7522,0,0,0.7522,6.0176,126.3698)">
      <text xml:space="preserve" x="4" y="83.1719" stroke="none">+</text>
      <text xml:space="preserve" x="19" y="84.6699" onclick="umlload('#getContentType()')" stroke="none">getContentType() : String</text>
    </g>
    <g font-family="sans-serif" transform="matrix(0.7522,0,0,0.7522,6.0176,126.3698)">
      <text xml:space="preserve" x="4" y="99.1719" stroke="none">+</text>
      <text xml:space="preserve" x="19" y="100.6387" onclick="umlload('#getDataServiceVersion()')" stroke="none">getDataServiceVersion() : String</text>
    </g>
    <g font-family="sans-serif" transform="matrix(0.7522,0,0,0.7522,6.0176,126.3698)">
      <text xml:space="preserve" x="4" y="115.1719" stroke="none">+</text>
      <text xml:space="preserve" x="19" y="116.6074" onclick="umlload('#getHeader(java.lang.String)')" stroke="none">getHeader(String) : String</text>
    </g>
    <g font-family="sans-serif" transform="matrix(0.7522,0,0,0.7522,6.0176,126.3698)">
      <text xml:space="preserve" x="4" y="131.1719" stroke="none">+</text>
      <text xml:space="preserve" x="19" y="132.5762" onclick="umlload('#getHeaderNames()')" stroke="none">getHeaderNames() : Collection&lt;String&gt;</text>
    </g>
    <g font-family="sans-serif" transform="matrix(0.7522,0,0,0.7522,6.0176,126.3698)">
      <text xml:space="preserve" x="4" y="147.1719" stroke="none">+</text>
      <text xml:space="preserve" x="19" y="148.5449" onclick="umlload('#getIfMatch()')" stroke="none">getIfMatch() : String</text>
    </g>
    <g font-family="sans-serif" transform="matrix(0.7522,0,0,0.7522,6.0176,126.3698)">
      <text xml:space="preserve" x="4" y="163.1719" stroke="none">+</text>
      <text xml:space="preserve" x="19" y="164.5137" onclick="umlload('#getIfNoneMatch()')" stroke="none">getIfNoneMatch() : String</text>
    </g>
    <g font-family="sans-serif" transform="matrix(0.7522,0,0,0.7522,6.0176,126.3698)">
      <text xml:space="preserve" x="4" y="179.1719" stroke="none">+</text>
      <text xml:space="preserve" x="19" y="180.4824" onclick="umlload('#getMaxDataServiceVersion()')" stroke="none">getMaxDataServiceVersion() : String</text>
    </g>
    <g font-family="sans-serif" transform="matrix(0.7522,0,0,0.7522,6.0176,126.3698)">
      <text xml:space="preserve" x="4" y="195.1719" stroke="none">+</text>
      <text xml:space="preserve" x="19" y="196.4512" onclick="umlload('#getMethod()')" stroke="none">getMethod() : HttpMethod</text>
    </g>
    <g font-family="sans-serif" transform="matrix(0.7522,0,0,0.7522,6.0176,126.3698)">
      <text xml:space="preserve" x="4" y="211.1719" stroke="none">+</text>
      <text xml:space="preserve" x="19" y="212.4199" onclick="umlload('#getMinDataServiceVersion()')" stroke="none">getMinDataServiceVersion() : String</text>
    </g>
    <g font-family="sans-serif" transform="matrix(0.7522,0,0,0.7522,6.0176,126.3698)">
      <text xml:space="preserve" x="4" y="227.1719" stroke="none">+</text>
      <text xml:space="preserve" x="19" y="228.3887" onclick="umlload('#getPrefer()')" stroke="none">getPrefer() : String</text>
    </g>
    <g font-family="sans-serif" transform="matrix(0.7522,0,0,0.7522,6.0176,126.3698)">
      <text xml:space="preserve" x="4" y="243.1719" stroke="none">+</text>
      <text xml:space="preserve" x="19" y="244.3574" onclick="umlload('#getURI()')" stroke="none">getURI() : URI</text>
    </g>
    <g font-family="sans-serif" transform="matrix(0.7522,0,0,0.7522,6.0176,126.3698)">
      <text xml:space="preserve" x="4" y="259.1719" stroke="none">+</text>
      <text xml:space="preserve" x="19" y="260.3262" onclick="umlload('#rawExecute()')" stroke="none">rawExecute() : InputStream</text>
    </g>
    <g font-family="sans-serif" transform="matrix(0.7522,0,0,0.7522,6.0176,126.3698)">
      <text xml:space="preserve" x="4" y="275.1719" stroke="none">+</text>
      <text xml:space="preserve" x="19" y="276.2949" onclick="umlload('#setAccept(java.lang.String)')" stroke="none">setAccept(String) : void</text>
    </g>
    <g font-family="sans-serif" transform="matrix(0.7522,0,0,0.7522,6.0176,126.3698)">
      <text xml:space="preserve" x="4" y="291.1719" stroke="none">+</text>
      <text xml:space="preserve" x="19" y="292.2637" onclick="umlload('#setContentType(java.lang.String)')" stroke="none">setContentType(String) : void</text>
    </g>
    <g font-family="sans-serif" transform="matrix(0.7522,0,0,0.7522,6.0176,126.3698)">
      <text xml:space="preserve" x="4" y="307.1719" stroke="none">+</text>
      <text xml:space="preserve" x="19" y="308.2324" onclick="umlload('#setDataServiceVersion(java.lang.String)')" stroke="none">setDataServiceVersion(String) : void</text>
    </g>
    <g font-family="sans-serif" transform="matrix(0.7522,0,0,0.7522,6.0176,126.3698)">
      <text xml:space="preserve" x="4" y="323.1719" stroke="none">+</text>
      <text xml:space="preserve" x="19" y="324.2012" onclick="umlload('#setIfMatch(java.lang.String)')" stroke="none">setIfMatch(String) : void</text>
    </g>
    <g font-family="sans-serif" transform="matrix(0.7522,0,0,0.7522,6.0176,126.3698)">
      <text xml:space="preserve" x="4" y="339.1719" stroke="none">+</text>
      <text xml:space="preserve" x="19" y="340.1699" onclick="umlload('#setIfNoneMatch(java.lang.String)')" stroke="none">setIfNoneMatch(String) : void</text>
    </g>
    <g font-family="sans-serif" transform="matrix(0.7522,0,0,0.7522,6.0176,126.3698)">
      <text xml:space="preserve" x="4" y="354.1719" stroke="none">+</text>
      <text xml:space="preserve" x="19" y="356.1387" onclick="umlload('#setMaxDataServiceVersion(java.lang.String)')" stroke="none">setMaxDataServiceVersion(String) : void</text>
    </g>
    <g font-family="sans-serif" transform="matrix(0.7522,0,0,0.7522,6.0176,126.3698)">
      <text xml:space="preserve" x="4" y="370.1719" stroke="none">+</text>
      <text xml:space="preserve" x="19" y="372.1074" onclick="umlload('#setMinDataServiceVersion(java.lang.String)')" stroke="none">setMinDataServiceVersion(String) : void</text>
    </g>
    <g font-family="sans-serif" transform="matrix(0.7522,0,0,0.7522,6.0176,126.3698)">
      <text xml:space="preserve" x="4" y="386.1719" stroke="none">+</text>
      <text xml:space="preserve" x="19" y="388.0762" onclick="umlload('#setPrefer(java.lang.String)')" stroke="none">setPrefer(String) : void</text>
    </g>
    <g font-family="sans-serif" transform="matrix(0.7522,0,0,0.7522,6.0176,126.3698)">
      <text xml:space="preserve" x="4" y="402.1719" stroke="none">+</text>
      <text xml:space="preserve" x="19" y="404.0449" onclick="umlload('#setSlug(java.lang.String)')" stroke="none">setSlug(String) : void</text>
    </g>
    <g font-family="sans-serif" transform="matrix(0.7522,0,0,0.7522,6.0176,126.3698)">
      <text xml:space="preserve" x="4" y="418.1719" stroke="none">+</text>
      <text xml:space="preserve" x="19" y="420.0137" onclick="umlload('#setXHTTPMethod(java.lang.String)')" stroke="none">setXHTTPMethod(String) : void</text>
    </g>
    <g font-family="sans-serif" transform="matrix(0.7522,0,0,0.7522,6.0176,126.3698)">
      <text xml:space="preserve" x="4" y="434.1719" stroke="none">+</text>
      <text xml:space="preserve" x="19" y="435.9824" onclick="umlload('#toByteArray()')" stroke="none">toByteArray() : byte[]</text>
    </g>
    <g font-family="sans-serif" transform="matrix(0.7522,0,0,0.7522,6.0176,126.3698)">
      <text xml:space="preserve" x="-2" y="472.1543" onclick="umlload('http://www.yworks.com/')" stroke="none">yWorks UML Doclet</text>
    </g>
    <g stroke-dasharray="6,2" stroke-miterlimit="1.45" transform="matrix(0.7522,0,0,0.7522,6.0176,126.3698)" stroke-linecap="butt">
      <path fill="none" d="M281.1688 11.5664 L458.91 11.5664"/>
      <line stroke-linecap="square" transform="matrix(1,0,0,1,458.91,11.5664)" fill="none" x1="0" x2="-14" y1="0" y2="-4" stroke-dasharray="none" stroke-miterlimit="10"/>
      <line stroke-linecap="square" transform="matrix(1,0,0,1,458.91,11.5664)" fill="none" x1="0" x2="-14" y1="0" y2="4" stroke-dasharray="none" stroke-miterlimit="10"/>
    </g>
    <g stroke-dasharray="6,2" stroke-miterlimit="1.45" transform="matrix(0.7522,0,0,0.7522,6.0176,126.3698)" stroke-linecap="butt">
      <path fill="none" d="M281.2013 98.6992 L458.91 98.6992"/>
      <line stroke-linecap="square" transform="matrix(1,0,0,1,458.91,98.6992)" fill="none" x1="0" x2="-14" y1="0" y2="-4" stroke-dasharray="none" stroke-miterlimit="10"/>
      <line stroke-linecap="square" transform="matrix(1,0,0,1,458.91,98.6992)" fill="none" x1="0" x2="-14" y1="0" y2="4" stroke-dasharray="none" stroke-miterlimit="10"/>
    </g>
    <g stroke-dasharray="6,2" stroke-miterlimit="1.45" transform="matrix(0.7522,0,0,0.7522,6.0176,126.3698)" stroke-linecap="butt">
      <path fill="none" d="M281.169 185.832 L458.91 185.832"/>
      <line stroke-linecap="square" transform="matrix(1,0,0,1,458.91,185.832)" fill="none" x1="0" x2="-14" y1="0" y2="-4" stroke-dasharray="none" stroke-miterlimit="10"/>
      <line stroke-linecap="square" transform="matrix(1,0,0,1,458.91,185.832)" fill="none" x1="0" x2="-14" y1="0" y2="4" stroke-dasharray="none" stroke-miterlimit="10"/>
    </g>
    <g stroke-dasharray="6,2" stroke-miterlimit="1.45" transform="matrix(0.7522,0,0,0.7522,6.0176,126.3698)" stroke-linecap="butt">
      <path fill="none" d="M281.2236 272.9648 L458.91 272.9648"/>
      <line stroke-linecap="square" transform="matrix(1,0,0,1,458.91,272.9648)" fill="none" x1="0" x2="-14" y1="0" y2="-4" stroke-dasharray="none" stroke-miterlimit="10"/>
      <line stroke-linecap="square" transform="matrix(1,0,0,1,458.91,272.9648)" fill="none" x1="0" x2="-14" y1="0" y2="4" stroke-dasharray="none" stroke-miterlimit="10"/>
    </g>
    <g stroke-dasharray="6,2" stroke-miterlimit="1.45" transform="matrix(0.7522,0,0,0.7522,6.0176,126.3698)" stroke-linecap="butt">
      <path fill="none" d="M281.1678 364.8886 L458.91 364.8886"/>
      <line stroke-linecap="square" transform="matrix(1,0,0,1,458.91,364.8886)" fill="none" x1="0" x2="-14" y1="0" y2="-4" stroke-dasharray="none" stroke-miterlimit="10"/>
      <line stroke-linecap="square" transform="matrix(1,0,0,1,458.91,364.8886)" fill="none" x1="0" x2="-14" y1="0" y2="4" stroke-dasharray="none" stroke-miterlimit="10"/>
    </g>
  </g>
</svg>
