<?xml version="1.0" encoding="UTF-8"?><svg xmlns="http://www.w3.org/2000/svg" xmlns:xlink="http://www.w3.org/1999/xlink" fill-opacity="1" color-rendering="auto" color-interpolation="auto" stroke="black" text-rendering="auto" stroke-linecap="square" width="598" stroke-miterlimit="10" stroke-opacity="1" shape-rendering="auto" fill="black" stroke-dasharray="none" font-weight="normal" stroke-width="1" height="598" font-family="'Dialog'" font-style="normal" stroke-linejoin="miter" font-size="12" stroke-dashoffset="0" image-rendering="auto">
  <!--Generated by ySVG-->
  <defs id="genericDefs"/>
  <g>
    <defs id="defs1">
      <clipPath clipPathUnits="userSpaceOnUse" id="clipPath1">
        <path d="M0 0 L598 0 L598 598 L0 598 L0 0 Z"/>
      </clipPath>
      <clipPath clipPathUnits="userSpaceOnUse" id="clipPath2">
        <path d="M979.9728 125.0721 C979.9728 134.106 807.4765 141.4295 594.6915 141.4295 C381.9065 141.4295 209.4102 134.106 209.4102 125.0721 C209.4102 116.0382 381.9065 108.7147 594.6915 108.7147 C807.4765 108.7147 979.9728 116.0382 979.9728 125.0721 Z"/>
      </clipPath>
      <clipPath clipPathUnits="userSpaceOnUse" id="clipPath3">
        <path d="M422.2267 42.3574 C422.2267 51.3913 385.0536 58.7147 339.1982 58.7147 C293.3429 58.7147 256.1698 51.3913 256.1698 42.3574 C256.1698 33.3234 293.3429 26 339.1982 26 C385.0536 26 422.2267 33.3234 422.2267 42.3574 Z"/>
      </clipPath>
      <clipPath clipPathUnits="userSpaceOnUse" id="clipPath4">
        <path d="M83.887 191.4295 L663.777 191.4295 L663.777 214.5623 L83.887 214.5623 L83.887 191.4295 Z"/>
      </clipPath>
      <clipPath clipPathUnits="userSpaceOnUse" id="clipPath5">
        <path d="M8 332.6951 L408.67 332.6951 L408.67 355.8279 L8 355.8279 L8 332.6951 Z"/>
      </clipPath>
      <clipPath clipPathUnits="userSpaceOnUse" id="clipPath6">
        <path d="M145.505 259.5623 L271.165 259.5623 L271.165 282.6951 L145.505 282.6951 L145.505 259.5623 Z"/>
      </clipPath>
      <clipPath clipPathUnits="userSpaceOnUse" id="clipPath7">
        <path d="M8 118.2967 L159.41 118.2967 L159.41 141.4295 L8 141.4295 L8 118.2967 Z"/>
      </clipPath>
      <clipPath clipPathUnits="userSpaceOnUse" id="clipPath8">
        <path d="M8 400.8279 L107.91 400.8279 L107.91 423.9607 L8 423.9607 L8 400.8279 Z"/>
      </clipPath>
      <script type="text/ecmascript"><![CDATA[
function umlload(newLocation)
{
if (newLocation.charAt(0) != '#') {
if (newLocation.indexOf("://") > -1) {
window.parent.location.href = newLocation;
} else {
var tmp = window.parent.location.href;
tmp = tmp.substring(0, tmp.lastIndexOf("/") + 1);
window.parent.location.href = tmp.concat(newLocation);
}
} else {
window.parent.location.hash = newLocation;
}
}
]]></script>
    </defs>
    <g fill="rgb(238,238,255)" transform="matrix(0.6053,0,0,0.6053,0,157.3684)" stroke="rgb(238,238,255)">
      <rect width="425.1773" x="0" height="17.9688" y="0" stroke="none"/>
    </g>
    <g fill="rgb(166,166,178)" stroke-miterlimit="1.45" transform="matrix(0.6053,0,0,0.6053,0,157.3684)" stroke-linecap="butt" stroke="rgb(166,166,178)">
      <rect fill="none" width="425.1773" x="0" height="17.9688" y="0"/>
    </g>
    <g fill="rgb(238,238,255)" transform="matrix(0.6053,0,0,0.6053,0,157.3684)" stroke="rgb(238,238,255)">
      <rect width="987.9728" x="0" height="413.992" y="17.9688" stroke="none"/>
    </g>
    <g fill="rgb(166,166,178)" stroke-miterlimit="1.45" transform="matrix(0.6053,0,0,0.6053,0,157.3684)" stroke-linecap="butt" stroke="rgb(166,166,178)">
      <rect fill="none" width="987.9728" x="0" height="413.992" y="17.9688"/>
    </g>
    <g font-family="sans-serif" transform="matrix(0.6053,0,0,0.6053,0,157.3684)">
      <text xml:space="preserve" x="6" y="13.1387" onclick="umlload('#')" stroke="none">com.msopentech.odatajclient.engine.communication.request</text>
    </g>
    <g fill="rgb(221,221,255)" transform="matrix(0.6053,0,0,0.6053,0,157.3684)" stroke="rgb(221,221,255)">
      <rect x="209.4102" y="108.7147" clip-path="url(#clipPath2)" width="770.5625" height="32.7147" stroke="none"/>
    </g>
    <g fill="rgb(154,154,178)" stroke-miterlimit="1.45" transform="matrix(0.6053,0,0,0.6053,0,157.3684)" stroke-linecap="butt" stroke="rgb(154,154,178)">
      <ellipse rx="385.2813" fill="none" ry="16.3574" cx="594.6915" cy="125.0721"/>
    </g>
    <g font-style="italic" font-size="13" font-weight="bold" font-family="sans-serif" transform="matrix(0.6053,0,0,0.6053,0,157.3684)">
      <text xml:space="preserve" x="334.1915" y="129.5726" onclick="umlload('ODataBasicRequest.html')" stroke="none">ODataBasicRequest&lt;V extends ODataResponse, T extends Enum&lt;T&gt;&gt;</text>
    </g>
    <g fill="rgb(221,221,255)" transform="matrix(0.6053,0,0,0.6053,0,157.3684)" stroke="rgb(221,221,255)">
      <rect x="256.1698" y="26" clip-path="url(#clipPath3)" width="166.057" height="32.7147" stroke="none"/>
    </g>
    <g fill="rgb(154,154,178)" stroke-miterlimit="1.45" transform="matrix(0.6053,0,0,0.6053,0,157.3684)" stroke-linecap="butt" stroke="rgb(154,154,178)">
      <ellipse rx="83.0285" fill="none" ry="16.3574" cx="339.1983" cy="42.3574"/>
    </g>
    <g font-style="italic" font-size="13" font-weight="bold" font-family="sans-serif" transform="matrix(0.6053,0,0,0.6053,0,157.3684)">
      <text xml:space="preserve" x="286.1982" y="46.8579" onclick="umlload('ODataRequest.html')" stroke="none">ODataRequest</text>
    </g>
    <g fill="rgb(204,204,255)" transform="matrix(0.6053,0,0,0.6053,0,157.3684)" stroke="rgb(204,204,255)">
      <rect x="83.887" y="191.4295" clip-path="url(#clipPath4)" width="579.89" height="23.1328" stroke="none"/>
    </g>
    <g fill="rgb(142,142,178)" stroke-miterlimit="1.45" transform="matrix(0.6053,0,0,0.6053,0,157.3684)" stroke-linecap="butt" stroke="rgb(142,142,178)">
      <rect fill="none" width="579.89" x="83.887" height="23.1328" y="191.4295"/>
    </g>
    <g font-size="13" font-weight="bold" font-family="sans-serif" transform="matrix(0.6053,0,0,0.6053,0,157.3684)">
      <text xml:space="preserve" x="96.332" y="207.4964" onclick="umlload('ODataBasicRequestImpl.html')" stroke="none">ODataBasicRequestImpl&lt;V extends ODataResponse, T extends Enum&lt;T&gt;&gt;</text>
    </g>
    <g fill="rgb(204,204,255)" transform="matrix(0.6053,0,0,0.6053,0,157.3684)" stroke="rgb(204,204,255)">
      <rect x="8" y="332.6951" clip-path="url(#clipPath5)" width="400.67" height="23.1328" stroke="none"/>
    </g>
    <g fill="rgb(142,142,178)" stroke-miterlimit="1.45" transform="matrix(0.6053,0,0,0.6053,0,157.3684)" stroke-linecap="butt" stroke="rgb(142,142,178)">
      <rect fill="none" width="400.67" x="8" height="23.1328" y="332.6951"/>
    </g>
    <g font-size="13" font-weight="bold" font-family="sans-serif" transform="matrix(0.6053,0,0,0.6053,0,157.3684)">
      <text xml:space="preserve" x="17.835" y="348.762" onclick="umlload('ODataStreamManager.html')" stroke="none">ODataStreamManager&lt;T extends ODataResponse&gt;</text>
    </g>
    <g fill="rgb(204,204,255)" transform="matrix(0.6053,0,0,0.6053,0,157.3684)" stroke="rgb(204,204,255)">
      <rect x="145.505" y="259.5623" clip-path="url(#clipPath6)" width="125.66" height="23.1328" stroke="none"/>
    </g>
    <g fill="rgb(142,142,178)" stroke-miterlimit="1.45" transform="matrix(0.6053,0,0,0.6053,0,157.3684)" stroke-linecap="butt" stroke="rgb(142,142,178)">
      <rect fill="none" width="125.66" x="145.505" height="23.1328" y="259.5623"/>
    </g>
    <g font-size="13" font-weight="bold" font-family="sans-serif" transform="matrix(0.6053,0,0,0.6053,0,157.3684)">
      <text xml:space="preserve" x="151.335" y="275.6292" onclick="umlload('ODataStreamer.html')" stroke="none">ODataStreamer</text>
    </g>
    <g fill="rgb(187,187,255)" transform="matrix(0.6053,0,0,0.6053,0,157.3684)" stroke="rgb(187,187,255)">
      <rect x="8" y="118.2967" clip-path="url(#clipPath7)" width="151.41" height="23.1328" stroke="none"/>
    </g>
    <g fill="rgb(130,130,178)" stroke-miterlimit="1.45" transform="matrix(0.6053,0,0,0.6053,0,157.3684)" stroke-linecap="butt" stroke="rgb(130,130,178)">
      <rect fill="none" width="151.41" x="8" height="23.1328" y="118.2967"/>
    </g>
    <g font-size="13" font-weight="bold" font-family="sans-serif" transform="matrix(0.6053,0,0,0.6053,0,157.3684)">
      <text xml:space="preserve" x="14.205" y="134.3636" onclick="umlload('ODataRequestImpl.html')" stroke="none">ODataRequestImpl</text>
    </g>
    <g fill="rgb(170,170,255)" transform="matrix(0.6053,0,0,0.6053,0,157.3684)" stroke="rgb(170,170,255)">
      <rect x="8" y="400.8279" clip-path="url(#clipPath8)" width="99.91" height="23.1328" stroke="none"/>
    </g>
    <g fill="rgb(118,118,178)" stroke-miterlimit="1.45" transform="matrix(0.6053,0,0,0.6053,0,157.3684)" stroke-linecap="butt" stroke="rgb(118,118,178)">
      <rect fill="none" width="99.91" x="8" height="23.1328" y="400.8279"/>
    </g>
    <g font-size="13" font-weight="bold" font-family="sans-serif" transform="matrix(0.6053,0,0,0.6053,0,157.3684)">
      <text xml:space="preserve" x="13.455" y="416.8948" onclick="umlload('UpdateType.html')" stroke="none">UpdateType</text>
    </g>
    <g font-family="sans-serif" transform="matrix(0.6053,0,0,0.6053,0,157.3684)">
      <text xml:space="preserve" x="6" y="456.1543" onclick="umlload('http://www.yworks.com/')" stroke="none">yWorks UML Doclet</text>
    </g>
    <g stroke-miterlimit="1.45" transform="matrix(0.6053,0,0,0.6053,0,157.3684)" stroke-linecap="butt">
      <path fill="none" d="M594.6915 108.7147 L594.6915 83.7147 L380.7125 83.7147 L380.7125 71.5336"/>
      <path fill="white" d="M380.7125 56.5336 L374.7125 72.5336 L386.7125 72.5336 Z" stroke="none"/>
      <path fill="none" d="M380.7125 56.5336 L374.7125 72.5336 L386.7125 72.5336 Z"/>
      <path fill="none" d="M228.8595 191.4617 L228.8595 166.4295 L83.705 166.4295 L83.705 156.4295"/>
      <path fill="white" d="M83.705 141.4295 L77.705 157.4295 L89.705 157.4295 Z" stroke="none"/>
      <path fill="none" d="M83.705 141.4295 L77.705 157.4295 L89.705 157.4295 Z"/>
      <path fill="none" stroke-dasharray="6,2" d="M594.6915 156.4295 L594.6915 166.4295 L518.8045 166.4295 L518.8045 191.4617"/>
      <path fill="white" stroke-dasharray="6,2" d="M594.6915 141.4295 L588.6915 157.4295 L600.6915 157.4295 Z" stroke="none"/>
      <path fill="none" d="M594.6915 141.4295 L588.6915 157.4295 L600.6915 157.4295 Z"/>
      <path fill="none" d="M208.335 332.6951 L208.335 297.6951"/>
      <path fill="white" d="M208.335 282.6951 L202.335 298.6951 L214.335 298.6951 Z" stroke="none"/>
      <path fill="none" d="M208.335 282.6951 L202.335 298.6951 L214.335 298.6951 Z"/>
      <path fill="none" stroke-dasharray="6,2" d="M297.684 71.5348 L297.684 93.2967 L83.705 93.2967 L83.705 118.2967"/>
      <path fill="white" stroke-dasharray="6,2" d="M297.684 56.5348 L291.684 72.5348 L303.684 72.5348 Z" stroke="none"/>
      <path fill="none" d="M297.684 56.5348 L291.684 72.5348 L303.684 72.5348 Z"/>
    </g>
  </g>
</svg>
