<?xml version="1.0" encoding="UTF-8"?><svg xmlns="http://www.w3.org/2000/svg" xmlns:xlink="http://www.w3.org/1999/xlink" fill-opacity="1" color-rendering="auto" color-interpolation="auto" stroke="black" text-rendering="auto" stroke-linecap="square" width="598" stroke-miterlimit="10" stroke-opacity="1" shape-rendering="auto" fill="black" stroke-dasharray="none" font-weight="normal" stroke-width="1" height="598" font-family="'Dialog'" font-style="normal" stroke-linejoin="miter" font-size="12" stroke-dashoffset="0" image-rendering="auto">
  <!--Generated by ySVG-->
  <defs id="genericDefs"/>
  <g>
    <defs id="defs1">
      <clipPath clipPathUnits="userSpaceOnUse" id="clipPath1">
        <path d="M0 0 L598 0 L598 598 L0 598 L0 0 Z"/>
      </clipPath>
      <clipPath clipPathUnits="userSpaceOnUse" id="clipPath2">
        <path d="M-355.61 87.1328 L-131.07 87.1328 L-131.07 110.2656 L-355.61 110.2656 L-355.61 87.1328 Z"/>
      </clipPath>
      <clipPath clipPathUnits="userSpaceOnUse" id="clipPath3">
        <path d="M-378.27 0 L-209.35 0 L-209.35 23.1328 L-378.27 23.1328 L-378.27 0 Z"/>
      </clipPath>
      <clipPath clipPathUnits="userSpaceOnUse" id="clipPath4">
        <path d="M199.305 -107.1328 L256.985 -107.1328 L256.985 -84 L199.305 -84 L199.305 -107.1328 Z"/>
      </clipPath>
      <clipPath clipPathUnits="userSpaceOnUse" id="clipPath5">
        <path d="M0 0 L456.29 0 L456.29 118.2656 L0 118.2656 L0 0 Z"/>
      </clipPath>
      <script type="text/ecmascript"><![CDATA[
function umlload(newLocation)
{
if (newLocation.charAt(0) != '#') {
if (newLocation.indexOf("://") > -1) {
window.parent.location.href = newLocation;
} else {
var tmp = window.parent.location.href;
tmp = tmp.substring(0, tmp.lastIndexOf("/") + 1);
window.parent.location.href = tmp.concat(newLocation);
}
} else {
window.parent.location.hash = newLocation;
}
}
]]></script>
    </defs>
    <g fill="rgb(238,238,255)" transform="matrix(0.7019,0,0,0.7019,271.6268,289.1737)" stroke="rgb(238,238,255)">
      <rect width="308.4783" x="-363.61" height="17.9688" y="61.1328" stroke="none"/>
    </g>
    <g fill="rgb(166,166,178)" stroke-miterlimit="1.45" transform="matrix(0.7019,0,0,0.7019,271.6268,289.1737)" stroke-linecap="butt" stroke="rgb(166,166,178)">
      <rect fill="none" width="308.4783" x="-363.61" height="17.9688" y="61.1328"/>
    </g>
    <g fill="rgb(238,238,255)" transform="matrix(0.7019,0,0,0.7019,271.6268,289.1737)" stroke="rgb(238,238,255)">
      <rect width="308.54" x="-363.61" height="39.1641" y="79.1016" stroke="none"/>
    </g>
    <g fill="rgb(166,166,178)" stroke-miterlimit="1.45" transform="matrix(0.7019,0,0,0.7019,271.6268,289.1737)" stroke-linecap="butt" stroke="rgb(166,166,178)">
      <rect fill="none" width="308.54" x="-363.61" height="39.1641" y="79.1016"/>
    </g>
    <g font-family="sans-serif" transform="matrix(0.7019,0,0,0.7019,271.6268,289.1737)">
      <text xml:space="preserve" x="-357.61" y="74.2715" onclick="umlload('../../../../../../com/msopentech/odatajclient/proxy/api/impl/package-summary.html')" stroke="none">com.msopentech.odatajclient.proxy.api.impl</text>
    </g>
    <g fill="rgb(187,187,255)" transform="matrix(0.7019,0,0,0.7019,271.6268,289.1737)" stroke="rgb(187,187,255)">
      <rect x="-355.61" y="87.1328" clip-path="url(#clipPath2)" width="224.54" height="23.1328" stroke="none"/>
    </g>
    <g fill="rgb(130,130,178)" stroke-miterlimit="1.45" transform="matrix(0.7019,0,0,0.7019,271.6268,289.1737)" stroke-linecap="butt" stroke="rgb(130,130,178)">
      <rect fill="none" width="224.54" x="-355.61" height="23.1328" y="87.1328"/>
    </g>
    <g font-size="13" font-weight="bold" font-family="sans-serif" transform="matrix(0.7019,0,0,0.7019,271.6268,289.1737)">
      <text xml:space="preserve" x="-348.34" y="103.1997" onclick="umlload('../../../../../../com/msopentech/odatajclient/proxy/api/impl/EntityTypeInvocationHandler.html')" stroke="none">EntityTypeInvocationHandler</text>
    </g>
    <g fill="rgb(238,238,255)" transform="matrix(0.7019,0,0,0.7019,271.6268,289.1737)" stroke="rgb(238,238,255)">
      <rect width="331.8181" x="-386.27" height="17.9688" y="-26" stroke="none"/>
    </g>
    <g fill="rgb(166,166,178)" stroke-miterlimit="1.45" transform="matrix(0.7019,0,0,0.7019,271.6268,289.1737)" stroke-linecap="butt" stroke="rgb(166,166,178)">
      <rect fill="none" width="331.8181" x="-386.27" height="17.9688" y="-26"/>
    </g>
    <g fill="rgb(238,238,255)" transform="matrix(0.7019,0,0,0.7019,271.6268,289.1737)" stroke="rgb(238,238,255)">
      <rect width="331.92" x="-386.27" height="39.1641" y="-8.0312" stroke="none"/>
    </g>
    <g fill="rgb(166,166,178)" stroke-miterlimit="1.45" transform="matrix(0.7019,0,0,0.7019,271.6268,289.1737)" stroke-linecap="butt" stroke="rgb(166,166,178)">
      <rect fill="none" width="331.92" x="-386.27" height="39.1641" y="-8.0312"/>
    </g>
    <g font-family="sans-serif" transform="matrix(0.7019,0,0,0.7019,271.6268,289.1737)">
      <text xml:space="preserve" x="-380.27" y="-12.8613" onclick="umlload('../../../../../../com/msopentech/odatajclient/proxy/api/context/package-summary.html')" stroke="none">com.msopentech.odatajclient.proxy.api.context</text>
    </g>
    <g fill="rgb(170,170,255)" transform="matrix(0.7019,0,0,0.7019,271.6268,289.1737)" stroke="rgb(170,170,255)">
      <rect x="-378.27" y="0" clip-path="url(#clipPath3)" width="168.92" height="23.1328" stroke="none"/>
    </g>
    <g fill="rgb(118,118,178)" stroke-miterlimit="1.45" transform="matrix(0.7019,0,0,0.7019,271.6268,289.1737)" stroke-linecap="butt" stroke="rgb(118,118,178)">
      <rect fill="none" width="168.92" x="-378.27" height="23.1328" y="0"/>
    </g>
    <g font-size="13" font-weight="bold" font-family="sans-serif" transform="matrix(0.7019,0,0,0.7019,271.6268,289.1737)">
      <text xml:space="preserve" x="-371.81" y="16.0669" onclick="umlload('../../../../../../com/msopentech/odatajclient/proxy/api/context/AttachedEntityStatus.html')" stroke="none">AttachedEntityStatus</text>
    </g>
    <g fill="rgb(238,238,255)" transform="matrix(0.7019,0,0,0.7019,271.6268,289.1737)" stroke="rgb(238,238,255)">
      <rect width="76.1412" x="191.305" height="17.9688" y="-133.1328" stroke="none"/>
    </g>
    <g fill="rgb(166,166,178)" stroke-miterlimit="1.45" transform="matrix(0.7019,0,0,0.7019,271.6268,289.1737)" stroke-linecap="butt" stroke="rgb(166,166,178)">
      <rect fill="none" width="76.1412" x="191.305" height="17.9688" y="-133.1328"/>
    </g>
    <g fill="rgb(238,238,255)" transform="matrix(0.7019,0,0,0.7019,271.6268,289.1737)" stroke="rgb(238,238,255)">
      <rect width="76.1412" x="191.305" height="39.1641" y="-115.1641" stroke="none"/>
    </g>
    <g fill="rgb(166,166,178)" stroke-miterlimit="1.45" transform="matrix(0.7019,0,0,0.7019,271.6268,289.1737)" stroke-linecap="butt" stroke="rgb(166,166,178)">
      <rect fill="none" width="76.1412" x="191.305" height="39.1641" y="-115.1641"/>
    </g>
    <g font-family="sans-serif" transform="matrix(0.7019,0,0,0.7019,271.6268,289.1737)">
      <text xml:space="preserve" x="197.305" y="-119.9941" onclick="umlload('http://docs.oracle.com/javase/6/docs/api/java/lang/package-summary.html')" stroke="none">java.lang</text>
    </g>
    <g fill="rgb(187,187,255)" transform="matrix(0.7019,0,0,0.7019,271.6268,289.1737)" stroke="rgb(187,187,255)">
      <rect x="199.305" y="-107.1328" clip-path="url(#clipPath4)" width="57.68" height="23.1328" stroke="none"/>
    </g>
    <g fill="rgb(130,130,178)" stroke-miterlimit="1.45" transform="matrix(0.7019,0,0,0.7019,271.6268,289.1737)" stroke-linecap="butt" stroke="rgb(130,130,178)">
      <rect fill="none" width="57.68" x="199.305" height="23.1328" y="-107.1328"/>
    </g>
    <g font-size="13" font-weight="bold" font-family="sans-serif" transform="matrix(0.7019,0,0,0.7019,271.6268,289.1737)">
      <text xml:space="preserve" x="204.145" y="-91.0659" onclick="umlload('http://docs.oracle.com/javase/6/docs/api/java/lang/Object.html')" stroke="none">Object</text>
    </g>
    <g fill="rgb(238,238,255)" transform="matrix(0.7019,0,0,0.7019,271.6268,289.1737)" stroke="rgb(238,238,255)">
      <rect width="331.8181" x="-8" height="17.9688" y="-26" stroke="none"/>
    </g>
    <g fill="rgb(166,166,178)" stroke-miterlimit="1.45" transform="matrix(0.7019,0,0,0.7019,271.6268,289.1737)" stroke-linecap="butt" stroke="rgb(166,166,178)">
      <rect fill="none" width="331.8181" x="-8" height="17.9688" y="-26"/>
    </g>
    <g fill="rgb(238,238,255)" transform="matrix(0.7019,0,0,0.7019,271.6268,289.1737)" stroke="rgb(238,238,255)">
      <rect width="472.29" x="-8" height="134.2969" y="-8.0312" stroke="none"/>
    </g>
    <g fill="rgb(166,166,178)" stroke-miterlimit="1.45" transform="matrix(0.7019,0,0,0.7019,271.6268,289.1737)" stroke-linecap="butt" stroke="rgb(166,166,178)">
      <rect fill="none" width="472.29" x="-8" height="134.2969" y="-8.0312"/>
    </g>
    <g font-family="sans-serif" transform="matrix(0.7019,0,0,0.7019,271.6268,289.1737)">
      <text xml:space="preserve" x="-2" y="-12.8613" onclick="umlload('package-summary.html')" stroke="none">com.msopentech.odatajclient.proxy.api.context</text>
    </g>
    <g fill="rgb(187,187,255)" transform="matrix(0.7019,0,0,0.7019,271.6268,289.1737)" stroke="rgb(187,187,255)">
      <rect x="0" y="0" clip-path="url(#clipPath5)" width="456.29" height="26.625" stroke="none"/>
      <line clip-path="url(#clipPath5)" fill="none" x1="0" x2="456.29" y1="26.625" y2="26.625" stroke="black"/>
      <rect x="0" y="27.625" clip-path="url(#clipPath5)" width="456.29" height="15.9688" stroke="none"/>
      <line clip-path="url(#clipPath5)" fill="none" x1="0" x2="456.29" y1="43.5938" y2="43.5938" stroke="black"/>
      <rect x="0" y="44.5938" clip-path="url(#clipPath5)" width="456.29" height="73.6719" stroke="none"/>
    </g>
    <g fill="rgb(130,130,178)" stroke-miterlimit="1.45" transform="matrix(0.7019,0,0,0.7019,271.6268,289.1737)" stroke-linecap="butt" stroke="rgb(130,130,178)">
      <rect fill="none" width="456.29" x="0" height="118.2656" y="0"/>
    </g>
    <g font-size="16" font-weight="bold" font-family="sans-serif" transform="matrix(0.7019,0,0,0.7019,271.6268,289.1737)">
      <text xml:space="preserve" x="162.145" y="18.8516" onclick="umlload('#')" stroke="none">AttachedEntity</text>
    </g>
    <g font-family="sans-serif" transform="matrix(0.7019,0,0,0.7019,271.6268,289.1737)">
      <text xml:space="preserve" x="4" y="38.1719" stroke="none">+</text>
      <text xml:space="preserve" x="19" y="39.7637" onclick="umlload('#AttachedEntity(com.msopentech.odatajclient.proxy.api.impl.EntityTypeInvocationHandler, com.msopentech.odatajclient.proxy.api.context.AttachedEntityStatus)')" stroke="none">AttachedEntity(EntityTypeInvocationHandler, AttachedEntityStatus)</text>
    </g>
    <g font-family="sans-serif" transform="matrix(0.7019,0,0,0.7019,271.6268,289.1737)">
      <text xml:space="preserve" x="4" y="55.1719" stroke="none">+</text>
      <text xml:space="preserve" x="19" y="56.7324" onclick="umlload('#getEntity()')" stroke="none">getEntity() : EntityTypeInvocationHandler</text>
    </g>
    <g font-family="sans-serif" transform="matrix(0.7019,0,0,0.7019,271.6268,289.1737)">
      <text xml:space="preserve" x="4" y="71.1719" stroke="none">+</text>
      <text xml:space="preserve" x="19" y="72.7012" onclick="umlload('#getStatus()')" stroke="none">getStatus() : AttachedEntityStatus</text>
    </g>
    <g font-family="sans-serif" transform="matrix(0.7019,0,0,0.7019,271.6268,289.1737)">
      <text xml:space="preserve" x="-381" y="151.1543" onclick="umlload('http://www.yworks.com/')" stroke="none">yWorks UML Doclet</text>
    </g>
    <g stroke-miterlimit="1.45" transform="matrix(0.7019,0,0,0.7019,271.6268,289.1737)" stroke-linecap="butt">
      <path fill="none" d="M228.145 0.0046 L228.145 -69"/>
      <path fill="white" d="M228.145 -84 L222.145 -68 L234.145 -68 Z" stroke="none"/>
      <path fill="none" d="M228.145 -84 L222.145 -68 L234.145 -68 Z"/>
      <path fill="none" d="M0.0127 11.5664 L-209.35 11.5664"/>
      <line stroke-linecap="square" transform="matrix(-1,0,0,-1,-209.35,11.5664)" fill="none" x1="0" x2="-14" y1="0" y2="-4" stroke-miterlimit="10"/>
      <line stroke-linecap="square" transform="matrix(-1,0,0,-1,-209.35,11.5664)" fill="none" x1="0" x2="-14" y1="0" y2="4" stroke-miterlimit="10"/>
    </g>
    <g stroke-miterlimit="1.45" transform="matrix(0.7019,0,0,0.7019,271.6268,289.1737)" stroke-linecap="butt">
      <path fill="none" d="M0.0284 98.6992 L-131.07 98.6992"/>
      <line stroke-linecap="square" transform="matrix(-1,0,0,-1,-131.07,98.6992)" fill="none" x1="0" x2="-14" y1="0" y2="-4" stroke-miterlimit="10"/>
      <line stroke-linecap="square" transform="matrix(-1,0,0,-1,-131.07,98.6992)" fill="none" x1="0" x2="-14" y1="0" y2="4" stroke-miterlimit="10"/>
    </g>
  </g>
</svg>
