<?xml version="1.0" encoding="UTF-8"?><svg xmlns="http://www.w3.org/2000/svg" xmlns:xlink="http://www.w3.org/1999/xlink" fill-opacity="1" color-rendering="auto" color-interpolation="auto" stroke="black" text-rendering="auto" stroke-linecap="square" width="598" stroke-miterlimit="10" stroke-opacity="1" shape-rendering="auto" fill="black" stroke-dasharray="none" font-weight="normal" stroke-width="1" height="598" font-family="'Dialog'" font-style="normal" stroke-linejoin="miter" font-size="12" stroke-dashoffset="0" image-rendering="auto">
  <!--Generated by ySVG-->
  <defs id="genericDefs"/>
  <g>
    <defs id="defs1">
      <clipPath clipPathUnits="userSpaceOnUse" id="clipPath1">
        <path d="M0 0 L598 0 L598 598 L0 598 L0 0 Z"/>
      </clipPath>
      <clipPath clipPathUnits="userSpaceOnUse" id="clipPath2">
        <path d="M-378.27 0 L-268.06 0 L-268.06 23.1328 L-378.27 23.1328 L-378.27 0 Z"/>
      </clipPath>
      <clipPath clipPathUnits="userSpaceOnUse" id="clipPath3">
        <path d="M79.825 -107.1328 L137.505 -107.1328 L137.505 -84 L79.825 -84 L79.825 -107.1328 Z"/>
      </clipPath>
      <clipPath clipPathUnits="userSpaceOnUse" id="clipPath4">
        <path d="M0 0 L217.33 0 L217.33 76.5312 L0 76.5312 L0 0 Z"/>
      </clipPath>
      <script type="text/ecmascript"><![CDATA[
function umlload(newLocation)
{
if (newLocation.charAt(0) != '#') {
if (newLocation.indexOf("://") > -1) {
window.parent.location.href = newLocation;
} else {
var tmp = window.parent.location.href;
tmp = tmp.substring(0, tmp.lastIndexOf("/") + 1);
window.parent.location.href = tmp.concat(newLocation);
}
} else {
window.parent.location.hash = newLocation;
}
}
]]></script>
    </defs>
    <g fill="rgb(238,238,255)" transform="matrix(0.8411,0,0,0.8411,325.4937,304.4669)" stroke="rgb(238,238,255)">
      <rect width="331.8181" x="-386.27" height="17.9688" y="-26" stroke="none"/>
    </g>
    <g fill="rgb(166,166,178)" stroke-miterlimit="1.45" transform="matrix(0.8411,0,0,0.8411,325.4937,304.4669)" stroke-linecap="butt" stroke="rgb(166,166,178)">
      <rect fill="none" width="331.8181" x="-386.27" height="17.9688" y="-26"/>
    </g>
    <g fill="rgb(238,238,255)" transform="matrix(0.8411,0,0,0.8411,325.4937,304.4669)" stroke="rgb(238,238,255)">
      <rect width="332.21" x="-386.27" height="39.1641" y="-8.0312" stroke="none"/>
    </g>
    <g fill="rgb(166,166,178)" stroke-miterlimit="1.45" transform="matrix(0.8411,0,0,0.8411,325.4937,304.4669)" stroke-linecap="butt" stroke="rgb(166,166,178)">
      <rect fill="none" width="332.21" x="-386.27" height="39.1641" y="-8.0312"/>
    </g>
    <g font-family="sans-serif" transform="matrix(0.8411,0,0,0.8411,325.4937,304.4669)">
      <text xml:space="preserve" x="-380.27" y="-12.8613" onclick="umlload('../../../../../../com/msopentech/odatajclient/proxy/api/context/package-summary.html')" stroke="none">com.msopentech.odatajclient.proxy.api.context</text>
    </g>
    <g fill="rgb(187,187,255)" transform="matrix(0.8411,0,0,0.8411,325.4937,304.4669)" stroke="rgb(187,187,255)">
      <rect x="-378.27" y="0" clip-path="url(#clipPath2)" width="110.21" height="23.1328" stroke="none"/>
    </g>
    <g fill="rgb(130,130,178)" stroke-miterlimit="1.45" transform="matrix(0.8411,0,0,0.8411,325.4937,304.4669)" stroke-linecap="butt" stroke="rgb(130,130,178)">
      <rect fill="none" width="110.21" x="-378.27" height="23.1328" y="0"/>
    </g>
    <g font-size="13" font-weight="bold" font-family="sans-serif" transform="matrix(0.8411,0,0,0.8411,325.4937,304.4669)">
      <text xml:space="preserve" x="-372.665" y="16.0669" onclick="umlload('../../../../../../com/msopentech/odatajclient/proxy/api/context/EntityContext.html')" stroke="none">EntityContext</text>
    </g>
    <g fill="rgb(238,238,255)" transform="matrix(0.8411,0,0,0.8411,325.4937,304.4669)" stroke="rgb(238,238,255)">
      <rect width="76.1412" x="71.825" height="17.9688" y="-133.1328" stroke="none"/>
    </g>
    <g fill="rgb(166,166,178)" stroke-miterlimit="1.45" transform="matrix(0.8411,0,0,0.8411,325.4937,304.4669)" stroke-linecap="butt" stroke="rgb(166,166,178)">
      <rect fill="none" width="76.1412" x="71.825" height="17.9688" y="-133.1328"/>
    </g>
    <g fill="rgb(238,238,255)" transform="matrix(0.8411,0,0,0.8411,325.4937,304.4669)" stroke="rgb(238,238,255)">
      <rect width="76.1412" x="71.825" height="39.1641" y="-115.1641" stroke="none"/>
    </g>
    <g fill="rgb(166,166,178)" stroke-miterlimit="1.45" transform="matrix(0.8411,0,0,0.8411,325.4937,304.4669)" stroke-linecap="butt" stroke="rgb(166,166,178)">
      <rect fill="none" width="76.1412" x="71.825" height="39.1641" y="-115.1641"/>
    </g>
    <g font-family="sans-serif" transform="matrix(0.8411,0,0,0.8411,325.4937,304.4669)">
      <text xml:space="preserve" x="77.825" y="-119.9941" onclick="umlload('http://docs.oracle.com/javase/6/docs/api/java/lang/package-summary.html')" stroke="none">java.lang</text>
    </g>
    <g fill="rgb(187,187,255)" transform="matrix(0.8411,0,0,0.8411,325.4937,304.4669)" stroke="rgb(187,187,255)">
      <rect x="79.825" y="-107.1328" clip-path="url(#clipPath3)" width="57.68" height="23.1328" stroke="none"/>
    </g>
    <g fill="rgb(130,130,178)" stroke-miterlimit="1.45" transform="matrix(0.8411,0,0,0.8411,325.4937,304.4669)" stroke-linecap="butt" stroke="rgb(130,130,178)">
      <rect fill="none" width="57.68" x="79.825" height="23.1328" y="-107.1328"/>
    </g>
    <g font-size="13" font-weight="bold" font-family="sans-serif" transform="matrix(0.8411,0,0,0.8411,325.4937,304.4669)">
      <text xml:space="preserve" x="84.665" y="-91.0659" onclick="umlload('http://docs.oracle.com/javase/6/docs/api/java/lang/Object.html')" stroke="none">Object</text>
    </g>
    <g fill="rgb(238,238,255)" transform="matrix(0.8411,0,0,0.8411,325.4937,304.4669)" stroke="rgb(238,238,255)">
      <rect width="331.8181" x="-8" height="17.9688" y="-26" stroke="none"/>
    </g>
    <g fill="rgb(166,166,178)" stroke-miterlimit="1.45" transform="matrix(0.8411,0,0,0.8411,325.4937,304.4669)" stroke-linecap="butt" stroke="rgb(166,166,178)">
      <rect fill="none" width="331.8181" x="-8" height="17.9688" y="-26"/>
    </g>
    <g fill="rgb(238,238,255)" transform="matrix(0.8411,0,0,0.8411,325.4937,304.4669)" stroke="rgb(238,238,255)">
      <rect width="331.8181" x="-8" height="92.5625" y="-8.0312" stroke="none"/>
    </g>
    <g fill="rgb(166,166,178)" stroke-miterlimit="1.45" transform="matrix(0.8411,0,0,0.8411,325.4937,304.4669)" stroke-linecap="butt" stroke="rgb(166,166,178)">
      <rect fill="none" width="331.8181" x="-8" height="92.5625" y="-8.0312"/>
    </g>
    <g font-family="sans-serif" transform="matrix(0.8411,0,0,0.8411,325.4937,304.4669)">
      <text xml:space="preserve" x="-2" y="-12.8613" onclick="umlload('package-summary.html')" stroke="none">com.msopentech.odatajclient.proxy.api.context</text>
    </g>
    <g fill="rgb(187,187,255)" transform="matrix(0.8411,0,0,0.8411,325.4937,304.4669)" stroke="rgb(187,187,255)">
      <rect x="0" y="0" clip-path="url(#clipPath4)" width="217.33" height="26.625" stroke="none"/>
      <line clip-path="url(#clipPath4)" fill="none" x1="0" x2="217.33" y1="26.625" y2="26.625" stroke="black"/>
      <rect x="0" y="27.625" clip-path="url(#clipPath4)" width="217.33" height="15.9688" stroke="none"/>
      <line clip-path="url(#clipPath4)" fill="none" x1="0" x2="217.33" y1="43.5938" y2="43.5938" stroke="black"/>
      <rect x="0" y="44.5938" clip-path="url(#clipPath4)" width="217.33" height="31.9375" stroke="none"/>
    </g>
    <g fill="rgb(130,130,178)" stroke-miterlimit="1.45" transform="matrix(0.8411,0,0,0.8411,325.4937,304.4669)" stroke-linecap="butt" stroke="rgb(130,130,178)">
      <rect fill="none" width="217.33" x="0" height="76.5312" y="0"/>
    </g>
    <g font-size="16" font-weight="bold" font-family="sans-serif" transform="matrix(0.8411,0,0,0.8411,325.4937,304.4669)">
      <text xml:space="preserve" x="73.165" y="18.8516" onclick="umlload('#')" stroke="none">Context</text>
    </g>
    <g font-family="sans-serif" transform="matrix(0.8411,0,0,0.8411,325.4937,304.4669)">
      <text xml:space="preserve" x="4" y="38.1719" stroke="none">+</text>
      <text xml:space="preserve" x="19" y="39.7637" onclick="umlload('#Context()')" stroke="none">Context()</text>
    </g>
    <g font-family="sans-serif" transform="matrix(0.8411,0,0,0.8411,325.4937,304.4669)">
      <text xml:space="preserve" x="4" y="55.1719" stroke="none">+</text>
      <text xml:space="preserve" x="19" y="56.7324" onclick="umlload('#detachAll()')" stroke="none">detachAll() : void</text>
    </g>
    <g font-family="sans-serif" transform="matrix(0.8411,0,0,0.8411,325.4937,304.4669)">
      <text xml:space="preserve" x="4" y="71.1719" stroke="none">+</text>
      <text xml:space="preserve" x="19" y="72.7012" onclick="umlload('#entityContext()')" stroke="none">entityContext() : EntityContext</text>
    </g>
    <g font-family="sans-serif" transform="matrix(0.8411,0,0,0.8411,325.4937,304.4669)">
      <text xml:space="preserve" x="-381" y="109.1543" onclick="umlload('http://www.yworks.com/')" stroke="none">yWorks UML Doclet</text>
    </g>
    <g stroke-miterlimit="1.45" transform="matrix(0.8411,0,0,0.8411,325.4937,304.4669)" stroke-linecap="butt">
      <path fill="none" d="M108.665 0 L108.665 -69"/>
      <path fill="white" d="M108.665 -84 L102.665 -68 L114.665 -68 Z" stroke="none"/>
      <path fill="none" d="M108.665 -84 L102.665 -68 L114.665 -68 Z"/>
      <path fill="none" d="M-0.0041 11.5664 L-268.06 11.5664"/>
      <line stroke-linecap="square" transform="matrix(-1,0,0,-1,-268.06,11.5664)" fill="none" x1="0" x2="-14" y1="0" y2="-4" stroke-miterlimit="10"/>
      <line stroke-linecap="square" transform="matrix(-1,0,0,-1,-268.06,11.5664)" fill="none" x1="0" x2="-14" y1="0" y2="4" stroke-miterlimit="10"/>
    </g>
  </g>
</svg>
