<?xml version="1.0" encoding="UTF-8"?><svg xmlns="http://www.w3.org/2000/svg" xmlns:xlink="http://www.w3.org/1999/xlink" fill-opacity="1" color-rendering="auto" color-interpolation="auto" stroke="black" text-rendering="auto" stroke-linecap="square" width="598" stroke-miterlimit="10" stroke-opacity="1" shape-rendering="auto" fill="black" stroke-dasharray="none" font-weight="normal" stroke-width="1" height="598" font-family="'Dialog'" font-style="normal" stroke-linejoin="miter" font-size="12" stroke-dashoffset="0" image-rendering="auto">
  <!--Generated by ySVG-->
  <defs id="genericDefs"/>
  <g>
    <defs id="defs1">
      <clipPath clipPathUnits="userSpaceOnUse" id="clipPath1">
        <path d="M0 0 L598 0 L598 598 L0 598 L0 0 Z"/>
      </clipPath>
      <clipPath clipPathUnits="userSpaceOnUse" id="clipPath2">
        <path d="M666.8508 223.7558 C666.8508 232.7897 635.8732 240.1132 597.6604 240.1132 C559.4476 240.1132 528.47 232.7897 528.47 223.7558 C528.47 214.7219 559.4476 207.3984 597.6604 207.3984 C635.8732 207.3984 666.8508 214.7219 666.8508 223.7558 Z"/>
      </clipPath>
      <clipPath clipPathUnits="userSpaceOnUse" id="clipPath3">
        <path d="M528.47 120.2656 L753.01 120.2656 L753.01 143.3984 L528.47 143.3984 L528.47 120.2656 Z"/>
      </clipPath>
      <clipPath clipPathUnits="userSpaceOnUse" id="clipPath4">
        <path d="M528.47 0 L697.39 0 L697.39 23.1328 L528.47 23.1328 L528.47 0 Z"/>
      </clipPath>
      <clipPath clipPathUnits="userSpaceOnUse" id="clipPath5">
        <path d="M528.47 33.1328 L616.02 33.1328 L616.02 56.2656 L528.47 56.2656 L528.47 33.1328 Z"/>
      </clipPath>
      <clipPath clipPathUnits="userSpaceOnUse" id="clipPath6">
        <path d="M-66 16.3574 C-66 25.3913 -95.6733 32.7147 -132.2771 32.7147 C-168.881 32.7147 -198.5542 25.3913 -198.5542 16.3574 C-198.5542 7.3234 -168.881 0 -132.2771 0 C-95.6733 0 -66 7.3234 -66 16.3574 Z"/>
      </clipPath>
      <clipPath clipPathUnits="userSpaceOnUse" id="clipPath7">
        <path d="M590.1198 -100.3574 C590.1198 -91.3234 526.5342 -84 448.0974 -84 C369.6606 -84 306.075 -91.3234 306.075 -100.3574 C306.075 -109.3913 369.6606 -116.7147 448.0974 -116.7147 C526.5342 -116.7147 590.1198 -109.3913 590.1198 -100.3574 Z"/>
      </clipPath>
      <clipPath clipPathUnits="userSpaceOnUse" id="clipPath8">
        <path d="M202.395 -107.1328 L260.075 -107.1328 L260.075 -84 L202.395 -84 L202.395 -107.1328 Z"/>
      </clipPath>
      <clipPath clipPathUnits="userSpaceOnUse" id="clipPath9">
        <path d="M0 0 L462.47 0 L462.47 248.1132 L0 248.1132 L0 0 Z"/>
      </clipPath>
      <script type="text/ecmascript"><![CDATA[
function umlload(newLocation)
{
if (newLocation.charAt(0) != '#') {
if (newLocation.indexOf("://") > -1) {
window.parent.location.href = newLocation;
} else {
var tmp = window.parent.location.href;
tmp = tmp.substring(0, tmp.lastIndexOf("/") + 1);
window.parent.location.href = tmp.concat(newLocation);
}
} else {
window.parent.location.hash = newLocation;
}
}
]]></script>
    </defs>
    <g fill="rgb(238,238,255)" transform="matrix(0.5642,0,0,0.5642,116.7792,256.6887)" stroke="rgb(238,238,255)">
      <rect width="67.654" x="520.47" height="17.9688" y="181.3984" stroke="none"/>
    </g>
    <g fill="rgb(166,166,178)" stroke-miterlimit="1.45" transform="matrix(0.5642,0,0,0.5642,116.7792,256.6887)" stroke-linecap="butt" stroke="rgb(166,166,178)">
      <rect fill="none" width="67.654" x="520.47" height="17.9688" y="181.3984"/>
    </g>
    <g fill="rgb(238,238,255)" transform="matrix(0.5642,0,0,0.5642,116.7792,256.6887)" stroke="rgb(238,238,255)">
      <rect width="154.3808" x="520.47" height="48.746" y="199.3672" stroke="none"/>
    </g>
    <g fill="rgb(166,166,178)" stroke-miterlimit="1.45" transform="matrix(0.5642,0,0,0.5642,116.7792,256.6887)" stroke-linecap="butt" stroke="rgb(166,166,178)">
      <rect fill="none" width="154.3808" x="520.47" height="48.746" y="199.3672"/>
    </g>
    <g font-family="sans-serif" transform="matrix(0.5642,0,0,0.5642,116.7792,256.6887)">
      <text xml:space="preserve" x="526.47" y="194.5371" onclick="umlload('http://docs.oracle.com/javase/6/docs/api/java/util/package-summary.html')" stroke="none">java.util</text>
    </g>
    <g fill="rgb(221,221,255)" transform="matrix(0.5642,0,0,0.5642,116.7792,256.6887)" stroke="rgb(221,221,255)">
      <rect x="528.47" y="207.3984" clip-path="url(#clipPath2)" width="138.3808" height="32.7147" stroke="none"/>
    </g>
    <g fill="rgb(154,154,178)" stroke-miterlimit="1.45" transform="matrix(0.5642,0,0,0.5642,116.7792,256.6887)" stroke-linecap="butt" stroke="rgb(154,154,178)">
      <ellipse rx="69.1904" fill="none" ry="16.3574" cx="597.6604" cy="223.7558"/>
    </g>
    <g font-style="italic" font-size="13" font-weight="bold" font-family="sans-serif" transform="matrix(0.5642,0,0,0.5642,116.7792,256.6887)">
      <text xml:space="preserve" x="554.1604" y="228.2563" onclick="umlload('http://docs.oracle.com/javase/6/docs/api/java/util/Iterator.html')" stroke="none">Iterator&lt;E&gt;</text>
    </g>
    <g fill="rgb(238,238,255)" transform="matrix(0.5642,0,0,0.5642,116.7792,256.6887)" stroke="rgb(238,238,255)">
      <rect width="308.4783" x="520.47" height="17.9688" y="94.2656" stroke="none"/>
    </g>
    <g fill="rgb(166,166,178)" stroke-miterlimit="1.45" transform="matrix(0.5642,0,0,0.5642,116.7792,256.6887)" stroke-linecap="butt" stroke="rgb(166,166,178)">
      <rect fill="none" width="308.4783" x="520.47" height="17.9688" y="94.2656"/>
    </g>
    <g fill="rgb(238,238,255)" transform="matrix(0.5642,0,0,0.5642,116.7792,256.6887)" stroke="rgb(238,238,255)">
      <rect width="308.54" x="520.47" height="39.1641" y="112.2344" stroke="none"/>
    </g>
    <g fill="rgb(166,166,178)" stroke-miterlimit="1.45" transform="matrix(0.5642,0,0,0.5642,116.7792,256.6887)" stroke-linecap="butt" stroke="rgb(166,166,178)">
      <rect fill="none" width="308.54" x="520.47" height="39.1641" y="112.2344"/>
    </g>
    <g font-family="sans-serif" transform="matrix(0.5642,0,0,0.5642,116.7792,256.6887)">
      <text xml:space="preserve" x="526.47" y="107.4043" onclick="umlload('../../../../../../com/msopentech/odatajclient/proxy/api/impl/package-summary.html')" stroke="none">com.msopentech.odatajclient.proxy.api.impl</text>
    </g>
    <g fill="rgb(187,187,255)" transform="matrix(0.5642,0,0,0.5642,116.7792,256.6887)" stroke="rgb(187,187,255)">
      <rect x="528.47" y="120.2656" clip-path="url(#clipPath3)" width="224.54" height="23.1328" stroke="none"/>
    </g>
    <g fill="rgb(130,130,178)" stroke-miterlimit="1.45" transform="matrix(0.5642,0,0,0.5642,116.7792,256.6887)" stroke-linecap="butt" stroke="rgb(130,130,178)">
      <rect fill="none" width="224.54" x="528.47" height="23.1328" y="120.2656"/>
    </g>
    <g font-size="13" font-weight="bold" font-family="sans-serif" transform="matrix(0.5642,0,0,0.5642,116.7792,256.6887)">
      <text xml:space="preserve" x="535.74" y="136.3325" onclick="umlload('../../../../../../com/msopentech/odatajclient/proxy/api/impl/EntityTypeInvocationHandler.html')" stroke="none">EntityTypeInvocationHandler</text>
    </g>
    <g fill="rgb(238,238,255)" transform="matrix(0.5642,0,0,0.5642,116.7792,256.6887)" stroke="rgb(238,238,255)">
      <rect width="331.8181" x="520.47" height="17.9688" y="-26" stroke="none"/>
    </g>
    <g fill="rgb(166,166,178)" stroke-miterlimit="1.45" transform="matrix(0.5642,0,0,0.5642,116.7792,256.6887)" stroke-linecap="butt" stroke="rgb(166,166,178)">
      <rect fill="none" width="331.8181" x="520.47" height="17.9688" y="-26"/>
    </g>
    <g fill="rgb(238,238,255)" transform="matrix(0.5642,0,0,0.5642,116.7792,256.6887)" stroke="rgb(238,238,255)">
      <rect width="331.92" x="520.47" height="72.2969" y="-8.0312" stroke="none"/>
    </g>
    <g fill="rgb(166,166,178)" stroke-miterlimit="1.45" transform="matrix(0.5642,0,0,0.5642,116.7792,256.6887)" stroke-linecap="butt" stroke="rgb(166,166,178)">
      <rect fill="none" width="331.92" x="520.47" height="72.2969" y="-8.0312"/>
    </g>
    <g font-family="sans-serif" transform="matrix(0.5642,0,0,0.5642,116.7792,256.6887)">
      <text xml:space="preserve" x="526.47" y="-12.8613" onclick="umlload('../../../../../../com/msopentech/odatajclient/proxy/api/context/package-summary.html')" stroke="none">com.msopentech.odatajclient.proxy.api.context</text>
    </g>
    <g fill="rgb(170,170,255)" transform="matrix(0.5642,0,0,0.5642,116.7792,256.6887)" stroke="rgb(170,170,255)">
      <rect x="528.47" y="0" clip-path="url(#clipPath4)" width="168.92" height="23.1328" stroke="none"/>
    </g>
    <g fill="rgb(118,118,178)" stroke-miterlimit="1.45" transform="matrix(0.5642,0,0,0.5642,116.7792,256.6887)" stroke-linecap="butt" stroke="rgb(118,118,178)">
      <rect fill="none" width="168.92" x="528.47" height="23.1328" y="0"/>
    </g>
    <g font-size="13" font-weight="bold" font-family="sans-serif" transform="matrix(0.5642,0,0,0.5642,116.7792,256.6887)">
      <text xml:space="preserve" x="534.93" y="16.0669" onclick="umlload('../../../../../../com/msopentech/odatajclient/proxy/api/context/AttachedEntityStatus.html')" stroke="none">AttachedEntityStatus</text>
    </g>
    <g fill="rgb(187,187,255)" transform="matrix(0.5642,0,0,0.5642,116.7792,256.6887)" stroke="rgb(187,187,255)">
      <rect x="528.47" y="33.1328" clip-path="url(#clipPath5)" width="87.55" height="23.1328" stroke="none"/>
    </g>
    <g fill="rgb(130,130,178)" stroke-miterlimit="1.45" transform="matrix(0.5642,0,0,0.5642,116.7792,256.6887)" stroke-linecap="butt" stroke="rgb(130,130,178)">
      <rect fill="none" width="87.55" x="528.47" height="23.1328" y="33.1328"/>
    </g>
    <g font-size="13" font-weight="bold" font-family="sans-serif" transform="matrix(0.5642,0,0,0.5642,116.7792,256.6887)">
      <text xml:space="preserve" x="533.745" y="49.1997" onclick="umlload('../../../../../../com/msopentech/odatajclient/proxy/api/context/EntityUUID.html')" stroke="none">EntityUUID</text>
    </g>
    <g fill="rgb(238,238,255)" transform="matrix(0.5642,0,0,0.5642,116.7792,256.6887)" stroke="rgb(238,238,255)">
      <rect width="67.654" x="-206.5542" height="17.9688" y="-26" stroke="none"/>
    </g>
    <g fill="rgb(166,166,178)" stroke-miterlimit="1.45" transform="matrix(0.5642,0,0,0.5642,116.7792,256.6887)" stroke-linecap="butt" stroke="rgb(166,166,178)">
      <rect fill="none" width="67.654" x="-206.5542" height="17.9688" y="-26"/>
    </g>
    <g fill="rgb(238,238,255)" transform="matrix(0.5642,0,0,0.5642,116.7792,256.6887)" stroke="rgb(238,238,255)">
      <rect width="148.5542" x="-206.5542" height="48.746" y="-8.0312" stroke="none"/>
    </g>
    <g fill="rgb(166,166,178)" stroke-miterlimit="1.45" transform="matrix(0.5642,0,0,0.5642,116.7792,256.6887)" stroke-linecap="butt" stroke="rgb(166,166,178)">
      <rect fill="none" width="148.5542" x="-206.5542" height="48.746" y="-8.0312"/>
    </g>
    <g font-family="sans-serif" transform="matrix(0.5642,0,0,0.5642,116.7792,256.6887)">
      <text xml:space="preserve" x="-200.5542" y="-12.8613" onclick="umlload('http://docs.oracle.com/javase/6/docs/api/java/util/package-summary.html')" stroke="none">java.util</text>
    </g>
    <g fill="rgb(221,221,255)" transform="matrix(0.5642,0,0,0.5642,116.7792,256.6887)" stroke="rgb(221,221,255)">
      <rect x="-198.5542" y="0" clip-path="url(#clipPath6)" width="132.5542" height="32.7147" stroke="none"/>
    </g>
    <g fill="rgb(154,154,178)" stroke-miterlimit="1.45" transform="matrix(0.5642,0,0,0.5642,116.7792,256.6887)" stroke-linecap="butt" stroke="rgb(154,154,178)">
      <ellipse rx="66.2771" fill="none" ry="16.3574" cx="-132.2771" cy="16.3574"/>
    </g>
    <g font-style="italic" font-size="13" font-weight="bold" font-family="sans-serif" transform="matrix(0.5642,0,0,0.5642,116.7792,256.6887)">
      <text xml:space="preserve" x="-173.7771" y="20.8579" onclick="umlload('http://docs.oracle.com/javase/6/docs/api/java/util/Map.html')" stroke="none">Map&lt;K, V&gt;</text>
    </g>
    <g fill="rgb(238,238,255)" transform="matrix(0.5642,0,0,0.5642,116.7792,256.6887)" stroke="rgb(238,238,255)">
      <rect width="76.1412" x="298.075" height="17.9688" y="-142.7147" stroke="none"/>
    </g>
    <g fill="rgb(166,166,178)" stroke-miterlimit="1.45" transform="matrix(0.5642,0,0,0.5642,116.7792,256.6887)" stroke-linecap="butt" stroke="rgb(166,166,178)">
      <rect fill="none" width="76.1412" x="298.075" height="17.9688" y="-142.7147"/>
    </g>
    <g fill="rgb(238,238,255)" transform="matrix(0.5642,0,0,0.5642,116.7792,256.6887)" stroke="rgb(238,238,255)">
      <rect width="300.0448" x="298.075" height="48.746" y="-124.746" stroke="none"/>
    </g>
    <g fill="rgb(166,166,178)" stroke-miterlimit="1.45" transform="matrix(0.5642,0,0,0.5642,116.7792,256.6887)" stroke-linecap="butt" stroke="rgb(166,166,178)">
      <rect fill="none" width="300.0448" x="298.075" height="48.746" y="-124.746"/>
    </g>
    <g font-family="sans-serif" transform="matrix(0.5642,0,0,0.5642,116.7792,256.6887)">
      <text xml:space="preserve" x="304.075" y="-129.5761" onclick="umlload('http://docs.oracle.com/javase/6/docs/api/java/lang/package-summary.html')" stroke="none">java.lang</text>
    </g>
    <g fill="rgb(221,221,255)" transform="matrix(0.5642,0,0,0.5642,116.7792,256.6887)" stroke="rgb(221,221,255)">
      <rect x="306.075" y="-116.7147" clip-path="url(#clipPath7)" width="284.0448" height="32.7147" stroke="none"/>
    </g>
    <g fill="rgb(154,154,178)" stroke-miterlimit="1.45" transform="matrix(0.5642,0,0,0.5642,116.7792,256.6887)" stroke-linecap="butt" stroke="rgb(154,154,178)">
      <ellipse rx="142.0224" fill="none" ry="16.3574" cx="448.0974" cy="-100.3574"/>
    </g>
    <g font-style="italic" font-size="13" font-weight="bold" font-family="sans-serif" transform="matrix(0.5642,0,0,0.5642,116.7792,256.6887)">
      <text xml:space="preserve" x="354.5974" y="-95.8569" onclick="umlload('http://docs.oracle.com/javase/6/docs/api/java/lang/Iterable.html')" stroke="none">Iterable&lt;AttachedEntity&gt;</text>
    </g>
    <g fill="rgb(238,238,255)" transform="matrix(0.5642,0,0,0.5642,116.7792,256.6887)" stroke="rgb(238,238,255)">
      <rect width="76.1412" x="194.395" height="17.9688" y="-133.1328" stroke="none"/>
    </g>
    <g fill="rgb(166,166,178)" stroke-miterlimit="1.45" transform="matrix(0.5642,0,0,0.5642,116.7792,256.6887)" stroke-linecap="butt" stroke="rgb(166,166,178)">
      <rect fill="none" width="76.1412" x="194.395" height="17.9688" y="-133.1328"/>
    </g>
    <g fill="rgb(238,238,255)" transform="matrix(0.5642,0,0,0.5642,116.7792,256.6887)" stroke="rgb(238,238,255)">
      <rect width="76.1412" x="194.395" height="39.1641" y="-115.1641" stroke="none"/>
    </g>
    <g fill="rgb(166,166,178)" stroke-miterlimit="1.45" transform="matrix(0.5642,0,0,0.5642,116.7792,256.6887)" stroke-linecap="butt" stroke="rgb(166,166,178)">
      <rect fill="none" width="76.1412" x="194.395" height="39.1641" y="-115.1641"/>
    </g>
    <g font-family="sans-serif" transform="matrix(0.5642,0,0,0.5642,116.7792,256.6887)">
      <text xml:space="preserve" x="200.395" y="-119.9941" onclick="umlload('http://docs.oracle.com/javase/6/docs/api/java/lang/package-summary.html')" stroke="none">java.lang</text>
    </g>
    <g fill="rgb(187,187,255)" transform="matrix(0.5642,0,0,0.5642,116.7792,256.6887)" stroke="rgb(187,187,255)">
      <rect x="202.395" y="-107.1328" clip-path="url(#clipPath8)" width="57.68" height="23.1328" stroke="none"/>
    </g>
    <g fill="rgb(130,130,178)" stroke-miterlimit="1.45" transform="matrix(0.5642,0,0,0.5642,116.7792,256.6887)" stroke-linecap="butt" stroke="rgb(130,130,178)">
      <rect fill="none" width="57.68" x="202.395" height="23.1328" y="-107.1328"/>
    </g>
    <g font-size="13" font-weight="bold" font-family="sans-serif" transform="matrix(0.5642,0,0,0.5642,116.7792,256.6887)">
      <text xml:space="preserve" x="207.235" y="-91.0659" onclick="umlload('http://docs.oracle.com/javase/6/docs/api/java/lang/Object.html')" stroke="none">Object</text>
    </g>
    <g fill="rgb(238,238,255)" transform="matrix(0.5642,0,0,0.5642,116.7792,256.6887)" stroke="rgb(238,238,255)">
      <rect width="331.8181" x="-8" height="17.9688" y="-26" stroke="none"/>
    </g>
    <g fill="rgb(166,166,178)" stroke-miterlimit="1.45" transform="matrix(0.5642,0,0,0.5642,116.7792,256.6887)" stroke-linecap="butt" stroke="rgb(166,166,178)">
      <rect fill="none" width="331.8181" x="-8" height="17.9688" y="-26"/>
    </g>
    <g fill="rgb(238,238,255)" transform="matrix(0.5642,0,0,0.5642,116.7792,256.6887)" stroke="rgb(238,238,255)">
      <rect width="478.47" x="-8" height="264.1444" y="-8.0312" stroke="none"/>
    </g>
    <g fill="rgb(166,166,178)" stroke-miterlimit="1.45" transform="matrix(0.5642,0,0,0.5642,116.7792,256.6887)" stroke-linecap="butt" stroke="rgb(166,166,178)">
      <rect fill="none" width="478.47" x="-8" height="264.1444" y="-8.0312"/>
    </g>
    <g font-family="sans-serif" transform="matrix(0.5642,0,0,0.5642,116.7792,256.6887)">
      <text xml:space="preserve" x="-2" y="-12.8613" onclick="umlload('package-summary.html')" stroke="none">com.msopentech.odatajclient.proxy.api.context</text>
    </g>
    <g fill="rgb(187,187,255)" transform="matrix(0.5642,0,0,0.5642,116.7792,256.6887)" stroke="rgb(187,187,255)">
      <rect x="0" y="0" clip-path="url(#clipPath9)" width="462.47" height="26.625" stroke="none"/>
      <line clip-path="url(#clipPath9)" fill="none" x1="0" x2="462.47" y1="26.625" y2="26.625" stroke="black"/>
      <rect x="0" y="27.625" clip-path="url(#clipPath9)" width="462.47" height="15.9688" stroke="none"/>
      <line clip-path="url(#clipPath9)" fill="none" x1="0" x2="462.47" y1="43.5938" y2="43.5938" stroke="black"/>
      <rect x="0" y="44.5938" clip-path="url(#clipPath9)" width="462.47" height="203.5194" stroke="none"/>
    </g>
    <g fill="rgb(130,130,178)" stroke-miterlimit="1.45" transform="matrix(0.5642,0,0,0.5642,116.7792,256.6887)" stroke-linecap="butt" stroke="rgb(130,130,178)">
      <rect fill="none" width="462.47" x="0" height="248.1132" y="0"/>
    </g>
    <g font-size="16" font-weight="bold" font-family="sans-serif" transform="matrix(0.5642,0,0,0.5642,116.7792,256.6887)">
      <text xml:space="preserve" x="170.235" y="18.8516" onclick="umlload('#')" stroke="none">EntityContext</text>
    </g>
    <g font-family="sans-serif" transform="matrix(0.5642,0,0,0.5642,116.7792,256.6887)">
      <text xml:space="preserve" x="4" y="38.1719" stroke="none">+</text>
      <text xml:space="preserve" x="19" y="39.7637" onclick="umlload('#EntityContext()')" stroke="none">EntityContext()</text>
    </g>
    <g font-family="sans-serif" transform="matrix(0.5642,0,0,0.5642,116.7792,256.6887)">
      <text xml:space="preserve" x="4" y="55.1719" stroke="none">+</text>
      <text xml:space="preserve" x="19" y="56.7324" onclick="umlload('#attach(com.msopentech.odatajclient.proxy.api.impl.EntityTypeInvocationHandler)')" stroke="none">attach(EntityTypeInvocationHandler) : void</text>
    </g>
    <g font-family="sans-serif" transform="matrix(0.5642,0,0,0.5642,116.7792,256.6887)">
      <text xml:space="preserve" x="4" y="71.1719" stroke="none">+</text>
      <text xml:space="preserve" x="19" y="72.7012" onclick="umlload('#attach(com.msopentech.odatajclient.proxy.api.impl.EntityTypeInvocationHandler, com.msopentech.odatajclient.proxy.api.context.AttachedEntityStatus)')" stroke="none">attach(EntityTypeInvocationHandler, AttachedEntityStatus) : void</text>
    </g>
    <g font-family="sans-serif" transform="matrix(0.5642,0,0,0.5642,116.7792,256.6887)">
      <text xml:space="preserve" x="4" y="87.1719" stroke="none">+</text>
      <text xml:space="preserve" x="19" y="88.6699" onclick="umlload('#attachNew(com.msopentech.odatajclient.proxy.api.impl.EntityTypeInvocationHandler)')" stroke="none">attachNew(EntityTypeInvocationHandler) : void</text>
    </g>
    <g font-family="sans-serif" transform="matrix(0.5642,0,0,0.5642,116.7792,256.6887)">
      <text xml:space="preserve" x="4" y="103.1719" stroke="none">+</text>
      <text xml:space="preserve" x="19" y="104.6387" onclick="umlload('#detach(com.msopentech.odatajclient.proxy.api.impl.EntityTypeInvocationHandler)')" stroke="none">detach(EntityTypeInvocationHandler) : void</text>
    </g>
    <g font-family="sans-serif" transform="matrix(0.5642,0,0,0.5642,116.7792,256.6887)">
      <text xml:space="preserve" x="4" y="119.1719" stroke="none">+</text>
      <text xml:space="preserve" x="19" y="120.6074" onclick="umlload('#detachAll()')" stroke="none">detachAll() : void</text>
    </g>
    <g font-family="sans-serif" transform="matrix(0.5642,0,0,0.5642,116.7792,256.6887)">
      <text xml:space="preserve" x="4" y="135.1719" stroke="none">+</text>
      <text xml:space="preserve" x="19" y="136.5762" onclick="umlload('#getEntity(com.msopentech.odatajclient.proxy.api.context.EntityUUID)')" stroke="none">getEntity(EntityUUID) : EntityTypeInvocationHandler</text>
    </g>
    <g font-family="sans-serif" transform="matrix(0.5642,0,0,0.5642,116.7792,256.6887)">
      <text xml:space="preserve" x="4" y="151.1719" stroke="none">+</text>
      <text xml:space="preserve" x="19" y="152.5449" onclick="umlload('#getStatus(com.msopentech.odatajclient.proxy.api.impl.EntityTypeInvocationHandler)')" stroke="none">getStatus(EntityTypeInvocationHandler) : AttachedEntityStatus</text>
    </g>
    <g font-family="sans-serif" transform="matrix(0.5642,0,0,0.5642,116.7792,256.6887)">
      <text xml:space="preserve" x="4" y="167.1719" stroke="none">+</text>
      <text xml:space="preserve" x="19" y="168.5137" onclick="umlload('#isAttached(com.msopentech.odatajclient.proxy.api.impl.EntityTypeInvocationHandler)')" stroke="none">isAttached(EntityTypeInvocationHandler) : boolean</text>
    </g>
    <g font-family="sans-serif" transform="matrix(0.5642,0,0,0.5642,116.7792,256.6887)">
      <text xml:space="preserve" x="4" y="183.1719" stroke="none">+</text>
      <text xml:space="preserve" x="19" y="184.4824" onclick="umlload('#iterator()')" stroke="none">iterator() : Iterator&lt;AttachedEntity&gt;</text>
    </g>
    <g font-family="sans-serif" transform="matrix(0.5642,0,0,0.5642,116.7792,256.6887)">
      <text xml:space="preserve" x="4" y="199.1719" stroke="none">+</text>
      <text xml:space="preserve" x="19" y="200.4512" onclick="umlload('#setStatus(com.msopentech.odatajclient.proxy.api.impl.EntityTypeInvocationHandler, com.msopentech.odatajclient.proxy.api.context.AttachedEntityStatus)')" stroke="none">setStatus(EntityTypeInvocationHandler, AttachedEntityStatus) : void</text>
    </g>
    <g font-family="sans-serif" transform="matrix(0.5642,0,0,0.5642,116.7792,256.6887)">
      <text xml:space="preserve" x="-201" y="281.1543" onclick="umlload('http://www.yworks.com/')" stroke="none">yWorks UML Doclet</text>
    </g>
    <g stroke-miterlimit="1.45" transform="matrix(0.5642,0,0,0.5642,116.7792,256.6887)" stroke-linecap="butt">
      <path fill="none" d="M231.235 -0.0434 L231.235 -69"/>
      <path fill="white" d="M231.235 -84 L225.235 -68 L237.235 -68 Z" stroke="none"/>
      <path fill="none" d="M231.235 -84 L225.235 -68 L237.235 -68 Z"/>
      <path fill="none" stroke-dasharray="6,2" d="M346.8525 0.0344 L346.8525 -51 L448.0974 -51 L448.0974 -69"/>
      <path fill="white" stroke-dasharray="6,2" d="M448.0974 -84 L442.0974 -68 L454.0974 -68 Z" stroke="none"/>
      <path fill="none" d="M448.0974 -84 L442.0974 -68 L454.0974 -68 Z"/>
      <path fill="none" d="M0.0019 16.3574 L-66 16.3574"/>
      <line stroke-linecap="square" transform="matrix(-1,0,0,-1,-66,16.3574)" fill="none" x1="0" x2="-14" y1="0" y2="-4" stroke-miterlimit="10"/>
      <line stroke-linecap="square" transform="matrix(-1,0,0,-1,-66,16.3574)" fill="none" x1="0" x2="-14" y1="0" y2="4" stroke-miterlimit="10"/>
    </g>
    <g stroke-dasharray="6,2" stroke-miterlimit="1.45" transform="matrix(0.5642,0,0,0.5642,116.7792,256.6887)" stroke-linecap="butt">
      <path fill="none" d="M462.4792 11.5664 L528.47 11.5664"/>
      <line stroke-linecap="square" transform="matrix(1,0,0,1,528.47,11.5664)" fill="none" x1="0" x2="-14" y1="0" y2="-4" stroke-dasharray="none" stroke-miterlimit="10"/>
      <line stroke-linecap="square" transform="matrix(1,0,0,1,528.47,11.5664)" fill="none" x1="0" x2="-14" y1="0" y2="4" stroke-dasharray="none" stroke-miterlimit="10"/>
    </g>
    <g stroke-dasharray="6,2" stroke-miterlimit="1.45" transform="matrix(0.5642,0,0,0.5642,116.7792,256.6887)" stroke-linecap="butt">
      <path fill="none" d="M462.4741 44.6992 L528.47 44.6992"/>
      <line stroke-linecap="square" transform="matrix(1,0,0,1,528.47,44.6992)" fill="none" x1="0" x2="-14" y1="0" y2="-4" stroke-dasharray="none" stroke-miterlimit="10"/>
      <line stroke-linecap="square" transform="matrix(1,0,0,1,528.47,44.6992)" fill="none" x1="0" x2="-14" y1="0" y2="4" stroke-dasharray="none" stroke-miterlimit="10"/>
    </g>
    <g stroke-dasharray="6,2" stroke-miterlimit="1.45" transform="matrix(0.5642,0,0,0.5642,116.7792,256.6887)" stroke-linecap="butt">
      <path fill="none" d="M462.4314 131.832 L528.47 131.832"/>
      <line stroke-linecap="square" transform="matrix(1,0,0,1,528.47,131.832)" fill="none" x1="0" x2="-14" y1="0" y2="-4" stroke-dasharray="none" stroke-miterlimit="10"/>
      <line stroke-linecap="square" transform="matrix(1,0,0,1,528.47,131.832)" fill="none" x1="0" x2="-14" y1="0" y2="4" stroke-dasharray="none" stroke-miterlimit="10"/>
    </g>
    <g stroke-dasharray="6,2" stroke-miterlimit="1.45" transform="matrix(0.5642,0,0,0.5642,116.7792,256.6887)" stroke-linecap="butt">
      <path fill="none" d="M462.4426 223.7558 L528.47 223.7558"/>
      <line stroke-linecap="square" transform="matrix(1,0,0,1,528.47,223.7558)" fill="none" x1="0" x2="-14" y1="0" y2="-4" stroke-dasharray="none" stroke-miterlimit="10"/>
      <line stroke-linecap="square" transform="matrix(1,0,0,1,528.47,223.7558)" fill="none" x1="0" x2="-14" y1="0" y2="4" stroke-dasharray="none" stroke-miterlimit="10"/>
    </g>
  </g>
</svg>
