<?xml version="1.0" encoding="UTF-8"?><svg xmlns="http://www.w3.org/2000/svg" xmlns:xlink="http://www.w3.org/1999/xlink" fill-opacity="1" color-rendering="auto" color-interpolation="auto" stroke="black" text-rendering="auto" stroke-linecap="square" width="598" stroke-miterlimit="10" stroke-opacity="1" shape-rendering="auto" fill="black" stroke-dasharray="none" font-weight="normal" stroke-width="1" height="598" font-family="'Dialog'" font-style="normal" stroke-linejoin="miter" font-size="12" stroke-dashoffset="0" image-rendering="auto">
  <!--Generated by ySVG-->
  <defs id="genericDefs"/>
  <g>
    <defs id="defs1">
      <clipPath clipPathUnits="userSpaceOnUse" id="clipPath1">
        <path d="M0 0 L598 0 L598 598 L0 598 L0 0 Z"/>
      </clipPath>
      <clipPath clipPathUnits="userSpaceOnUse" id="clipPath2">
        <path d="M798.33 0 L856.01 0 L856.01 23.1328 L798.33 23.1328 L798.33 0 Z"/>
      </clipPath>
      <clipPath clipPathUnits="userSpaceOnUse" id="clipPath3">
        <path d="M-66 277.7558 C-66 286.7897 -102.1949 294.1132 -146.8435 294.1132 C-191.4922 294.1132 -227.687 286.7897 -227.687 277.7558 C-227.687 268.7219 -191.4922 261.3984 -146.8435 261.3984 C-102.1949 261.3984 -66 268.7219 -66 277.7558 Z"/>
      </clipPath>
      <clipPath clipPathUnits="userSpaceOnUse" id="clipPath4">
        <path d="M-130.04 174.2656 L-76.48 174.2656 L-76.48 197.3984 L-130.04 197.3984 L-130.04 174.2656 Z"/>
      </clipPath>
      <clipPath clipPathUnits="userSpaceOnUse" id="clipPath5">
        <path d="M-355.61 87.1328 L-131.07 87.1328 L-131.07 110.2656 L-355.61 110.2656 L-355.61 87.1328 Z"/>
      </clipPath>
      <clipPath clipPathUnits="userSpaceOnUse" id="clipPath6">
        <path d="M-346.34 0 L-223.77 0 L-223.77 23.1328 L-346.34 23.1328 L-346.34 0 Z"/>
      </clipPath>
      <clipPath clipPathUnits="userSpaceOnUse" id="clipPath7">
        <path d="M575.0159 -100.3574 C575.0159 -91.3234 545.0165 -84 508.0104 -84 C471.0044 -84 441.005 -91.3234 441.005 -100.3574 C441.005 -109.3913 471.0044 -116.7147 508.0104 -116.7147 C545.0165 -116.7147 575.0159 -109.3913 575.0159 -100.3574 Z"/>
      </clipPath>
      <clipPath clipPathUnits="userSpaceOnUse" id="clipPath8">
        <path d="M337.325 -107.1328 L395.005 -107.1328 L395.005 -84 L337.325 -84 L337.325 -107.1328 Z"/>
      </clipPath>
      <clipPath clipPathUnits="userSpaceOnUse" id="clipPath9">
        <path d="M-0 0 L732.33 0 L732.33 302.1132 L-0 302.1132 L-0 0 Z"/>
      </clipPath>
      <script type="text/ecmascript"><![CDATA[
function umlload(newLocation)
{
if (newLocation.charAt(0) != '#') {
if (newLocation.indexOf("://") > -1) {
window.parent.location.href = newLocation;
} else {
var tmp = window.parent.location.href;
tmp = tmp.substring(0, tmp.lastIndexOf("/") + 1);
window.parent.location.href = tmp.concat(newLocation);
}
} else {
window.parent.location.hash = newLocation;
}
}
]]></script>
    </defs>
    <g fill="rgb(238,238,255)" transform="matrix(0.4842,0,0,0.4842,176.2526,249.8526)" stroke="rgb(238,238,255)">
      <rect width="76.1412" x="790.33" height="17.9688" y="-26" stroke="none"/>
    </g>
    <g fill="rgb(166,166,178)" stroke-miterlimit="1.45" transform="matrix(0.4842,0,0,0.4842,176.2526,249.8526)" stroke-linecap="butt" stroke="rgb(166,166,178)">
      <rect fill="none" width="76.1412" x="790.33" height="17.9688" y="-26"/>
    </g>
    <g fill="rgb(238,238,255)" transform="matrix(0.4842,0,0,0.4842,176.2526,249.8526)" stroke="rgb(238,238,255)">
      <rect width="79.68" x="790.33" height="39.1641" y="-8.0312" stroke="none"/>
    </g>
    <g fill="rgb(166,166,178)" stroke-miterlimit="1.45" transform="matrix(0.4842,0,0,0.4842,176.2526,249.8526)" stroke-linecap="butt" stroke="rgb(166,166,178)">
      <rect fill="none" width="79.68" x="790.33" height="39.1641" y="-8.0312"/>
    </g>
    <g font-family="sans-serif" transform="matrix(0.4842,0,0,0.4842,176.2526,249.8526)">
      <text xml:space="preserve" x="796.33" y="-12.8613" onclick="umlload('http://docs.oracle.com/javase/6/docs/api/java/lang/package-summary.html')" stroke="none">java.lang</text>
    </g>
    <g fill="rgb(187,187,255)" transform="matrix(0.4842,0,0,0.4842,176.2526,249.8526)" stroke="rgb(187,187,255)">
      <rect x="798.33" y="0" clip-path="url(#clipPath2)" width="57.68" height="23.1328" stroke="none"/>
    </g>
    <g fill="rgb(130,130,178)" stroke-miterlimit="1.45" transform="matrix(0.4842,0,0,0.4842,176.2526,249.8526)" stroke-linecap="butt" stroke="rgb(130,130,178)">
      <rect fill="none" width="57.68" x="798.33" height="23.1328" y="0"/>
    </g>
    <g font-size="13" font-weight="bold" font-family="sans-serif" transform="matrix(0.4842,0,0,0.4842,176.2526,249.8526)">
      <text xml:space="preserve" x="803.17" y="16.0669" onclick="umlload('http://docs.oracle.com/javase/6/docs/api/java/lang/Object.html')" stroke="none">Object</text>
    </g>
    <g fill="rgb(238,238,255)" transform="matrix(0.4842,0,0,0.4842,176.2526,249.8526)" stroke="rgb(238,238,255)">
      <rect width="67.654" x="-235.687" height="17.9688" y="235.3984" stroke="none"/>
    </g>
    <g fill="rgb(166,166,178)" stroke-miterlimit="1.45" transform="matrix(0.4842,0,0,0.4842,176.2526,249.8526)" stroke-linecap="butt" stroke="rgb(166,166,178)">
      <rect fill="none" width="67.654" x="-235.687" height="17.9688" y="235.3984"/>
    </g>
    <g fill="rgb(238,238,255)" transform="matrix(0.4842,0,0,0.4842,176.2526,249.8526)" stroke="rgb(238,238,255)">
      <rect width="177.687" x="-235.687" height="48.746" y="253.3672" stroke="none"/>
    </g>
    <g fill="rgb(166,166,178)" stroke-miterlimit="1.45" transform="matrix(0.4842,0,0,0.4842,176.2526,249.8526)" stroke-linecap="butt" stroke="rgb(166,166,178)">
      <rect fill="none" width="177.687" x="-235.687" height="48.746" y="253.3672"/>
    </g>
    <g font-family="sans-serif" transform="matrix(0.4842,0,0,0.4842,176.2526,249.8526)">
      <text xml:space="preserve" x="-229.687" y="248.5371" onclick="umlload('http://docs.oracle.com/javase/6/docs/api/java/util/package-summary.html')" stroke="none">java.util</text>
    </g>
    <g fill="rgb(221,221,255)" transform="matrix(0.4842,0,0,0.4842,176.2526,249.8526)" stroke="rgb(221,221,255)">
      <rect x="-227.687" y="261.3984" clip-path="url(#clipPath3)" width="161.687" height="32.7147" stroke="none"/>
    </g>
    <g fill="rgb(154,154,178)" stroke-miterlimit="1.45" transform="matrix(0.4842,0,0,0.4842,176.2526,249.8526)" stroke-linecap="butt" stroke="rgb(154,154,178)">
      <ellipse rx="80.8435" fill="none" ry="16.3574" cx="-146.8435" cy="277.7558"/>
    </g>
    <g font-style="italic" font-size="13" font-weight="bold" font-family="sans-serif" transform="matrix(0.4842,0,0,0.4842,176.2526,249.8526)">
      <text xml:space="preserve" x="-198.3435" y="282.2563" onclick="umlload('http://docs.oracle.com/javase/6/docs/api/java/util/Collection.html')" stroke="none">Collection&lt;E&gt;</text>
    </g>
    <g fill="rgb(238,238,255)" transform="matrix(0.4842,0,0,0.4842,176.2526,249.8526)" stroke="rgb(238,238,255)">
      <rect width="76.1412" x="-138.04" height="17.9688" y="148.2656" stroke="none"/>
    </g>
    <g fill="rgb(166,166,178)" stroke-miterlimit="1.45" transform="matrix(0.4842,0,0,0.4842,176.2526,249.8526)" stroke-linecap="butt" stroke="rgb(166,166,178)">
      <rect fill="none" width="76.1412" x="-138.04" height="17.9688" y="148.2656"/>
    </g>
    <g fill="rgb(238,238,255)" transform="matrix(0.4842,0,0,0.4842,176.2526,249.8526)" stroke="rgb(238,238,255)">
      <rect width="79.56" x="-138.04" height="39.1641" y="166.2344" stroke="none"/>
    </g>
    <g fill="rgb(166,166,178)" stroke-miterlimit="1.45" transform="matrix(0.4842,0,0,0.4842,176.2526,249.8526)" stroke-linecap="butt" stroke="rgb(166,166,178)">
      <rect fill="none" width="79.56" x="-138.04" height="39.1641" y="166.2344"/>
    </g>
    <g font-family="sans-serif" transform="matrix(0.4842,0,0,0.4842,176.2526,249.8526)">
      <text xml:space="preserve" x="-132.04" y="161.4043" onclick="umlload('http://docs.oracle.com/javase/6/docs/api/java/lang/package-summary.html')" stroke="none">java.lang</text>
    </g>
    <g fill="rgb(187,187,255)" transform="matrix(0.4842,0,0,0.4842,176.2526,249.8526)" stroke="rgb(187,187,255)">
      <rect x="-130.04" y="174.2656" clip-path="url(#clipPath4)" width="53.56" height="23.1328" stroke="none"/>
    </g>
    <g fill="rgb(130,130,178)" stroke-miterlimit="1.45" transform="matrix(0.4842,0,0,0.4842,176.2526,249.8526)" stroke-linecap="butt" stroke="rgb(130,130,178)">
      <rect fill="none" width="53.56" x="-130.04" height="23.1328" y="174.2656"/>
    </g>
    <g font-size="13" font-weight="bold" font-family="sans-serif" transform="matrix(0.4842,0,0,0.4842,176.2526,249.8526)">
      <text xml:space="preserve" x="-125.26" y="190.3325" onclick="umlload('http://docs.oracle.com/javase/6/docs/api/java/lang/String.html')" stroke="none">String</text>
    </g>
    <g fill="rgb(238,238,255)" transform="matrix(0.4842,0,0,0.4842,176.2526,249.8526)" stroke="rgb(238,238,255)">
      <rect width="308.4783" x="-363.61" height="17.9688" y="61.1328" stroke="none"/>
    </g>
    <g fill="rgb(166,166,178)" stroke-miterlimit="1.45" transform="matrix(0.4842,0,0,0.4842,176.2526,249.8526)" stroke-linecap="butt" stroke="rgb(166,166,178)">
      <rect fill="none" width="308.4783" x="-363.61" height="17.9688" y="61.1328"/>
    </g>
    <g fill="rgb(238,238,255)" transform="matrix(0.4842,0,0,0.4842,176.2526,249.8526)" stroke="rgb(238,238,255)">
      <rect width="308.54" x="-363.61" height="39.1641" y="79.1016" stroke="none"/>
    </g>
    <g fill="rgb(166,166,178)" stroke-miterlimit="1.45" transform="matrix(0.4842,0,0,0.4842,176.2526,249.8526)" stroke-linecap="butt" stroke="rgb(166,166,178)">
      <rect fill="none" width="308.54" x="-363.61" height="39.1641" y="79.1016"/>
    </g>
    <g font-family="sans-serif" transform="matrix(0.4842,0,0,0.4842,176.2526,249.8526)">
      <text xml:space="preserve" x="-357.61" y="74.2715" onclick="umlload('../../../../../../com/msopentech/odatajclient/proxy/api/impl/package-summary.html')" stroke="none">com.msopentech.odatajclient.proxy.api.impl</text>
    </g>
    <g fill="rgb(187,187,255)" transform="matrix(0.4842,0,0,0.4842,176.2526,249.8526)" stroke="rgb(187,187,255)">
      <rect x="-355.61" y="87.1328" clip-path="url(#clipPath5)" width="224.54" height="23.1328" stroke="none"/>
    </g>
    <g fill="rgb(130,130,178)" stroke-miterlimit="1.45" transform="matrix(0.4842,0,0,0.4842,176.2526,249.8526)" stroke-linecap="butt" stroke="rgb(130,130,178)">
      <rect fill="none" width="224.54" x="-355.61" height="23.1328" y="87.1328"/>
    </g>
    <g font-size="13" font-weight="bold" font-family="sans-serif" transform="matrix(0.4842,0,0,0.4842,176.2526,249.8526)">
      <text xml:space="preserve" x="-348.34" y="103.1997" onclick="umlload('../../../../../../com/msopentech/odatajclient/proxy/api/impl/EntityTypeInvocationHandler.html')" stroke="none">EntityTypeInvocationHandler</text>
    </g>
    <g fill="rgb(238,238,255)" transform="matrix(0.4842,0,0,0.4842,176.2526,249.8526)" stroke="rgb(238,238,255)">
      <rect width="298.9302" x="-354.34" height="17.9688" y="-26" stroke="none"/>
    </g>
    <g fill="rgb(166,166,178)" stroke-miterlimit="1.45" transform="matrix(0.4842,0,0,0.4842,176.2526,249.8526)" stroke-linecap="butt" stroke="rgb(166,166,178)">
      <rect fill="none" width="298.9302" x="-354.34" height="17.9688" y="-26"/>
    </g>
    <g fill="rgb(238,238,255)" transform="matrix(0.4842,0,0,0.4842,176.2526,249.8526)" stroke="rgb(238,238,255)">
      <rect width="298.9302" x="-354.34" height="39.1641" y="-8.0312" stroke="none"/>
    </g>
    <g fill="rgb(166,166,178)" stroke-miterlimit="1.45" transform="matrix(0.4842,0,0,0.4842,176.2526,249.8526)" stroke-linecap="butt" stroke="rgb(166,166,178)">
      <rect fill="none" width="298.9302" x="-354.34" height="39.1641" y="-8.0312"/>
    </g>
    <g font-family="sans-serif" transform="matrix(0.4842,0,0,0.4842,176.2526,249.8526)">
      <text xml:space="preserve" x="-348.34" y="-12.8613" onclick="umlload('../../../../../../com/msopentech/odatajclient/engine/data/package-summary.html')" stroke="none">com.msopentech.odatajclient.engine.data</text>
    </g>
    <g fill="rgb(170,170,255)" transform="matrix(0.4842,0,0,0.4842,176.2526,249.8526)" stroke="rgb(170,170,255)">
      <rect x="-346.34" y="0" clip-path="url(#clipPath6)" width="122.57" height="23.1328" stroke="none"/>
    </g>
    <g fill="rgb(118,118,178)" stroke-miterlimit="1.45" transform="matrix(0.4842,0,0,0.4842,176.2526,249.8526)" stroke-linecap="butt" stroke="rgb(118,118,178)">
      <rect fill="none" width="122.57" x="-346.34" height="23.1328" y="0"/>
    </g>
    <g font-size="13" font-weight="bold" font-family="sans-serif" transform="matrix(0.4842,0,0,0.4842,176.2526,249.8526)">
      <text xml:space="preserve" x="-340.555" y="16.0669" onclick="umlload('../../../../../../com/msopentech/odatajclient/engine/data/ODataLinkType.html')" stroke="none">ODataLinkType</text>
    </g>
    <g fill="rgb(238,238,255)" transform="matrix(0.4842,0,0,0.4842,176.2526,249.8526)" stroke="rgb(238,238,255)">
      <rect width="59.1668" x="433.005" height="17.9688" y="-142.7147" stroke="none"/>
    </g>
    <g fill="rgb(166,166,178)" stroke-miterlimit="1.45" transform="matrix(0.4842,0,0,0.4842,176.2526,249.8526)" stroke-linecap="butt" stroke="rgb(166,166,178)">
      <rect fill="none" width="59.1668" x="433.005" height="17.9688" y="-142.7147"/>
    </g>
    <g fill="rgb(238,238,255)" transform="matrix(0.4842,0,0,0.4842,176.2526,249.8526)" stroke="rgb(238,238,255)">
      <rect width="150.0109" x="433.005" height="48.746" y="-124.746" stroke="none"/>
    </g>
    <g fill="rgb(166,166,178)" stroke-miterlimit="1.45" transform="matrix(0.4842,0,0,0.4842,176.2526,249.8526)" stroke-linecap="butt" stroke="rgb(166,166,178)">
      <rect fill="none" width="150.0109" x="433.005" height="48.746" y="-124.746"/>
    </g>
    <g font-family="sans-serif" transform="matrix(0.4842,0,0,0.4842,176.2526,249.8526)">
      <text xml:space="preserve" x="439.005" y="-129.5761" onclick="umlload('http://docs.oracle.com/javase/6/docs/api/java/io/package-summary.html')" stroke="none">java.io</text>
    </g>
    <g fill="rgb(221,221,255)" transform="matrix(0.4842,0,0,0.4842,176.2526,249.8526)" stroke="rgb(221,221,255)">
      <rect x="441.005" y="-116.7147" clip-path="url(#clipPath7)" width="134.0109" height="32.7147" stroke="none"/>
    </g>
    <g fill="rgb(154,154,178)" stroke-miterlimit="1.45" transform="matrix(0.4842,0,0,0.4842,176.2526,249.8526)" stroke-linecap="butt" stroke="rgb(154,154,178)">
      <ellipse rx="67.0054" fill="none" ry="16.3574" cx="508.0104" cy="-100.3574"/>
    </g>
    <g font-style="italic" font-size="13" font-weight="bold" font-family="sans-serif" transform="matrix(0.4842,0,0,0.4842,176.2526,249.8526)">
      <text xml:space="preserve" x="466.0104" y="-95.8569" onclick="umlload('http://docs.oracle.com/javase/6/docs/api/java/io/Serializable.html')" stroke="none">Serializable</text>
    </g>
    <g fill="rgb(238,238,255)" transform="matrix(0.4842,0,0,0.4842,176.2526,249.8526)" stroke="rgb(238,238,255)">
      <rect width="76.1412" x="329.325" height="17.9688" y="-133.1328" stroke="none"/>
    </g>
    <g fill="rgb(166,166,178)" stroke-miterlimit="1.45" transform="matrix(0.4842,0,0,0.4842,176.2526,249.8526)" stroke-linecap="butt" stroke="rgb(166,166,178)">
      <rect fill="none" width="76.1412" x="329.325" height="17.9688" y="-133.1328"/>
    </g>
    <g fill="rgb(238,238,255)" transform="matrix(0.4842,0,0,0.4842,176.2526,249.8526)" stroke="rgb(238,238,255)">
      <rect width="76.1412" x="329.325" height="39.1641" y="-115.1641" stroke="none"/>
    </g>
    <g fill="rgb(166,166,178)" stroke-miterlimit="1.45" transform="matrix(0.4842,0,0,0.4842,176.2526,249.8526)" stroke-linecap="butt" stroke="rgb(166,166,178)">
      <rect fill="none" width="76.1412" x="329.325" height="39.1641" y="-115.1641"/>
    </g>
    <g font-family="sans-serif" transform="matrix(0.4842,0,0,0.4842,176.2526,249.8526)">
      <text xml:space="preserve" x="335.325" y="-119.9941" onclick="umlload('http://docs.oracle.com/javase/6/docs/api/java/lang/package-summary.html')" stroke="none">java.lang</text>
    </g>
    <g fill="rgb(187,187,255)" transform="matrix(0.4842,0,0,0.4842,176.2526,249.8526)" stroke="rgb(187,187,255)">
      <rect x="337.325" y="-107.1328" clip-path="url(#clipPath8)" width="57.68" height="23.1328" stroke="none"/>
    </g>
    <g fill="rgb(130,130,178)" stroke-miterlimit="1.45" transform="matrix(0.4842,0,0,0.4842,176.2526,249.8526)" stroke-linecap="butt" stroke="rgb(130,130,178)">
      <rect fill="none" width="57.68" x="337.325" height="23.1328" y="-107.1328"/>
    </g>
    <g font-size="13" font-weight="bold" font-family="sans-serif" transform="matrix(0.4842,0,0,0.4842,176.2526,249.8526)">
      <text xml:space="preserve" x="342.165" y="-91.0659" onclick="umlload('http://docs.oracle.com/javase/6/docs/api/java/lang/Object.html')" stroke="none">Object</text>
    </g>
    <g fill="rgb(238,238,255)" transform="matrix(0.4842,0,0,0.4842,176.2526,249.8526)" stroke="rgb(238,238,255)">
      <rect width="331.8181" x="-8" height="17.9688" y="-26" stroke="none"/>
    </g>
    <g fill="rgb(166,166,178)" stroke-miterlimit="1.45" transform="matrix(0.4842,0,0,0.4842,176.2526,249.8526)" stroke-linecap="butt" stroke="rgb(166,166,178)">
      <rect fill="none" width="331.8181" x="-8" height="17.9688" y="-26"/>
    </g>
    <g fill="rgb(238,238,255)" transform="matrix(0.4842,0,0,0.4842,176.2526,249.8526)" stroke="rgb(238,238,255)">
      <rect width="748.33" x="-8" height="318.1444" y="-8.0312" stroke="none"/>
    </g>
    <g fill="rgb(166,166,178)" stroke-miterlimit="1.45" transform="matrix(0.4842,0,0,0.4842,176.2526,249.8526)" stroke-linecap="butt" stroke="rgb(166,166,178)">
      <rect fill="none" width="748.33" x="-8" height="318.1444" y="-8.0312"/>
    </g>
    <g font-family="sans-serif" transform="matrix(0.4842,0,0,0.4842,176.2526,249.8526)">
      <text xml:space="preserve" x="-2" y="-12.8613" onclick="umlload('package-summary.html')" stroke="none">com.msopentech.odatajclient.proxy.api.context</text>
    </g>
    <g fill="rgb(187,187,255)" transform="matrix(0.4842,0,0,0.4842,176.2526,249.8526)" stroke="rgb(187,187,255)">
      <rect x="0" y="0" clip-path="url(#clipPath9)" width="732.33" height="26.625" stroke="none"/>
      <line clip-path="url(#clipPath9)" fill="none" x1="0" x2="732.33" y1="26.625" y2="26.625" stroke="black"/>
      <rect x="0" y="27.625" clip-path="url(#clipPath9)" width="732.33" height="31.9375" stroke="none"/>
      <line clip-path="url(#clipPath9)" fill="none" x1="0" x2="732.33" y1="59.5625" y2="59.5625" stroke="black"/>
      <rect x="0" y="60.5625" clip-path="url(#clipPath9)" width="732.33" height="241.5507" stroke="none"/>
    </g>
    <g fill="rgb(130,130,178)" stroke-miterlimit="1.45" transform="matrix(0.4842,0,0,0.4842,176.2526,249.8526)" stroke-linecap="butt" stroke="rgb(130,130,178)">
      <rect fill="none" width="732.33" x="0" height="302.1132" y="0"/>
    </g>
    <g font-size="16" font-weight="bold" font-family="sans-serif" transform="matrix(0.4842,0,0,0.4842,176.2526,249.8526)">
      <text xml:space="preserve" x="300.665" y="18.8516" onclick="umlload('#')" stroke="none">EntityLinkDesc</text>
    </g>
    <g font-family="sans-serif" transform="matrix(0.4842,0,0,0.4842,176.2526,249.8526)">
      <text xml:space="preserve" x="4" y="38.1719" stroke="none">+</text>
      <text xml:space="preserve" x="19" y="39.7637" onclick="umlload('#EntityLinkDesc(java.lang.String, com.msopentech.odatajclient.proxy.api.impl.EntityTypeInvocationHandler, com.msopentech.odatajclient.proxy.api.impl.EntityTypeInvocationHandler, com.msopentech.odatajclient.engine.data.ODataLinkType)')" stroke="none">EntityLinkDesc(String, EntityTypeInvocationHandler, EntityTypeInvocationHandler, ODataLinkType)</text>
    </g>
    <g font-family="sans-serif" transform="matrix(0.4842,0,0,0.4842,176.2526,249.8526)">
      <text xml:space="preserve" x="4" y="54.1719" stroke="none">+</text>
      <text xml:space="preserve" x="19" y="55.7324" onclick="umlload('#EntityLinkDesc(java.lang.String, com.msopentech.odatajclient.proxy.api.impl.EntityTypeInvocationHandler, java.util.Collection, com.msopentech.odatajclient.engine.data.ODataLinkType)')" stroke="none">EntityLinkDesc(String, EntityTypeInvocationHandler, Collection&lt;EntityTypeInvocationHandler&gt;, ODataLinkType)</text>
    </g>
    <g font-family="sans-serif" transform="matrix(0.4842,0,0,0.4842,176.2526,249.8526)">
      <text xml:space="preserve" x="4" y="71.1719" stroke="none">+</text>
      <text xml:space="preserve" x="19" y="72.7012" onclick="umlload('#equals(java.lang.Object)')" stroke="none">equals(Object) : boolean</text>
    </g>
    <g font-family="sans-serif" transform="matrix(0.4842,0,0,0.4842,176.2526,249.8526)">
      <text xml:space="preserve" x="4" y="87.1719" stroke="none">+</text>
      <text xml:space="preserve" x="19" y="88.6699" onclick="umlload('#getSource()')" stroke="none">getSource() : EntityTypeInvocationHandler</text>
    </g>
    <g font-family="sans-serif" transform="matrix(0.4842,0,0,0.4842,176.2526,249.8526)">
      <text xml:space="preserve" x="4" y="103.1719" stroke="none">+</text>
      <text xml:space="preserve" x="19" y="104.6387" onclick="umlload('#getSourceName()')" stroke="none">getSourceName() : String</text>
    </g>
    <g font-family="sans-serif" transform="matrix(0.4842,0,0,0.4842,176.2526,249.8526)">
      <text xml:space="preserve" x="4" y="119.1719" stroke="none">+</text>
      <text xml:space="preserve" x="19" y="120.6074" onclick="umlload('#getTargets()')" stroke="none">getTargets() : Collection&lt;EntityTypeInvocationHandler&gt;</text>
    </g>
    <g font-family="sans-serif" transform="matrix(0.4842,0,0,0.4842,176.2526,249.8526)">
      <text xml:space="preserve" x="4" y="135.1719" stroke="none">+</text>
      <text xml:space="preserve" x="19" y="136.5762" onclick="umlload('#getType()')" stroke="none">getType() : ODataLinkType</text>
    </g>
    <g font-family="sans-serif" transform="matrix(0.4842,0,0,0.4842,176.2526,249.8526)">
      <text xml:space="preserve" x="4" y="151.1719" stroke="none">+</text>
      <text xml:space="preserve" x="19" y="152.5449" onclick="umlload('#hashCode()')" stroke="none">hashCode() : int</text>
    </g>
    <g font-family="sans-serif" transform="matrix(0.4842,0,0,0.4842,176.2526,249.8526)">
      <text xml:space="preserve" x="4" y="167.1719" stroke="none">+</text>
      <text xml:space="preserve" x="19" y="168.5137" onclick="umlload('#toString()')" stroke="none">toString() : String</text>
    </g>
    <g font-family="sans-serif" transform="matrix(0.4842,0,0,0.4842,176.2526,249.8526)">
      <text xml:space="preserve" x="-358" y="335.1543" onclick="umlload('http://www.yworks.com/')" stroke="none">yWorks UML Doclet</text>
    </g>
    <g stroke-miterlimit="1.45" transform="matrix(0.4842,0,0,0.4842,176.2526,249.8526)" stroke-linecap="butt">
      <path fill="none" d="M366.165 -0.0384 L366.165 -69"/>
      <path fill="white" d="M366.165 -84 L360.165 -68 L372.165 -68 Z" stroke="none"/>
      <path fill="none" d="M366.165 -84 L360.165 -68 L372.165 -68 Z"/>
      <path fill="none" stroke-dasharray="6,2" d="M549.2475 0.0041 L549.2475 -51 L508.0104 -51 L508.0104 -69"/>
      <path fill="white" stroke-dasharray="6,2" d="M508.0104 -84 L502.0104 -68 L514.0104 -68 Z" stroke="none"/>
      <path fill="none" d="M508.0104 -84 L502.0104 -68 L514.0104 -68 Z"/>
      <path fill="none" d="M-0.027 11.5664 L-223.77 11.5664"/>
      <line stroke-linecap="square" transform="matrix(-1,0,0,-1,-223.77,11.5664)" fill="none" x1="0" x2="-14" y1="0" y2="-4" stroke-miterlimit="10"/>
      <line stroke-linecap="square" transform="matrix(-1,0,0,-1,-223.77,11.5664)" fill="none" x1="0" x2="-14" y1="0" y2="4" stroke-miterlimit="10"/>
    </g>
    <g stroke-miterlimit="1.45" transform="matrix(0.4842,0,0,0.4842,176.2526,249.8526)" stroke-linecap="butt">
      <path fill="none" d="M-0.0067 98.6992 L-131.07 98.6992"/>
      <line stroke-linecap="square" transform="matrix(-1,0,0,-1,-131.07,98.6992)" fill="none" x1="0" x2="-14" y1="0" y2="-4" stroke-miterlimit="10"/>
      <line stroke-linecap="square" transform="matrix(-1,0,0,-1,-131.07,98.6992)" fill="none" x1="0" x2="-14" y1="0" y2="4" stroke-miterlimit="10"/>
    </g>
    <g stroke-miterlimit="1.45" transform="matrix(0.4842,0,0,0.4842,176.2526,249.8526)" stroke-linecap="butt">
      <path fill="none" d="M0.0284 185.832 L-76.48 185.832"/>
      <line stroke-linecap="square" transform="matrix(-1,0,0,-1,-76.48,185.832)" fill="none" x1="0" x2="-14" y1="0" y2="-4" stroke-miterlimit="10"/>
      <line stroke-linecap="square" transform="matrix(-1,0,0,-1,-76.48,185.832)" fill="none" x1="0" x2="-14" y1="0" y2="4" stroke-miterlimit="10"/>
    </g>
    <g stroke-miterlimit="1.45" transform="matrix(0.4842,0,0,0.4842,176.2526,249.8526)" stroke-linecap="butt">
      <path fill="none" d="M-0.0236 277.7558 L-66 277.7558"/>
      <line stroke-linecap="square" transform="matrix(-1,0,0,-1,-66,277.7558)" fill="none" x1="0" x2="-14" y1="0" y2="-4" stroke-miterlimit="10"/>
      <line stroke-linecap="square" transform="matrix(-1,0,0,-1,-66,277.7558)" fill="none" x1="0" x2="-14" y1="0" y2="4" stroke-miterlimit="10"/>
    </g>
    <g stroke-dasharray="6,2" stroke-miterlimit="1.45" transform="matrix(0.4842,0,0,0.4842,176.2526,249.8526)" stroke-linecap="butt">
      <path fill="none" d="M732.3184 11.5664 L798.33 11.5664"/>
      <line stroke-linecap="square" transform="matrix(1,0,0,1,798.33,11.5664)" fill="none" x1="0" x2="-14" y1="0" y2="-4" stroke-dasharray="none" stroke-miterlimit="10"/>
      <line stroke-linecap="square" transform="matrix(1,0,0,1,798.33,11.5664)" fill="none" x1="0" x2="-14" y1="0" y2="4" stroke-dasharray="none" stroke-miterlimit="10"/>
    </g>
  </g>
</svg>
