<?xml version="1.0" encoding="UTF-8"?><svg xmlns="http://www.w3.org/2000/svg" xmlns:xlink="http://www.w3.org/1999/xlink" fill-opacity="1" color-rendering="auto" color-interpolation="auto" stroke="black" text-rendering="auto" stroke-linecap="square" width="552" stroke-miterlimit="10" stroke-opacity="1" shape-rendering="auto" fill="black" stroke-dasharray="none" font-weight="normal" stroke-width="1" height="271" font-family="'Dialog'" font-style="normal" stroke-linejoin="miter" font-size="12" stroke-dashoffset="0" image-rendering="auto">
  <!--Generated by ySVG-->
  <defs id="genericDefs"/>
  <g>
    <defs id="defs1">
      <clipPath clipPathUnits="userSpaceOnUse" id="clipPath1">
        <path d="M0 0 L552 0 L552 271 L0 271 L0 0 Z"/>
      </clipPath>
      <clipPath clipPathUnits="userSpaceOnUse" id="clipPath2">
        <path d="M-130.04 0 L-76.48 0 L-76.48 23.1328 L-130.04 23.1328 L-130.04 0 Z"/>
      </clipPath>
      <clipPath clipPathUnits="userSpaceOnUse" id="clipPath3">
        <path d="M83.945 -107.1328 L141.625 -107.1328 L141.625 -84 L83.945 -84 L83.945 -107.1328 Z"/>
      </clipPath>
      <clipPath clipPathUnits="userSpaceOnUse" id="clipPath4">
        <path d="M0 0 L225.57 0 L225.57 93.5 L0 93.5 L0 0 Z"/>
      </clipPath>
      <script type="text/ecmascript"><![CDATA[
function umlload(newLocation)
{
if (newLocation.charAt(0) != '#') {
if (newLocation.indexOf("://") > -1) {
window.parent.location.href = newLocation;
} else {
var tmp = window.parent.location.href;
tmp = tmp.substring(0, tmp.lastIndexOf("/") + 1);
window.parent.location.href = tmp.concat(newLocation);
}
} else {
window.parent.location.hash = newLocation;
}
}
]]></script>
    </defs>
    <g fill="rgb(238,238,255)" transform="matrix(1,0,0,1,139,134)" stroke="rgb(238,238,255)">
      <rect width="76.1412" x="-138.04" height="17.9688" y="-26" stroke="none"/>
    </g>
    <g fill="rgb(166,166,178)" stroke-miterlimit="1.45" transform="matrix(1,0,0,1,139,134)" stroke-linecap="butt" stroke="rgb(166,166,178)">
      <rect fill="none" width="76.1412" x="-138.04" height="17.9688" y="-26"/>
    </g>
    <g fill="rgb(238,238,255)" transform="matrix(1,0,0,1,139,134)" stroke="rgb(238,238,255)">
      <rect width="79.56" x="-138.04" height="39.1641" y="-8.0312" stroke="none"/>
    </g>
    <g fill="rgb(166,166,178)" stroke-miterlimit="1.45" transform="matrix(1,0,0,1,139,134)" stroke-linecap="butt" stroke="rgb(166,166,178)">
      <rect fill="none" width="79.56" x="-138.04" height="39.1641" y="-8.0312"/>
    </g>
    <g font-family="sans-serif" transform="matrix(1,0,0,1,139,134)">
      <text xml:space="preserve" x="-132.04" y="-12.8613" onclick="umlload('http://docs.oracle.com/javase/6/docs/api/java/lang/package-summary.html')" stroke="none">java.lang</text>
    </g>
    <g fill="rgb(187,187,255)" transform="matrix(1,0,0,1,139,134)" stroke="rgb(187,187,255)">
      <rect x="-130.04" y="0" clip-path="url(#clipPath2)" width="53.56" height="23.1328" stroke="none"/>
    </g>
    <g fill="rgb(130,130,178)" stroke-miterlimit="1.45" transform="matrix(1,0,0,1,139,134)" stroke-linecap="butt" stroke="rgb(130,130,178)">
      <rect fill="none" width="53.56" x="-130.04" height="23.1328" y="0"/>
    </g>
    <g font-size="13" font-weight="bold" font-family="sans-serif" transform="matrix(1,0,0,1,139,134)">
      <text xml:space="preserve" x="-125.26" y="16.0669" onclick="umlload('http://docs.oracle.com/javase/6/docs/api/java/lang/String.html')" stroke="none">String</text>
    </g>
    <g fill="rgb(238,238,255)" transform="matrix(1,0,0,1,139,134)" stroke="rgb(238,238,255)">
      <rect width="76.1412" x="75.945" height="17.9688" y="-133.1328" stroke="none"/>
    </g>
    <g fill="rgb(166,166,178)" stroke-miterlimit="1.45" transform="matrix(1,0,0,1,139,134)" stroke-linecap="butt" stroke="rgb(166,166,178)">
      <rect fill="none" width="76.1412" x="75.945" height="17.9688" y="-133.1328"/>
    </g>
    <g fill="rgb(238,238,255)" transform="matrix(1,0,0,1,139,134)" stroke="rgb(238,238,255)">
      <rect width="76.1412" x="75.945" height="39.1641" y="-115.1641" stroke="none"/>
    </g>
    <g fill="rgb(166,166,178)" stroke-miterlimit="1.45" transform="matrix(1,0,0,1,139,134)" stroke-linecap="butt" stroke="rgb(166,166,178)">
      <rect fill="none" width="76.1412" x="75.945" height="39.1641" y="-115.1641"/>
    </g>
    <g font-family="sans-serif" transform="matrix(1,0,0,1,139,134)">
      <text xml:space="preserve" x="81.945" y="-119.9941" onclick="umlload('http://docs.oracle.com/javase/6/docs/api/java/lang/package-summary.html')" stroke="none">java.lang</text>
    </g>
    <g fill="rgb(187,187,255)" transform="matrix(1,0,0,1,139,134)" stroke="rgb(187,187,255)">
      <rect x="83.945" y="-107.1328" clip-path="url(#clipPath3)" width="57.68" height="23.1328" stroke="none"/>
    </g>
    <g fill="rgb(130,130,178)" stroke-miterlimit="1.45" transform="matrix(1,0,0,1,139,134)" stroke-linecap="butt" stroke="rgb(130,130,178)">
      <rect fill="none" width="57.68" x="83.945" height="23.1328" y="-107.1328"/>
    </g>
    <g font-size="13" font-weight="bold" font-family="sans-serif" transform="matrix(1,0,0,1,139,134)">
      <text xml:space="preserve" x="88.785" y="-91.0659" onclick="umlload('http://docs.oracle.com/javase/6/docs/api/java/lang/Object.html')" stroke="none">Object</text>
    </g>
    <g fill="rgb(238,238,255)" transform="matrix(1,0,0,1,139,134)" stroke="rgb(238,238,255)">
      <rect width="420.9337" x="-8" height="17.9688" y="-26" stroke="none"/>
    </g>
    <g fill="rgb(166,166,178)" stroke-miterlimit="1.45" transform="matrix(1,0,0,1,139,134)" stroke-linecap="butt" stroke="rgb(166,166,178)">
      <rect fill="none" width="420.9337" x="-8" height="17.9688" y="-26"/>
    </g>
    <g fill="rgb(238,238,255)" transform="matrix(1,0,0,1,139,134)" stroke="rgb(238,238,255)">
      <rect width="420.9337" x="-8" height="109.5312" y="-8.0312" stroke="none"/>
    </g>
    <g fill="rgb(166,166,178)" stroke-miterlimit="1.45" transform="matrix(1,0,0,1,139,134)" stroke-linecap="butt" stroke="rgb(166,166,178)">
      <rect fill="none" width="420.9337" x="-8" height="109.5312" y="-8.0312"/>
    </g>
    <g font-family="sans-serif" transform="matrix(1,0,0,1,139,134)">
      <text xml:space="preserve" x="-2" y="-12.8613" onclick="umlload('package-summary.html')" stroke="none">com.msopentech.odatajclient.engine.communication.header</text>
    </g>
    <g fill="rgb(187,187,255)" transform="matrix(1,0,0,1,139,134)" stroke="rgb(187,187,255)">
      <rect x="0" y="0" clip-path="url(#clipPath4)" width="225.57" height="26.625" stroke="none"/>
      <line clip-path="url(#clipPath4)" fill="none" x1="0" x2="225.57" y1="26.625" y2="26.625" stroke="black"/>
      <rect x="0" y="27.625" clip-path="url(#clipPath4)" width="225.57" height="47.9062" stroke="none"/>
      <line clip-path="url(#clipPath4)" fill="none" x1="0" x2="225.57" y1="75.5312" y2="75.5312" stroke="black"/>
      <rect x="0" y="76.5312" clip-path="url(#clipPath4)" width="225.57" height="15.9688" stroke="none"/>
      <line clip-path="url(#clipPath4)" fill="none" x1="0" x2="225.57" y1="92.5" y2="92.5" stroke="black"/>
      <line clip-path="url(#clipPath4)" x1="0" x2="225.57" y1="93.5" y2="93.5" stroke="none"/>
    </g>
    <g fill="rgb(130,130,178)" stroke-miterlimit="1.45" transform="matrix(1,0,0,1,139,134)" stroke-linecap="butt" stroke="rgb(130,130,178)">
      <rect fill="none" width="225.57" x="0" height="93.5" y="0"/>
    </g>
    <g font-size="16" font-weight="bold" font-family="sans-serif" transform="matrix(1,0,0,1,139,134)">
      <text xml:space="preserve" x="24.785" y="18.8516" onclick="umlload('#')" stroke="none">ODataHeaderValues</text>
    </g>
    <g font-family="sans-serif" transform="matrix(1,0,0,1,139,134)">
      <text xml:space="preserve" x="4" y="38.1719" stroke="none">+</text>
      <text xml:space="preserve" x="19" y="39.7637" onclick="umlload('#keyAsSegment')" stroke="none">keyAsSegment : String</text>
      <line y2="42.5938" fill="none" x1="19" x2="160" y1="42.5938"/>
    </g>
    <g font-family="sans-serif" transform="matrix(1,0,0,1,139,134)">
      <text xml:space="preserve" x="4" y="54.1719" stroke="none">+</text>
      <text xml:space="preserve" x="19" y="55.7324" onclick="umlload('#preferReturnContent')" stroke="none">preferReturnContent : String</text>
      <line y2="58.5625" fill="none" x1="19" x2="198" y1="58.5625"/>
    </g>
    <g font-family="sans-serif" transform="matrix(1,0,0,1,139,134)">
      <text xml:space="preserve" x="4" y="70.1719" stroke="none">+</text>
      <text xml:space="preserve" x="19" y="71.7012" onclick="umlload('#preferReturnNoContent')" stroke="none">preferReturnNoContent : String</text>
      <line y2="74.5312" fill="none" x1="19" x2="215" y1="74.5312"/>
    </g>
    <g font-family="sans-serif" transform="matrix(1,0,0,1,139,134)">
      <text xml:space="preserve" x="4" y="87.1719" stroke="none">+</text>
      <text xml:space="preserve" x="19" y="88.6699" onclick="umlload('#ODataHeaderValues()')" stroke="none">ODataHeaderValues()</text>
    </g>
    <g font-family="sans-serif" transform="matrix(1,0,0,1,139,134)">
      <text xml:space="preserve" x="-133" y="126.1543" onclick="umlload('http://www.yworks.com/')" stroke="none">yWorks UML Doclet</text>
    </g>
    <g stroke-miterlimit="1.45" transform="matrix(1,0,0,1,139,134)" stroke-linecap="butt">
      <path fill="none" d="M112.785 0 L112.785 -69"/>
      <path fill="white" d="M112.785 -84 L106.785 -68 L118.785 -68 Z" stroke="none"/>
      <path fill="none" d="M112.785 -84 L106.785 -68 L118.785 -68 Z"/>
      <path fill="none" d="M-0.011 11.5664 L-76.48 11.5664"/>
      <line stroke-linecap="square" transform="matrix(-1,0,0,-1,-76.48,11.5664)" fill="none" x1="0" x2="-14" y1="0" y2="-4" stroke-miterlimit="10"/>
      <line stroke-linecap="square" transform="matrix(-1,0,0,-1,-76.48,11.5664)" fill="none" x1="0" x2="-14" y1="0" y2="4" stroke-miterlimit="10"/>
    </g>
  </g>
</svg>
