<?xml version="1.0" encoding="UTF-8"?><svg xmlns="http://www.w3.org/2000/svg" xmlns:xlink="http://www.w3.org/1999/xlink" fill-opacity="1" color-rendering="auto" color-interpolation="auto" stroke="black" text-rendering="auto" stroke-linecap="square" width="598" stroke-miterlimit="10" stroke-opacity="1" shape-rendering="auto" fill="black" stroke-dasharray="none" font-weight="normal" stroke-width="1" height="598" font-family="'Dialog'" font-style="normal" stroke-linejoin="miter" font-size="12" stroke-dashoffset="0" image-rendering="auto">
  <!--Generated by ySVG-->
  <defs id="genericDefs"/>
  <g>
    <defs id="defs1">
      <clipPath clipPathUnits="userSpaceOnUse" id="clipPath1">
        <path d="M0 0 L598 0 L598 598 L0 598 L0 0 Z"/>
      </clipPath>
      <clipPath clipPathUnits="userSpaceOnUse" id="clipPath2">
        <path d="M666.467 190.623 C666.467 199.6569 630.2722 206.9804 585.6235 206.9804 C540.9749 206.9804 504.78 199.6569 504.78 190.623 C504.78 181.5891 540.9749 174.2656 585.6235 174.2656 C630.2722 174.2656 666.467 181.5891 666.467 190.623 Z"/>
      </clipPath>
      <clipPath clipPathUnits="userSpaceOnUse" id="clipPath3">
        <path d="M504.78 87.1328 L558.34 87.1328 L558.34 110.2656 L504.78 110.2656 L504.78 87.1328 Z"/>
      </clipPath>
      <clipPath clipPathUnits="userSpaceOnUse" id="clipPath4">
        <path d="M504.78 0 L729.32 0 L729.32 23.1328 L504.78 23.1328 L504.78 0 Z"/>
      </clipPath>
      <clipPath clipPathUnits="userSpaceOnUse" id="clipPath5">
        <path d="M-66 16.3574 C-66 25.3913 -95.6733 32.7147 -132.2771 32.7147 C-168.881 32.7147 -198.5542 25.3913 -198.5542 16.3574 C-198.5542 7.3234 -168.881 0 -132.2771 0 C-95.6733 0 -66 7.3234 -66 16.3574 Z"/>
      </clipPath>
      <clipPath clipPathUnits="userSpaceOnUse" id="clipPath6">
        <path d="M190.55 -107.1328 L248.23 -107.1328 L248.23 -84 L190.55 -84 L190.55 -107.1328 Z"/>
      </clipPath>
      <clipPath clipPathUnits="userSpaceOnUse" id="clipPath7">
        <path d="M0 0 L438.78 0 L438.78 214.9804 L0 214.9804 L0 0 Z"/>
      </clipPath>
      <script type="text/ecmascript"><![CDATA[
function umlload(newLocation)
{
if (newLocation.charAt(0) != '#') {
if (newLocation.indexOf("://") > -1) {
window.parent.location.href = newLocation;
} else {
var tmp = window.parent.location.href;
tmp = tmp.substring(0, tmp.lastIndexOf("/") + 1);
window.parent.location.href = tmp.concat(newLocation);
}
} else {
window.parent.location.hash = newLocation;
}
}
]]></script>
    </defs>
    <g fill="rgb(238,238,255)" transform="matrix(0.5316,0,0,0.5316,110.032,265.7778)" stroke="rgb(238,238,255)">
      <rect width="67.654" x="496.78" height="17.9688" y="148.2656" stroke="none"/>
    </g>
    <g fill="rgb(166,166,178)" stroke-miterlimit="1.45" transform="matrix(0.5316,0,0,0.5316,110.032,265.7778)" stroke-linecap="butt" stroke="rgb(166,166,178)">
      <rect fill="none" width="67.654" x="496.78" height="17.9688" y="148.2656"/>
    </g>
    <g fill="rgb(238,238,255)" transform="matrix(0.5316,0,0,0.5316,110.032,265.7778)" stroke="rgb(238,238,255)">
      <rect width="177.687" x="496.78" height="48.746" y="166.2344" stroke="none"/>
    </g>
    <g fill="rgb(166,166,178)" stroke-miterlimit="1.45" transform="matrix(0.5316,0,0,0.5316,110.032,265.7778)" stroke-linecap="butt" stroke="rgb(166,166,178)">
      <rect fill="none" width="177.687" x="496.78" height="48.746" y="166.2344"/>
    </g>
    <g font-family="sans-serif" transform="matrix(0.5316,0,0,0.5316,110.032,265.7778)">
      <text xml:space="preserve" x="502.78" y="161.4043" onclick="umlload('http://docs.oracle.com/javase/6/docs/api/java/util/package-summary.html')" stroke="none">java.util</text>
    </g>
    <g fill="rgb(221,221,255)" transform="matrix(0.5316,0,0,0.5316,110.032,265.7778)" stroke="rgb(221,221,255)">
      <rect x="504.78" y="174.2656" clip-path="url(#clipPath2)" width="161.687" height="32.7147" stroke="none"/>
    </g>
    <g fill="rgb(154,154,178)" stroke-miterlimit="1.45" transform="matrix(0.5316,0,0,0.5316,110.032,265.7778)" stroke-linecap="butt" stroke="rgb(154,154,178)">
      <ellipse rx="80.8435" fill="none" ry="16.3574" cx="585.6235" cy="190.623"/>
    </g>
    <g font-style="italic" font-size="13" font-weight="bold" font-family="sans-serif" transform="matrix(0.5316,0,0,0.5316,110.032,265.7778)">
      <text xml:space="preserve" x="534.1235" y="195.1235" onclick="umlload('http://docs.oracle.com/javase/6/docs/api/java/util/Collection.html')" stroke="none">Collection&lt;E&gt;</text>
    </g>
    <g fill="rgb(238,238,255)" transform="matrix(0.5316,0,0,0.5316,110.032,265.7778)" stroke="rgb(238,238,255)">
      <rect width="76.1412" x="496.78" height="17.9688" y="61.1328" stroke="none"/>
    </g>
    <g fill="rgb(166,166,178)" stroke-miterlimit="1.45" transform="matrix(0.5316,0,0,0.5316,110.032,265.7778)" stroke-linecap="butt" stroke="rgb(166,166,178)">
      <rect fill="none" width="76.1412" x="496.78" height="17.9688" y="61.1328"/>
    </g>
    <g fill="rgb(238,238,255)" transform="matrix(0.5316,0,0,0.5316,110.032,265.7778)" stroke="rgb(238,238,255)">
      <rect width="79.56" x="496.78" height="39.1641" y="79.1016" stroke="none"/>
    </g>
    <g fill="rgb(166,166,178)" stroke-miterlimit="1.45" transform="matrix(0.5316,0,0,0.5316,110.032,265.7778)" stroke-linecap="butt" stroke="rgb(166,166,178)">
      <rect fill="none" width="79.56" x="496.78" height="39.1641" y="79.1016"/>
    </g>
    <g font-family="sans-serif" transform="matrix(0.5316,0,0,0.5316,110.032,265.7778)">
      <text xml:space="preserve" x="502.78" y="74.2715" onclick="umlload('http://docs.oracle.com/javase/6/docs/api/java/lang/package-summary.html')" stroke="none">java.lang</text>
    </g>
    <g fill="rgb(187,187,255)" transform="matrix(0.5316,0,0,0.5316,110.032,265.7778)" stroke="rgb(187,187,255)">
      <rect x="504.78" y="87.1328" clip-path="url(#clipPath3)" width="53.56" height="23.1328" stroke="none"/>
    </g>
    <g fill="rgb(130,130,178)" stroke-miterlimit="1.45" transform="matrix(0.5316,0,0,0.5316,110.032,265.7778)" stroke-linecap="butt" stroke="rgb(130,130,178)">
      <rect fill="none" width="53.56" x="504.78" height="23.1328" y="87.1328"/>
    </g>
    <g font-size="13" font-weight="bold" font-family="sans-serif" transform="matrix(0.5316,0,0,0.5316,110.032,265.7778)">
      <text xml:space="preserve" x="509.56" y="103.1997" onclick="umlload('http://docs.oracle.com/javase/6/docs/api/java/lang/String.html')" stroke="none">String</text>
    </g>
    <g fill="rgb(238,238,255)" transform="matrix(0.5316,0,0,0.5316,110.032,265.7778)" stroke="rgb(238,238,255)">
      <rect width="420.9337" x="496.78" height="17.9688" y="-26" stroke="none"/>
    </g>
    <g fill="rgb(166,166,178)" stroke-miterlimit="1.45" transform="matrix(0.5316,0,0,0.5316,110.032,265.7778)" stroke-linecap="butt" stroke="rgb(166,166,178)">
      <rect fill="none" width="420.9337" x="496.78" height="17.9688" y="-26"/>
    </g>
    <g fill="rgb(238,238,255)" transform="matrix(0.5316,0,0,0.5316,110.032,265.7778)" stroke="rgb(238,238,255)">
      <rect width="420.9337" x="496.78" height="39.1641" y="-8.0312" stroke="none"/>
    </g>
    <g fill="rgb(166,166,178)" stroke-miterlimit="1.45" transform="matrix(0.5316,0,0,0.5316,110.032,265.7778)" stroke-linecap="butt" stroke="rgb(166,166,178)">
      <rect fill="none" width="420.9337" x="496.78" height="39.1641" y="-8.0312"/>
    </g>
    <g font-family="sans-serif" transform="matrix(0.5316,0,0,0.5316,110.032,265.7778)">
      <text xml:space="preserve" x="502.78" y="-12.8613" onclick="umlload('../../../../../../com/msopentech/odatajclient/engine/communication/header/package-summary.html')" stroke="none">com.msopentech.odatajclient.engine.communication.header</text>
    </g>
    <g fill="rgb(170,170,255)" transform="matrix(0.5316,0,0,0.5316,110.032,265.7778)" stroke="rgb(170,170,255)">
      <rect x="504.78" y="0" clip-path="url(#clipPath4)" width="224.54" height="23.1328" stroke="none"/>
    </g>
    <g fill="rgb(118,118,178)" stroke-miterlimit="1.45" transform="matrix(0.5316,0,0,0.5316,110.032,265.7778)" stroke-linecap="butt" stroke="rgb(118,118,178)">
      <rect fill="none" width="224.54" x="504.78" height="23.1328" y="0"/>
    </g>
    <g font-size="13" font-weight="bold" font-family="sans-serif" transform="matrix(0.5316,0,0,0.5316,110.032,265.7778)">
      <text xml:space="preserve" x="512.05" y="16.0669" onclick="umlload('../../../../../../com/msopentech/odatajclient/engine/communication/header/ODataHeaders.HeaderName.html')" stroke="none">ODataHeaders.HeaderName</text>
    </g>
    <g fill="rgb(238,238,255)" transform="matrix(0.5316,0,0,0.5316,110.032,265.7778)" stroke="rgb(238,238,255)">
      <rect width="67.654" x="-206.5542" height="17.9688" y="-26" stroke="none"/>
    </g>
    <g fill="rgb(166,166,178)" stroke-miterlimit="1.45" transform="matrix(0.5316,0,0,0.5316,110.032,265.7778)" stroke-linecap="butt" stroke="rgb(166,166,178)">
      <rect fill="none" width="67.654" x="-206.5542" height="17.9688" y="-26"/>
    </g>
    <g fill="rgb(238,238,255)" transform="matrix(0.5316,0,0,0.5316,110.032,265.7778)" stroke="rgb(238,238,255)">
      <rect width="148.5542" x="-206.5542" height="48.746" y="-8.0312" stroke="none"/>
    </g>
    <g fill="rgb(166,166,178)" stroke-miterlimit="1.45" transform="matrix(0.5316,0,0,0.5316,110.032,265.7778)" stroke-linecap="butt" stroke="rgb(166,166,178)">
      <rect fill="none" width="148.5542" x="-206.5542" height="48.746" y="-8.0312"/>
    </g>
    <g font-family="sans-serif" transform="matrix(0.5316,0,0,0.5316,110.032,265.7778)">
      <text xml:space="preserve" x="-200.5542" y="-12.8613" onclick="umlload('http://docs.oracle.com/javase/6/docs/api/java/util/package-summary.html')" stroke="none">java.util</text>
    </g>
    <g fill="rgb(221,221,255)" transform="matrix(0.5316,0,0,0.5316,110.032,265.7778)" stroke="rgb(221,221,255)">
      <rect x="-198.5542" y="0" clip-path="url(#clipPath5)" width="132.5542" height="32.7147" stroke="none"/>
    </g>
    <g fill="rgb(154,154,178)" stroke-miterlimit="1.45" transform="matrix(0.5316,0,0,0.5316,110.032,265.7778)" stroke-linecap="butt" stroke="rgb(154,154,178)">
      <ellipse rx="66.2771" fill="none" ry="16.3574" cx="-132.2771" cy="16.3574"/>
    </g>
    <g font-style="italic" font-size="13" font-weight="bold" font-family="sans-serif" transform="matrix(0.5316,0,0,0.5316,110.032,265.7778)">
      <text xml:space="preserve" x="-173.7771" y="20.8579" onclick="umlload('http://docs.oracle.com/javase/6/docs/api/java/util/Map.html')" stroke="none">Map&lt;K, V&gt;</text>
    </g>
    <g fill="rgb(238,238,255)" transform="matrix(0.5316,0,0,0.5316,110.032,265.7778)" stroke="rgb(238,238,255)">
      <rect width="76.1412" x="182.55" height="17.9688" y="-133.1328" stroke="none"/>
    </g>
    <g fill="rgb(166,166,178)" stroke-miterlimit="1.45" transform="matrix(0.5316,0,0,0.5316,110.032,265.7778)" stroke-linecap="butt" stroke="rgb(166,166,178)">
      <rect fill="none" width="76.1412" x="182.55" height="17.9688" y="-133.1328"/>
    </g>
    <g fill="rgb(238,238,255)" transform="matrix(0.5316,0,0,0.5316,110.032,265.7778)" stroke="rgb(238,238,255)">
      <rect width="76.1412" x="182.55" height="39.1641" y="-115.1641" stroke="none"/>
    </g>
    <g fill="rgb(166,166,178)" stroke-miterlimit="1.45" transform="matrix(0.5316,0,0,0.5316,110.032,265.7778)" stroke-linecap="butt" stroke="rgb(166,166,178)">
      <rect fill="none" width="76.1412" x="182.55" height="39.1641" y="-115.1641"/>
    </g>
    <g font-family="sans-serif" transform="matrix(0.5316,0,0,0.5316,110.032,265.7778)">
      <text xml:space="preserve" x="188.55" y="-119.9941" onclick="umlload('http://docs.oracle.com/javase/6/docs/api/java/lang/package-summary.html')" stroke="none">java.lang</text>
    </g>
    <g fill="rgb(187,187,255)" transform="matrix(0.5316,0,0,0.5316,110.032,265.7778)" stroke="rgb(187,187,255)">
      <rect x="190.55" y="-107.1328" clip-path="url(#clipPath6)" width="57.68" height="23.1328" stroke="none"/>
    </g>
    <g fill="rgb(130,130,178)" stroke-miterlimit="1.45" transform="matrix(0.5316,0,0,0.5316,110.032,265.7778)" stroke-linecap="butt" stroke="rgb(130,130,178)">
      <rect fill="none" width="57.68" x="190.55" height="23.1328" y="-107.1328"/>
    </g>
    <g font-size="13" font-weight="bold" font-family="sans-serif" transform="matrix(0.5316,0,0,0.5316,110.032,265.7778)">
      <text xml:space="preserve" x="195.39" y="-91.0659" onclick="umlload('http://docs.oracle.com/javase/6/docs/api/java/lang/Object.html')" stroke="none">Object</text>
    </g>
    <g fill="rgb(238,238,255)" transform="matrix(0.5316,0,0,0.5316,110.032,265.7778)" stroke="rgb(238,238,255)">
      <rect width="420.9337" x="-8" height="17.9688" y="-26" stroke="none"/>
    </g>
    <g fill="rgb(166,166,178)" stroke-miterlimit="1.45" transform="matrix(0.5316,0,0,0.5316,110.032,265.7778)" stroke-linecap="butt" stroke="rgb(166,166,178)">
      <rect fill="none" width="420.9337" x="-8" height="17.9688" y="-26"/>
    </g>
    <g fill="rgb(238,238,255)" transform="matrix(0.5316,0,0,0.5316,110.032,265.7778)" stroke="rgb(238,238,255)">
      <rect width="454.78" x="-8" height="231.0116" y="-8.0312" stroke="none"/>
    </g>
    <g fill="rgb(166,166,178)" stroke-miterlimit="1.45" transform="matrix(0.5316,0,0,0.5316,110.032,265.7778)" stroke-linecap="butt" stroke="rgb(166,166,178)">
      <rect fill="none" width="454.78" x="-8" height="231.0116" y="-8.0312"/>
    </g>
    <g font-family="sans-serif" transform="matrix(0.5316,0,0,0.5316,110.032,265.7778)">
      <text xml:space="preserve" x="-2" y="-12.8613" onclick="umlload('package-summary.html')" stroke="none">com.msopentech.odatajclient.engine.communication.header</text>
    </g>
    <g fill="rgb(187,187,255)" transform="matrix(0.5316,0,0,0.5316,110.032,265.7778)" stroke="rgb(187,187,255)">
      <rect x="0" y="0" clip-path="url(#clipPath7)" width="438.78" height="26.625" stroke="none"/>
      <line clip-path="url(#clipPath7)" fill="none" x1="0" x2="438.78" y1="26.625" y2="26.625" stroke="black"/>
      <rect x="0" y="27.625" clip-path="url(#clipPath7)" width="438.78" height="15.9688" stroke="none"/>
      <line clip-path="url(#clipPath7)" fill="none" x1="0" x2="438.78" y1="43.5938" y2="43.5938" stroke="black"/>
      <rect x="0" y="44.5938" clip-path="url(#clipPath7)" width="438.78" height="170.3866" stroke="none"/>
    </g>
    <g fill="rgb(130,130,178)" stroke-miterlimit="1.45" transform="matrix(0.5316,0,0,0.5316,110.032,265.7778)" stroke-linecap="butt" stroke="rgb(130,130,178)">
      <rect fill="none" width="438.78" x="0" height="214.9804" y="0"/>
    </g>
    <g font-size="16" font-weight="bold" font-family="sans-serif" transform="matrix(0.5316,0,0,0.5316,110.032,265.7778)">
      <text xml:space="preserve" x="155.39" y="18.8516" onclick="umlload('#')" stroke="none">ODataHeaders</text>
    </g>
    <g font-family="sans-serif" transform="matrix(0.5316,0,0,0.5316,110.032,265.7778)">
      <text xml:space="preserve" x="4" y="38.1719" stroke="none">+</text>
      <text xml:space="preserve" x="19" y="39.7637" onclick="umlload('#ODataHeaders()')" stroke="none">ODataHeaders()</text>
    </g>
    <g font-family="sans-serif" transform="matrix(0.5316,0,0,0.5316,110.032,265.7778)">
      <text xml:space="preserve" x="4" y="55.1719" stroke="none">+</text>
      <text xml:space="preserve" x="19" y="56.7324" onclick="umlload('#getHeader(com.msopentech.odatajclient.engine.communication.header.ODataHeaders.HeaderName)')" stroke="none">getHeader(ODataHeaders.HeaderName) : String</text>
    </g>
    <g font-family="sans-serif" transform="matrix(0.5316,0,0,0.5316,110.032,265.7778)">
      <text xml:space="preserve" x="4" y="71.1719" stroke="none">+</text>
      <text xml:space="preserve" x="19" y="72.7012" onclick="umlload('#getHeader(java.lang.String)')" stroke="none">getHeader(String) : String</text>
    </g>
    <g font-family="sans-serif" transform="matrix(0.5316,0,0,0.5316,110.032,265.7778)">
      <text xml:space="preserve" x="4" y="87.1719" stroke="none">+</text>
      <text xml:space="preserve" x="19" y="88.6699" onclick="umlload('#getHeaderNames()')" stroke="none">getHeaderNames() : Collection&lt;String&gt;</text>
    </g>
    <g font-family="sans-serif" transform="matrix(0.5316,0,0,0.5316,110.032,265.7778)">
      <text xml:space="preserve" x="4" y="103.1719" stroke="none">+</text>
      <text xml:space="preserve" x="19" y="104.6387" onclick="umlload('#setHeader(com.msopentech.odatajclient.engine.communication.header.ODataHeaders.HeaderName, java.lang.String)')" stroke="none">setHeader(ODataHeaders.HeaderName, String) : ODataHeaders</text>
    </g>
    <g font-family="sans-serif" transform="matrix(0.5316,0,0,0.5316,110.032,265.7778)">
      <text xml:space="preserve" x="4" y="119.1719" stroke="none">+</text>
      <text xml:space="preserve" x="19" y="120.6074" onclick="umlload('#setHeader(java.lang.String, java.lang.String)')" stroke="none">setHeader(String, String) : ODataHeaders</text>
    </g>
    <g font-family="sans-serif" transform="matrix(0.5316,0,0,0.5316,110.032,265.7778)">
      <text xml:space="preserve" x="-201" y="247.1543" onclick="umlload('http://www.yworks.com/')" stroke="none">yWorks UML Doclet</text>
    </g>
    <g stroke-miterlimit="1.45" transform="matrix(0.5316,0,0,0.5316,110.032,265.7778)" stroke-linecap="butt">
      <path fill="none" d="M219.39 0.0061 L219.39 -69"/>
      <path fill="white" d="M219.39 -84 L213.39 -68 L225.39 -68 Z" stroke="none"/>
      <path fill="none" d="M219.39 -84 L213.39 -68 L225.39 -68 Z"/>
      <path fill="none" d="M-0.0156 16.3574 L-66 16.3574"/>
      <line stroke-linecap="square" transform="matrix(-1,0,0,-1,-66,16.3574)" fill="none" x1="0" x2="-14" y1="0" y2="-4" stroke-miterlimit="10"/>
      <line stroke-linecap="square" transform="matrix(-1,0,0,-1,-66,16.3574)" fill="none" x1="0" x2="-14" y1="0" y2="4" stroke-miterlimit="10"/>
    </g>
    <g stroke-dasharray="6,2" stroke-miterlimit="1.45" transform="matrix(0.5316,0,0,0.5316,110.032,265.7778)" stroke-linecap="butt">
      <path fill="none" d="M438.7535 11.5664 L504.78 11.5664"/>
      <line stroke-linecap="square" transform="matrix(1,0,0,1,504.78,11.5664)" fill="none" x1="0" x2="-14" y1="0" y2="-4" stroke-dasharray="none" stroke-miterlimit="10"/>
      <line stroke-linecap="square" transform="matrix(1,0,0,1,504.78,11.5664)" fill="none" x1="0" x2="-14" y1="0" y2="4" stroke-dasharray="none" stroke-miterlimit="10"/>
    </g>
    <g stroke-dasharray="6,2" stroke-miterlimit="1.45" transform="matrix(0.5316,0,0,0.5316,110.032,265.7778)" stroke-linecap="butt">
      <path fill="none" d="M438.7702 98.6992 L504.78 98.6992"/>
      <line stroke-linecap="square" transform="matrix(1,0,0,1,504.78,98.6992)" fill="none" x1="0" x2="-14" y1="0" y2="-4" stroke-dasharray="none" stroke-miterlimit="10"/>
      <line stroke-linecap="square" transform="matrix(1,0,0,1,504.78,98.6992)" fill="none" x1="0" x2="-14" y1="0" y2="4" stroke-dasharray="none" stroke-miterlimit="10"/>
    </g>
    <g stroke-dasharray="6,2" stroke-miterlimit="1.45" transform="matrix(0.5316,0,0,0.5316,110.032,265.7778)" stroke-linecap="butt">
      <path fill="none" d="M438.7635 190.623 L504.78 190.623"/>
      <line stroke-linecap="square" transform="matrix(1,0,0,1,504.78,190.623)" fill="none" x1="0" x2="-14" y1="0" y2="-4" stroke-dasharray="none" stroke-miterlimit="10"/>
      <line stroke-linecap="square" transform="matrix(1,0,0,1,504.78,190.623)" fill="none" x1="0" x2="-14" y1="0" y2="4" stroke-dasharray="none" stroke-miterlimit="10"/>
    </g>
  </g>
</svg>
