<?xml version="1.0" encoding="UTF-8"?><svg xmlns="http://www.w3.org/2000/svg" xmlns:xlink="http://www.w3.org/1999/xlink" fill-opacity="1" color-rendering="auto" color-interpolation="auto" stroke="black" text-rendering="auto" stroke-linecap="square" width="598" stroke-miterlimit="10" stroke-opacity="1" shape-rendering="auto" fill="black" stroke-dasharray="none" font-weight="normal" stroke-width="1" height="598" font-family="'Dialog'" font-style="normal" stroke-linejoin="miter" font-size="12" stroke-dashoffset="0" image-rendering="auto">
  <!--Generated by ySVG-->
  <defs id="genericDefs"/>
  <g>
    <defs id="defs1">
      <clipPath clipPathUnits="userSpaceOnUse" id="clipPath1">
        <path d="M0 0 L598 0 L598 598 L0 598 L0 0 Z"/>
      </clipPath>
      <clipPath clipPathUnits="userSpaceOnUse" id="clipPath2">
        <path d="M-451.4 0 L-255.7 0 L-255.7 23.1328 L-451.4 23.1328 L-451.4 0 Z"/>
      </clipPath>
      <clipPath clipPathUnits="userSpaceOnUse" id="clipPath3">
        <path d="M175.1 -107.1328 L232.78 -107.1328 L232.78 -84 L175.1 -84 L175.1 -107.1328 Z"/>
      </clipPath>
      <clipPath clipPathUnits="userSpaceOnUse" id="clipPath4">
        <path d="M-0 0 L407.88 0 L407.88 93.5 L-0 93.5 L-0 0 Z"/>
      </clipPath>
      <script type="text/ecmascript"><![CDATA[
function umlload(newLocation)
{
if (newLocation.charAt(0) != '#') {
if (newLocation.indexOf("://") > -1) {
window.parent.location.href = newLocation;
} else {
var tmp = window.parent.location.href;
tmp = tmp.substring(0, tmp.lastIndexOf("/") + 1);
window.parent.location.href = tmp.concat(newLocation);
}
} else {
window.parent.location.hash = newLocation;
}
}
]]></script>
    </defs>
    <g fill="rgb(238,238,255)" transform="matrix(0.6826,0,0,0.6826,314.0183,297.6347)" stroke="rgb(238,238,255)">
      <rect width="407.142" x="-459.4" height="17.9688" y="-26" stroke="none"/>
    </g>
    <g fill="rgb(166,166,178)" stroke-miterlimit="1.45" transform="matrix(0.6826,0,0,0.6826,314.0183,297.6347)" stroke-linecap="butt" stroke="rgb(166,166,178)">
      <rect fill="none" width="407.142" x="-459.4" height="17.9688" y="-26"/>
    </g>
    <g fill="rgb(238,238,255)" transform="matrix(0.6826,0,0,0.6826,314.0183,297.6347)" stroke="rgb(238,238,255)">
      <rect width="407.142" x="-459.4" height="39.1641" y="-8.0312" stroke="none"/>
    </g>
    <g fill="rgb(166,166,178)" stroke-miterlimit="1.45" transform="matrix(0.6826,0,0,0.6826,314.0183,297.6347)" stroke-linecap="butt" stroke="rgb(166,166,178)">
      <rect fill="none" width="407.142" x="-459.4" height="39.1641" y="-8.0312"/>
    </g>
    <g font-family="sans-serif" transform="matrix(0.6826,0,0,0.6826,314.0183,297.6347)">
      <text xml:space="preserve" x="-453.4" y="-12.8613" onclick="umlload('../../../../../../../com/msopentech/odatajclient/engine/data/metadata/edmx/package-summary.html')" stroke="none">com.msopentech.odatajclient.engine.data.metadata.edmx</text>
    </g>
    <g fill="rgb(187,187,255)" transform="matrix(0.6826,0,0,0.6826,314.0183,297.6347)" stroke="rgb(187,187,255)">
      <rect x="-451.4" y="0" clip-path="url(#clipPath2)" width="195.7" height="23.1328" stroke="none"/>
    </g>
    <g fill="rgb(130,130,178)" stroke-miterlimit="1.45" transform="matrix(0.6826,0,0,0.6826,314.0183,297.6347)" stroke-linecap="butt" stroke="rgb(130,130,178)">
      <rect fill="none" width="195.7" x="-451.4" height="23.1328" y="0"/>
    </g>
    <g font-size="13" font-weight="bold" font-family="sans-serif" transform="matrix(0.6826,0,0,0.6826,314.0183,297.6347)">
      <text xml:space="preserve" x="-444.55" y="16.0669" onclick="umlload('../../../../../../../com/msopentech/odatajclient/engine/data/metadata/edmx/DesignerInfoPropertySet.html')" stroke="none">DesignerInfoPropertySet</text>
    </g>
    <g fill="rgb(238,238,255)" transform="matrix(0.6826,0,0,0.6826,314.0183,297.6347)" stroke="rgb(238,238,255)">
      <rect width="76.1412" x="167.1" height="17.9688" y="-133.1328" stroke="none"/>
    </g>
    <g fill="rgb(166,166,178)" stroke-miterlimit="1.45" transform="matrix(0.6826,0,0,0.6826,314.0183,297.6347)" stroke-linecap="butt" stroke="rgb(166,166,178)">
      <rect fill="none" width="76.1412" x="167.1" height="17.9688" y="-133.1328"/>
    </g>
    <g fill="rgb(238,238,255)" transform="matrix(0.6826,0,0,0.6826,314.0183,297.6347)" stroke="rgb(238,238,255)">
      <rect width="76.1412" x="167.1" height="39.1641" y="-115.1641" stroke="none"/>
    </g>
    <g fill="rgb(166,166,178)" stroke-miterlimit="1.45" transform="matrix(0.6826,0,0,0.6826,314.0183,297.6347)" stroke-linecap="butt" stroke="rgb(166,166,178)">
      <rect fill="none" width="76.1412" x="167.1" height="39.1641" y="-115.1641"/>
    </g>
    <g font-family="sans-serif" transform="matrix(0.6826,0,0,0.6826,314.0183,297.6347)">
      <text xml:space="preserve" x="173.1" y="-119.9941" onclick="umlload('http://docs.oracle.com/javase/6/docs/api/java/lang/package-summary.html')" stroke="none">java.lang</text>
    </g>
    <g fill="rgb(187,187,255)" transform="matrix(0.6826,0,0,0.6826,314.0183,297.6347)" stroke="rgb(187,187,255)">
      <rect x="175.1" y="-107.1328" clip-path="url(#clipPath3)" width="57.68" height="23.1328" stroke="none"/>
    </g>
    <g fill="rgb(130,130,178)" stroke-miterlimit="1.45" transform="matrix(0.6826,0,0,0.6826,314.0183,297.6347)" stroke-linecap="butt" stroke="rgb(130,130,178)">
      <rect fill="none" width="57.68" x="175.1" height="23.1328" y="-107.1328"/>
    </g>
    <g font-size="13" font-weight="bold" font-family="sans-serif" transform="matrix(0.6826,0,0,0.6826,314.0183,297.6347)">
      <text xml:space="preserve" x="179.94" y="-91.0659" onclick="umlload('http://docs.oracle.com/javase/6/docs/api/java/lang/Object.html')" stroke="none">Object</text>
    </g>
    <g fill="rgb(238,238,255)" transform="matrix(0.6826,0,0,0.6826,314.0183,297.6347)" stroke="rgb(238,238,255)">
      <rect width="407.142" x="-8" height="17.9688" y="-26" stroke="none"/>
    </g>
    <g fill="rgb(166,166,178)" stroke-miterlimit="1.45" transform="matrix(0.6826,0,0,0.6826,314.0183,297.6347)" stroke-linecap="butt" stroke="rgb(166,166,178)">
      <rect fill="none" width="407.142" x="-8" height="17.9688" y="-26"/>
    </g>
    <g fill="rgb(238,238,255)" transform="matrix(0.6826,0,0,0.6826,314.0183,297.6347)" stroke="rgb(238,238,255)">
      <rect width="423.88" x="-8" height="109.5312" y="-8.0312" stroke="none"/>
    </g>
    <g fill="rgb(166,166,178)" stroke-miterlimit="1.45" transform="matrix(0.6826,0,0,0.6826,314.0183,297.6347)" stroke-linecap="butt" stroke="rgb(166,166,178)">
      <rect fill="none" width="423.88" x="-8" height="109.5312" y="-8.0312"/>
    </g>
    <g font-family="sans-serif" transform="matrix(0.6826,0,0,0.6826,314.0183,297.6347)">
      <text xml:space="preserve" x="-2" y="-12.8613" onclick="umlload('package-summary.html')" stroke="none">com.msopentech.odatajclient.engine.data.metadata.edmx</text>
    </g>
    <g fill="rgb(187,187,255)" transform="matrix(0.6826,0,0,0.6826,314.0183,297.6347)" stroke="rgb(187,187,255)">
      <rect x="0" y="0" clip-path="url(#clipPath4)" width="407.88" height="26.625" stroke="none"/>
      <line clip-path="url(#clipPath4)" fill="none" x1="0" x2="407.88" y1="26.625" y2="26.625" stroke="black"/>
      <rect x="0" y="27.625" clip-path="url(#clipPath4)" width="407.88" height="15.9688" stroke="none"/>
      <line clip-path="url(#clipPath4)" fill="none" x1="0" x2="407.88" y1="43.5938" y2="43.5938" stroke="black"/>
      <rect x="0" y="44.5938" clip-path="url(#clipPath4)" width="407.88" height="15.9688" stroke="none"/>
      <line clip-path="url(#clipPath4)" fill="none" x1="0" x2="407.88" y1="60.5625" y2="60.5625" stroke="black"/>
      <rect x="0" y="61.5625" clip-path="url(#clipPath4)" width="407.88" height="31.9375" stroke="none"/>
    </g>
    <g fill="rgb(130,130,178)" stroke-miterlimit="1.45" transform="matrix(0.6826,0,0,0.6826,314.0183,297.6347)" stroke-linecap="butt" stroke="rgb(130,130,178)">
      <rect fill="none" width="407.88" x="0" height="93.5" y="0"/>
    </g>
    <g font-size="16" font-weight="bold" font-family="sans-serif" transform="matrix(0.6826,0,0,0.6826,314.0183,297.6347)">
      <text xml:space="preserve" x="153.94" y="18.8516" onclick="umlload('#')" stroke="none">Connection</text>
    </g>
    <g font-family="sans-serif" transform="matrix(0.6826,0,0,0.6826,314.0183,297.6347)">
      <text xml:space="preserve" x="4" y="38.1719" stroke="none">#</text>
      <text xml:space="preserve" x="19" y="39.7637" onclick="umlload('#designerInfoPropertySet')" stroke="none">designerInfoPropertySet : DesignerInfoPropertySet</text>
    </g>
    <g font-family="sans-serif" transform="matrix(0.6826,0,0,0.6826,314.0183,297.6347)">
      <text xml:space="preserve" x="4" y="55.1719" stroke="none">+</text>
      <text xml:space="preserve" x="19" y="56.7324" onclick="umlload('#Connection()')" stroke="none">Connection()</text>
    </g>
    <g font-family="sans-serif" transform="matrix(0.6826,0,0,0.6826,314.0183,297.6347)">
      <text xml:space="preserve" x="4" y="72.1719" stroke="none">+</text>
      <text xml:space="preserve" x="19" y="73.7012" onclick="umlload('#getDesignerInfoPropertySet()')" stroke="none">getDesignerInfoPropertySet() : DesignerInfoPropertySet</text>
    </g>
    <g font-family="sans-serif" transform="matrix(0.6826,0,0,0.6826,314.0183,297.6347)">
      <text xml:space="preserve" x="4" y="88.1719" stroke="none">+</text>
      <text xml:space="preserve" x="19" y="89.6699" onclick="umlload('#setDesignerInfoPropertySet(com.msopentech.odatajclient.engine.data.metadata.edmx.DesignerInfoPropertySet)')" stroke="none">setDesignerInfoPropertySet(DesignerInfoPropertySet) : void</text>
    </g>
    <g font-family="sans-serif" transform="matrix(0.6826,0,0,0.6826,314.0183,297.6347)">
      <text xml:space="preserve" x="-454" y="126.1543" onclick="umlload('http://www.yworks.com/')" stroke="none">yWorks UML Doclet</text>
    </g>
    <g stroke-miterlimit="1.45" transform="matrix(0.6826,0,0,0.6826,314.0183,297.6347)" stroke-linecap="butt">
      <path fill="none" d="M203.94 0 L203.94 -69"/>
      <path fill="white" d="M203.94 -84 L197.94 -68 L209.94 -68 Z" stroke="none"/>
      <path fill="none" d="M203.94 -84 L197.94 -68 L209.94 -68 Z"/>
      <path fill="none" d="M0.0192 11.5664 L-255.7 11.5664"/>
      <line stroke-linecap="square" transform="matrix(-1,0,0,-1,-255.7,11.5664)" fill="none" x1="0" x2="-14" y1="0" y2="-4" stroke-miterlimit="10"/>
      <line stroke-linecap="square" transform="matrix(-1,0,0,-1,-255.7,11.5664)" fill="none" x1="0" x2="-14" y1="0" y2="4" stroke-miterlimit="10"/>
    </g>
  </g>
</svg>
