<?xml version="1.0" encoding="UTF-8"?><svg xmlns="http://www.w3.org/2000/svg" xmlns:xlink="http://www.w3.org/1999/xlink" fill-opacity="1" color-rendering="auto" color-interpolation="auto" stroke="black" text-rendering="auto" stroke-linecap="square" width="598" stroke-miterlimit="10" stroke-opacity="1" shape-rendering="auto" fill="black" stroke-dasharray="none" font-weight="normal" stroke-width="1" height="598" font-family="'Dialog'" font-style="normal" stroke-linejoin="miter" font-size="12" stroke-dashoffset="0" image-rendering="auto">
  <!--Generated by ySVG-->
  <defs id="genericDefs"/>
  <g>
    <defs id="defs1">
      <clipPath clipPathUnits="userSpaceOnUse" id="clipPath1">
        <path d="M0 0 L598 0 L598 598 L0 598 L0 0 Z"/>
      </clipPath>
      <clipPath clipPathUnits="userSpaceOnUse" id="clipPath2">
        <path d="M-66 169.7558 C-66 178.7897 -87.1952 186.1132 -113.3408 186.1132 C-139.4864 186.1132 -160.6816 178.7897 -160.6816 169.7558 C-160.6816 160.7219 -139.4864 153.3984 -113.3408 153.3984 C-87.1952 153.3984 -66 160.7219 -66 169.7558 Z"/>
      </clipPath>
      <clipPath clipPathUnits="userSpaceOnUse" id="clipPath3">
        <path d="M-451.4 0 L-358.7 0 L-358.7 23.1328 L-451.4 23.1328 L-451.4 0 Z"/>
      </clipPath>
      <clipPath clipPathUnits="userSpaceOnUse" id="clipPath4">
        <path d="M-451.4 33.1328 L-370.03 33.1328 L-370.03 56.2656 L-451.4 56.2656 L-451.4 33.1328 Z"/>
      </clipPath>
      <clipPath clipPathUnits="userSpaceOnUse" id="clipPath5">
        <path d="M-451.4 66.2656 L-384.45 66.2656 L-384.45 89.3984 L-451.4 89.3984 L-451.4 66.2656 Z"/>
      </clipPath>
      <clipPath clipPathUnits="userSpaceOnUse" id="clipPath6">
        <path d="M90.64 -107.1328 L148.32 -107.1328 L148.32 -84 L90.64 -84 L90.64 -107.1328 Z"/>
      </clipPath>
      <clipPath clipPathUnits="userSpaceOnUse" id="clipPath7">
        <path d="M0 0 L238.96 0 L238.96 221.25 L0 221.25 L0 0 Z"/>
      </clipPath>
      <script type="text/ecmascript"><![CDATA[
function umlload(newLocation)
{
if (newLocation.charAt(0) != '#') {
if (newLocation.indexOf("://") > -1) {
window.parent.location.href = newLocation;
} else {
var tmp = window.parent.location.href;
tmp = tmp.substring(0, tmp.lastIndexOf("/") + 1);
window.parent.location.href = tmp.concat(newLocation);
}
} else {
window.parent.location.hash = newLocation;
}
}
]]></script>
    </defs>
    <g fill="rgb(238,238,255)" transform="matrix(0.6953,0,0,0.6953,319.8605,253.107)" stroke="rgb(238,238,255)">
      <rect width="67.654" x="-168.6816" height="17.9688" y="127.3984" stroke="none"/>
    </g>
    <g fill="rgb(166,166,178)" stroke-miterlimit="1.45" transform="matrix(0.6953,0,0,0.6953,319.8605,253.107)" stroke-linecap="butt" stroke="rgb(166,166,178)">
      <rect fill="none" width="67.654" x="-168.6816" height="17.9688" y="127.3984"/>
    </g>
    <g fill="rgb(238,238,255)" transform="matrix(0.6953,0,0,0.6953,319.8605,253.107)" stroke="rgb(238,238,255)">
      <rect width="110.6816" x="-168.6816" height="48.746" y="145.3672" stroke="none"/>
    </g>
    <g fill="rgb(166,166,178)" stroke-miterlimit="1.45" transform="matrix(0.6953,0,0,0.6953,319.8605,253.107)" stroke-linecap="butt" stroke="rgb(166,166,178)">
      <rect fill="none" width="110.6816" x="-168.6816" height="48.746" y="145.3672"/>
    </g>
    <g font-family="sans-serif" transform="matrix(0.6953,0,0,0.6953,319.8605,253.107)">
      <text xml:space="preserve" x="-162.6816" y="140.5371" onclick="umlload('http://docs.oracle.com/javase/6/docs/api/java/util/package-summary.html')" stroke="none">java.util</text>
    </g>
    <g fill="rgb(221,221,255)" transform="matrix(0.6953,0,0,0.6953,319.8605,253.107)" stroke="rgb(221,221,255)">
      <rect x="-160.6816" y="153.3984" clip-path="url(#clipPath2)" width="94.6816" height="32.7147" stroke="none"/>
    </g>
    <g fill="rgb(154,154,178)" stroke-miterlimit="1.45" transform="matrix(0.6953,0,0,0.6953,319.8605,253.107)" stroke-linecap="butt" stroke="rgb(154,154,178)">
      <ellipse rx="47.3408" fill="none" ry="16.3574" cx="-113.3408" cy="169.7558"/>
    </g>
    <g font-style="italic" font-size="13" font-weight="bold" font-family="sans-serif" transform="matrix(0.6953,0,0,0.6953,319.8605,253.107)">
      <text xml:space="preserve" x="-141.8408" y="174.2563" onclick="umlload('http://docs.oracle.com/javase/6/docs/api/java/util/List.html')" stroke="none">List&lt;E&gt;</text>
    </g>
    <g fill="rgb(238,238,255)" transform="matrix(0.6953,0,0,0.6953,319.8605,253.107)" stroke="rgb(238,238,255)">
      <rect width="407.142" x="-459.4" height="17.9688" y="-26" stroke="none"/>
    </g>
    <g fill="rgb(166,166,178)" stroke-miterlimit="1.45" transform="matrix(0.6953,0,0,0.6953,319.8605,253.107)" stroke-linecap="butt" stroke="rgb(166,166,178)">
      <rect fill="none" width="407.142" x="-459.4" height="17.9688" y="-26"/>
    </g>
    <g fill="rgb(238,238,255)" transform="matrix(0.6953,0,0,0.6953,319.8605,253.107)" stroke="rgb(238,238,255)">
      <rect width="407.142" x="-459.4" height="105.4297" y="-8.0312" stroke="none"/>
    </g>
    <g fill="rgb(166,166,178)" stroke-miterlimit="1.45" transform="matrix(0.6953,0,0,0.6953,319.8605,253.107)" stroke-linecap="butt" stroke="rgb(166,166,178)">
      <rect fill="none" width="407.142" x="-459.4" height="105.4297" y="-8.0312"/>
    </g>
    <g font-family="sans-serif" transform="matrix(0.6953,0,0,0.6953,319.8605,253.107)">
      <text xml:space="preserve" x="-453.4" y="-12.8613" onclick="umlload('../../../../../../../com/msopentech/odatajclient/engine/data/metadata/edmx/package-summary.html')" stroke="none">com.msopentech.odatajclient.engine.data.metadata.edmx</text>
    </g>
    <g fill="rgb(187,187,255)" transform="matrix(0.6953,0,0,0.6953,319.8605,253.107)" stroke="rgb(187,187,255)">
      <rect x="-451.4" y="0" clip-path="url(#clipPath3)" width="92.7" height="23.1328" stroke="none"/>
    </g>
    <g fill="rgb(130,130,178)" stroke-miterlimit="1.45" transform="matrix(0.6953,0,0,0.6953,319.8605,253.107)" stroke-linecap="butt" stroke="rgb(130,130,178)">
      <rect fill="none" width="92.7" x="-451.4" height="23.1328" y="0"/>
    </g>
    <g font-size="13" font-weight="bold" font-family="sans-serif" transform="matrix(0.6953,0,0,0.6953,319.8605,253.107)">
      <text xml:space="preserve" x="-446.05" y="16.0669" onclick="umlload('../../../../../../../com/msopentech/odatajclient/engine/data/metadata/edmx/Connection.html')" stroke="none">Connection</text>
    </g>
    <g fill="rgb(187,187,255)" transform="matrix(0.6953,0,0,0.6953,319.8605,253.107)" stroke="rgb(187,187,255)">
      <rect x="-451.4" y="33.1328" clip-path="url(#clipPath4)" width="81.37" height="23.1328" stroke="none"/>
    </g>
    <g fill="rgb(130,130,178)" stroke-miterlimit="1.45" transform="matrix(0.6953,0,0,0.6953,319.8605,253.107)" stroke-linecap="butt" stroke="rgb(130,130,178)">
      <rect fill="none" width="81.37" x="-451.4" height="23.1328" y="33.1328"/>
    </g>
    <g font-size="13" font-weight="bold" font-family="sans-serif" transform="matrix(0.6953,0,0,0.6953,319.8605,253.107)">
      <text xml:space="preserve" x="-446.215" y="49.1997" onclick="umlload('../../../../../../../com/msopentech/odatajclient/engine/data/metadata/edmx/Diagrams.html')" stroke="none">Diagrams</text>
    </g>
    <g fill="rgb(187,187,255)" transform="matrix(0.6953,0,0,0.6953,319.8605,253.107)" stroke="rgb(187,187,255)">
      <rect x="-451.4" y="66.2656" clip-path="url(#clipPath5)" width="66.95" height="23.1328" stroke="none"/>
    </g>
    <g fill="rgb(130,130,178)" stroke-miterlimit="1.45" transform="matrix(0.6953,0,0,0.6953,319.8605,253.107)" stroke-linecap="butt" stroke="rgb(130,130,178)">
      <rect fill="none" width="66.95" x="-451.4" height="23.1328" y="66.2656"/>
    </g>
    <g font-size="13" font-weight="bold" font-family="sans-serif" transform="matrix(0.6953,0,0,0.6953,319.8605,253.107)">
      <text xml:space="preserve" x="-446.425" y="82.3325" onclick="umlload('../../../../../../../com/msopentech/odatajclient/engine/data/metadata/edmx/Options.html')" stroke="none">Options</text>
    </g>
    <g fill="rgb(238,238,255)" transform="matrix(0.6953,0,0,0.6953,319.8605,253.107)" stroke="rgb(238,238,255)">
      <rect width="76.1412" x="82.64" height="17.9688" y="-133.1328" stroke="none"/>
    </g>
    <g fill="rgb(166,166,178)" stroke-miterlimit="1.45" transform="matrix(0.6953,0,0,0.6953,319.8605,253.107)" stroke-linecap="butt" stroke="rgb(166,166,178)">
      <rect fill="none" width="76.1412" x="82.64" height="17.9688" y="-133.1328"/>
    </g>
    <g fill="rgb(238,238,255)" transform="matrix(0.6953,0,0,0.6953,319.8605,253.107)" stroke="rgb(238,238,255)">
      <rect width="76.1412" x="82.64" height="39.1641" y="-115.1641" stroke="none"/>
    </g>
    <g fill="rgb(166,166,178)" stroke-miterlimit="1.45" transform="matrix(0.6953,0,0,0.6953,319.8605,253.107)" stroke-linecap="butt" stroke="rgb(166,166,178)">
      <rect fill="none" width="76.1412" x="82.64" height="39.1641" y="-115.1641"/>
    </g>
    <g font-family="sans-serif" transform="matrix(0.6953,0,0,0.6953,319.8605,253.107)">
      <text xml:space="preserve" x="88.64" y="-119.9941" onclick="umlload('http://docs.oracle.com/javase/6/docs/api/java/lang/package-summary.html')" stroke="none">java.lang</text>
    </g>
    <g fill="rgb(187,187,255)" transform="matrix(0.6953,0,0,0.6953,319.8605,253.107)" stroke="rgb(187,187,255)">
      <rect x="90.64" y="-107.1328" clip-path="url(#clipPath6)" width="57.68" height="23.1328" stroke="none"/>
    </g>
    <g fill="rgb(130,130,178)" stroke-miterlimit="1.45" transform="matrix(0.6953,0,0,0.6953,319.8605,253.107)" stroke-linecap="butt" stroke="rgb(130,130,178)">
      <rect fill="none" width="57.68" x="90.64" height="23.1328" y="-107.1328"/>
    </g>
    <g font-size="13" font-weight="bold" font-family="sans-serif" transform="matrix(0.6953,0,0,0.6953,319.8605,253.107)">
      <text xml:space="preserve" x="95.48" y="-91.0659" onclick="umlload('http://docs.oracle.com/javase/6/docs/api/java/lang/Object.html')" stroke="none">Object</text>
    </g>
    <g fill="rgb(238,238,255)" transform="matrix(0.6953,0,0,0.6953,319.8605,253.107)" stroke="rgb(238,238,255)">
      <rect width="407.142" x="-8" height="17.9688" y="-26" stroke="none"/>
    </g>
    <g fill="rgb(166,166,178)" stroke-miterlimit="1.45" transform="matrix(0.6953,0,0,0.6953,319.8605,253.107)" stroke-linecap="butt" stroke="rgb(166,166,178)">
      <rect fill="none" width="407.142" x="-8" height="17.9688" y="-26"/>
    </g>
    <g fill="rgb(238,238,255)" transform="matrix(0.6953,0,0,0.6953,319.8605,253.107)" stroke="rgb(238,238,255)">
      <rect width="407.142" x="-8" height="237.2812" y="-8.0312" stroke="none"/>
    </g>
    <g fill="rgb(166,166,178)" stroke-miterlimit="1.45" transform="matrix(0.6953,0,0,0.6953,319.8605,253.107)" stroke-linecap="butt" stroke="rgb(166,166,178)">
      <rect fill="none" width="407.142" x="-8" height="237.2812" y="-8.0312"/>
    </g>
    <g font-family="sans-serif" transform="matrix(0.6953,0,0,0.6953,319.8605,253.107)">
      <text xml:space="preserve" x="-2" y="-12.8613" onclick="umlload('package-summary.html')" stroke="none">com.msopentech.odatajclient.engine.data.metadata.edmx</text>
    </g>
    <g fill="rgb(187,187,255)" transform="matrix(0.6953,0,0,0.6953,319.8605,253.107)" stroke="rgb(187,187,255)">
      <rect x="0" y="0" clip-path="url(#clipPath7)" width="238.96" height="26.625" stroke="none"/>
      <line clip-path="url(#clipPath7)" fill="none" x1="0" x2="238.96" y1="26.625" y2="26.625" stroke="black"/>
      <rect x="0" y="27.625" clip-path="url(#clipPath7)" width="238.96" height="63.875" stroke="none"/>
      <line clip-path="url(#clipPath7)" fill="none" x1="0" x2="238.96" y1="91.5" y2="91.5" stroke="black"/>
      <rect x="0" y="92.5" clip-path="url(#clipPath7)" width="238.96" height="15.9688" stroke="none"/>
      <line clip-path="url(#clipPath7)" fill="none" x1="0" x2="238.96" y1="108.4688" y2="108.4688" stroke="black"/>
      <rect x="0" y="109.4688" clip-path="url(#clipPath7)" width="238.96" height="111.7812" stroke="none"/>
    </g>
    <g fill="rgb(130,130,178)" stroke-miterlimit="1.45" transform="matrix(0.6953,0,0,0.6953,319.8605,253.107)" stroke-linecap="butt" stroke="rgb(130,130,178)">
      <rect fill="none" width="238.96" x="0" height="221.25" y="0"/>
    </g>
    <g font-size="16" font-weight="bold" font-family="sans-serif" transform="matrix(0.6953,0,0,0.6953,319.8605,253.107)">
      <text xml:space="preserve" x="79.98" y="18.8516" onclick="umlload('#')" stroke="none">Designer</text>
    </g>
    <g font-family="sans-serif" transform="matrix(0.6953,0,0,0.6953,319.8605,253.107)">
      <text xml:space="preserve" x="4" y="38.1719" stroke="none">#</text>
      <text xml:space="preserve" x="19" y="39.7637" onclick="umlload('#any')" stroke="none">any : List&lt;Object&gt;</text>
    </g>
    <g font-family="sans-serif" transform="matrix(0.6953,0,0,0.6953,319.8605,253.107)">
      <text xml:space="preserve" x="4" y="54.1719" stroke="none">#</text>
      <text xml:space="preserve" x="19" y="55.7324" onclick="umlload('#connection')" stroke="none">connection : Connection</text>
    </g>
    <g font-family="sans-serif" transform="matrix(0.6953,0,0,0.6953,319.8605,253.107)">
      <text xml:space="preserve" x="4" y="70.1719" stroke="none">#</text>
      <text xml:space="preserve" x="19" y="71.7012" onclick="umlload('#diagrams')" stroke="none">diagrams : Diagrams</text>
    </g>
    <g font-family="sans-serif" transform="matrix(0.6953,0,0,0.6953,319.8605,253.107)">
      <text xml:space="preserve" x="4" y="86.1719" stroke="none">#</text>
      <text xml:space="preserve" x="19" y="87.6699" onclick="umlload('#options')" stroke="none">options : Options</text>
    </g>
    <g font-family="sans-serif" transform="matrix(0.6953,0,0,0.6953,319.8605,253.107)">
      <text xml:space="preserve" x="4" y="103.1719" stroke="none">+</text>
      <text xml:space="preserve" x="19" y="104.6387" onclick="umlload('#Designer()')" stroke="none">Designer()</text>
    </g>
    <g font-family="sans-serif" transform="matrix(0.6953,0,0,0.6953,319.8605,253.107)">
      <text xml:space="preserve" x="4" y="120.1719" stroke="none">+</text>
      <text xml:space="preserve" x="19" y="121.6074" onclick="umlload('#getAny()')" stroke="none">getAny() : List&lt;Object&gt;</text>
    </g>
    <g font-family="sans-serif" transform="matrix(0.6953,0,0,0.6953,319.8605,253.107)">
      <text xml:space="preserve" x="4" y="136.1719" stroke="none">+</text>
      <text xml:space="preserve" x="19" y="137.5762" onclick="umlload('#getConnection()')" stroke="none">getConnection() : Connection</text>
    </g>
    <g font-family="sans-serif" transform="matrix(0.6953,0,0,0.6953,319.8605,253.107)">
      <text xml:space="preserve" x="4" y="152.1719" stroke="none">+</text>
      <text xml:space="preserve" x="19" y="153.5449" onclick="umlload('#getDiagrams()')" stroke="none">getDiagrams() : Diagrams</text>
    </g>
    <g font-family="sans-serif" transform="matrix(0.6953,0,0,0.6953,319.8605,253.107)">
      <text xml:space="preserve" x="4" y="168.1719" stroke="none">+</text>
      <text xml:space="preserve" x="19" y="169.5137" onclick="umlload('#getOptions()')" stroke="none">getOptions() : Options</text>
    </g>
    <g font-family="sans-serif" transform="matrix(0.6953,0,0,0.6953,319.8605,253.107)">
      <text xml:space="preserve" x="4" y="184.1719" stroke="none">+</text>
      <text xml:space="preserve" x="19" y="185.4824" onclick="umlload('#setConnection(com.msopentech.odatajclient.engine.data.metadata.edmx.Connection)')" stroke="none">setConnection(Connection) : void</text>
    </g>
    <g font-family="sans-serif" transform="matrix(0.6953,0,0,0.6953,319.8605,253.107)">
      <text xml:space="preserve" x="4" y="200.1719" stroke="none">+</text>
      <text xml:space="preserve" x="19" y="201.4512" onclick="umlload('#setDiagrams(com.msopentech.odatajclient.engine.data.metadata.edmx.Diagrams)')" stroke="none">setDiagrams(Diagrams) : void</text>
    </g>
    <g font-family="sans-serif" transform="matrix(0.6953,0,0,0.6953,319.8605,253.107)">
      <text xml:space="preserve" x="4" y="216.1719" stroke="none">+</text>
      <text xml:space="preserve" x="19" y="217.4199" onclick="umlload('#setOptions(com.msopentech.odatajclient.engine.data.metadata.edmx.Options)')" stroke="none">setOptions(Options) : void</text>
    </g>
    <g font-family="sans-serif" transform="matrix(0.6953,0,0,0.6953,319.8605,253.107)">
      <text xml:space="preserve" x="-454" y="254.1543" onclick="umlload('http://www.yworks.com/')" stroke="none">yWorks UML Doclet</text>
    </g>
    <g stroke-miterlimit="1.45" transform="matrix(0.6953,0,0,0.6953,319.8605,253.107)" stroke-linecap="butt">
      <path fill="none" d="M119.48 0 L119.48 -69"/>
      <path fill="white" d="M119.48 -84 L113.48 -68 L125.48 -68 Z" stroke="none"/>
      <path fill="none" d="M119.48 -84 L113.48 -68 L125.48 -68 Z"/>
      <path fill="none" d="M-0.0311 11.5664 L-358.7 11.5664"/>
      <line stroke-linecap="square" transform="matrix(-1,0,0,-1,-358.7,11.5664)" fill="none" x1="0" x2="-14" y1="0" y2="-4" stroke-miterlimit="10"/>
      <line stroke-linecap="square" transform="matrix(-1,0,0,-1,-358.7,11.5664)" fill="none" x1="0" x2="-14" y1="0" y2="4" stroke-miterlimit="10"/>
    </g>
    <g stroke-miterlimit="1.45" transform="matrix(0.6953,0,0,0.6953,319.8605,253.107)" stroke-linecap="butt">
      <path fill="none" d="M-0.0275 44.6992 L-370.03 44.6992"/>
      <line stroke-linecap="square" transform="matrix(-1,0,0,-1,-370.03,44.6992)" fill="none" x1="0" x2="-14" y1="0" y2="-4" stroke-miterlimit="10"/>
      <line stroke-linecap="square" transform="matrix(-1,0,0,-1,-370.03,44.6992)" fill="none" x1="0" x2="-14" y1="0" y2="4" stroke-miterlimit="10"/>
    </g>
    <g stroke-miterlimit="1.45" transform="matrix(0.6953,0,0,0.6953,319.8605,253.107)" stroke-linecap="butt">
      <path fill="none" d="M-0.0126 77.832 L-384.45 77.832"/>
      <line stroke-linecap="square" transform="matrix(-1,0,0,-1,-384.45,77.832)" fill="none" x1="0" x2="-14" y1="0" y2="-4" stroke-miterlimit="10"/>
      <line stroke-linecap="square" transform="matrix(-1,0,0,-1,-384.45,77.832)" fill="none" x1="0" x2="-14" y1="0" y2="4" stroke-miterlimit="10"/>
    </g>
    <g stroke-miterlimit="1.45" transform="matrix(0.6953,0,0,0.6953,319.8605,253.107)" stroke-linecap="butt">
      <path fill="none" d="M-0.0282 169.7558 L-66 169.7558"/>
      <line stroke-linecap="square" transform="matrix(-1,0,0,-1,-66,169.7558)" fill="none" x1="0" x2="-14" y1="0" y2="-4" stroke-miterlimit="10"/>
      <line stroke-linecap="square" transform="matrix(-1,0,0,-1,-66,169.7558)" fill="none" x1="0" x2="-14" y1="0" y2="4" stroke-miterlimit="10"/>
    </g>
  </g>
</svg>
