<?xml version="1.0" encoding="UTF-8"?><svg xmlns="http://www.w3.org/2000/svg" xmlns:xlink="http://www.w3.org/1999/xlink" fill-opacity="1" color-rendering="auto" color-interpolation="auto" stroke="black" text-rendering="auto" stroke-linecap="square" width="598" stroke-miterlimit="10" stroke-opacity="1" shape-rendering="auto" fill="black" stroke-dasharray="none" font-weight="normal" stroke-width="1" height="598" font-family="'Dialog'" font-style="normal" stroke-linejoin="miter" font-size="12" stroke-dashoffset="0" image-rendering="auto">
  <!--Generated by ySVG-->
  <defs id="genericDefs"/>
  <g>
    <defs id="defs1">
      <clipPath clipPathUnits="userSpaceOnUse" id="clipPath1">
        <path d="M0 0 L598 0 L598 598 L0 598 L0 0 Z"/>
      </clipPath>
      <clipPath clipPathUnits="userSpaceOnUse" id="clipPath2">
        <path d="M-66 169.7558 C-66 178.7897 -87.1952 186.1132 -113.3408 186.1132 C-139.4864 186.1132 -160.6816 178.7897 -160.6816 169.7558 C-160.6816 160.7219 -139.4864 153.3984 -113.3408 153.3984 C-87.1952 153.3984 -66 160.7219 -66 169.7558 Z"/>
      </clipPath>
      <clipPath clipPathUnits="userSpaceOnUse" id="clipPath3">
        <path d="M-135.01 0 L-66 0 L-66 23.1328 L-135.01 23.1328 L-135.01 0 Z"/>
      </clipPath>
      <clipPath clipPathUnits="userSpaceOnUse" id="clipPath4">
        <path d="M-135.01 33.1328 L-72.18 33.1328 L-72.18 56.2656 L-135.01 56.2656 L-135.01 33.1328 Z"/>
      </clipPath>
      <clipPath clipPathUnits="userSpaceOnUse" id="clipPath5">
        <path d="M-135.01 66.2656 L-81.45 66.2656 L-81.45 89.3984 L-135.01 89.3984 L-135.01 66.2656 Z"/>
      </clipPath>
      <clipPath clipPathUnits="userSpaceOnUse" id="clipPath6">
        <path d="M255.44 -107.1328 L313.12 -107.1328 L313.12 -84 L255.44 -84 L255.44 -107.1328 Z"/>
      </clipPath>
      <clipPath clipPathUnits="userSpaceOnUse" id="clipPath7">
        <path d="M0 0 L568.56 0 L568.56 364.9688 L0 364.9688 L0 0 Z"/>
      </clipPath>
      <script type="text/ecmascript"><![CDATA[
function umlload(newLocation)
{
if (newLocation.charAt(0) != '#') {
if (newLocation.indexOf("://") > -1) {
window.parent.location.href = newLocation;
} else {
var tmp = window.parent.location.href;
tmp = tmp.substring(0, tmp.lastIndexOf("/") + 1);
window.parent.location.href = tmp.concat(newLocation);
}
} else {
window.parent.location.hash = newLocation;
}
}
]]></script>
    </defs>
    <g fill="rgb(238,238,255)" transform="matrix(0.8016,0,0,0.8016,135.4718,189.1796)" stroke="rgb(238,238,255)">
      <rect width="67.654" x="-168.6816" height="17.9688" y="127.3984" stroke="none"/>
    </g>
    <g fill="rgb(166,166,178)" stroke-miterlimit="1.45" transform="matrix(0.8016,0,0,0.8016,135.4718,189.1796)" stroke-linecap="butt" stroke="rgb(166,166,178)">
      <rect fill="none" width="67.654" x="-168.6816" height="17.9688" y="127.3984"/>
    </g>
    <g fill="rgb(238,238,255)" transform="matrix(0.8016,0,0,0.8016,135.4718,189.1796)" stroke="rgb(238,238,255)">
      <rect width="110.6816" x="-168.6816" height="48.746" y="145.3672" stroke="none"/>
    </g>
    <g fill="rgb(166,166,178)" stroke-miterlimit="1.45" transform="matrix(0.8016,0,0,0.8016,135.4718,189.1796)" stroke-linecap="butt" stroke="rgb(166,166,178)">
      <rect fill="none" width="110.6816" x="-168.6816" height="48.746" y="145.3672"/>
    </g>
    <g font-family="sans-serif" transform="matrix(0.8016,0,0,0.8016,135.4718,189.1796)">
      <text xml:space="preserve" x="-162.6816" y="140.5371" onclick="umlload('http://docs.oracle.com/javase/6/docs/api/java/util/package-summary.html')" stroke="none">java.util</text>
    </g>
    <g fill="rgb(221,221,255)" transform="matrix(0.8016,0,0,0.8016,135.4718,189.1796)" stroke="rgb(221,221,255)">
      <rect x="-160.6816" y="153.3984" clip-path="url(#clipPath2)" width="94.6816" height="32.7147" stroke="none"/>
    </g>
    <g fill="rgb(154,154,178)" stroke-miterlimit="1.45" transform="matrix(0.8016,0,0,0.8016,135.4718,189.1796)" stroke-linecap="butt" stroke="rgb(154,154,178)">
      <ellipse rx="47.3408" fill="none" ry="16.3574" cx="-113.3408" cy="169.7558"/>
    </g>
    <g font-style="italic" font-size="13" font-weight="bold" font-family="sans-serif" transform="matrix(0.8016,0,0,0.8016,135.4718,189.1796)">
      <text xml:space="preserve" x="-141.8408" y="174.2563" onclick="umlload('http://docs.oracle.com/javase/6/docs/api/java/util/List.html')" stroke="none">List&lt;E&gt;</text>
    </g>
    <g fill="rgb(238,238,255)" transform="matrix(0.8016,0,0,0.8016,135.4718,189.1796)" stroke="rgb(238,238,255)">
      <rect width="76.1412" x="-143.01" height="17.9688" y="-26" stroke="none"/>
    </g>
    <g fill="rgb(166,166,178)" stroke-miterlimit="1.45" transform="matrix(0.8016,0,0,0.8016,135.4718,189.1796)" stroke-linecap="butt" stroke="rgb(166,166,178)">
      <rect fill="none" width="76.1412" x="-143.01" height="17.9688" y="-26"/>
    </g>
    <g fill="rgb(238,238,255)" transform="matrix(0.8016,0,0,0.8016,135.4718,189.1796)" stroke="rgb(238,238,255)">
      <rect width="85.01" x="-143.01" height="105.4297" y="-8.0312" stroke="none"/>
    </g>
    <g fill="rgb(166,166,178)" stroke-miterlimit="1.45" transform="matrix(0.8016,0,0,0.8016,135.4718,189.1796)" stroke-linecap="butt" stroke="rgb(166,166,178)">
      <rect fill="none" width="85.01" x="-143.01" height="105.4297" y="-8.0312"/>
    </g>
    <g font-family="sans-serif" transform="matrix(0.8016,0,0,0.8016,135.4718,189.1796)">
      <text xml:space="preserve" x="-137.01" y="-12.8613" onclick="umlload('http://docs.oracle.com/javase/6/docs/api/java/lang/package-summary.html')" stroke="none">java.lang</text>
    </g>
    <g fill="rgb(187,187,255)" transform="matrix(0.8016,0,0,0.8016,135.4718,189.1796)" stroke="rgb(187,187,255)">
      <rect x="-135.01" y="0" clip-path="url(#clipPath3)" width="69.01" height="23.1328" stroke="none"/>
    </g>
    <g fill="rgb(130,130,178)" stroke-miterlimit="1.45" transform="matrix(0.8016,0,0,0.8016,135.4718,189.1796)" stroke-linecap="butt" stroke="rgb(130,130,178)">
      <rect fill="none" width="69.01" x="-135.01" height="23.1328" y="0"/>
    </g>
    <g font-size="13" font-weight="bold" font-family="sans-serif" transform="matrix(0.8016,0,0,0.8016,135.4718,189.1796)">
      <text xml:space="preserve" x="-130.005" y="16.0669" onclick="umlload('http://docs.oracle.com/javase/6/docs/api/java/lang/Boolean.html')" stroke="none">Boolean</text>
    </g>
    <g fill="rgb(187,187,255)" transform="matrix(0.8016,0,0,0.8016,135.4718,189.1796)" stroke="rgb(187,187,255)">
      <rect x="-135.01" y="33.1328" clip-path="url(#clipPath4)" width="62.83" height="23.1328" stroke="none"/>
    </g>
    <g fill="rgb(130,130,178)" stroke-miterlimit="1.45" transform="matrix(0.8016,0,0,0.8016,135.4718,189.1796)" stroke-linecap="butt" stroke="rgb(130,130,178)">
      <rect fill="none" width="62.83" x="-135.01" height="23.1328" y="33.1328"/>
    </g>
    <g font-size="13" font-weight="bold" font-family="sans-serif" transform="matrix(0.8016,0,0,0.8016,135.4718,189.1796)">
      <text xml:space="preserve" x="-130.095" y="49.1997" onclick="umlload('http://docs.oracle.com/javase/6/docs/api/java/lang/Integer.html')" stroke="none">Integer</text>
    </g>
    <g fill="rgb(187,187,255)" transform="matrix(0.8016,0,0,0.8016,135.4718,189.1796)" stroke="rgb(187,187,255)">
      <rect x="-135.01" y="66.2656" clip-path="url(#clipPath5)" width="53.56" height="23.1328" stroke="none"/>
    </g>
    <g fill="rgb(130,130,178)" stroke-miterlimit="1.45" transform="matrix(0.8016,0,0,0.8016,135.4718,189.1796)" stroke-linecap="butt" stroke="rgb(130,130,178)">
      <rect fill="none" width="53.56" x="-135.01" height="23.1328" y="66.2656"/>
    </g>
    <g font-size="13" font-weight="bold" font-family="sans-serif" transform="matrix(0.8016,0,0,0.8016,135.4718,189.1796)">
      <text xml:space="preserve" x="-130.23" y="82.3325" onclick="umlload('http://docs.oracle.com/javase/6/docs/api/java/lang/String.html')" stroke="none">String</text>
    </g>
    <g fill="rgb(238,238,255)" transform="matrix(0.8016,0,0,0.8016,135.4718,189.1796)" stroke="rgb(238,238,255)">
      <rect width="76.1412" x="247.44" height="17.9688" y="-133.1328" stroke="none"/>
    </g>
    <g fill="rgb(166,166,178)" stroke-miterlimit="1.45" transform="matrix(0.8016,0,0,0.8016,135.4718,189.1796)" stroke-linecap="butt" stroke="rgb(166,166,178)">
      <rect fill="none" width="76.1412" x="247.44" height="17.9688" y="-133.1328"/>
    </g>
    <g fill="rgb(238,238,255)" transform="matrix(0.8016,0,0,0.8016,135.4718,189.1796)" stroke="rgb(238,238,255)">
      <rect width="76.1412" x="247.44" height="39.1641" y="-115.1641" stroke="none"/>
    </g>
    <g fill="rgb(166,166,178)" stroke-miterlimit="1.45" transform="matrix(0.8016,0,0,0.8016,135.4718,189.1796)" stroke-linecap="butt" stroke="rgb(166,166,178)">
      <rect fill="none" width="76.1412" x="247.44" height="39.1641" y="-115.1641"/>
    </g>
    <g font-family="sans-serif" transform="matrix(0.8016,0,0,0.8016,135.4718,189.1796)">
      <text xml:space="preserve" x="253.44" y="-119.9941" onclick="umlload('http://docs.oracle.com/javase/6/docs/api/java/lang/package-summary.html')" stroke="none">java.lang</text>
    </g>
    <g fill="rgb(187,187,255)" transform="matrix(0.8016,0,0,0.8016,135.4718,189.1796)" stroke="rgb(187,187,255)">
      <rect x="255.44" y="-107.1328" clip-path="url(#clipPath6)" width="57.68" height="23.1328" stroke="none"/>
    </g>
    <g fill="rgb(130,130,178)" stroke-miterlimit="1.45" transform="matrix(0.8016,0,0,0.8016,135.4718,189.1796)" stroke-linecap="butt" stroke="rgb(130,130,178)">
      <rect fill="none" width="57.68" x="255.44" height="23.1328" y="-107.1328"/>
    </g>
    <g font-size="13" font-weight="bold" font-family="sans-serif" transform="matrix(0.8016,0,0,0.8016,135.4718,189.1796)">
      <text xml:space="preserve" x="260.28" y="-91.0659" onclick="umlload('http://docs.oracle.com/javase/6/docs/api/java/lang/Object.html')" stroke="none">Object</text>
    </g>
    <g fill="rgb(238,238,255)" transform="matrix(0.8016,0,0,0.8016,135.4718,189.1796)" stroke="rgb(238,238,255)">
      <rect width="407.142" x="-8" height="17.9688" y="-26" stroke="none"/>
    </g>
    <g fill="rgb(166,166,178)" stroke-miterlimit="1.45" transform="matrix(0.8016,0,0,0.8016,135.4718,189.1796)" stroke-linecap="butt" stroke="rgb(166,166,178)">
      <rect fill="none" width="407.142" x="-8" height="17.9688" y="-26"/>
    </g>
    <g fill="rgb(238,238,255)" transform="matrix(0.8016,0,0,0.8016,135.4718,189.1796)" stroke="rgb(238,238,255)">
      <rect width="584.56" x="-8" height="381" y="-8.0312" stroke="none"/>
    </g>
    <g fill="rgb(166,166,178)" stroke-miterlimit="1.45" transform="matrix(0.8016,0,0,0.8016,135.4718,189.1796)" stroke-linecap="butt" stroke="rgb(166,166,178)">
      <rect fill="none" width="584.56" x="-8" height="381" y="-8.0312"/>
    </g>
    <g font-family="sans-serif" transform="matrix(0.8016,0,0,0.8016,135.4718,189.1796)">
      <text xml:space="preserve" x="-2" y="-12.8613" onclick="umlload('package-summary.html')" stroke="none">com.msopentech.odatajclient.engine.data.metadata.edmx</text>
    </g>
    <g fill="rgb(187,187,255)" transform="matrix(0.8016,0,0,0.8016,135.4718,189.1796)" stroke="rgb(187,187,255)">
      <rect x="0" y="0" clip-path="url(#clipPath7)" width="568.56" height="26.625" stroke="none"/>
      <line clip-path="url(#clipPath7)" fill="none" x1="0" x2="568.56" y1="26.625" y2="26.625" stroke="black"/>
      <rect x="0" y="27.625" clip-path="url(#clipPath7)" width="568.56" height="111.7812" stroke="none"/>
      <line clip-path="url(#clipPath7)" fill="none" x1="0" x2="568.56" y1="139.4062" y2="139.4062" stroke="black"/>
      <rect x="0" y="140.4062" clip-path="url(#clipPath7)" width="568.56" height="15.9688" stroke="none"/>
      <line clip-path="url(#clipPath7)" fill="none" x1="0" x2="568.56" y1="156.375" y2="156.375" stroke="black"/>
      <rect x="0" y="157.375" clip-path="url(#clipPath7)" width="568.56" height="207.5938" stroke="none"/>
    </g>
    <g fill="rgb(130,130,178)" stroke-miterlimit="1.45" transform="matrix(0.8016,0,0,0.8016,135.4718,189.1796)" stroke-linecap="butt" stroke="rgb(130,130,178)">
      <rect fill="none" width="568.56" x="0" height="364.9688" y="0"/>
    </g>
    <g font-size="16" font-weight="bold" font-family="sans-serif" transform="matrix(0.8016,0,0,0.8016,135.4718,189.1796)">
      <text xml:space="preserve" x="248.28" y="18.8516" onclick="umlload('#')" stroke="none">Diagram</text>
    </g>
    <g font-family="sans-serif" transform="matrix(0.8016,0,0,0.8016,135.4718,189.1796)">
      <text xml:space="preserve" x="4" y="38.1719" stroke="none">#</text>
      <text xml:space="preserve" x="19" y="39.7637" onclick="umlload('#diagramId')" stroke="none">diagramId : String</text>
    </g>
    <g font-family="sans-serif" transform="matrix(0.8016,0,0,0.8016,135.4718,189.1796)">
      <text xml:space="preserve" x="4" y="54.1719" stroke="none">#</text>
      <text xml:space="preserve" x="19" y="55.7324" onclick="umlload('#displayType')" stroke="none">displayType : Boolean</text>
    </g>
    <g font-family="sans-serif" transform="matrix(0.8016,0,0,0.8016,135.4718,189.1796)">
      <text xml:space="preserve" x="4" y="70.1719" stroke="none">#</text>
      <text xml:space="preserve" x="19" y="71.7012" onclick="umlload('#entityTypeShapeOrAssociationConnectorOrInheritanceConnector')" stroke="none">entityTypeShapeOrAssociationConnectorOrInheritanceConnector : List&lt;Object&gt;</text>
    </g>
    <g font-family="sans-serif" transform="matrix(0.8016,0,0,0.8016,135.4718,189.1796)">
      <text xml:space="preserve" x="4" y="86.1719" stroke="none">#</text>
      <text xml:space="preserve" x="19" y="87.6699" onclick="umlload('#name')" stroke="none">name : String</text>
    </g>
    <g font-family="sans-serif" transform="matrix(0.8016,0,0,0.8016,135.4718,189.1796)">
      <text xml:space="preserve" x="4" y="102.1719" stroke="none">#</text>
      <text xml:space="preserve" x="19" y="103.6387" onclick="umlload('#showGrid')" stroke="none">showGrid : Boolean</text>
    </g>
    <g font-family="sans-serif" transform="matrix(0.8016,0,0,0.8016,135.4718,189.1796)">
      <text xml:space="preserve" x="4" y="118.1719" stroke="none">#</text>
      <text xml:space="preserve" x="19" y="119.6074" onclick="umlload('#snapToGrid')" stroke="none">snapToGrid : Boolean</text>
    </g>
    <g font-family="sans-serif" transform="matrix(0.8016,0,0,0.8016,135.4718,189.1796)">
      <text xml:space="preserve" x="4" y="134.1719" stroke="none">#</text>
      <text xml:space="preserve" x="19" y="135.5762" onclick="umlload('#zoomLevel')" stroke="none">zoomLevel : Integer</text>
    </g>
    <g font-family="sans-serif" transform="matrix(0.8016,0,0,0.8016,135.4718,189.1796)">
      <text xml:space="preserve" x="4" y="151.1719" stroke="none">+</text>
      <text xml:space="preserve" x="19" y="152.5449" onclick="umlload('#Diagram()')" stroke="none">Diagram()</text>
    </g>
    <g font-family="sans-serif" transform="matrix(0.8016,0,0,0.8016,135.4718,189.1796)">
      <text xml:space="preserve" x="4" y="168.1719" stroke="none">+</text>
      <text xml:space="preserve" x="19" y="169.5137" onclick="umlload('#getDiagramId()')" stroke="none">getDiagramId() : String</text>
    </g>
    <g font-family="sans-serif" transform="matrix(0.8016,0,0,0.8016,135.4718,189.1796)">
      <text xml:space="preserve" x="4" y="184.1719" stroke="none">+</text>
      <text xml:space="preserve" x="19" y="185.4824" onclick="umlload('#getEntityTypeShapeOrAssociationConnectorOrInheritanceConnector()')" stroke="none">getEntityTypeShapeOrAssociationConnectorOrInheritanceConnector() : List&lt;Object&gt;</text>
    </g>
    <g font-family="sans-serif" transform="matrix(0.8016,0,0,0.8016,135.4718,189.1796)">
      <text xml:space="preserve" x="4" y="200.1719" stroke="none">+</text>
      <text xml:space="preserve" x="19" y="201.4512" onclick="umlload('#getName()')" stroke="none">getName() : String</text>
    </g>
    <g font-family="sans-serif" transform="matrix(0.8016,0,0,0.8016,135.4718,189.1796)">
      <text xml:space="preserve" x="4" y="216.1719" stroke="none">+</text>
      <text xml:space="preserve" x="19" y="217.4199" onclick="umlload('#getZoomLevel()')" stroke="none">getZoomLevel() : Integer</text>
    </g>
    <g font-family="sans-serif" transform="matrix(0.8016,0,0,0.8016,135.4718,189.1796)">
      <text xml:space="preserve" x="4" y="232.1719" stroke="none">+</text>
      <text xml:space="preserve" x="19" y="233.3887" onclick="umlload('#isDisplayType()')" stroke="none">isDisplayType() : Boolean</text>
    </g>
    <g font-family="sans-serif" transform="matrix(0.8016,0,0,0.8016,135.4718,189.1796)">
      <text xml:space="preserve" x="4" y="248.1719" stroke="none">+</text>
      <text xml:space="preserve" x="19" y="249.3574" onclick="umlload('#isShowGrid()')" stroke="none">isShowGrid() : Boolean</text>
    </g>
    <g font-family="sans-serif" transform="matrix(0.8016,0,0,0.8016,135.4718,189.1796)">
      <text xml:space="preserve" x="4" y="264.1719" stroke="none">+</text>
      <text xml:space="preserve" x="19" y="265.3262" onclick="umlload('#isSnapToGrid()')" stroke="none">isSnapToGrid() : Boolean</text>
    </g>
    <g font-family="sans-serif" transform="matrix(0.8016,0,0,0.8016,135.4718,189.1796)">
      <text xml:space="preserve" x="4" y="280.1719" stroke="none">+</text>
      <text xml:space="preserve" x="19" y="281.2949" onclick="umlload('#setDiagramId(java.lang.String)')" stroke="none">setDiagramId(String) : void</text>
    </g>
    <g font-family="sans-serif" transform="matrix(0.8016,0,0,0.8016,135.4718,189.1796)">
      <text xml:space="preserve" x="4" y="296.1719" stroke="none">+</text>
      <text xml:space="preserve" x="19" y="297.2637" onclick="umlload('#setDisplayType(java.lang.Boolean)')" stroke="none">setDisplayType(Boolean) : void</text>
    </g>
    <g font-family="sans-serif" transform="matrix(0.8016,0,0,0.8016,135.4718,189.1796)">
      <text xml:space="preserve" x="4" y="312.1719" stroke="none">+</text>
      <text xml:space="preserve" x="19" y="313.2324" onclick="umlload('#setName(java.lang.String)')" stroke="none">setName(String) : void</text>
    </g>
    <g font-family="sans-serif" transform="matrix(0.8016,0,0,0.8016,135.4718,189.1796)">
      <text xml:space="preserve" x="4" y="328.1719" stroke="none">+</text>
      <text xml:space="preserve" x="19" y="329.2012" onclick="umlload('#setShowGrid(java.lang.Boolean)')" stroke="none">setShowGrid(Boolean) : void</text>
    </g>
    <g font-family="sans-serif" transform="matrix(0.8016,0,0,0.8016,135.4718,189.1796)">
      <text xml:space="preserve" x="4" y="344.1719" stroke="none">+</text>
      <text xml:space="preserve" x="19" y="345.1699" onclick="umlload('#setSnapToGrid(java.lang.Boolean)')" stroke="none">setSnapToGrid(Boolean) : void</text>
    </g>
    <g font-family="sans-serif" transform="matrix(0.8016,0,0,0.8016,135.4718,189.1796)">
      <text xml:space="preserve" x="4" y="359.1719" stroke="none">+</text>
      <text xml:space="preserve" x="19" y="361.1387" onclick="umlload('#setZoomLevel(java.lang.Integer)')" stroke="none">setZoomLevel(Integer) : void</text>
    </g>
    <g font-family="sans-serif" transform="matrix(0.8016,0,0,0.8016,135.4718,189.1796)">
      <text xml:space="preserve" x="-163" y="397.1543" onclick="umlload('http://www.yworks.com/')" stroke="none">yWorks UML Doclet</text>
    </g>
    <g stroke-miterlimit="1.45" transform="matrix(0.8016,0,0,0.8016,135.4718,189.1796)" stroke-linecap="butt">
      <path fill="none" d="M284.28 0 L284.28 -69"/>
      <path fill="white" d="M284.28 -84 L278.28 -68 L290.28 -68 Z" stroke="none"/>
      <path fill="none" d="M284.28 -84 L278.28 -68 L290.28 -68 Z"/>
      <path fill="none" d="M-0.0344 11.5664 L-66 11.5664"/>
      <line stroke-linecap="square" transform="matrix(-1,0,0,-1,-66,11.5664)" fill="none" x1="0" x2="-14" y1="0" y2="-4" stroke-miterlimit="10"/>
      <line stroke-linecap="square" transform="matrix(-1,0,0,-1,-66,11.5664)" fill="none" x1="0" x2="-14" y1="0" y2="4" stroke-miterlimit="10"/>
    </g>
    <g stroke-miterlimit="1.45" transform="matrix(0.8016,0,0,0.8016,135.4718,189.1796)" stroke-linecap="butt">
      <path fill="none" d="M-0.0449 44.6992 L-72.18 44.6992"/>
      <line stroke-linecap="square" transform="matrix(-1,0,0,-1,-72.18,44.6992)" fill="none" x1="0" x2="-14" y1="0" y2="-4" stroke-miterlimit="10"/>
      <line stroke-linecap="square" transform="matrix(-1,0,0,-1,-72.18,44.6992)" fill="none" x1="0" x2="-14" y1="0" y2="4" stroke-miterlimit="10"/>
    </g>
    <g stroke-miterlimit="1.45" transform="matrix(0.8016,0,0,0.8016,135.4718,189.1796)" stroke-linecap="butt">
      <path fill="none" d="M0.0073 77.832 L-81.45 77.832"/>
      <line stroke-linecap="square" transform="matrix(-1,0,0,-1,-81.45,77.832)" fill="none" x1="0" x2="-14" y1="0" y2="-4" stroke-miterlimit="10"/>
      <line stroke-linecap="square" transform="matrix(-1,0,0,-1,-81.45,77.832)" fill="none" x1="0" x2="-14" y1="0" y2="4" stroke-miterlimit="10"/>
    </g>
    <g stroke-miterlimit="1.45" transform="matrix(0.8016,0,0,0.8016,135.4718,189.1796)" stroke-linecap="butt">
      <path fill="none" d="M-0.0053 169.7558 L-66 169.7558"/>
      <line stroke-linecap="square" transform="matrix(-1,0,0,-1,-66,169.7558)" fill="none" x1="0" x2="-14" y1="0" y2="-4" stroke-miterlimit="10"/>
      <line stroke-linecap="square" transform="matrix(-1,0,0,-1,-66,169.7558)" fill="none" x1="0" x2="-14" y1="0" y2="4" stroke-miterlimit="10"/>
    </g>
  </g>
</svg>
