<?xml version="1.0" encoding="UTF-8"?><svg xmlns="http://www.w3.org/2000/svg" xmlns:xlink="http://www.w3.org/1999/xlink" fill-opacity="1" color-rendering="auto" color-interpolation="auto" stroke="black" text-rendering="auto" stroke-linecap="square" width="598" stroke-miterlimit="10" stroke-opacity="1" shape-rendering="auto" fill="black" stroke-dasharray="none" font-weight="normal" stroke-width="1" height="598" font-family="'Dialog'" font-style="normal" stroke-linejoin="miter" font-size="12" stroke-dashoffset="0" image-rendering="auto">
  <!--Generated by ySVG-->
  <defs id="genericDefs"/>
  <g>
    <defs id="defs1">
      <clipPath clipPathUnits="userSpaceOnUse" id="clipPath1">
        <path d="M0 0 L598 0 L598 598 L0 598 L0 0 Z"/>
      </clipPath>
      <clipPath clipPathUnits="userSpaceOnUse" id="clipPath2">
        <path d="M549.07 617.2578 L685.03 617.2578 L685.03 640.3906 L549.07 640.3906 L549.07 617.2578 Z"/>
      </clipPath>
      <clipPath clipPathUnits="userSpaceOnUse" id="clipPath3">
        <path d="M549.07 0 L721.08 0 L721.08 23.1328 L549.07 23.1328 L549.07 0 Z"/>
      </clipPath>
      <clipPath clipPathUnits="userSpaceOnUse" id="clipPath4">
        <path d="M549.07 33.1328 L641.77 33.1328 L641.77 56.2656 L549.07 56.2656 L549.07 33.1328 Z"/>
      </clipPath>
      <clipPath clipPathUnits="userSpaceOnUse" id="clipPath5">
        <path d="M549.07 66.2656 L673.7 66.2656 L673.7 89.3984 L549.07 89.3984 L549.07 66.2656 Z"/>
      </clipPath>
      <clipPath clipPathUnits="userSpaceOnUse" id="clipPath6">
        <path d="M549.07 99.3984 L656.19 99.3984 L656.19 122.5312 L549.07 122.5312 L549.07 99.3984 Z"/>
      </clipPath>
      <clipPath clipPathUnits="userSpaceOnUse" id="clipPath7">
        <path d="M549.07 132.5312 L625.29 132.5312 L625.29 155.6641 L549.07 155.6641 L549.07 132.5312 Z"/>
      </clipPath>
      <clipPath clipPathUnits="userSpaceOnUse" id="clipPath8">
        <path d="M549.07 165.6641 L744.77 165.6641 L744.77 188.7969 L549.07 188.7969 L549.07 165.6641 Z"/>
      </clipPath>
      <clipPath clipPathUnits="userSpaceOnUse" id="clipPath9">
        <path d="M549.07 198.7969 L691.21 198.7969 L691.21 221.9297 L549.07 221.9297 L549.07 198.7969 Z"/>
      </clipPath>
      <clipPath clipPathUnits="userSpaceOnUse" id="clipPath10">
        <path d="M549.07 231.9297 L622.2 231.9297 L622.2 255.0625 L549.07 255.0625 L549.07 231.9297 Z"/>
      </clipPath>
      <clipPath clipPathUnits="userSpaceOnUse" id="clipPath11">
        <path d="M549.07 265.0625 L630.44 265.0625 L630.44 288.1953 L549.07 288.1953 L549.07 265.0625 Z"/>
      </clipPath>
      <clipPath clipPathUnits="userSpaceOnUse" id="clipPath12">
        <path d="M549.07 298.1953 L599.54 298.1953 L599.54 321.3281 L549.07 321.3281 L549.07 298.1953 Z"/>
      </clipPath>
      <clipPath clipPathUnits="userSpaceOnUse" id="clipPath13">
        <path d="M549.07 331.3281 L684 331.3281 L684 354.4609 L549.07 354.4609 L549.07 331.3281 Z"/>
      </clipPath>
      <clipPath clipPathUnits="userSpaceOnUse" id="clipPath14">
        <path d="M549.07 364.4609 L719.02 364.4609 L719.02 387.5938 L549.07 387.5938 L549.07 364.4609 Z"/>
      </clipPath>
      <clipPath clipPathUnits="userSpaceOnUse" id="clipPath15">
        <path d="M549.07 397.5938 L616.02 397.5938 L616.02 420.7266 L549.07 420.7266 L549.07 397.5938 Z"/>
      </clipPath>
      <clipPath clipPathUnits="userSpaceOnUse" id="clipPath16">
        <path d="M549.07 430.7266 L620.14 430.7266 L620.14 453.8594 L549.07 453.8594 L549.07 430.7266 Z"/>
      </clipPath>
      <clipPath clipPathUnits="userSpaceOnUse" id="clipPath17">
        <path d="M549.07 463.8594 L760.22 463.8594 L760.22 486.9922 L549.07 486.9922 L549.07 463.8594 Z"/>
      </clipPath>
      <clipPath clipPathUnits="userSpaceOnUse" id="clipPath18">
        <path d="M549.07 496.9922 L695.33 496.9922 L695.33 520.125 L549.07 520.125 L549.07 496.9922 Z"/>
      </clipPath>
      <clipPath clipPathUnits="userSpaceOnUse" id="clipPath19">
        <path d="M549.07 530.125 L734.47 530.125 L734.47 553.2578 L549.07 553.2578 L549.07 530.125 Z"/>
      </clipPath>
      <clipPath clipPathUnits="userSpaceOnUse" id="clipPath20">
        <path d="M-208.32 0 L-144.46 0 L-144.46 23.1328 L-208.32 23.1328 L-208.32 0 Z"/>
      </clipPath>
      <clipPath clipPathUnits="userSpaceOnUse" id="clipPath21">
        <path d="M212.695 -107.1328 L270.375 -107.1328 L270.375 -84 L212.695 -84 L212.695 -107.1328 Z"/>
      </clipPath>
      <clipPath clipPathUnits="userSpaceOnUse" id="clipPath22">
        <path d="M0 0 L483.07 0 L483.07 648.3906 L0 648.3906 L0 0 Z"/>
      </clipPath>
      <script type="text/ecmascript"><![CDATA[
function umlload(newLocation)
{
if (newLocation.charAt(0) != '#') {
if (newLocation.indexOf("://") > -1) {
window.parent.location.href = newLocation;
} else {
var tmp = window.parent.location.href;
tmp = tmp.substring(0, tmp.lastIndexOf("/") + 1);
window.parent.location.href = tmp.concat(newLocation);
}
} else {
window.parent.location.hash = newLocation;
}
}
]]></script>
    </defs>
    <g fill="rgb(238,238,255)" transform="matrix(0.5129,0,0,0.5129,111.2916,155.9108)" stroke="rgb(238,238,255)">
      <rect width="107.9682" x="541.07" height="17.9688" y="591.2578" stroke="none"/>
    </g>
    <g fill="rgb(166,166,178)" stroke-miterlimit="1.45" transform="matrix(0.5129,0,0,0.5129,111.2916,155.9108)" stroke-linecap="butt" stroke="rgb(166,166,178)">
      <rect fill="none" width="107.9682" x="541.07" height="17.9688" y="591.2578"/>
    </g>
    <g fill="rgb(238,238,255)" transform="matrix(0.5129,0,0,0.5129,111.2916,155.9108)" stroke="rgb(238,238,255)">
      <rect width="151.96" x="541.07" height="39.1641" y="609.2266" stroke="none"/>
    </g>
    <g fill="rgb(166,166,178)" stroke-miterlimit="1.45" transform="matrix(0.5129,0,0,0.5129,111.2916,155.9108)" stroke-linecap="butt" stroke="rgb(166,166,178)">
      <rect fill="none" width="151.96" x="541.07" height="39.1641" y="609.2266"/>
    </g>
    <g font-family="sans-serif" transform="matrix(0.5129,0,0,0.5129,111.2916,155.9108)">
      <text xml:space="preserve" x="547.07" y="604.3965" onclick="umlload('http://docs.oracle.com/javase/6/docs/api/javax/xml/bind/package-summary.html')" stroke="none">javax.xml.bind</text>
    </g>
    <g fill="rgb(187,187,255)" transform="matrix(0.5129,0,0,0.5129,111.2916,155.9108)" stroke="rgb(187,187,255)">
      <rect x="549.07" y="617.2578" clip-path="url(#clipPath2)" width="135.96" height="23.1328" stroke="none"/>
    </g>
    <g fill="rgb(130,130,178)" stroke-miterlimit="1.45" transform="matrix(0.5129,0,0,0.5129,111.2916,155.9108)" stroke-linecap="butt" stroke="rgb(130,130,178)">
      <rect fill="none" width="135.96" x="549.07" height="23.1328" y="617.2578"/>
    </g>
    <g font-size="13" font-weight="bold" font-family="sans-serif" transform="matrix(0.5129,0,0,0.5129,111.2916,155.9108)">
      <text xml:space="preserve" x="555.05" y="633.3247" onclick="umlload('http://docs.oracle.com/javase/6/docs/api/javax/xml/bind/JAXBElement.html')" stroke="none">JAXBElement&lt;T&gt;</text>
    </g>
    <g fill="rgb(238,238,255)" transform="matrix(0.5129,0,0,0.5129,111.2916,155.9108)" stroke="rgb(238,238,255)">
      <rect width="407.142" x="541.07" height="17.9688" y="-26" stroke="none"/>
    </g>
    <g fill="rgb(166,166,178)" stroke-miterlimit="1.45" transform="matrix(0.5129,0,0,0.5129,111.2916,155.9108)" stroke-linecap="butt" stroke="rgb(166,166,178)">
      <rect fill="none" width="407.142" x="541.07" height="17.9688" y="-26"/>
    </g>
    <g fill="rgb(238,238,255)" transform="matrix(0.5129,0,0,0.5129,111.2916,155.9108)" stroke="rgb(238,238,255)">
      <rect width="407.15" x="541.07" height="569.2891" y="-8.0312" stroke="none"/>
    </g>
    <g fill="rgb(166,166,178)" stroke-miterlimit="1.45" transform="matrix(0.5129,0,0,0.5129,111.2916,155.9108)" stroke-linecap="butt" stroke="rgb(166,166,178)">
      <rect fill="none" width="407.15" x="541.07" height="569.2891" y="-8.0312"/>
    </g>
    <g font-family="sans-serif" transform="matrix(0.5129,0,0,0.5129,111.2916,155.9108)">
      <text xml:space="preserve" x="547.07" y="-12.8613" onclick="umlload('../../../../../../../com/msopentech/odatajclient/engine/data/metadata/edmx/package-summary.html')" stroke="none">com.msopentech.odatajclient.engine.data.metadata.edmx</text>
    </g>
    <g fill="rgb(187,187,255)" transform="matrix(0.5129,0,0,0.5129,111.2916,155.9108)" stroke="rgb(187,187,255)">
      <rect x="549.07" y="0" clip-path="url(#clipPath3)" width="172.01" height="23.1328" stroke="none"/>
    </g>
    <g fill="rgb(130,130,178)" stroke-miterlimit="1.45" transform="matrix(0.5129,0,0,0.5129,111.2916,155.9108)" stroke-linecap="butt" stroke="rgb(130,130,178)">
      <rect fill="none" width="172.01" x="549.07" height="23.1328" y="0"/>
    </g>
    <g font-size="13" font-weight="bold" font-family="sans-serif" transform="matrix(0.5129,0,0,0.5129,111.2916,155.9108)">
      <text xml:space="preserve" x="555.575" y="16.0669" onclick="umlload('../../../../../../../com/msopentech/odatajclient/engine/data/metadata/edmx/AssociationConnector.html')" stroke="none">AssociationConnector</text>
    </g>
    <g fill="rgb(187,187,255)" transform="matrix(0.5129,0,0,0.5129,111.2916,155.9108)" stroke="rgb(187,187,255)">
      <rect x="549.07" y="33.1328" clip-path="url(#clipPath4)" width="92.7" height="23.1328" stroke="none"/>
    </g>
    <g fill="rgb(130,130,178)" stroke-miterlimit="1.45" transform="matrix(0.5129,0,0,0.5129,111.2916,155.9108)" stroke-linecap="butt" stroke="rgb(130,130,178)">
      <rect fill="none" width="92.7" x="549.07" height="23.1328" y="33.1328"/>
    </g>
    <g font-size="13" font-weight="bold" font-family="sans-serif" transform="matrix(0.5129,0,0,0.5129,111.2916,155.9108)">
      <text xml:space="preserve" x="554.42" y="49.1997" onclick="umlload('../../../../../../../com/msopentech/odatajclient/engine/data/metadata/edmx/Connection.html')" stroke="none">Connection</text>
    </g>
    <g fill="rgb(187,187,255)" transform="matrix(0.5129,0,0,0.5129,111.2916,155.9108)" stroke="rgb(187,187,255)">
      <rect x="549.07" y="66.2656" clip-path="url(#clipPath5)" width="124.63" height="23.1328" stroke="none"/>
    </g>
    <g fill="rgb(130,130,178)" stroke-miterlimit="1.45" transform="matrix(0.5129,0,0,0.5129,111.2916,155.9108)" stroke-linecap="butt" stroke="rgb(130,130,178)">
      <rect fill="none" width="124.63" x="549.07" height="23.1328" y="66.2656"/>
    </g>
    <g font-size="13" font-weight="bold" font-family="sans-serif" transform="matrix(0.5129,0,0,0.5129,111.2916,155.9108)">
      <text xml:space="preserve" x="554.885" y="82.3325" onclick="umlload('../../../../../../../com/msopentech/odatajclient/engine/data/metadata/edmx/ConnectorPoint.html')" stroke="none">ConnectorPoint</text>
    </g>
    <g fill="rgb(187,187,255)" transform="matrix(0.5129,0,0,0.5129,111.2916,155.9108)" stroke="rgb(187,187,255)">
      <rect x="549.07" y="99.3984" clip-path="url(#clipPath6)" width="107.12" height="23.1328" stroke="none"/>
    </g>
    <g fill="rgb(130,130,178)" stroke-miterlimit="1.45" transform="matrix(0.5129,0,0,0.5129,111.2916,155.9108)" stroke-linecap="butt" stroke="rgb(130,130,178)">
      <rect fill="none" width="107.12" x="549.07" height="23.1328" y="99.3984"/>
    </g>
    <g font-size="13" font-weight="bold" font-family="sans-serif" transform="matrix(0.5129,0,0,0.5129,111.2916,155.9108)">
      <text xml:space="preserve" x="554.63" y="115.4653" onclick="umlload('../../../../../../../com/msopentech/odatajclient/engine/data/metadata/edmx/DataServices.html')" stroke="none">DataServices</text>
    </g>
    <g fill="rgb(187,187,255)" transform="matrix(0.5129,0,0,0.5129,111.2916,155.9108)" stroke="rgb(187,187,255)">
      <rect x="549.07" y="132.5312" clip-path="url(#clipPath7)" width="76.22" height="23.1328" stroke="none"/>
    </g>
    <g fill="rgb(130,130,178)" stroke-miterlimit="1.45" transform="matrix(0.5129,0,0,0.5129,111.2916,155.9108)" stroke-linecap="butt" stroke="rgb(130,130,178)">
      <rect fill="none" width="76.22" x="549.07" height="23.1328" y="132.5312"/>
    </g>
    <g font-size="13" font-weight="bold" font-family="sans-serif" transform="matrix(0.5129,0,0,0.5129,111.2916,155.9108)">
      <text xml:space="preserve" x="554.18" y="148.5981" onclick="umlload('../../../../../../../com/msopentech/odatajclient/engine/data/metadata/edmx/Designer.html')" stroke="none">Designer</text>
    </g>
    <g fill="rgb(187,187,255)" transform="matrix(0.5129,0,0,0.5129,111.2916,155.9108)" stroke="rgb(187,187,255)">
      <rect x="549.07" y="165.6641" clip-path="url(#clipPath8)" width="195.7" height="23.1328" stroke="none"/>
    </g>
    <g fill="rgb(130,130,178)" stroke-miterlimit="1.45" transform="matrix(0.5129,0,0,0.5129,111.2916,155.9108)" stroke-linecap="butt" stroke="rgb(130,130,178)">
      <rect fill="none" width="195.7" x="549.07" height="23.1328" y="165.6641"/>
    </g>
    <g font-size="13" font-weight="bold" font-family="sans-serif" transform="matrix(0.5129,0,0,0.5129,111.2916,155.9108)">
      <text xml:space="preserve" x="555.92" y="181.731" onclick="umlload('../../../../../../../com/msopentech/odatajclient/engine/data/metadata/edmx/DesignerInfoPropertySet.html')" stroke="none">DesignerInfoPropertySet</text>
    </g>
    <g fill="rgb(187,187,255)" transform="matrix(0.5129,0,0,0.5129,111.2916,155.9108)" stroke="rgb(187,187,255)">
      <rect x="549.07" y="198.7969" clip-path="url(#clipPath9)" width="142.14" height="23.1328" stroke="none"/>
    </g>
    <g fill="rgb(130,130,178)" stroke-miterlimit="1.45" transform="matrix(0.5129,0,0,0.5129,111.2916,155.9108)" stroke-linecap="butt" stroke="rgb(130,130,178)">
      <rect fill="none" width="142.14" x="549.07" height="23.1328" y="198.7969"/>
    </g>
    <g font-size="13" font-weight="bold" font-family="sans-serif" transform="matrix(0.5129,0,0,0.5129,111.2916,155.9108)">
      <text xml:space="preserve" x="555.14" y="214.8638" onclick="umlload('../../../../../../../com/msopentech/odatajclient/engine/data/metadata/edmx/DesignerProperty.html')" stroke="none">DesignerProperty</text>
    </g>
    <g fill="rgb(187,187,255)" transform="matrix(0.5129,0,0,0.5129,111.2916,155.9108)" stroke="rgb(187,187,255)">
      <rect x="549.07" y="231.9297" clip-path="url(#clipPath10)" width="73.13" height="23.1328" stroke="none"/>
    </g>
    <g fill="rgb(130,130,178)" stroke-miterlimit="1.45" transform="matrix(0.5129,0,0,0.5129,111.2916,155.9108)" stroke-linecap="butt" stroke="rgb(130,130,178)">
      <rect fill="none" width="73.13" x="549.07" height="23.1328" y="231.9297"/>
    </g>
    <g font-size="13" font-weight="bold" font-family="sans-serif" transform="matrix(0.5129,0,0,0.5129,111.2916,155.9108)">
      <text xml:space="preserve" x="554.135" y="247.9966" onclick="umlload('../../../../../../../com/msopentech/odatajclient/engine/data/metadata/edmx/Diagram.html')" stroke="none">Diagram</text>
    </g>
    <g fill="rgb(187,187,255)" transform="matrix(0.5129,0,0,0.5129,111.2916,155.9108)" stroke="rgb(187,187,255)">
      <rect x="549.07" y="265.0625" clip-path="url(#clipPath11)" width="81.37" height="23.1328" stroke="none"/>
    </g>
    <g fill="rgb(130,130,178)" stroke-miterlimit="1.45" transform="matrix(0.5129,0,0,0.5129,111.2916,155.9108)" stroke-linecap="butt" stroke="rgb(130,130,178)">
      <rect fill="none" width="81.37" x="549.07" height="23.1328" y="265.0625"/>
    </g>
    <g font-size="13" font-weight="bold" font-family="sans-serif" transform="matrix(0.5129,0,0,0.5129,111.2916,155.9108)">
      <text xml:space="preserve" x="554.255" y="281.1294" onclick="umlload('../../../../../../../com/msopentech/odatajclient/engine/data/metadata/edmx/Diagrams.html')" stroke="none">Diagrams</text>
    </g>
    <g fill="rgb(187,187,255)" transform="matrix(0.5129,0,0,0.5129,111.2916,155.9108)" stroke="rgb(187,187,255)">
      <rect x="549.07" y="298.1953" clip-path="url(#clipPath12)" width="50.47" height="23.1328" stroke="none"/>
    </g>
    <g fill="rgb(130,130,178)" stroke-miterlimit="1.45" transform="matrix(0.5129,0,0,0.5129,111.2916,155.9108)" stroke-linecap="butt" stroke="rgb(130,130,178)">
      <rect fill="none" width="50.47" x="549.07" height="23.1328" y="298.1953"/>
    </g>
    <g font-size="13" font-weight="bold" font-family="sans-serif" transform="matrix(0.5129,0,0,0.5129,111.2916,155.9108)">
      <text xml:space="preserve" x="553.805" y="314.2622" onclick="umlload('../../../../../../../com/msopentech/odatajclient/engine/data/metadata/edmx/Edmx.html')" stroke="none">Edmx</text>
    </g>
    <g fill="rgb(187,187,255)" transform="matrix(0.5129,0,0,0.5129,111.2916,155.9108)" stroke="rgb(187,187,255)">
      <rect x="549.07" y="331.3281" clip-path="url(#clipPath13)" width="134.93" height="23.1328" stroke="none"/>
    </g>
    <g fill="rgb(130,130,178)" stroke-miterlimit="1.45" transform="matrix(0.5129,0,0,0.5129,111.2916,155.9108)" stroke-linecap="butt" stroke="rgb(130,130,178)">
      <rect fill="none" width="134.93" x="549.07" height="23.1328" y="331.3281"/>
    </g>
    <g font-size="13" font-weight="bold" font-family="sans-serif" transform="matrix(0.5129,0,0,0.5129,111.2916,155.9108)">
      <text xml:space="preserve" x="555.035" y="347.395" onclick="umlload('../../../../../../../com/msopentech/odatajclient/engine/data/metadata/edmx/EntityTypeShape.html')" stroke="none">EntityTypeShape</text>
    </g>
    <g fill="rgb(187,187,255)" transform="matrix(0.5129,0,0,0.5129,111.2916,155.9108)" stroke="rgb(187,187,255)">
      <rect x="549.07" y="364.4609" clip-path="url(#clipPath14)" width="169.95" height="23.1328" stroke="none"/>
    </g>
    <g fill="rgb(130,130,178)" stroke-miterlimit="1.45" transform="matrix(0.5129,0,0,0.5129,111.2916,155.9108)" stroke-linecap="butt" stroke="rgb(130,130,178)">
      <rect fill="none" width="169.95" x="549.07" height="23.1328" y="364.4609"/>
    </g>
    <g font-size="13" font-weight="bold" font-family="sans-serif" transform="matrix(0.5129,0,0,0.5129,111.2916,155.9108)">
      <text xml:space="preserve" x="555.545" y="380.5278" onclick="umlload('../../../../../../../com/msopentech/odatajclient/engine/data/metadata/edmx/InheritanceConnector.html')" stroke="none">InheritanceConnector</text>
    </g>
    <g fill="rgb(187,187,255)" transform="matrix(0.5129,0,0,0.5129,111.2916,155.9108)" stroke="rgb(187,187,255)">
      <rect x="549.07" y="397.5938" clip-path="url(#clipPath15)" width="66.95" height="23.1328" stroke="none"/>
    </g>
    <g fill="rgb(130,130,178)" stroke-miterlimit="1.45" transform="matrix(0.5129,0,0,0.5129,111.2916,155.9108)" stroke-linecap="butt" stroke="rgb(130,130,178)">
      <rect fill="none" width="66.95" x="549.07" height="23.1328" y="397.5938"/>
    </g>
    <g font-size="13" font-weight="bold" font-family="sans-serif" transform="matrix(0.5129,0,0,0.5129,111.2916,155.9108)">
      <text xml:space="preserve" x="554.045" y="413.6606" onclick="umlload('../../../../../../../com/msopentech/odatajclient/engine/data/metadata/edmx/Options.html')" stroke="none">Options</text>
    </g>
    <g fill="rgb(187,187,255)" transform="matrix(0.5129,0,0,0.5129,111.2916,155.9108)" stroke="rgb(187,187,255)">
      <rect x="549.07" y="430.7266" clip-path="url(#clipPath16)" width="71.07" height="23.1328" stroke="none"/>
    </g>
    <g fill="rgb(130,130,178)" stroke-miterlimit="1.45" transform="matrix(0.5129,0,0,0.5129,111.2916,155.9108)" stroke-linecap="butt" stroke="rgb(130,130,178)">
      <rect fill="none" width="71.07" x="549.07" height="23.1328" y="430.7266"/>
    </g>
    <g font-size="13" font-weight="bold" font-family="sans-serif" transform="matrix(0.5129,0,0,0.5129,111.2916,155.9108)">
      <text xml:space="preserve" x="554.105" y="446.7935" onclick="umlload('../../../../../../../com/msopentech/odatajclient/engine/data/metadata/edmx/Runtime.html')" stroke="none">Runtime</text>
    </g>
    <g fill="rgb(187,187,255)" transform="matrix(0.5129,0,0,0.5129,111.2916,155.9108)" stroke="rgb(187,187,255)">
      <rect x="549.07" y="463.8594" clip-path="url(#clipPath17)" width="211.15" height="23.1328" stroke="none"/>
    </g>
    <g fill="rgb(130,130,178)" stroke-miterlimit="1.45" transform="matrix(0.5129,0,0,0.5129,111.2916,155.9108)" stroke-linecap="butt" stroke="rgb(130,130,178)">
      <rect fill="none" width="211.15" x="549.07" height="23.1328" y="463.8594"/>
    </g>
    <g font-size="13" font-weight="bold" font-family="sans-serif" transform="matrix(0.5129,0,0,0.5129,111.2916,155.9108)">
      <text xml:space="preserve" x="556.145" y="479.9263" onclick="umlload('../../../../../../../com/msopentech/odatajclient/engine/data/metadata/edmx/RuntimeConceptualModels.html')" stroke="none">RuntimeConceptualModels</text>
    </g>
    <g fill="rgb(187,187,255)" transform="matrix(0.5129,0,0,0.5129,111.2916,155.9108)" stroke="rgb(187,187,255)">
      <rect x="549.07" y="496.9922" clip-path="url(#clipPath18)" width="146.26" height="23.1328" stroke="none"/>
    </g>
    <g fill="rgb(130,130,178)" stroke-miterlimit="1.45" transform="matrix(0.5129,0,0,0.5129,111.2916,155.9108)" stroke-linecap="butt" stroke="rgb(130,130,178)">
      <rect fill="none" width="146.26" x="549.07" height="23.1328" y="496.9922"/>
    </g>
    <g font-size="13" font-weight="bold" font-family="sans-serif" transform="matrix(0.5129,0,0,0.5129,111.2916,155.9108)">
      <text xml:space="preserve" x="555.2" y="513.0591" onclick="umlload('../../../../../../../com/msopentech/odatajclient/engine/data/metadata/edmx/RuntimeMappings.html')" stroke="none">RuntimeMappings</text>
    </g>
    <g fill="rgb(187,187,255)" transform="matrix(0.5129,0,0,0.5129,111.2916,155.9108)" stroke="rgb(187,187,255)">
      <rect x="549.07" y="530.125" clip-path="url(#clipPath19)" width="185.4" height="23.1328" stroke="none"/>
    </g>
    <g fill="rgb(130,130,178)" stroke-miterlimit="1.45" transform="matrix(0.5129,0,0,0.5129,111.2916,155.9108)" stroke-linecap="butt" stroke="rgb(130,130,178)">
      <rect fill="none" width="185.4" x="549.07" height="23.1328" y="530.125"/>
    </g>
    <g font-size="13" font-weight="bold" font-family="sans-serif" transform="matrix(0.5129,0,0,0.5129,111.2916,155.9108)">
      <text xml:space="preserve" x="555.77" y="546.1919" onclick="umlload('../../../../../../../com/msopentech/odatajclient/engine/data/metadata/edmx/RuntimeStorageModels.html')" stroke="none">RuntimeStorageModels</text>
    </g>
    <g fill="rgb(238,238,255)" transform="matrix(0.5129,0,0,0.5129,111.2916,155.9108)" stroke="rgb(238,238,255)">
      <rect width="156.7696" x="-216.32" height="17.9688" y="-26" stroke="none"/>
    </g>
    <g fill="rgb(166,166,178)" stroke-miterlimit="1.45" transform="matrix(0.5129,0,0,0.5129,111.2916,155.9108)" stroke-linecap="butt" stroke="rgb(166,166,178)">
      <rect fill="none" width="156.7696" x="-216.32" height="17.9688" y="-26"/>
    </g>
    <g fill="rgb(238,238,255)" transform="matrix(0.5129,0,0,0.5129,111.2916,155.9108)" stroke="rgb(238,238,255)">
      <rect width="157.86" x="-216.32" height="39.1641" y="-8.0312" stroke="none"/>
    </g>
    <g fill="rgb(166,166,178)" stroke-miterlimit="1.45" transform="matrix(0.5129,0,0,0.5129,111.2916,155.9108)" stroke-linecap="butt" stroke="rgb(166,166,178)">
      <rect fill="none" width="157.86" x="-216.32" height="39.1641" y="-8.0312"/>
    </g>
    <g font-family="sans-serif" transform="matrix(0.5129,0,0,0.5129,111.2916,155.9108)">
      <text xml:space="preserve" x="-210.32" y="-12.8613" onclick="umlload('http://docs.oracle.com/javase/6/docs/api/javax/xml/namespace/package-summary.html')" stroke="none">javax.xml.namespace</text>
    </g>
    <g fill="rgb(187,187,255)" transform="matrix(0.5129,0,0,0.5129,111.2916,155.9108)" stroke="rgb(187,187,255)">
      <rect x="-208.32" y="0" clip-path="url(#clipPath20)" width="63.86" height="23.1328" stroke="none"/>
    </g>
    <g fill="rgb(130,130,178)" stroke-miterlimit="1.45" transform="matrix(0.5129,0,0,0.5129,111.2916,155.9108)" stroke-linecap="butt" stroke="rgb(130,130,178)">
      <rect fill="none" width="63.86" x="-208.32" height="23.1328" y="0"/>
    </g>
    <g font-size="13" font-weight="bold" font-family="sans-serif" transform="matrix(0.5129,0,0,0.5129,111.2916,155.9108)">
      <text xml:space="preserve" x="-203.39" y="16.0669" onclick="umlload('http://docs.oracle.com/javase/6/docs/api/javax/xml/namespace/QName.html')" stroke="none">QName</text>
    </g>
    <g fill="rgb(238,238,255)" transform="matrix(0.5129,0,0,0.5129,111.2916,155.9108)" stroke="rgb(238,238,255)">
      <rect width="76.1412" x="204.695" height="17.9688" y="-133.1328" stroke="none"/>
    </g>
    <g fill="rgb(166,166,178)" stroke-miterlimit="1.45" transform="matrix(0.5129,0,0,0.5129,111.2916,155.9108)" stroke-linecap="butt" stroke="rgb(166,166,178)">
      <rect fill="none" width="76.1412" x="204.695" height="17.9688" y="-133.1328"/>
    </g>
    <g fill="rgb(238,238,255)" transform="matrix(0.5129,0,0,0.5129,111.2916,155.9108)" stroke="rgb(238,238,255)">
      <rect width="76.1412" x="204.695" height="39.1641" y="-115.1641" stroke="none"/>
    </g>
    <g fill="rgb(166,166,178)" stroke-miterlimit="1.45" transform="matrix(0.5129,0,0,0.5129,111.2916,155.9108)" stroke-linecap="butt" stroke="rgb(166,166,178)">
      <rect fill="none" width="76.1412" x="204.695" height="39.1641" y="-115.1641"/>
    </g>
    <g font-family="sans-serif" transform="matrix(0.5129,0,0,0.5129,111.2916,155.9108)">
      <text xml:space="preserve" x="210.695" y="-119.9941" onclick="umlload('http://docs.oracle.com/javase/6/docs/api/java/lang/package-summary.html')" stroke="none">java.lang</text>
    </g>
    <g fill="rgb(187,187,255)" transform="matrix(0.5129,0,0,0.5129,111.2916,155.9108)" stroke="rgb(187,187,255)">
      <rect x="212.695" y="-107.1328" clip-path="url(#clipPath21)" width="57.68" height="23.1328" stroke="none"/>
    </g>
    <g fill="rgb(130,130,178)" stroke-miterlimit="1.45" transform="matrix(0.5129,0,0,0.5129,111.2916,155.9108)" stroke-linecap="butt" stroke="rgb(130,130,178)">
      <rect fill="none" width="57.68" x="212.695" height="23.1328" y="-107.1328"/>
    </g>
    <g font-size="13" font-weight="bold" font-family="sans-serif" transform="matrix(0.5129,0,0,0.5129,111.2916,155.9108)">
      <text xml:space="preserve" x="217.535" y="-91.0659" onclick="umlload('http://docs.oracle.com/javase/6/docs/api/java/lang/Object.html')" stroke="none">Object</text>
    </g>
    <g fill="rgb(238,238,255)" transform="matrix(0.5129,0,0,0.5129,111.2916,155.9108)" stroke="rgb(238,238,255)">
      <rect width="407.142" x="-8" height="17.9688" y="-26" stroke="none"/>
    </g>
    <g fill="rgb(166,166,178)" stroke-miterlimit="1.45" transform="matrix(0.5129,0,0,0.5129,111.2916,155.9108)" stroke-linecap="butt" stroke="rgb(166,166,178)">
      <rect fill="none" width="407.142" x="-8" height="17.9688" y="-26"/>
    </g>
    <g fill="rgb(238,238,255)" transform="matrix(0.5129,0,0,0.5129,111.2916,155.9108)" stroke="rgb(238,238,255)">
      <rect width="499.07" x="-8" height="664.4219" y="-8.0312" stroke="none"/>
    </g>
    <g fill="rgb(166,166,178)" stroke-miterlimit="1.45" transform="matrix(0.5129,0,0,0.5129,111.2916,155.9108)" stroke-linecap="butt" stroke="rgb(166,166,178)">
      <rect fill="none" width="499.07" x="-8" height="664.4219" y="-8.0312"/>
    </g>
    <g font-family="sans-serif" transform="matrix(0.5129,0,0,0.5129,111.2916,155.9108)">
      <text xml:space="preserve" x="-2" y="-12.8613" onclick="umlload('package-summary.html')" stroke="none">com.msopentech.odatajclient.engine.data.metadata.edmx</text>
    </g>
    <g fill="rgb(187,187,255)" transform="matrix(0.5129,0,0,0.5129,111.2916,155.9108)" stroke="rgb(187,187,255)">
      <rect x="0" y="0" clip-path="url(#clipPath22)" width="483.07" height="26.625" stroke="none"/>
      <line clip-path="url(#clipPath22)" fill="none" x1="0" x2="483.07" y1="26.625" y2="26.625" stroke="black"/>
      <rect x="0" y="27.625" clip-path="url(#clipPath22)" width="483.07" height="15.9688" stroke="none"/>
      <line clip-path="url(#clipPath22)" fill="none" x1="0" x2="483.07" y1="43.5938" y2="43.5938" stroke="black"/>
      <rect x="0" y="44.5938" clip-path="url(#clipPath22)" width="483.07" height="603.7969" stroke="none"/>
    </g>
    <g fill="rgb(130,130,178)" stroke-miterlimit="1.45" transform="matrix(0.5129,0,0,0.5129,111.2916,155.9108)" stroke-linecap="butt" stroke="rgb(130,130,178)">
      <rect fill="none" width="483.07" x="0" height="648.3906" y="0"/>
    </g>
    <g font-size="16" font-weight="bold" font-family="sans-serif" transform="matrix(0.5129,0,0,0.5129,111.2916,155.9108)">
      <text xml:space="preserve" x="179.035" y="18.8516" onclick="umlload('#')" stroke="none">ObjectFactory</text>
    </g>
    <g font-family="sans-serif" transform="matrix(0.5129,0,0,0.5129,111.2916,155.9108)">
      <text xml:space="preserve" x="4" y="38.1719" stroke="none">+</text>
      <text xml:space="preserve" x="19" y="39.7637" onclick="umlload('#ObjectFactory()')" stroke="none">ObjectFactory()</text>
    </g>
    <g font-family="sans-serif" transform="matrix(0.5129,0,0,0.5129,111.2916,155.9108)">
      <text xml:space="preserve" x="4" y="55.1719" stroke="none">+</text>
      <text xml:space="preserve" x="19" y="56.7324" onclick="umlload('#createEdmx(com.msopentech.odatajclient.engine.data.metadata.edmx.Edmx)')" stroke="none">createEdmx(Edmx) : JAXBElement&lt;Edmx&gt;</text>
    </g>
    <g font-family="sans-serif" transform="matrix(0.5129,0,0,0.5129,111.2916,155.9108)">
      <text xml:space="preserve" x="4" y="71.1719" stroke="none">+</text>
      <text xml:space="preserve" x="19" y="72.7012" onclick="umlload('#createTAssociationConnector()')" stroke="none">createTAssociationConnector() : AssociationConnector</text>
    </g>
    <g font-family="sans-serif" transform="matrix(0.5129,0,0,0.5129,111.2916,155.9108)">
      <text xml:space="preserve" x="4" y="87.1719" stroke="none">+</text>
      <text xml:space="preserve" x="19" y="88.6699" onclick="umlload('#createTConnection()')" stroke="none">createTConnection() : Connection</text>
    </g>
    <g font-family="sans-serif" transform="matrix(0.5129,0,0,0.5129,111.2916,155.9108)">
      <text xml:space="preserve" x="4" y="103.1719" stroke="none">+</text>
      <text xml:space="preserve" x="19" y="104.6387" onclick="umlload('#createTConnectorPoint()')" stroke="none">createTConnectorPoint() : ConnectorPoint</text>
    </g>
    <g font-family="sans-serif" transform="matrix(0.5129,0,0,0.5129,111.2916,155.9108)">
      <text xml:space="preserve" x="4" y="119.1719" stroke="none">+</text>
      <text xml:space="preserve" x="19" y="120.6074" onclick="umlload('#createTDataServices()')" stroke="none">createTDataServices() : DataServices</text>
    </g>
    <g font-family="sans-serif" transform="matrix(0.5129,0,0,0.5129,111.2916,155.9108)">
      <text xml:space="preserve" x="4" y="135.1719" stroke="none">+</text>
      <text xml:space="preserve" x="19" y="136.5762" onclick="umlload('#createTDesigner()')" stroke="none">createTDesigner() : Designer</text>
    </g>
    <g font-family="sans-serif" transform="matrix(0.5129,0,0,0.5129,111.2916,155.9108)">
      <text xml:space="preserve" x="4" y="151.1719" stroke="none">+</text>
      <text xml:space="preserve" x="19" y="152.5449" onclick="umlload('#createTDesignerInfoPropertySet()')" stroke="none">createTDesignerInfoPropertySet() : DesignerInfoPropertySet</text>
    </g>
    <g font-family="sans-serif" transform="matrix(0.5129,0,0,0.5129,111.2916,155.9108)">
      <text xml:space="preserve" x="4" y="167.1719" stroke="none">+</text>
      <text xml:space="preserve" x="19" y="168.5137" onclick="umlload('#createTDesignerProperty()')" stroke="none">createTDesignerProperty() : DesignerProperty</text>
    </g>
    <g font-family="sans-serif" transform="matrix(0.5129,0,0,0.5129,111.2916,155.9108)">
      <text xml:space="preserve" x="4" y="183.1719" stroke="none">+</text>
      <text xml:space="preserve" x="19" y="184.4824" onclick="umlload('#createTDiagram()')" stroke="none">createTDiagram() : Diagram</text>
    </g>
    <g font-family="sans-serif" transform="matrix(0.5129,0,0,0.5129,111.2916,155.9108)">
      <text xml:space="preserve" x="4" y="199.1719" stroke="none">+</text>
      <text xml:space="preserve" x="19" y="200.4512" onclick="umlload('#createTDiagrams()')" stroke="none">createTDiagrams() : Diagrams</text>
    </g>
    <g font-family="sans-serif" transform="matrix(0.5129,0,0,0.5129,111.2916,155.9108)">
      <text xml:space="preserve" x="4" y="215.1719" stroke="none">+</text>
      <text xml:space="preserve" x="19" y="216.4199" onclick="umlload('#createTEdmx()')" stroke="none">createTEdmx() : Edmx</text>
    </g>
    <g font-family="sans-serif" transform="matrix(0.5129,0,0,0.5129,111.2916,155.9108)">
      <text xml:space="preserve" x="4" y="231.1719" stroke="none">+</text>
      <text xml:space="preserve" x="19" y="232.3887" onclick="umlload('#createTEdmxDataServices(com.msopentech.odatajclient.engine.data.metadata.edmx.DataServices)')" stroke="none">createTEdmxDataServices(DataServices) : JAXBElement&lt;DataServices&gt;</text>
    </g>
    <g font-family="sans-serif" transform="matrix(0.5129,0,0,0.5129,111.2916,155.9108)">
      <text xml:space="preserve" x="4" y="247.1719" stroke="none">+</text>
      <text xml:space="preserve" x="19" y="248.3574" onclick="umlload('#createTEdmxDesigner(com.msopentech.odatajclient.engine.data.metadata.edmx.Designer)')" stroke="none">createTEdmxDesigner(Designer) : JAXBElement&lt;Designer&gt;</text>
    </g>
    <g font-family="sans-serif" transform="matrix(0.5129,0,0,0.5129,111.2916,155.9108)">
      <text xml:space="preserve" x="4" y="263.1719" stroke="none">+</text>
      <text xml:space="preserve" x="19" y="264.3262" onclick="umlload('#createTEdmxRuntime(com.msopentech.odatajclient.engine.data.metadata.edmx.Runtime)')" stroke="none">createTEdmxRuntime(Runtime) : JAXBElement&lt;Runtime&gt;</text>
    </g>
    <g font-family="sans-serif" transform="matrix(0.5129,0,0,0.5129,111.2916,155.9108)">
      <text xml:space="preserve" x="4" y="279.1719" stroke="none">+</text>
      <text xml:space="preserve" x="19" y="280.2949" onclick="umlload('#createTEntityTypeShape()')" stroke="none">createTEntityTypeShape() : EntityTypeShape</text>
    </g>
    <g font-family="sans-serif" transform="matrix(0.5129,0,0,0.5129,111.2916,155.9108)">
      <text xml:space="preserve" x="4" y="295.1719" stroke="none">+</text>
      <text xml:space="preserve" x="19" y="296.2637" onclick="umlload('#createTInheritanceConnector()')" stroke="none">createTInheritanceConnector() : InheritanceConnector</text>
    </g>
    <g font-family="sans-serif" transform="matrix(0.5129,0,0,0.5129,111.2916,155.9108)">
      <text xml:space="preserve" x="4" y="311.1719" stroke="none">+</text>
      <text xml:space="preserve" x="19" y="312.2324" onclick="umlload('#createTOptions()')" stroke="none">createTOptions() : Options</text>
    </g>
    <g font-family="sans-serif" transform="matrix(0.5129,0,0,0.5129,111.2916,155.9108)">
      <text xml:space="preserve" x="4" y="327.1719" stroke="none">+</text>
      <text xml:space="preserve" x="19" y="328.2012" onclick="umlload('#createTRuntime()')" stroke="none">createTRuntime() : Runtime</text>
    </g>
    <g font-family="sans-serif" transform="matrix(0.5129,0,0,0.5129,111.2916,155.9108)">
      <text xml:space="preserve" x="4" y="343.1719" stroke="none">+</text>
      <text xml:space="preserve" x="19" y="344.1699" onclick="umlload('#createTRuntimeConceptualModels()')" stroke="none">createTRuntimeConceptualModels() : RuntimeConceptualModels</text>
    </g>
    <g font-family="sans-serif" transform="matrix(0.5129,0,0,0.5129,111.2916,155.9108)">
      <text xml:space="preserve" x="4" y="358.1719" stroke="none">+</text>
      <text xml:space="preserve" x="19" y="360.1387" onclick="umlload('#createTRuntimeMappings()')" stroke="none">createTRuntimeMappings() : RuntimeMappings</text>
    </g>
    <g font-family="sans-serif" transform="matrix(0.5129,0,0,0.5129,111.2916,155.9108)">
      <text xml:space="preserve" x="4" y="374.1719" stroke="none">+</text>
      <text xml:space="preserve" x="19" y="376.1074" onclick="umlload('#createTRuntimeStorageModels()')" stroke="none">createTRuntimeStorageModels() : RuntimeStorageModels</text>
    </g>
    <g font-family="sans-serif" transform="matrix(0.5129,0,0,0.5129,111.2916,155.9108)">
      <text xml:space="preserve" x="-211" y="681.1543" onclick="umlload('http://www.yworks.com/')" stroke="none">yWorks UML Doclet</text>
    </g>
    <g stroke-miterlimit="1.45" transform="matrix(0.5129,0,0,0.5129,111.2916,155.9108)" stroke-linecap="butt">
      <path fill="none" d="M241.535 -0.0278 L241.535 -69"/>
      <path fill="white" d="M241.535 -84 L235.535 -68 L247.535 -68 Z" stroke="none"/>
      <path fill="none" d="M241.535 -84 L235.535 -68 L247.535 -68 Z"/>
      <path fill="none" d="M-0.0014 11.5664 L-144.46 11.5664"/>
      <line stroke-linecap="square" transform="matrix(-1,0,0,-1,-144.46,11.5664)" fill="none" x1="0" x2="-14" y1="0" y2="-4" stroke-miterlimit="10"/>
      <line stroke-linecap="square" transform="matrix(-1,0,0,-1,-144.46,11.5664)" fill="none" x1="0" x2="-14" y1="0" y2="4" stroke-miterlimit="10"/>
    </g>
    <g stroke-dasharray="6,2" stroke-miterlimit="1.45" transform="matrix(0.5129,0,0,0.5129,111.2916,155.9108)" stroke-linecap="butt">
      <path fill="none" d="M483.0298 11.5664 L549.07 11.5664"/>
      <line stroke-linecap="square" transform="matrix(1,0,0,1,549.07,11.5664)" fill="none" x1="0" x2="-14" y1="0" y2="-4" stroke-dasharray="none" stroke-miterlimit="10"/>
      <line stroke-linecap="square" transform="matrix(1,0,0,1,549.07,11.5664)" fill="none" x1="0" x2="-14" y1="0" y2="4" stroke-dasharray="none" stroke-miterlimit="10"/>
    </g>
    <g stroke-dasharray="6,2" stroke-miterlimit="1.45" transform="matrix(0.5129,0,0,0.5129,111.2916,155.9108)" stroke-linecap="butt">
      <path fill="none" d="M483.0598 44.6992 L549.07 44.6992"/>
      <line stroke-linecap="square" transform="matrix(1,0,0,1,549.07,44.6992)" fill="none" x1="0" x2="-14" y1="0" y2="-4" stroke-dasharray="none" stroke-miterlimit="10"/>
      <line stroke-linecap="square" transform="matrix(1,0,0,1,549.07,44.6992)" fill="none" x1="0" x2="-14" y1="0" y2="4" stroke-dasharray="none" stroke-miterlimit="10"/>
    </g>
    <g stroke-dasharray="6,2" stroke-miterlimit="1.45" transform="matrix(0.5129,0,0,0.5129,111.2916,155.9108)" stroke-linecap="butt">
      <path fill="none" d="M483.0301 77.832 L549.07 77.832"/>
      <line stroke-linecap="square" transform="matrix(1,0,0,1,549.07,77.832)" fill="none" x1="0" x2="-14" y1="0" y2="-4" stroke-dasharray="none" stroke-miterlimit="10"/>
      <line stroke-linecap="square" transform="matrix(1,0,0,1,549.07,77.832)" fill="none" x1="0" x2="-14" y1="0" y2="4" stroke-dasharray="none" stroke-miterlimit="10"/>
    </g>
    <g stroke-dasharray="6,2" stroke-miterlimit="1.45" transform="matrix(0.5129,0,0,0.5129,111.2916,155.9108)" stroke-linecap="butt">
      <path fill="none" d="M483.0437 110.9648 L549.07 110.9648"/>
      <line stroke-linecap="square" transform="matrix(1,0,0,1,549.07,110.9648)" fill="none" x1="0" x2="-14" y1="0" y2="-4" stroke-dasharray="none" stroke-miterlimit="10"/>
      <line stroke-linecap="square" transform="matrix(1,0,0,1,549.07,110.9648)" fill="none" x1="0" x2="-14" y1="0" y2="4" stroke-dasharray="none" stroke-miterlimit="10"/>
    </g>
    <g stroke-dasharray="6,2" stroke-miterlimit="1.45" transform="matrix(0.5129,0,0,0.5129,111.2916,155.9108)" stroke-linecap="butt">
      <path fill="none" d="M483.0899 144.0977 L549.07 144.0977"/>
      <line stroke-linecap="square" transform="matrix(1,0,0,1,549.07,144.0977)" fill="none" x1="0" x2="-14" y1="0" y2="-4" stroke-dasharray="none" stroke-miterlimit="10"/>
      <line stroke-linecap="square" transform="matrix(1,0,0,1,549.07,144.0977)" fill="none" x1="0" x2="-14" y1="0" y2="4" stroke-dasharray="none" stroke-miterlimit="10"/>
    </g>
    <g stroke-dasharray="6,2" stroke-miterlimit="1.45" transform="matrix(0.5129,0,0,0.5129,111.2916,155.9108)" stroke-linecap="butt">
      <path fill="none" d="M483.0736 177.2305 L549.07 177.2305"/>
      <line stroke-linecap="square" transform="matrix(1,0,0,1,549.07,177.2305)" fill="none" x1="0" x2="-14" y1="0" y2="-4" stroke-dasharray="none" stroke-miterlimit="10"/>
      <line stroke-linecap="square" transform="matrix(1,0,0,1,549.07,177.2305)" fill="none" x1="0" x2="-14" y1="0" y2="4" stroke-dasharray="none" stroke-miterlimit="10"/>
    </g>
    <g stroke-dasharray="6,2" stroke-miterlimit="1.45" transform="matrix(0.5129,0,0,0.5129,111.2916,155.9108)" stroke-linecap="butt">
      <path fill="none" d="M483.1083 210.3633 L549.07 210.3633"/>
      <line stroke-linecap="square" transform="matrix(1,0,0,1,549.07,210.3633)" fill="none" x1="0" x2="-14" y1="0" y2="-4" stroke-dasharray="none" stroke-miterlimit="10"/>
      <line stroke-linecap="square" transform="matrix(1,0,0,1,549.07,210.3633)" fill="none" x1="0" x2="-14" y1="0" y2="4" stroke-dasharray="none" stroke-miterlimit="10"/>
    </g>
    <g stroke-dasharray="6,2" stroke-miterlimit="1.45" transform="matrix(0.5129,0,0,0.5129,111.2916,155.9108)" stroke-linecap="butt">
      <path fill="none" d="M483.1023 243.4961 L549.07 243.4961"/>
      <line stroke-linecap="square" transform="matrix(1,0,0,1,549.07,243.4961)" fill="none" x1="0" x2="-14" y1="0" y2="-4" stroke-dasharray="none" stroke-miterlimit="10"/>
      <line stroke-linecap="square" transform="matrix(1,0,0,1,549.07,243.4961)" fill="none" x1="0" x2="-14" y1="0" y2="4" stroke-dasharray="none" stroke-miterlimit="10"/>
    </g>
    <g stroke-dasharray="6,2" stroke-miterlimit="1.45" transform="matrix(0.5129,0,0,0.5129,111.2916,155.9108)" stroke-linecap="butt">
      <path fill="none" d="M483.1041 276.6289 L549.07 276.6289"/>
      <line stroke-linecap="square" transform="matrix(1,0,0,1,549.07,276.6289)" fill="none" x1="0" x2="-14" y1="0" y2="-4" stroke-dasharray="none" stroke-miterlimit="10"/>
      <line stroke-linecap="square" transform="matrix(1,0,0,1,549.07,276.6289)" fill="none" x1="0" x2="-14" y1="0" y2="4" stroke-dasharray="none" stroke-miterlimit="10"/>
    </g>
    <g stroke-dasharray="6,2" stroke-miterlimit="1.45" transform="matrix(0.5129,0,0,0.5129,111.2916,155.9108)" stroke-linecap="butt">
      <path fill="none" d="M483.1101 309.7617 L549.07 309.7617"/>
      <line stroke-linecap="square" transform="matrix(1,0,0,1,549.07,309.7617)" fill="none" x1="0" x2="-14" y1="0" y2="-4" stroke-dasharray="none" stroke-miterlimit="10"/>
      <line stroke-linecap="square" transform="matrix(1,0,0,1,549.07,309.7617)" fill="none" x1="0" x2="-14" y1="0" y2="4" stroke-dasharray="none" stroke-miterlimit="10"/>
    </g>
    <g stroke-dasharray="6,2" stroke-miterlimit="1.45" transform="matrix(0.5129,0,0,0.5129,111.2916,155.9108)" stroke-linecap="butt">
      <path fill="none" d="M483.0969 342.8945 L549.07 342.8945"/>
      <line stroke-linecap="square" transform="matrix(1,0,0,1,549.07,342.8945)" fill="none" x1="0" x2="-14" y1="0" y2="-4" stroke-dasharray="none" stroke-miterlimit="10"/>
      <line stroke-linecap="square" transform="matrix(1,0,0,1,549.07,342.8945)" fill="none" x1="0" x2="-14" y1="0" y2="4" stroke-dasharray="none" stroke-miterlimit="10"/>
    </g>
    <g stroke-dasharray="6,2" stroke-miterlimit="1.45" transform="matrix(0.5129,0,0,0.5129,111.2916,155.9108)" stroke-linecap="butt">
      <path fill="none" d="M483.0686 376.0273 L549.07 376.0273"/>
      <line stroke-linecap="square" transform="matrix(1,0,0,1,549.07,376.0273)" fill="none" x1="0" x2="-14" y1="0" y2="-4" stroke-dasharray="none" stroke-miterlimit="10"/>
      <line stroke-linecap="square" transform="matrix(1,0,0,1,549.07,376.0273)" fill="none" x1="0" x2="-14" y1="0" y2="4" stroke-dasharray="none" stroke-miterlimit="10"/>
    </g>
    <g stroke-dasharray="6,2" stroke-miterlimit="1.45" transform="matrix(0.5129,0,0,0.5129,111.2916,155.9108)" stroke-linecap="butt">
      <path fill="none" d="M483.0976 409.1602 L549.07 409.1602"/>
      <line stroke-linecap="square" transform="matrix(1,0,0,1,549.07,409.1602)" fill="none" x1="0" x2="-14" y1="0" y2="-4" stroke-dasharray="none" stroke-miterlimit="10"/>
      <line stroke-linecap="square" transform="matrix(1,0,0,1,549.07,409.1602)" fill="none" x1="0" x2="-14" y1="0" y2="4" stroke-dasharray="none" stroke-miterlimit="10"/>
    </g>
    <g stroke-dasharray="6,2" stroke-miterlimit="1.45" transform="matrix(0.5129,0,0,0.5129,111.2916,155.9108)" stroke-linecap="butt">
      <path fill="none" d="M483.0493 442.293 L549.07 442.293"/>
      <line stroke-linecap="square" transform="matrix(1,0,0,1,549.07,442.293)" fill="none" x1="0" x2="-14" y1="0" y2="-4" stroke-dasharray="none" stroke-miterlimit="10"/>
      <line stroke-linecap="square" transform="matrix(1,0,0,1,549.07,442.293)" fill="none" x1="0" x2="-14" y1="0" y2="4" stroke-dasharray="none" stroke-miterlimit="10"/>
    </g>
    <g stroke-dasharray="6,2" stroke-miterlimit="1.45" transform="matrix(0.5129,0,0,0.5129,111.2916,155.9108)" stroke-linecap="butt">
      <path fill="none" d="M483.0621 475.4258 L549.07 475.4258"/>
      <line stroke-linecap="square" transform="matrix(1,0,0,1,549.07,475.4258)" fill="none" x1="0" x2="-14" y1="0" y2="-4" stroke-dasharray="none" stroke-miterlimit="10"/>
      <line stroke-linecap="square" transform="matrix(1,0,0,1,549.07,475.4258)" fill="none" x1="0" x2="-14" y1="0" y2="4" stroke-dasharray="none" stroke-miterlimit="10"/>
    </g>
    <g stroke-dasharray="6,2" stroke-miterlimit="1.45" transform="matrix(0.5129,0,0,0.5129,111.2916,155.9108)" stroke-linecap="butt">
      <path fill="none" d="M483.0287 508.5586 L549.07 508.5586"/>
      <line stroke-linecap="square" transform="matrix(1,0,0,1,549.07,508.5586)" fill="none" x1="0" x2="-14" y1="0" y2="-4" stroke-dasharray="none" stroke-miterlimit="10"/>
      <line stroke-linecap="square" transform="matrix(1,0,0,1,549.07,508.5586)" fill="none" x1="0" x2="-14" y1="0" y2="4" stroke-dasharray="none" stroke-miterlimit="10"/>
    </g>
    <g stroke-dasharray="6,2" stroke-miterlimit="1.45" transform="matrix(0.5129,0,0,0.5129,111.2916,155.9108)" stroke-linecap="butt">
      <path fill="none" d="M483.0342 541.6914 L549.07 541.6914"/>
      <line stroke-linecap="square" transform="matrix(1,0,0,1,549.07,541.6914)" fill="none" x1="0" x2="-14" y1="0" y2="-4" stroke-dasharray="none" stroke-miterlimit="10"/>
      <line stroke-linecap="square" transform="matrix(1,0,0,1,549.07,541.6914)" fill="none" x1="0" x2="-14" y1="0" y2="4" stroke-dasharray="none" stroke-miterlimit="10"/>
    </g>
    <g stroke-dasharray="6,2" stroke-miterlimit="1.45" transform="matrix(0.5129,0,0,0.5129,111.2916,155.9108)" stroke-linecap="butt">
      <path fill="none" d="M483.0619 628.8242 L549.07 628.8242"/>
      <line stroke-linecap="square" transform="matrix(1,0,0,1,549.07,628.8242)" fill="none" x1="0" x2="-14" y1="0" y2="-4" stroke-dasharray="none" stroke-miterlimit="10"/>
      <line stroke-linecap="square" transform="matrix(1,0,0,1,549.07,628.8242)" fill="none" x1="0" x2="-14" y1="0" y2="4" stroke-dasharray="none" stroke-miterlimit="10"/>
    </g>
  </g>
</svg>
