<?xml version="1.0" encoding="UTF-8"?><svg xmlns="http://www.w3.org/2000/svg" xmlns:xlink="http://www.w3.org/1999/xlink" fill-opacity="1" color-rendering="auto" color-interpolation="auto" stroke="black" text-rendering="auto" stroke-linecap="square" width="598" stroke-miterlimit="10" stroke-opacity="1" shape-rendering="auto" fill="black" stroke-dasharray="none" font-weight="normal" stroke-width="1" height="598" font-family="'Dialog'" font-style="normal" stroke-linejoin="miter" font-size="12" stroke-dashoffset="0" image-rendering="auto">
  <!--Generated by ySVG-->
  <defs id="genericDefs"/>
  <g>
    <defs id="defs1">
      <clipPath clipPathUnits="userSpaceOnUse" id="clipPath1">
        <path d="M0 0 L598 0 L598 598 L0 598 L0 0 Z"/>
      </clipPath>
      <clipPath clipPathUnits="userSpaceOnUse" id="clipPath2">
        <path d="M-451.4 0 L-240.25 0 L-240.25 23.1328 L-451.4 23.1328 L-451.4 0 Z"/>
      </clipPath>
      <clipPath clipPathUnits="userSpaceOnUse" id="clipPath3">
        <path d="M-451.4 33.1328 L-305.14 33.1328 L-305.14 56.2656 L-451.4 56.2656 L-451.4 33.1328 Z"/>
      </clipPath>
      <clipPath clipPathUnits="userSpaceOnUse" id="clipPath4">
        <path d="M-451.4 66.2656 L-266 66.2656 L-266 89.3984 L-451.4 89.3984 L-451.4 66.2656 Z"/>
      </clipPath>
      <clipPath clipPathUnits="userSpaceOnUse" id="clipPath5">
        <path d="M162.225 -107.1328 L219.905 -107.1328 L219.905 -84 L162.225 -84 L162.225 -107.1328 Z"/>
      </clipPath>
      <clipPath clipPathUnits="userSpaceOnUse" id="clipPath6">
        <path d="M0 0 L382.13 0 L382.13 189.3125 L0 189.3125 L0 0 Z"/>
      </clipPath>
      <script type="text/ecmascript"><![CDATA[
function umlload(newLocation)
{
if (newLocation.charAt(0) != '#') {
if (newLocation.indexOf("://") > -1) {
window.parent.location.href = newLocation;
} else {
var tmp = window.parent.location.href;
tmp = tmp.substring(0, tmp.lastIndexOf("/") + 1);
window.parent.location.href = tmp.concat(newLocation);
}
} else {
window.parent.location.hash = newLocation;
}
}
]]></script>
    </defs>
    <g fill="rgb(238,238,255)" transform="matrix(0.6953,0,0,0.6953,319.8605,264.2326)" stroke="rgb(238,238,255)">
      <rect width="407.142" x="-459.4" height="17.9688" y="-26" stroke="none"/>
    </g>
    <g fill="rgb(166,166,178)" stroke-miterlimit="1.45" transform="matrix(0.6953,0,0,0.6953,319.8605,264.2326)" stroke-linecap="butt" stroke="rgb(166,166,178)">
      <rect fill="none" width="407.142" x="-459.4" height="17.9688" y="-26"/>
    </g>
    <g fill="rgb(238,238,255)" transform="matrix(0.6953,0,0,0.6953,319.8605,264.2326)" stroke="rgb(238,238,255)">
      <rect width="407.15" x="-459.4" height="105.4297" y="-8.0312" stroke="none"/>
    </g>
    <g fill="rgb(166,166,178)" stroke-miterlimit="1.45" transform="matrix(0.6953,0,0,0.6953,319.8605,264.2326)" stroke-linecap="butt" stroke="rgb(166,166,178)">
      <rect fill="none" width="407.15" x="-459.4" height="105.4297" y="-8.0312"/>
    </g>
    <g font-family="sans-serif" transform="matrix(0.6953,0,0,0.6953,319.8605,264.2326)">
      <text xml:space="preserve" x="-453.4" y="-12.8613" onclick="umlload('../../../../../../../com/msopentech/odatajclient/engine/data/metadata/edmx/package-summary.html')" stroke="none">com.msopentech.odatajclient.engine.data.metadata.edmx</text>
    </g>
    <g fill="rgb(187,187,255)" transform="matrix(0.6953,0,0,0.6953,319.8605,264.2326)" stroke="rgb(187,187,255)">
      <rect x="-451.4" y="0" clip-path="url(#clipPath2)" width="211.15" height="23.1328" stroke="none"/>
    </g>
    <g fill="rgb(130,130,178)" stroke-miterlimit="1.45" transform="matrix(0.6953,0,0,0.6953,319.8605,264.2326)" stroke-linecap="butt" stroke="rgb(130,130,178)">
      <rect fill="none" width="211.15" x="-451.4" height="23.1328" y="0"/>
    </g>
    <g font-size="13" font-weight="bold" font-family="sans-serif" transform="matrix(0.6953,0,0,0.6953,319.8605,264.2326)">
      <text xml:space="preserve" x="-444.325" y="16.0669" onclick="umlload('../../../../../../../com/msopentech/odatajclient/engine/data/metadata/edmx/RuntimeConceptualModels.html')" stroke="none">RuntimeConceptualModels</text>
    </g>
    <g fill="rgb(187,187,255)" transform="matrix(0.6953,0,0,0.6953,319.8605,264.2326)" stroke="rgb(187,187,255)">
      <rect x="-451.4" y="33.1328" clip-path="url(#clipPath3)" width="146.26" height="23.1328" stroke="none"/>
    </g>
    <g fill="rgb(130,130,178)" stroke-miterlimit="1.45" transform="matrix(0.6953,0,0,0.6953,319.8605,264.2326)" stroke-linecap="butt" stroke="rgb(130,130,178)">
      <rect fill="none" width="146.26" x="-451.4" height="23.1328" y="33.1328"/>
    </g>
    <g font-size="13" font-weight="bold" font-family="sans-serif" transform="matrix(0.6953,0,0,0.6953,319.8605,264.2326)">
      <text xml:space="preserve" x="-445.27" y="49.1997" onclick="umlload('../../../../../../../com/msopentech/odatajclient/engine/data/metadata/edmx/RuntimeMappings.html')" stroke="none">RuntimeMappings</text>
    </g>
    <g fill="rgb(187,187,255)" transform="matrix(0.6953,0,0,0.6953,319.8605,264.2326)" stroke="rgb(187,187,255)">
      <rect x="-451.4" y="66.2656" clip-path="url(#clipPath4)" width="185.4" height="23.1328" stroke="none"/>
    </g>
    <g fill="rgb(130,130,178)" stroke-miterlimit="1.45" transform="matrix(0.6953,0,0,0.6953,319.8605,264.2326)" stroke-linecap="butt" stroke="rgb(130,130,178)">
      <rect fill="none" width="185.4" x="-451.4" height="23.1328" y="66.2656"/>
    </g>
    <g font-size="13" font-weight="bold" font-family="sans-serif" transform="matrix(0.6953,0,0,0.6953,319.8605,264.2326)">
      <text xml:space="preserve" x="-444.7" y="82.3325" onclick="umlload('../../../../../../../com/msopentech/odatajclient/engine/data/metadata/edmx/RuntimeStorageModels.html')" stroke="none">RuntimeStorageModels</text>
    </g>
    <g fill="rgb(238,238,255)" transform="matrix(0.6953,0,0,0.6953,319.8605,264.2326)" stroke="rgb(238,238,255)">
      <rect width="76.1412" x="154.225" height="17.9688" y="-133.1328" stroke="none"/>
    </g>
    <g fill="rgb(166,166,178)" stroke-miterlimit="1.45" transform="matrix(0.6953,0,0,0.6953,319.8605,264.2326)" stroke-linecap="butt" stroke="rgb(166,166,178)">
      <rect fill="none" width="76.1412" x="154.225" height="17.9688" y="-133.1328"/>
    </g>
    <g fill="rgb(238,238,255)" transform="matrix(0.6953,0,0,0.6953,319.8605,264.2326)" stroke="rgb(238,238,255)">
      <rect width="76.1412" x="154.225" height="39.1641" y="-115.1641" stroke="none"/>
    </g>
    <g fill="rgb(166,166,178)" stroke-miterlimit="1.45" transform="matrix(0.6953,0,0,0.6953,319.8605,264.2326)" stroke-linecap="butt" stroke="rgb(166,166,178)">
      <rect fill="none" width="76.1412" x="154.225" height="39.1641" y="-115.1641"/>
    </g>
    <g font-family="sans-serif" transform="matrix(0.6953,0,0,0.6953,319.8605,264.2326)">
      <text xml:space="preserve" x="160.225" y="-119.9941" onclick="umlload('http://docs.oracle.com/javase/6/docs/api/java/lang/package-summary.html')" stroke="none">java.lang</text>
    </g>
    <g fill="rgb(187,187,255)" transform="matrix(0.6953,0,0,0.6953,319.8605,264.2326)" stroke="rgb(187,187,255)">
      <rect x="162.225" y="-107.1328" clip-path="url(#clipPath5)" width="57.68" height="23.1328" stroke="none"/>
    </g>
    <g fill="rgb(130,130,178)" stroke-miterlimit="1.45" transform="matrix(0.6953,0,0,0.6953,319.8605,264.2326)" stroke-linecap="butt" stroke="rgb(130,130,178)">
      <rect fill="none" width="57.68" x="162.225" height="23.1328" y="-107.1328"/>
    </g>
    <g font-size="13" font-weight="bold" font-family="sans-serif" transform="matrix(0.6953,0,0,0.6953,319.8605,264.2326)">
      <text xml:space="preserve" x="167.065" y="-91.0659" onclick="umlload('http://docs.oracle.com/javase/6/docs/api/java/lang/Object.html')" stroke="none">Object</text>
    </g>
    <g fill="rgb(238,238,255)" transform="matrix(0.6953,0,0,0.6953,319.8605,264.2326)" stroke="rgb(238,238,255)">
      <rect width="407.142" x="-8" height="17.9688" y="-26" stroke="none"/>
    </g>
    <g fill="rgb(166,166,178)" stroke-miterlimit="1.45" transform="matrix(0.6953,0,0,0.6953,319.8605,264.2326)" stroke-linecap="butt" stroke="rgb(166,166,178)">
      <rect fill="none" width="407.142" x="-8" height="17.9688" y="-26"/>
    </g>
    <g fill="rgb(238,238,255)" transform="matrix(0.6953,0,0,0.6953,319.8605,264.2326)" stroke="rgb(238,238,255)">
      <rect width="407.142" x="-8" height="205.3438" y="-8.0312" stroke="none"/>
    </g>
    <g fill="rgb(166,166,178)" stroke-miterlimit="1.45" transform="matrix(0.6953,0,0,0.6953,319.8605,264.2326)" stroke-linecap="butt" stroke="rgb(166,166,178)">
      <rect fill="none" width="407.142" x="-8" height="205.3438" y="-8.0312"/>
    </g>
    <g font-family="sans-serif" transform="matrix(0.6953,0,0,0.6953,319.8605,264.2326)">
      <text xml:space="preserve" x="-2" y="-12.8613" onclick="umlload('package-summary.html')" stroke="none">com.msopentech.odatajclient.engine.data.metadata.edmx</text>
    </g>
    <g fill="rgb(187,187,255)" transform="matrix(0.6953,0,0,0.6953,319.8605,264.2326)" stroke="rgb(187,187,255)">
      <rect x="0" y="0" clip-path="url(#clipPath6)" width="382.13" height="26.625" stroke="none"/>
      <line clip-path="url(#clipPath6)" fill="none" x1="0" x2="382.13" y1="26.625" y2="26.625" stroke="black"/>
      <rect x="0" y="27.625" clip-path="url(#clipPath6)" width="382.13" height="47.9062" stroke="none"/>
      <line clip-path="url(#clipPath6)" fill="none" x1="0" x2="382.13" y1="75.5312" y2="75.5312" stroke="black"/>
      <rect x="0" y="76.5312" clip-path="url(#clipPath6)" width="382.13" height="15.9688" stroke="none"/>
      <line clip-path="url(#clipPath6)" fill="none" x1="0" x2="382.13" y1="92.5" y2="92.5" stroke="black"/>
      <rect x="0" y="93.5" clip-path="url(#clipPath6)" width="382.13" height="95.8125" stroke="none"/>
    </g>
    <g fill="rgb(130,130,178)" stroke-miterlimit="1.45" transform="matrix(0.6953,0,0,0.6953,319.8605,264.2326)" stroke-linecap="butt" stroke="rgb(130,130,178)">
      <rect fill="none" width="382.13" x="0" height="189.3125" y="0"/>
    </g>
    <g font-size="16" font-weight="bold" font-family="sans-serif" transform="matrix(0.6953,0,0,0.6953,319.8605,264.2326)">
      <text xml:space="preserve" x="154.565" y="18.8516" onclick="umlload('#')" stroke="none">Runtime</text>
    </g>
    <g font-family="sans-serif" transform="matrix(0.6953,0,0,0.6953,319.8605,264.2326)">
      <text xml:space="preserve" x="4" y="38.1719" stroke="none">#</text>
      <text xml:space="preserve" x="19" y="39.7637" onclick="umlload('#conceptualModels')" stroke="none">conceptualModels : RuntimeConceptualModels</text>
    </g>
    <g font-family="sans-serif" transform="matrix(0.6953,0,0,0.6953,319.8605,264.2326)">
      <text xml:space="preserve" x="4" y="54.1719" stroke="none">#</text>
      <text xml:space="preserve" x="19" y="55.7324" onclick="umlload('#mappings')" stroke="none">mappings : RuntimeMappings</text>
    </g>
    <g font-family="sans-serif" transform="matrix(0.6953,0,0,0.6953,319.8605,264.2326)">
      <text xml:space="preserve" x="4" y="70.1719" stroke="none">#</text>
      <text xml:space="preserve" x="19" y="71.7012" onclick="umlload('#storageModels')" stroke="none">storageModels : RuntimeStorageModels</text>
    </g>
    <g font-family="sans-serif" transform="matrix(0.6953,0,0,0.6953,319.8605,264.2326)">
      <text xml:space="preserve" x="4" y="87.1719" stroke="none">+</text>
      <text xml:space="preserve" x="19" y="88.6699" onclick="umlload('#Runtime()')" stroke="none">Runtime()</text>
    </g>
    <g font-family="sans-serif" transform="matrix(0.6953,0,0,0.6953,319.8605,264.2326)">
      <text xml:space="preserve" x="4" y="104.1719" stroke="none">+</text>
      <text xml:space="preserve" x="19" y="105.6387" onclick="umlload('#getConceptualModels()')" stroke="none">getConceptualModels() : RuntimeConceptualModels</text>
    </g>
    <g font-family="sans-serif" transform="matrix(0.6953,0,0,0.6953,319.8605,264.2326)">
      <text xml:space="preserve" x="4" y="120.1719" stroke="none">+</text>
      <text xml:space="preserve" x="19" y="121.6074" onclick="umlload('#getMappings()')" stroke="none">getMappings() : RuntimeMappings</text>
    </g>
    <g font-family="sans-serif" transform="matrix(0.6953,0,0,0.6953,319.8605,264.2326)">
      <text xml:space="preserve" x="4" y="136.1719" stroke="none">+</text>
      <text xml:space="preserve" x="19" y="137.5762" onclick="umlload('#getStorageModels()')" stroke="none">getStorageModels() : RuntimeStorageModels</text>
    </g>
    <g font-family="sans-serif" transform="matrix(0.6953,0,0,0.6953,319.8605,264.2326)">
      <text xml:space="preserve" x="4" y="152.1719" stroke="none">+</text>
      <text xml:space="preserve" x="19" y="153.5449" onclick="umlload('#setConceptualModels(com.msopentech.odatajclient.engine.data.metadata.edmx.RuntimeConceptualModels)')" stroke="none">setConceptualModels(RuntimeConceptualModels) : void</text>
    </g>
    <g font-family="sans-serif" transform="matrix(0.6953,0,0,0.6953,319.8605,264.2326)">
      <text xml:space="preserve" x="4" y="168.1719" stroke="none">+</text>
      <text xml:space="preserve" x="19" y="169.5137" onclick="umlload('#setMappings(com.msopentech.odatajclient.engine.data.metadata.edmx.RuntimeMappings)')" stroke="none">setMappings(RuntimeMappings) : void</text>
    </g>
    <g font-family="sans-serif" transform="matrix(0.6953,0,0,0.6953,319.8605,264.2326)">
      <text xml:space="preserve" x="4" y="184.1719" stroke="none">+</text>
      <text xml:space="preserve" x="19" y="185.4824" onclick="umlload('#setStorageModels(com.msopentech.odatajclient.engine.data.metadata.edmx.RuntimeStorageModels)')" stroke="none">setStorageModels(RuntimeStorageModels) : void</text>
    </g>
    <g font-family="sans-serif" transform="matrix(0.6953,0,0,0.6953,319.8605,264.2326)">
      <text xml:space="preserve" x="-454" y="222.1543" onclick="umlload('http://www.yworks.com/')" stroke="none">yWorks UML Doclet</text>
    </g>
    <g stroke-miterlimit="1.45" transform="matrix(0.6953,0,0,0.6953,319.8605,264.2326)" stroke-linecap="butt">
      <path fill="none" d="M191.065 0 L191.065 -69"/>
      <path fill="white" d="M191.065 -84 L185.065 -68 L197.065 -68 Z" stroke="none"/>
      <path fill="none" d="M191.065 -84 L185.065 -68 L197.065 -68 Z"/>
      <path fill="none" d="M-0.012 11.5664 L-240.25 11.5664"/>
      <line stroke-linecap="square" transform="matrix(-1,0,0,-1,-240.25,11.5664)" fill="none" x1="0" x2="-14" y1="0" y2="-4" stroke-miterlimit="10"/>
      <line stroke-linecap="square" transform="matrix(-1,0,0,-1,-240.25,11.5664)" fill="none" x1="0" x2="-14" y1="0" y2="4" stroke-miterlimit="10"/>
    </g>
    <g stroke-miterlimit="1.45" transform="matrix(0.6953,0,0,0.6953,319.8605,264.2326)" stroke-linecap="butt">
      <path fill="none" d="M-0.0222 44.6992 L-305.14 44.6992"/>
      <line stroke-linecap="square" transform="matrix(-1,0,0,-1,-305.14,44.6992)" fill="none" x1="0" x2="-14" y1="0" y2="-4" stroke-miterlimit="10"/>
      <line stroke-linecap="square" transform="matrix(-1,0,0,-1,-305.14,44.6992)" fill="none" x1="0" x2="-14" y1="0" y2="4" stroke-miterlimit="10"/>
    </g>
    <g stroke-miterlimit="1.45" transform="matrix(0.6953,0,0,0.6953,319.8605,264.2326)" stroke-linecap="butt">
      <path fill="none" d="M-0.0307 77.832 L-266 77.832"/>
      <line stroke-linecap="square" transform="matrix(-1,0,0,-1,-266,77.832)" fill="none" x1="0" x2="-14" y1="0" y2="-4" stroke-miterlimit="10"/>
      <line stroke-linecap="square" transform="matrix(-1,0,0,-1,-266,77.832)" fill="none" x1="0" x2="-14" y1="0" y2="4" stroke-miterlimit="10"/>
    </g>
  </g>
</svg>
