<?xml version="1.0" encoding="UTF-8"?><svg xmlns="http://www.w3.org/2000/svg" xmlns:xlink="http://www.w3.org/1999/xlink" fill-opacity="1" color-rendering="auto" color-interpolation="auto" stroke="black" text-rendering="auto" stroke-linecap="square" width="598" stroke-miterlimit="10" stroke-opacity="1" shape-rendering="auto" fill="black" stroke-dasharray="none" font-weight="normal" stroke-width="1" height="598" font-family="'Dialog'" font-style="normal" stroke-linejoin="miter" font-size="12" stroke-dashoffset="0" image-rendering="auto">
  <!--Generated by ySVG-->
  <defs id="genericDefs"/>
  <g>
    <defs id="defs1">
      <clipPath clipPathUnits="userSpaceOnUse" id="clipPath1">
        <path d="M0 0 L598 0 L598 598 L0 598 L0 0 Z"/>
      </clipPath>
      <clipPath clipPathUnits="userSpaceOnUse" id="clipPath2">
        <path d="M-445.22 0 L-377.24 0 L-377.24 23.1328 L-445.22 23.1328 L-445.22 0 Z"/>
      </clipPath>
      <clipPath clipPathUnits="userSpaceOnUse" id="clipPath3">
        <path d="M81.37 -107.1328 L139.05 -107.1328 L139.05 -84 L81.37 -84 L81.37 -107.1328 Z"/>
      </clipPath>
      <clipPath clipPathUnits="userSpaceOnUse" id="clipPath4">
        <path d="M0 0 L220.42 0 L220.42 93.5 L0 93.5 L0 0 Z"/>
      </clipPath>
      <script type="text/ecmascript"><![CDATA[
function umlload(newLocation)
{
if (newLocation.charAt(0) != '#') {
if (newLocation.indexOf("://") > -1) {
window.parent.location.href = newLocation;
} else {
var tmp = window.parent.location.href;
tmp = tmp.substring(0, tmp.lastIndexOf("/") + 1);
window.parent.location.href = tmp.concat(newLocation);
}
} else {
window.parent.location.hash = newLocation;
}
}
]]></script>
    </defs>
    <g fill="rgb(238,238,255)" transform="matrix(0.7002,0,0,0.7002,317.9063,297.5995)" stroke="rgb(238,238,255)">
      <rect width="400.7766" x="-453.22" height="17.9688" y="-26" stroke="none"/>
    </g>
    <g fill="rgb(166,166,178)" stroke-miterlimit="1.45" transform="matrix(0.7002,0,0,0.7002,317.9063,297.5995)" stroke-linecap="butt" stroke="rgb(166,166,178)">
      <rect fill="none" width="400.7766" x="-453.22" height="17.9688" y="-26"/>
    </g>
    <g fill="rgb(238,238,255)" transform="matrix(0.7002,0,0,0.7002,317.9063,297.5995)" stroke="rgb(238,238,255)">
      <rect width="400.98" x="-453.22" height="39.1641" y="-8.0312" stroke="none"/>
    </g>
    <g fill="rgb(166,166,178)" stroke-miterlimit="1.45" transform="matrix(0.7002,0,0,0.7002,317.9063,297.5995)" stroke-linecap="butt" stroke="rgb(166,166,178)">
      <rect fill="none" width="400.98" x="-453.22" height="39.1641" y="-8.0312"/>
    </g>
    <g font-family="sans-serif" transform="matrix(0.7002,0,0,0.7002,317.9063,297.5995)">
      <text xml:space="preserve" x="-447.22" y="-12.8613" onclick="umlload('../../../../../../../com/msopentech/odatajclient/engine/data/metadata/edm/package-summary.html')" stroke="none">com.msopentech.odatajclient.engine.data.metadata.edm</text>
    </g>
    <g fill="rgb(187,187,255)" transform="matrix(0.7002,0,0,0.7002,317.9063,297.5995)" stroke="rgb(187,187,255)">
      <rect x="-445.22" y="0" clip-path="url(#clipPath2)" width="67.98" height="23.1328" stroke="none"/>
    </g>
    <g fill="rgb(130,130,178)" stroke-miterlimit="1.45" transform="matrix(0.7002,0,0,0.7002,317.9063,297.5995)" stroke-linecap="butt" stroke="rgb(130,130,178)">
      <rect fill="none" width="67.98" x="-445.22" height="23.1328" y="0"/>
    </g>
    <g font-size="13" font-weight="bold" font-family="sans-serif" transform="matrix(0.7002,0,0,0.7002,317.9063,297.5995)">
      <text xml:space="preserve" x="-440.23" y="16.0669" onclick="umlload('../../../../../../../com/msopentech/odatajclient/engine/data/metadata/edm/Schema.html')" stroke="none">Schema</text>
    </g>
    <g fill="rgb(238,238,255)" transform="matrix(0.7002,0,0,0.7002,317.9063,297.5995)" stroke="rgb(238,238,255)">
      <rect width="76.1412" x="73.37" height="17.9688" y="-133.1328" stroke="none"/>
    </g>
    <g fill="rgb(166,166,178)" stroke-miterlimit="1.45" transform="matrix(0.7002,0,0,0.7002,317.9063,297.5995)" stroke-linecap="butt" stroke="rgb(166,166,178)">
      <rect fill="none" width="76.1412" x="73.37" height="17.9688" y="-133.1328"/>
    </g>
    <g fill="rgb(238,238,255)" transform="matrix(0.7002,0,0,0.7002,317.9063,297.5995)" stroke="rgb(238,238,255)">
      <rect width="76.1412" x="73.37" height="39.1641" y="-115.1641" stroke="none"/>
    </g>
    <g fill="rgb(166,166,178)" stroke-miterlimit="1.45" transform="matrix(0.7002,0,0,0.7002,317.9063,297.5995)" stroke-linecap="butt" stroke="rgb(166,166,178)">
      <rect fill="none" width="76.1412" x="73.37" height="39.1641" y="-115.1641"/>
    </g>
    <g font-family="sans-serif" transform="matrix(0.7002,0,0,0.7002,317.9063,297.5995)">
      <text xml:space="preserve" x="79.37" y="-119.9941" onclick="umlload('http://docs.oracle.com/javase/6/docs/api/java/lang/package-summary.html')" stroke="none">java.lang</text>
    </g>
    <g fill="rgb(187,187,255)" transform="matrix(0.7002,0,0,0.7002,317.9063,297.5995)" stroke="rgb(187,187,255)">
      <rect x="81.37" y="-107.1328" clip-path="url(#clipPath3)" width="57.68" height="23.1328" stroke="none"/>
    </g>
    <g fill="rgb(130,130,178)" stroke-miterlimit="1.45" transform="matrix(0.7002,0,0,0.7002,317.9063,297.5995)" stroke-linecap="butt" stroke="rgb(130,130,178)">
      <rect fill="none" width="57.68" x="81.37" height="23.1328" y="-107.1328"/>
    </g>
    <g font-size="13" font-weight="bold" font-family="sans-serif" transform="matrix(0.7002,0,0,0.7002,317.9063,297.5995)">
      <text xml:space="preserve" x="86.21" y="-91.0659" onclick="umlload('http://docs.oracle.com/javase/6/docs/api/java/lang/Object.html')" stroke="none">Object</text>
    </g>
    <g fill="rgb(238,238,255)" transform="matrix(0.7002,0,0,0.7002,317.9063,297.5995)" stroke="rgb(238,238,255)">
      <rect width="407.142" x="-8" height="17.9688" y="-26" stroke="none"/>
    </g>
    <g fill="rgb(166,166,178)" stroke-miterlimit="1.45" transform="matrix(0.7002,0,0,0.7002,317.9063,297.5995)" stroke-linecap="butt" stroke="rgb(166,166,178)">
      <rect fill="none" width="407.142" x="-8" height="17.9688" y="-26"/>
    </g>
    <g fill="rgb(238,238,255)" transform="matrix(0.7002,0,0,0.7002,317.9063,297.5995)" stroke="rgb(238,238,255)">
      <rect width="407.42" x="-8" height="109.5312" y="-8.0312" stroke="none"/>
    </g>
    <g fill="rgb(166,166,178)" stroke-miterlimit="1.45" transform="matrix(0.7002,0,0,0.7002,317.9063,297.5995)" stroke-linecap="butt" stroke="rgb(166,166,178)">
      <rect fill="none" width="407.42" x="-8" height="109.5312" y="-8.0312"/>
    </g>
    <g font-family="sans-serif" transform="matrix(0.7002,0,0,0.7002,317.9063,297.5995)">
      <text xml:space="preserve" x="-2" y="-12.8613" onclick="umlload('package-summary.html')" stroke="none">com.msopentech.odatajclient.engine.data.metadata.edmx</text>
    </g>
    <g fill="rgb(187,187,255)" transform="matrix(0.7002,0,0,0.7002,317.9063,297.5995)" stroke="rgb(187,187,255)">
      <rect x="0" y="0" clip-path="url(#clipPath4)" width="220.42" height="26.625" stroke="none"/>
      <line clip-path="url(#clipPath4)" fill="none" x1="0" x2="220.42" y1="26.625" y2="26.625" stroke="black"/>
      <rect x="0" y="27.625" clip-path="url(#clipPath4)" width="220.42" height="15.9688" stroke="none"/>
      <line clip-path="url(#clipPath4)" fill="none" x1="0" x2="220.42" y1="43.5938" y2="43.5938" stroke="black"/>
      <rect x="0" y="44.5938" clip-path="url(#clipPath4)" width="220.42" height="15.9688" stroke="none"/>
      <line clip-path="url(#clipPath4)" fill="none" x1="0" x2="220.42" y1="60.5625" y2="60.5625" stroke="black"/>
      <rect x="0" y="61.5625" clip-path="url(#clipPath4)" width="220.42" height="31.9375" stroke="none"/>
    </g>
    <g fill="rgb(130,130,178)" stroke-miterlimit="1.45" transform="matrix(0.7002,0,0,0.7002,317.9063,297.5995)" stroke-linecap="butt" stroke="rgb(130,130,178)">
      <rect fill="none" width="220.42" x="0" height="93.5" y="0"/>
    </g>
    <g font-size="16" font-weight="bold" font-family="sans-serif" transform="matrix(0.7002,0,0,0.7002,317.9063,297.5995)">
      <text xml:space="preserve" x="7.21" y="18.8516" onclick="umlload('#')" stroke="none">RuntimeStorageModels</text>
    </g>
    <g font-family="sans-serif" transform="matrix(0.7002,0,0,0.7002,317.9063,297.5995)">
      <text xml:space="preserve" x="4" y="38.1719" stroke="none">#</text>
      <text xml:space="preserve" x="19" y="39.7637" onclick="umlload('#schema')" stroke="none">schema : Schema</text>
    </g>
    <g font-family="sans-serif" transform="matrix(0.7002,0,0,0.7002,317.9063,297.5995)">
      <text xml:space="preserve" x="4" y="55.1719" stroke="none">+</text>
      <text xml:space="preserve" x="19" y="56.7324" onclick="umlload('#RuntimeStorageModels()')" stroke="none">RuntimeStorageModels()</text>
    </g>
    <g font-family="sans-serif" transform="matrix(0.7002,0,0,0.7002,317.9063,297.5995)">
      <text xml:space="preserve" x="4" y="72.1719" stroke="none">+</text>
      <text xml:space="preserve" x="19" y="73.7012" onclick="umlload('#getSchema()')" stroke="none">getSchema() : Schema</text>
    </g>
    <g font-family="sans-serif" transform="matrix(0.7002,0,0,0.7002,317.9063,297.5995)">
      <text xml:space="preserve" x="4" y="88.1719" stroke="none">+</text>
      <text xml:space="preserve" x="19" y="89.6699" onclick="umlload('#setSchema(com.msopentech.odatajclient.engine.data.metadata.edm.Schema)')" stroke="none">setSchema(Schema) : void</text>
    </g>
    <g font-family="sans-serif" transform="matrix(0.7002,0,0,0.7002,317.9063,297.5995)">
      <text xml:space="preserve" x="-448" y="126.1543" onclick="umlload('http://www.yworks.com/')" stroke="none">yWorks UML Doclet</text>
    </g>
    <g stroke-miterlimit="1.45" transform="matrix(0.7002,0,0,0.7002,317.9063,297.5995)" stroke-linecap="butt">
      <path fill="none" d="M110.21 0 L110.21 -69"/>
      <path fill="white" d="M110.21 -84 L104.21 -68 L116.21 -68 Z" stroke="none"/>
      <path fill="none" d="M110.21 -84 L104.21 -68 L116.21 -68 Z"/>
      <path fill="none" d="M-0.004 11.5664 L-377.24 11.5664"/>
      <line stroke-linecap="square" transform="matrix(-1,0,0,-1,-377.24,11.5664)" fill="none" x1="0" x2="-14" y1="0" y2="-4" stroke-miterlimit="10"/>
      <line stroke-linecap="square" transform="matrix(-1,0,0,-1,-377.24,11.5664)" fill="none" x1="0" x2="-14" y1="0" y2="4" stroke-miterlimit="10"/>
    </g>
  </g>
</svg>
