<?xml version="1.0" encoding="UTF-8"?><svg xmlns="http://www.w3.org/2000/svg" xmlns:xlink="http://www.w3.org/1999/xlink" fill-opacity="1" color-rendering="auto" color-interpolation="auto" stroke="black" text-rendering="auto" stroke-linecap="square" width="598" stroke-miterlimit="10" stroke-opacity="1" shape-rendering="auto" fill="black" stroke-dasharray="none" font-weight="normal" stroke-width="1" height="598" font-family="'Dialog'" font-style="normal" stroke-linejoin="miter" font-size="12" stroke-dashoffset="0" image-rendering="auto">
  <!--Generated by ySVG-->
  <defs id="genericDefs"/>
  <g>
    <defs id="defs1">
      <clipPath clipPathUnits="userSpaceOnUse" id="clipPath1">
        <path d="M0 0 L598 0 L598 598 L0 598 L0 0 Z"/>
      </clipPath>
      <clipPath clipPathUnits="userSpaceOnUse" id="clipPath2">
        <path d="M1025.157 16.3574 C1025.157 25.3913 987.9838 32.7147 942.1285 32.7147 C896.2731 32.7147 859.1 25.3913 859.1 16.3574 C859.1 7.3234 896.2731 0 942.1285 0 C987.9838 0 1025.157 7.3234 1025.157 16.3574 Z"/>
      </clipPath>
      <clipPath clipPathUnits="userSpaceOnUse" id="clipPath3">
        <path d="M1022.2437 59.0721 C1022.2437 68.106 985.7227 75.4295 940.6718 75.4295 C895.621 75.4295 859.1 68.106 859.1 59.0721 C859.1 50.0382 895.621 42.7147 940.6718 42.7147 C985.7227 42.7147 1022.2437 50.0382 1022.2437 59.0721 Z"/>
      </clipPath>
      <clipPath clipPathUnits="userSpaceOnUse" id="clipPath4">
        <path d="M-130.04 0 L-76.48 0 L-76.48 23.1328 L-130.04 23.1328 L-130.04 0 Z"/>
      </clipPath>
      <clipPath clipPathUnits="userSpaceOnUse" id="clipPath5">
        <path d="M790.0919 -100.3574 C790.0919 -91.3234 755.5275 -84 712.89 -84 C670.2526 -84 635.6881 -91.3234 635.6881 -100.3574 C635.6881 -109.3913 670.2526 -116.7147 712.89 -116.7147 C755.5275 -116.7147 790.0919 -109.3913 790.0919 -100.3574 Z"/>
      </clipPath>
      <clipPath clipPathUnits="userSpaceOnUse" id="clipPath6">
        <path d="M304.88 -107.1328 L488.22 -107.1328 L488.22 -84 L304.88 -84 L304.88 -107.1328 Z"/>
      </clipPath>
      <clipPath clipPathUnits="userSpaceOnUse" id="clipPath7">
        <path d="M0 0 L793.1 0 L793.1 248.1875 L0 248.1875 L0 0 Z"/>
      </clipPath>
      <script type="text/ecmascript"><![CDATA[
function umlload(newLocation)
{
if (newLocation.charAt(0) != '#') {
if (newLocation.indexOf("://") > -1) {
window.parent.location.href = newLocation;
} else {
var tmp = window.parent.location.href;
tmp = tmp.substring(0, tmp.lastIndexOf("/") + 1);
window.parent.location.href = tmp.concat(newLocation);
}
} else {
window.parent.location.hash = newLocation;
}
}
]]></script>
    </defs>
    <g fill="rgb(238,238,255)" transform="matrix(0.4636,0,0,0.4636,64.4357,264.2326)" stroke="rgb(238,238,255)">
      <rect width="298.9302" x="851.1" height="17.9688" y="-26" stroke="none"/>
    </g>
    <g fill="rgb(166,166,178)" stroke-miterlimit="1.45" transform="matrix(0.4636,0,0,0.4636,64.4357,264.2326)" stroke-linecap="butt" stroke="rgb(166,166,178)">
      <rect fill="none" width="298.9302" x="851.1" height="17.9688" y="-26"/>
    </g>
    <g fill="rgb(238,238,255)" transform="matrix(0.4636,0,0,0.4636,64.4357,264.2326)" stroke="rgb(238,238,255)">
      <rect width="299.057" x="851.1" height="91.4607" y="-8.0312" stroke="none"/>
    </g>
    <g fill="rgb(166,166,178)" stroke-miterlimit="1.45" transform="matrix(0.4636,0,0,0.4636,64.4357,264.2326)" stroke-linecap="butt" stroke="rgb(166,166,178)">
      <rect fill="none" width="299.057" x="851.1" height="91.4607" y="-8.0312"/>
    </g>
    <g font-family="sans-serif" transform="matrix(0.4636,0,0,0.4636,64.4357,264.2326)">
      <text xml:space="preserve" x="857.1" y="-12.8613" onclick="umlload('../../../../../com/msopentech/odatajclient/engine/data/package-summary.html')" stroke="none">com.msopentech.odatajclient.engine.data</text>
    </g>
    <g fill="rgb(221,221,255)" transform="matrix(0.4636,0,0,0.4636,64.4357,264.2326)" stroke="rgb(221,221,255)">
      <rect x="859.1" y="0" clip-path="url(#clipPath2)" width="166.057" height="32.7147" stroke="none"/>
    </g>
    <g fill="rgb(154,154,178)" stroke-miterlimit="1.45" transform="matrix(0.4636,0,0,0.4636,64.4357,264.2326)" stroke-linecap="butt" stroke="rgb(154,154,178)">
      <ellipse rx="83.0285" fill="none" ry="16.3574" cx="942.1285" cy="16.3574"/>
    </g>
    <g font-style="italic" font-size="13" font-weight="bold" font-family="sans-serif" transform="matrix(0.4636,0,0,0.4636,64.4357,264.2326)">
      <text xml:space="preserve" x="889.1285" y="20.8579" onclick="umlload('../../../../../com/msopentech/odatajclient/engine/data/EntryResource.html')" stroke="none">EntryResource</text>
    </g>
    <g fill="rgb(221,221,255)" transform="matrix(0.4636,0,0,0.4636,64.4357,264.2326)" stroke="rgb(221,221,255)">
      <rect x="859.1" y="42.7147" clip-path="url(#clipPath3)" width="163.1437" height="32.7147" stroke="none"/>
    </g>
    <g fill="rgb(154,154,178)" stroke-miterlimit="1.45" transform="matrix(0.4636,0,0,0.4636,64.4357,264.2326)" stroke-linecap="butt" stroke="rgb(154,154,178)">
      <ellipse rx="81.5718" fill="none" ry="16.3574" cx="940.6718" cy="59.0721"/>
    </g>
    <g font-style="italic" font-size="13" font-weight="bold" font-family="sans-serif" transform="matrix(0.4636,0,0,0.4636,64.4357,264.2326)">
      <text xml:space="preserve" x="888.6718" y="63.5726" onclick="umlload('../../../../../com/msopentech/odatajclient/engine/data/FeedResource.html')" stroke="none">FeedResource</text>
    </g>
    <g fill="rgb(238,238,255)" transform="matrix(0.4636,0,0,0.4636,64.4357,264.2326)" stroke="rgb(238,238,255)">
      <rect width="76.1412" x="-138.04" height="17.9688" y="-26" stroke="none"/>
    </g>
    <g fill="rgb(166,166,178)" stroke-miterlimit="1.45" transform="matrix(0.4636,0,0,0.4636,64.4357,264.2326)" stroke-linecap="butt" stroke="rgb(166,166,178)">
      <rect fill="none" width="76.1412" x="-138.04" height="17.9688" y="-26"/>
    </g>
    <g fill="rgb(238,238,255)" transform="matrix(0.4636,0,0,0.4636,64.4357,264.2326)" stroke="rgb(238,238,255)">
      <rect width="79.56" x="-138.04" height="39.1641" y="-8.0312" stroke="none"/>
    </g>
    <g fill="rgb(166,166,178)" stroke-miterlimit="1.45" transform="matrix(0.4636,0,0,0.4636,64.4357,264.2326)" stroke-linecap="butt" stroke="rgb(166,166,178)">
      <rect fill="none" width="79.56" x="-138.04" height="39.1641" y="-8.0312"/>
    </g>
    <g font-family="sans-serif" transform="matrix(0.4636,0,0,0.4636,64.4357,264.2326)">
      <text xml:space="preserve" x="-132.04" y="-12.8613" onclick="umlload('http://docs.oracle.com/javase/6/docs/api/java/lang/package-summary.html')" stroke="none">java.lang</text>
    </g>
    <g fill="rgb(187,187,255)" transform="matrix(0.4636,0,0,0.4636,64.4357,264.2326)" stroke="rgb(187,187,255)">
      <rect x="-130.04" y="0" clip-path="url(#clipPath4)" width="53.56" height="23.1328" stroke="none"/>
    </g>
    <g fill="rgb(130,130,178)" stroke-miterlimit="1.45" transform="matrix(0.4636,0,0,0.4636,64.4357,264.2326)" stroke-linecap="butt" stroke="rgb(130,130,178)">
      <rect fill="none" width="53.56" x="-130.04" height="23.1328" y="0"/>
    </g>
    <g font-size="13" font-weight="bold" font-family="sans-serif" transform="matrix(0.4636,0,0,0.4636,64.4357,264.2326)">
      <text xml:space="preserve" x="-125.26" y="16.0669" onclick="umlload('http://docs.oracle.com/javase/6/docs/api/java/lang/String.html')" stroke="none">String</text>
    </g>
    <g fill="rgb(238,238,255)" transform="matrix(0.4636,0,0,0.4636,64.4357,264.2326)" stroke="rgb(238,238,255)">
      <rect width="298.9302" x="569.6881" height="17.9688" y="-142.7147" stroke="none"/>
    </g>
    <g fill="rgb(166,166,178)" stroke-miterlimit="1.45" transform="matrix(0.4636,0,0,0.4636,64.4357,264.2326)" stroke-linecap="butt" stroke="rgb(166,166,178)">
      <rect fill="none" width="298.9302" x="569.6881" height="17.9688" y="-142.7147"/>
    </g>
    <g fill="rgb(238,238,255)" transform="matrix(0.4636,0,0,0.4636,64.4357,264.2326)" stroke="rgb(238,238,255)">
      <rect width="299.4038" x="569.6881" height="48.746" y="-124.746" stroke="none"/>
    </g>
    <g fill="rgb(166,166,178)" stroke-miterlimit="1.45" transform="matrix(0.4636,0,0,0.4636,64.4357,264.2326)" stroke-linecap="butt" stroke="rgb(166,166,178)">
      <rect fill="none" width="299.4038" x="569.6881" height="48.746" y="-124.746"/>
    </g>
    <g font-family="sans-serif" transform="matrix(0.4636,0,0,0.4636,64.4357,264.2326)">
      <text xml:space="preserve" x="575.6881" y="-129.5761" onclick="umlload('../../../../../com/msopentech/odatajclient/engine/data/package-summary.html')" stroke="none">com.msopentech.odatajclient.engine.data</text>
    </g>
    <g fill="rgb(221,221,255)" transform="matrix(0.4636,0,0,0.4636,64.4357,264.2326)" stroke="rgb(221,221,255)">
      <rect x="635.6881" y="-116.7147" clip-path="url(#clipPath5)" width="154.4038" height="32.7147" stroke="none"/>
    </g>
    <g fill="rgb(154,154,178)" stroke-miterlimit="1.45" transform="matrix(0.4636,0,0,0.4636,64.4357,264.2326)" stroke-linecap="butt" stroke="rgb(154,154,178)">
      <ellipse rx="77.2019" fill="none" ry="16.3574" cx="712.89" cy="-100.3574"/>
    </g>
    <g font-style="italic" font-size="13" font-weight="bold" font-family="sans-serif" transform="matrix(0.4636,0,0,0.4636,64.4357,264.2326)">
      <text xml:space="preserve" x="663.89" y="-95.8569" onclick="umlload('../../../../../com/msopentech/odatajclient/engine/data/LinkResource.html')" stroke="none">LinkResource</text>
    </g>
    <g fill="rgb(238,238,255)" transform="matrix(0.4636,0,0,0.4636,64.4357,264.2326)" stroke="rgb(238,238,255)">
      <rect width="298.9302" x="252.88" height="17.9688" y="-133.1328" stroke="none"/>
    </g>
    <g fill="rgb(166,166,178)" stroke-miterlimit="1.45" transform="matrix(0.4636,0,0,0.4636,64.4357,264.2326)" stroke-linecap="butt" stroke="rgb(166,166,178)">
      <rect fill="none" width="298.9302" x="252.88" height="17.9688" y="-133.1328"/>
    </g>
    <g fill="rgb(238,238,255)" transform="matrix(0.4636,0,0,0.4636,64.4357,264.2326)" stroke="rgb(238,238,255)">
      <rect width="299.34" x="252.88" height="39.1641" y="-115.1641" stroke="none"/>
    </g>
    <g fill="rgb(166,166,178)" stroke-miterlimit="1.45" transform="matrix(0.4636,0,0,0.4636,64.4357,264.2326)" stroke-linecap="butt" stroke="rgb(166,166,178)">
      <rect fill="none" width="299.34" x="252.88" height="39.1641" y="-115.1641"/>
    </g>
    <g font-family="sans-serif" transform="matrix(0.4636,0,0,0.4636,64.4357,264.2326)">
      <text xml:space="preserve" x="258.88" y="-119.9941" onclick="umlload('../../../../../com/msopentech/odatajclient/engine/data/package-summary.html')" stroke="none">com.msopentech.odatajclient.engine.data</text>
    </g>
    <g fill="rgb(204,204,255)" transform="matrix(0.4636,0,0,0.4636,64.4357,264.2326)" stroke="rgb(204,204,255)">
      <rect x="304.88" y="-107.1328" clip-path="url(#clipPath6)" width="183.34" height="23.1328" stroke="none"/>
    </g>
    <g fill="rgb(142,142,178)" stroke-miterlimit="1.45" transform="matrix(0.4636,0,0,0.4636,64.4357,264.2326)" stroke-linecap="butt" stroke="rgb(142,142,178)">
      <rect fill="none" width="183.34" x="304.88" height="23.1328" y="-107.1328"/>
    </g>
    <g font-size="13" font-weight="bold" font-family="sans-serif" transform="matrix(0.4636,0,0,0.4636,64.4357,264.2326)">
      <text xml:space="preserve" x="311.55" y="-91.0659" onclick="umlload('../../../../../com/msopentech/odatajclient/engine/data/AbstractPayloadObject.html')" stroke="none">AbstractPayloadObject</text>
    </g>
    <g fill="rgb(238,238,255)" transform="matrix(0.4636,0,0,0.4636,64.4357,264.2326)" stroke="rgb(238,238,255)">
      <rect width="298.9302" x="-8" height="17.9688" y="-26" stroke="none"/>
    </g>
    <g fill="rgb(166,166,178)" stroke-miterlimit="1.45" transform="matrix(0.4636,0,0,0.4636,64.4357,264.2326)" stroke-linecap="butt" stroke="rgb(166,166,178)">
      <rect fill="none" width="298.9302" x="-8" height="17.9688" y="-26"/>
    </g>
    <g fill="rgb(238,238,255)" transform="matrix(0.4636,0,0,0.4636,64.4357,264.2326)" stroke="rgb(238,238,255)">
      <rect width="809.1" x="-8" height="264.2188" y="-8.0312" stroke="none"/>
    </g>
    <g fill="rgb(166,166,178)" stroke-miterlimit="1.45" transform="matrix(0.4636,0,0,0.4636,64.4357,264.2326)" stroke-linecap="butt" stroke="rgb(166,166,178)">
      <rect fill="none" width="809.1" x="-8" height="264.2188" y="-8.0312"/>
    </g>
    <g font-family="sans-serif" transform="matrix(0.4636,0,0,0.4636,64.4357,264.2326)">
      <text xml:space="preserve" x="-2" y="-12.8613" onclick="umlload('package-summary.html')" stroke="none">com.msopentech.odatajclient.engine.data</text>
    </g>
    <g fill="rgb(204,204,255)" transform="matrix(0.4636,0,0,0.4636,64.4357,264.2326)" stroke="rgb(204,204,255)">
      <rect x="0" y="0" clip-path="url(#clipPath7)" width="793.1" height="38.5938" stroke="none"/>
      <line clip-path="url(#clipPath7)" fill="none" x1="0" x2="793.1" y1="38.5938" y2="38.5938" stroke="black"/>
      <line clip-path="url(#clipPath7)" x1="0" x2="793.1" y1="39.5938" y2="39.5938" stroke="none"/>
      <line clip-path="url(#clipPath7)" fill="none" x1="0" x2="793.1" y1="39.5938" y2="39.5938" stroke="black"/>
      <rect x="0" y="40.5938" clip-path="url(#clipPath7)" width="793.1" height="207.5938" stroke="none"/>
    </g>
    <g fill="rgb(142,142,178)" stroke-miterlimit="1.45" transform="matrix(0.4636,0,0,0.4636,64.4357,264.2326)" stroke-linecap="butt" stroke="rgb(142,142,178)">
      <rect fill="none" width="793.1" x="0" height="248.1875" y="0"/>
    </g>
    <g font-size="16" font-weight="bold" font-family="sans-serif" transform="matrix(0.4636,0,0,0.4636,64.4357,264.2326)">
      <text xml:space="preserve" x="15.55" y="16.8516" onclick="umlload('#')" stroke="none">AbstractLinkResource&lt;ENTRY extends EntryResource, FEED extends FeedResource&gt;</text>
    </g>
    <g font-family="sans-serif" transform="matrix(0.4636,0,0,0.4636,64.4357,264.2326)">
      <text xml:space="preserve" x="720.1" y="33.7637" stroke="none">{abstract}</text>
    </g>
    <g font-family="sans-serif" transform="matrix(0.4636,0,0,0.4636,64.4357,264.2326)">
      <text xml:space="preserve" x="4" y="51.1719" stroke="none">+</text>
      <text xml:space="preserve" x="19" y="52.7324" stroke="none">AbstractLinkResource()</text>
    </g>
    <g font-family="sans-serif" transform="matrix(0.4636,0,0,0.4636,64.4357,264.2326)">
      <text xml:space="preserve" x="4" y="67.1719" stroke="none">+</text>
      <text xml:space="preserve" x="19" y="68.7012" onclick="umlload('#getHref()')" stroke="none">getHref() : String</text>
    </g>
    <g font-family="sans-serif" transform="matrix(0.4636,0,0,0.4636,64.4357,264.2326)">
      <text xml:space="preserve" x="4" y="83.1719" stroke="none">+</text>
      <text xml:space="preserve" x="19" y="84.6699" onclick="umlload('#getInlineEntry()')" stroke="none">getInlineEntry() : EntryResource</text>
    </g>
    <g font-family="sans-serif" transform="matrix(0.4636,0,0,0.4636,64.4357,264.2326)">
      <text xml:space="preserve" x="4" y="99.1719" stroke="none">+</text>
      <text xml:space="preserve" x="19" y="100.6387" onclick="umlload('#getInlineFeed()')" stroke="none">getInlineFeed() : FeedResource</text>
    </g>
    <g font-family="sans-serif" transform="matrix(0.4636,0,0,0.4636,64.4357,264.2326)">
      <text xml:space="preserve" x="4" y="115.1719" stroke="none">+</text>
      <text xml:space="preserve" x="19" y="116.6074" onclick="umlload('#getRel()')" stroke="none">getRel() : String</text>
    </g>
    <g font-family="sans-serif" transform="matrix(0.4636,0,0,0.4636,64.4357,264.2326)">
      <text xml:space="preserve" x="4" y="131.1719" stroke="none">+</text>
      <text xml:space="preserve" x="19" y="132.5762" onclick="umlload('#getTitle()')" stroke="none">getTitle() : String</text>
    </g>
    <g font-family="sans-serif" transform="matrix(0.4636,0,0,0.4636,64.4357,264.2326)">
      <text xml:space="preserve" x="4" y="147.1719" stroke="none">+</text>
      <text xml:space="preserve" x="19" y="148.5449" onclick="umlload('#getType()')" stroke="none">getType() : String</text>
    </g>
    <g font-family="sans-serif" transform="matrix(0.4636,0,0,0.4636,64.4357,264.2326)">
      <text xml:space="preserve" x="4" y="163.1719" stroke="none">+</text>
      <text xml:space="preserve" x="19" y="164.5137" onclick="umlload('#setHref(java.lang.String)')" stroke="none">setHref(String) : void</text>
    </g>
    <g font-family="sans-serif" transform="matrix(0.4636,0,0,0.4636,64.4357,264.2326)">
      <text xml:space="preserve" x="4" y="179.1719" stroke="none">+</text>
      <text xml:space="preserve" x="19" y="180.4824" onclick="umlload('#setInlineEntry(com.msopentech.odatajclient.engine.data.EntryResource)')" stroke="none">setInlineEntry(EntryResource) : void</text>
    </g>
    <g font-family="sans-serif" transform="matrix(0.4636,0,0,0.4636,64.4357,264.2326)">
      <text xml:space="preserve" x="4" y="195.1719" stroke="none">+</text>
      <text xml:space="preserve" x="19" y="196.4512" onclick="umlload('#setInlineFeed(com.msopentech.odatajclient.engine.data.FeedResource)')" stroke="none">setInlineFeed(FeedResource) : void</text>
    </g>
    <g font-family="sans-serif" transform="matrix(0.4636,0,0,0.4636,64.4357,264.2326)">
      <text xml:space="preserve" x="4" y="211.1719" stroke="none">+</text>
      <text xml:space="preserve" x="19" y="212.4199" onclick="umlload('#setRel(java.lang.String)')" stroke="none">setRel(String) : void</text>
    </g>
    <g font-family="sans-serif" transform="matrix(0.4636,0,0,0.4636,64.4357,264.2326)">
      <text xml:space="preserve" x="4" y="227.1719" stroke="none">+</text>
      <text xml:space="preserve" x="19" y="228.3887" onclick="umlload('#setTitle(java.lang.String)')" stroke="none">setTitle(String) : void</text>
    </g>
    <g font-family="sans-serif" transform="matrix(0.4636,0,0,0.4636,64.4357,264.2326)">
      <text xml:space="preserve" x="4" y="243.1719" stroke="none">+</text>
      <text xml:space="preserve" x="19" y="244.3574" onclick="umlload('#setType(java.lang.String)')" stroke="none">setType(String) : void</text>
    </g>
    <g font-family="sans-serif" transform="matrix(0.4636,0,0,0.4636,64.4357,264.2326)">
      <text xml:space="preserve" x="-133" y="281.1543" onclick="umlload('http://www.yworks.com/')" stroke="none">yWorks UML Doclet</text>
    </g>
    <g stroke-miterlimit="1.45" transform="matrix(0.4636,0,0,0.4636,64.4357,264.2326)" stroke-linecap="butt">
      <path fill="none" d="M396.55 0 L396.55 -69"/>
      <path fill="white" d="M396.55 -84 L390.55 -68 L402.55 -68 Z" stroke="none"/>
      <path fill="none" d="M396.55 -84 L390.55 -68 L402.55 -68 Z"/>
      <path fill="none" stroke-dasharray="6,2" d="M594.825 -0.0022 L594.825 -51 L712.89 -51 L712.89 -69"/>
      <path fill="white" stroke-dasharray="6,2" d="M712.89 -84 L706.89 -68 L718.89 -68 Z" stroke="none"/>
      <path fill="none" d="M712.89 -84 L706.89 -68 L718.89 -68 Z"/>
      <path fill="none" d="M0.0027 11.5664 L-76.48 11.5664"/>
      <line stroke-linecap="square" transform="matrix(-1,0,0,-1,-76.48,11.5664)" fill="none" x1="0" x2="-14" y1="0" y2="-4" stroke-miterlimit="10"/>
      <line stroke-linecap="square" transform="matrix(-1,0,0,-1,-76.48,11.5664)" fill="none" x1="0" x2="-14" y1="0" y2="4" stroke-miterlimit="10"/>
    </g>
    <g stroke-dasharray="6,2" stroke-miterlimit="1.45" transform="matrix(0.4636,0,0,0.4636,64.4357,264.2326)" stroke-linecap="butt">
      <path fill="none" d="M793.1133 16.3574 L859.1 16.3574"/>
      <line stroke-linecap="square" transform="matrix(1,0,0,1,859.1,16.3574)" fill="none" x1="0" x2="-14" y1="0" y2="-4" stroke-dasharray="none" stroke-miterlimit="10"/>
      <line stroke-linecap="square" transform="matrix(1,0,0,1,859.1,16.3574)" fill="none" x1="0" x2="-14" y1="0" y2="4" stroke-dasharray="none" stroke-miterlimit="10"/>
    </g>
    <g stroke-dasharray="6,2" stroke-miterlimit="1.45" transform="matrix(0.4636,0,0,0.4636,64.4357,264.2326)" stroke-linecap="butt">
      <path fill="none" d="M793.1173 59.0721 L859.1 59.0721"/>
      <line stroke-linecap="square" transform="matrix(1,0,0,1,859.1,59.0721)" fill="none" x1="0" x2="-14" y1="0" y2="-4" stroke-dasharray="none" stroke-miterlimit="10"/>
      <line stroke-linecap="square" transform="matrix(1,0,0,1,859.1,59.0721)" fill="none" x1="0" x2="-14" y1="0" y2="4" stroke-dasharray="none" stroke-miterlimit="10"/>
    </g>
  </g>
</svg>
