<?xml version="1.0" encoding="UTF-8"?><svg xmlns="http://www.w3.org/2000/svg" xmlns:xlink="http://www.w3.org/1999/xlink" fill-opacity="1" color-rendering="auto" color-interpolation="auto" stroke="black" text-rendering="auto" stroke-linecap="square" width="598" stroke-miterlimit="10" stroke-opacity="1" shape-rendering="auto" fill="black" stroke-dasharray="none" font-weight="normal" stroke-width="1" height="598" font-family="'Dialog'" font-style="normal" stroke-linejoin="miter" font-size="12" stroke-dashoffset="0" image-rendering="auto">
  <!--Generated by ySVG-->
  <defs id="genericDefs"/>
  <g>
    <defs id="defs1">
      <clipPath clipPathUnits="userSpaceOnUse" id="clipPath1">
        <path d="M0 0 L598 0 L598 598 L0 598 L0 0 Z"/>
      </clipPath>
      <clipPath clipPathUnits="userSpaceOnUse" id="clipPath2">
        <path d="M720.9838 16.3574 C720.9838 25.3913 686.4194 32.7147 643.7819 32.7147 C601.1445 32.7147 566.58 25.3913 566.58 16.3574 C566.58 7.3234 601.1445 0 643.7819 0 C686.4194 0 720.9838 7.3234 720.9838 16.3574 Z"/>
      </clipPath>
      <clipPath clipPathUnits="userSpaceOnUse" id="clipPath3">
        <path d="M566.58 42.7147 L697.39 42.7147 L697.39 65.8475 L566.58 65.8475 L566.58 42.7147 Z"/>
      </clipPath>
      <clipPath clipPathUnits="userSpaceOnUse" id="clipPath4">
        <path d="M-66 200.2049 C-66 209.2388 -88.1734 216.5623 -115.5258 216.5623 C-142.8781 216.5623 -165.0515 209.2388 -165.0515 200.2049 C-165.0515 191.171 -142.8781 183.8475 -115.5258 183.8475 C-88.1734 183.8475 -66 191.171 -66 200.2049 Z"/>
      </clipPath>
      <clipPath clipPathUnits="userSpaceOnUse" id="clipPath5">
        <path d="M-66 103.4902 C-66 112.5241 -87.1952 119.8475 -113.3408 119.8475 C-139.4864 119.8475 -160.6816 112.5241 -160.6816 103.4902 C-160.6816 94.4563 -139.4864 87.1328 -113.3408 87.1328 C-87.1952 87.1328 -66 94.4563 -66 103.4902 Z"/>
      </clipPath>
      <clipPath clipPathUnits="userSpaceOnUse" id="clipPath6">
        <path d="M-130.04 0 L-76.48 0 L-76.48 23.1328 L-130.04 23.1328 L-130.04 0 Z"/>
      </clipPath>
      <clipPath clipPathUnits="userSpaceOnUse" id="clipPath7">
        <path d="M649.6585 -100.3574 C649.6585 -91.3234 612.4854 -84 566.63 -84 C520.7747 -84 483.6015 -91.3234 483.6015 -100.3574 C483.6015 -109.3913 520.7747 -116.7147 566.63 -116.7147 C612.4854 -116.7147 649.6585 -109.3913 649.6585 -100.3574 Z"/>
      </clipPath>
      <clipPath clipPathUnits="userSpaceOnUse" id="clipPath8">
        <path d="M158.62 -107.1328 L341.96 -107.1328 L341.96 -84 L158.62 -84 L158.62 -107.1328 Z"/>
      </clipPath>
      <clipPath clipPathUnits="userSpaceOnUse" id="clipPath9">
        <path d="M0 0 L500.58 0 L500.58 551.5938 L0 551.5938 L0 0 Z"/>
      </clipPath>
      <script type="text/ecmascript"><![CDATA[
function umlload(newLocation)
{
if (newLocation.charAt(0) != '#') {
if (newLocation.indexOf("://") > -1) {
window.parent.location.href = newLocation;
} else {
var tmp = window.parent.location.href;
tmp = tmp.substring(0, tmp.lastIndexOf("/") + 1);
window.parent.location.href = tmp.concat(newLocation);
}
} else {
window.parent.location.hash = newLocation;
}
}
]]></script>
    </defs>
    <g fill="rgb(238,238,255)" transform="matrix(0.5795,0,0,0.5795,100.8256,168.0426)" stroke="rgb(238,238,255)">
      <rect width="298.9302" x="558.58" height="17.9688" y="-26" stroke="none"/>
    </g>
    <g fill="rgb(166,166,178)" stroke-miterlimit="1.45" transform="matrix(0.5795,0,0,0.5795,100.8256,168.0426)" stroke-linecap="butt" stroke="rgb(166,166,178)">
      <rect fill="none" width="298.9302" x="558.58" height="17.9688" y="-26"/>
    </g>
    <g fill="rgb(238,238,255)" transform="matrix(0.5795,0,0,0.5795,100.8256,168.0426)" stroke="rgb(238,238,255)">
      <rect width="299.4038" x="558.58" height="81.8788" y="-8.0312" stroke="none"/>
    </g>
    <g fill="rgb(166,166,178)" stroke-miterlimit="1.45" transform="matrix(0.5795,0,0,0.5795,100.8256,168.0426)" stroke-linecap="butt" stroke="rgb(166,166,178)">
      <rect fill="none" width="299.4038" x="558.58" height="81.8788" y="-8.0312"/>
    </g>
    <g font-family="sans-serif" transform="matrix(0.5795,0,0,0.5795,100.8256,168.0426)">
      <text xml:space="preserve" x="564.58" y="-12.8613" onclick="umlload('../../../../../com/msopentech/odatajclient/engine/data/package-summary.html')" stroke="none">com.msopentech.odatajclient.engine.data</text>
    </g>
    <g fill="rgb(221,221,255)" transform="matrix(0.5795,0,0,0.5795,100.8256,168.0426)" stroke="rgb(221,221,255)">
      <rect x="566.58" y="0" clip-path="url(#clipPath2)" width="154.4038" height="32.7147" stroke="none"/>
    </g>
    <g fill="rgb(154,154,178)" stroke-miterlimit="1.45" transform="matrix(0.5795,0,0,0.5795,100.8256,168.0426)" stroke-linecap="butt" stroke="rgb(154,154,178)">
      <ellipse rx="77.2019" fill="none" ry="16.3574" cx="643.7819" cy="16.3574"/>
    </g>
    <g font-style="italic" font-size="13" font-weight="bold" font-family="sans-serif" transform="matrix(0.5795,0,0,0.5795,100.8256,168.0426)">
      <text xml:space="preserve" x="594.7819" y="20.8579" onclick="umlload('../../../../../com/msopentech/odatajclient/engine/data/LinkResource.html')" stroke="none">LinkResource</text>
    </g>
    <g fill="rgb(187,187,255)" transform="matrix(0.5795,0,0,0.5795,100.8256,168.0426)" stroke="rgb(187,187,255)">
      <rect x="566.58" y="42.7147" clip-path="url(#clipPath3)" width="130.81" height="23.1328" stroke="none"/>
    </g>
    <g fill="rgb(130,130,178)" stroke-miterlimit="1.45" transform="matrix(0.5795,0,0,0.5795,100.8256,168.0426)" stroke-linecap="butt" stroke="rgb(130,130,178)">
      <rect fill="none" width="130.81" x="566.58" height="23.1328" y="42.7147"/>
    </g>
    <g font-size="13" font-weight="bold" font-family="sans-serif" transform="matrix(0.5795,0,0,0.5795,100.8256,168.0426)">
      <text xml:space="preserve" x="572.485" y="58.7816" onclick="umlload('../../../../../com/msopentech/odatajclient/engine/data/ODataOperation.html')" stroke="none">ODataOperation</text>
    </g>
    <g fill="rgb(238,238,255)" transform="matrix(0.5795,0,0,0.5795,100.8256,168.0426)" stroke="rgb(238,238,255)">
      <rect width="101.6028" x="-173.0515" height="17.9688" y="157.8475" stroke="none"/>
    </g>
    <g fill="rgb(166,166,178)" stroke-miterlimit="1.45" transform="matrix(0.5795,0,0,0.5795,100.8256,168.0426)" stroke-linecap="butt" stroke="rgb(166,166,178)">
      <rect fill="none" width="101.6028" x="-173.0515" height="17.9688" y="157.8475"/>
    </g>
    <g fill="rgb(238,238,255)" transform="matrix(0.5795,0,0,0.5795,100.8256,168.0426)" stroke="rgb(238,238,255)">
      <rect width="115.0515" x="-173.0515" height="48.746" y="175.8163" stroke="none"/>
    </g>
    <g fill="rgb(166,166,178)" stroke-miterlimit="1.45" transform="matrix(0.5795,0,0,0.5795,100.8256,168.0426)" stroke-linecap="butt" stroke="rgb(166,166,178)">
      <rect fill="none" width="115.0515" x="-173.0515" height="48.746" y="175.8163"/>
    </g>
    <g font-family="sans-serif" transform="matrix(0.5795,0,0,0.5795,100.8256,168.0426)">
      <text xml:space="preserve" x="-167.0515" y="170.9862" onclick="umlload('http://docs.oracle.com/javase/6/docs/api/org/w3c/dom/package-summary.html')" stroke="none">org.w3c.dom</text>
    </g>
    <g fill="rgb(221,221,255)" transform="matrix(0.5795,0,0,0.5795,100.8256,168.0426)" stroke="rgb(221,221,255)">
      <rect x="-165.0515" y="183.8475" clip-path="url(#clipPath4)" width="99.0515" height="32.7147" stroke="none"/>
    </g>
    <g fill="rgb(154,154,178)" stroke-miterlimit="1.45" transform="matrix(0.5795,0,0,0.5795,100.8256,168.0426)" stroke-linecap="butt" stroke="rgb(154,154,178)">
      <ellipse rx="49.5258" fill="none" ry="16.3574" cx="-115.5258" cy="200.2049"/>
    </g>
    <g font-style="italic" font-size="13" font-weight="bold" font-family="sans-serif" transform="matrix(0.5795,0,0,0.5795,100.8256,168.0426)">
      <text xml:space="preserve" x="-145.5258" y="204.7054" onclick="umlload('http://docs.oracle.com/javase/6/docs/api/org/w3c/dom/Element.html')" stroke="none">Element</text>
    </g>
    <g fill="rgb(238,238,255)" transform="matrix(0.5795,0,0,0.5795,100.8256,168.0426)" stroke="rgb(238,238,255)">
      <rect width="67.654" x="-168.6816" height="17.9688" y="61.1328" stroke="none"/>
    </g>
    <g fill="rgb(166,166,178)" stroke-miterlimit="1.45" transform="matrix(0.5795,0,0,0.5795,100.8256,168.0426)" stroke-linecap="butt" stroke="rgb(166,166,178)">
      <rect fill="none" width="67.654" x="-168.6816" height="17.9688" y="61.1328"/>
    </g>
    <g fill="rgb(238,238,255)" transform="matrix(0.5795,0,0,0.5795,100.8256,168.0426)" stroke="rgb(238,238,255)">
      <rect width="110.6816" x="-168.6816" height="48.746" y="79.1016" stroke="none"/>
    </g>
    <g fill="rgb(166,166,178)" stroke-miterlimit="1.45" transform="matrix(0.5795,0,0,0.5795,100.8256,168.0426)" stroke-linecap="butt" stroke="rgb(166,166,178)">
      <rect fill="none" width="110.6816" x="-168.6816" height="48.746" y="79.1016"/>
    </g>
    <g font-family="sans-serif" transform="matrix(0.5795,0,0,0.5795,100.8256,168.0426)">
      <text xml:space="preserve" x="-162.6816" y="74.2715" onclick="umlload('http://docs.oracle.com/javase/6/docs/api/java/util/package-summary.html')" stroke="none">java.util</text>
    </g>
    <g fill="rgb(221,221,255)" transform="matrix(0.5795,0,0,0.5795,100.8256,168.0426)" stroke="rgb(221,221,255)">
      <rect x="-160.6816" y="87.1328" clip-path="url(#clipPath5)" width="94.6816" height="32.7147" stroke="none"/>
    </g>
    <g fill="rgb(154,154,178)" stroke-miterlimit="1.45" transform="matrix(0.5795,0,0,0.5795,100.8256,168.0426)" stroke-linecap="butt" stroke="rgb(154,154,178)">
      <ellipse rx="47.3408" fill="none" ry="16.3574" cx="-113.3408" cy="103.4902"/>
    </g>
    <g font-style="italic" font-size="13" font-weight="bold" font-family="sans-serif" transform="matrix(0.5795,0,0,0.5795,100.8256,168.0426)">
      <text xml:space="preserve" x="-141.8408" y="107.9907" onclick="umlload('http://docs.oracle.com/javase/6/docs/api/java/util/List.html')" stroke="none">List&lt;E&gt;</text>
    </g>
    <g fill="rgb(238,238,255)" transform="matrix(0.5795,0,0,0.5795,100.8256,168.0426)" stroke="rgb(238,238,255)">
      <rect width="76.1412" x="-138.04" height="17.9688" y="-26" stroke="none"/>
    </g>
    <g fill="rgb(166,166,178)" stroke-miterlimit="1.45" transform="matrix(0.5795,0,0,0.5795,100.8256,168.0426)" stroke-linecap="butt" stroke="rgb(166,166,178)">
      <rect fill="none" width="76.1412" x="-138.04" height="17.9688" y="-26"/>
    </g>
    <g fill="rgb(238,238,255)" transform="matrix(0.5795,0,0,0.5795,100.8256,168.0426)" stroke="rgb(238,238,255)">
      <rect width="79.56" x="-138.04" height="39.1641" y="-8.0312" stroke="none"/>
    </g>
    <g fill="rgb(166,166,178)" stroke-miterlimit="1.45" transform="matrix(0.5795,0,0,0.5795,100.8256,168.0426)" stroke-linecap="butt" stroke="rgb(166,166,178)">
      <rect fill="none" width="79.56" x="-138.04" height="39.1641" y="-8.0312"/>
    </g>
    <g font-family="sans-serif" transform="matrix(0.5795,0,0,0.5795,100.8256,168.0426)">
      <text xml:space="preserve" x="-132.04" y="-12.8613" onclick="umlload('http://docs.oracle.com/javase/6/docs/api/java/lang/package-summary.html')" stroke="none">java.lang</text>
    </g>
    <g fill="rgb(187,187,255)" transform="matrix(0.5795,0,0,0.5795,100.8256,168.0426)" stroke="rgb(187,187,255)">
      <rect x="-130.04" y="0" clip-path="url(#clipPath6)" width="53.56" height="23.1328" stroke="none"/>
    </g>
    <g fill="rgb(130,130,178)" stroke-miterlimit="1.45" transform="matrix(0.5795,0,0,0.5795,100.8256,168.0426)" stroke-linecap="butt" stroke="rgb(130,130,178)">
      <rect fill="none" width="53.56" x="-130.04" height="23.1328" y="0"/>
    </g>
    <g font-size="13" font-weight="bold" font-family="sans-serif" transform="matrix(0.5795,0,0,0.5795,100.8256,168.0426)">
      <text xml:space="preserve" x="-125.26" y="16.0669" onclick="umlload('http://docs.oracle.com/javase/6/docs/api/java/lang/String.html')" stroke="none">String</text>
    </g>
    <g fill="rgb(238,238,255)" transform="matrix(0.5795,0,0,0.5795,100.8256,168.0426)" stroke="rgb(238,238,255)">
      <rect width="298.9302" x="423.6015" height="17.9688" y="-142.7147" stroke="none"/>
    </g>
    <g fill="rgb(166,166,178)" stroke-miterlimit="1.45" transform="matrix(0.5795,0,0,0.5795,100.8256,168.0426)" stroke-linecap="butt" stroke="rgb(166,166,178)">
      <rect fill="none" width="298.9302" x="423.6015" height="17.9688" y="-142.7147"/>
    </g>
    <g fill="rgb(238,238,255)" transform="matrix(0.5795,0,0,0.5795,100.8256,168.0426)" stroke="rgb(238,238,255)">
      <rect width="299.057" x="423.6015" height="48.746" y="-124.746" stroke="none"/>
    </g>
    <g fill="rgb(166,166,178)" stroke-miterlimit="1.45" transform="matrix(0.5795,0,0,0.5795,100.8256,168.0426)" stroke-linecap="butt" stroke="rgb(166,166,178)">
      <rect fill="none" width="299.057" x="423.6015" height="48.746" y="-124.746"/>
    </g>
    <g font-family="sans-serif" transform="matrix(0.5795,0,0,0.5795,100.8256,168.0426)">
      <text xml:space="preserve" x="429.6015" y="-129.5761" onclick="umlload('../../../../../com/msopentech/odatajclient/engine/data/package-summary.html')" stroke="none">com.msopentech.odatajclient.engine.data</text>
    </g>
    <g fill="rgb(221,221,255)" transform="matrix(0.5795,0,0,0.5795,100.8256,168.0426)" stroke="rgb(221,221,255)">
      <rect x="483.6015" y="-116.7147" clip-path="url(#clipPath7)" width="166.057" height="32.7147" stroke="none"/>
    </g>
    <g fill="rgb(154,154,178)" stroke-miterlimit="1.45" transform="matrix(0.5795,0,0,0.5795,100.8256,168.0426)" stroke-linecap="butt" stroke="rgb(154,154,178)">
      <ellipse rx="83.0285" fill="none" ry="16.3574" cx="566.63" cy="-100.3574"/>
    </g>
    <g font-style="italic" font-size="13" font-weight="bold" font-family="sans-serif" transform="matrix(0.5795,0,0,0.5795,100.8256,168.0426)">
      <text xml:space="preserve" x="513.63" y="-95.8569" onclick="umlload('../../../../../com/msopentech/odatajclient/engine/data/EntryResource.html')" stroke="none">EntryResource</text>
    </g>
    <g fill="rgb(238,238,255)" transform="matrix(0.5795,0,0,0.5795,100.8256,168.0426)" stroke="rgb(238,238,255)">
      <rect width="298.9302" x="106.62" height="17.9688" y="-133.1328" stroke="none"/>
    </g>
    <g fill="rgb(166,166,178)" stroke-miterlimit="1.45" transform="matrix(0.5795,0,0,0.5795,100.8256,168.0426)" stroke-linecap="butt" stroke="rgb(166,166,178)">
      <rect fill="none" width="298.9302" x="106.62" height="17.9688" y="-133.1328"/>
    </g>
    <g fill="rgb(238,238,255)" transform="matrix(0.5795,0,0,0.5795,100.8256,168.0426)" stroke="rgb(238,238,255)">
      <rect width="299.34" x="106.62" height="39.1641" y="-115.1641" stroke="none"/>
    </g>
    <g fill="rgb(166,166,178)" stroke-miterlimit="1.45" transform="matrix(0.5795,0,0,0.5795,100.8256,168.0426)" stroke-linecap="butt" stroke="rgb(166,166,178)">
      <rect fill="none" width="299.34" x="106.62" height="39.1641" y="-115.1641"/>
    </g>
    <g font-family="sans-serif" transform="matrix(0.5795,0,0,0.5795,100.8256,168.0426)">
      <text xml:space="preserve" x="112.62" y="-119.9941" onclick="umlload('../../../../../com/msopentech/odatajclient/engine/data/package-summary.html')" stroke="none">com.msopentech.odatajclient.engine.data</text>
    </g>
    <g fill="rgb(204,204,255)" transform="matrix(0.5795,0,0,0.5795,100.8256,168.0426)" stroke="rgb(204,204,255)">
      <rect x="158.62" y="-107.1328" clip-path="url(#clipPath8)" width="183.34" height="23.1328" stroke="none"/>
    </g>
    <g fill="rgb(142,142,178)" stroke-miterlimit="1.45" transform="matrix(0.5795,0,0,0.5795,100.8256,168.0426)" stroke-linecap="butt" stroke="rgb(142,142,178)">
      <rect fill="none" width="183.34" x="158.62" height="23.1328" y="-107.1328"/>
    </g>
    <g font-size="13" font-weight="bold" font-family="sans-serif" transform="matrix(0.5795,0,0,0.5795,100.8256,168.0426)">
      <text xml:space="preserve" x="165.29" y="-91.0659" onclick="umlload('../../../../../com/msopentech/odatajclient/engine/data/AbstractPayloadObject.html')" stroke="none">AbstractPayloadObject</text>
    </g>
    <g fill="rgb(238,238,255)" transform="matrix(0.5795,0,0,0.5795,100.8256,168.0426)" stroke="rgb(238,238,255)">
      <rect width="298.9302" x="-8" height="17.9688" y="-26" stroke="none"/>
    </g>
    <g fill="rgb(166,166,178)" stroke-miterlimit="1.45" transform="matrix(0.5795,0,0,0.5795,100.8256,168.0426)" stroke-linecap="butt" stroke="rgb(166,166,178)">
      <rect fill="none" width="298.9302" x="-8" height="17.9688" y="-26"/>
    </g>
    <g fill="rgb(238,238,255)" transform="matrix(0.5795,0,0,0.5795,100.8256,168.0426)" stroke="rgb(238,238,255)">
      <rect width="516.58" x="-8" height="567.625" y="-8.0312" stroke="none"/>
    </g>
    <g fill="rgb(166,166,178)" stroke-miterlimit="1.45" transform="matrix(0.5795,0,0,0.5795,100.8256,168.0426)" stroke-linecap="butt" stroke="rgb(166,166,178)">
      <rect fill="none" width="516.58" x="-8" height="567.625" y="-8.0312"/>
    </g>
    <g font-family="sans-serif" transform="matrix(0.5795,0,0,0.5795,100.8256,168.0426)">
      <text xml:space="preserve" x="-2" y="-12.8613" onclick="umlload('package-summary.html')" stroke="none">com.msopentech.odatajclient.engine.data</text>
    </g>
    <g fill="rgb(204,204,255)" transform="matrix(0.5795,0,0,0.5795,100.8256,168.0426)" stroke="rgb(204,204,255)">
      <rect x="0" y="0" clip-path="url(#clipPath9)" width="500.58" height="38.5938" stroke="none"/>
      <line clip-path="url(#clipPath9)" fill="none" x1="0" x2="500.58" y1="38.5938" y2="38.5938" stroke="black"/>
      <line clip-path="url(#clipPath9)" x1="0" x2="500.58" y1="39.5938" y2="39.5938" stroke="none"/>
      <line clip-path="url(#clipPath9)" fill="none" x1="0" x2="500.58" y1="39.5938" y2="39.5938" stroke="black"/>
      <rect x="0" y="40.5938" clip-path="url(#clipPath9)" width="500.58" height="511" stroke="none"/>
    </g>
    <g fill="rgb(142,142,178)" stroke-miterlimit="1.45" transform="matrix(0.5795,0,0,0.5795,100.8256,168.0426)" stroke-linecap="butt" stroke="rgb(142,142,178)">
      <rect fill="none" width="500.58" x="0" height="551.5938" y="0"/>
    </g>
    <g font-size="16" font-weight="bold" font-family="sans-serif" transform="matrix(0.5795,0,0,0.5795,100.8256,168.0426)">
      <text xml:space="preserve" x="11.29" y="16.8516" onclick="umlload('#')" stroke="none">AbstractEntryResource&lt;LINK extends LinkResource&gt;</text>
    </g>
    <g font-family="sans-serif" transform="matrix(0.5795,0,0,0.5795,100.8256,168.0426)">
      <text xml:space="preserve" x="427.58" y="33.7637" stroke="none">{abstract}</text>
    </g>
    <g font-family="sans-serif" transform="matrix(0.5795,0,0,0.5795,100.8256,168.0426)">
      <text xml:space="preserve" x="4" y="51.1719" stroke="none">+</text>
      <text xml:space="preserve" x="19" y="52.7324" stroke="none">AbstractEntryResource()</text>
    </g>
    <g font-family="sans-serif" transform="matrix(0.5795,0,0,0.5795,100.8256,168.0426)">
      <text xml:space="preserve" x="4" y="67.1719" stroke="none">+</text>
      <text xml:space="preserve" x="19" y="68.7012" onclick="umlload('#addAssociationLink(com.msopentech.odatajclient.engine.data.LinkResource)')" stroke="none">addAssociationLink(LinkResource) : boolean</text>
    </g>
    <g font-family="sans-serif" transform="matrix(0.5795,0,0,0.5795,100.8256,168.0426)">
      <text xml:space="preserve" x="4" y="83.1719" stroke="none">+</text>
      <text xml:space="preserve" x="19" y="84.6699" onclick="umlload('#addMediaEditLink(com.msopentech.odatajclient.engine.data.LinkResource)')" stroke="none">addMediaEditLink(LinkResource) : boolean</text>
    </g>
    <g font-family="sans-serif" transform="matrix(0.5795,0,0,0.5795,100.8256,168.0426)">
      <text xml:space="preserve" x="4" y="99.1719" stroke="none">+</text>
      <text xml:space="preserve" x="19" y="100.6387" onclick="umlload('#addNavigationLink(com.msopentech.odatajclient.engine.data.LinkResource)')" stroke="none">addNavigationLink(LinkResource) : boolean</text>
    </g>
    <g font-family="sans-serif" transform="matrix(0.5795,0,0,0.5795,100.8256,168.0426)">
      <text xml:space="preserve" x="4" y="115.1719" stroke="none">+</text>
      <text xml:space="preserve" x="19" y="116.6074" onclick="umlload('#addOperation(com.msopentech.odatajclient.engine.data.ODataOperation)')" stroke="none">addOperation(ODataOperation) : boolean</text>
    </g>
    <g font-family="sans-serif" transform="matrix(0.5795,0,0,0.5795,100.8256,168.0426)">
      <text xml:space="preserve" x="4" y="131.1719" stroke="none">+</text>
      <text xml:space="preserve" x="19" y="132.5762" onclick="umlload('#getAssociationLinks()')" stroke="none">getAssociationLinks() : List&lt;LINK extends LinkResource&gt;</text>
    </g>
    <g font-family="sans-serif" transform="matrix(0.5795,0,0,0.5795,100.8256,168.0426)">
      <text xml:space="preserve" x="4" y="147.1719" stroke="none">+</text>
      <text xml:space="preserve" x="19" y="148.5449" onclick="umlload('#getContent()')" stroke="none">getContent() : Element</text>
    </g>
    <g font-family="sans-serif" transform="matrix(0.5795,0,0,0.5795,100.8256,168.0426)">
      <text xml:space="preserve" x="4" y="163.1719" stroke="none">+</text>
      <text xml:space="preserve" x="19" y="164.5137" onclick="umlload('#getEditLink()')" stroke="none">getEditLink() : LinkResource</text>
    </g>
    <g font-family="sans-serif" transform="matrix(0.5795,0,0,0.5795,100.8256,168.0426)">
      <text xml:space="preserve" x="4" y="179.1719" stroke="none">+</text>
      <text xml:space="preserve" x="19" y="180.4824" onclick="umlload('#getETag()')" stroke="none">getETag() : String</text>
    </g>
    <g font-family="sans-serif" transform="matrix(0.5795,0,0,0.5795,100.8256,168.0426)">
      <text xml:space="preserve" x="4" y="195.1719" stroke="none">+</text>
      <text xml:space="preserve" x="19" y="196.4512" onclick="umlload('#getId()')" stroke="none">getId() : String</text>
    </g>
    <g font-family="sans-serif" transform="matrix(0.5795,0,0,0.5795,100.8256,168.0426)">
      <text xml:space="preserve" x="4" y="211.1719" stroke="none">+</text>
      <text xml:space="preserve" x="19" y="212.4199" onclick="umlload('#getMediaContentSource()')" stroke="none">getMediaContentSource() : String</text>
    </g>
    <g font-family="sans-serif" transform="matrix(0.5795,0,0,0.5795,100.8256,168.0426)">
      <text xml:space="preserve" x="4" y="227.1719" stroke="none">+</text>
      <text xml:space="preserve" x="19" y="228.3887" onclick="umlload('#getMediaContentType()')" stroke="none">getMediaContentType() : String</text>
    </g>
    <g font-family="sans-serif" transform="matrix(0.5795,0,0,0.5795,100.8256,168.0426)">
      <text xml:space="preserve" x="4" y="243.1719" stroke="none">+</text>
      <text xml:space="preserve" x="19" y="244.3574" onclick="umlload('#getMediaEditLinks()')" stroke="none">getMediaEditLinks() : List&lt;LINK extends LinkResource&gt;</text>
    </g>
    <g font-family="sans-serif" transform="matrix(0.5795,0,0,0.5795,100.8256,168.0426)">
      <text xml:space="preserve" x="4" y="259.1719" stroke="none">+</text>
      <text xml:space="preserve" x="19" y="260.3262" onclick="umlload('#getMediaEntryProperties()')" stroke="none">getMediaEntryProperties() : Element</text>
    </g>
    <g font-family="sans-serif" transform="matrix(0.5795,0,0,0.5795,100.8256,168.0426)">
      <text xml:space="preserve" x="4" y="275.1719" stroke="none">+</text>
      <text xml:space="preserve" x="19" y="276.2949" onclick="umlload('#getNavigationLinks()')" stroke="none">getNavigationLinks() : List&lt;LINK extends LinkResource&gt;</text>
    </g>
    <g font-family="sans-serif" transform="matrix(0.5795,0,0,0.5795,100.8256,168.0426)">
      <text xml:space="preserve" x="4" y="291.1719" stroke="none">+</text>
      <text xml:space="preserve" x="19" y="292.2637" onclick="umlload('#getOperations()')" stroke="none">getOperations() : List&lt;ODataOperation&gt;</text>
    </g>
    <g font-family="sans-serif" transform="matrix(0.5795,0,0,0.5795,100.8256,168.0426)">
      <text xml:space="preserve" x="4" y="307.1719" stroke="none">+</text>
      <text xml:space="preserve" x="19" y="308.2324" onclick="umlload('#getSelfLink()')" stroke="none">getSelfLink() : LinkResource</text>
    </g>
    <g font-family="sans-serif" transform="matrix(0.5795,0,0,0.5795,100.8256,168.0426)">
      <text xml:space="preserve" x="4" y="323.1719" stroke="none">+</text>
      <text xml:space="preserve" x="19" y="324.2012" onclick="umlload('#getType()')" stroke="none">getType() : String</text>
    </g>
    <g font-family="sans-serif" transform="matrix(0.5795,0,0,0.5795,100.8256,168.0426)">
      <text xml:space="preserve" x="4" y="339.1719" stroke="none">+</text>
      <text xml:space="preserve" x="19" y="340.1699" onclick="umlload('#isMediaEntry()')" stroke="none">isMediaEntry() : boolean</text>
    </g>
    <g font-family="sans-serif" transform="matrix(0.5795,0,0,0.5795,100.8256,168.0426)">
      <text xml:space="preserve" x="4" y="354.1719" stroke="none">+</text>
      <text xml:space="preserve" x="19" y="356.1387" onclick="umlload('#setAssociationLinks(java.util.List)')" stroke="none">setAssociationLinks(List&lt;LinkResource&gt;) : void</text>
    </g>
    <g font-family="sans-serif" transform="matrix(0.5795,0,0,0.5795,100.8256,168.0426)">
      <text xml:space="preserve" x="4" y="370.1719" stroke="none">+</text>
      <text xml:space="preserve" x="19" y="372.1074" onclick="umlload('#setContent(org.w3c.dom.Element)')" stroke="none">setContent(Element) : void</text>
    </g>
    <g font-family="sans-serif" transform="matrix(0.5795,0,0,0.5795,100.8256,168.0426)">
      <text xml:space="preserve" x="4" y="386.1719" stroke="none">+</text>
      <text xml:space="preserve" x="19" y="388.0762" onclick="umlload('#setEditLink(com.msopentech.odatajclient.engine.data.LinkResource)')" stroke="none">setEditLink(LinkResource) : void</text>
    </g>
    <g font-family="sans-serif" transform="matrix(0.5795,0,0,0.5795,100.8256,168.0426)">
      <text xml:space="preserve" x="4" y="402.1719" stroke="none">+</text>
      <text xml:space="preserve" x="19" y="404.0449" onclick="umlload('#setETag(java.lang.String)')" stroke="none">setETag(String) : void</text>
    </g>
    <g font-family="sans-serif" transform="matrix(0.5795,0,0,0.5795,100.8256,168.0426)">
      <text xml:space="preserve" x="4" y="418.1719" stroke="none">+</text>
      <text xml:space="preserve" x="19" y="420.0137" onclick="umlload('#setId(java.lang.String)')" stroke="none">setId(String) : void</text>
    </g>
    <g font-family="sans-serif" transform="matrix(0.5795,0,0,0.5795,100.8256,168.0426)">
      <text xml:space="preserve" x="4" y="434.1719" stroke="none">+</text>
      <text xml:space="preserve" x="19" y="435.9824" onclick="umlload('#setMediaContentSource(java.lang.String)')" stroke="none">setMediaContentSource(String) : void</text>
    </g>
    <g font-family="sans-serif" transform="matrix(0.5795,0,0,0.5795,100.8256,168.0426)">
      <text xml:space="preserve" x="4" y="450.1719" stroke="none">+</text>
      <text xml:space="preserve" x="19" y="451.9512" onclick="umlload('#setMediaContentType(java.lang.String)')" stroke="none">setMediaContentType(String) : void</text>
    </g>
    <g font-family="sans-serif" transform="matrix(0.5795,0,0,0.5795,100.8256,168.0426)">
      <text xml:space="preserve" x="4" y="466.1719" stroke="none">+</text>
      <text xml:space="preserve" x="19" y="467.9199" onclick="umlload('#setMediaEditLinks(java.util.List)')" stroke="none">setMediaEditLinks(List&lt;LinkResource&gt;) : void</text>
    </g>
    <g font-family="sans-serif" transform="matrix(0.5795,0,0,0.5795,100.8256,168.0426)">
      <text xml:space="preserve" x="4" y="482.1719" stroke="none">+</text>
      <text xml:space="preserve" x="19" y="483.8887" onclick="umlload('#setMediaEntryProperties(org.w3c.dom.Element)')" stroke="none">setMediaEntryProperties(Element) : void</text>
    </g>
    <g font-family="sans-serif" transform="matrix(0.5795,0,0,0.5795,100.8256,168.0426)">
      <text xml:space="preserve" x="4" y="498.1719" stroke="none">+</text>
      <text xml:space="preserve" x="19" y="499.8574" onclick="umlload('#setNavigationLinks(java.util.List)')" stroke="none">setNavigationLinks(List&lt;LinkResource&gt;) : void</text>
    </g>
    <g font-family="sans-serif" transform="matrix(0.5795,0,0,0.5795,100.8256,168.0426)">
      <text xml:space="preserve" x="4" y="514.1719" stroke="none">+</text>
      <text xml:space="preserve" x="19" y="515.8262" onclick="umlload('#setOperations(java.util.List)')" stroke="none">setOperations(List&lt;ODataOperation&gt;) : void</text>
    </g>
    <g font-family="sans-serif" transform="matrix(0.5795,0,0,0.5795,100.8256,168.0426)">
      <text xml:space="preserve" x="4" y="530.1719" stroke="none">+</text>
      <text xml:space="preserve" x="19" y="531.7949" onclick="umlload('#setSelfLink(com.msopentech.odatajclient.engine.data.LinkResource)')" stroke="none">setSelfLink(LinkResource) : void</text>
    </g>
    <g font-family="sans-serif" transform="matrix(0.5795,0,0,0.5795,100.8256,168.0426)">
      <text xml:space="preserve" x="4" y="546.1719" stroke="none">+</text>
      <text xml:space="preserve" x="19" y="547.7637" onclick="umlload('#setType(java.lang.String)')" stroke="none">setType(String) : void</text>
    </g>
    <g font-family="sans-serif" transform="matrix(0.5795,0,0,0.5795,100.8256,168.0426)">
      <text xml:space="preserve" x="-168" y="584.1543" onclick="umlload('http://www.yworks.com/')" stroke="none">yWorks UML Doclet</text>
    </g>
    <g stroke-miterlimit="1.45" transform="matrix(0.5795,0,0,0.5795,100.8256,168.0426)" stroke-linecap="butt">
      <path fill="none" d="M250.29 0 L250.29 -69"/>
      <path fill="white" d="M250.29 -84 L244.29 -68 L256.29 -68 Z" stroke="none"/>
      <path fill="none" d="M250.29 -84 L244.29 -68 L256.29 -68 Z"/>
      <path fill="none" stroke-dasharray="6,2" d="M375.435 0.0221 L375.435 -51 L566.63 -51 L566.63 -69"/>
      <path fill="white" stroke-dasharray="6,2" d="M566.63 -84 L560.63 -68 L572.63 -68 Z" stroke="none"/>
      <path fill="none" d="M566.63 -84 L560.63 -68 L572.63 -68 Z"/>
      <path fill="none" d="M0.017 11.5664 L-76.48 11.5664"/>
      <line stroke-linecap="square" transform="matrix(-1,0,0,-1,-76.48,11.5664)" fill="none" x1="0" x2="-14" y1="0" y2="-4" stroke-miterlimit="10"/>
      <line stroke-linecap="square" transform="matrix(-1,0,0,-1,-76.48,11.5664)" fill="none" x1="0" x2="-14" y1="0" y2="4" stroke-miterlimit="10"/>
    </g>
    <g stroke-miterlimit="1.45" transform="matrix(0.5795,0,0,0.5795,100.8256,168.0426)" stroke-linecap="butt">
      <path fill="none" d="M-0.0169 103.4902 L-66 103.4902"/>
      <line stroke-linecap="square" transform="matrix(-1,0,0,-1,-66,103.4902)" fill="none" x1="0" x2="-14" y1="0" y2="-4" stroke-miterlimit="10"/>
      <line stroke-linecap="square" transform="matrix(-1,0,0,-1,-66,103.4902)" fill="none" x1="0" x2="-14" y1="0" y2="4" stroke-miterlimit="10"/>
    </g>
    <g stroke-miterlimit="1.45" transform="matrix(0.5795,0,0,0.5795,100.8256,168.0426)" stroke-linecap="butt">
      <path fill="none" d="M-0.0026 200.2049 L-66 200.2049"/>
      <line stroke-linecap="square" transform="matrix(-1,0,0,-1,-66,200.2049)" fill="none" x1="0" x2="-14" y1="0" y2="-4" stroke-miterlimit="10"/>
      <line stroke-linecap="square" transform="matrix(-1,0,0,-1,-66,200.2049)" fill="none" x1="0" x2="-14" y1="0" y2="4" stroke-miterlimit="10"/>
    </g>
    <g stroke-dasharray="6,2" stroke-miterlimit="1.45" transform="matrix(0.5795,0,0,0.5795,100.8256,168.0426)" stroke-linecap="butt">
      <path fill="none" d="M500.5935 16.3574 L566.58 16.3574"/>
      <line stroke-linecap="square" transform="matrix(1,0,0,1,566.58,16.3574)" fill="none" x1="0" x2="-14" y1="0" y2="-4" stroke-dasharray="none" stroke-miterlimit="10"/>
      <line stroke-linecap="square" transform="matrix(1,0,0,1,566.58,16.3574)" fill="none" x1="0" x2="-14" y1="0" y2="4" stroke-dasharray="none" stroke-miterlimit="10"/>
    </g>
    <g stroke-dasharray="6,2" stroke-miterlimit="1.45" transform="matrix(0.5795,0,0,0.5795,100.8256,168.0426)" stroke-linecap="butt">
      <path fill="none" d="M500.5444 54.2811 L566.58 54.2811"/>
      <line stroke-linecap="square" transform="matrix(1,0,0,1,566.58,54.2811)" fill="none" x1="0" x2="-14" y1="0" y2="-4" stroke-dasharray="none" stroke-miterlimit="10"/>
      <line stroke-linecap="square" transform="matrix(1,0,0,1,566.58,54.2811)" fill="none" x1="0" x2="-14" y1="0" y2="4" stroke-dasharray="none" stroke-miterlimit="10"/>
    </g>
  </g>
</svg>
