<?xml version="1.0" encoding="UTF-8"?><svg xmlns="http://www.w3.org/2000/svg" xmlns:xlink="http://www.w3.org/1999/xlink" fill-opacity="1" color-rendering="auto" color-interpolation="auto" stroke="black" text-rendering="auto" stroke-linecap="square" width="598" stroke-miterlimit="10" stroke-opacity="1" shape-rendering="auto" fill="black" stroke-dasharray="none" font-weight="normal" stroke-width="1" height="598" font-family="'Dialog'" font-style="normal" stroke-linejoin="miter" font-size="12" stroke-dashoffset="0" image-rendering="auto">
  <!--Generated by ySVG-->
  <defs id="genericDefs"/>
  <g>
    <defs id="defs1">
      <clipPath clipPathUnits="userSpaceOnUse" id="clipPath1">
        <path d="M0 0 L598 0 L598 598 L0 598 L0 0 Z"/>
      </clipPath>
      <clipPath clipPathUnits="userSpaceOnUse" id="clipPath2">
        <path d="M683.1415 547.0328 C683.1415 556.0668 660.9681 563.3902 633.6158 563.3902 C606.2634 563.3902 584.09 556.0668 584.09 547.0328 C584.09 537.9989 606.2634 530.6755 633.6158 530.6755 C660.9681 530.6755 683.1415 537.9989 683.1415 547.0328 Z"/>
      </clipPath>
      <clipPath clipPathUnits="userSpaceOnUse" id="clipPath3">
        <path d="M584.09 443.5427 L663.4 443.5427 L663.4 466.6755 L584.09 466.6755 L584.09 443.5427 Z"/>
      </clipPath>
      <clipPath clipPathUnits="userSpaceOnUse" id="clipPath4">
        <path d="M584.09 356.4099 L686.06 356.4099 L686.06 379.5427 L584.09 379.5427 L584.09 356.4099 Z"/>
      </clipPath>
      <clipPath clipPathUnits="userSpaceOnUse" id="clipPath5">
        <path d="M584.09 269.277 L694.3 269.277 L694.3 292.4099 L584.09 292.4099 L584.09 269.277 Z"/>
      </clipPath>
      <clipPath clipPathUnits="userSpaceOnUse" id="clipPath6">
        <path d="M584.09 182.1442 L634.56 182.1442 L634.56 205.277 L584.09 205.277 L584.09 182.1442 Z"/>
      </clipPath>
      <clipPath clipPathUnits="userSpaceOnUse" id="clipPath7">
        <path d="M843.3719 16.3574 C843.3719 25.3913 785.3297 32.7147 713.731 32.7147 C642.1323 32.7147 584.09 25.3913 584.09 16.3574 C584.09 7.3234 642.1323 0 713.731 0 C785.3297 0 843.3719 7.3234 843.3719 16.3574 Z"/>
      </clipPath>
      <clipPath clipPathUnits="userSpaceOnUse" id="clipPath8">
        <path d="M715.1876 59.0721 C715.1876 68.106 685.8404 75.4295 649.6388 75.4295 C613.4372 75.4295 584.09 68.106 584.09 59.0721 C584.09 50.0382 613.4372 42.7147 649.6388 42.7147 C685.8404 42.7147 715.1876 50.0382 715.1876 59.0721 Z"/>
      </clipPath>
      <clipPath clipPathUnits="userSpaceOnUse" id="clipPath9">
        <path d="M881.2446 101.7868 C881.2446 110.8208 814.7242 118.1442 732.6673 118.1442 C650.6103 118.1442 584.09 110.8208 584.09 101.7868 C584.09 92.7529 650.6103 85.4295 732.6673 85.4295 C814.7242 85.4295 881.2446 92.7529 881.2446 101.7868 Z"/>
      </clipPath>
      <clipPath clipPathUnits="userSpaceOnUse" id="clipPath10">
        <path d="M-201.96 0 L-66 0 L-66 23.1328 L-201.96 23.1328 L-201.96 0 Z"/>
      </clipPath>
      <clipPath clipPathUnits="userSpaceOnUse" id="clipPath11">
        <path d="M230.205 -107.1328 L287.885 -107.1328 L287.885 -84 L230.205 -84 L230.205 -107.1328 Z"/>
      </clipPath>
      <clipPath clipPathUnits="userSpaceOnUse" id="clipPath12">
        <path d="M0 0 L518.09 0 L518.09 571.3902 L0 571.3902 L0 0 Z"/>
      </clipPath>
      <script type="text/ecmascript"><![CDATA[
function umlload(newLocation)
{
if (newLocation.charAt(0) != '#') {
if (newLocation.indexOf("://") > -1) {
window.parent.location.href = newLocation;
} else {
var tmp = window.parent.location.href;
tmp = tmp.substring(0, tmp.lastIndexOf("/") + 1);
window.parent.location.href = tmp.concat(newLocation);
}
} else {
window.parent.location.hash = newLocation;
}
}
]]></script>
    </defs>
    <g fill="rgb(238,238,255)" transform="matrix(0.5008,0,0,0.5008,105.1759,178.2982)" stroke="rgb(238,238,255)">
      <rect width="101.6028" x="576.09" height="17.9688" y="504.6755" stroke="none"/>
    </g>
    <g fill="rgb(166,166,178)" stroke-miterlimit="1.45" transform="matrix(0.5008,0,0,0.5008,105.1759,178.2982)" stroke-linecap="butt" stroke="rgb(166,166,178)">
      <rect fill="none" width="101.6028" x="576.09" height="17.9688" y="504.6755"/>
    </g>
    <g fill="rgb(238,238,255)" transform="matrix(0.5008,0,0,0.5008,105.1759,178.2982)" stroke="rgb(238,238,255)">
      <rect width="115.0515" x="576.09" height="48.746" y="522.6442" stroke="none"/>
    </g>
    <g fill="rgb(166,166,178)" stroke-miterlimit="1.45" transform="matrix(0.5008,0,0,0.5008,105.1759,178.2982)" stroke-linecap="butt" stroke="rgb(166,166,178)">
      <rect fill="none" width="115.0515" x="576.09" height="48.746" y="522.6442"/>
    </g>
    <g font-family="sans-serif" transform="matrix(0.5008,0,0,0.5008,105.1759,178.2982)">
      <text xml:space="preserve" x="582.09" y="517.8141" onclick="umlload('http://docs.oracle.com/javase/6/docs/api/org/w3c/dom/package-summary.html')" stroke="none">org.w3c.dom</text>
    </g>
    <g fill="rgb(221,221,255)" transform="matrix(0.5008,0,0,0.5008,105.1759,178.2982)" stroke="rgb(221,221,255)">
      <rect x="584.09" y="530.6755" clip-path="url(#clipPath2)" width="99.0515" height="32.7147" stroke="none"/>
    </g>
    <g fill="rgb(154,154,178)" stroke-miterlimit="1.45" transform="matrix(0.5008,0,0,0.5008,105.1759,178.2982)" stroke-linecap="butt" stroke="rgb(154,154,178)">
      <ellipse rx="49.5258" fill="none" ry="16.3574" cx="633.6158" cy="547.0328"/>
    </g>
    <g font-style="italic" font-size="13" font-weight="bold" font-family="sans-serif" transform="matrix(0.5008,0,0,0.5008,105.1759,178.2982)">
      <text xml:space="preserve" x="603.6158" y="551.5333" onclick="umlload('http://docs.oracle.com/javase/6/docs/api/org/w3c/dom/Element.html')" stroke="none">Element</text>
    </g>
    <g fill="rgb(238,238,255)" transform="matrix(0.5008,0,0,0.5008,105.1759,178.2982)" stroke="rgb(238,238,255)">
      <rect width="76.1412" x="576.09" height="17.9688" y="417.5426" stroke="none"/>
    </g>
    <g fill="rgb(166,166,178)" stroke-miterlimit="1.45" transform="matrix(0.5008,0,0,0.5008,105.1759,178.2982)" stroke-linecap="butt" stroke="rgb(166,166,178)">
      <rect fill="none" width="76.1412" x="576.09" height="17.9688" y="417.5426"/>
    </g>
    <g fill="rgb(238,238,255)" transform="matrix(0.5008,0,0,0.5008,105.1759,178.2982)" stroke="rgb(238,238,255)">
      <rect width="95.31" x="576.09" height="39.1641" y="435.5114" stroke="none"/>
    </g>
    <g fill="rgb(166,166,178)" stroke-miterlimit="1.45" transform="matrix(0.5008,0,0,0.5008,105.1759,178.2982)" stroke-linecap="butt" stroke="rgb(166,166,178)">
      <rect fill="none" width="95.31" x="576.09" height="39.1641" y="435.5114"/>
    </g>
    <g font-family="sans-serif" transform="matrix(0.5008,0,0,0.5008,105.1759,178.2982)">
      <text xml:space="preserve" x="582.09" y="430.6813" onclick="umlload('http://docs.oracle.com/javase/6/docs/api/java/lang/package-summary.html')" stroke="none">java.lang</text>
    </g>
    <g fill="rgb(187,187,255)" transform="matrix(0.5008,0,0,0.5008,105.1759,178.2982)" stroke="rgb(187,187,255)">
      <rect x="584.09" y="443.5426" clip-path="url(#clipPath3)" width="79.31" height="23.1328" stroke="none"/>
    </g>
    <g fill="rgb(130,130,178)" stroke-miterlimit="1.45" transform="matrix(0.5008,0,0,0.5008,105.1759,178.2982)" stroke-linecap="butt" stroke="rgb(130,130,178)">
      <rect fill="none" width="79.31" x="584.09" height="23.1328" y="443.5426"/>
    </g>
    <g font-size="13" font-weight="bold" font-family="sans-serif" transform="matrix(0.5008,0,0,0.5008,105.1759,178.2982)">
      <text xml:space="preserve" x="589.245" y="459.6096" onclick="umlload('http://docs.oracle.com/javase/6/docs/api/java/lang/Class.html')" stroke="none">Class&lt;T&gt;</text>
    </g>
    <g fill="rgb(238,238,255)" transform="matrix(0.5008,0,0,0.5008,105.1759,178.2982)" stroke="rgb(238,238,255)">
      <rect width="59.1668" x="576.09" height="17.9688" y="330.4098" stroke="none"/>
    </g>
    <g fill="rgb(166,166,178)" stroke-miterlimit="1.45" transform="matrix(0.5008,0,0,0.5008,105.1759,178.2982)" stroke-linecap="butt" stroke="rgb(166,166,178)">
      <rect fill="none" width="59.1668" x="576.09" height="17.9688" y="330.4098"/>
    </g>
    <g fill="rgb(238,238,255)" transform="matrix(0.5008,0,0,0.5008,105.1759,178.2982)" stroke="rgb(238,238,255)">
      <rect width="117.97" x="576.09" height="39.1641" y="348.3786" stroke="none"/>
    </g>
    <g fill="rgb(166,166,178)" stroke-miterlimit="1.45" transform="matrix(0.5008,0,0,0.5008,105.1759,178.2982)" stroke-linecap="butt" stroke="rgb(166,166,178)">
      <rect fill="none" width="117.97" x="576.09" height="39.1641" y="348.3786"/>
    </g>
    <g font-family="sans-serif" transform="matrix(0.5008,0,0,0.5008,105.1759,178.2982)">
      <text xml:space="preserve" x="582.09" y="343.5485" onclick="umlload('http://docs.oracle.com/javase/6/docs/api/java/io/package-summary.html')" stroke="none">java.io</text>
    </g>
    <g fill="rgb(204,204,255)" transform="matrix(0.5008,0,0,0.5008,105.1759,178.2982)" stroke="rgb(204,204,255)">
      <rect x="584.09" y="356.4098" clip-path="url(#clipPath4)" width="101.97" height="23.1328" stroke="none"/>
    </g>
    <g fill="rgb(142,142,178)" stroke-miterlimit="1.45" transform="matrix(0.5008,0,0,0.5008,105.1759,178.2982)" stroke-linecap="butt" stroke="rgb(142,142,178)">
      <rect fill="none" width="101.97" x="584.09" height="23.1328" y="356.4098"/>
    </g>
    <g font-size="13" font-weight="bold" font-family="sans-serif" transform="matrix(0.5008,0,0,0.5008,105.1759,178.2982)">
      <text xml:space="preserve" x="589.575" y="372.4767" onclick="umlload('http://docs.oracle.com/javase/6/docs/api/java/io/InputStream.html')" stroke="none">InputStream</text>
    </g>
    <g fill="rgb(238,238,255)" transform="matrix(0.5008,0,0,0.5008,105.1759,178.2982)" stroke="rgb(238,238,255)">
      <rect width="311.661" x="576.09" height="17.9688" y="243.277" stroke="none"/>
    </g>
    <g fill="rgb(166,166,178)" stroke-miterlimit="1.45" transform="matrix(0.5008,0,0,0.5008,105.1759,178.2982)" stroke-linecap="butt" stroke="rgb(166,166,178)">
      <rect fill="none" width="311.661" x="576.09" height="17.9688" y="243.277"/>
    </g>
    <g fill="rgb(238,238,255)" transform="matrix(0.5008,0,0,0.5008,105.1759,178.2982)" stroke="rgb(238,238,255)">
      <rect width="311.661" x="576.09" height="39.1641" y="261.2458" stroke="none"/>
    </g>
    <g fill="rgb(166,166,178)" stroke-miterlimit="1.45" transform="matrix(0.5008,0,0,0.5008,105.1759,178.2982)" stroke-linecap="butt" stroke="rgb(166,166,178)">
      <rect fill="none" width="311.661" x="576.09" height="39.1641" y="261.2458"/>
    </g>
    <g font-family="sans-serif" transform="matrix(0.5008,0,0,0.5008,105.1759,178.2982)">
      <text xml:space="preserve" x="582.09" y="256.4157" onclick="umlload('../../../../../com/msopentech/odatajclient/engine/format/package-summary.html')" stroke="none">com.msopentech.odatajclient.engine.format</text>
    </g>
    <g fill="rgb(170,170,255)" transform="matrix(0.5008,0,0,0.5008,105.1759,178.2982)" stroke="rgb(170,170,255)">
      <rect x="584.09" y="269.277" clip-path="url(#clipPath5)" width="110.21" height="23.1328" stroke="none"/>
    </g>
    <g fill="rgb(118,118,178)" stroke-miterlimit="1.45" transform="matrix(0.5008,0,0,0.5008,105.1759,178.2982)" stroke-linecap="butt" stroke="rgb(118,118,178)">
      <rect fill="none" width="110.21" x="584.09" height="23.1328" y="269.277"/>
    </g>
    <g font-size="13" font-weight="bold" font-family="sans-serif" transform="matrix(0.5008,0,0,0.5008,105.1759,178.2982)">
      <text xml:space="preserve" x="589.695" y="285.3439" onclick="umlload('../../../../../com/msopentech/odatajclient/engine/format/ODataFormat.html')" stroke="none">ODataFormat</text>
    </g>
    <g fill="rgb(238,238,255)" transform="matrix(0.5008,0,0,0.5008,105.1759,178.2982)" stroke="rgb(238,238,255)">
      <rect width="407.142" x="576.09" height="17.9688" y="156.1442" stroke="none"/>
    </g>
    <g fill="rgb(166,166,178)" stroke-miterlimit="1.45" transform="matrix(0.5008,0,0,0.5008,105.1759,178.2982)" stroke-linecap="butt" stroke="rgb(166,166,178)">
      <rect fill="none" width="407.142" x="576.09" height="17.9688" y="156.1442"/>
    </g>
    <g fill="rgb(238,238,255)" transform="matrix(0.5008,0,0,0.5008,105.1759,178.2982)" stroke="rgb(238,238,255)">
      <rect width="407.47" x="576.09" height="39.1641" y="174.113" stroke="none"/>
    </g>
    <g fill="rgb(166,166,178)" stroke-miterlimit="1.45" transform="matrix(0.5008,0,0,0.5008,105.1759,178.2982)" stroke-linecap="butt" stroke="rgb(166,166,178)">
      <rect fill="none" width="407.47" x="576.09" height="39.1641" y="174.113"/>
    </g>
    <g font-family="sans-serif" transform="matrix(0.5008,0,0,0.5008,105.1759,178.2982)">
      <text xml:space="preserve" x="582.09" y="169.2829" onclick="umlload('../../../../../com/msopentech/odatajclient/engine/data/metadata/edmx/package-summary.html')" stroke="none">com.msopentech.odatajclient.engine.data.metadata.edmx</text>
    </g>
    <g fill="rgb(187,187,255)" transform="matrix(0.5008,0,0,0.5008,105.1759,178.2982)" stroke="rgb(187,187,255)">
      <rect x="584.09" y="182.1442" clip-path="url(#clipPath6)" width="50.47" height="23.1328" stroke="none"/>
    </g>
    <g fill="rgb(130,130,178)" stroke-miterlimit="1.45" transform="matrix(0.5008,0,0,0.5008,105.1759,178.2982)" stroke-linecap="butt" stroke="rgb(130,130,178)">
      <rect fill="none" width="50.47" x="584.09" height="23.1328" y="182.1442"/>
    </g>
    <g font-size="13" font-weight="bold" font-family="sans-serif" transform="matrix(0.5008,0,0,0.5008,105.1759,178.2982)">
      <text xml:space="preserve" x="588.825" y="198.2111" onclick="umlload('../../../../../com/msopentech/odatajclient/engine/data/metadata/edmx/Edmx.html')" stroke="none">Edmx</text>
    </g>
    <g fill="rgb(238,238,255)" transform="matrix(0.5008,0,0,0.5008,105.1759,178.2982)" stroke="rgb(238,238,255)">
      <rect width="298.9302" x="576.09" height="17.9688" y="-26" stroke="none"/>
    </g>
    <g fill="rgb(166,166,178)" stroke-miterlimit="1.45" transform="matrix(0.5008,0,0,0.5008,105.1759,178.2982)" stroke-linecap="butt" stroke="rgb(166,166,178)">
      <rect fill="none" width="298.9302" x="576.09" height="17.9688" y="-26"/>
    </g>
    <g fill="rgb(238,238,255)" transform="matrix(0.5008,0,0,0.5008,105.1759,178.2982)" stroke="rgb(238,238,255)">
      <rect width="313.1546" x="576.09" height="134.1755" y="-8.0312" stroke="none"/>
    </g>
    <g fill="rgb(166,166,178)" stroke-miterlimit="1.45" transform="matrix(0.5008,0,0,0.5008,105.1759,178.2982)" stroke-linecap="butt" stroke="rgb(166,166,178)">
      <rect fill="none" width="313.1546" x="576.09" height="134.1755" y="-8.0312"/>
    </g>
    <g font-family="sans-serif" transform="matrix(0.5008,0,0,0.5008,105.1759,178.2982)">
      <text xml:space="preserve" x="582.09" y="-12.8613" onclick="umlload('../../../../../com/msopentech/odatajclient/engine/data/package-summary.html')" stroke="none">com.msopentech.odatajclient.engine.data</text>
    </g>
    <g fill="rgb(221,221,255)" transform="matrix(0.5008,0,0,0.5008,105.1759,178.2982)" stroke="rgb(221,221,255)">
      <rect x="584.09" y="0" clip-path="url(#clipPath7)" width="259.2819" height="32.7147" stroke="none"/>
    </g>
    <g fill="rgb(154,154,178)" stroke-miterlimit="1.45" transform="matrix(0.5008,0,0,0.5008,105.1759,178.2982)" stroke-linecap="butt" stroke="rgb(154,154,178)">
      <ellipse rx="129.641" fill="none" ry="16.3574" cx="713.731" cy="16.3574"/>
    </g>
    <g font-style="italic" font-size="13" font-weight="bold" font-family="sans-serif" transform="matrix(0.5008,0,0,0.5008,105.1759,178.2982)">
      <text xml:space="preserve" x="628.731" y="20.8579" onclick="umlload('../../../../../com/msopentech/odatajclient/engine/data/LinkCollectionResource.html')" stroke="none">LinkCollectionResource</text>
    </g>
    <g fill="rgb(221,221,255)" transform="matrix(0.5008,0,0,0.5008,105.1759,178.2982)" stroke="rgb(221,221,255)">
      <rect x="584.09" y="42.7147" clip-path="url(#clipPath8)" width="131.0976" height="32.7147" stroke="none"/>
    </g>
    <g fill="rgb(154,154,178)" stroke-miterlimit="1.45" transform="matrix(0.5008,0,0,0.5008,105.1759,178.2982)" stroke-linecap="butt" stroke="rgb(154,154,178)">
      <ellipse rx="65.5488" fill="none" ry="16.3574" cx="649.6388" cy="59.0721"/>
    </g>
    <g font-style="italic" font-size="13" font-weight="bold" font-family="sans-serif" transform="matrix(0.5008,0,0,0.5008,105.1759,178.2982)">
      <text xml:space="preserve" x="608.6388" y="63.5726" onclick="umlload('../../../../../com/msopentech/odatajclient/engine/data/ODataError.html')" stroke="none">ODataError</text>
    </g>
    <g fill="rgb(221,221,255)" transform="matrix(0.5008,0,0,0.5008,105.1759,178.2982)" stroke="rgb(221,221,255)">
      <rect x="584.09" y="85.4295" clip-path="url(#clipPath9)" width="297.1546" height="32.7147" stroke="none"/>
    </g>
    <g fill="rgb(154,154,178)" stroke-miterlimit="1.45" transform="matrix(0.5008,0,0,0.5008,105.1759,178.2982)" stroke-linecap="butt" stroke="rgb(154,154,178)">
      <ellipse rx="148.5773" fill="none" ry="16.3574" cx="732.6673" cy="101.7868"/>
    </g>
    <g font-style="italic" font-size="13" font-weight="bold" font-family="sans-serif" transform="matrix(0.5008,0,0,0.5008,105.1759,178.2982)">
      <text xml:space="preserve" x="634.6673" y="106.2873" onclick="umlload('../../../../../com/msopentech/odatajclient/engine/data/ServiceDocumentResource.html')" stroke="none">ServiceDocumentResource</text>
    </g>
    <g fill="rgb(238,238,255)" transform="matrix(0.5008,0,0,0.5008,105.1759,178.2982)" stroke="rgb(238,238,255)">
      <rect width="126.0035" x="-209.96" height="17.9688" y="-26" stroke="none"/>
    </g>
    <g fill="rgb(166,166,178)" stroke-miterlimit="1.45" transform="matrix(0.5008,0,0,0.5008,105.1759,178.2982)" stroke-linecap="butt" stroke="rgb(166,166,178)">
      <rect fill="none" width="126.0035" x="-209.96" height="17.9688" y="-26"/>
    </g>
    <g fill="rgb(238,238,255)" transform="matrix(0.5008,0,0,0.5008,105.1759,178.2982)" stroke="rgb(238,238,255)">
      <rect width="151.96" x="-209.96" height="39.1641" y="-8.0312" stroke="none"/>
    </g>
    <g fill="rgb(166,166,178)" stroke-miterlimit="1.45" transform="matrix(0.5008,0,0,0.5008,105.1759,178.2982)" stroke-linecap="butt" stroke="rgb(166,166,178)">
      <rect fill="none" width="151.96" x="-209.96" height="39.1641" y="-8.0312"/>
    </g>
    <g font-family="sans-serif" transform="matrix(0.5008,0,0,0.5008,105.1759,178.2982)">
      <text xml:space="preserve" x="-203.96" y="-12.8613" onclick="umlload('http://docs.oracle.com/javase/6/docs/api/javax/xml/stream/package-summary.html')" stroke="none">javax.xml.stream</text>
    </g>
    <g fill="rgb(204,204,255)" transform="matrix(0.5008,0,0,0.5008,105.1759,178.2982)" stroke="rgb(204,204,255)">
      <rect x="-201.96" y="0" clip-path="url(#clipPath10)" width="135.96" height="23.1328" stroke="none"/>
    </g>
    <g fill="rgb(142,142,178)" stroke-miterlimit="1.45" transform="matrix(0.5008,0,0,0.5008,105.1759,178.2982)" stroke-linecap="butt" stroke="rgb(142,142,178)">
      <rect fill="none" width="135.96" x="-201.96" height="23.1328" y="0"/>
    </g>
    <g font-size="13" font-weight="bold" font-family="sans-serif" transform="matrix(0.5008,0,0,0.5008,105.1759,178.2982)">
      <text xml:space="preserve" x="-195.98" y="16.0669" onclick="umlload('http://docs.oracle.com/javase/6/docs/api/javax/xml/stream/XMLInputFactory.html')" stroke="none">XMLInputFactory</text>
    </g>
    <g fill="rgb(238,238,255)" transform="matrix(0.5008,0,0,0.5008,105.1759,178.2982)" stroke="rgb(238,238,255)">
      <rect width="76.1412" x="222.205" height="17.9688" y="-133.1328" stroke="none"/>
    </g>
    <g fill="rgb(166,166,178)" stroke-miterlimit="1.45" transform="matrix(0.5008,0,0,0.5008,105.1759,178.2982)" stroke-linecap="butt" stroke="rgb(166,166,178)">
      <rect fill="none" width="76.1412" x="222.205" height="17.9688" y="-133.1328"/>
    </g>
    <g fill="rgb(238,238,255)" transform="matrix(0.5008,0,0,0.5008,105.1759,178.2982)" stroke="rgb(238,238,255)">
      <rect width="76.1412" x="222.205" height="39.1641" y="-115.1641" stroke="none"/>
    </g>
    <g fill="rgb(166,166,178)" stroke-miterlimit="1.45" transform="matrix(0.5008,0,0,0.5008,105.1759,178.2982)" stroke-linecap="butt" stroke="rgb(166,166,178)">
      <rect fill="none" width="76.1412" x="222.205" height="39.1641" y="-115.1641"/>
    </g>
    <g font-family="sans-serif" transform="matrix(0.5008,0,0,0.5008,105.1759,178.2982)">
      <text xml:space="preserve" x="228.205" y="-119.9941" onclick="umlload('http://docs.oracle.com/javase/6/docs/api/java/lang/package-summary.html')" stroke="none">java.lang</text>
    </g>
    <g fill="rgb(187,187,255)" transform="matrix(0.5008,0,0,0.5008,105.1759,178.2982)" stroke="rgb(187,187,255)">
      <rect x="230.205" y="-107.1328" clip-path="url(#clipPath11)" width="57.68" height="23.1328" stroke="none"/>
    </g>
    <g fill="rgb(130,130,178)" stroke-miterlimit="1.45" transform="matrix(0.5008,0,0,0.5008,105.1759,178.2982)" stroke-linecap="butt" stroke="rgb(130,130,178)">
      <rect fill="none" width="57.68" x="230.205" height="23.1328" y="-107.1328"/>
    </g>
    <g font-size="13" font-weight="bold" font-family="sans-serif" transform="matrix(0.5008,0,0,0.5008,105.1759,178.2982)">
      <text xml:space="preserve" x="235.045" y="-91.0659" onclick="umlload('http://docs.oracle.com/javase/6/docs/api/java/lang/Object.html')" stroke="none">Object</text>
    </g>
    <g fill="rgb(238,238,255)" transform="matrix(0.5008,0,0,0.5008,105.1759,178.2982)" stroke="rgb(238,238,255)">
      <rect width="298.9302" x="-8" height="17.9688" y="-26" stroke="none"/>
    </g>
    <g fill="rgb(166,166,178)" stroke-miterlimit="1.45" transform="matrix(0.5008,0,0,0.5008,105.1759,178.2982)" stroke-linecap="butt" stroke="rgb(166,166,178)">
      <rect fill="none" width="298.9302" x="-8" height="17.9688" y="-26"/>
    </g>
    <g fill="rgb(238,238,255)" transform="matrix(0.5008,0,0,0.5008,105.1759,178.2982)" stroke="rgb(238,238,255)">
      <rect width="534.09" x="-8" height="587.4214" y="-8.0312" stroke="none"/>
    </g>
    <g fill="rgb(166,166,178)" stroke-miterlimit="1.45" transform="matrix(0.5008,0,0,0.5008,105.1759,178.2982)" stroke-linecap="butt" stroke="rgb(166,166,178)">
      <rect fill="none" width="534.09" x="-8" height="587.4214" y="-8.0312"/>
    </g>
    <g font-family="sans-serif" transform="matrix(0.5008,0,0,0.5008,105.1759,178.2982)">
      <text xml:space="preserve" x="-2" y="-12.8613" onclick="umlload('package-summary.html')" stroke="none">com.msopentech.odatajclient.engine.data</text>
    </g>
    <g fill="rgb(187,187,255)" transform="matrix(0.5008,0,0,0.5008,105.1759,178.2982)" stroke="rgb(187,187,255)">
      <rect x="0" y="0" clip-path="url(#clipPath12)" width="518.09" height="26.625" stroke="none"/>
      <line clip-path="url(#clipPath12)" fill="none" x1="0" x2="518.09" y1="26.625" y2="26.625" stroke="black"/>
      <line clip-path="url(#clipPath12)" x1="0" x2="518.09" y1="27.625" y2="27.625" stroke="none"/>
      <line clip-path="url(#clipPath12)" fill="none" x1="0" x2="518.09" y1="27.625" y2="27.625" stroke="black"/>
      <rect x="0" y="28.625" clip-path="url(#clipPath12)" width="518.09" height="542.7652" stroke="none"/>
    </g>
    <g fill="rgb(130,130,178)" stroke-miterlimit="1.45" transform="matrix(0.5008,0,0,0.5008,105.1759,178.2982)" stroke-linecap="butt" stroke="rgb(130,130,178)">
      <rect fill="none" width="518.09" x="0" height="571.3902" y="0"/>
    </g>
    <g font-size="16" font-weight="bold" font-family="sans-serif" transform="matrix(0.5008,0,0,0.5008,105.1759,178.2982)">
      <text xml:space="preserve" x="207.545" y="18.8516" onclick="umlload('#')" stroke="none">Deserializer</text>
    </g>
    <g font-family="sans-serif" transform="matrix(0.5008,0,0,0.5008,105.1759,178.2982)">
      <text xml:space="preserve" x="4" y="39.1719" stroke="none">+</text>
      <text xml:space="preserve" x="19" y="40.7637" onclick="umlload('#toDOM(java.io.InputStream)')" stroke="none">toDOM(InputStream) : Element</text>
      <line y2="43.5938" fill="none" x1="19" x2="210" y1="43.5938"/>
    </g>
    <g font-family="sans-serif" transform="matrix(0.5008,0,0,0.5008,105.1759,178.2982)">
      <text xml:space="preserve" x="4" y="55.1719" stroke="none">+</text>
      <text xml:space="preserve" x="19" y="56.7324" onclick="umlload('#toEntry(java.io.InputStream, java.lang.Class)')" stroke="none">toEntry(InputStream, Class&lt;T&gt;) : &lt;T extends EntryResource&gt; T</text>
      <line y2="59.5625" fill="none" x1="19" x2="418" y1="59.5625"/>
    </g>
    <g font-family="sans-serif" transform="matrix(0.5008,0,0,0.5008,105.1759,178.2982)">
      <text xml:space="preserve" x="4" y="71.1719" stroke="none">+</text>
      <text xml:space="preserve" x="19" y="72.7012" onclick="umlload('#toFeed(java.io.InputStream, java.lang.Class)')" stroke="none">toFeed(InputStream, Class&lt;T&gt;) : &lt;T extends FeedResource&gt; T</text>
      <line y2="75.5312" fill="none" x1="19" x2="416" y1="75.5312"/>
    </g>
    <g font-family="sans-serif" transform="matrix(0.5008,0,0,0.5008,105.1759,178.2982)">
      <text xml:space="preserve" x="4" y="87.1719" stroke="none">+</text>
      <text xml:space="preserve" x="19" y="88.6699" onclick="umlload('#toLinkCollection(java.io.InputStream, com.msopentech.odatajclient.engine.format.ODataFormat)')" stroke="none">toLinkCollection(InputStream, ODataFormat) : LinkCollectionResource</text>
      <line y2="91.5" fill="none" x1="19" x2="451" y1="91.5"/>
    </g>
    <g font-family="sans-serif" transform="matrix(0.5008,0,0,0.5008,105.1759,178.2982)">
      <text xml:space="preserve" x="4" y="103.1719" stroke="none">+</text>
      <text xml:space="preserve" x="19" y="104.6387" onclick="umlload('#toMetadata(java.io.InputStream)')" stroke="none">toMetadata(InputStream) : Edmx</text>
      <line y2="107.4688" fill="none" x1="19" x2="224" y1="107.4688"/>
    </g>
    <g font-family="sans-serif" transform="matrix(0.5008,0,0,0.5008,105.1759,178.2982)">
      <text xml:space="preserve" x="4" y="119.1719" stroke="none">+</text>
      <text xml:space="preserve" x="19" y="120.6074" onclick="umlload('#toODataError(java.io.InputStream, boolean)')" stroke="none">toODataError(InputStream, boolean) : ODataError</text>
      <line y2="123.4375" fill="none" x1="19" x2="330" y1="123.4375"/>
    </g>
    <g font-family="sans-serif" transform="matrix(0.5008,0,0,0.5008,105.1759,178.2982)">
      <text xml:space="preserve" x="4" y="135.1719" stroke="none">+</text>
      <text xml:space="preserve" x="19" y="136.5762" onclick="umlload('#toPropertyDOM(java.io.InputStream, com.msopentech.odatajclient.engine.format.ODataFormat)')" stroke="none">toPropertyDOM(InputStream, ODataFormat) : Element</text>
      <line y2="139.4062" fill="none" x1="19" x2="354" y1="139.4062"/>
    </g>
    <g font-family="sans-serif" transform="matrix(0.5008,0,0,0.5008,105.1759,178.2982)">
      <text xml:space="preserve" x="4" y="151.1719" stroke="none">+</text>
      <text xml:space="preserve" x="19" y="152.5449" onclick="umlload('#toServiceDocument(java.io.InputStream, com.msopentech.odatajclient.engine.format.ODataFormat)')" stroke="none">toServiceDocument(InputStream, ODataFormat) : ServiceDocumentResource</text>
      <line y2="155.375" fill="none" x1="19" x2="499" y1="155.375"/>
    </g>
    <g font-family="sans-serif" transform="matrix(0.5008,0,0,0.5008,105.1759,178.2982)">
      <text xml:space="preserve" x="-204" y="604.1543" onclick="umlload('http://www.yworks.com/')" stroke="none">yWorks UML Doclet</text>
    </g>
    <g stroke-miterlimit="1.45" transform="matrix(0.5008,0,0,0.5008,105.1759,178.2982)" stroke-linecap="butt">
      <path fill="none" d="M259.045 0.0067 L259.045 -69"/>
      <path fill="white" d="M259.045 -84 L253.045 -68 L265.045 -68 Z" stroke="none"/>
      <path fill="none" d="M259.045 -84 L253.045 -68 L265.045 -68 Z"/>
      <path fill="none" d="M0.0189 11.5664 L-66 11.5664"/>
      <line stroke-linecap="square" transform="matrix(-1,0,0,-1,-66,11.5664)" fill="none" x1="0" x2="-14" y1="0" y2="-4" stroke-miterlimit="10"/>
      <line stroke-linecap="square" transform="matrix(-1,0,0,-1,-66,11.5664)" fill="none" x1="0" x2="-14" y1="0" y2="4" stroke-miterlimit="10"/>
    </g>
    <g stroke-dasharray="6,2" stroke-miterlimit="1.45" transform="matrix(0.5008,0,0,0.5008,105.1759,178.2982)" stroke-linecap="butt">
      <path fill="none" d="M518.1083 16.3574 L584.09 16.3574"/>
      <line stroke-linecap="square" transform="matrix(1,0,0,1,584.09,16.3574)" fill="none" x1="0" x2="-14" y1="0" y2="-4" stroke-dasharray="none" stroke-miterlimit="10"/>
      <line stroke-linecap="square" transform="matrix(1,0,0,1,584.09,16.3574)" fill="none" x1="0" x2="-14" y1="0" y2="4" stroke-dasharray="none" stroke-miterlimit="10"/>
    </g>
    <g stroke-dasharray="6,2" stroke-miterlimit="1.45" transform="matrix(0.5008,0,0,0.5008,105.1759,178.2982)" stroke-linecap="butt">
      <path fill="none" d="M518.0899 59.0721 L584.09 59.0721"/>
      <line stroke-linecap="square" transform="matrix(1,0,0,1,584.09,59.0721)" fill="none" x1="0" x2="-14" y1="0" y2="-4" stroke-dasharray="none" stroke-miterlimit="10"/>
      <line stroke-linecap="square" transform="matrix(1,0,0,1,584.09,59.0721)" fill="none" x1="0" x2="-14" y1="0" y2="4" stroke-dasharray="none" stroke-miterlimit="10"/>
    </g>
    <g stroke-dasharray="6,2" stroke-miterlimit="1.45" transform="matrix(0.5008,0,0,0.5008,105.1759,178.2982)" stroke-linecap="butt">
      <path fill="none" d="M518.0861 101.7868 L584.09 101.7868"/>
      <line stroke-linecap="square" transform="matrix(1,0,0,1,584.09,101.7868)" fill="none" x1="0" x2="-14" y1="0" y2="-4" stroke-dasharray="none" stroke-miterlimit="10"/>
      <line stroke-linecap="square" transform="matrix(1,0,0,1,584.09,101.7868)" fill="none" x1="0" x2="-14" y1="0" y2="4" stroke-dasharray="none" stroke-miterlimit="10"/>
    </g>
    <g stroke-dasharray="6,2" stroke-miterlimit="1.45" transform="matrix(0.5008,0,0,0.5008,105.1759,178.2982)" stroke-linecap="butt">
      <path fill="none" d="M518.1205 193.7106 L584.09 193.7106"/>
      <line stroke-linecap="square" transform="matrix(1,0,0,1,584.09,193.7106)" fill="none" x1="0" x2="-14" y1="0" y2="-4" stroke-dasharray="none" stroke-miterlimit="10"/>
      <line stroke-linecap="square" transform="matrix(1,0,0,1,584.09,193.7106)" fill="none" x1="0" x2="-14" y1="0" y2="4" stroke-dasharray="none" stroke-miterlimit="10"/>
    </g>
    <g stroke-dasharray="6,2" stroke-miterlimit="1.45" transform="matrix(0.5008,0,0,0.5008,105.1759,178.2982)" stroke-linecap="butt">
      <path fill="none" d="M518.1243 280.8434 L584.09 280.8434"/>
      <line stroke-linecap="square" transform="matrix(1,0,0,1,584.09,280.8434)" fill="none" x1="0" x2="-14" y1="0" y2="-4" stroke-dasharray="none" stroke-miterlimit="10"/>
      <line stroke-linecap="square" transform="matrix(1,0,0,1,584.09,280.8434)" fill="none" x1="0" x2="-14" y1="0" y2="4" stroke-dasharray="none" stroke-miterlimit="10"/>
    </g>
    <g stroke-dasharray="6,2" stroke-miterlimit="1.45" transform="matrix(0.5008,0,0,0.5008,105.1759,178.2982)" stroke-linecap="butt">
      <path fill="none" d="M518.0706 367.9763 L584.09 367.9763"/>
      <line stroke-linecap="square" transform="matrix(1,0,0,1,584.09,367.9763)" fill="none" x1="0" x2="-14" y1="0" y2="-4" stroke-dasharray="none" stroke-miterlimit="10"/>
      <line stroke-linecap="square" transform="matrix(1,0,0,1,584.09,367.9763)" fill="none" x1="0" x2="-14" y1="0" y2="4" stroke-dasharray="none" stroke-miterlimit="10"/>
    </g>
    <g stroke-dasharray="6,2" stroke-miterlimit="1.45" transform="matrix(0.5008,0,0,0.5008,105.1759,178.2982)" stroke-linecap="butt">
      <path fill="none" d="M518.1013 455.1091 L584.09 455.1091"/>
      <line stroke-linecap="square" transform="matrix(1,0,0,1,584.09,455.1091)" fill="none" x1="0" x2="-14" y1="0" y2="-4" stroke-dasharray="none" stroke-miterlimit="10"/>
      <line stroke-linecap="square" transform="matrix(1,0,0,1,584.09,455.1091)" fill="none" x1="0" x2="-14" y1="0" y2="4" stroke-dasharray="none" stroke-miterlimit="10"/>
    </g>
    <g stroke-dasharray="6,2" stroke-miterlimit="1.45" transform="matrix(0.5008,0,0,0.5008,105.1759,178.2982)" stroke-linecap="butt">
      <path fill="none" d="M518.0713 547.0328 L584.09 547.0328"/>
      <line stroke-linecap="square" transform="matrix(1,0,0,1,584.09,547.0328)" fill="none" x1="0" x2="-14" y1="0" y2="-4" stroke-dasharray="none" stroke-miterlimit="10"/>
      <line stroke-linecap="square" transform="matrix(1,0,0,1,584.09,547.0328)" fill="none" x1="0" x2="-14" y1="0" y2="4" stroke-dasharray="none" stroke-miterlimit="10"/>
    </g>
  </g>
</svg>
