<?xml version="1.0" encoding="UTF-8"?><svg xmlns="http://www.w3.org/2000/svg" xmlns:xlink="http://www.w3.org/1999/xlink" fill-opacity="1" color-rendering="auto" color-interpolation="auto" stroke="black" text-rendering="auto" stroke-linecap="square" width="598" stroke-miterlimit="10" stroke-opacity="1" shape-rendering="auto" fill="black" stroke-dasharray="none" font-weight="normal" stroke-width="1" height="598" font-family="'Dialog'" font-style="normal" stroke-linejoin="miter" font-size="12" stroke-dashoffset="0" image-rendering="auto">
  <!--Generated by ySVG-->
  <defs id="genericDefs"/>
  <g>
    <defs id="defs1">
      <clipPath clipPathUnits="userSpaceOnUse" id="clipPath1">
        <path d="M0 0 L598 0 L598 598 L0 598 L0 0 Z"/>
      </clipPath>
      <clipPath clipPathUnits="userSpaceOnUse" id="clipPath2">
        <path d="M532.7615 384.0525 C532.7615 393.0864 510.5881 400.4099 483.2357 400.4099 C455.8834 400.4099 433.71 393.0864 433.71 384.0525 C433.71 375.0186 455.8834 367.6951 483.2357 367.6951 C510.5881 367.6951 532.7615 375.0186 532.7615 384.0525 Z"/>
      </clipPath>
      <clipPath clipPathUnits="userSpaceOnUse" id="clipPath3">
        <path d="M528.3916 287.3377 C528.3916 296.3716 507.1964 303.6951 481.0508 303.6951 C454.9052 303.6951 433.71 296.3716 433.71 287.3377 C433.71 278.3038 454.9052 270.9804 481.0508 270.9804 C507.1964 270.9804 528.3916 278.3038 528.3916 287.3377 Z"/>
      </clipPath>
      <clipPath clipPathUnits="userSpaceOnUse" id="clipPath4">
        <path d="M433.71 183.8475 L466.67 183.8475 L466.67 206.9804 L433.71 206.9804 L433.71 183.8475 Z"/>
      </clipPath>
      <clipPath clipPathUnits="userSpaceOnUse" id="clipPath5">
        <path d="M433.71 96.7147 L487.27 96.7147 L487.27 119.8475 L433.71 119.8475 L433.71 96.7147 Z"/>
      </clipPath>
      <clipPath clipPathUnits="userSpaceOnUse" id="clipPath6">
        <path d="M588.1138 16.3574 C588.1138 25.3913 553.5494 32.7147 510.9119 32.7147 C468.2745 32.7147 433.71 25.3913 433.71 16.3574 C433.71 7.3234 468.2745 0 510.9119 0 C553.5494 0 588.1138 7.3234 588.1138 16.3574 Z"/>
      </clipPath>
      <clipPath clipPathUnits="userSpaceOnUse" id="clipPath7">
        <path d="M-0 0 L367.71 0 L367.71 519.6562 L-0 519.6562 L-0 0 Z"/>
      </clipPath>
      <script type="text/ecmascript"><![CDATA[
function umlload(newLocation)
{
if (newLocation.charAt(0) != '#') {
if (newLocation.indexOf("://") > -1) {
window.parent.location.href = newLocation;
} else {
var tmp = window.parent.location.href;
tmp = tmp.substring(0, tmp.lastIndexOf("/") + 1);
window.parent.location.href = tmp.concat(newLocation);
}
} else {
window.parent.location.hash = newLocation;
}
}
]]></script>
    </defs>
    <g fill="rgb(238,238,255)" transform="matrix(0.8147,0,0,0.8147,6.5177,79.842)" stroke="rgb(238,238,255)">
      <rect width="101.6028" x="425.71" height="17.9688" y="341.6951" stroke="none"/>
    </g>
    <g fill="rgb(166,166,178)" stroke-miterlimit="1.45" transform="matrix(0.8147,0,0,0.8147,6.5177,79.842)" stroke-linecap="butt" stroke="rgb(166,166,178)">
      <rect fill="none" width="101.6028" x="425.71" height="17.9688" y="341.6951"/>
    </g>
    <g fill="rgb(238,238,255)" transform="matrix(0.8147,0,0,0.8147,6.5177,79.842)" stroke="rgb(238,238,255)">
      <rect width="115.0515" x="425.71" height="48.746" y="359.6638" stroke="none"/>
    </g>
    <g fill="rgb(166,166,178)" stroke-miterlimit="1.45" transform="matrix(0.8147,0,0,0.8147,6.5177,79.842)" stroke-linecap="butt" stroke="rgb(166,166,178)">
      <rect fill="none" width="115.0515" x="425.71" height="48.746" y="359.6638"/>
    </g>
    <g font-family="sans-serif" transform="matrix(0.8147,0,0,0.8147,6.5177,79.842)">
      <text xml:space="preserve" x="431.71" y="354.8338" onclick="umlload('http://docs.oracle.com/javase/6/docs/api/org/w3c/dom/package-summary.html')" stroke="none">org.w3c.dom</text>
    </g>
    <g fill="rgb(221,221,255)" transform="matrix(0.8147,0,0,0.8147,6.5177,79.842)" stroke="rgb(221,221,255)">
      <rect x="433.71" y="367.6951" clip-path="url(#clipPath2)" width="99.0515" height="32.7147" stroke="none"/>
    </g>
    <g fill="rgb(154,154,178)" stroke-miterlimit="1.45" transform="matrix(0.8147,0,0,0.8147,6.5177,79.842)" stroke-linecap="butt" stroke="rgb(154,154,178)">
      <ellipse rx="49.5258" fill="none" ry="16.3574" cx="483.2358" cy="384.0525"/>
    </g>
    <g font-style="italic" font-size="13" font-weight="bold" font-family="sans-serif" transform="matrix(0.8147,0,0,0.8147,6.5177,79.842)">
      <text xml:space="preserve" x="453.2357" y="388.5529" onclick="umlload('http://docs.oracle.com/javase/6/docs/api/org/w3c/dom/Element.html')" stroke="none">Element</text>
    </g>
    <g fill="rgb(238,238,255)" transform="matrix(0.8147,0,0,0.8147,6.5177,79.842)" stroke="rgb(238,238,255)">
      <rect width="67.654" x="425.71" height="17.9688" y="244.9804" stroke="none"/>
    </g>
    <g fill="rgb(166,166,178)" stroke-miterlimit="1.45" transform="matrix(0.8147,0,0,0.8147,6.5177,79.842)" stroke-linecap="butt" stroke="rgb(166,166,178)">
      <rect fill="none" width="67.654" x="425.71" height="17.9688" y="244.9804"/>
    </g>
    <g fill="rgb(238,238,255)" transform="matrix(0.8147,0,0,0.8147,6.5177,79.842)" stroke="rgb(238,238,255)">
      <rect width="110.6816" x="425.71" height="48.746" y="262.9491" stroke="none"/>
    </g>
    <g fill="rgb(166,166,178)" stroke-miterlimit="1.45" transform="matrix(0.8147,0,0,0.8147,6.5177,79.842)" stroke-linecap="butt" stroke="rgb(166,166,178)">
      <rect fill="none" width="110.6816" x="425.71" height="48.746" y="262.9491"/>
    </g>
    <g font-family="sans-serif" transform="matrix(0.8147,0,0,0.8147,6.5177,79.842)">
      <text xml:space="preserve" x="431.71" y="258.119" onclick="umlload('http://docs.oracle.com/javase/6/docs/api/java/util/package-summary.html')" stroke="none">java.util</text>
    </g>
    <g fill="rgb(221,221,255)" transform="matrix(0.8147,0,0,0.8147,6.5177,79.842)" stroke="rgb(221,221,255)">
      <rect x="433.71" y="270.9804" clip-path="url(#clipPath3)" width="94.6816" height="32.7147" stroke="none"/>
    </g>
    <g fill="rgb(154,154,178)" stroke-miterlimit="1.45" transform="matrix(0.8147,0,0,0.8147,6.5177,79.842)" stroke-linecap="butt" stroke="rgb(154,154,178)">
      <ellipse rx="47.3408" fill="none" ry="16.3574" cx="481.0508" cy="287.3377"/>
    </g>
    <g font-style="italic" font-size="13" font-weight="bold" font-family="sans-serif" transform="matrix(0.8147,0,0,0.8147,6.5177,79.842)">
      <text xml:space="preserve" x="452.5508" y="291.8382" onclick="umlload('http://docs.oracle.com/javase/6/docs/api/java/util/List.html')" stroke="none">List&lt;E&gt;</text>
    </g>
    <g fill="rgb(238,238,255)" transform="matrix(0.8147,0,0,0.8147,6.5177,79.842)" stroke="rgb(238,238,255)">
      <rect width="69.7758" x="425.71" height="17.9688" y="157.8475" stroke="none"/>
    </g>
    <g fill="rgb(166,166,178)" stroke-miterlimit="1.45" transform="matrix(0.8147,0,0,0.8147,6.5177,79.842)" stroke-linecap="butt" stroke="rgb(166,166,178)">
      <rect fill="none" width="69.7758" x="425.71" height="17.9688" y="157.8475"/>
    </g>
    <g fill="rgb(238,238,255)" transform="matrix(0.8147,0,0,0.8147,6.5177,79.842)" stroke="rgb(238,238,255)">
      <rect width="73.96" x="425.71" height="39.1641" y="175.8163" stroke="none"/>
    </g>
    <g fill="rgb(166,166,178)" stroke-miterlimit="1.45" transform="matrix(0.8147,0,0,0.8147,6.5177,79.842)" stroke-linecap="butt" stroke="rgb(166,166,178)">
      <rect fill="none" width="73.96" x="425.71" height="39.1641" y="175.8163"/>
    </g>
    <g font-family="sans-serif" transform="matrix(0.8147,0,0,0.8147,6.5177,79.842)">
      <text xml:space="preserve" x="431.71" y="170.9862" onclick="umlload('http://docs.oracle.com/javase/6/docs/api/java/net/package-summary.html')" stroke="none">java.net</text>
    </g>
    <g fill="rgb(187,187,255)" transform="matrix(0.8147,0,0,0.8147,6.5177,79.842)" stroke="rgb(187,187,255)">
      <rect x="433.71" y="183.8475" clip-path="url(#clipPath4)" width="32.96" height="23.1328" stroke="none"/>
    </g>
    <g fill="rgb(130,130,178)" stroke-miterlimit="1.45" transform="matrix(0.8147,0,0,0.8147,6.5177,79.842)" stroke-linecap="butt" stroke="rgb(130,130,178)">
      <rect fill="none" width="32.96" x="433.71" height="23.1328" y="183.8475"/>
    </g>
    <g font-size="13" font-weight="bold" font-family="sans-serif" transform="matrix(0.8147,0,0,0.8147,6.5177,79.842)">
      <text xml:space="preserve" x="438.19" y="199.9144" onclick="umlload('http://docs.oracle.com/javase/6/docs/api/java/net/URI.html')" stroke="none">URI</text>
    </g>
    <g fill="rgb(238,238,255)" transform="matrix(0.8147,0,0,0.8147,6.5177,79.842)" stroke="rgb(238,238,255)">
      <rect width="76.1412" x="425.71" height="17.9688" y="70.7147" stroke="none"/>
    </g>
    <g fill="rgb(166,166,178)" stroke-miterlimit="1.45" transform="matrix(0.8147,0,0,0.8147,6.5177,79.842)" stroke-linecap="butt" stroke="rgb(166,166,178)">
      <rect fill="none" width="76.1412" x="425.71" height="17.9688" y="70.7147"/>
    </g>
    <g fill="rgb(238,238,255)" transform="matrix(0.8147,0,0,0.8147,6.5177,79.842)" stroke="rgb(238,238,255)">
      <rect width="79.56" x="425.71" height="39.1641" y="88.6835" stroke="none"/>
    </g>
    <g fill="rgb(166,166,178)" stroke-miterlimit="1.45" transform="matrix(0.8147,0,0,0.8147,6.5177,79.842)" stroke-linecap="butt" stroke="rgb(166,166,178)">
      <rect fill="none" width="79.56" x="425.71" height="39.1641" y="88.6835"/>
    </g>
    <g font-family="sans-serif" transform="matrix(0.8147,0,0,0.8147,6.5177,79.842)">
      <text xml:space="preserve" x="431.71" y="83.8534" onclick="umlload('http://docs.oracle.com/javase/6/docs/api/java/lang/package-summary.html')" stroke="none">java.lang</text>
    </g>
    <g fill="rgb(187,187,255)" transform="matrix(0.8147,0,0,0.8147,6.5177,79.842)" stroke="rgb(187,187,255)">
      <rect x="433.71" y="96.7147" clip-path="url(#clipPath5)" width="53.56" height="23.1328" stroke="none"/>
    </g>
    <g fill="rgb(130,130,178)" stroke-miterlimit="1.45" transform="matrix(0.8147,0,0,0.8147,6.5177,79.842)" stroke-linecap="butt" stroke="rgb(130,130,178)">
      <rect fill="none" width="53.56" x="433.71" height="23.1328" y="96.7147"/>
    </g>
    <g font-size="13" font-weight="bold" font-family="sans-serif" transform="matrix(0.8147,0,0,0.8147,6.5177,79.842)">
      <text xml:space="preserve" x="438.49" y="112.7816" onclick="umlload('http://docs.oracle.com/javase/6/docs/api/java/lang/String.html')" stroke="none">String</text>
    </g>
    <g fill="rgb(238,238,255)" transform="matrix(0.8147,0,0,0.8147,6.5177,79.842)" stroke="rgb(238,238,255)">
      <rect width="298.9302" x="425.71" height="17.9688" y="-26" stroke="none"/>
    </g>
    <g fill="rgb(166,166,178)" stroke-miterlimit="1.45" transform="matrix(0.8147,0,0,0.8147,6.5177,79.842)" stroke-linecap="butt" stroke="rgb(166,166,178)">
      <rect fill="none" width="298.9302" x="425.71" height="17.9688" y="-26"/>
    </g>
    <g fill="rgb(238,238,255)" transform="matrix(0.8147,0,0,0.8147,6.5177,79.842)" stroke="rgb(238,238,255)">
      <rect width="299.4038" x="425.71" height="48.746" y="-8.0312" stroke="none"/>
    </g>
    <g fill="rgb(166,166,178)" stroke-miterlimit="1.45" transform="matrix(0.8147,0,0,0.8147,6.5177,79.842)" stroke-linecap="butt" stroke="rgb(166,166,178)">
      <rect fill="none" width="299.4038" x="425.71" height="48.746" y="-8.0312"/>
    </g>
    <g font-family="sans-serif" transform="matrix(0.8147,0,0,0.8147,6.5177,79.842)">
      <text xml:space="preserve" x="431.71" y="-12.8613" onclick="umlload('../../../../../com/msopentech/odatajclient/engine/data/package-summary.html')" stroke="none">com.msopentech.odatajclient.engine.data</text>
    </g>
    <g fill="rgb(221,221,255)" transform="matrix(0.8147,0,0,0.8147,6.5177,79.842)" stroke="rgb(221,221,255)">
      <rect x="433.71" y="0" clip-path="url(#clipPath6)" width="154.4038" height="32.7147" stroke="none"/>
    </g>
    <g fill="rgb(154,154,178)" stroke-miterlimit="1.45" transform="matrix(0.8147,0,0,0.8147,6.5177,79.842)" stroke-linecap="butt" stroke="rgb(154,154,178)">
      <ellipse rx="77.2019" fill="none" ry="16.3574" cx="510.9119" cy="16.3574"/>
    </g>
    <g font-style="italic" font-size="13" font-weight="bold" font-family="sans-serif" transform="matrix(0.8147,0,0,0.8147,6.5177,79.842)">
      <text xml:space="preserve" x="461.9119" y="20.8579" onclick="umlload('../../../../../com/msopentech/odatajclient/engine/data/LinkResource.html')" stroke="none">LinkResource</text>
    </g>
    <g fill="rgb(238,238,255)" transform="matrix(0.8147,0,0,0.8147,6.5177,79.842)" stroke="rgb(238,238,255)">
      <rect width="298.9302" x="-8" height="17.9688" y="-26" stroke="none"/>
    </g>
    <g fill="rgb(166,166,178)" stroke-miterlimit="1.45" transform="matrix(0.8147,0,0,0.8147,6.5177,79.842)" stroke-linecap="butt" stroke="rgb(166,166,178)">
      <rect fill="none" width="298.9302" x="-8" height="17.9688" y="-26"/>
    </g>
    <g fill="rgb(238,238,255)" transform="matrix(0.8147,0,0,0.8147,6.5177,79.842)" stroke="rgb(238,238,255)">
      <rect width="383.71" x="-8" height="535.6875" y="-8.0312" stroke="none"/>
    </g>
    <g fill="rgb(166,166,178)" stroke-miterlimit="1.45" transform="matrix(0.8147,0,0,0.8147,6.5177,79.842)" stroke-linecap="butt" stroke="rgb(166,166,178)">
      <rect fill="none" width="383.71" x="-8" height="535.6875" y="-8.0312"/>
    </g>
    <g font-family="sans-serif" transform="matrix(0.8147,0,0,0.8147,6.5177,79.842)">
      <text xml:space="preserve" x="-2" y="-12.8613" onclick="umlload('package-summary.html')" stroke="none">com.msopentech.odatajclient.engine.data</text>
    </g>
    <g fill="rgb(221,221,255)" transform="matrix(0.8147,0,0,0.8147,6.5177,79.842)" stroke="rgb(221,221,255)">
      <rect x="0" y="0" clip-path="url(#clipPath7)" width="367.71" height="38.5938" stroke="none"/>
      <line clip-path="url(#clipPath7)" fill="none" x1="0" x2="367.71" y1="38.5938" y2="38.5938" stroke="black"/>
      <line clip-path="url(#clipPath7)" x1="0" x2="367.71" y1="39.5938" y2="39.5938" stroke="none"/>
      <line clip-path="url(#clipPath7)" fill="none" x1="0" x2="367.71" y1="39.5938" y2="39.5938" stroke="black"/>
      <rect x="0" y="40.5938" clip-path="url(#clipPath7)" width="367.71" height="479.0625" stroke="none"/>
    </g>
    <g fill="rgb(154,154,178)" stroke-miterlimit="1.45" transform="matrix(0.8147,0,0,0.8147,6.5177,79.842)" stroke-linecap="butt" stroke="rgb(154,154,178)">
      <rect fill="none" width="367.71" x="0" height="519.6562" y="0"/>
    </g>
    <g font-style="italic" font-size="16" font-weight="bold" font-family="sans-serif" transform="matrix(0.8147,0,0,0.8147,6.5177,79.842)">
      <text xml:space="preserve" x="118.855" y="32.8203" onclick="umlload('#')" stroke="none">EntryResource</text>
    </g>
    <g font-family="sans-serif" transform="matrix(0.8147,0,0,0.8147,6.5177,79.842)">
      <text xml:space="preserve" x="148.855" y="13.1387" stroke="none">«interface»</text>
    </g>
    <g font-family="sans-serif" transform="matrix(0.8147,0,0,0.8147,6.5177,79.842)">
      <text xml:space="preserve" x="4" y="51.1719" stroke="none">+</text>
      <text xml:space="preserve" x="19" y="52.7324" onclick="umlload('#addAssociationLink(com.msopentech.odatajclient.engine.data.LinkResource)')" stroke="none">addAssociationLink(LinkResource) : boolean</text>
    </g>
    <g font-family="sans-serif" transform="matrix(0.8147,0,0,0.8147,6.5177,79.842)">
      <text xml:space="preserve" x="4" y="67.1719" stroke="none">+</text>
      <text xml:space="preserve" x="19" y="68.7012" onclick="umlload('#addMediaEditLink(com.msopentech.odatajclient.engine.data.LinkResource)')" stroke="none">addMediaEditLink(LinkResource) : boolean</text>
    </g>
    <g font-family="sans-serif" transform="matrix(0.8147,0,0,0.8147,6.5177,79.842)">
      <text xml:space="preserve" x="4" y="83.1719" stroke="none">+</text>
      <text xml:space="preserve" x="19" y="84.6699" onclick="umlload('#addNavigationLink(com.msopentech.odatajclient.engine.data.LinkResource)')" stroke="none">addNavigationLink(LinkResource) : boolean</text>
    </g>
    <g font-family="sans-serif" transform="matrix(0.8147,0,0,0.8147,6.5177,79.842)">
      <text xml:space="preserve" x="4" y="99.1719" stroke="none">+</text>
      <text xml:space="preserve" x="19" y="100.6387" onclick="umlload('#getAssociationLinks()')" stroke="none">getAssociationLinks() : List&lt;? extends LinkResource&gt;</text>
    </g>
    <g font-family="sans-serif" transform="matrix(0.8147,0,0,0.8147,6.5177,79.842)">
      <text xml:space="preserve" x="4" y="115.1719" stroke="none">+</text>
      <text xml:space="preserve" x="19" y="116.6074" onclick="umlload('#getBaseURI()')" stroke="none">getBaseURI() : URI</text>
    </g>
    <g font-family="sans-serif" transform="matrix(0.8147,0,0,0.8147,6.5177,79.842)">
      <text xml:space="preserve" x="4" y="131.1719" stroke="none">+</text>
      <text xml:space="preserve" x="19" y="132.5762" onclick="umlload('#getContent()')" stroke="none">getContent() : Element</text>
    </g>
    <g font-family="sans-serif" transform="matrix(0.8147,0,0,0.8147,6.5177,79.842)">
      <text xml:space="preserve" x="4" y="147.1719" stroke="none">+</text>
      <text xml:space="preserve" x="19" y="148.5449" onclick="umlload('#getEditLink()')" stroke="none">getEditLink() : LinkResource</text>
    </g>
    <g font-family="sans-serif" transform="matrix(0.8147,0,0,0.8147,6.5177,79.842)">
      <text xml:space="preserve" x="4" y="163.1719" stroke="none">+</text>
      <text xml:space="preserve" x="19" y="164.5137" onclick="umlload('#getETag()')" stroke="none">getETag() : String</text>
    </g>
    <g font-family="sans-serif" transform="matrix(0.8147,0,0,0.8147,6.5177,79.842)">
      <text xml:space="preserve" x="4" y="179.1719" stroke="none">+</text>
      <text xml:space="preserve" x="19" y="180.4824" onclick="umlload('#getId()')" stroke="none">getId() : String</text>
    </g>
    <g font-family="sans-serif" transform="matrix(0.8147,0,0,0.8147,6.5177,79.842)">
      <text xml:space="preserve" x="4" y="195.1719" stroke="none">+</text>
      <text xml:space="preserve" x="19" y="196.4512" onclick="umlload('#getMediaContentSource()')" stroke="none">getMediaContentSource() : String</text>
    </g>
    <g font-family="sans-serif" transform="matrix(0.8147,0,0,0.8147,6.5177,79.842)">
      <text xml:space="preserve" x="4" y="211.1719" stroke="none">+</text>
      <text xml:space="preserve" x="19" y="212.4199" onclick="umlload('#getMediaContentType()')" stroke="none">getMediaContentType() : String</text>
    </g>
    <g font-family="sans-serif" transform="matrix(0.8147,0,0,0.8147,6.5177,79.842)">
      <text xml:space="preserve" x="4" y="227.1719" stroke="none">+</text>
      <text xml:space="preserve" x="19" y="228.3887" onclick="umlload('#getMediaEditLinks()')" stroke="none">getMediaEditLinks() : List&lt;? extends LinkResource&gt;</text>
    </g>
    <g font-family="sans-serif" transform="matrix(0.8147,0,0,0.8147,6.5177,79.842)">
      <text xml:space="preserve" x="4" y="243.1719" stroke="none">+</text>
      <text xml:space="preserve" x="19" y="244.3574" onclick="umlload('#getMediaEntryProperties()')" stroke="none">getMediaEntryProperties() : Element</text>
    </g>
    <g font-family="sans-serif" transform="matrix(0.8147,0,0,0.8147,6.5177,79.842)">
      <text xml:space="preserve" x="4" y="259.1719" stroke="none">+</text>
      <text xml:space="preserve" x="19" y="260.3262" onclick="umlload('#getNavigationLinks()')" stroke="none">getNavigationLinks() : List&lt;? extends LinkResource&gt;</text>
    </g>
    <g font-family="sans-serif" transform="matrix(0.8147,0,0,0.8147,6.5177,79.842)">
      <text xml:space="preserve" x="4" y="275.1719" stroke="none">+</text>
      <text xml:space="preserve" x="19" y="276.2949" onclick="umlload('#getOperations()')" stroke="none">getOperations() : List&lt;ODataOperation&gt;</text>
    </g>
    <g font-family="sans-serif" transform="matrix(0.8147,0,0,0.8147,6.5177,79.842)">
      <text xml:space="preserve" x="4" y="291.1719" stroke="none">+</text>
      <text xml:space="preserve" x="19" y="292.2637" onclick="umlload('#getSelfLink()')" stroke="none">getSelfLink() : LinkResource</text>
    </g>
    <g font-family="sans-serif" transform="matrix(0.8147,0,0,0.8147,6.5177,79.842)">
      <text xml:space="preserve" x="4" y="307.1719" stroke="none">+</text>
      <text xml:space="preserve" x="19" y="308.2324" onclick="umlload('#getType()')" stroke="none">getType() : String</text>
    </g>
    <g font-family="sans-serif" transform="matrix(0.8147,0,0,0.8147,6.5177,79.842)">
      <text xml:space="preserve" x="4" y="323.1719" stroke="none">+</text>
      <text xml:space="preserve" x="19" y="324.2012" onclick="umlload('#isMediaEntry()')" stroke="none">isMediaEntry() : boolean</text>
    </g>
    <g font-family="sans-serif" transform="matrix(0.8147,0,0,0.8147,6.5177,79.842)">
      <text xml:space="preserve" x="4" y="339.1719" stroke="none">+</text>
      <text xml:space="preserve" x="19" y="340.1699" onclick="umlload('#setAssociationLinks(java.util.List)')" stroke="none">setAssociationLinks(List&lt;LinkResource&gt;) : void</text>
    </g>
    <g font-family="sans-serif" transform="matrix(0.8147,0,0,0.8147,6.5177,79.842)">
      <text xml:space="preserve" x="4" y="354.1719" stroke="none">+</text>
      <text xml:space="preserve" x="19" y="356.1387" onclick="umlload('#setContent(org.w3c.dom.Element)')" stroke="none">setContent(Element) : void</text>
    </g>
    <g font-family="sans-serif" transform="matrix(0.8147,0,0,0.8147,6.5177,79.842)">
      <text xml:space="preserve" x="4" y="370.1719" stroke="none">+</text>
      <text xml:space="preserve" x="19" y="372.1074" onclick="umlload('#setEditLink(com.msopentech.odatajclient.engine.data.LinkResource)')" stroke="none">setEditLink(LinkResource) : void</text>
    </g>
    <g font-family="sans-serif" transform="matrix(0.8147,0,0,0.8147,6.5177,79.842)">
      <text xml:space="preserve" x="4" y="386.1719" stroke="none">+</text>
      <text xml:space="preserve" x="19" y="388.0762" onclick="umlload('#setETag(java.lang.String)')" stroke="none">setETag(String) : void</text>
    </g>
    <g font-family="sans-serif" transform="matrix(0.8147,0,0,0.8147,6.5177,79.842)">
      <text xml:space="preserve" x="4" y="402.1719" stroke="none">+</text>
      <text xml:space="preserve" x="19" y="404.0449" onclick="umlload('#setId(java.lang.String)')" stroke="none">setId(String) : void</text>
    </g>
    <g font-family="sans-serif" transform="matrix(0.8147,0,0,0.8147,6.5177,79.842)">
      <text xml:space="preserve" x="4" y="418.1719" stroke="none">+</text>
      <text xml:space="preserve" x="19" y="420.0137" onclick="umlload('#setMediaContentSource(java.lang.String)')" stroke="none">setMediaContentSource(String) : void</text>
    </g>
    <g font-family="sans-serif" transform="matrix(0.8147,0,0,0.8147,6.5177,79.842)">
      <text xml:space="preserve" x="4" y="434.1719" stroke="none">+</text>
      <text xml:space="preserve" x="19" y="435.9824" onclick="umlload('#setMediaContentType(java.lang.String)')" stroke="none">setMediaContentType(String) : void</text>
    </g>
    <g font-family="sans-serif" transform="matrix(0.8147,0,0,0.8147,6.5177,79.842)">
      <text xml:space="preserve" x="4" y="450.1719" stroke="none">+</text>
      <text xml:space="preserve" x="19" y="451.9512" onclick="umlload('#setMediaEditLinks(java.util.List)')" stroke="none">setMediaEditLinks(List&lt;LinkResource&gt;) : void</text>
    </g>
    <g font-family="sans-serif" transform="matrix(0.8147,0,0,0.8147,6.5177,79.842)">
      <text xml:space="preserve" x="4" y="466.1719" stroke="none">+</text>
      <text xml:space="preserve" x="19" y="467.9199" onclick="umlload('#setMediaEntryProperties(org.w3c.dom.Element)')" stroke="none">setMediaEntryProperties(Element) : void</text>
    </g>
    <g font-family="sans-serif" transform="matrix(0.8147,0,0,0.8147,6.5177,79.842)">
      <text xml:space="preserve" x="4" y="482.1719" stroke="none">+</text>
      <text xml:space="preserve" x="19" y="483.8887" onclick="umlload('#setNavigationLinks(java.util.List)')" stroke="none">setNavigationLinks(List&lt;LinkResource&gt;) : void</text>
    </g>
    <g font-family="sans-serif" transform="matrix(0.8147,0,0,0.8147,6.5177,79.842)">
      <text xml:space="preserve" x="4" y="498.1719" stroke="none">+</text>
      <text xml:space="preserve" x="19" y="499.8574" onclick="umlload('#setSelfLink(com.msopentech.odatajclient.engine.data.LinkResource)')" stroke="none">setSelfLink(LinkResource) : void</text>
    </g>
    <g font-family="sans-serif" transform="matrix(0.8147,0,0,0.8147,6.5177,79.842)">
      <text xml:space="preserve" x="4" y="514.1719" stroke="none">+</text>
      <text xml:space="preserve" x="19" y="515.8262" onclick="umlload('#setType(java.lang.String)')" stroke="none">setType(String) : void</text>
    </g>
    <g font-family="sans-serif" transform="matrix(0.8147,0,0,0.8147,6.5177,79.842)">
      <text xml:space="preserve" x="-2" y="552.1543" onclick="umlload('http://www.yworks.com/')" stroke="none">yWorks UML Doclet</text>
    </g>
    <g stroke-dasharray="6,2" stroke-miterlimit="1.45" transform="matrix(0.8147,0,0,0.8147,6.5177,79.842)" stroke-linecap="butt">
      <path fill="none" d="M367.7047 16.3574 L433.71 16.3574"/>
      <line stroke-linecap="square" transform="matrix(1,0,0,1,433.71,16.3574)" fill="none" x1="0" x2="-14" y1="0" y2="-4" stroke-dasharray="none" stroke-miterlimit="10"/>
      <line stroke-linecap="square" transform="matrix(1,0,0,1,433.71,16.3574)" fill="none" x1="0" x2="-14" y1="0" y2="4" stroke-dasharray="none" stroke-miterlimit="10"/>
    </g>
    <g stroke-dasharray="6,2" stroke-miterlimit="1.45" transform="matrix(0.8147,0,0,0.8147,6.5177,79.842)" stroke-linecap="butt">
      <path fill="none" d="M367.7268 108.2811 L433.71 108.2811"/>
      <line stroke-linecap="square" transform="matrix(1,0,0,1,433.71,108.2811)" fill="none" x1="0" x2="-14" y1="0" y2="-4" stroke-dasharray="none" stroke-miterlimit="10"/>
      <line stroke-linecap="square" transform="matrix(1,0,0,1,433.71,108.2811)" fill="none" x1="0" x2="-14" y1="0" y2="4" stroke-dasharray="none" stroke-miterlimit="10"/>
    </g>
    <g stroke-dasharray="6,2" stroke-miterlimit="1.45" transform="matrix(0.8147,0,0,0.8147,6.5177,79.842)" stroke-linecap="butt">
      <path fill="none" d="M367.7081 195.414 L433.71 195.414"/>
      <line stroke-linecap="square" transform="matrix(1,0,0,1,433.71,195.414)" fill="none" x1="0" x2="-14" y1="0" y2="-4" stroke-dasharray="none" stroke-miterlimit="10"/>
      <line stroke-linecap="square" transform="matrix(1,0,0,1,433.71,195.414)" fill="none" x1="0" x2="-14" y1="0" y2="4" stroke-dasharray="none" stroke-miterlimit="10"/>
    </g>
    <g stroke-dasharray="6,2" stroke-miterlimit="1.45" transform="matrix(0.8147,0,0,0.8147,6.5177,79.842)" stroke-linecap="butt">
      <path fill="none" d="M367.6796 287.3377 L433.71 287.3377"/>
      <line stroke-linecap="square" transform="matrix(1,0,0,1,433.71,287.3377)" fill="none" x1="0" x2="-14" y1="0" y2="-4" stroke-dasharray="none" stroke-miterlimit="10"/>
      <line stroke-linecap="square" transform="matrix(1,0,0,1,433.71,287.3377)" fill="none" x1="0" x2="-14" y1="0" y2="4" stroke-dasharray="none" stroke-miterlimit="10"/>
    </g>
    <g stroke-dasharray="6,2" stroke-miterlimit="1.45" transform="matrix(0.8147,0,0,0.8147,6.5177,79.842)" stroke-linecap="butt">
      <path fill="none" d="M367.7154 384.0525 L433.71 384.0525"/>
      <line stroke-linecap="square" transform="matrix(1,0,0,1,433.71,384.0525)" fill="none" x1="0" x2="-14" y1="0" y2="-4" stroke-dasharray="none" stroke-miterlimit="10"/>
      <line stroke-linecap="square" transform="matrix(1,0,0,1,433.71,384.0525)" fill="none" x1="0" x2="-14" y1="0" y2="4" stroke-dasharray="none" stroke-miterlimit="10"/>
    </g>
  </g>
</svg>
