<?xml version="1.0" encoding="UTF-8"?><svg xmlns="http://www.w3.org/2000/svg" xmlns:xlink="http://www.w3.org/1999/xlink" fill-opacity="1" color-rendering="auto" color-interpolation="auto" stroke="black" text-rendering="auto" stroke-linecap="square" width="492" stroke-miterlimit="10" stroke-opacity="1" shape-rendering="auto" fill="black" stroke-dasharray="none" font-weight="normal" stroke-width="1" height="284" font-family="'Dialog'" font-style="normal" stroke-linejoin="miter" font-size="12" stroke-dashoffset="0" image-rendering="auto">
  <!--Generated by ySVG-->
  <defs id="genericDefs"/>
  <g>
    <defs id="defs1">
      <clipPath clipPathUnits="userSpaceOnUse" id="clipPath1">
        <path d="M0 0 L492 0 L492 284 L0 284 L0 0 Z"/>
      </clipPath>
      <clipPath clipPathUnits="userSpaceOnUse" id="clipPath2">
        <path d="M475.8616 190.623 C475.8616 199.6569 454.6664 206.9804 428.5208 206.9804 C402.3752 206.9804 381.18 199.6569 381.18 190.623 C381.18 181.5891 402.3752 174.2656 428.5208 174.2656 C454.6664 174.2656 475.8616 181.5891 475.8616 190.623 Z"/>
      </clipPath>
      <clipPath clipPathUnits="userSpaceOnUse" id="clipPath3">
        <path d="M381.18 87.1328 L414.14 87.1328 L414.14 110.2656 L381.18 110.2656 L381.18 87.1328 Z"/>
      </clipPath>
      <clipPath clipPathUnits="userSpaceOnUse" id="clipPath4">
        <path d="M381.18 0 L444.01 0 L444.01 23.1328 L381.18 23.1328 L381.18 0 Z"/>
      </clipPath>
      <clipPath clipPathUnits="userSpaceOnUse" id="clipPath5">
        <path d="M0 0 L315.18 0 L315.18 214.9804 L0 214.9804 L0 0 Z"/>
      </clipPath>
      <script type="text/ecmascript"><![CDATA[
function umlload(newLocation)
{
if (newLocation.charAt(0) != '#') {
if (newLocation.indexOf("://") > -1) {
window.parent.location.href = newLocation;
} else {
var tmp = window.parent.location.href;
tmp = tmp.substring(0, tmp.lastIndexOf("/") + 1);
window.parent.location.href = tmp.concat(newLocation);
}
} else {
window.parent.location.hash = newLocation;
}
}
]]></script>
    </defs>
    <g fill="rgb(238,238,255)" transform="matrix(1,0,0,1,8,26)" stroke="rgb(238,238,255)">
      <rect width="67.654" x="373.18" height="17.9688" y="148.2656" stroke="none"/>
    </g>
    <g fill="rgb(166,166,178)" stroke-miterlimit="1.45" transform="matrix(1,0,0,1,8,26)" stroke-linecap="butt" stroke="rgb(166,166,178)">
      <rect fill="none" width="67.654" x="373.18" height="17.9688" y="148.2656"/>
    </g>
    <g fill="rgb(238,238,255)" transform="matrix(1,0,0,1,8,26)" stroke="rgb(238,238,255)">
      <rect width="110.6816" x="373.18" height="48.746" y="166.2344" stroke="none"/>
    </g>
    <g fill="rgb(166,166,178)" stroke-miterlimit="1.45" transform="matrix(1,0,0,1,8,26)" stroke-linecap="butt" stroke="rgb(166,166,178)">
      <rect fill="none" width="110.6816" x="373.18" height="48.746" y="166.2344"/>
    </g>
    <g font-family="sans-serif" transform="matrix(1,0,0,1,8,26)">
      <text xml:space="preserve" x="379.18" y="161.4043" onclick="umlload('http://docs.oracle.com/javase/6/docs/api/java/util/package-summary.html')" stroke="none">java.util</text>
    </g>
    <g fill="rgb(221,221,255)" transform="matrix(1,0,0,1,8,26)" stroke="rgb(221,221,255)">
      <rect x="381.18" y="174.2656" clip-path="url(#clipPath2)" width="94.6816" height="32.7147" stroke="none"/>
    </g>
    <g fill="rgb(154,154,178)" stroke-miterlimit="1.45" transform="matrix(1,0,0,1,8,26)" stroke-linecap="butt" stroke="rgb(154,154,178)">
      <ellipse rx="47.3408" fill="none" ry="16.3574" cx="428.5208" cy="190.623"/>
    </g>
    <g font-style="italic" font-size="13" font-weight="bold" font-family="sans-serif" transform="matrix(1,0,0,1,8,26)">
      <text xml:space="preserve" x="400.0208" y="195.1235" onclick="umlload('http://docs.oracle.com/javase/6/docs/api/java/util/List.html')" stroke="none">List&lt;E&gt;</text>
    </g>
    <g fill="rgb(238,238,255)" transform="matrix(1,0,0,1,8,26)" stroke="rgb(238,238,255)">
      <rect width="69.7758" x="373.18" height="17.9688" y="61.1328" stroke="none"/>
    </g>
    <g fill="rgb(166,166,178)" stroke-miterlimit="1.45" transform="matrix(1,0,0,1,8,26)" stroke-linecap="butt" stroke="rgb(166,166,178)">
      <rect fill="none" width="69.7758" x="373.18" height="17.9688" y="61.1328"/>
    </g>
    <g fill="rgb(238,238,255)" transform="matrix(1,0,0,1,8,26)" stroke="rgb(238,238,255)">
      <rect width="73.96" x="373.18" height="39.1641" y="79.1016" stroke="none"/>
    </g>
    <g fill="rgb(166,166,178)" stroke-miterlimit="1.45" transform="matrix(1,0,0,1,8,26)" stroke-linecap="butt" stroke="rgb(166,166,178)">
      <rect fill="none" width="73.96" x="373.18" height="39.1641" y="79.1016"/>
    </g>
    <g font-family="sans-serif" transform="matrix(1,0,0,1,8,26)">
      <text xml:space="preserve" x="379.18" y="74.2715" onclick="umlload('http://docs.oracle.com/javase/6/docs/api/java/net/package-summary.html')" stroke="none">java.net</text>
    </g>
    <g fill="rgb(187,187,255)" transform="matrix(1,0,0,1,8,26)" stroke="rgb(187,187,255)">
      <rect x="381.18" y="87.1328" clip-path="url(#clipPath3)" width="32.96" height="23.1328" stroke="none"/>
    </g>
    <g fill="rgb(130,130,178)" stroke-miterlimit="1.45" transform="matrix(1,0,0,1,8,26)" stroke-linecap="butt" stroke="rgb(130,130,178)">
      <rect fill="none" width="32.96" x="381.18" height="23.1328" y="87.1328"/>
    </g>
    <g font-size="13" font-weight="bold" font-family="sans-serif" transform="matrix(1,0,0,1,8,26)">
      <text xml:space="preserve" x="385.66" y="103.1997" onclick="umlload('http://docs.oracle.com/javase/6/docs/api/java/net/URI.html')" stroke="none">URI</text>
    </g>
    <g fill="rgb(238,238,255)" transform="matrix(1,0,0,1,8,26)" stroke="rgb(238,238,255)">
      <rect width="76.1412" x="373.18" height="17.9688" y="-26" stroke="none"/>
    </g>
    <g fill="rgb(166,166,178)" stroke-miterlimit="1.45" transform="matrix(1,0,0,1,8,26)" stroke-linecap="butt" stroke="rgb(166,166,178)">
      <rect fill="none" width="76.1412" x="373.18" height="17.9688" y="-26"/>
    </g>
    <g fill="rgb(238,238,255)" transform="matrix(1,0,0,1,8,26)" stroke="rgb(238,238,255)">
      <rect width="79.83" x="373.18" height="39.1641" y="-8.0312" stroke="none"/>
    </g>
    <g fill="rgb(166,166,178)" stroke-miterlimit="1.45" transform="matrix(1,0,0,1,8,26)" stroke-linecap="butt" stroke="rgb(166,166,178)">
      <rect fill="none" width="79.83" x="373.18" height="39.1641" y="-8.0312"/>
    </g>
    <g font-family="sans-serif" transform="matrix(1,0,0,1,8,26)">
      <text xml:space="preserve" x="379.18" y="-12.8613" onclick="umlload('http://docs.oracle.com/javase/6/docs/api/java/lang/package-summary.html')" stroke="none">java.lang</text>
    </g>
    <g fill="rgb(187,187,255)" transform="matrix(1,0,0,1,8,26)" stroke="rgb(187,187,255)">
      <rect x="381.18" y="0" clip-path="url(#clipPath4)" width="62.83" height="23.1328" stroke="none"/>
    </g>
    <g fill="rgb(130,130,178)" stroke-miterlimit="1.45" transform="matrix(1,0,0,1,8,26)" stroke-linecap="butt" stroke="rgb(130,130,178)">
      <rect fill="none" width="62.83" x="381.18" height="23.1328" y="0"/>
    </g>
    <g font-size="13" font-weight="bold" font-family="sans-serif" transform="matrix(1,0,0,1,8,26)">
      <text xml:space="preserve" x="386.095" y="16.0669" onclick="umlload('http://docs.oracle.com/javase/6/docs/api/java/lang/Integer.html')" stroke="none">Integer</text>
    </g>
    <g fill="rgb(238,238,255)" transform="matrix(1,0,0,1,8,26)" stroke="rgb(238,238,255)">
      <rect width="298.9302" x="-8" height="17.9688" y="-26" stroke="none"/>
    </g>
    <g fill="rgb(166,166,178)" stroke-miterlimit="1.45" transform="matrix(1,0,0,1,8,26)" stroke-linecap="butt" stroke="rgb(166,166,178)">
      <rect fill="none" width="298.9302" x="-8" height="17.9688" y="-26"/>
    </g>
    <g fill="rgb(238,238,255)" transform="matrix(1,0,0,1,8,26)" stroke="rgb(238,238,255)">
      <rect width="331.18" x="-8" height="231.0116" y="-8.0312" stroke="none"/>
    </g>
    <g fill="rgb(166,166,178)" stroke-miterlimit="1.45" transform="matrix(1,0,0,1,8,26)" stroke-linecap="butt" stroke="rgb(166,166,178)">
      <rect fill="none" width="331.18" x="-8" height="231.0116" y="-8.0312"/>
    </g>
    <g font-family="sans-serif" transform="matrix(1,0,0,1,8,26)">
      <text xml:space="preserve" x="-2" y="-12.8613" onclick="umlload('package-summary.html')" stroke="none">com.msopentech.odatajclient.engine.data</text>
    </g>
    <g fill="rgb(221,221,255)" transform="matrix(1,0,0,1,8,26)" stroke="rgb(221,221,255)">
      <rect x="0" y="0" clip-path="url(#clipPath5)" width="315.18" height="38.5938" stroke="none"/>
      <line clip-path="url(#clipPath5)" fill="none" x1="0" x2="315.18" y1="38.5938" y2="38.5938" stroke="black"/>
      <line clip-path="url(#clipPath5)" x1="0" x2="315.18" y1="39.5938" y2="39.5938" stroke="none"/>
      <line clip-path="url(#clipPath5)" fill="none" x1="0" x2="315.18" y1="39.5938" y2="39.5938" stroke="black"/>
      <rect x="0" y="40.5938" clip-path="url(#clipPath5)" width="315.18" height="174.3866" stroke="none"/>
    </g>
    <g fill="rgb(154,154,178)" stroke-miterlimit="1.45" transform="matrix(1,0,0,1,8,26)" stroke-linecap="butt" stroke="rgb(154,154,178)">
      <rect fill="none" width="315.18" x="0" height="214.9804" y="0"/>
    </g>
    <g font-style="italic" font-size="16" font-weight="bold" font-family="sans-serif" transform="matrix(1,0,0,1,8,26)">
      <text xml:space="preserve" x="94.59" y="32.8203" onclick="umlload('#')" stroke="none">FeedResource</text>
    </g>
    <g font-family="sans-serif" transform="matrix(1,0,0,1,8,26)">
      <text xml:space="preserve" x="122.59" y="13.1387" stroke="none">«interface»</text>
    </g>
    <g font-family="sans-serif" transform="matrix(1,0,0,1,8,26)">
      <text xml:space="preserve" x="4" y="51.1719" stroke="none">+</text>
      <text xml:space="preserve" x="19" y="52.7324" onclick="umlload('#getBaseURI()')" stroke="none">getBaseURI() : URI</text>
    </g>
    <g font-family="sans-serif" transform="matrix(1,0,0,1,8,26)">
      <text xml:space="preserve" x="4" y="67.1719" stroke="none">+</text>
      <text xml:space="preserve" x="19" y="68.7012" onclick="umlload('#getCount()')" stroke="none">getCount() : Integer</text>
    </g>
    <g font-family="sans-serif" transform="matrix(1,0,0,1,8,26)">
      <text xml:space="preserve" x="4" y="83.1719" stroke="none">+</text>
      <text xml:space="preserve" x="19" y="84.6699" onclick="umlload('#getEntries()')" stroke="none">getEntries() : List&lt;? extends EntryResource&gt;</text>
    </g>
    <g font-family="sans-serif" transform="matrix(1,0,0,1,8,26)">
      <text xml:space="preserve" x="4" y="99.1719" stroke="none">+</text>
      <text xml:space="preserve" x="19" y="100.6387" onclick="umlload('#getNext()')" stroke="none">getNext() : URI</text>
    </g>
    <g font-family="sans-serif" transform="matrix(1,0,0,1,8,26)">
      <text xml:space="preserve" x="4" y="115.1719" stroke="none">+</text>
      <text xml:space="preserve" x="19" y="116.6074" onclick="umlload('#setEntries(java.util.List)')" stroke="none">setEntries(List&lt;EntryResource&gt;) : void</text>
    </g>
    <g font-family="sans-serif" transform="matrix(1,0,0,1,8,26)">
      <text xml:space="preserve" x="4" y="131.1719" stroke="none">+</text>
      <text xml:space="preserve" x="19" y="132.5762" onclick="umlload('#setNext(java.net.URI)')" stroke="none">setNext(URI) : void</text>
    </g>
    <g font-family="sans-serif" transform="matrix(1,0,0,1,8,26)">
      <text xml:space="preserve" x="-2" y="247.1543" onclick="umlload('http://www.yworks.com/')" stroke="none">yWorks UML Doclet</text>
    </g>
    <g stroke-dasharray="6,2" stroke-miterlimit="1.45" transform="matrix(1,0,0,1,8,26)" stroke-linecap="butt">
      <path fill="none" d="M315.1938 11.5664 L381.18 11.5664"/>
      <line stroke-linecap="square" transform="matrix(1,0,0,1,381.18,11.5664)" fill="none" x1="0" x2="-14" y1="0" y2="-4" stroke-dasharray="none" stroke-miterlimit="10"/>
      <line stroke-linecap="square" transform="matrix(1,0,0,1,381.18,11.5664)" fill="none" x1="0" x2="-14" y1="0" y2="4" stroke-dasharray="none" stroke-miterlimit="10"/>
    </g>
    <g stroke-dasharray="6,2" stroke-miterlimit="1.45" transform="matrix(1,0,0,1,8,26)" stroke-linecap="butt">
      <path fill="none" d="M315.1653 98.6992 L381.18 98.6992"/>
      <line stroke-linecap="square" transform="matrix(1,0,0,1,381.18,98.6992)" fill="none" x1="0" x2="-14" y1="0" y2="-4" stroke-dasharray="none" stroke-miterlimit="10"/>
      <line stroke-linecap="square" transform="matrix(1,0,0,1,381.18,98.6992)" fill="none" x1="0" x2="-14" y1="0" y2="4" stroke-dasharray="none" stroke-miterlimit="10"/>
    </g>
    <g stroke-dasharray="6,2" stroke-miterlimit="1.45" transform="matrix(1,0,0,1,8,26)" stroke-linecap="butt">
      <path fill="none" d="M315.181 190.623 L381.18 190.623"/>
      <line stroke-linecap="square" transform="matrix(1,0,0,1,381.18,190.623)" fill="none" x1="0" x2="-14" y1="0" y2="-4" stroke-dasharray="none" stroke-miterlimit="10"/>
      <line stroke-linecap="square" transform="matrix(1,0,0,1,381.18,190.623)" fill="none" x1="0" x2="-14" y1="0" y2="4" stroke-dasharray="none" stroke-miterlimit="10"/>
    </g>
  </g>
</svg>
