<?xml version="1.0" encoding="UTF-8"?><svg xmlns="http://www.w3.org/2000/svg" xmlns:xlink="http://www.w3.org/1999/xlink" fill-opacity="1" color-rendering="auto" color-interpolation="auto" stroke="black" text-rendering="auto" stroke-linecap="square" width="598" stroke-miterlimit="10" stroke-opacity="1" shape-rendering="auto" fill="black" stroke-dasharray="none" font-weight="normal" stroke-width="1" height="598" font-family="'Dialog'" font-style="normal" stroke-linejoin="miter" font-size="12" stroke-dashoffset="0" image-rendering="auto">
  <!--Generated by ySVG-->
  <defs id="genericDefs"/>
  <g>
    <defs id="defs1">
      <clipPath clipPathUnits="userSpaceOnUse" id="clipPath1">
        <path d="M0 0 L598 0 L598 598 L0 598 L0 0 Z"/>
      </clipPath>
      <clipPath clipPathUnits="userSpaceOnUse" id="clipPath2">
        <path d="M336.34 139.4295 L389.9 139.4295 L389.9 162.5623 L336.34 162.5623 L336.34 139.4295 Z"/>
      </clipPath>
      <clipPath clipPathUnits="userSpaceOnUse" id="clipPath3">
        <path d="M502.3969 16.3574 C502.3969 25.3913 465.2238 32.7147 419.3685 32.7147 C373.5131 32.7147 336.34 25.3913 336.34 16.3574 C336.34 7.3234 373.5131 0 419.3685 0 C465.2238 0 502.3969 7.3234 502.3969 16.3574 Z"/>
      </clipPath>
      <clipPath clipPathUnits="userSpaceOnUse" id="clipPath4">
        <path d="M499.4837 59.0721 C499.4837 68.106 462.9627 75.4295 417.9118 75.4295 C372.861 75.4295 336.34 68.106 336.34 59.0721 C336.34 50.0382 372.861 42.7147 417.9118 42.7147 C462.9627 42.7147 499.4837 50.0382 499.4837 59.0721 Z"/>
      </clipPath>
      <clipPath clipPathUnits="userSpaceOnUse" id="clipPath5">
        <path d="M0 0 L253.38 0 L253.38 232.2188 L0 232.2188 L0 0 Z"/>
      </clipPath>
      <script type="text/ecmascript"><![CDATA[
function umlload(newLocation)
{
if (newLocation.charAt(0) != '#') {
if (newLocation.indexOf("://") > -1) {
window.parent.location.href = newLocation;
} else {
var tmp = window.parent.location.href;
tmp = tmp.substring(0, tmp.lastIndexOf("/") + 1);
window.parent.location.href = tmp.concat(newLocation);
}
} else {
window.parent.location.hash = newLocation;
}
}
]]></script>
    </defs>
    <g fill="rgb(238,238,255)" transform="matrix(0.9403,0,0,0.9403,7.522,181.4686)" stroke="rgb(238,238,255)">
      <rect width="76.1412" x="328.34" height="17.9688" y="113.4295" stroke="none"/>
    </g>
    <g fill="rgb(166,166,178)" stroke-miterlimit="1.45" transform="matrix(0.9403,0,0,0.9403,7.522,181.4686)" stroke-linecap="butt" stroke="rgb(166,166,178)">
      <rect fill="none" width="76.1412" x="328.34" height="17.9688" y="113.4295"/>
    </g>
    <g fill="rgb(238,238,255)" transform="matrix(0.9403,0,0,0.9403,7.522,181.4686)" stroke="rgb(238,238,255)">
      <rect width="79.56" x="328.34" height="39.1641" y="131.3982" stroke="none"/>
    </g>
    <g fill="rgb(166,166,178)" stroke-miterlimit="1.45" transform="matrix(0.9403,0,0,0.9403,7.522,181.4686)" stroke-linecap="butt" stroke="rgb(166,166,178)">
      <rect fill="none" width="79.56" x="328.34" height="39.1641" y="131.3982"/>
    </g>
    <g font-family="sans-serif" transform="matrix(0.9403,0,0,0.9403,7.522,181.4686)">
      <text xml:space="preserve" x="334.34" y="126.5681" onclick="umlload('http://docs.oracle.com/javase/6/docs/api/java/lang/package-summary.html')" stroke="none">java.lang</text>
    </g>
    <g fill="rgb(187,187,255)" transform="matrix(0.9403,0,0,0.9403,7.522,181.4686)" stroke="rgb(187,187,255)">
      <rect x="336.34" y="139.4295" clip-path="url(#clipPath2)" width="53.56" height="23.1328" stroke="none"/>
    </g>
    <g fill="rgb(130,130,178)" stroke-miterlimit="1.45" transform="matrix(0.9403,0,0,0.9403,7.522,181.4686)" stroke-linecap="butt" stroke="rgb(130,130,178)">
      <rect fill="none" width="53.56" x="336.34" height="23.1328" y="139.4295"/>
    </g>
    <g font-size="13" font-weight="bold" font-family="sans-serif" transform="matrix(0.9403,0,0,0.9403,7.522,181.4686)">
      <text xml:space="preserve" x="341.12" y="155.4964" onclick="umlload('http://docs.oracle.com/javase/6/docs/api/java/lang/String.html')" stroke="none">String</text>
    </g>
    <g fill="rgb(238,238,255)" transform="matrix(0.9403,0,0,0.9403,7.522,181.4686)" stroke="rgb(238,238,255)">
      <rect width="298.9302" x="328.34" height="17.9688" y="-26" stroke="none"/>
    </g>
    <g fill="rgb(166,166,178)" stroke-miterlimit="1.45" transform="matrix(0.9403,0,0,0.9403,7.522,181.4686)" stroke-linecap="butt" stroke="rgb(166,166,178)">
      <rect fill="none" width="298.9302" x="328.34" height="17.9688" y="-26"/>
    </g>
    <g fill="rgb(238,238,255)" transform="matrix(0.9403,0,0,0.9403,7.522,181.4686)" stroke="rgb(238,238,255)">
      <rect width="299.057" x="328.34" height="91.4607" y="-8.0312" stroke="none"/>
    </g>
    <g fill="rgb(166,166,178)" stroke-miterlimit="1.45" transform="matrix(0.9403,0,0,0.9403,7.522,181.4686)" stroke-linecap="butt" stroke="rgb(166,166,178)">
      <rect fill="none" width="299.057" x="328.34" height="91.4607" y="-8.0312"/>
    </g>
    <g font-family="sans-serif" transform="matrix(0.9403,0,0,0.9403,7.522,181.4686)">
      <text xml:space="preserve" x="334.34" y="-12.8613" onclick="umlload('../../../../../com/msopentech/odatajclient/engine/data/package-summary.html')" stroke="none">com.msopentech.odatajclient.engine.data</text>
    </g>
    <g fill="rgb(221,221,255)" transform="matrix(0.9403,0,0,0.9403,7.522,181.4686)" stroke="rgb(221,221,255)">
      <rect x="336.34" y="0" clip-path="url(#clipPath3)" width="166.057" height="32.7147" stroke="none"/>
    </g>
    <g fill="rgb(154,154,178)" stroke-miterlimit="1.45" transform="matrix(0.9403,0,0,0.9403,7.522,181.4686)" stroke-linecap="butt" stroke="rgb(154,154,178)">
      <ellipse rx="83.0285" fill="none" ry="16.3574" cx="419.3685" cy="16.3574"/>
    </g>
    <g font-style="italic" font-size="13" font-weight="bold" font-family="sans-serif" transform="matrix(0.9403,0,0,0.9403,7.522,181.4686)">
      <text xml:space="preserve" x="366.3685" y="20.8579" onclick="umlload('../../../../../com/msopentech/odatajclient/engine/data/EntryResource.html')" stroke="none">EntryResource</text>
    </g>
    <g fill="rgb(221,221,255)" transform="matrix(0.9403,0,0,0.9403,7.522,181.4686)" stroke="rgb(221,221,255)">
      <rect x="336.34" y="42.7147" clip-path="url(#clipPath4)" width="163.1437" height="32.7147" stroke="none"/>
    </g>
    <g fill="rgb(154,154,178)" stroke-miterlimit="1.45" transform="matrix(0.9403,0,0,0.9403,7.522,181.4686)" stroke-linecap="butt" stroke="rgb(154,154,178)">
      <ellipse rx="81.5718" fill="none" ry="16.3574" cx="417.9118" cy="59.0721"/>
    </g>
    <g font-style="italic" font-size="13" font-weight="bold" font-family="sans-serif" transform="matrix(0.9403,0,0,0.9403,7.522,181.4686)">
      <text xml:space="preserve" x="365.9118" y="63.5726" onclick="umlload('../../../../../com/msopentech/odatajclient/engine/data/FeedResource.html')" stroke="none">FeedResource</text>
    </g>
    <g fill="rgb(238,238,255)" transform="matrix(0.9403,0,0,0.9403,7.522,181.4686)" stroke="rgb(238,238,255)">
      <rect width="298.9302" x="-8" height="17.9688" y="-26" stroke="none"/>
    </g>
    <g fill="rgb(166,166,178)" stroke-miterlimit="1.45" transform="matrix(0.9403,0,0,0.9403,7.522,181.4686)" stroke-linecap="butt" stroke="rgb(166,166,178)">
      <rect fill="none" width="298.9302" x="-8" height="17.9688" y="-26"/>
    </g>
    <g fill="rgb(238,238,255)" transform="matrix(0.9403,0,0,0.9403,7.522,181.4686)" stroke="rgb(238,238,255)">
      <rect width="299.38" x="-8" height="248.25" y="-8.0312" stroke="none"/>
    </g>
    <g fill="rgb(166,166,178)" stroke-miterlimit="1.45" transform="matrix(0.9403,0,0,0.9403,7.522,181.4686)" stroke-linecap="butt" stroke="rgb(166,166,178)">
      <rect fill="none" width="299.38" x="-8" height="248.25" y="-8.0312"/>
    </g>
    <g font-family="sans-serif" transform="matrix(0.9403,0,0,0.9403,7.522,181.4686)">
      <text xml:space="preserve" x="-2" y="-12.8613" onclick="umlload('package-summary.html')" stroke="none">com.msopentech.odatajclient.engine.data</text>
    </g>
    <g fill="rgb(221,221,255)" transform="matrix(0.9403,0,0,0.9403,7.522,181.4686)" stroke="rgb(221,221,255)">
      <rect x="0" y="0" clip-path="url(#clipPath5)" width="253.38" height="38.5938" stroke="none"/>
      <line clip-path="url(#clipPath5)" fill="none" x1="0" x2="253.38" y1="38.5938" y2="38.5938" stroke="black"/>
      <line clip-path="url(#clipPath5)" x1="0" x2="253.38" y1="39.5938" y2="39.5938" stroke="none"/>
      <line clip-path="url(#clipPath5)" fill="none" x1="0" x2="253.38" y1="39.5938" y2="39.5938" stroke="black"/>
      <rect x="0" y="40.5938" clip-path="url(#clipPath5)" width="253.38" height="191.625" stroke="none"/>
    </g>
    <g fill="rgb(154,154,178)" stroke-miterlimit="1.45" transform="matrix(0.9403,0,0,0.9403,7.522,181.4686)" stroke-linecap="butt" stroke="rgb(154,154,178)">
      <rect fill="none" width="253.38" x="0" height="232.2188" y="0"/>
    </g>
    <g font-style="italic" font-size="16" font-weight="bold" font-family="sans-serif" transform="matrix(0.9403,0,0,0.9403,7.522,181.4686)">
      <text xml:space="preserve" x="67.19" y="32.8203" onclick="umlload('#')" stroke="none">LinkResource</text>
    </g>
    <g font-family="sans-serif" transform="matrix(0.9403,0,0,0.9403,7.522,181.4686)">
      <text xml:space="preserve" x="91.69" y="13.1387" stroke="none">«interface»</text>
    </g>
    <g font-family="sans-serif" transform="matrix(0.9403,0,0,0.9403,7.522,181.4686)">
      <text xml:space="preserve" x="4" y="51.1719" stroke="none">+</text>
      <text xml:space="preserve" x="19" y="52.7324" onclick="umlload('#getHref()')" stroke="none">getHref() : String</text>
    </g>
    <g font-family="sans-serif" transform="matrix(0.9403,0,0,0.9403,7.522,181.4686)">
      <text xml:space="preserve" x="4" y="67.1719" stroke="none">+</text>
      <text xml:space="preserve" x="19" y="68.7012" onclick="umlload('#getInlineEntry()')" stroke="none">getInlineEntry() : EntryResource</text>
    </g>
    <g font-family="sans-serif" transform="matrix(0.9403,0,0,0.9403,7.522,181.4686)">
      <text xml:space="preserve" x="4" y="83.1719" stroke="none">+</text>
      <text xml:space="preserve" x="19" y="84.6699" onclick="umlload('#getInlineFeed()')" stroke="none">getInlineFeed() : FeedResource</text>
    </g>
    <g font-family="sans-serif" transform="matrix(0.9403,0,0,0.9403,7.522,181.4686)">
      <text xml:space="preserve" x="4" y="99.1719" stroke="none">+</text>
      <text xml:space="preserve" x="19" y="100.6387" onclick="umlload('#getRel()')" stroke="none">getRel() : String</text>
    </g>
    <g font-family="sans-serif" transform="matrix(0.9403,0,0,0.9403,7.522,181.4686)">
      <text xml:space="preserve" x="4" y="115.1719" stroke="none">+</text>
      <text xml:space="preserve" x="19" y="116.6074" onclick="umlload('#getTitle()')" stroke="none">getTitle() : String</text>
    </g>
    <g font-family="sans-serif" transform="matrix(0.9403,0,0,0.9403,7.522,181.4686)">
      <text xml:space="preserve" x="4" y="131.1719" stroke="none">+</text>
      <text xml:space="preserve" x="19" y="132.5762" onclick="umlload('#getType()')" stroke="none">getType() : String</text>
    </g>
    <g font-family="sans-serif" transform="matrix(0.9403,0,0,0.9403,7.522,181.4686)">
      <text xml:space="preserve" x="4" y="147.1719" stroke="none">+</text>
      <text xml:space="preserve" x="19" y="148.5449" onclick="umlload('#setHref(java.lang.String)')" stroke="none">setHref(String) : void</text>
    </g>
    <g font-family="sans-serif" transform="matrix(0.9403,0,0,0.9403,7.522,181.4686)">
      <text xml:space="preserve" x="4" y="163.1719" stroke="none">+</text>
      <text xml:space="preserve" x="19" y="164.5137" onclick="umlload('#setInlineEntry(com.msopentech.odatajclient.engine.data.EntryResource)')" stroke="none">setInlineEntry(EntryResource) : void</text>
    </g>
    <g font-family="sans-serif" transform="matrix(0.9403,0,0,0.9403,7.522,181.4686)">
      <text xml:space="preserve" x="4" y="179.1719" stroke="none">+</text>
      <text xml:space="preserve" x="19" y="180.4824" onclick="umlload('#setInlineFeed(com.msopentech.odatajclient.engine.data.FeedResource)')" stroke="none">setInlineFeed(FeedResource) : void</text>
    </g>
    <g font-family="sans-serif" transform="matrix(0.9403,0,0,0.9403,7.522,181.4686)">
      <text xml:space="preserve" x="4" y="195.1719" stroke="none">+</text>
      <text xml:space="preserve" x="19" y="196.4512" onclick="umlload('#setRel(java.lang.String)')" stroke="none">setRel(String) : void</text>
    </g>
    <g font-family="sans-serif" transform="matrix(0.9403,0,0,0.9403,7.522,181.4686)">
      <text xml:space="preserve" x="4" y="211.1719" stroke="none">+</text>
      <text xml:space="preserve" x="19" y="212.4199" onclick="umlload('#setTitle(java.lang.String)')" stroke="none">setTitle(String) : void</text>
    </g>
    <g font-family="sans-serif" transform="matrix(0.9403,0,0,0.9403,7.522,181.4686)">
      <text xml:space="preserve" x="4" y="227.1719" stroke="none">+</text>
      <text xml:space="preserve" x="19" y="228.3887" onclick="umlload('#setType(java.lang.String)')" stroke="none">setType(String) : void</text>
    </g>
    <g font-family="sans-serif" transform="matrix(0.9403,0,0,0.9403,7.522,181.4686)">
      <text xml:space="preserve" x="-2" y="265.1543" onclick="umlload('http://www.yworks.com/')" stroke="none">yWorks UML Doclet</text>
    </g>
    <g stroke-dasharray="6,2" stroke-miterlimit="1.45" transform="matrix(0.9403,0,0,0.9403,7.522,181.4686)" stroke-linecap="butt">
      <path fill="none" d="M253.4149 16.3574 L336.34 16.3574"/>
      <line stroke-linecap="square" transform="matrix(1,0,0,1,336.34,16.3574)" fill="none" x1="0" x2="-14" y1="0" y2="-4" stroke-dasharray="none" stroke-miterlimit="10"/>
      <line stroke-linecap="square" transform="matrix(1,0,0,1,336.34,16.3574)" fill="none" x1="0" x2="-14" y1="0" y2="4" stroke-dasharray="none" stroke-miterlimit="10"/>
    </g>
    <g stroke-dasharray="6,2" stroke-miterlimit="1.45" transform="matrix(0.9403,0,0,0.9403,7.522,181.4686)" stroke-linecap="butt">
      <path fill="none" d="M253.353 59.0721 L336.34 59.0721"/>
      <line stroke-linecap="square" transform="matrix(1,0,0,1,336.34,59.0721)" fill="none" x1="0" x2="-14" y1="0" y2="-4" stroke-dasharray="none" stroke-miterlimit="10"/>
      <line stroke-linecap="square" transform="matrix(1,0,0,1,336.34,59.0721)" fill="none" x1="0" x2="-14" y1="0" y2="4" stroke-dasharray="none" stroke-miterlimit="10"/>
    </g>
    <g stroke-dasharray="6,2" stroke-miterlimit="1.45" transform="matrix(0.9403,0,0,0.9403,7.522,181.4686)" stroke-linecap="butt">
      <path fill="none" d="M253.3613 150.9959 L336.34 150.9959"/>
      <line stroke-linecap="square" transform="matrix(1,0,0,1,336.34,150.9959)" fill="none" x1="0" x2="-14" y1="0" y2="-4" stroke-dasharray="none" stroke-miterlimit="10"/>
      <line stroke-linecap="square" transform="matrix(1,0,0,1,336.34,150.9959)" fill="none" x1="0" x2="-14" y1="0" y2="4" stroke-dasharray="none" stroke-miterlimit="10"/>
    </g>
  </g>
</svg>
