<?xml version="1.0" encoding="UTF-8"?><svg xmlns="http://www.w3.org/2000/svg" xmlns:xlink="http://www.w3.org/1999/xlink" fill-opacity="1" color-rendering="auto" color-interpolation="auto" stroke="black" text-rendering="auto" stroke-linecap="square" width="439" stroke-miterlimit="10" stroke-opacity="1" shape-rendering="auto" fill="black" stroke-dasharray="none" font-weight="normal" stroke-width="1" height="266" font-family="'Dialog'" font-style="normal" stroke-linejoin="miter" font-size="12" stroke-dashoffset="0" image-rendering="auto">
  <!--Generated by ySVG-->
  <defs id="genericDefs"/>
  <g>
    <defs id="defs1">
      <clipPath clipPathUnits="userSpaceOnUse" id="clipPath1">
        <path d="M0 0 L439 0 L439 266 L0 266 L0 0 Z"/>
      </clipPath>
      <clipPath clipPathUnits="userSpaceOnUse" id="clipPath2">
        <path d="M336.34 0 L389.9 0 L389.9 23.1328 L336.34 23.1328 L336.34 0 Z"/>
      </clipPath>
      <clipPath clipPathUnits="userSpaceOnUse" id="clipPath3">
        <path d="M336.34 33.1328 L422.86 33.1328 L422.86 56.2656 L336.34 56.2656 L336.34 33.1328 Z"/>
      </clipPath>
      <clipPath clipPathUnits="userSpaceOnUse" id="clipPath4">
        <path d="M71.07 -107.1328 L153.47 -107.1328 L153.47 -84 L71.07 -84 L71.07 -107.1328 Z"/>
      </clipPath>
      <clipPath clipPathUnits="userSpaceOnUse" id="clipPath5">
        <path d="M0 0 L224.54 0 L224.54 88.5 L0 88.5 L0 0 Z"/>
      </clipPath>
      <script type="text/ecmascript"><![CDATA[
function umlload(newLocation)
{
if (newLocation.charAt(0) != '#') {
if (newLocation.indexOf("://") > -1) {
window.parent.location.href = newLocation;
} else {
var tmp = window.parent.location.href;
tmp = tmp.substring(0, tmp.lastIndexOf("/") + 1);
window.parent.location.href = tmp.concat(newLocation);
}
} else {
window.parent.location.hash = newLocation;
}
}
]]></script>
    </defs>
    <g fill="rgb(238,238,255)" transform="matrix(1,0,0,1,8,134)" stroke="rgb(238,238,255)">
      <rect width="76.1412" x="328.34" height="17.9688" y="-26" stroke="none"/>
    </g>
    <g fill="rgb(166,166,178)" stroke-miterlimit="1.45" transform="matrix(1,0,0,1,8,134)" stroke-linecap="butt" stroke="rgb(166,166,178)">
      <rect fill="none" width="76.1412" x="328.34" height="17.9688" y="-26"/>
    </g>
    <g fill="rgb(238,238,255)" transform="matrix(1,0,0,1,8,134)" stroke="rgb(238,238,255)">
      <rect width="102.52" x="328.34" height="72.2969" y="-8.0312" stroke="none"/>
    </g>
    <g fill="rgb(166,166,178)" stroke-miterlimit="1.45" transform="matrix(1,0,0,1,8,134)" stroke-linecap="butt" stroke="rgb(166,166,178)">
      <rect fill="none" width="102.52" x="328.34" height="72.2969" y="-8.0312"/>
    </g>
    <g font-family="sans-serif" transform="matrix(1,0,0,1,8,134)">
      <text xml:space="preserve" x="334.34" y="-12.8613" onclick="umlload('http://docs.oracle.com/javase/6/docs/api/java/lang/package-summary.html')" stroke="none">java.lang</text>
    </g>
    <g fill="rgb(187,187,255)" transform="matrix(1,0,0,1,8,134)" stroke="rgb(187,187,255)">
      <rect x="336.34" y="0" clip-path="url(#clipPath2)" width="53.56" height="23.1328" stroke="none"/>
    </g>
    <g fill="rgb(130,130,178)" stroke-miterlimit="1.45" transform="matrix(1,0,0,1,8,134)" stroke-linecap="butt" stroke="rgb(130,130,178)">
      <rect fill="none" width="53.56" x="336.34" height="23.1328" y="0"/>
    </g>
    <g font-size="13" font-weight="bold" font-family="sans-serif" transform="matrix(1,0,0,1,8,134)">
      <text xml:space="preserve" x="341.12" y="16.0669" onclick="umlload('http://docs.oracle.com/javase/6/docs/api/java/lang/String.html')" stroke="none">String</text>
    </g>
    <g fill="rgb(187,187,255)" transform="matrix(1,0,0,1,8,134)" stroke="rgb(187,187,255)">
      <rect x="336.34" y="33.1328" clip-path="url(#clipPath3)" width="86.52" height="23.1328" stroke="none"/>
    </g>
    <g fill="rgb(130,130,178)" stroke-miterlimit="1.45" transform="matrix(1,0,0,1,8,134)" stroke-linecap="butt" stroke="rgb(130,130,178)">
      <rect fill="none" width="86.52" x="336.34" height="23.1328" y="33.1328"/>
    </g>
    <g font-size="13" font-weight="bold" font-family="sans-serif" transform="matrix(1,0,0,1,8,134)">
      <text xml:space="preserve" x="341.6" y="49.1997" onclick="umlload('http://docs.oracle.com/javase/6/docs/api/java/lang/Throwable.html')" stroke="none">Throwable</text>
    </g>
    <g fill="rgb(238,238,255)" transform="matrix(1,0,0,1,8,134)" stroke="rgb(238,238,255)">
      <rect width="76.1412" x="63.07" height="17.9688" y="-133.1328" stroke="none"/>
    </g>
    <g fill="rgb(166,166,178)" stroke-miterlimit="1.45" transform="matrix(1,0,0,1,8,134)" stroke-linecap="butt" stroke="rgb(166,166,178)">
      <rect fill="none" width="76.1412" x="63.07" height="17.9688" y="-133.1328"/>
    </g>
    <g fill="rgb(238,238,255)" transform="matrix(1,0,0,1,8,134)" stroke="rgb(238,238,255)">
      <rect width="98.4" x="63.07" height="39.1641" y="-115.1641" stroke="none"/>
    </g>
    <g fill="rgb(166,166,178)" stroke-miterlimit="1.45" transform="matrix(1,0,0,1,8,134)" stroke-linecap="butt" stroke="rgb(166,166,178)">
      <rect fill="none" width="98.4" x="63.07" height="39.1641" y="-115.1641"/>
    </g>
    <g font-family="sans-serif" transform="matrix(1,0,0,1,8,134)">
      <text xml:space="preserve" x="69.07" y="-119.9941" onclick="umlload('http://docs.oracle.com/javase/6/docs/api/java/lang/package-summary.html')" stroke="none">java.lang</text>
    </g>
    <g fill="rgb(153,153,255)" transform="matrix(1,0,0,1,8,134)" stroke="rgb(153,153,255)">
      <rect x="71.07" y="-107.1328" clip-path="url(#clipPath4)" width="82.4" height="23.1328" stroke="none"/>
    </g>
    <g fill="rgb(106,106,178)" stroke-miterlimit="1.45" transform="matrix(1,0,0,1,8,134)" stroke-linecap="butt" stroke="rgb(106,106,178)">
      <rect fill="none" width="82.4" x="71.07" height="23.1328" y="-107.1328"/>
    </g>
    <g font-size="13" font-weight="bold" font-family="sans-serif" transform="matrix(1,0,0,1,8,134)">
      <text xml:space="preserve" x="76.27" y="-91.0659" onclick="umlload('http://docs.oracle.com/javase/6/docs/api/java/lang/Exception.html')" stroke="none">Exception</text>
    </g>
    <g fill="rgb(238,238,255)" transform="matrix(1,0,0,1,8,134)" stroke="rgb(238,238,255)">
      <rect width="298.9302" x="-8" height="17.9688" y="-26" stroke="none"/>
    </g>
    <g fill="rgb(166,166,178)" stroke-miterlimit="1.45" transform="matrix(1,0,0,1,8,134)" stroke-linecap="butt" stroke="rgb(166,166,178)">
      <rect fill="none" width="298.9302" x="-8" height="17.9688" y="-26"/>
    </g>
    <g fill="rgb(238,238,255)" transform="matrix(1,0,0,1,8,134)" stroke="rgb(238,238,255)">
      <rect width="298.9302" x="-8" height="104.5312" y="-8.0312" stroke="none"/>
    </g>
    <g fill="rgb(166,166,178)" stroke-miterlimit="1.45" transform="matrix(1,0,0,1,8,134)" stroke-linecap="butt" stroke="rgb(166,166,178)">
      <rect fill="none" width="298.9302" x="-8" height="104.5312" y="-8.0312"/>
    </g>
    <g font-family="sans-serif" transform="matrix(1,0,0,1,8,134)">
      <text xml:space="preserve" x="-2" y="-12.8613" onclick="umlload('package-summary.html')" stroke="none">com.msopentech.odatajclient.engine.data</text>
    </g>
    <g fill="rgb(153,153,255)" transform="matrix(1,0,0,1,8,134)" stroke="rgb(153,153,255)">
      <rect x="0" y="0" clip-path="url(#clipPath5)" width="224.54" height="38.5938" stroke="none"/>
      <line clip-path="url(#clipPath5)" fill="none" x1="0" x2="224.54" y1="38.5938" y2="38.5938" stroke="black"/>
      <rect x="0" y="39.5938" clip-path="url(#clipPath5)" width="224.54" height="47.9062" stroke="none"/>
      <line clip-path="url(#clipPath5)" fill="none" x1="0" x2="224.54" y1="87.5" y2="87.5" stroke="black"/>
      <line clip-path="url(#clipPath5)" x1="0" x2="224.54" y1="88.5" y2="88.5" stroke="none"/>
    </g>
    <g fill="rgb(106,106,178)" stroke-miterlimit="1.45" transform="matrix(1,0,0,1,8,134)" stroke-linecap="butt" stroke="rgb(106,106,178)">
      <rect fill="none" width="224.54" x="0" height="88.5" y="0"/>
    </g>
    <g font-size="16" font-weight="bold" font-family="sans-serif" transform="matrix(1,0,0,1,8,134)">
      <text xml:space="preserve" x="27.27" y="32.8203" onclick="umlload('#')" stroke="none">NoValidEntityFound</text>
    </g>
    <g font-family="sans-serif" transform="matrix(1,0,0,1,8,134)">
      <text xml:space="preserve" x="74.77" y="13.1387" stroke="none">«exception»</text>
    </g>
    <g font-family="sans-serif" transform="matrix(1,0,0,1,8,134)">
      <text xml:space="preserve" x="4" y="50.1719" stroke="none">+</text>
      <text xml:space="preserve" x="19" y="51.7324" onclick="umlload('#NoValidEntityFound()')" stroke="none">NoValidEntityFound()</text>
    </g>
    <g font-family="sans-serif" transform="matrix(1,0,0,1,8,134)">
      <text xml:space="preserve" x="4" y="66.1719" stroke="none">+</text>
      <text xml:space="preserve" x="19" y="67.7012" onclick="umlload('#NoValidEntityFound(java.lang.String)')" stroke="none">NoValidEntityFound(String)</text>
    </g>
    <g font-family="sans-serif" transform="matrix(1,0,0,1,8,134)">
      <text xml:space="preserve" x="4" y="82.1719" stroke="none">+</text>
      <text xml:space="preserve" x="19" y="83.6699" onclick="umlload('#NoValidEntityFound(java.lang.Throwable)')" stroke="none">NoValidEntityFound(Throwable)</text>
    </g>
    <g font-family="sans-serif" transform="matrix(1,0,0,1,8,134)">
      <text xml:space="preserve" x="-2" y="121.1543" onclick="umlload('http://www.yworks.com/')" stroke="none">yWorks UML Doclet</text>
    </g>
    <g stroke-miterlimit="1.45" transform="matrix(1,0,0,1,8,134)" stroke-linecap="butt">
      <path fill="none" d="M112.27 0 L112.27 -69"/>
      <path fill="white" d="M112.27 -84 L106.27 -68 L118.27 -68 Z" stroke="none"/>
      <path fill="none" d="M112.27 -84 L106.27 -68 L118.27 -68 Z"/>
      <path fill="none" stroke-dasharray="6,2" d="M224.5584 11.5664 L336.34 11.5664"/>
      <line stroke-linecap="square" transform="matrix(1,0,0,1,336.34,11.5664)" fill="none" x1="0" x2="-14" y1="0" y2="-4" stroke-miterlimit="10"/>
      <line stroke-linecap="square" transform="matrix(1,0,0,1,336.34,11.5664)" fill="none" x1="0" x2="-14" y1="0" y2="4" stroke-miterlimit="10"/>
    </g>
    <g stroke-dasharray="6,2" stroke-miterlimit="1.45" transform="matrix(1,0,0,1,8,134)" stroke-linecap="butt">
      <path fill="none" d="M224.5603 44.6992 L336.34 44.6992"/>
      <line stroke-linecap="square" transform="matrix(1,0,0,1,336.34,44.6992)" fill="none" x1="0" x2="-14" y1="0" y2="-4" stroke-dasharray="none" stroke-miterlimit="10"/>
      <line stroke-linecap="square" transform="matrix(1,0,0,1,336.34,44.6992)" fill="none" x1="0" x2="-14" y1="0" y2="4" stroke-dasharray="none" stroke-miterlimit="10"/>
    </g>
  </g>
</svg>
