<?xml version="1.0" encoding="UTF-8"?><svg xmlns="http://www.w3.org/2000/svg" xmlns:xlink="http://www.w3.org/1999/xlink" fill-opacity="1" color-rendering="auto" color-interpolation="auto" stroke="black" text-rendering="auto" stroke-linecap="square" width="598" stroke-miterlimit="10" stroke-opacity="1" shape-rendering="auto" fill="black" stroke-dasharray="none" font-weight="normal" stroke-width="1" height="598" font-family="'Dialog'" font-style="normal" stroke-linejoin="miter" font-size="12" stroke-dashoffset="0" image-rendering="auto">
  <!--Generated by ySVG-->
  <defs id="genericDefs"/>
  <g>
    <defs id="defs1">
      <clipPath clipPathUnits="userSpaceOnUse" id="clipPath1">
        <path d="M0 0 L598 0 L598 598 L0 598 L0 0 Z"/>
      </clipPath>
      <clipPath clipPathUnits="userSpaceOnUse" id="clipPath2">
        <path d="M629.5815 103.4902 C629.5815 112.5241 607.4081 119.8475 580.0558 119.8475 C552.7034 119.8475 530.53 112.5241 530.53 103.4902 C530.53 94.4563 552.7034 87.1328 580.0558 87.1328 C607.4081 87.1328 629.5815 94.4563 629.5815 103.4902 Z"/>
      </clipPath>
      <clipPath clipPathUnits="userSpaceOnUse" id="clipPath3">
        <path d="M530.53 0 L660.31 0 L660.31 23.1328 L530.53 23.1328 L530.53 0 Z"/>
      </clipPath>
      <clipPath clipPathUnits="userSpaceOnUse" id="clipPath4">
        <path d="M-346.34 0 L-167.12 0 L-167.12 23.1328 L-346.34 23.1328 L-346.34 0 Z"/>
      </clipPath>
      <clipPath clipPathUnits="userSpaceOnUse" id="clipPath5">
        <path d="M203.425 -107.1328 L261.105 -107.1328 L261.105 -84 L203.425 -84 L203.425 -107.1328 Z"/>
      </clipPath>
      <clipPath clipPathUnits="userSpaceOnUse" id="clipPath6">
        <path d="M0 0 L464.53 0 L464.53 127.8475 L0 127.8475 L0 0 Z"/>
      </clipPath>
      <script type="text/ecmascript"><![CDATA[
function umlload(newLocation)
{
if (newLocation.charAt(0) != '#') {
if (newLocation.indexOf("://") > -1) {
window.parent.location.href = newLocation;
} else {
var tmp = window.parent.location.href;
tmp = tmp.substring(0, tmp.lastIndexOf("/") + 1);
window.parent.location.href = tmp.concat(newLocation);
}
} else {
window.parent.location.hash = newLocation;
}
}
]]></script>
    </defs>
    <g fill="rgb(238,238,255)" transform="matrix(0.4676,0,0,0.4676,165.9812,290.3503)" stroke="rgb(238,238,255)">
      <rect width="101.6028" x="522.53" height="17.9688" y="61.1328" stroke="none"/>
    </g>
    <g fill="rgb(166,166,178)" stroke-miterlimit="1.45" transform="matrix(0.4676,0,0,0.4676,165.9812,290.3503)" stroke-linecap="butt" stroke="rgb(166,166,178)">
      <rect fill="none" width="101.6028" x="522.53" height="17.9688" y="61.1328"/>
    </g>
    <g fill="rgb(238,238,255)" transform="matrix(0.4676,0,0,0.4676,165.9812,290.3503)" stroke="rgb(238,238,255)">
      <rect width="115.0515" x="522.53" height="48.746" y="79.1016" stroke="none"/>
    </g>
    <g fill="rgb(166,166,178)" stroke-miterlimit="1.45" transform="matrix(0.4676,0,0,0.4676,165.9812,290.3503)" stroke-linecap="butt" stroke="rgb(166,166,178)">
      <rect fill="none" width="115.0515" x="522.53" height="48.746" y="79.1016"/>
    </g>
    <g font-family="sans-serif" transform="matrix(0.4676,0,0,0.4676,165.9812,290.3503)">
      <text xml:space="preserve" x="528.53" y="74.2715" onclick="umlload('http://docs.oracle.com/javase/6/docs/api/org/w3c/dom/package-summary.html')" stroke="none">org.w3c.dom</text>
    </g>
    <g fill="rgb(221,221,255)" transform="matrix(0.4676,0,0,0.4676,165.9812,290.3503)" stroke="rgb(221,221,255)">
      <rect x="530.53" y="87.1328" clip-path="url(#clipPath2)" width="99.0515" height="32.7147" stroke="none"/>
    </g>
    <g fill="rgb(154,154,178)" stroke-miterlimit="1.45" transform="matrix(0.4676,0,0,0.4676,165.9812,290.3503)" stroke-linecap="butt" stroke="rgb(154,154,178)">
      <ellipse rx="49.5258" fill="none" ry="16.3574" cx="580.0558" cy="103.4902"/>
    </g>
    <g font-style="italic" font-size="13" font-weight="bold" font-family="sans-serif" transform="matrix(0.4676,0,0,0.4676,165.9812,290.3503)">
      <text xml:space="preserve" x="550.0558" y="107.9907" onclick="umlload('http://docs.oracle.com/javase/6/docs/api/org/w3c/dom/Element.html')" stroke="none">Element</text>
    </g>
    <g fill="rgb(238,238,255)" transform="matrix(0.4676,0,0,0.4676,165.9812,290.3503)" stroke="rgb(238,238,255)">
      <rect width="400.7766" x="522.53" height="17.9688" y="-26" stroke="none"/>
    </g>
    <g fill="rgb(166,166,178)" stroke-miterlimit="1.45" transform="matrix(0.4676,0,0,0.4676,165.9812,290.3503)" stroke-linecap="butt" stroke="rgb(166,166,178)">
      <rect fill="none" width="400.7766" x="522.53" height="17.9688" y="-26"/>
    </g>
    <g fill="rgb(238,238,255)" transform="matrix(0.4676,0,0,0.4676,165.9812,290.3503)" stroke="rgb(238,238,255)">
      <rect width="400.78" x="522.53" height="39.1641" y="-8.0312" stroke="none"/>
    </g>
    <g fill="rgb(166,166,178)" stroke-miterlimit="1.45" transform="matrix(0.4676,0,0,0.4676,165.9812,290.3503)" stroke-linecap="butt" stroke="rgb(166,166,178)">
      <rect fill="none" width="400.78" x="522.53" height="39.1641" y="-8.0312"/>
    </g>
    <g font-family="sans-serif" transform="matrix(0.4676,0,0,0.4676,165.9812,290.3503)">
      <text xml:space="preserve" x="528.53" y="-12.8613" onclick="umlload('../../../../../com/msopentech/odatajclient/engine/data/metadata/edm/package-summary.html')" stroke="none">com.msopentech.odatajclient.engine.data.metadata.edm</text>
    </g>
    <g fill="rgb(170,170,255)" transform="matrix(0.4676,0,0,0.4676,165.9812,290.3503)" stroke="rgb(170,170,255)">
      <rect x="530.53" y="0" clip-path="url(#clipPath3)" width="129.78" height="23.1328" stroke="none"/>
    </g>
    <g fill="rgb(118,118,178)" stroke-miterlimit="1.45" transform="matrix(0.4676,0,0,0.4676,165.9812,290.3503)" stroke-linecap="butt" stroke="rgb(118,118,178)">
      <rect fill="none" width="129.78" x="530.53" height="23.1328" y="0"/>
    </g>
    <g font-size="13" font-weight="bold" font-family="sans-serif" transform="matrix(0.4676,0,0,0.4676,165.9812,290.3503)">
      <text xml:space="preserve" x="536.42" y="16.0669" onclick="umlload('../../../../../com/msopentech/odatajclient/engine/data/metadata/edm/EdmSimpleType.html')" stroke="none">EdmSimpleType</text>
    </g>
    <g fill="rgb(238,238,255)" transform="matrix(0.4676,0,0,0.4676,165.9812,290.3503)" stroke="rgb(238,238,255)">
      <rect width="298.9302" x="-354.34" height="17.9688" y="-26" stroke="none"/>
    </g>
    <g fill="rgb(166,166,178)" stroke-miterlimit="1.45" transform="matrix(0.4676,0,0,0.4676,165.9812,290.3503)" stroke-linecap="butt" stroke="rgb(166,166,178)">
      <rect fill="none" width="298.9302" x="-354.34" height="17.9688" y="-26"/>
    </g>
    <g fill="rgb(238,238,255)" transform="matrix(0.4676,0,0,0.4676,165.9812,290.3503)" stroke="rgb(238,238,255)">
      <rect width="299.22" x="-354.34" height="39.1641" y="-8.0312" stroke="none"/>
    </g>
    <g fill="rgb(166,166,178)" stroke-miterlimit="1.45" transform="matrix(0.4676,0,0,0.4676,165.9812,290.3503)" stroke-linecap="butt" stroke="rgb(166,166,178)">
      <rect fill="none" width="299.22" x="-354.34" height="39.1641" y="-8.0312"/>
    </g>
    <g font-family="sans-serif" transform="matrix(0.4676,0,0,0.4676,165.9812,290.3503)">
      <text xml:space="preserve" x="-348.34" y="-12.8613" onclick="umlload('../../../../../com/msopentech/odatajclient/engine/data/package-summary.html')" stroke="none">com.msopentech.odatajclient.engine.data</text>
    </g>
    <g fill="rgb(187,187,255)" transform="matrix(0.4676,0,0,0.4676,165.9812,290.3503)" stroke="rgb(187,187,255)">
      <rect x="-346.34" y="0" clip-path="url(#clipPath4)" width="179.22" height="23.1328" stroke="none"/>
    </g>
    <g fill="rgb(130,130,178)" stroke-miterlimit="1.45" transform="matrix(0.4676,0,0,0.4676,165.9812,290.3503)" stroke-linecap="butt" stroke="rgb(130,130,178)">
      <rect fill="none" width="179.22" x="-346.34" height="23.1328" y="0"/>
    </g>
    <g font-size="13" font-weight="bold" font-family="sans-serif" transform="matrix(0.4676,0,0,0.4676,165.9812,290.3503)">
      <text xml:space="preserve" x="-339.73" y="16.0669" onclick="umlload('../../../../../com/msopentech/odatajclient/engine/data/ODataGeospatialValue.html')" stroke="none">ODataGeospatialValue</text>
    </g>
    <g fill="rgb(238,238,255)" transform="matrix(0.4676,0,0,0.4676,165.9812,290.3503)" stroke="rgb(238,238,255)">
      <rect width="76.1412" x="195.425" height="17.9688" y="-133.1328" stroke="none"/>
    </g>
    <g fill="rgb(166,166,178)" stroke-miterlimit="1.45" transform="matrix(0.4676,0,0,0.4676,165.9812,290.3503)" stroke-linecap="butt" stroke="rgb(166,166,178)">
      <rect fill="none" width="76.1412" x="195.425" height="17.9688" y="-133.1328"/>
    </g>
    <g fill="rgb(238,238,255)" transform="matrix(0.4676,0,0,0.4676,165.9812,290.3503)" stroke="rgb(238,238,255)">
      <rect width="76.1412" x="195.425" height="39.1641" y="-115.1641" stroke="none"/>
    </g>
    <g fill="rgb(166,166,178)" stroke-miterlimit="1.45" transform="matrix(0.4676,0,0,0.4676,165.9812,290.3503)" stroke-linecap="butt" stroke="rgb(166,166,178)">
      <rect fill="none" width="76.1412" x="195.425" height="39.1641" y="-115.1641"/>
    </g>
    <g font-family="sans-serif" transform="matrix(0.4676,0,0,0.4676,165.9812,290.3503)">
      <text xml:space="preserve" x="201.425" y="-119.9941" onclick="umlload('http://docs.oracle.com/javase/6/docs/api/java/lang/package-summary.html')" stroke="none">java.lang</text>
    </g>
    <g fill="rgb(187,187,255)" transform="matrix(0.4676,0,0,0.4676,165.9812,290.3503)" stroke="rgb(187,187,255)">
      <rect x="203.425" y="-107.1328" clip-path="url(#clipPath5)" width="57.68" height="23.1328" stroke="none"/>
    </g>
    <g fill="rgb(130,130,178)" stroke-miterlimit="1.45" transform="matrix(0.4676,0,0,0.4676,165.9812,290.3503)" stroke-linecap="butt" stroke="rgb(130,130,178)">
      <rect fill="none" width="57.68" x="203.425" height="23.1328" y="-107.1328"/>
    </g>
    <g font-size="13" font-weight="bold" font-family="sans-serif" transform="matrix(0.4676,0,0,0.4676,165.9812,290.3503)">
      <text xml:space="preserve" x="208.265" y="-91.0659" onclick="umlload('http://docs.oracle.com/javase/6/docs/api/java/lang/Object.html')" stroke="none">Object</text>
    </g>
    <g fill="rgb(238,238,255)" transform="matrix(0.4676,0,0,0.4676,165.9812,290.3503)" stroke="rgb(238,238,255)">
      <rect width="298.9302" x="-8" height="17.9688" y="-26" stroke="none"/>
    </g>
    <g fill="rgb(166,166,178)" stroke-miterlimit="1.45" transform="matrix(0.4676,0,0,0.4676,165.9812,290.3503)" stroke-linecap="butt" stroke="rgb(166,166,178)">
      <rect fill="none" width="298.9302" x="-8" height="17.9688" y="-26"/>
    </g>
    <g fill="rgb(238,238,255)" transform="matrix(0.4676,0,0,0.4676,165.9812,290.3503)" stroke="rgb(238,238,255)">
      <rect width="480.53" x="-8" height="143.8788" y="-8.0312" stroke="none"/>
    </g>
    <g fill="rgb(166,166,178)" stroke-miterlimit="1.45" transform="matrix(0.4676,0,0,0.4676,165.9812,290.3503)" stroke-linecap="butt" stroke="rgb(166,166,178)">
      <rect fill="none" width="480.53" x="-8" height="143.8788" y="-8.0312"/>
    </g>
    <g font-family="sans-serif" transform="matrix(0.4676,0,0,0.4676,165.9812,290.3503)">
      <text xml:space="preserve" x="-2" y="-12.8613" onclick="umlload('package-summary.html')" stroke="none">com.msopentech.odatajclient.engine.data</text>
    </g>
    <g fill="rgb(187,187,255)" transform="matrix(0.4676,0,0,0.4676,165.9812,290.3503)" stroke="rgb(187,187,255)">
      <rect x="0" y="0" clip-path="url(#clipPath6)" width="464.53" height="26.625" stroke="none"/>
      <line clip-path="url(#clipPath6)" fill="none" x1="0" x2="464.53" y1="26.625" y2="26.625" stroke="black"/>
      <rect x="0" y="27.625" clip-path="url(#clipPath6)" width="464.53" height="15.9688" stroke="none"/>
      <line clip-path="url(#clipPath6)" fill="none" x1="0" x2="464.53" y1="43.5938" y2="43.5938" stroke="black"/>
      <rect x="0" y="44.5938" clip-path="url(#clipPath6)" width="464.53" height="83.2538" stroke="none"/>
    </g>
    <g fill="rgb(130,130,178)" stroke-miterlimit="1.45" transform="matrix(0.4676,0,0,0.4676,165.9812,290.3503)" stroke-linecap="butt" stroke="rgb(130,130,178)">
      <rect fill="none" width="464.53" x="0" height="127.8475" y="0"/>
    </g>
    <g font-size="16" font-weight="bold" font-family="sans-serif" transform="matrix(0.4676,0,0,0.4676,165.9812,290.3503)">
      <text xml:space="preserve" x="101.265" y="18.8516" onclick="umlload('#')" stroke="none">ODataGeospatialValue.Builder</text>
    </g>
    <g font-family="sans-serif" transform="matrix(0.4676,0,0,0.4676,165.9812,290.3503)">
      <text xml:space="preserve" x="4" y="38.1719" stroke="none">+</text>
      <text xml:space="preserve" x="19" y="39.7637" onclick="umlload('#ODataGeospatialValue.Builder()')" stroke="none">ODataGeospatialValue.Builder()</text>
    </g>
    <g font-family="sans-serif" transform="matrix(0.4676,0,0,0.4676,165.9812,290.3503)">
      <text xml:space="preserve" x="4" y="55.1719" stroke="none">+</text>
      <text xml:space="preserve" x="19" y="56.7324" onclick="umlload('#build()')" stroke="none">build() : ODataGeospatialValue</text>
    </g>
    <g font-family="sans-serif" transform="matrix(0.4676,0,0,0.4676,165.9812,290.3503)">
      <text xml:space="preserve" x="4" y="71.1719" stroke="none">+</text>
      <text xml:space="preserve" x="19" y="72.7012" onclick="umlload('#setTree(org.w3c.dom.Element)')" stroke="none">setTree(Element) : ODataGeospatialValue.Builder</text>
    </g>
    <g font-family="sans-serif" transform="matrix(0.4676,0,0,0.4676,165.9812,290.3503)">
      <text xml:space="preserve" x="4" y="87.1719" stroke="none">+</text>
      <text xml:space="preserve" x="19" y="88.6699" onclick="umlload('#setType(com.msopentech.odatajclient.engine.data.metadata.edm.EdmSimpleType)')" stroke="none">setType(EdmSimpleType) : ODataGeospatialValue.Builder</text>
    </g>
    <g font-family="sans-serif" transform="matrix(0.4676,0,0,0.4676,165.9812,290.3503)">
      <text xml:space="preserve" x="4" y="103.1719" stroke="none">+</text>
      <text xml:space="preserve" x="19" y="104.6387" onclick="umlload('#setValue(T)')" stroke="none">setValue(T) : &lt;T extends Geospatial&gt; ODataGeospatialValue.Builder</text>
    </g>
    <g font-family="sans-serif" transform="matrix(0.4676,0,0,0.4676,165.9812,290.3503)">
      <text xml:space="preserve" x="-349" y="160.1543" onclick="umlload('http://www.yworks.com/')" stroke="none">yWorks UML Doclet</text>
    </g>
    <g stroke-miterlimit="1.45" transform="matrix(0.4676,0,0,0.4676,165.9812,290.3503)" stroke-linecap="butt">
      <path fill="none" d="M232.265 -0.0026 L232.265 -69"/>
      <path fill="white" d="M232.265 -84 L226.265 -68 L238.265 -68 Z" stroke="none"/>
      <path fill="none" d="M232.265 -84 L226.265 -68 L238.265 -68 Z"/>
      <path fill="none" d="M-0.0255 11.5664 L-167.12 11.5664"/>
      <line stroke-linecap="square" transform="matrix(-1,0,0,-1,-167.12,11.5664)" fill="none" x1="0" x2="-14" y1="0" y2="-4" stroke-miterlimit="10"/>
      <line stroke-linecap="square" transform="matrix(-1,0,0,-1,-167.12,11.5664)" fill="none" x1="0" x2="-14" y1="0" y2="4" stroke-miterlimit="10"/>
    </g>
    <g stroke-dasharray="6,2" stroke-miterlimit="1.45" transform="matrix(0.4676,0,0,0.4676,165.9812,290.3503)" stroke-linecap="butt">
      <path fill="none" d="M464.5122 11.5664 L530.53 11.5664"/>
      <line stroke-linecap="square" transform="matrix(1,0,0,1,530.53,11.5664)" fill="none" x1="0" x2="-14" y1="0" y2="-4" stroke-dasharray="none" stroke-miterlimit="10"/>
      <line stroke-linecap="square" transform="matrix(1,0,0,1,530.53,11.5664)" fill="none" x1="0" x2="-14" y1="0" y2="4" stroke-dasharray="none" stroke-miterlimit="10"/>
    </g>
    <g stroke-dasharray="6,2" stroke-miterlimit="1.45" transform="matrix(0.4676,0,0,0.4676,165.9812,290.3503)" stroke-linecap="butt">
      <path fill="none" d="M464.5359 103.4902 L530.53 103.4902"/>
      <line stroke-linecap="square" transform="matrix(1,0,0,1,530.53,103.4902)" fill="none" x1="0" x2="-14" y1="0" y2="-4" stroke-dasharray="none" stroke-miterlimit="10"/>
      <line stroke-linecap="square" transform="matrix(1,0,0,1,530.53,103.4902)" fill="none" x1="0" x2="-14" y1="0" y2="4" stroke-dasharray="none" stroke-miterlimit="10"/>
    </g>
  </g>
</svg>
