<?xml version="1.0" encoding="UTF-8"?><svg xmlns="http://www.w3.org/2000/svg" xmlns:xlink="http://www.w3.org/1999/xlink" fill-opacity="1" color-rendering="auto" color-interpolation="auto" stroke="black" text-rendering="auto" stroke-linecap="square" width="598" stroke-miterlimit="10" stroke-opacity="1" shape-rendering="auto" fill="black" stroke-dasharray="none" font-weight="normal" stroke-width="1" height="598" font-family="'Dialog'" font-style="normal" stroke-linejoin="miter" font-size="12" stroke-dashoffset="0" image-rendering="auto">
  <!--Generated by ySVG-->
  <defs id="genericDefs"/>
  <g>
    <defs id="defs1">
      <clipPath clipPathUnits="userSpaceOnUse" id="clipPath1">
        <path d="M0 0 L598 0 L598 598 L0 598 L0 0 Z"/>
      </clipPath>
      <clipPath clipPathUnits="userSpaceOnUse" id="clipPath2">
        <path d="M336.34 0 L435.22 0 L435.22 23.1328 L336.34 23.1328 L336.34 0 Z"/>
      </clipPath>
      <clipPath clipPathUnits="userSpaceOnUse" id="clipPath3">
        <path d="M-66 190.623 C-66 199.6569 -87.1952 206.9804 -113.3408 206.9804 C-139.4864 206.9804 -160.6816 199.6569 -160.6816 190.623 C-160.6816 181.5891 -139.4864 174.2656 -113.3408 174.2656 C-87.1952 174.2656 -66 181.5891 -66 190.623 Z"/>
      </clipPath>
      <clipPath clipPathUnits="userSpaceOnUse" id="clipPath4">
        <path d="M-123.86 87.1328 L-90.9 87.1328 L-90.9 110.2656 L-123.86 110.2656 L-123.86 87.1328 Z"/>
      </clipPath>
      <clipPath clipPathUnits="userSpaceOnUse" id="clipPath5">
        <path d="M-130.04 0 L-67.21 0 L-67.21 23.1328 L-130.04 23.1328 L-130.04 0 Z"/>
      </clipPath>
      <clipPath clipPathUnits="userSpaceOnUse" id="clipPath6">
        <path d="M554.1247 -100.3574 C554.1247 -91.3234 505.5388 -84 445.605 -84 C385.6712 -84 337.0853 -91.3234 337.0853 -100.3574 C337.0853 -109.3913 385.6712 -116.7147 445.605 -116.7147 C505.5388 -116.7147 554.1247 -109.3913 554.1247 -100.3574 Z"/>
      </clipPath>
      <clipPath clipPathUnits="userSpaceOnUse" id="clipPath7">
        <path d="M84.46 -107.1328 L174.07 -107.1328 L174.07 -84 L84.46 -84 L84.46 -107.1328 Z"/>
      </clipPath>
      <clipPath clipPathUnits="userSpaceOnUse" id="clipPath8">
        <path d="M0 0 L258.53 0 L258.53 214.9804 L0 214.9804 L0 0 Z"/>
      </clipPath>
      <script type="text/ecmascript"><![CDATA[
function umlload(newLocation)
{
if (newLocation.charAt(0) != '#') {
if (newLocation.indexOf("://") > -1) {
window.parent.location.href = newLocation;
} else {
var tmp = window.parent.location.href;
tmp = tmp.substring(0, tmp.lastIndexOf("/") + 1);
window.parent.location.href = tmp.concat(newLocation);
}
} else {
window.parent.location.hash = newLocation;
}
}
]]></script>
    </defs>
    <g fill="rgb(238,238,255)" transform="matrix(0.7503,0,0,0.7503,126.803,255.857)" stroke="rgb(238,238,255)">
      <rect width="298.9302" x="328.34" height="17.9688" y="-26" stroke="none"/>
    </g>
    <g fill="rgb(166,166,178)" stroke-miterlimit="1.45" transform="matrix(0.7503,0,0,0.7503,126.803,255.857)" stroke-linecap="butt" stroke="rgb(166,166,178)">
      <rect fill="none" width="298.9302" x="328.34" height="17.9688" y="-26"/>
    </g>
    <g fill="rgb(238,238,255)" transform="matrix(0.7503,0,0,0.7503,126.803,255.857)" stroke="rgb(238,238,255)">
      <rect width="298.9302" x="328.34" height="39.1641" y="-8.0312" stroke="none"/>
    </g>
    <g fill="rgb(166,166,178)" stroke-miterlimit="1.45" transform="matrix(0.7503,0,0,0.7503,126.803,255.857)" stroke-linecap="butt" stroke="rgb(166,166,178)">
      <rect fill="none" width="298.9302" x="328.34" height="39.1641" y="-8.0312"/>
    </g>
    <g font-family="sans-serif" transform="matrix(0.7503,0,0,0.7503,126.803,255.857)">
      <text xml:space="preserve" x="334.34" y="-12.8613" onclick="umlload('../../../../../com/msopentech/odatajclient/engine/data/package-summary.html')" stroke="none">com.msopentech.odatajclient.engine.data</text>
    </g>
    <g fill="rgb(187,187,255)" transform="matrix(0.7503,0,0,0.7503,126.803,255.857)" stroke="rgb(187,187,255)">
      <rect x="336.34" y="0" clip-path="url(#clipPath2)" width="98.88" height="23.1328" stroke="none"/>
    </g>
    <g fill="rgb(130,130,178)" stroke-miterlimit="1.45" transform="matrix(0.7503,0,0,0.7503,126.803,255.857)" stroke-linecap="butt" stroke="rgb(130,130,178)">
      <rect fill="none" width="98.88" x="336.34" height="23.1328" y="0"/>
    </g>
    <g font-size="13" font-weight="bold" font-family="sans-serif" transform="matrix(0.7503,0,0,0.7503,126.803,255.857)">
      <text xml:space="preserve" x="341.78" y="16.0669" onclick="umlload('../../../../../com/msopentech/odatajclient/engine/data/ODataEntity.html')" stroke="none">ODataEntity</text>
    </g>
    <g fill="rgb(238,238,255)" transform="matrix(0.7503,0,0,0.7503,126.803,255.857)" stroke="rgb(238,238,255)">
      <rect width="67.654" x="-168.6816" height="17.9688" y="148.2656" stroke="none"/>
    </g>
    <g fill="rgb(166,166,178)" stroke-miterlimit="1.45" transform="matrix(0.7503,0,0,0.7503,126.803,255.857)" stroke-linecap="butt" stroke="rgb(166,166,178)">
      <rect fill="none" width="67.654" x="-168.6816" height="17.9688" y="148.2656"/>
    </g>
    <g fill="rgb(238,238,255)" transform="matrix(0.7503,0,0,0.7503,126.803,255.857)" stroke="rgb(238,238,255)">
      <rect width="110.6816" x="-168.6816" height="48.746" y="166.2344" stroke="none"/>
    </g>
    <g fill="rgb(166,166,178)" stroke-miterlimit="1.45" transform="matrix(0.7503,0,0,0.7503,126.803,255.857)" stroke-linecap="butt" stroke="rgb(166,166,178)">
      <rect fill="none" width="110.6816" x="-168.6816" height="48.746" y="166.2344"/>
    </g>
    <g font-family="sans-serif" transform="matrix(0.7503,0,0,0.7503,126.803,255.857)">
      <text xml:space="preserve" x="-162.6816" y="161.4043" onclick="umlload('http://docs.oracle.com/javase/6/docs/api/java/util/package-summary.html')" stroke="none">java.util</text>
    </g>
    <g fill="rgb(221,221,255)" transform="matrix(0.7503,0,0,0.7503,126.803,255.857)" stroke="rgb(221,221,255)">
      <rect x="-160.6816" y="174.2656" clip-path="url(#clipPath3)" width="94.6816" height="32.7147" stroke="none"/>
    </g>
    <g fill="rgb(154,154,178)" stroke-miterlimit="1.45" transform="matrix(0.7503,0,0,0.7503,126.803,255.857)" stroke-linecap="butt" stroke="rgb(154,154,178)">
      <ellipse rx="47.3408" fill="none" ry="16.3574" cx="-113.3408" cy="190.623"/>
    </g>
    <g font-style="italic" font-size="13" font-weight="bold" font-family="sans-serif" transform="matrix(0.7503,0,0,0.7503,126.803,255.857)">
      <text xml:space="preserve" x="-141.8408" y="195.1235" onclick="umlload('http://docs.oracle.com/javase/6/docs/api/java/util/List.html')" stroke="none">List&lt;E&gt;</text>
    </g>
    <g fill="rgb(238,238,255)" transform="matrix(0.7503,0,0,0.7503,126.803,255.857)" stroke="rgb(238,238,255)">
      <rect width="69.7758" x="-131.86" height="17.9688" y="61.1328" stroke="none"/>
    </g>
    <g fill="rgb(166,166,178)" stroke-miterlimit="1.45" transform="matrix(0.7503,0,0,0.7503,126.803,255.857)" stroke-linecap="butt" stroke="rgb(166,166,178)">
      <rect fill="none" width="69.7758" x="-131.86" height="17.9688" y="61.1328"/>
    </g>
    <g fill="rgb(238,238,255)" transform="matrix(0.7503,0,0,0.7503,126.803,255.857)" stroke="rgb(238,238,255)">
      <rect width="73.96" x="-131.86" height="39.1641" y="79.1016" stroke="none"/>
    </g>
    <g fill="rgb(166,166,178)" stroke-miterlimit="1.45" transform="matrix(0.7503,0,0,0.7503,126.803,255.857)" stroke-linecap="butt" stroke="rgb(166,166,178)">
      <rect fill="none" width="73.96" x="-131.86" height="39.1641" y="79.1016"/>
    </g>
    <g font-family="sans-serif" transform="matrix(0.7503,0,0,0.7503,126.803,255.857)">
      <text xml:space="preserve" x="-125.86" y="74.2715" onclick="umlload('http://docs.oracle.com/javase/6/docs/api/java/net/package-summary.html')" stroke="none">java.net</text>
    </g>
    <g fill="rgb(187,187,255)" transform="matrix(0.7503,0,0,0.7503,126.803,255.857)" stroke="rgb(187,187,255)">
      <rect x="-123.86" y="87.1328" clip-path="url(#clipPath4)" width="32.96" height="23.1328" stroke="none"/>
    </g>
    <g fill="rgb(130,130,178)" stroke-miterlimit="1.45" transform="matrix(0.7503,0,0,0.7503,126.803,255.857)" stroke-linecap="butt" stroke="rgb(130,130,178)">
      <rect fill="none" width="32.96" x="-123.86" height="23.1328" y="87.1328"/>
    </g>
    <g font-size="13" font-weight="bold" font-family="sans-serif" transform="matrix(0.7503,0,0,0.7503,126.803,255.857)">
      <text xml:space="preserve" x="-119.38" y="103.1997" onclick="umlload('http://docs.oracle.com/javase/6/docs/api/java/net/URI.html')" stroke="none">URI</text>
    </g>
    <g fill="rgb(238,238,255)" transform="matrix(0.7503,0,0,0.7503,126.803,255.857)" stroke="rgb(238,238,255)">
      <rect width="76.1412" x="-138.04" height="17.9688" y="-26" stroke="none"/>
    </g>
    <g fill="rgb(166,166,178)" stroke-miterlimit="1.45" transform="matrix(0.7503,0,0,0.7503,126.803,255.857)" stroke-linecap="butt" stroke="rgb(166,166,178)">
      <rect fill="none" width="76.1412" x="-138.04" height="17.9688" y="-26"/>
    </g>
    <g fill="rgb(238,238,255)" transform="matrix(0.7503,0,0,0.7503,126.803,255.857)" stroke="rgb(238,238,255)">
      <rect width="79.83" x="-138.04" height="39.1641" y="-8.0312" stroke="none"/>
    </g>
    <g fill="rgb(166,166,178)" stroke-miterlimit="1.45" transform="matrix(0.7503,0,0,0.7503,126.803,255.857)" stroke-linecap="butt" stroke="rgb(166,166,178)">
      <rect fill="none" width="79.83" x="-138.04" height="39.1641" y="-8.0312"/>
    </g>
    <g font-family="sans-serif" transform="matrix(0.7503,0,0,0.7503,126.803,255.857)">
      <text xml:space="preserve" x="-132.04" y="-12.8613" onclick="umlload('http://docs.oracle.com/javase/6/docs/api/java/lang/package-summary.html')" stroke="none">java.lang</text>
    </g>
    <g fill="rgb(187,187,255)" transform="matrix(0.7503,0,0,0.7503,126.803,255.857)" stroke="rgb(187,187,255)">
      <rect x="-130.04" y="0" clip-path="url(#clipPath5)" width="62.83" height="23.1328" stroke="none"/>
    </g>
    <g fill="rgb(130,130,178)" stroke-miterlimit="1.45" transform="matrix(0.7503,0,0,0.7503,126.803,255.857)" stroke-linecap="butt" stroke="rgb(130,130,178)">
      <rect fill="none" width="62.83" x="-130.04" height="23.1328" y="0"/>
    </g>
    <g font-size="13" font-weight="bold" font-family="sans-serif" transform="matrix(0.7503,0,0,0.7503,126.803,255.857)">
      <text xml:space="preserve" x="-125.125" y="16.0669" onclick="umlload('http://docs.oracle.com/javase/6/docs/api/java/lang/Integer.html')" stroke="none">Integer</text>
    </g>
    <g fill="rgb(238,238,255)" transform="matrix(0.7503,0,0,0.7503,126.803,255.857)" stroke="rgb(238,238,255)">
      <rect width="298.9302" x="302.0853" height="17.9688" y="-142.7147" stroke="none"/>
    </g>
    <g fill="rgb(166,166,178)" stroke-miterlimit="1.45" transform="matrix(0.7503,0,0,0.7503,126.803,255.857)" stroke-linecap="butt" stroke="rgb(166,166,178)">
      <rect fill="none" width="298.9302" x="302.0853" height="17.9688" y="-142.7147"/>
    </g>
    <g fill="rgb(238,238,255)" transform="matrix(0.7503,0,0,0.7503,126.803,255.857)" stroke="rgb(238,238,255)">
      <rect width="299.0394" x="302.0853" height="48.746" y="-124.746" stroke="none"/>
    </g>
    <g fill="rgb(166,166,178)" stroke-miterlimit="1.45" transform="matrix(0.7503,0,0,0.7503,126.803,255.857)" stroke-linecap="butt" stroke="rgb(166,166,178)">
      <rect fill="none" width="299.0394" x="302.0853" height="48.746" y="-124.746"/>
    </g>
    <g font-family="sans-serif" transform="matrix(0.7503,0,0,0.7503,126.803,255.857)">
      <text xml:space="preserve" x="308.0853" y="-129.5761" onclick="umlload('../../../../../com/msopentech/odatajclient/engine/data/package-summary.html')" stroke="none">com.msopentech.odatajclient.engine.data</text>
    </g>
    <g fill="rgb(221,221,255)" transform="matrix(0.7503,0,0,0.7503,126.803,255.857)" stroke="rgb(221,221,255)">
      <rect x="337.0853" y="-116.7147" clip-path="url(#clipPath6)" width="217.0394" height="32.7147" stroke="none"/>
    </g>
    <g fill="rgb(154,154,178)" stroke-miterlimit="1.45" transform="matrix(0.7503,0,0,0.7503,126.803,255.857)" stroke-linecap="butt" stroke="rgb(154,154,178)">
      <ellipse rx="108.5197" fill="none" ry="16.3574" cx="445.605" cy="-100.3574"/>
    </g>
    <g font-style="italic" font-size="13" font-weight="bold" font-family="sans-serif" transform="matrix(0.7503,0,0,0.7503,126.803,255.857)">
      <text xml:space="preserve" x="375.105" y="-95.8569" onclick="umlload('../../../../../com/msopentech/odatajclient/engine/data/ODataInvokeResult.html')" stroke="none">ODataInvokeResult</text>
    </g>
    <g fill="rgb(238,238,255)" transform="matrix(0.7503,0,0,0.7503,126.803,255.857)" stroke="rgb(238,238,255)">
      <rect width="298.9302" x="-13.54" height="17.9688" y="-133.1328" stroke="none"/>
    </g>
    <g fill="rgb(166,166,178)" stroke-miterlimit="1.45" transform="matrix(0.7503,0,0,0.7503,126.803,255.857)" stroke-linecap="butt" stroke="rgb(166,166,178)">
      <rect fill="none" width="298.9302" x="-13.54" height="17.9688" y="-133.1328"/>
    </g>
    <g fill="rgb(238,238,255)" transform="matrix(0.7503,0,0,0.7503,126.803,255.857)" stroke="rgb(238,238,255)">
      <rect width="298.9302" x="-13.54" height="39.1641" y="-115.1641" stroke="none"/>
    </g>
    <g fill="rgb(166,166,178)" stroke-miterlimit="1.45" transform="matrix(0.7503,0,0,0.7503,126.803,255.857)" stroke-linecap="butt" stroke="rgb(166,166,178)">
      <rect fill="none" width="298.9302" x="-13.54" height="39.1641" y="-115.1641"/>
    </g>
    <g font-family="sans-serif" transform="matrix(0.7503,0,0,0.7503,126.803,255.857)">
      <text xml:space="preserve" x="-7.54" y="-119.9941" onclick="umlload('../../../../../com/msopentech/odatajclient/engine/data/package-summary.html')" stroke="none">com.msopentech.odatajclient.engine.data</text>
    </g>
    <g fill="rgb(204,204,255)" transform="matrix(0.7503,0,0,0.7503,126.803,255.857)" stroke="rgb(204,204,255)">
      <rect x="84.46" y="-107.1328" clip-path="url(#clipPath7)" width="89.61" height="23.1328" stroke="none"/>
    </g>
    <g fill="rgb(142,142,178)" stroke-miterlimit="1.45" transform="matrix(0.7503,0,0,0.7503,126.803,255.857)" stroke-linecap="butt" stroke="rgb(142,142,178)">
      <rect fill="none" width="89.61" x="84.46" height="23.1328" y="-107.1328"/>
    </g>
    <g font-size="13" font-weight="bold" font-family="sans-serif" transform="matrix(0.7503,0,0,0.7503,126.803,255.857)">
      <text xml:space="preserve" x="89.765" y="-91.0659" onclick="umlload('../../../../../com/msopentech/odatajclient/engine/data/ODataItem.html')" stroke="none">ODataItem</text>
    </g>
    <g fill="rgb(238,238,255)" transform="matrix(0.7503,0,0,0.7503,126.803,255.857)" stroke="rgb(238,238,255)">
      <rect width="298.9302" x="-8" height="17.9688" y="-26" stroke="none"/>
    </g>
    <g fill="rgb(166,166,178)" stroke-miterlimit="1.45" transform="matrix(0.7503,0,0,0.7503,126.803,255.857)" stroke-linecap="butt" stroke="rgb(166,166,178)">
      <rect fill="none" width="298.9302" x="-8" height="17.9688" y="-26"/>
    </g>
    <g fill="rgb(238,238,255)" transform="matrix(0.7503,0,0,0.7503,126.803,255.857)" stroke="rgb(238,238,255)">
      <rect width="298.9302" x="-8" height="231.0116" y="-8.0312" stroke="none"/>
    </g>
    <g fill="rgb(166,166,178)" stroke-miterlimit="1.45" transform="matrix(0.7503,0,0,0.7503,126.803,255.857)" stroke-linecap="butt" stroke="rgb(166,166,178)">
      <rect fill="none" width="298.9302" x="-8" height="231.0116" y="-8.0312"/>
    </g>
    <g font-family="sans-serif" transform="matrix(0.7503,0,0,0.7503,126.803,255.857)">
      <text xml:space="preserve" x="-2" y="-12.8613" onclick="umlload('package-summary.html')" stroke="none">com.msopentech.odatajclient.engine.data</text>
    </g>
    <g fill="rgb(187,187,255)" transform="matrix(0.7503,0,0,0.7503,126.803,255.857)" stroke="rgb(187,187,255)">
      <rect x="0" y="0" clip-path="url(#clipPath8)" width="258.53" height="26.625" stroke="none"/>
      <line clip-path="url(#clipPath8)" fill="none" x1="0" x2="258.53" y1="26.625" y2="26.625" stroke="black"/>
      <rect x="0" y="27.625" clip-path="url(#clipPath8)" width="258.53" height="47.9062" stroke="none"/>
      <line clip-path="url(#clipPath8)" fill="none" x1="0" x2="258.53" y1="75.5312" y2="75.5312" stroke="black"/>
      <line clip-path="url(#clipPath8)" x1="0" x2="258.53" y1="76.5312" y2="76.5312" stroke="none"/>
      <line clip-path="url(#clipPath8)" fill="none" x1="0" x2="258.53" y1="76.5312" y2="76.5312" stroke="black"/>
      <rect x="0" y="77.5312" clip-path="url(#clipPath8)" width="258.53" height="137.4491" stroke="none"/>
    </g>
    <g fill="rgb(130,130,178)" stroke-miterlimit="1.45" transform="matrix(0.7503,0,0,0.7503,126.803,255.857)" stroke-linecap="butt" stroke="rgb(130,130,178)">
      <rect fill="none" width="258.53" x="0" height="214.9804" y="0"/>
    </g>
    <g font-size="16" font-weight="bold" font-family="sans-serif" transform="matrix(0.7503,0,0,0.7503,126.803,255.857)">
      <text xml:space="preserve" x="61.265" y="18.8516" onclick="umlload('#')" stroke="none">ODataEntitySet</text>
    </g>
    <g font-family="sans-serif" transform="matrix(0.7503,0,0,0.7503,126.803,255.857)">
      <text xml:space="preserve" x="4" y="38.1719" stroke="none">#</text>
      <text xml:space="preserve" x="19" y="39.7637" onclick="umlload('#count')" stroke="none">count : Integer</text>
    </g>
    <g font-family="sans-serif" transform="matrix(0.7503,0,0,0.7503,126.803,255.857)">
      <text xml:space="preserve" x="4" y="54.1719" stroke="none">#</text>
      <text xml:space="preserve" x="19" y="55.7324" onclick="umlload('#entities')" stroke="none">entities : List&lt;ODataEntity&gt;</text>
    </g>
    <g font-family="sans-serif" transform="matrix(0.7503,0,0,0.7503,126.803,255.857)">
      <text xml:space="preserve" x="4" y="70.1719" stroke="none">#</text>
      <text xml:space="preserve" x="19" y="71.7012" onclick="umlload('#next')" stroke="none">next : URI</text>
    </g>
    <g font-family="sans-serif" transform="matrix(0.7503,0,0,0.7503,126.803,255.857)">
      <text xml:space="preserve" x="4" y="88.1719" stroke="none">+</text>
      <text xml:space="preserve" x="19" y="89.6699" onclick="umlload('#addEntity(com.msopentech.odatajclient.engine.data.ODataEntity)')" stroke="none">addEntity(ODataEntity) : boolean</text>
    </g>
    <g font-family="sans-serif" transform="matrix(0.7503,0,0,0.7503,126.803,255.857)">
      <text xml:space="preserve" x="4" y="104.1719" stroke="none">+</text>
      <text xml:space="preserve" x="19" y="105.6387" onclick="umlload('#getCount()')" stroke="none">getCount() : int</text>
    </g>
    <g font-family="sans-serif" transform="matrix(0.7503,0,0,0.7503,126.803,255.857)">
      <text xml:space="preserve" x="4" y="120.1719" stroke="none">+</text>
      <text xml:space="preserve" x="19" y="121.6074" onclick="umlload('#getEntities()')" stroke="none">getEntities() : List&lt;ODataEntity&gt;</text>
    </g>
    <g font-family="sans-serif" transform="matrix(0.7503,0,0,0.7503,126.803,255.857)">
      <text xml:space="preserve" x="4" y="136.1719" stroke="none">+</text>
      <text xml:space="preserve" x="19" y="137.5762" onclick="umlload('#getNext()')" stroke="none">getNext() : URI</text>
    </g>
    <g font-family="sans-serif" transform="matrix(0.7503,0,0,0.7503,126.803,255.857)">
      <text xml:space="preserve" x="4" y="152.1719" stroke="none">+</text>
      <text xml:space="preserve" x="19" y="153.5449" onclick="umlload('#removeEntity(com.msopentech.odatajclient.engine.data.ODataEntity)')" stroke="none">removeEntity(ODataEntity) : boolean</text>
    </g>
    <g font-family="sans-serif" transform="matrix(0.7503,0,0,0.7503,126.803,255.857)">
      <text xml:space="preserve" x="4" y="168.1719" stroke="none">+</text>
      <text xml:space="preserve" x="19" y="169.5137" onclick="umlload('#setCount(int)')" stroke="none">setCount(int) : void</text>
    </g>
    <g font-family="sans-serif" transform="matrix(0.7503,0,0,0.7503,126.803,255.857)">
      <text xml:space="preserve" x="-163" y="247.1543" onclick="umlload('http://www.yworks.com/')" stroke="none">yWorks UML Doclet</text>
    </g>
    <g stroke-miterlimit="1.45" transform="matrix(0.7503,0,0,0.7503,126.803,255.857)" stroke-linecap="butt">
      <path fill="none" d="M129.265 -0.0426 L129.265 -69"/>
      <path fill="white" d="M129.265 -84 L123.265 -68 L135.265 -68 Z" stroke="none"/>
      <path fill="none" d="M129.265 -84 L123.265 -68 L135.265 -68 Z"/>
      <path fill="none" stroke-dasharray="6,2" d="M193.8975 -0.0117 L193.8975 -51 L445.605 -51 L445.605 -69"/>
      <path fill="white" stroke-dasharray="6,2" d="M445.605 -84 L439.605 -68 L451.605 -68 Z" stroke="none"/>
      <path fill="none" d="M445.605 -84 L439.605 -68 L451.605 -68 Z"/>
      <path fill="none" d="M-0.0081 11.5664 L-67.21 11.5664"/>
      <line stroke-linecap="square" transform="matrix(-1,0,0,-1,-67.21,11.5664)" fill="none" x1="0" x2="-14" y1="0" y2="-4" stroke-miterlimit="10"/>
      <line stroke-linecap="square" transform="matrix(-1,0,0,-1,-67.21,11.5664)" fill="none" x1="0" x2="-14" y1="0" y2="4" stroke-miterlimit="10"/>
    </g>
    <g stroke-miterlimit="1.45" transform="matrix(0.7503,0,0,0.7503,126.803,255.857)" stroke-linecap="butt">
      <path fill="none" d="M-0.0058 98.6992 L-90.9 98.6992"/>
      <line stroke-linecap="square" transform="matrix(-1,0,0,-1,-90.9,98.6992)" fill="none" x1="0" x2="-14" y1="0" y2="-4" stroke-miterlimit="10"/>
      <line stroke-linecap="square" transform="matrix(-1,0,0,-1,-90.9,98.6992)" fill="none" x1="0" x2="-14" y1="0" y2="4" stroke-miterlimit="10"/>
    </g>
    <g stroke-miterlimit="1.45" transform="matrix(0.7503,0,0,0.7503,126.803,255.857)" stroke-linecap="butt">
      <path fill="none" d="M-0.0043 190.623 L-66 190.623"/>
      <line stroke-linecap="square" transform="matrix(-1,0,0,-1,-66,190.623)" fill="none" x1="0" x2="-14" y1="0" y2="-4" stroke-miterlimit="10"/>
      <line stroke-linecap="square" transform="matrix(-1,0,0,-1,-66,190.623)" fill="none" x1="0" x2="-14" y1="0" y2="4" stroke-miterlimit="10"/>
    </g>
    <g stroke-dasharray="6,2" stroke-miterlimit="1.45" transform="matrix(0.7503,0,0,0.7503,126.803,255.857)" stroke-linecap="butt">
      <path fill="none" d="M258.5558 11.5664 L336.34 11.5664"/>
      <line stroke-linecap="square" transform="matrix(1,0,0,1,336.34,11.5664)" fill="none" x1="0" x2="-14" y1="0" y2="-4" stroke-dasharray="none" stroke-miterlimit="10"/>
      <line stroke-linecap="square" transform="matrix(1,0,0,1,336.34,11.5664)" fill="none" x1="0" x2="-14" y1="0" y2="4" stroke-dasharray="none" stroke-miterlimit="10"/>
    </g>
  </g>
</svg>
