<?xml version="1.0" encoding="UTF-8"?><svg xmlns="http://www.w3.org/2000/svg" xmlns:xlink="http://www.w3.org/1999/xlink" fill-opacity="1" color-rendering="auto" color-interpolation="auto" stroke="black" text-rendering="auto" stroke-linecap="square" width="598" stroke-miterlimit="10" stroke-opacity="1" shape-rendering="auto" fill="black" stroke-dasharray="none" font-weight="normal" stroke-width="1" height="598" font-family="'Dialog'" font-style="normal" stroke-linejoin="miter" font-size="12" stroke-dashoffset="0" image-rendering="auto">
  <!--Generated by ySVG-->
  <defs id="genericDefs"/>
  <g>
    <defs id="defs1">
      <clipPath clipPathUnits="userSpaceOnUse" id="clipPath1">
        <path d="M0 0 L598 0 L598 598 L0 598 L0 0 Z"/>
      </clipPath>
      <clipPath clipPathUnits="userSpaceOnUse" id="clipPath2">
        <path d="M336.34 174.2656 L369.3 174.2656 L369.3 197.3984 L336.34 197.3984 L336.34 174.2656 Z"/>
      </clipPath>
      <clipPath clipPathUnits="userSpaceOnUse" id="clipPath3">
        <path d="M336.34 87.1328 L389.9 87.1328 L389.9 110.2656 L336.34 110.2656 L336.34 87.1328 Z"/>
      </clipPath>
      <clipPath clipPathUnits="userSpaceOnUse" id="clipPath4">
        <path d="M336.34 -0 L458.91 -0 L458.91 23.1328 L336.34 23.1328 L336.34 -0 Z"/>
      </clipPath>
      <clipPath clipPathUnits="userSpaceOnUse" id="clipPath5">
        <path d="M-346.34 -0 L-222.74 -0 L-222.74 23.1328 L-346.34 23.1328 L-346.34 -0 Z"/>
      </clipPath>
      <clipPath clipPathUnits="userSpaceOnUse" id="clipPath6">
        <path d="M68.495 -107.1328 L155.015 -107.1328 L155.015 -84 L68.495 -84 L68.495 -107.1328 Z"/>
      </clipPath>
      <clipPath clipPathUnits="userSpaceOnUse" id="clipPath7">
        <path d="M-0 -0 L223.51 -0 L223.51 205.3984 L-0 205.3984 L-0 -0 Z"/>
      </clipPath>
      <script type="text/ecmascript"><![CDATA[
function umlload(newLocation)
{
if (newLocation.charAt(0) != '#') {
if (newLocation.indexOf("://") > -1) {
window.parent.location.href = newLocation;
} else {
var tmp = window.parent.location.href;
tmp = tmp.substring(0, tmp.lastIndexOf("/") + 1);
window.parent.location.href = tmp.concat(newLocation);
}
} else {
window.parent.location.hash = newLocation;
}
}
]]></script>
    </defs>
    <g fill="rgb(238,238,255)" transform="matrix(0.6083,0,0,0.6083,215.9613,264.0203)" stroke="rgb(238,238,255)">
      <rect width="69.7758" x="328.34" height="17.9688" y="148.2656" stroke="none"/>
    </g>
    <g fill="rgb(166,166,178)" stroke-miterlimit="1.45" transform="matrix(0.6083,0,0,0.6083,215.9613,264.0203)" stroke-linecap="butt" stroke="rgb(166,166,178)">
      <rect fill="none" width="69.7758" x="328.34" height="17.9688" y="148.2656"/>
    </g>
    <g fill="rgb(238,238,255)" transform="matrix(0.6083,0,0,0.6083,215.9613,264.0203)" stroke="rgb(238,238,255)">
      <rect width="73.96" x="328.34" height="39.1641" y="166.2344" stroke="none"/>
    </g>
    <g fill="rgb(166,166,178)" stroke-miterlimit="1.45" transform="matrix(0.6083,0,0,0.6083,215.9613,264.0203)" stroke-linecap="butt" stroke="rgb(166,166,178)">
      <rect fill="none" width="73.96" x="328.34" height="39.1641" y="166.2344"/>
    </g>
    <g font-family="sans-serif" transform="matrix(0.6083,0,0,0.6083,215.9613,264.0203)">
      <text xml:space="preserve" x="334.34" y="161.4043" onclick="umlload('http://docs.oracle.com/javase/6/docs/api/java/net/package-summary.html')" stroke="none">java.net</text>
    </g>
    <g fill="rgb(187,187,255)" transform="matrix(0.6083,0,0,0.6083,215.9613,264.0203)" stroke="rgb(187,187,255)">
      <rect x="336.34" y="174.2656" clip-path="url(#clipPath2)" width="32.96" height="23.1328" stroke="none"/>
    </g>
    <g fill="rgb(130,130,178)" stroke-miterlimit="1.45" transform="matrix(0.6083,0,0,0.6083,215.9613,264.0203)" stroke-linecap="butt" stroke="rgb(130,130,178)">
      <rect fill="none" width="32.96" x="336.34" height="23.1328" y="174.2656"/>
    </g>
    <g font-size="13" font-weight="bold" font-family="sans-serif" transform="matrix(0.6083,0,0,0.6083,215.9613,264.0203)">
      <text xml:space="preserve" x="340.82" y="190.3325" onclick="umlload('http://docs.oracle.com/javase/6/docs/api/java/net/URI.html')" stroke="none">URI</text>
    </g>
    <g fill="rgb(238,238,255)" transform="matrix(0.6083,0,0,0.6083,215.9613,264.0203)" stroke="rgb(238,238,255)">
      <rect width="76.1412" x="328.34" height="17.9688" y="61.1328" stroke="none"/>
    </g>
    <g fill="rgb(166,166,178)" stroke-miterlimit="1.45" transform="matrix(0.6083,0,0,0.6083,215.9613,264.0203)" stroke-linecap="butt" stroke="rgb(166,166,178)">
      <rect fill="none" width="76.1412" x="328.34" height="17.9688" y="61.1328"/>
    </g>
    <g fill="rgb(238,238,255)" transform="matrix(0.6083,0,0,0.6083,215.9613,264.0203)" stroke="rgb(238,238,255)">
      <rect width="79.56" x="328.34" height="39.1641" y="79.1016" stroke="none"/>
    </g>
    <g fill="rgb(166,166,178)" stroke-miterlimit="1.45" transform="matrix(0.6083,0,0,0.6083,215.9613,264.0203)" stroke-linecap="butt" stroke="rgb(166,166,178)">
      <rect fill="none" width="79.56" x="328.34" height="39.1641" y="79.1016"/>
    </g>
    <g font-family="sans-serif" transform="matrix(0.6083,0,0,0.6083,215.9613,264.0203)">
      <text xml:space="preserve" x="334.34" y="74.2715" onclick="umlload('http://docs.oracle.com/javase/6/docs/api/java/lang/package-summary.html')" stroke="none">java.lang</text>
    </g>
    <g fill="rgb(187,187,255)" transform="matrix(0.6083,0,0,0.6083,215.9613,264.0203)" stroke="rgb(187,187,255)">
      <rect x="336.34" y="87.1328" clip-path="url(#clipPath3)" width="53.56" height="23.1328" stroke="none"/>
    </g>
    <g fill="rgb(130,130,178)" stroke-miterlimit="1.45" transform="matrix(0.6083,0,0,0.6083,215.9613,264.0203)" stroke-linecap="butt" stroke="rgb(130,130,178)">
      <rect fill="none" width="53.56" x="336.34" height="23.1328" y="87.1328"/>
    </g>
    <g font-size="13" font-weight="bold" font-family="sans-serif" transform="matrix(0.6083,0,0,0.6083,215.9613,264.0203)">
      <text xml:space="preserve" x="341.12" y="103.1997" onclick="umlload('http://docs.oracle.com/javase/6/docs/api/java/lang/String.html')" stroke="none">String</text>
    </g>
    <g fill="rgb(238,238,255)" transform="matrix(0.6083,0,0,0.6083,215.9613,264.0203)" stroke="rgb(238,238,255)">
      <rect width="298.9302" x="328.34" height="17.9688" y="-26" stroke="none"/>
    </g>
    <g fill="rgb(166,166,178)" stroke-miterlimit="1.45" transform="matrix(0.6083,0,0,0.6083,215.9613,264.0203)" stroke-linecap="butt" stroke="rgb(166,166,178)">
      <rect fill="none" width="298.9302" x="328.34" height="17.9688" y="-26"/>
    </g>
    <g fill="rgb(238,238,255)" transform="matrix(0.6083,0,0,0.6083,215.9613,264.0203)" stroke="rgb(238,238,255)">
      <rect width="298.9302" x="328.34" height="39.1641" y="-8.0312" stroke="none"/>
    </g>
    <g fill="rgb(166,166,178)" stroke-miterlimit="1.45" transform="matrix(0.6083,0,0,0.6083,215.9613,264.0203)" stroke-linecap="butt" stroke="rgb(166,166,178)">
      <rect fill="none" width="298.9302" x="328.34" height="39.1641" y="-8.0312"/>
    </g>
    <g font-family="sans-serif" transform="matrix(0.6083,0,0,0.6083,215.9613,264.0203)">
      <text xml:space="preserve" x="334.34" y="-12.8613" onclick="umlload('../../../../../com/msopentech/odatajclient/engine/data/package-summary.html')" stroke="none">com.msopentech.odatajclient.engine.data</text>
    </g>
    <g fill="rgb(170,170,255)" transform="matrix(0.6083,0,0,0.6083,215.9613,264.0203)" stroke="rgb(170,170,255)">
      <rect x="336.34" y="0" clip-path="url(#clipPath4)" width="122.57" height="23.1328" stroke="none"/>
    </g>
    <g fill="rgb(118,118,178)" stroke-miterlimit="1.45" transform="matrix(0.6083,0,0,0.6083,215.9613,264.0203)" stroke-linecap="butt" stroke="rgb(118,118,178)">
      <rect fill="none" width="122.57" x="336.34" height="23.1328" y="0"/>
    </g>
    <g font-size="13" font-weight="bold" font-family="sans-serif" transform="matrix(0.6083,0,0,0.6083,215.9613,264.0203)">
      <text xml:space="preserve" x="342.125" y="16.0669" onclick="umlload('../../../../../com/msopentech/odatajclient/engine/data/ODataLinkType.html')" stroke="none">ODataLinkType</text>
    </g>
    <g fill="rgb(238,238,255)" transform="matrix(0.6083,0,0,0.6083,215.9613,264.0203)" stroke="rgb(238,238,255)">
      <rect width="298.9302" x="-354.34" height="17.9688" y="-26" stroke="none"/>
    </g>
    <g fill="rgb(166,166,178)" stroke-miterlimit="1.45" transform="matrix(0.6083,0,0,0.6083,215.9613,264.0203)" stroke-linecap="butt" stroke="rgb(166,166,178)">
      <rect fill="none" width="298.9302" x="-354.34" height="17.9688" y="-26"/>
    </g>
    <g fill="rgb(238,238,255)" transform="matrix(0.6083,0,0,0.6083,215.9613,264.0203)" stroke="rgb(238,238,255)">
      <rect width="298.9302" x="-354.34" height="39.1641" y="-8.0312" stroke="none"/>
    </g>
    <g fill="rgb(166,166,178)" stroke-miterlimit="1.45" transform="matrix(0.6083,0,0,0.6083,215.9613,264.0203)" stroke-linecap="butt" stroke="rgb(166,166,178)">
      <rect fill="none" width="298.9302" x="-354.34" height="39.1641" y="-8.0312"/>
    </g>
    <g font-family="sans-serif" transform="matrix(0.6083,0,0,0.6083,215.9613,264.0203)">
      <text xml:space="preserve" x="-348.34" y="-12.8613" onclick="umlload('../../../../../com/msopentech/odatajclient/engine/data/package-summary.html')" stroke="none">com.msopentech.odatajclient.engine.data</text>
    </g>
    <g fill="rgb(187,187,255)" transform="matrix(0.6083,0,0,0.6083,215.9613,264.0203)" stroke="rgb(187,187,255)">
      <rect x="-346.34" y="0" clip-path="url(#clipPath5)" width="123.6" height="23.1328" stroke="none"/>
    </g>
    <g fill="rgb(130,130,178)" stroke-miterlimit="1.45" transform="matrix(0.6083,0,0,0.6083,215.9613,264.0203)" stroke-linecap="butt" stroke="rgb(130,130,178)">
      <rect fill="none" width="123.6" x="-346.34" height="23.1328" y="0"/>
    </g>
    <g font-size="13" font-weight="bold" font-family="sans-serif" transform="matrix(0.6083,0,0,0.6083,215.9613,264.0203)">
      <text xml:space="preserve" x="-340.54" y="16.0669" onclick="umlload('../../../../../com/msopentech/odatajclient/engine/data/ODataEntitySet.html')" stroke="none">ODataEntitySet</text>
    </g>
    <g fill="rgb(238,238,255)" transform="matrix(0.6083,0,0,0.6083,215.9613,264.0203)" stroke="rgb(238,238,255)">
      <rect width="298.9302" x="-31.505" height="17.9688" y="-133.1328" stroke="none"/>
    </g>
    <g fill="rgb(166,166,178)" stroke-miterlimit="1.45" transform="matrix(0.6083,0,0,0.6083,215.9613,264.0203)" stroke-linecap="butt" stroke="rgb(166,166,178)">
      <rect fill="none" width="298.9302" x="-31.505" height="17.9688" y="-133.1328"/>
    </g>
    <g fill="rgb(238,238,255)" transform="matrix(0.6083,0,0,0.6083,215.9613,264.0203)" stroke="rgb(238,238,255)">
      <rect width="299.52" x="-31.505" height="39.1641" y="-115.1641" stroke="none"/>
    </g>
    <g fill="rgb(166,166,178)" stroke-miterlimit="1.45" transform="matrix(0.6083,0,0,0.6083,215.9613,264.0203)" stroke-linecap="butt" stroke="rgb(166,166,178)">
      <rect fill="none" width="299.52" x="-31.505" height="39.1641" y="-115.1641"/>
    </g>
    <g font-family="sans-serif" transform="matrix(0.6083,0,0,0.6083,215.9613,264.0203)">
      <text xml:space="preserve" x="-25.505" y="-119.9941" onclick="umlload('../../../../../com/msopentech/odatajclient/engine/data/package-summary.html')" stroke="none">com.msopentech.odatajclient.engine.data</text>
    </g>
    <g fill="rgb(187,187,255)" transform="matrix(0.6083,0,0,0.6083,215.9613,264.0203)" stroke="rgb(187,187,255)">
      <rect x="68.495" y="-107.1328" clip-path="url(#clipPath6)" width="86.52" height="23.1328" stroke="none"/>
    </g>
    <g fill="rgb(130,130,178)" stroke-miterlimit="1.45" transform="matrix(0.6083,0,0,0.6083,215.9613,264.0203)" stroke-linecap="butt" stroke="rgb(130,130,178)">
      <rect fill="none" width="86.52" x="68.495" height="23.1328" y="-107.1328"/>
    </g>
    <g font-size="13" font-weight="bold" font-family="sans-serif" transform="matrix(0.6083,0,0,0.6083,215.9613,264.0203)">
      <text xml:space="preserve" x="73.755" y="-91.0659" onclick="umlload('../../../../../com/msopentech/odatajclient/engine/data/ODataLink.html')" stroke="none">ODataLink</text>
    </g>
    <g fill="rgb(238,238,255)" transform="matrix(0.6083,0,0,0.6083,215.9613,264.0203)" stroke="rgb(238,238,255)">
      <rect width="298.9302" x="-8" height="17.9688" y="-26" stroke="none"/>
    </g>
    <g fill="rgb(166,166,178)" stroke-miterlimit="1.45" transform="matrix(0.6083,0,0,0.6083,215.9613,264.0203)" stroke-linecap="butt" stroke="rgb(166,166,178)">
      <rect fill="none" width="298.9302" x="-8" height="17.9688" y="-26"/>
    </g>
    <g fill="rgb(238,238,255)" transform="matrix(0.6083,0,0,0.6083,215.9613,264.0203)" stroke="rgb(238,238,255)">
      <rect width="298.9302" x="-8" height="221.4297" y="-8.0312" stroke="none"/>
    </g>
    <g fill="rgb(166,166,178)" stroke-miterlimit="1.45" transform="matrix(0.6083,0,0,0.6083,215.9613,264.0203)" stroke-linecap="butt" stroke="rgb(166,166,178)">
      <rect fill="none" width="298.9302" x="-8" height="221.4297" y="-8.0312"/>
    </g>
    <g font-family="sans-serif" transform="matrix(0.6083,0,0,0.6083,215.9613,264.0203)">
      <text xml:space="preserve" x="-2" y="-12.8613" onclick="umlload('package-summary.html')" stroke="none">com.msopentech.odatajclient.engine.data</text>
    </g>
    <g fill="rgb(187,187,255)" transform="matrix(0.6083,0,0,0.6083,215.9613,264.0203)" stroke="rgb(187,187,255)">
      <rect x="0" y="0" clip-path="url(#clipPath7)" width="223.51" height="26.625" stroke="none"/>
      <line clip-path="url(#clipPath7)" fill="none" x1="0" x2="223.51" y1="26.625" y2="26.625" stroke="black"/>
      <line clip-path="url(#clipPath7)" x1="0" x2="223.51" y1="27.625" y2="27.625" stroke="none"/>
      <line clip-path="url(#clipPath7)" fill="none" x1="0" x2="223.51" y1="27.625" y2="27.625" stroke="black"/>
      <rect x="0" y="28.625" clip-path="url(#clipPath7)" width="223.51" height="176.7734" stroke="none"/>
    </g>
    <g fill="rgb(130,130,178)" stroke-miterlimit="1.45" transform="matrix(0.6083,0,0,0.6083,215.9613,264.0203)" stroke-linecap="butt" stroke="rgb(130,130,178)">
      <rect fill="none" width="223.51" x="0" height="205.3984" y="0"/>
    </g>
    <g font-size="16" font-weight="bold" font-family="sans-serif" transform="matrix(0.6083,0,0,0.6083,215.9613,264.0203)">
      <text xml:space="preserve" x="20.255" y="18.8516" onclick="umlload('#')" stroke="none">ODataInlineEntitySet</text>
    </g>
    <g font-family="sans-serif" transform="matrix(0.6083,0,0,0.6083,215.9613,264.0203)">
      <text xml:space="preserve" x="4" y="39.1719" stroke="none">+</text>
      <text xml:space="preserve" x="19" y="40.7637" onclick="umlload('#getEntitySet()')" stroke="none">getEntitySet() : ODataEntitySet</text>
    </g>
    <g font-family="sans-serif" transform="matrix(0.6083,0,0,0.6083,215.9613,264.0203)">
      <text xml:space="preserve" x="-349" y="238.1543" onclick="umlload('http://www.yworks.com/')" stroke="none">yWorks UML Doclet</text>
    </g>
    <g stroke-miterlimit="1.45" transform="matrix(0.6083,0,0,0.6083,215.9613,264.0203)" stroke-linecap="butt">
      <path fill="none" d="M111.755 -0.0039 L111.755 -69"/>
      <path fill="white" d="M111.755 -84 L105.755 -68 L117.755 -68 Z" stroke="none"/>
      <path fill="none" d="M111.755 -84 L105.755 -68 L117.755 -68 Z"/>
      <path fill="none" d="M-0.0416 11.5664 L-222.74 11.5664"/>
      <line stroke-linecap="square" transform="matrix(-1,0,0,-1,-222.74,11.5664)" fill="none" x1="0" x2="-14" y1="0" y2="-4" stroke-miterlimit="10"/>
      <line stroke-linecap="square" transform="matrix(-1,0,0,-1,-222.74,11.5664)" fill="none" x1="0" x2="-14" y1="0" y2="4" stroke-miterlimit="10"/>
    </g>
    <g stroke-dasharray="6,2" stroke-miterlimit="1.45" transform="matrix(0.6083,0,0,0.6083,215.9613,264.0203)" stroke-linecap="butt">
      <path fill="none" d="M223.5277 11.5664 L336.34 11.5664"/>
      <line stroke-linecap="square" transform="matrix(1,0,0,1,336.34,11.5664)" fill="none" x1="0" x2="-14" y1="0" y2="-4" stroke-dasharray="none" stroke-miterlimit="10"/>
      <line stroke-linecap="square" transform="matrix(1,0,0,1,336.34,11.5664)" fill="none" x1="0" x2="-14" y1="0" y2="4" stroke-dasharray="none" stroke-miterlimit="10"/>
    </g>
    <g stroke-dasharray="6,2" stroke-miterlimit="1.45" transform="matrix(0.6083,0,0,0.6083,215.9613,264.0203)" stroke-linecap="butt">
      <path fill="none" d="M223.5376 98.6992 L336.34 98.6992"/>
      <line stroke-linecap="square" transform="matrix(1,0,0,1,336.34,98.6992)" fill="none" x1="0" x2="-14" y1="0" y2="-4" stroke-dasharray="none" stroke-miterlimit="10"/>
      <line stroke-linecap="square" transform="matrix(1,0,0,1,336.34,98.6992)" fill="none" x1="0" x2="-14" y1="0" y2="4" stroke-dasharray="none" stroke-miterlimit="10"/>
    </g>
    <g stroke-dasharray="6,2" stroke-miterlimit="1.45" transform="matrix(0.6083,0,0,0.6083,215.9613,264.0203)" stroke-linecap="butt">
      <path fill="none" d="M223.4889 185.832 L336.34 185.832"/>
      <line stroke-linecap="square" transform="matrix(1,0,0,1,336.34,185.832)" fill="none" x1="0" x2="-14" y1="0" y2="-4" stroke-dasharray="none" stroke-miterlimit="10"/>
      <line stroke-linecap="square" transform="matrix(1,0,0,1,336.34,185.832)" fill="none" x1="0" x2="-14" y1="0" y2="4" stroke-dasharray="none" stroke-miterlimit="10"/>
    </g>
  </g>
</svg>
