<?xml version="1.0" encoding="UTF-8"?><svg xmlns="http://www.w3.org/2000/svg" xmlns:xlink="http://www.w3.org/1999/xlink" fill-opacity="1" color-rendering="auto" color-interpolation="auto" stroke="black" text-rendering="auto" stroke-linecap="square" width="598" stroke-miterlimit="10" stroke-opacity="1" shape-rendering="auto" fill="black" stroke-dasharray="none" font-weight="normal" stroke-width="1" height="598" font-family="'Dialog'" font-style="normal" stroke-linejoin="miter" font-size="12" stroke-dashoffset="0" image-rendering="auto">
  <!--Generated by ySVG-->
  <defs id="genericDefs"/>
  <g>
    <defs id="defs1">
      <clipPath clipPathUnits="userSpaceOnUse" id="clipPath1">
        <path d="M0 0 L598 0 L598 598 L0 598 L0 0 Z"/>
      </clipPath>
      <clipPath clipPathUnits="userSpaceOnUse" id="clipPath2">
        <path d="M336.34 0 L394.02 0 L394.02 23.1328 L336.34 23.1328 L336.34 0 Z"/>
      </clipPath>
      <clipPath clipPathUnits="userSpaceOnUse" id="clipPath3">
        <path d="M336.34 33.1328 L389.9 33.1328 L389.9 56.2656 L336.34 56.2656 L336.34 33.1328 Z"/>
      </clipPath>
      <clipPath clipPathUnits="userSpaceOnUse" id="clipPath4">
        <path d="M-190.81 0 L-117.68 0 L-117.68 23.1328 L-190.81 23.1328 L-190.81 0 Z"/>
      </clipPath>
      <clipPath clipPathUnits="userSpaceOnUse" id="clipPath5">
        <path d="M301.5509 -100.3574 C301.5509 -91.3234 271.5515 -84 234.5454 -84 C197.5394 -84 167.54 -91.3234 167.54 -100.3574 C167.54 -109.3913 197.5394 -116.7147 234.5454 -116.7147 C271.5515 -116.7147 301.5509 -109.3913 301.5509 -100.3574 Z"/>
      </clipPath>
      <clipPath clipPathUnits="userSpaceOnUse" id="clipPath6">
        <path d="M63.86 -107.1328 L121.54 -107.1328 L121.54 -84 L63.86 -84 L63.86 -107.1328 Z"/>
      </clipPath>
      <clipPath clipPathUnits="userSpaceOnUse" id="clipPath7">
        <path d="M0 0 L185.4 0 L185.4 124.4375 L0 124.4375 L0 0 Z"/>
      </clipPath>
      <script type="text/ecmascript"><![CDATA[
function umlload(newLocation)
{
if (newLocation.charAt(0) != '#') {
if (newLocation.indexOf("://") > -1) {
window.parent.location.href = newLocation;
} else {
var tmp = window.parent.location.href;
tmp = tmp.substring(0, tmp.lastIndexOf("/") + 1);
window.parent.location.href = tmp.concat(newLocation);
}
} else {
window.parent.location.hash = newLocation;
}
}
]]></script>
    </defs>
    <g fill="rgb(238,238,255)" transform="matrix(0.9836,0,0,0.9836,195.727,286.2138)" stroke="rgb(238,238,255)">
      <rect width="76.1412" x="328.34" height="17.9688" y="-26" stroke="none"/>
    </g>
    <g fill="rgb(166,166,178)" stroke-miterlimit="1.45" transform="matrix(0.9836,0,0,0.9836,195.727,286.2138)" stroke-linecap="butt" stroke="rgb(166,166,178)">
      <rect fill="none" width="76.1412" x="328.34" height="17.9688" y="-26"/>
    </g>
    <g fill="rgb(238,238,255)" transform="matrix(0.9836,0,0,0.9836,195.727,286.2138)" stroke="rgb(238,238,255)">
      <rect width="79.68" x="328.34" height="72.2969" y="-8.0312" stroke="none"/>
    </g>
    <g fill="rgb(166,166,178)" stroke-miterlimit="1.45" transform="matrix(0.9836,0,0,0.9836,195.727,286.2138)" stroke-linecap="butt" stroke="rgb(166,166,178)">
      <rect fill="none" width="79.68" x="328.34" height="72.2969" y="-8.0312"/>
    </g>
    <g font-family="sans-serif" transform="matrix(0.9836,0,0,0.9836,195.727,286.2138)">
      <text xml:space="preserve" x="334.34" y="-12.8613" onclick="umlload('http://docs.oracle.com/javase/6/docs/api/java/lang/package-summary.html')" stroke="none">java.lang</text>
    </g>
    <g fill="rgb(187,187,255)" transform="matrix(0.9836,0,0,0.9836,195.727,286.2138)" stroke="rgb(187,187,255)">
      <rect x="336.34" y="0" clip-path="url(#clipPath2)" width="57.68" height="23.1328" stroke="none"/>
    </g>
    <g fill="rgb(130,130,178)" stroke-miterlimit="1.45" transform="matrix(0.9836,0,0,0.9836,195.727,286.2138)" stroke-linecap="butt" stroke="rgb(130,130,178)">
      <rect fill="none" width="57.68" x="336.34" height="23.1328" y="0"/>
    </g>
    <g font-size="13" font-weight="bold" font-family="sans-serif" transform="matrix(0.9836,0,0,0.9836,195.727,286.2138)">
      <text xml:space="preserve" x="341.18" y="16.0669" onclick="umlload('http://docs.oracle.com/javase/6/docs/api/java/lang/Object.html')" stroke="none">Object</text>
    </g>
    <g fill="rgb(187,187,255)" transform="matrix(0.9836,0,0,0.9836,195.727,286.2138)" stroke="rgb(187,187,255)">
      <rect x="336.34" y="33.1328" clip-path="url(#clipPath3)" width="53.56" height="23.1328" stroke="none"/>
    </g>
    <g fill="rgb(130,130,178)" stroke-miterlimit="1.45" transform="matrix(0.9836,0,0,0.9836,195.727,286.2138)" stroke-linecap="butt" stroke="rgb(130,130,178)">
      <rect fill="none" width="53.56" x="336.34" height="23.1328" y="33.1328"/>
    </g>
    <g font-size="13" font-weight="bold" font-family="sans-serif" transform="matrix(0.9836,0,0,0.9836,195.727,286.2138)">
      <text xml:space="preserve" x="341.12" y="49.1997" onclick="umlload('http://docs.oracle.com/javase/6/docs/api/java/lang/String.html')" stroke="none">String</text>
    </g>
    <g fill="rgb(238,238,255)" transform="matrix(0.9836,0,0,0.9836,195.727,286.2138)" stroke="rgb(238,238,255)">
      <rect width="138.7343" x="-198.81" height="17.9688" y="-26" stroke="none"/>
    </g>
    <g fill="rgb(166,166,178)" stroke-miterlimit="1.45" transform="matrix(0.9836,0,0,0.9836,195.727,286.2138)" stroke-linecap="butt" stroke="rgb(166,166,178)">
      <rect fill="none" width="138.7343" x="-198.81" height="17.9688" y="-26"/>
    </g>
    <g fill="rgb(238,238,255)" transform="matrix(0.9836,0,0,0.9836,195.727,286.2138)" stroke="rgb(238,238,255)">
      <rect width="141.13" x="-198.81" height="39.1641" y="-8.0312" stroke="none"/>
    </g>
    <g fill="rgb(166,166,178)" stroke-miterlimit="1.45" transform="matrix(0.9836,0,0,0.9836,195.727,286.2138)" stroke-linecap="butt" stroke="rgb(166,166,178)">
      <rect fill="none" width="141.13" x="-198.81" height="39.1641" y="-8.0312"/>
    </g>
    <g font-family="sans-serif" transform="matrix(0.9836,0,0,0.9836,195.727,286.2138)">
      <text xml:space="preserve" x="-192.81" y="-12.8613" onclick="umlload('http://docs.oracle.com/javase/6/docs/api/javax/xml/datatype/package-summary.html')" stroke="none">javax.xml.datatype</text>
    </g>
    <g fill="rgb(204,204,255)" transform="matrix(0.9836,0,0,0.9836,195.727,286.2138)" stroke="rgb(204,204,255)">
      <rect x="-190.81" y="0" clip-path="url(#clipPath4)" width="73.13" height="23.1328" stroke="none"/>
    </g>
    <g fill="rgb(142,142,178)" stroke-miterlimit="1.45" transform="matrix(0.9836,0,0,0.9836,195.727,286.2138)" stroke-linecap="butt" stroke="rgb(142,142,178)">
      <rect fill="none" width="73.13" x="-190.81" height="23.1328" y="0"/>
    </g>
    <g font-size="13" font-weight="bold" font-family="sans-serif" transform="matrix(0.9836,0,0,0.9836,195.727,286.2138)">
      <text xml:space="preserve" x="-185.745" y="16.0669" onclick="umlload('http://docs.oracle.com/javase/6/docs/api/javax/xml/datatype/Duration.html')" stroke="none">Duration</text>
    </g>
    <g fill="rgb(238,238,255)" transform="matrix(0.9836,0,0,0.9836,195.727,286.2138)" stroke="rgb(238,238,255)">
      <rect width="59.1668" x="159.54" height="17.9688" y="-142.7147" stroke="none"/>
    </g>
    <g fill="rgb(166,166,178)" stroke-miterlimit="1.45" transform="matrix(0.9836,0,0,0.9836,195.727,286.2138)" stroke-linecap="butt" stroke="rgb(166,166,178)">
      <rect fill="none" width="59.1668" x="159.54" height="17.9688" y="-142.7147"/>
    </g>
    <g fill="rgb(238,238,255)" transform="matrix(0.9836,0,0,0.9836,195.727,286.2138)" stroke="rgb(238,238,255)">
      <rect width="150.0109" x="159.54" height="48.746" y="-124.746" stroke="none"/>
    </g>
    <g fill="rgb(166,166,178)" stroke-miterlimit="1.45" transform="matrix(0.9836,0,0,0.9836,195.727,286.2138)" stroke-linecap="butt" stroke="rgb(166,166,178)">
      <rect fill="none" width="150.0109" x="159.54" height="48.746" y="-124.746"/>
    </g>
    <g font-family="sans-serif" transform="matrix(0.9836,0,0,0.9836,195.727,286.2138)">
      <text xml:space="preserve" x="165.54" y="-129.5761" onclick="umlload('http://docs.oracle.com/javase/6/docs/api/java/io/package-summary.html')" stroke="none">java.io</text>
    </g>
    <g fill="rgb(221,221,255)" transform="matrix(0.9836,0,0,0.9836,195.727,286.2138)" stroke="rgb(221,221,255)">
      <rect x="167.54" y="-116.7147" clip-path="url(#clipPath5)" width="134.0109" height="32.7147" stroke="none"/>
    </g>
    <g fill="rgb(154,154,178)" stroke-miterlimit="1.45" transform="matrix(0.9836,0,0,0.9836,195.727,286.2138)" stroke-linecap="butt" stroke="rgb(154,154,178)">
      <ellipse rx="67.0054" fill="none" ry="16.3574" cx="234.5454" cy="-100.3574"/>
    </g>
    <g font-style="italic" font-size="13" font-weight="bold" font-family="sans-serif" transform="matrix(0.9836,0,0,0.9836,195.727,286.2138)">
      <text xml:space="preserve" x="192.5454" y="-95.8569" onclick="umlload('http://docs.oracle.com/javase/6/docs/api/java/io/Serializable.html')" stroke="none">Serializable</text>
    </g>
    <g fill="rgb(238,238,255)" transform="matrix(0.9836,0,0,0.9836,195.727,286.2138)" stroke="rgb(238,238,255)">
      <rect width="76.1412" x="55.86" height="17.9688" y="-133.1328" stroke="none"/>
    </g>
    <g fill="rgb(166,166,178)" stroke-miterlimit="1.45" transform="matrix(0.9836,0,0,0.9836,195.727,286.2138)" stroke-linecap="butt" stroke="rgb(166,166,178)">
      <rect fill="none" width="76.1412" x="55.86" height="17.9688" y="-133.1328"/>
    </g>
    <g fill="rgb(238,238,255)" transform="matrix(0.9836,0,0,0.9836,195.727,286.2138)" stroke="rgb(238,238,255)">
      <rect width="76.1412" x="55.86" height="39.1641" y="-115.1641" stroke="none"/>
    </g>
    <g fill="rgb(166,166,178)" stroke-miterlimit="1.45" transform="matrix(0.9836,0,0,0.9836,195.727,286.2138)" stroke-linecap="butt" stroke="rgb(166,166,178)">
      <rect fill="none" width="76.1412" x="55.86" height="39.1641" y="-115.1641"/>
    </g>
    <g font-family="sans-serif" transform="matrix(0.9836,0,0,0.9836,195.727,286.2138)">
      <text xml:space="preserve" x="61.86" y="-119.9941" onclick="umlload('http://docs.oracle.com/javase/6/docs/api/java/lang/package-summary.html')" stroke="none">java.lang</text>
    </g>
    <g fill="rgb(187,187,255)" transform="matrix(0.9836,0,0,0.9836,195.727,286.2138)" stroke="rgb(187,187,255)">
      <rect x="63.86" y="-107.1328" clip-path="url(#clipPath6)" width="57.68" height="23.1328" stroke="none"/>
    </g>
    <g fill="rgb(130,130,178)" stroke-miterlimit="1.45" transform="matrix(0.9836,0,0,0.9836,195.727,286.2138)" stroke-linecap="butt" stroke="rgb(130,130,178)">
      <rect fill="none" width="57.68" x="63.86" height="23.1328" y="-107.1328"/>
    </g>
    <g font-size="13" font-weight="bold" font-family="sans-serif" transform="matrix(0.9836,0,0,0.9836,195.727,286.2138)">
      <text xml:space="preserve" x="68.7" y="-91.0659" onclick="umlload('http://docs.oracle.com/javase/6/docs/api/java/lang/Object.html')" stroke="none">Object</text>
    </g>
    <g fill="rgb(238,238,255)" transform="matrix(0.9836,0,0,0.9836,195.727,286.2138)" stroke="rgb(238,238,255)">
      <rect width="298.9302" x="-8" height="17.9688" y="-26" stroke="none"/>
    </g>
    <g fill="rgb(166,166,178)" stroke-miterlimit="1.45" transform="matrix(0.9836,0,0,0.9836,195.727,286.2138)" stroke-linecap="butt" stroke="rgb(166,166,178)">
      <rect fill="none" width="298.9302" x="-8" height="17.9688" y="-26"/>
    </g>
    <g fill="rgb(238,238,255)" transform="matrix(0.9836,0,0,0.9836,195.727,286.2138)" stroke="rgb(238,238,255)">
      <rect width="299.4" x="-8" height="140.4688" y="-8.0312" stroke="none"/>
    </g>
    <g fill="rgb(166,166,178)" stroke-miterlimit="1.45" transform="matrix(0.9836,0,0,0.9836,195.727,286.2138)" stroke-linecap="butt" stroke="rgb(166,166,178)">
      <rect fill="none" width="299.4" x="-8" height="140.4688" y="-8.0312"/>
    </g>
    <g font-family="sans-serif" transform="matrix(0.9836,0,0,0.9836,195.727,286.2138)">
      <text xml:space="preserve" x="-2" y="-12.8613" onclick="umlload('package-summary.html')" stroke="none">com.msopentech.odatajclient.engine.data</text>
    </g>
    <g fill="rgb(187,187,255)" transform="matrix(0.9836,0,0,0.9836,195.727,286.2138)" stroke="rgb(187,187,255)">
      <rect x="0" y="0" clip-path="url(#clipPath7)" width="185.4" height="26.625" stroke="none"/>
      <line clip-path="url(#clipPath7)" fill="none" x1="0" x2="185.4" y1="26.625" y2="26.625" stroke="black"/>
      <rect x="0" y="27.625" clip-path="url(#clipPath7)" width="185.4" height="31.9375" stroke="none"/>
      <line clip-path="url(#clipPath7)" fill="none" x1="0" x2="185.4" y1="59.5625" y2="59.5625" stroke="black"/>
      <rect x="0" y="60.5625" clip-path="url(#clipPath7)" width="185.4" height="63.875" stroke="none"/>
    </g>
    <g fill="rgb(130,130,178)" stroke-miterlimit="1.45" transform="matrix(0.9836,0,0,0.9836,195.727,286.2138)" stroke-linecap="butt" stroke="rgb(130,130,178)">
      <rect fill="none" width="185.4" x="0" height="124.4375" y="0"/>
    </g>
    <g font-size="16" font-weight="bold" font-family="sans-serif" transform="matrix(0.9836,0,0,0.9836,195.727,286.2138)">
      <text xml:space="preserve" x="27.2" y="18.8516" onclick="umlload('#')" stroke="none">ODataDuration</text>
    </g>
    <g font-family="sans-serif" transform="matrix(0.9836,0,0,0.9836,195.727,286.2138)">
      <text xml:space="preserve" x="4" y="38.1719" stroke="none">+</text>
      <text xml:space="preserve" x="19" y="39.7637" onclick="umlload('#ODataDuration(java.lang.String)')" stroke="none">ODataDuration(String)</text>
    </g>
    <g font-family="sans-serif" transform="matrix(0.9836,0,0,0.9836,195.727,286.2138)">
      <text xml:space="preserve" x="4" y="54.1719" stroke="none">+</text>
      <text xml:space="preserve" x="19" y="55.7324" onclick="umlload('#ODataDuration(javax.xml.datatype.Duration)')" stroke="none">ODataDuration(Duration)</text>
    </g>
    <g font-family="sans-serif" transform="matrix(0.9836,0,0,0.9836,195.727,286.2138)">
      <text xml:space="preserve" x="4" y="71.1719" stroke="none">+</text>
      <text xml:space="preserve" x="19" y="72.7012" onclick="umlload('#equals(java.lang.Object)')" stroke="none">equals(Object) : boolean</text>
    </g>
    <g font-family="sans-serif" transform="matrix(0.9836,0,0,0.9836,195.727,286.2138)">
      <text xml:space="preserve" x="4" y="87.1719" stroke="none">+</text>
      <text xml:space="preserve" x="19" y="88.6699" onclick="umlload('#getDuration()')" stroke="none">getDuration() : Duration</text>
    </g>
    <g font-family="sans-serif" transform="matrix(0.9836,0,0,0.9836,195.727,286.2138)">
      <text xml:space="preserve" x="4" y="103.1719" stroke="none">+</text>
      <text xml:space="preserve" x="19" y="104.6387" onclick="umlload('#hashCode()')" stroke="none">hashCode() : int</text>
    </g>
    <g font-family="sans-serif" transform="matrix(0.9836,0,0,0.9836,195.727,286.2138)">
      <text xml:space="preserve" x="4" y="119.1719" stroke="none">+</text>
      <text xml:space="preserve" x="19" y="120.6074" onclick="umlload('#toString()')" stroke="none">toString() : String</text>
    </g>
    <g font-family="sans-serif" transform="matrix(0.9836,0,0,0.9836,195.727,286.2138)">
      <text xml:space="preserve" x="-193" y="157.1543" onclick="umlload('http://www.yworks.com/')" stroke="none">yWorks UML Doclet</text>
    </g>
    <g stroke-miterlimit="1.45" transform="matrix(0.9836,0,0,0.9836,195.727,286.2138)" stroke-linecap="butt">
      <path fill="none" d="M92.7 0 L92.7 -69"/>
      <path fill="white" d="M92.7 -84 L86.7 -68 L98.7 -68 Z" stroke="none"/>
      <path fill="none" d="M92.7 -84 L86.7 -68 L98.7 -68 Z"/>
      <path fill="none" stroke-dasharray="6,2" d="M139.05 -0.0018 L139.05 -51 L234.5454 -51 L234.5454 -69"/>
      <path fill="white" stroke-dasharray="6,2" d="M234.5454 -84 L228.5454 -68 L240.5454 -68 Z" stroke="none"/>
      <path fill="none" d="M234.5454 -84 L228.5454 -68 L240.5454 -68 Z"/>
      <path fill="none" d="M0.0052 11.5664 L-117.68 11.5664"/>
      <line stroke-linecap="square" transform="matrix(-1,0,0,-1,-117.68,11.5664)" fill="none" x1="0" x2="-14" y1="0" y2="-4" stroke-miterlimit="10"/>
      <line stroke-linecap="square" transform="matrix(-1,0,0,-1,-117.68,11.5664)" fill="none" x1="0" x2="-14" y1="0" y2="4" stroke-miterlimit="10"/>
    </g>
    <g stroke-dasharray="6,2" stroke-miterlimit="1.45" transform="matrix(0.9836,0,0,0.9836,195.727,286.2138)" stroke-linecap="butt">
      <path fill="none" d="M185.4004 11.5664 L336.34 11.5664"/>
      <line stroke-linecap="square" transform="matrix(1,0,0,1,336.34,11.5664)" fill="none" x1="0" x2="-14" y1="0" y2="-4" stroke-dasharray="none" stroke-miterlimit="10"/>
      <line stroke-linecap="square" transform="matrix(1,0,0,1,336.34,11.5664)" fill="none" x1="0" x2="-14" y1="0" y2="4" stroke-dasharray="none" stroke-miterlimit="10"/>
    </g>
    <g stroke-dasharray="6,2" stroke-miterlimit="1.45" transform="matrix(0.9836,0,0,0.9836,195.727,286.2138)" stroke-linecap="butt">
      <path fill="none" d="M185.4258 44.6992 L336.34 44.6992"/>
      <line stroke-linecap="square" transform="matrix(1,0,0,1,336.34,44.6992)" fill="none" x1="0" x2="-14" y1="0" y2="-4" stroke-dasharray="none" stroke-miterlimit="10"/>
      <line stroke-linecap="square" transform="matrix(1,0,0,1,336.34,44.6992)" fill="none" x1="0" x2="-14" y1="0" y2="4" stroke-dasharray="none" stroke-miterlimit="10"/>
    </g>
  </g>
</svg>
