<?xml version="1.0" encoding="UTF-8"?><svg xmlns="http://www.w3.org/2000/svg" xmlns:xlink="http://www.w3.org/1999/xlink" fill-opacity="1" color-rendering="auto" color-interpolation="auto" stroke="black" text-rendering="auto" stroke-linecap="square" width="598" stroke-miterlimit="10" stroke-opacity="1" shape-rendering="auto" fill="black" stroke-dasharray="none" font-weight="normal" stroke-width="1" height="598" font-family="'Dialog'" font-style="normal" stroke-linejoin="miter" font-size="12" stroke-dashoffset="0" image-rendering="auto">
  <!--Generated by ySVG-->
  <defs id="genericDefs"/>
  <g>
    <defs id="defs1">
      <clipPath clipPathUnits="userSpaceOnUse" id="clipPath1">
        <path d="M0 0 L598 0 L598 598 L0 598 L0 0 Z"/>
      </clipPath>
      <clipPath clipPathUnits="userSpaceOnUse" id="clipPath2">
        <path d="M444.01 87.1328 L476.97 87.1328 L476.97 110.2656 L444.01 110.2656 L444.01 87.1328 Z"/>
      </clipPath>
      <clipPath clipPathUnits="userSpaceOnUse" id="clipPath3">
        <path d="M444.01 0 L542.89 0 L542.89 23.1328 L444.01 23.1328 L444.01 0 Z"/>
      </clipPath>
      <clipPath clipPathUnits="userSpaceOnUse" id="clipPath4">
        <path d="M-66 440.7362 C-66 449.7701 -84.9126 457.0935 -108.2426 457.0935 C-131.5725 457.0935 -150.4851 449.7701 -150.4851 440.7362 C-150.4851 431.7022 -131.5725 424.3788 -108.2426 424.3788 C-84.9126 424.3788 -66 431.7022 -66 440.7362 Z"/>
      </clipPath>
      <clipPath clipPathUnits="userSpaceOnUse" id="clipPath5">
        <path d="M-130.04 337.246 L-76.48 337.246 L-76.48 360.3788 L-130.04 360.3788 L-130.04 337.246 Z"/>
      </clipPath>
      <clipPath clipPathUnits="userSpaceOnUse" id="clipPath6">
        <path d="M-255.52 216.9804 L-66 216.9804 L-66 240.1132 L-255.52 240.1132 L-255.52 216.9804 Z"/>
      </clipPath>
      <clipPath clipPathUnits="userSpaceOnUse" id="clipPath7">
        <path d="M-255.52 250.1132 L-153.55 250.1132 L-153.55 273.246 L-255.52 273.246 L-255.52 250.1132 Z"/>
      </clipPath>
      <clipPath clipPathUnits="userSpaceOnUse" id="clipPath8">
        <path d="M-358.7 129.8475 L-218.62 129.8475 L-218.62 152.9804 L-358.7 152.9804 L-358.7 129.8475 Z"/>
      </clipPath>
      <clipPath clipPathUnits="userSpaceOnUse" id="clipPath9">
        <path d="M-180.2831 16.3574 C-180.2831 25.3913 -217.4562 32.7147 -263.3115 32.7147 C-309.1669 32.7147 -346.34 25.3913 -346.34 16.3574 C-346.34 7.3234 -309.1669 0 -263.3115 0 C-217.4562 0 -180.2831 7.3234 -180.2831 16.3574 Z"/>
      </clipPath>
      <clipPath clipPathUnits="userSpaceOnUse" id="clipPath10">
        <path d="M-346.34 42.7147 L-222.74 42.7147 L-222.74 65.8475 L-346.34 65.8475 L-346.34 42.7147 Z"/>
      </clipPath>
      <clipPath clipPathUnits="userSpaceOnUse" id="clipPath11">
        <path d="M517.3004 -100.3574 C517.3004 -91.3234 460.5624 -84 390.5727 -84 C320.5829 -84 263.845 -91.3234 263.845 -100.3574 C263.845 -109.3913 320.5829 -116.7147 390.5727 -116.7147 C460.5624 -116.7147 517.3004 -109.3913 517.3004 -100.3574 Z"/>
      </clipPath>
      <clipPath clipPathUnits="userSpaceOnUse" id="clipPath12">
        <path d="M160.165 -107.1328 L217.845 -107.1328 L217.845 -84 L160.165 -84 L160.165 -107.1328 Z"/>
      </clipPath>
      <clipPath clipPathUnits="userSpaceOnUse" id="clipPath13">
        <path d="M0 0 L378.01 0 L378.01 465.0935 L0 465.0935 L0 0 Z"/>
      </clipPath>
      <script type="text/ecmascript"><![CDATA[
function umlload(newLocation)
{
if (newLocation.charAt(0) != '#') {
if (newLocation.indexOf("://") > -1) {
window.parent.location.href = newLocation;
} else {
var tmp = window.parent.location.href;
tmp = tmp.substring(0, tmp.lastIndexOf("/") + 1);
window.parent.location.href = tmp.concat(newLocation);
}
} else {
window.parent.location.hash = newLocation;
}
}
]]></script>
    </defs>
    <g fill="rgb(238,238,255)" transform="matrix(0.5426,0,0,0.5426,199.1525,199.6951)" stroke="rgb(238,238,255)">
      <rect width="69.7758" x="436.01" height="17.9688" y="61.1328" stroke="none"/>
    </g>
    <g fill="rgb(166,166,178)" stroke-miterlimit="1.45" transform="matrix(0.5426,0,0,0.5426,199.1525,199.6951)" stroke-linecap="butt" stroke="rgb(166,166,178)">
      <rect fill="none" width="69.7758" x="436.01" height="17.9688" y="61.1328"/>
    </g>
    <g fill="rgb(238,238,255)" transform="matrix(0.5426,0,0,0.5426,199.1525,199.6951)" stroke="rgb(238,238,255)">
      <rect width="73.96" x="436.01" height="39.1641" y="79.1016" stroke="none"/>
    </g>
    <g fill="rgb(166,166,178)" stroke-miterlimit="1.45" transform="matrix(0.5426,0,0,0.5426,199.1525,199.6951)" stroke-linecap="butt" stroke="rgb(166,166,178)">
      <rect fill="none" width="73.96" x="436.01" height="39.1641" y="79.1016"/>
    </g>
    <g font-family="sans-serif" transform="matrix(0.5426,0,0,0.5426,199.1525,199.6951)">
      <text xml:space="preserve" x="442.01" y="74.2715" onclick="umlload('http://docs.oracle.com/javase/6/docs/api/java/net/package-summary.html')" stroke="none">java.net</text>
    </g>
    <g fill="rgb(187,187,255)" transform="matrix(0.5426,0,0,0.5426,199.1525,199.6951)" stroke="rgb(187,187,255)">
      <rect x="444.01" y="87.1328" clip-path="url(#clipPath2)" width="32.96" height="23.1328" stroke="none"/>
    </g>
    <g fill="rgb(130,130,178)" stroke-miterlimit="1.45" transform="matrix(0.5426,0,0,0.5426,199.1525,199.6951)" stroke-linecap="butt" stroke="rgb(130,130,178)">
      <rect fill="none" width="32.96" x="444.01" height="23.1328" y="87.1328"/>
    </g>
    <g font-size="13" font-weight="bold" font-family="sans-serif" transform="matrix(0.5426,0,0,0.5426,199.1525,199.6951)">
      <text xml:space="preserve" x="448.49" y="103.1997" onclick="umlload('http://docs.oracle.com/javase/6/docs/api/java/net/URI.html')" stroke="none">URI</text>
    </g>
    <g fill="rgb(238,238,255)" transform="matrix(0.5426,0,0,0.5426,199.1525,199.6951)" stroke="rgb(238,238,255)">
      <rect width="298.9302" x="436.01" height="17.9688" y="-26" stroke="none"/>
    </g>
    <g fill="rgb(166,166,178)" stroke-miterlimit="1.45" transform="matrix(0.5426,0,0,0.5426,199.1525,199.6951)" stroke-linecap="butt" stroke="rgb(166,166,178)">
      <rect fill="none" width="298.9302" x="436.01" height="17.9688" y="-26"/>
    </g>
    <g fill="rgb(238,238,255)" transform="matrix(0.5426,0,0,0.5426,199.1525,199.6951)" stroke="rgb(238,238,255)">
      <rect width="298.9302" x="436.01" height="39.1641" y="-8.0312" stroke="none"/>
    </g>
    <g fill="rgb(166,166,178)" stroke-miterlimit="1.45" transform="matrix(0.5426,0,0,0.5426,199.1525,199.6951)" stroke-linecap="butt" stroke="rgb(166,166,178)">
      <rect fill="none" width="298.9302" x="436.01" height="39.1641" y="-8.0312"/>
    </g>
    <g font-family="sans-serif" transform="matrix(0.5426,0,0,0.5426,199.1525,199.6951)">
      <text xml:space="preserve" x="442.01" y="-12.8613" onclick="umlload('../../../../../com/msopentech/odatajclient/engine/data/package-summary.html')" stroke="none">com.msopentech.odatajclient.engine.data</text>
    </g>
    <g fill="rgb(187,187,255)" transform="matrix(0.5426,0,0,0.5426,199.1525,199.6951)" stroke="rgb(187,187,255)">
      <rect x="444.01" y="0" clip-path="url(#clipPath3)" width="98.88" height="23.1328" stroke="none"/>
    </g>
    <g fill="rgb(130,130,178)" stroke-miterlimit="1.45" transform="matrix(0.5426,0,0,0.5426,199.1525,199.6951)" stroke-linecap="butt" stroke="rgb(130,130,178)">
      <rect fill="none" width="98.88" x="444.01" height="23.1328" y="0"/>
    </g>
    <g font-size="13" font-weight="bold" font-family="sans-serif" transform="matrix(0.5426,0,0,0.5426,199.1525,199.6951)">
      <text xml:space="preserve" x="449.45" y="16.0669" onclick="umlload('../../../../../com/msopentech/odatajclient/engine/data/ODataEntity.html')" stroke="none">ODataEntity</text>
    </g>
    <g fill="rgb(238,238,255)" transform="matrix(0.5426,0,0,0.5426,199.1525,199.6951)" stroke="rgb(238,238,255)">
      <rect width="69.7758" x="-158.4851" height="17.9688" y="398.3788" stroke="none"/>
    </g>
    <g fill="rgb(166,166,178)" stroke-miterlimit="1.45" transform="matrix(0.5426,0,0,0.5426,199.1525,199.6951)" stroke-linecap="butt" stroke="rgb(166,166,178)">
      <rect fill="none" width="69.7758" x="-158.4851" height="17.9688" y="398.3788"/>
    </g>
    <g fill="rgb(238,238,255)" transform="matrix(0.5426,0,0,0.5426,199.1525,199.6951)" stroke="rgb(238,238,255)">
      <rect width="100.4851" x="-158.4851" height="48.746" y="416.3475" stroke="none"/>
    </g>
    <g fill="rgb(166,166,178)" stroke-miterlimit="1.45" transform="matrix(0.5426,0,0,0.5426,199.1525,199.6951)" stroke-linecap="butt" stroke="rgb(166,166,178)">
      <rect fill="none" width="100.4851" x="-158.4851" height="48.746" y="416.3475"/>
    </g>
    <g font-family="sans-serif" transform="matrix(0.5426,0,0,0.5426,199.1525,199.6951)">
      <text xml:space="preserve" x="-152.4851" y="411.5175" stroke="none">org.slf4j</text>
    </g>
    <g fill="rgb(221,221,255)" transform="matrix(0.5426,0,0,0.5426,199.1525,199.6951)" stroke="rgb(221,221,255)">
      <rect x="-150.4851" y="424.3788" clip-path="url(#clipPath4)" width="84.4851" height="32.7147" stroke="none"/>
    </g>
    <g fill="rgb(154,154,178)" stroke-miterlimit="1.45" transform="matrix(0.5426,0,0,0.5426,199.1525,199.6951)" stroke-linecap="butt" stroke="rgb(154,154,178)">
      <ellipse rx="42.2426" fill="none" ry="16.3574" cx="-108.2426" cy="440.7362"/>
    </g>
    <g font-style="italic" font-size="13" font-weight="bold" font-family="sans-serif" transform="matrix(0.5426,0,0,0.5426,199.1525,199.6951)">
      <text xml:space="preserve" x="-133.2426" y="445.2367" stroke="none">Logger</text>
    </g>
    <g fill="rgb(238,238,255)" transform="matrix(0.5426,0,0,0.5426,199.1525,199.6951)" stroke="rgb(238,238,255)">
      <rect width="76.1412" x="-138.04" height="17.9688" y="311.246" stroke="none"/>
    </g>
    <g fill="rgb(166,166,178)" stroke-miterlimit="1.45" transform="matrix(0.5426,0,0,0.5426,199.1525,199.6951)" stroke-linecap="butt" stroke="rgb(166,166,178)">
      <rect fill="none" width="76.1412" x="-138.04" height="17.9688" y="311.246"/>
    </g>
    <g fill="rgb(238,238,255)" transform="matrix(0.5426,0,0,0.5426,199.1525,199.6951)" stroke="rgb(238,238,255)">
      <rect width="79.56" x="-138.04" height="39.1641" y="329.2147" stroke="none"/>
    </g>
    <g fill="rgb(166,166,178)" stroke-miterlimit="1.45" transform="matrix(0.5426,0,0,0.5426,199.1525,199.6951)" stroke-linecap="butt" stroke="rgb(166,166,178)">
      <rect fill="none" width="79.56" x="-138.04" height="39.1641" y="329.2147"/>
    </g>
    <g font-family="sans-serif" transform="matrix(0.5426,0,0,0.5426,199.1525,199.6951)">
      <text xml:space="preserve" x="-132.04" y="324.3847" onclick="umlload('http://docs.oracle.com/javase/6/docs/api/java/lang/package-summary.html')" stroke="none">java.lang</text>
    </g>
    <g fill="rgb(187,187,255)" transform="matrix(0.5426,0,0,0.5426,199.1525,199.6951)" stroke="rgb(187,187,255)">
      <rect x="-130.04" y="337.246" clip-path="url(#clipPath5)" width="53.56" height="23.1328" stroke="none"/>
    </g>
    <g fill="rgb(130,130,178)" stroke-miterlimit="1.45" transform="matrix(0.5426,0,0,0.5426,199.1525,199.6951)" stroke-linecap="butt" stroke="rgb(130,130,178)">
      <rect fill="none" width="53.56" x="-130.04" height="23.1328" y="337.246"/>
    </g>
    <g font-size="13" font-weight="bold" font-family="sans-serif" transform="matrix(0.5426,0,0,0.5426,199.1525,199.6951)">
      <text xml:space="preserve" x="-125.26" y="353.3129" onclick="umlload('http://docs.oracle.com/javase/6/docs/api/java/lang/String.html')" stroke="none">String</text>
    </g>
    <g fill="rgb(238,238,255)" transform="matrix(0.5426,0,0,0.5426,199.1525,199.6951)" stroke="rgb(238,238,255)">
      <rect width="59.1668" x="-263.52" height="17.9688" y="190.9804" stroke="none"/>
    </g>
    <g fill="rgb(166,166,178)" stroke-miterlimit="1.45" transform="matrix(0.5426,0,0,0.5426,199.1525,199.6951)" stroke-linecap="butt" stroke="rgb(166,166,178)">
      <rect fill="none" width="59.1668" x="-263.52" height="17.9688" y="190.9804"/>
    </g>
    <g fill="rgb(238,238,255)" transform="matrix(0.5426,0,0,0.5426,199.1525,199.6951)" stroke="rgb(238,238,255)">
      <rect width="205.52" x="-263.52" height="72.2969" y="208.9491" stroke="none"/>
    </g>
    <g fill="rgb(166,166,178)" stroke-miterlimit="1.45" transform="matrix(0.5426,0,0,0.5426,199.1525,199.6951)" stroke-linecap="butt" stroke="rgb(166,166,178)">
      <rect fill="none" width="205.52" x="-263.52" height="72.2969" y="208.9491"/>
    </g>
    <g font-family="sans-serif" transform="matrix(0.5426,0,0,0.5426,199.1525,199.6951)">
      <text xml:space="preserve" x="-257.52" y="204.119" onclick="umlload('http://docs.oracle.com/javase/6/docs/api/java/io/package-summary.html')" stroke="none">java.io</text>
    </g>
    <g fill="rgb(187,187,255)" transform="matrix(0.5426,0,0,0.5426,199.1525,199.6951)" stroke="rgb(187,187,255)">
      <rect x="-255.52" y="216.9804" clip-path="url(#clipPath6)" width="189.52" height="23.1328" stroke="none"/>
    </g>
    <g fill="rgb(130,130,178)" stroke-miterlimit="1.45" transform="matrix(0.5426,0,0,0.5426,199.1525,199.6951)" stroke-linecap="butt" stroke="rgb(130,130,178)">
      <rect fill="none" width="189.52" x="-255.52" height="23.1328" y="216.9804"/>
    </g>
    <g font-size="13" font-weight="bold" font-family="sans-serif" transform="matrix(0.5426,0,0,0.5426,199.1525,199.6951)">
      <text xml:space="preserve" x="-248.76" y="233.0473" onclick="umlload('http://docs.oracle.com/javase/6/docs/api/java/io/ByteArrayOutputStream.html')" stroke="none">ByteArrayOutputStream</text>
    </g>
    <g fill="rgb(204,204,255)" transform="matrix(0.5426,0,0,0.5426,199.1525,199.6951)" stroke="rgb(204,204,255)">
      <rect x="-255.52" y="250.1132" clip-path="url(#clipPath7)" width="101.97" height="23.1328" stroke="none"/>
    </g>
    <g fill="rgb(142,142,178)" stroke-miterlimit="1.45" transform="matrix(0.5426,0,0,0.5426,199.1525,199.6951)" stroke-linecap="butt" stroke="rgb(142,142,178)">
      <rect fill="none" width="101.97" x="-255.52" height="23.1328" y="250.1132"/>
    </g>
    <g font-size="13" font-weight="bold" font-family="sans-serif" transform="matrix(0.5426,0,0,0.5426,199.1525,199.6951)">
      <text xml:space="preserve" x="-250.035" y="266.1801" onclick="umlload('http://docs.oracle.com/javase/6/docs/api/java/io/InputStream.html')" stroke="none">InputStream</text>
    </g>
    <g fill="rgb(238,238,255)" transform="matrix(0.5426,0,0,0.5426,199.1525,199.6951)" stroke="rgb(238,238,255)">
      <rect width="311.661" x="-366.7" height="17.9688" y="103.8475" stroke="none"/>
    </g>
    <g fill="rgb(166,166,178)" stroke-miterlimit="1.45" transform="matrix(0.5426,0,0,0.5426,199.1525,199.6951)" stroke-linecap="butt" stroke="rgb(166,166,178)">
      <rect fill="none" width="311.661" x="-366.7" height="17.9688" y="103.8475"/>
    </g>
    <g fill="rgb(238,238,255)" transform="matrix(0.5426,0,0,0.5426,199.1525,199.6951)" stroke="rgb(238,238,255)">
      <rect width="312.08" x="-366.7" height="39.1641" y="121.8163" stroke="none"/>
    </g>
    <g fill="rgb(166,166,178)" stroke-miterlimit="1.45" transform="matrix(0.5426,0,0,0.5426,199.1525,199.6951)" stroke-linecap="butt" stroke="rgb(166,166,178)">
      <rect fill="none" width="312.08" x="-366.7" height="39.1641" y="121.8163"/>
    </g>
    <g font-family="sans-serif" transform="matrix(0.5426,0,0,0.5426,199.1525,199.6951)">
      <text xml:space="preserve" x="-360.7" y="116.9862" onclick="umlload('../../../../../com/msopentech/odatajclient/engine/format/package-summary.html')" stroke="none">com.msopentech.odatajclient.engine.format</text>
    </g>
    <g fill="rgb(170,170,255)" transform="matrix(0.5426,0,0,0.5426,199.1525,199.6951)" stroke="rgb(170,170,255)">
      <rect x="-358.7" y="129.8475" clip-path="url(#clipPath8)" width="140.08" height="23.1328" stroke="none"/>
    </g>
    <g fill="rgb(118,118,178)" stroke-miterlimit="1.45" transform="matrix(0.5426,0,0,0.5426,199.1525,199.6951)" stroke-linecap="butt" stroke="rgb(118,118,178)">
      <rect fill="none" width="140.08" x="-358.7" height="23.1328" y="129.8475"/>
    </g>
    <g font-size="13" font-weight="bold" font-family="sans-serif" transform="matrix(0.5426,0,0,0.5426,199.1525,199.6951)">
      <text xml:space="preserve" x="-352.66" y="145.9144" onclick="umlload('../../../../../com/msopentech/odatajclient/engine/format/ODataPubFormat.html')" stroke="none">ODataPubFormat</text>
    </g>
    <g fill="rgb(238,238,255)" transform="matrix(0.5426,0,0,0.5426,199.1525,199.6951)" stroke="rgb(238,238,255)">
      <rect width="298.9302" x="-354.34" height="17.9688" y="-26" stroke="none"/>
    </g>
    <g fill="rgb(166,166,178)" stroke-miterlimit="1.45" transform="matrix(0.5426,0,0,0.5426,199.1525,199.6951)" stroke-linecap="butt" stroke="rgb(166,166,178)">
      <rect fill="none" width="298.9302" x="-354.34" height="17.9688" y="-26"/>
    </g>
    <g fill="rgb(238,238,255)" transform="matrix(0.5426,0,0,0.5426,199.1525,199.6951)" stroke="rgb(238,238,255)">
      <rect width="299.057" x="-354.34" height="81.8788" y="-8.0312" stroke="none"/>
    </g>
    <g fill="rgb(166,166,178)" stroke-miterlimit="1.45" transform="matrix(0.5426,0,0,0.5426,199.1525,199.6951)" stroke-linecap="butt" stroke="rgb(166,166,178)">
      <rect fill="none" width="299.057" x="-354.34" height="81.8788" y="-8.0312"/>
    </g>
    <g font-family="sans-serif" transform="matrix(0.5426,0,0,0.5426,199.1525,199.6951)">
      <text xml:space="preserve" x="-348.34" y="-12.8613" onclick="umlload('../../../../../com/msopentech/odatajclient/engine/data/package-summary.html')" stroke="none">com.msopentech.odatajclient.engine.data</text>
    </g>
    <g fill="rgb(221,221,255)" transform="matrix(0.5426,0,0,0.5426,199.1525,199.6951)" stroke="rgb(221,221,255)">
      <rect x="-346.34" y="0" clip-path="url(#clipPath9)" width="166.057" height="32.7147" stroke="none"/>
    </g>
    <g fill="rgb(154,154,178)" stroke-miterlimit="1.45" transform="matrix(0.5426,0,0,0.5426,199.1525,199.6951)" stroke-linecap="butt" stroke="rgb(154,154,178)">
      <ellipse rx="83.0285" fill="none" ry="16.3574" cx="-263.3115" cy="16.3574"/>
    </g>
    <g font-style="italic" font-size="13" font-weight="bold" font-family="sans-serif" transform="matrix(0.5426,0,0,0.5426,199.1525,199.6951)">
      <text xml:space="preserve" x="-316.3115" y="20.8579" onclick="umlload('../../../../../com/msopentech/odatajclient/engine/data/EntryResource.html')" stroke="none">EntryResource</text>
    </g>
    <g fill="rgb(187,187,255)" transform="matrix(0.5426,0,0,0.5426,199.1525,199.6951)" stroke="rgb(187,187,255)">
      <rect x="-346.34" y="42.7147" clip-path="url(#clipPath10)" width="123.6" height="23.1328" stroke="none"/>
    </g>
    <g fill="rgb(130,130,178)" stroke-miterlimit="1.45" transform="matrix(0.5426,0,0,0.5426,199.1525,199.6951)" stroke-linecap="butt" stroke="rgb(130,130,178)">
      <rect fill="none" width="123.6" x="-346.34" height="23.1328" y="42.7147"/>
    </g>
    <g font-size="13" font-weight="bold" font-family="sans-serif" transform="matrix(0.5426,0,0,0.5426,199.1525,199.6951)">
      <text xml:space="preserve" x="-340.54" y="58.7816" onclick="umlload('../../../../../com/msopentech/odatajclient/engine/data/ODataEntitySet.html')" stroke="none">ODataEntitySet</text>
    </g>
    <g fill="rgb(238,238,255)" transform="matrix(0.5426,0,0,0.5426,199.1525,199.6951)" stroke="rgb(238,238,255)">
      <rect width="67.654" x="255.845" height="17.9688" y="-142.7147" stroke="none"/>
    </g>
    <g fill="rgb(166,166,178)" stroke-miterlimit="1.45" transform="matrix(0.5426,0,0,0.5426,199.1525,199.6951)" stroke-linecap="butt" stroke="rgb(166,166,178)">
      <rect fill="none" width="67.654" x="255.845" height="17.9688" y="-142.7147"/>
    </g>
    <g fill="rgb(238,238,255)" transform="matrix(0.5426,0,0,0.5426,199.1525,199.6951)" stroke="rgb(238,238,255)">
      <rect width="269.4554" x="255.845" height="48.746" y="-124.746" stroke="none"/>
    </g>
    <g fill="rgb(166,166,178)" stroke-miterlimit="1.45" transform="matrix(0.5426,0,0,0.5426,199.1525,199.6951)" stroke-linecap="butt" stroke="rgb(166,166,178)">
      <rect fill="none" width="269.4554" x="255.845" height="48.746" y="-124.746"/>
    </g>
    <g font-family="sans-serif" transform="matrix(0.5426,0,0,0.5426,199.1525,199.6951)">
      <text xml:space="preserve" x="261.845" y="-129.5761" onclick="umlload('http://docs.oracle.com/javase/6/docs/api/java/util/package-summary.html')" stroke="none">java.util</text>
    </g>
    <g fill="rgb(221,221,255)" transform="matrix(0.5426,0,0,0.5426,199.1525,199.6951)" stroke="rgb(221,221,255)">
      <rect x="263.845" y="-116.7147" clip-path="url(#clipPath11)" width="253.4554" height="32.7147" stroke="none"/>
    </g>
    <g fill="rgb(154,154,178)" stroke-miterlimit="1.45" transform="matrix(0.5426,0,0,0.5426,199.1525,199.6951)" stroke-linecap="butt" stroke="rgb(154,154,178)">
      <ellipse rx="126.7277" fill="none" ry="16.3574" cx="390.5727" cy="-100.3574"/>
    </g>
    <g font-style="italic" font-size="13" font-weight="bold" font-family="sans-serif" transform="matrix(0.5426,0,0,0.5426,199.1525,199.6951)">
      <text xml:space="preserve" x="307.5727" y="-95.8569" onclick="umlload('http://docs.oracle.com/javase/6/docs/api/java/util/Iterator.html')" stroke="none">Iterator&lt;ODataEntity&gt;</text>
    </g>
    <g fill="rgb(238,238,255)" transform="matrix(0.5426,0,0,0.5426,199.1525,199.6951)" stroke="rgb(238,238,255)">
      <rect width="76.1412" x="152.165" height="17.9688" y="-133.1328" stroke="none"/>
    </g>
    <g fill="rgb(166,166,178)" stroke-miterlimit="1.45" transform="matrix(0.5426,0,0,0.5426,199.1525,199.6951)" stroke-linecap="butt" stroke="rgb(166,166,178)">
      <rect fill="none" width="76.1412" x="152.165" height="17.9688" y="-133.1328"/>
    </g>
    <g fill="rgb(238,238,255)" transform="matrix(0.5426,0,0,0.5426,199.1525,199.6951)" stroke="rgb(238,238,255)">
      <rect width="76.1412" x="152.165" height="39.1641" y="-115.1641" stroke="none"/>
    </g>
    <g fill="rgb(166,166,178)" stroke-miterlimit="1.45" transform="matrix(0.5426,0,0,0.5426,199.1525,199.6951)" stroke-linecap="butt" stroke="rgb(166,166,178)">
      <rect fill="none" width="76.1412" x="152.165" height="39.1641" y="-115.1641"/>
    </g>
    <g font-family="sans-serif" transform="matrix(0.5426,0,0,0.5426,199.1525,199.6951)">
      <text xml:space="preserve" x="158.165" y="-119.9941" onclick="umlload('http://docs.oracle.com/javase/6/docs/api/java/lang/package-summary.html')" stroke="none">java.lang</text>
    </g>
    <g fill="rgb(187,187,255)" transform="matrix(0.5426,0,0,0.5426,199.1525,199.6951)" stroke="rgb(187,187,255)">
      <rect x="160.165" y="-107.1328" clip-path="url(#clipPath12)" width="57.68" height="23.1328" stroke="none"/>
    </g>
    <g fill="rgb(130,130,178)" stroke-miterlimit="1.45" transform="matrix(0.5426,0,0,0.5426,199.1525,199.6951)" stroke-linecap="butt" stroke="rgb(130,130,178)">
      <rect fill="none" width="57.68" x="160.165" height="23.1328" y="-107.1328"/>
    </g>
    <g font-size="13" font-weight="bold" font-family="sans-serif" transform="matrix(0.5426,0,0,0.5426,199.1525,199.6951)">
      <text xml:space="preserve" x="165.005" y="-91.0659" onclick="umlload('http://docs.oracle.com/javase/6/docs/api/java/lang/Object.html')" stroke="none">Object</text>
    </g>
    <g fill="rgb(238,238,255)" transform="matrix(0.5426,0,0,0.5426,199.1525,199.6951)" stroke="rgb(238,238,255)">
      <rect width="298.9302" x="-8" height="17.9688" y="-26" stroke="none"/>
    </g>
    <g fill="rgb(166,166,178)" stroke-miterlimit="1.45" transform="matrix(0.5426,0,0,0.5426,199.1525,199.6951)" stroke-linecap="butt" stroke="rgb(166,166,178)">
      <rect fill="none" width="298.9302" x="-8" height="17.9688" y="-26"/>
    </g>
    <g fill="rgb(238,238,255)" transform="matrix(0.5426,0,0,0.5426,199.1525,199.6951)" stroke="rgb(238,238,255)">
      <rect width="394.01" x="-8" height="481.1248" y="-8.0312" stroke="none"/>
    </g>
    <g fill="rgb(166,166,178)" stroke-miterlimit="1.45" transform="matrix(0.5426,0,0,0.5426,199.1525,199.6951)" stroke-linecap="butt" stroke="rgb(166,166,178)">
      <rect fill="none" width="394.01" x="-8" height="481.1248" y="-8.0312"/>
    </g>
    <g font-family="sans-serif" transform="matrix(0.5426,0,0,0.5426,199.1525,199.6951)">
      <text xml:space="preserve" x="-2" y="-12.8613" onclick="umlload('package-summary.html')" stroke="none">com.msopentech.odatajclient.engine.data</text>
    </g>
    <g fill="rgb(187,187,255)" transform="matrix(0.5426,0,0,0.5426,199.1525,199.6951)" stroke="rgb(187,187,255)">
      <rect x="0" y="0" clip-path="url(#clipPath13)" width="378.01" height="26.625" stroke="none"/>
      <line clip-path="url(#clipPath13)" fill="none" x1="0" x2="378.01" y1="26.625" y2="26.625" stroke="black"/>
      <rect x="0" y="27.625" clip-path="url(#clipPath13)" width="378.01" height="15.9688" stroke="none"/>
      <line clip-path="url(#clipPath13)" fill="none" x1="0" x2="378.01" y1="43.5938" y2="43.5938" stroke="black"/>
      <rect x="0" y="44.5938" clip-path="url(#clipPath13)" width="378.01" height="420.4998" stroke="none"/>
    </g>
    <g fill="rgb(130,130,178)" stroke-miterlimit="1.45" transform="matrix(0.5426,0,0,0.5426,199.1525,199.6951)" stroke-linecap="butt" stroke="rgb(130,130,178)">
      <rect fill="none" width="378.01" x="0" height="465.0935" y="0"/>
    </g>
    <g font-size="16" font-weight="bold" font-family="sans-serif" transform="matrix(0.5426,0,0,0.5426,199.1525,199.6951)">
      <text xml:space="preserve" x="86.005" y="18.8516" onclick="umlload('#')" stroke="none">ODataEntitySetIterator</text>
    </g>
    <g font-family="sans-serif" transform="matrix(0.5426,0,0,0.5426,199.1525,199.6951)">
      <text xml:space="preserve" x="4" y="38.1719" stroke="none">+</text>
      <text xml:space="preserve" x="19" y="39.7637" onclick="umlload('#ODataEntitySetIterator(java.io.InputStream, com.msopentech.odatajclient.engine.format.ODataPubFormat)')" stroke="none">ODataEntitySetIterator(InputStream, ODataPubFormat)</text>
    </g>
    <g font-family="sans-serif" transform="matrix(0.5426,0,0,0.5426,199.1525,199.6951)">
      <text xml:space="preserve" x="4" y="55.1719" stroke="none">+</text>
      <text xml:space="preserve" x="19" y="56.7324" onclick="umlload('#close()')" stroke="none">close() : void</text>
    </g>
    <g font-family="sans-serif" transform="matrix(0.5426,0,0,0.5426,199.1525,199.6951)">
      <text xml:space="preserve" x="4" y="71.1719" stroke="none">#</text>
      <text xml:space="preserve" x="19" y="72.7012" onclick="umlload('#finalize()')" stroke="none">finalize() : void</text>
    </g>
    <g font-family="sans-serif" transform="matrix(0.5426,0,0,0.5426,199.1525,199.6951)">
      <text xml:space="preserve" x="4" y="87.1719" stroke="none">+</text>
      <text xml:space="preserve" x="19" y="88.6699" onclick="umlload('#getNext()')" stroke="none">getNext() : URI</text>
    </g>
    <g font-family="sans-serif" transform="matrix(0.5426,0,0,0.5426,199.1525,199.6951)">
      <text xml:space="preserve" x="4" y="103.1719" stroke="none">+</text>
      <text xml:space="preserve" x="19" y="104.6387" onclick="umlload('#hasNext()')" stroke="none">hasNext() : boolean</text>
    </g>
    <g font-family="sans-serif" transform="matrix(0.5426,0,0,0.5426,199.1525,199.6951)">
      <text xml:space="preserve" x="4" y="119.1719" stroke="none">+</text>
      <text xml:space="preserve" x="19" y="120.6074" onclick="umlload('#next()')" stroke="none">next() : ODataEntity</text>
    </g>
    <g font-family="sans-serif" transform="matrix(0.5426,0,0,0.5426,199.1525,199.6951)">
      <text xml:space="preserve" x="4" y="135.1719" stroke="none">+</text>
      <text xml:space="preserve" x="19" y="136.5762" onclick="umlload('#remove()')" stroke="none">remove() : void</text>
    </g>
    <g font-family="sans-serif" transform="matrix(0.5426,0,0,0.5426,199.1525,199.6951)">
      <text xml:space="preserve" x="-361" y="498.1543" onclick="umlload('http://www.yworks.com/')" stroke="none">yWorks UML Doclet</text>
    </g>
    <g stroke-miterlimit="1.45" transform="matrix(0.5426,0,0,0.5426,199.1525,199.6951)" stroke-linecap="butt">
      <path fill="none" d="M189.005 -0.0142 L189.005 -69"/>
      <path fill="white" d="M189.005 -84 L183.005 -68 L195.005 -68 Z" stroke="none"/>
      <path fill="none" d="M189.005 -84 L183.005 -68 L195.005 -68 Z"/>
      <path fill="none" stroke-dasharray="6,2" d="M283.5075 -0.0154 L283.5075 -51 L390.5727 -51 L390.5727 -69"/>
      <path fill="white" stroke-dasharray="6,2" d="M390.5727 -84 L384.5727 -68 L396.5727 -68 Z" stroke="none"/>
      <path fill="none" d="M390.5727 -84 L384.5727 -68 L396.5727 -68 Z"/>
      <path fill="none" d="M-0.0216 16.3574 L-180.2831 16.3574"/>
      <line stroke-linecap="square" transform="matrix(-1,0,0,-1,-180.2831,16.3574)" fill="none" x1="0" x2="-14" y1="0" y2="-4" stroke-miterlimit="10"/>
      <line stroke-linecap="square" transform="matrix(-1,0,0,-1,-180.2831,16.3574)" fill="none" x1="0" x2="-14" y1="0" y2="4" stroke-miterlimit="10"/>
    </g>
    <g stroke-miterlimit="1.45" transform="matrix(0.5426,0,0,0.5426,199.1525,199.6951)" stroke-linecap="butt">
      <path fill="none" d="M0.009 54.2811 L-222.74 54.2811"/>
      <line stroke-linecap="square" transform="matrix(-1,0,0,-1,-222.74,54.2811)" fill="none" x1="0" x2="-14" y1="0" y2="-4" stroke-miterlimit="10"/>
      <line stroke-linecap="square" transform="matrix(-1,0,0,-1,-222.74,54.2811)" fill="none" x1="0" x2="-14" y1="0" y2="4" stroke-miterlimit="10"/>
    </g>
    <g stroke-miterlimit="1.45" transform="matrix(0.5426,0,0,0.5426,199.1525,199.6951)" stroke-linecap="butt">
      <path fill="none" d="M-0.0027 141.414 L-218.62 141.414"/>
      <line stroke-linecap="square" transform="matrix(-1,0,0,-1,-218.62,141.414)" fill="none" x1="0" x2="-14" y1="0" y2="-4" stroke-miterlimit="10"/>
      <line stroke-linecap="square" transform="matrix(-1,0,0,-1,-218.62,141.414)" fill="none" x1="0" x2="-14" y1="0" y2="4" stroke-miterlimit="10"/>
    </g>
    <g stroke-miterlimit="1.45" transform="matrix(0.5426,0,0,0.5426,199.1525,199.6951)" stroke-linecap="butt">
      <path fill="none" d="M-0.0099 228.5468 L-66 228.5468"/>
      <line stroke-linecap="square" transform="matrix(-1,0,0,-1,-66,228.5468)" fill="none" x1="0" x2="-14" y1="0" y2="-4" stroke-miterlimit="10"/>
      <line stroke-linecap="square" transform="matrix(-1,0,0,-1,-66,228.5468)" fill="none" x1="0" x2="-14" y1="0" y2="4" stroke-miterlimit="10"/>
    </g>
    <g stroke-miterlimit="1.45" transform="matrix(0.5426,0,0,0.5426,199.1525,199.6951)" stroke-linecap="butt">
      <path fill="none" d="M-0.0306 261.6796 L-153.55 261.6796"/>
      <line stroke-linecap="square" transform="matrix(-1,0,0,-1,-153.55,261.6796)" fill="none" x1="0" x2="-14" y1="0" y2="-4" stroke-miterlimit="10"/>
      <line stroke-linecap="square" transform="matrix(-1,0,0,-1,-153.55,261.6796)" fill="none" x1="0" x2="-14" y1="0" y2="4" stroke-miterlimit="10"/>
    </g>
    <g stroke-miterlimit="1.45" transform="matrix(0.5426,0,0,0.5426,199.1525,199.6951)" stroke-linecap="butt">
      <path fill="none" d="M0.0246 348.8124 L-76.48 348.8124"/>
      <line stroke-linecap="square" transform="matrix(-1,0,0,-1,-76.48,348.8124)" fill="none" x1="0" x2="-14" y1="0" y2="-4" stroke-miterlimit="10"/>
      <line stroke-linecap="square" transform="matrix(-1,0,0,-1,-76.48,348.8124)" fill="none" x1="0" x2="-14" y1="0" y2="4" stroke-miterlimit="10"/>
    </g>
    <g stroke-miterlimit="1.45" transform="matrix(0.5426,0,0,0.5426,199.1525,199.6951)" stroke-linecap="butt">
      <path fill="none" d="M-0.0041 440.7362 L-66 440.7362"/>
      <line stroke-linecap="square" transform="matrix(-1,0,0,-1,-66,440.7362)" fill="none" x1="0" x2="-14" y1="0" y2="-4" stroke-miterlimit="10"/>
      <line stroke-linecap="square" transform="matrix(-1,0,0,-1,-66,440.7362)" fill="none" x1="0" x2="-14" y1="0" y2="4" stroke-miterlimit="10"/>
    </g>
    <g stroke-dasharray="6,2" stroke-miterlimit="1.45" transform="matrix(0.5426,0,0,0.5426,199.1525,199.6951)" stroke-linecap="butt">
      <path fill="none" d="M377.9824 11.5664 L444.01 11.5664"/>
      <line stroke-linecap="square" transform="matrix(1,0,0,1,444.01,11.5664)" fill="none" x1="0" x2="-14" y1="0" y2="-4" stroke-dasharray="none" stroke-miterlimit="10"/>
      <line stroke-linecap="square" transform="matrix(1,0,0,1,444.01,11.5664)" fill="none" x1="0" x2="-14" y1="0" y2="4" stroke-dasharray="none" stroke-miterlimit="10"/>
    </g>
    <g stroke-dasharray="6,2" stroke-miterlimit="1.45" transform="matrix(0.5426,0,0,0.5426,199.1525,199.6951)" stroke-linecap="butt">
      <path fill="none" d="M378.0039 98.6992 L444.01 98.6992"/>
      <line stroke-linecap="square" transform="matrix(1,0,0,1,444.01,98.6992)" fill="none" x1="0" x2="-14" y1="0" y2="-4" stroke-dasharray="none" stroke-miterlimit="10"/>
      <line stroke-linecap="square" transform="matrix(1,0,0,1,444.01,98.6992)" fill="none" x1="0" x2="-14" y1="0" y2="4" stroke-dasharray="none" stroke-miterlimit="10"/>
    </g>
  </g>
</svg>
