<?xml version="1.0" encoding="UTF-8"?><svg xmlns="http://www.w3.org/2000/svg" xmlns:xlink="http://www.w3.org/1999/xlink" fill-opacity="1" color-rendering="auto" color-interpolation="auto" stroke="black" text-rendering="auto" stroke-linecap="square" width="598" stroke-miterlimit="10" stroke-opacity="1" shape-rendering="auto" fill="black" stroke-dasharray="none" font-weight="normal" stroke-width="1" height="598" font-family="'Dialog'" font-style="normal" stroke-linejoin="miter" font-size="12" stroke-dashoffset="0" image-rendering="auto">
  <!--Generated by ySVG-->
  <defs id="genericDefs"/>
  <g>
    <defs id="defs1">
      <clipPath clipPathUnits="userSpaceOnUse" id="clipPath1">
        <path d="M0 0 L598 0 L598 598 L0 598 L0 0 Z"/>
      </clipPath>
      <clipPath clipPathUnits="userSpaceOnUse" id="clipPath2">
        <path d="M376.03 0 L462.55 0 L462.55 23.1328 L376.03 23.1328 L376.03 0 Z"/>
      </clipPath>
      <clipPath clipPathUnits="userSpaceOnUse" id="clipPath3">
        <path d="M376.03 33.1328 L506.84 33.1328 L506.84 56.2656 L376.03 56.2656 L376.03 33.1328 Z"/>
      </clipPath>
      <clipPath clipPathUnits="userSpaceOnUse" id="clipPath4">
        <path d="M376.03 66.2656 L497.57 66.2656 L497.57 89.3984 L376.03 89.3984 L376.03 66.2656 Z"/>
      </clipPath>
      <clipPath clipPathUnits="userSpaceOnUse" id="clipPath5">
        <path d="M-66 190.623 C-66 199.6569 -87.1952 206.9804 -113.3408 206.9804 C-139.4864 206.9804 -160.6816 199.6569 -160.6816 190.623 C-160.6816 181.5891 -139.4864 174.2656 -113.3408 174.2656 C-87.1952 174.2656 -66 181.5891 -66 190.623 Z"/>
      </clipPath>
      <clipPath clipPathUnits="userSpaceOnUse" id="clipPath6">
        <path d="M-123.86 87.1328 L-90.9 87.1328 L-90.9 110.2656 L-123.86 110.2656 L-123.86 87.1328 Z"/>
      </clipPath>
      <clipPath clipPathUnits="userSpaceOnUse" id="clipPath7">
        <path d="M-130.04 0 L-76.48 0 L-76.48 23.1328 L-130.04 23.1328 L-130.04 0 Z"/>
      </clipPath>
      <clipPath clipPathUnits="userSpaceOnUse" id="clipPath8">
        <path d="M579.8747 -100.3574 C579.8747 -91.3234 531.2888 -84 471.355 -84 C411.4212 -84 362.8353 -91.3234 362.8353 -100.3574 C362.8353 -109.3913 411.4212 -116.7147 471.355 -116.7147 C531.2888 -116.7147 579.8747 -109.3913 579.8747 -100.3574 Z"/>
      </clipPath>
      <clipPath clipPathUnits="userSpaceOnUse" id="clipPath9">
        <path d="M110.21 -107.1328 L199.82 -107.1328 L199.82 -84 L110.21 -84 L110.21 -107.1328 Z"/>
      </clipPath>
      <clipPath clipPathUnits="userSpaceOnUse" id="clipPath10">
        <path d="M0 0 L310.03 0 L310.03 524.6562 L0 524.6562 L0 0 Z"/>
      </clipPath>
      <script type="text/ecmascript"><![CDATA[
function umlload(newLocation)
{
if (newLocation.charAt(0) != '#') {
if (newLocation.indexOf("://") > -1) {
window.parent.location.href = newLocation;
} else {
var tmp = window.parent.location.href;
tmp = tmp.substring(0, tmp.lastIndexOf("/") + 1);
window.parent.location.href = tmp.concat(newLocation);
}
} else {
window.parent.location.hash = newLocation;
}
}
]]></script>
    </defs>
    <g fill="rgb(238,238,255)" transform="matrix(0.7153,0,0,0.7153,120.8876,146.6388)" stroke="rgb(238,238,255)">
      <rect width="298.9302" x="368.03" height="17.9688" y="-26" stroke="none"/>
    </g>
    <g fill="rgb(166,166,178)" stroke-miterlimit="1.45" transform="matrix(0.7153,0,0,0.7153,120.8876,146.6388)" stroke-linecap="butt" stroke="rgb(166,166,178)">
      <rect fill="none" width="298.9302" x="368.03" height="17.9688" y="-26"/>
    </g>
    <g fill="rgb(238,238,255)" transform="matrix(0.7153,0,0,0.7153,120.8876,146.6388)" stroke="rgb(238,238,255)">
      <rect width="298.9302" x="368.03" height="105.4297" y="-8.0312" stroke="none"/>
    </g>
    <g fill="rgb(166,166,178)" stroke-miterlimit="1.45" transform="matrix(0.7153,0,0,0.7153,120.8876,146.6388)" stroke-linecap="butt" stroke="rgb(166,166,178)">
      <rect fill="none" width="298.9302" x="368.03" height="105.4297" y="-8.0312"/>
    </g>
    <g font-family="sans-serif" transform="matrix(0.7153,0,0,0.7153,120.8876,146.6388)">
      <text xml:space="preserve" x="374.03" y="-12.8613" onclick="umlload('../../../../../com/msopentech/odatajclient/engine/data/package-summary.html')" stroke="none">com.msopentech.odatajclient.engine.data</text>
    </g>
    <g fill="rgb(187,187,255)" transform="matrix(0.7153,0,0,0.7153,120.8876,146.6388)" stroke="rgb(187,187,255)">
      <rect x="376.03" y="0" clip-path="url(#clipPath2)" width="86.52" height="23.1328" stroke="none"/>
    </g>
    <g fill="rgb(130,130,178)" stroke-miterlimit="1.45" transform="matrix(0.7153,0,0,0.7153,120.8876,146.6388)" stroke-linecap="butt" stroke="rgb(130,130,178)">
      <rect fill="none" width="86.52" x="376.03" height="23.1328" y="0"/>
    </g>
    <g font-size="13" font-weight="bold" font-family="sans-serif" transform="matrix(0.7153,0,0,0.7153,120.8876,146.6388)">
      <text xml:space="preserve" x="381.29" y="16.0669" onclick="umlload('../../../../../com/msopentech/odatajclient/engine/data/ODataLink.html')" stroke="none">ODataLink</text>
    </g>
    <g fill="rgb(187,187,255)" transform="matrix(0.7153,0,0,0.7153,120.8876,146.6388)" stroke="rgb(187,187,255)">
      <rect x="376.03" y="33.1328" clip-path="url(#clipPath3)" width="130.81" height="23.1328" stroke="none"/>
    </g>
    <g fill="rgb(130,130,178)" stroke-miterlimit="1.45" transform="matrix(0.7153,0,0,0.7153,120.8876,146.6388)" stroke-linecap="butt" stroke="rgb(130,130,178)">
      <rect fill="none" width="130.81" x="376.03" height="23.1328" y="33.1328"/>
    </g>
    <g font-size="13" font-weight="bold" font-family="sans-serif" transform="matrix(0.7153,0,0,0.7153,120.8876,146.6388)">
      <text xml:space="preserve" x="381.935" y="49.1997" onclick="umlload('../../../../../com/msopentech/odatajclient/engine/data/ODataOperation.html')" stroke="none">ODataOperation</text>
    </g>
    <g fill="rgb(187,187,255)" transform="matrix(0.7153,0,0,0.7153,120.8876,146.6388)" stroke="rgb(187,187,255)">
      <rect x="376.03" y="66.2656" clip-path="url(#clipPath4)" width="121.54" height="23.1328" stroke="none"/>
    </g>
    <g fill="rgb(130,130,178)" stroke-miterlimit="1.45" transform="matrix(0.7153,0,0,0.7153,120.8876,146.6388)" stroke-linecap="butt" stroke="rgb(130,130,178)">
      <rect fill="none" width="121.54" x="376.03" height="23.1328" y="66.2656"/>
    </g>
    <g font-size="13" font-weight="bold" font-family="sans-serif" transform="matrix(0.7153,0,0,0.7153,120.8876,146.6388)">
      <text xml:space="preserve" x="381.8" y="82.3325" onclick="umlload('../../../../../com/msopentech/odatajclient/engine/data/ODataProperty.html')" stroke="none">ODataProperty</text>
    </g>
    <g fill="rgb(238,238,255)" transform="matrix(0.7153,0,0,0.7153,120.8876,146.6388)" stroke="rgb(238,238,255)">
      <rect width="67.654" x="-168.6816" height="17.9688" y="148.2656" stroke="none"/>
    </g>
    <g fill="rgb(166,166,178)" stroke-miterlimit="1.45" transform="matrix(0.7153,0,0,0.7153,120.8876,146.6388)" stroke-linecap="butt" stroke="rgb(166,166,178)">
      <rect fill="none" width="67.654" x="-168.6816" height="17.9688" y="148.2656"/>
    </g>
    <g fill="rgb(238,238,255)" transform="matrix(0.7153,0,0,0.7153,120.8876,146.6388)" stroke="rgb(238,238,255)">
      <rect width="110.6816" x="-168.6816" height="48.746" y="166.2344" stroke="none"/>
    </g>
    <g fill="rgb(166,166,178)" stroke-miterlimit="1.45" transform="matrix(0.7153,0,0,0.7153,120.8876,146.6388)" stroke-linecap="butt" stroke="rgb(166,166,178)">
      <rect fill="none" width="110.6816" x="-168.6816" height="48.746" y="166.2344"/>
    </g>
    <g font-family="sans-serif" transform="matrix(0.7153,0,0,0.7153,120.8876,146.6388)">
      <text xml:space="preserve" x="-162.6816" y="161.4043" onclick="umlload('http://docs.oracle.com/javase/6/docs/api/java/util/package-summary.html')" stroke="none">java.util</text>
    </g>
    <g fill="rgb(221,221,255)" transform="matrix(0.7153,0,0,0.7153,120.8876,146.6388)" stroke="rgb(221,221,255)">
      <rect x="-160.6816" y="174.2656" clip-path="url(#clipPath5)" width="94.6816" height="32.7147" stroke="none"/>
    </g>
    <g fill="rgb(154,154,178)" stroke-miterlimit="1.45" transform="matrix(0.7153,0,0,0.7153,120.8876,146.6388)" stroke-linecap="butt" stroke="rgb(154,154,178)">
      <ellipse rx="47.3408" fill="none" ry="16.3574" cx="-113.3408" cy="190.623"/>
    </g>
    <g font-style="italic" font-size="13" font-weight="bold" font-family="sans-serif" transform="matrix(0.7153,0,0,0.7153,120.8876,146.6388)">
      <text xml:space="preserve" x="-141.8408" y="195.1235" onclick="umlload('http://docs.oracle.com/javase/6/docs/api/java/util/List.html')" stroke="none">List&lt;E&gt;</text>
    </g>
    <g fill="rgb(238,238,255)" transform="matrix(0.7153,0,0,0.7153,120.8876,146.6388)" stroke="rgb(238,238,255)">
      <rect width="69.7758" x="-131.86" height="17.9688" y="61.1328" stroke="none"/>
    </g>
    <g fill="rgb(166,166,178)" stroke-miterlimit="1.45" transform="matrix(0.7153,0,0,0.7153,120.8876,146.6388)" stroke-linecap="butt" stroke="rgb(166,166,178)">
      <rect fill="none" width="69.7758" x="-131.86" height="17.9688" y="61.1328"/>
    </g>
    <g fill="rgb(238,238,255)" transform="matrix(0.7153,0,0,0.7153,120.8876,146.6388)" stroke="rgb(238,238,255)">
      <rect width="73.96" x="-131.86" height="39.1641" y="79.1016" stroke="none"/>
    </g>
    <g fill="rgb(166,166,178)" stroke-miterlimit="1.45" transform="matrix(0.7153,0,0,0.7153,120.8876,146.6388)" stroke-linecap="butt" stroke="rgb(166,166,178)">
      <rect fill="none" width="73.96" x="-131.86" height="39.1641" y="79.1016"/>
    </g>
    <g font-family="sans-serif" transform="matrix(0.7153,0,0,0.7153,120.8876,146.6388)">
      <text xml:space="preserve" x="-125.86" y="74.2715" onclick="umlload('http://docs.oracle.com/javase/6/docs/api/java/net/package-summary.html')" stroke="none">java.net</text>
    </g>
    <g fill="rgb(187,187,255)" transform="matrix(0.7153,0,0,0.7153,120.8876,146.6388)" stroke="rgb(187,187,255)">
      <rect x="-123.86" y="87.1328" clip-path="url(#clipPath6)" width="32.96" height="23.1328" stroke="none"/>
    </g>
    <g fill="rgb(130,130,178)" stroke-miterlimit="1.45" transform="matrix(0.7153,0,0,0.7153,120.8876,146.6388)" stroke-linecap="butt" stroke="rgb(130,130,178)">
      <rect fill="none" width="32.96" x="-123.86" height="23.1328" y="87.1328"/>
    </g>
    <g font-size="13" font-weight="bold" font-family="sans-serif" transform="matrix(0.7153,0,0,0.7153,120.8876,146.6388)">
      <text xml:space="preserve" x="-119.38" y="103.1997" onclick="umlload('http://docs.oracle.com/javase/6/docs/api/java/net/URI.html')" stroke="none">URI</text>
    </g>
    <g fill="rgb(238,238,255)" transform="matrix(0.7153,0,0,0.7153,120.8876,146.6388)" stroke="rgb(238,238,255)">
      <rect width="76.1412" x="-138.04" height="17.9688" y="-26" stroke="none"/>
    </g>
    <g fill="rgb(166,166,178)" stroke-miterlimit="1.45" transform="matrix(0.7153,0,0,0.7153,120.8876,146.6388)" stroke-linecap="butt" stroke="rgb(166,166,178)">
      <rect fill="none" width="76.1412" x="-138.04" height="17.9688" y="-26"/>
    </g>
    <g fill="rgb(238,238,255)" transform="matrix(0.7153,0,0,0.7153,120.8876,146.6388)" stroke="rgb(238,238,255)">
      <rect width="79.56" x="-138.04" height="39.1641" y="-8.0312" stroke="none"/>
    </g>
    <g fill="rgb(166,166,178)" stroke-miterlimit="1.45" transform="matrix(0.7153,0,0,0.7153,120.8876,146.6388)" stroke-linecap="butt" stroke="rgb(166,166,178)">
      <rect fill="none" width="79.56" x="-138.04" height="39.1641" y="-8.0312"/>
    </g>
    <g font-family="sans-serif" transform="matrix(0.7153,0,0,0.7153,120.8876,146.6388)">
      <text xml:space="preserve" x="-132.04" y="-12.8613" onclick="umlload('http://docs.oracle.com/javase/6/docs/api/java/lang/package-summary.html')" stroke="none">java.lang</text>
    </g>
    <g fill="rgb(187,187,255)" transform="matrix(0.7153,0,0,0.7153,120.8876,146.6388)" stroke="rgb(187,187,255)">
      <rect x="-130.04" y="0" clip-path="url(#clipPath7)" width="53.56" height="23.1328" stroke="none"/>
    </g>
    <g fill="rgb(130,130,178)" stroke-miterlimit="1.45" transform="matrix(0.7153,0,0,0.7153,120.8876,146.6388)" stroke-linecap="butt" stroke="rgb(130,130,178)">
      <rect fill="none" width="53.56" x="-130.04" height="23.1328" y="0"/>
    </g>
    <g font-size="13" font-weight="bold" font-family="sans-serif" transform="matrix(0.7153,0,0,0.7153,120.8876,146.6388)">
      <text xml:space="preserve" x="-125.26" y="16.0669" onclick="umlload('http://docs.oracle.com/javase/6/docs/api/java/lang/String.html')" stroke="none">String</text>
    </g>
    <g fill="rgb(238,238,255)" transform="matrix(0.7153,0,0,0.7153,120.8876,146.6388)" stroke="rgb(238,238,255)">
      <rect width="298.9302" x="327.8353" height="17.9688" y="-142.7147" stroke="none"/>
    </g>
    <g fill="rgb(166,166,178)" stroke-miterlimit="1.45" transform="matrix(0.7153,0,0,0.7153,120.8876,146.6388)" stroke-linecap="butt" stroke="rgb(166,166,178)">
      <rect fill="none" width="298.9302" x="327.8353" height="17.9688" y="-142.7147"/>
    </g>
    <g fill="rgb(238,238,255)" transform="matrix(0.7153,0,0,0.7153,120.8876,146.6388)" stroke="rgb(238,238,255)">
      <rect width="299.0394" x="327.8353" height="48.746" y="-124.746" stroke="none"/>
    </g>
    <g fill="rgb(166,166,178)" stroke-miterlimit="1.45" transform="matrix(0.7153,0,0,0.7153,120.8876,146.6388)" stroke-linecap="butt" stroke="rgb(166,166,178)">
      <rect fill="none" width="299.0394" x="327.8353" height="48.746" y="-124.746"/>
    </g>
    <g font-family="sans-serif" transform="matrix(0.7153,0,0,0.7153,120.8876,146.6388)">
      <text xml:space="preserve" x="333.8353" y="-129.5761" onclick="umlload('../../../../../com/msopentech/odatajclient/engine/data/package-summary.html')" stroke="none">com.msopentech.odatajclient.engine.data</text>
    </g>
    <g fill="rgb(221,221,255)" transform="matrix(0.7153,0,0,0.7153,120.8876,146.6388)" stroke="rgb(221,221,255)">
      <rect x="362.8353" y="-116.7147" clip-path="url(#clipPath8)" width="217.0394" height="32.7147" stroke="none"/>
    </g>
    <g fill="rgb(154,154,178)" stroke-miterlimit="1.45" transform="matrix(0.7153,0,0,0.7153,120.8876,146.6388)" stroke-linecap="butt" stroke="rgb(154,154,178)">
      <ellipse rx="108.5197" fill="none" ry="16.3574" cx="471.355" cy="-100.3574"/>
    </g>
    <g font-style="italic" font-size="13" font-weight="bold" font-family="sans-serif" transform="matrix(0.7153,0,0,0.7153,120.8876,146.6388)">
      <text xml:space="preserve" x="400.855" y="-95.8569" onclick="umlload('../../../../../com/msopentech/odatajclient/engine/data/ODataInvokeResult.html')" stroke="none">ODataInvokeResult</text>
    </g>
    <g fill="rgb(238,238,255)" transform="matrix(0.7153,0,0,0.7153,120.8876,146.6388)" stroke="rgb(238,238,255)">
      <rect width="298.9302" x="12.21" height="17.9688" y="-133.1328" stroke="none"/>
    </g>
    <g fill="rgb(166,166,178)" stroke-miterlimit="1.45" transform="matrix(0.7153,0,0,0.7153,120.8876,146.6388)" stroke-linecap="butt" stroke="rgb(166,166,178)">
      <rect fill="none" width="298.9302" x="12.21" height="17.9688" y="-133.1328"/>
    </g>
    <g fill="rgb(238,238,255)" transform="matrix(0.7153,0,0,0.7153,120.8876,146.6388)" stroke="rgb(238,238,255)">
      <rect width="298.9302" x="12.21" height="39.1641" y="-115.1641" stroke="none"/>
    </g>
    <g fill="rgb(166,166,178)" stroke-miterlimit="1.45" transform="matrix(0.7153,0,0,0.7153,120.8876,146.6388)" stroke-linecap="butt" stroke="rgb(166,166,178)">
      <rect fill="none" width="298.9302" x="12.21" height="39.1641" y="-115.1641"/>
    </g>
    <g font-family="sans-serif" transform="matrix(0.7153,0,0,0.7153,120.8876,146.6388)">
      <text xml:space="preserve" x="18.21" y="-119.9941" onclick="umlload('../../../../../com/msopentech/odatajclient/engine/data/package-summary.html')" stroke="none">com.msopentech.odatajclient.engine.data</text>
    </g>
    <g fill="rgb(204,204,255)" transform="matrix(0.7153,0,0,0.7153,120.8876,146.6388)" stroke="rgb(204,204,255)">
      <rect x="110.21" y="-107.1328" clip-path="url(#clipPath9)" width="89.61" height="23.1328" stroke="none"/>
    </g>
    <g fill="rgb(142,142,178)" stroke-miterlimit="1.45" transform="matrix(0.7153,0,0,0.7153,120.8876,146.6388)" stroke-linecap="butt" stroke="rgb(142,142,178)">
      <rect fill="none" width="89.61" x="110.21" height="23.1328" y="-107.1328"/>
    </g>
    <g font-size="13" font-weight="bold" font-family="sans-serif" transform="matrix(0.7153,0,0,0.7153,120.8876,146.6388)">
      <text xml:space="preserve" x="115.515" y="-91.0659" onclick="umlload('../../../../../com/msopentech/odatajclient/engine/data/ODataItem.html')" stroke="none">ODataItem</text>
    </g>
    <g fill="rgb(238,238,255)" transform="matrix(0.7153,0,0,0.7153,120.8876,146.6388)" stroke="rgb(238,238,255)">
      <rect width="298.9302" x="-8" height="17.9688" y="-26" stroke="none"/>
    </g>
    <g fill="rgb(166,166,178)" stroke-miterlimit="1.45" transform="matrix(0.7153,0,0,0.7153,120.8876,146.6388)" stroke-linecap="butt" stroke="rgb(166,166,178)">
      <rect fill="none" width="298.9302" x="-8" height="17.9688" y="-26"/>
    </g>
    <g fill="rgb(238,238,255)" transform="matrix(0.7153,0,0,0.7153,120.8876,146.6388)" stroke="rgb(238,238,255)">
      <rect width="326.03" x="-8" height="540.6875" y="-8.0312" stroke="none"/>
    </g>
    <g fill="rgb(166,166,178)" stroke-miterlimit="1.45" transform="matrix(0.7153,0,0,0.7153,120.8876,146.6388)" stroke-linecap="butt" stroke="rgb(166,166,178)">
      <rect fill="none" width="326.03" x="-8" height="540.6875" y="-8.0312"/>
    </g>
    <g font-family="sans-serif" transform="matrix(0.7153,0,0,0.7153,120.8876,146.6388)">
      <text xml:space="preserve" x="-2" y="-12.8613" onclick="umlload('package-summary.html')" stroke="none">com.msopentech.odatajclient.engine.data</text>
    </g>
    <g fill="rgb(187,187,255)" transform="matrix(0.7153,0,0,0.7153,120.8876,146.6388)" stroke="rgb(187,187,255)">
      <rect x="0" y="0" clip-path="url(#clipPath10)" width="310.03" height="26.625" stroke="none"/>
      <line clip-path="url(#clipPath10)" fill="none" x1="0" x2="310.03" y1="26.625" y2="26.625" stroke="black"/>
      <rect x="0" y="27.625" clip-path="url(#clipPath10)" width="310.03" height="95.8125" stroke="none"/>
      <line clip-path="url(#clipPath10)" fill="none" x1="0" x2="310.03" y1="123.4375" y2="123.4375" stroke="black"/>
      <line clip-path="url(#clipPath10)" x1="0" x2="310.03" y1="124.4375" y2="124.4375" stroke="none"/>
      <line clip-path="url(#clipPath10)" fill="none" x1="0" x2="310.03" y1="124.4375" y2="124.4375" stroke="black"/>
      <rect x="0" y="125.4375" clip-path="url(#clipPath10)" width="310.03" height="399.2188" stroke="none"/>
    </g>
    <g fill="rgb(130,130,178)" stroke-miterlimit="1.45" transform="matrix(0.7153,0,0,0.7153,120.8876,146.6388)" stroke-linecap="butt" stroke="rgb(130,130,178)">
      <rect fill="none" width="310.03" x="0" height="524.6562" y="0"/>
    </g>
    <g font-size="16" font-weight="bold" font-family="sans-serif" transform="matrix(0.7153,0,0,0.7153,120.8876,146.6388)">
      <text xml:space="preserve" x="102.015" y="18.8516" onclick="umlload('#')" stroke="none">ODataEntity</text>
    </g>
    <g font-family="sans-serif" transform="matrix(0.7153,0,0,0.7153,120.8876,146.6388)">
      <text xml:space="preserve" x="4" y="38.1719" stroke="none">#</text>
      <text xml:space="preserve" x="19" y="39.7637" onclick="umlload('#associationLinks')" stroke="none">associationLinks : List&lt;ODataLink&gt;</text>
    </g>
    <g font-family="sans-serif" transform="matrix(0.7153,0,0,0.7153,120.8876,146.6388)">
      <text xml:space="preserve" x="4" y="54.1719" stroke="none">#</text>
      <text xml:space="preserve" x="19" y="55.7324" onclick="umlload('#editLink')" stroke="none">editLink : URI</text>
    </g>
    <g font-family="sans-serif" transform="matrix(0.7153,0,0,0.7153,120.8876,146.6388)">
      <text xml:space="preserve" x="4" y="70.1719" stroke="none">#</text>
      <text xml:space="preserve" x="19" y="71.7012" onclick="umlload('#editMediaLinks')" stroke="none">editMediaLinks : List&lt;ODataLink&gt;</text>
    </g>
    <g font-family="sans-serif" transform="matrix(0.7153,0,0,0.7153,120.8876,146.6388)">
      <text xml:space="preserve" x="4" y="86.1719" stroke="none">#</text>
      <text xml:space="preserve" x="19" y="87.6699" onclick="umlload('#navigationLinks')" stroke="none">navigationLinks : List&lt;ODataLink&gt;</text>
    </g>
    <g font-family="sans-serif" transform="matrix(0.7153,0,0,0.7153,120.8876,146.6388)">
      <text xml:space="preserve" x="4" y="102.1719" stroke="none">#</text>
      <text xml:space="preserve" x="19" y="103.6387" onclick="umlload('#operations')" stroke="none">operations : List&lt;ODataOperation&gt;</text>
    </g>
    <g font-family="sans-serif" transform="matrix(0.7153,0,0,0.7153,120.8876,146.6388)">
      <text xml:space="preserve" x="4" y="118.1719" stroke="none">#</text>
      <text xml:space="preserve" x="19" y="119.6074" onclick="umlload('#properties')" stroke="none">properties : List&lt;ODataProperty&gt;</text>
    </g>
    <g font-family="sans-serif" transform="matrix(0.7153,0,0,0.7153,120.8876,146.6388)">
      <text xml:space="preserve" x="4" y="136.1719" stroke="none">+</text>
      <text xml:space="preserve" x="19" y="137.5762" onclick="umlload('#addLink(com.msopentech.odatajclient.engine.data.ODataLink)')" stroke="none">addLink(ODataLink) : boolean</text>
    </g>
    <g font-family="sans-serif" transform="matrix(0.7153,0,0,0.7153,120.8876,146.6388)">
      <text xml:space="preserve" x="4" y="152.1719" stroke="none">+</text>
      <text xml:space="preserve" x="19" y="153.5449" onclick="umlload('#addOperation(com.msopentech.odatajclient.engine.data.ODataOperation)')" stroke="none">addOperation(ODataOperation) : boolean</text>
    </g>
    <g font-family="sans-serif" transform="matrix(0.7153,0,0,0.7153,120.8876,146.6388)">
      <text xml:space="preserve" x="4" y="168.1719" stroke="none">+</text>
      <text xml:space="preserve" x="19" y="169.5137" onclick="umlload('#addProperty(com.msopentech.odatajclient.engine.data.ODataProperty)')" stroke="none">addProperty(ODataProperty) : boolean</text>
    </g>
    <g font-family="sans-serif" transform="matrix(0.7153,0,0,0.7153,120.8876,146.6388)">
      <text xml:space="preserve" x="4" y="184.1719" stroke="none">+</text>
      <text xml:space="preserve" x="19" y="185.4824" onclick="umlload('#getAssociationLinks()')" stroke="none">getAssociationLinks() : List&lt;ODataLink&gt;</text>
    </g>
    <g font-family="sans-serif" transform="matrix(0.7153,0,0,0.7153,120.8876,146.6388)">
      <text xml:space="preserve" x="4" y="200.1719" stroke="none">+</text>
      <text xml:space="preserve" x="19" y="201.4512" onclick="umlload('#getEditLink()')" stroke="none">getEditLink() : URI</text>
    </g>
    <g font-family="sans-serif" transform="matrix(0.7153,0,0,0.7153,120.8876,146.6388)">
      <text xml:space="preserve" x="4" y="216.1719" stroke="none">+</text>
      <text xml:space="preserve" x="19" y="217.4199" onclick="umlload('#getEditMediaLinks()')" stroke="none">getEditMediaLinks() : List&lt;ODataLink&gt;</text>
    </g>
    <g font-family="sans-serif" transform="matrix(0.7153,0,0,0.7153,120.8876,146.6388)">
      <text xml:space="preserve" x="4" y="232.1719" stroke="none">+</text>
      <text xml:space="preserve" x="19" y="233.3887" onclick="umlload('#getETag()')" stroke="none">getETag() : String</text>
    </g>
    <g font-family="sans-serif" transform="matrix(0.7153,0,0,0.7153,120.8876,146.6388)">
      <text xml:space="preserve" x="4" y="248.1719" stroke="none">+</text>
      <text xml:space="preserve" x="19" y="249.3574" onclick="umlload('#getLink()')" stroke="none">getLink() : URI</text>
    </g>
    <g font-family="sans-serif" transform="matrix(0.7153,0,0,0.7153,120.8876,146.6388)">
      <text xml:space="preserve" x="4" y="264.1719" stroke="none">+</text>
      <text xml:space="preserve" x="19" y="265.3262" onclick="umlload('#getMediaContentSource()')" stroke="none">getMediaContentSource() : String</text>
    </g>
    <g font-family="sans-serif" transform="matrix(0.7153,0,0,0.7153,120.8876,146.6388)">
      <text xml:space="preserve" x="4" y="280.1719" stroke="none">+</text>
      <text xml:space="preserve" x="19" y="281.2949" onclick="umlload('#getMediaContentType()')" stroke="none">getMediaContentType() : String</text>
    </g>
    <g font-family="sans-serif" transform="matrix(0.7153,0,0,0.7153,120.8876,146.6388)">
      <text xml:space="preserve" x="4" y="296.1719" stroke="none">+</text>
      <text xml:space="preserve" x="19" y="297.2637" onclick="umlload('#getNavigationLinks()')" stroke="none">getNavigationLinks() : List&lt;ODataLink&gt;</text>
    </g>
    <g font-family="sans-serif" transform="matrix(0.7153,0,0,0.7153,120.8876,146.6388)">
      <text xml:space="preserve" x="4" y="312.1719" stroke="none">+</text>
      <text xml:space="preserve" x="19" y="313.2324" onclick="umlload('#getOperation(java.lang.String)')" stroke="none">getOperation(String) : ODataOperation</text>
    </g>
    <g font-family="sans-serif" transform="matrix(0.7153,0,0,0.7153,120.8876,146.6388)">
      <text xml:space="preserve" x="4" y="328.1719" stroke="none">+</text>
      <text xml:space="preserve" x="19" y="329.2012" onclick="umlload('#getOperations()')" stroke="none">getOperations() : List&lt;ODataOperation&gt;</text>
    </g>
    <g font-family="sans-serif" transform="matrix(0.7153,0,0,0.7153,120.8876,146.6388)">
      <text xml:space="preserve" x="4" y="344.1719" stroke="none">+</text>
      <text xml:space="preserve" x="19" y="345.1699" onclick="umlload('#getProperties()')" stroke="none">getProperties() : List&lt;ODataProperty&gt;</text>
    </g>
    <g font-family="sans-serif" transform="matrix(0.7153,0,0,0.7153,120.8876,146.6388)">
      <text xml:space="preserve" x="4" y="359.1719" stroke="none">+</text>
      <text xml:space="preserve" x="19" y="361.1387" onclick="umlload('#getProperty(java.lang.String)')" stroke="none">getProperty(String) : ODataProperty</text>
    </g>
    <g font-family="sans-serif" transform="matrix(0.7153,0,0,0.7153,120.8876,146.6388)">
      <text xml:space="preserve" x="4" y="375.1719" stroke="none">+</text>
      <text xml:space="preserve" x="19" y="377.1074" onclick="umlload('#isMediaEntity()')" stroke="none">isMediaEntity() : boolean</text>
    </g>
    <g font-family="sans-serif" transform="matrix(0.7153,0,0,0.7153,120.8876,146.6388)">
      <text xml:space="preserve" x="4" y="391.1719" stroke="none">+</text>
      <text xml:space="preserve" x="19" y="393.0762" onclick="umlload('#isReadOnly()')" stroke="none">isReadOnly() : boolean</text>
    </g>
    <g font-family="sans-serif" transform="matrix(0.7153,0,0,0.7153,120.8876,146.6388)">
      <text xml:space="preserve" x="4" y="407.1719" stroke="none">+</text>
      <text xml:space="preserve" x="19" y="409.0449" onclick="umlload('#removeLink(com.msopentech.odatajclient.engine.data.ODataLink)')" stroke="none">removeLink(ODataLink) : boolean</text>
    </g>
    <g font-family="sans-serif" transform="matrix(0.7153,0,0,0.7153,120.8876,146.6388)">
      <text xml:space="preserve" x="4" y="423.1719" stroke="none">+</text>
      <text xml:space="preserve" x="19" y="425.0137" onclick="umlload('#removeProperty(com.msopentech.odatajclient.engine.data.ODataProperty)')" stroke="none">removeProperty(ODataProperty) : boolean</text>
    </g>
    <g font-family="sans-serif" transform="matrix(0.7153,0,0,0.7153,120.8876,146.6388)">
      <text xml:space="preserve" x="4" y="439.1719" stroke="none">+</text>
      <text xml:space="preserve" x="19" y="440.9824" onclick="umlload('#setEditLink(java.net.URI)')" stroke="none">setEditLink(URI) : void</text>
    </g>
    <g font-family="sans-serif" transform="matrix(0.7153,0,0,0.7153,120.8876,146.6388)">
      <text xml:space="preserve" x="4" y="455.1719" stroke="none">+</text>
      <text xml:space="preserve" x="19" y="456.9512" onclick="umlload('#setETag(java.lang.String)')" stroke="none">setETag(String) : void</text>
    </g>
    <g font-family="sans-serif" transform="matrix(0.7153,0,0,0.7153,120.8876,146.6388)">
      <text xml:space="preserve" x="4" y="471.1719" stroke="none">+</text>
      <text xml:space="preserve" x="19" y="472.9199" onclick="umlload('#setMediaContentSource(java.lang.String)')" stroke="none">setMediaContentSource(String) : void</text>
    </g>
    <g font-family="sans-serif" transform="matrix(0.7153,0,0,0.7153,120.8876,146.6388)">
      <text xml:space="preserve" x="4" y="487.1719" stroke="none">+</text>
      <text xml:space="preserve" x="19" y="488.8887" onclick="umlload('#setMediaContentType(java.lang.String)')" stroke="none">setMediaContentType(String) : void</text>
    </g>
    <g font-family="sans-serif" transform="matrix(0.7153,0,0,0.7153,120.8876,146.6388)">
      <text xml:space="preserve" x="4" y="503.1719" stroke="none">+</text>
      <text xml:space="preserve" x="19" y="504.8574" onclick="umlload('#setMediaEntity(boolean)')" stroke="none">setMediaEntity(boolean) : void</text>
    </g>
    <g font-family="sans-serif" transform="matrix(0.7153,0,0,0.7153,120.8876,146.6388)">
      <text xml:space="preserve" x="4" y="519.1719" stroke="none">+</text>
      <text xml:space="preserve" x="19" y="520.8262" onclick="umlload('#setOperations(java.util.List)')" stroke="none">setOperations(List&lt;ODataOperation&gt;) : void</text>
    </g>
    <g font-family="sans-serif" transform="matrix(0.7153,0,0,0.7153,120.8876,146.6388)">
      <text xml:space="preserve" x="-163" y="557.1543" onclick="umlload('http://www.yworks.com/')" stroke="none">yWorks UML Doclet</text>
    </g>
    <g stroke-miterlimit="1.45" transform="matrix(0.7153,0,0,0.7153,120.8876,146.6388)" stroke-linecap="butt">
      <path fill="none" d="M155.015 0 L155.015 -69"/>
      <path fill="white" d="M155.015 -84 L149.015 -68 L161.015 -68 Z" stroke="none"/>
      <path fill="none" d="M155.015 -84 L149.015 -68 L161.015 -68 Z"/>
      <path fill="none" stroke-dasharray="6,2" d="M232.5225 -0.0153 L232.5225 -51 L471.355 -51 L471.355 -69"/>
      <path fill="white" stroke-dasharray="6,2" d="M471.355 -84 L465.355 -68 L477.355 -68 Z" stroke="none"/>
      <path fill="none" d="M471.355 -84 L465.355 -68 L477.355 -68 Z"/>
      <path fill="none" d="M-0.0067 11.5664 L-76.48 11.5664"/>
      <line stroke-linecap="square" transform="matrix(-1,0,0,-1,-76.48,11.5664)" fill="none" x1="0" x2="-14" y1="0" y2="-4" stroke-miterlimit="10"/>
      <line stroke-linecap="square" transform="matrix(-1,0,0,-1,-76.48,11.5664)" fill="none" x1="0" x2="-14" y1="0" y2="4" stroke-miterlimit="10"/>
    </g>
    <g stroke-miterlimit="1.45" transform="matrix(0.7153,0,0,0.7153,120.8876,146.6388)" stroke-linecap="butt">
      <path fill="none" d="M0.0187 98.6992 L-90.9 98.6992"/>
      <line stroke-linecap="square" transform="matrix(-1,0,0,-1,-90.9,98.6992)" fill="none" x1="0" x2="-14" y1="0" y2="-4" stroke-miterlimit="10"/>
      <line stroke-linecap="square" transform="matrix(-1,0,0,-1,-90.9,98.6992)" fill="none" x1="0" x2="-14" y1="0" y2="4" stroke-miterlimit="10"/>
    </g>
    <g stroke-miterlimit="1.45" transform="matrix(0.7153,0,0,0.7153,120.8876,146.6388)" stroke-linecap="butt">
      <path fill="none" d="M-0.0299 190.623 L-66 190.623"/>
      <line stroke-linecap="square" transform="matrix(-1,0,0,-1,-66,190.623)" fill="none" x1="0" x2="-14" y1="0" y2="-4" stroke-miterlimit="10"/>
      <line stroke-linecap="square" transform="matrix(-1,0,0,-1,-66,190.623)" fill="none" x1="0" x2="-14" y1="0" y2="4" stroke-miterlimit="10"/>
    </g>
    <g stroke-dasharray="6,2" stroke-miterlimit="1.45" transform="matrix(0.7153,0,0,0.7153,120.8876,146.6388)" stroke-linecap="butt">
      <path fill="none" d="M310.0249 11.5664 L376.03 11.5664"/>
      <line stroke-linecap="square" transform="matrix(1,0,0,1,376.03,11.5664)" fill="none" x1="0" x2="-14" y1="0" y2="-4" stroke-dasharray="none" stroke-miterlimit="10"/>
      <line stroke-linecap="square" transform="matrix(1,0,0,1,376.03,11.5664)" fill="none" x1="0" x2="-14" y1="0" y2="4" stroke-dasharray="none" stroke-miterlimit="10"/>
    </g>
    <g stroke-dasharray="6,2" stroke-miterlimit="1.45" transform="matrix(0.7153,0,0,0.7153,120.8876,146.6388)" stroke-linecap="butt">
      <path fill="none" d="M310.0077 44.6992 L376.03 44.6992"/>
      <line stroke-linecap="square" transform="matrix(1,0,0,1,376.03,44.6992)" fill="none" x1="0" x2="-14" y1="0" y2="-4" stroke-dasharray="none" stroke-miterlimit="10"/>
      <line stroke-linecap="square" transform="matrix(1,0,0,1,376.03,44.6992)" fill="none" x1="0" x2="-14" y1="0" y2="4" stroke-dasharray="none" stroke-miterlimit="10"/>
    </g>
    <g stroke-dasharray="6,2" stroke-miterlimit="1.45" transform="matrix(0.7153,0,0,0.7153,120.8876,146.6388)" stroke-linecap="butt">
      <path fill="none" d="M310.0449 77.832 L376.03 77.832"/>
      <line stroke-linecap="square" transform="matrix(1,0,0,1,376.03,77.832)" fill="none" x1="0" x2="-14" y1="0" y2="-4" stroke-dasharray="none" stroke-miterlimit="10"/>
      <line stroke-linecap="square" transform="matrix(1,0,0,1,376.03,77.832)" fill="none" x1="0" x2="-14" y1="0" y2="4" stroke-dasharray="none" stroke-miterlimit="10"/>
    </g>
  </g>
</svg>
