<?xml version="1.0" encoding="UTF-8"?><svg xmlns="http://www.w3.org/2000/svg" xmlns:xlink="http://www.w3.org/1999/xlink" fill-opacity="1" color-rendering="auto" color-interpolation="auto" stroke="black" text-rendering="auto" stroke-linecap="square" width="598" stroke-miterlimit="10" stroke-opacity="1" shape-rendering="auto" fill="black" stroke-dasharray="none" font-weight="normal" stroke-width="1" height="598" font-family="'Dialog'" font-style="normal" stroke-linejoin="miter" font-size="12" stroke-dashoffset="0" image-rendering="auto">
  <!--Generated by ySVG-->
  <defs id="genericDefs"/>
  <g>
    <defs id="defs1">
      <clipPath clipPathUnits="userSpaceOnUse" id="clipPath1">
        <path d="M0 0 L598 0 L598 598 L0 598 L0 0 Z"/>
      </clipPath>
      <clipPath clipPathUnits="userSpaceOnUse" id="clipPath2">
        <path d="M607.0759 -100.3574 C607.0759 -91.3234 577.0765 -84 540.0704 -84 C503.0644 -84 473.065 -91.3234 473.065 -100.3574 C473.065 -109.3913 503.0644 -116.7147 540.0704 -116.7147 C577.0765 -116.7147 607.0759 -109.3913 607.0759 -100.3574 Z"/>
      </clipPath>
      <clipPath clipPathUnits="userSpaceOnUse" id="clipPath3">
        <path d="M400.4147 -100.3574 C400.4147 -91.3234 351.8288 -84 291.895 -84 C231.9612 -84 183.3753 -91.3234 183.3753 -100.3574 C183.3753 -109.3913 231.9612 -116.7147 291.895 -116.7147 C351.8288 -116.7147 400.4147 -109.3913 400.4147 -100.3574 Z"/>
      </clipPath>
      <clipPath clipPathUnits="userSpaceOnUse" id="clipPath4">
        <path d="M53.045 -107.1328 L110.725 -107.1328 L110.725 -84 L53.045 -84 L53.045 -107.1328 Z"/>
      </clipPath>
      <clipPath clipPathUnits="userSpaceOnUse" id="clipPath5">
        <path d="M0 0 L163.77 0 L163.77 44.5938 L0 44.5938 L0 0 Z"/>
      </clipPath>
      <script type="text/ecmascript"><![CDATA[
function umlload(newLocation)
{
if (newLocation.charAt(0) != '#') {
if (newLocation.indexOf("://") > -1) {
window.parent.location.href = newLocation;
} else {
var tmp = window.parent.location.href;
tmp = tmp.substring(0, tmp.lastIndexOf("/") + 1);
window.parent.location.href = tmp.concat(newLocation);
}
} else {
window.parent.location.hash = newLocation;
}
}
]]></script>
    </defs>
    <g fill="rgb(238,238,255)" transform="matrix(0.9583,0,0,0.9583,7.6667,324.875)" stroke="rgb(238,238,255)">
      <rect width="59.1668" x="465.065" height="17.9688" y="-142.7147" stroke="none"/>
    </g>
    <g fill="rgb(166,166,178)" stroke-miterlimit="1.45" transform="matrix(0.9583,0,0,0.9583,7.6667,324.875)" stroke-linecap="butt" stroke="rgb(166,166,178)">
      <rect fill="none" width="59.1668" x="465.065" height="17.9688" y="-142.7147"/>
    </g>
    <g fill="rgb(238,238,255)" transform="matrix(0.9583,0,0,0.9583,7.6667,324.875)" stroke="rgb(238,238,255)">
      <rect width="150.0109" x="465.065" height="48.746" y="-124.746" stroke="none"/>
    </g>
    <g fill="rgb(166,166,178)" stroke-miterlimit="1.45" transform="matrix(0.9583,0,0,0.9583,7.6667,324.875)" stroke-linecap="butt" stroke="rgb(166,166,178)">
      <rect fill="none" width="150.0109" x="465.065" height="48.746" y="-124.746"/>
    </g>
    <g font-family="sans-serif" transform="matrix(0.9583,0,0,0.9583,7.6667,324.875)">
      <text xml:space="preserve" x="471.065" y="-129.5761" onclick="umlload('http://docs.oracle.com/javase/6/docs/api/java/io/package-summary.html')" stroke="none">java.io</text>
    </g>
    <g fill="rgb(221,221,255)" transform="matrix(0.9583,0,0,0.9583,7.6667,324.875)" stroke="rgb(221,221,255)">
      <rect x="473.065" y="-116.7147" clip-path="url(#clipPath2)" width="134.0109" height="32.7147" stroke="none"/>
    </g>
    <g fill="rgb(154,154,178)" stroke-miterlimit="1.45" transform="matrix(0.9583,0,0,0.9583,7.6667,324.875)" stroke-linecap="butt" stroke="rgb(154,154,178)">
      <ellipse rx="67.0054" fill="none" ry="16.3574" cx="540.0704" cy="-100.3574"/>
    </g>
    <g font-style="italic" font-size="13" font-weight="bold" font-family="sans-serif" transform="matrix(0.9583,0,0,0.9583,7.6667,324.875)">
      <text xml:space="preserve" x="498.0704" y="-95.8569" onclick="umlload('http://docs.oracle.com/javase/6/docs/api/java/io/Serializable.html')" stroke="none">Serializable</text>
    </g>
    <g fill="rgb(238,238,255)" transform="matrix(0.9583,0,0,0.9583,7.6667,324.875)" stroke="rgb(238,238,255)">
      <rect width="298.9302" x="148.3753" height="17.9688" y="-142.7147" stroke="none"/>
    </g>
    <g fill="rgb(166,166,178)" stroke-miterlimit="1.45" transform="matrix(0.9583,0,0,0.9583,7.6667,324.875)" stroke-linecap="butt" stroke="rgb(166,166,178)">
      <rect fill="none" width="298.9302" x="148.3753" height="17.9688" y="-142.7147"/>
    </g>
    <g fill="rgb(238,238,255)" transform="matrix(0.9583,0,0,0.9583,7.6667,324.875)" stroke="rgb(238,238,255)">
      <rect width="299.0394" x="148.3753" height="48.746" y="-124.746" stroke="none"/>
    </g>
    <g fill="rgb(166,166,178)" stroke-miterlimit="1.45" transform="matrix(0.9583,0,0,0.9583,7.6667,324.875)" stroke-linecap="butt" stroke="rgb(166,166,178)">
      <rect fill="none" width="299.0394" x="148.3753" height="48.746" y="-124.746"/>
    </g>
    <g font-family="sans-serif" transform="matrix(0.9583,0,0,0.9583,7.6667,324.875)">
      <text xml:space="preserve" x="154.3753" y="-129.5761" onclick="umlload('../../../../../com/msopentech/odatajclient/engine/data/package-summary.html')" stroke="none">com.msopentech.odatajclient.engine.data</text>
    </g>
    <g fill="rgb(221,221,255)" transform="matrix(0.9583,0,0,0.9583,7.6667,324.875)" stroke="rgb(221,221,255)">
      <rect x="183.3753" y="-116.7147" clip-path="url(#clipPath3)" width="217.0394" height="32.7147" stroke="none"/>
    </g>
    <g fill="rgb(154,154,178)" stroke-miterlimit="1.45" transform="matrix(0.9583,0,0,0.9583,7.6667,324.875)" stroke-linecap="butt" stroke="rgb(154,154,178)">
      <ellipse rx="108.5197" fill="none" ry="16.3574" cx="291.895" cy="-100.3574"/>
    </g>
    <g font-style="italic" font-size="13" font-weight="bold" font-family="sans-serif" transform="matrix(0.9583,0,0,0.9583,7.6667,324.875)">
      <text xml:space="preserve" x="221.395" y="-95.8569" onclick="umlload('../../../../../com/msopentech/odatajclient/engine/data/ODataInvokeResult.html')" stroke="none">ODataInvokeResult</text>
    </g>
    <g fill="rgb(238,238,255)" transform="matrix(0.9583,0,0,0.9583,7.6667,324.875)" stroke="rgb(238,238,255)">
      <rect width="76.1412" x="45.045" height="17.9688" y="-133.1328" stroke="none"/>
    </g>
    <g fill="rgb(166,166,178)" stroke-miterlimit="1.45" transform="matrix(0.9583,0,0,0.9583,7.6667,324.875)" stroke-linecap="butt" stroke="rgb(166,166,178)">
      <rect fill="none" width="76.1412" x="45.045" height="17.9688" y="-133.1328"/>
    </g>
    <g fill="rgb(238,238,255)" transform="matrix(0.9583,0,0,0.9583,7.6667,324.875)" stroke="rgb(238,238,255)">
      <rect width="76.1412" x="45.045" height="39.1641" y="-115.1641" stroke="none"/>
    </g>
    <g fill="rgb(166,166,178)" stroke-miterlimit="1.45" transform="matrix(0.9583,0,0,0.9583,7.6667,324.875)" stroke-linecap="butt" stroke="rgb(166,166,178)">
      <rect fill="none" width="76.1412" x="45.045" height="39.1641" y="-115.1641"/>
    </g>
    <g font-family="sans-serif" transform="matrix(0.9583,0,0,0.9583,7.6667,324.875)">
      <text xml:space="preserve" x="51.045" y="-119.9941" onclick="umlload('http://docs.oracle.com/javase/6/docs/api/java/lang/package-summary.html')" stroke="none">java.lang</text>
    </g>
    <g fill="rgb(187,187,255)" transform="matrix(0.9583,0,0,0.9583,7.6667,324.875)" stroke="rgb(187,187,255)">
      <rect x="53.045" y="-107.1328" clip-path="url(#clipPath4)" width="57.68" height="23.1328" stroke="none"/>
    </g>
    <g fill="rgb(130,130,178)" stroke-miterlimit="1.45" transform="matrix(0.9583,0,0,0.9583,7.6667,324.875)" stroke-linecap="butt" stroke="rgb(130,130,178)">
      <rect fill="none" width="57.68" x="53.045" height="23.1328" y="-107.1328"/>
    </g>
    <g font-size="13" font-weight="bold" font-family="sans-serif" transform="matrix(0.9583,0,0,0.9583,7.6667,324.875)">
      <text xml:space="preserve" x="57.885" y="-91.0659" onclick="umlload('http://docs.oracle.com/javase/6/docs/api/java/lang/Object.html')" stroke="none">Object</text>
    </g>
    <g fill="rgb(238,238,255)" transform="matrix(0.9583,0,0,0.9583,7.6667,324.875)" stroke="rgb(238,238,255)">
      <rect width="298.9302" x="-8" height="17.9688" y="-26" stroke="none"/>
    </g>
    <g fill="rgb(166,166,178)" stroke-miterlimit="1.45" transform="matrix(0.9583,0,0,0.9583,7.6667,324.875)" stroke-linecap="butt" stroke="rgb(166,166,178)">
      <rect fill="none" width="298.9302" x="-8" height="17.9688" y="-26"/>
    </g>
    <g fill="rgb(238,238,255)" transform="matrix(0.9583,0,0,0.9583,7.6667,324.875)" stroke="rgb(238,238,255)">
      <rect width="298.9302" x="-8" height="60.625" y="-8.0312" stroke="none"/>
    </g>
    <g fill="rgb(166,166,178)" stroke-miterlimit="1.45" transform="matrix(0.9583,0,0,0.9583,7.6667,324.875)" stroke-linecap="butt" stroke="rgb(166,166,178)">
      <rect fill="none" width="298.9302" x="-8" height="60.625" y="-8.0312"/>
    </g>
    <g font-family="sans-serif" transform="matrix(0.9583,0,0,0.9583,7.6667,324.875)">
      <text xml:space="preserve" x="-2" y="-12.8613" onclick="umlload('package-summary.html')" stroke="none">com.msopentech.odatajclient.engine.data</text>
    </g>
    <g fill="rgb(187,187,255)" transform="matrix(0.9583,0,0,0.9583,7.6667,324.875)" stroke="rgb(187,187,255)">
      <rect x="0" y="0" clip-path="url(#clipPath5)" width="163.77" height="26.625" stroke="none"/>
      <line clip-path="url(#clipPath5)" fill="none" x1="0" x2="163.77" y1="26.625" y2="26.625" stroke="black"/>
      <rect x="0" y="27.625" clip-path="url(#clipPath5)" width="163.77" height="15.9688" stroke="none"/>
      <line clip-path="url(#clipPath5)" fill="none" x1="0" x2="163.77" y1="43.5938" y2="43.5938" stroke="black"/>
      <line clip-path="url(#clipPath5)" x1="0" x2="163.77" y1="44.5938" y2="44.5938" stroke="none"/>
    </g>
    <g fill="rgb(130,130,178)" stroke-miterlimit="1.45" transform="matrix(0.9583,0,0,0.9583,7.6667,324.875)" stroke-linecap="butt" stroke="rgb(130,130,178)">
      <rect fill="none" width="163.77" x="0" height="44.5938" y="0"/>
    </g>
    <g font-size="16" font-weight="bold" font-family="sans-serif" transform="matrix(0.9583,0,0,0.9583,7.6667,324.875)">
      <text xml:space="preserve" x="6.385" y="18.8516" onclick="umlload('#')" stroke="none">ODataNoContent</text>
    </g>
    <g font-family="sans-serif" transform="matrix(0.9583,0,0,0.9583,7.6667,324.875)">
      <text xml:space="preserve" x="4" y="38.1719" stroke="none">+</text>
      <text xml:space="preserve" x="19" y="39.7637" onclick="umlload('#ODataNoContent()')" stroke="none">ODataNoContent()</text>
    </g>
    <g font-family="sans-serif" transform="matrix(0.9583,0,0,0.9583,7.6667,324.875)">
      <text xml:space="preserve" x="-2" y="77.1543" onclick="umlload('http://www.yworks.com/')" stroke="none">yWorks UML Doclet</text>
    </g>
    <g stroke-miterlimit="1.45" transform="matrix(0.9583,0,0,0.9583,7.6667,324.875)" stroke-linecap="butt">
      <path fill="none" d="M81.885 0 L81.885 -69"/>
      <path fill="white" d="M81.885 -84 L75.885 -68 L87.885 -68 Z" stroke="none"/>
      <path fill="none" d="M81.885 -84 L75.885 -68 L87.885 -68 Z"/>
      <path fill="none" stroke-dasharray="6,2" d="M122.8275 0 L122.8275 -51 L291.895 -51 L291.895 -69"/>
      <path fill="white" stroke-dasharray="6,2" d="M291.895 -84 L285.895 -68 L297.895 -68 Z" stroke="none"/>
      <path fill="none" d="M291.895 -84 L285.895 -68 L297.895 -68 Z"/>
      <path fill="none" stroke-dasharray="6,2" d="M122.8275 0 L122.8275 -51 L540.0704 -51 L540.0704 -69"/>
      <path fill="white" stroke-dasharray="6,2" d="M540.0704 -84 L534.0704 -68 L546.0704 -68 Z" stroke="none"/>
      <path fill="none" d="M540.0704 -84 L534.0704 -68 L546.0704 -68 Z"/>
    </g>
  </g>
</svg>
