<?xml version="1.0" encoding="UTF-8"?><svg xmlns="http://www.w3.org/2000/svg" xmlns:xlink="http://www.w3.org/1999/xlink" fill-opacity="1" color-rendering="auto" color-interpolation="auto" stroke="black" text-rendering="auto" stroke-linecap="square" width="598" stroke-miterlimit="10" stroke-opacity="1" shape-rendering="auto" fill="black" stroke-dasharray="none" font-weight="normal" stroke-width="1" height="598" font-family="'Dialog'" font-style="normal" stroke-linejoin="miter" font-size="12" stroke-dashoffset="0" image-rendering="auto">
  <!--Generated by ySVG-->
  <defs id="genericDefs"/>
  <g>
    <defs id="defs1">
      <clipPath clipPathUnits="userSpaceOnUse" id="clipPath1">
        <path d="M0 0 L598 0 L598 598 L0 598 L0 0 Z"/>
      </clipPath>
      <clipPath clipPathUnits="userSpaceOnUse" id="clipPath2">
        <path d="M438.86 415.7773 L540.83 415.7773 L540.83 438.9101 L438.86 438.9101 L438.86 415.7773 Z"/>
      </clipPath>
      <clipPath clipPathUnits="userSpaceOnUse" id="clipPath3">
        <path d="M438.86 328.6444 L554.22 328.6444 L554.22 351.7773 L438.86 351.7773 L438.86 328.6444 Z"/>
      </clipPath>
      <clipPath clipPathUnits="userSpaceOnUse" id="clipPath4">
        <path d="M438.86 0 L537.74 0 L537.74 23.1328 L438.86 23.1328 L438.86 0 Z"/>
      </clipPath>
      <clipPath clipPathUnits="userSpaceOnUse" id="clipPath5">
        <path d="M438.86 33.1328 L562.46 33.1328 L562.46 56.2656 L438.86 56.2656 L438.86 33.1328 Z"/>
      </clipPath>
      <clipPath clipPathUnits="userSpaceOnUse" id="clipPath6">
        <path d="M438.86 66.2656 L619.11 66.2656 L619.11 89.3984 L438.86 89.3984 L438.86 66.2656 Z"/>
      </clipPath>
      <clipPath clipPathUnits="userSpaceOnUse" id="clipPath7">
        <path d="M569.9576 115.7558 C569.9576 124.7897 540.6104 132.1132 504.4088 132.1132 C468.2072 132.1132 438.86 124.7897 438.86 115.7558 C438.86 106.7219 468.2072 99.3984 504.4088 99.3984 C540.6104 99.3984 569.9576 106.7219 569.9576 115.7558 Z"/>
      </clipPath>
      <clipPath clipPathUnits="userSpaceOnUse" id="clipPath8">
        <path d="M438.86 142.1132 L599.54 142.1132 L599.54 165.246 L438.86 165.246 L438.86 142.1132 Z"/>
      </clipPath>
      <clipPath clipPathUnits="userSpaceOnUse" id="clipPath9">
        <path d="M438.86 175.246 L560.4 175.246 L560.4 198.3788 L438.86 198.3788 L438.86 175.246 Z"/>
      </clipPath>
      <clipPath clipPathUnits="userSpaceOnUse" id="clipPath10">
        <path d="M438.86 208.3788 L626.32 208.3788 L626.32 231.5116 L438.86 231.5116 L438.86 208.3788 Z"/>
      </clipPath>
      <clipPath clipPathUnits="userSpaceOnUse" id="clipPath11">
        <path d="M438.86 241.5116 L536.71 241.5116 L536.71 264.6444 L438.86 264.6444 L438.86 241.5116 Z"/>
      </clipPath>
      <clipPath clipPathUnits="userSpaceOnUse" id="clipPath12">
        <path d="M-66 103.4902 C-66 112.5241 -84.9126 119.8475 -108.2426 119.8475 C-131.5725 119.8475 -150.4851 112.5241 -150.4851 103.4902 C-150.4851 94.4563 -131.5725 87.1328 -108.2426 87.1328 C-84.9126 87.1328 -66 94.4563 -66 103.4902 Z"/>
      </clipPath>
      <clipPath clipPathUnits="userSpaceOnUse" id="clipPath13">
        <path d="M-130.04 0 L-76.48 0 L-76.48 23.1328 L-130.04 23.1328 L-130.04 0 Z"/>
      </clipPath>
      <clipPath clipPathUnits="userSpaceOnUse" id="clipPath14">
        <path d="M157.59 -107.1328 L215.27 -107.1328 L215.27 -84 L157.59 -84 L157.59 -107.1328 Z"/>
      </clipPath>
      <clipPath clipPathUnits="userSpaceOnUse" id="clipPath15">
        <path d="M0 0 L372.86 0 L372.86 446.9101 L0 446.9101 L0 0 Z"/>
      </clipPath>
      <script type="text/ecmascript"><![CDATA[
function umlload(newLocation)
{
if (newLocation.charAt(0) != '#') {
if (newLocation.indexOf("://") > -1) {
window.parent.location.href = newLocation;
} else {
var tmp = window.parent.location.href;
tmp = tmp.substring(0, tmp.lastIndexOf("/") + 1);
window.parent.location.href = tmp.concat(newLocation);
}
} else {
window.parent.location.hash = newLocation;
}
}
]]></script>
    </defs>
    <g fill="rgb(238,238,255)" transform="matrix(0.6236,0,0,0.6236,99.147,187.6934)" stroke="rgb(238,238,255)">
      <rect width="59.1668" x="430.86" height="17.9688" y="389.7772" stroke="none"/>
    </g>
    <g fill="rgb(166,166,178)" stroke-miterlimit="1.45" transform="matrix(0.6236,0,0,0.6236,99.147,187.6934)" stroke-linecap="butt" stroke="rgb(166,166,178)">
      <rect fill="none" width="59.1668" x="430.86" height="17.9688" y="389.7772"/>
    </g>
    <g fill="rgb(238,238,255)" transform="matrix(0.6236,0,0,0.6236,99.147,187.6934)" stroke="rgb(238,238,255)">
      <rect width="117.97" x="430.86" height="39.1641" y="407.746" stroke="none"/>
    </g>
    <g fill="rgb(166,166,178)" stroke-miterlimit="1.45" transform="matrix(0.6236,0,0,0.6236,99.147,187.6934)" stroke-linecap="butt" stroke="rgb(166,166,178)">
      <rect fill="none" width="117.97" x="430.86" height="39.1641" y="407.746"/>
    </g>
    <g font-family="sans-serif" transform="matrix(0.6236,0,0,0.6236,99.147,187.6934)">
      <text xml:space="preserve" x="436.86" y="402.9159" onclick="umlload('http://docs.oracle.com/javase/6/docs/api/java/io/package-summary.html')" stroke="none">java.io</text>
    </g>
    <g fill="rgb(204,204,255)" transform="matrix(0.6236,0,0,0.6236,99.147,187.6934)" stroke="rgb(204,204,255)">
      <rect x="438.86" y="415.7772" clip-path="url(#clipPath2)" width="101.97" height="23.1328" stroke="none"/>
    </g>
    <g fill="rgb(142,142,178)" stroke-miterlimit="1.45" transform="matrix(0.6236,0,0,0.6236,99.147,187.6934)" stroke-linecap="butt" stroke="rgb(142,142,178)">
      <rect fill="none" width="101.97" x="438.86" height="23.1328" y="415.7772"/>
    </g>
    <g font-size="13" font-weight="bold" font-family="sans-serif" transform="matrix(0.6236,0,0,0.6236,99.147,187.6934)">
      <text xml:space="preserve" x="444.345" y="431.8441" onclick="umlload('http://docs.oracle.com/javase/6/docs/api/java/io/InputStream.html')" stroke="none">InputStream</text>
    </g>
    <g fill="rgb(238,238,255)" transform="matrix(0.6236,0,0,0.6236,99.147,187.6934)" stroke="rgb(238,238,255)">
      <rect width="367.8887" x="430.86" height="17.9688" y="302.6444" stroke="none"/>
    </g>
    <g fill="rgb(166,166,178)" stroke-miterlimit="1.45" transform="matrix(0.6236,0,0,0.6236,99.147,187.6934)" stroke-linecap="butt" stroke="rgb(166,166,178)">
      <rect fill="none" width="367.8887" x="430.86" height="17.9688" y="302.6444"/>
    </g>
    <g fill="rgb(238,238,255)" transform="matrix(0.6236,0,0,0.6236,99.147,187.6934)" stroke="rgb(238,238,255)">
      <rect width="368.36" x="430.86" height="39.1641" y="320.6132" stroke="none"/>
    </g>
    <g fill="rgb(166,166,178)" stroke-miterlimit="1.45" transform="matrix(0.6236,0,0,0.6236,99.147,187.6934)" stroke-linecap="butt" stroke="rgb(166,166,178)">
      <rect fill="none" width="368.36" x="430.86" height="39.1641" y="320.6132"/>
    </g>
    <g font-family="sans-serif" transform="matrix(0.6236,0,0,0.6236,99.147,187.6934)">
      <text xml:space="preserve" x="436.86" y="315.7831" onclick="umlload('../../../../../com/msopentech/odatajclient/engine/data/metadata/package-summary.html')" stroke="none">com.msopentech.odatajclient.engine.data.metadata</text>
    </g>
    <g fill="rgb(187,187,255)" transform="matrix(0.6236,0,0,0.6236,99.147,187.6934)" stroke="rgb(187,187,255)">
      <rect x="438.86" y="328.6444" clip-path="url(#clipPath3)" width="115.36" height="23.1328" stroke="none"/>
    </g>
    <g fill="rgb(130,130,178)" stroke-miterlimit="1.45" transform="matrix(0.6236,0,0,0.6236,99.147,187.6934)" stroke-linecap="butt" stroke="rgb(130,130,178)">
      <rect fill="none" width="115.36" x="438.86" height="23.1328" y="328.6444"/>
    </g>
    <g font-size="13" font-weight="bold" font-family="sans-serif" transform="matrix(0.6236,0,0,0.6236,99.147,187.6934)">
      <text xml:space="preserve" x="444.54" y="344.7113" onclick="umlload('../../../../../com/msopentech/odatajclient/engine/data/metadata/EdmMetadata.html')" stroke="none">EdmMetadata</text>
    </g>
    <g fill="rgb(238,238,255)" transform="matrix(0.6236,0,0,0.6236,99.147,187.6934)" stroke="rgb(238,238,255)">
      <rect width="298.9302" x="430.86" height="17.9688" y="-26" stroke="none"/>
    </g>
    <g fill="rgb(166,166,178)" stroke-miterlimit="1.45" transform="matrix(0.6236,0,0,0.6236,99.147,187.6934)" stroke-linecap="butt" stroke="rgb(166,166,178)">
      <rect fill="none" width="298.9302" x="430.86" height="17.9688" y="-26"/>
    </g>
    <g fill="rgb(238,238,255)" transform="matrix(0.6236,0,0,0.6236,99.147,187.6934)" stroke="rgb(238,238,255)">
      <rect width="298.9302" x="430.86" height="280.6757" y="-8.0312" stroke="none"/>
    </g>
    <g fill="rgb(166,166,178)" stroke-miterlimit="1.45" transform="matrix(0.6236,0,0,0.6236,99.147,187.6934)" stroke-linecap="butt" stroke="rgb(166,166,178)">
      <rect fill="none" width="298.9302" x="430.86" height="280.6757" y="-8.0312"/>
    </g>
    <g font-family="sans-serif" transform="matrix(0.6236,0,0,0.6236,99.147,187.6934)">
      <text xml:space="preserve" x="436.86" y="-12.8613" onclick="umlload('../../../../../com/msopentech/odatajclient/engine/data/package-summary.html')" stroke="none">com.msopentech.odatajclient.engine.data</text>
    </g>
    <g fill="rgb(187,187,255)" transform="matrix(0.6236,0,0,0.6236,99.147,187.6934)" stroke="rgb(187,187,255)">
      <rect x="438.86" y="0" clip-path="url(#clipPath4)" width="98.88" height="23.1328" stroke="none"/>
    </g>
    <g fill="rgb(130,130,178)" stroke-miterlimit="1.45" transform="matrix(0.6236,0,0,0.6236,99.147,187.6934)" stroke-linecap="butt" stroke="rgb(130,130,178)">
      <rect fill="none" width="98.88" x="438.86" height="23.1328" y="0"/>
    </g>
    <g font-size="13" font-weight="bold" font-family="sans-serif" transform="matrix(0.6236,0,0,0.6236,99.147,187.6934)">
      <text xml:space="preserve" x="444.3" y="16.0669" onclick="umlload('../../../../../com/msopentech/odatajclient/engine/data/ODataEntity.html')" stroke="none">ODataEntity</text>
    </g>
    <g fill="rgb(187,187,255)" transform="matrix(0.6236,0,0,0.6236,99.147,187.6934)" stroke="rgb(187,187,255)">
      <rect x="438.86" y="33.1328" clip-path="url(#clipPath5)" width="123.6" height="23.1328" stroke="none"/>
    </g>
    <g fill="rgb(130,130,178)" stroke-miterlimit="1.45" transform="matrix(0.6236,0,0,0.6236,99.147,187.6934)" stroke-linecap="butt" stroke="rgb(130,130,178)">
      <rect fill="none" width="123.6" x="438.86" height="23.1328" y="33.1328"/>
    </g>
    <g font-size="13" font-weight="bold" font-family="sans-serif" transform="matrix(0.6236,0,0,0.6236,99.147,187.6934)">
      <text xml:space="preserve" x="444.66" y="49.1997" onclick="umlload('../../../../../com/msopentech/odatajclient/engine/data/ODataEntitySet.html')" stroke="none">ODataEntitySet</text>
    </g>
    <g fill="rgb(187,187,255)" transform="matrix(0.6236,0,0,0.6236,99.147,187.6934)" stroke="rgb(187,187,255)">
      <rect x="438.86" y="66.2656" clip-path="url(#clipPath6)" width="180.25" height="23.1328" stroke="none"/>
    </g>
    <g fill="rgb(130,130,178)" stroke-miterlimit="1.45" transform="matrix(0.6236,0,0,0.6236,99.147,187.6934)" stroke-linecap="butt" stroke="rgb(130,130,178)">
      <rect fill="none" width="180.25" x="438.86" height="23.1328" y="66.2656"/>
    </g>
    <g font-size="13" font-weight="bold" font-family="sans-serif" transform="matrix(0.6236,0,0,0.6236,99.147,187.6934)">
      <text xml:space="preserve" x="445.485" y="82.3325" onclick="umlload('../../../../../com/msopentech/odatajclient/engine/data/ODataEntitySetIterator.html')" stroke="none">ODataEntitySetIterator</text>
    </g>
    <g fill="rgb(221,221,255)" transform="matrix(0.6236,0,0,0.6236,99.147,187.6934)" stroke="rgb(221,221,255)">
      <rect x="438.86" y="99.3984" clip-path="url(#clipPath7)" width="131.0976" height="32.7147" stroke="none"/>
    </g>
    <g fill="rgb(154,154,178)" stroke-miterlimit="1.45" transform="matrix(0.6236,0,0,0.6236,99.147,187.6934)" stroke-linecap="butt" stroke="rgb(154,154,178)">
      <ellipse rx="65.5488" fill="none" ry="16.3574" cx="504.4088" cy="115.7558"/>
    </g>
    <g font-style="italic" font-size="13" font-weight="bold" font-family="sans-serif" transform="matrix(0.6236,0,0,0.6236,99.147,187.6934)">
      <text xml:space="preserve" x="463.4088" y="120.2563" onclick="umlload('../../../../../com/msopentech/odatajclient/engine/data/ODataError.html')" stroke="none">ODataError</text>
    </g>
    <g fill="rgb(187,187,255)" transform="matrix(0.6236,0,0,0.6236,99.147,187.6934)" stroke="rgb(187,187,255)">
      <rect x="438.86" y="142.1132" clip-path="url(#clipPath8)" width="160.68" height="23.1328" stroke="none"/>
    </g>
    <g fill="rgb(130,130,178)" stroke-miterlimit="1.45" transform="matrix(0.6236,0,0,0.6236,99.147,187.6934)" stroke-linecap="butt" stroke="rgb(130,130,178)">
      <rect fill="none" width="160.68" x="438.86" height="23.1328" y="142.1132"/>
    </g>
    <g font-size="13" font-weight="bold" font-family="sans-serif" transform="matrix(0.6236,0,0,0.6236,99.147,187.6934)">
      <text xml:space="preserve" x="445.2" y="158.1801" onclick="umlload('../../../../../com/msopentech/odatajclient/engine/data/ODataLinkCollection.html')" stroke="none">ODataLinkCollection</text>
    </g>
    <g fill="rgb(187,187,255)" transform="matrix(0.6236,0,0,0.6236,99.147,187.6934)" stroke="rgb(187,187,255)">
      <rect x="438.86" y="175.246" clip-path="url(#clipPath9)" width="121.54" height="23.1328" stroke="none"/>
    </g>
    <g fill="rgb(130,130,178)" stroke-miterlimit="1.45" transform="matrix(0.6236,0,0,0.6236,99.147,187.6934)" stroke-linecap="butt" stroke="rgb(130,130,178)">
      <rect fill="none" width="121.54" x="438.86" height="23.1328" y="175.246"/>
    </g>
    <g font-size="13" font-weight="bold" font-family="sans-serif" transform="matrix(0.6236,0,0,0.6236,99.147,187.6934)">
      <text xml:space="preserve" x="444.63" y="191.3129" onclick="umlload('../../../../../com/msopentech/odatajclient/engine/data/ODataProperty.html')" stroke="none">ODataProperty</text>
    </g>
    <g fill="rgb(187,187,255)" transform="matrix(0.6236,0,0,0.6236,99.147,187.6934)" stroke="rgb(187,187,255)">
      <rect x="438.86" y="208.3788" clip-path="url(#clipPath10)" width="187.46" height="23.1328" stroke="none"/>
    </g>
    <g fill="rgb(130,130,178)" stroke-miterlimit="1.45" transform="matrix(0.6236,0,0,0.6236,99.147,187.6934)" stroke-linecap="butt" stroke="rgb(130,130,178)">
      <rect fill="none" width="187.46" x="438.86" height="23.1328" y="208.3788"/>
    </g>
    <g font-size="13" font-weight="bold" font-family="sans-serif" transform="matrix(0.6236,0,0,0.6236,99.147,187.6934)">
      <text xml:space="preserve" x="445.59" y="224.4457" onclick="umlload('../../../../../com/msopentech/odatajclient/engine/data/ODataServiceDocument.html')" stroke="none">ODataServiceDocument</text>
    </g>
    <g fill="rgb(204,204,255)" transform="matrix(0.6236,0,0,0.6236,99.147,187.6934)" stroke="rgb(204,204,255)">
      <rect x="438.86" y="241.5116" clip-path="url(#clipPath11)" width="97.85" height="23.1328" stroke="none"/>
    </g>
    <g fill="rgb(142,142,178)" stroke-miterlimit="1.45" transform="matrix(0.6236,0,0,0.6236,99.147,187.6934)" stroke-linecap="butt" stroke="rgb(142,142,178)">
      <rect fill="none" width="97.85" x="438.86" height="23.1328" y="241.5116"/>
    </g>
    <g font-size="13" font-weight="bold" font-family="sans-serif" transform="matrix(0.6236,0,0,0.6236,99.147,187.6934)">
      <text xml:space="preserve" x="444.285" y="257.5785" onclick="umlload('../../../../../com/msopentech/odatajclient/engine/data/ODataValue.html')" stroke="none">ODataValue</text>
    </g>
    <g fill="rgb(238,238,255)" transform="matrix(0.6236,0,0,0.6236,99.147,187.6934)" stroke="rgb(238,238,255)">
      <rect width="69.7758" x="-158.4851" height="17.9688" y="61.1328" stroke="none"/>
    </g>
    <g fill="rgb(166,166,178)" stroke-miterlimit="1.45" transform="matrix(0.6236,0,0,0.6236,99.147,187.6934)" stroke-linecap="butt" stroke="rgb(166,166,178)">
      <rect fill="none" width="69.7758" x="-158.4851" height="17.9688" y="61.1328"/>
    </g>
    <g fill="rgb(238,238,255)" transform="matrix(0.6236,0,0,0.6236,99.147,187.6934)" stroke="rgb(238,238,255)">
      <rect width="100.4851" x="-158.4851" height="48.746" y="79.1016" stroke="none"/>
    </g>
    <g fill="rgb(166,166,178)" stroke-miterlimit="1.45" transform="matrix(0.6236,0,0,0.6236,99.147,187.6934)" stroke-linecap="butt" stroke="rgb(166,166,178)">
      <rect fill="none" width="100.4851" x="-158.4851" height="48.746" y="79.1016"/>
    </g>
    <g font-family="sans-serif" transform="matrix(0.6236,0,0,0.6236,99.147,187.6934)">
      <text xml:space="preserve" x="-152.4851" y="74.2715" stroke="none">org.slf4j</text>
    </g>
    <g fill="rgb(221,221,255)" transform="matrix(0.6236,0,0,0.6236,99.147,187.6934)" stroke="rgb(221,221,255)">
      <rect x="-150.4851" y="87.1328" clip-path="url(#clipPath12)" width="84.4851" height="32.7147" stroke="none"/>
    </g>
    <g fill="rgb(154,154,178)" stroke-miterlimit="1.45" transform="matrix(0.6236,0,0,0.6236,99.147,187.6934)" stroke-linecap="butt" stroke="rgb(154,154,178)">
      <ellipse rx="42.2426" fill="none" ry="16.3574" cx="-108.2426" cy="103.4902"/>
    </g>
    <g font-style="italic" font-size="13" font-weight="bold" font-family="sans-serif" transform="matrix(0.6236,0,0,0.6236,99.147,187.6934)">
      <text xml:space="preserve" x="-133.2426" y="107.9907" stroke="none">Logger</text>
    </g>
    <g fill="rgb(238,238,255)" transform="matrix(0.6236,0,0,0.6236,99.147,187.6934)" stroke="rgb(238,238,255)">
      <rect width="76.1412" x="-138.04" height="17.9688" y="-26" stroke="none"/>
    </g>
    <g fill="rgb(166,166,178)" stroke-miterlimit="1.45" transform="matrix(0.6236,0,0,0.6236,99.147,187.6934)" stroke-linecap="butt" stroke="rgb(166,166,178)">
      <rect fill="none" width="76.1412" x="-138.04" height="17.9688" y="-26"/>
    </g>
    <g fill="rgb(238,238,255)" transform="matrix(0.6236,0,0,0.6236,99.147,187.6934)" stroke="rgb(238,238,255)">
      <rect width="79.56" x="-138.04" height="39.1641" y="-8.0312" stroke="none"/>
    </g>
    <g fill="rgb(166,166,178)" stroke-miterlimit="1.45" transform="matrix(0.6236,0,0,0.6236,99.147,187.6934)" stroke-linecap="butt" stroke="rgb(166,166,178)">
      <rect fill="none" width="79.56" x="-138.04" height="39.1641" y="-8.0312"/>
    </g>
    <g font-family="sans-serif" transform="matrix(0.6236,0,0,0.6236,99.147,187.6934)">
      <text xml:space="preserve" x="-132.04" y="-12.8613" onclick="umlload('http://docs.oracle.com/javase/6/docs/api/java/lang/package-summary.html')" stroke="none">java.lang</text>
    </g>
    <g fill="rgb(187,187,255)" transform="matrix(0.6236,0,0,0.6236,99.147,187.6934)" stroke="rgb(187,187,255)">
      <rect x="-130.04" y="0" clip-path="url(#clipPath13)" width="53.56" height="23.1328" stroke="none"/>
    </g>
    <g fill="rgb(130,130,178)" stroke-miterlimit="1.45" transform="matrix(0.6236,0,0,0.6236,99.147,187.6934)" stroke-linecap="butt" stroke="rgb(130,130,178)">
      <rect fill="none" width="53.56" x="-130.04" height="23.1328" y="0"/>
    </g>
    <g font-size="13" font-weight="bold" font-family="sans-serif" transform="matrix(0.6236,0,0,0.6236,99.147,187.6934)">
      <text xml:space="preserve" x="-125.26" y="16.0669" onclick="umlload('http://docs.oracle.com/javase/6/docs/api/java/lang/String.html')" stroke="none">String</text>
    </g>
    <g fill="rgb(238,238,255)" transform="matrix(0.6236,0,0,0.6236,99.147,187.6934)" stroke="rgb(238,238,255)">
      <rect width="76.1412" x="149.59" height="17.9688" y="-133.1328" stroke="none"/>
    </g>
    <g fill="rgb(166,166,178)" stroke-miterlimit="1.45" transform="matrix(0.6236,0,0,0.6236,99.147,187.6934)" stroke-linecap="butt" stroke="rgb(166,166,178)">
      <rect fill="none" width="76.1412" x="149.59" height="17.9688" y="-133.1328"/>
    </g>
    <g fill="rgb(238,238,255)" transform="matrix(0.6236,0,0,0.6236,99.147,187.6934)" stroke="rgb(238,238,255)">
      <rect width="76.1412" x="149.59" height="39.1641" y="-115.1641" stroke="none"/>
    </g>
    <g fill="rgb(166,166,178)" stroke-miterlimit="1.45" transform="matrix(0.6236,0,0,0.6236,99.147,187.6934)" stroke-linecap="butt" stroke="rgb(166,166,178)">
      <rect fill="none" width="76.1412" x="149.59" height="39.1641" y="-115.1641"/>
    </g>
    <g font-family="sans-serif" transform="matrix(0.6236,0,0,0.6236,99.147,187.6934)">
      <text xml:space="preserve" x="155.59" y="-119.9941" onclick="umlload('http://docs.oracle.com/javase/6/docs/api/java/lang/package-summary.html')" stroke="none">java.lang</text>
    </g>
    <g fill="rgb(187,187,255)" transform="matrix(0.6236,0,0,0.6236,99.147,187.6934)" stroke="rgb(187,187,255)">
      <rect x="157.59" y="-107.1328" clip-path="url(#clipPath14)" width="57.68" height="23.1328" stroke="none"/>
    </g>
    <g fill="rgb(130,130,178)" stroke-miterlimit="1.45" transform="matrix(0.6236,0,0,0.6236,99.147,187.6934)" stroke-linecap="butt" stroke="rgb(130,130,178)">
      <rect fill="none" width="57.68" x="157.59" height="23.1328" y="-107.1328"/>
    </g>
    <g font-size="13" font-weight="bold" font-family="sans-serif" transform="matrix(0.6236,0,0,0.6236,99.147,187.6934)">
      <text xml:space="preserve" x="162.43" y="-91.0659" onclick="umlload('http://docs.oracle.com/javase/6/docs/api/java/lang/Object.html')" stroke="none">Object</text>
    </g>
    <g fill="rgb(238,238,255)" transform="matrix(0.6236,0,0,0.6236,99.147,187.6934)" stroke="rgb(238,238,255)">
      <rect width="298.9302" x="-8" height="17.9688" y="-26" stroke="none"/>
    </g>
    <g fill="rgb(166,166,178)" stroke-miterlimit="1.45" transform="matrix(0.6236,0,0,0.6236,99.147,187.6934)" stroke-linecap="butt" stroke="rgb(166,166,178)">
      <rect fill="none" width="298.9302" x="-8" height="17.9688" y="-26"/>
    </g>
    <g fill="rgb(238,238,255)" transform="matrix(0.6236,0,0,0.6236,99.147,187.6934)" stroke="rgb(238,238,255)">
      <rect width="388.86" x="-8" height="462.9413" y="-8.0312" stroke="none"/>
    </g>
    <g fill="rgb(166,166,178)" stroke-miterlimit="1.45" transform="matrix(0.6236,0,0,0.6236,99.147,187.6934)" stroke-linecap="butt" stroke="rgb(166,166,178)">
      <rect fill="none" width="388.86" x="-8" height="462.9413" y="-8.0312"/>
    </g>
    <g font-family="sans-serif" transform="matrix(0.6236,0,0,0.6236,99.147,187.6934)">
      <text xml:space="preserve" x="-2" y="-12.8613" onclick="umlload('package-summary.html')" stroke="none">com.msopentech.odatajclient.engine.data</text>
    </g>
    <g fill="rgb(187,187,255)" transform="matrix(0.6236,0,0,0.6236,99.147,187.6934)" stroke="rgb(187,187,255)">
      <rect x="0" y="0" clip-path="url(#clipPath15)" width="372.86" height="26.625" stroke="none"/>
      <line clip-path="url(#clipPath15)" fill="none" x1="0" x2="372.86" y1="26.625" y2="26.625" stroke="black"/>
      <rect x="0" y="27.625" clip-path="url(#clipPath15)" width="372.86" height="15.9688" stroke="none"/>
      <line clip-path="url(#clipPath15)" fill="none" x1="0" x2="372.86" y1="43.5938" y2="43.5938" stroke="black"/>
      <rect x="0" y="44.5938" clip-path="url(#clipPath15)" width="372.86" height="15.9688" stroke="none"/>
      <line clip-path="url(#clipPath15)" fill="none" x1="0" x2="372.86" y1="60.5625" y2="60.5625" stroke="black"/>
      <rect x="0" y="61.5625" clip-path="url(#clipPath15)" width="372.86" height="385.3475" stroke="none"/>
    </g>
    <g fill="rgb(130,130,178)" stroke-miterlimit="1.45" transform="matrix(0.6236,0,0,0.6236,99.147,187.6934)" stroke-linecap="butt" stroke="rgb(130,130,178)">
      <rect fill="none" width="372.86" x="0" height="446.91" y="0"/>
    </g>
    <g font-size="16" font-weight="bold" font-family="sans-serif" transform="matrix(0.6236,0,0,0.6236,99.147,187.6934)">
      <text xml:space="preserve" x="91.43" y="18.8516" onclick="umlload('#')" stroke="none">ODataObjectWrapper</text>
    </g>
    <g font-family="sans-serif" transform="matrix(0.6236,0,0,0.6236,99.147,187.6934)">
      <text xml:space="preserve" x="4" y="38.1719" stroke="none">#</text>
      <text xml:space="preserve" x="19" y="39.7637" onclick="umlload('#LOG')" stroke="none">LOG : Logger</text>
      <line y2="42.5938" fill="none" x1="19" x2="98" y1="42.5938"/>
    </g>
    <g font-family="sans-serif" transform="matrix(0.6236,0,0,0.6236,99.147,187.6934)">
      <text xml:space="preserve" x="4" y="55.1719" stroke="none">+</text>
      <text xml:space="preserve" x="19" y="56.7324" onclick="umlload('#ODataObjectWrapper(java.io.InputStream, java.lang.String)')" stroke="none">ODataObjectWrapper(InputStream, String)</text>
    </g>
    <g font-family="sans-serif" transform="matrix(0.6236,0,0,0.6236,99.147,187.6934)">
      <text xml:space="preserve" x="4" y="72.1719" stroke="none">+</text>
      <text xml:space="preserve" x="19" y="73.7012" onclick="umlload('#getEdmMetadata()')" stroke="none">getEdmMetadata() : EdmMetadata</text>
    </g>
    <g font-family="sans-serif" transform="matrix(0.6236,0,0,0.6236,99.147,187.6934)">
      <text xml:space="preserve" x="4" y="88.1719" stroke="none">+</text>
      <text xml:space="preserve" x="19" y="89.6699" onclick="umlload('#getODataEntity()')" stroke="none">getODataEntity() : ODataEntity</text>
    </g>
    <g font-family="sans-serif" transform="matrix(0.6236,0,0,0.6236,99.147,187.6934)">
      <text xml:space="preserve" x="4" y="104.1719" stroke="none">+</text>
      <text xml:space="preserve" x="19" y="105.6387" onclick="umlload('#getODataEntitySet()')" stroke="none">getODataEntitySet() : ODataEntitySet</text>
    </g>
    <g font-family="sans-serif" transform="matrix(0.6236,0,0,0.6236,99.147,187.6934)">
      <text xml:space="preserve" x="4" y="120.1719" stroke="none">+</text>
      <text xml:space="preserve" x="19" y="121.6074" onclick="umlload('#getODataEntitySetIterator()')" stroke="none">getODataEntitySetIterator() : ODataEntitySetIterator</text>
    </g>
    <g font-family="sans-serif" transform="matrix(0.6236,0,0,0.6236,99.147,187.6934)">
      <text xml:space="preserve" x="4" y="136.1719" stroke="none">+</text>
      <text xml:space="preserve" x="19" y="137.5762" onclick="umlload('#getODataError()')" stroke="none">getODataError() : ODataError</text>
    </g>
    <g font-family="sans-serif" transform="matrix(0.6236,0,0,0.6236,99.147,187.6934)">
      <text xml:space="preserve" x="4" y="152.1719" stroke="none">+</text>
      <text xml:space="preserve" x="19" y="153.5449" onclick="umlload('#getODataLinkCollection()')" stroke="none">getODataLinkCollection() : ODataLinkCollection</text>
    </g>
    <g font-family="sans-serif" transform="matrix(0.6236,0,0,0.6236,99.147,187.6934)">
      <text xml:space="preserve" x="4" y="168.1719" stroke="none">+</text>
      <text xml:space="preserve" x="19" y="169.5137" onclick="umlload('#getODataProperty()')" stroke="none">getODataProperty() : ODataProperty</text>
    </g>
    <g font-family="sans-serif" transform="matrix(0.6236,0,0,0.6236,99.147,187.6934)">
      <text xml:space="preserve" x="4" y="184.1719" stroke="none">+</text>
      <text xml:space="preserve" x="19" y="185.4824" onclick="umlload('#getODataServiceDocument()')" stroke="none">getODataServiceDocument() : ODataServiceDocument</text>
    </g>
    <g font-family="sans-serif" transform="matrix(0.6236,0,0,0.6236,99.147,187.6934)">
      <text xml:space="preserve" x="4" y="200.1719" stroke="none">+</text>
      <text xml:space="preserve" x="19" y="201.4512" onclick="umlload('#getODataValue()')" stroke="none">getODataValue() : ODataValue</text>
    </g>
    <g font-family="sans-serif" transform="matrix(0.6236,0,0,0.6236,99.147,187.6934)">
      <text xml:space="preserve" x="-153" y="479.1543" onclick="umlload('http://www.yworks.com/')" stroke="none">yWorks UML Doclet</text>
    </g>
    <g stroke-miterlimit="1.45" transform="matrix(0.6236,0,0,0.6236,99.147,187.6934)" stroke-linecap="butt">
      <path fill="none" d="M186.43 0.0046 L186.43 -69"/>
      <path fill="white" d="M186.43 -84 L180.43 -68 L192.43 -68 Z" stroke="none"/>
      <path fill="none" d="M186.43 -84 L180.43 -68 L192.43 -68 Z"/>
      <path fill="none" d="M0.034 11.5664 L-76.48 11.5664"/>
      <line stroke-linecap="square" transform="matrix(-1,0,0,-1,-76.48,11.5664)" fill="none" x1="0" x2="-14" y1="0" y2="-4" stroke-miterlimit="10"/>
      <line stroke-linecap="square" transform="matrix(-1,0,0,-1,-76.48,11.5664)" fill="none" x1="0" x2="-14" y1="0" y2="4" stroke-miterlimit="10"/>
    </g>
    <g stroke-miterlimit="1.45" transform="matrix(0.6236,0,0,0.6236,99.147,187.6934)" stroke-linecap="butt">
      <path fill="none" d="M-0.0065 103.4902 L-66 103.4902"/>
      <line stroke-linecap="square" transform="matrix(-1,0,0,-1,-66,103.4902)" fill="none" x1="0" x2="-14" y1="0" y2="-4" stroke-miterlimit="10"/>
      <line stroke-linecap="square" transform="matrix(-1,0,0,-1,-66,103.4902)" fill="none" x1="0" x2="-14" y1="0" y2="4" stroke-miterlimit="10"/>
    </g>
    <g stroke-dasharray="6,2" stroke-miterlimit="1.45" transform="matrix(0.6236,0,0,0.6236,99.147,187.6934)" stroke-linecap="butt">
      <path fill="none" d="M372.851 11.5664 L438.86 11.5664"/>
      <line stroke-linecap="square" transform="matrix(1,0,0,1,438.86,11.5664)" fill="none" x1="0" x2="-14" y1="0" y2="-4" stroke-dasharray="none" stroke-miterlimit="10"/>
      <line stroke-linecap="square" transform="matrix(1,0,0,1,438.86,11.5664)" fill="none" x1="0" x2="-14" y1="0" y2="4" stroke-dasharray="none" stroke-miterlimit="10"/>
    </g>
    <g stroke-dasharray="6,2" stroke-miterlimit="1.45" transform="matrix(0.6236,0,0,0.6236,99.147,187.6934)" stroke-linecap="butt">
      <path fill="none" d="M372.889 44.6992 L438.86 44.6992"/>
      <line stroke-linecap="square" transform="matrix(1,0,0,1,438.86,44.6992)" fill="none" x1="0" x2="-14" y1="0" y2="-4" stroke-dasharray="none" stroke-miterlimit="10"/>
      <line stroke-linecap="square" transform="matrix(1,0,0,1,438.86,44.6992)" fill="none" x1="0" x2="-14" y1="0" y2="4" stroke-dasharray="none" stroke-miterlimit="10"/>
    </g>
    <g stroke-dasharray="6,2" stroke-miterlimit="1.45" transform="matrix(0.6236,0,0,0.6236,99.147,187.6934)" stroke-linecap="butt">
      <path fill="none" d="M372.8866 77.832 L438.86 77.832"/>
      <line stroke-linecap="square" transform="matrix(1,0,0,1,438.86,77.832)" fill="none" x1="0" x2="-14" y1="0" y2="-4" stroke-dasharray="none" stroke-miterlimit="10"/>
      <line stroke-linecap="square" transform="matrix(1,0,0,1,438.86,77.832)" fill="none" x1="0" x2="-14" y1="0" y2="4" stroke-dasharray="none" stroke-miterlimit="10"/>
    </g>
    <g stroke-dasharray="6,2" stroke-miterlimit="1.45" transform="matrix(0.6236,0,0,0.6236,99.147,187.6934)" stroke-linecap="butt">
      <path fill="none" d="M372.8622 115.7558 L438.86 115.7558"/>
      <line stroke-linecap="square" transform="matrix(1,0,0,1,438.86,115.7558)" fill="none" x1="0" x2="-14" y1="0" y2="-4" stroke-dasharray="none" stroke-miterlimit="10"/>
      <line stroke-linecap="square" transform="matrix(1,0,0,1,438.86,115.7558)" fill="none" x1="0" x2="-14" y1="0" y2="4" stroke-dasharray="none" stroke-miterlimit="10"/>
    </g>
    <g stroke-dasharray="6,2" stroke-miterlimit="1.45" transform="matrix(0.6236,0,0,0.6236,99.147,187.6934)" stroke-linecap="butt">
      <path fill="none" d="M372.8413 153.6796 L438.86 153.6796"/>
      <line stroke-linecap="square" transform="matrix(1,0,0,1,438.86,153.6796)" fill="none" x1="0" x2="-14" y1="0" y2="-4" stroke-dasharray="none" stroke-miterlimit="10"/>
      <line stroke-linecap="square" transform="matrix(1,0,0,1,438.86,153.6796)" fill="none" x1="0" x2="-14" y1="0" y2="4" stroke-dasharray="none" stroke-miterlimit="10"/>
    </g>
    <g stroke-dasharray="6,2" stroke-miterlimit="1.45" transform="matrix(0.6236,0,0,0.6236,99.147,187.6934)" stroke-linecap="butt">
      <path fill="none" d="M372.8895 186.8124 L438.86 186.8124"/>
      <line stroke-linecap="square" transform="matrix(1,0,0,1,438.86,186.8124)" fill="none" x1="0" x2="-14" y1="0" y2="-4" stroke-dasharray="none" stroke-miterlimit="10"/>
      <line stroke-linecap="square" transform="matrix(1,0,0,1,438.86,186.8124)" fill="none" x1="0" x2="-14" y1="0" y2="4" stroke-dasharray="none" stroke-miterlimit="10"/>
    </g>
    <g stroke-dasharray="6,2" stroke-miterlimit="1.45" transform="matrix(0.6236,0,0,0.6236,99.147,187.6934)" stroke-linecap="butt">
      <path fill="none" d="M372.8206 219.9452 L438.86 219.9452"/>
      <line stroke-linecap="square" transform="matrix(1,0,0,1,438.86,219.9452)" fill="none" x1="0" x2="-14" y1="0" y2="-4" stroke-dasharray="none" stroke-miterlimit="10"/>
      <line stroke-linecap="square" transform="matrix(1,0,0,1,438.86,219.9452)" fill="none" x1="0" x2="-14" y1="0" y2="4" stroke-dasharray="none" stroke-miterlimit="10"/>
    </g>
    <g stroke-dasharray="6,2" stroke-miterlimit="1.45" transform="matrix(0.6236,0,0,0.6236,99.147,187.6934)" stroke-linecap="butt">
      <path fill="none" d="M372.8272 253.078 L438.86 253.078"/>
      <line stroke-linecap="square" transform="matrix(1,0,0,1,438.86,253.078)" fill="none" x1="0" x2="-14" y1="0" y2="-4" stroke-dasharray="none" stroke-miterlimit="10"/>
      <line stroke-linecap="square" transform="matrix(1,0,0,1,438.86,253.078)" fill="none" x1="0" x2="-14" y1="0" y2="4" stroke-dasharray="none" stroke-miterlimit="10"/>
    </g>
    <g stroke-dasharray="6,2" stroke-miterlimit="1.45" transform="matrix(0.6236,0,0,0.6236,99.147,187.6934)" stroke-linecap="butt">
      <path fill="none" d="M372.867 340.2108 L438.86 340.2108"/>
      <line stroke-linecap="square" transform="matrix(1,0,0,1,438.86,340.2108)" fill="none" x1="0" x2="-14" y1="0" y2="-4" stroke-dasharray="none" stroke-miterlimit="10"/>
      <line stroke-linecap="square" transform="matrix(1,0,0,1,438.86,340.2108)" fill="none" x1="0" x2="-14" y1="0" y2="4" stroke-dasharray="none" stroke-miterlimit="10"/>
    </g>
    <g stroke-dasharray="6,2" stroke-miterlimit="1.45" transform="matrix(0.6236,0,0,0.6236,99.147,187.6934)" stroke-linecap="butt">
      <path fill="none" d="M372.8421 427.3437 L438.86 427.3437"/>
      <line stroke-linecap="square" transform="matrix(1,0,0,1,438.86,427.3437)" fill="none" x1="0" x2="-14" y1="0" y2="-4" stroke-dasharray="none" stroke-miterlimit="10"/>
      <line stroke-linecap="square" transform="matrix(1,0,0,1,438.86,427.3437)" fill="none" x1="0" x2="-14" y1="0" y2="4" stroke-dasharray="none" stroke-miterlimit="10"/>
    </g>
  </g>
</svg>
