<?xml version="1.0" encoding="UTF-8"?><svg xmlns="http://www.w3.org/2000/svg" xmlns:xlink="http://www.w3.org/1999/xlink" fill-opacity="1" color-rendering="auto" color-interpolation="auto" stroke="black" text-rendering="auto" stroke-linecap="square" width="598" stroke-miterlimit="10" stroke-opacity="1" shape-rendering="auto" fill="black" stroke-dasharray="none" font-weight="normal" stroke-width="1" height="598" font-family="'Dialog'" font-style="normal" stroke-linejoin="miter" font-size="12" stroke-dashoffset="0" image-rendering="auto">
  <!--Generated by ySVG-->
  <defs id="genericDefs"/>
  <g>
    <defs id="defs1">
      <clipPath clipPathUnits="userSpaceOnUse" id="clipPath1">
        <path d="M0 0 L598 0 L598 598 L0 598 L0 0 Z"/>
      </clipPath>
      <clipPath clipPathUnits="userSpaceOnUse" id="clipPath2">
        <path d="M581 439.3281 L613.96 439.3281 L613.96 462.4609 L581 462.4609 L581 439.3281 Z"/>
      </clipPath>
      <clipPath clipPathUnits="userSpaceOnUse" id="clipPath3">
        <path d="M581 352.1953 L634.56 352.1953 L634.56 375.3281 L581 375.3281 L581 352.1953 Z"/>
      </clipPath>
      <clipPath clipPathUnits="userSpaceOnUse" id="clipPath4">
        <path d="M581 0 L753.01 0 L753.01 23.1328 L581 23.1328 L581 0 Z"/>
      </clipPath>
      <clipPath clipPathUnits="userSpaceOnUse" id="clipPath5">
        <path d="M581 33.1328 L744.77 33.1328 L744.77 56.2656 L581 56.2656 L581 33.1328 Z"/>
      </clipPath>
      <clipPath clipPathUnits="userSpaceOnUse" id="clipPath6">
        <path d="M581 66.2656 L679.88 66.2656 L679.88 89.3984 L581 89.3984 L581 66.2656 Z"/>
      </clipPath>
      <clipPath clipPathUnits="userSpaceOnUse" id="clipPath7">
        <path d="M581 99.3984 L704.6 99.3984 L704.6 122.5312 L581 122.5312 L581 99.3984 Z"/>
      </clipPath>
      <clipPath clipPathUnits="userSpaceOnUse" id="clipPath8">
        <path d="M581 132.5312 L720.05 132.5312 L720.05 155.6641 L581 155.6641 L581 132.5312 Z"/>
      </clipPath>
      <clipPath clipPathUnits="userSpaceOnUse" id="clipPath9">
        <path d="M581 165.6641 L744.77 165.6641 L744.77 188.7969 L581 188.7969 L581 165.6641 Z"/>
      </clipPath>
      <clipPath clipPathUnits="userSpaceOnUse" id="clipPath10">
        <path d="M581 198.7969 L667.52 198.7969 L667.52 221.9297 L581 221.9297 L581 198.7969 Z"/>
      </clipPath>
      <clipPath clipPathUnits="userSpaceOnUse" id="clipPath11">
        <path d="M581 231.9297 L745.8 231.9297 L745.8 255.0625 L581 255.0625 L581 231.9297 Z"/>
      </clipPath>
      <clipPath clipPathUnits="userSpaceOnUse" id="clipPath12">
        <path d="M581 265.0625 L702.54 265.0625 L702.54 288.1953 L581 288.1953 L581 265.0625 Z"/>
      </clipPath>
      <clipPath clipPathUnits="userSpaceOnUse" id="clipPath13">
        <path d="M228.66 -107.1328 L286.34 -107.1328 L286.34 -84 L228.66 -84 L228.66 -107.1328 Z"/>
      </clipPath>
      <clipPath clipPathUnits="userSpaceOnUse" id="clipPath14">
        <path d="M0 0 L515 0 L515 470.4609 L0 470.4609 L0 0 Z"/>
      </clipPath>
      <script type="text/ecmascript"><![CDATA[
function umlload(newLocation)
{
if (newLocation.charAt(0) != '#') {
if (newLocation.indexOf("://") > -1) {
window.parent.location.href = newLocation;
} else {
var tmp = window.parent.location.href;
tmp = tmp.substring(0, tmp.lastIndexOf("/") + 1);
window.parent.location.href = tmp.concat(newLocation);
}
} else {
window.parent.location.hash = newLocation;
}
}
]]></script>
    </defs>
    <g fill="rgb(238,238,255)" transform="matrix(0.6788,0,0,0.6788,5.4302,169.6935)" stroke="rgb(238,238,255)">
      <rect width="69.7758" x="573" height="17.9688" y="413.3281" stroke="none"/>
    </g>
    <g fill="rgb(166,166,178)" stroke-miterlimit="1.45" transform="matrix(0.6788,0,0,0.6788,5.4302,169.6935)" stroke-linecap="butt" stroke="rgb(166,166,178)">
      <rect fill="none" width="69.7758" x="573" height="17.9688" y="413.3281"/>
    </g>
    <g fill="rgb(238,238,255)" transform="matrix(0.6788,0,0,0.6788,5.4302,169.6935)" stroke="rgb(238,238,255)">
      <rect width="73.96" x="573" height="39.1641" y="431.2969" stroke="none"/>
    </g>
    <g fill="rgb(166,166,178)" stroke-miterlimit="1.45" transform="matrix(0.6788,0,0,0.6788,5.4302,169.6935)" stroke-linecap="butt" stroke="rgb(166,166,178)">
      <rect fill="none" width="73.96" x="573" height="39.1641" y="431.2969"/>
    </g>
    <g font-family="sans-serif" transform="matrix(0.6788,0,0,0.6788,5.4302,169.6935)">
      <text xml:space="preserve" x="579" y="426.4668" onclick="umlload('http://docs.oracle.com/javase/6/docs/api/java/net/package-summary.html')" stroke="none">java.net</text>
    </g>
    <g fill="rgb(187,187,255)" transform="matrix(0.6788,0,0,0.6788,5.4302,169.6935)" stroke="rgb(187,187,255)">
      <rect x="581" y="439.3281" clip-path="url(#clipPath2)" width="32.96" height="23.1328" stroke="none"/>
    </g>
    <g fill="rgb(130,130,178)" stroke-miterlimit="1.45" transform="matrix(0.6788,0,0,0.6788,5.4302,169.6935)" stroke-linecap="butt" stroke="rgb(130,130,178)">
      <rect fill="none" width="32.96" x="581" height="23.1328" y="439.3281"/>
    </g>
    <g font-size="13" font-weight="bold" font-family="sans-serif" transform="matrix(0.6788,0,0,0.6788,5.4302,169.6935)">
      <text xml:space="preserve" x="585.48" y="455.395" onclick="umlload('http://docs.oracle.com/javase/6/docs/api/java/net/URI.html')" stroke="none">URI</text>
    </g>
    <g fill="rgb(238,238,255)" transform="matrix(0.6788,0,0,0.6788,5.4302,169.6935)" stroke="rgb(238,238,255)">
      <rect width="76.1412" x="573" height="17.9688" y="326.1953" stroke="none"/>
    </g>
    <g fill="rgb(166,166,178)" stroke-miterlimit="1.45" transform="matrix(0.6788,0,0,0.6788,5.4302,169.6935)" stroke-linecap="butt" stroke="rgb(166,166,178)">
      <rect fill="none" width="76.1412" x="573" height="17.9688" y="326.1953"/>
    </g>
    <g fill="rgb(238,238,255)" transform="matrix(0.6788,0,0,0.6788,5.4302,169.6935)" stroke="rgb(238,238,255)">
      <rect width="79.56" x="573" height="39.1641" y="344.1641" stroke="none"/>
    </g>
    <g fill="rgb(166,166,178)" stroke-miterlimit="1.45" transform="matrix(0.6788,0,0,0.6788,5.4302,169.6935)" stroke-linecap="butt" stroke="rgb(166,166,178)">
      <rect fill="none" width="79.56" x="573" height="39.1641" y="344.1641"/>
    </g>
    <g font-family="sans-serif" transform="matrix(0.6788,0,0,0.6788,5.4302,169.6935)">
      <text xml:space="preserve" x="579" y="339.334" onclick="umlload('http://docs.oracle.com/javase/6/docs/api/java/lang/package-summary.html')" stroke="none">java.lang</text>
    </g>
    <g fill="rgb(187,187,255)" transform="matrix(0.6788,0,0,0.6788,5.4302,169.6935)" stroke="rgb(187,187,255)">
      <rect x="581" y="352.1953" clip-path="url(#clipPath3)" width="53.56" height="23.1328" stroke="none"/>
    </g>
    <g fill="rgb(130,130,178)" stroke-miterlimit="1.45" transform="matrix(0.6788,0,0,0.6788,5.4302,169.6935)" stroke-linecap="butt" stroke="rgb(130,130,178)">
      <rect fill="none" width="53.56" x="581" height="23.1328" y="352.1953"/>
    </g>
    <g font-size="13" font-weight="bold" font-family="sans-serif" transform="matrix(0.6788,0,0,0.6788,5.4302,169.6935)">
      <text xml:space="preserve" x="585.78" y="368.2622" onclick="umlload('http://docs.oracle.com/javase/6/docs/api/java/lang/String.html')" stroke="none">String</text>
    </g>
    <g fill="rgb(238,238,255)" transform="matrix(0.6788,0,0,0.6788,5.4302,169.6935)" stroke="rgb(238,238,255)">
      <rect width="298.9302" x="573" height="17.9688" y="-26" stroke="none"/>
    </g>
    <g fill="rgb(166,166,178)" stroke-miterlimit="1.45" transform="matrix(0.6788,0,0,0.6788,5.4302,169.6935)" stroke-linecap="butt" stroke="rgb(166,166,178)">
      <rect fill="none" width="298.9302" x="573" height="17.9688" y="-26"/>
    </g>
    <g fill="rgb(238,238,255)" transform="matrix(0.6788,0,0,0.6788,5.4302,169.6935)" stroke="rgb(238,238,255)">
      <rect width="299.01" x="573" height="304.2266" y="-8.0312" stroke="none"/>
    </g>
    <g fill="rgb(166,166,178)" stroke-miterlimit="1.45" transform="matrix(0.6788,0,0,0.6788,5.4302,169.6935)" stroke-linecap="butt" stroke="rgb(166,166,178)">
      <rect fill="none" width="299.01" x="573" height="304.2266" y="-8.0312"/>
    </g>
    <g font-family="sans-serif" transform="matrix(0.6788,0,0,0.6788,5.4302,169.6935)">
      <text xml:space="preserve" x="579" y="-12.8613" onclick="umlload('../../../../../com/msopentech/odatajclient/engine/data/package-summary.html')" stroke="none">com.msopentech.odatajclient.engine.data</text>
    </g>
    <g fill="rgb(187,187,255)" transform="matrix(0.6788,0,0,0.6788,5.4302,169.6935)" stroke="rgb(187,187,255)">
      <rect x="581" y="0" clip-path="url(#clipPath4)" width="172.01" height="23.1328" stroke="none"/>
    </g>
    <g fill="rgb(130,130,178)" stroke-miterlimit="1.45" transform="matrix(0.6788,0,0,0.6788,5.4302,169.6935)" stroke-linecap="butt" stroke="rgb(130,130,178)">
      <rect fill="none" width="172.01" x="581" height="23.1328" y="0"/>
    </g>
    <g font-size="13" font-weight="bold" font-family="sans-serif" transform="matrix(0.6788,0,0,0.6788,5.4302,169.6935)">
      <text xml:space="preserve" x="587.505" y="16.0669" onclick="umlload('../../../../../com/msopentech/odatajclient/engine/data/ODataCollectionValue.html')" stroke="none">ODataCollectionValue</text>
    </g>
    <g fill="rgb(187,187,255)" transform="matrix(0.6788,0,0,0.6788,5.4302,169.6935)" stroke="rgb(187,187,255)">
      <rect x="581" y="33.1328" clip-path="url(#clipPath5)" width="163.77" height="23.1328" stroke="none"/>
    </g>
    <g fill="rgb(130,130,178)" stroke-miterlimit="1.45" transform="matrix(0.6788,0,0,0.6788,5.4302,169.6935)" stroke-linecap="butt" stroke="rgb(130,130,178)">
      <rect fill="none" width="163.77" x="581" height="23.1328" y="33.1328"/>
    </g>
    <g font-size="13" font-weight="bold" font-family="sans-serif" transform="matrix(0.6788,0,0,0.6788,5.4302,169.6935)">
      <text xml:space="preserve" x="587.385" y="49.1997" onclick="umlload('../../../../../com/msopentech/odatajclient/engine/data/ODataComplexValue.html')" stroke="none">ODataComplexValue</text>
    </g>
    <g fill="rgb(187,187,255)" transform="matrix(0.6788,0,0,0.6788,5.4302,169.6935)" stroke="rgb(187,187,255)">
      <rect x="581" y="66.2656" clip-path="url(#clipPath6)" width="98.88" height="23.1328" stroke="none"/>
    </g>
    <g fill="rgb(130,130,178)" stroke-miterlimit="1.45" transform="matrix(0.6788,0,0,0.6788,5.4302,169.6935)" stroke-linecap="butt" stroke="rgb(130,130,178)">
      <rect fill="none" width="98.88" x="581" height="23.1328" y="66.2656"/>
    </g>
    <g font-size="13" font-weight="bold" font-family="sans-serif" transform="matrix(0.6788,0,0,0.6788,5.4302,169.6935)">
      <text xml:space="preserve" x="586.44" y="82.3325" onclick="umlload('../../../../../com/msopentech/odatajclient/engine/data/ODataEntity.html')" stroke="none">ODataEntity</text>
    </g>
    <g fill="rgb(187,187,255)" transform="matrix(0.6788,0,0,0.6788,5.4302,169.6935)" stroke="rgb(187,187,255)">
      <rect x="581" y="99.3984" clip-path="url(#clipPath7)" width="123.6" height="23.1328" stroke="none"/>
    </g>
    <g fill="rgb(130,130,178)" stroke-miterlimit="1.45" transform="matrix(0.6788,0,0,0.6788,5.4302,169.6935)" stroke-linecap="butt" stroke="rgb(130,130,178)">
      <rect fill="none" width="123.6" x="581" height="23.1328" y="99.3984"/>
    </g>
    <g font-size="13" font-weight="bold" font-family="sans-serif" transform="matrix(0.6788,0,0,0.6788,5.4302,169.6935)">
      <text xml:space="preserve" x="586.8" y="115.4653" onclick="umlload('../../../../../com/msopentech/odatajclient/engine/data/ODataEntitySet.html')" stroke="none">ODataEntitySet</text>
    </g>
    <g fill="rgb(187,187,255)" transform="matrix(0.6788,0,0,0.6788,5.4302,169.6935)" stroke="rgb(187,187,255)">
      <rect x="581" y="132.5312" clip-path="url(#clipPath8)" width="139.05" height="23.1328" stroke="none"/>
    </g>
    <g fill="rgb(130,130,178)" stroke-miterlimit="1.45" transform="matrix(0.6788,0,0,0.6788,5.4302,169.6935)" stroke-linecap="butt" stroke="rgb(130,130,178)">
      <rect fill="none" width="139.05" x="581" height="23.1328" y="132.5312"/>
    </g>
    <g font-size="13" font-weight="bold" font-family="sans-serif" transform="matrix(0.6788,0,0,0.6788,5.4302,169.6935)">
      <text xml:space="preserve" x="587.025" y="148.5981" onclick="umlload('../../../../../com/msopentech/odatajclient/engine/data/ODataInlineEntity.html')" stroke="none">ODataInlineEntity</text>
    </g>
    <g fill="rgb(187,187,255)" transform="matrix(0.6788,0,0,0.6788,5.4302,169.6935)" stroke="rgb(187,187,255)">
      <rect x="581" y="165.6641" clip-path="url(#clipPath9)" width="163.77" height="23.1328" stroke="none"/>
    </g>
    <g fill="rgb(130,130,178)" stroke-miterlimit="1.45" transform="matrix(0.6788,0,0,0.6788,5.4302,169.6935)" stroke-linecap="butt" stroke="rgb(130,130,178)">
      <rect fill="none" width="163.77" x="581" height="23.1328" y="165.6641"/>
    </g>
    <g font-size="13" font-weight="bold" font-family="sans-serif" transform="matrix(0.6788,0,0,0.6788,5.4302,169.6935)">
      <text xml:space="preserve" x="587.385" y="181.731" onclick="umlload('../../../../../com/msopentech/odatajclient/engine/data/ODataInlineEntitySet.html')" stroke="none">ODataInlineEntitySet</text>
    </g>
    <g fill="rgb(187,187,255)" transform="matrix(0.6788,0,0,0.6788,5.4302,169.6935)" stroke="rgb(187,187,255)">
      <rect x="581" y="198.7969" clip-path="url(#clipPath10)" width="86.52" height="23.1328" stroke="none"/>
    </g>
    <g fill="rgb(130,130,178)" stroke-miterlimit="1.45" transform="matrix(0.6788,0,0,0.6788,5.4302,169.6935)" stroke-linecap="butt" stroke="rgb(130,130,178)">
      <rect fill="none" width="86.52" x="581" height="23.1328" y="198.7969"/>
    </g>
    <g font-size="13" font-weight="bold" font-family="sans-serif" transform="matrix(0.6788,0,0,0.6788,5.4302,169.6935)">
      <text xml:space="preserve" x="586.26" y="214.8638" onclick="umlload('../../../../../com/msopentech/odatajclient/engine/data/ODataLink.html')" stroke="none">ODataLink</text>
    </g>
    <g fill="rgb(187,187,255)" transform="matrix(0.6788,0,0,0.6788,5.4302,169.6935)" stroke="rgb(187,187,255)">
      <rect x="581" y="231.9297" clip-path="url(#clipPath11)" width="164.8" height="23.1328" stroke="none"/>
    </g>
    <g fill="rgb(130,130,178)" stroke-miterlimit="1.45" transform="matrix(0.6788,0,0,0.6788,5.4302,169.6935)" stroke-linecap="butt" stroke="rgb(130,130,178)">
      <rect fill="none" width="164.8" x="581" height="23.1328" y="231.9297"/>
    </g>
    <g font-size="13" font-weight="bold" font-family="sans-serif" transform="matrix(0.6788,0,0,0.6788,5.4302,169.6935)">
      <text xml:space="preserve" x="587.4" y="247.9966" onclick="umlload('../../../../../com/msopentech/odatajclient/engine/data/ODataPrimitiveValue.html')" stroke="none">ODataPrimitiveValue</text>
    </g>
    <g fill="rgb(187,187,255)" transform="matrix(0.6788,0,0,0.6788,5.4302,169.6935)" stroke="rgb(187,187,255)">
      <rect x="581" y="265.0625" clip-path="url(#clipPath12)" width="121.54" height="23.1328" stroke="none"/>
    </g>
    <g fill="rgb(130,130,178)" stroke-miterlimit="1.45" transform="matrix(0.6788,0,0,0.6788,5.4302,169.6935)" stroke-linecap="butt" stroke="rgb(130,130,178)">
      <rect fill="none" width="121.54" x="581" height="23.1328" y="265.0625"/>
    </g>
    <g font-size="13" font-weight="bold" font-family="sans-serif" transform="matrix(0.6788,0,0,0.6788,5.4302,169.6935)">
      <text xml:space="preserve" x="586.77" y="281.1294" onclick="umlload('../../../../../com/msopentech/odatajclient/engine/data/ODataProperty.html')" stroke="none">ODataProperty</text>
    </g>
    <g fill="rgb(238,238,255)" transform="matrix(0.6788,0,0,0.6788,5.4302,169.6935)" stroke="rgb(238,238,255)">
      <rect width="76.1412" x="220.66" height="17.9688" y="-133.1328" stroke="none"/>
    </g>
    <g fill="rgb(166,166,178)" stroke-miterlimit="1.45" transform="matrix(0.6788,0,0,0.6788,5.4302,169.6935)" stroke-linecap="butt" stroke="rgb(166,166,178)">
      <rect fill="none" width="76.1412" x="220.66" height="17.9688" y="-133.1328"/>
    </g>
    <g fill="rgb(238,238,255)" transform="matrix(0.6788,0,0,0.6788,5.4302,169.6935)" stroke="rgb(238,238,255)">
      <rect width="76.1412" x="220.66" height="39.1641" y="-115.1641" stroke="none"/>
    </g>
    <g fill="rgb(166,166,178)" stroke-miterlimit="1.45" transform="matrix(0.6788,0,0,0.6788,5.4302,169.6935)" stroke-linecap="butt" stroke="rgb(166,166,178)">
      <rect fill="none" width="76.1412" x="220.66" height="39.1641" y="-115.1641"/>
    </g>
    <g font-family="sans-serif" transform="matrix(0.6788,0,0,0.6788,5.4302,169.6935)">
      <text xml:space="preserve" x="226.66" y="-119.9941" onclick="umlload('http://docs.oracle.com/javase/6/docs/api/java/lang/package-summary.html')" stroke="none">java.lang</text>
    </g>
    <g fill="rgb(187,187,255)" transform="matrix(0.6788,0,0,0.6788,5.4302,169.6935)" stroke="rgb(187,187,255)">
      <rect x="228.66" y="-107.1328" clip-path="url(#clipPath13)" width="57.68" height="23.1328" stroke="none"/>
    </g>
    <g fill="rgb(130,130,178)" stroke-miterlimit="1.45" transform="matrix(0.6788,0,0,0.6788,5.4302,169.6935)" stroke-linecap="butt" stroke="rgb(130,130,178)">
      <rect fill="none" width="57.68" x="228.66" height="23.1328" y="-107.1328"/>
    </g>
    <g font-size="13" font-weight="bold" font-family="sans-serif" transform="matrix(0.6788,0,0,0.6788,5.4302,169.6935)">
      <text xml:space="preserve" x="233.5" y="-91.0659" onclick="umlload('http://docs.oracle.com/javase/6/docs/api/java/lang/Object.html')" stroke="none">Object</text>
    </g>
    <g fill="rgb(238,238,255)" transform="matrix(0.6788,0,0,0.6788,5.4302,169.6935)" stroke="rgb(238,238,255)">
      <rect width="298.9302" x="-8" height="17.9688" y="-26" stroke="none"/>
    </g>
    <g fill="rgb(166,166,178)" stroke-miterlimit="1.45" transform="matrix(0.6788,0,0,0.6788,5.4302,169.6935)" stroke-linecap="butt" stroke="rgb(166,166,178)">
      <rect fill="none" width="298.9302" x="-8" height="17.9688" y="-26"/>
    </g>
    <g fill="rgb(238,238,255)" transform="matrix(0.6788,0,0,0.6788,5.4302,169.6935)" stroke="rgb(238,238,255)">
      <rect width="531" x="-8" height="486.4922" y="-8.0312" stroke="none"/>
    </g>
    <g fill="rgb(166,166,178)" stroke-miterlimit="1.45" transform="matrix(0.6788,0,0,0.6788,5.4302,169.6935)" stroke-linecap="butt" stroke="rgb(166,166,178)">
      <rect fill="none" width="531" x="-8" height="486.4922" y="-8.0312"/>
    </g>
    <g font-family="sans-serif" transform="matrix(0.6788,0,0,0.6788,5.4302,169.6935)">
      <text xml:space="preserve" x="-2" y="-12.8613" onclick="umlload('package-summary.html')" stroke="none">com.msopentech.odatajclient.engine.data</text>
    </g>
    <g fill="rgb(187,187,255)" transform="matrix(0.6788,0,0,0.6788,5.4302,169.6935)" stroke="rgb(187,187,255)">
      <rect x="0" y="0" clip-path="url(#clipPath14)" width="515" height="26.625" stroke="none"/>
      <line clip-path="url(#clipPath14)" fill="none" x1="0" x2="515" y1="26.625" y2="26.625" stroke="black"/>
      <line clip-path="url(#clipPath14)" x1="0" x2="515" y1="27.625" y2="27.625" stroke="none"/>
      <line clip-path="url(#clipPath14)" fill="none" x1="0" x2="515" y1="27.625" y2="27.625" stroke="black"/>
      <rect x="0" y="28.625" clip-path="url(#clipPath14)" width="515" height="441.8359" stroke="none"/>
    </g>
    <g fill="rgb(130,130,178)" stroke-miterlimit="1.45" transform="matrix(0.6788,0,0,0.6788,5.4302,169.6935)" stroke-linecap="butt" stroke="rgb(130,130,178)">
      <rect fill="none" width="515" x="0" height="470.4609" y="0"/>
    </g>
    <g font-size="16" font-weight="bold" font-family="sans-serif" transform="matrix(0.6788,0,0,0.6788,5.4302,169.6935)">
      <text xml:space="preserve" x="196.5" y="18.8516" onclick="umlload('#')" stroke="none">ODataFactory</text>
    </g>
    <g font-family="sans-serif" transform="matrix(0.6788,0,0,0.6788,5.4302,169.6935)">
      <text xml:space="preserve" x="4" y="39.1719" stroke="none">+</text>
      <text xml:space="preserve" x="19" y="40.7637" onclick="umlload('#newAssociationLink(java.lang.String, java.net.URI)')" stroke="none">newAssociationLink(String, URI) : ODataLink</text>
      <line y2="43.5938" fill="none" x1="19" x2="290" y1="43.5938"/>
    </g>
    <g font-family="sans-serif" transform="matrix(0.6788,0,0,0.6788,5.4302,169.6935)">
      <text xml:space="preserve" x="4" y="55.1719" stroke="none">+</text>
      <text xml:space="preserve" x="19" y="56.7324" onclick="umlload('#newAssociationLink(java.lang.String, java.net.URI, java.lang.String)')" stroke="none">newAssociationLink(String, URI, String) : ODataLink</text>
      <line y2="59.5625" fill="none" x1="19" x2="335" y1="59.5625"/>
    </g>
    <g font-family="sans-serif" transform="matrix(0.6788,0,0,0.6788,5.4302,169.6935)">
      <text xml:space="preserve" x="4" y="71.1719" stroke="none">+</text>
      <text xml:space="preserve" x="19" y="72.7012" onclick="umlload('#newCollectionProperty(java.lang.String, com.msopentech.odatajclient.engine.data.ODataCollectionValue)')" stroke="none">newCollectionProperty(String, ODataCollectionValue) : ODataProperty</text>
      <line y2="75.5312" fill="none" x1="19" x2="452" y1="75.5312"/>
    </g>
    <g font-family="sans-serif" transform="matrix(0.6788,0,0,0.6788,5.4302,169.6935)">
      <text xml:space="preserve" x="4" y="87.1719" stroke="none">+</text>
      <text xml:space="preserve" x="19" y="88.6699" onclick="umlload('#newComplexProperty(java.lang.String, com.msopentech.odatajclient.engine.data.ODataComplexValue)')" stroke="none">newComplexProperty(String, ODataComplexValue) : ODataProperty</text>
      <line y2="91.5" fill="none" x1="19" x2="434" y1="91.5"/>
    </g>
    <g font-family="sans-serif" transform="matrix(0.6788,0,0,0.6788,5.4302,169.6935)">
      <text xml:space="preserve" x="4" y="103.1719" stroke="none">+</text>
      <text xml:space="preserve" x="19" y="104.6387" onclick="umlload('#newEntity(java.lang.String)')" stroke="none">newEntity(String) : ODataEntity</text>
      <line y2="107.4688" fill="none" x1="19" x2="212" y1="107.4688"/>
    </g>
    <g font-family="sans-serif" transform="matrix(0.6788,0,0,0.6788,5.4302,169.6935)">
      <text xml:space="preserve" x="4" y="119.1719" stroke="none">+</text>
      <text xml:space="preserve" x="19" y="120.6074" onclick="umlload('#newEntity(java.lang.String, java.net.URI)')" stroke="none">newEntity(String, URI) : ODataEntity</text>
      <line y2="123.4375" fill="none" x1="19" x2="240" y1="123.4375"/>
    </g>
    <g font-family="sans-serif" transform="matrix(0.6788,0,0,0.6788,5.4302,169.6935)">
      <text xml:space="preserve" x="4" y="135.1719" stroke="none">+</text>
      <text xml:space="preserve" x="19" y="136.5762" onclick="umlload('#newEntityNavigationLink(java.lang.String, java.net.URI)')" stroke="none">newEntityNavigationLink(String, URI) : ODataLink</text>
      <line y2="139.4062" fill="none" x1="19" x2="319" y1="139.4062"/>
    </g>
    <g font-family="sans-serif" transform="matrix(0.6788,0,0,0.6788,5.4302,169.6935)">
      <text xml:space="preserve" x="4" y="151.1719" stroke="none">+</text>
      <text xml:space="preserve" x="19" y="152.5449" onclick="umlload('#newEntityNavigationLink(java.lang.String, java.net.URI, java.lang.String)')" stroke="none">newEntityNavigationLink(String, URI, String) : ODataLink</text>
      <line y2="155.375" fill="none" x1="19" x2="364" y1="155.375"/>
    </g>
    <g font-family="sans-serif" transform="matrix(0.6788,0,0,0.6788,5.4302,169.6935)">
      <text xml:space="preserve" x="4" y="167.1719" stroke="none">+</text>
      <text xml:space="preserve" x="19" y="168.5137" onclick="umlload('#newEntitySet()')" stroke="none">newEntitySet() : ODataEntitySet</text>
      <line y2="171.3438" fill="none" x1="19" x2="217" y1="171.3438"/>
    </g>
    <g font-family="sans-serif" transform="matrix(0.6788,0,0,0.6788,5.4302,169.6935)">
      <text xml:space="preserve" x="4" y="183.1719" stroke="none">+</text>
      <text xml:space="preserve" x="19" y="184.4824" onclick="umlload('#newEntitySet(java.net.URI)')" stroke="none">newEntitySet(URI) : ODataEntitySet</text>
      <line y2="187.3125" fill="none" x1="19" x2="237" y1="187.3125"/>
    </g>
    <g font-family="sans-serif" transform="matrix(0.6788,0,0,0.6788,5.4302,169.6935)">
      <text xml:space="preserve" x="4" y="199.1719" stroke="none">+</text>
      <text xml:space="preserve" x="19" y="200.4512" onclick="umlload('#newFeedNavigationLink(java.lang.String, java.net.URI)')" stroke="none">newFeedNavigationLink(String, URI) : ODataLink</text>
      <line y2="203.2812" fill="none" x1="19" x2="315" y1="203.2812"/>
    </g>
    <g font-family="sans-serif" transform="matrix(0.6788,0,0,0.6788,5.4302,169.6935)">
      <text xml:space="preserve" x="4" y="215.1719" stroke="none">+</text>
      <text xml:space="preserve" x="19" y="216.4199" onclick="umlload('#newFeedNavigationLink(java.lang.String, java.net.URI, java.lang.String)')" stroke="none">newFeedNavigationLink(String, URI, String) : ODataLink</text>
      <line y2="219.25" fill="none" x1="19" x2="360" y1="219.25"/>
    </g>
    <g font-family="sans-serif" transform="matrix(0.6788,0,0,0.6788,5.4302,169.6935)">
      <text xml:space="preserve" x="4" y="231.1719" stroke="none">+</text>
      <text xml:space="preserve" x="19" y="232.3887" onclick="umlload('#newInlineEntity(java.lang.String, java.net.URI, com.msopentech.odatajclient.engine.data.ODataEntity)')" stroke="none">newInlineEntity(String, URI, ODataEntity) : ODataInlineEntity</text>
      <line y2="235.2188" fill="none" x1="19" x2="388" y1="235.2188"/>
    </g>
    <g font-family="sans-serif" transform="matrix(0.6788,0,0,0.6788,5.4302,169.6935)">
      <text xml:space="preserve" x="4" y="247.1719" stroke="none">+</text>
      <text xml:space="preserve" x="19" y="248.3574" onclick="umlload('#newInlineEntity(java.lang.String, java.net.URI, java.lang.String, com.msopentech.odatajclient.engine.data.ODataEntity)')" stroke="none">newInlineEntity(String, URI, String, ODataEntity) : ODataInlineEntity</text>
      <line y2="251.1875" fill="none" x1="19" x2="433" y1="251.1875"/>
    </g>
    <g font-family="sans-serif" transform="matrix(0.6788,0,0,0.6788,5.4302,169.6935)">
      <text xml:space="preserve" x="4" y="263.1719" stroke="none">+</text>
      <text xml:space="preserve" x="19" y="264.3262" onclick="umlload('#newInlineEntitySet(java.lang.String, java.net.URI, com.msopentech.odatajclient.engine.data.ODataEntitySet)')" stroke="none">newInlineEntitySet(String, URI, ODataEntitySet) : ODataInlineEntitySet</text>
      <line y2="267.1562" fill="none" x1="19" x2="451" y1="267.1562"/>
    </g>
    <g font-family="sans-serif" transform="matrix(0.6788,0,0,0.6788,5.4302,169.6935)">
      <text xml:space="preserve" x="4" y="279.1719" stroke="none">+</text>
      <text xml:space="preserve" x="19" y="280.2949" onclick="umlload('#newInlineEntitySet(java.lang.String, java.net.URI, java.lang.String, com.msopentech.odatajclient.engine.data.ODataEntitySet)')" stroke="none">newInlineEntitySet(String, URI, String, ODataEntitySet) : ODataInlineEntitySet</text>
      <line y2="283.125" fill="none" x1="19" x2="496" y1="283.125"/>
    </g>
    <g font-family="sans-serif" transform="matrix(0.6788,0,0,0.6788,5.4302,169.6935)">
      <text xml:space="preserve" x="4" y="295.1719" stroke="none">+</text>
      <text xml:space="preserve" x="19" y="296.2637" onclick="umlload('#newMediaEditLink(java.lang.String, java.net.URI)')" stroke="none">newMediaEditLink(String, URI) : ODataLink</text>
      <line y2="299.0938" fill="none" x1="19" x2="279" y1="299.0938"/>
    </g>
    <g font-family="sans-serif" transform="matrix(0.6788,0,0,0.6788,5.4302,169.6935)">
      <text xml:space="preserve" x="4" y="311.1719" stroke="none">+</text>
      <text xml:space="preserve" x="19" y="312.2324" onclick="umlload('#newMediaEditLink(java.lang.String, java.net.URI, java.lang.String)')" stroke="none">newMediaEditLink(String, URI, String) : ODataLink</text>
      <line y2="315.0625" fill="none" x1="19" x2="324" y1="315.0625"/>
    </g>
    <g font-family="sans-serif" transform="matrix(0.6788,0,0,0.6788,5.4302,169.6935)">
      <text xml:space="preserve" x="4" y="327.1719" stroke="none">+</text>
      <text xml:space="preserve" x="19" y="328.2012" onclick="umlload('#newPrimitiveProperty(java.lang.String, com.msopentech.odatajclient.engine.data.ODataPrimitiveValue)')" stroke="none">newPrimitiveProperty(String, ODataPrimitiveValue) : ODataProperty</text>
      <line y2="331.0312" fill="none" x1="19" x2="434" y1="331.0312"/>
    </g>
    <g font-family="sans-serif" transform="matrix(0.6788,0,0,0.6788,5.4302,169.6935)">
      <text xml:space="preserve" x="-2" y="503.1543" onclick="umlload('http://www.yworks.com/')" stroke="none">yWorks UML Doclet</text>
    </g>
    <g stroke-miterlimit="1.45" transform="matrix(0.6788,0,0,0.6788,5.4302,169.6935)" stroke-linecap="butt">
      <path fill="none" d="M257.5 0.0043 L257.5 -69"/>
      <path fill="white" d="M257.5 -84 L251.5 -68 L263.5 -68 Z" stroke="none"/>
      <path fill="none" d="M257.5 -84 L251.5 -68 L263.5 -68 Z"/>
      <path fill="none" stroke-dasharray="6,2" d="M514.9903 11.5664 L581 11.5664"/>
      <line stroke-linecap="square" transform="matrix(1,0,0,1,581,11.5664)" fill="none" x1="0" x2="-14" y1="0" y2="-4" stroke-miterlimit="10"/>
      <line stroke-linecap="square" transform="matrix(1,0,0,1,581,11.5664)" fill="none" x1="0" x2="-14" y1="0" y2="4" stroke-miterlimit="10"/>
    </g>
    <g stroke-dasharray="6,2" stroke-miterlimit="1.45" transform="matrix(0.6788,0,0,0.6788,5.4302,169.6935)" stroke-linecap="butt">
      <path fill="none" d="M514.9729 44.6992 L581 44.6992"/>
      <line stroke-linecap="square" transform="matrix(1,0,0,1,581,44.6992)" fill="none" x1="0" x2="-14" y1="0" y2="-4" stroke-dasharray="none" stroke-miterlimit="10"/>
      <line stroke-linecap="square" transform="matrix(1,0,0,1,581,44.6992)" fill="none" x1="0" x2="-14" y1="0" y2="4" stroke-dasharray="none" stroke-miterlimit="10"/>
    </g>
    <g stroke-dasharray="6,2" stroke-miterlimit="1.45" transform="matrix(0.6788,0,0,0.6788,5.4302,169.6935)" stroke-linecap="butt">
      <path fill="none" d="M515.0344 77.832 L581 77.832"/>
      <line stroke-linecap="square" transform="matrix(1,0,0,1,581,77.832)" fill="none" x1="0" x2="-14" y1="0" y2="-4" stroke-dasharray="none" stroke-miterlimit="10"/>
      <line stroke-linecap="square" transform="matrix(1,0,0,1,581,77.832)" fill="none" x1="0" x2="-14" y1="0" y2="4" stroke-dasharray="none" stroke-miterlimit="10"/>
    </g>
    <g stroke-dasharray="6,2" stroke-miterlimit="1.45" transform="matrix(0.6788,0,0,0.6788,5.4302,169.6935)" stroke-linecap="butt">
      <path fill="none" d="M515.0095 110.9648 L581 110.9648"/>
      <line stroke-linecap="square" transform="matrix(1,0,0,1,581,110.9648)" fill="none" x1="0" x2="-14" y1="0" y2="-4" stroke-dasharray="none" stroke-miterlimit="10"/>
      <line stroke-linecap="square" transform="matrix(1,0,0,1,581,110.9648)" fill="none" x1="0" x2="-14" y1="0" y2="4" stroke-dasharray="none" stroke-miterlimit="10"/>
    </g>
    <g stroke-dasharray="6,2" stroke-miterlimit="1.45" transform="matrix(0.6788,0,0,0.6788,5.4302,169.6935)" stroke-linecap="butt">
      <path fill="none" d="M514.9908 144.0977 L581 144.0977"/>
      <line stroke-linecap="square" transform="matrix(1,0,0,1,581,144.0977)" fill="none" x1="0" x2="-14" y1="0" y2="-4" stroke-dasharray="none" stroke-miterlimit="10"/>
      <line stroke-linecap="square" transform="matrix(1,0,0,1,581,144.0977)" fill="none" x1="0" x2="-14" y1="0" y2="4" stroke-dasharray="none" stroke-miterlimit="10"/>
    </g>
    <g stroke-dasharray="6,2" stroke-miterlimit="1.45" transform="matrix(0.6788,0,0,0.6788,5.4302,169.6935)" stroke-linecap="butt">
      <path fill="none" d="M514.9729 177.2305 L581 177.2305"/>
      <line stroke-linecap="square" transform="matrix(1,0,0,1,581,177.2305)" fill="none" x1="0" x2="-14" y1="0" y2="-4" stroke-dasharray="none" stroke-miterlimit="10"/>
      <line stroke-linecap="square" transform="matrix(1,0,0,1,581,177.2305)" fill="none" x1="0" x2="-14" y1="0" y2="4" stroke-dasharray="none" stroke-miterlimit="10"/>
    </g>
    <g stroke-dasharray="6,2" stroke-miterlimit="1.45" transform="matrix(0.6788,0,0,0.6788,5.4302,169.6935)" stroke-linecap="butt">
      <path fill="none" d="M514.9752 210.3633 L581 210.3633"/>
      <line stroke-linecap="square" transform="matrix(1,0,0,1,581,210.3633)" fill="none" x1="0" x2="-14" y1="0" y2="-4" stroke-dasharray="none" stroke-miterlimit="10"/>
      <line stroke-linecap="square" transform="matrix(1,0,0,1,581,210.3633)" fill="none" x1="0" x2="-14" y1="0" y2="4" stroke-dasharray="none" stroke-miterlimit="10"/>
    </g>
    <g stroke-dasharray="6,2" stroke-miterlimit="1.45" transform="matrix(0.6788,0,0,0.6788,5.4302,169.6935)" stroke-linecap="butt">
      <path fill="none" d="M515.0027 243.4961 L581 243.4961"/>
      <line stroke-linecap="square" transform="matrix(1,0,0,1,581,243.4961)" fill="none" x1="0" x2="-14" y1="0" y2="-4" stroke-dasharray="none" stroke-miterlimit="10"/>
      <line stroke-linecap="square" transform="matrix(1,0,0,1,581,243.4961)" fill="none" x1="0" x2="-14" y1="0" y2="4" stroke-dasharray="none" stroke-miterlimit="10"/>
    </g>
    <g stroke-dasharray="6,2" stroke-miterlimit="1.45" transform="matrix(0.6788,0,0,0.6788,5.4302,169.6935)" stroke-linecap="butt">
      <path fill="none" d="M514.9778 276.6289 L581 276.6289"/>
      <line stroke-linecap="square" transform="matrix(1,0,0,1,581,276.6289)" fill="none" x1="0" x2="-14" y1="0" y2="-4" stroke-dasharray="none" stroke-miterlimit="10"/>
      <line stroke-linecap="square" transform="matrix(1,0,0,1,581,276.6289)" fill="none" x1="0" x2="-14" y1="0" y2="4" stroke-dasharray="none" stroke-miterlimit="10"/>
    </g>
    <g stroke-dasharray="6,2" stroke-miterlimit="1.45" transform="matrix(0.6788,0,0,0.6788,5.4302,169.6935)" stroke-linecap="butt">
      <path fill="none" d="M515.0362 363.7617 L581 363.7617"/>
      <line stroke-linecap="square" transform="matrix(1,0,0,1,581,363.7617)" fill="none" x1="0" x2="-14" y1="0" y2="-4" stroke-dasharray="none" stroke-miterlimit="10"/>
      <line stroke-linecap="square" transform="matrix(1,0,0,1,581,363.7617)" fill="none" x1="0" x2="-14" y1="0" y2="4" stroke-dasharray="none" stroke-miterlimit="10"/>
    </g>
    <g stroke-dasharray="6,2" stroke-miterlimit="1.45" transform="matrix(0.6788,0,0,0.6788,5.4302,169.6935)" stroke-linecap="butt">
      <path fill="none" d="M515.0166 450.8945 L581 450.8945"/>
      <line stroke-linecap="square" transform="matrix(1,0,0,1,581,450.8945)" fill="none" x1="0" x2="-14" y1="0" y2="-4" stroke-dasharray="none" stroke-miterlimit="10"/>
      <line stroke-linecap="square" transform="matrix(1,0,0,1,581,450.8945)" fill="none" x1="0" x2="-14" y1="0" y2="4" stroke-dasharray="none" stroke-miterlimit="10"/>
    </g>
  </g>
</svg>
