<?xml version="1.0" encoding="UTF-8"?><svg xmlns="http://www.w3.org/2000/svg" xmlns:xlink="http://www.w3.org/1999/xlink" fill-opacity="1" color-rendering="auto" color-interpolation="auto" stroke="black" text-rendering="auto" stroke-linecap="square" width="598" stroke-miterlimit="10" stroke-opacity="1" shape-rendering="auto" fill="black" stroke-dasharray="none" font-weight="normal" stroke-width="1" height="598" font-family="'Dialog'" font-style="normal" stroke-linejoin="miter" font-size="12" stroke-dashoffset="0" image-rendering="auto">
  <!--Generated by ySVG-->
  <defs id="genericDefs"/>
  <g>
    <defs id="defs1">
      <clipPath clipPathUnits="userSpaceOnUse" id="clipPath1">
        <path d="M0 0 L598 0 L598 598 L0 598 L0 0 Z"/>
      </clipPath>
      <clipPath clipPathUnits="userSpaceOnUse" id="clipPath2">
        <path d="M710.9515 614.2788 C710.9515 623.3127 688.7781 630.6362 661.4258 630.6362 C634.0734 630.6362 611.9 623.3127 611.9 614.2788 C611.9 605.2449 634.0734 597.9214 661.4258 597.9214 C688.7781 597.9214 710.9515 605.2449 710.9515 614.2788 Z"/>
      </clipPath>
      <clipPath clipPathUnits="userSpaceOnUse" id="clipPath3">
        <path d="M611.9 510.7886 L644.86 510.7886 L644.86 533.9214 L611.9 533.9214 L611.9 510.7886 Z"/>
      </clipPath>
      <clipPath clipPathUnits="userSpaceOnUse" id="clipPath4">
        <path d="M611.9 423.6558 L691.21 423.6558 L691.21 446.7886 L611.9 446.7886 L611.9 423.6558 Z"/>
      </clipPath>
      <clipPath clipPathUnits="userSpaceOnUse" id="clipPath5">
        <path d="M777.957 16.3574 C777.957 25.3913 740.7838 32.7147 694.9285 32.7147 C649.0731 32.7147 611.9 25.3913 611.9 16.3574 C611.9 7.3234 649.0731 0 694.9285 0 C740.7838 0 777.957 7.3234 777.957 16.3574 Z"/>
      </clipPath>
      <clipPath clipPathUnits="userSpaceOnUse" id="clipPath6">
        <path d="M775.0437 59.0721 C775.0437 68.106 738.5227 75.4295 693.4719 75.4295 C648.421 75.4295 611.9 68.106 611.9 59.0721 C611.9 50.0382 648.421 42.7147 693.4719 42.7147 C738.5227 42.7147 775.0437 50.0382 775.0437 59.0721 Z"/>
      </clipPath>
      <clipPath clipPathUnits="userSpaceOnUse" id="clipPath7">
        <path d="M871.1819 101.7868 C871.1819 110.8208 813.1397 118.1442 741.541 118.1442 C669.9423 118.1442 611.9 110.8208 611.9 101.7868 C611.9 92.7529 669.9423 85.4295 741.541 85.4295 C813.1397 85.4295 871.1819 92.7529 871.1819 101.7868 Z"/>
      </clipPath>
      <clipPath clipPathUnits="userSpaceOnUse" id="clipPath8">
        <path d="M611.9 128.1442 L710.78 128.1442 L710.78 151.277 L611.9 151.277 L611.9 128.1442 Z"/>
      </clipPath>
      <clipPath clipPathUnits="userSpaceOnUse" id="clipPath9">
        <path d="M611.9 161.277 L735.5 161.277 L735.5 184.4098 L611.9 184.4098 L611.9 161.277 Z"/>
      </clipPath>
      <clipPath clipPathUnits="userSpaceOnUse" id="clipPath10">
        <path d="M611.9 194.4098 L698.42 194.4098 L698.42 217.5426 L611.9 217.5426 L611.9 194.4098 Z"/>
      </clipPath>
      <clipPath clipPathUnits="userSpaceOnUse" id="clipPath11">
        <path d="M611.9 227.5426 L772.58 227.5426 L772.58 250.6755 L611.9 250.6755 L611.9 227.5426 Z"/>
      </clipPath>
      <clipPath clipPathUnits="userSpaceOnUse" id="clipPath12">
        <path d="M611.9 260.6755 L733.44 260.6755 L733.44 283.8083 L611.9 283.8083 L611.9 260.6755 Z"/>
      </clipPath>
      <clipPath clipPathUnits="userSpaceOnUse" id="clipPath13">
        <path d="M611.9 293.8083 L799.36 293.8083 L799.36 316.9411 L611.9 316.9411 L611.9 293.8083 Z"/>
      </clipPath>
      <clipPath clipPathUnits="userSpaceOnUse" id="clipPath14">
        <path d="M909.0546 343.2985 C909.0546 352.3324 842.5342 359.6558 760.4773 359.6558 C678.4203 359.6558 611.9 352.3324 611.9 343.2985 C611.9 334.2645 678.4203 326.9411 760.4773 326.9411 C842.5342 326.9411 909.0546 334.2645 909.0546 343.2985 Z"/>
      </clipPath>
      <clipPath clipPathUnits="userSpaceOnUse" id="clipPath15">
        <path d="M-66 16.3574 C-66 25.3913 -84.9126 32.7147 -108.2426 32.7147 C-131.5725 32.7147 -150.4851 25.3913 -150.4851 16.3574 C-150.4851 7.3234 -131.5725 0 -108.2426 0 C-84.9126 0 -66 7.3234 -66 16.3574 Z"/>
      </clipPath>
      <clipPath clipPathUnits="userSpaceOnUse" id="clipPath16">
        <path d="M244.11 -107.1328 L301.79 -107.1328 L301.79 -84 L244.11 -84 L244.11 -107.1328 Z"/>
      </clipPath>
      <clipPath clipPathUnits="userSpaceOnUse" id="clipPath17">
        <path d="M-0 0 L545.9 0 L545.9 638.6362 L-0 638.6362 L-0 0 Z"/>
      </clipPath>
      <script type="text/ecmascript"><![CDATA[
function umlload(newLocation)
{
if (newLocation.charAt(0) != '#') {
if (newLocation.indexOf("://") > -1) {
window.parent.location.href = newLocation;
} else {
var tmp = window.parent.location.href;
tmp = tmp.substring(0, tmp.lastIndexOf("/") + 1);
window.parent.location.href = tmp.concat(newLocation);
}
} else {
window.parent.location.hash = newLocation;
}
}
]]></script>
    </defs>
    <g fill="rgb(238,238,255)" transform="matrix(0.5552,0,0,0.5552,88.2841,146.585)" stroke="rgb(238,238,255)">
      <rect width="101.6028" x="603.9" height="17.9688" y="571.9214" stroke="none"/>
    </g>
    <g fill="rgb(166,166,178)" stroke-miterlimit="1.45" transform="matrix(0.5552,0,0,0.5552,88.2841,146.585)" stroke-linecap="butt" stroke="rgb(166,166,178)">
      <rect fill="none" width="101.6028" x="603.9" height="17.9688" y="571.9214"/>
    </g>
    <g fill="rgb(238,238,255)" transform="matrix(0.5552,0,0,0.5552,88.2841,146.585)" stroke="rgb(238,238,255)">
      <rect width="115.0515" x="603.9" height="48.746" y="589.8902" stroke="none"/>
    </g>
    <g fill="rgb(166,166,178)" stroke-miterlimit="1.45" transform="matrix(0.5552,0,0,0.5552,88.2841,146.585)" stroke-linecap="butt" stroke="rgb(166,166,178)">
      <rect fill="none" width="115.0515" x="603.9" height="48.746" y="589.8902"/>
    </g>
    <g font-family="sans-serif" transform="matrix(0.5552,0,0,0.5552,88.2841,146.585)">
      <text xml:space="preserve" x="609.9" y="585.0601" onclick="umlload('http://docs.oracle.com/javase/6/docs/api/org/w3c/dom/package-summary.html')" stroke="none">org.w3c.dom</text>
    </g>
    <g fill="rgb(221,221,255)" transform="matrix(0.5552,0,0,0.5552,88.2841,146.585)" stroke="rgb(221,221,255)">
      <rect x="611.9" y="597.9214" clip-path="url(#clipPath2)" width="99.0515" height="32.7147" stroke="none"/>
    </g>
    <g fill="rgb(154,154,178)" stroke-miterlimit="1.45" transform="matrix(0.5552,0,0,0.5552,88.2841,146.585)" stroke-linecap="butt" stroke="rgb(154,154,178)">
      <ellipse rx="49.5258" fill="none" ry="16.3574" cx="661.4258" cy="614.2788"/>
    </g>
    <g font-style="italic" font-size="13" font-weight="bold" font-family="sans-serif" transform="matrix(0.5552,0,0,0.5552,88.2841,146.585)">
      <text xml:space="preserve" x="631.4258" y="618.7793" onclick="umlload('http://docs.oracle.com/javase/6/docs/api/org/w3c/dom/Element.html')" stroke="none">Element</text>
    </g>
    <g fill="rgb(238,238,255)" transform="matrix(0.5552,0,0,0.5552,88.2841,146.585)" stroke="rgb(238,238,255)">
      <rect width="69.7758" x="603.9" height="17.9688" y="484.7886" stroke="none"/>
    </g>
    <g fill="rgb(166,166,178)" stroke-miterlimit="1.45" transform="matrix(0.5552,0,0,0.5552,88.2841,146.585)" stroke-linecap="butt" stroke="rgb(166,166,178)">
      <rect fill="none" width="69.7758" x="603.9" height="17.9688" y="484.7886"/>
    </g>
    <g fill="rgb(238,238,255)" transform="matrix(0.5552,0,0,0.5552,88.2841,146.585)" stroke="rgb(238,238,255)">
      <rect width="73.96" x="603.9" height="39.1641" y="502.7574" stroke="none"/>
    </g>
    <g fill="rgb(166,166,178)" stroke-miterlimit="1.45" transform="matrix(0.5552,0,0,0.5552,88.2841,146.585)" stroke-linecap="butt" stroke="rgb(166,166,178)">
      <rect fill="none" width="73.96" x="603.9" height="39.1641" y="502.7574"/>
    </g>
    <g font-family="sans-serif" transform="matrix(0.5552,0,0,0.5552,88.2841,146.585)">
      <text xml:space="preserve" x="609.9" y="497.9273" onclick="umlload('http://docs.oracle.com/javase/6/docs/api/java/net/package-summary.html')" stroke="none">java.net</text>
    </g>
    <g fill="rgb(187,187,255)" transform="matrix(0.5552,0,0,0.5552,88.2841,146.585)" stroke="rgb(187,187,255)">
      <rect x="611.9" y="510.7886" clip-path="url(#clipPath3)" width="32.96" height="23.1328" stroke="none"/>
    </g>
    <g fill="rgb(130,130,178)" stroke-miterlimit="1.45" transform="matrix(0.5552,0,0,0.5552,88.2841,146.585)" stroke-linecap="butt" stroke="rgb(130,130,178)">
      <rect fill="none" width="32.96" x="611.9" height="23.1328" y="510.7886"/>
    </g>
    <g font-size="13" font-weight="bold" font-family="sans-serif" transform="matrix(0.5552,0,0,0.5552,88.2841,146.585)">
      <text xml:space="preserve" x="616.38" y="526.8555" onclick="umlload('http://docs.oracle.com/javase/6/docs/api/java/net/URI.html')" stroke="none">URI</text>
    </g>
    <g fill="rgb(238,238,255)" transform="matrix(0.5552,0,0,0.5552,88.2841,146.585)" stroke="rgb(238,238,255)">
      <rect width="76.1412" x="603.9" height="17.9688" y="397.6558" stroke="none"/>
    </g>
    <g fill="rgb(166,166,178)" stroke-miterlimit="1.45" transform="matrix(0.5552,0,0,0.5552,88.2841,146.585)" stroke-linecap="butt" stroke="rgb(166,166,178)">
      <rect fill="none" width="76.1412" x="603.9" height="17.9688" y="397.6558"/>
    </g>
    <g fill="rgb(238,238,255)" transform="matrix(0.5552,0,0,0.5552,88.2841,146.585)" stroke="rgb(238,238,255)">
      <rect width="95.31" x="603.9" height="39.1641" y="415.6246" stroke="none"/>
    </g>
    <g fill="rgb(166,166,178)" stroke-miterlimit="1.45" transform="matrix(0.5552,0,0,0.5552,88.2841,146.585)" stroke-linecap="butt" stroke="rgb(166,166,178)">
      <rect fill="none" width="95.31" x="603.9" height="39.1641" y="415.6246"/>
    </g>
    <g font-family="sans-serif" transform="matrix(0.5552,0,0,0.5552,88.2841,146.585)">
      <text xml:space="preserve" x="609.9" y="410.7945" onclick="umlload('http://docs.oracle.com/javase/6/docs/api/java/lang/package-summary.html')" stroke="none">java.lang</text>
    </g>
    <g fill="rgb(187,187,255)" transform="matrix(0.5552,0,0,0.5552,88.2841,146.585)" stroke="rgb(187,187,255)">
      <rect x="611.9" y="423.6558" clip-path="url(#clipPath4)" width="79.31" height="23.1328" stroke="none"/>
    </g>
    <g fill="rgb(130,130,178)" stroke-miterlimit="1.45" transform="matrix(0.5552,0,0,0.5552,88.2841,146.585)" stroke-linecap="butt" stroke="rgb(130,130,178)">
      <rect fill="none" width="79.31" x="611.9" height="23.1328" y="423.6558"/>
    </g>
    <g font-size="13" font-weight="bold" font-family="sans-serif" transform="matrix(0.5552,0,0,0.5552,88.2841,146.585)">
      <text xml:space="preserve" x="617.055" y="439.7227" onclick="umlload('http://docs.oracle.com/javase/6/docs/api/java/lang/Class.html')" stroke="none">Class&lt;T&gt;</text>
    </g>
    <g fill="rgb(238,238,255)" transform="matrix(0.5552,0,0,0.5552,88.2841,146.585)" stroke="rgb(238,238,255)">
      <rect width="298.9302" x="603.9" height="17.9688" y="-26" stroke="none"/>
    </g>
    <g fill="rgb(166,166,178)" stroke-miterlimit="1.45" transform="matrix(0.5552,0,0,0.5552,88.2841,146.585)" stroke-linecap="butt" stroke="rgb(166,166,178)">
      <rect fill="none" width="298.9302" x="603.9" height="17.9688" y="-26"/>
    </g>
    <g fill="rgb(238,238,255)" transform="matrix(0.5552,0,0,0.5552,88.2841,146.585)" stroke="rgb(238,238,255)">
      <rect width="313.1546" x="603.9" height="375.6871" y="-8.0312" stroke="none"/>
    </g>
    <g fill="rgb(166,166,178)" stroke-miterlimit="1.45" transform="matrix(0.5552,0,0,0.5552,88.2841,146.585)" stroke-linecap="butt" stroke="rgb(166,166,178)">
      <rect fill="none" width="313.1546" x="603.9" height="375.6871" y="-8.0312"/>
    </g>
    <g font-family="sans-serif" transform="matrix(0.5552,0,0,0.5552,88.2841,146.585)">
      <text xml:space="preserve" x="609.9" y="-12.8613" onclick="umlload('../../../../../com/msopentech/odatajclient/engine/data/package-summary.html')" stroke="none">com.msopentech.odatajclient.engine.data</text>
    </g>
    <g fill="rgb(221,221,255)" transform="matrix(0.5552,0,0,0.5552,88.2841,146.585)" stroke="rgb(221,221,255)">
      <rect x="611.9" y="0" clip-path="url(#clipPath5)" width="166.057" height="32.7147" stroke="none"/>
    </g>
    <g fill="rgb(154,154,178)" stroke-miterlimit="1.45" transform="matrix(0.5552,0,0,0.5552,88.2841,146.585)" stroke-linecap="butt" stroke="rgb(154,154,178)">
      <ellipse rx="83.0285" fill="none" ry="16.3574" cx="694.9285" cy="16.3574"/>
    </g>
    <g font-style="italic" font-size="13" font-weight="bold" font-family="sans-serif" transform="matrix(0.5552,0,0,0.5552,88.2841,146.585)">
      <text xml:space="preserve" x="641.9285" y="20.8579" onclick="umlload('../../../../../com/msopentech/odatajclient/engine/data/EntryResource.html')" stroke="none">EntryResource</text>
    </g>
    <g fill="rgb(221,221,255)" transform="matrix(0.5552,0,0,0.5552,88.2841,146.585)" stroke="rgb(221,221,255)">
      <rect x="611.9" y="42.7147" clip-path="url(#clipPath6)" width="163.1437" height="32.7147" stroke="none"/>
    </g>
    <g fill="rgb(154,154,178)" stroke-miterlimit="1.45" transform="matrix(0.5552,0,0,0.5552,88.2841,146.585)" stroke-linecap="butt" stroke="rgb(154,154,178)">
      <ellipse rx="81.5718" fill="none" ry="16.3574" cx="693.4718" cy="59.0721"/>
    </g>
    <g font-style="italic" font-size="13" font-weight="bold" font-family="sans-serif" transform="matrix(0.5552,0,0,0.5552,88.2841,146.585)">
      <text xml:space="preserve" x="641.4719" y="63.5726" onclick="umlload('../../../../../com/msopentech/odatajclient/engine/data/FeedResource.html')" stroke="none">FeedResource</text>
    </g>
    <g fill="rgb(221,221,255)" transform="matrix(0.5552,0,0,0.5552,88.2841,146.585)" stroke="rgb(221,221,255)">
      <rect x="611.9" y="85.4295" clip-path="url(#clipPath7)" width="259.2819" height="32.7147" stroke="none"/>
    </g>
    <g fill="rgb(154,154,178)" stroke-miterlimit="1.45" transform="matrix(0.5552,0,0,0.5552,88.2841,146.585)" stroke-linecap="butt" stroke="rgb(154,154,178)">
      <ellipse rx="129.641" fill="none" ry="16.3574" cx="741.541" cy="101.7868"/>
    </g>
    <g font-style="italic" font-size="13" font-weight="bold" font-family="sans-serif" transform="matrix(0.5552,0,0,0.5552,88.2841,146.585)">
      <text xml:space="preserve" x="656.541" y="106.2873" onclick="umlload('../../../../../com/msopentech/odatajclient/engine/data/LinkCollectionResource.html')" stroke="none">LinkCollectionResource</text>
    </g>
    <g fill="rgb(187,187,255)" transform="matrix(0.5552,0,0,0.5552,88.2841,146.585)" stroke="rgb(187,187,255)">
      <rect x="611.9" y="128.1442" clip-path="url(#clipPath8)" width="98.88" height="23.1328" stroke="none"/>
    </g>
    <g fill="rgb(130,130,178)" stroke-miterlimit="1.45" transform="matrix(0.5552,0,0,0.5552,88.2841,146.585)" stroke-linecap="butt" stroke="rgb(130,130,178)">
      <rect fill="none" width="98.88" x="611.9" height="23.1328" y="128.1442"/>
    </g>
    <g font-size="13" font-weight="bold" font-family="sans-serif" transform="matrix(0.5552,0,0,0.5552,88.2841,146.585)">
      <text xml:space="preserve" x="617.34" y="144.2111" onclick="umlload('../../../../../com/msopentech/odatajclient/engine/data/ODataEntity.html')" stroke="none">ODataEntity</text>
    </g>
    <g fill="rgb(187,187,255)" transform="matrix(0.5552,0,0,0.5552,88.2841,146.585)" stroke="rgb(187,187,255)">
      <rect x="611.9" y="161.277" clip-path="url(#clipPath9)" width="123.6" height="23.1328" stroke="none"/>
    </g>
    <g fill="rgb(130,130,178)" stroke-miterlimit="1.45" transform="matrix(0.5552,0,0,0.5552,88.2841,146.585)" stroke-linecap="butt" stroke="rgb(130,130,178)">
      <rect fill="none" width="123.6" x="611.9" height="23.1328" y="161.277"/>
    </g>
    <g font-size="13" font-weight="bold" font-family="sans-serif" transform="matrix(0.5552,0,0,0.5552,88.2841,146.585)">
      <text xml:space="preserve" x="617.7" y="177.3439" onclick="umlload('../../../../../com/msopentech/odatajclient/engine/data/ODataEntitySet.html')" stroke="none">ODataEntitySet</text>
    </g>
    <g fill="rgb(187,187,255)" transform="matrix(0.5552,0,0,0.5552,88.2841,146.585)" stroke="rgb(187,187,255)">
      <rect x="611.9" y="194.4098" clip-path="url(#clipPath10)" width="86.52" height="23.1328" stroke="none"/>
    </g>
    <g fill="rgb(130,130,178)" stroke-miterlimit="1.45" transform="matrix(0.5552,0,0,0.5552,88.2841,146.585)" stroke-linecap="butt" stroke="rgb(130,130,178)">
      <rect fill="none" width="86.52" x="611.9" height="23.1328" y="194.4098"/>
    </g>
    <g font-size="13" font-weight="bold" font-family="sans-serif" transform="matrix(0.5552,0,0,0.5552,88.2841,146.585)">
      <text xml:space="preserve" x="617.16" y="210.4767" onclick="umlload('../../../../../com/msopentech/odatajclient/engine/data/ODataLink.html')" stroke="none">ODataLink</text>
    </g>
    <g fill="rgb(187,187,255)" transform="matrix(0.5552,0,0,0.5552,88.2841,146.585)" stroke="rgb(187,187,255)">
      <rect x="611.9" y="227.5426" clip-path="url(#clipPath11)" width="160.68" height="23.1328" stroke="none"/>
    </g>
    <g fill="rgb(130,130,178)" stroke-miterlimit="1.45" transform="matrix(0.5552,0,0,0.5552,88.2841,146.585)" stroke-linecap="butt" stroke="rgb(130,130,178)">
      <rect fill="none" width="160.68" x="611.9" height="23.1328" y="227.5426"/>
    </g>
    <g font-size="13" font-weight="bold" font-family="sans-serif" transform="matrix(0.5552,0,0,0.5552,88.2841,146.585)">
      <text xml:space="preserve" x="618.24" y="243.6095" onclick="umlload('../../../../../com/msopentech/odatajclient/engine/data/ODataLinkCollection.html')" stroke="none">ODataLinkCollection</text>
    </g>
    <g fill="rgb(187,187,255)" transform="matrix(0.5552,0,0,0.5552,88.2841,146.585)" stroke="rgb(187,187,255)">
      <rect x="611.9" y="260.6755" clip-path="url(#clipPath12)" width="121.54" height="23.1328" stroke="none"/>
    </g>
    <g fill="rgb(130,130,178)" stroke-miterlimit="1.45" transform="matrix(0.5552,0,0,0.5552,88.2841,146.585)" stroke-linecap="butt" stroke="rgb(130,130,178)">
      <rect fill="none" width="121.54" x="611.9" height="23.1328" y="260.6755"/>
    </g>
    <g font-size="13" font-weight="bold" font-family="sans-serif" transform="matrix(0.5552,0,0,0.5552,88.2841,146.585)">
      <text xml:space="preserve" x="617.67" y="276.7424" onclick="umlload('../../../../../com/msopentech/odatajclient/engine/data/ODataProperty.html')" stroke="none">ODataProperty</text>
    </g>
    <g fill="rgb(187,187,255)" transform="matrix(0.5552,0,0,0.5552,88.2841,146.585)" stroke="rgb(187,187,255)">
      <rect x="611.9" y="293.8083" clip-path="url(#clipPath13)" width="187.46" height="23.1328" stroke="none"/>
    </g>
    <g fill="rgb(130,130,178)" stroke-miterlimit="1.45" transform="matrix(0.5552,0,0,0.5552,88.2841,146.585)" stroke-linecap="butt" stroke="rgb(130,130,178)">
      <rect fill="none" width="187.46" x="611.9" height="23.1328" y="293.8083"/>
    </g>
    <g font-size="13" font-weight="bold" font-family="sans-serif" transform="matrix(0.5552,0,0,0.5552,88.2841,146.585)">
      <text xml:space="preserve" x="618.63" y="309.8752" onclick="umlload('../../../../../com/msopentech/odatajclient/engine/data/ODataServiceDocument.html')" stroke="none">ODataServiceDocument</text>
    </g>
    <g fill="rgb(221,221,255)" transform="matrix(0.5552,0,0,0.5552,88.2841,146.585)" stroke="rgb(221,221,255)">
      <rect x="611.9" y="326.9411" clip-path="url(#clipPath14)" width="297.1546" height="32.7147" stroke="none"/>
    </g>
    <g fill="rgb(154,154,178)" stroke-miterlimit="1.45" transform="matrix(0.5552,0,0,0.5552,88.2841,146.585)" stroke-linecap="butt" stroke="rgb(154,154,178)">
      <ellipse rx="148.5773" fill="none" ry="16.3574" cx="760.4773" cy="343.2985"/>
    </g>
    <g font-style="italic" font-size="13" font-weight="bold" font-family="sans-serif" transform="matrix(0.5552,0,0,0.5552,88.2841,146.585)">
      <text xml:space="preserve" x="662.4773" y="347.799" onclick="umlload('../../../../../com/msopentech/odatajclient/engine/data/ServiceDocumentResource.html')" stroke="none">ServiceDocumentResource</text>
    </g>
    <g fill="rgb(238,238,255)" transform="matrix(0.5552,0,0,0.5552,88.2841,146.585)" stroke="rgb(238,238,255)">
      <rect width="69.7758" x="-158.4851" height="17.9688" y="-26" stroke="none"/>
    </g>
    <g fill="rgb(166,166,178)" stroke-miterlimit="1.45" transform="matrix(0.5552,0,0,0.5552,88.2841,146.585)" stroke-linecap="butt" stroke="rgb(166,166,178)">
      <rect fill="none" width="69.7758" x="-158.4851" height="17.9688" y="-26"/>
    </g>
    <g fill="rgb(238,238,255)" transform="matrix(0.5552,0,0,0.5552,88.2841,146.585)" stroke="rgb(238,238,255)">
      <rect width="100.4851" x="-158.4851" height="48.746" y="-8.0312" stroke="none"/>
    </g>
    <g fill="rgb(166,166,178)" stroke-miterlimit="1.45" transform="matrix(0.5552,0,0,0.5552,88.2841,146.585)" stroke-linecap="butt" stroke="rgb(166,166,178)">
      <rect fill="none" width="100.4851" x="-158.4851" height="48.746" y="-8.0312"/>
    </g>
    <g font-family="sans-serif" transform="matrix(0.5552,0,0,0.5552,88.2841,146.585)">
      <text xml:space="preserve" x="-152.4851" y="-12.8613" stroke="none">org.slf4j</text>
    </g>
    <g fill="rgb(221,221,255)" transform="matrix(0.5552,0,0,0.5552,88.2841,146.585)" stroke="rgb(221,221,255)">
      <rect x="-150.4851" y="0" clip-path="url(#clipPath15)" width="84.4851" height="32.7147" stroke="none"/>
    </g>
    <g fill="rgb(154,154,178)" stroke-miterlimit="1.45" transform="matrix(0.5552,0,0,0.5552,88.2841,146.585)" stroke-linecap="butt" stroke="rgb(154,154,178)">
      <ellipse rx="42.2426" fill="none" ry="16.3574" cx="-108.2426" cy="16.3574"/>
    </g>
    <g font-style="italic" font-size="13" font-weight="bold" font-family="sans-serif" transform="matrix(0.5552,0,0,0.5552,88.2841,146.585)">
      <text xml:space="preserve" x="-133.2426" y="20.8579" stroke="none">Logger</text>
    </g>
    <g fill="rgb(238,238,255)" transform="matrix(0.5552,0,0,0.5552,88.2841,146.585)" stroke="rgb(238,238,255)">
      <rect width="76.1412" x="236.11" height="17.9688" y="-133.1328" stroke="none"/>
    </g>
    <g fill="rgb(166,166,178)" stroke-miterlimit="1.45" transform="matrix(0.5552,0,0,0.5552,88.2841,146.585)" stroke-linecap="butt" stroke="rgb(166,166,178)">
      <rect fill="none" width="76.1412" x="236.11" height="17.9688" y="-133.1328"/>
    </g>
    <g fill="rgb(238,238,255)" transform="matrix(0.5552,0,0,0.5552,88.2841,146.585)" stroke="rgb(238,238,255)">
      <rect width="76.1412" x="236.11" height="39.1641" y="-115.1641" stroke="none"/>
    </g>
    <g fill="rgb(166,166,178)" stroke-miterlimit="1.45" transform="matrix(0.5552,0,0,0.5552,88.2841,146.585)" stroke-linecap="butt" stroke="rgb(166,166,178)">
      <rect fill="none" width="76.1412" x="236.11" height="39.1641" y="-115.1641"/>
    </g>
    <g font-family="sans-serif" transform="matrix(0.5552,0,0,0.5552,88.2841,146.585)">
      <text xml:space="preserve" x="242.11" y="-119.9941" onclick="umlload('http://docs.oracle.com/javase/6/docs/api/java/lang/package-summary.html')" stroke="none">java.lang</text>
    </g>
    <g fill="rgb(187,187,255)" transform="matrix(0.5552,0,0,0.5552,88.2841,146.585)" stroke="rgb(187,187,255)">
      <rect x="244.11" y="-107.1328" clip-path="url(#clipPath16)" width="57.68" height="23.1328" stroke="none"/>
    </g>
    <g fill="rgb(130,130,178)" stroke-miterlimit="1.45" transform="matrix(0.5552,0,0,0.5552,88.2841,146.585)" stroke-linecap="butt" stroke="rgb(130,130,178)">
      <rect fill="none" width="57.68" x="244.11" height="23.1328" y="-107.1328"/>
    </g>
    <g font-size="13" font-weight="bold" font-family="sans-serif" transform="matrix(0.5552,0,0,0.5552,88.2841,146.585)">
      <text xml:space="preserve" x="248.95" y="-91.0659" onclick="umlload('http://docs.oracle.com/javase/6/docs/api/java/lang/Object.html')" stroke="none">Object</text>
    </g>
    <g fill="rgb(238,238,255)" transform="matrix(0.5552,0,0,0.5552,88.2841,146.585)" stroke="rgb(238,238,255)">
      <rect width="298.9302" x="-8" height="17.9688" y="-26" stroke="none"/>
    </g>
    <g fill="rgb(166,166,178)" stroke-miterlimit="1.45" transform="matrix(0.5552,0,0,0.5552,88.2841,146.585)" stroke-linecap="butt" stroke="rgb(166,166,178)">
      <rect fill="none" width="298.9302" x="-8" height="17.9688" y="-26"/>
    </g>
    <g fill="rgb(238,238,255)" transform="matrix(0.5552,0,0,0.5552,88.2841,146.585)" stroke="rgb(238,238,255)">
      <rect width="561.9" x="-8" height="654.6674" y="-8.0312" stroke="none"/>
    </g>
    <g fill="rgb(166,166,178)" stroke-miterlimit="1.45" transform="matrix(0.5552,0,0,0.5552,88.2841,146.585)" stroke-linecap="butt" stroke="rgb(166,166,178)">
      <rect fill="none" width="561.9" x="-8" height="654.6674" y="-8.0312"/>
    </g>
    <g font-family="sans-serif" transform="matrix(0.5552,0,0,0.5552,88.2841,146.585)">
      <text xml:space="preserve" x="-2" y="-12.8613" onclick="umlload('package-summary.html')" stroke="none">com.msopentech.odatajclient.engine.data</text>
    </g>
    <g fill="rgb(187,187,255)" transform="matrix(0.5552,0,0,0.5552,88.2841,146.585)" stroke="rgb(187,187,255)">
      <rect x="0" y="0" clip-path="url(#clipPath17)" width="545.9" height="26.625" stroke="none"/>
      <line clip-path="url(#clipPath17)" fill="none" x1="0" x2="545.9" y1="26.625" y2="26.625" stroke="black"/>
      <line clip-path="url(#clipPath17)" x1="0" x2="545.9" y1="27.625" y2="27.625" stroke="none"/>
      <line clip-path="url(#clipPath17)" fill="none" x1="0" x2="545.9" y1="27.625" y2="27.625" stroke="black"/>
      <rect x="0" y="28.625" clip-path="url(#clipPath17)" width="545.9" height="610.0112" stroke="none"/>
    </g>
    <g fill="rgb(130,130,178)" stroke-miterlimit="1.45" transform="matrix(0.5552,0,0,0.5552,88.2841,146.585)" stroke-linecap="butt" stroke="rgb(130,130,178)">
      <rect fill="none" width="545.9" x="0" height="638.6362" y="0"/>
    </g>
    <g font-size="16" font-weight="bold" font-family="sans-serif" transform="matrix(0.5552,0,0,0.5552,88.2841,146.585)">
      <text xml:space="preserve" x="216.95" y="18.8516" onclick="umlload('#')" stroke="none">ODataBinder</text>
    </g>
    <g font-family="sans-serif" transform="matrix(0.5552,0,0,0.5552,88.2841,146.585)">
      <text xml:space="preserve" x="4" y="39.1719" stroke="none">+</text>
      <text xml:space="preserve" x="19" y="40.7637" onclick="umlload('#getEntry(com.msopentech.odatajclient.engine.data.ODataEntity, java.lang.Class)')" stroke="none">getEntry(ODataEntity, Class&lt;T&gt;) : &lt;T extends EntryResource&gt; T</text>
      <line y2="43.5938" fill="none" x1="19" x2="423" y1="43.5938"/>
    </g>
    <g font-family="sans-serif" transform="matrix(0.5552,0,0,0.5552,88.2841,146.585)">
      <text xml:space="preserve" x="4" y="55.1719" stroke="none">+</text>
      <text xml:space="preserve" x="19" y="56.7324" onclick="umlload('#getEntry(com.msopentech.odatajclient.engine.data.ODataEntity, java.lang.Class, boolean)')" stroke="none">getEntry(ODataEntity, Class&lt;T&gt;, boolean) : &lt;T extends EntryResource&gt; T</text>
      <line y2="59.5625" fill="none" x1="19" x2="482" y1="59.5625"/>
    </g>
    <g font-family="sans-serif" transform="matrix(0.5552,0,0,0.5552,88.2841,146.585)">
      <text xml:space="preserve" x="4" y="71.1719" stroke="none">+</text>
      <text xml:space="preserve" x="19" y="72.7012" onclick="umlload('#getFeed(com.msopentech.odatajclient.engine.data.ODataEntitySet, java.lang.Class)')" stroke="none">getFeed(ODataEntitySet, Class&lt;T&gt;) : &lt;T extends FeedResource&gt; T</text>
      <line y2="75.5312" fill="none" x1="19" x2="442" y1="75.5312"/>
    </g>
    <g font-family="sans-serif" transform="matrix(0.5552,0,0,0.5552,88.2841,146.585)">
      <text xml:space="preserve" x="4" y="87.1719" stroke="none">+</text>
      <text xml:space="preserve" x="19" y="88.6699" onclick="umlload('#getLinkCollection(com.msopentech.odatajclient.engine.data.LinkCollectionResource)')" stroke="none">getLinkCollection(LinkCollectionResource) : ODataLinkCollection</text>
      <line y2="91.5" fill="none" x1="19" x2="415" y1="91.5"/>
    </g>
    <g font-family="sans-serif" transform="matrix(0.5552,0,0,0.5552,88.2841,146.585)">
      <text xml:space="preserve" x="4" y="103.1719" stroke="none">+</text>
      <text xml:space="preserve" x="19" y="104.6387" onclick="umlload('#getLinkResource(com.msopentech.odatajclient.engine.data.ODataLink, java.lang.Class)')" stroke="none">getLinkResource(ODataLink, Class&lt;T&gt;) : &lt;T extends LinkResource&gt; T</text>
      <line y2="107.4688" fill="none" x1="19" x2="455" y1="107.4688"/>
    </g>
    <g font-family="sans-serif" transform="matrix(0.5552,0,0,0.5552,88.2841,146.585)">
      <text xml:space="preserve" x="4" y="119.1719" stroke="none">+</text>
      <text xml:space="preserve" x="19" y="120.6074" onclick="umlload('#getODataEntity(com.msopentech.odatajclient.engine.data.EntryResource)')" stroke="none">getODataEntity(EntryResource) : ODataEntity</text>
      <line y2="123.4375" fill="none" x1="19" x2="301" y1="123.4375"/>
    </g>
    <g font-family="sans-serif" transform="matrix(0.5552,0,0,0.5552,88.2841,146.585)">
      <text xml:space="preserve" x="4" y="135.1719" stroke="none">+</text>
      <text xml:space="preserve" x="19" y="136.5762" onclick="umlload('#getODataEntity(com.msopentech.odatajclient.engine.data.EntryResource, java.net.URI)')" stroke="none">getODataEntity(EntryResource, URI) : ODataEntity</text>
      <line y2="139.4062" fill="none" x1="19" x2="329" y1="139.4062"/>
    </g>
    <g font-family="sans-serif" transform="matrix(0.5552,0,0,0.5552,88.2841,146.585)">
      <text xml:space="preserve" x="4" y="151.1719" stroke="none">+</text>
      <text xml:space="preserve" x="19" y="152.5449" onclick="umlload('#getODataEntitySet(com.msopentech.odatajclient.engine.data.FeedResource)')" stroke="none">getODataEntitySet(FeedResource) : ODataEntitySet</text>
      <line y2="155.375" fill="none" x1="19" x2="342" y1="155.375"/>
    </g>
    <g font-family="sans-serif" transform="matrix(0.5552,0,0,0.5552,88.2841,146.585)">
      <text xml:space="preserve" x="4" y="167.1719" stroke="none">+</text>
      <text xml:space="preserve" x="19" y="168.5137" onclick="umlload('#getODataEntitySet(com.msopentech.odatajclient.engine.data.FeedResource, java.net.URI)')" stroke="none">getODataEntitySet(FeedResource, URI) : ODataEntitySet</text>
      <line y2="171.3438" fill="none" x1="19" x2="370" y1="171.3438"/>
    </g>
    <g font-family="sans-serif" transform="matrix(0.5552,0,0,0.5552,88.2841,146.585)">
      <text xml:space="preserve" x="4" y="183.1719" stroke="none">+</text>
      <text xml:space="preserve" x="19" y="184.4824" onclick="umlload('#getODataServiceDocument(com.msopentech.odatajclient.engine.data.ServiceDocumentResource)')" stroke="none">getODataServiceDocument(ServiceDocumentResource) : ODataServiceDocument</text>
      <line y2="187.3125" fill="none" x1="19" x2="526" y1="187.3125"/>
    </g>
    <g font-family="sans-serif" transform="matrix(0.5552,0,0,0.5552,88.2841,146.585)">
      <text xml:space="preserve" x="4" y="199.1719" stroke="none">+</text>
      <text xml:space="preserve" x="19" y="200.4512" onclick="umlload('#getProperty(org.w3c.dom.Element)')" stroke="none">getProperty(Element) : ODataProperty</text>
      <line y2="203.2812" fill="none" x1="19" x2="258" y1="203.2812"/>
    </g>
    <g font-family="sans-serif" transform="matrix(0.5552,0,0,0.5552,88.2841,146.585)">
      <text xml:space="preserve" x="4" y="215.1719" stroke="none">+</text>
      <text xml:space="preserve" x="19" y="216.4199" onclick="umlload('#toDOMElement(com.msopentech.odatajclient.engine.data.ODataProperty)')" stroke="none">toDOMElement(ODataProperty) : Element</text>
      <line y2="219.25" fill="none" x1="19" x2="276" y1="219.25"/>
    </g>
    <g font-family="sans-serif" transform="matrix(0.5552,0,0,0.5552,88.2841,146.585)">
      <text xml:space="preserve" x="-153" y="671.1543" onclick="umlload('http://www.yworks.com/')" stroke="none">yWorks UML Doclet</text>
    </g>
    <g stroke-miterlimit="1.45" transform="matrix(0.5552,0,0,0.5552,88.2841,146.585)" stroke-linecap="butt">
      <path fill="none" d="M272.95 0.0228 L272.95 -69"/>
      <path fill="white" d="M272.95 -84 L266.95 -68 L278.95 -68 Z" stroke="none"/>
      <path fill="none" d="M272.95 -84 L266.95 -68 L278.95 -68 Z"/>
      <path fill="none" d="M0.0381 16.3574 L-66 16.3574"/>
      <line stroke-linecap="square" transform="matrix(-1,0,0,-1,-66,16.3574)" fill="none" x1="0" x2="-14" y1="0" y2="-4" stroke-miterlimit="10"/>
      <line stroke-linecap="square" transform="matrix(-1,0,0,-1,-66,16.3574)" fill="none" x1="0" x2="-14" y1="0" y2="4" stroke-miterlimit="10"/>
    </g>
    <g stroke-dasharray="6,2" stroke-miterlimit="1.45" transform="matrix(0.5552,0,0,0.5552,88.2841,146.585)" stroke-linecap="butt">
      <path fill="none" d="M545.8813 16.3574 L611.9 16.3574"/>
      <line stroke-linecap="square" transform="matrix(1,0,0,1,611.9,16.3574)" fill="none" x1="0" x2="-14" y1="0" y2="-4" stroke-dasharray="none" stroke-miterlimit="10"/>
      <line stroke-linecap="square" transform="matrix(1,0,0,1,611.9,16.3574)" fill="none" x1="0" x2="-14" y1="0" y2="4" stroke-dasharray="none" stroke-miterlimit="10"/>
    </g>
    <g stroke-dasharray="6,2" stroke-miterlimit="1.45" transform="matrix(0.5552,0,0,0.5552,88.2841,146.585)" stroke-linecap="butt">
      <path fill="none" d="M545.9145 59.0721 L611.9 59.0721"/>
      <line stroke-linecap="square" transform="matrix(1,0,0,1,611.9,59.0721)" fill="none" x1="0" x2="-14" y1="0" y2="-4" stroke-dasharray="none" stroke-miterlimit="10"/>
      <line stroke-linecap="square" transform="matrix(1,0,0,1,611.9,59.0721)" fill="none" x1="0" x2="-14" y1="0" y2="4" stroke-dasharray="none" stroke-miterlimit="10"/>
    </g>
    <g stroke-dasharray="6,2" stroke-miterlimit="1.45" transform="matrix(0.5552,0,0,0.5552,88.2841,146.585)" stroke-linecap="butt">
      <path fill="none" d="M545.8848 101.7868 L611.9 101.7868"/>
      <line stroke-linecap="square" transform="matrix(1,0,0,1,611.9,101.7868)" fill="none" x1="0" x2="-14" y1="0" y2="-4" stroke-dasharray="none" stroke-miterlimit="10"/>
      <line stroke-linecap="square" transform="matrix(1,0,0,1,611.9,101.7868)" fill="none" x1="0" x2="-14" y1="0" y2="4" stroke-dasharray="none" stroke-miterlimit="10"/>
    </g>
    <g stroke-dasharray="6,2" stroke-miterlimit="1.45" transform="matrix(0.5552,0,0,0.5552,88.2841,146.585)" stroke-linecap="butt">
      <path fill="none" d="M545.8945 139.7106 L611.9 139.7106"/>
      <line stroke-linecap="square" transform="matrix(1,0,0,1,611.9,139.7106)" fill="none" x1="0" x2="-14" y1="0" y2="-4" stroke-dasharray="none" stroke-miterlimit="10"/>
      <line stroke-linecap="square" transform="matrix(1,0,0,1,611.9,139.7106)" fill="none" x1="0" x2="-14" y1="0" y2="4" stroke-dasharray="none" stroke-miterlimit="10"/>
    </g>
    <g stroke-dasharray="6,2" stroke-miterlimit="1.45" transform="matrix(0.5552,0,0,0.5552,88.2841,146.585)" stroke-linecap="butt">
      <path fill="none" d="M545.8729 172.8434 L611.9 172.8434"/>
      <line stroke-linecap="square" transform="matrix(1,0,0,1,611.9,172.8434)" fill="none" x1="0" x2="-14" y1="0" y2="-4" stroke-dasharray="none" stroke-miterlimit="10"/>
      <line stroke-linecap="square" transform="matrix(1,0,0,1,611.9,172.8434)" fill="none" x1="0" x2="-14" y1="0" y2="4" stroke-dasharray="none" stroke-miterlimit="10"/>
    </g>
    <g stroke-dasharray="6,2" stroke-miterlimit="1.45" transform="matrix(0.5552,0,0,0.5552,88.2841,146.585)" stroke-linecap="butt">
      <path fill="none" d="M545.9371 205.9762 L611.9 205.9762"/>
      <line stroke-linecap="square" transform="matrix(1,0,0,1,611.9,205.9762)" fill="none" x1="0" x2="-14" y1="0" y2="-4" stroke-dasharray="none" stroke-miterlimit="10"/>
      <line stroke-linecap="square" transform="matrix(1,0,0,1,611.9,205.9762)" fill="none" x1="0" x2="-14" y1="0" y2="4" stroke-dasharray="none" stroke-miterlimit="10"/>
    </g>
    <g stroke-dasharray="6,2" stroke-miterlimit="1.45" transform="matrix(0.5552,0,0,0.5552,88.2841,146.585)" stroke-linecap="butt">
      <path fill="none" d="M545.8826 239.1091 L611.9 239.1091"/>
      <line stroke-linecap="square" transform="matrix(1,0,0,1,611.9,239.1091)" fill="none" x1="0" x2="-14" y1="0" y2="-4" stroke-dasharray="none" stroke-miterlimit="10"/>
      <line stroke-linecap="square" transform="matrix(1,0,0,1,611.9,239.1091)" fill="none" x1="0" x2="-14" y1="0" y2="4" stroke-dasharray="none" stroke-miterlimit="10"/>
    </g>
    <g stroke-dasharray="6,2" stroke-miterlimit="1.45" transform="matrix(0.5552,0,0,0.5552,88.2841,146.585)" stroke-linecap="butt">
      <path fill="none" d="M545.8546 272.2419 L611.9 272.2419"/>
      <line stroke-linecap="square" transform="matrix(1,0,0,1,611.9,272.2419)" fill="none" x1="0" x2="-14" y1="0" y2="-4" stroke-dasharray="none" stroke-miterlimit="10"/>
      <line stroke-linecap="square" transform="matrix(1,0,0,1,611.9,272.2419)" fill="none" x1="0" x2="-14" y1="0" y2="4" stroke-dasharray="none" stroke-miterlimit="10"/>
    </g>
    <g stroke-dasharray="6,2" stroke-miterlimit="1.45" transform="matrix(0.5552,0,0,0.5552,88.2841,146.585)" stroke-linecap="butt">
      <path fill="none" d="M545.8839 305.3747 L611.9 305.3747"/>
      <line stroke-linecap="square" transform="matrix(1,0,0,1,611.9,305.3747)" fill="none" x1="0" x2="-14" y1="0" y2="-4" stroke-dasharray="none" stroke-miterlimit="10"/>
      <line stroke-linecap="square" transform="matrix(1,0,0,1,611.9,305.3747)" fill="none" x1="0" x2="-14" y1="0" y2="4" stroke-dasharray="none" stroke-miterlimit="10"/>
    </g>
    <g stroke-dasharray="6,2" stroke-miterlimit="1.45" transform="matrix(0.5552,0,0,0.5552,88.2841,146.585)" stroke-linecap="butt">
      <path fill="none" d="M545.9046 343.2985 L611.9 343.2985"/>
      <line stroke-linecap="square" transform="matrix(1,0,0,1,611.9,343.2985)" fill="none" x1="0" x2="-14" y1="0" y2="-4" stroke-dasharray="none" stroke-miterlimit="10"/>
      <line stroke-linecap="square" transform="matrix(1,0,0,1,611.9,343.2985)" fill="none" x1="0" x2="-14" y1="0" y2="4" stroke-dasharray="none" stroke-miterlimit="10"/>
    </g>
    <g stroke-dasharray="6,2" stroke-miterlimit="1.45" transform="matrix(0.5552,0,0,0.5552,88.2841,146.585)" stroke-linecap="butt">
      <path fill="none" d="M545.858 435.2222 L611.9 435.2222"/>
      <line stroke-linecap="square" transform="matrix(1,0,0,1,611.9,435.2222)" fill="none" x1="0" x2="-14" y1="0" y2="-4" stroke-dasharray="none" stroke-miterlimit="10"/>
      <line stroke-linecap="square" transform="matrix(1,0,0,1,611.9,435.2222)" fill="none" x1="0" x2="-14" y1="0" y2="4" stroke-dasharray="none" stroke-miterlimit="10"/>
    </g>
    <g stroke-dasharray="6,2" stroke-miterlimit="1.45" transform="matrix(0.5552,0,0,0.5552,88.2841,146.585)" stroke-linecap="butt">
      <path fill="none" d="M545.9005 522.355 L611.9 522.355"/>
      <line stroke-linecap="square" transform="matrix(1,0,0,1,611.9,522.355)" fill="none" x1="0" x2="-14" y1="0" y2="-4" stroke-dasharray="none" stroke-miterlimit="10"/>
      <line stroke-linecap="square" transform="matrix(1,0,0,1,611.9,522.355)" fill="none" x1="0" x2="-14" y1="0" y2="4" stroke-dasharray="none" stroke-miterlimit="10"/>
    </g>
    <g stroke-dasharray="6,2" stroke-miterlimit="1.45" transform="matrix(0.5552,0,0,0.5552,88.2841,146.585)" stroke-linecap="butt">
      <path fill="none" d="M545.8599 614.2788 L611.9 614.2788"/>
      <line stroke-linecap="square" transform="matrix(1,0,0,1,611.9,614.2788)" fill="none" x1="0" x2="-14" y1="0" y2="-4" stroke-dasharray="none" stroke-miterlimit="10"/>
      <line stroke-linecap="square" transform="matrix(1,0,0,1,611.9,614.2788)" fill="none" x1="0" x2="-14" y1="0" y2="4" stroke-dasharray="none" stroke-miterlimit="10"/>
    </g>
  </g>
</svg>
