<?xml version="1.0" encoding="UTF-8"?><svg xmlns="http://www.w3.org/2000/svg" xmlns:xlink="http://www.w3.org/1999/xlink" fill-opacity="1" color-rendering="auto" color-interpolation="auto" stroke="black" text-rendering="auto" stroke-linecap="square" width="598" stroke-miterlimit="10" stroke-opacity="1" shape-rendering="auto" fill="black" stroke-dasharray="none" font-weight="normal" stroke-width="1" height="598" font-family="'Dialog'" font-style="normal" stroke-linejoin="miter" font-size="12" stroke-dashoffset="0" image-rendering="auto">
  <!--Generated by ySVG-->
  <defs id="genericDefs"/>
  <g>
    <defs id="defs1">
      <clipPath clipPathUnits="userSpaceOnUse" id="clipPath1">
        <path d="M0 0 L598 0 L598 598 L0 598 L0 0 Z"/>
      </clipPath>
      <clipPath clipPathUnits="userSpaceOnUse" id="clipPath2">
        <path d="M-130.04 87.1328 L-72.36 87.1328 L-72.36 110.2656 L-130.04 110.2656 L-130.04 87.1328 Z"/>
      </clipPath>
      <clipPath clipPathUnits="userSpaceOnUse" id="clipPath3">
        <path d="M-130.04 120.2656 L-76.48 120.2656 L-76.48 143.3984 L-130.04 143.3984 L-130.04 120.2656 Z"/>
      </clipPath>
      <clipPath clipPathUnits="userSpaceOnUse" id="clipPath4">
        <path d="M-445.22 -0 L-315.44 -0 L-315.44 23.1328 L-445.22 23.1328 L-445.22 -0 Z"/>
      </clipPath>
      <clipPath clipPathUnits="userSpaceOnUse" id="clipPath5">
        <path d="M47.895 -107.1328 L145.745 -107.1328 L145.745 -84 L47.895 -84 L47.895 -107.1328 Z"/>
      </clipPath>
      <clipPath clipPathUnits="userSpaceOnUse" id="clipPath6">
        <path d="M-0 -0 L193.64 -0 L193.64 151.3984 L-0 151.3984 L-0 -0 Z"/>
      </clipPath>
      <script type="text/ecmascript"><![CDATA[
function umlload(newLocation)
{
if (newLocation.charAt(0) != '#') {
if (newLocation.indexOf("://") > -1) {
window.parent.location.href = newLocation;
} else {
var tmp = window.parent.location.href;
tmp = tmp.substring(0, tmp.lastIndexOf("/") + 1);
window.parent.location.href = tmp.concat(newLocation);
}
} else {
window.parent.location.hash = newLocation;
}
}
]]></script>
    </defs>
    <g fill="rgb(238,238,255)" transform="matrix(0.8027,0,0,0.8027,364.4188,274.5181)" stroke="rgb(238,238,255)">
      <rect width="76.1412" x="-138.04" height="17.9688" y="61.1328" stroke="none"/>
    </g>
    <g fill="rgb(166,166,178)" stroke-miterlimit="1.45" transform="matrix(0.8027,0,0,0.8027,364.4188,274.5181)" stroke-linecap="butt" stroke="rgb(166,166,178)">
      <rect fill="none" width="76.1412" x="-138.04" height="17.9688" y="61.1328"/>
    </g>
    <g fill="rgb(238,238,255)" transform="matrix(0.8027,0,0,0.8027,364.4188,274.5181)" stroke="rgb(238,238,255)">
      <rect width="79.68" x="-138.04" height="72.2969" y="79.1016" stroke="none"/>
    </g>
    <g fill="rgb(166,166,178)" stroke-miterlimit="1.45" transform="matrix(0.8027,0,0,0.8027,364.4188,274.5181)" stroke-linecap="butt" stroke="rgb(166,166,178)">
      <rect fill="none" width="79.68" x="-138.04" height="72.2969" y="79.1016"/>
    </g>
    <g font-family="sans-serif" transform="matrix(0.8027,0,0,0.8027,364.4188,274.5181)">
      <text xml:space="preserve" x="-132.04" y="74.2715" onclick="umlload('http://docs.oracle.com/javase/6/docs/api/java/lang/package-summary.html')" stroke="none">java.lang</text>
    </g>
    <g fill="rgb(187,187,255)" transform="matrix(0.8027,0,0,0.8027,364.4188,274.5181)" stroke="rgb(187,187,255)">
      <rect x="-130.04" y="87.1328" clip-path="url(#clipPath2)" width="57.68" height="23.1328" stroke="none"/>
    </g>
    <g fill="rgb(130,130,178)" stroke-miterlimit="1.45" transform="matrix(0.8027,0,0,0.8027,364.4188,274.5181)" stroke-linecap="butt" stroke="rgb(130,130,178)">
      <rect fill="none" width="57.68" x="-130.04" height="23.1328" y="87.1328"/>
    </g>
    <g font-size="13" font-weight="bold" font-family="sans-serif" transform="matrix(0.8027,0,0,0.8027,364.4188,274.5181)">
      <text xml:space="preserve" x="-125.2" y="103.1997" onclick="umlload('http://docs.oracle.com/javase/6/docs/api/java/lang/Object.html')" stroke="none">Object</text>
    </g>
    <g fill="rgb(187,187,255)" transform="matrix(0.8027,0,0,0.8027,364.4188,274.5181)" stroke="rgb(187,187,255)">
      <rect x="-130.04" y="120.2656" clip-path="url(#clipPath3)" width="53.56" height="23.1328" stroke="none"/>
    </g>
    <g fill="rgb(130,130,178)" stroke-miterlimit="1.45" transform="matrix(0.8027,0,0,0.8027,364.4188,274.5181)" stroke-linecap="butt" stroke="rgb(130,130,178)">
      <rect fill="none" width="53.56" x="-130.04" height="23.1328" y="120.2656"/>
    </g>
    <g font-size="13" font-weight="bold" font-family="sans-serif" transform="matrix(0.8027,0,0,0.8027,364.4188,274.5181)">
      <text xml:space="preserve" x="-125.26" y="136.3325" onclick="umlload('http://docs.oracle.com/javase/6/docs/api/java/lang/String.html')" stroke="none">String</text>
    </g>
    <g fill="rgb(238,238,255)" transform="matrix(0.8027,0,0,0.8027,364.4188,274.5181)" stroke="rgb(238,238,255)">
      <rect width="400.7766" x="-453.22" height="17.9688" y="-26" stroke="none"/>
    </g>
    <g fill="rgb(166,166,178)" stroke-miterlimit="1.45" transform="matrix(0.8027,0,0,0.8027,364.4188,274.5181)" stroke-linecap="butt" stroke="rgb(166,166,178)">
      <rect fill="none" width="400.7766" x="-453.22" height="17.9688" y="-26"/>
    </g>
    <g fill="rgb(238,238,255)" transform="matrix(0.8027,0,0,0.8027,364.4188,274.5181)" stroke="rgb(238,238,255)">
      <rect width="400.78" x="-453.22" height="39.1641" y="-8.0312" stroke="none"/>
    </g>
    <g fill="rgb(166,166,178)" stroke-miterlimit="1.45" transform="matrix(0.8027,0,0,0.8027,364.4188,274.5181)" stroke-linecap="butt" stroke="rgb(166,166,178)">
      <rect fill="none" width="400.78" x="-453.22" height="39.1641" y="-8.0312"/>
    </g>
    <g font-family="sans-serif" transform="matrix(0.8027,0,0,0.8027,364.4188,274.5181)">
      <text xml:space="preserve" x="-447.22" y="-12.8613" onclick="umlload('../../../../../com/msopentech/odatajclient/engine/data/metadata/edm/package-summary.html')" stroke="none">com.msopentech.odatajclient.engine.data.metadata.edm</text>
    </g>
    <g fill="rgb(170,170,255)" transform="matrix(0.8027,0,0,0.8027,364.4188,274.5181)" stroke="rgb(170,170,255)">
      <rect x="-445.22" y="0" clip-path="url(#clipPath4)" width="129.78" height="23.1328" stroke="none"/>
    </g>
    <g fill="rgb(118,118,178)" stroke-miterlimit="1.45" transform="matrix(0.8027,0,0,0.8027,364.4188,274.5181)" stroke-linecap="butt" stroke="rgb(118,118,178)">
      <rect fill="none" width="129.78" x="-445.22" height="23.1328" y="0"/>
    </g>
    <g font-size="13" font-weight="bold" font-family="sans-serif" transform="matrix(0.8027,0,0,0.8027,364.4188,274.5181)">
      <text xml:space="preserve" x="-439.33" y="16.0669" onclick="umlload('../../../../../com/msopentech/odatajclient/engine/data/metadata/edm/EdmSimpleType.html')" stroke="none">EdmSimpleType</text>
    </g>
    <g fill="rgb(238,238,255)" transform="matrix(0.8027,0,0,0.8027,364.4188,274.5181)" stroke="rgb(238,238,255)">
      <rect width="298.9302" x="-46.105" height="17.9688" y="-133.1328" stroke="none"/>
    </g>
    <g fill="rgb(166,166,178)" stroke-miterlimit="1.45" transform="matrix(0.8027,0,0,0.8027,364.4188,274.5181)" stroke-linecap="butt" stroke="rgb(166,166,178)">
      <rect fill="none" width="298.9302" x="-46.105" height="17.9688" y="-133.1328"/>
    </g>
    <g fill="rgb(238,238,255)" transform="matrix(0.8027,0,0,0.8027,364.4188,274.5181)" stroke="rgb(238,238,255)">
      <rect width="298.9302" x="-46.105" height="39.1641" y="-115.1641" stroke="none"/>
    </g>
    <g fill="rgb(166,166,178)" stroke-miterlimit="1.45" transform="matrix(0.8027,0,0,0.8027,364.4188,274.5181)" stroke-linecap="butt" stroke="rgb(166,166,178)">
      <rect fill="none" width="298.9302" x="-46.105" height="39.1641" y="-115.1641"/>
    </g>
    <g font-family="sans-serif" transform="matrix(0.8027,0,0,0.8027,364.4188,274.5181)">
      <text xml:space="preserve" x="-40.105" y="-119.9941" onclick="umlload('../../../../../com/msopentech/odatajclient/engine/data/package-summary.html')" stroke="none">com.msopentech.odatajclient.engine.data</text>
    </g>
    <g fill="rgb(204,204,255)" transform="matrix(0.8027,0,0,0.8027,364.4188,274.5181)" stroke="rgb(204,204,255)">
      <rect x="47.895" y="-107.1328" clip-path="url(#clipPath5)" width="97.85" height="23.1328" stroke="none"/>
    </g>
    <g fill="rgb(142,142,178)" stroke-miterlimit="1.45" transform="matrix(0.8027,0,0,0.8027,364.4188,274.5181)" stroke-linecap="butt" stroke="rgb(142,142,178)">
      <rect fill="none" width="97.85" x="47.895" height="23.1328" y="-107.1328"/>
    </g>
    <g font-size="13" font-weight="bold" font-family="sans-serif" transform="matrix(0.8027,0,0,0.8027,364.4188,274.5181)">
      <text xml:space="preserve" x="53.32" y="-91.0659" onclick="umlload('../../../../../com/msopentech/odatajclient/engine/data/ODataValue.html')" stroke="none">ODataValue</text>
    </g>
    <g fill="rgb(238,238,255)" transform="matrix(0.8027,0,0,0.8027,364.4188,274.5181)" stroke="rgb(238,238,255)">
      <rect width="298.9302" x="-8" height="17.9688" y="-26" stroke="none"/>
    </g>
    <g fill="rgb(166,166,178)" stroke-miterlimit="1.45" transform="matrix(0.8027,0,0,0.8027,364.4188,274.5181)" stroke-linecap="butt" stroke="rgb(166,166,178)">
      <rect fill="none" width="298.9302" x="-8" height="17.9688" y="-26"/>
    </g>
    <g fill="rgb(238,238,255)" transform="matrix(0.8027,0,0,0.8027,364.4188,274.5181)" stroke="rgb(238,238,255)">
      <rect width="298.9302" x="-8" height="167.4297" y="-8.0312" stroke="none"/>
    </g>
    <g fill="rgb(166,166,178)" stroke-miterlimit="1.45" transform="matrix(0.8027,0,0,0.8027,364.4188,274.5181)" stroke-linecap="butt" stroke="rgb(166,166,178)">
      <rect fill="none" width="298.9302" x="-8" height="167.4297" y="-8.0312"/>
    </g>
    <g font-family="sans-serif" transform="matrix(0.8027,0,0,0.8027,364.4188,274.5181)">
      <text xml:space="preserve" x="-2" y="-12.8613" onclick="umlload('package-summary.html')" stroke="none">com.msopentech.odatajclient.engine.data</text>
    </g>
    <g fill="rgb(187,187,255)" transform="matrix(0.8027,0,0,0.8027,364.4188,274.5181)" stroke="rgb(187,187,255)">
      <rect x="0" y="0" clip-path="url(#clipPath6)" width="193.64" height="26.625" stroke="none"/>
      <line clip-path="url(#clipPath6)" fill="none" x1="0" x2="193.64" y1="26.625" y2="26.625" stroke="black"/>
      <rect x="0" y="27.625" clip-path="url(#clipPath6)" width="193.64" height="31.9375" stroke="none"/>
      <line clip-path="url(#clipPath6)" fill="none" x1="0" x2="193.64" y1="59.5625" y2="59.5625" stroke="black"/>
      <rect x="0" y="60.5625" clip-path="url(#clipPath6)" width="193.64" height="15.9688" stroke="none"/>
      <line clip-path="url(#clipPath6)" fill="none" x1="0" x2="193.64" y1="76.5312" y2="76.5312" stroke="black"/>
      <rect x="0" y="77.5312" clip-path="url(#clipPath6)" width="193.64" height="73.8672" stroke="none"/>
    </g>
    <g fill="rgb(130,130,178)" stroke-miterlimit="1.45" transform="matrix(0.8027,0,0,0.8027,364.4188,274.5181)" stroke-linecap="butt" stroke="rgb(130,130,178)">
      <rect fill="none" width="193.64" x="0" height="151.3984" y="0"/>
    </g>
    <g font-size="16" font-weight="bold" font-family="sans-serif" transform="matrix(0.8027,0,0,0.8027,364.4188,274.5181)">
      <text xml:space="preserve" x="6.82" y="18.8516" onclick="umlload('#')" stroke="none">ODataPrimitiveValue</text>
    </g>
    <g font-family="sans-serif" transform="matrix(0.8027,0,0,0.8027,364.4188,274.5181)">
      <text xml:space="preserve" x="4" y="38.1719" stroke="none">#</text>
      <text xml:space="preserve" x="19" y="39.7637" onclick="umlload('#type')" stroke="none">type : EdmSimpleType</text>
    </g>
    <g font-family="sans-serif" transform="matrix(0.8027,0,0,0.8027,364.4188,274.5181)">
      <text xml:space="preserve" x="4" y="54.1719" stroke="none">#</text>
      <text xml:space="preserve" x="19" y="55.7324" onclick="umlload('#value')" stroke="none">value : Object</text>
    </g>
    <g font-family="sans-serif" transform="matrix(0.8027,0,0,0.8027,364.4188,274.5181)">
      <text xml:space="preserve" x="4" y="71.1719" stroke="none">#</text>
      <text xml:space="preserve" x="19" y="72.7012" onclick="umlload('#ODataPrimitiveValue()')" stroke="none">ODataPrimitiveValue()</text>
    </g>
    <g font-family="sans-serif" transform="matrix(0.8027,0,0,0.8027,364.4188,274.5181)">
      <text xml:space="preserve" x="4" y="88.1719" stroke="none">+</text>
      <text xml:space="preserve" x="19" y="89.6699" onclick="umlload('#getTypeName()')" stroke="none">getTypeName() : String</text>
    </g>
    <g font-family="sans-serif" transform="matrix(0.8027,0,0,0.8027,364.4188,274.5181)">
      <text xml:space="preserve" x="4" y="104.1719" stroke="none">+</text>
      <text xml:space="preserve" x="19" y="105.6387" onclick="umlload('#toCastValue()')" stroke="none">toCastValue() : &lt;T&gt; T</text>
    </g>
    <g font-family="sans-serif" transform="matrix(0.8027,0,0,0.8027,364.4188,274.5181)">
      <text xml:space="preserve" x="4" y="120.1719" stroke="none">+</text>
      <text xml:space="preserve" x="19" y="121.6074" onclick="umlload('#toString()')" stroke="none">toString() : String</text>
    </g>
    <g font-family="sans-serif" transform="matrix(0.8027,0,0,0.8027,364.4188,274.5181)">
      <text xml:space="preserve" x="4" y="136.1719" stroke="none">+</text>
      <text xml:space="preserve" x="19" y="137.5762" onclick="umlload('#toValue()')" stroke="none">toValue() : Object</text>
    </g>
    <g font-family="sans-serif" transform="matrix(0.8027,0,0,0.8027,364.4188,274.5181)">
      <text xml:space="preserve" x="-448" y="184.1543" onclick="umlload('http://www.yworks.com/')" stroke="none">yWorks UML Doclet</text>
    </g>
    <g stroke-miterlimit="1.45" transform="matrix(0.8027,0,0,0.8027,364.4188,274.5181)" stroke-linecap="butt">
      <path fill="none" d="M96.82 0.0305 L96.82 -69"/>
      <path fill="white" d="M96.82 -84 L90.82 -68 L102.82 -68 Z" stroke="none"/>
      <path fill="none" d="M96.82 -84 L90.82 -68 L102.82 -68 Z"/>
      <path fill="none" d="M-0.0137 11.5664 L-315.44 11.5664"/>
      <line stroke-linecap="square" transform="matrix(-1,0,0,-1,-315.44,11.5664)" fill="none" x1="0" x2="-14" y1="0" y2="-4" stroke-miterlimit="10"/>
      <line stroke-linecap="square" transform="matrix(-1,0,0,-1,-315.44,11.5664)" fill="none" x1="0" x2="-14" y1="0" y2="4" stroke-miterlimit="10"/>
    </g>
    <g stroke-miterlimit="1.45" transform="matrix(0.8027,0,0,0.8027,364.4188,274.5181)" stroke-linecap="butt">
      <path fill="none" d="M-0.0145 98.6992 L-72.36 98.6992"/>
      <line stroke-linecap="square" transform="matrix(-1,0,0,-1,-72.36,98.6992)" fill="none" x1="0" x2="-14" y1="0" y2="-4" stroke-miterlimit="10"/>
      <line stroke-linecap="square" transform="matrix(-1,0,0,-1,-72.36,98.6992)" fill="none" x1="0" x2="-14" y1="0" y2="4" stroke-miterlimit="10"/>
    </g>
    <g stroke-miterlimit="1.45" transform="matrix(0.8027,0,0,0.8027,364.4188,274.5181)" stroke-linecap="butt">
      <path fill="none" d="M-0.0449 131.832 L-76.48 131.832"/>
      <line stroke-linecap="square" transform="matrix(-1,0,0,-1,-76.48,131.832)" fill="none" x1="0" x2="-14" y1="0" y2="-4" stroke-miterlimit="10"/>
      <line stroke-linecap="square" transform="matrix(-1,0,0,-1,-76.48,131.832)" fill="none" x1="0" x2="-14" y1="0" y2="4" stroke-miterlimit="10"/>
    </g>
  </g>
</svg>
