<?xml version="1.0" encoding="UTF-8"?><svg xmlns="http://www.w3.org/2000/svg" xmlns:xlink="http://www.w3.org/1999/xlink" fill-opacity="1" color-rendering="auto" color-interpolation="auto" stroke="black" text-rendering="auto" stroke-linecap="square" width="598" stroke-miterlimit="10" stroke-opacity="1" shape-rendering="auto" fill="black" stroke-dasharray="none" font-weight="normal" stroke-width="1" height="598" font-family="'Dialog'" font-style="normal" stroke-linejoin="miter" font-size="12" stroke-dashoffset="0" image-rendering="auto">
  <!--Generated by ySVG-->
  <defs id="genericDefs"/>
  <g>
    <defs id="defs1">
      <clipPath clipPathUnits="userSpaceOnUse" id="clipPath1">
        <path d="M0 0 L598 0 L598 598 L0 598 L0 0 Z"/>
      </clipPath>
      <clipPath clipPathUnits="userSpaceOnUse" id="clipPath2">
        <path d="M336.34 153.3984 L394.02 153.3984 L394.02 176.5312 L336.34 176.5312 L336.34 153.3984 Z"/>
      </clipPath>
      <clipPath clipPathUnits="userSpaceOnUse" id="clipPath3">
        <path d="M336.34 186.5312 L389.9 186.5312 L389.9 209.6641 L336.34 209.6641 L336.34 186.5312 Z"/>
      </clipPath>
      <clipPath clipPathUnits="userSpaceOnUse" id="clipPath4">
        <path d="M336.34 0 L508.35 0 L508.35 23.1328 L336.34 23.1328 L336.34 0 Z"/>
      </clipPath>
      <clipPath clipPathUnits="userSpaceOnUse" id="clipPath5">
        <path d="M336.34 33.1328 L500.11 33.1328 L500.11 56.2656 L336.34 56.2656 L336.34 33.1328 Z"/>
      </clipPath>
      <clipPath clipPathUnits="userSpaceOnUse" id="clipPath6">
        <path d="M336.34 66.2656 L501.14 66.2656 L501.14 89.3984 L336.34 89.3984 L336.34 66.2656 Z"/>
      </clipPath>
      <clipPath clipPathUnits="userSpaceOnUse" id="clipPath7">
        <path d="M340.6909 -100.3574 C340.6909 -91.3234 310.6915 -84 273.6854 -84 C236.6794 -84 206.68 -91.3234 206.68 -100.3574 C206.68 -109.3913 236.6794 -116.7147 273.6854 -116.7147 C310.6915 -116.7147 340.6909 -109.3913 340.6909 -100.3574 Z"/>
      </clipPath>
      <clipPath clipPathUnits="userSpaceOnUse" id="clipPath8">
        <path d="M103 -107.1328 L160.68 -107.1328 L160.68 -84 L103 -84 L103 -107.1328 Z"/>
      </clipPath>
      <clipPath clipPathUnits="userSpaceOnUse" id="clipPath9">
        <path d="M0 0 L263.68 0 L263.68 217.6641 L0 217.6641 L0 0 Z"/>
      </clipPath>
      <script type="text/ecmascript"><![CDATA[
function umlload(newLocation)
{
if (newLocation.charAt(0) != '#') {
if (newLocation.indexOf("://") > -1) {
window.parent.location.href = newLocation;
} else {
var tmp = window.parent.location.href;
tmp = tmp.substring(0, tmp.lastIndexOf("/") + 1);
window.parent.location.href = tmp.concat(newLocation);
}
} else {
window.parent.location.hash = newLocation;
}
}
]]></script>
    </defs>
    <g fill="rgb(238,238,255)" transform="matrix(0.9403,0,0,0.9403,7.522,243.5252)" stroke="rgb(238,238,255)">
      <rect width="76.1412" x="328.34" height="17.9688" y="127.3984" stroke="none"/>
    </g>
    <g fill="rgb(166,166,178)" stroke-miterlimit="1.45" transform="matrix(0.9403,0,0,0.9403,7.522,243.5252)" stroke-linecap="butt" stroke="rgb(166,166,178)">
      <rect fill="none" width="76.1412" x="328.34" height="17.9688" y="127.3984"/>
    </g>
    <g fill="rgb(238,238,255)" transform="matrix(0.9403,0,0,0.9403,7.522,243.5252)" stroke="rgb(238,238,255)">
      <rect width="79.68" x="328.34" height="72.2969" y="145.3672" stroke="none"/>
    </g>
    <g fill="rgb(166,166,178)" stroke-miterlimit="1.45" transform="matrix(0.9403,0,0,0.9403,7.522,243.5252)" stroke-linecap="butt" stroke="rgb(166,166,178)">
      <rect fill="none" width="79.68" x="328.34" height="72.2969" y="145.3672"/>
    </g>
    <g font-family="sans-serif" transform="matrix(0.9403,0,0,0.9403,7.522,243.5252)">
      <text xml:space="preserve" x="334.34" y="140.5371" onclick="umlload('http://docs.oracle.com/javase/6/docs/api/java/lang/package-summary.html')" stroke="none">java.lang</text>
    </g>
    <g fill="rgb(187,187,255)" transform="matrix(0.9403,0,0,0.9403,7.522,243.5252)" stroke="rgb(187,187,255)">
      <rect x="336.34" y="153.3984" clip-path="url(#clipPath2)" width="57.68" height="23.1328" stroke="none"/>
    </g>
    <g fill="rgb(130,130,178)" stroke-miterlimit="1.45" transform="matrix(0.9403,0,0,0.9403,7.522,243.5252)" stroke-linecap="butt" stroke="rgb(130,130,178)">
      <rect fill="none" width="57.68" x="336.34" height="23.1328" y="153.3984"/>
    </g>
    <g font-size="13" font-weight="bold" font-family="sans-serif" transform="matrix(0.9403,0,0,0.9403,7.522,243.5252)">
      <text xml:space="preserve" x="341.18" y="169.4653" onclick="umlload('http://docs.oracle.com/javase/6/docs/api/java/lang/Object.html')" stroke="none">Object</text>
    </g>
    <g fill="rgb(187,187,255)" transform="matrix(0.9403,0,0,0.9403,7.522,243.5252)" stroke="rgb(187,187,255)">
      <rect x="336.34" y="186.5312" clip-path="url(#clipPath3)" width="53.56" height="23.1328" stroke="none"/>
    </g>
    <g fill="rgb(130,130,178)" stroke-miterlimit="1.45" transform="matrix(0.9403,0,0,0.9403,7.522,243.5252)" stroke-linecap="butt" stroke="rgb(130,130,178)">
      <rect fill="none" width="53.56" x="336.34" height="23.1328" y="186.5312"/>
    </g>
    <g font-size="13" font-weight="bold" font-family="sans-serif" transform="matrix(0.9403,0,0,0.9403,7.522,243.5252)">
      <text xml:space="preserve" x="341.12" y="202.5981" onclick="umlload('http://docs.oracle.com/javase/6/docs/api/java/lang/String.html')" stroke="none">String</text>
    </g>
    <g fill="rgb(238,238,255)" transform="matrix(0.9403,0,0,0.9403,7.522,243.5252)" stroke="rgb(238,238,255)">
      <rect width="298.9302" x="328.34" height="17.9688" y="-26" stroke="none"/>
    </g>
    <g fill="rgb(166,166,178)" stroke-miterlimit="1.45" transform="matrix(0.9403,0,0,0.9403,7.522,243.5252)" stroke-linecap="butt" stroke="rgb(166,166,178)">
      <rect fill="none" width="298.9302" x="328.34" height="17.9688" y="-26"/>
    </g>
    <g fill="rgb(238,238,255)" transform="matrix(0.9403,0,0,0.9403,7.522,243.5252)" stroke="rgb(238,238,255)">
      <rect width="299.01" x="328.34" height="105.4297" y="-8.0312" stroke="none"/>
    </g>
    <g fill="rgb(166,166,178)" stroke-miterlimit="1.45" transform="matrix(0.9403,0,0,0.9403,7.522,243.5252)" stroke-linecap="butt" stroke="rgb(166,166,178)">
      <rect fill="none" width="299.01" x="328.34" height="105.4297" y="-8.0312"/>
    </g>
    <g font-family="sans-serif" transform="matrix(0.9403,0,0,0.9403,7.522,243.5252)">
      <text xml:space="preserve" x="334.34" y="-12.8613" onclick="umlload('../../../../../com/msopentech/odatajclient/engine/data/package-summary.html')" stroke="none">com.msopentech.odatajclient.engine.data</text>
    </g>
    <g fill="rgb(187,187,255)" transform="matrix(0.9403,0,0,0.9403,7.522,243.5252)" stroke="rgb(187,187,255)">
      <rect x="336.34" y="0" clip-path="url(#clipPath4)" width="172.01" height="23.1328" stroke="none"/>
    </g>
    <g fill="rgb(130,130,178)" stroke-miterlimit="1.45" transform="matrix(0.9403,0,0,0.9403,7.522,243.5252)" stroke-linecap="butt" stroke="rgb(130,130,178)">
      <rect fill="none" width="172.01" x="336.34" height="23.1328" y="0"/>
    </g>
    <g font-size="13" font-weight="bold" font-family="sans-serif" transform="matrix(0.9403,0,0,0.9403,7.522,243.5252)">
      <text xml:space="preserve" x="342.845" y="16.0669" onclick="umlload('../../../../../com/msopentech/odatajclient/engine/data/ODataCollectionValue.html')" stroke="none">ODataCollectionValue</text>
    </g>
    <g fill="rgb(187,187,255)" transform="matrix(0.9403,0,0,0.9403,7.522,243.5252)" stroke="rgb(187,187,255)">
      <rect x="336.34" y="33.1328" clip-path="url(#clipPath5)" width="163.77" height="23.1328" stroke="none"/>
    </g>
    <g fill="rgb(130,130,178)" stroke-miterlimit="1.45" transform="matrix(0.9403,0,0,0.9403,7.522,243.5252)" stroke-linecap="butt" stroke="rgb(130,130,178)">
      <rect fill="none" width="163.77" x="336.34" height="23.1328" y="33.1328"/>
    </g>
    <g font-size="13" font-weight="bold" font-family="sans-serif" transform="matrix(0.9403,0,0,0.9403,7.522,243.5252)">
      <text xml:space="preserve" x="342.725" y="49.1997" onclick="umlload('../../../../../com/msopentech/odatajclient/engine/data/ODataComplexValue.html')" stroke="none">ODataComplexValue</text>
    </g>
    <g fill="rgb(187,187,255)" transform="matrix(0.9403,0,0,0.9403,7.522,243.5252)" stroke="rgb(187,187,255)">
      <rect x="336.34" y="66.2656" clip-path="url(#clipPath6)" width="164.8" height="23.1328" stroke="none"/>
    </g>
    <g fill="rgb(130,130,178)" stroke-miterlimit="1.45" transform="matrix(0.9403,0,0,0.9403,7.522,243.5252)" stroke-linecap="butt" stroke="rgb(130,130,178)">
      <rect fill="none" width="164.8" x="336.34" height="23.1328" y="66.2656"/>
    </g>
    <g font-size="13" font-weight="bold" font-family="sans-serif" transform="matrix(0.9403,0,0,0.9403,7.522,243.5252)">
      <text xml:space="preserve" x="342.74" y="82.3325" onclick="umlload('../../../../../com/msopentech/odatajclient/engine/data/ODataPrimitiveValue.html')" stroke="none">ODataPrimitiveValue</text>
    </g>
    <g fill="rgb(238,238,255)" transform="matrix(0.9403,0,0,0.9403,7.522,243.5252)" stroke="rgb(238,238,255)">
      <rect width="59.1668" x="198.68" height="17.9688" y="-142.7147" stroke="none"/>
    </g>
    <g fill="rgb(166,166,178)" stroke-miterlimit="1.45" transform="matrix(0.9403,0,0,0.9403,7.522,243.5252)" stroke-linecap="butt" stroke="rgb(166,166,178)">
      <rect fill="none" width="59.1668" x="198.68" height="17.9688" y="-142.7147"/>
    </g>
    <g fill="rgb(238,238,255)" transform="matrix(0.9403,0,0,0.9403,7.522,243.5252)" stroke="rgb(238,238,255)">
      <rect width="150.0109" x="198.68" height="48.746" y="-124.746" stroke="none"/>
    </g>
    <g fill="rgb(166,166,178)" stroke-miterlimit="1.45" transform="matrix(0.9403,0,0,0.9403,7.522,243.5252)" stroke-linecap="butt" stroke="rgb(166,166,178)">
      <rect fill="none" width="150.0109" x="198.68" height="48.746" y="-124.746"/>
    </g>
    <g font-family="sans-serif" transform="matrix(0.9403,0,0,0.9403,7.522,243.5252)">
      <text xml:space="preserve" x="204.68" y="-129.5761" onclick="umlload('http://docs.oracle.com/javase/6/docs/api/java/io/package-summary.html')" stroke="none">java.io</text>
    </g>
    <g fill="rgb(221,221,255)" transform="matrix(0.9403,0,0,0.9403,7.522,243.5252)" stroke="rgb(221,221,255)">
      <rect x="206.68" y="-116.7147" clip-path="url(#clipPath7)" width="134.0109" height="32.7147" stroke="none"/>
    </g>
    <g fill="rgb(154,154,178)" stroke-miterlimit="1.45" transform="matrix(0.9403,0,0,0.9403,7.522,243.5252)" stroke-linecap="butt" stroke="rgb(154,154,178)">
      <ellipse rx="67.0054" fill="none" ry="16.3574" cx="273.6854" cy="-100.3574"/>
    </g>
    <g font-style="italic" font-size="13" font-weight="bold" font-family="sans-serif" transform="matrix(0.9403,0,0,0.9403,7.522,243.5252)">
      <text xml:space="preserve" x="231.6854" y="-95.8569" onclick="umlload('http://docs.oracle.com/javase/6/docs/api/java/io/Serializable.html')" stroke="none">Serializable</text>
    </g>
    <g fill="rgb(238,238,255)" transform="matrix(0.9403,0,0,0.9403,7.522,243.5252)" stroke="rgb(238,238,255)">
      <rect width="76.1412" x="95" height="17.9688" y="-133.1328" stroke="none"/>
    </g>
    <g fill="rgb(166,166,178)" stroke-miterlimit="1.45" transform="matrix(0.9403,0,0,0.9403,7.522,243.5252)" stroke-linecap="butt" stroke="rgb(166,166,178)">
      <rect fill="none" width="76.1412" x="95" height="17.9688" y="-133.1328"/>
    </g>
    <g fill="rgb(238,238,255)" transform="matrix(0.9403,0,0,0.9403,7.522,243.5252)" stroke="rgb(238,238,255)">
      <rect width="76.1412" x="95" height="39.1641" y="-115.1641" stroke="none"/>
    </g>
    <g fill="rgb(166,166,178)" stroke-miterlimit="1.45" transform="matrix(0.9403,0,0,0.9403,7.522,243.5252)" stroke-linecap="butt" stroke="rgb(166,166,178)">
      <rect fill="none" width="76.1412" x="95" height="39.1641" y="-115.1641"/>
    </g>
    <g font-family="sans-serif" transform="matrix(0.9403,0,0,0.9403,7.522,243.5252)">
      <text xml:space="preserve" x="101" y="-119.9941" onclick="umlload('http://docs.oracle.com/javase/6/docs/api/java/lang/package-summary.html')" stroke="none">java.lang</text>
    </g>
    <g fill="rgb(187,187,255)" transform="matrix(0.9403,0,0,0.9403,7.522,243.5252)" stroke="rgb(187,187,255)">
      <rect x="103" y="-107.1328" clip-path="url(#clipPath8)" width="57.68" height="23.1328" stroke="none"/>
    </g>
    <g fill="rgb(130,130,178)" stroke-miterlimit="1.45" transform="matrix(0.9403,0,0,0.9403,7.522,243.5252)" stroke-linecap="butt" stroke="rgb(130,130,178)">
      <rect fill="none" width="57.68" x="103" height="23.1328" y="-107.1328"/>
    </g>
    <g font-size="13" font-weight="bold" font-family="sans-serif" transform="matrix(0.9403,0,0,0.9403,7.522,243.5252)">
      <text xml:space="preserve" x="107.84" y="-91.0659" onclick="umlload('http://docs.oracle.com/javase/6/docs/api/java/lang/Object.html')" stroke="none">Object</text>
    </g>
    <g fill="rgb(238,238,255)" transform="matrix(0.9403,0,0,0.9403,7.522,243.5252)" stroke="rgb(238,238,255)">
      <rect width="298.9302" x="-8" height="17.9688" y="-26" stroke="none"/>
    </g>
    <g fill="rgb(166,166,178)" stroke-miterlimit="1.45" transform="matrix(0.9403,0,0,0.9403,7.522,243.5252)" stroke-linecap="butt" stroke="rgb(166,166,178)">
      <rect fill="none" width="298.9302" x="-8" height="17.9688" y="-26"/>
    </g>
    <g fill="rgb(238,238,255)" transform="matrix(0.9403,0,0,0.9403,7.522,243.5252)" stroke="rgb(238,238,255)">
      <rect width="298.9302" x="-8" height="233.6953" y="-8.0312" stroke="none"/>
    </g>
    <g fill="rgb(166,166,178)" stroke-miterlimit="1.45" transform="matrix(0.9403,0,0,0.9403,7.522,243.5252)" stroke-linecap="butt" stroke="rgb(166,166,178)">
      <rect fill="none" width="298.9302" x="-8" height="233.6953" y="-8.0312"/>
    </g>
    <g font-family="sans-serif" transform="matrix(0.9403,0,0,0.9403,7.522,243.5252)">
      <text xml:space="preserve" x="-2" y="-12.8613" onclick="umlload('package-summary.html')" stroke="none">com.msopentech.odatajclient.engine.data</text>
    </g>
    <g fill="rgb(204,204,255)" transform="matrix(0.9403,0,0,0.9403,7.522,243.5252)" stroke="rgb(204,204,255)">
      <rect x="0" y="0" clip-path="url(#clipPath9)" width="263.68" height="38.5938" stroke="none"/>
      <line clip-path="url(#clipPath9)" fill="none" x1="0" x2="263.68" y1="38.5938" y2="38.5938" stroke="black"/>
      <rect x="0" y="39.5938" clip-path="url(#clipPath9)" width="263.68" height="15.9688" stroke="none"/>
      <line clip-path="url(#clipPath9)" fill="none" x1="0" x2="263.68" y1="55.5625" y2="55.5625" stroke="black"/>
      <rect x="0" y="56.5625" clip-path="url(#clipPath9)" width="263.68" height="161.1016" stroke="none"/>
    </g>
    <g fill="rgb(142,142,178)" stroke-miterlimit="1.45" transform="matrix(0.9403,0,0,0.9403,7.522,243.5252)" stroke-linecap="butt" stroke="rgb(142,142,178)">
      <rect fill="none" width="263.68" x="0" height="217.6641" y="0"/>
    </g>
    <g font-size="16" font-weight="bold" font-family="sans-serif" transform="matrix(0.9403,0,0,0.9403,7.522,243.5252)">
      <text xml:space="preserve" x="80.34" y="16.8516" onclick="umlload('#')" stroke="none">ODataValue</text>
    </g>
    <g font-family="sans-serif" transform="matrix(0.9403,0,0,0.9403,7.522,243.5252)">
      <text xml:space="preserve" x="190.68" y="33.7637" stroke="none">{abstract}</text>
    </g>
    <g font-family="sans-serif" transform="matrix(0.9403,0,0,0.9403,7.522,243.5252)">
      <text xml:space="preserve" x="4" y="50.1719" stroke="none">+</text>
      <text xml:space="preserve" x="19" y="51.7324" onclick="umlload('#ODataValue()')" stroke="none">ODataValue()</text>
    </g>
    <g font-family="sans-serif" transform="matrix(0.9403,0,0,0.9403,7.522,243.5252)">
      <text xml:space="preserve" x="4" y="67.1719" stroke="none">+</text>
      <text xml:space="preserve" x="19" y="68.7012" onclick="umlload('#asCollection()')" stroke="none">asCollection() : ODataCollectionValue</text>
    </g>
    <g font-family="sans-serif" transform="matrix(0.9403,0,0,0.9403,7.522,243.5252)">
      <text xml:space="preserve" x="4" y="83.1719" stroke="none">+</text>
      <text xml:space="preserve" x="19" y="84.6699" onclick="umlload('#asComplex()')" stroke="none">asComplex() : ODataComplexValue</text>
    </g>
    <g font-family="sans-serif" transform="matrix(0.9403,0,0,0.9403,7.522,243.5252)">
      <text xml:space="preserve" x="4" y="99.1719" stroke="none">+</text>
      <text xml:space="preserve" x="19" y="100.6387" onclick="umlload('#asPrimitive()')" stroke="none">asPrimitive() : ODataPrimitiveValue</text>
    </g>
    <g font-family="sans-serif" transform="matrix(0.9403,0,0,0.9403,7.522,243.5252)">
      <text xml:space="preserve" x="4" y="115.1719" stroke="none">+</text>
      <text xml:space="preserve" x="19" y="116.6074" onclick="umlload('#equals(java.lang.Object)')" stroke="none">equals(Object) : boolean</text>
    </g>
    <g font-family="sans-serif" transform="matrix(0.9403,0,0,0.9403,7.522,243.5252)">
      <text xml:space="preserve" x="4" y="131.1719" stroke="none">+</text>
      <text xml:space="preserve" x="19" y="132.5762" onclick="umlload('#hashCode()')" stroke="none">hashCode() : int</text>
    </g>
    <g font-family="sans-serif" transform="matrix(0.9403,0,0,0.9403,7.522,243.5252)">
      <text xml:space="preserve" x="4" y="147.1719" stroke="none">+</text>
      <text xml:space="preserve" x="19" y="148.5449" onclick="umlload('#isCollection()')" stroke="none">isCollection() : boolean</text>
    </g>
    <g font-family="sans-serif" transform="matrix(0.9403,0,0,0.9403,7.522,243.5252)">
      <text xml:space="preserve" x="4" y="163.1719" stroke="none">+</text>
      <text xml:space="preserve" x="19" y="164.5137" onclick="umlload('#isComplex()')" stroke="none">isComplex() : boolean</text>
    </g>
    <g font-family="sans-serif" transform="matrix(0.9403,0,0,0.9403,7.522,243.5252)">
      <text xml:space="preserve" x="4" y="179.1719" stroke="none">+</text>
      <text xml:space="preserve" x="19" y="180.4824" onclick="umlload('#isPrimitive()')" stroke="none">isPrimitive() : boolean</text>
    </g>
    <g font-family="sans-serif" transform="matrix(0.9403,0,0,0.9403,7.522,243.5252)">
      <text xml:space="preserve" x="4" y="195.1719" stroke="none">+</text>
      <text xml:space="preserve" x="19" y="196.4512" onclick="umlload('#toString()')" stroke="none">toString() : String</text>
    </g>
    <g font-family="sans-serif" transform="matrix(0.9403,0,0,0.9403,7.522,243.5252)">
      <text xml:space="preserve" x="-2" y="250.1543" onclick="umlload('http://www.yworks.com/')" stroke="none">yWorks UML Doclet</text>
    </g>
    <g stroke-miterlimit="1.45" transform="matrix(0.9403,0,0,0.9403,7.522,243.5252)" stroke-linecap="butt">
      <path fill="none" d="M131.84 0.0414 L131.84 -69"/>
      <path fill="white" d="M131.84 -84 L125.84 -68 L137.84 -68 Z" stroke="none"/>
      <path fill="none" d="M131.84 -84 L125.84 -68 L137.84 -68 Z"/>
      <path fill="none" stroke-dasharray="6,2" d="M197.76 0.0321 L197.76 -51 L273.6854 -51 L273.6854 -69"/>
      <path fill="white" stroke-dasharray="6,2" d="M273.6854 -84 L267.6854 -68 L279.6854 -68 Z" stroke="none"/>
      <path fill="none" d="M273.6854 -84 L267.6854 -68 L279.6854 -68 Z"/>
      <path fill="none" stroke-dasharray="6,2" d="M263.6524 11.5664 L336.34 11.5664"/>
      <line stroke-linecap="square" transform="matrix(1,0,0,1,336.34,11.5664)" fill="none" x1="0" x2="-14" y1="0" y2="-4" stroke-miterlimit="10"/>
      <line stroke-linecap="square" transform="matrix(1,0,0,1,336.34,11.5664)" fill="none" x1="0" x2="-14" y1="0" y2="4" stroke-miterlimit="10"/>
    </g>
    <g stroke-dasharray="6,2" stroke-miterlimit="1.45" transform="matrix(0.9403,0,0,0.9403,7.522,243.5252)" stroke-linecap="butt">
      <path fill="none" d="M263.6708 44.6992 L336.34 44.6992"/>
      <line stroke-linecap="square" transform="matrix(1,0,0,1,336.34,44.6992)" fill="none" x1="0" x2="-14" y1="0" y2="-4" stroke-dasharray="none" stroke-miterlimit="10"/>
      <line stroke-linecap="square" transform="matrix(1,0,0,1,336.34,44.6992)" fill="none" x1="0" x2="-14" y1="0" y2="4" stroke-dasharray="none" stroke-miterlimit="10"/>
    </g>
    <g stroke-dasharray="6,2" stroke-miterlimit="1.45" transform="matrix(0.9403,0,0,0.9403,7.522,243.5252)" stroke-linecap="butt">
      <path fill="none" d="M263.6977 77.832 L336.34 77.832"/>
      <line stroke-linecap="square" transform="matrix(1,0,0,1,336.34,77.832)" fill="none" x1="0" x2="-14" y1="0" y2="-4" stroke-dasharray="none" stroke-miterlimit="10"/>
      <line stroke-linecap="square" transform="matrix(1,0,0,1,336.34,77.832)" fill="none" x1="0" x2="-14" y1="0" y2="4" stroke-dasharray="none" stroke-miterlimit="10"/>
    </g>
    <g stroke-dasharray="6,2" stroke-miterlimit="1.45" transform="matrix(0.9403,0,0,0.9403,7.522,243.5252)" stroke-linecap="butt">
      <path fill="none" d="M263.6919 164.9648 L336.34 164.9648"/>
      <line stroke-linecap="square" transform="matrix(1,0,0,1,336.34,164.9648)" fill="none" x1="0" x2="-14" y1="0" y2="-4" stroke-dasharray="none" stroke-miterlimit="10"/>
      <line stroke-linecap="square" transform="matrix(1,0,0,1,336.34,164.9648)" fill="none" x1="0" x2="-14" y1="0" y2="4" stroke-dasharray="none" stroke-miterlimit="10"/>
    </g>
    <g stroke-dasharray="6,2" stroke-miterlimit="1.45" transform="matrix(0.9403,0,0,0.9403,7.522,243.5252)" stroke-linecap="butt">
      <path fill="none" d="M263.6572 198.0977 L336.34 198.0977"/>
      <line stroke-linecap="square" transform="matrix(1,0,0,1,336.34,198.0977)" fill="none" x1="0" x2="-14" y1="0" y2="-4" stroke-dasharray="none" stroke-miterlimit="10"/>
      <line stroke-linecap="square" transform="matrix(1,0,0,1,336.34,198.0977)" fill="none" x1="0" x2="-14" y1="0" y2="4" stroke-dasharray="none" stroke-miterlimit="10"/>
    </g>
  </g>
</svg>
