<?xml version="1.0" encoding="UTF-8"?><svg xmlns="http://www.w3.org/2000/svg" xmlns:xlink="http://www.w3.org/1999/xlink" fill-opacity="1" color-rendering="auto" color-interpolation="auto" stroke="black" text-rendering="auto" stroke-linecap="square" width="598" stroke-miterlimit="10" stroke-opacity="1" shape-rendering="auto" fill="black" stroke-dasharray="none" font-weight="normal" stroke-width="1" height="598" font-family="'Dialog'" font-style="normal" stroke-linejoin="miter" font-size="12" stroke-dashoffset="0" image-rendering="auto">
  <!--Generated by ySVG-->
  <defs id="genericDefs"/>
  <g>
    <defs id="defs1">
      <clipPath clipPathUnits="userSpaceOnUse" id="clipPath1">
        <path d="M0 0 L598 0 L598 598 L0 598 L0 0 Z"/>
      </clipPath>
      <clipPath clipPathUnits="userSpaceOnUse" id="clipPath2">
        <path d="M579.97 556.91 L659.28 556.91 L659.28 580.0428 L579.97 580.0428 L579.97 556.91 Z"/>
      </clipPath>
      <clipPath clipPathUnits="userSpaceOnUse" id="clipPath3">
        <path d="M579.97 590.0428 L633.53 590.0428 L633.53 613.1757 L579.97 613.1757 L579.97 590.0428 Z"/>
      </clipPath>
      <clipPath clipPathUnits="userSpaceOnUse" id="clipPath4">
        <path d="M579.97 469.7773 L681.94 469.7773 L681.94 492.9101 L579.97 492.9101 L579.97 469.7773 Z"/>
      </clipPath>
      <clipPath clipPathUnits="userSpaceOnUse" id="clipPath5">
        <path d="M579.97 349.5116 L690.18 349.5116 L690.18 372.6444 L579.97 372.6444 L579.97 349.5116 Z"/>
      </clipPath>
      <clipPath clipPathUnits="userSpaceOnUse" id="clipPath6">
        <path d="M579.97 382.6444 L720.05 382.6444 L720.05 405.7773 L579.97 405.7773 L579.97 382.6444 Z"/>
      </clipPath>
      <clipPath clipPathUnits="userSpaceOnUse" id="clipPath7">
        <path d="M579.97 262.3788 L695.33 262.3788 L695.33 285.5116 L579.97 285.5116 L579.97 262.3788 Z"/>
      </clipPath>
      <clipPath clipPathUnits="userSpaceOnUse" id="clipPath8">
        <path d="M579.97 0 L678.85 0 L678.85 23.1328 L579.97 23.1328 L579.97 0 Z"/>
      </clipPath>
      <clipPath clipPathUnits="userSpaceOnUse" id="clipPath9">
        <path d="M579.97 33.1328 L703.57 33.1328 L703.57 56.2656 L579.97 56.2656 L579.97 33.1328 Z"/>
      </clipPath>
      <clipPath clipPathUnits="userSpaceOnUse" id="clipPath10">
        <path d="M711.0676 82.623 C711.0676 91.6569 681.7204 98.9804 645.5188 98.9804 C609.3172 98.9804 579.97 91.6569 579.97 82.623 C579.97 73.5891 609.3172 66.2656 645.5188 66.2656 C681.7204 66.2656 711.0676 73.5891 711.0676 82.623 Z"/>
      </clipPath>
      <clipPath clipPathUnits="userSpaceOnUse" id="clipPath11">
        <path d="M579.97 108.9804 L740.65 108.9804 L740.65 132.1132 L579.97 132.1132 L579.97 108.9804 Z"/>
      </clipPath>
      <clipPath clipPathUnits="userSpaceOnUse" id="clipPath12">
        <path d="M579.97 142.1132 L701.51 142.1132 L701.51 165.246 L579.97 165.246 L579.97 142.1132 Z"/>
      </clipPath>
      <clipPath clipPathUnits="userSpaceOnUse" id="clipPath13">
        <path d="M579.97 175.246 L767.43 175.246 L767.43 198.3788 L579.97 198.3788 L579.97 175.246 Z"/>
      </clipPath>
      <clipPath clipPathUnits="userSpaceOnUse" id="clipPath14">
        <path d="M-66 16.3574 C-66 25.3913 -84.9126 32.7147 -108.2426 32.7147 C-131.5725 32.7147 -150.4851 25.3913 -150.4851 16.3574 C-150.4851 7.3234 -131.5725 0 -108.2426 0 C-84.9126 0 -66 7.3234 -66 16.3574 Z"/>
      </clipPath>
      <clipPath clipPathUnits="userSpaceOnUse" id="clipPath15">
        <path d="M228.145 -107.1328 L285.825 -107.1328 L285.825 -84 L228.145 -84 L228.145 -107.1328 Z"/>
      </clipPath>
      <clipPath clipPathUnits="userSpaceOnUse" id="clipPath16">
        <path d="M-0 0 L513.97 0 L513.97 621.1757 L-0 621.1757 L-0 0 Z"/>
      </clipPath>
      <script type="text/ecmascript"><![CDATA[
function umlload(newLocation)
{
if (newLocation.charAt(0) != '#') {
if (newLocation.indexOf("://") > -1) {
window.parent.location.href = newLocation;
} else {
var tmp = window.parent.location.href;
tmp = tmp.substring(0, tmp.lastIndexOf("/") + 1);
window.parent.location.href = tmp.concat(newLocation);
}
} else {
window.parent.location.hash = newLocation;
}
}
]]></script>
    </defs>
    <g fill="rgb(238,238,255)" transform="matrix(0.5436,0,0,0.5436,86.4382,154.3927)" stroke="rgb(238,238,255)">
      <rect width="76.1412" x="571.97" height="17.9688" y="530.91" stroke="none"/>
    </g>
    <g fill="rgb(166,166,178)" stroke-miterlimit="1.45" transform="matrix(0.5436,0,0,0.5436,86.4382,154.3927)" stroke-linecap="butt" stroke="rgb(166,166,178)">
      <rect fill="none" width="76.1412" x="571.97" height="17.9688" y="530.91"/>
    </g>
    <g fill="rgb(238,238,255)" transform="matrix(0.5436,0,0,0.5436,86.4382,154.3927)" stroke="rgb(238,238,255)">
      <rect width="95.31" x="571.97" height="72.2969" y="548.8788" stroke="none"/>
    </g>
    <g fill="rgb(166,166,178)" stroke-miterlimit="1.45" transform="matrix(0.5436,0,0,0.5436,86.4382,154.3927)" stroke-linecap="butt" stroke="rgb(166,166,178)">
      <rect fill="none" width="95.31" x="571.97" height="72.2969" y="548.8788"/>
    </g>
    <g font-family="sans-serif" transform="matrix(0.5436,0,0,0.5436,86.4382,154.3927)">
      <text xml:space="preserve" x="577.97" y="544.0487" onclick="umlload('http://docs.oracle.com/javase/6/docs/api/java/lang/package-summary.html')" stroke="none">java.lang</text>
    </g>
    <g fill="rgb(187,187,255)" transform="matrix(0.5436,0,0,0.5436,86.4382,154.3927)" stroke="rgb(187,187,255)">
      <rect x="579.97" y="556.91" clip-path="url(#clipPath2)" width="79.31" height="23.1328" stroke="none"/>
    </g>
    <g fill="rgb(130,130,178)" stroke-miterlimit="1.45" transform="matrix(0.5436,0,0,0.5436,86.4382,154.3927)" stroke-linecap="butt" stroke="rgb(130,130,178)">
      <rect fill="none" width="79.31" x="579.97" height="23.1328" y="556.91"/>
    </g>
    <g font-size="13" font-weight="bold" font-family="sans-serif" transform="matrix(0.5436,0,0,0.5436,86.4382,154.3927)">
      <text xml:space="preserve" x="585.125" y="572.9769" onclick="umlload('http://docs.oracle.com/javase/6/docs/api/java/lang/Class.html')" stroke="none">Class&lt;T&gt;</text>
    </g>
    <g fill="rgb(187,187,255)" transform="matrix(0.5436,0,0,0.5436,86.4382,154.3927)" stroke="rgb(187,187,255)">
      <rect x="579.97" y="590.0429" clip-path="url(#clipPath3)" width="53.56" height="23.1328" stroke="none"/>
    </g>
    <g fill="rgb(130,130,178)" stroke-miterlimit="1.45" transform="matrix(0.5436,0,0,0.5436,86.4382,154.3927)" stroke-linecap="butt" stroke="rgb(130,130,178)">
      <rect fill="none" width="53.56" x="579.97" height="23.1328" y="590.0429"/>
    </g>
    <g font-size="13" font-weight="bold" font-family="sans-serif" transform="matrix(0.5436,0,0,0.5436,86.4382,154.3927)">
      <text xml:space="preserve" x="584.75" y="606.1097" onclick="umlload('http://docs.oracle.com/javase/6/docs/api/java/lang/String.html')" stroke="none">String</text>
    </g>
    <g fill="rgb(238,238,255)" transform="matrix(0.5436,0,0,0.5436,86.4382,154.3927)" stroke="rgb(238,238,255)">
      <rect width="59.1668" x="571.97" height="17.9688" y="443.7772" stroke="none"/>
    </g>
    <g fill="rgb(166,166,178)" stroke-miterlimit="1.45" transform="matrix(0.5436,0,0,0.5436,86.4382,154.3927)" stroke-linecap="butt" stroke="rgb(166,166,178)">
      <rect fill="none" width="59.1668" x="571.97" height="17.9688" y="443.7772"/>
    </g>
    <g fill="rgb(238,238,255)" transform="matrix(0.5436,0,0,0.5436,86.4382,154.3927)" stroke="rgb(238,238,255)">
      <rect width="117.97" x="571.97" height="39.1641" y="461.746" stroke="none"/>
    </g>
    <g fill="rgb(166,166,178)" stroke-miterlimit="1.45" transform="matrix(0.5436,0,0,0.5436,86.4382,154.3927)" stroke-linecap="butt" stroke="rgb(166,166,178)">
      <rect fill="none" width="117.97" x="571.97" height="39.1641" y="461.746"/>
    </g>
    <g font-family="sans-serif" transform="matrix(0.5436,0,0,0.5436,86.4382,154.3927)">
      <text xml:space="preserve" x="577.97" y="456.9159" onclick="umlload('http://docs.oracle.com/javase/6/docs/api/java/io/package-summary.html')" stroke="none">java.io</text>
    </g>
    <g fill="rgb(204,204,255)" transform="matrix(0.5436,0,0,0.5436,86.4382,154.3927)" stroke="rgb(204,204,255)">
      <rect x="579.97" y="469.7772" clip-path="url(#clipPath4)" width="101.97" height="23.1328" stroke="none"/>
    </g>
    <g fill="rgb(142,142,178)" stroke-miterlimit="1.45" transform="matrix(0.5436,0,0,0.5436,86.4382,154.3927)" stroke-linecap="butt" stroke="rgb(142,142,178)">
      <rect fill="none" width="101.97" x="579.97" height="23.1328" y="469.7772"/>
    </g>
    <g font-size="13" font-weight="bold" font-family="sans-serif" transform="matrix(0.5436,0,0,0.5436,86.4382,154.3927)">
      <text xml:space="preserve" x="585.455" y="485.8441" onclick="umlload('http://docs.oracle.com/javase/6/docs/api/java/io/InputStream.html')" stroke="none">InputStream</text>
    </g>
    <g fill="rgb(238,238,255)" transform="matrix(0.5436,0,0,0.5436,86.4382,154.3927)" stroke="rgb(238,238,255)">
      <rect width="311.661" x="571.97" height="17.9688" y="323.5116" stroke="none"/>
    </g>
    <g fill="rgb(166,166,178)" stroke-miterlimit="1.45" transform="matrix(0.5436,0,0,0.5436,86.4382,154.3927)" stroke-linecap="butt" stroke="rgb(166,166,178)">
      <rect fill="none" width="311.661" x="571.97" height="17.9688" y="323.5116"/>
    </g>
    <g fill="rgb(238,238,255)" transform="matrix(0.5436,0,0,0.5436,86.4382,154.3927)" stroke="rgb(238,238,255)">
      <rect width="312.08" x="571.97" height="72.2969" y="341.4804" stroke="none"/>
    </g>
    <g fill="rgb(166,166,178)" stroke-miterlimit="1.45" transform="matrix(0.5436,0,0,0.5436,86.4382,154.3927)" stroke-linecap="butt" stroke="rgb(166,166,178)">
      <rect fill="none" width="312.08" x="571.97" height="72.2969" y="341.4804"/>
    </g>
    <g font-family="sans-serif" transform="matrix(0.5436,0,0,0.5436,86.4382,154.3927)">
      <text xml:space="preserve" x="577.97" y="336.6503" onclick="umlload('../../../../../com/msopentech/odatajclient/engine/format/package-summary.html')" stroke="none">com.msopentech.odatajclient.engine.format</text>
    </g>
    <g fill="rgb(170,170,255)" transform="matrix(0.5436,0,0,0.5436,86.4382,154.3927)" stroke="rgb(170,170,255)">
      <rect x="579.97" y="349.5116" clip-path="url(#clipPath5)" width="110.21" height="23.1328" stroke="none"/>
    </g>
    <g fill="rgb(118,118,178)" stroke-miterlimit="1.45" transform="matrix(0.5436,0,0,0.5436,86.4382,154.3927)" stroke-linecap="butt" stroke="rgb(118,118,178)">
      <rect fill="none" width="110.21" x="579.97" height="23.1328" y="349.5116"/>
    </g>
    <g font-size="13" font-weight="bold" font-family="sans-serif" transform="matrix(0.5436,0,0,0.5436,86.4382,154.3927)">
      <text xml:space="preserve" x="585.575" y="365.5785" onclick="umlload('../../../../../com/msopentech/odatajclient/engine/format/ODataFormat.html')" stroke="none">ODataFormat</text>
    </g>
    <g fill="rgb(170,170,255)" transform="matrix(0.5436,0,0,0.5436,86.4382,154.3927)" stroke="rgb(170,170,255)">
      <rect x="579.97" y="382.6444" clip-path="url(#clipPath6)" width="140.08" height="23.1328" stroke="none"/>
    </g>
    <g fill="rgb(118,118,178)" stroke-miterlimit="1.45" transform="matrix(0.5436,0,0,0.5436,86.4382,154.3927)" stroke-linecap="butt" stroke="rgb(118,118,178)">
      <rect fill="none" width="140.08" x="579.97" height="23.1328" y="382.6444"/>
    </g>
    <g font-size="13" font-weight="bold" font-family="sans-serif" transform="matrix(0.5436,0,0,0.5436,86.4382,154.3927)">
      <text xml:space="preserve" x="586.01" y="398.7113" onclick="umlload('../../../../../com/msopentech/odatajclient/engine/format/ODataPubFormat.html')" stroke="none">ODataPubFormat</text>
    </g>
    <g fill="rgb(238,238,255)" transform="matrix(0.5436,0,0,0.5436,86.4382,154.3927)" stroke="rgb(238,238,255)">
      <rect width="367.8887" x="571.97" height="17.9688" y="236.3788" stroke="none"/>
    </g>
    <g fill="rgb(166,166,178)" stroke-miterlimit="1.45" transform="matrix(0.5436,0,0,0.5436,86.4382,154.3927)" stroke-linecap="butt" stroke="rgb(166,166,178)">
      <rect fill="none" width="367.8887" x="571.97" height="17.9688" y="236.3788"/>
    </g>
    <g fill="rgb(238,238,255)" transform="matrix(0.5436,0,0,0.5436,86.4382,154.3927)" stroke="rgb(238,238,255)">
      <rect width="368.36" x="571.97" height="39.1641" y="254.3475" stroke="none"/>
    </g>
    <g fill="rgb(166,166,178)" stroke-miterlimit="1.45" transform="matrix(0.5436,0,0,0.5436,86.4382,154.3927)" stroke-linecap="butt" stroke="rgb(166,166,178)">
      <rect fill="none" width="368.36" x="571.97" height="39.1641" y="254.3475"/>
    </g>
    <g font-family="sans-serif" transform="matrix(0.5436,0,0,0.5436,86.4382,154.3927)">
      <text xml:space="preserve" x="577.97" y="249.5175" onclick="umlload('../../../../../com/msopentech/odatajclient/engine/data/metadata/package-summary.html')" stroke="none">com.msopentech.odatajclient.engine.data.metadata</text>
    </g>
    <g fill="rgb(187,187,255)" transform="matrix(0.5436,0,0,0.5436,86.4382,154.3927)" stroke="rgb(187,187,255)">
      <rect x="579.97" y="262.3788" clip-path="url(#clipPath7)" width="115.36" height="23.1328" stroke="none"/>
    </g>
    <g fill="rgb(130,130,178)" stroke-miterlimit="1.45" transform="matrix(0.5436,0,0,0.5436,86.4382,154.3927)" stroke-linecap="butt" stroke="rgb(130,130,178)">
      <rect fill="none" width="115.36" x="579.97" height="23.1328" y="262.3788"/>
    </g>
    <g font-size="13" font-weight="bold" font-family="sans-serif" transform="matrix(0.5436,0,0,0.5436,86.4382,154.3927)">
      <text xml:space="preserve" x="585.65" y="278.4457" onclick="umlload('../../../../../com/msopentech/odatajclient/engine/data/metadata/EdmMetadata.html')" stroke="none">EdmMetadata</text>
    </g>
    <g fill="rgb(238,238,255)" transform="matrix(0.5436,0,0,0.5436,86.4382,154.3927)" stroke="rgb(238,238,255)">
      <rect width="298.9302" x="571.97" height="17.9688" y="-26" stroke="none"/>
    </g>
    <g fill="rgb(166,166,178)" stroke-miterlimit="1.45" transform="matrix(0.5436,0,0,0.5436,86.4382,154.3927)" stroke-linecap="butt" stroke="rgb(166,166,178)">
      <rect fill="none" width="298.9302" x="571.97" height="17.9688" y="-26"/>
    </g>
    <g fill="rgb(238,238,255)" transform="matrix(0.5436,0,0,0.5436,86.4382,154.3927)" stroke="rgb(238,238,255)">
      <rect width="298.9302" x="571.97" height="214.41" y="-8.0312" stroke="none"/>
    </g>
    <g fill="rgb(166,166,178)" stroke-miterlimit="1.45" transform="matrix(0.5436,0,0,0.5436,86.4382,154.3927)" stroke-linecap="butt" stroke="rgb(166,166,178)">
      <rect fill="none" width="298.9302" x="571.97" height="214.41" y="-8.0312"/>
    </g>
    <g font-family="sans-serif" transform="matrix(0.5436,0,0,0.5436,86.4382,154.3927)">
      <text xml:space="preserve" x="577.97" y="-12.8613" onclick="umlload('../../../../../com/msopentech/odatajclient/engine/data/package-summary.html')" stroke="none">com.msopentech.odatajclient.engine.data</text>
    </g>
    <g fill="rgb(187,187,255)" transform="matrix(0.5436,0,0,0.5436,86.4382,154.3927)" stroke="rgb(187,187,255)">
      <rect x="579.97" y="0" clip-path="url(#clipPath8)" width="98.88" height="23.1328" stroke="none"/>
    </g>
    <g fill="rgb(130,130,178)" stroke-miterlimit="1.45" transform="matrix(0.5436,0,0,0.5436,86.4382,154.3927)" stroke-linecap="butt" stroke="rgb(130,130,178)">
      <rect fill="none" width="98.88" x="579.97" height="23.1328" y="0"/>
    </g>
    <g font-size="13" font-weight="bold" font-family="sans-serif" transform="matrix(0.5436,0,0,0.5436,86.4382,154.3927)">
      <text xml:space="preserve" x="585.41" y="16.0669" onclick="umlload('../../../../../com/msopentech/odatajclient/engine/data/ODataEntity.html')" stroke="none">ODataEntity</text>
    </g>
    <g fill="rgb(187,187,255)" transform="matrix(0.5436,0,0,0.5436,86.4382,154.3927)" stroke="rgb(187,187,255)">
      <rect x="579.97" y="33.1328" clip-path="url(#clipPath9)" width="123.6" height="23.1328" stroke="none"/>
    </g>
    <g fill="rgb(130,130,178)" stroke-miterlimit="1.45" transform="matrix(0.5436,0,0,0.5436,86.4382,154.3927)" stroke-linecap="butt" stroke="rgb(130,130,178)">
      <rect fill="none" width="123.6" x="579.97" height="23.1328" y="33.1328"/>
    </g>
    <g font-size="13" font-weight="bold" font-family="sans-serif" transform="matrix(0.5436,0,0,0.5436,86.4382,154.3927)">
      <text xml:space="preserve" x="585.77" y="49.1997" onclick="umlload('../../../../../com/msopentech/odatajclient/engine/data/ODataEntitySet.html')" stroke="none">ODataEntitySet</text>
    </g>
    <g fill="rgb(221,221,255)" transform="matrix(0.5436,0,0,0.5436,86.4382,154.3927)" stroke="rgb(221,221,255)">
      <rect x="579.97" y="66.2656" clip-path="url(#clipPath10)" width="131.0976" height="32.7147" stroke="none"/>
    </g>
    <g fill="rgb(154,154,178)" stroke-miterlimit="1.45" transform="matrix(0.5436,0,0,0.5436,86.4382,154.3927)" stroke-linecap="butt" stroke="rgb(154,154,178)">
      <ellipse rx="65.5488" fill="none" ry="16.3574" cx="645.5188" cy="82.623"/>
    </g>
    <g font-style="italic" font-size="13" font-weight="bold" font-family="sans-serif" transform="matrix(0.5436,0,0,0.5436,86.4382,154.3927)">
      <text xml:space="preserve" x="604.5188" y="87.1235" onclick="umlload('../../../../../com/msopentech/odatajclient/engine/data/ODataError.html')" stroke="none">ODataError</text>
    </g>
    <g fill="rgb(187,187,255)" transform="matrix(0.5436,0,0,0.5436,86.4382,154.3927)" stroke="rgb(187,187,255)">
      <rect x="579.97" y="108.9804" clip-path="url(#clipPath11)" width="160.68" height="23.1328" stroke="none"/>
    </g>
    <g fill="rgb(130,130,178)" stroke-miterlimit="1.45" transform="matrix(0.5436,0,0,0.5436,86.4382,154.3927)" stroke-linecap="butt" stroke="rgb(130,130,178)">
      <rect fill="none" width="160.68" x="579.97" height="23.1328" y="108.9804"/>
    </g>
    <g font-size="13" font-weight="bold" font-family="sans-serif" transform="matrix(0.5436,0,0,0.5436,86.4382,154.3927)">
      <text xml:space="preserve" x="586.31" y="125.0473" onclick="umlload('../../../../../com/msopentech/odatajclient/engine/data/ODataLinkCollection.html')" stroke="none">ODataLinkCollection</text>
    </g>
    <g fill="rgb(187,187,255)" transform="matrix(0.5436,0,0,0.5436,86.4382,154.3927)" stroke="rgb(187,187,255)">
      <rect x="579.97" y="142.1132" clip-path="url(#clipPath12)" width="121.54" height="23.1328" stroke="none"/>
    </g>
    <g fill="rgb(130,130,178)" stroke-miterlimit="1.45" transform="matrix(0.5436,0,0,0.5436,86.4382,154.3927)" stroke-linecap="butt" stroke="rgb(130,130,178)">
      <rect fill="none" width="121.54" x="579.97" height="23.1328" y="142.1132"/>
    </g>
    <g font-size="13" font-weight="bold" font-family="sans-serif" transform="matrix(0.5436,0,0,0.5436,86.4382,154.3927)">
      <text xml:space="preserve" x="585.74" y="158.1801" onclick="umlload('../../../../../com/msopentech/odatajclient/engine/data/ODataProperty.html')" stroke="none">ODataProperty</text>
    </g>
    <g fill="rgb(187,187,255)" transform="matrix(0.5436,0,0,0.5436,86.4382,154.3927)" stroke="rgb(187,187,255)">
      <rect x="579.97" y="175.246" clip-path="url(#clipPath13)" width="187.46" height="23.1328" stroke="none"/>
    </g>
    <g fill="rgb(130,130,178)" stroke-miterlimit="1.45" transform="matrix(0.5436,0,0,0.5436,86.4382,154.3927)" stroke-linecap="butt" stroke="rgb(130,130,178)">
      <rect fill="none" width="187.46" x="579.97" height="23.1328" y="175.246"/>
    </g>
    <g font-size="13" font-weight="bold" font-family="sans-serif" transform="matrix(0.5436,0,0,0.5436,86.4382,154.3927)">
      <text xml:space="preserve" x="586.7" y="191.3129" onclick="umlload('../../../../../com/msopentech/odatajclient/engine/data/ODataServiceDocument.html')" stroke="none">ODataServiceDocument</text>
    </g>
    <g fill="rgb(238,238,255)" transform="matrix(0.5436,0,0,0.5436,86.4382,154.3927)" stroke="rgb(238,238,255)">
      <rect width="69.7758" x="-158.4851" height="17.9688" y="-26" stroke="none"/>
    </g>
    <g fill="rgb(166,166,178)" stroke-miterlimit="1.45" transform="matrix(0.5436,0,0,0.5436,86.4382,154.3927)" stroke-linecap="butt" stroke="rgb(166,166,178)">
      <rect fill="none" width="69.7758" x="-158.4851" height="17.9688" y="-26"/>
    </g>
    <g fill="rgb(238,238,255)" transform="matrix(0.5436,0,0,0.5436,86.4382,154.3927)" stroke="rgb(238,238,255)">
      <rect width="100.4851" x="-158.4851" height="48.746" y="-8.0312" stroke="none"/>
    </g>
    <g fill="rgb(166,166,178)" stroke-miterlimit="1.45" transform="matrix(0.5436,0,0,0.5436,86.4382,154.3927)" stroke-linecap="butt" stroke="rgb(166,166,178)">
      <rect fill="none" width="100.4851" x="-158.4851" height="48.746" y="-8.0312"/>
    </g>
    <g font-family="sans-serif" transform="matrix(0.5436,0,0,0.5436,86.4382,154.3927)">
      <text xml:space="preserve" x="-152.4851" y="-12.8613" stroke="none">org.slf4j</text>
    </g>
    <g fill="rgb(221,221,255)" transform="matrix(0.5436,0,0,0.5436,86.4382,154.3927)" stroke="rgb(221,221,255)">
      <rect x="-150.4851" y="0" clip-path="url(#clipPath14)" width="84.4851" height="32.7147" stroke="none"/>
    </g>
    <g fill="rgb(154,154,178)" stroke-miterlimit="1.45" transform="matrix(0.5436,0,0,0.5436,86.4382,154.3927)" stroke-linecap="butt" stroke="rgb(154,154,178)">
      <ellipse rx="42.2426" fill="none" ry="16.3574" cx="-108.2426" cy="16.3574"/>
    </g>
    <g font-style="italic" font-size="13" font-weight="bold" font-family="sans-serif" transform="matrix(0.5436,0,0,0.5436,86.4382,154.3927)">
      <text xml:space="preserve" x="-133.2426" y="20.8579" stroke="none">Logger</text>
    </g>
    <g fill="rgb(238,238,255)" transform="matrix(0.5436,0,0,0.5436,86.4382,154.3927)" stroke="rgb(238,238,255)">
      <rect width="76.1412" x="220.145" height="17.9688" y="-133.1328" stroke="none"/>
    </g>
    <g fill="rgb(166,166,178)" stroke-miterlimit="1.45" transform="matrix(0.5436,0,0,0.5436,86.4382,154.3927)" stroke-linecap="butt" stroke="rgb(166,166,178)">
      <rect fill="none" width="76.1412" x="220.145" height="17.9688" y="-133.1328"/>
    </g>
    <g fill="rgb(238,238,255)" transform="matrix(0.5436,0,0,0.5436,86.4382,154.3927)" stroke="rgb(238,238,255)">
      <rect width="76.1412" x="220.145" height="39.1641" y="-115.1641" stroke="none"/>
    </g>
    <g fill="rgb(166,166,178)" stroke-miterlimit="1.45" transform="matrix(0.5436,0,0,0.5436,86.4382,154.3927)" stroke-linecap="butt" stroke="rgb(166,166,178)">
      <rect fill="none" width="76.1412" x="220.145" height="39.1641" y="-115.1641"/>
    </g>
    <g font-family="sans-serif" transform="matrix(0.5436,0,0,0.5436,86.4382,154.3927)">
      <text xml:space="preserve" x="226.145" y="-119.9941" onclick="umlload('http://docs.oracle.com/javase/6/docs/api/java/lang/package-summary.html')" stroke="none">java.lang</text>
    </g>
    <g fill="rgb(187,187,255)" transform="matrix(0.5436,0,0,0.5436,86.4382,154.3927)" stroke="rgb(187,187,255)">
      <rect x="228.145" y="-107.1328" clip-path="url(#clipPath15)" width="57.68" height="23.1328" stroke="none"/>
    </g>
    <g fill="rgb(130,130,178)" stroke-miterlimit="1.45" transform="matrix(0.5436,0,0,0.5436,86.4382,154.3927)" stroke-linecap="butt" stroke="rgb(130,130,178)">
      <rect fill="none" width="57.68" x="228.145" height="23.1328" y="-107.1328"/>
    </g>
    <g font-size="13" font-weight="bold" font-family="sans-serif" transform="matrix(0.5436,0,0,0.5436,86.4382,154.3927)">
      <text xml:space="preserve" x="232.985" y="-91.0659" onclick="umlload('http://docs.oracle.com/javase/6/docs/api/java/lang/Object.html')" stroke="none">Object</text>
    </g>
    <g fill="rgb(238,238,255)" transform="matrix(0.5436,0,0,0.5436,86.4382,154.3927)" stroke="rgb(238,238,255)">
      <rect width="298.9302" x="-8" height="17.9688" y="-26" stroke="none"/>
    </g>
    <g fill="rgb(166,166,178)" stroke-miterlimit="1.45" transform="matrix(0.5436,0,0,0.5436,86.4382,154.3927)" stroke-linecap="butt" stroke="rgb(166,166,178)">
      <rect fill="none" width="298.9302" x="-8" height="17.9688" y="-26"/>
    </g>
    <g fill="rgb(238,238,255)" transform="matrix(0.5436,0,0,0.5436,86.4382,154.3927)" stroke="rgb(238,238,255)">
      <rect width="529.97" x="-8" height="637.2069" y="-8.0312" stroke="none"/>
    </g>
    <g fill="rgb(166,166,178)" stroke-miterlimit="1.45" transform="matrix(0.5436,0,0,0.5436,86.4382,154.3927)" stroke-linecap="butt" stroke="rgb(166,166,178)">
      <rect fill="none" width="529.97" x="-8" height="637.2069" y="-8.0312"/>
    </g>
    <g font-family="sans-serif" transform="matrix(0.5436,0,0,0.5436,86.4382,154.3927)">
      <text xml:space="preserve" x="-2" y="-12.8613" onclick="umlload('package-summary.html')" stroke="none">com.msopentech.odatajclient.engine.data</text>
    </g>
    <g fill="rgb(187,187,255)" transform="matrix(0.5436,0,0,0.5436,86.4382,154.3927)" stroke="rgb(187,187,255)">
      <rect x="0" y="0" clip-path="url(#clipPath16)" width="513.97" height="26.625" stroke="none"/>
      <line clip-path="url(#clipPath16)" fill="none" x1="0" x2="513.97" y1="26.625" y2="26.625" stroke="black"/>
      <line clip-path="url(#clipPath16)" x1="0" x2="513.97" y1="27.625" y2="27.625" stroke="none"/>
      <line clip-path="url(#clipPath16)" fill="none" x1="0" x2="513.97" y1="27.625" y2="27.625" stroke="black"/>
      <rect x="0" y="28.625" clip-path="url(#clipPath16)" width="513.97" height="592.5507" stroke="none"/>
    </g>
    <g fill="rgb(130,130,178)" stroke-miterlimit="1.45" transform="matrix(0.5436,0,0,0.5436,86.4382,154.3927)" stroke-linecap="butt" stroke="rgb(130,130,178)">
      <rect fill="none" width="513.97" x="0" height="621.1757" y="0"/>
    </g>
    <g font-size="16" font-weight="bold" font-family="sans-serif" transform="matrix(0.5436,0,0,0.5436,86.4382,154.3927)">
      <text xml:space="preserve" x="197.985" y="18.8516" onclick="umlload('#')" stroke="none">ODataReader</text>
    </g>
    <g font-family="sans-serif" transform="matrix(0.5436,0,0,0.5436,86.4382,154.3927)">
      <text xml:space="preserve" x="4" y="39.1719" stroke="none">+</text>
      <text xml:space="preserve" x="19" y="40.7637" onclick="umlload('#read(java.io.InputStream, java.lang.String, java.lang.Class)')" stroke="none">read(InputStream, String, Class&lt;T&gt;) : &lt;T&gt; T</text>
      <line y2="43.5938" fill="none" x1="19" x2="298" y1="43.5938"/>
    </g>
    <g font-family="sans-serif" transform="matrix(0.5436,0,0,0.5436,86.4382,154.3927)">
      <text xml:space="preserve" x="4" y="55.1719" stroke="none">+</text>
      <text xml:space="preserve" x="19" y="56.7324" onclick="umlload('#readEntity(java.io.InputStream, com.msopentech.odatajclient.engine.format.ODataPubFormat)')" stroke="none">readEntity(InputStream, ODataPubFormat) : ODataEntity</text>
      <line y2="59.5625" fill="none" x1="19" x2="371" y1="59.5625"/>
    </g>
    <g font-family="sans-serif" transform="matrix(0.5436,0,0,0.5436,86.4382,154.3927)">
      <text xml:space="preserve" x="4" y="71.1719" stroke="none">+</text>
      <text xml:space="preserve" x="19" y="72.7012" onclick="umlload('#readEntitySet(java.io.InputStream, com.msopentech.odatajclient.engine.format.ODataPubFormat)')" stroke="none">readEntitySet(InputStream, ODataPubFormat) : ODataEntitySet</text>
      <line y2="75.5312" fill="none" x1="19" x2="413" y1="75.5312"/>
    </g>
    <g font-family="sans-serif" transform="matrix(0.5436,0,0,0.5436,86.4382,154.3927)">
      <text xml:space="preserve" x="4" y="87.1719" stroke="none">+</text>
      <text xml:space="preserve" x="19" y="88.6699" onclick="umlload('#readError(java.io.InputStream, boolean)')" stroke="none">readError(InputStream, boolean) : ODataError</text>
      <line y2="91.5" fill="none" x1="19" x2="307" y1="91.5"/>
    </g>
    <g font-family="sans-serif" transform="matrix(0.5436,0,0,0.5436,86.4382,154.3927)">
      <text xml:space="preserve" x="4" y="103.1719" stroke="none">+</text>
      <text xml:space="preserve" x="19" y="104.6387" onclick="umlload('#readLinks(java.io.InputStream, com.msopentech.odatajclient.engine.format.ODataFormat)')" stroke="none">readLinks(InputStream, ODataFormat) : ODataLinkCollection</text>
      <line y2="107.4688" fill="none" x1="19" x2="393" y1="107.4688"/>
    </g>
    <g font-family="sans-serif" transform="matrix(0.5436,0,0,0.5436,86.4382,154.3927)">
      <text xml:space="preserve" x="4" y="119.1719" stroke="none">+</text>
      <text xml:space="preserve" x="19" y="120.6074" onclick="umlload('#readMetadata(java.io.InputStream)')" stroke="none">readMetadata(InputStream) : EdmMetadata</text>
      <line y2="123.4375" fill="none" x1="19" x2="294" y1="123.4375"/>
    </g>
    <g font-family="sans-serif" transform="matrix(0.5436,0,0,0.5436,86.4382,154.3927)">
      <text xml:space="preserve" x="4" y="135.1719" stroke="none">+</text>
      <text xml:space="preserve" x="19" y="136.5762" onclick="umlload('#readProperty(java.io.InputStream, com.msopentech.odatajclient.engine.format.ODataFormat)')" stroke="none">readProperty(InputStream, ODataFormat) : ODataProperty</text>
      <line y2="139.4062" fill="none" x1="19" x2="383" y1="139.4062"/>
    </g>
    <g font-family="sans-serif" transform="matrix(0.5436,0,0,0.5436,86.4382,154.3927)">
      <text xml:space="preserve" x="4" y="151.1719" stroke="none">+</text>
      <text xml:space="preserve" x="19" y="152.5449" onclick="umlload('#readServiceDocument(java.io.InputStream, com.msopentech.odatajclient.engine.format.ODataFormat)')" stroke="none">readServiceDocument(InputStream, ODataFormat) : ODataServiceDocument</text>
      <line y2="155.375" fill="none" x1="19" x2="495" y1="155.375"/>
    </g>
    <g font-family="sans-serif" transform="matrix(0.5436,0,0,0.5436,86.4382,154.3927)">
      <text xml:space="preserve" x="-153" y="654.1543" onclick="umlload('http://www.yworks.com/')" stroke="none">yWorks UML Doclet</text>
    </g>
    <g stroke-miterlimit="1.45" transform="matrix(0.5436,0,0,0.5436,86.4382,154.3927)" stroke-linecap="butt">
      <path fill="none" d="M256.985 0.0067 L256.985 -69"/>
      <path fill="white" d="M256.985 -84 L250.985 -68 L262.985 -68 Z" stroke="none"/>
      <path fill="none" d="M256.985 -84 L250.985 -68 L262.985 -68 Z"/>
      <path fill="none" d="M-0.0385 16.3574 L-66 16.3574"/>
      <line stroke-linecap="square" transform="matrix(-1,0,0,-1,-66,16.3574)" fill="none" x1="0" x2="-14" y1="0" y2="-4" stroke-miterlimit="10"/>
      <line stroke-linecap="square" transform="matrix(-1,0,0,-1,-66,16.3574)" fill="none" x1="0" x2="-14" y1="0" y2="4" stroke-miterlimit="10"/>
    </g>
    <g stroke-dasharray="6,2" stroke-miterlimit="1.45" transform="matrix(0.5436,0,0,0.5436,86.4382,154.3927)" stroke-linecap="butt">
      <path fill="none" d="M513.9819 11.5664 L579.97 11.5664"/>
      <line stroke-linecap="square" transform="matrix(1,0,0,1,579.97,11.5664)" fill="none" x1="0" x2="-14" y1="0" y2="-4" stroke-dasharray="none" stroke-miterlimit="10"/>
      <line stroke-linecap="square" transform="matrix(1,0,0,1,579.97,11.5664)" fill="none" x1="0" x2="-14" y1="0" y2="4" stroke-dasharray="none" stroke-miterlimit="10"/>
    </g>
    <g stroke-dasharray="6,2" stroke-miterlimit="1.45" transform="matrix(0.5436,0,0,0.5436,86.4382,154.3927)" stroke-linecap="butt">
      <path fill="none" d="M513.9624 44.6992 L579.97 44.6992"/>
      <line stroke-linecap="square" transform="matrix(1,0,0,1,579.97,44.6992)" fill="none" x1="0" x2="-14" y1="0" y2="-4" stroke-dasharray="none" stroke-miterlimit="10"/>
      <line stroke-linecap="square" transform="matrix(1,0,0,1,579.97,44.6992)" fill="none" x1="0" x2="-14" y1="0" y2="4" stroke-dasharray="none" stroke-miterlimit="10"/>
    </g>
    <g stroke-dasharray="6,2" stroke-miterlimit="1.45" transform="matrix(0.5436,0,0,0.5436,86.4382,154.3927)" stroke-linecap="butt">
      <path fill="none" d="M513.9998 82.623 L579.97 82.623"/>
      <line stroke-linecap="square" transform="matrix(1,0,0,1,579.97,82.623)" fill="none" x1="0" x2="-14" y1="0" y2="-4" stroke-dasharray="none" stroke-miterlimit="10"/>
      <line stroke-linecap="square" transform="matrix(1,0,0,1,579.97,82.623)" fill="none" x1="0" x2="-14" y1="0" y2="4" stroke-dasharray="none" stroke-miterlimit="10"/>
    </g>
    <g stroke-dasharray="6,2" stroke-miterlimit="1.45" transform="matrix(0.5436,0,0,0.5436,86.4382,154.3927)" stroke-linecap="butt">
      <path fill="none" d="M513.9373 120.5468 L579.97 120.5468"/>
      <line stroke-linecap="square" transform="matrix(1,0,0,1,579.97,120.5468)" fill="none" x1="0" x2="-14" y1="0" y2="-4" stroke-dasharray="none" stroke-miterlimit="10"/>
      <line stroke-linecap="square" transform="matrix(1,0,0,1,579.97,120.5468)" fill="none" x1="0" x2="-14" y1="0" y2="4" stroke-dasharray="none" stroke-miterlimit="10"/>
    </g>
    <g stroke-dasharray="6,2" stroke-miterlimit="1.45" transform="matrix(0.5436,0,0,0.5436,86.4382,154.3927)" stroke-linecap="butt">
      <path fill="none" d="M513.9304 153.6796 L579.97 153.6796"/>
      <line stroke-linecap="square" transform="matrix(1,0,0,1,579.97,153.6796)" fill="none" x1="0" x2="-14" y1="0" y2="-4" stroke-dasharray="none" stroke-miterlimit="10"/>
      <line stroke-linecap="square" transform="matrix(1,0,0,1,579.97,153.6796)" fill="none" x1="0" x2="-14" y1="0" y2="4" stroke-dasharray="none" stroke-miterlimit="10"/>
    </g>
    <g stroke-dasharray="6,2" stroke-miterlimit="1.45" transform="matrix(0.5436,0,0,0.5436,86.4382,154.3927)" stroke-linecap="butt">
      <path fill="none" d="M513.9474 186.8124 L579.97 186.8124"/>
      <line stroke-linecap="square" transform="matrix(1,0,0,1,579.97,186.8124)" fill="none" x1="0" x2="-14" y1="0" y2="-4" stroke-dasharray="none" stroke-miterlimit="10"/>
      <line stroke-linecap="square" transform="matrix(1,0,0,1,579.97,186.8124)" fill="none" x1="0" x2="-14" y1="0" y2="4" stroke-dasharray="none" stroke-miterlimit="10"/>
    </g>
    <g stroke-dasharray="6,2" stroke-miterlimit="1.45" transform="matrix(0.5436,0,0,0.5436,86.4382,154.3927)" stroke-linecap="butt">
      <path fill="none" d="M513.9989 273.9452 L579.97 273.9452"/>
      <line stroke-linecap="square" transform="matrix(1,0,0,1,579.97,273.9452)" fill="none" x1="0" x2="-14" y1="0" y2="-4" stroke-dasharray="none" stroke-miterlimit="10"/>
      <line stroke-linecap="square" transform="matrix(1,0,0,1,579.97,273.9452)" fill="none" x1="0" x2="-14" y1="0" y2="4" stroke-dasharray="none" stroke-miterlimit="10"/>
    </g>
    <g stroke-dasharray="6,2" stroke-miterlimit="1.45" transform="matrix(0.5436,0,0,0.5436,86.4382,154.3927)" stroke-linecap="butt">
      <path fill="none" d="M514.0142 361.078 L579.97 361.078"/>
      <line stroke-linecap="square" transform="matrix(1,0,0,1,579.97,361.078)" fill="none" x1="0" x2="-14" y1="0" y2="-4" stroke-dasharray="none" stroke-miterlimit="10"/>
      <line stroke-linecap="square" transform="matrix(1,0,0,1,579.97,361.078)" fill="none" x1="0" x2="-14" y1="0" y2="4" stroke-dasharray="none" stroke-miterlimit="10"/>
    </g>
    <g stroke-dasharray="6,2" stroke-miterlimit="1.45" transform="matrix(0.5436,0,0,0.5436,86.4382,154.3927)" stroke-linecap="butt">
      <path fill="none" d="M513.9961 394.2108 L579.97 394.2108"/>
      <line stroke-linecap="square" transform="matrix(1,0,0,1,579.97,394.2108)" fill="none" x1="0" x2="-14" y1="0" y2="-4" stroke-dasharray="none" stroke-miterlimit="10"/>
      <line stroke-linecap="square" transform="matrix(1,0,0,1,579.97,394.2108)" fill="none" x1="0" x2="-14" y1="0" y2="4" stroke-dasharray="none" stroke-miterlimit="10"/>
    </g>
    <g stroke-dasharray="6,2" stroke-miterlimit="1.45" transform="matrix(0.5436,0,0,0.5436,86.4382,154.3927)" stroke-linecap="butt">
      <path fill="none" d="M513.9524 481.3437 L579.97 481.3437"/>
      <line stroke-linecap="square" transform="matrix(1,0,0,1,579.97,481.3437)" fill="none" x1="0" x2="-14" y1="0" y2="-4" stroke-dasharray="none" stroke-miterlimit="10"/>
      <line stroke-linecap="square" transform="matrix(1,0,0,1,579.97,481.3437)" fill="none" x1="0" x2="-14" y1="0" y2="4" stroke-dasharray="none" stroke-miterlimit="10"/>
    </g>
    <g stroke-dasharray="6,2" stroke-miterlimit="1.45" transform="matrix(0.5436,0,0,0.5436,86.4382,154.3927)" stroke-linecap="butt">
      <path fill="none" d="M513.9583 568.4764 L579.97 568.4764"/>
      <line stroke-linecap="square" transform="matrix(1,0,0,1,579.97,568.4764)" fill="none" x1="0" x2="-14" y1="0" y2="-4" stroke-dasharray="none" stroke-miterlimit="10"/>
      <line stroke-linecap="square" transform="matrix(1,0,0,1,579.97,568.4764)" fill="none" x1="0" x2="-14" y1="0" y2="4" stroke-dasharray="none" stroke-miterlimit="10"/>
    </g>
    <g stroke-dasharray="6,2" stroke-miterlimit="1.45" transform="matrix(0.5436,0,0,0.5436,86.4382,154.3927)" stroke-linecap="butt">
      <path fill="none" d="M513.9717 601.6093 L579.97 601.6093"/>
      <line stroke-linecap="square" transform="matrix(1,0,0,1,579.97,601.6093)" fill="none" x1="0" x2="-14" y1="0" y2="-4" stroke-dasharray="none" stroke-miterlimit="10"/>
      <line stroke-linecap="square" transform="matrix(1,0,0,1,579.97,601.6093)" fill="none" x1="0" x2="-14" y1="0" y2="4" stroke-dasharray="none" stroke-miterlimit="10"/>
    </g>
  </g>
</svg>
