<?xml version="1.0" encoding="UTF-8"?><svg xmlns="http://www.w3.org/2000/svg" xmlns:xlink="http://www.w3.org/1999/xlink" fill-opacity="1" color-rendering="auto" color-interpolation="auto" stroke="black" text-rendering="auto" stroke-linecap="square" width="598" stroke-miterlimit="10" stroke-opacity="1" shape-rendering="auto" fill="black" stroke-dasharray="none" font-weight="normal" stroke-width="1" height="598" font-family="'Dialog'" font-style="normal" stroke-linejoin="miter" font-size="12" stroke-dashoffset="0" image-rendering="auto">
  <!--Generated by ySVG-->
  <defs id="genericDefs"/>
  <g>
    <defs id="defs1">
      <clipPath clipPathUnits="userSpaceOnUse" id="clipPath1">
        <path d="M0 0 L598 0 L598 598 L0 598 L0 0 Z"/>
      </clipPath>
      <clipPath clipPathUnits="userSpaceOnUse" id="clipPath2">
        <path d="M519.1771 190.623 C519.1771 199.6569 482.9821 206.9804 438.3335 206.9804 C393.6849 206.9804 357.49 199.6569 357.49 190.623 C357.49 181.5891 393.6849 174.2656 438.3335 174.2656 C482.9821 174.2656 519.1771 181.5891 519.1771 190.623 Z"/>
      </clipPath>
      <clipPath clipPathUnits="userSpaceOnUse" id="clipPath3">
        <path d="M357.49 87.1328 L390.45 87.1328 L390.45 110.2656 L357.49 110.2656 L357.49 87.1328 Z"/>
      </clipPath>
      <clipPath clipPathUnits="userSpaceOnUse" id="clipPath4">
        <path d="M357.49 0 L411.05 0 L411.05 23.1328 L357.49 23.1328 L357.49 0 Z"/>
      </clipPath>
      <clipPath clipPathUnits="userSpaceOnUse" id="clipPath5">
        <path d="M-66 16.3574 C-66 25.3913 -95.6733 32.7147 -132.2771 32.7147 C-168.881 32.7147 -198.5542 25.3913 -198.5542 16.3574 C-198.5542 7.3234 -168.881 0 -132.2771 0 C-95.6733 0 -66 7.3234 -66 16.3574 Z"/>
      </clipPath>
      <clipPath clipPathUnits="userSpaceOnUse" id="clipPath6">
        <path d="M116.905 -107.1328 L174.585 -107.1328 L174.585 -84 L116.905 -84 L116.905 -107.1328 Z"/>
      </clipPath>
      <clipPath clipPathUnits="userSpaceOnUse" id="clipPath7">
        <path d="M0 0 L291.49 0 L291.49 214.9804 L0 214.9804 L0 0 Z"/>
      </clipPath>
      <script type="text/ecmascript"><![CDATA[
function umlload(newLocation)
{
if (newLocation.charAt(0) != '#') {
if (newLocation.indexOf("://") > -1) {
window.parent.location.href = newLocation;
} else {
var tmp = window.parent.location.href;
tmp = tmp.substring(0, tmp.lastIndexOf("/") + 1);
window.parent.location.href = tmp.concat(newLocation);
}
} else {
window.parent.location.hash = newLocation;
}
}
]]></script>
    </defs>
    <g fill="rgb(238,238,255)" transform="matrix(0.8136,0,0,0.8136,168.4163,248.1497)" stroke="rgb(238,238,255)">
      <rect width="67.654" x="349.49" height="17.9688" y="148.2656" stroke="none"/>
    </g>
    <g fill="rgb(166,166,178)" stroke-miterlimit="1.45" transform="matrix(0.8136,0,0,0.8136,168.4163,248.1497)" stroke-linecap="butt" stroke="rgb(166,166,178)">
      <rect fill="none" width="67.654" x="349.49" height="17.9688" y="148.2656"/>
    </g>
    <g fill="rgb(238,238,255)" transform="matrix(0.8136,0,0,0.8136,168.4163,248.1497)" stroke="rgb(238,238,255)">
      <rect width="177.687" x="349.49" height="48.746" y="166.2344" stroke="none"/>
    </g>
    <g fill="rgb(166,166,178)" stroke-miterlimit="1.45" transform="matrix(0.8136,0,0,0.8136,168.4163,248.1497)" stroke-linecap="butt" stroke="rgb(166,166,178)">
      <rect fill="none" width="177.687" x="349.49" height="48.746" y="166.2344"/>
    </g>
    <g font-family="sans-serif" transform="matrix(0.8136,0,0,0.8136,168.4163,248.1497)">
      <text xml:space="preserve" x="355.49" y="161.4043" onclick="umlload('http://docs.oracle.com/javase/6/docs/api/java/util/package-summary.html')" stroke="none">java.util</text>
    </g>
    <g fill="rgb(221,221,255)" transform="matrix(0.8136,0,0,0.8136,168.4163,248.1497)" stroke="rgb(221,221,255)">
      <rect x="357.49" y="174.2656" clip-path="url(#clipPath2)" width="161.687" height="32.7147" stroke="none"/>
    </g>
    <g fill="rgb(154,154,178)" stroke-miterlimit="1.45" transform="matrix(0.8136,0,0,0.8136,168.4163,248.1497)" stroke-linecap="butt" stroke="rgb(154,154,178)">
      <ellipse rx="80.8435" fill="none" ry="16.3574" cx="438.3335" cy="190.623"/>
    </g>
    <g font-style="italic" font-size="13" font-weight="bold" font-family="sans-serif" transform="matrix(0.8136,0,0,0.8136,168.4163,248.1497)">
      <text xml:space="preserve" x="386.8335" y="195.1235" onclick="umlload('http://docs.oracle.com/javase/6/docs/api/java/util/Collection.html')" stroke="none">Collection&lt;E&gt;</text>
    </g>
    <g fill="rgb(238,238,255)" transform="matrix(0.8136,0,0,0.8136,168.4163,248.1497)" stroke="rgb(238,238,255)">
      <rect width="69.7758" x="349.49" height="17.9688" y="61.1328" stroke="none"/>
    </g>
    <g fill="rgb(166,166,178)" stroke-miterlimit="1.45" transform="matrix(0.8136,0,0,0.8136,168.4163,248.1497)" stroke-linecap="butt" stroke="rgb(166,166,178)">
      <rect fill="none" width="69.7758" x="349.49" height="17.9688" y="61.1328"/>
    </g>
    <g fill="rgb(238,238,255)" transform="matrix(0.8136,0,0,0.8136,168.4163,248.1497)" stroke="rgb(238,238,255)">
      <rect width="73.96" x="349.49" height="39.1641" y="79.1016" stroke="none"/>
    </g>
    <g fill="rgb(166,166,178)" stroke-miterlimit="1.45" transform="matrix(0.8136,0,0,0.8136,168.4163,248.1497)" stroke-linecap="butt" stroke="rgb(166,166,178)">
      <rect fill="none" width="73.96" x="349.49" height="39.1641" y="79.1016"/>
    </g>
    <g font-family="sans-serif" transform="matrix(0.8136,0,0,0.8136,168.4163,248.1497)">
      <text xml:space="preserve" x="355.49" y="74.2715" onclick="umlload('http://docs.oracle.com/javase/6/docs/api/java/net/package-summary.html')" stroke="none">java.net</text>
    </g>
    <g fill="rgb(187,187,255)" transform="matrix(0.8136,0,0,0.8136,168.4163,248.1497)" stroke="rgb(187,187,255)">
      <rect x="357.49" y="87.1328" clip-path="url(#clipPath3)" width="32.96" height="23.1328" stroke="none"/>
    </g>
    <g fill="rgb(130,130,178)" stroke-miterlimit="1.45" transform="matrix(0.8136,0,0,0.8136,168.4163,248.1497)" stroke-linecap="butt" stroke="rgb(130,130,178)">
      <rect fill="none" width="32.96" x="357.49" height="23.1328" y="87.1328"/>
    </g>
    <g font-size="13" font-weight="bold" font-family="sans-serif" transform="matrix(0.8136,0,0,0.8136,168.4163,248.1497)">
      <text xml:space="preserve" x="361.97" y="103.1997" onclick="umlload('http://docs.oracle.com/javase/6/docs/api/java/net/URI.html')" stroke="none">URI</text>
    </g>
    <g fill="rgb(238,238,255)" transform="matrix(0.8136,0,0,0.8136,168.4163,248.1497)" stroke="rgb(238,238,255)">
      <rect width="76.1412" x="349.49" height="17.9688" y="-26" stroke="none"/>
    </g>
    <g fill="rgb(166,166,178)" stroke-miterlimit="1.45" transform="matrix(0.8136,0,0,0.8136,168.4163,248.1497)" stroke-linecap="butt" stroke="rgb(166,166,178)">
      <rect fill="none" width="76.1412" x="349.49" height="17.9688" y="-26"/>
    </g>
    <g fill="rgb(238,238,255)" transform="matrix(0.8136,0,0,0.8136,168.4163,248.1497)" stroke="rgb(238,238,255)">
      <rect width="79.56" x="349.49" height="39.1641" y="-8.0312" stroke="none"/>
    </g>
    <g fill="rgb(166,166,178)" stroke-miterlimit="1.45" transform="matrix(0.8136,0,0,0.8136,168.4163,248.1497)" stroke-linecap="butt" stroke="rgb(166,166,178)">
      <rect fill="none" width="79.56" x="349.49" height="39.1641" y="-8.0312"/>
    </g>
    <g font-family="sans-serif" transform="matrix(0.8136,0,0,0.8136,168.4163,248.1497)">
      <text xml:space="preserve" x="355.49" y="-12.8613" onclick="umlload('http://docs.oracle.com/javase/6/docs/api/java/lang/package-summary.html')" stroke="none">java.lang</text>
    </g>
    <g fill="rgb(187,187,255)" transform="matrix(0.8136,0,0,0.8136,168.4163,248.1497)" stroke="rgb(187,187,255)">
      <rect x="357.49" y="0" clip-path="url(#clipPath4)" width="53.56" height="23.1328" stroke="none"/>
    </g>
    <g fill="rgb(130,130,178)" stroke-miterlimit="1.45" transform="matrix(0.8136,0,0,0.8136,168.4163,248.1497)" stroke-linecap="butt" stroke="rgb(130,130,178)">
      <rect fill="none" width="53.56" x="357.49" height="23.1328" y="0"/>
    </g>
    <g font-size="13" font-weight="bold" font-family="sans-serif" transform="matrix(0.8136,0,0,0.8136,168.4163,248.1497)">
      <text xml:space="preserve" x="362.27" y="16.0669" onclick="umlload('http://docs.oracle.com/javase/6/docs/api/java/lang/String.html')" stroke="none">String</text>
    </g>
    <g fill="rgb(238,238,255)" transform="matrix(0.8136,0,0,0.8136,168.4163,248.1497)" stroke="rgb(238,238,255)">
      <rect width="67.654" x="-206.5542" height="17.9688" y="-26" stroke="none"/>
    </g>
    <g fill="rgb(166,166,178)" stroke-miterlimit="1.45" transform="matrix(0.8136,0,0,0.8136,168.4163,248.1497)" stroke-linecap="butt" stroke="rgb(166,166,178)">
      <rect fill="none" width="67.654" x="-206.5542" height="17.9688" y="-26"/>
    </g>
    <g fill="rgb(238,238,255)" transform="matrix(0.8136,0,0,0.8136,168.4163,248.1497)" stroke="rgb(238,238,255)">
      <rect width="148.5542" x="-206.5542" height="48.746" y="-8.0312" stroke="none"/>
    </g>
    <g fill="rgb(166,166,178)" stroke-miterlimit="1.45" transform="matrix(0.8136,0,0,0.8136,168.4163,248.1497)" stroke-linecap="butt" stroke="rgb(166,166,178)">
      <rect fill="none" width="148.5542" x="-206.5542" height="48.746" y="-8.0312"/>
    </g>
    <g font-family="sans-serif" transform="matrix(0.8136,0,0,0.8136,168.4163,248.1497)">
      <text xml:space="preserve" x="-200.5542" y="-12.8613" onclick="umlload('http://docs.oracle.com/javase/6/docs/api/java/util/package-summary.html')" stroke="none">java.util</text>
    </g>
    <g fill="rgb(221,221,255)" transform="matrix(0.8136,0,0,0.8136,168.4163,248.1497)" stroke="rgb(221,221,255)">
      <rect x="-198.5542" y="0" clip-path="url(#clipPath5)" width="132.5542" height="32.7147" stroke="none"/>
    </g>
    <g fill="rgb(154,154,178)" stroke-miterlimit="1.45" transform="matrix(0.8136,0,0,0.8136,168.4163,248.1497)" stroke-linecap="butt" stroke="rgb(154,154,178)">
      <ellipse rx="66.2771" fill="none" ry="16.3574" cx="-132.2771" cy="16.3574"/>
    </g>
    <g font-style="italic" font-size="13" font-weight="bold" font-family="sans-serif" transform="matrix(0.8136,0,0,0.8136,168.4163,248.1497)">
      <text xml:space="preserve" x="-173.7771" y="20.8579" onclick="umlload('http://docs.oracle.com/javase/6/docs/api/java/util/Map.html')" stroke="none">Map&lt;K, V&gt;</text>
    </g>
    <g fill="rgb(238,238,255)" transform="matrix(0.8136,0,0,0.8136,168.4163,248.1497)" stroke="rgb(238,238,255)">
      <rect width="76.1412" x="108.905" height="17.9688" y="-133.1328" stroke="none"/>
    </g>
    <g fill="rgb(166,166,178)" stroke-miterlimit="1.45" transform="matrix(0.8136,0,0,0.8136,168.4163,248.1497)" stroke-linecap="butt" stroke="rgb(166,166,178)">
      <rect fill="none" width="76.1412" x="108.905" height="17.9688" y="-133.1328"/>
    </g>
    <g fill="rgb(238,238,255)" transform="matrix(0.8136,0,0,0.8136,168.4163,248.1497)" stroke="rgb(238,238,255)">
      <rect width="76.1412" x="108.905" height="39.1641" y="-115.1641" stroke="none"/>
    </g>
    <g fill="rgb(166,166,178)" stroke-miterlimit="1.45" transform="matrix(0.8136,0,0,0.8136,168.4163,248.1497)" stroke-linecap="butt" stroke="rgb(166,166,178)">
      <rect fill="none" width="76.1412" x="108.905" height="39.1641" y="-115.1641"/>
    </g>
    <g font-family="sans-serif" transform="matrix(0.8136,0,0,0.8136,168.4163,248.1497)">
      <text xml:space="preserve" x="114.905" y="-119.9941" onclick="umlload('http://docs.oracle.com/javase/6/docs/api/java/lang/package-summary.html')" stroke="none">java.lang</text>
    </g>
    <g fill="rgb(187,187,255)" transform="matrix(0.8136,0,0,0.8136,168.4163,248.1497)" stroke="rgb(187,187,255)">
      <rect x="116.905" y="-107.1328" clip-path="url(#clipPath6)" width="57.68" height="23.1328" stroke="none"/>
    </g>
    <g fill="rgb(130,130,178)" stroke-miterlimit="1.45" transform="matrix(0.8136,0,0,0.8136,168.4163,248.1497)" stroke-linecap="butt" stroke="rgb(130,130,178)">
      <rect fill="none" width="57.68" x="116.905" height="23.1328" y="-107.1328"/>
    </g>
    <g font-size="13" font-weight="bold" font-family="sans-serif" transform="matrix(0.8136,0,0,0.8136,168.4163,248.1497)">
      <text xml:space="preserve" x="121.745" y="-91.0659" onclick="umlload('http://docs.oracle.com/javase/6/docs/api/java/lang/Object.html')" stroke="none">Object</text>
    </g>
    <g fill="rgb(238,238,255)" transform="matrix(0.8136,0,0,0.8136,168.4163,248.1497)" stroke="rgb(238,238,255)">
      <rect width="298.9302" x="-8" height="17.9688" y="-26" stroke="none"/>
    </g>
    <g fill="rgb(166,166,178)" stroke-miterlimit="1.45" transform="matrix(0.8136,0,0,0.8136,168.4163,248.1497)" stroke-linecap="butt" stroke="rgb(166,166,178)">
      <rect fill="none" width="298.9302" x="-8" height="17.9688" y="-26"/>
    </g>
    <g fill="rgb(238,238,255)" transform="matrix(0.8136,0,0,0.8136,168.4163,248.1497)" stroke="rgb(238,238,255)">
      <rect width="307.49" x="-8" height="231.0116" y="-8.0312" stroke="none"/>
    </g>
    <g fill="rgb(166,166,178)" stroke-miterlimit="1.45" transform="matrix(0.8136,0,0,0.8136,168.4163,248.1497)" stroke-linecap="butt" stroke="rgb(166,166,178)">
      <rect fill="none" width="307.49" x="-8" height="231.0116" y="-8.0312"/>
    </g>
    <g font-family="sans-serif" transform="matrix(0.8136,0,0,0.8136,168.4163,248.1497)">
      <text xml:space="preserve" x="-2" y="-12.8613" onclick="umlload('package-summary.html')" stroke="none">com.msopentech.odatajclient.engine.data</text>
    </g>
    <g fill="rgb(187,187,255)" transform="matrix(0.8136,0,0,0.8136,168.4163,248.1497)" stroke="rgb(187,187,255)">
      <rect x="0" y="0" clip-path="url(#clipPath7)" width="291.49" height="26.625" stroke="none"/>
      <line clip-path="url(#clipPath7)" fill="none" x1="0" x2="291.49" y1="26.625" y2="26.625" stroke="black"/>
      <rect x="0" y="27.625" clip-path="url(#clipPath7)" width="291.49" height="15.9688" stroke="none"/>
      <line clip-path="url(#clipPath7)" fill="none" x1="0" x2="291.49" y1="43.5938" y2="43.5938" stroke="black"/>
      <rect x="0" y="44.5938" clip-path="url(#clipPath7)" width="291.49" height="170.3866" stroke="none"/>
    </g>
    <g fill="rgb(130,130,178)" stroke-miterlimit="1.45" transform="matrix(0.8136,0,0,0.8136,168.4163,248.1497)" stroke-linecap="butt" stroke="rgb(130,130,178)">
      <rect fill="none" width="291.49" x="0" height="214.9804" y="0"/>
    </g>
    <g font-size="16" font-weight="bold" font-family="sans-serif" transform="matrix(0.8136,0,0,0.8136,168.4163,248.1497)">
      <text xml:space="preserve" x="40.245" y="18.8516" onclick="umlload('#')" stroke="none">ODataServiceDocument</text>
    </g>
    <g font-family="sans-serif" transform="matrix(0.8136,0,0,0.8136,168.4163,248.1497)">
      <text xml:space="preserve" x="4" y="38.1719" stroke="none">+</text>
      <text xml:space="preserve" x="19" y="39.7637" onclick="umlload('#ODataServiceDocument()')" stroke="none">ODataServiceDocument()</text>
    </g>
    <g font-family="sans-serif" transform="matrix(0.8136,0,0,0.8136,168.4163,248.1497)">
      <text xml:space="preserve" x="4" y="55.1719" stroke="none">+</text>
      <text xml:space="preserve" x="19" y="56.7324" onclick="umlload('#addEntitySet(java.lang.String, java.net.URI)')" stroke="none">addEntitySet(String, URI) : void</text>
    </g>
    <g font-family="sans-serif" transform="matrix(0.8136,0,0,0.8136,168.4163,248.1497)">
      <text xml:space="preserve" x="4" y="71.1719" stroke="none">+</text>
      <text xml:space="preserve" x="19" y="72.7012" onclick="umlload('#count()')" stroke="none">count() : int</text>
    </g>
    <g font-family="sans-serif" transform="matrix(0.8136,0,0,0.8136,168.4163,248.1497)">
      <text xml:space="preserve" x="4" y="87.1719" stroke="none">+</text>
      <text xml:space="preserve" x="19" y="88.6699" onclick="umlload('#getEntitySetNames()')" stroke="none">getEntitySetNames() : Collection&lt;String&gt;</text>
    </g>
    <g font-family="sans-serif" transform="matrix(0.8136,0,0,0.8136,168.4163,248.1497)">
      <text xml:space="preserve" x="4" y="103.1719" stroke="none">+</text>
      <text xml:space="preserve" x="19" y="104.6387" onclick="umlload('#getEntitySetURI(java.lang.String)')" stroke="none">getEntitySetURI(String) : URI</text>
    </g>
    <g font-family="sans-serif" transform="matrix(0.8136,0,0,0.8136,168.4163,248.1497)">
      <text xml:space="preserve" x="4" y="119.1719" stroke="none">+</text>
      <text xml:space="preserve" x="19" y="120.6074" onclick="umlload('#getEntitySetURIs()')" stroke="none">getEntitySetURIs() : Collection&lt;URI&gt;</text>
    </g>
    <g font-family="sans-serif" transform="matrix(0.8136,0,0,0.8136,168.4163,248.1497)">
      <text xml:space="preserve" x="4" y="135.1719" stroke="none">+</text>
      <text xml:space="preserve" x="19" y="136.5762" onclick="umlload('#removeEntitySet(java.lang.String)')" stroke="none">removeEntitySet(String) : void</text>
    </g>
    <g font-family="sans-serif" transform="matrix(0.8136,0,0,0.8136,168.4163,248.1497)">
      <text xml:space="preserve" x="-201" y="247.1543" onclick="umlload('http://www.yworks.com/')" stroke="none">yWorks UML Doclet</text>
    </g>
    <g stroke-miterlimit="1.45" transform="matrix(0.8136,0,0,0.8136,168.4163,248.1497)" stroke-linecap="butt">
      <path fill="none" d="M145.745 -0.0142 L145.745 -69"/>
      <path fill="white" d="M145.745 -84 L139.745 -68 L151.745 -68 Z" stroke="none"/>
      <path fill="none" d="M145.745 -84 L139.745 -68 L151.745 -68 Z"/>
      <path fill="none" d="M-0.0198 16.3574 L-66 16.3574"/>
      <line stroke-linecap="square" transform="matrix(-1,0,0,-1,-66,16.3574)" fill="none" x1="0" x2="-14" y1="0" y2="-4" stroke-miterlimit="10"/>
      <line stroke-linecap="square" transform="matrix(-1,0,0,-1,-66,16.3574)" fill="none" x1="0" x2="-14" y1="0" y2="4" stroke-miterlimit="10"/>
    </g>
    <g stroke-dasharray="6,2" stroke-miterlimit="1.45" transform="matrix(0.8136,0,0,0.8136,168.4163,248.1497)" stroke-linecap="butt">
      <path fill="none" d="M291.4747 11.5664 L357.49 11.5664"/>
      <line stroke-linecap="square" transform="matrix(1,0,0,1,357.49,11.5664)" fill="none" x1="0" x2="-14" y1="0" y2="-4" stroke-dasharray="none" stroke-miterlimit="10"/>
      <line stroke-linecap="square" transform="matrix(1,0,0,1,357.49,11.5664)" fill="none" x1="0" x2="-14" y1="0" y2="4" stroke-dasharray="none" stroke-miterlimit="10"/>
    </g>
    <g stroke-dasharray="6,2" stroke-miterlimit="1.45" transform="matrix(0.8136,0,0,0.8136,168.4163,248.1497)" stroke-linecap="butt">
      <path fill="none" d="M291.478 98.6992 L357.49 98.6992"/>
      <line stroke-linecap="square" transform="matrix(1,0,0,1,357.49,98.6992)" fill="none" x1="0" x2="-14" y1="0" y2="-4" stroke-dasharray="none" stroke-miterlimit="10"/>
      <line stroke-linecap="square" transform="matrix(1,0,0,1,357.49,98.6992)" fill="none" x1="0" x2="-14" y1="0" y2="4" stroke-dasharray="none" stroke-miterlimit="10"/>
    </g>
    <g stroke-dasharray="6,2" stroke-miterlimit="1.45" transform="matrix(0.8136,0,0,0.8136,168.4163,248.1497)" stroke-linecap="butt">
      <path fill="none" d="M291.5035 190.623 L357.49 190.623"/>
      <line stroke-linecap="square" transform="matrix(1,0,0,1,357.49,190.623)" fill="none" x1="0" x2="-14" y1="0" y2="-4" stroke-dasharray="none" stroke-miterlimit="10"/>
      <line stroke-linecap="square" transform="matrix(1,0,0,1,357.49,190.623)" fill="none" x1="0" x2="-14" y1="0" y2="4" stroke-dasharray="none" stroke-miterlimit="10"/>
    </g>
  </g>
</svg>
