<?xml version="1.0" encoding="UTF-8"?><svg xmlns="http://www.w3.org/2000/svg" xmlns:xlink="http://www.w3.org/1999/xlink" fill-opacity="1" color-rendering="auto" color-interpolation="auto" stroke="black" text-rendering="auto" stroke-linecap="square" width="598" stroke-miterlimit="10" stroke-opacity="1" shape-rendering="auto" fill="black" stroke-dasharray="none" font-weight="normal" stroke-width="1" height="598" font-family="'Dialog'" font-style="normal" stroke-linejoin="miter" font-size="12" stroke-dashoffset="0" image-rendering="auto">
  <!--Generated by ySVG-->
  <defs id="genericDefs"/>
  <g>
    <defs id="defs1">
      <clipPath clipPathUnits="userSpaceOnUse" id="clipPath1">
        <path d="M0 0 L598 0 L598 598 L0 598 L0 0 Z"/>
      </clipPath>
      <clipPath clipPathUnits="userSpaceOnUse" id="clipPath2">
        <path d="M771.527 377.1542 C771.527 386.1882 735.3322 393.5116 690.6835 393.5116 C646.0349 393.5116 609.84 386.1882 609.84 377.1542 C609.84 368.1203 646.0349 360.7969 690.6835 360.7969 C735.3322 360.7969 771.527 368.1203 771.527 377.1542 Z"/>
      </clipPath>
      <clipPath clipPathUnits="userSpaceOnUse" id="clipPath3">
        <path d="M609.84 273.6641 L711.81 273.6641 L711.81 296.7969 L609.84 296.7969 L609.84 273.6641 Z"/>
      </clipPath>
      <clipPath clipPathUnits="userSpaceOnUse" id="clipPath4">
        <path d="M609.84 153.3984 L720.05 153.3984 L720.05 176.5312 L609.84 176.5312 L609.84 153.3984 Z"/>
      </clipPath>
      <clipPath clipPathUnits="userSpaceOnUse" id="clipPath5">
        <path d="M609.84 186.5312 L749.92 186.5312 L749.92 209.6641 L609.84 209.6641 L609.84 186.5312 Z"/>
      </clipPath>
      <clipPath clipPathUnits="userSpaceOnUse" id="clipPath6">
        <path d="M609.84 0 L708.72 0 L708.72 23.1328 L609.84 23.1328 L609.84 0 Z"/>
      </clipPath>
      <clipPath clipPathUnits="userSpaceOnUse" id="clipPath7">
        <path d="M609.84 33.1328 L696.36 33.1328 L696.36 56.2656 L609.84 56.2656 L609.84 33.1328 Z"/>
      </clipPath>
      <clipPath clipPathUnits="userSpaceOnUse" id="clipPath8">
        <path d="M609.84 66.2656 L731.38 66.2656 L731.38 89.3984 L609.84 89.3984 L609.84 66.2656 Z"/>
      </clipPath>
      <clipPath clipPathUnits="userSpaceOnUse" id="clipPath9">
        <path d="M243.08 -107.1328 L300.76 -107.1328 L300.76 -84 L243.08 -84 L243.08 -107.1328 Z"/>
      </clipPath>
      <clipPath clipPathUnits="userSpaceOnUse" id="clipPath10">
        <path d="M0 0 L543.84 0 L543.84 401.5116 L0 401.5116 L0 0 Z"/>
      </clipPath>
      <script type="text/ecmascript"><![CDATA[
function umlload(newLocation)
{
if (newLocation.charAt(0) != '#') {
if (newLocation.indexOf("://") > -1) {
window.parent.location.href = newLocation;
} else {
var tmp = window.parent.location.href;
tmp = tmp.substring(0, tmp.lastIndexOf("/") + 1);
window.parent.location.href = tmp.concat(newLocation);
}
} else {
window.parent.location.hash = newLocation;
}
}
]]></script>
    </defs>
    <g fill="rgb(238,238,255)" transform="matrix(0.6486,0,0,0.6486,5.1887,197.82)" stroke="rgb(238,238,255)">
      <rect width="67.654" x="601.84" height="17.9688" y="334.7969" stroke="none"/>
    </g>
    <g fill="rgb(166,166,178)" stroke-miterlimit="1.45" transform="matrix(0.6486,0,0,0.6486,5.1887,197.82)" stroke-linecap="butt" stroke="rgb(166,166,178)">
      <rect fill="none" width="67.654" x="601.84" height="17.9688" y="334.7969"/>
    </g>
    <g fill="rgb(238,238,255)" transform="matrix(0.6486,0,0,0.6486,5.1887,197.82)" stroke="rgb(238,238,255)">
      <rect width="177.687" x="601.84" height="48.746" y="352.7656" stroke="none"/>
    </g>
    <g fill="rgb(166,166,178)" stroke-miterlimit="1.45" transform="matrix(0.6486,0,0,0.6486,5.1887,197.82)" stroke-linecap="butt" stroke="rgb(166,166,178)">
      <rect fill="none" width="177.687" x="601.84" height="48.746" y="352.7656"/>
    </g>
    <g font-family="sans-serif" transform="matrix(0.6486,0,0,0.6486,5.1887,197.82)">
      <text xml:space="preserve" x="607.84" y="347.9355" onclick="umlload('http://docs.oracle.com/javase/6/docs/api/java/util/package-summary.html')" stroke="none">java.util</text>
    </g>
    <g fill="rgb(221,221,255)" transform="matrix(0.6486,0,0,0.6486,5.1887,197.82)" stroke="rgb(221,221,255)">
      <rect x="609.84" y="360.7969" clip-path="url(#clipPath2)" width="161.687" height="32.7147" stroke="none"/>
    </g>
    <g fill="rgb(154,154,178)" stroke-miterlimit="1.45" transform="matrix(0.6486,0,0,0.6486,5.1887,197.82)" stroke-linecap="butt" stroke="rgb(154,154,178)">
      <ellipse rx="80.8435" fill="none" ry="16.3574" cx="690.6835" cy="377.1542"/>
    </g>
    <g font-style="italic" font-size="13" font-weight="bold" font-family="sans-serif" transform="matrix(0.6486,0,0,0.6486,5.1887,197.82)">
      <text xml:space="preserve" x="639.1835" y="381.6547" onclick="umlload('http://docs.oracle.com/javase/6/docs/api/java/util/Collection.html')" stroke="none">Collection&lt;E&gt;</text>
    </g>
    <g fill="rgb(238,238,255)" transform="matrix(0.6486,0,0,0.6486,5.1887,197.82)" stroke="rgb(238,238,255)">
      <rect width="59.1668" x="601.84" height="17.9688" y="247.6641" stroke="none"/>
    </g>
    <g fill="rgb(166,166,178)" stroke-miterlimit="1.45" transform="matrix(0.6486,0,0,0.6486,5.1887,197.82)" stroke-linecap="butt" stroke="rgb(166,166,178)">
      <rect fill="none" width="59.1668" x="601.84" height="17.9688" y="247.6641"/>
    </g>
    <g fill="rgb(238,238,255)" transform="matrix(0.6486,0,0,0.6486,5.1887,197.82)" stroke="rgb(238,238,255)">
      <rect width="117.97" x="601.84" height="39.1641" y="265.6328" stroke="none"/>
    </g>
    <g fill="rgb(166,166,178)" stroke-miterlimit="1.45" transform="matrix(0.6486,0,0,0.6486,5.1887,197.82)" stroke-linecap="butt" stroke="rgb(166,166,178)">
      <rect fill="none" width="117.97" x="601.84" height="39.1641" y="265.6328"/>
    </g>
    <g font-family="sans-serif" transform="matrix(0.6486,0,0,0.6486,5.1887,197.82)">
      <text xml:space="preserve" x="607.84" y="260.8027" onclick="umlload('http://docs.oracle.com/javase/6/docs/api/java/io/package-summary.html')" stroke="none">java.io</text>
    </g>
    <g fill="rgb(204,204,255)" transform="matrix(0.6486,0,0,0.6486,5.1887,197.82)" stroke="rgb(204,204,255)">
      <rect x="609.84" y="273.6641" clip-path="url(#clipPath3)" width="101.97" height="23.1328" stroke="none"/>
    </g>
    <g fill="rgb(142,142,178)" stroke-miterlimit="1.45" transform="matrix(0.6486,0,0,0.6486,5.1887,197.82)" stroke-linecap="butt" stroke="rgb(142,142,178)">
      <rect fill="none" width="101.97" x="609.84" height="23.1328" y="273.6641"/>
    </g>
    <g font-size="13" font-weight="bold" font-family="sans-serif" transform="matrix(0.6486,0,0,0.6486,5.1887,197.82)">
      <text xml:space="preserve" x="615.325" y="289.731" onclick="umlload('http://docs.oracle.com/javase/6/docs/api/java/io/InputStream.html')" stroke="none">InputStream</text>
    </g>
    <g fill="rgb(238,238,255)" transform="matrix(0.6486,0,0,0.6486,5.1887,197.82)" stroke="rgb(238,238,255)">
      <rect width="311.661" x="601.84" height="17.9688" y="127.3984" stroke="none"/>
    </g>
    <g fill="rgb(166,166,178)" stroke-miterlimit="1.45" transform="matrix(0.6486,0,0,0.6486,5.1887,197.82)" stroke-linecap="butt" stroke="rgb(166,166,178)">
      <rect fill="none" width="311.661" x="601.84" height="17.9688" y="127.3984"/>
    </g>
    <g fill="rgb(238,238,255)" transform="matrix(0.6486,0,0,0.6486,5.1887,197.82)" stroke="rgb(238,238,255)">
      <rect width="312.08" x="601.84" height="72.2969" y="145.3672" stroke="none"/>
    </g>
    <g fill="rgb(166,166,178)" stroke-miterlimit="1.45" transform="matrix(0.6486,0,0,0.6486,5.1887,197.82)" stroke-linecap="butt" stroke="rgb(166,166,178)">
      <rect fill="none" width="312.08" x="601.84" height="72.2969" y="145.3672"/>
    </g>
    <g font-family="sans-serif" transform="matrix(0.6486,0,0,0.6486,5.1887,197.82)">
      <text xml:space="preserve" x="607.84" y="140.5371" onclick="umlload('../../../../../com/msopentech/odatajclient/engine/format/package-summary.html')" stroke="none">com.msopentech.odatajclient.engine.format</text>
    </g>
    <g fill="rgb(170,170,255)" transform="matrix(0.6486,0,0,0.6486,5.1887,197.82)" stroke="rgb(170,170,255)">
      <rect x="609.84" y="153.3984" clip-path="url(#clipPath4)" width="110.21" height="23.1328" stroke="none"/>
    </g>
    <g fill="rgb(118,118,178)" stroke-miterlimit="1.45" transform="matrix(0.6486,0,0,0.6486,5.1887,197.82)" stroke-linecap="butt" stroke="rgb(118,118,178)">
      <rect fill="none" width="110.21" x="609.84" height="23.1328" y="153.3984"/>
    </g>
    <g font-size="13" font-weight="bold" font-family="sans-serif" transform="matrix(0.6486,0,0,0.6486,5.1887,197.82)">
      <text xml:space="preserve" x="615.445" y="169.4653" onclick="umlload('../../../../../com/msopentech/odatajclient/engine/format/ODataFormat.html')" stroke="none">ODataFormat</text>
    </g>
    <g fill="rgb(170,170,255)" transform="matrix(0.6486,0,0,0.6486,5.1887,197.82)" stroke="rgb(170,170,255)">
      <rect x="609.84" y="186.5312" clip-path="url(#clipPath5)" width="140.08" height="23.1328" stroke="none"/>
    </g>
    <g fill="rgb(118,118,178)" stroke-miterlimit="1.45" transform="matrix(0.6486,0,0,0.6486,5.1887,197.82)" stroke-linecap="butt" stroke="rgb(118,118,178)">
      <rect fill="none" width="140.08" x="609.84" height="23.1328" y="186.5312"/>
    </g>
    <g font-size="13" font-weight="bold" font-family="sans-serif" transform="matrix(0.6486,0,0,0.6486,5.1887,197.82)">
      <text xml:space="preserve" x="615.88" y="202.5981" onclick="umlload('../../../../../com/msopentech/odatajclient/engine/format/ODataPubFormat.html')" stroke="none">ODataPubFormat</text>
    </g>
    <g fill="rgb(238,238,255)" transform="matrix(0.6486,0,0,0.6486,5.1887,197.82)" stroke="rgb(238,238,255)">
      <rect width="298.9302" x="601.84" height="17.9688" y="-26" stroke="none"/>
    </g>
    <g fill="rgb(166,166,178)" stroke-miterlimit="1.45" transform="matrix(0.6486,0,0,0.6486,5.1887,197.82)" stroke-linecap="butt" stroke="rgb(166,166,178)">
      <rect fill="none" width="298.9302" x="601.84" height="17.9688" y="-26"/>
    </g>
    <g fill="rgb(238,238,255)" transform="matrix(0.6486,0,0,0.6486,5.1887,197.82)" stroke="rgb(238,238,255)">
      <rect width="298.9302" x="601.84" height="105.4297" y="-8.0312" stroke="none"/>
    </g>
    <g fill="rgb(166,166,178)" stroke-miterlimit="1.45" transform="matrix(0.6486,0,0,0.6486,5.1887,197.82)" stroke-linecap="butt" stroke="rgb(166,166,178)">
      <rect fill="none" width="298.9302" x="601.84" height="105.4297" y="-8.0312"/>
    </g>
    <g font-family="sans-serif" transform="matrix(0.6486,0,0,0.6486,5.1887,197.82)">
      <text xml:space="preserve" x="607.84" y="-12.8613" onclick="umlload('../../../../../com/msopentech/odatajclient/engine/data/package-summary.html')" stroke="none">com.msopentech.odatajclient.engine.data</text>
    </g>
    <g fill="rgb(187,187,255)" transform="matrix(0.6486,0,0,0.6486,5.1887,197.82)" stroke="rgb(187,187,255)">
      <rect x="609.84" y="0" clip-path="url(#clipPath6)" width="98.88" height="23.1328" stroke="none"/>
    </g>
    <g fill="rgb(130,130,178)" stroke-miterlimit="1.45" transform="matrix(0.6486,0,0,0.6486,5.1887,197.82)" stroke-linecap="butt" stroke="rgb(130,130,178)">
      <rect fill="none" width="98.88" x="609.84" height="23.1328" y="0"/>
    </g>
    <g font-size="13" font-weight="bold" font-family="sans-serif" transform="matrix(0.6486,0,0,0.6486,5.1887,197.82)">
      <text xml:space="preserve" x="615.28" y="16.0669" onclick="umlload('../../../../../com/msopentech/odatajclient/engine/data/ODataEntity.html')" stroke="none">ODataEntity</text>
    </g>
    <g fill="rgb(187,187,255)" transform="matrix(0.6486,0,0,0.6486,5.1887,197.82)" stroke="rgb(187,187,255)">
      <rect x="609.84" y="33.1328" clip-path="url(#clipPath7)" width="86.52" height="23.1328" stroke="none"/>
    </g>
    <g fill="rgb(130,130,178)" stroke-miterlimit="1.45" transform="matrix(0.6486,0,0,0.6486,5.1887,197.82)" stroke-linecap="butt" stroke="rgb(130,130,178)">
      <rect fill="none" width="86.52" x="609.84" height="23.1328" y="33.1328"/>
    </g>
    <g font-size="13" font-weight="bold" font-family="sans-serif" transform="matrix(0.6486,0,0,0.6486,5.1887,197.82)">
      <text xml:space="preserve" x="615.1" y="49.1997" onclick="umlload('../../../../../com/msopentech/odatajclient/engine/data/ODataLink.html')" stroke="none">ODataLink</text>
    </g>
    <g fill="rgb(187,187,255)" transform="matrix(0.6486,0,0,0.6486,5.1887,197.82)" stroke="rgb(187,187,255)">
      <rect x="609.84" y="66.2656" clip-path="url(#clipPath8)" width="121.54" height="23.1328" stroke="none"/>
    </g>
    <g fill="rgb(130,130,178)" stroke-miterlimit="1.45" transform="matrix(0.6486,0,0,0.6486,5.1887,197.82)" stroke-linecap="butt" stroke="rgb(130,130,178)">
      <rect fill="none" width="121.54" x="609.84" height="23.1328" y="66.2656"/>
    </g>
    <g font-size="13" font-weight="bold" font-family="sans-serif" transform="matrix(0.6486,0,0,0.6486,5.1887,197.82)">
      <text xml:space="preserve" x="615.61" y="82.3325" onclick="umlload('../../../../../com/msopentech/odatajclient/engine/data/ODataProperty.html')" stroke="none">ODataProperty</text>
    </g>
    <g fill="rgb(238,238,255)" transform="matrix(0.6486,0,0,0.6486,5.1887,197.82)" stroke="rgb(238,238,255)">
      <rect width="76.1412" x="235.08" height="17.9688" y="-133.1328" stroke="none"/>
    </g>
    <g fill="rgb(166,166,178)" stroke-miterlimit="1.45" transform="matrix(0.6486,0,0,0.6486,5.1887,197.82)" stroke-linecap="butt" stroke="rgb(166,166,178)">
      <rect fill="none" width="76.1412" x="235.08" height="17.9688" y="-133.1328"/>
    </g>
    <g fill="rgb(238,238,255)" transform="matrix(0.6486,0,0,0.6486,5.1887,197.82)" stroke="rgb(238,238,255)">
      <rect width="76.1412" x="235.08" height="39.1641" y="-115.1641" stroke="none"/>
    </g>
    <g fill="rgb(166,166,178)" stroke-miterlimit="1.45" transform="matrix(0.6486,0,0,0.6486,5.1887,197.82)" stroke-linecap="butt" stroke="rgb(166,166,178)">
      <rect fill="none" width="76.1412" x="235.08" height="39.1641" y="-115.1641"/>
    </g>
    <g font-family="sans-serif" transform="matrix(0.6486,0,0,0.6486,5.1887,197.82)">
      <text xml:space="preserve" x="241.08" y="-119.9941" onclick="umlload('http://docs.oracle.com/javase/6/docs/api/java/lang/package-summary.html')" stroke="none">java.lang</text>
    </g>
    <g fill="rgb(187,187,255)" transform="matrix(0.6486,0,0,0.6486,5.1887,197.82)" stroke="rgb(187,187,255)">
      <rect x="243.08" y="-107.1328" clip-path="url(#clipPath9)" width="57.68" height="23.1328" stroke="none"/>
    </g>
    <g fill="rgb(130,130,178)" stroke-miterlimit="1.45" transform="matrix(0.6486,0,0,0.6486,5.1887,197.82)" stroke-linecap="butt" stroke="rgb(130,130,178)">
      <rect fill="none" width="57.68" x="243.08" height="23.1328" y="-107.1328"/>
    </g>
    <g font-size="13" font-weight="bold" font-family="sans-serif" transform="matrix(0.6486,0,0,0.6486,5.1887,197.82)">
      <text xml:space="preserve" x="247.92" y="-91.0659" onclick="umlload('http://docs.oracle.com/javase/6/docs/api/java/lang/Object.html')" stroke="none">Object</text>
    </g>
    <g fill="rgb(238,238,255)" transform="matrix(0.6486,0,0,0.6486,5.1887,197.82)" stroke="rgb(238,238,255)">
      <rect width="298.9302" x="-8" height="17.9688" y="-26" stroke="none"/>
    </g>
    <g fill="rgb(166,166,178)" stroke-miterlimit="1.45" transform="matrix(0.6486,0,0,0.6486,5.1887,197.82)" stroke-linecap="butt" stroke="rgb(166,166,178)">
      <rect fill="none" width="298.9302" x="-8" height="17.9688" y="-26"/>
    </g>
    <g fill="rgb(238,238,255)" transform="matrix(0.6486,0,0,0.6486,5.1887,197.82)" stroke="rgb(238,238,255)">
      <rect width="559.84" x="-8" height="417.5429" y="-8.0312" stroke="none"/>
    </g>
    <g fill="rgb(166,166,178)" stroke-miterlimit="1.45" transform="matrix(0.6486,0,0,0.6486,5.1887,197.82)" stroke-linecap="butt" stroke="rgb(166,166,178)">
      <rect fill="none" width="559.84" x="-8" height="417.5429" y="-8.0312"/>
    </g>
    <g font-family="sans-serif" transform="matrix(0.6486,0,0,0.6486,5.1887,197.82)">
      <text xml:space="preserve" x="-2" y="-12.8613" onclick="umlload('package-summary.html')" stroke="none">com.msopentech.odatajclient.engine.data</text>
    </g>
    <g fill="rgb(187,187,255)" transform="matrix(0.6486,0,0,0.6486,5.1887,197.82)" stroke="rgb(187,187,255)">
      <rect x="0" y="0" clip-path="url(#clipPath10)" width="543.84" height="26.625" stroke="none"/>
      <line clip-path="url(#clipPath10)" fill="none" x1="0" x2="543.84" y1="26.625" y2="26.625" stroke="black"/>
      <line clip-path="url(#clipPath10)" x1="0" x2="543.84" y1="27.625" y2="27.625" stroke="none"/>
      <line clip-path="url(#clipPath10)" fill="none" x1="0" x2="543.84" y1="27.625" y2="27.625" stroke="black"/>
      <rect x="0" y="28.625" clip-path="url(#clipPath10)" width="543.84" height="372.8866" stroke="none"/>
    </g>
    <g fill="rgb(130,130,178)" stroke-miterlimit="1.45" transform="matrix(0.6486,0,0,0.6486,5.1887,197.82)" stroke-linecap="butt" stroke="rgb(130,130,178)">
      <rect fill="none" width="543.84" x="0" height="401.5116" y="0"/>
    </g>
    <g font-size="16" font-weight="bold" font-family="sans-serif" transform="matrix(0.6486,0,0,0.6486,5.1887,197.82)">
      <text xml:space="preserve" x="215.92" y="18.8516" onclick="umlload('#')" stroke="none">ODataWriter</text>
    </g>
    <g font-family="sans-serif" transform="matrix(0.6486,0,0,0.6486,5.1887,197.82)">
      <text xml:space="preserve" x="4" y="39.1719" stroke="none">+</text>
      <text xml:space="preserve" x="19" y="40.7637" onclick="umlload('#writeEntities(java.util.Collection, com.msopentech.odatajclient.engine.format.ODataPubFormat)')" stroke="none">writeEntities(Collection&lt;ODataEntity&gt;, ODataPubFormat) : InputStream</text>
      <line y2="43.5938" fill="none" x1="19" x2="465" y1="43.5938"/>
    </g>
    <g font-family="sans-serif" transform="matrix(0.6486,0,0,0.6486,5.1887,197.82)">
      <text xml:space="preserve" x="4" y="55.1719" stroke="none">+</text>
      <text xml:space="preserve" x="19" y="56.7324" onclick="umlload('#writeEntities(java.util.Collection, com.msopentech.odatajclient.engine.format.ODataPubFormat, boolean)')" stroke="none">writeEntities(Collection&lt;ODataEntity&gt;, ODataPubFormat, boolean) : InputStream</text>
      <line y2="59.5625" fill="none" x1="19" x2="524" y1="59.5625"/>
    </g>
    <g font-family="sans-serif" transform="matrix(0.6486,0,0,0.6486,5.1887,197.82)">
      <text xml:space="preserve" x="4" y="71.1719" stroke="none">+</text>
      <text xml:space="preserve" x="19" y="72.7012" onclick="umlload('#writeEntity(com.msopentech.odatajclient.engine.data.ODataEntity, com.msopentech.odatajclient.engine.format.ODataPubFormat)')" stroke="none">writeEntity(ODataEntity, ODataPubFormat) : InputStream</text>
      <line y2="75.5312" fill="none" x1="19" x2="372" y1="75.5312"/>
    </g>
    <g font-family="sans-serif" transform="matrix(0.6486,0,0,0.6486,5.1887,197.82)">
      <text xml:space="preserve" x="4" y="87.1719" stroke="none">+</text>
      <text xml:space="preserve" x="19" y="88.6699" onclick="umlload('#writeEntity(com.msopentech.odatajclient.engine.data.ODataEntity, com.msopentech.odatajclient.engine.format.ODataPubFormat, boolean)')" stroke="none">writeEntity(ODataEntity, ODataPubFormat, boolean) : InputStream</text>
      <line y2="91.5" fill="none" x1="19" x2="431" y1="91.5"/>
    </g>
    <g font-family="sans-serif" transform="matrix(0.6486,0,0,0.6486,5.1887,197.82)">
      <text xml:space="preserve" x="4" y="103.1719" stroke="none">+</text>
      <text xml:space="preserve" x="19" y="104.6387" onclick="umlload('#writeLink(com.msopentech.odatajclient.engine.data.ODataLink, com.msopentech.odatajclient.engine.format.ODataFormat)')" stroke="none">writeLink(ODataLink, ODataFormat) : InputStream</text>
      <line y2="107.4688" fill="none" x1="19" x2="326" y1="107.4688"/>
    </g>
    <g font-family="sans-serif" transform="matrix(0.6486,0,0,0.6486,5.1887,197.82)">
      <text xml:space="preserve" x="4" y="119.1719" stroke="none">+</text>
      <text xml:space="preserve" x="19" y="120.6074" onclick="umlload('#writeProperty(com.msopentech.odatajclient.engine.data.ODataProperty, com.msopentech.odatajclient.engine.format.ODataFormat)')" stroke="none">writeProperty(ODataProperty, ODataFormat) : InputStream</text>
      <line y2="123.4375" fill="none" x1="19" x2="384" y1="123.4375"/>
    </g>
    <g font-family="sans-serif" transform="matrix(0.6486,0,0,0.6486,5.1887,197.82)">
      <text xml:space="preserve" x="-2" y="434.1543" onclick="umlload('http://www.yworks.com/')" stroke="none">yWorks UML Doclet</text>
    </g>
    <g stroke-miterlimit="1.45" transform="matrix(0.6486,0,0,0.6486,5.1887,197.82)" stroke-linecap="butt">
      <path fill="none" d="M271.92 0.0061 L271.92 -69"/>
      <path fill="white" d="M271.92 -84 L265.92 -68 L277.92 -68 Z" stroke="none"/>
      <path fill="none" d="M271.92 -84 L265.92 -68 L277.92 -68 Z"/>
      <path fill="none" stroke-dasharray="6,2" d="M543.8569 11.5664 L609.84 11.5664"/>
      <line stroke-linecap="square" transform="matrix(1,0,0,1,609.84,11.5664)" fill="none" x1="0" x2="-14" y1="0" y2="-4" stroke-miterlimit="10"/>
      <line stroke-linecap="square" transform="matrix(1,0,0,1,609.84,11.5664)" fill="none" x1="0" x2="-14" y1="0" y2="4" stroke-miterlimit="10"/>
    </g>
    <g stroke-dasharray="6,2" stroke-miterlimit="1.45" transform="matrix(0.6486,0,0,0.6486,5.1887,197.82)" stroke-linecap="butt">
      <path fill="none" d="M543.7993 44.6992 L609.84 44.6992"/>
      <line stroke-linecap="square" transform="matrix(1,0,0,1,609.84,44.6992)" fill="none" x1="0" x2="-14" y1="0" y2="-4" stroke-dasharray="none" stroke-miterlimit="10"/>
      <line stroke-linecap="square" transform="matrix(1,0,0,1,609.84,44.6992)" fill="none" x1="0" x2="-14" y1="0" y2="4" stroke-dasharray="none" stroke-miterlimit="10"/>
    </g>
    <g stroke-dasharray="6,2" stroke-miterlimit="1.45" transform="matrix(0.6486,0,0,0.6486,5.1887,197.82)" stroke-linecap="butt">
      <path fill="none" d="M543.8293 77.832 L609.84 77.832"/>
      <line stroke-linecap="square" transform="matrix(1,0,0,1,609.84,77.832)" fill="none" x1="0" x2="-14" y1="0" y2="-4" stroke-dasharray="none" stroke-miterlimit="10"/>
      <line stroke-linecap="square" transform="matrix(1,0,0,1,609.84,77.832)" fill="none" x1="0" x2="-14" y1="0" y2="4" stroke-dasharray="none" stroke-miterlimit="10"/>
    </g>
    <g stroke-dasharray="6,2" stroke-miterlimit="1.45" transform="matrix(0.6486,0,0,0.6486,5.1887,197.82)" stroke-linecap="butt">
      <path fill="none" d="M543.8039 164.9648 L609.84 164.9648"/>
      <line stroke-linecap="square" transform="matrix(1,0,0,1,609.84,164.9648)" fill="none" x1="0" x2="-14" y1="0" y2="-4" stroke-dasharray="none" stroke-miterlimit="10"/>
      <line stroke-linecap="square" transform="matrix(1,0,0,1,609.84,164.9648)" fill="none" x1="0" x2="-14" y1="0" y2="4" stroke-dasharray="none" stroke-miterlimit="10"/>
    </g>
    <g stroke-dasharray="6,2" stroke-miterlimit="1.45" transform="matrix(0.6486,0,0,0.6486,5.1887,197.82)" stroke-linecap="butt">
      <path fill="none" d="M543.8767 198.0977 L609.84 198.0977"/>
      <line stroke-linecap="square" transform="matrix(1,0,0,1,609.84,198.0977)" fill="none" x1="0" x2="-14" y1="0" y2="-4" stroke-dasharray="none" stroke-miterlimit="10"/>
      <line stroke-linecap="square" transform="matrix(1,0,0,1,609.84,198.0977)" fill="none" x1="0" x2="-14" y1="0" y2="4" stroke-dasharray="none" stroke-miterlimit="10"/>
    </g>
    <g stroke-dasharray="6,2" stroke-miterlimit="1.45" transform="matrix(0.6486,0,0,0.6486,5.1887,197.82)" stroke-linecap="butt">
      <path fill="none" d="M543.8022 285.2305 L609.84 285.2305"/>
      <line stroke-linecap="square" transform="matrix(1,0,0,1,609.84,285.2305)" fill="none" x1="0" x2="-14" y1="0" y2="-4" stroke-dasharray="none" stroke-miterlimit="10"/>
      <line stroke-linecap="square" transform="matrix(1,0,0,1,609.84,285.2305)" fill="none" x1="0" x2="-14" y1="0" y2="4" stroke-dasharray="none" stroke-miterlimit="10"/>
    </g>
    <g stroke-dasharray="6,2" stroke-miterlimit="1.45" transform="matrix(0.6486,0,0,0.6486,5.1887,197.82)" stroke-linecap="butt">
      <path fill="none" d="M543.8453 377.1542 L609.84 377.1542"/>
      <line stroke-linecap="square" transform="matrix(1,0,0,1,609.84,377.1542)" fill="none" x1="0" x2="-14" y1="0" y2="-4" stroke-dasharray="none" stroke-miterlimit="10"/>
      <line stroke-linecap="square" transform="matrix(1,0,0,1,609.84,377.1542)" fill="none" x1="0" x2="-14" y1="0" y2="4" stroke-dasharray="none" stroke-miterlimit="10"/>
    </g>
  </g>
</svg>
