<?xml version="1.0" encoding="UTF-8"?><svg xmlns="http://www.w3.org/2000/svg" xmlns:xlink="http://www.w3.org/1999/xlink" fill-opacity="1" color-rendering="auto" color-interpolation="auto" stroke="black" text-rendering="auto" stroke-linecap="square" width="598" stroke-miterlimit="10" stroke-opacity="1" shape-rendering="auto" fill="black" stroke-dasharray="none" font-weight="normal" stroke-width="1" height="598" font-family="'Dialog'" font-style="normal" stroke-linejoin="miter" font-size="12" stroke-dashoffset="0" image-rendering="auto">
  <!--Generated by ySVG-->
  <defs id="genericDefs"/>
  <g>
    <defs id="defs1">
      <clipPath clipPathUnits="userSpaceOnUse" id="clipPath1">
        <path d="M0 0 L598 0 L598 598 L0 598 L0 0 Z"/>
      </clipPath>
      <clipPath clipPathUnits="userSpaceOnUse" id="clipPath2">
        <path d="M1104.3363 276.3377 C1104.3363 285.3716 1067.1632 292.6951 1021.3079 292.6951 C975.4525 292.6951 938.2794 285.3716 938.2794 276.3377 C938.2794 267.3038 975.4525 259.9804 1021.3079 259.9804 C1067.1632 259.9804 1104.3363 267.3038 1104.3363 276.3377 Z"/>
      </clipPath>
      <clipPath clipPathUnits="userSpaceOnUse" id="clipPath3">
        <path d="M171.1437 427.1853 C171.1437 436.2192 134.6227 443.5427 89.5718 443.5427 C44.521 443.5427 8 436.2192 8 427.1853 C8 418.1514 44.521 410.8279 89.5718 410.8279 C134.6227 410.8279 171.1437 418.1514 171.1437 427.1853 Z"/>
      </clipPath>
      <clipPath clipPathUnits="userSpaceOnUse" id="clipPath4">
        <path d="M475.4256 427.1853 C475.4256 436.2192 417.3834 443.5427 345.7846 443.5427 C274.1859 443.5427 216.1437 436.2192 216.1437 427.1853 C216.1437 418.1514 274.1859 410.8279 345.7846 410.8279 C417.3834 410.8279 475.4256 418.1514 475.4256 427.1853 Z"/>
      </clipPath>
      <clipPath clipPathUnits="userSpaceOnUse" id="clipPath5">
        <path d="M248.9721 276.3377 C248.9721 285.3716 214.4076 292.6951 171.7702 292.6951 C129.1327 292.6951 94.5682 285.3716 94.5682 276.3377 C94.5682 267.3038 129.1327 259.9804 171.7702 259.9804 C214.4076 259.9804 248.9721 267.3038 248.9721 276.3377 Z"/>
      </clipPath>
      <clipPath clipPathUnits="userSpaceOnUse" id="clipPath6">
        <path d="M651.5232 427.1853 C651.5232 436.2192 622.176 443.5427 585.9744 443.5427 C549.7728 443.5427 520.4256 436.2192 520.4256 427.1853 C520.4256 418.1514 549.7728 410.8279 585.9744 410.8279 C622.176 410.8279 651.5232 418.1514 651.5232 427.1853 Z"/>
      </clipPath>
      <clipPath clipPathUnits="userSpaceOnUse" id="clipPath7">
        <path d="M669.7649 42.3574 C669.7649 51.3913 621.179 58.7147 561.2452 58.7147 C501.3115 58.7147 452.7256 51.3913 452.7256 42.3574 C452.7256 33.3234 501.3115 26 561.2452 26 C621.179 26 669.7649 33.3234 669.7649 42.3574 Z"/>
      </clipPath>
      <clipPath clipPathUnits="userSpaceOnUse" id="clipPath8">
        <path d="M305.1545 504.9 C305.1545 513.934 238.6342 521.2574 156.5773 521.2574 C74.5203 521.2574 8 513.934 8 504.9 C8 495.8661 74.5203 488.5427 156.5773 488.5427 C238.6342 488.5427 305.1545 495.8661 305.1545 504.9 Z"/>
      </clipPath>
      <clipPath clipPathUnits="userSpaceOnUse" id="clipPath9">
        <path d="M713.0804 342.6951 L1124.0504 342.6951 L1124.0504 365.8279 L713.0804 365.8279 L713.0804 342.6951 Z"/>
      </clipPath>
      <clipPath clipPathUnits="userSpaceOnUse" id="clipPath10">
        <path d="M8 342.6951 L663.08 342.6951 L663.08 365.8279 L8 365.8279 L8 342.6951 Z"/>
      </clipPath>
      <clipPath clipPathUnits="userSpaceOnUse" id="clipPath11">
        <path d="M556.2894 269.5623 L739.6295 269.5623 L739.6295 292.6951 L556.2894 292.6951 L556.2894 269.5623 Z"/>
      </clipPath>
      <clipPath clipPathUnits="userSpaceOnUse" id="clipPath12">
        <path d="M150.7002 35.5819 L240.3102 35.5819 L240.3102 58.7147 L150.7002 58.7147 L150.7002 35.5819 Z"/>
      </clipPath>
      <clipPath clipPathUnits="userSpaceOnUse" id="clipPath13">
        <path d="M267.0901 566.2574 L364.9402 566.2574 L364.9402 589.3902 L267.0901 589.3902 L267.0901 566.2574 Z"/>
      </clipPath>
      <clipPath clipPathUnits="userSpaceOnUse" id="clipPath14">
        <path d="M8 780.6558 L105.85 780.6558 L105.85 803.7886 L8 803.7886 L8 780.6558 Z"/>
      </clipPath>
      <clipPath clipPathUnits="userSpaceOnUse" id="clipPath15">
        <path d="M150.85 780.6558 L255.91 780.6558 L255.91 803.7886 L150.85 803.7886 L150.85 780.6558 Z"/>
      </clipPath>
      <clipPath clipPathUnits="userSpaceOnUse" id="clipPath16">
        <path d="M230.0102 639.3902 L402.0202 639.3902 L402.0202 662.523 L230.0102 662.523 L230.0102 639.3902 Z"/>
      </clipPath>
      <clipPath clipPathUnits="userSpaceOnUse" id="clipPath17">
        <path d="M452.0202 639.3902 L615.7902 639.3902 L615.7902 662.523 L452.0202 662.523 L452.0202 639.3902 Z"/>
      </clipPath>
      <clipPath clipPathUnits="userSpaceOnUse" id="clipPath18">
        <path d="M300.91 780.6558 L421.42 780.6558 L421.42 803.7886 L300.91 803.7886 L300.91 780.6558 Z"/>
      </clipPath>
      <clipPath clipPathUnits="userSpaceOnUse" id="clipPath19">
        <path d="M170.785 118.7147 L269.665 118.7147 L269.665 141.8475 L170.785 141.8475 L170.785 118.7147 Z"/>
      </clipPath>
      <clipPath clipPathUnits="userSpaceOnUse" id="clipPath20">
        <path d="M319.6651 118.7147 L443.2651 118.7147 L443.2651 141.8475 L319.6651 141.8475 L319.6651 118.7147 Z"/>
      </clipPath>
      <clipPath clipPathUnits="userSpaceOnUse" id="clipPath21">
        <path d="M466.42 780.6558 L646.67 780.6558 L646.67 803.7886 L466.42 803.7886 L466.42 780.6558 Z"/>
      </clipPath>
      <clipPath clipPathUnits="userSpaceOnUse" id="clipPath22">
        <path d="M691.67 780.6558 L803.94 780.6558 L803.94 803.7886 L691.67 803.7886 L691.67 780.6558 Z"/>
      </clipPath>
      <clipPath clipPathUnits="userSpaceOnUse" id="clipPath23">
        <path d="M8 712.523 L187.22 712.523 L187.22 735.6558 L8 735.6558 L8 712.523 Z"/>
      </clipPath>
      <clipPath clipPathUnits="userSpaceOnUse" id="clipPath24">
        <path d="M8 848.7886 L245.93 848.7886 L245.93 871.9214 L8 871.9214 L8 848.7886 Z"/>
      </clipPath>
      <clipPath clipPathUnits="userSpaceOnUse" id="clipPath25">
        <path d="M8 191.8475 L147.05 191.8475 L147.05 214.9804 L8 214.9804 L8 191.8475 Z"/>
      </clipPath>
      <clipPath clipPathUnits="userSpaceOnUse" id="clipPath26">
        <path d="M197.0503 191.8475 L360.8203 191.8475 L360.8203 214.9804 L197.0503 214.9804 L197.0503 191.8475 Z"/>
      </clipPath>
      <clipPath clipPathUnits="userSpaceOnUse" id="clipPath27">
        <path d="M34.265 118.7147 L120.785 118.7147 L120.785 141.8475 L34.265 141.8475 L34.265 118.7147 Z"/>
      </clipPath>
      <clipPath clipPathUnits="userSpaceOnUse" id="clipPath28">
        <path d="M290.93 848.7886 L451.61 848.7886 L451.61 871.9214 L290.93 871.9214 L290.93 848.7886 Z"/>
      </clipPath>
      <clipPath clipPathUnits="userSpaceOnUse" id="clipPath29">
        <path d="M493.2652 118.7147 L629.2252 118.7147 L629.2252 141.8475 L493.2652 141.8475 L493.2652 118.7147 Z"/>
      </clipPath>
      <clipPath clipPathUnits="userSpaceOnUse" id="clipPath30">
        <path d="M496.61 848.7886 L667.59 848.7886 L667.59 871.9214 L496.61 871.9214 L496.61 848.7886 Z"/>
      </clipPath>
      <clipPath clipPathUnits="userSpaceOnUse" id="clipPath31">
        <path d="M712.59 848.7886 L843.4 848.7886 L843.4 871.9214 L712.59 871.9214 L712.59 848.7886 Z"/>
      </clipPath>
      <clipPath clipPathUnits="userSpaceOnUse" id="clipPath32">
        <path d="M15.21 639.3902 L180.01 639.3902 L180.01 662.523 L15.21 662.523 L15.21 639.3902 Z"/>
      </clipPath>
      <clipPath clipPathUnits="userSpaceOnUse" id="clipPath33">
        <path d="M8 916.9214 L231.51 916.9214 L231.51 940.0543 L8 940.0543 L8 916.9214 Z"/>
      </clipPath>
      <clipPath clipPathUnits="userSpaceOnUse" id="clipPath34">
        <path d="M679.2252 118.7147 L800.7653 118.7147 L800.7653 141.8475 L679.2252 141.8475 L679.2252 118.7147 Z"/>
      </clipPath>
      <clipPath clipPathUnits="userSpaceOnUse" id="clipPath35">
        <path d="M276.51 916.9214 L386.72 916.9214 L386.72 940.0543 L276.51 940.0543 L276.51 916.9214 Z"/>
      </clipPath>
      <clipPath clipPathUnits="userSpaceOnUse" id="clipPath36">
        <path d="M431.72 916.9214 L619.18 916.9214 L619.18 940.0543 L431.72 940.0543 L431.72 916.9214 Z"/>
      </clipPath>
      <clipPath clipPathUnits="userSpaceOnUse" id="clipPath37">
        <path d="M664.18 916.9214 L804.26 916.9214 L804.26 940.0543 L664.18 940.0543 L664.18 916.9214 Z"/>
      </clipPath>
      <clipPath clipPathUnits="userSpaceOnUse" id="clipPath38">
        <path d="M8 985.0543 L109.97 985.0543 L109.97 1008.1871 L8 1008.1871 L8 985.0543 Z"/>
      </clipPath>
      <clipPath clipPathUnits="userSpaceOnUse" id="clipPath39">
        <path d="M154.97 985.0543 L289.9 985.0543 L289.9 1008.1871 L154.97 1008.1871 L154.97 985.0543 Z"/>
      </clipPath>
      <clipPath clipPathUnits="userSpaceOnUse" id="clipPath40">
        <path d="M334.9 985.0543 L413.18 985.0543 L413.18 1008.1871 L334.9 1008.1871 L334.9 985.0543 Z"/>
      </clipPath>
      <clipPath clipPathUnits="userSpaceOnUse" id="clipPath41">
        <path d="M8 1053.1871 L130.57 1053.1871 L130.57 1076.3199 L8 1076.3199 L8 1053.1871 Z"/>
      </clipPath>
      <clipPath clipPathUnits="userSpaceOnUse" id="clipPath42">
        <path d="M175.57 1053.1871 L404.23 1053.1871 L404.23 1076.3199 L175.57 1076.3199 L175.57 1053.1871 Z"/>
      </clipPath>
      <clipPath clipPathUnits="userSpaceOnUse" id="clipPath43">
        <path d="M8 1121.3199 L165.59 1121.3199 L165.59 1144.4528 L8 1144.4528 L8 1121.3199 Z"/>
      </clipPath>
      <script type="text/ecmascript"><![CDATA[
function umlload(newLocation)
{
if (newLocation.charAt(0) != '#') {
if (newLocation.indexOf("://") > -1) {
window.parent.location.href = newLocation;
} else {
var tmp = window.parent.location.href;
tmp = tmp.substring(0, tmp.lastIndexOf("/") + 1);
window.parent.location.href = tmp.concat(newLocation);
}
} else {
window.parent.location.hash = newLocation;
}
}
]]></script>
    </defs>
    <g fill="rgb(238,238,255)" transform="matrix(0.5034,0,0,0.5034,13.5909,0)" stroke="rgb(238,238,255)">
      <rect width="298.9302" x="0" height="17.9688" y="0" stroke="none"/>
    </g>
    <g fill="rgb(166,166,178)" stroke-miterlimit="1.45" transform="matrix(0.5034,0,0,0.5034,13.5909,0)" stroke-linecap="butt" stroke="rgb(166,166,178)">
      <rect fill="none" width="298.9302" x="0" height="17.9688" y="0"/>
    </g>
    <g fill="rgb(238,238,255)" transform="matrix(0.5034,0,0,0.5034,13.5909,0)" stroke="rgb(238,238,255)">
      <rect width="1132.0504" x="0" height="1134.4839" y="17.9688" stroke="none"/>
    </g>
    <g fill="rgb(166,166,178)" stroke-miterlimit="1.45" transform="matrix(0.5034,0,0,0.5034,13.5909,0)" stroke-linecap="butt" stroke="rgb(166,166,178)">
      <rect fill="none" width="1132.0504" x="0" height="1134.4839" y="17.9688"/>
    </g>
    <g font-family="sans-serif" transform="matrix(0.5034,0,0,0.5034,13.5909,0)">
      <text xml:space="preserve" x="6" y="13.1387" onclick="umlload('#')" stroke="none">com.msopentech.odatajclient.engine.data</text>
    </g>
    <g fill="rgb(221,221,255)" transform="matrix(0.5034,0,0,0.5034,13.5909,0)" stroke="rgb(221,221,255)">
      <rect x="938.2794" y="259.9804" clip-path="url(#clipPath2)" width="166.057" height="32.7147" stroke="none"/>
    </g>
    <g fill="rgb(154,154,178)" stroke-miterlimit="1.45" transform="matrix(0.5034,0,0,0.5034,13.5909,0)" stroke-linecap="butt" stroke="rgb(154,154,178)">
      <ellipse rx="83.0285" fill="none" ry="16.3574" cx="1021.3079" cy="276.3377"/>
    </g>
    <g font-style="italic" font-size="13" font-weight="bold" font-family="sans-serif" transform="matrix(0.5034,0,0,0.5034,13.5909,0)">
      <text xml:space="preserve" x="968.3079" y="280.8382" onclick="umlload('EntryResource.html')" stroke="none">EntryResource</text>
    </g>
    <g fill="rgb(221,221,255)" transform="matrix(0.5034,0,0,0.5034,13.5909,0)" stroke="rgb(221,221,255)">
      <rect x="8" y="410.8279" clip-path="url(#clipPath3)" width="163.1437" height="32.7147" stroke="none"/>
    </g>
    <g fill="rgb(154,154,178)" stroke-miterlimit="1.45" transform="matrix(0.5034,0,0,0.5034,13.5909,0)" stroke-linecap="butt" stroke="rgb(154,154,178)">
      <ellipse rx="81.5718" fill="none" ry="16.3574" cx="89.5718" cy="427.1853"/>
    </g>
    <g font-style="italic" font-size="13" font-weight="bold" font-family="sans-serif" transform="matrix(0.5034,0,0,0.5034,13.5909,0)">
      <text xml:space="preserve" x="37.5718" y="431.6858" onclick="umlload('FeedResource.html')" stroke="none">FeedResource</text>
    </g>
    <g fill="rgb(221,221,255)" transform="matrix(0.5034,0,0,0.5034,13.5909,0)" stroke="rgb(221,221,255)">
      <rect x="216.1437" y="410.8279" clip-path="url(#clipPath4)" width="259.2819" height="32.7147" stroke="none"/>
    </g>
    <g fill="rgb(154,154,178)" stroke-miterlimit="1.45" transform="matrix(0.5034,0,0,0.5034,13.5909,0)" stroke-linecap="butt" stroke="rgb(154,154,178)">
      <ellipse rx="129.641" fill="none" ry="16.3574" cx="345.7846" cy="427.1853"/>
    </g>
    <g font-style="italic" font-size="13" font-weight="bold" font-family="sans-serif" transform="matrix(0.5034,0,0,0.5034,13.5909,0)">
      <text xml:space="preserve" x="260.7846" y="431.6858" onclick="umlload('LinkCollectionResource.html')" stroke="none">LinkCollectionResource</text>
    </g>
    <g fill="rgb(221,221,255)" transform="matrix(0.5034,0,0,0.5034,13.5909,0)" stroke="rgb(221,221,255)">
      <rect x="94.5682" y="259.9804" clip-path="url(#clipPath5)" width="154.4038" height="32.7147" stroke="none"/>
    </g>
    <g fill="rgb(154,154,178)" stroke-miterlimit="1.45" transform="matrix(0.5034,0,0,0.5034,13.5909,0)" stroke-linecap="butt" stroke="rgb(154,154,178)">
      <ellipse rx="77.2019" fill="none" ry="16.3574" cx="171.7702" cy="276.3377"/>
    </g>
    <g font-style="italic" font-size="13" font-weight="bold" font-family="sans-serif" transform="matrix(0.5034,0,0,0.5034,13.5909,0)">
      <text xml:space="preserve" x="122.7702" y="280.8382" onclick="umlload('LinkResource.html')" stroke="none">LinkResource</text>
    </g>
    <g fill="rgb(221,221,255)" transform="matrix(0.5034,0,0,0.5034,13.5909,0)" stroke="rgb(221,221,255)">
      <rect x="520.4256" y="410.8279" clip-path="url(#clipPath6)" width="131.0976" height="32.7147" stroke="none"/>
    </g>
    <g fill="rgb(154,154,178)" stroke-miterlimit="1.45" transform="matrix(0.5034,0,0,0.5034,13.5909,0)" stroke-linecap="butt" stroke="rgb(154,154,178)">
      <ellipse rx="65.5488" fill="none" ry="16.3574" cx="585.9744" cy="427.1853"/>
    </g>
    <g font-style="italic" font-size="13" font-weight="bold" font-family="sans-serif" transform="matrix(0.5034,0,0,0.5034,13.5909,0)">
      <text xml:space="preserve" x="544.9744" y="431.6858" onclick="umlload('ODataError.html')" stroke="none">ODataError</text>
    </g>
    <g fill="rgb(221,221,255)" transform="matrix(0.5034,0,0,0.5034,13.5909,0)" stroke="rgb(221,221,255)">
      <rect x="452.7256" y="26" clip-path="url(#clipPath7)" width="217.0394" height="32.7147" stroke="none"/>
    </g>
    <g fill="rgb(154,154,178)" stroke-miterlimit="1.45" transform="matrix(0.5034,0,0,0.5034,13.5909,0)" stroke-linecap="butt" stroke="rgb(154,154,178)">
      <ellipse rx="108.5197" fill="none" ry="16.3574" cx="561.2452" cy="42.3574"/>
    </g>
    <g font-style="italic" font-size="13" font-weight="bold" font-family="sans-serif" transform="matrix(0.5034,0,0,0.5034,13.5909,0)">
      <text xml:space="preserve" x="490.7452" y="46.8579" onclick="umlload('ODataInvokeResult.html')" stroke="none">ODataInvokeResult</text>
    </g>
    <g fill="rgb(221,221,255)" transform="matrix(0.5034,0,0,0.5034,13.5909,0)" stroke="rgb(221,221,255)">
      <rect x="8" y="488.5426" clip-path="url(#clipPath8)" width="297.1546" height="32.7147" stroke="none"/>
    </g>
    <g fill="rgb(154,154,178)" stroke-miterlimit="1.45" transform="matrix(0.5034,0,0,0.5034,13.5909,0)" stroke-linecap="butt" stroke="rgb(154,154,178)">
      <ellipse rx="148.5773" fill="none" ry="16.3574" cx="156.5773" cy="504.9"/>
    </g>
    <g font-style="italic" font-size="13" font-weight="bold" font-family="sans-serif" transform="matrix(0.5034,0,0,0.5034,13.5909,0)">
      <text xml:space="preserve" x="58.5773" y="509.4005" onclick="umlload('ServiceDocumentResource.html')" stroke="none">ServiceDocumentResource</text>
    </g>
    <g fill="rgb(204,204,255)" transform="matrix(0.5034,0,0,0.5034,13.5909,0)" stroke="rgb(204,204,255)">
      <rect x="713.0804" y="342.6951" clip-path="url(#clipPath9)" width="410.97" height="23.1328" stroke="none"/>
    </g>
    <g fill="rgb(142,142,178)" stroke-miterlimit="1.45" transform="matrix(0.5034,0,0,0.5034,13.5909,0)" stroke-linecap="butt" stroke="rgb(142,142,178)">
      <rect fill="none" width="410.97" x="713.0804" height="23.1328" y="342.6951"/>
    </g>
    <g font-size="13" font-weight="bold" font-family="sans-serif" transform="matrix(0.5034,0,0,0.5034,13.5909,0)">
      <text xml:space="preserve" x="723.0654" y="358.762" onclick="umlload('AbstractEntryResource.html')" stroke="none">AbstractEntryResource&lt;LINK extends LinkResource&gt;</text>
    </g>
    <g fill="rgb(204,204,255)" transform="matrix(0.5034,0,0,0.5034,13.5909,0)" stroke="rgb(204,204,255)">
      <rect x="8" y="342.6951" clip-path="url(#clipPath10)" width="655.08" height="23.1328" stroke="none"/>
    </g>
    <g fill="rgb(142,142,178)" stroke-miterlimit="1.45" transform="matrix(0.5034,0,0,0.5034,13.5909,0)" stroke-linecap="butt" stroke="rgb(142,142,178)">
      <rect fill="none" width="655.08" x="8" height="23.1328" y="342.6951"/>
    </g>
    <g font-size="13" font-weight="bold" font-family="sans-serif" transform="matrix(0.5034,0,0,0.5034,13.5909,0)">
      <text xml:space="preserve" x="21.54" y="358.762" onclick="umlload('AbstractLinkResource.html')" stroke="none">AbstractLinkResource&lt;ENTRY extends EntryResource, FEED extends FeedResource&gt;</text>
    </g>
    <g fill="rgb(204,204,255)" transform="matrix(0.5034,0,0,0.5034,13.5909,0)" stroke="rgb(204,204,255)">
      <rect x="556.2894" y="269.5623" clip-path="url(#clipPath11)" width="183.34" height="23.1328" stroke="none"/>
    </g>
    <g fill="rgb(142,142,178)" stroke-miterlimit="1.45" transform="matrix(0.5034,0,0,0.5034,13.5909,0)" stroke-linecap="butt" stroke="rgb(142,142,178)">
      <rect fill="none" width="183.34" x="556.2894" height="23.1328" y="269.5623"/>
    </g>
    <g font-size="13" font-weight="bold" font-family="sans-serif" transform="matrix(0.5034,0,0,0.5034,13.5909,0)">
      <text xml:space="preserve" x="562.9595" y="285.6292" onclick="umlload('AbstractPayloadObject.html')" stroke="none">AbstractPayloadObject</text>
    </g>
    <g fill="rgb(204,204,255)" transform="matrix(0.5034,0,0,0.5034,13.5909,0)" stroke="rgb(204,204,255)">
      <rect x="150.7002" y="35.5819" clip-path="url(#clipPath12)" width="89.61" height="23.1328" stroke="none"/>
    </g>
    <g fill="rgb(142,142,178)" stroke-miterlimit="1.45" transform="matrix(0.5034,0,0,0.5034,13.5909,0)" stroke-linecap="butt" stroke="rgb(142,142,178)">
      <rect fill="none" width="89.61" x="150.7002" height="23.1328" y="35.5819"/>
    </g>
    <g font-size="13" font-weight="bold" font-family="sans-serif" transform="matrix(0.5034,0,0,0.5034,13.5909,0)">
      <text xml:space="preserve" x="156.0052" y="51.6488" onclick="umlload('ODataItem.html')" stroke="none">ODataItem</text>
    </g>
    <g fill="rgb(204,204,255)" transform="matrix(0.5034,0,0,0.5034,13.5909,0)" stroke="rgb(204,204,255)">
      <rect x="267.0902" y="566.2574" clip-path="url(#clipPath13)" width="97.85" height="23.1328" stroke="none"/>
    </g>
    <g fill="rgb(142,142,178)" stroke-miterlimit="1.45" transform="matrix(0.5034,0,0,0.5034,13.5909,0)" stroke-linecap="butt" stroke="rgb(142,142,178)">
      <rect fill="none" width="97.85" x="267.0902" height="23.1328" y="566.2574"/>
    </g>
    <g font-size="13" font-weight="bold" font-family="sans-serif" transform="matrix(0.5034,0,0,0.5034,13.5909,0)">
      <text xml:space="preserve" x="272.5152" y="582.3243" onclick="umlload('ODataValue.html')" stroke="none">ODataValue</text>
    </g>
    <g fill="rgb(187,187,255)" transform="matrix(0.5034,0,0,0.5034,13.5909,0)" stroke="rgb(187,187,255)">
      <rect x="8" y="780.6558" clip-path="url(#clipPath14)" width="97.85" height="23.1328" stroke="none"/>
    </g>
    <g fill="rgb(130,130,178)" stroke-miterlimit="1.45" transform="matrix(0.5034,0,0,0.5034,13.5909,0)" stroke-linecap="butt" stroke="rgb(130,130,178)">
      <rect fill="none" width="97.85" x="8" height="23.1328" y="780.6558"/>
    </g>
    <g font-size="13" font-weight="bold" font-family="sans-serif" transform="matrix(0.5034,0,0,0.5034,13.5909,0)">
      <text xml:space="preserve" x="13.425" y="796.7227" onclick="umlload('Deserializer.html')" stroke="none">Deserializer</text>
    </g>
    <g fill="rgb(187,187,255)" transform="matrix(0.5034,0,0,0.5034,13.5909,0)" stroke="rgb(187,187,255)">
      <rect x="150.85" y="780.6558" clip-path="url(#clipPath15)" width="105.06" height="23.1328" stroke="none"/>
    </g>
    <g fill="rgb(130,130,178)" stroke-miterlimit="1.45" transform="matrix(0.5034,0,0,0.5034,13.5909,0)" stroke-linecap="butt" stroke="rgb(130,130,178)">
      <rect fill="none" width="105.06" x="150.85" height="23.1328" y="780.6558"/>
    </g>
    <g font-size="13" font-weight="bold" font-family="sans-serif" transform="matrix(0.5034,0,0,0.5034,13.5909,0)">
      <text xml:space="preserve" x="156.38" y="796.7227" onclick="umlload('ODataBinder.html')" stroke="none">ODataBinder</text>
    </g>
    <g fill="rgb(187,187,255)" transform="matrix(0.5034,0,0,0.5034,13.5909,0)" stroke="rgb(187,187,255)">
      <rect x="230.0102" y="639.3902" clip-path="url(#clipPath16)" width="172.01" height="23.1328" stroke="none"/>
    </g>
    <g fill="rgb(130,130,178)" stroke-miterlimit="1.45" transform="matrix(0.5034,0,0,0.5034,13.5909,0)" stroke-linecap="butt" stroke="rgb(130,130,178)">
      <rect fill="none" width="172.01" x="230.0102" height="23.1328" y="639.3902"/>
    </g>
    <g font-size="13" font-weight="bold" font-family="sans-serif" transform="matrix(0.5034,0,0,0.5034,13.5909,0)">
      <text xml:space="preserve" x="236.5152" y="655.4571" onclick="umlload('ODataCollectionValue.html')" stroke="none">ODataCollectionValue</text>
    </g>
    <g fill="rgb(187,187,255)" transform="matrix(0.5034,0,0,0.5034,13.5909,0)" stroke="rgb(187,187,255)">
      <rect x="452.0202" y="639.3902" clip-path="url(#clipPath17)" width="163.77" height="23.1328" stroke="none"/>
    </g>
    <g fill="rgb(130,130,178)" stroke-miterlimit="1.45" transform="matrix(0.5034,0,0,0.5034,13.5909,0)" stroke-linecap="butt" stroke="rgb(130,130,178)">
      <rect fill="none" width="163.77" x="452.0202" height="23.1328" y="639.3902"/>
    </g>
    <g font-size="13" font-weight="bold" font-family="sans-serif" transform="matrix(0.5034,0,0,0.5034,13.5909,0)">
      <text xml:space="preserve" x="458.4052" y="655.4571" onclick="umlload('ODataComplexValue.html')" stroke="none">ODataComplexValue</text>
    </g>
    <g fill="rgb(187,187,255)" transform="matrix(0.5034,0,0,0.5034,13.5909,0)" stroke="rgb(187,187,255)">
      <rect x="300.91" y="780.6558" clip-path="url(#clipPath18)" width="120.51" height="23.1328" stroke="none"/>
    </g>
    <g fill="rgb(130,130,178)" stroke-miterlimit="1.45" transform="matrix(0.5034,0,0,0.5034,13.5909,0)" stroke-linecap="butt" stroke="rgb(130,130,178)">
      <rect fill="none" width="120.51" x="300.91" height="23.1328" y="780.6558"/>
    </g>
    <g font-size="13" font-weight="bold" font-family="sans-serif" transform="matrix(0.5034,0,0,0.5034,13.5909,0)">
      <text xml:space="preserve" x="306.665" y="796.7227" onclick="umlload('ODataDuration.html')" stroke="none">ODataDuration</text>
    </g>
    <g fill="rgb(187,187,255)" transform="matrix(0.5034,0,0,0.5034,13.5909,0)" stroke="rgb(187,187,255)">
      <rect x="170.785" y="118.7147" clip-path="url(#clipPath19)" width="98.88" height="23.1328" stroke="none"/>
    </g>
    <g fill="rgb(130,130,178)" stroke-miterlimit="1.45" transform="matrix(0.5034,0,0,0.5034,13.5909,0)" stroke-linecap="butt" stroke="rgb(130,130,178)">
      <rect fill="none" width="98.88" x="170.785" height="23.1328" y="118.7147"/>
    </g>
    <g font-size="13" font-weight="bold" font-family="sans-serif" transform="matrix(0.5034,0,0,0.5034,13.5909,0)">
      <text xml:space="preserve" x="176.225" y="134.7816" onclick="umlload('ODataEntity.html')" stroke="none">ODataEntity</text>
    </g>
    <g fill="rgb(187,187,255)" transform="matrix(0.5034,0,0,0.5034,13.5909,0)" stroke="rgb(187,187,255)">
      <rect x="319.6651" y="118.7147" clip-path="url(#clipPath20)" width="123.6" height="23.1328" stroke="none"/>
    </g>
    <g fill="rgb(130,130,178)" stroke-miterlimit="1.45" transform="matrix(0.5034,0,0,0.5034,13.5909,0)" stroke-linecap="butt" stroke="rgb(130,130,178)">
      <rect fill="none" width="123.6" x="319.6651" height="23.1328" y="118.7147"/>
    </g>
    <g font-size="13" font-weight="bold" font-family="sans-serif" transform="matrix(0.5034,0,0,0.5034,13.5909,0)">
      <text xml:space="preserve" x="325.4651" y="134.7816" onclick="umlload('ODataEntitySet.html')" stroke="none">ODataEntitySet</text>
    </g>
    <g fill="rgb(187,187,255)" transform="matrix(0.5034,0,0,0.5034,13.5909,0)" stroke="rgb(187,187,255)">
      <rect x="466.42" y="780.6558" clip-path="url(#clipPath21)" width="180.25" height="23.1328" stroke="none"/>
    </g>
    <g fill="rgb(130,130,178)" stroke-miterlimit="1.45" transform="matrix(0.5034,0,0,0.5034,13.5909,0)" stroke-linecap="butt" stroke="rgb(130,130,178)">
      <rect fill="none" width="180.25" x="466.42" height="23.1328" y="780.6558"/>
    </g>
    <g font-size="13" font-weight="bold" font-family="sans-serif" transform="matrix(0.5034,0,0,0.5034,13.5909,0)">
      <text xml:space="preserve" x="473.045" y="796.7227" onclick="umlload('ODataEntitySetIterator.html')" stroke="none">ODataEntitySetIterator</text>
    </g>
    <g fill="rgb(187,187,255)" transform="matrix(0.5034,0,0,0.5034,13.5909,0)" stroke="rgb(187,187,255)">
      <rect x="691.67" y="780.6558" clip-path="url(#clipPath22)" width="112.27" height="23.1328" stroke="none"/>
    </g>
    <g fill="rgb(130,130,178)" stroke-miterlimit="1.45" transform="matrix(0.5034,0,0,0.5034,13.5909,0)" stroke-linecap="butt" stroke="rgb(130,130,178)">
      <rect fill="none" width="112.27" x="691.67" height="23.1328" y="780.6558"/>
    </g>
    <g font-size="13" font-weight="bold" font-family="sans-serif" transform="matrix(0.5034,0,0,0.5034,13.5909,0)">
      <text xml:space="preserve" x="697.305" y="796.7227" onclick="umlload('ODataFactory.html')" stroke="none">ODataFactory</text>
    </g>
    <g fill="rgb(187,187,255)" transform="matrix(0.5034,0,0,0.5034,13.5909,0)" stroke="rgb(187,187,255)">
      <rect x="8" y="712.523" clip-path="url(#clipPath23)" width="179.22" height="23.1328" stroke="none"/>
    </g>
    <g fill="rgb(130,130,178)" stroke-miterlimit="1.45" transform="matrix(0.5034,0,0,0.5034,13.5909,0)" stroke-linecap="butt" stroke="rgb(130,130,178)">
      <rect fill="none" width="179.22" x="8" height="23.1328" y="712.523"/>
    </g>
    <g font-size="13" font-weight="bold" font-family="sans-serif" transform="matrix(0.5034,0,0,0.5034,13.5909,0)">
      <text xml:space="preserve" x="14.61" y="728.5899" onclick="umlload('ODataGeospatialValue.html')" stroke="none">ODataGeospatialValue</text>
    </g>
    <g fill="rgb(187,187,255)" transform="matrix(0.5034,0,0,0.5034,13.5909,0)" stroke="rgb(187,187,255)">
      <rect x="8" y="848.7886" clip-path="url(#clipPath24)" width="237.93" height="23.1328" stroke="none"/>
    </g>
    <g fill="rgb(130,130,178)" stroke-miterlimit="1.45" transform="matrix(0.5034,0,0,0.5034,13.5909,0)" stroke-linecap="butt" stroke="rgb(130,130,178)">
      <rect fill="none" width="237.93" x="8" height="23.1328" y="848.7886"/>
    </g>
    <g font-size="13" font-weight="bold" font-family="sans-serif" transform="matrix(0.5034,0,0,0.5034,13.5909,0)">
      <text xml:space="preserve" x="15.465" y="864.8555" onclick="umlload('ODataGeospatialValue.Builder.html')" stroke="none">ODataGeospatialValue.Builder</text>
    </g>
    <g fill="rgb(187,187,255)" transform="matrix(0.5034,0,0,0.5034,13.5909,0)" stroke="rgb(187,187,255)">
      <rect x="8" y="191.8475" clip-path="url(#clipPath25)" width="139.05" height="23.1328" stroke="none"/>
    </g>
    <g fill="rgb(130,130,178)" stroke-miterlimit="1.45" transform="matrix(0.5034,0,0,0.5034,13.5909,0)" stroke-linecap="butt" stroke="rgb(130,130,178)">
      <rect fill="none" width="139.05" x="8" height="23.1328" y="191.8475"/>
    </g>
    <g font-size="13" font-weight="bold" font-family="sans-serif" transform="matrix(0.5034,0,0,0.5034,13.5909,0)">
      <text xml:space="preserve" x="14.025" y="207.9144" onclick="umlload('ODataInlineEntity.html')" stroke="none">ODataInlineEntity</text>
    </g>
    <g fill="rgb(187,187,255)" transform="matrix(0.5034,0,0,0.5034,13.5909,0)" stroke="rgb(187,187,255)">
      <rect x="197.0503" y="191.8475" clip-path="url(#clipPath26)" width="163.77" height="23.1328" stroke="none"/>
    </g>
    <g fill="rgb(130,130,178)" stroke-miterlimit="1.45" transform="matrix(0.5034,0,0,0.5034,13.5909,0)" stroke-linecap="butt" stroke="rgb(130,130,178)">
      <rect fill="none" width="163.77" x="197.0503" height="23.1328" y="191.8475"/>
    </g>
    <g font-size="13" font-weight="bold" font-family="sans-serif" transform="matrix(0.5034,0,0,0.5034,13.5909,0)">
      <text xml:space="preserve" x="203.4353" y="207.9144" onclick="umlload('ODataInlineEntitySet.html')" stroke="none">ODataInlineEntitySet</text>
    </g>
    <g fill="rgb(187,187,255)" transform="matrix(0.5034,0,0,0.5034,13.5909,0)" stroke="rgb(187,187,255)">
      <rect x="34.265" y="118.7147" clip-path="url(#clipPath27)" width="86.52" height="23.1328" stroke="none"/>
    </g>
    <g fill="rgb(130,130,178)" stroke-miterlimit="1.45" transform="matrix(0.5034,0,0,0.5034,13.5909,0)" stroke-linecap="butt" stroke="rgb(130,130,178)">
      <rect fill="none" width="86.52" x="34.265" height="23.1328" y="118.7147"/>
    </g>
    <g font-size="13" font-weight="bold" font-family="sans-serif" transform="matrix(0.5034,0,0,0.5034,13.5909,0)">
      <text xml:space="preserve" x="39.525" y="134.7816" onclick="umlload('ODataLink.html')" stroke="none">ODataLink</text>
    </g>
    <g fill="rgb(187,187,255)" transform="matrix(0.5034,0,0,0.5034,13.5909,0)" stroke="rgb(187,187,255)">
      <rect x="290.93" y="848.7886" clip-path="url(#clipPath28)" width="160.68" height="23.1328" stroke="none"/>
    </g>
    <g fill="rgb(130,130,178)" stroke-miterlimit="1.45" transform="matrix(0.5034,0,0,0.5034,13.5909,0)" stroke-linecap="butt" stroke="rgb(130,130,178)">
      <rect fill="none" width="160.68" x="290.93" height="23.1328" y="848.7886"/>
    </g>
    <g font-size="13" font-weight="bold" font-family="sans-serif" transform="matrix(0.5034,0,0,0.5034,13.5909,0)">
      <text xml:space="preserve" x="297.27" y="864.8555" onclick="umlload('ODataLinkCollection.html')" stroke="none">ODataLinkCollection</text>
    </g>
    <g fill="rgb(187,187,255)" transform="matrix(0.5034,0,0,0.5034,13.5909,0)" stroke="rgb(187,187,255)">
      <rect x="493.2652" y="118.7147" clip-path="url(#clipPath29)" width="135.96" height="23.1328" stroke="none"/>
    </g>
    <g fill="rgb(130,130,178)" stroke-miterlimit="1.45" transform="matrix(0.5034,0,0,0.5034,13.5909,0)" stroke-linecap="butt" stroke="rgb(130,130,178)">
      <rect fill="none" width="135.96" x="493.2652" height="23.1328" y="118.7147"/>
    </g>
    <g font-size="13" font-weight="bold" font-family="sans-serif" transform="matrix(0.5034,0,0,0.5034,13.5909,0)">
      <text xml:space="preserve" x="499.2452" y="134.7816" onclick="umlload('ODataNoContent.html')" stroke="none">ODataNoContent</text>
    </g>
    <g fill="rgb(187,187,255)" transform="matrix(0.5034,0,0,0.5034,13.5909,0)" stroke="rgb(187,187,255)">
      <rect x="496.61" y="848.7886" clip-path="url(#clipPath30)" width="170.98" height="23.1328" stroke="none"/>
    </g>
    <g fill="rgb(130,130,178)" stroke-miterlimit="1.45" transform="matrix(0.5034,0,0,0.5034,13.5909,0)" stroke-linecap="butt" stroke="rgb(130,130,178)">
      <rect fill="none" width="170.98" x="496.61" height="23.1328" y="848.7886"/>
    </g>
    <g font-size="13" font-weight="bold" font-family="sans-serif" transform="matrix(0.5034,0,0,0.5034,13.5909,0)">
      <text xml:space="preserve" x="503.1" y="864.8555" onclick="umlload('ODataObjectWrapper.html')" stroke="none">ODataObjectWrapper</text>
    </g>
    <g fill="rgb(187,187,255)" transform="matrix(0.5034,0,0,0.5034,13.5909,0)" stroke="rgb(187,187,255)">
      <rect x="712.59" y="848.7886" clip-path="url(#clipPath31)" width="130.81" height="23.1328" stroke="none"/>
    </g>
    <g fill="rgb(130,130,178)" stroke-miterlimit="1.45" transform="matrix(0.5034,0,0,0.5034,13.5909,0)" stroke-linecap="butt" stroke="rgb(130,130,178)">
      <rect fill="none" width="130.81" x="712.59" height="23.1328" y="848.7886"/>
    </g>
    <g font-size="13" font-weight="bold" font-family="sans-serif" transform="matrix(0.5034,0,0,0.5034,13.5909,0)">
      <text xml:space="preserve" x="718.495" y="864.8555" onclick="umlload('ODataOperation.html')" stroke="none">ODataOperation</text>
    </g>
    <g fill="rgb(187,187,255)" transform="matrix(0.5034,0,0,0.5034,13.5909,0)" stroke="rgb(187,187,255)">
      <rect x="15.21" y="639.3902" clip-path="url(#clipPath32)" width="164.8" height="23.1328" stroke="none"/>
    </g>
    <g fill="rgb(130,130,178)" stroke-miterlimit="1.45" transform="matrix(0.5034,0,0,0.5034,13.5909,0)" stroke-linecap="butt" stroke="rgb(130,130,178)">
      <rect fill="none" width="164.8" x="15.21" height="23.1328" y="639.3902"/>
    </g>
    <g font-size="13" font-weight="bold" font-family="sans-serif" transform="matrix(0.5034,0,0,0.5034,13.5909,0)">
      <text xml:space="preserve" x="21.61" y="655.4571" onclick="umlload('ODataPrimitiveValue.html')" stroke="none">ODataPrimitiveValue</text>
    </g>
    <g fill="rgb(187,187,255)" transform="matrix(0.5034,0,0,0.5034,13.5909,0)" stroke="rgb(187,187,255)">
      <rect x="8" y="916.9214" clip-path="url(#clipPath33)" width="223.51" height="23.1328" stroke="none"/>
    </g>
    <g fill="rgb(130,130,178)" stroke-miterlimit="1.45" transform="matrix(0.5034,0,0,0.5034,13.5909,0)" stroke-linecap="butt" stroke="rgb(130,130,178)">
      <rect fill="none" width="223.51" x="8" height="23.1328" y="916.9214"/>
    </g>
    <g font-size="13" font-weight="bold" font-family="sans-serif" transform="matrix(0.5034,0,0,0.5034,13.5909,0)">
      <text xml:space="preserve" x="15.255" y="932.9883" onclick="umlload('ODataPrimitiveValue.Builder.html')" stroke="none">ODataPrimitiveValue.Builder</text>
    </g>
    <g fill="rgb(187,187,255)" transform="matrix(0.5034,0,0,0.5034,13.5909,0)" stroke="rgb(187,187,255)">
      <rect x="679.2252" y="118.7147" clip-path="url(#clipPath34)" width="121.54" height="23.1328" stroke="none"/>
    </g>
    <g fill="rgb(130,130,178)" stroke-miterlimit="1.45" transform="matrix(0.5034,0,0,0.5034,13.5909,0)" stroke-linecap="butt" stroke="rgb(130,130,178)">
      <rect fill="none" width="121.54" x="679.2252" height="23.1328" y="118.7147"/>
    </g>
    <g font-size="13" font-weight="bold" font-family="sans-serif" transform="matrix(0.5034,0,0,0.5034,13.5909,0)">
      <text xml:space="preserve" x="684.9952" y="134.7816" onclick="umlload('ODataProperty.html')" stroke="none">ODataProperty</text>
    </g>
    <g fill="rgb(187,187,255)" transform="matrix(0.5034,0,0,0.5034,13.5909,0)" stroke="rgb(187,187,255)">
      <rect x="276.51" y="916.9214" clip-path="url(#clipPath35)" width="110.21" height="23.1328" stroke="none"/>
    </g>
    <g fill="rgb(130,130,178)" stroke-miterlimit="1.45" transform="matrix(0.5034,0,0,0.5034,13.5909,0)" stroke-linecap="butt" stroke="rgb(130,130,178)">
      <rect fill="none" width="110.21" x="276.51" height="23.1328" y="916.9214"/>
    </g>
    <g font-size="13" font-weight="bold" font-family="sans-serif" transform="matrix(0.5034,0,0,0.5034,13.5909,0)">
      <text xml:space="preserve" x="282.115" y="932.9883" onclick="umlload('ODataReader.html')" stroke="none">ODataReader</text>
    </g>
    <g fill="rgb(187,187,255)" transform="matrix(0.5034,0,0,0.5034,13.5909,0)" stroke="rgb(187,187,255)">
      <rect x="431.72" y="916.9214" clip-path="url(#clipPath36)" width="187.46" height="23.1328" stroke="none"/>
    </g>
    <g fill="rgb(130,130,178)" stroke-miterlimit="1.45" transform="matrix(0.5034,0,0,0.5034,13.5909,0)" stroke-linecap="butt" stroke="rgb(130,130,178)">
      <rect fill="none" width="187.46" x="431.72" height="23.1328" y="916.9214"/>
    </g>
    <g font-size="13" font-weight="bold" font-family="sans-serif" transform="matrix(0.5034,0,0,0.5034,13.5909,0)">
      <text xml:space="preserve" x="438.45" y="932.9883" onclick="umlload('ODataServiceDocument.html')" stroke="none">ODataServiceDocument</text>
    </g>
    <g fill="rgb(187,187,255)" transform="matrix(0.5034,0,0,0.5034,13.5909,0)" stroke="rgb(187,187,255)">
      <rect x="664.18" y="916.9214" clip-path="url(#clipPath37)" width="140.08" height="23.1328" stroke="none"/>
    </g>
    <g fill="rgb(130,130,178)" stroke-miterlimit="1.45" transform="matrix(0.5034,0,0,0.5034,13.5909,0)" stroke-linecap="butt" stroke="rgb(130,130,178)">
      <rect fill="none" width="140.08" x="664.18" height="23.1328" y="916.9214"/>
    </g>
    <g font-size="13" font-weight="bold" font-family="sans-serif" transform="matrix(0.5034,0,0,0.5034,13.5909,0)">
      <text xml:space="preserve" x="670.22" y="932.9883" onclick="umlload('ODataTimestamp.html')" stroke="none">ODataTimestamp</text>
    </g>
    <g fill="rgb(187,187,255)" transform="matrix(0.5034,0,0,0.5034,13.5909,0)" stroke="rgb(187,187,255)">
      <rect x="8" y="985.0543" clip-path="url(#clipPath38)" width="101.97" height="23.1328" stroke="none"/>
    </g>
    <g fill="rgb(130,130,178)" stroke-miterlimit="1.45" transform="matrix(0.5034,0,0,0.5034,13.5909,0)" stroke-linecap="butt" stroke="rgb(130,130,178)">
      <rect fill="none" width="101.97" x="8" height="23.1328" y="985.0543"/>
    </g>
    <g font-size="13" font-weight="bold" font-family="sans-serif" transform="matrix(0.5034,0,0,0.5034,13.5909,0)">
      <text xml:space="preserve" x="13.485" y="1001.1212" onclick="umlload('ODataWriter.html')" stroke="none">ODataWriter</text>
    </g>
    <g fill="rgb(187,187,255)" transform="matrix(0.5034,0,0,0.5034,13.5909,0)" stroke="rgb(187,187,255)">
      <rect x="154.97" y="985.0543" clip-path="url(#clipPath39)" width="134.93" height="23.1328" stroke="none"/>
    </g>
    <g fill="rgb(130,130,178)" stroke-miterlimit="1.45" transform="matrix(0.5034,0,0,0.5034,13.5909,0)" stroke-linecap="butt" stroke="rgb(130,130,178)">
      <rect fill="none" width="134.93" x="154.97" height="23.1328" y="985.0543"/>
    </g>
    <g font-size="13" font-weight="bold" font-family="sans-serif" transform="matrix(0.5034,0,0,0.5034,13.5909,0)">
      <text xml:space="preserve" x="160.935" y="1001.1212" onclick="umlload('ResourceFactory.html')" stroke="none">ResourceFactory</text>
    </g>
    <g fill="rgb(187,187,255)" transform="matrix(0.5034,0,0,0.5034,13.5909,0)" stroke="rgb(187,187,255)">
      <rect x="334.9" y="985.0543" clip-path="url(#clipPath40)" width="78.28" height="23.1328" stroke="none"/>
    </g>
    <g fill="rgb(130,130,178)" stroke-miterlimit="1.45" transform="matrix(0.5034,0,0,0.5034,13.5909,0)" stroke-linecap="butt" stroke="rgb(130,130,178)">
      <rect fill="none" width="78.28" x="334.9" height="23.1328" y="985.0543"/>
    </g>
    <g font-size="13" font-weight="bold" font-family="sans-serif" transform="matrix(0.5034,0,0,0.5034,13.5909,0)">
      <text xml:space="preserve" x="340.04" y="1001.1212" onclick="umlload('Serializer.html')" stroke="none">Serializer</text>
    </g>
    <g fill="rgb(170,170,255)" transform="matrix(0.5034,0,0,0.5034,13.5909,0)" stroke="rgb(170,170,255)">
      <rect x="8" y="1053.1871" clip-path="url(#clipPath41)" width="122.57" height="23.1328" stroke="none"/>
    </g>
    <g fill="rgb(118,118,178)" stroke-miterlimit="1.45" transform="matrix(0.5034,0,0,0.5034,13.5909,0)" stroke-linecap="butt" stroke="rgb(118,118,178)">
      <rect fill="none" width="122.57" x="8" height="23.1328" y="1053.1871"/>
    </g>
    <g font-size="13" font-weight="bold" font-family="sans-serif" transform="matrix(0.5034,0,0,0.5034,13.5909,0)">
      <text xml:space="preserve" x="13.785" y="1069.254" onclick="umlload('ODataLinkType.html')" stroke="none">ODataLinkType</text>
    </g>
    <g fill="rgb(170,170,255)" transform="matrix(0.5034,0,0,0.5034,13.5909,0)" stroke="rgb(170,170,255)">
      <rect x="175.57" y="1053.1871" clip-path="url(#clipPath42)" width="228.66" height="23.1328" stroke="none"/>
    </g>
    <g fill="rgb(118,118,178)" stroke-miterlimit="1.45" transform="matrix(0.5034,0,0,0.5034,13.5909,0)" stroke-linecap="butt" stroke="rgb(118,118,178)">
      <rect fill="none" width="228.66" x="175.57" height="23.1328" y="1053.1871"/>
    </g>
    <g font-size="13" font-weight="bold" font-family="sans-serif" transform="matrix(0.5034,0,0,0.5034,13.5909,0)">
      <text xml:space="preserve" x="182.9" y="1069.254" onclick="umlload('ODataProperty.PropertyType.html')" stroke="none">ODataProperty.PropertyType</text>
    </g>
    <g fill="rgb(153,153,255)" transform="matrix(0.5034,0,0,0.5034,13.5909,0)" stroke="rgb(153,153,255)">
      <rect x="8" y="1121.3199" clip-path="url(#clipPath43)" width="157.59" height="23.1328" stroke="none"/>
    </g>
    <g fill="rgb(106,106,178)" stroke-miterlimit="1.45" transform="matrix(0.5034,0,0,0.5034,13.5909,0)" stroke-linecap="butt" stroke="rgb(106,106,178)">
      <rect fill="none" width="157.59" x="8" height="23.1328" y="1121.3199"/>
    </g>
    <g font-size="13" font-weight="bold" font-family="sans-serif" transform="matrix(0.5034,0,0,0.5034,13.5909,0)">
      <text xml:space="preserve" x="14.295" y="1137.3868" onclick="umlload('NoValidEntityFound.html')" stroke="none">NoValidEntityFound</text>
    </g>
    <g font-family="sans-serif" transform="matrix(0.5034,0,0,0.5034,13.5909,0)">
      <text xml:space="preserve" x="6" y="1177.1543" onclick="umlload('http://www.yworks.com/')" stroke="none">yWorks UML Doclet</text>
    </g>
    <g stroke-miterlimit="1.45" transform="matrix(0.5034,0,0,0.5034,13.5909,0)" stroke-linecap="butt">
      <path fill="none" d="M815.8229 342.7274 L815.8229 317.6951 L647.9595 317.6951 L647.9595 307.6951"/>
      <path fill="white" d="M647.9595 292.6951 L641.9595 308.6951 L653.9595 308.6951 Z" stroke="none"/>
      <path fill="none" d="M647.9595 292.6951 L641.9595 308.6951 L653.9595 308.6951 Z"/>
      <path fill="none" stroke-dasharray="6,2" d="M1021.3079 307.6951 L1021.3079 342.7328"/>
      <path fill="white" stroke-dasharray="6,2" d="M1021.3079 292.6951 L1015.3079 308.6951 L1027.3079 308.6951 Z" stroke="none"/>
      <path fill="none" d="M1021.3079 292.6951 L1015.3079 308.6951 L1027.3079 308.6951 Z"/>
      <path fill="none" d="M499.31 342.7274 L499.31 317.6951 L647.9595 317.6951 L647.9595 307.6951"/>
      <path fill="white" d="M647.9595 292.6951 L641.9595 308.6951 L653.9595 308.6951 Z" stroke="none"/>
      <path fill="none" d="M647.9595 292.6951 L641.9595 308.6951 L653.9595 308.6951 Z"/>
      <path fill="none" stroke-dasharray="6,2" d="M171.7701 307.6951 L171.77 342.7328"/>
      <path fill="white" stroke-dasharray="6,2" d="M171.7701 292.6951 L165.7701 308.6951 L177.7701 308.6951 Z" stroke="none"/>
      <path fill="none" d="M171.7701 292.6951 L165.7701 308.6951 L177.7701 308.6951 Z"/>
      <path fill="none" d="M316.0152 639.3902 L316.0152 604.3902"/>
      <path fill="white" d="M316.0152 589.3902 L310.0152 605.3902 L322.0152 605.3902 Z" stroke="none"/>
      <path fill="none" d="M316.0152 589.3902 L310.0152 605.3902 L322.0152 605.3902 Z"/>
      <path fill="none" d="M533.9052 639.3902 L533.9052 614.3902 L316.0152 614.3902 L316.0152 604.3902"/>
      <path fill="white" d="M316.0152 589.3902 L310.0152 605.3902 L322.0152 605.3902 Z" stroke="none"/>
      <path fill="none" d="M316.0152 589.3902 L310.0152 605.3902 L322.0152 605.3902 Z"/>
      <path fill="none" d="M195.505 118.685 L195.5052 83.7147 L195.5052 73.7147"/>
      <path fill="white" d="M195.5052 58.7147 L189.5052 74.7147 L201.5052 74.7147 Z" stroke="none"/>
      <path fill="none" d="M195.5052 58.7147 L189.5052 74.7147 L201.5052 74.7147 Z"/>
      <path fill="none" stroke-dasharray="6,2" d="M561.2452 73.7147 L561.2452 93.7147 L244.945 93.7147 L244.945 118.747"/>
      <path fill="white" stroke-dasharray="6,2" d="M561.2452 58.7147 L555.2452 74.7147 L567.2452 74.7147 Z" stroke="none"/>
      <path fill="none" d="M561.2452 58.7147 L555.2452 74.7147 L567.2452 74.7147 Z"/>
      <path fill="none" d="M350.5651 118.685 L350.5651 83.7147 L195.5052 83.7147 L195.5052 73.7147"/>
      <path fill="white" d="M195.5052 58.7147 L189.5052 74.7147 L201.5052 74.7147 Z" stroke="none"/>
      <path fill="none" d="M195.5052 58.7147 L189.5052 74.7147 L201.5052 74.7147 Z"/>
      <path fill="none" stroke-dasharray="6,2" d="M561.2452 73.7147 L561.2452 93.7147 L412.3651 93.7147 L412.3651 118.747"/>
      <path fill="white" stroke-dasharray="6,2" d="M561.2452 58.7147 L555.2452 74.7147 L567.2452 74.7147 Z" stroke="none"/>
      <path fill="none" d="M561.2452 58.7147 L555.2452 74.7147 L567.2452 74.7147 Z"/>
      <path fill="none" d="M97.61 712.523 L97.61 677.523"/>
      <path fill="white" d="M97.61 662.523 L91.61 678.523 L103.61 678.523 Z" stroke="none"/>
      <path fill="none" d="M97.61 662.523 L91.61 678.523 L103.61 678.523 Z"/>
      <path fill="none" d="M77.525 191.8475 L77.525 156.8475"/>
      <path fill="white" d="M77.525 141.8475 L71.525 157.8475 L83.525 157.8475 Z" stroke="none"/>
      <path fill="none" d="M77.525 141.8475 L71.525 157.8475 L83.525 157.8475 Z"/>
      <path fill="none" d="M278.9353 191.8475 L278.9353 166.8475 L77.525 166.8475 L77.525 156.8475"/>
      <path fill="white" d="M77.525 141.8475 L71.525 157.8475 L83.525 157.8475 Z" stroke="none"/>
      <path fill="none" d="M77.525 141.8475 L71.525 157.8475 L83.525 157.8475 Z"/>
      <path fill="none" d="M77.525 118.7147 L77.525 83.7147 L195.5052 83.7147 L195.5052 73.7147"/>
      <path fill="white" d="M195.5052 58.7147 L189.5052 74.7147 L201.5052 74.7147 Z" stroke="none"/>
      <path fill="none" d="M195.5052 58.7147 L189.5052 74.7147 L201.5052 74.7147 Z"/>
      <path fill="none" stroke-dasharray="6,2" d="M561.2452 73.7147 L561.2452 118.7147"/>
      <path fill="white" stroke-dasharray="6,2" d="M561.2452 58.7147 L555.2452 74.7147 L567.2452 74.7147 Z" stroke="none"/>
      <path fill="none" d="M561.2452 58.7147 L555.2452 74.7147 L567.2452 74.7147 Z"/>
      <path fill="none" d="M97.61 639.3902 L97.61 614.3902 L316.0152 614.3902 L316.0152 604.3902"/>
      <path fill="white" d="M316.0152 589.3902 L310.0152 605.3902 L322.0152 605.3902 Z" stroke="none"/>
      <path fill="none" d="M316.0152 589.3902 L310.0152 605.3902 L322.0152 605.3902 Z"/>
      <path fill="none" stroke-dasharray="6,2" d="M561.2452 73.7147 L561.2452 93.7147 L739.9952 93.7147 L739.9952 118.7147"/>
      <path fill="white" stroke-dasharray="6,2" d="M561.2452 58.7147 L555.2452 74.7147 L567.2452 74.7147 Z" stroke="none"/>
      <path fill="none" d="M561.2452 58.7147 L555.2452 74.7147 L567.2452 74.7147 Z"/>
    </g>
  </g>
</svg>
