<?xml version="1.0" encoding="UTF-8"?><svg xmlns="http://www.w3.org/2000/svg" xmlns:xlink="http://www.w3.org/1999/xlink" fill-opacity="1" color-rendering="auto" color-interpolation="auto" stroke="black" text-rendering="auto" stroke-linecap="square" width="598" stroke-miterlimit="10" stroke-opacity="1" shape-rendering="auto" fill="black" stroke-dasharray="none" font-weight="normal" stroke-width="1" height="598" font-family="'Dialog'" font-style="normal" stroke-linejoin="miter" font-size="12" stroke-dashoffset="0" image-rendering="auto">
  <!--Generated by ySVG-->
  <defs id="genericDefs"/>
  <g>
    <defs id="defs1">
      <clipPath clipPathUnits="userSpaceOnUse" id="clipPath1">
        <path d="M0 0 L598 0 L598 598 L0 598 L0 0 Z"/>
      </clipPath>
      <clipPath clipPathUnits="userSpaceOnUse" id="clipPath2">
        <path d="M862.19 87.1328 L941.5 87.1328 L941.5 110.2656 L862.19 110.2656 L862.19 87.1328 Z"/>
      </clipPath>
      <clipPath clipPathUnits="userSpaceOnUse" id="clipPath3">
        <path d="M862.19 0 L1002.27 0 L1002.27 23.1328 L862.19 23.1328 L862.19 0 Z"/>
      </clipPath>
      <clipPath clipPathUnits="userSpaceOnUse" id="clipPath4">
        <path d="M369.255 -107.1328 L426.935 -107.1328 L426.935 -84 L369.255 -84 L369.255 -107.1328 Z"/>
      </clipPath>
      <clipPath clipPathUnits="userSpaceOnUse" id="clipPath5">
        <path d="M0 0 L796.19 0 L796.19 220.25 L0 220.25 L0 0 Z"/>
      </clipPath>
      <script type="text/ecmascript"><![CDATA[
function umlload(newLocation)
{
if (newLocation.charAt(0) != '#') {
if (newLocation.indexOf("://") > -1) {
window.parent.location.href = newLocation;
} else {
var tmp = window.parent.location.href;
tmp = tmp.substring(0, tmp.lastIndexOf("/") + 1);
window.parent.location.href = tmp.concat(newLocation);
}
} else {
window.parent.location.hash = newLocation;
}
}
]]></script>
    </defs>
    <g fill="rgb(238,238,255)" transform="matrix(0.5089,0,0,0.5089,4.0715,265.6647)" stroke="rgb(238,238,255)">
      <rect width="76.1412" x="854.19" height="17.9688" y="61.1328" stroke="none"/>
    </g>
    <g fill="rgb(166,166,178)" stroke-miterlimit="1.45" transform="matrix(0.5089,0,0,0.5089,4.0715,265.6647)" stroke-linecap="butt" stroke="rgb(166,166,178)">
      <rect fill="none" width="76.1412" x="854.19" height="17.9688" y="61.1328"/>
    </g>
    <g fill="rgb(238,238,255)" transform="matrix(0.5089,0,0,0.5089,4.0715,265.6647)" stroke="rgb(238,238,255)">
      <rect width="95.31" x="854.19" height="39.1641" y="79.1016" stroke="none"/>
    </g>
    <g fill="rgb(166,166,178)" stroke-miterlimit="1.45" transform="matrix(0.5089,0,0,0.5089,4.0715,265.6647)" stroke-linecap="butt" stroke="rgb(166,166,178)">
      <rect fill="none" width="95.31" x="854.19" height="39.1641" y="79.1016"/>
    </g>
    <g font-family="sans-serif" transform="matrix(0.5089,0,0,0.5089,4.0715,265.6647)">
      <text xml:space="preserve" x="860.19" y="74.2715" onclick="umlload('http://docs.oracle.com/javase/6/docs/api/java/lang/package-summary.html')" stroke="none">java.lang</text>
    </g>
    <g fill="rgb(187,187,255)" transform="matrix(0.5089,0,0,0.5089,4.0715,265.6647)" stroke="rgb(187,187,255)">
      <rect x="862.19" y="87.1328" clip-path="url(#clipPath2)" width="79.31" height="23.1328" stroke="none"/>
    </g>
    <g fill="rgb(130,130,178)" stroke-miterlimit="1.45" transform="matrix(0.5089,0,0,0.5089,4.0715,265.6647)" stroke-linecap="butt" stroke="rgb(130,130,178)">
      <rect fill="none" width="79.31" x="862.19" height="23.1328" y="87.1328"/>
    </g>
    <g font-size="13" font-weight="bold" font-family="sans-serif" transform="matrix(0.5089,0,0,0.5089,4.0715,265.6647)">
      <text xml:space="preserve" x="867.345" y="103.1997" onclick="umlload('http://docs.oracle.com/javase/6/docs/api/java/lang/Class.html')" stroke="none">Class&lt;T&gt;</text>
    </g>
    <g fill="rgb(238,238,255)" transform="matrix(0.5089,0,0,0.5089,4.0715,265.6647)" stroke="rgb(238,238,255)">
      <rect width="311.661" x="854.19" height="17.9688" y="-26" stroke="none"/>
    </g>
    <g fill="rgb(166,166,178)" stroke-miterlimit="1.45" transform="matrix(0.5089,0,0,0.5089,4.0715,265.6647)" stroke-linecap="butt" stroke="rgb(166,166,178)">
      <rect fill="none" width="311.661" x="854.19" height="17.9688" y="-26"/>
    </g>
    <g fill="rgb(238,238,255)" transform="matrix(0.5089,0,0,0.5089,4.0715,265.6647)" stroke="rgb(238,238,255)">
      <rect width="312.08" x="854.19" height="39.1641" y="-8.0312" stroke="none"/>
    </g>
    <g fill="rgb(166,166,178)" stroke-miterlimit="1.45" transform="matrix(0.5089,0,0,0.5089,4.0715,265.6647)" stroke-linecap="butt" stroke="rgb(166,166,178)">
      <rect fill="none" width="312.08" x="854.19" height="39.1641" y="-8.0312"/>
    </g>
    <g font-family="sans-serif" transform="matrix(0.5089,0,0,0.5089,4.0715,265.6647)">
      <text xml:space="preserve" x="860.19" y="-12.8613" onclick="umlload('../../../../../com/msopentech/odatajclient/engine/format/package-summary.html')" stroke="none">com.msopentech.odatajclient.engine.format</text>
    </g>
    <g fill="rgb(170,170,255)" transform="matrix(0.5089,0,0,0.5089,4.0715,265.6647)" stroke="rgb(170,170,255)">
      <rect x="862.19" y="0" clip-path="url(#clipPath3)" width="140.08" height="23.1328" stroke="none"/>
    </g>
    <g fill="rgb(118,118,178)" stroke-miterlimit="1.45" transform="matrix(0.5089,0,0,0.5089,4.0715,265.6647)" stroke-linecap="butt" stroke="rgb(118,118,178)">
      <rect fill="none" width="140.08" x="862.19" height="23.1328" y="0"/>
    </g>
    <g font-size="13" font-weight="bold" font-family="sans-serif" transform="matrix(0.5089,0,0,0.5089,4.0715,265.6647)">
      <text xml:space="preserve" x="868.23" y="16.0669" onclick="umlload('../../../../../com/msopentech/odatajclient/engine/format/ODataPubFormat.html')" stroke="none">ODataPubFormat</text>
    </g>
    <g fill="rgb(238,238,255)" transform="matrix(0.5089,0,0,0.5089,4.0715,265.6647)" stroke="rgb(238,238,255)">
      <rect width="76.1412" x="361.255" height="17.9688" y="-133.1328" stroke="none"/>
    </g>
    <g fill="rgb(166,166,178)" stroke-miterlimit="1.45" transform="matrix(0.5089,0,0,0.5089,4.0715,265.6647)" stroke-linecap="butt" stroke="rgb(166,166,178)">
      <rect fill="none" width="76.1412" x="361.255" height="17.9688" y="-133.1328"/>
    </g>
    <g fill="rgb(238,238,255)" transform="matrix(0.5089,0,0,0.5089,4.0715,265.6647)" stroke="rgb(238,238,255)">
      <rect width="76.1412" x="361.255" height="39.1641" y="-115.1641" stroke="none"/>
    </g>
    <g fill="rgb(166,166,178)" stroke-miterlimit="1.45" transform="matrix(0.5089,0,0,0.5089,4.0715,265.6647)" stroke-linecap="butt" stroke="rgb(166,166,178)">
      <rect fill="none" width="76.1412" x="361.255" height="39.1641" y="-115.1641"/>
    </g>
    <g font-family="sans-serif" transform="matrix(0.5089,0,0,0.5089,4.0715,265.6647)">
      <text xml:space="preserve" x="367.255" y="-119.9941" onclick="umlload('http://docs.oracle.com/javase/6/docs/api/java/lang/package-summary.html')" stroke="none">java.lang</text>
    </g>
    <g fill="rgb(187,187,255)" transform="matrix(0.5089,0,0,0.5089,4.0715,265.6647)" stroke="rgb(187,187,255)">
      <rect x="369.255" y="-107.1328" clip-path="url(#clipPath4)" width="57.68" height="23.1328" stroke="none"/>
    </g>
    <g fill="rgb(130,130,178)" stroke-miterlimit="1.45" transform="matrix(0.5089,0,0,0.5089,4.0715,265.6647)" stroke-linecap="butt" stroke="rgb(130,130,178)">
      <rect fill="none" width="57.68" x="369.255" height="23.1328" y="-107.1328"/>
    </g>
    <g font-size="13" font-weight="bold" font-family="sans-serif" transform="matrix(0.5089,0,0,0.5089,4.0715,265.6647)">
      <text xml:space="preserve" x="374.095" y="-91.0659" onclick="umlload('http://docs.oracle.com/javase/6/docs/api/java/lang/Object.html')" stroke="none">Object</text>
    </g>
    <g fill="rgb(238,238,255)" transform="matrix(0.5089,0,0,0.5089,4.0715,265.6647)" stroke="rgb(238,238,255)">
      <rect width="298.9302" x="-8" height="17.9688" y="-26" stroke="none"/>
    </g>
    <g fill="rgb(166,166,178)" stroke-miterlimit="1.45" transform="matrix(0.5089,0,0,0.5089,4.0715,265.6647)" stroke-linecap="butt" stroke="rgb(166,166,178)">
      <rect fill="none" width="298.9302" x="-8" height="17.9688" y="-26"/>
    </g>
    <g fill="rgb(238,238,255)" transform="matrix(0.5089,0,0,0.5089,4.0715,265.6647)" stroke="rgb(238,238,255)">
      <rect width="812.19" x="-8" height="236.2812" y="-8.0312" stroke="none"/>
    </g>
    <g fill="rgb(166,166,178)" stroke-miterlimit="1.45" transform="matrix(0.5089,0,0,0.5089,4.0715,265.6647)" stroke-linecap="butt" stroke="rgb(166,166,178)">
      <rect fill="none" width="812.19" x="-8" height="236.2812" y="-8.0312"/>
    </g>
    <g font-family="sans-serif" transform="matrix(0.5089,0,0,0.5089,4.0715,265.6647)">
      <text xml:space="preserve" x="-2" y="-12.8613" onclick="umlload('package-summary.html')" stroke="none">com.msopentech.odatajclient.engine.data</text>
    </g>
    <g fill="rgb(187,187,255)" transform="matrix(0.5089,0,0,0.5089,4.0715,265.6647)" stroke="rgb(187,187,255)">
      <rect x="0" y="0" clip-path="url(#clipPath5)" width="796.19" height="26.625" stroke="none"/>
      <line clip-path="url(#clipPath5)" fill="none" x1="0" x2="796.19" y1="26.625" y2="26.625" stroke="black"/>
      <rect x="0" y="27.625" clip-path="url(#clipPath5)" width="796.19" height="15.9688" stroke="none"/>
      <line clip-path="url(#clipPath5)" fill="none" x1="0" x2="796.19" y1="43.5938" y2="43.5938" stroke="black"/>
      <rect x="0" y="44.5938" clip-path="url(#clipPath5)" width="796.19" height="175.6562" stroke="none"/>
    </g>
    <g fill="rgb(130,130,178)" stroke-miterlimit="1.45" transform="matrix(0.5089,0,0,0.5089,4.0715,265.6647)" stroke-linecap="butt" stroke="rgb(130,130,178)">
      <rect fill="none" width="796.19" x="0" height="220.25" y="0"/>
    </g>
    <g font-size="16" font-weight="bold" font-family="sans-serif" transform="matrix(0.5089,0,0,0.5089,4.0715,265.6647)">
      <text xml:space="preserve" x="322.595" y="18.8516" onclick="umlload('#')" stroke="none">ResourceFactory</text>
    </g>
    <g font-family="sans-serif" transform="matrix(0.5089,0,0,0.5089,4.0715,265.6647)">
      <text xml:space="preserve" x="4" y="38.1719" stroke="none">+</text>
      <text xml:space="preserve" x="19" y="39.7637" onclick="umlload('#ResourceFactory()')" stroke="none">ResourceFactory()</text>
    </g>
    <g font-family="sans-serif" transform="matrix(0.5089,0,0,0.5089,4.0715,265.6647)">
      <text xml:space="preserve" x="4" y="55.1719" stroke="none">+</text>
      <text xml:space="preserve" x="19" y="56.7324" onclick="umlload('#entryClassForFeed(java.lang.Class)')" stroke="none">entryClassForFeed(Class&lt;T&gt;) : &lt;T extends FeedResource, K extends EntryResource&gt; Class&lt;K extends EntryResource&gt;</text>
      <line y2="59.5625" fill="none" x1="19" x2="769" y1="59.5625"/>
    </g>
    <g font-family="sans-serif" transform="matrix(0.5089,0,0,0.5089,4.0715,265.6647)">
      <text xml:space="preserve" x="4" y="71.1719" stroke="none">+</text>
      <text xml:space="preserve" x="19" y="72.7012" onclick="umlload('#entryClassForFormat(com.msopentech.odatajclient.engine.format.ODataPubFormat)')" stroke="none">entryClassForFormat(ODataPubFormat) : &lt;T extends EntryResource&gt; Class&lt;T extends EntryResource&gt;</text>
      <line y2="75.5312" fill="none" x1="19" x2="666" y1="75.5312"/>
    </g>
    <g font-family="sans-serif" transform="matrix(0.5089,0,0,0.5089,4.0715,265.6647)">
      <text xml:space="preserve" x="4" y="87.1719" stroke="none">+</text>
      <text xml:space="preserve" x="19" y="88.6699" onclick="umlload('#entryClassForLink(java.lang.Class)')" stroke="none">entryClassForLink(Class&lt;T&gt;) : &lt;T extends LinkResource, K extends EntryResource&gt; Class&lt;K extends EntryResource&gt;</text>
      <line y2="91.5" fill="none" x1="19" x2="755" y1="91.5"/>
    </g>
    <g font-family="sans-serif" transform="matrix(0.5089,0,0,0.5089,4.0715,265.6647)">
      <text xml:space="preserve" x="4" y="103.1719" stroke="none">+</text>
      <text xml:space="preserve" x="19" y="104.6387" onclick="umlload('#feedClassForFormat(com.msopentech.odatajclient.engine.format.ODataPubFormat)')" stroke="none">feedClassForFormat(ODataPubFormat) : &lt;T extends FeedResource&gt; Class&lt;T extends FeedResource&gt;</text>
      <line y2="107.4688" fill="none" x1="19" x2="660" y1="107.4688"/>
    </g>
    <g font-family="sans-serif" transform="matrix(0.5089,0,0,0.5089,4.0715,265.6647)">
      <text xml:space="preserve" x="4" y="119.1719" stroke="none">+</text>
      <text xml:space="preserve" x="19" y="120.6074" onclick="umlload('#feedClassForLink(java.lang.Class)')" stroke="none">feedClassForLink(Class&lt;T&gt;) : &lt;T extends LinkResource, K extends FeedResource&gt; Class&lt;K extends FeedResource&gt;</text>
      <line y2="123.4375" fill="none" x1="19" x2="749" y1="123.4375"/>
    </g>
    <g font-family="sans-serif" transform="matrix(0.5089,0,0,0.5089,4.0715,265.6647)">
      <text xml:space="preserve" x="4" y="135.1719" stroke="none">+</text>
      <text xml:space="preserve" x="19" y="136.5762" onclick="umlload('#linkClassForEntry(java.lang.Class)')" stroke="none">linkClassForEntry(Class&lt;K&gt;) : &lt;T extends LinkResource, K extends EntryResource&gt; Class&lt;T extends LinkResource&gt;</text>
      <line y2="139.4062" fill="none" x1="19" x2="744" y1="139.4062"/>
    </g>
    <g font-family="sans-serif" transform="matrix(0.5089,0,0,0.5089,4.0715,265.6647)">
      <text xml:space="preserve" x="4" y="151.1719" stroke="none">+</text>
      <text xml:space="preserve" x="19" y="152.5449" onclick="umlload('#newEntry(java.lang.Class)')" stroke="none">newEntry(Class&lt;T&gt;) : &lt;T extends EntryResource&gt; T</text>
      <line y2="155.375" fill="none" x1="19" x2="345" y1="155.375"/>
    </g>
    <g font-family="sans-serif" transform="matrix(0.5089,0,0,0.5089,4.0715,265.6647)">
      <text xml:space="preserve" x="4" y="167.1719" stroke="none">+</text>
      <text xml:space="preserve" x="19" y="168.5137" onclick="umlload('#newFeed(java.lang.Class)')" stroke="none">newFeed(Class&lt;T&gt;) : &lt;T extends FeedResource&gt; T</text>
      <line y2="171.3438" fill="none" x1="19" x2="343" y1="171.3438"/>
    </g>
    <g font-family="sans-serif" transform="matrix(0.5089,0,0,0.5089,4.0715,265.6647)">
      <text xml:space="preserve" x="4" y="183.1719" stroke="none">+</text>
      <text xml:space="preserve" x="19" y="184.4824" onclick="umlload('#newLink(java.lang.Class)')" stroke="none">newLink(Class&lt;T&gt;) : &lt;T extends LinkResource&gt; T</text>
      <line y2="187.3125" fill="none" x1="19" x2="329" y1="187.3125"/>
    </g>
    <g font-family="sans-serif" transform="matrix(0.5089,0,0,0.5089,4.0715,265.6647)">
      <text xml:space="preserve" x="4" y="199.1719" stroke="none">+</text>
      <text xml:space="preserve" x="19" y="200.4512" onclick="umlload('#newLinkForEntry(java.lang.Class)')" stroke="none">newLinkForEntry(Class&lt;K&gt;) : &lt;T extends LinkResource, K extends EntryResource&gt; T</text>
      <line y2="203.2812" fill="none" x1="19" x2="545" y1="203.2812"/>
    </g>
    <g font-family="sans-serif" transform="matrix(0.5089,0,0,0.5089,4.0715,265.6647)">
      <text xml:space="preserve" x="4" y="215.1719" stroke="none">+</text>
      <text xml:space="preserve" x="19" y="216.4199" onclick="umlload('#newLinkForFeed(java.lang.Class)')" stroke="none">newLinkForFeed(Class&lt;K&gt;) : &lt;T extends LinkResource, K extends FeedResource&gt; T</text>
      <line y2="219.25" fill="none" x1="19" x2="543" y1="219.25"/>
    </g>
    <g font-family="sans-serif" transform="matrix(0.5089,0,0,0.5089,4.0715,265.6647)">
      <text xml:space="preserve" x="-2" y="253.1543" onclick="umlload('http://www.yworks.com/')" stroke="none">yWorks UML Doclet</text>
    </g>
    <g stroke-miterlimit="1.45" transform="matrix(0.5089,0,0,0.5089,4.0715,265.6647)" stroke-linecap="butt">
      <path fill="none" d="M398.095 0.0228 L398.095 -69"/>
      <path fill="white" d="M398.095 -84 L392.095 -68 L404.095 -68 Z" stroke="none"/>
      <path fill="none" d="M398.095 -84 L392.095 -68 L404.095 -68 Z"/>
      <path fill="none" stroke-dasharray="6,2" d="M796.186 11.5664 L862.19 11.5664"/>
      <line stroke-linecap="square" transform="matrix(1,0,0,1,862.19,11.5664)" fill="none" x1="0" x2="-14" y1="0" y2="-4" stroke-miterlimit="10"/>
      <line stroke-linecap="square" transform="matrix(1,0,0,1,862.19,11.5664)" fill="none" x1="0" x2="-14" y1="0" y2="4" stroke-miterlimit="10"/>
    </g>
    <g stroke-dasharray="6,2" stroke-miterlimit="1.45" transform="matrix(0.5089,0,0,0.5089,4.0715,265.6647)" stroke-linecap="butt">
      <path fill="none" d="M796.1694 98.6992 L862.19 98.6992"/>
      <line stroke-linecap="square" transform="matrix(1,0,0,1,862.19,98.6992)" fill="none" x1="0" x2="-14" y1="0" y2="-4" stroke-dasharray="none" stroke-miterlimit="10"/>
      <line stroke-linecap="square" transform="matrix(1,0,0,1,862.19,98.6992)" fill="none" x1="0" x2="-14" y1="0" y2="4" stroke-dasharray="none" stroke-miterlimit="10"/>
    </g>
  </g>
</svg>
