<?xml version="1.0" encoding="UTF-8"?><svg xmlns="http://www.w3.org/2000/svg" xmlns:xlink="http://www.w3.org/1999/xlink" fill-opacity="1" color-rendering="auto" color-interpolation="auto" stroke="black" text-rendering="auto" stroke-linecap="square" width="598" stroke-miterlimit="10" stroke-opacity="1" shape-rendering="auto" fill="black" stroke-dasharray="none" font-weight="normal" stroke-width="1" height="598" font-family="'Dialog'" font-style="normal" stroke-linejoin="miter" font-size="12" stroke-dashoffset="0" image-rendering="auto">
  <!--Generated by ySVG-->
  <defs id="genericDefs"/>
  <g>
    <defs id="defs1">
      <clipPath clipPathUnits="userSpaceOnUse" id="clipPath1">
        <path d="M0 0 L598 0 L598 598 L0 598 L0 0 Z"/>
      </clipPath>
      <clipPath clipPathUnits="userSpaceOnUse" id="clipPath2">
        <path d="M561.6015 310.8886 C561.6015 319.9225 539.4281 327.246 512.0757 327.246 C484.7234 327.246 462.55 319.9225 462.55 310.8886 C462.55 301.8547 484.7234 294.5312 512.0757 294.5312 C539.4281 294.5312 561.6015 301.8547 561.6015 310.8886 Z"/>
      </clipPath>
      <clipPath clipPathUnits="userSpaceOnUse" id="clipPath3">
        <path d="M529.5554 353.6034 C529.5554 362.6373 514.5558 369.9607 496.0527 369.9607 C477.5497 369.9607 462.55 362.6373 462.55 353.6034 C462.55 344.5694 477.5497 337.246 496.0527 337.246 C514.5558 337.246 529.5554 344.5694 529.5554 353.6034 Z"/>
      </clipPath>
      <clipPath clipPathUnits="userSpaceOnUse" id="clipPath4">
        <path d="M462.55 174.2656 L577.91 174.2656 L577.91 197.3984 L462.55 197.3984 L462.55 174.2656 Z"/>
      </clipPath>
      <clipPath clipPathUnits="userSpaceOnUse" id="clipPath5">
        <path d="M462.55 207.3984 L517.14 207.3984 L517.14 230.5312 L462.55 230.5312 L462.55 207.3984 Z"/>
      </clipPath>
      <clipPath clipPathUnits="userSpaceOnUse" id="clipPath6">
        <path d="M462.55 87.1328 L572.76 87.1328 L572.76 110.2656 L462.55 110.2656 L462.55 87.1328 Z"/>
      </clipPath>
      <clipPath clipPathUnits="userSpaceOnUse" id="clipPath7">
        <path d="M462.55 0 L549.07 0 L549.07 23.1328 L462.55 23.1328 L462.55 0 Z"/>
      </clipPath>
      <clipPath clipPathUnits="userSpaceOnUse" id="clipPath8">
        <path d="M169.435 -107.1328 L227.115 -107.1328 L227.115 -84 L169.435 -84 L169.435 -107.1328 Z"/>
      </clipPath>
      <clipPath clipPathUnits="userSpaceOnUse" id="clipPath9">
        <path d="M-0 0 L396.55 0 L396.55 377.9607 L-0 377.9607 L-0 0 Z"/>
      </clipPath>
      <script type="text/ecmascript"><![CDATA[
function umlload(newLocation)
{
if (newLocation.charAt(0) != '#') {
if (newLocation.indexOf("://") > -1) {
window.parent.location.href = newLocation;
} else {
var tmp = window.parent.location.href;
tmp = tmp.substring(0, tmp.lastIndexOf("/") + 1);
window.parent.location.href = tmp.concat(newLocation);
}
} else {
window.parent.location.hash = newLocation;
}
}
]]></script>
    </defs>
    <g fill="rgb(238,238,255)" transform="matrix(0.7716,0,0,0.7716,6.1729,188.2735)" stroke="rgb(238,238,255)">
      <rect width="101.6028" x="454.55" height="17.9688" y="268.5312" stroke="none"/>
    </g>
    <g fill="rgb(166,166,178)" stroke-miterlimit="1.45" transform="matrix(0.7716,0,0,0.7716,6.1729,188.2735)" stroke-linecap="butt" stroke="rgb(166,166,178)">
      <rect fill="none" width="101.6028" x="454.55" height="17.9688" y="268.5312"/>
    </g>
    <g fill="rgb(238,238,255)" transform="matrix(0.7716,0,0,0.7716,6.1729,188.2735)" stroke="rgb(238,238,255)">
      <rect width="115.0515" x="454.55" height="91.4607" y="286.5" stroke="none"/>
    </g>
    <g fill="rgb(166,166,178)" stroke-miterlimit="1.45" transform="matrix(0.7716,0,0,0.7716,6.1729,188.2735)" stroke-linecap="butt" stroke="rgb(166,166,178)">
      <rect fill="none" width="115.0515" x="454.55" height="91.4607" y="286.5"/>
    </g>
    <g font-family="sans-serif" transform="matrix(0.7716,0,0,0.7716,6.1729,188.2735)">
      <text xml:space="preserve" x="460.55" y="281.6699" onclick="umlload('http://docs.oracle.com/javase/6/docs/api/org/w3c/dom/package-summary.html')" stroke="none">org.w3c.dom</text>
    </g>
    <g fill="rgb(221,221,255)" transform="matrix(0.7716,0,0,0.7716,6.1729,188.2735)" stroke="rgb(221,221,255)">
      <rect x="462.55" y="294.5312" clip-path="url(#clipPath2)" width="99.0515" height="32.7147" stroke="none"/>
    </g>
    <g fill="rgb(154,154,178)" stroke-miterlimit="1.45" transform="matrix(0.7716,0,0,0.7716,6.1729,188.2735)" stroke-linecap="butt" stroke="rgb(154,154,178)">
      <ellipse rx="49.5258" fill="none" ry="16.3574" cx="512.0758" cy="310.8886"/>
    </g>
    <g font-style="italic" font-size="13" font-weight="bold" font-family="sans-serif" transform="matrix(0.7716,0,0,0.7716,6.1729,188.2735)">
      <text xml:space="preserve" x="482.0757" y="315.3891" onclick="umlload('http://docs.oracle.com/javase/6/docs/api/org/w3c/dom/Element.html')" stroke="none">Element</text>
    </g>
    <g fill="rgb(221,221,255)" transform="matrix(0.7716,0,0,0.7716,6.1729,188.2735)" stroke="rgb(221,221,255)">
      <rect x="462.55" y="337.246" clip-path="url(#clipPath3)" width="67.0054" height="32.7147" stroke="none"/>
    </g>
    <g fill="rgb(154,154,178)" stroke-miterlimit="1.45" transform="matrix(0.7716,0,0,0.7716,6.1729,188.2735)" stroke-linecap="butt" stroke="rgb(154,154,178)">
      <ellipse rx="33.5027" fill="none" ry="16.3574" cx="496.0527" cy="353.6034"/>
    </g>
    <g font-style="italic" font-size="13" font-weight="bold" font-family="sans-serif" transform="matrix(0.7716,0,0,0.7716,6.1729,188.2735)">
      <text xml:space="preserve" x="477.0527" y="358.1039" onclick="umlload('http://docs.oracle.com/javase/6/docs/api/org/w3c/dom/Node.html')" stroke="none">Node</text>
    </g>
    <g fill="rgb(238,238,255)" transform="matrix(0.7716,0,0,0.7716,6.1729,188.2735)" stroke="rgb(238,238,255)">
      <rect width="59.1668" x="454.55" height="17.9688" y="148.2656" stroke="none"/>
    </g>
    <g fill="rgb(166,166,178)" stroke-miterlimit="1.45" transform="matrix(0.7716,0,0,0.7716,6.1729,188.2735)" stroke-linecap="butt" stroke="rgb(166,166,178)">
      <rect fill="none" width="59.1668" x="454.55" height="17.9688" y="148.2656"/>
    </g>
    <g fill="rgb(238,238,255)" transform="matrix(0.7716,0,0,0.7716,6.1729,188.2735)" stroke="rgb(238,238,255)">
      <rect width="131.36" x="454.55" height="72.2969" y="166.2344" stroke="none"/>
    </g>
    <g fill="rgb(166,166,178)" stroke-miterlimit="1.45" transform="matrix(0.7716,0,0,0.7716,6.1729,188.2735)" stroke-linecap="butt" stroke="rgb(166,166,178)">
      <rect fill="none" width="131.36" x="454.55" height="72.2969" y="166.2344"/>
    </g>
    <g font-family="sans-serif" transform="matrix(0.7716,0,0,0.7716,6.1729,188.2735)">
      <text xml:space="preserve" x="460.55" y="161.4043" onclick="umlload('http://docs.oracle.com/javase/6/docs/api/java/io/package-summary.html')" stroke="none">java.io</text>
    </g>
    <g fill="rgb(204,204,255)" transform="matrix(0.7716,0,0,0.7716,6.1729,188.2735)" stroke="rgb(204,204,255)">
      <rect x="462.55" y="174.2656" clip-path="url(#clipPath4)" width="115.36" height="23.1328" stroke="none"/>
    </g>
    <g fill="rgb(142,142,178)" stroke-miterlimit="1.45" transform="matrix(0.7716,0,0,0.7716,6.1729,188.2735)" stroke-linecap="butt" stroke="rgb(142,142,178)">
      <rect fill="none" width="115.36" x="462.55" height="23.1328" y="174.2656"/>
    </g>
    <g font-size="13" font-weight="bold" font-family="sans-serif" transform="matrix(0.7716,0,0,0.7716,6.1729,188.2735)">
      <text xml:space="preserve" x="468.23" y="190.3325" onclick="umlload('http://docs.oracle.com/javase/6/docs/api/java/io/OutputStream.html')" stroke="none">OutputStream</text>
    </g>
    <g fill="rgb(204,204,255)" transform="matrix(0.7716,0,0,0.7716,6.1729,188.2735)" stroke="rgb(204,204,255)">
      <rect x="462.55" y="207.3984" clip-path="url(#clipPath5)" width="54.59" height="23.1328" stroke="none"/>
    </g>
    <g fill="rgb(142,142,178)" stroke-miterlimit="1.45" transform="matrix(0.7716,0,0,0.7716,6.1729,188.2735)" stroke-linecap="butt" stroke="rgb(142,142,178)">
      <rect fill="none" width="54.59" x="462.55" height="23.1328" y="207.3984"/>
    </g>
    <g font-size="13" font-weight="bold" font-family="sans-serif" transform="matrix(0.7716,0,0,0.7716,6.1729,188.2735)">
      <text xml:space="preserve" x="467.345" y="223.4653" onclick="umlload('http://docs.oracle.com/javase/6/docs/api/java/io/Writer.html')" stroke="none">Writer</text>
    </g>
    <g fill="rgb(238,238,255)" transform="matrix(0.7716,0,0,0.7716,6.1729,188.2735)" stroke="rgb(238,238,255)">
      <rect width="311.661" x="454.55" height="17.9688" y="61.1328" stroke="none"/>
    </g>
    <g fill="rgb(166,166,178)" stroke-miterlimit="1.45" transform="matrix(0.7716,0,0,0.7716,6.1729,188.2735)" stroke-linecap="butt" stroke="rgb(166,166,178)">
      <rect fill="none" width="311.661" x="454.55" height="17.9688" y="61.1328"/>
    </g>
    <g fill="rgb(238,238,255)" transform="matrix(0.7716,0,0,0.7716,6.1729,188.2735)" stroke="rgb(238,238,255)">
      <rect width="311.661" x="454.55" height="39.1641" y="79.1016" stroke="none"/>
    </g>
    <g fill="rgb(166,166,178)" stroke-miterlimit="1.45" transform="matrix(0.7716,0,0,0.7716,6.1729,188.2735)" stroke-linecap="butt" stroke="rgb(166,166,178)">
      <rect fill="none" width="311.661" x="454.55" height="39.1641" y="79.1016"/>
    </g>
    <g font-family="sans-serif" transform="matrix(0.7716,0,0,0.7716,6.1729,188.2735)">
      <text xml:space="preserve" x="460.55" y="74.2715" onclick="umlload('../../../../../com/msopentech/odatajclient/engine/format/package-summary.html')" stroke="none">com.msopentech.odatajclient.engine.format</text>
    </g>
    <g fill="rgb(170,170,255)" transform="matrix(0.7716,0,0,0.7716,6.1729,188.2735)" stroke="rgb(170,170,255)">
      <rect x="462.55" y="87.1328" clip-path="url(#clipPath6)" width="110.21" height="23.1328" stroke="none"/>
    </g>
    <g fill="rgb(118,118,178)" stroke-miterlimit="1.45" transform="matrix(0.7716,0,0,0.7716,6.1729,188.2735)" stroke-linecap="butt" stroke="rgb(118,118,178)">
      <rect fill="none" width="110.21" x="462.55" height="23.1328" y="87.1328"/>
    </g>
    <g font-size="13" font-weight="bold" font-family="sans-serif" transform="matrix(0.7716,0,0,0.7716,6.1729,188.2735)">
      <text xml:space="preserve" x="468.155" y="103.1997" onclick="umlload('../../../../../com/msopentech/odatajclient/engine/format/ODataFormat.html')" stroke="none">ODataFormat</text>
    </g>
    <g fill="rgb(238,238,255)" transform="matrix(0.7716,0,0,0.7716,6.1729,188.2735)" stroke="rgb(238,238,255)">
      <rect width="298.9302" x="454.55" height="17.9688" y="-26" stroke="none"/>
    </g>
    <g fill="rgb(166,166,178)" stroke-miterlimit="1.45" transform="matrix(0.7716,0,0,0.7716,6.1729,188.2735)" stroke-linecap="butt" stroke="rgb(166,166,178)">
      <rect fill="none" width="298.9302" x="454.55" height="17.9688" y="-26"/>
    </g>
    <g fill="rgb(238,238,255)" transform="matrix(0.7716,0,0,0.7716,6.1729,188.2735)" stroke="rgb(238,238,255)">
      <rect width="298.9302" x="454.55" height="39.1641" y="-8.0312" stroke="none"/>
    </g>
    <g fill="rgb(166,166,178)" stroke-miterlimit="1.45" transform="matrix(0.7716,0,0,0.7716,6.1729,188.2735)" stroke-linecap="butt" stroke="rgb(166,166,178)">
      <rect fill="none" width="298.9302" x="454.55" height="39.1641" y="-8.0312"/>
    </g>
    <g font-family="sans-serif" transform="matrix(0.7716,0,0,0.7716,6.1729,188.2735)">
      <text xml:space="preserve" x="460.55" y="-12.8613" onclick="umlload('../../../../../com/msopentech/odatajclient/engine/data/package-summary.html')" stroke="none">com.msopentech.odatajclient.engine.data</text>
    </g>
    <g fill="rgb(187,187,255)" transform="matrix(0.7716,0,0,0.7716,6.1729,188.2735)" stroke="rgb(187,187,255)">
      <rect x="462.55" y="0" clip-path="url(#clipPath7)" width="86.52" height="23.1328" stroke="none"/>
    </g>
    <g fill="rgb(130,130,178)" stroke-miterlimit="1.45" transform="matrix(0.7716,0,0,0.7716,6.1729,188.2735)" stroke-linecap="butt" stroke="rgb(130,130,178)">
      <rect fill="none" width="86.52" x="462.55" height="23.1328" y="0"/>
    </g>
    <g font-size="13" font-weight="bold" font-family="sans-serif" transform="matrix(0.7716,0,0,0.7716,6.1729,188.2735)">
      <text xml:space="preserve" x="467.81" y="16.0669" onclick="umlload('../../../../../com/msopentech/odatajclient/engine/data/ODataLink.html')" stroke="none">ODataLink</text>
    </g>
    <g fill="rgb(238,238,255)" transform="matrix(0.7716,0,0,0.7716,6.1729,188.2735)" stroke="rgb(238,238,255)">
      <rect width="76.1412" x="161.435" height="17.9688" y="-133.1328" stroke="none"/>
    </g>
    <g fill="rgb(166,166,178)" stroke-miterlimit="1.45" transform="matrix(0.7716,0,0,0.7716,6.1729,188.2735)" stroke-linecap="butt" stroke="rgb(166,166,178)">
      <rect fill="none" width="76.1412" x="161.435" height="17.9688" y="-133.1328"/>
    </g>
    <g fill="rgb(238,238,255)" transform="matrix(0.7716,0,0,0.7716,6.1729,188.2735)" stroke="rgb(238,238,255)">
      <rect width="76.1412" x="161.435" height="39.1641" y="-115.1641" stroke="none"/>
    </g>
    <g fill="rgb(166,166,178)" stroke-miterlimit="1.45" transform="matrix(0.7716,0,0,0.7716,6.1729,188.2735)" stroke-linecap="butt" stroke="rgb(166,166,178)">
      <rect fill="none" width="76.1412" x="161.435" height="39.1641" y="-115.1641"/>
    </g>
    <g font-family="sans-serif" transform="matrix(0.7716,0,0,0.7716,6.1729,188.2735)">
      <text xml:space="preserve" x="167.435" y="-119.9941" onclick="umlload('http://docs.oracle.com/javase/6/docs/api/java/lang/package-summary.html')" stroke="none">java.lang</text>
    </g>
    <g fill="rgb(187,187,255)" transform="matrix(0.7716,0,0,0.7716,6.1729,188.2735)" stroke="rgb(187,187,255)">
      <rect x="169.435" y="-107.1328" clip-path="url(#clipPath8)" width="57.68" height="23.1328" stroke="none"/>
    </g>
    <g fill="rgb(130,130,178)" stroke-miterlimit="1.45" transform="matrix(0.7716,0,0,0.7716,6.1729,188.2735)" stroke-linecap="butt" stroke="rgb(130,130,178)">
      <rect fill="none" width="57.68" x="169.435" height="23.1328" y="-107.1328"/>
    </g>
    <g font-size="13" font-weight="bold" font-family="sans-serif" transform="matrix(0.7716,0,0,0.7716,6.1729,188.2735)">
      <text xml:space="preserve" x="174.275" y="-91.0659" onclick="umlload('http://docs.oracle.com/javase/6/docs/api/java/lang/Object.html')" stroke="none">Object</text>
    </g>
    <g fill="rgb(238,238,255)" transform="matrix(0.7716,0,0,0.7716,6.1729,188.2735)" stroke="rgb(238,238,255)">
      <rect width="298.9302" x="-8" height="17.9688" y="-26" stroke="none"/>
    </g>
    <g fill="rgb(166,166,178)" stroke-miterlimit="1.45" transform="matrix(0.7716,0,0,0.7716,6.1729,188.2735)" stroke-linecap="butt" stroke="rgb(166,166,178)">
      <rect fill="none" width="298.9302" x="-8" height="17.9688" y="-26"/>
    </g>
    <g fill="rgb(238,238,255)" transform="matrix(0.7716,0,0,0.7716,6.1729,188.2735)" stroke="rgb(238,238,255)">
      <rect width="412.55" x="-8" height="393.992" y="-8.0312" stroke="none"/>
    </g>
    <g fill="rgb(166,166,178)" stroke-miterlimit="1.45" transform="matrix(0.7716,0,0,0.7716,6.1729,188.2735)" stroke-linecap="butt" stroke="rgb(166,166,178)">
      <rect fill="none" width="412.55" x="-8" height="393.992" y="-8.0312"/>
    </g>
    <g font-family="sans-serif" transform="matrix(0.7716,0,0,0.7716,6.1729,188.2735)">
      <text xml:space="preserve" x="-2" y="-12.8613" onclick="umlload('package-summary.html')" stroke="none">com.msopentech.odatajclient.engine.data</text>
    </g>
    <g fill="rgb(187,187,255)" transform="matrix(0.7716,0,0,0.7716,6.1729,188.2735)" stroke="rgb(187,187,255)">
      <rect x="0" y="0" clip-path="url(#clipPath9)" width="396.55" height="26.625" stroke="none"/>
      <line clip-path="url(#clipPath9)" fill="none" x1="0" x2="396.55" y1="26.625" y2="26.625" stroke="black"/>
      <line clip-path="url(#clipPath9)" x1="0" x2="396.55" y1="27.625" y2="27.625" stroke="none"/>
      <line clip-path="url(#clipPath9)" fill="none" x1="0" x2="396.55" y1="27.625" y2="27.625" stroke="black"/>
      <rect x="0" y="28.625" clip-path="url(#clipPath9)" width="396.55" height="349.3357" stroke="none"/>
    </g>
    <g fill="rgb(130,130,178)" stroke-miterlimit="1.45" transform="matrix(0.7716,0,0,0.7716,6.1729,188.2735)" stroke-linecap="butt" stroke="rgb(130,130,178)">
      <rect fill="none" width="396.55" x="0" height="377.9607" y="0"/>
    </g>
    <g font-size="16" font-weight="bold" font-family="sans-serif" transform="matrix(0.7716,0,0,0.7716,6.1729,188.2735)">
      <text xml:space="preserve" x="158.275" y="18.8516" onclick="umlload('#')" stroke="none">Serializer</text>
    </g>
    <g font-family="sans-serif" transform="matrix(0.7716,0,0,0.7716,6.1729,188.2735)">
      <text xml:space="preserve" x="4" y="39.1719" stroke="none">+</text>
      <text xml:space="preserve" x="19" y="40.7637" onclick="umlload('#dom(org.w3c.dom.Node, java.io.OutputStream)')" stroke="none">dom(Node, OutputStream) : void</text>
      <line y2="43.5938" fill="none" x1="19" x2="222" y1="43.5938"/>
    </g>
    <g font-family="sans-serif" transform="matrix(0.7716,0,0,0.7716,6.1729,188.2735)">
      <text xml:space="preserve" x="4" y="55.1719" stroke="none">+</text>
      <text xml:space="preserve" x="19" y="56.7324" onclick="umlload('#dom(org.w3c.dom.Node, java.io.Writer)')" stroke="none">dom(Node, Writer) : void</text>
      <line y2="59.5625" fill="none" x1="19" x2="171" y1="59.5625"/>
    </g>
    <g font-family="sans-serif" transform="matrix(0.7716,0,0,0.7716,6.1729,188.2735)">
      <text xml:space="preserve" x="4" y="71.1719" stroke="none">+</text>
      <text xml:space="preserve" x="19" y="72.7012" onclick="umlload('#entry(T, java.io.OutputStream)')" stroke="none">entry(T, OutputStream) : &lt;T extends EntryResource&gt; void</text>
      <line y2="75.5312" fill="none" x1="19" x2="381" y1="75.5312"/>
    </g>
    <g font-family="sans-serif" transform="matrix(0.7716,0,0,0.7716,6.1729,188.2735)">
      <text xml:space="preserve" x="4" y="87.1719" stroke="none">+</text>
      <text xml:space="preserve" x="19" y="88.6699" onclick="umlload('#entry(T, java.io.Writer)')" stroke="none">entry(T, Writer) : &lt;T extends EntryResource&gt; void</text>
      <line y2="91.5" fill="none" x1="19" x2="330" y1="91.5"/>
    </g>
    <g font-family="sans-serif" transform="matrix(0.7716,0,0,0.7716,6.1729,188.2735)">
      <text xml:space="preserve" x="4" y="103.1719" stroke="none">+</text>
      <text xml:space="preserve" x="19" y="104.6387" onclick="umlload('#feed(T, java.io.OutputStream)')" stroke="none">feed(T, OutputStream) : &lt;T extends FeedResource&gt; void</text>
      <line y2="107.4688" fill="none" x1="19" x2="376" y1="107.4688"/>
    </g>
    <g font-family="sans-serif" transform="matrix(0.7716,0,0,0.7716,6.1729,188.2735)">
      <text xml:space="preserve" x="4" y="119.1719" stroke="none">+</text>
      <text xml:space="preserve" x="19" y="120.6074" onclick="umlload('#feed(T, java.io.Writer)')" stroke="none">feed(T, Writer) : &lt;T extends FeedResource&gt; void</text>
      <line y2="123.4375" fill="none" x1="19" x2="325" y1="123.4375"/>
    </g>
    <g font-family="sans-serif" transform="matrix(0.7716,0,0,0.7716,6.1729,188.2735)">
      <text xml:space="preserve" x="4" y="135.1719" stroke="none">+</text>
      <text xml:space="preserve" x="19" y="136.5762" onclick="umlload('#link(com.msopentech.odatajclient.engine.data.ODataLink, com.msopentech.odatajclient.engine.format.ODataFormat, java.io.OutputStream)')" stroke="none">link(ODataLink, ODataFormat, OutputStream) : void</text>
      <line y2="139.4062" fill="none" x1="19" x2="337" y1="139.4062"/>
    </g>
    <g font-family="sans-serif" transform="matrix(0.7716,0,0,0.7716,6.1729,188.2735)">
      <text xml:space="preserve" x="4" y="151.1719" stroke="none">+</text>
      <text xml:space="preserve" x="19" y="152.5449" onclick="umlload('#link(com.msopentech.odatajclient.engine.data.ODataLink, com.msopentech.odatajclient.engine.format.ODataFormat, java.io.Writer)')" stroke="none">link(ODataLink, ODataFormat, Writer) : void</text>
      <line y2="155.375" fill="none" x1="19" x2="286" y1="155.375"/>
    </g>
    <g font-family="sans-serif" transform="matrix(0.7716,0,0,0.7716,6.1729,188.2735)">
      <text xml:space="preserve" x="4" y="167.1719" stroke="none">+</text>
      <text xml:space="preserve" x="19" y="168.5137" onclick="umlload('#property(org.w3c.dom.Element, com.msopentech.odatajclient.engine.format.ODataFormat, java.io.OutputStream)')" stroke="none">property(Element, ODataFormat, OutputStream) : void</text>
      <line y2="171.3438" fill="none" x1="19" x2="357" y1="171.3438"/>
    </g>
    <g font-family="sans-serif" transform="matrix(0.7716,0,0,0.7716,6.1729,188.2735)">
      <text xml:space="preserve" x="4" y="183.1719" stroke="none">+</text>
      <text xml:space="preserve" x="19" y="184.4824" onclick="umlload('#property(org.w3c.dom.Element, com.msopentech.odatajclient.engine.format.ODataFormat, java.io.Writer)')" stroke="none">property(Element, ODataFormat, Writer) : void</text>
      <line y2="187.3125" fill="none" x1="19" x2="306" y1="187.3125"/>
    </g>
    <g font-family="sans-serif" transform="matrix(0.7716,0,0,0.7716,6.1729,188.2735)">
      <text xml:space="preserve" x="-2" y="410.1543" onclick="umlload('http://www.yworks.com/')" stroke="none">yWorks UML Doclet</text>
    </g>
    <g stroke-miterlimit="1.45" transform="matrix(0.7716,0,0,0.7716,6.1729,188.2735)" stroke-linecap="butt">
      <path fill="none" d="M198.275 -0.0103 L198.275 -69"/>
      <path fill="white" d="M198.275 -84 L192.275 -68 L204.275 -68 Z" stroke="none"/>
      <path fill="none" d="M198.275 -84 L192.275 -68 L204.275 -68 Z"/>
      <path fill="none" stroke-dasharray="6,2" d="M396.5285 11.5664 L462.55 11.5664"/>
      <line stroke-linecap="square" transform="matrix(1,0,0,1,462.55,11.5664)" fill="none" x1="0" x2="-14" y1="0" y2="-4" stroke-miterlimit="10"/>
      <line stroke-linecap="square" transform="matrix(1,0,0,1,462.55,11.5664)" fill="none" x1="0" x2="-14" y1="0" y2="4" stroke-miterlimit="10"/>
    </g>
    <g stroke-dasharray="6,2" stroke-miterlimit="1.45" transform="matrix(0.7716,0,0,0.7716,6.1729,188.2735)" stroke-linecap="butt">
      <path fill="none" d="M396.5229 98.6992 L462.55 98.6992"/>
      <line stroke-linecap="square" transform="matrix(1,0,0,1,462.55,98.6992)" fill="none" x1="0" x2="-14" y1="0" y2="-4" stroke-dasharray="none" stroke-miterlimit="10"/>
      <line stroke-linecap="square" transform="matrix(1,0,0,1,462.55,98.6992)" fill="none" x1="0" x2="-14" y1="0" y2="4" stroke-dasharray="none" stroke-miterlimit="10"/>
    </g>
    <g stroke-dasharray="6,2" stroke-miterlimit="1.45" transform="matrix(0.7716,0,0,0.7716,6.1729,188.2735)" stroke-linecap="butt">
      <path fill="none" d="M396.5493 185.832 L462.55 185.832"/>
      <line stroke-linecap="square" transform="matrix(1,0,0,1,462.55,185.832)" fill="none" x1="0" x2="-14" y1="0" y2="-4" stroke-dasharray="none" stroke-miterlimit="10"/>
      <line stroke-linecap="square" transform="matrix(1,0,0,1,462.55,185.832)" fill="none" x1="0" x2="-14" y1="0" y2="4" stroke-dasharray="none" stroke-miterlimit="10"/>
    </g>
    <g stroke-dasharray="6,2" stroke-miterlimit="1.45" transform="matrix(0.7716,0,0,0.7716,6.1729,188.2735)" stroke-linecap="butt">
      <path fill="none" d="M396.5583 218.9648 L462.55 218.9648"/>
      <line stroke-linecap="square" transform="matrix(1,0,0,1,462.55,218.9648)" fill="none" x1="0" x2="-14" y1="0" y2="-4" stroke-dasharray="none" stroke-miterlimit="10"/>
      <line stroke-linecap="square" transform="matrix(1,0,0,1,462.55,218.9648)" fill="none" x1="0" x2="-14" y1="0" y2="4" stroke-dasharray="none" stroke-miterlimit="10"/>
    </g>
    <g stroke-dasharray="6,2" stroke-miterlimit="1.45" transform="matrix(0.7716,0,0,0.7716,6.1729,188.2735)" stroke-linecap="butt">
      <path fill="none" d="M396.5839 310.8886 L462.55 310.8886"/>
      <line stroke-linecap="square" transform="matrix(1,0,0,1,462.55,310.8886)" fill="none" x1="0" x2="-14" y1="0" y2="-4" stroke-dasharray="none" stroke-miterlimit="10"/>
      <line stroke-linecap="square" transform="matrix(1,0,0,1,462.55,310.8886)" fill="none" x1="0" x2="-14" y1="0" y2="4" stroke-dasharray="none" stroke-miterlimit="10"/>
    </g>
    <g stroke-dasharray="6,2" stroke-miterlimit="1.45" transform="matrix(0.7716,0,0,0.7716,6.1729,188.2735)" stroke-linecap="butt">
      <path fill="none" d="M396.5633 353.6034 L462.55 353.6034"/>
      <line stroke-linecap="square" transform="matrix(1,0,0,1,462.55,353.6034)" fill="none" x1="0" x2="-14" y1="0" y2="-4" stroke-dasharray="none" stroke-miterlimit="10"/>
      <line stroke-linecap="square" transform="matrix(1,0,0,1,462.55,353.6034)" fill="none" x1="0" x2="-14" y1="0" y2="4" stroke-dasharray="none" stroke-miterlimit="10"/>
    </g>
  </g>
</svg>
