<?xml version="1.0" encoding="UTF-8"?><svg xmlns="http://www.w3.org/2000/svg" xmlns:xlink="http://www.w3.org/1999/xlink" fill-opacity="1" color-rendering="auto" color-interpolation="auto" stroke="black" text-rendering="auto" stroke-linecap="square" width="598" stroke-miterlimit="10" stroke-opacity="1" shape-rendering="auto" fill="black" stroke-dasharray="none" font-weight="normal" stroke-width="1" height="598" font-family="'Dialog'" font-style="normal" stroke-linejoin="miter" font-size="12" stroke-dashoffset="0" image-rendering="auto">
  <!--Generated by ySVG-->
  <defs id="genericDefs"/>
  <g>
    <defs id="defs1">
      <clipPath clipPathUnits="userSpaceOnUse" id="clipPath1">
        <path d="M0 0 L598 0 L598 598 L0 598 L0 0 Z"/>
      </clipPath>
      <clipPath clipPathUnits="userSpaceOnUse" id="clipPath2">
        <path d="M472.4715 136.623 C472.4715 145.6569 450.2981 152.9804 422.9458 152.9804 C395.5934 152.9804 373.42 145.6569 373.42 136.623 C373.42 127.5891 395.5934 120.2656 422.9458 120.2656 C450.2981 120.2656 472.4715 127.5891 472.4715 136.623 Z"/>
      </clipPath>
      <clipPath clipPathUnits="userSpaceOnUse" id="clipPath3">
        <path d="M373.42 -0 L460.97 -0 L460.97 23.1328 L373.42 23.1328 L373.42 -0 Z"/>
      </clipPath>
      <clipPath clipPathUnits="userSpaceOnUse" id="clipPath4">
        <path d="M373.42 33.1328 L459.94 33.1328 L459.94 56.2656 L373.42 56.2656 L373.42 33.1328 Z"/>
      </clipPath>
      <clipPath clipPathUnits="userSpaceOnUse" id="clipPath5">
        <path d="M-66 103.4902 C-66 112.5241 -84.9126 119.8475 -108.2426 119.8475 C-131.5725 119.8475 -150.4851 112.5241 -150.4851 103.4902 C-150.4851 94.4563 -131.5725 87.1328 -108.2426 87.1328 C-84.9126 87.1328 -66 94.4563 -66 103.4902 Z"/>
      </clipPath>
      <clipPath clipPathUnits="userSpaceOnUse" id="clipPath6">
        <path d="M-301.02 -0 L-140.34 -0 L-140.34 23.1328 L-301.02 23.1328 L-301.02 -0 Z"/>
      </clipPath>
      <clipPath clipPathUnits="userSpaceOnUse" id="clipPath7">
        <path d="M70.04 -107.1328 L127.72 -107.1328 L127.72 -84 L70.04 -84 L70.04 -107.1328 Z"/>
      </clipPath>
      <clipPath clipPathUnits="userSpaceOnUse" id="clipPath8">
        <path d="M0 -0 L197.76 -0 L197.76 160.9804 L0 160.9804 L0 -0 Z"/>
      </clipPath>
      <script type="text/ecmascript"><![CDATA[
function umlload(newLocation)
{
if (newLocation.charAt(0) != '#') {
if (newLocation.indexOf("://") > -1) {
window.parent.location.href = newLocation;
} else {
var tmp = window.parent.location.href;
tmp = tmp.substring(0, tmp.lastIndexOf("/") + 1);
window.parent.location.href = tmp.concat(newLocation);
}
} else {
window.parent.location.hash = newLocation;
}
}
]]></script>
    </defs>
    <g fill="rgb(238,238,255)" transform="matrix(0.5903,0,0,0.5903,183.001,278.0434)" stroke="rgb(238,238,255)">
      <rect width="101.6028" x="365.42" height="17.9688" y="94.2656" stroke="none"/>
    </g>
    <g fill="rgb(166,166,178)" stroke-miterlimit="1.45" transform="matrix(0.5903,0,0,0.5903,183.001,278.0434)" stroke-linecap="butt" stroke="rgb(166,166,178)">
      <rect fill="none" width="101.6028" x="365.42" height="17.9688" y="94.2656"/>
    </g>
    <g fill="rgb(238,238,255)" transform="matrix(0.5903,0,0,0.5903,183.001,278.0434)" stroke="rgb(238,238,255)">
      <rect width="115.0515" x="365.42" height="48.746" y="112.2344" stroke="none"/>
    </g>
    <g fill="rgb(166,166,178)" stroke-miterlimit="1.45" transform="matrix(0.5903,0,0,0.5903,183.001,278.0434)" stroke-linecap="butt" stroke="rgb(166,166,178)">
      <rect fill="none" width="115.0515" x="365.42" height="48.746" y="112.2344"/>
    </g>
    <g font-family="sans-serif" transform="matrix(0.5903,0,0,0.5903,183.001,278.0434)">
      <text xml:space="preserve" x="371.42" y="107.4043" onclick="umlload('http://docs.oracle.com/javase/6/docs/api/org/w3c/dom/package-summary.html')" stroke="none">org.w3c.dom</text>
    </g>
    <g fill="rgb(221,221,255)" transform="matrix(0.5903,0,0,0.5903,183.001,278.0434)" stroke="rgb(221,221,255)">
      <rect x="373.42" y="120.2656" clip-path="url(#clipPath2)" width="99.0515" height="32.7147" stroke="none"/>
    </g>
    <g fill="rgb(154,154,178)" stroke-miterlimit="1.45" transform="matrix(0.5903,0,0,0.5903,183.001,278.0434)" stroke-linecap="butt" stroke="rgb(154,154,178)">
      <ellipse rx="49.5258" fill="none" ry="16.3574" cx="422.9458" cy="136.623"/>
    </g>
    <g font-style="italic" font-size="13" font-weight="bold" font-family="sans-serif" transform="matrix(0.5903,0,0,0.5903,183.001,278.0434)">
      <text xml:space="preserve" x="392.9458" y="141.1235" onclick="umlload('http://docs.oracle.com/javase/6/docs/api/org/w3c/dom/Element.html')" stroke="none">Element</text>
    </g>
    <g fill="rgb(238,238,255)" transform="matrix(0.5903,0,0,0.5903,183.001,278.0434)" stroke="rgb(238,238,255)">
      <rect width="337.1226" x="365.42" height="17.9688" y="-26" stroke="none"/>
    </g>
    <g fill="rgb(166,166,178)" stroke-miterlimit="1.45" transform="matrix(0.5903,0,0,0.5903,183.001,278.0434)" stroke-linecap="butt" stroke="rgb(166,166,178)">
      <rect fill="none" width="337.1226" x="365.42" height="17.9688" y="-26"/>
    </g>
    <g fill="rgb(238,238,255)" transform="matrix(0.5903,0,0,0.5903,183.001,278.0434)" stroke="rgb(238,238,255)">
      <rect width="337.55" x="365.42" height="72.2969" y="-8.0312" stroke="none"/>
    </g>
    <g fill="rgb(166,166,178)" stroke-miterlimit="1.45" transform="matrix(0.5903,0,0,0.5903,183.001,278.0434)" stroke-linecap="butt" stroke="rgb(166,166,178)">
      <rect fill="none" width="337.55" x="365.42" height="72.2969" y="-8.0312"/>
    </g>
    <g font-family="sans-serif" transform="matrix(0.5903,0,0,0.5903,183.001,278.0434)">
      <text xml:space="preserve" x="371.42" y="-12.8613" onclick="umlload('../../../../../../com/msopentech/odatajclient/engine/data/atom/package-summary.html')" stroke="none">com.msopentech.odatajclient.engine.data.atom</text>
    </g>
    <g fill="rgb(187,187,255)" transform="matrix(0.5903,0,0,0.5903,183.001,278.0434)" stroke="rgb(187,187,255)">
      <rect x="373.42" y="0" clip-path="url(#clipPath3)" width="87.55" height="23.1328" stroke="none"/>
    </g>
    <g fill="rgb(130,130,178)" stroke-miterlimit="1.45" transform="matrix(0.5903,0,0,0.5903,183.001,278.0434)" stroke-linecap="butt" stroke="rgb(130,130,178)">
      <rect fill="none" width="87.55" x="373.42" height="23.1328" y="0"/>
    </g>
    <g font-size="13" font-weight="bold" font-family="sans-serif" transform="matrix(0.5903,0,0,0.5903,183.001,278.0434)">
      <text xml:space="preserve" x="378.695" y="16.0669" onclick="umlload('../../../../../../com/msopentech/odatajclient/engine/data/atom/AtomEntry.html')" stroke="none">AtomEntry</text>
    </g>
    <g fill="rgb(187,187,255)" transform="matrix(0.5903,0,0,0.5903,183.001,278.0434)" stroke="rgb(187,187,255)">
      <rect x="373.42" y="33.1328" clip-path="url(#clipPath4)" width="86.52" height="23.1328" stroke="none"/>
    </g>
    <g fill="rgb(130,130,178)" stroke-miterlimit="1.45" transform="matrix(0.5903,0,0,0.5903,183.001,278.0434)" stroke-linecap="butt" stroke="rgb(130,130,178)">
      <rect fill="none" width="86.52" x="373.42" height="23.1328" y="33.1328"/>
    </g>
    <g font-size="13" font-weight="bold" font-family="sans-serif" transform="matrix(0.5903,0,0,0.5903,183.001,278.0434)">
      <text xml:space="preserve" x="378.68" y="49.1997" onclick="umlload('../../../../../../com/msopentech/odatajclient/engine/data/atom/AtomFeed.html')" stroke="none">AtomFeed</text>
    </g>
    <g fill="rgb(238,238,255)" transform="matrix(0.5903,0,0,0.5903,183.001,278.0434)" stroke="rgb(238,238,255)">
      <rect width="69.7758" x="-158.4851" height="17.9688" y="61.1328" stroke="none"/>
    </g>
    <g fill="rgb(166,166,178)" stroke-miterlimit="1.45" transform="matrix(0.5903,0,0,0.5903,183.001,278.0434)" stroke-linecap="butt" stroke="rgb(166,166,178)">
      <rect fill="none" width="69.7758" x="-158.4851" height="17.9688" y="61.1328"/>
    </g>
    <g fill="rgb(238,238,255)" transform="matrix(0.5903,0,0,0.5903,183.001,278.0434)" stroke="rgb(238,238,255)">
      <rect width="100.4851" x="-158.4851" height="48.746" y="79.1016" stroke="none"/>
    </g>
    <g fill="rgb(166,166,178)" stroke-miterlimit="1.45" transform="matrix(0.5903,0,0,0.5903,183.001,278.0434)" stroke-linecap="butt" stroke="rgb(166,166,178)">
      <rect fill="none" width="100.4851" x="-158.4851" height="48.746" y="79.1016"/>
    </g>
    <g font-family="sans-serif" transform="matrix(0.5903,0,0,0.5903,183.001,278.0434)">
      <text xml:space="preserve" x="-152.4851" y="74.2715" stroke="none">org.slf4j</text>
    </g>
    <g fill="rgb(221,221,255)" transform="matrix(0.5903,0,0,0.5903,183.001,278.0434)" stroke="rgb(221,221,255)">
      <rect x="-150.4851" y="87.1328" clip-path="url(#clipPath5)" width="84.4851" height="32.7147" stroke="none"/>
    </g>
    <g fill="rgb(154,154,178)" stroke-miterlimit="1.45" transform="matrix(0.5903,0,0,0.5903,183.001,278.0434)" stroke-linecap="butt" stroke="rgb(154,154,178)">
      <ellipse rx="42.2426" fill="none" ry="16.3574" cx="-108.2426" cy="103.4902"/>
    </g>
    <g font-style="italic" font-size="13" font-weight="bold" font-family="sans-serif" transform="matrix(0.5903,0,0,0.5903,183.001,278.0434)">
      <text xml:space="preserve" x="-133.2426" y="107.9907" stroke="none">Logger</text>
    </g>
    <g fill="rgb(238,238,255)" transform="matrix(0.5903,0,0,0.5903,183.001,278.0434)" stroke="rgb(238,238,255)">
      <rect width="252.2506" x="-309.02" height="17.9688" y="-26" stroke="none"/>
    </g>
    <g fill="rgb(166,166,178)" stroke-miterlimit="1.45" transform="matrix(0.5903,0,0,0.5903,183.001,278.0434)" stroke-linecap="butt" stroke="rgb(166,166,178)">
      <rect fill="none" width="252.2506" x="-309.02" height="17.9688" y="-26"/>
    </g>
    <g fill="rgb(238,238,255)" transform="matrix(0.5903,0,0,0.5903,183.001,278.0434)" stroke="rgb(238,238,255)">
      <rect width="252.68" x="-309.02" height="39.1641" y="-8.0312" stroke="none"/>
    </g>
    <g fill="rgb(166,166,178)" stroke-miterlimit="1.45" transform="matrix(0.5903,0,0,0.5903,183.001,278.0434)" stroke-linecap="butt" stroke="rgb(166,166,178)">
      <rect fill="none" width="252.68" x="-309.02" height="39.1641" y="-8.0312"/>
    </g>
    <g font-family="sans-serif" transform="matrix(0.5903,0,0,0.5903,183.001,278.0434)">
      <text xml:space="preserve" x="-303.02" y="-12.8613" stroke="none">com.fasterxml.jackson.databind.util</text>
    </g>
    <g fill="rgb(187,187,255)" transform="matrix(0.5903,0,0,0.5903,183.001,278.0434)" stroke="rgb(187,187,255)">
      <rect x="-301.02" y="0" clip-path="url(#clipPath6)" width="160.68" height="23.1328" stroke="none"/>
    </g>
    <g fill="rgb(130,130,178)" stroke-miterlimit="1.45" transform="matrix(0.5903,0,0,0.5903,183.001,278.0434)" stroke-linecap="butt" stroke="rgb(130,130,178)">
      <rect fill="none" width="160.68" x="-301.02" height="23.1328" y="0"/>
    </g>
    <g font-size="13" font-weight="bold" font-family="sans-serif" transform="matrix(0.5903,0,0,0.5903,183.001,278.0434)">
      <text xml:space="preserve" x="-294.68" y="16.0669" stroke="none">ISO8601DateFormat</text>
    </g>
    <g fill="rgb(238,238,255)" transform="matrix(0.5903,0,0,0.5903,183.001,278.0434)" stroke="rgb(238,238,255)">
      <rect width="76.1412" x="62.04" height="17.9688" y="-133.1328" stroke="none"/>
    </g>
    <g fill="rgb(166,166,178)" stroke-miterlimit="1.45" transform="matrix(0.5903,0,0,0.5903,183.001,278.0434)" stroke-linecap="butt" stroke="rgb(166,166,178)">
      <rect fill="none" width="76.1412" x="62.04" height="17.9688" y="-133.1328"/>
    </g>
    <g fill="rgb(238,238,255)" transform="matrix(0.5903,0,0,0.5903,183.001,278.0434)" stroke="rgb(238,238,255)">
      <rect width="76.1412" x="62.04" height="39.1641" y="-115.1641" stroke="none"/>
    </g>
    <g fill="rgb(166,166,178)" stroke-miterlimit="1.45" transform="matrix(0.5903,0,0,0.5903,183.001,278.0434)" stroke-linecap="butt" stroke="rgb(166,166,178)">
      <rect fill="none" width="76.1412" x="62.04" height="39.1641" y="-115.1641"/>
    </g>
    <g font-family="sans-serif" transform="matrix(0.5903,0,0,0.5903,183.001,278.0434)">
      <text xml:space="preserve" x="68.04" y="-119.9941" onclick="umlload('http://docs.oracle.com/javase/6/docs/api/java/lang/package-summary.html')" stroke="none">java.lang</text>
    </g>
    <g fill="rgb(187,187,255)" transform="matrix(0.5903,0,0,0.5903,183.001,278.0434)" stroke="rgb(187,187,255)">
      <rect x="70.04" y="-107.1328" clip-path="url(#clipPath7)" width="57.68" height="23.1328" stroke="none"/>
    </g>
    <g fill="rgb(130,130,178)" stroke-miterlimit="1.45" transform="matrix(0.5903,0,0,0.5903,183.001,278.0434)" stroke-linecap="butt" stroke="rgb(130,130,178)">
      <rect fill="none" width="57.68" x="70.04" height="23.1328" y="-107.1328"/>
    </g>
    <g font-size="13" font-weight="bold" font-family="sans-serif" transform="matrix(0.5903,0,0,0.5903,183.001,278.0434)">
      <text xml:space="preserve" x="74.88" y="-91.0659" onclick="umlload('http://docs.oracle.com/javase/6/docs/api/java/lang/Object.html')" stroke="none">Object</text>
    </g>
    <g fill="rgb(238,238,255)" transform="matrix(0.5903,0,0,0.5903,183.001,278.0434)" stroke="rgb(238,238,255)">
      <rect width="337.1226" x="-8" height="17.9688" y="-26" stroke="none"/>
    </g>
    <g fill="rgb(166,166,178)" stroke-miterlimit="1.45" transform="matrix(0.5903,0,0,0.5903,183.001,278.0434)" stroke-linecap="butt" stroke="rgb(166,166,178)">
      <rect fill="none" width="337.1226" x="-8" height="17.9688" y="-26"/>
    </g>
    <g fill="rgb(238,238,255)" transform="matrix(0.5903,0,0,0.5903,183.001,278.0434)" stroke="rgb(238,238,255)">
      <rect width="337.1226" x="-8" height="177.0116" y="-8.0312" stroke="none"/>
    </g>
    <g fill="rgb(166,166,178)" stroke-miterlimit="1.45" transform="matrix(0.5903,0,0,0.5903,183.001,278.0434)" stroke-linecap="butt" stroke="rgb(166,166,178)">
      <rect fill="none" width="337.1226" x="-8" height="177.0116" y="-8.0312"/>
    </g>
    <g font-family="sans-serif" transform="matrix(0.5903,0,0,0.5903,183.001,278.0434)">
      <text xml:space="preserve" x="-2" y="-12.8613" onclick="umlload('package-summary.html')" stroke="none">com.msopentech.odatajclient.engine.data.atom</text>
    </g>
    <g fill="rgb(187,187,255)" transform="matrix(0.5903,0,0,0.5903,183.001,278.0434)" stroke="rgb(187,187,255)">
      <rect x="0" y="0" clip-path="url(#clipPath8)" width="197.76" height="26.625" stroke="none"/>
      <line clip-path="url(#clipPath8)" fill="none" x1="0" x2="197.76" y1="26.625" y2="26.625" stroke="black"/>
      <line clip-path="url(#clipPath8)" x1="0" x2="197.76" y1="27.625" y2="27.625" stroke="none"/>
      <line clip-path="url(#clipPath8)" fill="none" x1="0" x2="197.76" y1="27.625" y2="27.625" stroke="black"/>
      <rect x="0" y="28.625" clip-path="url(#clipPath8)" width="197.76" height="132.3554" stroke="none"/>
    </g>
    <g fill="rgb(130,130,178)" stroke-miterlimit="1.45" transform="matrix(0.5903,0,0,0.5903,183.001,278.0434)" stroke-linecap="butt" stroke="rgb(130,130,178)">
      <rect fill="none" width="197.76" x="0" height="160.9804" y="0"/>
    </g>
    <g font-size="16" font-weight="bold" font-family="sans-serif" transform="matrix(0.5903,0,0,0.5903,183.001,278.0434)">
      <text xml:space="preserve" x="23.88" y="18.8516" onclick="umlload('#')" stroke="none">AtomDeserializer</text>
    </g>
    <g font-family="sans-serif" transform="matrix(0.5903,0,0,0.5903,183.001,278.0434)">
      <text xml:space="preserve" x="4" y="39.1719" stroke="none">+</text>
      <text xml:space="preserve" x="19" y="40.7637" onclick="umlload('#entry(org.w3c.dom.Element)')" stroke="none">entry(Element) : AtomEntry</text>
      <line y2="43.5938" fill="none" x1="19" x2="188" y1="43.5938"/>
    </g>
    <g font-family="sans-serif" transform="matrix(0.5903,0,0,0.5903,183.001,278.0434)">
      <text xml:space="preserve" x="4" y="55.1719" stroke="none">+</text>
      <text xml:space="preserve" x="19" y="56.7324" onclick="umlload('#feed(org.w3c.dom.Element)')" stroke="none">feed(Element) : AtomFeed</text>
      <line y2="59.5625" fill="none" x1="19" x2="183" y1="59.5625"/>
    </g>
    <g font-family="sans-serif" transform="matrix(0.5903,0,0,0.5903,183.001,278.0434)">
      <text xml:space="preserve" x="-304" y="193.1543" onclick="umlload('http://www.yworks.com/')" stroke="none">yWorks UML Doclet</text>
    </g>
    <g stroke-miterlimit="1.45" transform="matrix(0.5903,0,0,0.5903,183.001,278.0434)" stroke-linecap="butt">
      <path fill="none" d="M98.88 0.0176 L98.88 -69"/>
      <path fill="white" d="M98.88 -84 L92.88 -68 L104.88 -68 Z" stroke="none"/>
      <path fill="none" d="M98.88 -84 L92.88 -68 L104.88 -68 Z"/>
      <path fill="none" d="M-0.0073 11.5664 L-140.34 11.5664"/>
      <line stroke-linecap="square" transform="matrix(-1,0,0,-1,-140.34,11.5664)" fill="none" x1="0" x2="-14" y1="0" y2="-4" stroke-miterlimit="10"/>
      <line stroke-linecap="square" transform="matrix(-1,0,0,-1,-140.34,11.5664)" fill="none" x1="0" x2="-14" y1="0" y2="4" stroke-miterlimit="10"/>
    </g>
    <g stroke-miterlimit="1.45" transform="matrix(0.5903,0,0,0.5903,183.001,278.0434)" stroke-linecap="butt">
      <path fill="none" d="M-0.0038 103.4902 L-66 103.4902"/>
      <line stroke-linecap="square" transform="matrix(-1,0,0,-1,-66,103.4902)" fill="none" x1="0" x2="-14" y1="0" y2="-4" stroke-miterlimit="10"/>
      <line stroke-linecap="square" transform="matrix(-1,0,0,-1,-66,103.4902)" fill="none" x1="0" x2="-14" y1="0" y2="4" stroke-miterlimit="10"/>
    </g>
    <g stroke-dasharray="6,2" stroke-miterlimit="1.45" transform="matrix(0.5903,0,0,0.5903,183.001,278.0434)" stroke-linecap="butt">
      <path fill="none" d="M197.7706 11.5664 L373.42 11.5664"/>
      <line stroke-linecap="square" transform="matrix(1,0,0,1,373.42,11.5664)" fill="none" x1="0" x2="-14" y1="0" y2="-4" stroke-dasharray="none" stroke-miterlimit="10"/>
      <line stroke-linecap="square" transform="matrix(1,0,0,1,373.42,11.5664)" fill="none" x1="0" x2="-14" y1="0" y2="4" stroke-dasharray="none" stroke-miterlimit="10"/>
    </g>
    <g stroke-dasharray="6,2" stroke-miterlimit="1.45" transform="matrix(0.5903,0,0,0.5903,183.001,278.0434)" stroke-linecap="butt">
      <path fill="none" d="M197.7658 44.6992 L373.42 44.6992"/>
      <line stroke-linecap="square" transform="matrix(1,0,0,1,373.42,44.6992)" fill="none" x1="0" x2="-14" y1="0" y2="-4" stroke-dasharray="none" stroke-miterlimit="10"/>
      <line stroke-linecap="square" transform="matrix(1,0,0,1,373.42,44.6992)" fill="none" x1="0" x2="-14" y1="0" y2="4" stroke-dasharray="none" stroke-miterlimit="10"/>
    </g>
    <g stroke-dasharray="6,2" stroke-miterlimit="1.45" transform="matrix(0.5903,0,0,0.5903,183.001,278.0434)" stroke-linecap="butt">
      <path fill="none" d="M197.7375 136.623 L373.42 136.623"/>
      <line stroke-linecap="square" transform="matrix(1,0,0,1,373.42,136.623)" fill="none" x1="0" x2="-14" y1="0" y2="-4" stroke-dasharray="none" stroke-miterlimit="10"/>
      <line stroke-linecap="square" transform="matrix(1,0,0,1,373.42,136.623)" fill="none" x1="0" x2="-14" y1="0" y2="4" stroke-dasharray="none" stroke-miterlimit="10"/>
    </g>
  </g>
</svg>
