<?xml version="1.0" encoding="UTF-8"?><svg xmlns="http://www.w3.org/2000/svg" xmlns:xlink="http://www.w3.org/1999/xlink" fill-opacity="1" color-rendering="auto" color-interpolation="auto" stroke="black" text-rendering="auto" stroke-linecap="square" width="598" stroke-miterlimit="10" stroke-opacity="1" shape-rendering="auto" fill="black" stroke-dasharray="none" font-weight="normal" stroke-width="1" height="598" font-family="'Dialog'" font-style="normal" stroke-linejoin="miter" font-size="12" stroke-dashoffset="0" image-rendering="auto">
  <!--Generated by ySVG-->
  <defs id="genericDefs"/>
  <g>
    <defs id="defs1">
      <clipPath clipPathUnits="userSpaceOnUse" id="clipPath1">
        <path d="M0 0 L598 0 L598 598 L0 598 L0 0 Z"/>
      </clipPath>
      <clipPath clipPathUnits="userSpaceOnUse" id="clipPath2">
        <path d="M-121.8 261.3984 L-77.51 261.3984 L-77.51 284.5312 L-121.8 284.5312 L-121.8 261.3984 Z"/>
      </clipPath>
      <clipPath clipPathUnits="userSpaceOnUse" id="clipPath3">
        <path d="M-123.86 174.2656 L-90.9 174.2656 L-90.9 197.3984 L-123.86 197.3984 L-123.86 174.2656 Z"/>
      </clipPath>
      <clipPath clipPathUnits="userSpaceOnUse" id="clipPath4">
        <path d="M-130.04 87.1328 L-76.48 87.1328 L-76.48 110.2656 L-130.04 110.2656 L-130.04 87.1328 Z"/>
      </clipPath>
      <clipPath clipPathUnits="userSpaceOnUse" id="clipPath5">
        <path d="M-383.42 0 L-240.25 0 L-240.25 23.1328 L-383.42 23.1328 L-383.42 0 Z"/>
      </clipPath>
      <clipPath clipPathUnits="userSpaceOnUse" id="clipPath6">
        <path d="M530.8221 -100.3574 C530.8221 -91.3234 500.1706 -84 462.36 -84 C424.5494 -84 393.8979 -91.3234 393.8979 -100.3574 C393.8979 -109.3913 424.5494 -116.7147 462.36 -116.7147 C500.1706 -116.7147 530.8221 -109.3913 530.8221 -100.3574 Z"/>
      </clipPath>
      <clipPath clipPathUnits="userSpaceOnUse" id="clipPath7">
        <path d="M-13.39 -107.1328 L262.65 -107.1328 L262.65 -84 L-13.39 -84 L-13.39 -107.1328 Z"/>
      </clipPath>
      <clipPath clipPathUnits="userSpaceOnUse" id="clipPath8">
        <path d="M0 0 L249.26 0 L249.26 292.5312 L0 292.5312 L0 0 Z"/>
      </clipPath>
      <script type="text/ecmascript"><![CDATA[
function umlload(newLocation)
{
if (newLocation.charAt(0) != '#') {
if (newLocation.indexOf("://") > -1) {
window.parent.location.href = newLocation;
} else {
var tmp = window.parent.location.href;
tmp = tmp.substring(0, tmp.lastIndexOf("/") + 1);
window.parent.location.href = tmp.concat(newLocation);
}
} else {
window.parent.location.hash = newLocation;
}
}
]]></script>
    </defs>
    <g fill="rgb(238,238,255)" transform="matrix(0.58,0,0,0.58,227.3676,243.0281)" stroke="rgb(238,238,255)">
      <rect width="67.654" x="-129.8" height="17.9688" y="235.3984" stroke="none"/>
    </g>
    <g fill="rgb(166,166,178)" stroke-miterlimit="1.45" transform="matrix(0.58,0,0,0.58,227.3676,243.0281)" stroke-linecap="butt" stroke="rgb(166,166,178)">
      <rect fill="none" width="67.654" x="-129.8" height="17.9688" y="235.3984"/>
    </g>
    <g fill="rgb(238,238,255)" transform="matrix(0.58,0,0,0.58,227.3676,243.0281)" stroke="rgb(238,238,255)">
      <rect width="72.29" x="-129.8" height="39.1641" y="253.3672" stroke="none"/>
    </g>
    <g fill="rgb(166,166,178)" stroke-miterlimit="1.45" transform="matrix(0.58,0,0,0.58,227.3676,243.0281)" stroke-linecap="butt" stroke="rgb(166,166,178)">
      <rect fill="none" width="72.29" x="-129.8" height="39.1641" y="253.3672"/>
    </g>
    <g font-family="sans-serif" transform="matrix(0.58,0,0,0.58,227.3676,243.0281)">
      <text xml:space="preserve" x="-123.8" y="248.5371" onclick="umlload('http://docs.oracle.com/javase/6/docs/api/java/util/package-summary.html')" stroke="none">java.util</text>
    </g>
    <g fill="rgb(187,187,255)" transform="matrix(0.58,0,0,0.58,227.3676,243.0281)" stroke="rgb(187,187,255)">
      <rect x="-121.8" y="261.3984" clip-path="url(#clipPath2)" width="44.29" height="23.1328" stroke="none"/>
    </g>
    <g fill="rgb(130,130,178)" stroke-miterlimit="1.45" transform="matrix(0.58,0,0,0.58,227.3676,243.0281)" stroke-linecap="butt" stroke="rgb(130,130,178)">
      <rect fill="none" width="44.29" x="-121.8" height="23.1328" y="261.3984"/>
    </g>
    <g font-size="13" font-weight="bold" font-family="sans-serif" transform="matrix(0.58,0,0,0.58,227.3676,243.0281)">
      <text xml:space="preserve" x="-117.155" y="277.4653" onclick="umlload('http://docs.oracle.com/javase/6/docs/api/java/util/Date.html')" stroke="none">Date</text>
    </g>
    <g fill="rgb(238,238,255)" transform="matrix(0.58,0,0,0.58,227.3676,243.0281)" stroke="rgb(238,238,255)">
      <rect width="69.7758" x="-131.86" height="17.9688" y="148.2656" stroke="none"/>
    </g>
    <g fill="rgb(166,166,178)" stroke-miterlimit="1.45" transform="matrix(0.58,0,0,0.58,227.3676,243.0281)" stroke-linecap="butt" stroke="rgb(166,166,178)">
      <rect fill="none" width="69.7758" x="-131.86" height="17.9688" y="148.2656"/>
    </g>
    <g fill="rgb(238,238,255)" transform="matrix(0.58,0,0,0.58,227.3676,243.0281)" stroke="rgb(238,238,255)">
      <rect width="73.96" x="-131.86" height="39.1641" y="166.2344" stroke="none"/>
    </g>
    <g fill="rgb(166,166,178)" stroke-miterlimit="1.45" transform="matrix(0.58,0,0,0.58,227.3676,243.0281)" stroke-linecap="butt" stroke="rgb(166,166,178)">
      <rect fill="none" width="73.96" x="-131.86" height="39.1641" y="166.2344"/>
    </g>
    <g font-family="sans-serif" transform="matrix(0.58,0,0,0.58,227.3676,243.0281)">
      <text xml:space="preserve" x="-125.86" y="161.4043" onclick="umlload('http://docs.oracle.com/javase/6/docs/api/java/net/package-summary.html')" stroke="none">java.net</text>
    </g>
    <g fill="rgb(187,187,255)" transform="matrix(0.58,0,0,0.58,227.3676,243.0281)" stroke="rgb(187,187,255)">
      <rect x="-123.86" y="174.2656" clip-path="url(#clipPath3)" width="32.96" height="23.1328" stroke="none"/>
    </g>
    <g fill="rgb(130,130,178)" stroke-miterlimit="1.45" transform="matrix(0.58,0,0,0.58,227.3676,243.0281)" stroke-linecap="butt" stroke="rgb(130,130,178)">
      <rect fill="none" width="32.96" x="-123.86" height="23.1328" y="174.2656"/>
    </g>
    <g font-size="13" font-weight="bold" font-family="sans-serif" transform="matrix(0.58,0,0,0.58,227.3676,243.0281)">
      <text xml:space="preserve" x="-119.38" y="190.3325" onclick="umlload('http://docs.oracle.com/javase/6/docs/api/java/net/URI.html')" stroke="none">URI</text>
    </g>
    <g fill="rgb(238,238,255)" transform="matrix(0.58,0,0,0.58,227.3676,243.0281)" stroke="rgb(238,238,255)">
      <rect width="76.1412" x="-138.04" height="17.9688" y="61.1328" stroke="none"/>
    </g>
    <g fill="rgb(166,166,178)" stroke-miterlimit="1.45" transform="matrix(0.58,0,0,0.58,227.3676,243.0281)" stroke-linecap="butt" stroke="rgb(166,166,178)">
      <rect fill="none" width="76.1412" x="-138.04" height="17.9688" y="61.1328"/>
    </g>
    <g fill="rgb(238,238,255)" transform="matrix(0.58,0,0,0.58,227.3676,243.0281)" stroke="rgb(238,238,255)">
      <rect width="79.56" x="-138.04" height="39.1641" y="79.1016" stroke="none"/>
    </g>
    <g fill="rgb(166,166,178)" stroke-miterlimit="1.45" transform="matrix(0.58,0,0,0.58,227.3676,243.0281)" stroke-linecap="butt" stroke="rgb(166,166,178)">
      <rect fill="none" width="79.56" x="-138.04" height="39.1641" y="79.1016"/>
    </g>
    <g font-family="sans-serif" transform="matrix(0.58,0,0,0.58,227.3676,243.0281)">
      <text xml:space="preserve" x="-132.04" y="74.2715" onclick="umlload('http://docs.oracle.com/javase/6/docs/api/java/lang/package-summary.html')" stroke="none">java.lang</text>
    </g>
    <g fill="rgb(187,187,255)" transform="matrix(0.58,0,0,0.58,227.3676,243.0281)" stroke="rgb(187,187,255)">
      <rect x="-130.04" y="87.1328" clip-path="url(#clipPath4)" width="53.56" height="23.1328" stroke="none"/>
    </g>
    <g fill="rgb(130,130,178)" stroke-miterlimit="1.45" transform="matrix(0.58,0,0,0.58,227.3676,243.0281)" stroke-linecap="butt" stroke="rgb(130,130,178)">
      <rect fill="none" width="53.56" x="-130.04" height="23.1328" y="87.1328"/>
    </g>
    <g font-size="13" font-weight="bold" font-family="sans-serif" transform="matrix(0.58,0,0,0.58,227.3676,243.0281)">
      <text xml:space="preserve" x="-125.26" y="103.1997" onclick="umlload('http://docs.oracle.com/javase/6/docs/api/java/lang/String.html')" stroke="none">String</text>
    </g>
    <g fill="rgb(238,238,255)" transform="matrix(0.58,0,0,0.58,227.3676,243.0281)" stroke="rgb(238,238,255)">
      <rect width="337.1226" x="-391.42" height="17.9688" y="-26" stroke="none"/>
    </g>
    <g fill="rgb(166,166,178)" stroke-miterlimit="1.45" transform="matrix(0.58,0,0,0.58,227.3676,243.0281)" stroke-linecap="butt" stroke="rgb(166,166,178)">
      <rect fill="none" width="337.1226" x="-391.42" height="17.9688" y="-26"/>
    </g>
    <g fill="rgb(238,238,255)" transform="matrix(0.58,0,0,0.58,227.3676,243.0281)" stroke="rgb(238,238,255)">
      <rect width="337.17" x="-391.42" height="39.1641" y="-8.0312" stroke="none"/>
    </g>
    <g fill="rgb(166,166,178)" stroke-miterlimit="1.45" transform="matrix(0.58,0,0,0.58,227.3676,243.0281)" stroke-linecap="butt" stroke="rgb(166,166,178)">
      <rect fill="none" width="337.17" x="-391.42" height="39.1641" y="-8.0312"/>
    </g>
    <g font-family="sans-serif" transform="matrix(0.58,0,0,0.58,227.3676,243.0281)">
      <text xml:space="preserve" x="-385.42" y="-12.8613" onclick="umlload('../../../../../../com/msopentech/odatajclient/engine/data/atom/package-summary.html')" stroke="none">com.msopentech.odatajclient.engine.data.atom</text>
    </g>
    <g fill="rgb(187,187,255)" transform="matrix(0.58,0,0,0.58,227.3676,243.0281)" stroke="rgb(187,187,255)">
      <rect x="-383.42" y="0" clip-path="url(#clipPath5)" width="143.17" height="23.1328" stroke="none"/>
    </g>
    <g fill="rgb(130,130,178)" stroke-miterlimit="1.45" transform="matrix(0.58,0,0,0.58,227.3676,243.0281)" stroke-linecap="butt" stroke="rgb(130,130,178)">
      <rect fill="none" width="143.17" x="-383.42" height="23.1328" y="0"/>
    </g>
    <g font-size="13" font-weight="bold" font-family="sans-serif" transform="matrix(0.58,0,0,0.58,227.3676,243.0281)">
      <text xml:space="preserve" x="-377.335" y="16.0669" onclick="umlload('../../../../../../com/msopentech/odatajclient/engine/data/atom/AtomEntry.Author.html')" stroke="none">AtomEntry.Author</text>
    </g>
    <g fill="rgb(238,238,255)" transform="matrix(0.58,0,0,0.58,227.3676,243.0281)" stroke="rgb(238,238,255)">
      <rect width="337.1226" x="300.8979" height="17.9688" y="-142.7147" stroke="none"/>
    </g>
    <g fill="rgb(166,166,178)" stroke-miterlimit="1.45" transform="matrix(0.58,0,0,0.58,227.3676,243.0281)" stroke-linecap="butt" stroke="rgb(166,166,178)">
      <rect fill="none" width="337.1226" x="300.8979" height="17.9688" y="-142.7147"/>
    </g>
    <g fill="rgb(238,238,255)" transform="matrix(0.58,0,0,0.58,227.3676,243.0281)" stroke="rgb(238,238,255)">
      <rect width="337.1226" x="300.8979" height="48.746" y="-124.746" stroke="none"/>
    </g>
    <g fill="rgb(166,166,178)" stroke-miterlimit="1.45" transform="matrix(0.58,0,0,0.58,227.3676,243.0281)" stroke-linecap="butt" stroke="rgb(166,166,178)">
      <rect fill="none" width="337.1226" x="300.8979" height="48.746" y="-124.746"/>
    </g>
    <g font-family="sans-serif" transform="matrix(0.58,0,0,0.58,227.3676,243.0281)">
      <text xml:space="preserve" x="306.8979" y="-129.5761" onclick="umlload('../../../../../../com/msopentech/odatajclient/engine/data/atom/package-summary.html')" stroke="none">com.msopentech.odatajclient.engine.data.atom</text>
    </g>
    <g fill="rgb(221,221,255)" transform="matrix(0.58,0,0,0.58,227.3676,243.0281)" stroke="rgb(221,221,255)">
      <rect x="393.8979" y="-116.7147" clip-path="url(#clipPath6)" width="136.9242" height="32.7147" stroke="none"/>
    </g>
    <g fill="rgb(154,154,178)" stroke-miterlimit="1.45" transform="matrix(0.58,0,0,0.58,227.3676,243.0281)" stroke-linecap="butt" stroke="rgb(154,154,178)">
      <ellipse rx="68.4621" fill="none" ry="16.3574" cx="462.36" cy="-100.3574"/>
    </g>
    <g font-style="italic" font-size="13" font-weight="bold" font-family="sans-serif" transform="matrix(0.58,0,0,0.58,227.3676,243.0281)">
      <text xml:space="preserve" x="419.36" y="-95.8569" onclick="umlload('../../../../../../com/msopentech/odatajclient/engine/data/atom/AtomObject.html')" stroke="none">AtomObject</text>
    </g>
    <g fill="rgb(238,238,255)" transform="matrix(0.58,0,0,0.58,227.3676,243.0281)" stroke="rgb(238,238,255)">
      <rect width="298.9302" x="-21.39" height="17.9688" y="-133.1328" stroke="none"/>
    </g>
    <g fill="rgb(166,166,178)" stroke-miterlimit="1.45" transform="matrix(0.58,0,0,0.58,227.3676,243.0281)" stroke-linecap="butt" stroke="rgb(166,166,178)">
      <rect fill="none" width="298.9302" x="-21.39" height="17.9688" y="-133.1328"/>
    </g>
    <g fill="rgb(238,238,255)" transform="matrix(0.58,0,0,0.58,227.3676,243.0281)" stroke="rgb(238,238,255)">
      <rect width="299.04" x="-21.39" height="39.1641" y="-115.1641" stroke="none"/>
    </g>
    <g fill="rgb(166,166,178)" stroke-miterlimit="1.45" transform="matrix(0.58,0,0,0.58,227.3676,243.0281)" stroke-linecap="butt" stroke="rgb(166,166,178)">
      <rect fill="none" width="299.04" x="-21.39" height="39.1641" y="-115.1641"/>
    </g>
    <g font-family="sans-serif" transform="matrix(0.58,0,0,0.58,227.3676,243.0281)">
      <text xml:space="preserve" x="-15.39" y="-119.9941" onclick="umlload('../../../../../../com/msopentech/odatajclient/engine/data/package-summary.html')" stroke="none">com.msopentech.odatajclient.engine.data</text>
    </g>
    <g fill="rgb(204,204,255)" transform="matrix(0.58,0,0,0.58,227.3676,243.0281)" stroke="rgb(204,204,255)">
      <rect x="-13.39" y="-107.1328" clip-path="url(#clipPath7)" width="276.04" height="23.1328" stroke="none"/>
    </g>
    <g fill="rgb(142,142,178)" stroke-miterlimit="1.45" transform="matrix(0.58,0,0,0.58,227.3676,243.0281)" stroke-linecap="butt" stroke="rgb(142,142,178)">
      <rect fill="none" width="276.04" x="-13.39" height="23.1328" y="-107.1328"/>
    </g>
    <g font-size="13" font-weight="bold" font-family="sans-serif" transform="matrix(0.58,0,0,0.58,227.3676,243.0281)">
      <text xml:space="preserve" x="-5.37" y="-91.0659" onclick="umlload('../../../../../../com/msopentech/odatajclient/engine/data/AbstractEntryResource.html')" stroke="none">AbstractEntryResource&lt;AtomLink&gt;</text>
    </g>
    <g fill="rgb(238,238,255)" transform="matrix(0.58,0,0,0.58,227.3676,243.0281)" stroke="rgb(238,238,255)">
      <rect width="337.1226" x="-8" height="17.9688" y="-26" stroke="none"/>
    </g>
    <g fill="rgb(166,166,178)" stroke-miterlimit="1.45" transform="matrix(0.58,0,0,0.58,227.3676,243.0281)" stroke-linecap="butt" stroke="rgb(166,166,178)">
      <rect fill="none" width="337.1226" x="-8" height="17.9688" y="-26"/>
    </g>
    <g fill="rgb(238,238,255)" transform="matrix(0.58,0,0,0.58,227.3676,243.0281)" stroke="rgb(238,238,255)">
      <rect width="337.26" x="-8" height="308.5625" y="-8.0312" stroke="none"/>
    </g>
    <g fill="rgb(166,166,178)" stroke-miterlimit="1.45" transform="matrix(0.58,0,0,0.58,227.3676,243.0281)" stroke-linecap="butt" stroke="rgb(166,166,178)">
      <rect fill="none" width="337.26" x="-8" height="308.5625" y="-8.0312"/>
    </g>
    <g font-family="sans-serif" transform="matrix(0.58,0,0,0.58,227.3676,243.0281)">
      <text xml:space="preserve" x="-2" y="-12.8613" onclick="umlload('package-summary.html')" stroke="none">com.msopentech.odatajclient.engine.data.atom</text>
    </g>
    <g fill="rgb(187,187,255)" transform="matrix(0.58,0,0,0.58,227.3676,243.0281)" stroke="rgb(187,187,255)">
      <rect x="0" y="0" clip-path="url(#clipPath8)" width="249.26" height="26.625" stroke="none"/>
      <line clip-path="url(#clipPath8)" fill="none" x1="0" x2="249.26" y1="26.625" y2="26.625" stroke="black"/>
      <rect x="0" y="27.625" clip-path="url(#clipPath8)" width="249.26" height="15.9688" stroke="none"/>
      <line clip-path="url(#clipPath8)" fill="none" x1="0" x2="249.26" y1="43.5938" y2="43.5938" stroke="black"/>
      <rect x="0" y="44.5938" clip-path="url(#clipPath8)" width="249.26" height="247.9375" stroke="none"/>
    </g>
    <g fill="rgb(130,130,178)" stroke-miterlimit="1.45" transform="matrix(0.58,0,0,0.58,227.3676,243.0281)" stroke-linecap="butt" stroke="rgb(130,130,178)">
      <rect fill="none" width="249.26" x="0" height="292.5312" y="0"/>
    </g>
    <g font-size="16" font-weight="bold" font-family="sans-serif" transform="matrix(0.58,0,0,0.58,227.3676,243.0281)">
      <text xml:space="preserve" x="77.63" y="18.8516" onclick="umlload('#')" stroke="none">AtomEntry</text>
    </g>
    <g font-family="sans-serif" transform="matrix(0.58,0,0,0.58,227.3676,243.0281)">
      <text xml:space="preserve" x="4" y="38.1719" stroke="none">+</text>
      <text xml:space="preserve" x="19" y="39.7637" onclick="umlload('#AtomEntry()')" stroke="none">AtomEntry()</text>
    </g>
    <g font-family="sans-serif" transform="matrix(0.58,0,0,0.58,227.3676,243.0281)">
      <text xml:space="preserve" x="4" y="55.1719" stroke="none">+</text>
      <text xml:space="preserve" x="19" y="56.7324" onclick="umlload('#getAuthor()')" stroke="none">getAuthor() : AtomEntry.Author</text>
    </g>
    <g font-family="sans-serif" transform="matrix(0.58,0,0,0.58,227.3676,243.0281)">
      <text xml:space="preserve" x="4" y="71.1719" stroke="none">+</text>
      <text xml:space="preserve" x="19" y="72.7012" onclick="umlload('#getBaseURI()')" stroke="none">getBaseURI() : URI</text>
    </g>
    <g font-family="sans-serif" transform="matrix(0.58,0,0,0.58,227.3676,243.0281)">
      <text xml:space="preserve" x="4" y="87.1719" stroke="none">+</text>
      <text xml:space="preserve" x="19" y="88.6699" onclick="umlload('#getSummary()')" stroke="none">getSummary() : String</text>
    </g>
    <g font-family="sans-serif" transform="matrix(0.58,0,0,0.58,227.3676,243.0281)">
      <text xml:space="preserve" x="4" y="103.1719" stroke="none">+</text>
      <text xml:space="preserve" x="19" y="104.6387" onclick="umlload('#getTitle()')" stroke="none">getTitle() : String</text>
    </g>
    <g font-family="sans-serif" transform="matrix(0.58,0,0,0.58,227.3676,243.0281)">
      <text xml:space="preserve" x="4" y="119.1719" stroke="none">+</text>
      <text xml:space="preserve" x="19" y="120.6074" onclick="umlload('#getUpdated()')" stroke="none">getUpdated() : Date</text>
    </g>
    <g font-family="sans-serif" transform="matrix(0.58,0,0,0.58,227.3676,243.0281)">
      <text xml:space="preserve" x="4" y="135.1719" stroke="none">+</text>
      <text xml:space="preserve" x="19" y="136.5762" onclick="umlload('#setAuthor(com.msopentech.odatajclient.engine.data.atom.AtomEntry.Author)')" stroke="none">setAuthor(AtomEntry.Author) : void</text>
    </g>
    <g font-family="sans-serif" transform="matrix(0.58,0,0,0.58,227.3676,243.0281)">
      <text xml:space="preserve" x="4" y="151.1719" stroke="none">+</text>
      <text xml:space="preserve" x="19" y="152.5449" onclick="umlload('#setBaseURI(java.lang.String)')" stroke="none">setBaseURI(String) : void</text>
    </g>
    <g font-family="sans-serif" transform="matrix(0.58,0,0,0.58,227.3676,243.0281)">
      <text xml:space="preserve" x="4" y="167.1719" stroke="none">+</text>
      <text xml:space="preserve" x="19" y="168.5137" onclick="umlload('#setSummary(java.lang.String)')" stroke="none">setSummary(String) : void</text>
    </g>
    <g font-family="sans-serif" transform="matrix(0.58,0,0,0.58,227.3676,243.0281)">
      <text xml:space="preserve" x="4" y="183.1719" stroke="none">+</text>
      <text xml:space="preserve" x="19" y="184.4824" onclick="umlload('#setTitle(java.lang.String)')" stroke="none">setTitle(String) : void</text>
    </g>
    <g font-family="sans-serif" transform="matrix(0.58,0,0,0.58,227.3676,243.0281)">
      <text xml:space="preserve" x="4" y="199.1719" stroke="none">+</text>
      <text xml:space="preserve" x="19" y="200.4512" onclick="umlload('#setUpdated(java.util.Date)')" stroke="none">setUpdated(Date) : void</text>
    </g>
    <g font-family="sans-serif" transform="matrix(0.58,0,0,0.58,227.3676,243.0281)">
      <text xml:space="preserve" x="-386" y="325.1543" onclick="umlload('http://www.yworks.com/')" stroke="none">yWorks UML Doclet</text>
    </g>
    <g stroke-miterlimit="1.45" transform="matrix(0.58,0,0,0.58,227.3676,243.0281)" stroke-linecap="butt">
      <path fill="none" d="M124.63 -0.0434 L124.63 -69"/>
      <path fill="white" d="M124.63 -84 L118.63 -68 L130.63 -68 Z" stroke="none"/>
      <path fill="none" d="M124.63 -84 L118.63 -68 L130.63 -68 Z"/>
      <path fill="none" stroke-dasharray="6,2" d="M186.945 0.0344 L186.945 -51 L462.36 -51 L462.36 -69"/>
      <path fill="white" stroke-dasharray="6,2" d="M462.36 -84 L456.36 -68 L468.36 -68 Z" stroke="none"/>
      <path fill="none" d="M462.36 -84 L456.36 -68 L468.36 -68 Z"/>
      <path fill="none" d="M-0.0172 11.5664 L-240.25 11.5664"/>
      <line stroke-linecap="square" transform="matrix(-1,0,0,-1,-240.25,11.5664)" fill="none" x1="0" x2="-14" y1="0" y2="-4" stroke-miterlimit="10"/>
      <line stroke-linecap="square" transform="matrix(-1,0,0,-1,-240.25,11.5664)" fill="none" x1="0" x2="-14" y1="0" y2="4" stroke-miterlimit="10"/>
    </g>
    <g stroke-miterlimit="1.45" transform="matrix(0.58,0,0,0.58,227.3676,243.0281)" stroke-linecap="butt">
      <path fill="none" d="M-0.0252 98.6992 L-76.48 98.6992"/>
      <line stroke-linecap="square" transform="matrix(-1,0,0,-1,-76.48,98.6992)" fill="none" x1="0" x2="-14" y1="0" y2="-4" stroke-miterlimit="10"/>
      <line stroke-linecap="square" transform="matrix(-1,0,0,-1,-76.48,98.6992)" fill="none" x1="0" x2="-14" y1="0" y2="4" stroke-miterlimit="10"/>
    </g>
    <g stroke-miterlimit="1.45" transform="matrix(0.58,0,0,0.58,227.3676,243.0281)" stroke-linecap="butt">
      <path fill="none" d="M-0.0131 185.832 L-90.9 185.832"/>
      <line stroke-linecap="square" transform="matrix(-1,0,0,-1,-90.9,185.832)" fill="none" x1="0" x2="-14" y1="0" y2="-4" stroke-miterlimit="10"/>
      <line stroke-linecap="square" transform="matrix(-1,0,0,-1,-90.9,185.832)" fill="none" x1="0" x2="-14" y1="0" y2="4" stroke-miterlimit="10"/>
    </g>
    <g stroke-miterlimit="1.45" transform="matrix(0.58,0,0,0.58,227.3676,243.0281)" stroke-linecap="butt">
      <path fill="none" d="M-0.0245 272.9648 L-77.51 272.9648"/>
      <line stroke-linecap="square" transform="matrix(-1,0,0,-1,-77.51,272.9648)" fill="none" x1="0" x2="-14" y1="0" y2="-4" stroke-miterlimit="10"/>
      <line stroke-linecap="square" transform="matrix(-1,0,0,-1,-77.51,272.9648)" fill="none" x1="0" x2="-14" y1="0" y2="4" stroke-miterlimit="10"/>
    </g>
  </g>
</svg>
