<?xml version="1.0" encoding="UTF-8"?><svg xmlns="http://www.w3.org/2000/svg" xmlns:xlink="http://www.w3.org/1999/xlink" fill-opacity="1" color-rendering="auto" color-interpolation="auto" stroke="black" text-rendering="auto" stroke-linecap="square" width="598" stroke-miterlimit="10" stroke-opacity="1" shape-rendering="auto" fill="black" stroke-dasharray="none" font-weight="normal" stroke-width="1" height="598" font-family="'Dialog'" font-style="normal" stroke-linejoin="miter" font-size="12" stroke-dashoffset="0" image-rendering="auto">
  <!--Generated by ySVG-->
  <defs id="genericDefs"/>
  <g>
    <defs id="defs1">
      <clipPath clipPathUnits="userSpaceOnUse" id="clipPath1">
        <path d="M0 0 L598 0 L598 598 L0 598 L0 0 Z"/>
      </clipPath>
      <clipPath clipPathUnits="userSpaceOnUse" id="clipPath2">
        <path d="M-130.04 0 L-76.48 0 L-76.48 23.1328 L-130.04 23.1328 L-130.04 0 Z"/>
      </clipPath>
      <clipPath clipPathUnits="userSpaceOnUse" id="clipPath3">
        <path d="M502.3988 -100.3574 C502.3988 -91.3234 473.0516 -84 436.85 -84 C400.6484 -84 371.3012 -91.3234 371.3012 -100.3574 C371.3012 -109.3913 400.6484 -116.7147 436.85 -116.7147 C473.0516 -116.7147 502.3988 -109.3913 502.3988 -100.3574 Z"/>
      </clipPath>
      <clipPath clipPathUnits="userSpaceOnUse" id="clipPath4">
        <path d="M28.84 -107.1328 L212.18 -107.1328 L212.18 -84 L28.84 -84 L28.84 -107.1328 Z"/>
      </clipPath>
      <clipPath clipPathUnits="userSpaceOnUse" id="clipPath5">
        <path d="M0 0 L241.02 0 L241.02 156.375 L0 156.375 L0 0 Z"/>
      </clipPath>
      <script type="text/ecmascript"><![CDATA[
function umlload(newLocation)
{
if (newLocation.charAt(0) != '#') {
if (newLocation.indexOf("://") > -1) {
window.parent.location.href = newLocation;
} else {
var tmp = window.parent.location.href;
tmp = tmp.substring(0, tmp.lastIndexOf("/") + 1);
window.parent.location.href = tmp.concat(newLocation);
}
} else {
window.parent.location.hash = newLocation;
}
}
]]></script>
    </defs>
    <g fill="rgb(238,238,255)" transform="matrix(0.8169,0,0,0.8169,113.5546,275.3087)" stroke="rgb(238,238,255)">
      <rect width="76.1412" x="-138.04" height="17.9688" y="-26" stroke="none"/>
    </g>
    <g fill="rgb(166,166,178)" stroke-miterlimit="1.45" transform="matrix(0.8169,0,0,0.8169,113.5546,275.3087)" stroke-linecap="butt" stroke="rgb(166,166,178)">
      <rect fill="none" width="76.1412" x="-138.04" height="17.9688" y="-26"/>
    </g>
    <g fill="rgb(238,238,255)" transform="matrix(0.8169,0,0,0.8169,113.5546,275.3087)" stroke="rgb(238,238,255)">
      <rect width="79.56" x="-138.04" height="39.1641" y="-8.0312" stroke="none"/>
    </g>
    <g fill="rgb(166,166,178)" stroke-miterlimit="1.45" transform="matrix(0.8169,0,0,0.8169,113.5546,275.3087)" stroke-linecap="butt" stroke="rgb(166,166,178)">
      <rect fill="none" width="79.56" x="-138.04" height="39.1641" y="-8.0312"/>
    </g>
    <g font-family="sans-serif" transform="matrix(0.8169,0,0,0.8169,113.5546,275.3087)">
      <text xml:space="preserve" x="-132.04" y="-12.8613" onclick="umlload('http://docs.oracle.com/javase/6/docs/api/java/lang/package-summary.html')" stroke="none">java.lang</text>
    </g>
    <g fill="rgb(187,187,255)" transform="matrix(0.8169,0,0,0.8169,113.5546,275.3087)" stroke="rgb(187,187,255)">
      <rect x="-130.04" y="0" clip-path="url(#clipPath2)" width="53.56" height="23.1328" stroke="none"/>
    </g>
    <g fill="rgb(130,130,178)" stroke-miterlimit="1.45" transform="matrix(0.8169,0,0,0.8169,113.5546,275.3087)" stroke-linecap="butt" stroke="rgb(130,130,178)">
      <rect fill="none" width="53.56" x="-130.04" height="23.1328" y="0"/>
    </g>
    <g font-size="13" font-weight="bold" font-family="sans-serif" transform="matrix(0.8169,0,0,0.8169,113.5546,275.3087)">
      <text xml:space="preserve" x="-125.26" y="16.0669" onclick="umlload('http://docs.oracle.com/javase/6/docs/api/java/lang/String.html')" stroke="none">String</text>
    </g>
    <g fill="rgb(238,238,255)" transform="matrix(0.8169,0,0,0.8169,113.5546,275.3087)" stroke="rgb(238,238,255)">
      <rect width="298.9302" x="293.3012" height="17.9688" y="-142.7147" stroke="none"/>
    </g>
    <g fill="rgb(166,166,178)" stroke-miterlimit="1.45" transform="matrix(0.8169,0,0,0.8169,113.5546,275.3087)" stroke-linecap="butt" stroke="rgb(166,166,178)">
      <rect fill="none" width="298.9302" x="293.3012" height="17.9688" y="-142.7147"/>
    </g>
    <g fill="rgb(238,238,255)" transform="matrix(0.8169,0,0,0.8169,113.5546,275.3087)" stroke="rgb(238,238,255)">
      <rect width="299.0976" x="293.3012" height="48.746" y="-124.746" stroke="none"/>
    </g>
    <g fill="rgb(166,166,178)" stroke-miterlimit="1.45" transform="matrix(0.8169,0,0,0.8169,113.5546,275.3087)" stroke-linecap="butt" stroke="rgb(166,166,178)">
      <rect fill="none" width="299.0976" x="293.3012" height="48.746" y="-124.746"/>
    </g>
    <g font-family="sans-serif" transform="matrix(0.8169,0,0,0.8169,113.5546,275.3087)">
      <text xml:space="preserve" x="299.3012" y="-129.5761" onclick="umlload('../../../../../../../com/msopentech/odatajclient/engine/data/package-summary.html')" stroke="none">com.msopentech.odatajclient.engine.data</text>
    </g>
    <g fill="rgb(221,221,255)" transform="matrix(0.8169,0,0,0.8169,113.5546,275.3087)" stroke="rgb(221,221,255)">
      <rect x="371.3012" y="-116.7147" clip-path="url(#clipPath3)" width="131.0976" height="32.7147" stroke="none"/>
    </g>
    <g fill="rgb(154,154,178)" stroke-miterlimit="1.45" transform="matrix(0.8169,0,0,0.8169,113.5546,275.3087)" stroke-linecap="butt" stroke="rgb(154,154,178)">
      <ellipse rx="65.5488" fill="none" ry="16.3574" cx="436.85" cy="-100.3574"/>
    </g>
    <g font-style="italic" font-size="13" font-weight="bold" font-family="sans-serif" transform="matrix(0.8169,0,0,0.8169,113.5546,275.3087)">
      <text xml:space="preserve" x="395.85" y="-95.8569" onclick="umlload('../../../../../../../com/msopentech/odatajclient/engine/data/ODataError.html')" stroke="none">ODataError</text>
    </g>
    <g fill="rgb(238,238,255)" transform="matrix(0.8169,0,0,0.8169,113.5546,275.3087)" stroke="rgb(238,238,255)">
      <rect width="298.9302" x="-23.16" height="17.9688" y="-133.1328" stroke="none"/>
    </g>
    <g fill="rgb(166,166,178)" stroke-miterlimit="1.45" transform="matrix(0.8169,0,0,0.8169,113.5546,275.3087)" stroke-linecap="butt" stroke="rgb(166,166,178)">
      <rect fill="none" width="298.9302" x="-23.16" height="17.9688" y="-133.1328"/>
    </g>
    <g fill="rgb(238,238,255)" transform="matrix(0.8169,0,0,0.8169,113.5546,275.3087)" stroke="rgb(238,238,255)">
      <rect width="299.34" x="-23.16" height="39.1641" y="-115.1641" stroke="none"/>
    </g>
    <g fill="rgb(166,166,178)" stroke-miterlimit="1.45" transform="matrix(0.8169,0,0,0.8169,113.5546,275.3087)" stroke-linecap="butt" stroke="rgb(166,166,178)">
      <rect fill="none" width="299.34" x="-23.16" height="39.1641" y="-115.1641"/>
    </g>
    <g font-family="sans-serif" transform="matrix(0.8169,0,0,0.8169,113.5546,275.3087)">
      <text xml:space="preserve" x="-17.16" y="-119.9941" onclick="umlload('../../../../../../../com/msopentech/odatajclient/engine/data/package-summary.html')" stroke="none">com.msopentech.odatajclient.engine.data</text>
    </g>
    <g fill="rgb(204,204,255)" transform="matrix(0.8169,0,0,0.8169,113.5546,275.3087)" stroke="rgb(204,204,255)">
      <rect x="28.84" y="-107.1328" clip-path="url(#clipPath4)" width="183.34" height="23.1328" stroke="none"/>
    </g>
    <g fill="rgb(142,142,178)" stroke-miterlimit="1.45" transform="matrix(0.8169,0,0,0.8169,113.5546,275.3087)" stroke-linecap="butt" stroke="rgb(142,142,178)">
      <rect fill="none" width="183.34" x="28.84" height="23.1328" y="-107.1328"/>
    </g>
    <g font-size="13" font-weight="bold" font-family="sans-serif" transform="matrix(0.8169,0,0,0.8169,113.5546,275.3087)">
      <text xml:space="preserve" x="35.51" y="-91.0659" onclick="umlload('../../../../../../../com/msopentech/odatajclient/engine/data/AbstractPayloadObject.html')" stroke="none">AbstractPayloadObject</text>
    </g>
    <g fill="rgb(238,238,255)" transform="matrix(0.8169,0,0,0.8169,113.5546,275.3087)" stroke="rgb(238,238,255)">
      <rect width="367.8887" x="-8" height="17.9688" y="-26" stroke="none"/>
    </g>
    <g fill="rgb(166,166,178)" stroke-miterlimit="1.45" transform="matrix(0.8169,0,0,0.8169,113.5546,275.3087)" stroke-linecap="butt" stroke="rgb(166,166,178)">
      <rect fill="none" width="367.8887" x="-8" height="17.9688" y="-26"/>
    </g>
    <g fill="rgb(238,238,255)" transform="matrix(0.8169,0,0,0.8169,113.5546,275.3087)" stroke="rgb(238,238,255)">
      <rect width="368.02" x="-8" height="172.4062" y="-8.0312" stroke="none"/>
    </g>
    <g fill="rgb(166,166,178)" stroke-miterlimit="1.45" transform="matrix(0.8169,0,0,0.8169,113.5546,275.3087)" stroke-linecap="butt" stroke="rgb(166,166,178)">
      <rect fill="none" width="368.02" x="-8" height="172.4062" y="-8.0312"/>
    </g>
    <g font-family="sans-serif" transform="matrix(0.8169,0,0,0.8169,113.5546,275.3087)">
      <text xml:space="preserve" x="-2" y="-12.8613" onclick="umlload('package-summary.html')" stroke="none">com.msopentech.odatajclient.engine.data.json.error</text>
    </g>
    <g fill="rgb(187,187,255)" transform="matrix(0.8169,0,0,0.8169,113.5546,275.3087)" stroke="rgb(187,187,255)">
      <rect x="0" y="0" clip-path="url(#clipPath5)" width="241.02" height="26.625" stroke="none"/>
      <line clip-path="url(#clipPath5)" fill="none" x1="0" x2="241.02" y1="26.625" y2="26.625" stroke="black"/>
      <rect x="0" y="27.625" clip-path="url(#clipPath5)" width="241.02" height="15.9688" stroke="none"/>
      <line clip-path="url(#clipPath5)" fill="none" x1="0" x2="241.02" y1="43.5938" y2="43.5938" stroke="black"/>
      <rect x="0" y="44.5938" clip-path="url(#clipPath5)" width="241.02" height="111.7812" stroke="none"/>
    </g>
    <g fill="rgb(130,130,178)" stroke-miterlimit="1.45" transform="matrix(0.8169,0,0,0.8169,113.5546,275.3087)" stroke-linecap="butt" stroke="rgb(130,130,178)">
      <rect fill="none" width="241.02" x="0" height="156.375" y="0"/>
    </g>
    <g font-size="16" font-weight="bold" font-family="sans-serif" transform="matrix(0.8169,0,0,0.8169,113.5546,275.3087)">
      <text xml:space="preserve" x="48.51" y="18.8516" onclick="umlload('#')" stroke="none">JSONODataError</text>
    </g>
    <g font-family="sans-serif" transform="matrix(0.8169,0,0,0.8169,113.5546,275.3087)">
      <text xml:space="preserve" x="4" y="38.1719" stroke="none">+</text>
      <text xml:space="preserve" x="19" y="39.7637" onclick="umlload('#JSONODataError()')" stroke="none">JSONODataError()</text>
    </g>
    <g font-family="sans-serif" transform="matrix(0.8169,0,0,0.8169,113.5546,275.3087)">
      <text xml:space="preserve" x="4" y="55.1719" stroke="none">+</text>
      <text xml:space="preserve" x="19" y="56.7324" onclick="umlload('#getCode()')" stroke="none">getCode() : String</text>
    </g>
    <g font-family="sans-serif" transform="matrix(0.8169,0,0,0.8169,113.5546,275.3087)">
      <text xml:space="preserve" x="4" y="71.1719" stroke="none">+</text>
      <text xml:space="preserve" x="19" y="72.7012" onclick="umlload('#getInnerErrorMessage()')" stroke="none">getInnerErrorMessage() : String</text>
    </g>
    <g font-family="sans-serif" transform="matrix(0.8169,0,0,0.8169,113.5546,275.3087)">
      <text xml:space="preserve" x="4" y="87.1719" stroke="none">+</text>
      <text xml:space="preserve" x="19" y="88.6699" onclick="umlload('#getInnerErrorStacktrace()')" stroke="none">getInnerErrorStacktrace() : String</text>
    </g>
    <g font-family="sans-serif" transform="matrix(0.8169,0,0,0.8169,113.5546,275.3087)">
      <text xml:space="preserve" x="4" y="103.1719" stroke="none">+</text>
      <text xml:space="preserve" x="19" y="104.6387" onclick="umlload('#getInnerErrorType()')" stroke="none">getInnerErrorType() : String</text>
    </g>
    <g font-family="sans-serif" transform="matrix(0.8169,0,0,0.8169,113.5546,275.3087)">
      <text xml:space="preserve" x="4" y="119.1719" stroke="none">+</text>
      <text xml:space="preserve" x="19" y="120.6074" onclick="umlload('#getMessageLang()')" stroke="none">getMessageLang() : String</text>
    </g>
    <g font-family="sans-serif" transform="matrix(0.8169,0,0,0.8169,113.5546,275.3087)">
      <text xml:space="preserve" x="4" y="135.1719" stroke="none">+</text>
      <text xml:space="preserve" x="19" y="136.5762" onclick="umlload('#getMessageValue()')" stroke="none">getMessageValue() : String</text>
    </g>
    <g font-family="sans-serif" transform="matrix(0.8169,0,0,0.8169,113.5546,275.3087)">
      <text xml:space="preserve" x="4" y="151.1719" stroke="none">+</text>
      <text xml:space="preserve" x="19" y="152.5449" onclick="umlload('#setCode(java.lang.String)')" stroke="none">setCode(String) : void</text>
    </g>
    <g font-family="sans-serif" transform="matrix(0.8169,0,0,0.8169,113.5546,275.3087)">
      <text xml:space="preserve" x="-133" y="189.1543" onclick="umlload('http://www.yworks.com/')" stroke="none">yWorks UML Doclet</text>
    </g>
    <g stroke-miterlimit="1.45" transform="matrix(0.8169,0,0,0.8169,113.5546,275.3087)" stroke-linecap="butt">
      <path fill="none" d="M120.51 0 L120.51 -69"/>
      <path fill="white" d="M120.51 -84 L114.51 -68 L126.51 -68 Z" stroke="none"/>
      <path fill="none" d="M120.51 -84 L114.51 -68 L126.51 -68 Z"/>
      <path fill="none" stroke-dasharray="6,2" d="M180.765 0 L180.765 -51 L436.85 -51 L436.85 -69"/>
      <path fill="white" stroke-dasharray="6,2" d="M436.85 -84 L430.85 -68 L442.85 -68 Z" stroke="none"/>
      <path fill="none" d="M436.85 -84 L430.85 -68 L442.85 -68 Z"/>
      <path fill="none" d="M0.0206 11.5664 L-76.48 11.5664"/>
      <line stroke-linecap="square" transform="matrix(-1,0,0,-1,-76.48,11.5664)" fill="none" x1="0" x2="-14" y1="0" y2="-4" stroke-miterlimit="10"/>
      <line stroke-linecap="square" transform="matrix(-1,0,0,-1,-76.48,11.5664)" fill="none" x1="0" x2="-14" y1="0" y2="4" stroke-miterlimit="10"/>
    </g>
  </g>
</svg>
