<?xml version="1.0" encoding="UTF-8"?><svg xmlns="http://www.w3.org/2000/svg" xmlns:xlink="http://www.w3.org/1999/xlink" fill-opacity="1" color-rendering="auto" color-interpolation="auto" stroke="black" text-rendering="auto" stroke-linecap="square" width="598" stroke-miterlimit="10" stroke-opacity="1" shape-rendering="auto" fill="black" stroke-dasharray="none" font-weight="normal" stroke-width="1" height="598" font-family="'Dialog'" font-style="normal" stroke-linejoin="miter" font-size="12" stroke-dashoffset="0" image-rendering="auto">
  <!--Generated by ySVG-->
  <defs id="genericDefs"/>
  <g>
    <defs id="defs1">
      <clipPath clipPathUnits="userSpaceOnUse" id="clipPath1">
        <path d="M0 0 L598 0 L598 598 L0 598 L0 0 Z"/>
      </clipPath>
      <clipPath clipPathUnits="userSpaceOnUse" id="clipPath2">
        <path d="M-66 103.4902 C-66 112.5241 -87.1952 119.8475 -113.3408 119.8475 C-139.4864 119.8475 -160.6816 112.5241 -160.6816 103.4902 C-160.6816 94.4563 -139.4864 87.1328 -113.3408 87.1328 C-87.1952 87.1328 -66 94.4563 -66 103.4902 Z"/>
      </clipPath>
      <clipPath clipPathUnits="userSpaceOnUse" id="clipPath3">
        <path d="M-123.86 0 L-90.9 0 L-90.9 23.1328 L-123.86 23.1328 L-123.86 0 Z"/>
      </clipPath>
      <clipPath clipPathUnits="userSpaceOnUse" id="clipPath4">
        <path d="M433.381 -100.3574 C433.381 -91.3234 375.3387 -84 303.74 -84 C232.1413 -84 174.099 -91.3234 174.099 -100.3574 C174.099 -109.3913 232.1413 -116.7147 303.74 -116.7147 C375.3387 -116.7147 433.381 -109.3913 433.381 -100.3574 Z"/>
      </clipPath>
      <clipPath clipPathUnits="userSpaceOnUse" id="clipPath5">
        <path d="M64.89 -107.1328 L122.57 -107.1328 L122.57 -84 L64.89 -84 L64.89 -107.1328 Z"/>
      </clipPath>
      <clipPath clipPathUnits="userSpaceOnUse" id="clipPath6">
        <path d="M0 0 L187.46 0 L187.46 127.8475 L0 127.8475 L0 0 Z"/>
      </clipPath>
      <script type="text/ecmascript"><![CDATA[
function umlload(newLocation)
{
if (newLocation.charAt(0) != '#') {
if (newLocation.indexOf("://") > -1) {
window.parent.location.href = newLocation;
} else {
var tmp = window.parent.location.href;
tmp = tmp.substring(0, tmp.lastIndexOf("/") + 1);
window.parent.location.href = tmp.concat(newLocation);
}
} else {
window.parent.location.hash = newLocation;
}
}
]]></script>
    </defs>
    <g fill="rgb(238,238,255)" transform="matrix(0.9507,0,0,0.9507,160.6709,285.2146)" stroke="rgb(238,238,255)">
      <rect width="67.654" x="-168.6816" height="17.9688" y="61.1328" stroke="none"/>
    </g>
    <g fill="rgb(166,166,178)" stroke-miterlimit="1.45" transform="matrix(0.9507,0,0,0.9507,160.6709,285.2146)" stroke-linecap="butt" stroke="rgb(166,166,178)">
      <rect fill="none" width="67.654" x="-168.6816" height="17.9688" y="61.1328"/>
    </g>
    <g fill="rgb(238,238,255)" transform="matrix(0.9507,0,0,0.9507,160.6709,285.2146)" stroke="rgb(238,238,255)">
      <rect width="110.6816" x="-168.6816" height="48.746" y="79.1016" stroke="none"/>
    </g>
    <g fill="rgb(166,166,178)" stroke-miterlimit="1.45" transform="matrix(0.9507,0,0,0.9507,160.6709,285.2146)" stroke-linecap="butt" stroke="rgb(166,166,178)">
      <rect fill="none" width="110.6816" x="-168.6816" height="48.746" y="79.1016"/>
    </g>
    <g font-family="sans-serif" transform="matrix(0.9507,0,0,0.9507,160.6709,285.2146)">
      <text xml:space="preserve" x="-162.6816" y="74.2715" onclick="umlload('http://docs.oracle.com/javase/6/docs/api/java/util/package-summary.html')" stroke="none">java.util</text>
    </g>
    <g fill="rgb(221,221,255)" transform="matrix(0.9507,0,0,0.9507,160.6709,285.2146)" stroke="rgb(221,221,255)">
      <rect x="-160.6816" y="87.1328" clip-path="url(#clipPath2)" width="94.6816" height="32.7147" stroke="none"/>
    </g>
    <g fill="rgb(154,154,178)" stroke-miterlimit="1.45" transform="matrix(0.9507,0,0,0.9507,160.6709,285.2146)" stroke-linecap="butt" stroke="rgb(154,154,178)">
      <ellipse rx="47.3408" fill="none" ry="16.3574" cx="-113.3408" cy="103.4902"/>
    </g>
    <g font-style="italic" font-size="13" font-weight="bold" font-family="sans-serif" transform="matrix(0.9507,0,0,0.9507,160.6709,285.2146)">
      <text xml:space="preserve" x="-141.8408" y="107.9907" onclick="umlload('http://docs.oracle.com/javase/6/docs/api/java/util/List.html')" stroke="none">List&lt;E&gt;</text>
    </g>
    <g fill="rgb(238,238,255)" transform="matrix(0.9507,0,0,0.9507,160.6709,285.2146)" stroke="rgb(238,238,255)">
      <rect width="69.7758" x="-131.86" height="17.9688" y="-26" stroke="none"/>
    </g>
    <g fill="rgb(166,166,178)" stroke-miterlimit="1.45" transform="matrix(0.9507,0,0,0.9507,160.6709,285.2146)" stroke-linecap="butt" stroke="rgb(166,166,178)">
      <rect fill="none" width="69.7758" x="-131.86" height="17.9688" y="-26"/>
    </g>
    <g fill="rgb(238,238,255)" transform="matrix(0.9507,0,0,0.9507,160.6709,285.2146)" stroke="rgb(238,238,255)">
      <rect width="73.96" x="-131.86" height="39.1641" y="-8.0312" stroke="none"/>
    </g>
    <g fill="rgb(166,166,178)" stroke-miterlimit="1.45" transform="matrix(0.9507,0,0,0.9507,160.6709,285.2146)" stroke-linecap="butt" stroke="rgb(166,166,178)">
      <rect fill="none" width="73.96" x="-131.86" height="39.1641" y="-8.0312"/>
    </g>
    <g font-family="sans-serif" transform="matrix(0.9507,0,0,0.9507,160.6709,285.2146)">
      <text xml:space="preserve" x="-125.86" y="-12.8613" onclick="umlload('http://docs.oracle.com/javase/6/docs/api/java/net/package-summary.html')" stroke="none">java.net</text>
    </g>
    <g fill="rgb(187,187,255)" transform="matrix(0.9507,0,0,0.9507,160.6709,285.2146)" stroke="rgb(187,187,255)">
      <rect x="-123.86" y="0" clip-path="url(#clipPath3)" width="32.96" height="23.1328" stroke="none"/>
    </g>
    <g fill="rgb(130,130,178)" stroke-miterlimit="1.45" transform="matrix(0.9507,0,0,0.9507,160.6709,285.2146)" stroke-linecap="butt" stroke="rgb(130,130,178)">
      <rect fill="none" width="32.96" x="-123.86" height="23.1328" y="0"/>
    </g>
    <g font-size="13" font-weight="bold" font-family="sans-serif" transform="matrix(0.9507,0,0,0.9507,160.6709,285.2146)">
      <text xml:space="preserve" x="-119.38" y="16.0669" onclick="umlload('http://docs.oracle.com/javase/6/docs/api/java/net/URI.html')" stroke="none">URI</text>
    </g>
    <g fill="rgb(238,238,255)" transform="matrix(0.9507,0,0,0.9507,160.6709,285.2146)" stroke="rgb(238,238,255)">
      <rect width="298.9302" x="160.099" height="17.9688" y="-142.7147" stroke="none"/>
    </g>
    <g fill="rgb(166,166,178)" stroke-miterlimit="1.45" transform="matrix(0.9507,0,0,0.9507,160.6709,285.2146)" stroke-linecap="butt" stroke="rgb(166,166,178)">
      <rect fill="none" width="298.9302" x="160.099" height="17.9688" y="-142.7147"/>
    </g>
    <g fill="rgb(238,238,255)" transform="matrix(0.9507,0,0,0.9507,160.6709,285.2146)" stroke="rgb(238,238,255)">
      <rect width="299.2819" x="160.099" height="48.746" y="-124.746" stroke="none"/>
    </g>
    <g fill="rgb(166,166,178)" stroke-miterlimit="1.45" transform="matrix(0.9507,0,0,0.9507,160.6709,285.2146)" stroke-linecap="butt" stroke="rgb(166,166,178)">
      <rect fill="none" width="299.2819" x="160.099" height="48.746" y="-124.746"/>
    </g>
    <g font-family="sans-serif" transform="matrix(0.9507,0,0,0.9507,160.6709,285.2146)">
      <text xml:space="preserve" x="166.099" y="-129.5761" onclick="umlload('../../../../../../com/msopentech/odatajclient/engine/data/package-summary.html')" stroke="none">com.msopentech.odatajclient.engine.data</text>
    </g>
    <g fill="rgb(221,221,255)" transform="matrix(0.9507,0,0,0.9507,160.6709,285.2146)" stroke="rgb(221,221,255)">
      <rect x="174.099" y="-116.7147" clip-path="url(#clipPath4)" width="259.2819" height="32.7147" stroke="none"/>
    </g>
    <g fill="rgb(154,154,178)" stroke-miterlimit="1.45" transform="matrix(0.9507,0,0,0.9507,160.6709,285.2146)" stroke-linecap="butt" stroke="rgb(154,154,178)">
      <ellipse rx="129.641" fill="none" ry="16.3574" cx="303.74" cy="-100.3574"/>
    </g>
    <g font-style="italic" font-size="13" font-weight="bold" font-family="sans-serif" transform="matrix(0.9507,0,0,0.9507,160.6709,285.2146)">
      <text xml:space="preserve" x="218.74" y="-95.8569" onclick="umlload('../../../../../../com/msopentech/odatajclient/engine/data/LinkCollectionResource.html')" stroke="none">LinkCollectionResource</text>
    </g>
    <g fill="rgb(238,238,255)" transform="matrix(0.9507,0,0,0.9507,160.6709,285.2146)" stroke="rgb(238,238,255)">
      <rect width="76.1412" x="56.89" height="17.9688" y="-133.1328" stroke="none"/>
    </g>
    <g fill="rgb(166,166,178)" stroke-miterlimit="1.45" transform="matrix(0.9507,0,0,0.9507,160.6709,285.2146)" stroke-linecap="butt" stroke="rgb(166,166,178)">
      <rect fill="none" width="76.1412" x="56.89" height="17.9688" y="-133.1328"/>
    </g>
    <g fill="rgb(238,238,255)" transform="matrix(0.9507,0,0,0.9507,160.6709,285.2146)" stroke="rgb(238,238,255)">
      <rect width="76.1412" x="56.89" height="39.1641" y="-115.1641" stroke="none"/>
    </g>
    <g fill="rgb(166,166,178)" stroke-miterlimit="1.45" transform="matrix(0.9507,0,0,0.9507,160.6709,285.2146)" stroke-linecap="butt" stroke="rgb(166,166,178)">
      <rect fill="none" width="76.1412" x="56.89" height="39.1641" y="-115.1641"/>
    </g>
    <g font-family="sans-serif" transform="matrix(0.9507,0,0,0.9507,160.6709,285.2146)">
      <text xml:space="preserve" x="62.89" y="-119.9941" onclick="umlload('http://docs.oracle.com/javase/6/docs/api/java/lang/package-summary.html')" stroke="none">java.lang</text>
    </g>
    <g fill="rgb(187,187,255)" transform="matrix(0.9507,0,0,0.9507,160.6709,285.2146)" stroke="rgb(187,187,255)">
      <rect x="64.89" y="-107.1328" clip-path="url(#clipPath5)" width="57.68" height="23.1328" stroke="none"/>
    </g>
    <g fill="rgb(130,130,178)" stroke-miterlimit="1.45" transform="matrix(0.9507,0,0,0.9507,160.6709,285.2146)" stroke-linecap="butt" stroke="rgb(130,130,178)">
      <rect fill="none" width="57.68" x="64.89" height="23.1328" y="-107.1328"/>
    </g>
    <g font-size="13" font-weight="bold" font-family="sans-serif" transform="matrix(0.9507,0,0,0.9507,160.6709,285.2146)">
      <text xml:space="preserve" x="69.73" y="-91.0659" onclick="umlload('http://docs.oracle.com/javase/6/docs/api/java/lang/Object.html')" stroke="none">Object</text>
    </g>
    <g fill="rgb(238,238,255)" transform="matrix(0.9507,0,0,0.9507,160.6709,285.2146)" stroke="rgb(238,238,255)">
      <rect width="324.3918" x="-8" height="17.9688" y="-26" stroke="none"/>
    </g>
    <g fill="rgb(166,166,178)" stroke-miterlimit="1.45" transform="matrix(0.9507,0,0,0.9507,160.6709,285.2146)" stroke-linecap="butt" stroke="rgb(166,166,178)">
      <rect fill="none" width="324.3918" x="-8" height="17.9688" y="-26"/>
    </g>
    <g fill="rgb(238,238,255)" transform="matrix(0.9507,0,0,0.9507,160.6709,285.2146)" stroke="rgb(238,238,255)">
      <rect width="324.46" x="-8" height="143.8788" y="-8.0312" stroke="none"/>
    </g>
    <g fill="rgb(166,166,178)" stroke-miterlimit="1.45" transform="matrix(0.9507,0,0,0.9507,160.6709,285.2146)" stroke-linecap="butt" stroke="rgb(166,166,178)">
      <rect fill="none" width="324.46" x="-8" height="143.8788" y="-8.0312"/>
    </g>
    <g font-family="sans-serif" transform="matrix(0.9507,0,0,0.9507,160.6709,285.2146)">
      <text xml:space="preserve" x="-2" y="-12.8613" onclick="umlload('package-summary.html')" stroke="none">com.msopentech.odatajclient.engine.data.xml</text>
    </g>
    <g fill="rgb(187,187,255)" transform="matrix(0.9507,0,0,0.9507,160.6709,285.2146)" stroke="rgb(187,187,255)">
      <rect x="0" y="0" clip-path="url(#clipPath6)" width="187.46" height="26.625" stroke="none"/>
      <line clip-path="url(#clipPath6)" fill="none" x1="0" x2="187.46" y1="26.625" y2="26.625" stroke="black"/>
      <rect x="0" y="27.625" clip-path="url(#clipPath6)" width="187.46" height="31.9375" stroke="none"/>
      <line clip-path="url(#clipPath6)" fill="none" x1="0" x2="187.46" y1="59.5625" y2="59.5625" stroke="black"/>
      <rect x="0" y="60.5625" clip-path="url(#clipPath6)" width="187.46" height="67.285" stroke="none"/>
    </g>
    <g fill="rgb(130,130,178)" stroke-miterlimit="1.45" transform="matrix(0.9507,0,0,0.9507,160.6709,285.2146)" stroke-linecap="butt" stroke="rgb(130,130,178)">
      <rect fill="none" width="187.46" x="0" height="127.8475" y="0"/>
    </g>
    <g font-size="16" font-weight="bold" font-family="sans-serif" transform="matrix(0.9507,0,0,0.9507,160.6709,285.2146)">
      <text xml:space="preserve" x="13.73" y="18.8516" onclick="umlload('#')" stroke="none">XMLLinkCollection</text>
    </g>
    <g font-family="sans-serif" transform="matrix(0.9507,0,0,0.9507,160.6709,285.2146)">
      <text xml:space="preserve" x="4" y="38.1719" stroke="none">+</text>
      <text xml:space="preserve" x="19" y="39.7637" onclick="umlload('#XMLLinkCollection()')" stroke="none">XMLLinkCollection()</text>
    </g>
    <g font-family="sans-serif" transform="matrix(0.9507,0,0,0.9507,160.6709,285.2146)">
      <text xml:space="preserve" x="4" y="54.1719" stroke="none">+</text>
      <text xml:space="preserve" x="19" y="55.7324" onclick="umlload('#XMLLinkCollection(java.net.URI)')" stroke="none">XMLLinkCollection(URI)</text>
    </g>
    <g font-family="sans-serif" transform="matrix(0.9507,0,0,0.9507,160.6709,285.2146)">
      <text xml:space="preserve" x="4" y="71.1719" stroke="none">+</text>
      <text xml:space="preserve" x="19" y="72.7012" onclick="umlload('#getLinks()')" stroke="none">getLinks() : List&lt;URI&gt;</text>
    </g>
    <g font-family="sans-serif" transform="matrix(0.9507,0,0,0.9507,160.6709,285.2146)">
      <text xml:space="preserve" x="4" y="87.1719" stroke="none">+</text>
      <text xml:space="preserve" x="19" y="88.6699" onclick="umlload('#getNext()')" stroke="none">getNext() : URI</text>
    </g>
    <g font-family="sans-serif" transform="matrix(0.9507,0,0,0.9507,160.6709,285.2146)">
      <text xml:space="preserve" x="4" y="103.1719" stroke="none">+</text>
      <text xml:space="preserve" x="19" y="104.6387" onclick="umlload('#setLinks(java.util.List)')" stroke="none">setLinks(List&lt;URI&gt;) : void</text>
    </g>
    <g font-family="sans-serif" transform="matrix(0.9507,0,0,0.9507,160.6709,285.2146)">
      <text xml:space="preserve" x="4" y="119.1719" stroke="none">+</text>
      <text xml:space="preserve" x="19" y="120.6074" onclick="umlload('#setNext(java.net.URI)')" stroke="none">setNext(URI) : void</text>
    </g>
    <g font-family="sans-serif" transform="matrix(0.9507,0,0,0.9507,160.6709,285.2146)">
      <text xml:space="preserve" x="-163" y="160.1543" onclick="umlload('http://www.yworks.com/')" stroke="none">yWorks UML Doclet</text>
    </g>
    <g stroke-miterlimit="1.45" transform="matrix(0.9507,0,0,0.9507,160.6709,285.2146)" stroke-linecap="butt">
      <path fill="none" d="M93.73 0.0061 L93.73 -69"/>
      <path fill="white" d="M93.73 -84 L87.73 -68 L99.73 -68 Z" stroke="none"/>
      <path fill="none" d="M93.73 -84 L87.73 -68 L99.73 -68 Z"/>
      <path fill="none" stroke-dasharray="6,2" d="M140.595 -0.0018 L140.595 -51 L303.74 -51 L303.74 -69"/>
      <path fill="white" stroke-dasharray="6,2" d="M303.74 -84 L297.74 -68 L309.74 -68 Z" stroke="none"/>
      <path fill="none" d="M303.74 -84 L297.74 -68 L309.74 -68 Z"/>
      <path fill="none" d="M-0.0002 11.5664 L-90.9 11.5664"/>
      <line stroke-linecap="square" transform="matrix(-1,0,0,-1,-90.9,11.5664)" fill="none" x1="0" x2="-14" y1="0" y2="-4" stroke-miterlimit="10"/>
      <line stroke-linecap="square" transform="matrix(-1,0,0,-1,-90.9,11.5664)" fill="none" x1="0" x2="-14" y1="0" y2="4" stroke-miterlimit="10"/>
    </g>
    <g stroke-miterlimit="1.45" transform="matrix(0.9507,0,0,0.9507,160.6709,285.2146)" stroke-linecap="butt">
      <path fill="none" d="M-0.0231 103.4902 L-66 103.4902"/>
      <line stroke-linecap="square" transform="matrix(-1,0,0,-1,-66,103.4902)" fill="none" x1="0" x2="-14" y1="0" y2="-4" stroke-miterlimit="10"/>
      <line stroke-linecap="square" transform="matrix(-1,0,0,-1,-66,103.4902)" fill="none" x1="0" x2="-14" y1="0" y2="4" stroke-miterlimit="10"/>
    </g>
  </g>
</svg>
