<?xml version="1.0" encoding="UTF-8"?><svg xmlns="http://www.w3.org/2000/svg" xmlns:xlink="http://www.w3.org/1999/xlink" fill-opacity="1" color-rendering="auto" color-interpolation="auto" stroke="black" text-rendering="auto" stroke-linecap="square" width="598" stroke-miterlimit="10" stroke-opacity="1" shape-rendering="auto" fill="black" stroke-dasharray="none" font-weight="normal" stroke-width="1" height="598" font-family="'Dialog'" font-style="normal" stroke-linejoin="miter" font-size="12" stroke-dashoffset="0" image-rendering="auto">
  <!--Generated by ySVG-->
  <defs id="genericDefs"/>
  <g>
    <defs id="defs1">
      <clipPath clipPathUnits="userSpaceOnUse" id="clipPath1">
        <path d="M0 0 L598 0 L598 598 L0 598 L0 0 Z"/>
      </clipPath>
      <clipPath clipPathUnits="userSpaceOnUse" id="clipPath2">
        <path d="M383.24 0 L436.8 0 L436.8 23.1328 L383.24 23.1328 L383.24 0 Z"/>
      </clipPath>
      <clipPath clipPathUnits="userSpaceOnUse" id="clipPath3">
        <path d="M-66 103.4902 C-66 112.5241 -95.6733 119.8475 -132.2771 119.8475 C-168.881 119.8475 -198.5542 112.5241 -198.5542 103.4902 C-198.5542 94.4563 -168.881 87.1328 -132.2771 87.1328 C-95.6733 87.1328 -66 94.4563 -66 103.4902 Z"/>
      </clipPath>
      <clipPath clipPathUnits="userSpaceOnUse" id="clipPath4">
        <path d="M-123.86 0 L-90.9 0 L-90.9 23.1328 L-123.86 23.1328 L-123.86 0 Z"/>
      </clipPath>
      <clipPath clipPathUnits="userSpaceOnUse" id="clipPath5">
        <path d="M530.6146 -100.3574 C530.6146 -91.3234 464.0942 -84 382.0373 -84 C299.9803 -84 233.46 -91.3234 233.46 -100.3574 C233.46 -109.3913 299.9803 -116.7147 382.0373 -116.7147 C464.0942 -116.7147 530.6146 -109.3913 530.6146 -100.3574 Z"/>
      </clipPath>
      <clipPath clipPathUnits="userSpaceOnUse" id="clipPath6">
        <path d="M129.78 -107.1328 L187.46 -107.1328 L187.46 -84 L129.78 -84 L129.78 -107.1328 Z"/>
      </clipPath>
      <clipPath clipPathUnits="userSpaceOnUse" id="clipPath7">
        <path d="M0 0 L317.24 0 L317.24 127.8475 L0 127.8475 L0 0 Z"/>
      </clipPath>
      <script type="text/ecmascript"><![CDATA[
function umlload(newLocation)
{
if (newLocation.charAt(0) != '#') {
if (newLocation.indexOf("://") > -1) {
window.parent.location.href = newLocation;
} else {
var tmp = window.parent.location.href;
tmp = tmp.substring(0, tmp.lastIndexOf("/") + 1);
window.parent.location.href = tmp.concat(newLocation);
}
} else {
window.parent.location.hash = newLocation;
}
}
]]></script>
    </defs>
    <g fill="rgb(238,238,255)" transform="matrix(0.8016,0,0,0.8016,165.933,287.7775)" stroke="rgb(238,238,255)">
      <rect width="76.1412" x="375.24" height="17.9688" y="-26" stroke="none"/>
    </g>
    <g fill="rgb(166,166,178)" stroke-miterlimit="1.45" transform="matrix(0.8016,0,0,0.8016,165.933,287.7775)" stroke-linecap="butt" stroke="rgb(166,166,178)">
      <rect fill="none" width="76.1412" x="375.24" height="17.9688" y="-26"/>
    </g>
    <g fill="rgb(238,238,255)" transform="matrix(0.8016,0,0,0.8016,165.933,287.7775)" stroke="rgb(238,238,255)">
      <rect width="79.56" x="375.24" height="39.1641" y="-8.0312" stroke="none"/>
    </g>
    <g fill="rgb(166,166,178)" stroke-miterlimit="1.45" transform="matrix(0.8016,0,0,0.8016,165.933,287.7775)" stroke-linecap="butt" stroke="rgb(166,166,178)">
      <rect fill="none" width="79.56" x="375.24" height="39.1641" y="-8.0312"/>
    </g>
    <g font-family="sans-serif" transform="matrix(0.8016,0,0,0.8016,165.933,287.7775)">
      <text xml:space="preserve" x="381.24" y="-12.8613" onclick="umlload('http://docs.oracle.com/javase/6/docs/api/java/lang/package-summary.html')" stroke="none">java.lang</text>
    </g>
    <g fill="rgb(187,187,255)" transform="matrix(0.8016,0,0,0.8016,165.933,287.7775)" stroke="rgb(187,187,255)">
      <rect x="383.24" y="0" clip-path="url(#clipPath2)" width="53.56" height="23.1328" stroke="none"/>
    </g>
    <g fill="rgb(130,130,178)" stroke-miterlimit="1.45" transform="matrix(0.8016,0,0,0.8016,165.933,287.7775)" stroke-linecap="butt" stroke="rgb(130,130,178)">
      <rect fill="none" width="53.56" x="383.24" height="23.1328" y="0"/>
    </g>
    <g font-size="13" font-weight="bold" font-family="sans-serif" transform="matrix(0.8016,0,0,0.8016,165.933,287.7775)">
      <text xml:space="preserve" x="388.02" y="16.0669" onclick="umlload('http://docs.oracle.com/javase/6/docs/api/java/lang/String.html')" stroke="none">String</text>
    </g>
    <g fill="rgb(238,238,255)" transform="matrix(0.8016,0,0,0.8016,165.933,287.7775)" stroke="rgb(238,238,255)">
      <rect width="67.654" x="-206.5542" height="17.9688" y="61.1328" stroke="none"/>
    </g>
    <g fill="rgb(166,166,178)" stroke-miterlimit="1.45" transform="matrix(0.8016,0,0,0.8016,165.933,287.7775)" stroke-linecap="butt" stroke="rgb(166,166,178)">
      <rect fill="none" width="67.654" x="-206.5542" height="17.9688" y="61.1328"/>
    </g>
    <g fill="rgb(238,238,255)" transform="matrix(0.8016,0,0,0.8016,165.933,287.7775)" stroke="rgb(238,238,255)">
      <rect width="148.5542" x="-206.5542" height="48.746" y="79.1016" stroke="none"/>
    </g>
    <g fill="rgb(166,166,178)" stroke-miterlimit="1.45" transform="matrix(0.8016,0,0,0.8016,165.933,287.7775)" stroke-linecap="butt" stroke="rgb(166,166,178)">
      <rect fill="none" width="148.5542" x="-206.5542" height="48.746" y="79.1016"/>
    </g>
    <g font-family="sans-serif" transform="matrix(0.8016,0,0,0.8016,165.933,287.7775)">
      <text xml:space="preserve" x="-200.5542" y="74.2715" onclick="umlload('http://docs.oracle.com/javase/6/docs/api/java/util/package-summary.html')" stroke="none">java.util</text>
    </g>
    <g fill="rgb(221,221,255)" transform="matrix(0.8016,0,0,0.8016,165.933,287.7775)" stroke="rgb(221,221,255)">
      <rect x="-198.5542" y="87.1328" clip-path="url(#clipPath3)" width="132.5542" height="32.7147" stroke="none"/>
    </g>
    <g fill="rgb(154,154,178)" stroke-miterlimit="1.45" transform="matrix(0.8016,0,0,0.8016,165.933,287.7775)" stroke-linecap="butt" stroke="rgb(154,154,178)">
      <ellipse rx="66.2771" fill="none" ry="16.3574" cx="-132.2771" cy="103.4902"/>
    </g>
    <g font-style="italic" font-size="13" font-weight="bold" font-family="sans-serif" transform="matrix(0.8016,0,0,0.8016,165.933,287.7775)">
      <text xml:space="preserve" x="-173.7771" y="107.9907" onclick="umlload('http://docs.oracle.com/javase/6/docs/api/java/util/Map.html')" stroke="none">Map&lt;K, V&gt;</text>
    </g>
    <g fill="rgb(238,238,255)" transform="matrix(0.8016,0,0,0.8016,165.933,287.7775)" stroke="rgb(238,238,255)">
      <rect width="69.7758" x="-131.86" height="17.9688" y="-26" stroke="none"/>
    </g>
    <g fill="rgb(166,166,178)" stroke-miterlimit="1.45" transform="matrix(0.8016,0,0,0.8016,165.933,287.7775)" stroke-linecap="butt" stroke="rgb(166,166,178)">
      <rect fill="none" width="69.7758" x="-131.86" height="17.9688" y="-26"/>
    </g>
    <g fill="rgb(238,238,255)" transform="matrix(0.8016,0,0,0.8016,165.933,287.7775)" stroke="rgb(238,238,255)">
      <rect width="73.96" x="-131.86" height="39.1641" y="-8.0312" stroke="none"/>
    </g>
    <g fill="rgb(166,166,178)" stroke-miterlimit="1.45" transform="matrix(0.8016,0,0,0.8016,165.933,287.7775)" stroke-linecap="butt" stroke="rgb(166,166,178)">
      <rect fill="none" width="73.96" x="-131.86" height="39.1641" y="-8.0312"/>
    </g>
    <g font-family="sans-serif" transform="matrix(0.8016,0,0,0.8016,165.933,287.7775)">
      <text xml:space="preserve" x="-125.86" y="-12.8613" onclick="umlload('http://docs.oracle.com/javase/6/docs/api/java/net/package-summary.html')" stroke="none">java.net</text>
    </g>
    <g fill="rgb(187,187,255)" transform="matrix(0.8016,0,0,0.8016,165.933,287.7775)" stroke="rgb(187,187,255)">
      <rect x="-123.86" y="0" clip-path="url(#clipPath4)" width="32.96" height="23.1328" stroke="none"/>
    </g>
    <g fill="rgb(130,130,178)" stroke-miterlimit="1.45" transform="matrix(0.8016,0,0,0.8016,165.933,287.7775)" stroke-linecap="butt" stroke="rgb(130,130,178)">
      <rect fill="none" width="32.96" x="-123.86" height="23.1328" y="0"/>
    </g>
    <g font-size="13" font-weight="bold" font-family="sans-serif" transform="matrix(0.8016,0,0,0.8016,165.933,287.7775)">
      <text xml:space="preserve" x="-119.38" y="16.0669" onclick="umlload('http://docs.oracle.com/javase/6/docs/api/java/net/URI.html')" stroke="none">URI</text>
    </g>
    <g fill="rgb(238,238,255)" transform="matrix(0.8016,0,0,0.8016,165.933,287.7775)" stroke="rgb(238,238,255)">
      <rect width="298.9302" x="225.46" height="17.9688" y="-142.7147" stroke="none"/>
    </g>
    <g fill="rgb(166,166,178)" stroke-miterlimit="1.45" transform="matrix(0.8016,0,0,0.8016,165.933,287.7775)" stroke-linecap="butt" stroke="rgb(166,166,178)">
      <rect fill="none" width="298.9302" x="225.46" height="17.9688" y="-142.7147"/>
    </g>
    <g fill="rgb(238,238,255)" transform="matrix(0.8016,0,0,0.8016,165.933,287.7775)" stroke="rgb(238,238,255)">
      <rect width="313.1546" x="225.46" height="48.746" y="-124.746" stroke="none"/>
    </g>
    <g fill="rgb(166,166,178)" stroke-miterlimit="1.45" transform="matrix(0.8016,0,0,0.8016,165.933,287.7775)" stroke-linecap="butt" stroke="rgb(166,166,178)">
      <rect fill="none" width="313.1546" x="225.46" height="48.746" y="-124.746"/>
    </g>
    <g font-family="sans-serif" transform="matrix(0.8016,0,0,0.8016,165.933,287.7775)">
      <text xml:space="preserve" x="231.46" y="-129.5761" onclick="umlload('../../../../../../com/msopentech/odatajclient/engine/data/package-summary.html')" stroke="none">com.msopentech.odatajclient.engine.data</text>
    </g>
    <g fill="rgb(221,221,255)" transform="matrix(0.8016,0,0,0.8016,165.933,287.7775)" stroke="rgb(221,221,255)">
      <rect x="233.46" y="-116.7147" clip-path="url(#clipPath5)" width="297.1546" height="32.7147" stroke="none"/>
    </g>
    <g fill="rgb(154,154,178)" stroke-miterlimit="1.45" transform="matrix(0.8016,0,0,0.8016,165.933,287.7775)" stroke-linecap="butt" stroke="rgb(154,154,178)">
      <ellipse rx="148.5773" fill="none" ry="16.3574" cx="382.0373" cy="-100.3574"/>
    </g>
    <g font-style="italic" font-size="13" font-weight="bold" font-family="sans-serif" transform="matrix(0.8016,0,0,0.8016,165.933,287.7775)">
      <text xml:space="preserve" x="284.0373" y="-95.8569" onclick="umlload('../../../../../../com/msopentech/odatajclient/engine/data/ServiceDocumentResource.html')" stroke="none">ServiceDocumentResource</text>
    </g>
    <g fill="rgb(238,238,255)" transform="matrix(0.8016,0,0,0.8016,165.933,287.7775)" stroke="rgb(238,238,255)">
      <rect width="76.1412" x="121.78" height="17.9688" y="-133.1328" stroke="none"/>
    </g>
    <g fill="rgb(166,166,178)" stroke-miterlimit="1.45" transform="matrix(0.8016,0,0,0.8016,165.933,287.7775)" stroke-linecap="butt" stroke="rgb(166,166,178)">
      <rect fill="none" width="76.1412" x="121.78" height="17.9688" y="-133.1328"/>
    </g>
    <g fill="rgb(238,238,255)" transform="matrix(0.8016,0,0,0.8016,165.933,287.7775)" stroke="rgb(238,238,255)">
      <rect width="76.1412" x="121.78" height="39.1641" y="-115.1641" stroke="none"/>
    </g>
    <g fill="rgb(166,166,178)" stroke-miterlimit="1.45" transform="matrix(0.8016,0,0,0.8016,165.933,287.7775)" stroke-linecap="butt" stroke="rgb(166,166,178)">
      <rect fill="none" width="76.1412" x="121.78" height="39.1641" y="-115.1641"/>
    </g>
    <g font-family="sans-serif" transform="matrix(0.8016,0,0,0.8016,165.933,287.7775)">
      <text xml:space="preserve" x="127.78" y="-119.9941" onclick="umlload('http://docs.oracle.com/javase/6/docs/api/java/lang/package-summary.html')" stroke="none">java.lang</text>
    </g>
    <g fill="rgb(187,187,255)" transform="matrix(0.8016,0,0,0.8016,165.933,287.7775)" stroke="rgb(187,187,255)">
      <rect x="129.78" y="-107.1328" clip-path="url(#clipPath6)" width="57.68" height="23.1328" stroke="none"/>
    </g>
    <g fill="rgb(130,130,178)" stroke-miterlimit="1.45" transform="matrix(0.8016,0,0,0.8016,165.933,287.7775)" stroke-linecap="butt" stroke="rgb(130,130,178)">
      <rect fill="none" width="57.68" x="129.78" height="23.1328" y="-107.1328"/>
    </g>
    <g font-size="13" font-weight="bold" font-family="sans-serif" transform="matrix(0.8016,0,0,0.8016,165.933,287.7775)">
      <text xml:space="preserve" x="134.62" y="-91.0659" onclick="umlload('http://docs.oracle.com/javase/6/docs/api/java/lang/Object.html')" stroke="none">Object</text>
    </g>
    <g fill="rgb(238,238,255)" transform="matrix(0.8016,0,0,0.8016,165.933,287.7775)" stroke="rgb(238,238,255)">
      <rect width="324.3918" x="-8" height="17.9688" y="-26" stroke="none"/>
    </g>
    <g fill="rgb(166,166,178)" stroke-miterlimit="1.45" transform="matrix(0.8016,0,0,0.8016,165.933,287.7775)" stroke-linecap="butt" stroke="rgb(166,166,178)">
      <rect fill="none" width="324.3918" x="-8" height="17.9688" y="-26"/>
    </g>
    <g fill="rgb(238,238,255)" transform="matrix(0.8016,0,0,0.8016,165.933,287.7775)" stroke="rgb(238,238,255)">
      <rect width="333.24" x="-8" height="143.8788" y="-8.0312" stroke="none"/>
    </g>
    <g fill="rgb(166,166,178)" stroke-miterlimit="1.45" transform="matrix(0.8016,0,0,0.8016,165.933,287.7775)" stroke-linecap="butt" stroke="rgb(166,166,178)">
      <rect fill="none" width="333.24" x="-8" height="143.8788" y="-8.0312"/>
    </g>
    <g font-family="sans-serif" transform="matrix(0.8016,0,0,0.8016,165.933,287.7775)">
      <text xml:space="preserve" x="-2" y="-12.8613" onclick="umlload('package-summary.html')" stroke="none">com.msopentech.odatajclient.engine.data.xml</text>
    </g>
    <g fill="rgb(187,187,255)" transform="matrix(0.8016,0,0,0.8016,165.933,287.7775)" stroke="rgb(187,187,255)">
      <rect x="0" y="0" clip-path="url(#clipPath7)" width="317.24" height="26.625" stroke="none"/>
      <line clip-path="url(#clipPath7)" fill="none" x1="0" x2="317.24" y1="26.625" y2="26.625" stroke="black"/>
      <rect x="0" y="27.625" clip-path="url(#clipPath7)" width="317.24" height="15.9688" stroke="none"/>
      <line clip-path="url(#clipPath7)" fill="none" x1="0" x2="317.24" y1="43.5938" y2="43.5938" stroke="black"/>
      <rect x="0" y="44.5938" clip-path="url(#clipPath7)" width="317.24" height="83.2538" stroke="none"/>
    </g>
    <g fill="rgb(130,130,178)" stroke-miterlimit="1.45" transform="matrix(0.8016,0,0,0.8016,165.933,287.7775)" stroke-linecap="butt" stroke="rgb(130,130,178)">
      <rect fill="none" width="317.24" x="0" height="127.8475" y="0"/>
    </g>
    <g font-size="16" font-weight="bold" font-family="sans-serif" transform="matrix(0.8016,0,0,0.8016,165.933,287.7775)">
      <text xml:space="preserve" x="61.62" y="18.8516" onclick="umlload('#')" stroke="none">XMLServiceDocument</text>
    </g>
    <g font-family="sans-serif" transform="matrix(0.8016,0,0,0.8016,165.933,287.7775)">
      <text xml:space="preserve" x="4" y="38.1719" stroke="none">+</text>
      <text xml:space="preserve" x="19" y="39.7637" onclick="umlload('#XMLServiceDocument()')" stroke="none">XMLServiceDocument()</text>
    </g>
    <g font-family="sans-serif" transform="matrix(0.8016,0,0,0.8016,165.933,287.7775)">
      <text xml:space="preserve" x="4" y="55.1719" stroke="none">+</text>
      <text xml:space="preserve" x="19" y="56.7324" onclick="umlload('#addToplevelEntitySet(java.lang.String, java.lang.String)')" stroke="none">addToplevelEntitySet(String, String) : void</text>
    </g>
    <g font-family="sans-serif" transform="matrix(0.8016,0,0,0.8016,165.933,287.7775)">
      <text xml:space="preserve" x="4" y="71.1719" stroke="none">+</text>
      <text xml:space="preserve" x="19" y="72.7012" onclick="umlload('#getBaseURI()')" stroke="none">getBaseURI() : URI</text>
    </g>
    <g font-family="sans-serif" transform="matrix(0.8016,0,0,0.8016,165.933,287.7775)">
      <text xml:space="preserve" x="4" y="87.1719" stroke="none">+</text>
      <text xml:space="preserve" x="19" y="88.6699" onclick="umlload('#getToplevelEntitySets()')" stroke="none">getToplevelEntitySets() : Map&lt;String, String&gt;</text>
    </g>
    <g font-family="sans-serif" transform="matrix(0.8016,0,0,0.8016,165.933,287.7775)">
      <text xml:space="preserve" x="4" y="103.1719" stroke="none">+</text>
      <text xml:space="preserve" x="19" y="104.6387" onclick="umlload('#setBaseURI(java.net.URI)')" stroke="none">setBaseURI(URI) : void</text>
    </g>
    <g font-family="sans-serif" transform="matrix(0.8016,0,0,0.8016,165.933,287.7775)">
      <text xml:space="preserve" x="-201" y="160.1543" onclick="umlload('http://www.yworks.com/')" stroke="none">yWorks UML Doclet</text>
    </g>
    <g stroke-miterlimit="1.45" transform="matrix(0.8016,0,0,0.8016,165.933,287.7775)" stroke-linecap="butt">
      <path fill="none" d="M158.62 -0.0026 L158.62 -69"/>
      <path fill="white" d="M158.62 -84 L152.62 -68 L164.62 -68 Z" stroke="none"/>
      <path fill="none" d="M158.62 -84 L152.62 -68 L164.62 -68 Z"/>
      <path fill="none" stroke-dasharray="6,2" d="M237.93 -0.0014 L237.93 -51 L382.0373 -51 L382.0373 -69"/>
      <path fill="white" stroke-dasharray="6,2" d="M382.0373 -84 L376.0373 -68 L388.0373 -68 Z" stroke="none"/>
      <path fill="none" d="M382.0373 -84 L376.0373 -68 L388.0373 -68 Z"/>
      <path fill="none" d="M0.0006 11.5664 L-90.9 11.5664"/>
      <line stroke-linecap="square" transform="matrix(-1,0,0,-1,-90.9,11.5664)" fill="none" x1="0" x2="-14" y1="0" y2="-4" stroke-miterlimit="10"/>
      <line stroke-linecap="square" transform="matrix(-1,0,0,-1,-90.9,11.5664)" fill="none" x1="0" x2="-14" y1="0" y2="4" stroke-miterlimit="10"/>
    </g>
    <g stroke-miterlimit="1.45" transform="matrix(0.8016,0,0,0.8016,165.933,287.7775)" stroke-linecap="butt">
      <path fill="none" d="M-0.0027 103.4902 L-66 103.4902"/>
      <line stroke-linecap="square" transform="matrix(-1,0,0,-1,-66,103.4902)" fill="none" x1="0" x2="-14" y1="0" y2="-4" stroke-miterlimit="10"/>
      <line stroke-linecap="square" transform="matrix(-1,0,0,-1,-66,103.4902)" fill="none" x1="0" x2="-14" y1="0" y2="4" stroke-miterlimit="10"/>
    </g>
    <g stroke-dasharray="6,2" stroke-miterlimit="1.45" transform="matrix(0.8016,0,0,0.8016,165.933,287.7775)" stroke-linecap="butt">
      <path fill="none" d="M317.2487 11.5664 L383.24 11.5664"/>
      <line stroke-linecap="square" transform="matrix(1,0,0,1,383.24,11.5664)" fill="none" x1="0" x2="-14" y1="0" y2="-4" stroke-dasharray="none" stroke-miterlimit="10"/>
      <line stroke-linecap="square" transform="matrix(1,0,0,1,383.24,11.5664)" fill="none" x1="0" x2="-14" y1="0" y2="4" stroke-dasharray="none" stroke-miterlimit="10"/>
    </g>
  </g>
</svg>
