<?xml version="1.0" encoding="UTF-8"?><svg xmlns="http://www.w3.org/2000/svg" xmlns:xlink="http://www.w3.org/1999/xlink" fill-opacity="1" color-rendering="auto" color-interpolation="auto" stroke="black" text-rendering="auto" stroke-linecap="square" width="596" stroke-miterlimit="10" stroke-opacity="1" shape-rendering="auto" fill="black" stroke-dasharray="none" font-weight="normal" stroke-width="1" height="347" font-family="'Dialog'" font-style="normal" stroke-linejoin="miter" font-size="12" stroke-dashoffset="0" image-rendering="auto">
  <!--Generated by ySVG-->
  <defs id="genericDefs"/>
  <g>
    <defs id="defs1">
      <clipPath clipPathUnits="userSpaceOnUse" id="clipPath1">
        <path d="M0 0 L596 0 L596 347 L0 347 L0 0 Z"/>
      </clipPath>
      <clipPath clipPathUnits="userSpaceOnUse" id="clipPath2">
        <path d="M579.947 136.623 C579.947 145.6569 543.7521 152.9804 499.1035 152.9804 C454.4549 152.9804 418.26 145.6569 418.26 136.623 C418.26 127.5891 454.4549 120.2656 499.1035 120.2656 C543.7521 120.2656 579.947 127.5891 579.947 136.623 Z"/>
      </clipPath>
      <clipPath clipPathUnits="userSpaceOnUse" id="clipPath3">
        <path d="M418.26 0 L475.94 0 L475.94 23.1328 L418.26 23.1328 L418.26 0 Z"/>
      </clipPath>
      <clipPath clipPathUnits="userSpaceOnUse" id="clipPath4">
        <path d="M418.26 33.1328 L471.82 33.1328 L471.82 56.2656 L418.26 56.2656 L418.26 33.1328 Z"/>
      </clipPath>
      <clipPath clipPathUnits="userSpaceOnUse" id="clipPath5">
        <path d="M243.1354 -100.3574 C243.1354 -91.3234 213.1361 -84 176.13 -84 C139.1239 -84 109.1246 -91.3234 109.1246 -100.3574 C109.1246 -109.3913 139.1239 -116.7147 176.13 -116.7147 C213.1361 -116.7147 243.1354 -109.3913 243.1354 -100.3574 Z"/>
      </clipPath>
      <clipPath clipPathUnits="userSpaceOnUse" id="clipPath6">
        <path d="M0 0 L352.26 0 L352.26 160.9804 L0 160.9804 L0 0 Z"/>
      </clipPath>
      <script type="text/ecmascript"><![CDATA[
function umlload(newLocation)
{
if (newLocation.charAt(0) != '#') {
if (newLocation.indexOf("://") > -1) {
window.parent.location.href = newLocation;
} else {
var tmp = window.parent.location.href;
tmp = tmp.substring(0, tmp.lastIndexOf("/") + 1);
window.parent.location.href = tmp.concat(newLocation);
}
} else {
window.parent.location.hash = newLocation;
}
}
]]></script>
    </defs>
    <g fill="rgb(238,238,255)" transform="matrix(1,0,0,1,8,143)" stroke="rgb(238,238,255)">
      <rect width="67.654" x="410.26" height="17.9688" y="94.2656" stroke="none"/>
    </g>
    <g fill="rgb(166,166,178)" stroke-miterlimit="1.45" transform="matrix(1,0,0,1,8,143)" stroke-linecap="butt" stroke="rgb(166,166,178)">
      <rect fill="none" width="67.654" x="410.26" height="17.9688" y="94.2656"/>
    </g>
    <g fill="rgb(238,238,255)" transform="matrix(1,0,0,1,8,143)" stroke="rgb(238,238,255)">
      <rect width="177.687" x="410.26" height="48.746" y="112.2344" stroke="none"/>
    </g>
    <g fill="rgb(166,166,178)" stroke-miterlimit="1.45" transform="matrix(1,0,0,1,8,143)" stroke-linecap="butt" stroke="rgb(166,166,178)">
      <rect fill="none" width="177.687" x="410.26" height="48.746" y="112.2344"/>
    </g>
    <g font-family="sans-serif" transform="matrix(1,0,0,1,8,143)">
      <text xml:space="preserve" x="416.26" y="107.4043" onclick="umlload('http://docs.oracle.com/javase/6/docs/api/java/util/package-summary.html')" stroke="none">java.util</text>
    </g>
    <g fill="rgb(221,221,255)" transform="matrix(1,0,0,1,8,143)" stroke="rgb(221,221,255)">
      <rect x="418.26" y="120.2656" clip-path="url(#clipPath2)" width="161.687" height="32.7147" stroke="none"/>
    </g>
    <g fill="rgb(154,154,178)" stroke-miterlimit="1.45" transform="matrix(1,0,0,1,8,143)" stroke-linecap="butt" stroke="rgb(154,154,178)">
      <ellipse rx="80.8435" fill="none" ry="16.3574" cx="499.1035" cy="136.623"/>
    </g>
    <g font-style="italic" font-size="13" font-weight="bold" font-family="sans-serif" transform="matrix(1,0,0,1,8,143)">
      <text xml:space="preserve" x="447.6035" y="141.1235" onclick="umlload('http://docs.oracle.com/javase/6/docs/api/java/util/Collection.html')" stroke="none">Collection&lt;E&gt;</text>
    </g>
    <g fill="rgb(238,238,255)" transform="matrix(1,0,0,1,8,143)" stroke="rgb(238,238,255)">
      <rect width="76.1412" x="410.26" height="17.9688" y="-26" stroke="none"/>
    </g>
    <g fill="rgb(166,166,178)" stroke-miterlimit="1.45" transform="matrix(1,0,0,1,8,143)" stroke-linecap="butt" stroke="rgb(166,166,178)">
      <rect fill="none" width="76.1412" x="410.26" height="17.9688" y="-26"/>
    </g>
    <g fill="rgb(238,238,255)" transform="matrix(1,0,0,1,8,143)" stroke="rgb(238,238,255)">
      <rect width="79.68" x="410.26" height="72.2969" y="-8.0312" stroke="none"/>
    </g>
    <g fill="rgb(166,166,178)" stroke-miterlimit="1.45" transform="matrix(1,0,0,1,8,143)" stroke-linecap="butt" stroke="rgb(166,166,178)">
      <rect fill="none" width="79.68" x="410.26" height="72.2969" y="-8.0312"/>
    </g>
    <g font-family="sans-serif" transform="matrix(1,0,0,1,8,143)">
      <text xml:space="preserve" x="416.26" y="-12.8613" onclick="umlload('http://docs.oracle.com/javase/6/docs/api/java/lang/package-summary.html')" stroke="none">java.lang</text>
    </g>
    <g fill="rgb(187,187,255)" transform="matrix(1,0,0,1,8,143)" stroke="rgb(187,187,255)">
      <rect x="418.26" y="0" clip-path="url(#clipPath3)" width="57.68" height="23.1328" stroke="none"/>
    </g>
    <g fill="rgb(130,130,178)" stroke-miterlimit="1.45" transform="matrix(1,0,0,1,8,143)" stroke-linecap="butt" stroke="rgb(130,130,178)">
      <rect fill="none" width="57.68" x="418.26" height="23.1328" y="0"/>
    </g>
    <g font-size="13" font-weight="bold" font-family="sans-serif" transform="matrix(1,0,0,1,8,143)">
      <text xml:space="preserve" x="423.1" y="16.0669" onclick="umlload('http://docs.oracle.com/javase/6/docs/api/java/lang/Object.html')" stroke="none">Object</text>
    </g>
    <g fill="rgb(187,187,255)" transform="matrix(1,0,0,1,8,143)" stroke="rgb(187,187,255)">
      <rect x="418.26" y="33.1328" clip-path="url(#clipPath4)" width="53.56" height="23.1328" stroke="none"/>
    </g>
    <g fill="rgb(130,130,178)" stroke-miterlimit="1.45" transform="matrix(1,0,0,1,8,143)" stroke-linecap="butt" stroke="rgb(130,130,178)">
      <rect fill="none" width="53.56" x="418.26" height="23.1328" y="33.1328"/>
    </g>
    <g font-size="13" font-weight="bold" font-family="sans-serif" transform="matrix(1,0,0,1,8,143)">
      <text xml:space="preserve" x="423.04" y="49.1997" onclick="umlload('http://docs.oracle.com/javase/6/docs/api/java/lang/String.html')" stroke="none">String</text>
    </g>
    <g fill="rgb(238,238,255)" transform="matrix(1,0,0,1,8,143)" stroke="rgb(238,238,255)">
      <rect width="59.1668" x="101.1246" height="17.9688" y="-142.7147" stroke="none"/>
    </g>
    <g fill="rgb(166,166,178)" stroke-miterlimit="1.45" transform="matrix(1,0,0,1,8,143)" stroke-linecap="butt" stroke="rgb(166,166,178)">
      <rect fill="none" width="59.1668" x="101.1246" height="17.9688" y="-142.7147"/>
    </g>
    <g fill="rgb(238,238,255)" transform="matrix(1,0,0,1,8,143)" stroke="rgb(238,238,255)">
      <rect width="150.0109" x="101.1246" height="48.746" y="-124.746" stroke="none"/>
    </g>
    <g fill="rgb(166,166,178)" stroke-miterlimit="1.45" transform="matrix(1,0,0,1,8,143)" stroke-linecap="butt" stroke="rgb(166,166,178)">
      <rect fill="none" width="150.0109" x="101.1246" height="48.746" y="-124.746"/>
    </g>
    <g font-family="sans-serif" transform="matrix(1,0,0,1,8,143)">
      <text xml:space="preserve" x="107.1246" y="-129.5761" onclick="umlload('http://docs.oracle.com/javase/6/docs/api/java/io/package-summary.html')" stroke="none">java.io</text>
    </g>
    <g fill="rgb(221,221,255)" transform="matrix(1,0,0,1,8,143)" stroke="rgb(221,221,255)">
      <rect x="109.1246" y="-116.7147" clip-path="url(#clipPath5)" width="134.0109" height="32.7147" stroke="none"/>
    </g>
    <g fill="rgb(154,154,178)" stroke-miterlimit="1.45" transform="matrix(1,0,0,1,8,143)" stroke-linecap="butt" stroke="rgb(154,154,178)">
      <ellipse rx="67.0054" fill="none" ry="16.3574" cx="176.13" cy="-100.3574"/>
    </g>
    <g font-style="italic" font-size="13" font-weight="bold" font-family="sans-serif" transform="matrix(1,0,0,1,8,143)">
      <text xml:space="preserve" x="134.13" y="-95.8569" onclick="umlload('http://docs.oracle.com/javase/6/docs/api/java/io/Serializable.html')" stroke="none">Serializable</text>
    </g>
    <g fill="rgb(238,238,255)" transform="matrix(1,0,0,1,8,143)" stroke="rgb(238,238,255)">
      <rect width="277.7122" x="-8" height="17.9688" y="-26" stroke="none"/>
    </g>
    <g fill="rgb(166,166,178)" stroke-miterlimit="1.45" transform="matrix(1,0,0,1,8,143)" stroke-linecap="butt" stroke="rgb(166,166,178)">
      <rect fill="none" width="277.7122" x="-8" height="17.9688" y="-26"/>
    </g>
    <g fill="rgb(238,238,255)" transform="matrix(1,0,0,1,8,143)" stroke="rgb(238,238,255)">
      <rect width="368.26" x="-8" height="177.0116" y="-8.0312" stroke="none"/>
    </g>
    <g fill="rgb(166,166,178)" stroke-miterlimit="1.45" transform="matrix(1,0,0,1,8,143)" stroke-linecap="butt" stroke="rgb(166,166,178)">
      <rect fill="none" width="368.26" x="-8" height="177.0116" y="-8.0312"/>
    </g>
    <g font-family="sans-serif" transform="matrix(1,0,0,1,8,143)">
      <text xml:space="preserve" x="-2" y="-12.8613" onclick="umlload('package-summary.html')" stroke="none">com.msopentech.odatajclient.proxy.api</text>
    </g>
    <g fill="rgb(221,221,255)" transform="matrix(1,0,0,1,8,143)" stroke="rgb(221,221,255)">
      <rect x="0" y="0" clip-path="url(#clipPath6)" width="352.26" height="38.5938" stroke="none"/>
      <line clip-path="url(#clipPath6)" fill="none" x1="0" x2="352.26" y1="38.5938" y2="38.5938" stroke="black"/>
      <line clip-path="url(#clipPath6)" x1="0" x2="352.26" y1="39.5938" y2="39.5938" stroke="none"/>
      <line clip-path="url(#clipPath6)" fill="none" x1="0" x2="352.26" y1="39.5938" y2="39.5938" stroke="black"/>
      <rect x="0" y="40.5938" clip-path="url(#clipPath6)" width="352.26" height="120.3866" stroke="none"/>
    </g>
    <g fill="rgb(154,154,178)" stroke-miterlimit="1.45" transform="matrix(1,0,0,1,8,143)" stroke-linecap="butt" stroke="rgb(154,154,178)">
      <rect fill="none" width="352.26" x="0" height="160.9804" y="0"/>
    </g>
    <g font-style="italic" font-size="16" font-weight="bold" font-family="sans-serif" transform="matrix(1,0,0,1,8,143)">
      <text xml:space="preserve" x="92.63" y="32.8203" onclick="umlload('#')" stroke="none">AbstractOpenType</text>
    </g>
    <g font-family="sans-serif" transform="matrix(1,0,0,1,8,143)">
      <text xml:space="preserve" x="141.13" y="13.1387" stroke="none">«interface»</text>
    </g>
    <g font-family="sans-serif" transform="matrix(1,0,0,1,8,143)">
      <text xml:space="preserve" x="4" y="51.1719" stroke="none">+</text>
      <text xml:space="preserve" x="19" y="52.7324" onclick="umlload('#addAdditionalProperty(java.lang.String, java.lang.Object)')" stroke="none">addAdditionalProperty(String, Object) : void</text>
    </g>
    <g font-family="sans-serif" transform="matrix(1,0,0,1,8,143)">
      <text xml:space="preserve" x="4" y="67.1719" stroke="none">+</text>
      <text xml:space="preserve" x="19" y="68.7012" onclick="umlload('#getAdditionalProperty(java.lang.String)')" stroke="none">getAdditionalProperty(String) : Object</text>
    </g>
    <g font-family="sans-serif" transform="matrix(1,0,0,1,8,143)">
      <text xml:space="preserve" x="4" y="83.1719" stroke="none">+</text>
      <text xml:space="preserve" x="19" y="84.6699" onclick="umlload('#getAdditionalPropertyNames()')" stroke="none">getAdditionalPropertyNames() : Collection&lt;String&gt;</text>
    </g>
    <g font-family="sans-serif" transform="matrix(1,0,0,1,8,143)">
      <text xml:space="preserve" x="-2" y="193.1543" onclick="umlload('http://www.yworks.com/')" stroke="none">yWorks UML Doclet</text>
    </g>
    <g stroke-miterlimit="1.45" transform="matrix(1,0,0,1,8,143)" stroke-linecap="butt">
      <path fill="none" d="M176.13 0.0134 L176.13 -69"/>
      <path fill="white" d="M176.13 -84 L170.13 -68 L182.13 -68 Z" stroke="none"/>
      <path fill="none" d="M176.13 -84 L170.13 -68 L182.13 -68 Z"/>
      <path fill="none" stroke-dasharray="6,2" d="M352.2671 11.5664 L418.26 11.5664"/>
      <line stroke-linecap="square" transform="matrix(1,0,0,1,418.26,11.5664)" fill="none" x1="0" x2="-14" y1="0" y2="-4" stroke-miterlimit="10"/>
      <line stroke-linecap="square" transform="matrix(1,0,0,1,418.26,11.5664)" fill="none" x1="0" x2="-14" y1="0" y2="4" stroke-miterlimit="10"/>
    </g>
    <g stroke-dasharray="6,2" stroke-miterlimit="1.45" transform="matrix(1,0,0,1,8,143)" stroke-linecap="butt">
      <path fill="none" d="M352.2411 44.6992 L418.26 44.6992"/>
      <line stroke-linecap="square" transform="matrix(1,0,0,1,418.26,44.6992)" fill="none" x1="0" x2="-14" y1="0" y2="-4" stroke-dasharray="none" stroke-miterlimit="10"/>
      <line stroke-linecap="square" transform="matrix(1,0,0,1,418.26,44.6992)" fill="none" x1="0" x2="-14" y1="0" y2="4" stroke-dasharray="none" stroke-miterlimit="10"/>
    </g>
    <g stroke-dasharray="6,2" stroke-miterlimit="1.45" transform="matrix(1,0,0,1,8,143)" stroke-linecap="butt">
      <path fill="none" d="M352.2436 136.623 L418.26 136.623"/>
      <line stroke-linecap="square" transform="matrix(1,0,0,1,418.26,136.623)" fill="none" x1="0" x2="-14" y1="0" y2="-4" stroke-dasharray="none" stroke-miterlimit="10"/>
      <line stroke-linecap="square" transform="matrix(1,0,0,1,418.26,136.623)" fill="none" x1="0" x2="-14" y1="0" y2="4" stroke-dasharray="none" stroke-miterlimit="10"/>
    </g>
  </g>
</svg>
