<?xml version="1.0" encoding="UTF-8"?><svg xmlns="http://www.w3.org/2000/svg" xmlns:xlink="http://www.w3.org/1999/xlink" fill-opacity="1" color-rendering="auto" color-interpolation="auto" stroke="black" text-rendering="auto" stroke-linecap="square" width="598" stroke-miterlimit="10" stroke-opacity="1" shape-rendering="auto" fill="black" stroke-dasharray="none" font-weight="normal" stroke-width="1" height="598" font-family="'Dialog'" font-style="normal" stroke-linejoin="miter" font-size="12" stroke-dashoffset="0" image-rendering="auto">
  <!--Generated by ySVG-->
  <defs id="genericDefs"/>
  <g>
    <defs id="defs1">
      <clipPath clipPathUnits="userSpaceOnUse" id="clipPath1">
        <path d="M0 0 L598 0 L598 598 L0 598 L0 0 Z"/>
      </clipPath>
      <clipPath clipPathUnits="userSpaceOnUse" id="clipPath2">
        <path d="M727.3367 -100.3574 C727.3367 -91.3234 641.5777 -84 535.7886 -84 C429.9995 -84 344.2404 -91.3234 344.2404 -100.3574 C344.2404 -109.3913 429.9995 -116.7147 535.7886 -116.7147 C641.5777 -116.7147 727.3367 -109.3913 727.3367 -100.3574 Z"/>
      </clipPath>
      <clipPath clipPathUnits="userSpaceOnUse" id="clipPath3">
        <path d="M298.2404 -100.3574 C298.2404 -91.3234 268.2411 -84 231.235 -84 C194.2289 -84 164.2296 -91.3234 164.2296 -100.3574 C164.2296 -109.3913 194.2289 -116.7147 231.235 -116.7147 C268.2411 -116.7147 298.2404 -109.3913 298.2404 -100.3574 Z"/>
      </clipPath>
      <clipPath clipPathUnits="userSpaceOnUse" id="clipPath4">
        <path d="M0 0 L462.47 0 L462.47 38.5938 L0 38.5938 L0 0 Z"/>
      </clipPath>
      <script type="text/ecmascript"><![CDATA[
function umlload(newLocation)
{
if (newLocation.charAt(0) != '#') {
if (newLocation.indexOf("://") > -1) {
window.parent.location.href = newLocation;
} else {
var tmp = window.parent.location.href;
tmp = tmp.substring(0, tmp.lastIndexOf("/") + 1);
window.parent.location.href = tmp.concat(newLocation);
}
} else {
window.parent.location.hash = newLocation;
}
}
]]></script>
    </defs>
    <g fill="rgb(238,238,255)" transform="matrix(0.8038,0,0,0.8038,6.4301,323.1129)" stroke="rgb(238,238,255)">
      <rect width="67.654" x="336.2404" height="17.9688" y="-142.7147" stroke="none"/>
    </g>
    <g fill="rgb(166,166,178)" stroke-miterlimit="1.45" transform="matrix(0.8038,0,0,0.8038,6.4301,323.1129)" stroke-linecap="butt" stroke="rgb(166,166,178)">
      <rect fill="none" width="67.654" x="336.2404" height="17.9688" y="-142.7147"/>
    </g>
    <g fill="rgb(238,238,255)" transform="matrix(0.8038,0,0,0.8038,6.4301,323.1129)" stroke="rgb(238,238,255)">
      <rect width="399.0963" x="336.2404" height="48.746" y="-124.746" stroke="none"/>
    </g>
    <g fill="rgb(166,166,178)" stroke-miterlimit="1.45" transform="matrix(0.8038,0,0,0.8038,6.4301,323.1129)" stroke-linecap="butt" stroke="rgb(166,166,178)">
      <rect fill="none" width="399.0963" x="336.2404" height="48.746" y="-124.746"/>
    </g>
    <g font-family="sans-serif" transform="matrix(0.8038,0,0,0.8038,6.4301,323.1129)">
      <text xml:space="preserve" x="342.2404" y="-129.5761" onclick="umlload('http://docs.oracle.com/javase/6/docs/api/java/util/package-summary.html')" stroke="none">java.util</text>
    </g>
    <g fill="rgb(221,221,255)" transform="matrix(0.8038,0,0,0.8038,6.4301,323.1129)" stroke="rgb(221,221,255)">
      <rect x="344.2404" y="-116.7147" clip-path="url(#clipPath2)" width="383.0963" height="32.7147" stroke="none"/>
    </g>
    <g fill="rgb(154,154,178)" stroke-miterlimit="1.45" transform="matrix(0.8038,0,0,0.8038,6.4301,323.1129)" stroke-linecap="butt" stroke="rgb(154,154,178)">
      <ellipse rx="191.5482" fill="none" ry="16.3574" cx="535.7886" cy="-100.3574"/>
    </g>
    <g font-style="italic" font-size="13" font-weight="bold" font-family="sans-serif" transform="matrix(0.8038,0,0,0.8038,6.4301,323.1129)">
      <text xml:space="preserve" x="408.2886" y="-95.8569" onclick="umlload('http://docs.oracle.com/javase/6/docs/api/java/util/Collection.html')" stroke="none">Collection&lt;T extends Serializable&gt;</text>
    </g>
    <g fill="rgb(238,238,255)" transform="matrix(0.8038,0,0,0.8038,6.4301,323.1129)" stroke="rgb(238,238,255)">
      <rect width="59.1668" x="156.2296" height="17.9688" y="-142.7147" stroke="none"/>
    </g>
    <g fill="rgb(166,166,178)" stroke-miterlimit="1.45" transform="matrix(0.8038,0,0,0.8038,6.4301,323.1129)" stroke-linecap="butt" stroke="rgb(166,166,178)">
      <rect fill="none" width="59.1668" x="156.2296" height="17.9688" y="-142.7147"/>
    </g>
    <g fill="rgb(238,238,255)" transform="matrix(0.8038,0,0,0.8038,6.4301,323.1129)" stroke="rgb(238,238,255)">
      <rect width="150.0109" x="156.2296" height="48.746" y="-124.746" stroke="none"/>
    </g>
    <g fill="rgb(166,166,178)" stroke-miterlimit="1.45" transform="matrix(0.8038,0,0,0.8038,6.4301,323.1129)" stroke-linecap="butt" stroke="rgb(166,166,178)">
      <rect fill="none" width="150.0109" x="156.2296" height="48.746" y="-124.746"/>
    </g>
    <g font-family="sans-serif" transform="matrix(0.8038,0,0,0.8038,6.4301,323.1129)">
      <text xml:space="preserve" x="162.2296" y="-129.5761" onclick="umlload('http://docs.oracle.com/javase/6/docs/api/java/io/package-summary.html')" stroke="none">java.io</text>
    </g>
    <g fill="rgb(221,221,255)" transform="matrix(0.8038,0,0,0.8038,6.4301,323.1129)" stroke="rgb(221,221,255)">
      <rect x="164.2296" y="-116.7147" clip-path="url(#clipPath3)" width="134.0109" height="32.7147" stroke="none"/>
    </g>
    <g fill="rgb(154,154,178)" stroke-miterlimit="1.45" transform="matrix(0.8038,0,0,0.8038,6.4301,323.1129)" stroke-linecap="butt" stroke="rgb(154,154,178)">
      <ellipse rx="67.0054" fill="none" ry="16.3574" cx="231.235" cy="-100.3574"/>
    </g>
    <g font-style="italic" font-size="13" font-weight="bold" font-family="sans-serif" transform="matrix(0.8038,0,0,0.8038,6.4301,323.1129)">
      <text xml:space="preserve" x="189.235" y="-95.8569" onclick="umlload('http://docs.oracle.com/javase/6/docs/api/java/io/Serializable.html')" stroke="none">Serializable</text>
    </g>
    <g fill="rgb(238,238,255)" transform="matrix(0.8038,0,0,0.8038,6.4301,323.1129)" stroke="rgb(238,238,255)">
      <rect width="277.7122" x="-8" height="17.9688" y="-26" stroke="none"/>
    </g>
    <g fill="rgb(166,166,178)" stroke-miterlimit="1.45" transform="matrix(0.8038,0,0,0.8038,6.4301,323.1129)" stroke-linecap="butt" stroke="rgb(166,166,178)">
      <rect fill="none" width="277.7122" x="-8" height="17.9688" y="-26"/>
    </g>
    <g fill="rgb(238,238,255)" transform="matrix(0.8038,0,0,0.8038,6.4301,323.1129)" stroke="rgb(238,238,255)">
      <rect width="478.47" x="-8" height="54.625" y="-8.0312" stroke="none"/>
    </g>
    <g fill="rgb(166,166,178)" stroke-miterlimit="1.45" transform="matrix(0.8038,0,0,0.8038,6.4301,323.1129)" stroke-linecap="butt" stroke="rgb(166,166,178)">
      <rect fill="none" width="478.47" x="-8" height="54.625" y="-8.0312"/>
    </g>
    <g font-family="sans-serif" transform="matrix(0.8038,0,0,0.8038,6.4301,323.1129)">
      <text xml:space="preserve" x="-2" y="-12.8613" onclick="umlload('package-summary.html')" stroke="none">com.msopentech.odatajclient.proxy.api</text>
    </g>
    <g fill="rgb(221,221,255)" transform="matrix(0.8038,0,0,0.8038,6.4301,323.1129)" stroke="rgb(221,221,255)">
      <rect x="0" y="0" clip-path="url(#clipPath4)" width="462.47" height="38.5938" stroke="none"/>
    </g>
    <g fill="rgb(154,154,178)" stroke-miterlimit="1.45" transform="matrix(0.8038,0,0,0.8038,6.4301,323.1129)" stroke-linecap="butt" stroke="rgb(154,154,178)">
      <rect fill="none" width="462.47" x="0" height="38.5938" y="0"/>
    </g>
    <g font-style="italic" font-size="16" font-weight="bold" font-family="sans-serif" transform="matrix(0.8038,0,0,0.8038,6.4301,323.1129)">
      <text xml:space="preserve" x="10.735" y="32.8203" onclick="umlload('#')" stroke="none">AbstractEntityCollection&lt;T extends Serializable&gt;</text>
    </g>
    <g font-family="sans-serif" transform="matrix(0.8038,0,0,0.8038,6.4301,323.1129)">
      <text xml:space="preserve" x="196.235" y="13.1387" stroke="none">«interface»</text>
    </g>
    <g font-family="sans-serif" transform="matrix(0.8038,0,0,0.8038,6.4301,323.1129)">
      <text xml:space="preserve" x="-2" y="71.1543" onclick="umlload('http://www.yworks.com/')" stroke="none">yWorks UML Doclet</text>
    </g>
    <g stroke-miterlimit="1.45" transform="matrix(0.8038,0,0,0.8038,6.4301,323.1129)" stroke-linecap="butt">
      <path fill="none" d="M231.235 0 L231.235 -69"/>
      <path fill="white" d="M231.235 -84 L225.235 -68 L237.235 -68 Z" stroke="none"/>
      <path fill="none" d="M231.235 -84 L225.235 -68 L237.235 -68 Z"/>
      <path fill="none" d="M231.235 0 L231.235 -51 L535.7886 -51 L535.7886 -69"/>
      <path fill="white" d="M535.7886 -84 L529.7886 -68 L541.7886 -68 Z" stroke="none"/>
      <path fill="none" d="M535.7886 -84 L529.7886 -68 L541.7886 -68 Z"/>
    </g>
  </g>
</svg>
