<?xml version="1.0" encoding="UTF-8"?><svg xmlns="http://www.w3.org/2000/svg" xmlns:xlink="http://www.w3.org/1999/xlink" fill-opacity="1" color-rendering="auto" color-interpolation="auto" stroke="black" text-rendering="auto" stroke-linecap="square" width="598" stroke-miterlimit="10" stroke-opacity="1" shape-rendering="auto" fill="black" stroke-dasharray="none" font-weight="normal" stroke-width="1" height="598" font-family="'Dialog'" font-style="normal" stroke-linejoin="miter" font-size="12" stroke-dashoffset="0" image-rendering="auto">
  <!--Generated by ySVG-->
  <defs id="genericDefs"/>
  <g>
    <defs id="defs1">
      <clipPath clipPathUnits="userSpaceOnUse" id="clipPath1">
        <path d="M0 0 L598 0 L598 598 L0 598 L0 0 Z"/>
      </clipPath>
      <clipPath clipPathUnits="userSpaceOnUse" id="clipPath2">
        <path d="M1516.24 96.7147 L1585.25 96.7147 L1585.25 119.8475 L1516.24 119.8475 L1516.24 96.7147 Z"/>
      </clipPath>
      <clipPath clipPathUnits="userSpaceOnUse" id="clipPath3">
        <path d="M1516.24 129.8475 L1595.55 129.8475 L1595.55 152.9804 L1516.24 152.9804 L1516.24 129.8475 Z"/>
      </clipPath>
      <clipPath clipPathUnits="userSpaceOnUse" id="clipPath4">
        <path d="M1656.0774 179.3377 C1656.0774 188.3717 1624.7738 195.6951 1586.1587 195.6951 C1547.5437 195.6951 1516.24 188.3717 1516.24 179.3377 C1516.24 170.3038 1547.5437 162.9804 1586.1587 162.9804 C1624.7738 162.9804 1656.0774 170.3038 1656.0774 179.3377 Z"/>
      </clipPath>
      <clipPath clipPathUnits="userSpaceOnUse" id="clipPath5">
        <path d="M1516.24 205.6951 L1561.5601 205.6951 L1561.5601 228.8279 L1516.24 228.8279 L1516.24 205.6951 Z"/>
      </clipPath>
      <clipPath clipPathUnits="userSpaceOnUse" id="clipPath6">
        <path d="M2299.9124 16.3574 C2299.9124 25.3913 2124.4812 32.7147 1908.0762 32.7147 C1691.671 32.7147 1516.24 25.3913 1516.24 16.3574 C1516.24 7.3234 1691.671 0 1908.0762 0 C2124.4812 0 2299.9124 7.3234 2299.9124 16.3574 Z"/>
      </clipPath>
      <clipPath clipPathUnits="userSpaceOnUse" id="clipPath7">
        <path d="M1199.3722 -100.3574 C1199.3722 -91.3234 1118.5043 -84 1018.7488 -84 C918.9933 -84 838.1254 -91.3234 838.1254 -100.3574 C838.1254 -109.3913 918.9933 -116.7147 1018.7488 -116.7147 C1118.5043 -116.7147 1199.3722 -109.3913 1199.3722 -100.3574 Z"/>
      </clipPath>
      <clipPath clipPathUnits="userSpaceOnUse" id="clipPath8">
        <path d="M792.1254 -100.3574 C792.1254 -91.3234 762.1261 -84 725.12 -84 C688.1139 -84 658.1146 -91.3234 658.1146 -100.3574 C658.1146 -109.3913 688.1139 -116.7147 725.12 -116.7147 C762.1261 -116.7147 792.1254 -109.3913 792.1254 -100.3574 Z"/>
      </clipPath>
      <clipPath clipPathUnits="userSpaceOnUse" id="clipPath9">
        <path d="M0 0 L1450.24 0 L1450.24 236.8279 L0 236.8279 L0 0 Z"/>
      </clipPath>
      <script type="text/ecmascript"><![CDATA[
function umlload(newLocation)
{
if (newLocation.charAt(0) != '#') {
if (newLocation.indexOf("://") > -1) {
window.parent.location.href = newLocation;
} else {
var tmp = window.parent.location.href;
tmp = tmp.substring(0, tmp.lastIndexOf("/") + 1);
window.parent.location.href = tmp.concat(newLocation);
}
} else {
window.parent.location.hash = newLocation;
}
}
]]></script>
    </defs>
    <g fill="rgb(238,238,255)" transform="matrix(0.2582,0,0,0.2582,2.0656,281.1839)" stroke="rgb(238,238,255)">
      <rect width="76.1412" x="1508.24" height="17.9688" y="70.7147" stroke="none"/>
    </g>
    <g fill="rgb(166,166,178)" stroke-miterlimit="1.45" transform="matrix(0.2582,0,0,0.2582,2.0656,281.1839)" stroke-linecap="butt" stroke="rgb(166,166,178)">
      <rect fill="none" width="76.1412" x="1508.24" height="17.9688" y="70.7147"/>
    </g>
    <g fill="rgb(238,238,255)" transform="matrix(0.2582,0,0,0.2582,2.0656,281.1839)" stroke="rgb(238,238,255)">
      <rect width="155.8374" x="1508.24" height="148.1444" y="88.6835" stroke="none"/>
    </g>
    <g fill="rgb(166,166,178)" stroke-miterlimit="1.45" transform="matrix(0.2582,0,0,0.2582,2.0656,281.1839)" stroke-linecap="butt" stroke="rgb(166,166,178)">
      <rect fill="none" width="155.8374" x="1508.24" height="148.1444" y="88.6835"/>
    </g>
    <g font-family="sans-serif" transform="matrix(0.2582,0,0,0.2582,2.0656,281.1839)">
      <text xml:space="preserve" x="1514.24" y="83.8534" onclick="umlload('http://docs.oracle.com/javase/6/docs/api/java/lang/package-summary.html')" stroke="none">java.lang</text>
    </g>
    <g fill="rgb(187,187,255)" transform="matrix(0.2582,0,0,0.2582,2.0656,281.1839)" stroke="rgb(187,187,255)">
      <rect x="1516.24" y="96.7147" clip-path="url(#clipPath2)" width="69.01" height="23.1328" stroke="none"/>
    </g>
    <g fill="rgb(130,130,178)" stroke-miterlimit="1.45" transform="matrix(0.2582,0,0,0.2582,2.0656,281.1839)" stroke-linecap="butt" stroke="rgb(130,130,178)">
      <rect fill="none" width="69.01" x="1516.24" height="23.1328" y="96.7147"/>
    </g>
    <g font-size="13" font-weight="bold" font-family="sans-serif" transform="matrix(0.2582,0,0,0.2582,2.0656,281.1839)">
      <text xml:space="preserve" x="1521.245" y="112.7816" onclick="umlload('http://docs.oracle.com/javase/6/docs/api/java/lang/Boolean.html')" stroke="none">Boolean</text>
    </g>
    <g fill="rgb(187,187,255)" transform="matrix(0.2582,0,0,0.2582,2.0656,281.1839)" stroke="rgb(187,187,255)">
      <rect x="1516.24" y="129.8475" clip-path="url(#clipPath3)" width="79.31" height="23.1328" stroke="none"/>
    </g>
    <g fill="rgb(130,130,178)" stroke-miterlimit="1.45" transform="matrix(0.2582,0,0,0.2582,2.0656,281.1839)" stroke-linecap="butt" stroke="rgb(130,130,178)">
      <rect fill="none" width="79.31" x="1516.24" height="23.1328" y="129.8475"/>
    </g>
    <g font-size="13" font-weight="bold" font-family="sans-serif" transform="matrix(0.2582,0,0,0.2582,2.0656,281.1839)">
      <text xml:space="preserve" x="1521.395" y="145.9144" onclick="umlload('http://docs.oracle.com/javase/6/docs/api/java/lang/Class.html')" stroke="none">Class&lt;T&gt;</text>
    </g>
    <g fill="rgb(221,221,255)" transform="matrix(0.2582,0,0,0.2582,2.0656,281.1839)" stroke="rgb(221,221,255)">
      <rect x="1516.24" y="162.9804" clip-path="url(#clipPath4)" width="139.8374" height="32.7147" stroke="none"/>
    </g>
    <g fill="rgb(154,154,178)" stroke-miterlimit="1.45" transform="matrix(0.2582,0,0,0.2582,2.0656,281.1839)" stroke-linecap="butt" stroke="rgb(154,154,178)">
      <ellipse rx="69.9187" fill="none" ry="16.3574" cx="1586.1587" cy="179.3377"/>
    </g>
    <g font-style="italic" font-size="13" font-weight="bold" font-family="sans-serif" transform="matrix(0.2582,0,0,0.2582,2.0656,281.1839)">
      <text xml:space="preserve" x="1542.1587" y="183.8382" onclick="umlload('http://docs.oracle.com/javase/6/docs/api/java/lang/Iterable.html')" stroke="none">Iterable&lt;T&gt;</text>
    </g>
    <g fill="rgb(187,187,255)" transform="matrix(0.2582,0,0,0.2582,2.0656,281.1839)" stroke="rgb(187,187,255)">
      <rect x="1516.24" y="205.6951" clip-path="url(#clipPath5)" width="45.32" height="23.1328" stroke="none"/>
    </g>
    <g fill="rgb(130,130,178)" stroke-miterlimit="1.45" transform="matrix(0.2582,0,0,0.2582,2.0656,281.1839)" stroke-linecap="butt" stroke="rgb(130,130,178)">
      <rect fill="none" width="45.32" x="1516.24" height="23.1328" y="205.6951"/>
    </g>
    <g font-size="13" font-weight="bold" font-family="sans-serif" transform="matrix(0.2582,0,0,0.2582,2.0656,281.1839)">
      <text xml:space="preserve" x="1520.9" y="221.762" onclick="umlload('http://docs.oracle.com/javase/6/docs/api/java/lang/Long.html')" stroke="none">Long</text>
    </g>
    <g fill="rgb(238,238,255)" transform="matrix(0.2582,0,0,0.2582,2.0656,281.1839)" stroke="rgb(238,238,255)">
      <rect width="277.7122" x="1508.24" height="17.9688" y="-26" stroke="none"/>
    </g>
    <g fill="rgb(166,166,178)" stroke-miterlimit="1.45" transform="matrix(0.2582,0,0,0.2582,2.0656,281.1839)" stroke-linecap="butt" stroke="rgb(166,166,178)">
      <rect fill="none" width="277.7122" x="1508.24" height="17.9688" y="-26"/>
    </g>
    <g fill="rgb(238,238,255)" transform="matrix(0.2582,0,0,0.2582,2.0656,281.1839)" stroke="rgb(238,238,255)">
      <rect width="799.6723" x="1508.24" height="48.746" y="-8.0312" stroke="none"/>
    </g>
    <g fill="rgb(166,166,178)" stroke-miterlimit="1.45" transform="matrix(0.2582,0,0,0.2582,2.0656,281.1839)" stroke-linecap="butt" stroke="rgb(166,166,178)">
      <rect fill="none" width="799.6723" x="1508.24" height="48.746" y="-8.0312"/>
    </g>
    <g font-family="sans-serif" transform="matrix(0.2582,0,0,0.2582,2.0656,281.1839)">
      <text xml:space="preserve" x="1514.24" y="-12.8613" onclick="umlload('../../../../../com/msopentech/odatajclient/proxy/api/package-summary.html')" stroke="none">com.msopentech.odatajclient.proxy.api</text>
    </g>
    <g fill="rgb(221,221,255)" transform="matrix(0.2582,0,0,0.2582,2.0656,281.1839)" stroke="rgb(221,221,255)">
      <rect x="1516.24" y="0" clip-path="url(#clipPath6)" width="783.6723" height="32.7147" stroke="none"/>
    </g>
    <g fill="rgb(154,154,178)" stroke-miterlimit="1.45" transform="matrix(0.2582,0,0,0.2582,2.0656,281.1839)" stroke-linecap="butt" stroke="rgb(154,154,178)">
      <ellipse rx="391.8362" fill="none" ry="16.3574" cx="1908.0762" cy="16.3574"/>
    </g>
    <g font-style="italic" font-size="13" font-weight="bold" font-family="sans-serif" transform="matrix(0.2582,0,0,0.2582,2.0656,281.1839)">
      <text xml:space="preserve" x="1643.0762" y="20.8579" onclick="umlload('../../../../../com/msopentech/odatajclient/proxy/api/Query.html')" stroke="none">Query&lt;T extends Serializable, EC extends AbstractEntityCollection&lt;T&gt;&gt;</text>
    </g>
    <g fill="rgb(238,238,255)" transform="matrix(0.2582,0,0,0.2582,2.0656,281.1839)" stroke="rgb(238,238,255)">
      <rect width="76.1412" x="830.1254" height="17.9688" y="-142.7147" stroke="none"/>
    </g>
    <g fill="rgb(166,166,178)" stroke-miterlimit="1.45" transform="matrix(0.2582,0,0,0.2582,2.0656,281.1839)" stroke-linecap="butt" stroke="rgb(166,166,178)">
      <rect fill="none" width="76.1412" x="830.1254" height="17.9688" y="-142.7147"/>
    </g>
    <g fill="rgb(238,238,255)" transform="matrix(0.2582,0,0,0.2582,2.0656,281.1839)" stroke="rgb(238,238,255)">
      <rect width="377.2467" x="830.1254" height="48.746" y="-124.746" stroke="none"/>
    </g>
    <g fill="rgb(166,166,178)" stroke-miterlimit="1.45" transform="matrix(0.2582,0,0,0.2582,2.0656,281.1839)" stroke-linecap="butt" stroke="rgb(166,166,178)">
      <rect fill="none" width="377.2467" x="830.1254" height="48.746" y="-124.746"/>
    </g>
    <g font-family="sans-serif" transform="matrix(0.2582,0,0,0.2582,2.0656,281.1839)">
      <text xml:space="preserve" x="836.1254" y="-129.5761" onclick="umlload('http://docs.oracle.com/javase/6/docs/api/java/lang/package-summary.html')" stroke="none">java.lang</text>
    </g>
    <g fill="rgb(221,221,255)" transform="matrix(0.2582,0,0,0.2582,2.0656,281.1839)" stroke="rgb(221,221,255)">
      <rect x="838.1254" y="-116.7147" clip-path="url(#clipPath7)" width="361.2467" height="32.7147" stroke="none"/>
    </g>
    <g fill="rgb(154,154,178)" stroke-miterlimit="1.45" transform="matrix(0.2582,0,0,0.2582,2.0656,281.1839)" stroke-linecap="butt" stroke="rgb(154,154,178)">
      <ellipse rx="180.6234" fill="none" ry="16.3574" cx="1018.7488" cy="-100.3574"/>
    </g>
    <g font-style="italic" font-size="13" font-weight="bold" font-family="sans-serif" transform="matrix(0.2582,0,0,0.2582,2.0656,281.1839)">
      <text xml:space="preserve" x="898.7488" y="-95.8569" onclick="umlload('http://docs.oracle.com/javase/6/docs/api/java/lang/Iterable.html')" stroke="none">Iterable&lt;T extends Serializable&gt;</text>
    </g>
    <g fill="rgb(238,238,255)" transform="matrix(0.2582,0,0,0.2582,2.0656,281.1839)" stroke="rgb(238,238,255)">
      <rect width="59.1668" x="650.1146" height="17.9688" y="-142.7147" stroke="none"/>
    </g>
    <g fill="rgb(166,166,178)" stroke-miterlimit="1.45" transform="matrix(0.2582,0,0,0.2582,2.0656,281.1839)" stroke-linecap="butt" stroke="rgb(166,166,178)">
      <rect fill="none" width="59.1668" x="650.1146" height="17.9688" y="-142.7147"/>
    </g>
    <g fill="rgb(238,238,255)" transform="matrix(0.2582,0,0,0.2582,2.0656,281.1839)" stroke="rgb(238,238,255)">
      <rect width="150.0109" x="650.1146" height="48.746" y="-124.746" stroke="none"/>
    </g>
    <g fill="rgb(166,166,178)" stroke-miterlimit="1.45" transform="matrix(0.2582,0,0,0.2582,2.0656,281.1839)" stroke-linecap="butt" stroke="rgb(166,166,178)">
      <rect fill="none" width="150.0109" x="650.1146" height="48.746" y="-124.746"/>
    </g>
    <g font-family="sans-serif" transform="matrix(0.2582,0,0,0.2582,2.0656,281.1839)">
      <text xml:space="preserve" x="656.1146" y="-129.5761" onclick="umlload('http://docs.oracle.com/javase/6/docs/api/java/io/package-summary.html')" stroke="none">java.io</text>
    </g>
    <g fill="rgb(221,221,255)" transform="matrix(0.2582,0,0,0.2582,2.0656,281.1839)" stroke="rgb(221,221,255)">
      <rect x="658.1146" y="-116.7147" clip-path="url(#clipPath8)" width="134.0109" height="32.7147" stroke="none"/>
    </g>
    <g fill="rgb(154,154,178)" stroke-miterlimit="1.45" transform="matrix(0.2582,0,0,0.2582,2.0656,281.1839)" stroke-linecap="butt" stroke="rgb(154,154,178)">
      <ellipse rx="67.0054" fill="none" ry="16.3574" cx="725.12" cy="-100.3574"/>
    </g>
    <g font-style="italic" font-size="13" font-weight="bold" font-family="sans-serif" transform="matrix(0.2582,0,0,0.2582,2.0656,281.1839)">
      <text xml:space="preserve" x="683.12" y="-95.8569" onclick="umlload('http://docs.oracle.com/javase/6/docs/api/java/io/Serializable.html')" stroke="none">Serializable</text>
    </g>
    <g fill="rgb(238,238,255)" transform="matrix(0.2582,0,0,0.2582,2.0656,281.1839)" stroke="rgb(238,238,255)">
      <rect width="277.7122" x="-8" height="17.9688" y="-26" stroke="none"/>
    </g>
    <g fill="rgb(166,166,178)" stroke-miterlimit="1.45" transform="matrix(0.2582,0,0,0.2582,2.0656,281.1839)" stroke-linecap="butt" stroke="rgb(166,166,178)">
      <rect fill="none" width="277.7122" x="-8" height="17.9688" y="-26"/>
    </g>
    <g fill="rgb(238,238,255)" transform="matrix(0.2582,0,0,0.2582,2.0656,281.1839)" stroke="rgb(238,238,255)">
      <rect width="1466.24" x="-8" height="252.8592" y="-8.0312" stroke="none"/>
    </g>
    <g fill="rgb(166,166,178)" stroke-miterlimit="1.45" transform="matrix(0.2582,0,0,0.2582,2.0656,281.1839)" stroke-linecap="butt" stroke="rgb(166,166,178)">
      <rect fill="none" width="1466.24" x="-8" height="252.8592" y="-8.0312"/>
    </g>
    <g font-family="sans-serif" transform="matrix(0.2582,0,0,0.2582,2.0656,281.1839)">
      <text xml:space="preserve" x="-2" y="-12.8613" onclick="umlload('package-summary.html')" stroke="none">com.msopentech.odatajclient.proxy.api</text>
    </g>
    <g fill="rgb(221,221,255)" transform="matrix(0.2582,0,0,0.2582,2.0656,281.1839)" stroke="rgb(221,221,255)">
      <rect x="0" y="0" clip-path="url(#clipPath9)" width="1450.24" height="38.5938" stroke="none"/>
      <line clip-path="url(#clipPath9)" fill="none" x1="0" x2="1450.24" y1="38.5938" y2="38.5938" stroke="black"/>
      <line clip-path="url(#clipPath9)" x1="0" x2="1450.24" y1="39.5938" y2="39.5938" stroke="none"/>
      <line clip-path="url(#clipPath9)" fill="none" x1="0" x2="1450.24" y1="39.5938" y2="39.5938" stroke="black"/>
      <rect x="0" y="40.5938" clip-path="url(#clipPath9)" width="1450.24" height="196.2342" stroke="none"/>
    </g>
    <g fill="rgb(154,154,178)" stroke-miterlimit="1.45" transform="matrix(0.2582,0,0,0.2582,2.0656,281.1839)" stroke-linecap="butt" stroke="rgb(154,154,178)">
      <rect fill="none" width="1450.24" x="0" height="236.8279" y="0"/>
    </g>
    <g font-style="italic" font-size="16" font-weight="bold" font-family="sans-serif" transform="matrix(0.2582,0,0,0.2582,2.0656,281.1839)">
      <text xml:space="preserve" x="228.62" y="32.8203" onclick="umlload('#')" stroke="none">AbstractEntitySet&lt;T extends Serializable, KEY extends Serializable, EC extends AbstractEntityCollection&lt;T&gt;&gt;</text>
    </g>
    <g font-family="sans-serif" transform="matrix(0.2582,0,0,0.2582,2.0656,281.1839)">
      <text xml:space="preserve" x="690.12" y="13.1387" stroke="none">«interface»</text>
    </g>
    <g font-family="sans-serif" transform="matrix(0.2582,0,0,0.2582,2.0656,281.1839)">
      <text xml:space="preserve" x="4" y="51.1719" stroke="none">+</text>
      <text xml:space="preserve" x="19" y="52.7324" onclick="umlload('#count()')" stroke="none">count() : Long</text>
    </g>
    <g font-family="sans-serif" transform="matrix(0.2582,0,0,0.2582,2.0656,281.1839)">
      <text xml:space="preserve" x="4" y="67.1719" stroke="none">+</text>
      <text xml:space="preserve" x="19" y="68.7012" onclick="umlload('#createQuery()')" stroke="none">createQuery() : Query&lt;T extends Serializable, EC extends AbstractEntityCollection&lt;T&gt;&gt;</text>
    </g>
    <g font-family="sans-serif" transform="matrix(0.2582,0,0,0.2582,2.0656,281.1839)">
      <text xml:space="preserve" x="4" y="83.1719" stroke="none">+</text>
      <text xml:space="preserve" x="19" y="84.6699" onclick="umlload('#createQuery(java.lang.Class)')" stroke="none">createQuery(Class&lt;SEC&gt;) : &lt;S extends T extends Serializable, SEC extends AbstractEntityCollection&lt;S extends T extends Serializable&gt;&gt; Query&lt;S extends T extends Serializable, SEC extends AbstractEntityCollection&lt;S&gt;&gt;</text>
    </g>
    <g font-family="sans-serif" transform="matrix(0.2582,0,0,0.2582,2.0656,281.1839)">
      <text xml:space="preserve" x="4" y="99.1719" stroke="none">+</text>
      <text xml:space="preserve" x="19" y="100.6387" onclick="umlload('#delete(java.lang.Iterable)')" stroke="none">delete(Iterable&lt;S&gt;) : &lt;S extends T extends Serializable&gt; void</text>
    </g>
    <g font-family="sans-serif" transform="matrix(0.2582,0,0,0.2582,2.0656,281.1839)">
      <text xml:space="preserve" x="4" y="115.1719" stroke="none">+</text>
      <text xml:space="preserve" x="19" y="116.6074" onclick="umlload('#delete(KEY)')" stroke="none">delete(KEY) : void</text>
    </g>
    <g font-family="sans-serif" transform="matrix(0.2582,0,0,0.2582,2.0656,281.1839)">
      <text xml:space="preserve" x="4" y="131.1719" stroke="none">+</text>
      <text xml:space="preserve" x="19" y="132.5762" onclick="umlload('#exists(KEY)')" stroke="none">exists(KEY) : Boolean</text>
    </g>
    <g font-family="sans-serif" transform="matrix(0.2582,0,0,0.2582,2.0656,281.1839)">
      <text xml:space="preserve" x="4" y="147.1719" stroke="none">+</text>
      <text xml:space="preserve" x="19" y="148.5449" onclick="umlload('#get(KEY)')" stroke="none">get(KEY) : T</text>
    </g>
    <g font-family="sans-serif" transform="matrix(0.2582,0,0,0.2582,2.0656,281.1839)">
      <text xml:space="preserve" x="4" y="163.1719" stroke="none">+</text>
      <text xml:space="preserve" x="19" y="164.5137" onclick="umlload('#get(KEY, java.lang.Class)')" stroke="none">get(KEY, Class&lt;S&gt;) : &lt;S extends T extends Serializable&gt; S</text>
    </g>
    <g font-family="sans-serif" transform="matrix(0.2582,0,0,0.2582,2.0656,281.1839)">
      <text xml:space="preserve" x="4" y="179.1719" stroke="none">+</text>
      <text xml:space="preserve" x="19" y="180.4824" onclick="umlload('#getAll()')" stroke="none">getAll() : EC</text>
    </g>
    <g font-family="sans-serif" transform="matrix(0.2582,0,0,0.2582,2.0656,281.1839)">
      <text xml:space="preserve" x="4" y="195.1719" stroke="none">+</text>
      <text xml:space="preserve" x="19" y="196.4512" onclick="umlload('#getAll(java.lang.Class)')" stroke="none">getAll(Class&lt;SEC&gt;) : &lt;S extends T extends Serializable, SEC extends AbstractEntityCollection&lt;S extends T extends Serializable&gt;&gt; SEC</text>
    </g>
    <g font-family="sans-serif" transform="matrix(0.2582,0,0,0.2582,2.0656,281.1839)">
      <text xml:space="preserve" x="-2" y="269.1543" onclick="umlload('http://www.yworks.com/')" stroke="none">yWorks UML Doclet</text>
    </g>
    <g stroke-miterlimit="1.45" transform="matrix(0.2582,0,0,0.2582,2.0656,281.1839)" stroke-linecap="butt">
      <path fill="none" d="M725.12 0.0385 L725.12 -69"/>
      <path fill="white" d="M725.12 -84 L719.12 -68 L731.12 -68 Z" stroke="none"/>
      <path fill="none" d="M725.12 -84 L719.12 -68 L731.12 -68 Z"/>
      <path fill="none" d="M725.12 0.0321 L725.12 -51 L1018.7488 -51 L1018.7488 -69"/>
      <path fill="white" d="M1018.7488 -84 L1012.7488 -68 L1024.7488 -68 Z" stroke="none"/>
      <path fill="none" d="M1018.7488 -84 L1012.7488 -68 L1024.7488 -68 Z"/>
      <path fill="none" stroke-dasharray="6,2" d="M1450.2078 16.3574 L1516.24 16.3574"/>
      <line stroke-linecap="square" transform="matrix(1,0,0,1,1516.24,16.3574)" fill="none" x1="0" x2="-14" y1="0" y2="-4" stroke-miterlimit="10"/>
      <line stroke-linecap="square" transform="matrix(1,0,0,1,1516.24,16.3574)" fill="none" x1="0" x2="-14" y1="0" y2="4" stroke-miterlimit="10"/>
    </g>
    <g stroke-dasharray="6,2" stroke-miterlimit="1.45" transform="matrix(0.2582,0,0,0.2582,2.0656,281.1839)" stroke-linecap="butt">
      <path fill="none" d="M1450.2379 108.2811 L1516.24 108.2811"/>
      <line stroke-linecap="square" transform="matrix(1,0,0,1,1516.24,108.2811)" fill="none" x1="0" x2="-14" y1="0" y2="-4" stroke-dasharray="none" stroke-miterlimit="10"/>
      <line stroke-linecap="square" transform="matrix(1,0,0,1,1516.24,108.2811)" fill="none" x1="0" x2="-14" y1="0" y2="4" stroke-dasharray="none" stroke-miterlimit="10"/>
    </g>
    <g stroke-dasharray="6,2" stroke-miterlimit="1.45" transform="matrix(0.2582,0,0,0.2582,2.0656,281.1839)" stroke-linecap="butt">
      <path fill="none" d="M1450.248 141.414 L1516.24 141.414"/>
      <line stroke-linecap="square" transform="matrix(1,0,0,1,1516.24,141.414)" fill="none" x1="0" x2="-14" y1="0" y2="-4" stroke-dasharray="none" stroke-miterlimit="10"/>
      <line stroke-linecap="square" transform="matrix(1,0,0,1,1516.24,141.414)" fill="none" x1="0" x2="-14" y1="0" y2="4" stroke-dasharray="none" stroke-miterlimit="10"/>
    </g>
    <g stroke-dasharray="6,2" stroke-miterlimit="1.45" transform="matrix(0.2582,0,0,0.2582,2.0656,281.1839)" stroke-linecap="butt">
      <path fill="none" d="M1450.2288 179.3377 L1516.24 179.3377"/>
      <line stroke-linecap="square" transform="matrix(1,0,0,1,1516.24,179.3377)" fill="none" x1="0" x2="-14" y1="0" y2="-4" stroke-dasharray="none" stroke-miterlimit="10"/>
      <line stroke-linecap="square" transform="matrix(1,0,0,1,1516.24,179.3377)" fill="none" x1="0" x2="-14" y1="0" y2="4" stroke-dasharray="none" stroke-miterlimit="10"/>
    </g>
    <g stroke-dasharray="6,2" stroke-miterlimit="1.45" transform="matrix(0.2582,0,0,0.2582,2.0656,281.1839)" stroke-linecap="butt">
      <path fill="none" d="M1450.2405 217.2615 L1516.24 217.2615"/>
      <line stroke-linecap="square" transform="matrix(1,0,0,1,1516.24,217.2615)" fill="none" x1="0" x2="-14" y1="0" y2="-4" stroke-dasharray="none" stroke-miterlimit="10"/>
      <line stroke-linecap="square" transform="matrix(1,0,0,1,1516.24,217.2615)" fill="none" x1="0" x2="-14" y1="0" y2="4" stroke-dasharray="none" stroke-miterlimit="10"/>
    </g>
  </g>
</svg>
