<?xml version="1.0" encoding="UTF-8"?><svg xmlns="http://www.w3.org/2000/svg" xmlns:xlink="http://www.w3.org/1999/xlink" fill-opacity="1" color-rendering="auto" color-interpolation="auto" stroke="black" text-rendering="auto" stroke-linecap="square" width="598" stroke-miterlimit="10" stroke-opacity="1" shape-rendering="auto" fill="black" stroke-dasharray="none" font-weight="normal" stroke-width="1" height="598" font-family="'Dialog'" font-style="normal" stroke-linejoin="miter" font-size="12" stroke-dashoffset="0" image-rendering="auto">
  <!--Generated by ySVG-->
  <defs id="genericDefs"/>
  <g>
    <defs id="defs1">
      <clipPath clipPathUnits="userSpaceOnUse" id="clipPath1">
        <path d="M0 0 L598 0 L598 598 L0 598 L0 0 Z"/>
      </clipPath>
      <clipPath clipPathUnits="userSpaceOnUse" id="clipPath2">
        <path d="M315.74 0 L389.9 0 L389.9 23.1328 L315.74 23.1328 L315.74 0 Z"/>
      </clipPath>
      <clipPath clipPathUnits="userSpaceOnUse" id="clipPath3">
        <path d="M-68.8057 16.3574 C-68.8057 25.3913 -97.5007 32.7147 -132.8978 32.7147 C-168.295 32.7147 -196.99 25.3913 -196.99 16.3574 C-196.99 7.3234 -168.295 0 -132.8978 0 C-97.5007 0 -68.8057 7.3234 -68.8057 16.3574 Z"/>
      </clipPath>
      <clipPath clipPathUnits="userSpaceOnUse" id="clipPath4">
        <path d="M299.8443 -100.3574 C299.8443 -91.3234 271.1493 -84 235.7522 -84 C200.355 -84 171.66 -91.3234 171.66 -100.3574 C171.66 -109.3913 200.355 -116.7147 235.7522 -116.7147 C271.1493 -116.7147 299.8443 -109.3913 299.8443 -100.3574 Z"/>
      </clipPath>
      <clipPath clipPathUnits="userSpaceOnUse" id="clipPath5">
        <path d="M67.98 -107.1328 L125.66 -107.1328 L125.66 -84 L67.98 -84 L67.98 -107.1328 Z"/>
      </clipPath>
      <clipPath clipPathUnits="userSpaceOnUse" id="clipPath6">
        <path d="M0 0 L193.64 0 L193.64 152.375 L0 152.375 L0 0 Z"/>
      </clipPath>
      <script type="text/ecmascript"><![CDATA[
function umlload(newLocation)
{
if (newLocation.charAt(0) != '#') {
if (newLocation.indexOf("://") > -1) {
window.parent.location.href = newLocation;
} else {
var tmp = window.parent.location.href;
tmp = tmp.substring(0, tmp.lastIndexOf("/") + 1);
window.parent.location.href = tmp.concat(newLocation);
}
} else {
window.parent.location.hash = newLocation;
}
}
]]></script>
    </defs>
    <g fill="rgb(238,238,255)" transform="matrix(0.9061,0,0,0.9061,185.7424,274.5364)" stroke="rgb(238,238,255)">
      <rect width="145.0997" x="307.74" height="17.9688" y="-26" stroke="none"/>
    </g>
    <g fill="rgb(166,166,178)" stroke-miterlimit="1.45" transform="matrix(0.9061,0,0,0.9061,185.7424,274.5364)" stroke-linecap="butt" stroke="rgb(166,166,178)">
      <rect fill="none" width="145.0997" x="307.74" height="17.9688" y="-26"/>
    </g>
    <g fill="rgb(238,238,255)" transform="matrix(0.9061,0,0,0.9061,185.7424,274.5364)" stroke="rgb(238,238,255)">
      <rect width="147.16" x="307.74" height="39.1641" y="-8.0312" stroke="none"/>
    </g>
    <g fill="rgb(166,166,178)" stroke-miterlimit="1.45" transform="matrix(0.9061,0,0,0.9061,185.7424,274.5364)" stroke-linecap="butt" stroke="rgb(166,166,178)">
      <rect fill="none" width="147.16" x="307.74" height="39.1641" y="-8.0312"/>
    </g>
    <g font-family="sans-serif" transform="matrix(0.9061,0,0,0.9061,185.7424,274.5364)">
      <text xml:space="preserve" x="313.74" y="-12.8613" onclick="umlload('http://docs.oracle.com/javase/6/docs/api/java/util/concurrent/package-summary.html')" stroke="none">java.util.concurrent</text>
    </g>
    <g fill="rgb(204,204,255)" transform="matrix(0.9061,0,0,0.9061,185.7424,274.5364)" stroke="rgb(204,204,255)">
      <rect x="315.74" y="0" clip-path="url(#clipPath2)" width="74.16" height="23.1328" stroke="none"/>
    </g>
    <g fill="rgb(142,142,178)" stroke-miterlimit="1.45" transform="matrix(0.9061,0,0,0.9061,185.7424,274.5364)" stroke-linecap="butt" stroke="rgb(142,142,178)">
      <rect fill="none" width="74.16" x="315.74" height="23.1328" y="0"/>
    </g>
    <g font-size="13" font-weight="bold" font-family="sans-serif" transform="matrix(0.9061,0,0,0.9061,185.7424,274.5364)">
      <text xml:space="preserve" x="320.82" y="16.0669" onclick="umlload('http://docs.oracle.com/javase/6/docs/api/java/util/concurrent/TimeUnit.html')" stroke="none">TimeUnit</text>
    </g>
    <g fill="rgb(238,238,255)" transform="matrix(0.9061,0,0,0.9061,185.7424,274.5364)" stroke="rgb(238,238,255)">
      <rect width="145.0997" x="-204.99" height="17.9688" y="-26" stroke="none"/>
    </g>
    <g fill="rgb(166,166,178)" stroke-miterlimit="1.45" transform="matrix(0.9061,0,0,0.9061,185.7424,274.5364)" stroke-linecap="butt" stroke="rgb(166,166,178)">
      <rect fill="none" width="145.0997" x="-204.99" height="17.9688" y="-26"/>
    </g>
    <g fill="rgb(238,238,255)" transform="matrix(0.9061,0,0,0.9061,185.7424,274.5364)" stroke="rgb(238,238,255)">
      <rect width="147.1843" x="-204.99" height="48.746" y="-8.0312" stroke="none"/>
    </g>
    <g fill="rgb(166,166,178)" stroke-miterlimit="1.45" transform="matrix(0.9061,0,0,0.9061,185.7424,274.5364)" stroke-linecap="butt" stroke="rgb(166,166,178)">
      <rect fill="none" width="147.1843" x="-204.99" height="48.746" y="-8.0312"/>
    </g>
    <g font-family="sans-serif" transform="matrix(0.9061,0,0,0.9061,185.7424,274.5364)">
      <text xml:space="preserve" x="-198.99" y="-12.8613" onclick="umlload('http://docs.oracle.com/javase/6/docs/api/java/util/concurrent/package-summary.html')" stroke="none">java.util.concurrent</text>
    </g>
    <g fill="rgb(221,221,255)" transform="matrix(0.9061,0,0,0.9061,185.7424,274.5364)" stroke="rgb(221,221,255)">
      <rect x="-196.99" y="0" clip-path="url(#clipPath3)" width="128.1843" height="32.7147" stroke="none"/>
    </g>
    <g fill="rgb(154,154,178)" stroke-miterlimit="1.45" transform="matrix(0.9061,0,0,0.9061,185.7424,274.5364)" stroke-linecap="butt" stroke="rgb(154,154,178)">
      <ellipse rx="64.0922" fill="none" ry="16.3574" cx="-132.8978" cy="16.3574"/>
    </g>
    <g font-style="italic" font-size="13" font-weight="bold" font-family="sans-serif" transform="matrix(0.9061,0,0,0.9061,185.7424,274.5364)">
      <text xml:space="preserve" x="-172.8978" y="20.8579" onclick="umlload('http://docs.oracle.com/javase/6/docs/api/java/util/concurrent/Future.html')" stroke="none">Future&lt;V&gt;</text>
    </g>
    <g fill="rgb(238,238,255)" transform="matrix(0.9061,0,0,0.9061,185.7424,274.5364)" stroke="rgb(238,238,255)">
      <rect width="145.0997" x="163.66" height="17.9688" y="-142.7147" stroke="none"/>
    </g>
    <g fill="rgb(166,166,178)" stroke-miterlimit="1.45" transform="matrix(0.9061,0,0,0.9061,185.7424,274.5364)" stroke-linecap="butt" stroke="rgb(166,166,178)">
      <rect fill="none" width="145.0997" x="163.66" height="17.9688" y="-142.7147"/>
    </g>
    <g fill="rgb(238,238,255)" transform="matrix(0.9061,0,0,0.9061,185.7424,274.5364)" stroke="rgb(238,238,255)">
      <rect width="145.1843" x="163.66" height="48.746" y="-124.746" stroke="none"/>
    </g>
    <g fill="rgb(166,166,178)" stroke-miterlimit="1.45" transform="matrix(0.9061,0,0,0.9061,185.7424,274.5364)" stroke-linecap="butt" stroke="rgb(166,166,178)">
      <rect fill="none" width="145.1843" x="163.66" height="48.746" y="-124.746"/>
    </g>
    <g font-family="sans-serif" transform="matrix(0.9061,0,0,0.9061,185.7424,274.5364)">
      <text xml:space="preserve" x="169.66" y="-129.5761" onclick="umlload('http://docs.oracle.com/javase/6/docs/api/java/util/concurrent/package-summary.html')" stroke="none">java.util.concurrent</text>
    </g>
    <g fill="rgb(221,221,255)" transform="matrix(0.9061,0,0,0.9061,185.7424,274.5364)" stroke="rgb(221,221,255)">
      <rect x="171.66" y="-116.7147" clip-path="url(#clipPath4)" width="128.1843" height="32.7147" stroke="none"/>
    </g>
    <g fill="rgb(154,154,178)" stroke-miterlimit="1.45" transform="matrix(0.9061,0,0,0.9061,185.7424,274.5364)" stroke-linecap="butt" stroke="rgb(154,154,178)">
      <ellipse rx="64.0922" fill="none" ry="16.3574" cx="235.7522" cy="-100.3574"/>
    </g>
    <g font-style="italic" font-size="13" font-weight="bold" font-family="sans-serif" transform="matrix(0.9061,0,0,0.9061,185.7424,274.5364)">
      <text xml:space="preserve" x="195.7522" y="-95.8569" onclick="umlload('http://docs.oracle.com/javase/6/docs/api/java/util/concurrent/Future.html')" stroke="none">Future&lt;V&gt;</text>
    </g>
    <g fill="rgb(238,238,255)" transform="matrix(0.9061,0,0,0.9061,185.7424,274.5364)" stroke="rgb(238,238,255)">
      <rect width="76.1412" x="59.98" height="17.9688" y="-133.1328" stroke="none"/>
    </g>
    <g fill="rgb(166,166,178)" stroke-miterlimit="1.45" transform="matrix(0.9061,0,0,0.9061,185.7424,274.5364)" stroke-linecap="butt" stroke="rgb(166,166,178)">
      <rect fill="none" width="76.1412" x="59.98" height="17.9688" y="-133.1328"/>
    </g>
    <g fill="rgb(238,238,255)" transform="matrix(0.9061,0,0,0.9061,185.7424,274.5364)" stroke="rgb(238,238,255)">
      <rect width="76.1412" x="59.98" height="39.1641" y="-115.1641" stroke="none"/>
    </g>
    <g fill="rgb(166,166,178)" stroke-miterlimit="1.45" transform="matrix(0.9061,0,0,0.9061,185.7424,274.5364)" stroke-linecap="butt" stroke="rgb(166,166,178)">
      <rect fill="none" width="76.1412" x="59.98" height="39.1641" y="-115.1641"/>
    </g>
    <g font-family="sans-serif" transform="matrix(0.9061,0,0,0.9061,185.7424,274.5364)">
      <text xml:space="preserve" x="65.98" y="-119.9941" onclick="umlload('http://docs.oracle.com/javase/6/docs/api/java/lang/package-summary.html')" stroke="none">java.lang</text>
    </g>
    <g fill="rgb(187,187,255)" transform="matrix(0.9061,0,0,0.9061,185.7424,274.5364)" stroke="rgb(187,187,255)">
      <rect x="67.98" y="-107.1328" clip-path="url(#clipPath5)" width="57.68" height="23.1328" stroke="none"/>
    </g>
    <g fill="rgb(130,130,178)" stroke-miterlimit="1.45" transform="matrix(0.9061,0,0,0.9061,185.7424,274.5364)" stroke-linecap="butt" stroke="rgb(130,130,178)">
      <rect fill="none" width="57.68" x="67.98" height="23.1328" y="-107.1328"/>
    </g>
    <g font-size="13" font-weight="bold" font-family="sans-serif" transform="matrix(0.9061,0,0,0.9061,185.7424,274.5364)">
      <text xml:space="preserve" x="72.82" y="-91.0659" onclick="umlload('http://docs.oracle.com/javase/6/docs/api/java/lang/Object.html')" stroke="none">Object</text>
    </g>
    <g fill="rgb(238,238,255)" transform="matrix(0.9061,0,0,0.9061,185.7424,274.5364)" stroke="rgb(238,238,255)">
      <rect width="277.7122" x="-8" height="17.9688" y="-26" stroke="none"/>
    </g>
    <g fill="rgb(166,166,178)" stroke-miterlimit="1.45" transform="matrix(0.9061,0,0,0.9061,185.7424,274.5364)" stroke-linecap="butt" stroke="rgb(166,166,178)">
      <rect fill="none" width="277.7122" x="-8" height="17.9688" y="-26"/>
    </g>
    <g fill="rgb(238,238,255)" transform="matrix(0.9061,0,0,0.9061,185.7424,274.5364)" stroke="rgb(238,238,255)">
      <rect width="277.7122" x="-8" height="168.4062" y="-8.0312" stroke="none"/>
    </g>
    <g fill="rgb(166,166,178)" stroke-miterlimit="1.45" transform="matrix(0.9061,0,0,0.9061,185.7424,274.5364)" stroke-linecap="butt" stroke="rgb(166,166,178)">
      <rect fill="none" width="277.7122" x="-8" height="168.4062" y="-8.0312"/>
    </g>
    <g font-family="sans-serif" transform="matrix(0.9061,0,0,0.9061,185.7424,274.5364)">
      <text xml:space="preserve" x="-2" y="-12.8613" onclick="umlload('package-summary.html')" stroke="none">com.msopentech.odatajclient.proxy.api</text>
    </g>
    <g fill="rgb(204,204,255)" transform="matrix(0.9061,0,0,0.9061,185.7424,274.5364)" stroke="rgb(204,204,255)">
      <rect x="0" y="0" clip-path="url(#clipPath6)" width="193.64" height="38.5938" stroke="none"/>
      <line clip-path="url(#clipPath6)" fill="none" x1="0" x2="193.64" y1="38.5938" y2="38.5938" stroke="black"/>
      <line clip-path="url(#clipPath6)" x1="0" x2="193.64" y1="39.5938" y2="39.5938" stroke="none"/>
      <line clip-path="url(#clipPath6)" fill="none" x1="0" x2="193.64" y1="39.5938" y2="39.5938" stroke="black"/>
      <rect x="0" y="40.5938" clip-path="url(#clipPath6)" width="193.64" height="111.7812" stroke="none"/>
    </g>
    <g fill="rgb(142,142,178)" stroke-miterlimit="1.45" transform="matrix(0.9061,0,0,0.9061,185.7424,274.5364)" stroke-linecap="butt" stroke="rgb(142,142,178)">
      <rect fill="none" width="193.64" x="0" height="152.375" y="0"/>
    </g>
    <g font-size="16" font-weight="bold" font-family="sans-serif" transform="matrix(0.9061,0,0,0.9061,185.7424,274.5364)">
      <text xml:space="preserve" x="36.32" y="16.8516" onclick="umlload('#')" stroke="none">AsyncCall&lt;V&gt;</text>
    </g>
    <g font-family="sans-serif" transform="matrix(0.9061,0,0,0.9061,185.7424,274.5364)">
      <text xml:space="preserve" x="120.64" y="33.7637" stroke="none">{abstract}</text>
    </g>
    <g font-family="sans-serif" transform="matrix(0.9061,0,0,0.9061,185.7424,274.5364)">
      <text xml:space="preserve" x="4" y="51.1719" stroke="none">+</text>
      <text xml:space="preserve" x="19" y="52.7324" stroke="none">AsyncCall()</text>
    </g>
    <g font-family="sans-serif" transform="matrix(0.9061,0,0,0.9061,185.7424,274.5364)">
      <text xml:space="preserve" x="4" y="67.1719" stroke="none">+</text>
      <text xml:space="preserve" x="19" y="68.7012" onclick="umlload('#call()')" stroke="none">call() : V</text>
    </g>
    <g font-family="sans-serif" transform="matrix(0.9061,0,0,0.9061,185.7424,274.5364)">
      <text xml:space="preserve" x="4" y="83.1719" stroke="none">+</text>
      <text xml:space="preserve" x="19" y="84.6699" onclick="umlload('#cancel(boolean)')" stroke="none">cancel(boolean) : boolean</text>
    </g>
    <g font-family="sans-serif" transform="matrix(0.9061,0,0,0.9061,185.7424,274.5364)">
      <text xml:space="preserve" x="4" y="99.1719" stroke="none">+</text>
      <text xml:space="preserve" x="19" y="100.6387" onclick="umlload('#get()')" stroke="none">get() : V</text>
    </g>
    <g font-family="sans-serif" transform="matrix(0.9061,0,0,0.9061,185.7424,274.5364)">
      <text xml:space="preserve" x="4" y="115.1719" stroke="none">+</text>
      <text xml:space="preserve" x="19" y="116.6074" onclick="umlload('#get(long, java.util.concurrent.TimeUnit)')" stroke="none">get(long, TimeUnit) : V</text>
    </g>
    <g font-family="sans-serif" transform="matrix(0.9061,0,0,0.9061,185.7424,274.5364)">
      <text xml:space="preserve" x="4" y="131.1719" stroke="none">+</text>
      <text xml:space="preserve" x="19" y="132.5762" onclick="umlload('#isCancelled()')" stroke="none">isCancelled() : boolean</text>
    </g>
    <g font-family="sans-serif" transform="matrix(0.9061,0,0,0.9061,185.7424,274.5364)">
      <text xml:space="preserve" x="4" y="147.1719" stroke="none">+</text>
      <text xml:space="preserve" x="19" y="148.5449" onclick="umlload('#isDone()')" stroke="none">isDone() : boolean</text>
    </g>
    <g font-family="sans-serif" transform="matrix(0.9061,0,0,0.9061,185.7424,274.5364)">
      <text xml:space="preserve" x="-199" y="185.1543" onclick="umlload('http://www.yworks.com/')" stroke="none">yWorks UML Doclet</text>
    </g>
    <g stroke-miterlimit="1.45" transform="matrix(0.9061,0,0,0.9061,185.7424,274.5364)" stroke-linecap="butt">
      <path fill="none" d="M96.82 0 L96.82 -69"/>
      <path fill="white" d="M96.82 -84 L90.82 -68 L102.82 -68 Z" stroke="none"/>
      <path fill="none" d="M96.82 -84 L90.82 -68 L102.82 -68 Z"/>
      <path fill="none" stroke-dasharray="6,2" d="M145.23 0.0178 L145.23 -51 L235.7522 -51 L235.7522 -69"/>
      <path fill="white" stroke-dasharray="6,2" d="M235.7522 -84 L229.7522 -68 L241.7522 -68 Z" stroke="none"/>
      <path fill="none" d="M235.7522 -84 L229.7522 -68 L241.7522 -68 Z"/>
      <path fill="none" d="M-0.0081 16.3574 L-68.8057 16.3574"/>
      <line stroke-linecap="square" transform="matrix(-1,0,0,-1,-68.8057,16.3574)" fill="none" x1="0" x2="-14" y1="0" y2="-4" stroke-miterlimit="10"/>
      <line stroke-linecap="square" transform="matrix(-1,0,0,-1,-68.8057,16.3574)" fill="none" x1="0" x2="-14" y1="0" y2="4" stroke-miterlimit="10"/>
    </g>
    <g stroke-dasharray="6,2" stroke-miterlimit="1.45" transform="matrix(0.9061,0,0,0.9061,185.7424,274.5364)" stroke-linecap="butt">
      <path fill="none" d="M193.6638 11.5664 L315.74 11.5664"/>
      <line stroke-linecap="square" transform="matrix(1,0,0,1,315.74,11.5664)" fill="none" x1="0" x2="-14" y1="0" y2="-4" stroke-dasharray="none" stroke-miterlimit="10"/>
      <line stroke-linecap="square" transform="matrix(1,0,0,1,315.74,11.5664)" fill="none" x1="0" x2="-14" y1="0" y2="4" stroke-dasharray="none" stroke-miterlimit="10"/>
    </g>
  </g>
</svg>
