<?xml version="1.0" encoding="UTF-8"?><svg xmlns="http://www.w3.org/2000/svg" xmlns:xlink="http://www.w3.org/1999/xlink" fill-opacity="1" color-rendering="auto" color-interpolation="auto" stroke="black" text-rendering="auto" stroke-linecap="square" width="598" stroke-miterlimit="10" stroke-opacity="1" shape-rendering="auto" fill="black" stroke-dasharray="none" font-weight="normal" stroke-width="1" height="598" font-family="'Dialog'" font-style="normal" stroke-linejoin="miter" font-size="12" stroke-dashoffset="0" image-rendering="auto">
  <!--Generated by ySVG-->
  <defs id="genericDefs"/>
  <g>
    <defs id="defs1">
      <clipPath clipPathUnits="userSpaceOnUse" id="clipPath1">
        <path d="M0 0 L598 0 L598 598 L0 598 L0 0 Z"/>
      </clipPath>
      <clipPath clipPathUnits="userSpaceOnUse" id="clipPath2">
        <path d="M373.97 0 L453.28 0 L453.28 23.1328 L373.97 23.1328 L373.97 0 Z"/>
      </clipPath>
      <clipPath clipPathUnits="userSpaceOnUse" id="clipPath3">
        <path d="M-66 310.8886 C-66 319.9225 -95.6733 327.246 -132.2771 327.246 C-168.881 327.246 -198.5542 319.9225 -198.5542 310.8886 C-198.5542 301.8547 -168.881 294.5312 -132.2771 294.5312 C-95.6733 294.5312 -66 301.8547 -66 310.8886 Z"/>
      </clipPath>
      <clipPath clipPathUnits="userSpaceOnUse" id="clipPath4">
        <path d="M-130.04 174.2656 L-72.36 174.2656 L-72.36 197.3984 L-130.04 197.3984 L-130.04 174.2656 Z"/>
      </clipPath>
      <clipPath clipPathUnits="userSpaceOnUse" id="clipPath5">
        <path d="M-130.04 207.3984 L-76.48 207.3984 L-76.48 230.5312 L-130.04 230.5312 L-130.04 207.3984 Z"/>
      </clipPath>
      <clipPath clipPathUnits="userSpaceOnUse" id="clipPath6">
        <path d="M-378.27 87.1328 L-311.32 87.1328 L-311.32 110.2656 L-378.27 110.2656 L-378.27 87.1328 Z"/>
      </clipPath>
      <clipPath clipPathUnits="userSpaceOnUse" id="clipPath7">
        <path d="M-413.29 0 L-297.93 0 L-297.93 23.1328 L-413.29 23.1328 L-413.29 0 Z"/>
      </clipPath>
      <clipPath clipPathUnits="userSpaceOnUse" id="clipPath8">
        <path d="M125.145 -107.1328 L182.825 -107.1328 L182.825 -84 L125.145 -84 L125.145 -107.1328 Z"/>
      </clipPath>
      <clipPath clipPathUnits="userSpaceOnUse" id="clipPath9">
        <path d="M0 0 L307.97 0 L307.97 335.246 L0 335.246 L0 0 Z"/>
      </clipPath>
      <script type="text/ecmascript"><![CDATA[
function umlload(newLocation)
{
if (newLocation.charAt(0) != '#') {
if (newLocation.indexOf("://") > -1) {
window.parent.location.href = newLocation;
} else {
var tmp = window.parent.location.href;
tmp = tmp.substring(0, tmp.lastIndexOf("/") + 1);
window.parent.location.href = tmp.concat(newLocation);
}
} else {
window.parent.location.hash = newLocation;
}
}
]]></script>
    </defs>
    <g fill="rgb(238,238,255)" transform="matrix(0.6765,0,0,0.6765,285.4706,215.7941)" stroke="rgb(238,238,255)">
      <rect width="76.1412" x="365.97" height="17.9688" y="-26" stroke="none"/>
    </g>
    <g fill="rgb(166,166,178)" stroke-miterlimit="1.45" transform="matrix(0.6765,0,0,0.6765,285.4706,215.7941)" stroke-linecap="butt" stroke="rgb(166,166,178)">
      <rect fill="none" width="76.1412" x="365.97" height="17.9688" y="-26"/>
    </g>
    <g fill="rgb(238,238,255)" transform="matrix(0.6765,0,0,0.6765,285.4706,215.7941)" stroke="rgb(238,238,255)">
      <rect width="95.31" x="365.97" height="39.1641" y="-8.0312" stroke="none"/>
    </g>
    <g fill="rgb(166,166,178)" stroke-miterlimit="1.45" transform="matrix(0.6765,0,0,0.6765,285.4706,215.7941)" stroke-linecap="butt" stroke="rgb(166,166,178)">
      <rect fill="none" width="95.31" x="365.97" height="39.1641" y="-8.0312"/>
    </g>
    <g font-family="sans-serif" transform="matrix(0.6765,0,0,0.6765,285.4706,215.7941)">
      <text xml:space="preserve" x="371.97" y="-12.8613" onclick="umlload('http://docs.oracle.com/javase/6/docs/api/java/lang/package-summary.html')" stroke="none">java.lang</text>
    </g>
    <g fill="rgb(187,187,255)" transform="matrix(0.6765,0,0,0.6765,285.4706,215.7941)" stroke="rgb(187,187,255)">
      <rect x="373.97" y="0" clip-path="url(#clipPath2)" width="79.31" height="23.1328" stroke="none"/>
    </g>
    <g fill="rgb(130,130,178)" stroke-miterlimit="1.45" transform="matrix(0.6765,0,0,0.6765,285.4706,215.7941)" stroke-linecap="butt" stroke="rgb(130,130,178)">
      <rect fill="none" width="79.31" x="373.97" height="23.1328" y="0"/>
    </g>
    <g font-size="13" font-weight="bold" font-family="sans-serif" transform="matrix(0.6765,0,0,0.6765,285.4706,215.7941)">
      <text xml:space="preserve" x="379.125" y="16.0669" onclick="umlload('http://docs.oracle.com/javase/6/docs/api/java/lang/Class.html')" stroke="none">Class&lt;T&gt;</text>
    </g>
    <g fill="rgb(238,238,255)" transform="matrix(0.6765,0,0,0.6765,285.4706,215.7941)" stroke="rgb(238,238,255)">
      <rect width="67.654" x="-206.5542" height="17.9688" y="268.5312" stroke="none"/>
    </g>
    <g fill="rgb(166,166,178)" stroke-miterlimit="1.45" transform="matrix(0.6765,0,0,0.6765,285.4706,215.7941)" stroke-linecap="butt" stroke="rgb(166,166,178)">
      <rect fill="none" width="67.654" x="-206.5542" height="17.9688" y="268.5312"/>
    </g>
    <g fill="rgb(238,238,255)" transform="matrix(0.6765,0,0,0.6765,285.4706,215.7941)" stroke="rgb(238,238,255)">
      <rect width="148.5542" x="-206.5542" height="48.746" y="286.5" stroke="none"/>
    </g>
    <g fill="rgb(166,166,178)" stroke-miterlimit="1.45" transform="matrix(0.6765,0,0,0.6765,285.4706,215.7941)" stroke-linecap="butt" stroke="rgb(166,166,178)">
      <rect fill="none" width="148.5542" x="-206.5542" height="48.746" y="286.5"/>
    </g>
    <g font-family="sans-serif" transform="matrix(0.6765,0,0,0.6765,285.4706,215.7941)">
      <text xml:space="preserve" x="-200.5542" y="281.6699" onclick="umlload('http://docs.oracle.com/javase/6/docs/api/java/util/package-summary.html')" stroke="none">java.util</text>
    </g>
    <g fill="rgb(221,221,255)" transform="matrix(0.6765,0,0,0.6765,285.4706,215.7941)" stroke="rgb(221,221,255)">
      <rect x="-198.5542" y="294.5312" clip-path="url(#clipPath3)" width="132.5542" height="32.7147" stroke="none"/>
    </g>
    <g fill="rgb(154,154,178)" stroke-miterlimit="1.45" transform="matrix(0.6765,0,0,0.6765,285.4706,215.7941)" stroke-linecap="butt" stroke="rgb(154,154,178)">
      <ellipse rx="66.2771" fill="none" ry="16.3574" cx="-132.2771" cy="310.8886"/>
    </g>
    <g font-style="italic" font-size="13" font-weight="bold" font-family="sans-serif" transform="matrix(0.6765,0,0,0.6765,285.4706,215.7941)">
      <text xml:space="preserve" x="-173.7771" y="315.3891" onclick="umlload('http://docs.oracle.com/javase/6/docs/api/java/util/Map.html')" stroke="none">Map&lt;K, V&gt;</text>
    </g>
    <g fill="rgb(238,238,255)" transform="matrix(0.6765,0,0,0.6765,285.4706,215.7941)" stroke="rgb(238,238,255)">
      <rect width="76.1412" x="-138.04" height="17.9688" y="148.2656" stroke="none"/>
    </g>
    <g fill="rgb(166,166,178)" stroke-miterlimit="1.45" transform="matrix(0.6765,0,0,0.6765,285.4706,215.7941)" stroke-linecap="butt" stroke="rgb(166,166,178)">
      <rect fill="none" width="76.1412" x="-138.04" height="17.9688" y="148.2656"/>
    </g>
    <g fill="rgb(238,238,255)" transform="matrix(0.6765,0,0,0.6765,285.4706,215.7941)" stroke="rgb(238,238,255)">
      <rect width="79.68" x="-138.04" height="72.2969" y="166.2344" stroke="none"/>
    </g>
    <g fill="rgb(166,166,178)" stroke-miterlimit="1.45" transform="matrix(0.6765,0,0,0.6765,285.4706,215.7941)" stroke-linecap="butt" stroke="rgb(166,166,178)">
      <rect fill="none" width="79.68" x="-138.04" height="72.2969" y="166.2344"/>
    </g>
    <g font-family="sans-serif" transform="matrix(0.6765,0,0,0.6765,285.4706,215.7941)">
      <text xml:space="preserve" x="-132.04" y="161.4043" onclick="umlload('http://docs.oracle.com/javase/6/docs/api/java/lang/package-summary.html')" stroke="none">java.lang</text>
    </g>
    <g fill="rgb(187,187,255)" transform="matrix(0.6765,0,0,0.6765,285.4706,215.7941)" stroke="rgb(187,187,255)">
      <rect x="-130.04" y="174.2656" clip-path="url(#clipPath4)" width="57.68" height="23.1328" stroke="none"/>
    </g>
    <g fill="rgb(130,130,178)" stroke-miterlimit="1.45" transform="matrix(0.6765,0,0,0.6765,285.4706,215.7941)" stroke-linecap="butt" stroke="rgb(130,130,178)">
      <rect fill="none" width="57.68" x="-130.04" height="23.1328" y="174.2656"/>
    </g>
    <g font-size="13" font-weight="bold" font-family="sans-serif" transform="matrix(0.6765,0,0,0.6765,285.4706,215.7941)">
      <text xml:space="preserve" x="-125.2" y="190.3325" onclick="umlload('http://docs.oracle.com/javase/6/docs/api/java/lang/Object.html')" stroke="none">Object</text>
    </g>
    <g fill="rgb(187,187,255)" transform="matrix(0.6765,0,0,0.6765,285.4706,215.7941)" stroke="rgb(187,187,255)">
      <rect x="-130.04" y="207.3984" clip-path="url(#clipPath5)" width="53.56" height="23.1328" stroke="none"/>
    </g>
    <g fill="rgb(130,130,178)" stroke-miterlimit="1.45" transform="matrix(0.6765,0,0,0.6765,285.4706,215.7941)" stroke-linecap="butt" stroke="rgb(130,130,178)">
      <rect fill="none" width="53.56" x="-130.04" height="23.1328" y="207.3984"/>
    </g>
    <g font-size="13" font-weight="bold" font-family="sans-serif" transform="matrix(0.6765,0,0,0.6765,285.4706,215.7941)">
      <text xml:space="preserve" x="-125.26" y="223.4653" onclick="umlload('http://docs.oracle.com/javase/6/docs/api/java/lang/String.html')" stroke="none">String</text>
    </g>
    <g fill="rgb(238,238,255)" transform="matrix(0.6765,0,0,0.6765,285.4706,215.7941)" stroke="rgb(238,238,255)">
      <rect width="331.8181" x="-386.27" height="17.9688" y="61.1328" stroke="none"/>
    </g>
    <g fill="rgb(166,166,178)" stroke-miterlimit="1.45" transform="matrix(0.6765,0,0,0.6765,285.4706,215.7941)" stroke-linecap="butt" stroke="rgb(166,166,178)">
      <rect fill="none" width="331.8181" x="-386.27" height="17.9688" y="61.1328"/>
    </g>
    <g fill="rgb(238,238,255)" transform="matrix(0.6765,0,0,0.6765,285.4706,215.7941)" stroke="rgb(238,238,255)">
      <rect width="331.95" x="-386.27" height="39.1641" y="79.1016" stroke="none"/>
    </g>
    <g fill="rgb(166,166,178)" stroke-miterlimit="1.45" transform="matrix(0.6765,0,0,0.6765,285.4706,215.7941)" stroke-linecap="butt" stroke="rgb(166,166,178)">
      <rect fill="none" width="331.95" x="-386.27" height="39.1641" y="79.1016"/>
    </g>
    <g font-family="sans-serif" transform="matrix(0.6765,0,0,0.6765,285.4706,215.7941)">
      <text xml:space="preserve" x="-380.27" y="74.2715" onclick="umlload('../../../../../com/msopentech/odatajclient/proxy/api/context/package-summary.html')" stroke="none">com.msopentech.odatajclient.proxy.api.context</text>
    </g>
    <g fill="rgb(187,187,255)" transform="matrix(0.6765,0,0,0.6765,285.4706,215.7941)" stroke="rgb(187,187,255)">
      <rect x="-378.27" y="87.1328" clip-path="url(#clipPath6)" width="66.95" height="23.1328" stroke="none"/>
    </g>
    <g fill="rgb(130,130,178)" stroke-miterlimit="1.45" transform="matrix(0.6765,0,0,0.6765,285.4706,215.7941)" stroke-linecap="butt" stroke="rgb(130,130,178)">
      <rect fill="none" width="66.95" x="-378.27" height="23.1328" y="87.1328"/>
    </g>
    <g font-size="13" font-weight="bold" font-family="sans-serif" transform="matrix(0.6765,0,0,0.6765,285.4706,215.7941)">
      <text xml:space="preserve" x="-373.295" y="103.1997" onclick="umlload('../../../../../com/msopentech/odatajclient/proxy/api/context/Context.html')" stroke="none">Context</text>
    </g>
    <g fill="rgb(238,238,255)" transform="matrix(0.6765,0,0,0.6765,285.4706,215.7941)" stroke="rgb(238,238,255)">
      <rect width="367.8887" x="-421.29" height="17.9688" y="-26" stroke="none"/>
    </g>
    <g fill="rgb(166,166,178)" stroke-miterlimit="1.45" transform="matrix(0.6765,0,0,0.6765,285.4706,215.7941)" stroke-linecap="butt" stroke="rgb(166,166,178)">
      <rect fill="none" width="367.8887" x="-421.29" height="17.9688" y="-26"/>
    </g>
    <g fill="rgb(238,238,255)" transform="matrix(0.6765,0,0,0.6765,285.4706,215.7941)" stroke="rgb(238,238,255)">
      <rect width="368.36" x="-421.29" height="39.1641" y="-8.0312" stroke="none"/>
    </g>
    <g fill="rgb(166,166,178)" stroke-miterlimit="1.45" transform="matrix(0.6765,0,0,0.6765,285.4706,215.7941)" stroke-linecap="butt" stroke="rgb(166,166,178)">
      <rect fill="none" width="368.36" x="-421.29" height="39.1641" y="-8.0312"/>
    </g>
    <g font-family="sans-serif" transform="matrix(0.6765,0,0,0.6765,285.4706,215.7941)">
      <text xml:space="preserve" x="-415.29" y="-12.8613" onclick="umlload('../../../../../com/msopentech/odatajclient/engine/data/metadata/package-summary.html')" stroke="none">com.msopentech.odatajclient.engine.data.metadata</text>
    </g>
    <g fill="rgb(187,187,255)" transform="matrix(0.6765,0,0,0.6765,285.4706,215.7941)" stroke="rgb(187,187,255)">
      <rect x="-413.29" y="0" clip-path="url(#clipPath7)" width="115.36" height="23.1328" stroke="none"/>
    </g>
    <g fill="rgb(130,130,178)" stroke-miterlimit="1.45" transform="matrix(0.6765,0,0,0.6765,285.4706,215.7941)" stroke-linecap="butt" stroke="rgb(130,130,178)">
      <rect fill="none" width="115.36" x="-413.29" height="23.1328" y="0"/>
    </g>
    <g font-size="13" font-weight="bold" font-family="sans-serif" transform="matrix(0.6765,0,0,0.6765,285.4706,215.7941)">
      <text xml:space="preserve" x="-407.61" y="16.0669" onclick="umlload('../../../../../com/msopentech/odatajclient/engine/data/metadata/EdmMetadata.html')" stroke="none">EdmMetadata</text>
    </g>
    <g fill="rgb(238,238,255)" transform="matrix(0.6765,0,0,0.6765,285.4706,215.7941)" stroke="rgb(238,238,255)">
      <rect width="76.1412" x="117.145" height="17.9688" y="-133.1328" stroke="none"/>
    </g>
    <g fill="rgb(166,166,178)" stroke-miterlimit="1.45" transform="matrix(0.6765,0,0,0.6765,285.4706,215.7941)" stroke-linecap="butt" stroke="rgb(166,166,178)">
      <rect fill="none" width="76.1412" x="117.145" height="17.9688" y="-133.1328"/>
    </g>
    <g fill="rgb(238,238,255)" transform="matrix(0.6765,0,0,0.6765,285.4706,215.7941)" stroke="rgb(238,238,255)">
      <rect width="76.1412" x="117.145" height="39.1641" y="-115.1641" stroke="none"/>
    </g>
    <g fill="rgb(166,166,178)" stroke-miterlimit="1.45" transform="matrix(0.6765,0,0,0.6765,285.4706,215.7941)" stroke-linecap="butt" stroke="rgb(166,166,178)">
      <rect fill="none" width="76.1412" x="117.145" height="39.1641" y="-115.1641"/>
    </g>
    <g font-family="sans-serif" transform="matrix(0.6765,0,0,0.6765,285.4706,215.7941)">
      <text xml:space="preserve" x="123.145" y="-119.9941" onclick="umlload('http://docs.oracle.com/javase/6/docs/api/java/lang/package-summary.html')" stroke="none">java.lang</text>
    </g>
    <g fill="rgb(187,187,255)" transform="matrix(0.6765,0,0,0.6765,285.4706,215.7941)" stroke="rgb(187,187,255)">
      <rect x="125.145" y="-107.1328" clip-path="url(#clipPath8)" width="57.68" height="23.1328" stroke="none"/>
    </g>
    <g fill="rgb(130,130,178)" stroke-miterlimit="1.45" transform="matrix(0.6765,0,0,0.6765,285.4706,215.7941)" stroke-linecap="butt" stroke="rgb(130,130,178)">
      <rect fill="none" width="57.68" x="125.145" height="23.1328" y="-107.1328"/>
    </g>
    <g font-size="13" font-weight="bold" font-family="sans-serif" transform="matrix(0.6765,0,0,0.6765,285.4706,215.7941)">
      <text xml:space="preserve" x="129.985" y="-91.0659" onclick="umlload('http://docs.oracle.com/javase/6/docs/api/java/lang/Object.html')" stroke="none">Object</text>
    </g>
    <g fill="rgb(238,238,255)" transform="matrix(0.6765,0,0,0.6765,285.4706,215.7941)" stroke="rgb(238,238,255)">
      <rect width="277.7122" x="-8" height="17.9688" y="-26" stroke="none"/>
    </g>
    <g fill="rgb(166,166,178)" stroke-miterlimit="1.45" transform="matrix(0.6765,0,0,0.6765,285.4706,215.7941)" stroke-linecap="butt" stroke="rgb(166,166,178)">
      <rect fill="none" width="277.7122" x="-8" height="17.9688" y="-26"/>
    </g>
    <g fill="rgb(238,238,255)" transform="matrix(0.6765,0,0,0.6765,285.4706,215.7941)" stroke="rgb(238,238,255)">
      <rect width="323.97" x="-8" height="351.2772" y="-8.0312" stroke="none"/>
    </g>
    <g fill="rgb(166,166,178)" stroke-miterlimit="1.45" transform="matrix(0.6765,0,0,0.6765,285.4706,215.7941)" stroke-linecap="butt" stroke="rgb(166,166,178)">
      <rect fill="none" width="323.97" x="-8" height="351.2772" y="-8.0312"/>
    </g>
    <g font-family="sans-serif" transform="matrix(0.6765,0,0,0.6765,285.4706,215.7941)">
      <text xml:space="preserve" x="-2" y="-12.8613" onclick="umlload('package-summary.html')" stroke="none">com.msopentech.odatajclient.proxy.api</text>
    </g>
    <g fill="rgb(187,187,255)" transform="matrix(0.6765,0,0,0.6765,285.4706,215.7941)" stroke="rgb(187,187,255)">
      <rect x="0" y="0" clip-path="url(#clipPath9)" width="307.97" height="26.625" stroke="none"/>
      <line clip-path="url(#clipPath9)" fill="none" x1="0" x2="307.97" y1="26.625" y2="26.625" stroke="black"/>
      <line clip-path="url(#clipPath9)" x1="0" x2="307.97" y1="27.625" y2="27.625" stroke="none"/>
      <line clip-path="url(#clipPath9)" fill="none" x1="0" x2="307.97" y1="27.625" y2="27.625" stroke="black"/>
      <rect x="0" y="28.625" clip-path="url(#clipPath9)" width="307.97" height="306.621" stroke="none"/>
    </g>
    <g fill="rgb(130,130,178)" stroke-miterlimit="1.45" transform="matrix(0.6765,0,0,0.6765,285.4706,215.7941)" stroke-linecap="butt" stroke="rgb(130,130,178)">
      <rect fill="none" width="307.97" x="0" height="335.246" y="0"/>
    </g>
    <g font-size="16" font-weight="bold" font-family="sans-serif" transform="matrix(0.6765,0,0,0.6765,285.4706,215.7941)">
      <text xml:space="preserve" x="51.985" y="18.8516" onclick="umlload('#')" stroke="none">EntityContainerFactory</text>
    </g>
    <g font-family="sans-serif" transform="matrix(0.6765,0,0,0.6765,285.4706,215.7941)">
      <text xml:space="preserve" x="4" y="39.1719" stroke="none">+</text>
      <text xml:space="preserve" x="19" y="40.7637" onclick="umlload('#getContext()')" stroke="none">getContext() : Context</text>
      <line y2="43.5938" fill="none" x1="19" x2="158" y1="43.5938"/>
    </g>
    <g font-family="sans-serif" transform="matrix(0.6765,0,0,0.6765,285.4706,215.7941)">
      <text xml:space="preserve" x="4" y="55.1719" stroke="none">+</text>
      <text xml:space="preserve" x="19" y="56.7324" onclick="umlload('#getEntityContainer(java.lang.Class)')" stroke="none">getEntityContainer(Class&lt;T&gt;) : &lt;T&gt; T</text>
    </g>
    <g font-family="sans-serif" transform="matrix(0.6765,0,0,0.6765,285.4706,215.7941)">
      <text xml:space="preserve" x="4" y="71.1719" stroke="none">+</text>
      <text xml:space="preserve" x="19" y="72.7012" onclick="umlload('#getInstance(java.lang.String)')" stroke="none">getInstance(String) : EntityContainerFactory</text>
      <line y2="75.5312" fill="none" x1="19" x2="295" y1="75.5312"/>
    </g>
    <g font-family="sans-serif" transform="matrix(0.6765,0,0,0.6765,285.4706,215.7941)">
      <text xml:space="preserve" x="4" y="87.1719" stroke="none">+</text>
      <text xml:space="preserve" x="19" y="88.6699" onclick="umlload('#getMetadata()')" stroke="none">getMetadata() : EdmMetadata</text>
    </g>
    <g font-family="sans-serif" transform="matrix(0.6765,0,0,0.6765,285.4706,215.7941)">
      <text xml:space="preserve" x="4" y="103.1719" stroke="none">+</text>
      <text xml:space="preserve" x="19" y="104.6387" onclick="umlload('#getServiceRoot()')" stroke="none">getServiceRoot() : String</text>
    </g>
    <g font-family="sans-serif" transform="matrix(0.6765,0,0,0.6765,285.4706,215.7941)">
      <text xml:space="preserve" x="-416" y="368.1543" onclick="umlload('http://www.yworks.com/')" stroke="none">yWorks UML Doclet</text>
    </g>
    <g stroke-miterlimit="1.45" transform="matrix(0.6765,0,0,0.6765,285.4706,215.7941)" stroke-linecap="butt">
      <path fill="none" d="M153.985 -0.0026 L153.985 -69"/>
      <path fill="white" d="M153.985 -84 L147.985 -68 L159.985 -68 Z" stroke="none"/>
      <path fill="none" d="M153.985 -84 L147.985 -68 L159.985 -68 Z"/>
      <path fill="none" d="M-0.007 11.5664 L-297.93 11.5664"/>
      <line stroke-linecap="square" transform="matrix(-1,0,0,-1,-297.93,11.5664)" fill="none" x1="0" x2="-14" y1="0" y2="-4" stroke-miterlimit="10"/>
      <line stroke-linecap="square" transform="matrix(-1,0,0,-1,-297.93,11.5664)" fill="none" x1="0" x2="-14" y1="0" y2="4" stroke-miterlimit="10"/>
    </g>
    <g stroke-miterlimit="1.45" transform="matrix(0.6765,0,0,0.6765,285.4706,215.7941)" stroke-linecap="butt">
      <path fill="none" d="M-0.0267 98.6992 L-311.32 98.6992"/>
      <line stroke-linecap="square" transform="matrix(-1,0,0,-1,-311.32,98.6992)" fill="none" x1="0" x2="-14" y1="0" y2="-4" stroke-miterlimit="10"/>
      <line stroke-linecap="square" transform="matrix(-1,0,0,-1,-311.32,98.6992)" fill="none" x1="0" x2="-14" y1="0" y2="4" stroke-miterlimit="10"/>
    </g>
    <g stroke-miterlimit="1.45" transform="matrix(0.6765,0,0,0.6765,285.4706,215.7941)" stroke-linecap="butt">
      <path fill="none" d="M0.008 185.832 L-72.36 185.832"/>
      <line stroke-linecap="square" transform="matrix(-1,0,0,-1,-72.36,185.832)" fill="none" x1="0" x2="-14" y1="0" y2="-4" stroke-miterlimit="10"/>
      <line stroke-linecap="square" transform="matrix(-1,0,0,-1,-72.36,185.832)" fill="none" x1="0" x2="-14" y1="0" y2="4" stroke-miterlimit="10"/>
    </g>
    <g stroke-miterlimit="1.45" transform="matrix(0.6765,0,0,0.6765,285.4706,215.7941)" stroke-linecap="butt">
      <path fill="none" d="M0.0211 218.9648 L-76.48 218.9648"/>
      <line stroke-linecap="square" transform="matrix(-1,0,0,-1,-76.48,218.9648)" fill="none" x1="0" x2="-14" y1="0" y2="-4" stroke-miterlimit="10"/>
      <line stroke-linecap="square" transform="matrix(-1,0,0,-1,-76.48,218.9648)" fill="none" x1="0" x2="-14" y1="0" y2="4" stroke-miterlimit="10"/>
    </g>
    <g stroke-miterlimit="1.45" transform="matrix(0.6765,0,0,0.6765,285.4706,215.7941)" stroke-linecap="butt">
      <path fill="none" d="M-0.0137 310.8886 L-66 310.8886"/>
      <line stroke-linecap="square" transform="matrix(-1,0,0,-1,-66,310.8886)" fill="none" x1="0" x2="-14" y1="0" y2="-4" stroke-miterlimit="10"/>
      <line stroke-linecap="square" transform="matrix(-1,0,0,-1,-66,310.8886)" fill="none" x1="0" x2="-14" y1="0" y2="4" stroke-miterlimit="10"/>
    </g>
    <g stroke-dasharray="6,2" stroke-miterlimit="1.45" transform="matrix(0.6765,0,0,0.6765,285.4706,215.7941)" stroke-linecap="butt">
      <path fill="none" d="M307.9878 11.5664 L373.97 11.5664"/>
      <line stroke-linecap="square" transform="matrix(1,0,0,1,373.97,11.5664)" fill="none" x1="0" x2="-14" y1="0" y2="-4" stroke-dasharray="none" stroke-miterlimit="10"/>
      <line stroke-linecap="square" transform="matrix(1,0,0,1,373.97,11.5664)" fill="none" x1="0" x2="-14" y1="0" y2="4" stroke-dasharray="none" stroke-miterlimit="10"/>
    </g>
  </g>
</svg>
