<?xml version="1.0" encoding="UTF-8"?><svg xmlns="http://www.w3.org/2000/svg" xmlns:xlink="http://www.w3.org/1999/xlink" fill-opacity="1" color-rendering="auto" color-interpolation="auto" stroke="black" text-rendering="auto" stroke-linecap="square" width="598" stroke-miterlimit="10" stroke-opacity="1" shape-rendering="auto" fill="black" stroke-dasharray="none" font-weight="normal" stroke-width="1" height="598" font-family="'Dialog'" font-style="normal" stroke-linejoin="miter" font-size="12" stroke-dashoffset="0" image-rendering="auto">
  <!--Generated by ySVG-->
  <defs id="genericDefs"/>
  <g>
    <defs id="defs1">
      <clipPath clipPathUnits="userSpaceOnUse" id="clipPath1">
        <path d="M0 0 L598 0 L598 598 L0 598 L0 0 Z"/>
      </clipPath>
      <clipPath clipPathUnits="userSpaceOnUse" id="clipPath2">
        <path d="M213.3862 42.3574 C213.3862 51.3913 167.409 58.7147 110.6931 58.7147 C53.9773 58.7147 8 51.3913 8 42.3574 C8 33.3234 53.9773 26 110.6931 26 C167.409 26 213.3862 33.3234 213.3862 42.3574 Z"/>
      </clipPath>
      <clipPath clipPathUnits="userSpaceOnUse" id="clipPath3">
        <path d="M542.5869 120.0721 C542.5869 129.106 422.9155 136.4295 275.2934 136.4295 C127.6713 136.4295 8 129.106 8 120.0721 C8 111.0382 127.6713 103.7147 275.2934 103.7147 C422.9155 103.7147 542.5869 111.0382 542.5869 120.0721 Z"/>
      </clipPath>
      <clipPath clipPathUnits="userSpaceOnUse" id="clipPath4">
        <path d="M1192.2483 197.7868 C1192.2483 206.8208 927.1453 214.1442 600.1241 214.1442 C273.103 214.1442 8 206.8208 8 197.7868 C8 188.7529 273.103 181.4295 600.1241 181.4295 C927.1453 181.4295 1192.2483 188.7529 1192.2483 197.7868 Z"/>
      </clipPath>
      <clipPath clipPathUnits="userSpaceOnUse" id="clipPath5">
        <path d="M216.2995 275.5016 C216.2995 284.5355 169.6701 291.8589 112.1498 291.8589 C54.6294 291.8589 8 284.5355 8 275.5016 C8 266.4677 54.6294 259.1442 112.1498 259.1442 C169.6701 259.1442 216.2995 266.4677 216.2995 275.5016 Z"/>
      </clipPath>
      <clipPath clipPathUnits="userSpaceOnUse" id="clipPath6">
        <path d="M791.6723 353.2163 C791.6723 362.2502 616.2413 369.5737 399.8362 369.5737 C183.431 369.5737 8 362.2502 8 353.2163 C8 344.1824 183.431 336.8589 399.8362 336.8589 C616.2413 336.8589 791.6723 344.1824 791.6723 353.2163 Z"/>
      </clipPath>
      <clipPath clipPathUnits="userSpaceOnUse" id="clipPath7">
        <path d="M8 414.5737 L183.1 414.5737 L183.1 437.7065 L8 437.7065 L8 414.5737 Z"/>
      </clipPath>
      <clipPath clipPathUnits="userSpaceOnUse" id="clipPath8">
        <path d="M228.1 414.5737 L372.3 414.5737 L372.3 437.7065 L228.1 437.7065 L228.1 414.5737 Z"/>
      </clipPath>
      <clipPath clipPathUnits="userSpaceOnUse" id="clipPath9">
        <path d="M417.3 414.5737 L530.6 414.5737 L530.6 437.7065 L417.3 437.7065 L417.3 414.5737 Z"/>
      </clipPath>
      <clipPath clipPathUnits="userSpaceOnUse" id="clipPath10">
        <path d="M8 482.7065 L189.28 482.7065 L189.28 505.8393 L8 505.8393 L8 482.7065 Z"/>
      </clipPath>
      <clipPath clipPathUnits="userSpaceOnUse" id="clipPath11">
        <path d="M234.28 482.7065 L273.42 482.7065 L273.42 505.8393 L234.28 505.8393 L234.28 482.7065 Z"/>
      </clipPath>
      <clipPath clipPathUnits="userSpaceOnUse" id="clipPath12">
        <path d="M8 550.8393 L120.27 550.8393 L120.27 573.9721 L8 573.9721 L8 550.8393 Z"/>
      </clipPath>
      <clipPath clipPathUnits="userSpaceOnUse" id="clipPath13">
        <path d="M8 618.9721 L158.38 618.9721 L158.38 642.1049 L8 642.1049 L8 618.9721 Z"/>
      </clipPath>
      <clipPath clipPathUnits="userSpaceOnUse" id="clipPath14">
        <path d="M203.38 618.9721 L415.56 618.9721 L415.56 642.1049 L203.38 642.1049 L203.38 618.9721 Z"/>
      </clipPath>
      <script type="text/ecmascript"><![CDATA[
function umlload(newLocation)
{
if (newLocation.charAt(0) != '#') {
if (newLocation.indexOf("://") > -1) {
window.parent.location.href = newLocation;
} else {
var tmp = window.parent.location.href;
tmp = tmp.substring(0, tmp.lastIndexOf("/") + 1);
window.parent.location.href = tmp.concat(newLocation);
}
} else {
window.parent.location.hash = newLocation;
}
}
]]></script>
    </defs>
    <g fill="rgb(238,238,255)" transform="matrix(0.4979,0,0,0.4979,0,127.965)" stroke="rgb(238,238,255)">
      <rect width="277.7122" x="0" height="17.9688" y="0" stroke="none"/>
    </g>
    <g fill="rgb(166,166,178)" stroke-miterlimit="1.45" transform="matrix(0.4979,0,0,0.4979,0,127.965)" stroke-linecap="butt" stroke="rgb(166,166,178)">
      <rect fill="none" width="277.7122" x="0" height="17.9688" y="0"/>
    </g>
    <g fill="rgb(238,238,255)" transform="matrix(0.4979,0,0,0.4979,0,127.965)" stroke="rgb(238,238,255)">
      <rect width="1200.2483" x="0" height="632.1362" y="17.9688" stroke="none"/>
    </g>
    <g fill="rgb(166,166,178)" stroke-miterlimit="1.45" transform="matrix(0.4979,0,0,0.4979,0,127.965)" stroke-linecap="butt" stroke="rgb(166,166,178)">
      <rect fill="none" width="1200.2483" x="0" height="632.1362" y="17.9688"/>
    </g>
    <g font-family="sans-serif" transform="matrix(0.4979,0,0,0.4979,0,127.965)">
      <text xml:space="preserve" x="6" y="13.1387" onclick="umlload('#')" stroke="none">com.msopentech.odatajclient.proxy.api</text>
    </g>
    <g fill="rgb(221,221,255)" transform="matrix(0.4979,0,0,0.4979,0,127.965)" stroke="rgb(221,221,255)">
      <rect x="8" y="26" clip-path="url(#clipPath2)" width="205.3862" height="32.7147" stroke="none"/>
    </g>
    <g fill="rgb(154,154,178)" stroke-miterlimit="1.45" transform="matrix(0.4979,0,0,0.4979,0,127.965)" stroke-linecap="butt" stroke="rgb(154,154,178)">
      <ellipse rx="102.6931" fill="none" ry="16.3574" cx="110.6931" cy="42.3574"/>
    </g>
    <g font-style="italic" font-size="13" font-weight="bold" font-family="sans-serif" transform="matrix(0.4979,0,0,0.4979,0,127.965)">
      <text xml:space="preserve" x="44.1931" y="46.8579" onclick="umlload('AbstractContainer.html')" stroke="none">AbstractContainer</text>
    </g>
    <g fill="rgb(221,221,255)" transform="matrix(0.4979,0,0,0.4979,0,127.965)" stroke="rgb(221,221,255)">
      <rect x="8" y="103.7147" clip-path="url(#clipPath3)" width="534.5869" height="32.7147" stroke="none"/>
    </g>
    <g fill="rgb(154,154,178)" stroke-miterlimit="1.45" transform="matrix(0.4979,0,0,0.4979,0,127.965)" stroke-linecap="butt" stroke="rgb(154,154,178)">
      <ellipse rx="267.2934" fill="none" ry="16.3574" cx="275.2934" cy="120.0721"/>
    </g>
    <g font-style="italic" font-size="13" font-weight="bold" font-family="sans-serif" transform="matrix(0.4979,0,0,0.4979,0,127.965)">
      <text xml:space="preserve" x="95.7934" y="124.5726" onclick="umlload('AbstractEntityCollection.html')" stroke="none">AbstractEntityCollection&lt;T extends Serializable&gt;</text>
    </g>
    <g fill="rgb(221,221,255)" transform="matrix(0.4979,0,0,0.4979,0,127.965)" stroke="rgb(221,221,255)">
      <rect x="8" y="181.4295" clip-path="url(#clipPath4)" width="1184.2483" height="32.7147" stroke="none"/>
    </g>
    <g fill="rgb(154,154,178)" stroke-miterlimit="1.45" transform="matrix(0.4979,0,0,0.4979,0,127.965)" stroke-linecap="butt" stroke="rgb(154,154,178)">
      <ellipse rx="592.1241" fill="none" ry="16.3574" cx="600.1241" cy="197.7868"/>
    </g>
    <g font-style="italic" font-size="13" font-weight="bold" font-family="sans-serif" transform="matrix(0.4979,0,0,0.4979,0,127.965)">
      <text xml:space="preserve" x="197.6241" y="202.2873" onclick="umlload('AbstractEntitySet.html')" stroke="none">AbstractEntitySet&lt;T extends Serializable, KEY extends Serializable, EC extends AbstractEntityCollection&lt;T&gt;&gt;</text>
    </g>
    <g fill="rgb(221,221,255)" transform="matrix(0.4979,0,0,0.4979,0,127.965)" stroke="rgb(221,221,255)">
      <rect x="8" y="259.1442" clip-path="url(#clipPath5)" width="208.2995" height="32.7147" stroke="none"/>
    </g>
    <g fill="rgb(154,154,178)" stroke-miterlimit="1.45" transform="matrix(0.4979,0,0,0.4979,0,127.965)" stroke-linecap="butt" stroke="rgb(154,154,178)">
      <ellipse rx="104.1498" fill="none" ry="16.3574" cx="112.1498" cy="275.5016"/>
    </g>
    <g font-style="italic" font-size="13" font-weight="bold" font-family="sans-serif" transform="matrix(0.4979,0,0,0.4979,0,127.965)">
      <text xml:space="preserve" x="44.6498" y="280.0021" onclick="umlload('AbstractOpenType.html')" stroke="none">AbstractOpenType</text>
    </g>
    <g fill="rgb(221,221,255)" transform="matrix(0.4979,0,0,0.4979,0,127.965)" stroke="rgb(221,221,255)">
      <rect x="8" y="336.8589" clip-path="url(#clipPath6)" width="783.6723" height="32.7147" stroke="none"/>
    </g>
    <g fill="rgb(154,154,178)" stroke-miterlimit="1.45" transform="matrix(0.4979,0,0,0.4979,0,127.965)" stroke-linecap="butt" stroke="rgb(154,154,178)">
      <ellipse rx="391.8362" fill="none" ry="16.3574" cx="399.8362" cy="353.2163"/>
    </g>
    <g font-style="italic" font-size="13" font-weight="bold" font-family="sans-serif" transform="matrix(0.4979,0,0,0.4979,0,127.965)">
      <text xml:space="preserve" x="134.8362" y="357.7168" onclick="umlload('Query.html')" stroke="none">Query&lt;T extends Serializable, EC extends AbstractEntityCollection&lt;T&gt;&gt;</text>
    </g>
    <g fill="rgb(204,204,255)" transform="matrix(0.4979,0,0,0.4979,0,127.965)" stroke="rgb(204,204,255)">
      <rect x="8" y="414.5737" clip-path="url(#clipPath7)" width="175.1" height="23.1328" stroke="none"/>
    </g>
    <g fill="rgb(142,142,178)" stroke-miterlimit="1.45" transform="matrix(0.4979,0,0,0.4979,0,127.965)" stroke-linecap="butt" stroke="rgb(142,142,178)">
      <rect fill="none" width="175.1" x="8" height="23.1328" y="414.5737"/>
    </g>
    <g font-size="13" font-weight="bold" font-family="sans-serif" transform="matrix(0.4979,0,0,0.4979,0,127.965)">
      <text xml:space="preserve" x="14.55" y="430.6406" onclick="umlload('AbstractComplexType.html')" stroke="none">AbstractComplexType</text>
    </g>
    <g fill="rgb(204,204,255)" transform="matrix(0.4979,0,0,0.4979,0,127.965)" stroke="rgb(204,204,255)">
      <rect x="228.1" y="414.5737" clip-path="url(#clipPath8)" width="144.2" height="23.1328" stroke="none"/>
    </g>
    <g fill="rgb(142,142,178)" stroke-miterlimit="1.45" transform="matrix(0.4979,0,0,0.4979,0,127.965)" stroke-linecap="butt" stroke="rgb(142,142,178)">
      <rect fill="none" width="144.2" x="228.1" height="23.1328" y="414.5737"/>
    </g>
    <g font-size="13" font-weight="bold" font-family="sans-serif" transform="matrix(0.4979,0,0,0.4979,0,127.965)">
      <text xml:space="preserve" x="234.2" y="430.6406" onclick="umlload('AbstractEntityKey.html')" stroke="none">AbstractEntityKey</text>
    </g>
    <g fill="rgb(204,204,255)" transform="matrix(0.4979,0,0,0.4979,0,127.965)" stroke="rgb(204,204,255)">
      <rect x="417.3" y="414.5737" clip-path="url(#clipPath9)" width="113.3" height="23.1328" stroke="none"/>
    </g>
    <g fill="rgb(142,142,178)" stroke-miterlimit="1.45" transform="matrix(0.4979,0,0,0.4979,0,127.965)" stroke-linecap="butt" stroke="rgb(142,142,178)">
      <rect fill="none" width="113.3" x="417.3" height="23.1328" y="414.5737"/>
    </g>
    <g font-size="13" font-weight="bold" font-family="sans-serif" transform="matrix(0.4979,0,0,0.4979,0,127.965)">
      <text xml:space="preserve" x="422.95" y="430.6406" onclick="umlload('AsyncCall.html')" stroke="none">AsyncCall&lt;V&gt;</text>
    </g>
    <g fill="rgb(187,187,255)" transform="matrix(0.4979,0,0,0.4979,0,127.965)" stroke="rgb(187,187,255)">
      <rect x="8" y="482.7065" clip-path="url(#clipPath10)" width="181.28" height="23.1328" stroke="none"/>
    </g>
    <g fill="rgb(130,130,178)" stroke-miterlimit="1.45" transform="matrix(0.4979,0,0,0.4979,0,127.965)" stroke-linecap="butt" stroke="rgb(130,130,178)">
      <rect fill="none" width="181.28" x="8" height="23.1328" y="482.7065"/>
    </g>
    <g font-size="13" font-weight="bold" font-family="sans-serif" transform="matrix(0.4979,0,0,0.4979,0,127.965)">
      <text xml:space="preserve" x="14.64" y="498.7734" onclick="umlload('EntityContainerFactory.html')" stroke="none">EntityContainerFactory</text>
    </g>
    <g fill="rgb(187,187,255)" transform="matrix(0.4979,0,0,0.4979,0,127.965)" stroke="rgb(187,187,255)">
      <rect x="234.28" y="482.7065" clip-path="url(#clipPath11)" width="39.14" height="23.1328" stroke="none"/>
    </g>
    <g fill="rgb(130,130,178)" stroke-miterlimit="1.45" transform="matrix(0.4979,0,0,0.4979,0,127.965)" stroke-linecap="butt" stroke="rgb(130,130,178)">
      <rect fill="none" width="39.14" x="234.28" height="23.1328" y="482.7065"/>
    </g>
    <g font-size="13" font-weight="bold" font-family="sans-serif" transform="matrix(0.4979,0,0,0.4979,0,127.965)">
      <text xml:space="preserve" x="238.85" y="498.7734" onclick="umlload('Sort.html')" stroke="none">Sort</text>
    </g>
    <g fill="rgb(170,170,255)" transform="matrix(0.4979,0,0,0.4979,0,127.965)" stroke="rgb(170,170,255)">
      <rect x="8" y="550.8393" clip-path="url(#clipPath12)" width="112.27" height="23.1328" stroke="none"/>
    </g>
    <g fill="rgb(118,118,178)" stroke-miterlimit="1.45" transform="matrix(0.4979,0,0,0.4979,0,127.965)" stroke-linecap="butt" stroke="rgb(118,118,178)">
      <rect fill="none" width="112.27" x="8" height="23.1328" y="550.8393"/>
    </g>
    <g font-size="13" font-weight="bold" font-family="sans-serif" transform="matrix(0.4979,0,0,0.4979,0,127.965)">
      <text xml:space="preserve" x="13.635" y="566.9062" onclick="umlload('Sort.Direction.html')" stroke="none">Sort.Direction</text>
    </g>
    <g fill="rgb(153,153,255)" transform="matrix(0.4979,0,0,0.4979,0,127.965)" stroke="rgb(153,153,255)">
      <rect x="8" y="618.9721" clip-path="url(#clipPath13)" width="150.38" height="23.1328" stroke="none"/>
    </g>
    <g fill="rgb(106,106,178)" stroke-miterlimit="1.45" transform="matrix(0.4979,0,0,0.4979,0,127.965)" stroke-linecap="butt" stroke="rgb(106,106,178)">
      <rect fill="none" width="150.38" x="8" height="23.1328" y="618.9721"/>
    </g>
    <g font-size="13" font-weight="bold" font-family="sans-serif" transform="matrix(0.4979,0,0,0.4979,0,127.965)">
      <text xml:space="preserve" x="14.19" y="635.039" onclick="umlload('NoResultException.html')" stroke="none">NoResultException</text>
    </g>
    <g fill="rgb(153,153,255)" transform="matrix(0.4979,0,0,0.4979,0,127.965)" stroke="rgb(153,153,255)">
      <rect x="203.38" y="618.9721" clip-path="url(#clipPath14)" width="212.18" height="23.1328" stroke="none"/>
    </g>
    <g fill="rgb(106,106,178)" stroke-miterlimit="1.45" transform="matrix(0.4979,0,0,0.4979,0,127.965)" stroke-linecap="butt" stroke="rgb(106,106,178)">
      <rect fill="none" width="212.18" x="203.38" height="23.1328" y="618.9721"/>
    </g>
    <g font-size="13" font-weight="bold" font-family="sans-serif" transform="matrix(0.4979,0,0,0.4979,0,127.965)">
      <text xml:space="preserve" x="210.47" y="635.039" onclick="umlload('NonUniqueResultException.html')" stroke="none">NonUniqueResultException</text>
    </g>
    <g font-family="sans-serif" transform="matrix(0.4979,0,0,0.4979,0,127.965)">
      <text xml:space="preserve" x="6" y="675.1543" onclick="umlload('http://www.yworks.com/')" stroke="none">yWorks UML Doclet</text>
    </g>
  </g>
</svg>
