<?xml version="1.0" encoding="UTF-8"?><svg xmlns="http://www.w3.org/2000/svg" xmlns:xlink="http://www.w3.org/1999/xlink" fill-opacity="1" color-rendering="auto" color-interpolation="auto" stroke="black" text-rendering="auto" stroke-linecap="square" width="598" stroke-miterlimit="10" stroke-opacity="1" shape-rendering="auto" fill="black" stroke-dasharray="none" font-weight="normal" stroke-width="1" height="598" font-family="'Dialog'" font-style="normal" stroke-linejoin="miter" font-size="12" stroke-dashoffset="0" image-rendering="auto">
  <!--Generated by ySVG-->
  <defs id="genericDefs"/>
  <g>
    <defs id="defs1">
      <clipPath clipPathUnits="userSpaceOnUse" id="clipPath1">
        <path d="M0 0 L598 0 L598 598 L0 598 L0 0 Z"/>
      </clipPath>
      <clipPath clipPathUnits="userSpaceOnUse" id="clipPath2">
        <path d="M-130.04 87.1328 L-76.48 87.1328 L-76.48 110.2656 L-130.04 110.2656 L-130.04 87.1328 Z"/>
      </clipPath>
      <clipPath clipPathUnits="userSpaceOnUse" id="clipPath3">
        <path d="M-325.74 -0 L-213.47 -0 L-213.47 23.1328 L-325.74 23.1328 L-325.74 -0 Z"/>
      </clipPath>
      <clipPath clipPathUnits="userSpaceOnUse" id="clipPath4">
        <path d="M590.7331 -100.3574 C590.7331 -91.3234 506.6045 -84 402.8266 -84 C299.0486 -84 214.92 -91.3234 214.92 -100.3574 C214.92 -109.3913 299.0486 -116.7147 402.8266 -116.7147 C506.6045 -116.7147 590.7331 -109.3913 590.7331 -100.3574 Z"/>
      </clipPath>
      <clipPath clipPathUnits="userSpaceOnUse" id="clipPath5">
        <path d="M111.24 -107.1328 L168.92 -107.1328 L168.92 -84 L111.24 -84 L111.24 -107.1328 Z"/>
      </clipPath>
      <clipPath clipPathUnits="userSpaceOnUse" id="clipPath6">
        <path d="M0 -0 L280.16 -0 L280.16 118.2656 L0 118.2656 L0 -0 Z"/>
      </clipPath>
      <script type="text/ecmascript"><![CDATA[
function umlload(newLocation)
{
if (newLocation.charAt(0) != '#') {
if (newLocation.indexOf("://") > -1) {
window.parent.location.href = newLocation;
} else {
var tmp = window.parent.location.href;
tmp = tmp.substring(0, tmp.lastIndexOf("/") + 1);
window.parent.location.href = tmp.concat(newLocation);
}
} else {
window.parent.location.hash = newLocation;
}
}
]]></script>
    </defs>
    <g fill="rgb(238,238,255)" transform="matrix(0.6409,0,0,0.6409,214.075,292.911)" stroke="rgb(238,238,255)">
      <rect width="76.1412" x="-138.04" height="17.9688" y="61.1328" stroke="none"/>
    </g>
    <g fill="rgb(166,166,178)" stroke-miterlimit="1.45" transform="matrix(0.6409,0,0,0.6409,214.075,292.911)" stroke-linecap="butt" stroke="rgb(166,166,178)">
      <rect fill="none" width="76.1412" x="-138.04" height="17.9688" y="61.1328"/>
    </g>
    <g fill="rgb(238,238,255)" transform="matrix(0.6409,0,0,0.6409,214.075,292.911)" stroke="rgb(238,238,255)">
      <rect width="79.56" x="-138.04" height="39.1641" y="79.1016" stroke="none"/>
    </g>
    <g fill="rgb(166,166,178)" stroke-miterlimit="1.45" transform="matrix(0.6409,0,0,0.6409,214.075,292.911)" stroke-linecap="butt" stroke="rgb(166,166,178)">
      <rect fill="none" width="79.56" x="-138.04" height="39.1641" y="79.1016"/>
    </g>
    <g font-family="sans-serif" transform="matrix(0.6409,0,0,0.6409,214.075,292.911)">
      <text xml:space="preserve" x="-132.04" y="74.2715" onclick="umlload('http://docs.oracle.com/javase/6/docs/api/java/lang/package-summary.html')" stroke="none">java.lang</text>
    </g>
    <g fill="rgb(187,187,255)" transform="matrix(0.6409,0,0,0.6409,214.075,292.911)" stroke="rgb(187,187,255)">
      <rect x="-130.04" y="87.1328" clip-path="url(#clipPath2)" width="53.56" height="23.1328" stroke="none"/>
    </g>
    <g fill="rgb(130,130,178)" stroke-miterlimit="1.45" transform="matrix(0.6409,0,0,0.6409,214.075,292.911)" stroke-linecap="butt" stroke="rgb(130,130,178)">
      <rect fill="none" width="53.56" x="-130.04" height="23.1328" y="87.1328"/>
    </g>
    <g font-size="13" font-weight="bold" font-family="sans-serif" transform="matrix(0.6409,0,0,0.6409,214.075,292.911)">
      <text xml:space="preserve" x="-125.26" y="103.1997" onclick="umlload('http://docs.oracle.com/javase/6/docs/api/java/lang/String.html')" stroke="none">String</text>
    </g>
    <g fill="rgb(238,238,255)" transform="matrix(0.6409,0,0,0.6409,214.075,292.911)" stroke="rgb(238,238,255)">
      <rect width="277.7122" x="-333.74" height="17.9688" y="-26" stroke="none"/>
    </g>
    <g fill="rgb(166,166,178)" stroke-miterlimit="1.45" transform="matrix(0.6409,0,0,0.6409,214.075,292.911)" stroke-linecap="butt" stroke="rgb(166,166,178)">
      <rect fill="none" width="277.7122" x="-333.74" height="17.9688" y="-26"/>
    </g>
    <g fill="rgb(238,238,255)" transform="matrix(0.6409,0,0,0.6409,214.075,292.911)" stroke="rgb(238,238,255)">
      <rect width="277.7122" x="-333.74" height="39.1641" y="-8.0312" stroke="none"/>
    </g>
    <g fill="rgb(166,166,178)" stroke-miterlimit="1.45" transform="matrix(0.6409,0,0,0.6409,214.075,292.911)" stroke-linecap="butt" stroke="rgb(166,166,178)">
      <rect fill="none" width="277.7122" x="-333.74" height="39.1641" y="-8.0312"/>
    </g>
    <g font-family="sans-serif" transform="matrix(0.6409,0,0,0.6409,214.075,292.911)">
      <text xml:space="preserve" x="-327.74" y="-12.8613" onclick="umlload('../../../../../com/msopentech/odatajclient/proxy/api/package-summary.html')" stroke="none">com.msopentech.odatajclient.proxy.api</text>
    </g>
    <g fill="rgb(170,170,255)" transform="matrix(0.6409,0,0,0.6409,214.075,292.911)" stroke="rgb(170,170,255)">
      <rect x="-325.74" y="0" clip-path="url(#clipPath3)" width="112.27" height="23.1328" stroke="none"/>
    </g>
    <g fill="rgb(118,118,178)" stroke-miterlimit="1.45" transform="matrix(0.6409,0,0,0.6409,214.075,292.911)" stroke-linecap="butt" stroke="rgb(118,118,178)">
      <rect fill="none" width="112.27" x="-325.74" height="23.1328" y="0"/>
    </g>
    <g font-size="13" font-weight="bold" font-family="sans-serif" transform="matrix(0.6409,0,0,0.6409,214.075,292.911)">
      <text xml:space="preserve" x="-320.105" y="16.0669" onclick="umlload('../../../../../com/msopentech/odatajclient/proxy/api/Sort.Direction.html')" stroke="none">Sort.Direction</text>
    </g>
    <g fill="rgb(238,238,255)" transform="matrix(0.6409,0,0,0.6409,214.075,292.911)" stroke="rgb(238,238,255)">
      <rect width="67.654" x="206.92" height="17.9688" y="-142.7147" stroke="none"/>
    </g>
    <g fill="rgb(166,166,178)" stroke-miterlimit="1.45" transform="matrix(0.6409,0,0,0.6409,214.075,292.911)" stroke-linecap="butt" stroke="rgb(166,166,178)">
      <rect fill="none" width="67.654" x="206.92" height="17.9688" y="-142.7147"/>
    </g>
    <g fill="rgb(238,238,255)" transform="matrix(0.6409,0,0,0.6409,214.075,292.911)" stroke="rgb(238,238,255)">
      <rect width="391.8131" x="206.92" height="48.746" y="-124.746" stroke="none"/>
    </g>
    <g fill="rgb(166,166,178)" stroke-miterlimit="1.45" transform="matrix(0.6409,0,0,0.6409,214.075,292.911)" stroke-linecap="butt" stroke="rgb(166,166,178)">
      <rect fill="none" width="391.8131" x="206.92" height="48.746" y="-124.746"/>
    </g>
    <g font-family="sans-serif" transform="matrix(0.6409,0,0,0.6409,214.075,292.911)">
      <text xml:space="preserve" x="212.92" y="-129.5761" onclick="umlload('http://docs.oracle.com/javase/6/docs/api/java/util/package-summary.html')" stroke="none">java.util</text>
    </g>
    <g fill="rgb(221,221,255)" transform="matrix(0.6409,0,0,0.6409,214.075,292.911)" stroke="rgb(221,221,255)">
      <rect x="214.92" y="-116.7147" clip-path="url(#clipPath4)" width="375.8131" height="32.7147" stroke="none"/>
    </g>
    <g fill="rgb(154,154,178)" stroke-miterlimit="1.45" transform="matrix(0.6409,0,0,0.6409,214.075,292.911)" stroke-linecap="butt" stroke="rgb(154,154,178)">
      <ellipse rx="187.9066" fill="none" ry="16.3574" cx="402.8266" cy="-100.3574"/>
    </g>
    <g font-style="italic" font-size="13" font-weight="bold" font-family="sans-serif" transform="matrix(0.6409,0,0,0.6409,214.075,292.911)">
      <text xml:space="preserve" x="277.8266" y="-95.8569" onclick="umlload('http://docs.oracle.com/javase/6/docs/api/java/util/Map.Entry.html')" stroke="none">Map.Entry&lt;String, Sort.Direction&gt;</text>
    </g>
    <g fill="rgb(238,238,255)" transform="matrix(0.6409,0,0,0.6409,214.075,292.911)" stroke="rgb(238,238,255)">
      <rect width="76.1412" x="103.24" height="17.9688" y="-133.1328" stroke="none"/>
    </g>
    <g fill="rgb(166,166,178)" stroke-miterlimit="1.45" transform="matrix(0.6409,0,0,0.6409,214.075,292.911)" stroke-linecap="butt" stroke="rgb(166,166,178)">
      <rect fill="none" width="76.1412" x="103.24" height="17.9688" y="-133.1328"/>
    </g>
    <g fill="rgb(238,238,255)" transform="matrix(0.6409,0,0,0.6409,214.075,292.911)" stroke="rgb(238,238,255)">
      <rect width="76.1412" x="103.24" height="39.1641" y="-115.1641" stroke="none"/>
    </g>
    <g fill="rgb(166,166,178)" stroke-miterlimit="1.45" transform="matrix(0.6409,0,0,0.6409,214.075,292.911)" stroke-linecap="butt" stroke="rgb(166,166,178)">
      <rect fill="none" width="76.1412" x="103.24" height="39.1641" y="-115.1641"/>
    </g>
    <g font-family="sans-serif" transform="matrix(0.6409,0,0,0.6409,214.075,292.911)">
      <text xml:space="preserve" x="109.24" y="-119.9941" onclick="umlload('http://docs.oracle.com/javase/6/docs/api/java/lang/package-summary.html')" stroke="none">java.lang</text>
    </g>
    <g fill="rgb(187,187,255)" transform="matrix(0.6409,0,0,0.6409,214.075,292.911)" stroke="rgb(187,187,255)">
      <rect x="111.24" y="-107.1328" clip-path="url(#clipPath5)" width="57.68" height="23.1328" stroke="none"/>
    </g>
    <g fill="rgb(130,130,178)" stroke-miterlimit="1.45" transform="matrix(0.6409,0,0,0.6409,214.075,292.911)" stroke-linecap="butt" stroke="rgb(130,130,178)">
      <rect fill="none" width="57.68" x="111.24" height="23.1328" y="-107.1328"/>
    </g>
    <g font-size="13" font-weight="bold" font-family="sans-serif" transform="matrix(0.6409,0,0,0.6409,214.075,292.911)">
      <text xml:space="preserve" x="116.08" y="-91.0659" onclick="umlload('http://docs.oracle.com/javase/6/docs/api/java/lang/Object.html')" stroke="none">Object</text>
    </g>
    <g fill="rgb(238,238,255)" transform="matrix(0.6409,0,0,0.6409,214.075,292.911)" stroke="rgb(238,238,255)">
      <rect width="277.7122" x="-8" height="17.9688" y="-26" stroke="none"/>
    </g>
    <g fill="rgb(166,166,178)" stroke-miterlimit="1.45" transform="matrix(0.6409,0,0,0.6409,214.075,292.911)" stroke-linecap="butt" stroke="rgb(166,166,178)">
      <rect fill="none" width="277.7122" x="-8" height="17.9688" y="-26"/>
    </g>
    <g fill="rgb(238,238,255)" transform="matrix(0.6409,0,0,0.6409,214.075,292.911)" stroke="rgb(238,238,255)">
      <rect width="296.16" x="-8" height="134.2969" y="-8.0312" stroke="none"/>
    </g>
    <g fill="rgb(166,166,178)" stroke-miterlimit="1.45" transform="matrix(0.6409,0,0,0.6409,214.075,292.911)" stroke-linecap="butt" stroke="rgb(166,166,178)">
      <rect fill="none" width="296.16" x="-8" height="134.2969" y="-8.0312"/>
    </g>
    <g font-family="sans-serif" transform="matrix(0.6409,0,0,0.6409,214.075,292.911)">
      <text xml:space="preserve" x="-2" y="-12.8613" onclick="umlload('package-summary.html')" stroke="none">com.msopentech.odatajclient.proxy.api</text>
    </g>
    <g fill="rgb(187,187,255)" transform="matrix(0.6409,0,0,0.6409,214.075,292.911)" stroke="rgb(187,187,255)">
      <rect x="0" y="0" clip-path="url(#clipPath6)" width="280.16" height="26.625" stroke="none"/>
      <line clip-path="url(#clipPath6)" fill="none" x1="0" x2="280.16" y1="26.625" y2="26.625" stroke="black"/>
      <rect x="0" y="27.625" clip-path="url(#clipPath6)" width="280.16" height="15.9688" stroke="none"/>
      <line clip-path="url(#clipPath6)" fill="none" x1="0" x2="280.16" y1="43.5938" y2="43.5938" stroke="black"/>
      <rect x="0" y="44.5938" clip-path="url(#clipPath6)" width="280.16" height="73.6719" stroke="none"/>
    </g>
    <g fill="rgb(130,130,178)" stroke-miterlimit="1.45" transform="matrix(0.6409,0,0,0.6409,214.075,292.911)" stroke-linecap="butt" stroke="rgb(130,130,178)">
      <rect fill="none" width="280.16" x="0" height="118.2656" y="0"/>
    </g>
    <g font-size="16" font-weight="bold" font-family="sans-serif" transform="matrix(0.6409,0,0,0.6409,214.075,292.911)">
      <text xml:space="preserve" x="121.08" y="18.8516" onclick="umlload('#')" stroke="none">Sort</text>
    </g>
    <g font-family="sans-serif" transform="matrix(0.6409,0,0,0.6409,214.075,292.911)">
      <text xml:space="preserve" x="4" y="38.1719" stroke="none">+</text>
      <text xml:space="preserve" x="19" y="39.7637" onclick="umlload('#Sort(java.lang.String, com.msopentech.odatajclient.proxy.api.Sort.Direction)')" stroke="none">Sort(String, Sort.Direction)</text>
    </g>
    <g font-family="sans-serif" transform="matrix(0.6409,0,0,0.6409,214.075,292.911)">
      <text xml:space="preserve" x="4" y="55.1719" stroke="none">+</text>
      <text xml:space="preserve" x="19" y="56.7324" onclick="umlload('#getKey()')" stroke="none">getKey() : String</text>
    </g>
    <g font-family="sans-serif" transform="matrix(0.6409,0,0,0.6409,214.075,292.911)">
      <text xml:space="preserve" x="4" y="71.1719" stroke="none">+</text>
      <text xml:space="preserve" x="19" y="72.7012" onclick="umlload('#getValue()')" stroke="none">getValue() : Sort.Direction</text>
    </g>
    <g font-family="sans-serif" transform="matrix(0.6409,0,0,0.6409,214.075,292.911)">
      <text xml:space="preserve" x="4" y="87.1719" stroke="none">+</text>
      <text xml:space="preserve" x="19" y="88.6699" onclick="umlload('#setValue(com.msopentech.odatajclient.proxy.api.Sort.Direction)')" stroke="none">setValue(Sort.Direction) : Sort.Direction</text>
    </g>
    <g font-family="sans-serif" transform="matrix(0.6409,0,0,0.6409,214.075,292.911)">
      <text xml:space="preserve" x="-328" y="151.1543" onclick="umlload('http://www.yworks.com/')" stroke="none">yWorks UML Doclet</text>
    </g>
    <g stroke-miterlimit="1.45" transform="matrix(0.6409,0,0,0.6409,214.075,292.911)" stroke-linecap="butt">
      <path fill="none" d="M140.08 0.0281 L140.08 -69"/>
      <path fill="white" d="M140.08 -84 L134.08 -68 L146.08 -68 Z" stroke="none"/>
      <path fill="none" d="M140.08 -84 L134.08 -68 L146.08 -68 Z"/>
      <path fill="none" stroke-dasharray="6,2" d="M210.12 0.0468 L210.12 -51 L402.8266 -51 L402.8266 -69"/>
      <path fill="white" stroke-dasharray="6,2" d="M402.8266 -84 L396.8266 -68 L408.8266 -68 Z" stroke="none"/>
      <path fill="none" d="M402.8266 -84 L396.8266 -68 L408.8266 -68 Z"/>
      <path fill="none" d="M-0.0241 11.5664 L-213.47 11.5664"/>
      <line stroke-linecap="square" transform="matrix(-1,0,0,-1,-213.47,11.5664)" fill="none" x1="0" x2="-14" y1="0" y2="-4" stroke-miterlimit="10"/>
      <line stroke-linecap="square" transform="matrix(-1,0,0,-1,-213.47,11.5664)" fill="none" x1="0" x2="-14" y1="0" y2="4" stroke-miterlimit="10"/>
    </g>
    <g stroke-miterlimit="1.45" transform="matrix(0.6409,0,0,0.6409,214.075,292.911)" stroke-linecap="butt">
      <path fill="none" d="M0.0229 98.6992 L-76.48 98.6992"/>
      <line stroke-linecap="square" transform="matrix(-1,0,0,-1,-76.48,98.6992)" fill="none" x1="0" x2="-14" y1="0" y2="-4" stroke-miterlimit="10"/>
      <line stroke-linecap="square" transform="matrix(-1,0,0,-1,-76.48,98.6992)" fill="none" x1="0" x2="-14" y1="0" y2="4" stroke-miterlimit="10"/>
    </g>
  </g>
</svg>
