<?xml version="1.0" encoding="UTF-8"?><svg xmlns="http://www.w3.org/2000/svg" xmlns:xlink="http://www.w3.org/1999/xlink" fill-opacity="1" color-rendering="auto" color-interpolation="auto" stroke="black" text-rendering="auto" stroke-linecap="square" width="598" stroke-miterlimit="10" stroke-opacity="1" shape-rendering="auto" fill="black" stroke-dasharray="none" font-weight="normal" stroke-width="1" height="598" font-family="'Dialog'" font-style="normal" stroke-linejoin="miter" font-size="12" stroke-dashoffset="0" image-rendering="auto">
  <!--Generated by ySVG-->
  <defs id="genericDefs"/>
  <g>
    <defs id="defs1">
      <clipPath clipPathUnits="userSpaceOnUse" id="clipPath1">
        <path d="M0 0 L598 0 L598 598 L0 598 L0 0 Z"/>
      </clipPath>
      <clipPath clipPathUnits="userSpaceOnUse" id="clipPath2">
        <path d="M567.7742 310.8886 C567.7742 319.9225 538.101 327.246 501.4971 327.246 C464.8933 327.246 435.22 319.9225 435.22 310.8886 C435.22 301.8547 464.8933 294.5312 501.4971 294.5312 C538.101 294.5312 567.7742 301.8547 567.7742 310.8886 Z"/>
      </clipPath>
      <clipPath clipPathUnits="userSpaceOnUse" id="clipPath3">
        <path d="M435.22 207.3984 L522.77 207.3984 L522.77 230.5312 L435.22 230.5312 L435.22 207.3984 Z"/>
      </clipPath>
      <clipPath clipPathUnits="userSpaceOnUse" id="clipPath4">
        <path d="M435.22 87.1328 L504.23 87.1328 L504.23 110.2656 L435.22 110.2656 L435.22 87.1328 Z"/>
      </clipPath>
      <clipPath clipPathUnits="userSpaceOnUse" id="clipPath5">
        <path d="M435.22 120.2656 L488.78 120.2656 L488.78 143.3984 L435.22 143.3984 L435.22 120.2656 Z"/>
      </clipPath>
      <clipPath clipPathUnits="userSpaceOnUse" id="clipPath6">
        <path d="M435.22 0 L579.42 0 L579.42 23.1328 L435.22 23.1328 L435.22 0 Z"/>
      </clipPath>
      <clipPath clipPathUnits="userSpaceOnUse" id="clipPath7">
        <path d="M77.765 -107.1328 L230.205 -107.1328 L230.205 -84 L77.765 -84 L77.765 -107.1328 Z"/>
      </clipPath>
      <clipPath clipPathUnits="userSpaceOnUse" id="clipPath8">
        <path d="M0 0 L307.97 0 L307.97 335.246 L0 335.246 L0 0 Z"/>
      </clipPath>
      <script type="text/ecmascript"><![CDATA[
function umlload(newLocation)
{
if (newLocation.charAt(0) != '#') {
if (newLocation.indexOf("://") > -1) {
window.parent.location.href = newLocation;
} else {
var tmp = window.parent.location.href;
tmp = tmp.substring(0, tmp.lastIndexOf("/") + 1);
window.parent.location.href = tmp.concat(newLocation);
}
} else {
window.parent.location.hash = newLocation;
}
}
]]></script>
    </defs>
    <g fill="rgb(238,238,255)" transform="matrix(0.6889,0,0,0.6889,26.8687,214.2604)" stroke="rgb(238,238,255)">
      <rect width="67.654" x="427.22" height="17.9688" y="268.5312" stroke="none"/>
    </g>
    <g fill="rgb(166,166,178)" stroke-miterlimit="1.45" transform="matrix(0.6889,0,0,0.6889,26.8687,214.2604)" stroke-linecap="butt" stroke="rgb(166,166,178)">
      <rect fill="none" width="67.654" x="427.22" height="17.9688" y="268.5312"/>
    </g>
    <g fill="rgb(238,238,255)" transform="matrix(0.6889,0,0,0.6889,26.8687,214.2604)" stroke="rgb(238,238,255)">
      <rect width="148.5542" x="427.22" height="48.746" y="286.5" stroke="none"/>
    </g>
    <g fill="rgb(166,166,178)" stroke-miterlimit="1.45" transform="matrix(0.6889,0,0,0.6889,26.8687,214.2604)" stroke-linecap="butt" stroke="rgb(166,166,178)">
      <rect fill="none" width="148.5542" x="427.22" height="48.746" y="286.5"/>
    </g>
    <g font-family="sans-serif" transform="matrix(0.6889,0,0,0.6889,26.8687,214.2604)">
      <text xml:space="preserve" x="433.22" y="281.6699" onclick="umlload('http://docs.oracle.com/javase/6/docs/api/java/util/package-summary.html')" stroke="none">java.util</text>
    </g>
    <g fill="rgb(221,221,255)" transform="matrix(0.6889,0,0,0.6889,26.8687,214.2604)" stroke="rgb(221,221,255)">
      <rect x="435.22" y="294.5312" clip-path="url(#clipPath2)" width="132.5542" height="32.7147" stroke="none"/>
    </g>
    <g fill="rgb(154,154,178)" stroke-miterlimit="1.45" transform="matrix(0.6889,0,0,0.6889,26.8687,214.2604)" stroke-linecap="butt" stroke="rgb(154,154,178)">
      <ellipse rx="66.2771" fill="none" ry="16.3574" cx="501.4971" cy="310.8886"/>
    </g>
    <g font-style="italic" font-size="13" font-weight="bold" font-family="sans-serif" transform="matrix(0.6889,0,0,0.6889,26.8687,214.2604)">
      <text xml:space="preserve" x="459.9971" y="315.3891" onclick="umlload('http://docs.oracle.com/javase/6/docs/api/java/util/Map.html')" stroke="none">Map&lt;K, V&gt;</text>
    </g>
    <g fill="rgb(238,238,255)" transform="matrix(0.6889,0,0,0.6889,26.8687,214.2604)" stroke="rgb(238,238,255)">
      <rect width="81.4457" x="427.22" height="17.9688" y="181.3984" stroke="none"/>
    </g>
    <g fill="rgb(166,166,178)" stroke-miterlimit="1.45" transform="matrix(0.6889,0,0,0.6889,26.8687,214.2604)" stroke-linecap="butt" stroke="rgb(166,166,178)">
      <rect fill="none" width="81.4457" x="427.22" height="17.9688" y="181.3984"/>
    </g>
    <g fill="rgb(238,238,255)" transform="matrix(0.6889,0,0,0.6889,26.8687,214.2604)" stroke="rgb(238,238,255)">
      <rect width="103.55" x="427.22" height="39.1641" y="199.3672" stroke="none"/>
    </g>
    <g fill="rgb(166,166,178)" stroke-miterlimit="1.45" transform="matrix(0.6889,0,0,0.6889,26.8687,214.2604)" stroke-linecap="butt" stroke="rgb(166,166,178)">
      <rect fill="none" width="103.55" x="427.22" height="39.1641" y="199.3672"/>
    </g>
    <g font-family="sans-serif" transform="matrix(0.6889,0,0,0.6889,26.8687,214.2604)">
      <text xml:space="preserve" x="433.22" y="194.5371" onclick="umlload('http://docs.oracle.com/javase/6/docs/api/java/math/package-summary.html')" stroke="none">java.math</text>
    </g>
    <g fill="rgb(187,187,255)" transform="matrix(0.6889,0,0,0.6889,26.8687,214.2604)" stroke="rgb(187,187,255)">
      <rect x="435.22" y="207.3984" clip-path="url(#clipPath3)" width="87.55" height="23.1328" stroke="none"/>
    </g>
    <g fill="rgb(130,130,178)" stroke-miterlimit="1.45" transform="matrix(0.6889,0,0,0.6889,26.8687,214.2604)" stroke-linecap="butt" stroke="rgb(130,130,178)">
      <rect fill="none" width="87.55" x="435.22" height="23.1328" y="207.3984"/>
    </g>
    <g font-size="13" font-weight="bold" font-family="sans-serif" transform="matrix(0.6889,0,0,0.6889,26.8687,214.2604)">
      <text xml:space="preserve" x="440.495" y="223.4653" onclick="umlload('http://docs.oracle.com/javase/6/docs/api/java/math/BigInteger.html')" stroke="none">BigInteger</text>
    </g>
    <g fill="rgb(238,238,255)" transform="matrix(0.6889,0,0,0.6889,26.8687,214.2604)" stroke="rgb(238,238,255)">
      <rect width="76.1412" x="427.22" height="17.9688" y="61.1328" stroke="none"/>
    </g>
    <g fill="rgb(166,166,178)" stroke-miterlimit="1.45" transform="matrix(0.6889,0,0,0.6889,26.8687,214.2604)" stroke-linecap="butt" stroke="rgb(166,166,178)">
      <rect fill="none" width="76.1412" x="427.22" height="17.9688" y="61.1328"/>
    </g>
    <g fill="rgb(238,238,255)" transform="matrix(0.6889,0,0,0.6889,26.8687,214.2604)" stroke="rgb(238,238,255)">
      <rect width="85.01" x="427.22" height="72.2969" y="79.1016" stroke="none"/>
    </g>
    <g fill="rgb(166,166,178)" stroke-miterlimit="1.45" transform="matrix(0.6889,0,0,0.6889,26.8687,214.2604)" stroke-linecap="butt" stroke="rgb(166,166,178)">
      <rect fill="none" width="85.01" x="427.22" height="72.2969" y="79.1016"/>
    </g>
    <g font-family="sans-serif" transform="matrix(0.6889,0,0,0.6889,26.8687,214.2604)">
      <text xml:space="preserve" x="433.22" y="74.2715" onclick="umlload('http://docs.oracle.com/javase/6/docs/api/java/lang/package-summary.html')" stroke="none">java.lang</text>
    </g>
    <g fill="rgb(187,187,255)" transform="matrix(0.6889,0,0,0.6889,26.8687,214.2604)" stroke="rgb(187,187,255)">
      <rect x="435.22" y="87.1328" clip-path="url(#clipPath4)" width="69.01" height="23.1328" stroke="none"/>
    </g>
    <g fill="rgb(130,130,178)" stroke-miterlimit="1.45" transform="matrix(0.6889,0,0,0.6889,26.8687,214.2604)" stroke-linecap="butt" stroke="rgb(130,130,178)">
      <rect fill="none" width="69.01" x="435.22" height="23.1328" y="87.1328"/>
    </g>
    <g font-size="13" font-weight="bold" font-family="sans-serif" transform="matrix(0.6889,0,0,0.6889,26.8687,214.2604)">
      <text xml:space="preserve" x="440.225" y="103.1997" onclick="umlload('http://docs.oracle.com/javase/6/docs/api/java/lang/Boolean.html')" stroke="none">Boolean</text>
    </g>
    <g fill="rgb(187,187,255)" transform="matrix(0.6889,0,0,0.6889,26.8687,214.2604)" stroke="rgb(187,187,255)">
      <rect x="435.22" y="120.2656" clip-path="url(#clipPath5)" width="53.56" height="23.1328" stroke="none"/>
    </g>
    <g fill="rgb(130,130,178)" stroke-miterlimit="1.45" transform="matrix(0.6889,0,0,0.6889,26.8687,214.2604)" stroke-linecap="butt" stroke="rgb(130,130,178)">
      <rect fill="none" width="53.56" x="435.22" height="23.1328" y="120.2656"/>
    </g>
    <g font-size="13" font-weight="bold" font-family="sans-serif" transform="matrix(0.6889,0,0,0.6889,26.8687,214.2604)">
      <text xml:space="preserve" x="440" y="136.3325" onclick="umlload('http://docs.oracle.com/javase/6/docs/api/java/lang/String.html')" stroke="none">String</text>
    </g>
    <g fill="rgb(238,238,255)" transform="matrix(0.6889,0,0,0.6889,26.8687,214.2604)" stroke="rgb(238,238,255)">
      <rect width="400.7766" x="427.22" height="17.9688" y="-26" stroke="none"/>
    </g>
    <g fill="rgb(166,166,178)" stroke-miterlimit="1.45" transform="matrix(0.6889,0,0,0.6889,26.8687,214.2604)" stroke-linecap="butt" stroke="rgb(166,166,178)">
      <rect fill="none" width="400.7766" x="427.22" height="17.9688" y="-26"/>
    </g>
    <g fill="rgb(238,238,255)" transform="matrix(0.6889,0,0,0.6889,26.8687,214.2604)" stroke="rgb(238,238,255)">
      <rect width="401.2" x="427.22" height="39.1641" y="-8.0312" stroke="none"/>
    </g>
    <g fill="rgb(166,166,178)" stroke-miterlimit="1.45" transform="matrix(0.6889,0,0,0.6889,26.8687,214.2604)" stroke-linecap="butt" stroke="rgb(166,166,178)">
      <rect fill="none" width="401.2" x="427.22" height="39.1641" y="-8.0312"/>
    </g>
    <g font-family="sans-serif" transform="matrix(0.6889,0,0,0.6889,26.8687,214.2604)">
      <text xml:space="preserve" x="433.22" y="-12.8613" onclick="umlload('../../../../../../../com/msopentech/odatajclient/engine/data/metadata/edm/package-summary.html')" stroke="none">com.msopentech.odatajclient.engine.data.metadata.edm</text>
    </g>
    <g fill="rgb(170,170,255)" transform="matrix(0.6889,0,0,0.6889,26.8687,214.2604)" stroke="rgb(170,170,255)">
      <rect x="435.22" y="0" clip-path="url(#clipPath6)" width="144.2" height="23.1328" stroke="none"/>
    </g>
    <g fill="rgb(118,118,178)" stroke-miterlimit="1.45" transform="matrix(0.6889,0,0,0.6889,26.8687,214.2604)" stroke-linecap="butt" stroke="rgb(118,118,178)">
      <rect fill="none" width="144.2" x="435.22" height="23.1328" y="0"/>
    </g>
    <g font-size="13" font-weight="bold" font-family="sans-serif" transform="matrix(0.6889,0,0,0.6889,26.8687,214.2604)">
      <text xml:space="preserve" x="441.32" y="16.0669" onclick="umlload('../../../../../../../com/msopentech/odatajclient/engine/data/metadata/edm/ConcurrencyMode.html')" stroke="none">ConcurrencyMode</text>
    </g>
    <g fill="rgb(238,238,255)" transform="matrix(0.6889,0,0,0.6889,26.8687,214.2604)" stroke="rgb(238,238,255)">
      <rect width="400.7766" x="-38.235" height="17.9688" y="-133.1328" stroke="none"/>
    </g>
    <g fill="rgb(166,166,178)" stroke-miterlimit="1.45" transform="matrix(0.6889,0,0,0.6889,26.8687,214.2604)" stroke-linecap="butt" stroke="rgb(166,166,178)">
      <rect fill="none" width="400.7766" x="-38.235" height="17.9688" y="-133.1328"/>
    </g>
    <g fill="rgb(238,238,255)" transform="matrix(0.6889,0,0,0.6889,26.8687,214.2604)" stroke="rgb(238,238,255)">
      <rect width="400.7766" x="-38.235" height="39.1641" y="-115.1641" stroke="none"/>
    </g>
    <g fill="rgb(166,166,178)" stroke-miterlimit="1.45" transform="matrix(0.6889,0,0,0.6889,26.8687,214.2604)" stroke-linecap="butt" stroke="rgb(166,166,178)">
      <rect fill="none" width="400.7766" x="-38.235" height="39.1641" y="-115.1641"/>
    </g>
    <g font-family="sans-serif" transform="matrix(0.6889,0,0,0.6889,26.8687,214.2604)">
      <text xml:space="preserve" x="-32.235" y="-119.9941" onclick="umlload('../../../../../../../com/msopentech/odatajclient/engine/data/metadata/edm/package-summary.html')" stroke="none">com.msopentech.odatajclient.engine.data.metadata.edm</text>
    </g>
    <g fill="rgb(204,204,255)" transform="matrix(0.6889,0,0,0.6889,26.8687,214.2604)" stroke="rgb(204,204,255)">
      <rect x="77.765" y="-107.1328" clip-path="url(#clipPath7)" width="152.44" height="23.1328" stroke="none"/>
    </g>
    <g fill="rgb(142,142,178)" stroke-miterlimit="1.45" transform="matrix(0.6889,0,0,0.6889,26.8687,214.2604)" stroke-linecap="butt" stroke="rgb(142,142,178)">
      <rect fill="none" width="152.44" x="77.765" height="23.1328" y="-107.1328"/>
    </g>
    <g font-size="13" font-weight="bold" font-family="sans-serif" transform="matrix(0.6889,0,0,0.6889,26.8687,214.2604)">
      <text xml:space="preserve" x="83.985" y="-91.0659" onclick="umlload('../../../../../../../com/msopentech/odatajclient/engine/data/metadata/edm/AbstractAnnotated.html')" stroke="none">AbstractAnnotated</text>
    </g>
    <g fill="rgb(238,238,255)" transform="matrix(0.6889,0,0,0.6889,26.8687,214.2604)" stroke="rgb(238,238,255)">
      <rect width="400.7766" x="-8" height="17.9688" y="-26" stroke="none"/>
    </g>
    <g fill="rgb(166,166,178)" stroke-miterlimit="1.45" transform="matrix(0.6889,0,0,0.6889,26.8687,214.2604)" stroke-linecap="butt" stroke="rgb(166,166,178)">
      <rect fill="none" width="400.7766" x="-8" height="17.9688" y="-26"/>
    </g>
    <g fill="rgb(238,238,255)" transform="matrix(0.6889,0,0,0.6889,26.8687,214.2604)" stroke="rgb(238,238,255)">
      <rect width="400.97" x="-8" height="351.2772" y="-8.0312" stroke="none"/>
    </g>
    <g fill="rgb(166,166,178)" stroke-miterlimit="1.45" transform="matrix(0.6889,0,0,0.6889,26.8687,214.2604)" stroke-linecap="butt" stroke="rgb(166,166,178)">
      <rect fill="none" width="400.97" x="-8" height="351.2772" y="-8.0312"/>
    </g>
    <g font-family="sans-serif" transform="matrix(0.6889,0,0,0.6889,26.8687,214.2604)">
      <text xml:space="preserve" x="-2" y="-12.8613" onclick="umlload('package-summary.html')" stroke="none">com.msopentech.odatajclient.engine.data.metadata.edm</text>
    </g>
    <g fill="rgb(204,204,255)" transform="matrix(0.6889,0,0,0.6889,26.8687,214.2604)" stroke="rgb(204,204,255)">
      <rect x="0" y="0" clip-path="url(#clipPath8)" width="307.97" height="38.5938" stroke="none"/>
      <line clip-path="url(#clipPath8)" fill="none" x1="0" x2="307.97" y1="38.5938" y2="38.5938" stroke="black"/>
      <rect x="0" y="39.5938" clip-path="url(#clipPath8)" width="307.97" height="15.9688" stroke="none"/>
      <line clip-path="url(#clipPath8)" fill="none" x1="0" x2="307.97" y1="55.5625" y2="55.5625" stroke="black"/>
      <rect x="0" y="56.5625" clip-path="url(#clipPath8)" width="307.97" height="278.6835" stroke="none"/>
    </g>
    <g fill="rgb(142,142,178)" stroke-miterlimit="1.45" transform="matrix(0.6889,0,0,0.6889,26.8687,214.2604)" stroke-linecap="butt" stroke="rgb(142,142,178)">
      <rect fill="none" width="307.97" x="0" height="335.246" y="0"/>
    </g>
    <g font-size="16" font-weight="bold" font-family="sans-serif" transform="matrix(0.6889,0,0,0.6889,26.8687,214.2604)">
      <text xml:space="preserve" x="67.485" y="16.8516" onclick="umlload('#')" stroke="none">AbstractFaceteable</text>
    </g>
    <g font-family="sans-serif" transform="matrix(0.6889,0,0,0.6889,26.8687,214.2604)">
      <text xml:space="preserve" x="234.97" y="33.7637" stroke="none">{abstract}</text>
    </g>
    <g font-family="sans-serif" transform="matrix(0.6889,0,0,0.6889,26.8687,214.2604)">
      <text xml:space="preserve" x="4" y="50.1719" stroke="none">+</text>
      <text xml:space="preserve" x="19" y="51.7324" onclick="umlload('#AbstractFaceteable()')" stroke="none">AbstractFaceteable()</text>
    </g>
    <g font-family="sans-serif" transform="matrix(0.6889,0,0,0.6889,26.8687,214.2604)">
      <text xml:space="preserve" x="4" y="67.1719" stroke="none">+</text>
      <text xml:space="preserve" x="19" y="68.7012" onclick="umlload('#getCollation()')" stroke="none">getCollation() : String</text>
    </g>
    <g font-family="sans-serif" transform="matrix(0.6889,0,0,0.6889,26.8687,214.2604)">
      <text xml:space="preserve" x="4" y="83.1719" stroke="none">+</text>
      <text xml:space="preserve" x="19" y="84.6699" onclick="umlload('#getConcurrencyMode()')" stroke="none">getConcurrencyMode() : ConcurrencyMode</text>
    </g>
    <g font-family="sans-serif" transform="matrix(0.6889,0,0,0.6889,26.8687,214.2604)">
      <text xml:space="preserve" x="4" y="99.1719" stroke="none">+</text>
      <text xml:space="preserve" x="19" y="100.6387" onclick="umlload('#getDefaultValue()')" stroke="none">getDefaultValue() : String</text>
    </g>
    <g font-family="sans-serif" transform="matrix(0.6889,0,0,0.6889,26.8687,214.2604)">
      <text xml:space="preserve" x="4" y="115.1719" stroke="none">+</text>
      <text xml:space="preserve" x="19" y="116.6074" onclick="umlload('#getMaxLength()')" stroke="none">getMaxLength() : String</text>
    </g>
    <g font-family="sans-serif" transform="matrix(0.6889,0,0,0.6889,26.8687,214.2604)">
      <text xml:space="preserve" x="4" y="131.1719" stroke="none">+</text>
      <text xml:space="preserve" x="19" y="132.5762" onclick="umlload('#getName()')" stroke="none">getName() : String</text>
    </g>
    <g font-family="sans-serif" transform="matrix(0.6889,0,0,0.6889,26.8687,214.2604)">
      <text xml:space="preserve" x="4" y="147.1719" stroke="none">+</text>
      <text xml:space="preserve" x="19" y="148.5449" onclick="umlload('#getOtherAttributes()')" stroke="none">getOtherAttributes() : Map&lt;QName, String&gt;</text>
    </g>
    <g font-family="sans-serif" transform="matrix(0.6889,0,0,0.6889,26.8687,214.2604)">
      <text xml:space="preserve" x="4" y="163.1719" stroke="none">+</text>
      <text xml:space="preserve" x="19" y="164.5137" onclick="umlload('#getPrecision()')" stroke="none">getPrecision() : BigInteger</text>
    </g>
    <g font-family="sans-serif" transform="matrix(0.6889,0,0,0.6889,26.8687,214.2604)">
      <text xml:space="preserve" x="4" y="179.1719" stroke="none">+</text>
      <text xml:space="preserve" x="19" y="180.4824" onclick="umlload('#getScale()')" stroke="none">getScale() : BigInteger</text>
    </g>
    <g font-family="sans-serif" transform="matrix(0.6889,0,0,0.6889,26.8687,214.2604)">
      <text xml:space="preserve" x="4" y="195.1719" stroke="none">+</text>
      <text xml:space="preserve" x="19" y="196.4512" onclick="umlload('#getType()')" stroke="none">getType() : String</text>
    </g>
    <g font-family="sans-serif" transform="matrix(0.6889,0,0,0.6889,26.8687,214.2604)">
      <text xml:space="preserve" x="4" y="211.1719" stroke="none">+</text>
      <text xml:space="preserve" x="19" y="212.4199" onclick="umlload('#isFixedLength()')" stroke="none">isFixedLength() : Boolean</text>
    </g>
    <g font-family="sans-serif" transform="matrix(0.6889,0,0,0.6889,26.8687,214.2604)">
      <text xml:space="preserve" x="4" y="227.1719" stroke="none">+</text>
      <text xml:space="preserve" x="19" y="228.3887" onclick="umlload('#isNullable()')" stroke="none">isNullable() : boolean</text>
    </g>
    <g font-family="sans-serif" transform="matrix(0.6889,0,0,0.6889,26.8687,214.2604)">
      <text xml:space="preserve" x="4" y="243.1719" stroke="none">+</text>
      <text xml:space="preserve" x="19" y="244.3574" onclick="umlload('#isUnicode()')" stroke="none">isUnicode() : Boolean</text>
    </g>
    <g font-family="sans-serif" transform="matrix(0.6889,0,0,0.6889,26.8687,214.2604)">
      <text xml:space="preserve" x="-33" y="368.1543" onclick="umlload('http://www.yworks.com/')" stroke="none">yWorks UML Doclet</text>
    </g>
    <g stroke-miterlimit="1.45" transform="matrix(0.6889,0,0,0.6889,26.8687,214.2604)" stroke-linecap="butt">
      <path fill="none" d="M153.985 0.0254 L153.985 -69"/>
      <path fill="white" d="M153.985 -84 L147.985 -68 L159.985 -68 Z" stroke="none"/>
      <path fill="none" d="M153.985 -84 L147.985 -68 L159.985 -68 Z"/>
      <path fill="none" stroke-dasharray="6,2" d="M308.0084 11.5664 L435.22 11.5664"/>
      <line stroke-linecap="square" transform="matrix(1,0,0,1,435.22,11.5664)" fill="none" x1="0" x2="-14" y1="0" y2="-4" stroke-miterlimit="10"/>
      <line stroke-linecap="square" transform="matrix(1,0,0,1,435.22,11.5664)" fill="none" x1="0" x2="-14" y1="0" y2="4" stroke-miterlimit="10"/>
    </g>
    <g stroke-dasharray="6,2" stroke-miterlimit="1.45" transform="matrix(0.6889,0,0,0.6889,26.8687,214.2604)" stroke-linecap="butt">
      <path fill="none" d="M307.9622 98.6992 L435.22 98.6992"/>
      <line stroke-linecap="square" transform="matrix(1,0,0,1,435.22,98.6992)" fill="none" x1="0" x2="-14" y1="0" y2="-4" stroke-dasharray="none" stroke-miterlimit="10"/>
      <line stroke-linecap="square" transform="matrix(1,0,0,1,435.22,98.6992)" fill="none" x1="0" x2="-14" y1="0" y2="4" stroke-dasharray="none" stroke-miterlimit="10"/>
    </g>
    <g stroke-dasharray="6,2" stroke-miterlimit="1.45" transform="matrix(0.6889,0,0,0.6889,26.8687,214.2604)" stroke-linecap="butt">
      <path fill="none" d="M307.9549 131.832 L435.22 131.832"/>
      <line stroke-linecap="square" transform="matrix(1,0,0,1,435.22,131.832)" fill="none" x1="0" x2="-14" y1="0" y2="-4" stroke-dasharray="none" stroke-miterlimit="10"/>
      <line stroke-linecap="square" transform="matrix(1,0,0,1,435.22,131.832)" fill="none" x1="0" x2="-14" y1="0" y2="4" stroke-dasharray="none" stroke-miterlimit="10"/>
    </g>
    <g stroke-dasharray="6,2" stroke-miterlimit="1.45" transform="matrix(0.6889,0,0,0.6889,26.8687,214.2604)" stroke-linecap="butt">
      <path fill="none" d="M307.9601 218.9648 L435.22 218.9648"/>
      <line stroke-linecap="square" transform="matrix(1,0,0,1,435.22,218.9648)" fill="none" x1="0" x2="-14" y1="0" y2="-4" stroke-dasharray="none" stroke-miterlimit="10"/>
      <line stroke-linecap="square" transform="matrix(1,0,0,1,435.22,218.9648)" fill="none" x1="0" x2="-14" y1="0" y2="4" stroke-dasharray="none" stroke-miterlimit="10"/>
    </g>
    <g stroke-dasharray="6,2" stroke-miterlimit="1.45" transform="matrix(0.6889,0,0,0.6889,26.8687,214.2604)" stroke-linecap="butt">
      <path fill="none" d="M307.9305 310.8886 L435.22 310.8886"/>
      <line stroke-linecap="square" transform="matrix(1,0,0,1,435.22,310.8886)" fill="none" x1="0" x2="-14" y1="0" y2="-4" stroke-dasharray="none" stroke-miterlimit="10"/>
      <line stroke-linecap="square" transform="matrix(1,0,0,1,435.22,310.8886)" fill="none" x1="0" x2="-14" y1="0" y2="4" stroke-dasharray="none" stroke-miterlimit="10"/>
    </g>
  </g>
</svg>
