<?xml version="1.0" encoding="UTF-8"?><svg xmlns="http://www.w3.org/2000/svg" xmlns:xlink="http://www.w3.org/1999/xlink" fill-opacity="1" color-rendering="auto" color-interpolation="auto" stroke="black" text-rendering="auto" stroke-linecap="square" width="550" stroke-miterlimit="10" stroke-opacity="1" shape-rendering="auto" fill="black" stroke-dasharray="none" font-weight="normal" stroke-width="1" height="338" font-family="'Dialog'" font-style="normal" stroke-linejoin="miter" font-size="12" stroke-dashoffset="0" image-rendering="auto">
  <!--Generated by ySVG-->
  <defs id="genericDefs"/>
  <g>
    <defs id="defs1">
      <clipPath clipPathUnits="userSpaceOnUse" id="clipPath1">
        <path d="M0 0 L550 0 L550 338 L0 338 L0 0 Z"/>
      </clipPath>
      <clipPath clipPathUnits="userSpaceOnUse" id="clipPath2">
        <path d="M533.5416 136.623 C533.5416 145.6569 512.3464 152.9804 486.2008 152.9804 C460.0552 152.9804 438.86 145.6569 438.86 136.623 C438.86 127.5891 460.0552 120.2656 486.2008 120.2656 C512.3464 120.2656 533.5416 127.5891 533.5416 136.623 Z"/>
      </clipPath>
      <clipPath clipPathUnits="userSpaceOnUse" id="clipPath3">
        <path d="M438.86 0 L518.17 0 L518.17 23.1328 L438.86 23.1328 L438.86 0 Z"/>
      </clipPath>
      <clipPath clipPathUnits="userSpaceOnUse" id="clipPath4">
        <path d="M438.86 33.1328 L492.42 33.1328 L492.42 56.2656 L438.86 56.2656 L438.86 33.1328 Z"/>
      </clipPath>
      <clipPath clipPathUnits="userSpaceOnUse" id="clipPath5">
        <path d="M157.59 -107.1328 L215.27 -107.1328 L215.27 -84 L157.59 -84 L157.59 -107.1328 Z"/>
      </clipPath>
      <clipPath clipPathUnits="userSpaceOnUse" id="clipPath6">
        <path d="M0 0 L372.86 0 L372.86 160.9804 L0 160.9804 L0 0 Z"/>
      </clipPath>
      <script type="text/ecmascript"><![CDATA[
function umlload(newLocation)
{
if (newLocation.charAt(0) != '#') {
if (newLocation.indexOf("://") > -1) {
window.parent.location.href = newLocation;
} else {
var tmp = window.parent.location.href;
tmp = tmp.substring(0, tmp.lastIndexOf("/") + 1);
window.parent.location.href = tmp.concat(newLocation);
}
} else {
window.parent.location.hash = newLocation;
}
}
]]></script>
    </defs>
    <g fill="rgb(238,238,255)" transform="matrix(1,0,0,1,8,134)" stroke="rgb(238,238,255)">
      <rect width="67.654" x="430.86" height="17.9688" y="94.2656" stroke="none"/>
    </g>
    <g fill="rgb(166,166,178)" stroke-miterlimit="1.45" transform="matrix(1,0,0,1,8,134)" stroke-linecap="butt" stroke="rgb(166,166,178)">
      <rect fill="none" width="67.654" x="430.86" height="17.9688" y="94.2656"/>
    </g>
    <g fill="rgb(238,238,255)" transform="matrix(1,0,0,1,8,134)" stroke="rgb(238,238,255)">
      <rect width="110.6816" x="430.86" height="48.746" y="112.2344" stroke="none"/>
    </g>
    <g fill="rgb(166,166,178)" stroke-miterlimit="1.45" transform="matrix(1,0,0,1,8,134)" stroke-linecap="butt" stroke="rgb(166,166,178)">
      <rect fill="none" width="110.6816" x="430.86" height="48.746" y="112.2344"/>
    </g>
    <g font-family="sans-serif" transform="matrix(1,0,0,1,8,134)">
      <text xml:space="preserve" x="436.86" y="107.4043" onclick="umlload('http://docs.oracle.com/javase/6/docs/api/java/util/package-summary.html')" stroke="none">java.util</text>
    </g>
    <g fill="rgb(221,221,255)" transform="matrix(1,0,0,1,8,134)" stroke="rgb(221,221,255)">
      <rect x="438.86" y="120.2656" clip-path="url(#clipPath2)" width="94.6816" height="32.7147" stroke="none"/>
    </g>
    <g fill="rgb(154,154,178)" stroke-miterlimit="1.45" transform="matrix(1,0,0,1,8,134)" stroke-linecap="butt" stroke="rgb(154,154,178)">
      <ellipse rx="47.3408" fill="none" ry="16.3574" cx="486.2008" cy="136.623"/>
    </g>
    <g font-style="italic" font-size="13" font-weight="bold" font-family="sans-serif" transform="matrix(1,0,0,1,8,134)">
      <text xml:space="preserve" x="457.7008" y="141.1235" onclick="umlload('http://docs.oracle.com/javase/6/docs/api/java/util/List.html')" stroke="none">List&lt;E&gt;</text>
    </g>
    <g fill="rgb(238,238,255)" transform="matrix(1,0,0,1,8,134)" stroke="rgb(238,238,255)">
      <rect width="76.1412" x="430.86" height="17.9688" y="-26" stroke="none"/>
    </g>
    <g fill="rgb(166,166,178)" stroke-miterlimit="1.45" transform="matrix(1,0,0,1,8,134)" stroke-linecap="butt" stroke="rgb(166,166,178)">
      <rect fill="none" width="76.1412" x="430.86" height="17.9688" y="-26"/>
    </g>
    <g fill="rgb(238,238,255)" transform="matrix(1,0,0,1,8,134)" stroke="rgb(238,238,255)">
      <rect width="95.31" x="430.86" height="72.2969" y="-8.0312" stroke="none"/>
    </g>
    <g fill="rgb(166,166,178)" stroke-miterlimit="1.45" transform="matrix(1,0,0,1,8,134)" stroke-linecap="butt" stroke="rgb(166,166,178)">
      <rect fill="none" width="95.31" x="430.86" height="72.2969" y="-8.0312"/>
    </g>
    <g font-family="sans-serif" transform="matrix(1,0,0,1,8,134)">
      <text xml:space="preserve" x="436.86" y="-12.8613" onclick="umlload('http://docs.oracle.com/javase/6/docs/api/java/lang/package-summary.html')" stroke="none">java.lang</text>
    </g>
    <g fill="rgb(187,187,255)" transform="matrix(1,0,0,1,8,134)" stroke="rgb(187,187,255)">
      <rect x="438.86" y="0" clip-path="url(#clipPath3)" width="79.31" height="23.1328" stroke="none"/>
    </g>
    <g fill="rgb(130,130,178)" stroke-miterlimit="1.45" transform="matrix(1,0,0,1,8,134)" stroke-linecap="butt" stroke="rgb(130,130,178)">
      <rect fill="none" width="79.31" x="438.86" height="23.1328" y="0"/>
    </g>
    <g font-size="13" font-weight="bold" font-family="sans-serif" transform="matrix(1,0,0,1,8,134)">
      <text xml:space="preserve" x="444.015" y="16.0669" onclick="umlload('http://docs.oracle.com/javase/6/docs/api/java/lang/Class.html')" stroke="none">Class&lt;T&gt;</text>
    </g>
    <g fill="rgb(187,187,255)" transform="matrix(1,0,0,1,8,134)" stroke="rgb(187,187,255)">
      <rect x="438.86" y="33.1328" clip-path="url(#clipPath4)" width="53.56" height="23.1328" stroke="none"/>
    </g>
    <g fill="rgb(130,130,178)" stroke-miterlimit="1.45" transform="matrix(1,0,0,1,8,134)" stroke-linecap="butt" stroke="rgb(130,130,178)">
      <rect fill="none" width="53.56" x="438.86" height="23.1328" y="33.1328"/>
    </g>
    <g font-size="13" font-weight="bold" font-family="sans-serif" transform="matrix(1,0,0,1,8,134)">
      <text xml:space="preserve" x="443.64" y="49.1997" onclick="umlload('http://docs.oracle.com/javase/6/docs/api/java/lang/String.html')" stroke="none">String</text>
    </g>
    <g fill="rgb(238,238,255)" transform="matrix(1,0,0,1,8,134)" stroke="rgb(238,238,255)">
      <rect width="76.1412" x="149.59" height="17.9688" y="-133.1328" stroke="none"/>
    </g>
    <g fill="rgb(166,166,178)" stroke-miterlimit="1.45" transform="matrix(1,0,0,1,8,134)" stroke-linecap="butt" stroke="rgb(166,166,178)">
      <rect fill="none" width="76.1412" x="149.59" height="17.9688" y="-133.1328"/>
    </g>
    <g fill="rgb(238,238,255)" transform="matrix(1,0,0,1,8,134)" stroke="rgb(238,238,255)">
      <rect width="76.1412" x="149.59" height="39.1641" y="-115.1641" stroke="none"/>
    </g>
    <g fill="rgb(166,166,178)" stroke-miterlimit="1.45" transform="matrix(1,0,0,1,8,134)" stroke-linecap="butt" stroke="rgb(166,166,178)">
      <rect fill="none" width="76.1412" x="149.59" height="39.1641" y="-115.1641"/>
    </g>
    <g font-family="sans-serif" transform="matrix(1,0,0,1,8,134)">
      <text xml:space="preserve" x="155.59" y="-119.9941" onclick="umlload('http://docs.oracle.com/javase/6/docs/api/java/lang/package-summary.html')" stroke="none">java.lang</text>
    </g>
    <g fill="rgb(187,187,255)" transform="matrix(1,0,0,1,8,134)" stroke="rgb(187,187,255)">
      <rect x="157.59" y="-107.1328" clip-path="url(#clipPath5)" width="57.68" height="23.1328" stroke="none"/>
    </g>
    <g fill="rgb(130,130,178)" stroke-miterlimit="1.45" transform="matrix(1,0,0,1,8,134)" stroke-linecap="butt" stroke="rgb(130,130,178)">
      <rect fill="none" width="57.68" x="157.59" height="23.1328" y="-107.1328"/>
    </g>
    <g font-size="13" font-weight="bold" font-family="sans-serif" transform="matrix(1,0,0,1,8,134)">
      <text xml:space="preserve" x="162.43" y="-91.0659" onclick="umlload('http://docs.oracle.com/javase/6/docs/api/java/lang/Object.html')" stroke="none">Object</text>
    </g>
    <g fill="rgb(238,238,255)" transform="matrix(1,0,0,1,8,134)" stroke="rgb(238,238,255)">
      <rect width="400.7766" x="-8" height="17.9688" y="-26" stroke="none"/>
    </g>
    <g fill="rgb(166,166,178)" stroke-miterlimit="1.45" transform="matrix(1,0,0,1,8,134)" stroke-linecap="butt" stroke="rgb(166,166,178)">
      <rect fill="none" width="400.7766" x="-8" height="17.9688" y="-26"/>
    </g>
    <g fill="rgb(238,238,255)" transform="matrix(1,0,0,1,8,134)" stroke="rgb(238,238,255)">
      <rect width="400.86" x="-8" height="177.0116" y="-8.0312" stroke="none"/>
    </g>
    <g fill="rgb(166,166,178)" stroke-miterlimit="1.45" transform="matrix(1,0,0,1,8,134)" stroke-linecap="butt" stroke="rgb(166,166,178)">
      <rect fill="none" width="400.86" x="-8" height="177.0116" y="-8.0312"/>
    </g>
    <g font-family="sans-serif" transform="matrix(1,0,0,1,8,134)">
      <text xml:space="preserve" x="-2" y="-12.8613" onclick="umlload('package-summary.html')" stroke="none">com.msopentech.odatajclient.engine.data.metadata.edm</text>
    </g>
    <g fill="rgb(204,204,255)" transform="matrix(1,0,0,1,8,134)" stroke="rgb(204,204,255)">
      <rect x="0" y="0" clip-path="url(#clipPath6)" width="372.86" height="38.5938" stroke="none"/>
      <line clip-path="url(#clipPath6)" fill="none" x1="0" x2="372.86" y1="38.5938" y2="38.5938" stroke="black"/>
      <rect x="0" y="39.5938" clip-path="url(#clipPath6)" width="372.86" height="15.9688" stroke="none"/>
      <line clip-path="url(#clipPath6)" fill="none" x1="0" x2="372.86" y1="55.5625" y2="55.5625" stroke="black"/>
      <rect x="0" y="56.5625" clip-path="url(#clipPath6)" width="372.86" height="104.4179" stroke="none"/>
    </g>
    <g fill="rgb(142,142,178)" stroke-miterlimit="1.45" transform="matrix(1,0,0,1,8,134)" stroke-linecap="butt" stroke="rgb(142,142,178)">
      <rect fill="none" width="372.86" x="0" height="160.9804" y="0"/>
    </g>
    <g font-size="16" font-weight="bold" font-family="sans-serif" transform="matrix(1,0,0,1,8,134)">
      <text xml:space="preserve" x="112.43" y="16.8516" onclick="umlload('#')" stroke="none">AbstractElement</text>
    </g>
    <g font-family="sans-serif" transform="matrix(1,0,0,1,8,134)">
      <text xml:space="preserve" x="299.86" y="33.7637" stroke="none">{abstract}</text>
    </g>
    <g font-family="sans-serif" transform="matrix(1,0,0,1,8,134)">
      <text xml:space="preserve" x="4" y="50.1719" stroke="none">+</text>
      <text xml:space="preserve" x="19" y="51.7324" onclick="umlload('#AbstractElement()')" stroke="none">AbstractElement()</text>
    </g>
    <g font-family="sans-serif" transform="matrix(1,0,0,1,8,134)">
      <text xml:space="preserve" x="4" y="67.1719" stroke="none">#</text>
      <text xml:space="preserve" x="19" y="68.7012" onclick="umlload('#getElements(java.lang.Class)')" stroke="none">getElements(Class&lt;T&gt;) : &lt;T&gt; List&lt;T&gt;</text>
    </g>
    <g font-family="sans-serif" transform="matrix(1,0,0,1,8,134)">
      <text xml:space="preserve" x="4" y="83.1719" stroke="none">#</text>
      <text xml:space="preserve" x="19" y="84.6699" onclick="umlload('#getJAXBElements(java.lang.Class)')" stroke="none">getJAXBElements(Class&lt;T&gt;) : &lt;T&gt; List&lt;T&gt;</text>
    </g>
    <g font-family="sans-serif" transform="matrix(1,0,0,1,8,134)">
      <text xml:space="preserve" x="4" y="99.1719" stroke="none">#</text>
      <text xml:space="preserve" x="19" y="100.6387" onclick="umlload('#getJAXBElements(java.lang.String, java.lang.Class)')" stroke="none">getJAXBElements(String, Class&lt;T&gt;) : &lt;T&gt; List&lt;T&gt;</text>
    </g>
    <g font-family="sans-serif" transform="matrix(1,0,0,1,8,134)">
      <text xml:space="preserve" x="4" y="115.1719" stroke="none">+</text>
      <text xml:space="preserve" x="19" y="116.6074" onclick="umlload('#getValues()')" stroke="none">getValues() : List&lt;Object&gt;</text>
    </g>
    <g font-family="sans-serif" transform="matrix(1,0,0,1,8,134)">
      <text xml:space="preserve" x="4" y="131.1719" stroke="none">#</text>
      <text xml:space="preserve" x="19" y="132.5762" onclick="umlload('#removeJAXBElements(java.lang.String, java.lang.Class)')" stroke="none">removeJAXBElements(String, Class&lt;T&gt;) : &lt;T&gt; boolean</text>
    </g>
    <g font-family="sans-serif" transform="matrix(1,0,0,1,8,134)">
      <text xml:space="preserve" x="-2" y="193.1543" onclick="umlload('http://www.yworks.com/')" stroke="none">yWorks UML Doclet</text>
    </g>
    <g stroke-miterlimit="1.45" transform="matrix(1,0,0,1,8,134)" stroke-linecap="butt">
      <path fill="none" d="M186.43 0.0325 L186.43 -69"/>
      <path fill="white" d="M186.43 -84 L180.43 -68 L192.43 -68 Z" stroke="none"/>
      <path fill="none" d="M186.43 -84 L180.43 -68 L192.43 -68 Z"/>
      <path fill="none" stroke-dasharray="6,2" d="M372.8695 11.5664 L438.86 11.5664"/>
      <line stroke-linecap="square" transform="matrix(1,0,0,1,438.86,11.5664)" fill="none" x1="0" x2="-14" y1="0" y2="-4" stroke-miterlimit="10"/>
      <line stroke-linecap="square" transform="matrix(1,0,0,1,438.86,11.5664)" fill="none" x1="0" x2="-14" y1="0" y2="4" stroke-miterlimit="10"/>
    </g>
    <g stroke-dasharray="6,2" stroke-miterlimit="1.45" transform="matrix(1,0,0,1,8,134)" stroke-linecap="butt">
      <path fill="none" d="M372.8313 44.6992 L438.86 44.6992"/>
      <line stroke-linecap="square" transform="matrix(1,0,0,1,438.86,44.6992)" fill="none" x1="0" x2="-14" y1="0" y2="-4" stroke-dasharray="none" stroke-miterlimit="10"/>
      <line stroke-linecap="square" transform="matrix(1,0,0,1,438.86,44.6992)" fill="none" x1="0" x2="-14" y1="0" y2="4" stroke-dasharray="none" stroke-miterlimit="10"/>
    </g>
    <g stroke-dasharray="6,2" stroke-miterlimit="1.45" transform="matrix(1,0,0,1,8,134)" stroke-linecap="butt">
      <path fill="none" d="M372.8719 136.623 L438.86 136.623"/>
      <line stroke-linecap="square" transform="matrix(1,0,0,1,438.86,136.623)" fill="none" x1="0" x2="-14" y1="0" y2="-4" stroke-dasharray="none" stroke-miterlimit="10"/>
      <line stroke-linecap="square" transform="matrix(1,0,0,1,438.86,136.623)" fill="none" x1="0" x2="-14" y1="0" y2="4" stroke-dasharray="none" stroke-miterlimit="10"/>
    </g>
  </g>
</svg>
