<?xml version="1.0" encoding="UTF-8"?><svg xmlns="http://www.w3.org/2000/svg" xmlns:xlink="http://www.w3.org/1999/xlink" fill-opacity="1" color-rendering="auto" color-interpolation="auto" stroke="black" text-rendering="auto" stroke-linecap="square" width="598" stroke-miterlimit="10" stroke-opacity="1" shape-rendering="auto" fill="black" stroke-dasharray="none" font-weight="normal" stroke-width="1" height="598" font-family="'Dialog'" font-style="normal" stroke-linejoin="miter" font-size="12" stroke-dashoffset="0" image-rendering="auto">
  <!--Generated by ySVG-->
  <defs id="genericDefs"/>
  <g>
    <defs id="defs1">
      <clipPath clipPathUnits="userSpaceOnUse" id="clipPath1">
        <path d="M0 0 L598 0 L598 598 L0 598 L0 0 Z"/>
      </clipPath>
      <clipPath clipPathUnits="userSpaceOnUse" id="clipPath2">
        <path d="M-103.8726 310.8886 C-103.8726 319.9225 -125.0678 327.246 -151.2134 327.246 C-177.359 327.246 -198.5542 319.9225 -198.5542 310.8886 C-198.5542 301.8547 -177.359 294.5312 -151.2134 294.5312 C-125.0678 294.5312 -103.8726 301.8547 -103.8726 310.8886 Z"/>
      </clipPath>
      <clipPath clipPathUnits="userSpaceOnUse" id="clipPath3">
        <path d="M-66 353.6034 C-66 362.6373 -95.6733 369.9607 -132.2771 369.9607 C-168.881 369.9607 -198.5542 362.6373 -198.5542 353.6034 C-198.5542 344.5694 -168.881 337.246 -132.2771 337.246 C-95.6733 337.246 -66 344.5694 -66 353.6034 Z"/>
      </clipPath>
      <clipPath clipPathUnits="userSpaceOnUse" id="clipPath4">
        <path d="M-153.55 207.3984 L-66 207.3984 L-66 230.5312 L-153.55 230.5312 L-153.55 207.3984 Z"/>
      </clipPath>
      <clipPath clipPathUnits="userSpaceOnUse" id="clipPath5">
        <path d="M-135.01 87.1328 L-66 87.1328 L-66 110.2656 L-135.01 110.2656 L-135.01 87.1328 Z"/>
      </clipPath>
      <clipPath clipPathUnits="userSpaceOnUse" id="clipPath6">
        <path d="M-135.01 120.2656 L-81.45 120.2656 L-81.45 143.3984 L-135.01 143.3984 L-135.01 120.2656 Z"/>
      </clipPath>
      <clipPath clipPathUnits="userSpaceOnUse" id="clipPath7">
        <path d="M-445.22 0 L-321.62 0 L-321.62 23.1328 L-445.22 23.1328 L-445.22 0 Z"/>
      </clipPath>
      <clipPath clipPathUnits="userSpaceOnUse" id="clipPath8">
        <path d="M125.145 -107.1328 L182.825 -107.1328 L182.825 -84 L125.145 -84 L125.145 -107.1328 Z"/>
      </clipPath>
      <clipPath clipPathUnits="userSpaceOnUse" id="clipPath9">
        <path d="M-0 0 L307.97 0 L307.97 620.4688 L-0 620.4688 L-0 0 Z"/>
      </clipPath>
      <script type="text/ecmascript"><![CDATA[
function umlload(newLocation)
{
if (newLocation.charAt(0) != '#') {
if (newLocation.indexOf("://") > -1) {
window.parent.location.href = newLocation;
} else {
var tmp = window.parent.location.href;
tmp = tmp.substring(0, tmp.lastIndexOf("/") + 1);
window.parent.location.href = tmp.concat(newLocation);
}
} else {
window.parent.location.hash = newLocation;
}
}
]]></script>
    </defs>
    <g fill="rgb(238,238,255)" transform="matrix(0.706,0,0,0.706,320.5336,111.5514)" stroke="rgb(238,238,255)">
      <rect width="67.654" x="-206.5542" height="17.9688" y="268.5312" stroke="none"/>
    </g>
    <g fill="rgb(166,166,178)" stroke-miterlimit="1.45" transform="matrix(0.706,0,0,0.706,320.5336,111.5514)" stroke-linecap="butt" stroke="rgb(166,166,178)">
      <rect fill="none" width="67.654" x="-206.5542" height="17.9688" y="268.5312"/>
    </g>
    <g fill="rgb(238,238,255)" transform="matrix(0.706,0,0,0.706,320.5336,111.5514)" stroke="rgb(238,238,255)">
      <rect width="148.5542" x="-206.5542" height="91.4607" y="286.5" stroke="none"/>
    </g>
    <g fill="rgb(166,166,178)" stroke-miterlimit="1.45" transform="matrix(0.706,0,0,0.706,320.5336,111.5514)" stroke-linecap="butt" stroke="rgb(166,166,178)">
      <rect fill="none" width="148.5542" x="-206.5542" height="91.4607" y="286.5"/>
    </g>
    <g font-family="sans-serif" transform="matrix(0.706,0,0,0.706,320.5336,111.5514)">
      <text xml:space="preserve" x="-200.5542" y="281.6699" onclick="umlload('http://docs.oracle.com/javase/6/docs/api/java/util/package-summary.html')" stroke="none">java.util</text>
    </g>
    <g fill="rgb(221,221,255)" transform="matrix(0.706,0,0,0.706,320.5336,111.5514)" stroke="rgb(221,221,255)">
      <rect x="-198.5542" y="294.5312" clip-path="url(#clipPath2)" width="94.6816" height="32.7147" stroke="none"/>
    </g>
    <g fill="rgb(154,154,178)" stroke-miterlimit="1.45" transform="matrix(0.706,0,0,0.706,320.5336,111.5514)" stroke-linecap="butt" stroke="rgb(154,154,178)">
      <ellipse rx="47.3408" fill="none" ry="16.3574" cx="-151.2134" cy="310.8886"/>
    </g>
    <g font-style="italic" font-size="13" font-weight="bold" font-family="sans-serif" transform="matrix(0.706,0,0,0.706,320.5336,111.5514)">
      <text xml:space="preserve" x="-179.7134" y="315.3891" onclick="umlload('http://docs.oracle.com/javase/6/docs/api/java/util/List.html')" stroke="none">List&lt;E&gt;</text>
    </g>
    <g fill="rgb(221,221,255)" transform="matrix(0.706,0,0,0.706,320.5336,111.5514)" stroke="rgb(221,221,255)">
      <rect x="-198.5542" y="337.246" clip-path="url(#clipPath3)" width="132.5542" height="32.7147" stroke="none"/>
    </g>
    <g fill="rgb(154,154,178)" stroke-miterlimit="1.45" transform="matrix(0.706,0,0,0.706,320.5336,111.5514)" stroke-linecap="butt" stroke="rgb(154,154,178)">
      <ellipse rx="66.2771" fill="none" ry="16.3574" cx="-132.2771" cy="353.6034"/>
    </g>
    <g font-style="italic" font-size="13" font-weight="bold" font-family="sans-serif" transform="matrix(0.706,0,0,0.706,320.5336,111.5514)">
      <text xml:space="preserve" x="-173.7771" y="358.1039" onclick="umlload('http://docs.oracle.com/javase/6/docs/api/java/util/Map.html')" stroke="none">Map&lt;K, V&gt;</text>
    </g>
    <g fill="rgb(238,238,255)" transform="matrix(0.706,0,0,0.706,320.5336,111.5514)" stroke="rgb(238,238,255)">
      <rect width="81.4457" x="-161.55" height="17.9688" y="181.3984" stroke="none"/>
    </g>
    <g fill="rgb(166,166,178)" stroke-miterlimit="1.45" transform="matrix(0.706,0,0,0.706,320.5336,111.5514)" stroke-linecap="butt" stroke="rgb(166,166,178)">
      <rect fill="none" width="81.4457" x="-161.55" height="17.9688" y="181.3984"/>
    </g>
    <g fill="rgb(238,238,255)" transform="matrix(0.706,0,0,0.706,320.5336,111.5514)" stroke="rgb(238,238,255)">
      <rect width="103.55" x="-161.55" height="39.1641" y="199.3672" stroke="none"/>
    </g>
    <g fill="rgb(166,166,178)" stroke-miterlimit="1.45" transform="matrix(0.706,0,0,0.706,320.5336,111.5514)" stroke-linecap="butt" stroke="rgb(166,166,178)">
      <rect fill="none" width="103.55" x="-161.55" height="39.1641" y="199.3672"/>
    </g>
    <g font-family="sans-serif" transform="matrix(0.706,0,0,0.706,320.5336,111.5514)">
      <text xml:space="preserve" x="-155.55" y="194.5371" onclick="umlload('http://docs.oracle.com/javase/6/docs/api/java/math/package-summary.html')" stroke="none">java.math</text>
    </g>
    <g fill="rgb(187,187,255)" transform="matrix(0.706,0,0,0.706,320.5336,111.5514)" stroke="rgb(187,187,255)">
      <rect x="-153.55" y="207.3984" clip-path="url(#clipPath4)" width="87.55" height="23.1328" stroke="none"/>
    </g>
    <g fill="rgb(130,130,178)" stroke-miterlimit="1.45" transform="matrix(0.706,0,0,0.706,320.5336,111.5514)" stroke-linecap="butt" stroke="rgb(130,130,178)">
      <rect fill="none" width="87.55" x="-153.55" height="23.1328" y="207.3984"/>
    </g>
    <g font-size="13" font-weight="bold" font-family="sans-serif" transform="matrix(0.706,0,0,0.706,320.5336,111.5514)">
      <text xml:space="preserve" x="-148.275" y="223.4653" onclick="umlload('http://docs.oracle.com/javase/6/docs/api/java/math/BigInteger.html')" stroke="none">BigInteger</text>
    </g>
    <g fill="rgb(238,238,255)" transform="matrix(0.706,0,0,0.706,320.5336,111.5514)" stroke="rgb(238,238,255)">
      <rect width="76.1412" x="-143.01" height="17.9688" y="61.1328" stroke="none"/>
    </g>
    <g fill="rgb(166,166,178)" stroke-miterlimit="1.45" transform="matrix(0.706,0,0,0.706,320.5336,111.5514)" stroke-linecap="butt" stroke="rgb(166,166,178)">
      <rect fill="none" width="76.1412" x="-143.01" height="17.9688" y="61.1328"/>
    </g>
    <g fill="rgb(238,238,255)" transform="matrix(0.706,0,0,0.706,320.5336,111.5514)" stroke="rgb(238,238,255)">
      <rect width="85.01" x="-143.01" height="72.2969" y="79.1016" stroke="none"/>
    </g>
    <g fill="rgb(166,166,178)" stroke-miterlimit="1.45" transform="matrix(0.706,0,0,0.706,320.5336,111.5514)" stroke-linecap="butt" stroke="rgb(166,166,178)">
      <rect fill="none" width="85.01" x="-143.01" height="72.2969" y="79.1016"/>
    </g>
    <g font-family="sans-serif" transform="matrix(0.706,0,0,0.706,320.5336,111.5514)">
      <text xml:space="preserve" x="-137.01" y="74.2715" onclick="umlload('http://docs.oracle.com/javase/6/docs/api/java/lang/package-summary.html')" stroke="none">java.lang</text>
    </g>
    <g fill="rgb(187,187,255)" transform="matrix(0.706,0,0,0.706,320.5336,111.5514)" stroke="rgb(187,187,255)">
      <rect x="-135.01" y="87.1328" clip-path="url(#clipPath5)" width="69.01" height="23.1328" stroke="none"/>
    </g>
    <g fill="rgb(130,130,178)" stroke-miterlimit="1.45" transform="matrix(0.706,0,0,0.706,320.5336,111.5514)" stroke-linecap="butt" stroke="rgb(130,130,178)">
      <rect fill="none" width="69.01" x="-135.01" height="23.1328" y="87.1328"/>
    </g>
    <g font-size="13" font-weight="bold" font-family="sans-serif" transform="matrix(0.706,0,0,0.706,320.5336,111.5514)">
      <text xml:space="preserve" x="-130.005" y="103.1997" onclick="umlload('http://docs.oracle.com/javase/6/docs/api/java/lang/Boolean.html')" stroke="none">Boolean</text>
    </g>
    <g fill="rgb(187,187,255)" transform="matrix(0.706,0,0,0.706,320.5336,111.5514)" stroke="rgb(187,187,255)">
      <rect x="-135.01" y="120.2656" clip-path="url(#clipPath6)" width="53.56" height="23.1328" stroke="none"/>
    </g>
    <g fill="rgb(130,130,178)" stroke-miterlimit="1.45" transform="matrix(0.706,0,0,0.706,320.5336,111.5514)" stroke-linecap="butt" stroke="rgb(130,130,178)">
      <rect fill="none" width="53.56" x="-135.01" height="23.1328" y="120.2656"/>
    </g>
    <g font-size="13" font-weight="bold" font-family="sans-serif" transform="matrix(0.706,0,0,0.706,320.5336,111.5514)">
      <text xml:space="preserve" x="-130.23" y="136.3325" onclick="umlload('http://docs.oracle.com/javase/6/docs/api/java/lang/String.html')" stroke="none">String</text>
    </g>
    <g fill="rgb(238,238,255)" transform="matrix(0.706,0,0,0.706,320.5336,111.5514)" stroke="rgb(238,238,255)">
      <rect width="400.7766" x="-453.22" height="17.9688" y="-26" stroke="none"/>
    </g>
    <g fill="rgb(166,166,178)" stroke-miterlimit="1.45" transform="matrix(0.706,0,0,0.706,320.5336,111.5514)" stroke-linecap="butt" stroke="rgb(166,166,178)">
      <rect fill="none" width="400.7766" x="-453.22" height="17.9688" y="-26"/>
    </g>
    <g fill="rgb(238,238,255)" transform="matrix(0.706,0,0,0.706,320.5336,111.5514)" stroke="rgb(238,238,255)">
      <rect width="400.7766" x="-453.22" height="39.1641" y="-8.0312" stroke="none"/>
    </g>
    <g fill="rgb(166,166,178)" stroke-miterlimit="1.45" transform="matrix(0.706,0,0,0.706,320.5336,111.5514)" stroke-linecap="butt" stroke="rgb(166,166,178)">
      <rect fill="none" width="400.7766" x="-453.22" height="39.1641" y="-8.0312"/>
    </g>
    <g font-family="sans-serif" transform="matrix(0.706,0,0,0.706,320.5336,111.5514)">
      <text xml:space="preserve" x="-447.22" y="-12.8613" onclick="umlload('../../../../../../../com/msopentech/odatajclient/engine/data/metadata/edm/package-summary.html')" stroke="none">com.msopentech.odatajclient.engine.data.metadata.edm</text>
    </g>
    <g fill="rgb(187,187,255)" transform="matrix(0.706,0,0,0.706,320.5336,111.5514)" stroke="rgb(187,187,255)">
      <rect x="-445.22" y="0" clip-path="url(#clipPath7)" width="123.6" height="23.1328" stroke="none"/>
    </g>
    <g fill="rgb(130,130,178)" stroke-miterlimit="1.45" transform="matrix(0.706,0,0,0.706,320.5336,111.5514)" stroke-linecap="butt" stroke="rgb(130,130,178)">
      <rect fill="none" width="123.6" x="-445.22" height="23.1328" y="0"/>
    </g>
    <g font-size="13" font-weight="bold" font-family="sans-serif" transform="matrix(0.706,0,0,0.706,320.5336,111.5514)">
      <text xml:space="preserve" x="-439.42" y="16.0669" onclick="umlload('../../../../../../../com/msopentech/odatajclient/engine/data/metadata/edm/Documentation.html')" stroke="none">Documentation</text>
    </g>
    <g fill="rgb(238,238,255)" transform="matrix(0.706,0,0,0.706,320.5336,111.5514)" stroke="rgb(238,238,255)">
      <rect width="76.1412" x="117.145" height="17.9688" y="-133.1328" stroke="none"/>
    </g>
    <g fill="rgb(166,166,178)" stroke-miterlimit="1.45" transform="matrix(0.706,0,0,0.706,320.5336,111.5514)" stroke-linecap="butt" stroke="rgb(166,166,178)">
      <rect fill="none" width="76.1412" x="117.145" height="17.9688" y="-133.1328"/>
    </g>
    <g fill="rgb(238,238,255)" transform="matrix(0.706,0,0,0.706,320.5336,111.5514)" stroke="rgb(238,238,255)">
      <rect width="76.1412" x="117.145" height="39.1641" y="-115.1641" stroke="none"/>
    </g>
    <g fill="rgb(166,166,178)" stroke-miterlimit="1.45" transform="matrix(0.706,0,0,0.706,320.5336,111.5514)" stroke-linecap="butt" stroke="rgb(166,166,178)">
      <rect fill="none" width="76.1412" x="117.145" height="39.1641" y="-115.1641"/>
    </g>
    <g font-family="sans-serif" transform="matrix(0.706,0,0,0.706,320.5336,111.5514)">
      <text xml:space="preserve" x="123.145" y="-119.9941" onclick="umlload('http://docs.oracle.com/javase/6/docs/api/java/lang/package-summary.html')" stroke="none">java.lang</text>
    </g>
    <g fill="rgb(187,187,255)" transform="matrix(0.706,0,0,0.706,320.5336,111.5514)" stroke="rgb(187,187,255)">
      <rect x="125.145" y="-107.1328" clip-path="url(#clipPath8)" width="57.68" height="23.1328" stroke="none"/>
    </g>
    <g fill="rgb(130,130,178)" stroke-miterlimit="1.45" transform="matrix(0.706,0,0,0.706,320.5336,111.5514)" stroke-linecap="butt" stroke="rgb(130,130,178)">
      <rect fill="none" width="57.68" x="125.145" height="23.1328" y="-107.1328"/>
    </g>
    <g font-size="13" font-weight="bold" font-family="sans-serif" transform="matrix(0.706,0,0,0.706,320.5336,111.5514)">
      <text xml:space="preserve" x="129.985" y="-91.0659" onclick="umlload('http://docs.oracle.com/javase/6/docs/api/java/lang/Object.html')" stroke="none">Object</text>
    </g>
    <g fill="rgb(238,238,255)" transform="matrix(0.706,0,0,0.706,320.5336,111.5514)" stroke="rgb(238,238,255)">
      <rect width="400.7766" x="-8" height="17.9688" y="-26" stroke="none"/>
    </g>
    <g fill="rgb(166,166,178)" stroke-miterlimit="1.45" transform="matrix(0.706,0,0,0.706,320.5336,111.5514)" stroke-linecap="butt" stroke="rgb(166,166,178)">
      <rect fill="none" width="400.7766" x="-8" height="17.9688" y="-26"/>
    </g>
    <g fill="rgb(238,238,255)" transform="matrix(0.706,0,0,0.706,320.5336,111.5514)" stroke="rgb(238,238,255)">
      <rect width="400.97" x="-8" height="636.5" y="-8.0312" stroke="none"/>
    </g>
    <g fill="rgb(166,166,178)" stroke-miterlimit="1.45" transform="matrix(0.706,0,0,0.706,320.5336,111.5514)" stroke-linecap="butt" stroke="rgb(166,166,178)">
      <rect fill="none" width="400.97" x="-8" height="636.5" y="-8.0312"/>
    </g>
    <g font-family="sans-serif" transform="matrix(0.706,0,0,0.706,320.5336,111.5514)">
      <text xml:space="preserve" x="-2" y="-12.8613" onclick="umlload('package-summary.html')" stroke="none">com.msopentech.odatajclient.engine.data.metadata.edm</text>
    </g>
    <g fill="rgb(187,187,255)" transform="matrix(0.706,0,0,0.706,320.5336,111.5514)" stroke="rgb(187,187,255)">
      <rect x="0" y="0" clip-path="url(#clipPath9)" width="307.97" height="26.625" stroke="none"/>
      <line clip-path="url(#clipPath9)" fill="none" x1="0" x2="307.97" y1="26.625" y2="26.625" stroke="black"/>
      <rect x="0" y="27.625" clip-path="url(#clipPath9)" width="307.97" height="191.625" stroke="none"/>
      <line clip-path="url(#clipPath9)" fill="none" x1="0" x2="307.97" y1="219.25" y2="219.25" stroke="black"/>
      <rect x="0" y="220.25" clip-path="url(#clipPath9)" width="307.97" height="15.9688" stroke="none"/>
      <line clip-path="url(#clipPath9)" fill="none" x1="0" x2="307.97" y1="236.2188" y2="236.2188" stroke="black"/>
      <rect x="0" y="237.2188" clip-path="url(#clipPath9)" width="307.97" height="383.25" stroke="none"/>
    </g>
    <g fill="rgb(130,130,178)" stroke-miterlimit="1.45" transform="matrix(0.706,0,0,0.706,320.5336,111.5514)" stroke-linecap="butt" stroke="rgb(130,130,178)">
      <rect fill="none" width="307.97" x="0" height="620.4688" y="0"/>
    </g>
    <g font-size="16" font-weight="bold" font-family="sans-serif" transform="matrix(0.706,0,0,0.706,320.5336,111.5514)">
      <text xml:space="preserve" x="54.985" y="18.8516" onclick="umlload('#')" stroke="none">AssertTypeExpression</text>
    </g>
    <g font-family="sans-serif" transform="matrix(0.706,0,0,0.706,320.5336,111.5514)">
      <text xml:space="preserve" x="4" y="38.1719" stroke="none">#</text>
      <text xml:space="preserve" x="19" y="39.7637" onclick="umlload('#collation')" stroke="none">collation : String</text>
    </g>
    <g font-family="sans-serif" transform="matrix(0.706,0,0,0.706,320.5336,111.5514)">
      <text xml:space="preserve" x="4" y="54.1719" stroke="none">#</text>
      <text xml:space="preserve" x="19" y="55.7324" onclick="umlload('#defaultValue')" stroke="none">defaultValue : String</text>
    </g>
    <g font-family="sans-serif" transform="matrix(0.706,0,0,0.706,320.5336,111.5514)">
      <text xml:space="preserve" x="4" y="70.1719" stroke="none">#</text>
      <text xml:space="preserve" x="19" y="71.7012" onclick="umlload('#documentation')" stroke="none">documentation : Documentation</text>
    </g>
    <g font-family="sans-serif" transform="matrix(0.706,0,0,0.706,320.5336,111.5514)">
      <text xml:space="preserve" x="4" y="86.1719" stroke="none">#</text>
      <text xml:space="preserve" x="19" y="87.6699" onclick="umlload('#fixedLength')" stroke="none">fixedLength : Boolean</text>
    </g>
    <g font-family="sans-serif" transform="matrix(0.706,0,0,0.706,320.5336,111.5514)">
      <text xml:space="preserve" x="4" y="102.1719" stroke="none">#</text>
      <text xml:space="preserve" x="19" y="103.6387" onclick="umlload('#maxLength')" stroke="none">maxLength : String</text>
    </g>
    <g font-family="sans-serif" transform="matrix(0.706,0,0,0.706,320.5336,111.5514)">
      <text xml:space="preserve" x="4" y="118.1719" stroke="none">#</text>
      <text xml:space="preserve" x="19" y="119.6074" onclick="umlload('#nullable')" stroke="none">nullable : Boolean</text>
    </g>
    <g font-family="sans-serif" transform="matrix(0.706,0,0,0.706,320.5336,111.5514)">
      <text xml:space="preserve" x="4" y="134.1719" stroke="none">#</text>
      <text xml:space="preserve" x="19" y="135.5762" onclick="umlload('#precision')" stroke="none">precision : BigInteger</text>
    </g>
    <g font-family="sans-serif" transform="matrix(0.706,0,0,0.706,320.5336,111.5514)">
      <text xml:space="preserve" x="4" y="150.1719" stroke="none">#</text>
      <text xml:space="preserve" x="19" y="151.5449" onclick="umlload('#scale')" stroke="none">scale : BigInteger</text>
    </g>
    <g font-family="sans-serif" transform="matrix(0.706,0,0,0.706,320.5336,111.5514)">
      <text xml:space="preserve" x="4" y="166.1719" stroke="none">#</text>
      <text xml:space="preserve" x="19" y="167.5137" onclick="umlload('#srid')" stroke="none">srid : String</text>
    </g>
    <g font-family="sans-serif" transform="matrix(0.706,0,0,0.706,320.5336,111.5514)">
      <text xml:space="preserve" x="4" y="182.1719" stroke="none">#</text>
      <text xml:space="preserve" x="19" y="183.4824" onclick="umlload('#stringOrBinaryOrInt')" stroke="none">stringOrBinaryOrInt : List&lt;Object&gt;</text>
    </g>
    <g font-family="sans-serif" transform="matrix(0.706,0,0,0.706,320.5336,111.5514)">
      <text xml:space="preserve" x="4" y="198.1719" stroke="none">#</text>
      <text xml:space="preserve" x="19" y="199.4512" onclick="umlload('#type')" stroke="none">type : String</text>
    </g>
    <g font-family="sans-serif" transform="matrix(0.706,0,0,0.706,320.5336,111.5514)">
      <text xml:space="preserve" x="4" y="214.1719" stroke="none">#</text>
      <text xml:space="preserve" x="19" y="215.4199" onclick="umlload('#unicode')" stroke="none">unicode : Boolean</text>
    </g>
    <g font-family="sans-serif" transform="matrix(0.706,0,0,0.706,320.5336,111.5514)">
      <text xml:space="preserve" x="4" y="231.1719" stroke="none">+</text>
      <text xml:space="preserve" x="19" y="232.3887" onclick="umlload('#AssertTypeExpression()')" stroke="none">AssertTypeExpression()</text>
    </g>
    <g font-family="sans-serif" transform="matrix(0.706,0,0,0.706,320.5336,111.5514)">
      <text xml:space="preserve" x="4" y="248.1719" stroke="none">+</text>
      <text xml:space="preserve" x="19" y="249.3574" onclick="umlload('#getCollation()')" stroke="none">getCollation() : String</text>
    </g>
    <g font-family="sans-serif" transform="matrix(0.706,0,0,0.706,320.5336,111.5514)">
      <text xml:space="preserve" x="4" y="264.1719" stroke="none">+</text>
      <text xml:space="preserve" x="19" y="265.3262" onclick="umlload('#getDefaultValue()')" stroke="none">getDefaultValue() : String</text>
    </g>
    <g font-family="sans-serif" transform="matrix(0.706,0,0,0.706,320.5336,111.5514)">
      <text xml:space="preserve" x="4" y="280.1719" stroke="none">+</text>
      <text xml:space="preserve" x="19" y="281.2949" onclick="umlload('#getDocumentation()')" stroke="none">getDocumentation() : Documentation</text>
    </g>
    <g font-family="sans-serif" transform="matrix(0.706,0,0,0.706,320.5336,111.5514)">
      <text xml:space="preserve" x="4" y="296.1719" stroke="none">+</text>
      <text xml:space="preserve" x="19" y="297.2637" onclick="umlload('#getMaxLength()')" stroke="none">getMaxLength() : String</text>
    </g>
    <g font-family="sans-serif" transform="matrix(0.706,0,0,0.706,320.5336,111.5514)">
      <text xml:space="preserve" x="4" y="312.1719" stroke="none">+</text>
      <text xml:space="preserve" x="19" y="313.2324" onclick="umlload('#getOtherAttributes()')" stroke="none">getOtherAttributes() : Map&lt;QName, String&gt;</text>
    </g>
    <g font-family="sans-serif" transform="matrix(0.706,0,0,0.706,320.5336,111.5514)">
      <text xml:space="preserve" x="4" y="328.1719" stroke="none">+</text>
      <text xml:space="preserve" x="19" y="329.2012" onclick="umlload('#getPrecision()')" stroke="none">getPrecision() : BigInteger</text>
    </g>
    <g font-family="sans-serif" transform="matrix(0.706,0,0,0.706,320.5336,111.5514)">
      <text xml:space="preserve" x="4" y="344.1719" stroke="none">+</text>
      <text xml:space="preserve" x="19" y="345.1699" onclick="umlload('#getScale()')" stroke="none">getScale() : BigInteger</text>
    </g>
    <g font-family="sans-serif" transform="matrix(0.706,0,0,0.706,320.5336,111.5514)">
      <text xml:space="preserve" x="4" y="359.1719" stroke="none">+</text>
      <text xml:space="preserve" x="19" y="361.1387" onclick="umlload('#getSRID()')" stroke="none">getSRID() : String</text>
    </g>
    <g font-family="sans-serif" transform="matrix(0.706,0,0,0.706,320.5336,111.5514)">
      <text xml:space="preserve" x="4" y="375.1719" stroke="none">+</text>
      <text xml:space="preserve" x="19" y="377.1074" onclick="umlload('#getStringOrBinaryOrInt()')" stroke="none">getStringOrBinaryOrInt() : List&lt;Object&gt;</text>
    </g>
    <g font-family="sans-serif" transform="matrix(0.706,0,0,0.706,320.5336,111.5514)">
      <text xml:space="preserve" x="4" y="391.1719" stroke="none">+</text>
      <text xml:space="preserve" x="19" y="393.0762" onclick="umlload('#getType()')" stroke="none">getType() : String</text>
    </g>
    <g font-family="sans-serif" transform="matrix(0.706,0,0,0.706,320.5336,111.5514)">
      <text xml:space="preserve" x="4" y="407.1719" stroke="none">+</text>
      <text xml:space="preserve" x="19" y="409.0449" onclick="umlload('#isFixedLength()')" stroke="none">isFixedLength() : Boolean</text>
    </g>
    <g font-family="sans-serif" transform="matrix(0.706,0,0,0.706,320.5336,111.5514)">
      <text xml:space="preserve" x="4" y="423.1719" stroke="none">+</text>
      <text xml:space="preserve" x="19" y="425.0137" onclick="umlload('#isNullable()')" stroke="none">isNullable() : Boolean</text>
    </g>
    <g font-family="sans-serif" transform="matrix(0.706,0,0,0.706,320.5336,111.5514)">
      <text xml:space="preserve" x="4" y="439.1719" stroke="none">+</text>
      <text xml:space="preserve" x="19" y="440.9824" onclick="umlload('#isUnicode()')" stroke="none">isUnicode() : Boolean</text>
    </g>
    <g font-family="sans-serif" transform="matrix(0.706,0,0,0.706,320.5336,111.5514)">
      <text xml:space="preserve" x="4" y="455.1719" stroke="none">+</text>
      <text xml:space="preserve" x="19" y="456.9512" onclick="umlload('#setCollation(java.lang.String)')" stroke="none">setCollation(String) : void</text>
    </g>
    <g font-family="sans-serif" transform="matrix(0.706,0,0,0.706,320.5336,111.5514)">
      <text xml:space="preserve" x="4" y="471.1719" stroke="none">+</text>
      <text xml:space="preserve" x="19" y="472.9199" onclick="umlload('#setDefaultValue(java.lang.String)')" stroke="none">setDefaultValue(String) : void</text>
    </g>
    <g font-family="sans-serif" transform="matrix(0.706,0,0,0.706,320.5336,111.5514)">
      <text xml:space="preserve" x="4" y="487.1719" stroke="none">+</text>
      <text xml:space="preserve" x="19" y="488.8887" onclick="umlload('#setDocumentation(com.msopentech.odatajclient.engine.data.metadata.edm.Documentation)')" stroke="none">setDocumentation(Documentation) : void</text>
    </g>
    <g font-family="sans-serif" transform="matrix(0.706,0,0,0.706,320.5336,111.5514)">
      <text xml:space="preserve" x="4" y="503.1719" stroke="none">+</text>
      <text xml:space="preserve" x="19" y="504.8574" onclick="umlload('#setFixedLength(java.lang.Boolean)')" stroke="none">setFixedLength(Boolean) : void</text>
    </g>
    <g font-family="sans-serif" transform="matrix(0.706,0,0,0.706,320.5336,111.5514)">
      <text xml:space="preserve" x="4" y="519.1719" stroke="none">+</text>
      <text xml:space="preserve" x="19" y="520.8262" onclick="umlload('#setMaxLength(java.lang.String)')" stroke="none">setMaxLength(String) : void</text>
    </g>
    <g font-family="sans-serif" transform="matrix(0.706,0,0,0.706,320.5336,111.5514)">
      <text xml:space="preserve" x="4" y="535.1719" stroke="none">+</text>
      <text xml:space="preserve" x="19" y="536.7949" onclick="umlload('#setNullable(java.lang.Boolean)')" stroke="none">setNullable(Boolean) : void</text>
    </g>
    <g font-family="sans-serif" transform="matrix(0.706,0,0,0.706,320.5336,111.5514)">
      <text xml:space="preserve" x="4" y="551.1719" stroke="none">+</text>
      <text xml:space="preserve" x="19" y="552.7637" onclick="umlload('#setPrecision(java.math.BigInteger)')" stroke="none">setPrecision(BigInteger) : void</text>
    </g>
    <g font-family="sans-serif" transform="matrix(0.706,0,0,0.706,320.5336,111.5514)">
      <text xml:space="preserve" x="4" y="567.1719" stroke="none">+</text>
      <text xml:space="preserve" x="19" y="568.7324" onclick="umlload('#setScale(java.math.BigInteger)')" stroke="none">setScale(BigInteger) : void</text>
    </g>
    <g font-family="sans-serif" transform="matrix(0.706,0,0,0.706,320.5336,111.5514)">
      <text xml:space="preserve" x="4" y="583.1719" stroke="none">+</text>
      <text xml:space="preserve" x="19" y="584.7012" onclick="umlload('#setSRID(java.lang.String)')" stroke="none">setSRID(String) : void</text>
    </g>
    <g font-family="sans-serif" transform="matrix(0.706,0,0,0.706,320.5336,111.5514)">
      <text xml:space="preserve" x="4" y="599.1719" stroke="none">+</text>
      <text xml:space="preserve" x="19" y="600.6699" onclick="umlload('#setType(java.lang.String)')" stroke="none">setType(String) : void</text>
    </g>
    <g font-family="sans-serif" transform="matrix(0.706,0,0,0.706,320.5336,111.5514)">
      <text xml:space="preserve" x="4" y="615.1719" stroke="none">+</text>
      <text xml:space="preserve" x="19" y="616.6387" onclick="umlload('#setUnicode(java.lang.Boolean)')" stroke="none">setUnicode(Boolean) : void</text>
    </g>
    <g font-family="sans-serif" transform="matrix(0.706,0,0,0.706,320.5336,111.5514)">
      <text xml:space="preserve" x="-448" y="653.1543" onclick="umlload('http://www.yworks.com/')" stroke="none">yWorks UML Doclet</text>
    </g>
    <g stroke-miterlimit="1.45" transform="matrix(0.706,0,0,0.706,320.5336,111.5514)" stroke-linecap="butt">
      <path fill="none" d="M153.985 0 L153.985 -69"/>
      <path fill="white" d="M153.985 -84 L147.985 -68 L159.985 -68 Z" stroke="none"/>
      <path fill="none" d="M153.985 -84 L147.985 -68 L159.985 -68 Z"/>
      <path fill="none" d="M-0.0138 11.5664 L-321.62 11.5664"/>
      <line stroke-linecap="square" transform="matrix(-1,0,0,-1,-321.62,11.5664)" fill="none" x1="0" x2="-14" y1="0" y2="-4" stroke-miterlimit="10"/>
      <line stroke-linecap="square" transform="matrix(-1,0,0,-1,-321.62,11.5664)" fill="none" x1="0" x2="-14" y1="0" y2="4" stroke-miterlimit="10"/>
    </g>
    <g stroke-miterlimit="1.45" transform="matrix(0.706,0,0,0.706,320.5336,111.5514)" stroke-linecap="butt">
      <path fill="none" d="M-0.0075 98.6992 L-66 98.6992"/>
      <line stroke-linecap="square" transform="matrix(-1,0,0,-1,-66,98.6992)" fill="none" x1="0" x2="-14" y1="0" y2="-4" stroke-miterlimit="10"/>
      <line stroke-linecap="square" transform="matrix(-1,0,0,-1,-66,98.6992)" fill="none" x1="0" x2="-14" y1="0" y2="4" stroke-miterlimit="10"/>
    </g>
    <g stroke-miterlimit="1.45" transform="matrix(0.706,0,0,0.706,320.5336,111.5514)" stroke-linecap="butt">
      <path fill="none" d="M-0.0087 131.832 L-81.45 131.832"/>
      <line stroke-linecap="square" transform="matrix(-1,0,0,-1,-81.45,131.832)" fill="none" x1="0" x2="-14" y1="0" y2="-4" stroke-miterlimit="10"/>
      <line stroke-linecap="square" transform="matrix(-1,0,0,-1,-81.45,131.832)" fill="none" x1="0" x2="-14" y1="0" y2="4" stroke-miterlimit="10"/>
    </g>
    <g stroke-miterlimit="1.45" transform="matrix(0.706,0,0,0.706,320.5336,111.5514)" stroke-linecap="butt">
      <path fill="none" d="M-0.0145 218.9648 L-66 218.9648"/>
      <line stroke-linecap="square" transform="matrix(-1,0,0,-1,-66,218.9648)" fill="none" x1="0" x2="-14" y1="0" y2="-4" stroke-miterlimit="10"/>
      <line stroke-linecap="square" transform="matrix(-1,0,0,-1,-66,218.9648)" fill="none" x1="0" x2="-14" y1="0" y2="4" stroke-miterlimit="10"/>
    </g>
    <g stroke-miterlimit="1.45" transform="matrix(0.706,0,0,0.706,320.5336,111.5514)" stroke-linecap="butt">
      <path fill="none" d="M0.0073 310.8886 L-103.8726 310.8886"/>
      <line stroke-linecap="square" transform="matrix(-1,0,0,-1,-103.8726,310.8886)" fill="none" x1="0" x2="-14" y1="0" y2="-4" stroke-miterlimit="10"/>
      <line stroke-linecap="square" transform="matrix(-1,0,0,-1,-103.8726,310.8886)" fill="none" x1="0" x2="-14" y1="0" y2="4" stroke-miterlimit="10"/>
    </g>
    <g stroke-miterlimit="1.45" transform="matrix(0.706,0,0,0.706,320.5336,111.5514)" stroke-linecap="butt">
      <path fill="none" d="M-0.0137 353.6034 L-66 353.6034"/>
      <line stroke-linecap="square" transform="matrix(-1,0,0,-1,-66,353.6034)" fill="none" x1="0" x2="-14" y1="0" y2="-4" stroke-miterlimit="10"/>
      <line stroke-linecap="square" transform="matrix(-1,0,0,-1,-66,353.6034)" fill="none" x1="0" x2="-14" y1="0" y2="4" stroke-miterlimit="10"/>
    </g>
  </g>
</svg>
