<?xml version="1.0" encoding="UTF-8"?><svg xmlns="http://www.w3.org/2000/svg" xmlns:xlink="http://www.w3.org/1999/xlink" fill-opacity="1" color-rendering="auto" color-interpolation="auto" stroke="black" text-rendering="auto" stroke-linecap="square" width="598" stroke-miterlimit="10" stroke-opacity="1" shape-rendering="auto" fill="black" stroke-dasharray="none" font-weight="normal" stroke-width="1" height="598" font-family="'Dialog'" font-style="normal" stroke-linejoin="miter" font-size="12" stroke-dashoffset="0" image-rendering="auto">
  <!--Generated by ySVG-->
  <defs id="genericDefs"/>
  <g>
    <defs id="defs1">
      <clipPath clipPathUnits="userSpaceOnUse" id="clipPath1">
        <path d="M0 0 L598 0 L598 598 L0 598 L0 0 Z"/>
      </clipPath>
      <clipPath clipPathUnits="userSpaceOnUse" id="clipPath2">
        <path d="M-103.8726 136.623 C-103.8726 145.6569 -125.0678 152.9804 -151.2134 152.9804 C-177.359 152.9804 -198.5542 145.6569 -198.5542 136.623 C-198.5542 127.5891 -177.359 120.2656 -151.2134 120.2656 C-125.0678 120.2656 -103.8726 127.5891 -103.8726 136.623 Z"/>
      </clipPath>
      <clipPath clipPathUnits="userSpaceOnUse" id="clipPath3">
        <path d="M-66 179.3377 C-66 188.3717 -95.6733 195.6951 -132.2771 195.6951 C-168.881 195.6951 -198.5542 188.3717 -198.5542 179.3377 C-198.5542 170.3038 -168.881 162.9804 -132.2771 162.9804 C-95.6733 162.9804 -66 170.3038 -66 179.3377 Z"/>
      </clipPath>
      <clipPath clipPathUnits="userSpaceOnUse" id="clipPath4">
        <path d="M-445.22 0 L-321.62 0 L-321.62 23.1328 L-445.22 23.1328 L-445.22 0 Z"/>
      </clipPath>
      <clipPath clipPathUnits="userSpaceOnUse" id="clipPath5">
        <path d="M-445.22 33.1328 L-180.51 33.1328 L-180.51 56.2656 L-445.22 56.2656 L-445.22 33.1328 Z"/>
      </clipPath>
      <clipPath clipPathUnits="userSpaceOnUse" id="clipPath6">
        <path d="M162.225 -107.1328 L219.905 -107.1328 L219.905 -84 L162.225 -84 L162.225 -107.1328 Z"/>
      </clipPath>
      <clipPath clipPathUnits="userSpaceOnUse" id="clipPath7">
        <path d="M0 0 L382.13 0 L382.13 237.2188 L0 237.2188 L0 0 Z"/>
      </clipPath>
      <script type="text/ecmascript"><![CDATA[
function umlload(newLocation)
{
if (newLocation.charAt(0) != '#') {
if (newLocation.indexOf("://") > -1) {
window.parent.location.href = newLocation;
} else {
var tmp = window.parent.location.href;
tmp = tmp.substring(0, tmp.lastIndexOf("/") + 1);
window.parent.location.href = tmp.concat(newLocation);
}
} else {
window.parent.location.hash = newLocation;
}
}
]]></script>
    </defs>
    <g fill="rgb(238,238,255)" transform="matrix(0.7052,0,0,0.7052,320.1557,246.816)" stroke="rgb(238,238,255)">
      <rect width="67.654" x="-206.5542" height="17.9688" y="94.2656" stroke="none"/>
    </g>
    <g fill="rgb(166,166,178)" stroke-miterlimit="1.45" transform="matrix(0.7052,0,0,0.7052,320.1557,246.816)" stroke-linecap="butt" stroke="rgb(166,166,178)">
      <rect fill="none" width="67.654" x="-206.5542" height="17.9688" y="94.2656"/>
    </g>
    <g fill="rgb(238,238,255)" transform="matrix(0.7052,0,0,0.7052,320.1557,246.816)" stroke="rgb(238,238,255)">
      <rect width="148.5542" x="-206.5542" height="91.4607" y="112.2344" stroke="none"/>
    </g>
    <g fill="rgb(166,166,178)" stroke-miterlimit="1.45" transform="matrix(0.7052,0,0,0.7052,320.1557,246.816)" stroke-linecap="butt" stroke="rgb(166,166,178)">
      <rect fill="none" width="148.5542" x="-206.5542" height="91.4607" y="112.2344"/>
    </g>
    <g font-family="sans-serif" transform="matrix(0.7052,0,0,0.7052,320.1557,246.816)">
      <text xml:space="preserve" x="-200.5542" y="107.4043" onclick="umlload('http://docs.oracle.com/javase/6/docs/api/java/util/package-summary.html')" stroke="none">java.util</text>
    </g>
    <g fill="rgb(221,221,255)" transform="matrix(0.7052,0,0,0.7052,320.1557,246.816)" stroke="rgb(221,221,255)">
      <rect x="-198.5542" y="120.2656" clip-path="url(#clipPath2)" width="94.6816" height="32.7147" stroke="none"/>
    </g>
    <g fill="rgb(154,154,178)" stroke-miterlimit="1.45" transform="matrix(0.7052,0,0,0.7052,320.1557,246.816)" stroke-linecap="butt" stroke="rgb(154,154,178)">
      <ellipse rx="47.3408" fill="none" ry="16.3574" cx="-151.2134" cy="136.623"/>
    </g>
    <g font-style="italic" font-size="13" font-weight="bold" font-family="sans-serif" transform="matrix(0.7052,0,0,0.7052,320.1557,246.816)">
      <text xml:space="preserve" x="-179.7134" y="141.1235" onclick="umlload('http://docs.oracle.com/javase/6/docs/api/java/util/List.html')" stroke="none">List&lt;E&gt;</text>
    </g>
    <g fill="rgb(221,221,255)" transform="matrix(0.7052,0,0,0.7052,320.1557,246.816)" stroke="rgb(221,221,255)">
      <rect x="-198.5542" y="162.9804" clip-path="url(#clipPath3)" width="132.5542" height="32.7147" stroke="none"/>
    </g>
    <g fill="rgb(154,154,178)" stroke-miterlimit="1.45" transform="matrix(0.7052,0,0,0.7052,320.1557,246.816)" stroke-linecap="butt" stroke="rgb(154,154,178)">
      <ellipse rx="66.2771" fill="none" ry="16.3574" cx="-132.2771" cy="179.3377"/>
    </g>
    <g font-style="italic" font-size="13" font-weight="bold" font-family="sans-serif" transform="matrix(0.7052,0,0,0.7052,320.1557,246.816)">
      <text xml:space="preserve" x="-173.7771" y="183.8382" onclick="umlload('http://docs.oracle.com/javase/6/docs/api/java/util/Map.html')" stroke="none">Map&lt;K, V&gt;</text>
    </g>
    <g fill="rgb(238,238,255)" transform="matrix(0.7052,0,0,0.7052,320.1557,246.816)" stroke="rgb(238,238,255)">
      <rect width="400.7766" x="-453.22" height="17.9688" y="-26" stroke="none"/>
    </g>
    <g fill="rgb(166,166,178)" stroke-miterlimit="1.45" transform="matrix(0.7052,0,0,0.7052,320.1557,246.816)" stroke-linecap="butt" stroke="rgb(166,166,178)">
      <rect fill="none" width="400.7766" x="-453.22" height="17.9688" y="-26"/>
    </g>
    <g fill="rgb(238,238,255)" transform="matrix(0.7052,0,0,0.7052,320.1557,246.816)" stroke="rgb(238,238,255)">
      <rect width="400.7766" x="-453.22" height="72.2969" y="-8.0312" stroke="none"/>
    </g>
    <g fill="rgb(166,166,178)" stroke-miterlimit="1.45" transform="matrix(0.7052,0,0,0.7052,320.1557,246.816)" stroke-linecap="butt" stroke="rgb(166,166,178)">
      <rect fill="none" width="400.7766" x="-453.22" height="72.2969" y="-8.0312"/>
    </g>
    <g font-family="sans-serif" transform="matrix(0.7052,0,0,0.7052,320.1557,246.816)">
      <text xml:space="preserve" x="-447.22" y="-12.8613" onclick="umlload('../../../../../../../com/msopentech/odatajclient/engine/data/metadata/edm/package-summary.html')" stroke="none">com.msopentech.odatajclient.engine.data.metadata.edm</text>
    </g>
    <g fill="rgb(187,187,255)" transform="matrix(0.7052,0,0,0.7052,320.1557,246.816)" stroke="rgb(187,187,255)">
      <rect x="-445.22" y="0" clip-path="url(#clipPath4)" width="123.6" height="23.1328" stroke="none"/>
    </g>
    <g fill="rgb(130,130,178)" stroke-miterlimit="1.45" transform="matrix(0.7052,0,0,0.7052,320.1557,246.816)" stroke-linecap="butt" stroke="rgb(130,130,178)">
      <rect fill="none" width="123.6" x="-445.22" height="23.1328" y="0"/>
    </g>
    <g font-size="13" font-weight="bold" font-family="sans-serif" transform="matrix(0.7052,0,0,0.7052,320.1557,246.816)">
      <text xml:space="preserve" x="-439.42" y="16.0669" onclick="umlload('../../../../../../../com/msopentech/odatajclient/engine/data/metadata/edm/Documentation.html')" stroke="none">Documentation</text>
    </g>
    <g fill="rgb(187,187,255)" transform="matrix(0.7052,0,0,0.7052,320.1557,246.816)" stroke="rgb(187,187,255)">
      <rect x="-445.22" y="33.1328" clip-path="url(#clipPath5)" width="264.71" height="23.1328" stroke="none"/>
    </g>
    <g fill="rgb(130,130,178)" stroke-miterlimit="1.45" transform="matrix(0.7052,0,0,0.7052,320.1557,246.816)" stroke-linecap="butt" stroke="rgb(130,130,178)">
      <rect fill="none" width="264.71" x="-445.22" height="23.1328" y="33.1328"/>
    </g>
    <g font-size="13" font-weight="bold" font-family="sans-serif" transform="matrix(0.7052,0,0,0.7052,320.1557,246.816)">
      <text xml:space="preserve" x="-437.365" y="49.1997" onclick="umlload('../../../../../../../com/msopentech/odatajclient/engine/data/metadata/edm/ReferentialConstraintRoleElement.html')" stroke="none">ReferentialConstraintRoleElement</text>
    </g>
    <g fill="rgb(238,238,255)" transform="matrix(0.7052,0,0,0.7052,320.1557,246.816)" stroke="rgb(238,238,255)">
      <rect width="76.1412" x="154.225" height="17.9688" y="-133.1328" stroke="none"/>
    </g>
    <g fill="rgb(166,166,178)" stroke-miterlimit="1.45" transform="matrix(0.7052,0,0,0.7052,320.1557,246.816)" stroke-linecap="butt" stroke="rgb(166,166,178)">
      <rect fill="none" width="76.1412" x="154.225" height="17.9688" y="-133.1328"/>
    </g>
    <g fill="rgb(238,238,255)" transform="matrix(0.7052,0,0,0.7052,320.1557,246.816)" stroke="rgb(238,238,255)">
      <rect width="76.1412" x="154.225" height="39.1641" y="-115.1641" stroke="none"/>
    </g>
    <g fill="rgb(166,166,178)" stroke-miterlimit="1.45" transform="matrix(0.7052,0,0,0.7052,320.1557,246.816)" stroke-linecap="butt" stroke="rgb(166,166,178)">
      <rect fill="none" width="76.1412" x="154.225" height="39.1641" y="-115.1641"/>
    </g>
    <g font-family="sans-serif" transform="matrix(0.7052,0,0,0.7052,320.1557,246.816)">
      <text xml:space="preserve" x="160.225" y="-119.9941" onclick="umlload('http://docs.oracle.com/javase/6/docs/api/java/lang/package-summary.html')" stroke="none">java.lang</text>
    </g>
    <g fill="rgb(187,187,255)" transform="matrix(0.7052,0,0,0.7052,320.1557,246.816)" stroke="rgb(187,187,255)">
      <rect x="162.225" y="-107.1328" clip-path="url(#clipPath6)" width="57.68" height="23.1328" stroke="none"/>
    </g>
    <g fill="rgb(130,130,178)" stroke-miterlimit="1.45" transform="matrix(0.7052,0,0,0.7052,320.1557,246.816)" stroke-linecap="butt" stroke="rgb(130,130,178)">
      <rect fill="none" width="57.68" x="162.225" height="23.1328" y="-107.1328"/>
    </g>
    <g font-size="13" font-weight="bold" font-family="sans-serif" transform="matrix(0.7052,0,0,0.7052,320.1557,246.816)">
      <text xml:space="preserve" x="167.065" y="-91.0659" onclick="umlload('http://docs.oracle.com/javase/6/docs/api/java/lang/Object.html')" stroke="none">Object</text>
    </g>
    <g fill="rgb(238,238,255)" transform="matrix(0.7052,0,0,0.7052,320.1557,246.816)" stroke="rgb(238,238,255)">
      <rect width="400.7766" x="-8" height="17.9688" y="-26" stroke="none"/>
    </g>
    <g fill="rgb(166,166,178)" stroke-miterlimit="1.45" transform="matrix(0.7052,0,0,0.7052,320.1557,246.816)" stroke-linecap="butt" stroke="rgb(166,166,178)">
      <rect fill="none" width="400.7766" x="-8" height="17.9688" y="-26"/>
    </g>
    <g fill="rgb(238,238,255)" transform="matrix(0.7052,0,0,0.7052,320.1557,246.816)" stroke="rgb(238,238,255)">
      <rect width="401.13" x="-8" height="253.25" y="-8.0312" stroke="none"/>
    </g>
    <g fill="rgb(166,166,178)" stroke-miterlimit="1.45" transform="matrix(0.7052,0,0,0.7052,320.1557,246.816)" stroke-linecap="butt" stroke="rgb(166,166,178)">
      <rect fill="none" width="401.13" x="-8" height="253.25" y="-8.0312"/>
    </g>
    <g font-family="sans-serif" transform="matrix(0.7052,0,0,0.7052,320.1557,246.816)">
      <text xml:space="preserve" x="-2" y="-12.8613" onclick="umlload('package-summary.html')" stroke="none">com.msopentech.odatajclient.engine.data.metadata.edm</text>
    </g>
    <g fill="rgb(187,187,255)" transform="matrix(0.7052,0,0,0.7052,320.1557,246.816)" stroke="rgb(187,187,255)">
      <rect x="0" y="0" clip-path="url(#clipPath7)" width="382.13" height="26.625" stroke="none"/>
      <line clip-path="url(#clipPath7)" fill="none" x1="0" x2="382.13" y1="26.625" y2="26.625" stroke="black"/>
      <rect x="0" y="27.625" clip-path="url(#clipPath7)" width="382.13" height="63.875" stroke="none"/>
      <line clip-path="url(#clipPath7)" fill="none" x1="0" x2="382.13" y1="91.5" y2="91.5" stroke="black"/>
      <rect x="0" y="92.5" clip-path="url(#clipPath7)" width="382.13" height="15.9688" stroke="none"/>
      <line clip-path="url(#clipPath7)" fill="none" x1="0" x2="382.13" y1="108.4688" y2="108.4688" stroke="black"/>
      <rect x="0" y="109.4688" clip-path="url(#clipPath7)" width="382.13" height="127.75" stroke="none"/>
    </g>
    <g fill="rgb(130,130,178)" stroke-miterlimit="1.45" transform="matrix(0.7052,0,0,0.7052,320.1557,246.816)" stroke-linecap="butt" stroke="rgb(130,130,178)">
      <rect fill="none" width="382.13" x="0" height="237.2188" y="0"/>
    </g>
    <g font-size="16" font-weight="bold" font-family="sans-serif" transform="matrix(0.7052,0,0,0.7052,320.1557,246.816)">
      <text xml:space="preserve" x="144.565" y="18.8516" onclick="umlload('#')" stroke="none">Constraint</text>
    </g>
    <g font-family="sans-serif" transform="matrix(0.7052,0,0,0.7052,320.1557,246.816)">
      <text xml:space="preserve" x="4" y="38.1719" stroke="none">#</text>
      <text xml:space="preserve" x="19" y="39.7637" onclick="umlload('#any')" stroke="none">any : List&lt;Object&gt;</text>
    </g>
    <g font-family="sans-serif" transform="matrix(0.7052,0,0,0.7052,320.1557,246.816)">
      <text xml:space="preserve" x="4" y="54.1719" stroke="none">#</text>
      <text xml:space="preserve" x="19" y="55.7324" onclick="umlload('#dependent')" stroke="none">dependent : ReferentialConstraintRoleElement</text>
    </g>
    <g font-family="sans-serif" transform="matrix(0.7052,0,0,0.7052,320.1557,246.816)">
      <text xml:space="preserve" x="4" y="70.1719" stroke="none">#</text>
      <text xml:space="preserve" x="19" y="71.7012" onclick="umlload('#documentation')" stroke="none">documentation : Documentation</text>
    </g>
    <g font-family="sans-serif" transform="matrix(0.7052,0,0,0.7052,320.1557,246.816)">
      <text xml:space="preserve" x="4" y="86.1719" stroke="none">#</text>
      <text xml:space="preserve" x="19" y="87.6699" onclick="umlload('#principal')" stroke="none">principal : ReferentialConstraintRoleElement</text>
    </g>
    <g font-family="sans-serif" transform="matrix(0.7052,0,0,0.7052,320.1557,246.816)">
      <text xml:space="preserve" x="4" y="103.1719" stroke="none">+</text>
      <text xml:space="preserve" x="19" y="104.6387" onclick="umlload('#Constraint()')" stroke="none">Constraint()</text>
    </g>
    <g font-family="sans-serif" transform="matrix(0.7052,0,0,0.7052,320.1557,246.816)">
      <text xml:space="preserve" x="4" y="120.1719" stroke="none">+</text>
      <text xml:space="preserve" x="19" y="121.6074" onclick="umlload('#getAny()')" stroke="none">getAny() : List&lt;Object&gt;</text>
    </g>
    <g font-family="sans-serif" transform="matrix(0.7052,0,0,0.7052,320.1557,246.816)">
      <text xml:space="preserve" x="4" y="136.1719" stroke="none">+</text>
      <text xml:space="preserve" x="19" y="137.5762" onclick="umlload('#getDependent()')" stroke="none">getDependent() : ReferentialConstraintRoleElement</text>
    </g>
    <g font-family="sans-serif" transform="matrix(0.7052,0,0,0.7052,320.1557,246.816)">
      <text xml:space="preserve" x="4" y="152.1719" stroke="none">+</text>
      <text xml:space="preserve" x="19" y="153.5449" onclick="umlload('#getDocumentation()')" stroke="none">getDocumentation() : Documentation</text>
    </g>
    <g font-family="sans-serif" transform="matrix(0.7052,0,0,0.7052,320.1557,246.816)">
      <text xml:space="preserve" x="4" y="168.1719" stroke="none">+</text>
      <text xml:space="preserve" x="19" y="169.5137" onclick="umlload('#getOtherAttributes()')" stroke="none">getOtherAttributes() : Map&lt;QName, String&gt;</text>
    </g>
    <g font-family="sans-serif" transform="matrix(0.7052,0,0,0.7052,320.1557,246.816)">
      <text xml:space="preserve" x="4" y="184.1719" stroke="none">+</text>
      <text xml:space="preserve" x="19" y="185.4824" onclick="umlload('#getPrincipal()')" stroke="none">getPrincipal() : ReferentialConstraintRoleElement</text>
    </g>
    <g font-family="sans-serif" transform="matrix(0.7052,0,0,0.7052,320.1557,246.816)">
      <text xml:space="preserve" x="4" y="200.1719" stroke="none">+</text>
      <text xml:space="preserve" x="19" y="201.4512" onclick="umlload('#setDependent(com.msopentech.odatajclient.engine.data.metadata.edm.ReferentialConstraintRoleElement)')" stroke="none">setDependent(ReferentialConstraintRoleElement) : void</text>
    </g>
    <g font-family="sans-serif" transform="matrix(0.7052,0,0,0.7052,320.1557,246.816)">
      <text xml:space="preserve" x="4" y="216.1719" stroke="none">+</text>
      <text xml:space="preserve" x="19" y="217.4199" onclick="umlload('#setDocumentation(com.msopentech.odatajclient.engine.data.metadata.edm.Documentation)')" stroke="none">setDocumentation(Documentation) : void</text>
    </g>
    <g font-family="sans-serif" transform="matrix(0.7052,0,0,0.7052,320.1557,246.816)">
      <text xml:space="preserve" x="4" y="232.1719" stroke="none">+</text>
      <text xml:space="preserve" x="19" y="233.3887" onclick="umlload('#setPrincipal(com.msopentech.odatajclient.engine.data.metadata.edm.ReferentialConstraintRoleElement)')" stroke="none">setPrincipal(ReferentialConstraintRoleElement) : void</text>
    </g>
    <g font-family="sans-serif" transform="matrix(0.7052,0,0,0.7052,320.1557,246.816)">
      <text xml:space="preserve" x="-448" y="270.1543" onclick="umlload('http://www.yworks.com/')" stroke="none">yWorks UML Doclet</text>
    </g>
    <g stroke-miterlimit="1.45" transform="matrix(0.7052,0,0,0.7052,320.1557,246.816)" stroke-linecap="butt">
      <path fill="none" d="M191.065 0 L191.065 -69"/>
      <path fill="white" d="M191.065 -84 L185.065 -68 L197.065 -68 Z" stroke="none"/>
      <path fill="none" d="M191.065 -84 L185.065 -68 L197.065 -68 Z"/>
      <path fill="none" d="M0.0025 11.5664 L-321.62 11.5664"/>
      <line stroke-linecap="square" transform="matrix(-1,0,0,-1,-321.62,11.5664)" fill="none" x1="0" x2="-14" y1="0" y2="-4" stroke-miterlimit="10"/>
      <line stroke-linecap="square" transform="matrix(-1,0,0,-1,-321.62,11.5664)" fill="none" x1="0" x2="-14" y1="0" y2="4" stroke-miterlimit="10"/>
    </g>
    <g stroke-miterlimit="1.45" transform="matrix(0.7052,0,0,0.7052,320.1557,246.816)" stroke-linecap="butt">
      <path fill="none" d="M0.0305 44.6992 L-180.51 44.6992"/>
      <line stroke-linecap="square" transform="matrix(-1,0,0,-1,-180.51,44.6992)" fill="none" x1="0" x2="-14" y1="0" y2="-4" stroke-miterlimit="10"/>
      <line stroke-linecap="square" transform="matrix(-1,0,0,-1,-180.51,44.6992)" fill="none" x1="0" x2="-14" y1="0" y2="4" stroke-miterlimit="10"/>
    </g>
    <g stroke-miterlimit="1.45" transform="matrix(0.7052,0,0,0.7052,320.1557,246.816)" stroke-linecap="butt">
      <path fill="none" d="M-0.0043 136.623 L-103.8726 136.623"/>
      <line stroke-linecap="square" transform="matrix(-1,0,0,-1,-103.8726,136.623)" fill="none" x1="0" x2="-14" y1="0" y2="-4" stroke-miterlimit="10"/>
      <line stroke-linecap="square" transform="matrix(-1,0,0,-1,-103.8726,136.623)" fill="none" x1="0" x2="-14" y1="0" y2="4" stroke-miterlimit="10"/>
    </g>
    <g stroke-miterlimit="1.45" transform="matrix(0.7052,0,0,0.7052,320.1557,246.816)" stroke-linecap="butt">
      <path fill="none" d="M-0.0116 179.3377 L-66 179.3377"/>
      <line stroke-linecap="square" transform="matrix(-1,0,0,-1,-66,179.3377)" fill="none" x1="0" x2="-14" y1="0" y2="-4" stroke-miterlimit="10"/>
      <line stroke-linecap="square" transform="matrix(-1,0,0,-1,-66,179.3377)" fill="none" x1="0" x2="-14" y1="0" y2="4" stroke-miterlimit="10"/>
    </g>
  </g>
</svg>
