<?xml version="1.0" encoding="UTF-8"?><svg xmlns="http://www.w3.org/2000/svg" xmlns:xlink="http://www.w3.org/1999/xlink" fill-opacity="1" color-rendering="auto" color-interpolation="auto" stroke="black" text-rendering="auto" stroke-linecap="square" width="598" stroke-miterlimit="10" stroke-opacity="1" shape-rendering="auto" fill="black" stroke-dasharray="none" font-weight="normal" stroke-width="1" height="598" font-family="'Dialog'" font-style="normal" stroke-linejoin="miter" font-size="12" stroke-dashoffset="0" image-rendering="auto">
  <!--Generated by ySVG-->
  <defs id="genericDefs"/>
  <g>
    <defs id="defs1">
      <clipPath clipPathUnits="userSpaceOnUse" id="clipPath1">
        <path d="M0 0 L598 0 L598 598 L0 598 L0 0 Z"/>
      </clipPath>
      <clipPath clipPathUnits="userSpaceOnUse" id="clipPath2">
        <path d="M435.22 0 L492.9 0 L492.9 23.1328 L435.22 23.1328 L435.22 0 Z"/>
      </clipPath>
      <clipPath clipPathUnits="userSpaceOnUse" id="clipPath3">
        <path d="M-145.31 0 L-66 0 L-66 23.1328 L-145.31 23.1328 L-145.31 0 Z"/>
      </clipPath>
      <clipPath clipPathUnits="userSpaceOnUse" id="clipPath4">
        <path d="M-145.31 33.1328 L-91.75 33.1328 L-91.75 56.2656 L-145.31 56.2656 L-145.31 33.1328 Z"/>
      </clipPath>
      <clipPath clipPathUnits="userSpaceOnUse" id="clipPath5">
        <path d="M31.415 -107.1328 L226.085 -107.1328 L226.085 -84 L31.415 -84 L31.415 -107.1328 Z"/>
      </clipPath>
      <clipPath clipPathUnits="userSpaceOnUse" id="clipPath6">
        <path d="M0 0 L257.5 0 L257.5 216.25 L0 216.25 L0 0 Z"/>
      </clipPath>
      <script type="text/ecmascript"><![CDATA[
function umlload(newLocation)
{
if (newLocation.charAt(0) != '#') {
if (newLocation.indexOf("://") > -1) {
window.parent.location.href = newLocation;
} else {
var tmp = window.parent.location.href;
tmp = tmp.substring(0, tmp.lastIndexOf("/") + 1);
window.parent.location.href = tmp.concat(newLocation);
}
} else {
window.parent.location.hash = newLocation;
}
}
]]></script>
    </defs>
    <g fill="rgb(238,238,255)" transform="matrix(0.9047,0,0,0.9047,139.3222,241.5522)" stroke="rgb(238,238,255)">
      <rect width="76.1412" x="427.22" height="17.9688" y="-26" stroke="none"/>
    </g>
    <g fill="rgb(166,166,178)" stroke-miterlimit="1.45" transform="matrix(0.9047,0,0,0.9047,139.3222,241.5522)" stroke-linecap="butt" stroke="rgb(166,166,178)">
      <rect fill="none" width="76.1412" x="427.22" height="17.9688" y="-26"/>
    </g>
    <g fill="rgb(238,238,255)" transform="matrix(0.9047,0,0,0.9047,139.3222,241.5522)" stroke="rgb(238,238,255)">
      <rect width="79.68" x="427.22" height="39.1641" y="-8.0312" stroke="none"/>
    </g>
    <g fill="rgb(166,166,178)" stroke-miterlimit="1.45" transform="matrix(0.9047,0,0,0.9047,139.3222,241.5522)" stroke-linecap="butt" stroke="rgb(166,166,178)">
      <rect fill="none" width="79.68" x="427.22" height="39.1641" y="-8.0312"/>
    </g>
    <g font-family="sans-serif" transform="matrix(0.9047,0,0,0.9047,139.3222,241.5522)">
      <text xml:space="preserve" x="433.22" y="-12.8613" onclick="umlload('http://docs.oracle.com/javase/6/docs/api/java/lang/package-summary.html')" stroke="none">java.lang</text>
    </g>
    <g fill="rgb(187,187,255)" transform="matrix(0.9047,0,0,0.9047,139.3222,241.5522)" stroke="rgb(187,187,255)">
      <rect x="435.22" y="0" clip-path="url(#clipPath2)" width="57.68" height="23.1328" stroke="none"/>
    </g>
    <g fill="rgb(130,130,178)" stroke-miterlimit="1.45" transform="matrix(0.9047,0,0,0.9047,139.3222,241.5522)" stroke-linecap="butt" stroke="rgb(130,130,178)">
      <rect fill="none" width="57.68" x="435.22" height="23.1328" y="0"/>
    </g>
    <g font-size="13" font-weight="bold" font-family="sans-serif" transform="matrix(0.9047,0,0,0.9047,139.3222,241.5522)">
      <text xml:space="preserve" x="440.06" y="16.0669" onclick="umlload('http://docs.oracle.com/javase/6/docs/api/java/lang/Object.html')" stroke="none">Object</text>
    </g>
    <g fill="rgb(238,238,255)" transform="matrix(0.9047,0,0,0.9047,139.3222,241.5522)" stroke="rgb(238,238,255)">
      <rect width="76.1412" x="-153.31" height="17.9688" y="-26" stroke="none"/>
    </g>
    <g fill="rgb(166,166,178)" stroke-miterlimit="1.45" transform="matrix(0.9047,0,0,0.9047,139.3222,241.5522)" stroke-linecap="butt" stroke="rgb(166,166,178)">
      <rect fill="none" width="76.1412" x="-153.31" height="17.9688" y="-26"/>
    </g>
    <g fill="rgb(238,238,255)" transform="matrix(0.9047,0,0,0.9047,139.3222,241.5522)" stroke="rgb(238,238,255)">
      <rect width="95.31" x="-153.31" height="72.2969" y="-8.0312" stroke="none"/>
    </g>
    <g fill="rgb(166,166,178)" stroke-miterlimit="1.45" transform="matrix(0.9047,0,0,0.9047,139.3222,241.5522)" stroke-linecap="butt" stroke="rgb(166,166,178)">
      <rect fill="none" width="95.31" x="-153.31" height="72.2969" y="-8.0312"/>
    </g>
    <g font-family="sans-serif" transform="matrix(0.9047,0,0,0.9047,139.3222,241.5522)">
      <text xml:space="preserve" x="-147.31" y="-12.8613" onclick="umlload('http://docs.oracle.com/javase/6/docs/api/java/lang/package-summary.html')" stroke="none">java.lang</text>
    </g>
    <g fill="rgb(187,187,255)" transform="matrix(0.9047,0,0,0.9047,139.3222,241.5522)" stroke="rgb(187,187,255)">
      <rect x="-145.31" y="0" clip-path="url(#clipPath3)" width="79.31" height="23.1328" stroke="none"/>
    </g>
    <g fill="rgb(130,130,178)" stroke-miterlimit="1.45" transform="matrix(0.9047,0,0,0.9047,139.3222,241.5522)" stroke-linecap="butt" stroke="rgb(130,130,178)">
      <rect fill="none" width="79.31" x="-145.31" height="23.1328" y="0"/>
    </g>
    <g font-size="13" font-weight="bold" font-family="sans-serif" transform="matrix(0.9047,0,0,0.9047,139.3222,241.5522)">
      <text xml:space="preserve" x="-140.155" y="16.0669" onclick="umlload('http://docs.oracle.com/javase/6/docs/api/java/lang/Class.html')" stroke="none">Class&lt;T&gt;</text>
    </g>
    <g fill="rgb(187,187,255)" transform="matrix(0.9047,0,0,0.9047,139.3222,241.5522)" stroke="rgb(187,187,255)">
      <rect x="-145.31" y="33.1328" clip-path="url(#clipPath4)" width="53.56" height="23.1328" stroke="none"/>
    </g>
    <g fill="rgb(130,130,178)" stroke-miterlimit="1.45" transform="matrix(0.9047,0,0,0.9047,139.3222,241.5522)" stroke-linecap="butt" stroke="rgb(130,130,178)">
      <rect fill="none" width="53.56" x="-145.31" height="23.1328" y="33.1328"/>
    </g>
    <g font-size="13" font-weight="bold" font-family="sans-serif" transform="matrix(0.9047,0,0,0.9047,139.3222,241.5522)">
      <text xml:space="preserve" x="-140.53" y="49.1997" onclick="umlload('http://docs.oracle.com/javase/6/docs/api/java/lang/String.html')" stroke="none">String</text>
    </g>
    <g fill="rgb(238,238,255)" transform="matrix(0.9047,0,0,0.9047,139.3222,241.5522)" stroke="rgb(238,238,255)">
      <rect width="76.1412" x="23.415" height="17.9688" y="-133.1328" stroke="none"/>
    </g>
    <g fill="rgb(166,166,178)" stroke-miterlimit="1.45" transform="matrix(0.9047,0,0,0.9047,139.3222,241.5522)" stroke-linecap="butt" stroke="rgb(166,166,178)">
      <rect fill="none" width="76.1412" x="23.415" height="17.9688" y="-133.1328"/>
    </g>
    <g fill="rgb(238,238,255)" transform="matrix(0.9047,0,0,0.9047,139.3222,241.5522)" stroke="rgb(238,238,255)">
      <rect width="210.67" x="23.415" height="39.1641" y="-115.1641" stroke="none"/>
    </g>
    <g fill="rgb(166,166,178)" stroke-miterlimit="1.45" transform="matrix(0.9047,0,0,0.9047,139.3222,241.5522)" stroke-linecap="butt" stroke="rgb(166,166,178)">
      <rect fill="none" width="210.67" x="23.415" height="39.1641" y="-115.1641"/>
    </g>
    <g font-family="sans-serif" transform="matrix(0.9047,0,0,0.9047,139.3222,241.5522)">
      <text xml:space="preserve" x="29.415" y="-119.9941" onclick="umlload('http://docs.oracle.com/javase/6/docs/api/java/lang/package-summary.html')" stroke="none">java.lang</text>
    </g>
    <g fill="rgb(204,204,255)" transform="matrix(0.9047,0,0,0.9047,139.3222,241.5522)" stroke="rgb(204,204,255)">
      <rect x="31.415" y="-107.1328" clip-path="url(#clipPath5)" width="194.67" height="23.1328" stroke="none"/>
    </g>
    <g fill="rgb(142,142,178)" stroke-miterlimit="1.45" transform="matrix(0.9047,0,0,0.9047,139.3222,241.5522)" stroke-linecap="butt" stroke="rgb(142,142,178)">
      <rect fill="none" width="194.67" x="31.415" height="23.1328" y="-107.1328"/>
    </g>
    <g font-size="13" font-weight="bold" font-family="sans-serif" transform="matrix(0.9047,0,0,0.9047,139.3222,241.5522)">
      <text xml:space="preserve" x="38.25" y="-91.0659" onclick="umlload('http://docs.oracle.com/javase/6/docs/api/java/lang/Enum.html')" stroke="none">Enum&lt;EdmSimpleType&gt;</text>
    </g>
    <g fill="rgb(238,238,255)" transform="matrix(0.9047,0,0,0.9047,139.3222,241.5522)" stroke="rgb(238,238,255)">
      <rect width="400.7766" x="-8" height="17.9688" y="-26" stroke="none"/>
    </g>
    <g fill="rgb(166,166,178)" stroke-miterlimit="1.45" transform="matrix(0.9047,0,0,0.9047,139.3222,241.5522)" stroke-linecap="butt" stroke="rgb(166,166,178)">
      <rect fill="none" width="400.7766" x="-8" height="17.9688" y="-26"/>
    </g>
    <g fill="rgb(238,238,255)" transform="matrix(0.9047,0,0,0.9047,139.3222,241.5522)" stroke="rgb(238,238,255)">
      <rect width="400.7766" x="-8" height="232.2812" y="-8.0312" stroke="none"/>
    </g>
    <g fill="rgb(166,166,178)" stroke-miterlimit="1.45" transform="matrix(0.9047,0,0,0.9047,139.3222,241.5522)" stroke-linecap="butt" stroke="rgb(166,166,178)">
      <rect fill="none" width="400.7766" x="-8" height="232.2812" y="-8.0312"/>
    </g>
    <g font-family="sans-serif" transform="matrix(0.9047,0,0,0.9047,139.3222,241.5522)">
      <text xml:space="preserve" x="-2" y="-12.8613" onclick="umlload('package-summary.html')" stroke="none">com.msopentech.odatajclient.engine.data.metadata.edm</text>
    </g>
    <g fill="rgb(170,170,255)" transform="matrix(0.9047,0,0,0.9047,139.3222,241.5522)" stroke="rgb(170,170,255)">
      <rect x="0" y="0" clip-path="url(#clipPath6)" width="257.5" height="38.5938" stroke="none"/>
      <line clip-path="url(#clipPath6)" fill="none" x1="0" x2="257.5" y1="38.5938" y2="38.5938" stroke="black"/>
      <line clip-path="url(#clipPath6)" x1="0" x2="257.5" y1="39.5938" y2="39.5938" stroke="none"/>
      <line clip-path="url(#clipPath6)" fill="none" x1="0" x2="257.5" y1="39.5938" y2="39.5938" stroke="black"/>
      <rect x="0" y="40.5938" clip-path="url(#clipPath6)" width="257.5" height="175.6562" stroke="none"/>
    </g>
    <g fill="rgb(118,118,178)" stroke-miterlimit="1.45" transform="matrix(0.9047,0,0,0.9047,139.3222,241.5522)" stroke-linecap="butt" stroke="rgb(118,118,178)">
      <rect fill="none" width="257.5" x="0" height="216.25" y="0"/>
    </g>
    <g font-size="16" font-weight="bold" font-family="sans-serif" transform="matrix(0.9047,0,0,0.9047,139.3222,241.5522)">
      <text xml:space="preserve" x="60.25" y="32.8203" onclick="umlload('#')" stroke="none">EdmSimpleType</text>
    </g>
    <g font-family="sans-serif" transform="matrix(0.9047,0,0,0.9047,139.3222,241.5522)">
      <text xml:space="preserve" x="104.25" y="13.1387" stroke="none">«enum»</text>
    </g>
    <g font-family="sans-serif" transform="matrix(0.9047,0,0,0.9047,139.3222,241.5522)">
      <text xml:space="preserve" x="4" y="51.1719" stroke="none">+</text>
      <text xml:space="preserve" x="19" y="52.7324" onclick="umlload('#fromObject(java.lang.Object)')" stroke="none">fromObject(Object) : EdmSimpleType</text>
      <line y2="55.5625" fill="none" x1="19" x2="246" y1="55.5625"/>
    </g>
    <g font-family="sans-serif" transform="matrix(0.9047,0,0,0.9047,139.3222,241.5522)">
      <text xml:space="preserve" x="4" y="67.1719" stroke="none">+</text>
      <text xml:space="preserve" x="19" y="68.7012" onclick="umlload('#fromValue(java.lang.String)')" stroke="none">fromValue(String) : EdmSimpleType</text>
      <line y2="71.5312" fill="none" x1="19" x2="238" y1="71.5312"/>
    </g>
    <g font-family="sans-serif" transform="matrix(0.9047,0,0,0.9047,139.3222,241.5522)">
      <text xml:space="preserve" x="4" y="83.1719" stroke="none">+</text>
      <text xml:space="preserve" x="19" y="84.6699" onclick="umlload('#isGeospatial()')" stroke="none">isGeospatial() : boolean</text>
    </g>
    <g font-family="sans-serif" transform="matrix(0.9047,0,0,0.9047,139.3222,241.5522)">
      <text xml:space="preserve" x="4" y="99.1719" stroke="none">+</text>
      <text xml:space="preserve" x="19" y="100.6387" onclick="umlload('#isGeospatial(java.lang.String)')" stroke="none">isGeospatial(String) : boolean</text>
      <line y2="103.4688" fill="none" x1="19" x2="206" y1="103.4688"/>
    </g>
    <g font-family="sans-serif" transform="matrix(0.9047,0,0,0.9047,139.3222,241.5522)">
      <text xml:space="preserve" x="4" y="115.1719" stroke="none">+</text>
      <text xml:space="preserve" x="19" y="116.6074" onclick="umlload('#javaType()')" stroke="none">javaType() : Class&lt;?&gt;</text>
    </g>
    <g font-family="sans-serif" transform="matrix(0.9047,0,0,0.9047,139.3222,241.5522)">
      <text xml:space="preserve" x="4" y="131.1719" stroke="none">+</text>
      <text xml:space="preserve" x="19" y="132.5762" onclick="umlload('#namespace()')" stroke="none">namespace() : String</text>
      <line y2="135.4062" fill="none" x1="19" x2="151" y1="135.4062"/>
    </g>
    <g font-family="sans-serif" transform="matrix(0.9047,0,0,0.9047,139.3222,241.5522)">
      <text xml:space="preserve" x="4" y="147.1719" stroke="none">+</text>
      <text xml:space="preserve" x="19" y="148.5449" onclick="umlload('#pattern()')" stroke="none">pattern() : String</text>
    </g>
    <g font-family="sans-serif" transform="matrix(0.9047,0,0,0.9047,139.3222,241.5522)">
      <text xml:space="preserve" x="4" y="163.1719" stroke="none">+</text>
      <text xml:space="preserve" x="19" y="164.5137" onclick="umlload('#toString()')" stroke="none">toString() : String</text>
    </g>
    <g font-family="sans-serif" transform="matrix(0.9047,0,0,0.9047,139.3222,241.5522)">
      <text xml:space="preserve" x="4" y="179.1719" stroke="none">+</text>
      <text xml:space="preserve" x="19" y="180.4824" onclick="umlload('#value()')" stroke="none">value() : String</text>
    </g>
    <g font-family="sans-serif" transform="matrix(0.9047,0,0,0.9047,139.3222,241.5522)">
      <text xml:space="preserve" x="4" y="195.1719" stroke="none">+</text>
      <text xml:space="preserve" x="19" y="196.4512" onclick="umlload('#valueOf(java.lang.String)')" stroke="none">valueOf(String) : EdmSimpleType</text>
      <line y2="199.2812" fill="none" x1="19" x2="221" y1="199.2812"/>
    </g>
    <g font-family="sans-serif" transform="matrix(0.9047,0,0,0.9047,139.3222,241.5522)">
      <text xml:space="preserve" x="4" y="211.1719" stroke="none">+</text>
      <text xml:space="preserve" x="19" y="212.4199" onclick="umlload('#values()')" stroke="none">values() : EdmSimpleType[]</text>
      <line y2="215.25" fill="none" x1="19" x2="188" y1="215.25"/>
    </g>
    <g font-family="sans-serif" transform="matrix(0.9047,0,0,0.9047,139.3222,241.5522)">
      <text xml:space="preserve" x="-148" y="249.1543" onclick="umlload('http://www.yworks.com/')" stroke="none">yWorks UML Doclet</text>
    </g>
    <g stroke-miterlimit="1.45" transform="matrix(0.9047,0,0,0.9047,139.3222,241.5522)" stroke-linecap="butt">
      <path fill="none" d="M128.75 0 L128.75 -69"/>
      <path fill="white" d="M128.75 -84 L122.75 -68 L134.75 -68 Z" stroke="none"/>
      <path fill="none" d="M128.75 -84 L122.75 -68 L134.75 -68 Z"/>
      <path fill="none" d="M0.0161 11.5664 L-66 11.5664"/>
      <line stroke-linecap="square" transform="matrix(-1,0,0,-1,-66,11.5664)" fill="none" x1="0" x2="-14" y1="0" y2="-4" stroke-miterlimit="10"/>
      <line stroke-linecap="square" transform="matrix(-1,0,0,-1,-66,11.5664)" fill="none" x1="0" x2="-14" y1="0" y2="4" stroke-miterlimit="10"/>
    </g>
    <g stroke-miterlimit="1.45" transform="matrix(0.9047,0,0,0.9047,139.3222,241.5522)" stroke-linecap="butt">
      <path fill="none" d="M0.0086 44.6992 L-91.75 44.6992"/>
      <line stroke-linecap="square" transform="matrix(-1,0,0,-1,-91.75,44.6992)" fill="none" x1="0" x2="-14" y1="0" y2="-4" stroke-miterlimit="10"/>
      <line stroke-linecap="square" transform="matrix(-1,0,0,-1,-91.75,44.6992)" fill="none" x1="0" x2="-14" y1="0" y2="4" stroke-miterlimit="10"/>
    </g>
    <g stroke-dasharray="6,2" stroke-miterlimit="1.45" transform="matrix(0.9047,0,0,0.9047,139.3222,241.5522)" stroke-linecap="butt">
      <path fill="none" d="M257.4792 11.5664 L435.22 11.5664"/>
      <line stroke-linecap="square" transform="matrix(1,0,0,1,435.22,11.5664)" fill="none" x1="0" x2="-14" y1="0" y2="-4" stroke-dasharray="none" stroke-miterlimit="10"/>
      <line stroke-linecap="square" transform="matrix(1,0,0,1,435.22,11.5664)" fill="none" x1="0" x2="-14" y1="0" y2="4" stroke-dasharray="none" stroke-miterlimit="10"/>
    </g>
  </g>
</svg>
