<?xml version="1.0" encoding="UTF-8"?><svg xmlns="http://www.w3.org/2000/svg" xmlns:xlink="http://www.w3.org/1999/xlink" fill-opacity="1" color-rendering="auto" color-interpolation="auto" stroke="black" text-rendering="auto" stroke-linecap="square" width="598" stroke-miterlimit="10" stroke-opacity="1" shape-rendering="auto" fill="black" stroke-dasharray="none" font-weight="normal" stroke-width="1" height="598" font-family="'Dialog'" font-style="normal" stroke-linejoin="miter" font-size="12" stroke-dashoffset="0" image-rendering="auto">
  <!--Generated by ySVG-->
  <defs id="genericDefs"/>
  <g>
    <defs id="defs1">
      <clipPath clipPathUnits="userSpaceOnUse" id="clipPath1">
        <path d="M0 0 L598 0 L598 598 L0 598 L0 0 Z"/>
      </clipPath>
      <clipPath clipPathUnits="userSpaceOnUse" id="clipPath2">
        <path d="M-103.8726 277.7558 C-103.8726 286.7897 -125.0678 294.1132 -151.2134 294.1132 C-177.359 294.1132 -198.5542 286.7897 -198.5542 277.7558 C-198.5542 268.7219 -177.359 261.3984 -151.2134 261.3984 C-125.0678 261.3984 -103.8726 268.7219 -103.8726 277.7558 Z"/>
      </clipPath>
      <clipPath clipPathUnits="userSpaceOnUse" id="clipPath3">
        <path d="M-66 320.4706 C-66 329.5045 -95.6733 336.8279 -132.2771 336.8279 C-168.881 336.8279 -198.5542 329.5045 -198.5542 320.4706 C-198.5542 311.4366 -168.881 304.1132 -132.2771 304.1132 C-95.6733 304.1132 -66 311.4366 -66 320.4706 Z"/>
      </clipPath>
      <clipPath clipPathUnits="userSpaceOnUse" id="clipPath4">
        <path d="M-130.04 174.2656 L-76.48 174.2656 L-76.48 197.3984 L-130.04 197.3984 L-130.04 174.2656 Z"/>
      </clipPath>
      <clipPath clipPathUnits="userSpaceOnUse" id="clipPath5">
        <path d="M-552.34 87.1328 L-491.57 87.1328 L-491.57 110.2656 L-552.34 110.2656 L-552.34 87.1328 Z"/>
      </clipPath>
      <clipPath clipPathUnits="userSpaceOnUse" id="clipPath6">
        <path d="M-445.22 0 L-321.62 0 L-321.62 23.1328 L-445.22 23.1328 L-445.22 0 Z"/>
      </clipPath>
      <clipPath clipPathUnits="userSpaceOnUse" id="clipPath7">
        <path d="M112.27 -107.1328 L264.71 -107.1328 L264.71 -84 L112.27 -84 L112.27 -107.1328 Z"/>
      </clipPath>
      <clipPath clipPathUnits="userSpaceOnUse" id="clipPath8">
        <path d="M0 0 L376.98 0 L376.98 344.8279 L0 344.8279 L0 0 Z"/>
      </clipPath>
      <script type="text/ecmascript"><![CDATA[
function umlload(newLocation)
{
if (newLocation.charAt(0) != '#') {
if (newLocation.indexOf("://") > -1) {
window.parent.location.href = newLocation;
} else {
var tmp = window.parent.location.href;
tmp = tmp.substring(0, tmp.lastIndexOf("/") + 1);
window.parent.location.href = tmp.concat(newLocation);
}
} else {
window.parent.location.hash = newLocation;
}
}
]]></script>
    </defs>
    <g fill="rgb(238,238,255)" transform="matrix(0.6236,0,0,0.6236,349.8206,219.4953)" stroke="rgb(238,238,255)">
      <rect width="67.654" x="-206.5542" height="17.9688" y="235.3984" stroke="none"/>
    </g>
    <g fill="rgb(166,166,178)" stroke-miterlimit="1.45" transform="matrix(0.6236,0,0,0.6236,349.8206,219.4953)" stroke-linecap="butt" stroke="rgb(166,166,178)">
      <rect fill="none" width="67.654" x="-206.5542" height="17.9688" y="235.3984"/>
    </g>
    <g fill="rgb(238,238,255)" transform="matrix(0.6236,0,0,0.6236,349.8206,219.4953)" stroke="rgb(238,238,255)">
      <rect width="148.5542" x="-206.5542" height="91.4607" y="253.3672" stroke="none"/>
    </g>
    <g fill="rgb(166,166,178)" stroke-miterlimit="1.45" transform="matrix(0.6236,0,0,0.6236,349.8206,219.4953)" stroke-linecap="butt" stroke="rgb(166,166,178)">
      <rect fill="none" width="148.5542" x="-206.5542" height="91.4607" y="253.3672"/>
    </g>
    <g font-family="sans-serif" transform="matrix(0.6236,0,0,0.6236,349.8206,219.4953)">
      <text xml:space="preserve" x="-200.5542" y="248.5371" onclick="umlload('http://docs.oracle.com/javase/6/docs/api/java/util/package-summary.html')" stroke="none">java.util</text>
    </g>
    <g fill="rgb(221,221,255)" transform="matrix(0.6236,0,0,0.6236,349.8206,219.4953)" stroke="rgb(221,221,255)">
      <rect x="-198.5542" y="261.3984" clip-path="url(#clipPath2)" width="94.6816" height="32.7147" stroke="none"/>
    </g>
    <g fill="rgb(154,154,178)" stroke-miterlimit="1.45" transform="matrix(0.6236,0,0,0.6236,349.8206,219.4953)" stroke-linecap="butt" stroke="rgb(154,154,178)">
      <ellipse rx="47.3408" fill="none" ry="16.3574" cx="-151.2134" cy="277.7558"/>
    </g>
    <g font-style="italic" font-size="13" font-weight="bold" font-family="sans-serif" transform="matrix(0.6236,0,0,0.6236,349.8206,219.4953)">
      <text xml:space="preserve" x="-179.7134" y="282.2563" onclick="umlload('http://docs.oracle.com/javase/6/docs/api/java/util/List.html')" stroke="none">List&lt;E&gt;</text>
    </g>
    <g fill="rgb(221,221,255)" transform="matrix(0.6236,0,0,0.6236,349.8206,219.4953)" stroke="rgb(221,221,255)">
      <rect x="-198.5542" y="304.1132" clip-path="url(#clipPath3)" width="132.5542" height="32.7147" stroke="none"/>
    </g>
    <g fill="rgb(154,154,178)" stroke-miterlimit="1.45" transform="matrix(0.6236,0,0,0.6236,349.8206,219.4953)" stroke-linecap="butt" stroke="rgb(154,154,178)">
      <ellipse rx="66.2771" fill="none" ry="16.3574" cx="-132.2771" cy="320.4705"/>
    </g>
    <g font-style="italic" font-size="13" font-weight="bold" font-family="sans-serif" transform="matrix(0.6236,0,0,0.6236,349.8206,219.4953)">
      <text xml:space="preserve" x="-173.7771" y="324.971" onclick="umlload('http://docs.oracle.com/javase/6/docs/api/java/util/Map.html')" stroke="none">Map&lt;K, V&gt;</text>
    </g>
    <g fill="rgb(238,238,255)" transform="matrix(0.6236,0,0,0.6236,349.8206,219.4953)" stroke="rgb(238,238,255)">
      <rect width="76.1412" x="-138.04" height="17.9688" y="148.2656" stroke="none"/>
    </g>
    <g fill="rgb(166,166,178)" stroke-miterlimit="1.45" transform="matrix(0.6236,0,0,0.6236,349.8206,219.4953)" stroke-linecap="butt" stroke="rgb(166,166,178)">
      <rect fill="none" width="76.1412" x="-138.04" height="17.9688" y="148.2656"/>
    </g>
    <g fill="rgb(238,238,255)" transform="matrix(0.6236,0,0,0.6236,349.8206,219.4953)" stroke="rgb(238,238,255)">
      <rect width="79.56" x="-138.04" height="39.1641" y="166.2344" stroke="none"/>
    </g>
    <g fill="rgb(166,166,178)" stroke-miterlimit="1.45" transform="matrix(0.6236,0,0,0.6236,349.8206,219.4953)" stroke-linecap="butt" stroke="rgb(166,166,178)">
      <rect fill="none" width="79.56" x="-138.04" height="39.1641" y="166.2344"/>
    </g>
    <g font-family="sans-serif" transform="matrix(0.6236,0,0,0.6236,349.8206,219.4953)">
      <text xml:space="preserve" x="-132.04" y="161.4043" onclick="umlload('http://docs.oracle.com/javase/6/docs/api/java/lang/package-summary.html')" stroke="none">java.lang</text>
    </g>
    <g fill="rgb(187,187,255)" transform="matrix(0.6236,0,0,0.6236,349.8206,219.4953)" stroke="rgb(187,187,255)">
      <rect x="-130.04" y="174.2656" clip-path="url(#clipPath4)" width="53.56" height="23.1328" stroke="none"/>
    </g>
    <g fill="rgb(130,130,178)" stroke-miterlimit="1.45" transform="matrix(0.6236,0,0,0.6236,349.8206,219.4953)" stroke-linecap="butt" stroke="rgb(130,130,178)">
      <rect fill="none" width="53.56" x="-130.04" height="23.1328" y="174.2656"/>
    </g>
    <g font-size="13" font-weight="bold" font-family="sans-serif" transform="matrix(0.6236,0,0,0.6236,349.8206,219.4953)">
      <text xml:space="preserve" x="-125.26" y="190.3325" onclick="umlload('http://docs.oracle.com/javase/6/docs/api/java/lang/String.html')" stroke="none">String</text>
    </g>
    <g fill="rgb(238,238,255)" transform="matrix(0.6236,0,0,0.6236,349.8206,219.4953)" stroke="rgb(238,238,255)">
      <rect width="511.1102" x="-560.34" height="17.9688" y="61.1328" stroke="none"/>
    </g>
    <g fill="rgb(166,166,178)" stroke-miterlimit="1.45" transform="matrix(0.6236,0,0,0.6236,349.8206,219.4953)" stroke-linecap="butt" stroke="rgb(166,166,178)">
      <rect fill="none" width="511.1102" x="-560.34" height="17.9688" y="61.1328"/>
    </g>
    <g fill="rgb(238,238,255)" transform="matrix(0.6236,0,0,0.6236,349.8206,219.4953)" stroke="rgb(238,238,255)">
      <rect width="511.1102" x="-560.34" height="39.1641" y="79.1016" stroke="none"/>
    </g>
    <g fill="rgb(166,166,178)" stroke-miterlimit="1.45" transform="matrix(0.6236,0,0,0.6236,349.8206,219.4953)" stroke-linecap="butt" stroke="rgb(166,166,178)">
      <rect fill="none" width="511.1102" x="-560.34" height="39.1641" y="79.1016"/>
    </g>
    <g font-family="sans-serif" transform="matrix(0.6236,0,0,0.6236,349.8206,219.4953)">
      <text xml:space="preserve" x="-554.34" y="74.2715" onclick="umlload('../../../../../../../com/msopentech/odatajclient/engine/data/metadata/edm/codegeneration/package-summary.html')" stroke="none">com.msopentech.odatajclient.engine.data.metadata.edm.codegeneration</text>
    </g>
    <g fill="rgb(170,170,255)" transform="matrix(0.6236,0,0,0.6236,349.8206,219.4953)" stroke="rgb(170,170,255)">
      <rect x="-552.34" y="87.1328" clip-path="url(#clipPath5)" width="60.77" height="23.1328" stroke="none"/>
    </g>
    <g fill="rgb(118,118,178)" stroke-miterlimit="1.45" transform="matrix(0.6236,0,0,0.6236,349.8206,219.4953)" stroke-linecap="butt" stroke="rgb(118,118,178)">
      <rect fill="none" width="60.77" x="-552.34" height="23.1328" y="87.1328"/>
    </g>
    <g font-size="13" font-weight="bold" font-family="sans-serif" transform="matrix(0.6236,0,0,0.6236,349.8206,219.4953)">
      <text xml:space="preserve" x="-547.455" y="103.1997" onclick="umlload('../../../../../../../com/msopentech/odatajclient/engine/data/metadata/edm/codegeneration/Access.html')" stroke="none">Access</text>
    </g>
    <g fill="rgb(238,238,255)" transform="matrix(0.6236,0,0,0.6236,349.8206,219.4953)" stroke="rgb(238,238,255)">
      <rect width="400.7766" x="-453.22" height="17.9688" y="-26" stroke="none"/>
    </g>
    <g fill="rgb(166,166,178)" stroke-miterlimit="1.45" transform="matrix(0.6236,0,0,0.6236,349.8206,219.4953)" stroke-linecap="butt" stroke="rgb(166,166,178)">
      <rect fill="none" width="400.7766" x="-453.22" height="17.9688" y="-26"/>
    </g>
    <g fill="rgb(238,238,255)" transform="matrix(0.6236,0,0,0.6236,349.8206,219.4953)" stroke="rgb(238,238,255)">
      <rect width="400.7766" x="-453.22" height="39.1641" y="-8.0312" stroke="none"/>
    </g>
    <g fill="rgb(166,166,178)" stroke-miterlimit="1.45" transform="matrix(0.6236,0,0,0.6236,349.8206,219.4953)" stroke-linecap="butt" stroke="rgb(166,166,178)">
      <rect fill="none" width="400.7766" x="-453.22" height="39.1641" y="-8.0312"/>
    </g>
    <g font-family="sans-serif" transform="matrix(0.6236,0,0,0.6236,349.8206,219.4953)">
      <text xml:space="preserve" x="-447.22" y="-12.8613" onclick="umlload('../../../../../../../com/msopentech/odatajclient/engine/data/metadata/edm/package-summary.html')" stroke="none">com.msopentech.odatajclient.engine.data.metadata.edm</text>
    </g>
    <g fill="rgb(187,187,255)" transform="matrix(0.6236,0,0,0.6236,349.8206,219.4953)" stroke="rgb(187,187,255)">
      <rect x="-445.22" y="0" clip-path="url(#clipPath6)" width="123.6" height="23.1328" stroke="none"/>
    </g>
    <g fill="rgb(130,130,178)" stroke-miterlimit="1.45" transform="matrix(0.6236,0,0,0.6236,349.8206,219.4953)" stroke-linecap="butt" stroke="rgb(130,130,178)">
      <rect fill="none" width="123.6" x="-445.22" height="23.1328" y="0"/>
    </g>
    <g font-size="13" font-weight="bold" font-family="sans-serif" transform="matrix(0.6236,0,0,0.6236,349.8206,219.4953)">
      <text xml:space="preserve" x="-439.42" y="16.0669" onclick="umlload('../../../../../../../com/msopentech/odatajclient/engine/data/metadata/edm/Documentation.html')" stroke="none">Documentation</text>
    </g>
    <g fill="rgb(238,238,255)" transform="matrix(0.6236,0,0,0.6236,349.8206,219.4953)" stroke="rgb(238,238,255)">
      <rect width="400.7766" x="-3.73" height="17.9688" y="-133.1328" stroke="none"/>
    </g>
    <g fill="rgb(166,166,178)" stroke-miterlimit="1.45" transform="matrix(0.6236,0,0,0.6236,349.8206,219.4953)" stroke-linecap="butt" stroke="rgb(166,166,178)">
      <rect fill="none" width="400.7766" x="-3.73" height="17.9688" y="-133.1328"/>
    </g>
    <g fill="rgb(238,238,255)" transform="matrix(0.6236,0,0,0.6236,349.8206,219.4953)" stroke="rgb(238,238,255)">
      <rect width="400.7766" x="-3.73" height="39.1641" y="-115.1641" stroke="none"/>
    </g>
    <g fill="rgb(166,166,178)" stroke-miterlimit="1.45" transform="matrix(0.6236,0,0,0.6236,349.8206,219.4953)" stroke-linecap="butt" stroke="rgb(166,166,178)">
      <rect fill="none" width="400.7766" x="-3.73" height="39.1641" y="-115.1641"/>
    </g>
    <g font-family="sans-serif" transform="matrix(0.6236,0,0,0.6236,349.8206,219.4953)">
      <text xml:space="preserve" x="2.27" y="-119.9941" onclick="umlload('../../../../../../../com/msopentech/odatajclient/engine/data/metadata/edm/package-summary.html')" stroke="none">com.msopentech.odatajclient.engine.data.metadata.edm</text>
    </g>
    <g fill="rgb(204,204,255)" transform="matrix(0.6236,0,0,0.6236,349.8206,219.4953)" stroke="rgb(204,204,255)">
      <rect x="112.27" y="-107.1328" clip-path="url(#clipPath7)" width="152.44" height="23.1328" stroke="none"/>
    </g>
    <g fill="rgb(142,142,178)" stroke-miterlimit="1.45" transform="matrix(0.6236,0,0,0.6236,349.8206,219.4953)" stroke-linecap="butt" stroke="rgb(142,142,178)">
      <rect fill="none" width="152.44" x="112.27" height="23.1328" y="-107.1328"/>
    </g>
    <g font-size="13" font-weight="bold" font-family="sans-serif" transform="matrix(0.6236,0,0,0.6236,349.8206,219.4953)">
      <text xml:space="preserve" x="118.49" y="-91.0659" onclick="umlload('../../../../../../../com/msopentech/odatajclient/engine/data/metadata/edm/AbstractAnnotated.html')" stroke="none">AbstractAnnotated</text>
    </g>
    <g fill="rgb(238,238,255)" transform="matrix(0.6236,0,0,0.6236,349.8206,219.4953)" stroke="rgb(238,238,255)">
      <rect width="400.7766" x="-8" height="17.9688" y="-26" stroke="none"/>
    </g>
    <g fill="rgb(166,166,178)" stroke-miterlimit="1.45" transform="matrix(0.6236,0,0,0.6236,349.8206,219.4953)" stroke-linecap="butt" stroke="rgb(166,166,178)">
      <rect fill="none" width="400.7766" x="-8" height="17.9688" y="-26"/>
    </g>
    <g fill="rgb(238,238,255)" transform="matrix(0.6236,0,0,0.6236,349.8206,219.4953)" stroke="rgb(238,238,255)">
      <rect width="400.98" x="-8" height="360.8592" y="-8.0312" stroke="none"/>
    </g>
    <g fill="rgb(166,166,178)" stroke-miterlimit="1.45" transform="matrix(0.6236,0,0,0.6236,349.8206,219.4953)" stroke-linecap="butt" stroke="rgb(166,166,178)">
      <rect fill="none" width="400.98" x="-8" height="360.8592" y="-8.0312"/>
    </g>
    <g font-family="sans-serif" transform="matrix(0.6236,0,0,0.6236,349.8206,219.4953)">
      <text xml:space="preserve" x="-2" y="-12.8613" onclick="umlload('package-summary.html')" stroke="none">com.msopentech.odatajclient.engine.data.metadata.edm</text>
    </g>
    <g fill="rgb(187,187,255)" transform="matrix(0.6236,0,0,0.6236,349.8206,219.4953)" stroke="rgb(187,187,255)">
      <rect x="0" y="0" clip-path="url(#clipPath8)" width="376.98" height="26.625" stroke="none"/>
      <line clip-path="url(#clipPath8)" fill="none" x1="0" x2="376.98" y1="26.625" y2="26.625" stroke="black"/>
      <rect x="0" y="27.625" clip-path="url(#clipPath8)" width="376.98" height="79.8438" stroke="none"/>
      <line clip-path="url(#clipPath8)" fill="none" x1="0" x2="376.98" y1="107.4688" y2="107.4688" stroke="black"/>
      <rect x="0" y="108.4688" clip-path="url(#clipPath8)" width="376.98" height="15.9688" stroke="none"/>
      <line clip-path="url(#clipPath8)" fill="none" x1="0" x2="376.98" y1="124.4375" y2="124.4375" stroke="black"/>
      <rect x="0" y="125.4375" clip-path="url(#clipPath8)" width="376.98" height="219.3904" stroke="none"/>
    </g>
    <g fill="rgb(130,130,178)" stroke-miterlimit="1.45" transform="matrix(0.6236,0,0,0.6236,349.8206,219.4953)" stroke-linecap="butt" stroke="rgb(130,130,178)">
      <rect fill="none" width="376.98" x="0" height="344.8279" y="0"/>
    </g>
    <g font-size="16" font-weight="bold" font-family="sans-serif" transform="matrix(0.6236,0,0,0.6236,349.8206,219.4953)">
      <text xml:space="preserve" x="76.49" y="18.8516" onclick="umlload('#')" stroke="none">EntityContainer.EntitySet</text>
    </g>
    <g font-family="sans-serif" transform="matrix(0.6236,0,0,0.6236,349.8206,219.4953)">
      <text xml:space="preserve" x="4" y="38.1719" stroke="none">#</text>
      <text xml:space="preserve" x="19" y="39.7637" onclick="umlload('#documentation')" stroke="none">documentation : Documentation</text>
    </g>
    <g font-family="sans-serif" transform="matrix(0.6236,0,0,0.6236,349.8206,219.4953)">
      <text xml:space="preserve" x="4" y="54.1719" stroke="none">#</text>
      <text xml:space="preserve" x="19" y="55.7324" onclick="umlload('#entityType')" stroke="none">entityType : String</text>
    </g>
    <g font-family="sans-serif" transform="matrix(0.6236,0,0,0.6236,349.8206,219.4953)">
      <text xml:space="preserve" x="4" y="70.1719" stroke="none">#</text>
      <text xml:space="preserve" x="19" y="71.7012" onclick="umlload('#getterAccess')" stroke="none">getterAccess : Access</text>
    </g>
    <g font-family="sans-serif" transform="matrix(0.6236,0,0,0.6236,349.8206,219.4953)">
      <text xml:space="preserve" x="4" y="86.1719" stroke="none">#</text>
      <text xml:space="preserve" x="19" y="87.6699" onclick="umlload('#name')" stroke="none">name : String</text>
    </g>
    <g font-family="sans-serif" transform="matrix(0.6236,0,0,0.6236,349.8206,219.4953)">
      <text xml:space="preserve" x="4" y="102.1719" stroke="none">#</text>
      <text xml:space="preserve" x="19" y="103.6387" onclick="umlload('#valueAnnotationOrTypeAnnotationOrAny')" stroke="none">valueAnnotationOrTypeAnnotationOrAny : List&lt;Object&gt;</text>
    </g>
    <g font-family="sans-serif" transform="matrix(0.6236,0,0,0.6236,349.8206,219.4953)">
      <text xml:space="preserve" x="4" y="119.1719" stroke="none">+</text>
      <text xml:space="preserve" x="19" y="120.6074" onclick="umlload('#EntityContainer.EntitySet()')" stroke="none">EntityContainer.EntitySet()</text>
    </g>
    <g font-family="sans-serif" transform="matrix(0.6236,0,0,0.6236,349.8206,219.4953)">
      <text xml:space="preserve" x="4" y="136.1719" stroke="none">+</text>
      <text xml:space="preserve" x="19" y="137.5762" onclick="umlload('#getDocumentation()')" stroke="none">getDocumentation() : Documentation</text>
    </g>
    <g font-family="sans-serif" transform="matrix(0.6236,0,0,0.6236,349.8206,219.4953)">
      <text xml:space="preserve" x="4" y="152.1719" stroke="none">+</text>
      <text xml:space="preserve" x="19" y="153.5449" onclick="umlload('#getEntityType()')" stroke="none">getEntityType() : String</text>
    </g>
    <g font-family="sans-serif" transform="matrix(0.6236,0,0,0.6236,349.8206,219.4953)">
      <text xml:space="preserve" x="4" y="168.1719" stroke="none">+</text>
      <text xml:space="preserve" x="19" y="169.5137" onclick="umlload('#getGetterAccess()')" stroke="none">getGetterAccess() : Access</text>
    </g>
    <g font-family="sans-serif" transform="matrix(0.6236,0,0,0.6236,349.8206,219.4953)">
      <text xml:space="preserve" x="4" y="184.1719" stroke="none">+</text>
      <text xml:space="preserve" x="19" y="185.4824" onclick="umlload('#getName()')" stroke="none">getName() : String</text>
    </g>
    <g font-family="sans-serif" transform="matrix(0.6236,0,0,0.6236,349.8206,219.4953)">
      <text xml:space="preserve" x="4" y="200.1719" stroke="none">+</text>
      <text xml:space="preserve" x="19" y="201.4512" onclick="umlload('#getOtherAttributes()')" stroke="none">getOtherAttributes() : Map&lt;QName, String&gt;</text>
    </g>
    <g font-family="sans-serif" transform="matrix(0.6236,0,0,0.6236,349.8206,219.4953)">
      <text xml:space="preserve" x="4" y="216.1719" stroke="none">+</text>
      <text xml:space="preserve" x="19" y="217.4199" onclick="umlload('#getValues()')" stroke="none">getValues() : List&lt;Object&gt;</text>
    </g>
    <g font-family="sans-serif" transform="matrix(0.6236,0,0,0.6236,349.8206,219.4953)">
      <text xml:space="preserve" x="4" y="232.1719" stroke="none">+</text>
      <text xml:space="preserve" x="19" y="233.3887" onclick="umlload('#setDocumentation(com.msopentech.odatajclient.engine.data.metadata.edm.Documentation)')" stroke="none">setDocumentation(Documentation) : void</text>
    </g>
    <g font-family="sans-serif" transform="matrix(0.6236,0,0,0.6236,349.8206,219.4953)">
      <text xml:space="preserve" x="4" y="248.1719" stroke="none">+</text>
      <text xml:space="preserve" x="19" y="249.3574" onclick="umlload('#setEntityType(java.lang.String)')" stroke="none">setEntityType(String) : void</text>
    </g>
    <g font-family="sans-serif" transform="matrix(0.6236,0,0,0.6236,349.8206,219.4953)">
      <text xml:space="preserve" x="4" y="264.1719" stroke="none">+</text>
      <text xml:space="preserve" x="19" y="265.3262" onclick="umlload('#setGetterAccess(com.msopentech.odatajclient.engine.data.metadata.edm.codegeneration.Access)')" stroke="none">setGetterAccess(Access) : void</text>
    </g>
    <g font-family="sans-serif" transform="matrix(0.6236,0,0,0.6236,349.8206,219.4953)">
      <text xml:space="preserve" x="4" y="280.1719" stroke="none">+</text>
      <text xml:space="preserve" x="19" y="281.2949" onclick="umlload('#setName(java.lang.String)')" stroke="none">setName(String) : void</text>
    </g>
    <g font-family="sans-serif" transform="matrix(0.6236,0,0,0.6236,349.8206,219.4953)">
      <text xml:space="preserve" x="-555" y="377.1543" onclick="umlload('http://www.yworks.com/')" stroke="none">yWorks UML Doclet</text>
    </g>
    <g stroke-miterlimit="1.45" transform="matrix(0.6236,0,0,0.6236,349.8206,219.4953)" stroke-linecap="butt">
      <path fill="none" d="M188.49 -0.0183 L188.49 -69"/>
      <path fill="white" d="M188.49 -84 L182.49 -68 L194.49 -68 Z" stroke="none"/>
      <path fill="none" d="M188.49 -84 L182.49 -68 L194.49 -68 Z"/>
      <path fill="none" d="M0.0292 11.5664 L-321.62 11.5664"/>
      <line stroke-linecap="square" transform="matrix(-1,0,0,-1,-321.62,11.5664)" fill="none" x1="0" x2="-14" y1="0" y2="-4" stroke-miterlimit="10"/>
      <line stroke-linecap="square" transform="matrix(-1,0,0,-1,-321.62,11.5664)" fill="none" x1="0" x2="-14" y1="0" y2="4" stroke-miterlimit="10"/>
    </g>
    <g stroke-miterlimit="1.45" transform="matrix(0.6236,0,0,0.6236,349.8206,219.4953)" stroke-linecap="butt">
      <path fill="none" d="M-0.0051 98.6992 L-491.57 98.6992"/>
      <line stroke-linecap="square" transform="matrix(-1,0,0,-1,-491.57,98.6992)" fill="none" x1="0" x2="-14" y1="0" y2="-4" stroke-miterlimit="10"/>
      <line stroke-linecap="square" transform="matrix(-1,0,0,-1,-491.57,98.6992)" fill="none" x1="0" x2="-14" y1="0" y2="4" stroke-miterlimit="10"/>
    </g>
    <g stroke-miterlimit="1.45" transform="matrix(0.6236,0,0,0.6236,349.8206,219.4953)" stroke-linecap="butt">
      <path fill="none" d="M-0.015 185.832 L-76.48 185.832"/>
      <line stroke-linecap="square" transform="matrix(-1,0,0,-1,-76.48,185.832)" fill="none" x1="0" x2="-14" y1="0" y2="-4" stroke-miterlimit="10"/>
      <line stroke-linecap="square" transform="matrix(-1,0,0,-1,-76.48,185.832)" fill="none" x1="0" x2="-14" y1="0" y2="4" stroke-miterlimit="10"/>
    </g>
    <g stroke-miterlimit="1.45" transform="matrix(0.6236,0,0,0.6236,349.8206,219.4953)" stroke-linecap="butt">
      <path fill="none" d="M0.0193 277.7558 L-103.8726 277.7558"/>
      <line stroke-linecap="square" transform="matrix(-1,0,0,-1,-103.8726,277.7558)" fill="none" x1="0" x2="-14" y1="0" y2="-4" stroke-miterlimit="10"/>
      <line stroke-linecap="square" transform="matrix(-1,0,0,-1,-103.8726,277.7558)" fill="none" x1="0" x2="-14" y1="0" y2="4" stroke-miterlimit="10"/>
    </g>
    <g stroke-miterlimit="1.45" transform="matrix(0.6236,0,0,0.6236,349.8206,219.4953)" stroke-linecap="butt">
      <path fill="none" d="M0.0315 320.4706 L-66 320.4706"/>
      <line stroke-linecap="square" transform="matrix(-1,0,0,-1,-66,320.4706)" fill="none" x1="0" x2="-14" y1="0" y2="-4" stroke-miterlimit="10"/>
      <line stroke-linecap="square" transform="matrix(-1,0,0,-1,-66,320.4706)" fill="none" x1="0" x2="-14" y1="0" y2="4" stroke-miterlimit="10"/>
    </g>
  </g>
</svg>
