<?xml version="1.0" encoding="UTF-8"?><svg xmlns="http://www.w3.org/2000/svg" xmlns:xlink="http://www.w3.org/1999/xlink" fill-opacity="1" color-rendering="auto" color-interpolation="auto" stroke="black" text-rendering="auto" stroke-linecap="square" width="598" stroke-miterlimit="10" stroke-opacity="1" shape-rendering="auto" fill="black" stroke-dasharray="none" font-weight="normal" stroke-width="1" height="598" font-family="'Dialog'" font-style="normal" stroke-linejoin="miter" font-size="12" stroke-dashoffset="0" image-rendering="auto">
  <!--Generated by ySVG-->
  <defs id="genericDefs"/>
  <g>
    <defs id="defs1">
      <clipPath clipPathUnits="userSpaceOnUse" id="clipPath1">
        <path d="M0 0 L598 0 L598 598 L0 598 L0 0 Z"/>
      </clipPath>
      <clipPath clipPathUnits="userSpaceOnUse" id="clipPath2">
        <path d="M-103.8726 310.8886 C-103.8726 319.9225 -125.0678 327.246 -151.2134 327.246 C-177.359 327.246 -198.5542 319.9225 -198.5542 310.8886 C-198.5542 301.8547 -177.359 294.5312 -151.2134 294.5312 C-125.0678 294.5312 -103.8726 301.8547 -103.8726 310.8886 Z"/>
      </clipPath>
      <clipPath clipPathUnits="userSpaceOnUse" id="clipPath3">
        <path d="M-66 353.6034 C-66 362.6373 -95.6733 369.9607 -132.2771 369.9607 C-168.881 369.9607 -198.5542 362.6373 -198.5542 353.6034 C-198.5542 344.5694 -168.881 337.246 -132.2771 337.246 C-95.6733 337.246 -66 344.5694 -66 353.6034 Z"/>
      </clipPath>
      <clipPath clipPathUnits="userSpaceOnUse" id="clipPath4">
        <path d="M-135.01 174.2656 L-66 174.2656 L-66 197.3984 L-135.01 197.3984 L-135.01 174.2656 Z"/>
      </clipPath>
      <clipPath clipPathUnits="userSpaceOnUse" id="clipPath5">
        <path d="M-135.01 207.3984 L-81.45 207.3984 L-81.45 230.5312 L-135.01 230.5312 L-135.01 207.3984 Z"/>
      </clipPath>
      <clipPath clipPathUnits="userSpaceOnUse" id="clipPath6">
        <path d="M-552.34 87.1328 L-491.57 87.1328 L-491.57 110.2656 L-552.34 110.2656 L-552.34 87.1328 Z"/>
      </clipPath>
      <clipPath clipPathUnits="userSpaceOnUse" id="clipPath7">
        <path d="M-445.22 0 L-321.62 0 L-321.62 23.1328 L-445.22 23.1328 L-445.22 0 Z"/>
      </clipPath>
      <clipPath clipPathUnits="userSpaceOnUse" id="clipPath8">
        <path d="M120.51 -107.1328 L272.95 -107.1328 L272.95 -84 L120.51 -84 L120.51 -107.1328 Z"/>
      </clipPath>
      <clipPath clipPathUnits="userSpaceOnUse" id="clipPath9">
        <path d="M0 0 L393.46 0 L393.46 588.5312 L0 588.5312 L0 0 Z"/>
      </clipPath>
      <script type="text/ecmascript"><![CDATA[
function umlload(newLocation)
{
if (newLocation.charAt(0) != '#') {
if (newLocation.indexOf("://") > -1) {
window.parent.location.href = newLocation;
} else {
var tmp = window.parent.location.href;
tmp = tmp.substring(0, tmp.lastIndexOf("/") + 1);
window.parent.location.href = tmp.concat(newLocation);
}
} else {
window.parent.location.hash = newLocation;
}
}
]]></script>
    </defs>
    <g fill="rgb(238,238,255)" transform="matrix(0.6184,0,0,0.6184,346.9266,144.7073)" stroke="rgb(238,238,255)">
      <rect width="67.654" x="-206.5542" height="17.9688" y="268.5312" stroke="none"/>
    </g>
    <g fill="rgb(166,166,178)" stroke-miterlimit="1.45" transform="matrix(0.6184,0,0,0.6184,346.9266,144.7073)" stroke-linecap="butt" stroke="rgb(166,166,178)">
      <rect fill="none" width="67.654" x="-206.5542" height="17.9688" y="268.5312"/>
    </g>
    <g fill="rgb(238,238,255)" transform="matrix(0.6184,0,0,0.6184,346.9266,144.7073)" stroke="rgb(238,238,255)">
      <rect width="148.5542" x="-206.5542" height="91.4607" y="286.5" stroke="none"/>
    </g>
    <g fill="rgb(166,166,178)" stroke-miterlimit="1.45" transform="matrix(0.6184,0,0,0.6184,346.9266,144.7073)" stroke-linecap="butt" stroke="rgb(166,166,178)">
      <rect fill="none" width="148.5542" x="-206.5542" height="91.4607" y="286.5"/>
    </g>
    <g font-family="sans-serif" transform="matrix(0.6184,0,0,0.6184,346.9266,144.7073)">
      <text xml:space="preserve" x="-200.5542" y="281.6699" onclick="umlload('http://docs.oracle.com/javase/6/docs/api/java/util/package-summary.html')" stroke="none">java.util</text>
    </g>
    <g fill="rgb(221,221,255)" transform="matrix(0.6184,0,0,0.6184,346.9266,144.7073)" stroke="rgb(221,221,255)">
      <rect x="-198.5542" y="294.5312" clip-path="url(#clipPath2)" width="94.6816" height="32.7147" stroke="none"/>
    </g>
    <g fill="rgb(154,154,178)" stroke-miterlimit="1.45" transform="matrix(0.6184,0,0,0.6184,346.9266,144.7073)" stroke-linecap="butt" stroke="rgb(154,154,178)">
      <ellipse rx="47.3408" fill="none" ry="16.3574" cx="-151.2134" cy="310.8886"/>
    </g>
    <g font-style="italic" font-size="13" font-weight="bold" font-family="sans-serif" transform="matrix(0.6184,0,0,0.6184,346.9266,144.7073)">
      <text xml:space="preserve" x="-179.7134" y="315.3891" onclick="umlload('http://docs.oracle.com/javase/6/docs/api/java/util/List.html')" stroke="none">List&lt;E&gt;</text>
    </g>
    <g fill="rgb(221,221,255)" transform="matrix(0.6184,0,0,0.6184,346.9266,144.7073)" stroke="rgb(221,221,255)">
      <rect x="-198.5542" y="337.246" clip-path="url(#clipPath3)" width="132.5542" height="32.7147" stroke="none"/>
    </g>
    <g fill="rgb(154,154,178)" stroke-miterlimit="1.45" transform="matrix(0.6184,0,0,0.6184,346.9266,144.7073)" stroke-linecap="butt" stroke="rgb(154,154,178)">
      <ellipse rx="66.2771" fill="none" ry="16.3574" cx="-132.2771" cy="353.6034"/>
    </g>
    <g font-style="italic" font-size="13" font-weight="bold" font-family="sans-serif" transform="matrix(0.6184,0,0,0.6184,346.9266,144.7073)">
      <text xml:space="preserve" x="-173.7771" y="358.1039" onclick="umlload('http://docs.oracle.com/javase/6/docs/api/java/util/Map.html')" stroke="none">Map&lt;K, V&gt;</text>
    </g>
    <g fill="rgb(238,238,255)" transform="matrix(0.6184,0,0,0.6184,346.9266,144.7073)" stroke="rgb(238,238,255)">
      <rect width="76.1412" x="-143.01" height="17.9688" y="148.2656" stroke="none"/>
    </g>
    <g fill="rgb(166,166,178)" stroke-miterlimit="1.45" transform="matrix(0.6184,0,0,0.6184,346.9266,144.7073)" stroke-linecap="butt" stroke="rgb(166,166,178)">
      <rect fill="none" width="76.1412" x="-143.01" height="17.9688" y="148.2656"/>
    </g>
    <g fill="rgb(238,238,255)" transform="matrix(0.6184,0,0,0.6184,346.9266,144.7073)" stroke="rgb(238,238,255)">
      <rect width="85.01" x="-143.01" height="72.2969" y="166.2344" stroke="none"/>
    </g>
    <g fill="rgb(166,166,178)" stroke-miterlimit="1.45" transform="matrix(0.6184,0,0,0.6184,346.9266,144.7073)" stroke-linecap="butt" stroke="rgb(166,166,178)">
      <rect fill="none" width="85.01" x="-143.01" height="72.2969" y="166.2344"/>
    </g>
    <g font-family="sans-serif" transform="matrix(0.6184,0,0,0.6184,346.9266,144.7073)">
      <text xml:space="preserve" x="-137.01" y="161.4043" onclick="umlload('http://docs.oracle.com/javase/6/docs/api/java/lang/package-summary.html')" stroke="none">java.lang</text>
    </g>
    <g fill="rgb(187,187,255)" transform="matrix(0.6184,0,0,0.6184,346.9266,144.7073)" stroke="rgb(187,187,255)">
      <rect x="-135.01" y="174.2656" clip-path="url(#clipPath4)" width="69.01" height="23.1328" stroke="none"/>
    </g>
    <g fill="rgb(130,130,178)" stroke-miterlimit="1.45" transform="matrix(0.6184,0,0,0.6184,346.9266,144.7073)" stroke-linecap="butt" stroke="rgb(130,130,178)">
      <rect fill="none" width="69.01" x="-135.01" height="23.1328" y="174.2656"/>
    </g>
    <g font-size="13" font-weight="bold" font-family="sans-serif" transform="matrix(0.6184,0,0,0.6184,346.9266,144.7073)">
      <text xml:space="preserve" x="-130.005" y="190.3325" onclick="umlload('http://docs.oracle.com/javase/6/docs/api/java/lang/Boolean.html')" stroke="none">Boolean</text>
    </g>
    <g fill="rgb(187,187,255)" transform="matrix(0.6184,0,0,0.6184,346.9266,144.7073)" stroke="rgb(187,187,255)">
      <rect x="-135.01" y="207.3984" clip-path="url(#clipPath5)" width="53.56" height="23.1328" stroke="none"/>
    </g>
    <g fill="rgb(130,130,178)" stroke-miterlimit="1.45" transform="matrix(0.6184,0,0,0.6184,346.9266,144.7073)" stroke-linecap="butt" stroke="rgb(130,130,178)">
      <rect fill="none" width="53.56" x="-135.01" height="23.1328" y="207.3984"/>
    </g>
    <g font-size="13" font-weight="bold" font-family="sans-serif" transform="matrix(0.6184,0,0,0.6184,346.9266,144.7073)">
      <text xml:space="preserve" x="-130.23" y="223.4653" onclick="umlload('http://docs.oracle.com/javase/6/docs/api/java/lang/String.html')" stroke="none">String</text>
    </g>
    <g fill="rgb(238,238,255)" transform="matrix(0.6184,0,0,0.6184,346.9266,144.7073)" stroke="rgb(238,238,255)">
      <rect width="511.1102" x="-560.34" height="17.9688" y="61.1328" stroke="none"/>
    </g>
    <g fill="rgb(166,166,178)" stroke-miterlimit="1.45" transform="matrix(0.6184,0,0,0.6184,346.9266,144.7073)" stroke-linecap="butt" stroke="rgb(166,166,178)">
      <rect fill="none" width="511.1102" x="-560.34" height="17.9688" y="61.1328"/>
    </g>
    <g fill="rgb(238,238,255)" transform="matrix(0.6184,0,0,0.6184,346.9266,144.7073)" stroke="rgb(238,238,255)">
      <rect width="511.1102" x="-560.34" height="39.1641" y="79.1016" stroke="none"/>
    </g>
    <g fill="rgb(166,166,178)" stroke-miterlimit="1.45" transform="matrix(0.6184,0,0,0.6184,346.9266,144.7073)" stroke-linecap="butt" stroke="rgb(166,166,178)">
      <rect fill="none" width="511.1102" x="-560.34" height="39.1641" y="79.1016"/>
    </g>
    <g font-family="sans-serif" transform="matrix(0.6184,0,0,0.6184,346.9266,144.7073)">
      <text xml:space="preserve" x="-554.34" y="74.2715" onclick="umlload('../../../../../../../com/msopentech/odatajclient/engine/data/metadata/edm/codegeneration/package-summary.html')" stroke="none">com.msopentech.odatajclient.engine.data.metadata.edm.codegeneration</text>
    </g>
    <g fill="rgb(170,170,255)" transform="matrix(0.6184,0,0,0.6184,346.9266,144.7073)" stroke="rgb(170,170,255)">
      <rect x="-552.34" y="87.1328" clip-path="url(#clipPath6)" width="60.77" height="23.1328" stroke="none"/>
    </g>
    <g fill="rgb(118,118,178)" stroke-miterlimit="1.45" transform="matrix(0.6184,0,0,0.6184,346.9266,144.7073)" stroke-linecap="butt" stroke="rgb(118,118,178)">
      <rect fill="none" width="60.77" x="-552.34" height="23.1328" y="87.1328"/>
    </g>
    <g font-size="13" font-weight="bold" font-family="sans-serif" transform="matrix(0.6184,0,0,0.6184,346.9266,144.7073)">
      <text xml:space="preserve" x="-547.455" y="103.1997" onclick="umlload('../../../../../../../com/msopentech/odatajclient/engine/data/metadata/edm/codegeneration/Access.html')" stroke="none">Access</text>
    </g>
    <g fill="rgb(238,238,255)" transform="matrix(0.6184,0,0,0.6184,346.9266,144.7073)" stroke="rgb(238,238,255)">
      <rect width="400.7766" x="-453.22" height="17.9688" y="-26" stroke="none"/>
    </g>
    <g fill="rgb(166,166,178)" stroke-miterlimit="1.45" transform="matrix(0.6184,0,0,0.6184,346.9266,144.7073)" stroke-linecap="butt" stroke="rgb(166,166,178)">
      <rect fill="none" width="400.7766" x="-453.22" height="17.9688" y="-26"/>
    </g>
    <g fill="rgb(238,238,255)" transform="matrix(0.6184,0,0,0.6184,346.9266,144.7073)" stroke="rgb(238,238,255)">
      <rect width="400.7766" x="-453.22" height="39.1641" y="-8.0312" stroke="none"/>
    </g>
    <g fill="rgb(166,166,178)" stroke-miterlimit="1.45" transform="matrix(0.6184,0,0,0.6184,346.9266,144.7073)" stroke-linecap="butt" stroke="rgb(166,166,178)">
      <rect fill="none" width="400.7766" x="-453.22" height="39.1641" y="-8.0312"/>
    </g>
    <g font-family="sans-serif" transform="matrix(0.6184,0,0,0.6184,346.9266,144.7073)">
      <text xml:space="preserve" x="-447.22" y="-12.8613" onclick="umlload('../../../../../../../com/msopentech/odatajclient/engine/data/metadata/edm/package-summary.html')" stroke="none">com.msopentech.odatajclient.engine.data.metadata.edm</text>
    </g>
    <g fill="rgb(187,187,255)" transform="matrix(0.6184,0,0,0.6184,346.9266,144.7073)" stroke="rgb(187,187,255)">
      <rect x="-445.22" y="0" clip-path="url(#clipPath7)" width="123.6" height="23.1328" stroke="none"/>
    </g>
    <g fill="rgb(130,130,178)" stroke-miterlimit="1.45" transform="matrix(0.6184,0,0,0.6184,346.9266,144.7073)" stroke-linecap="butt" stroke="rgb(130,130,178)">
      <rect fill="none" width="123.6" x="-445.22" height="23.1328" y="0"/>
    </g>
    <g font-size="13" font-weight="bold" font-family="sans-serif" transform="matrix(0.6184,0,0,0.6184,346.9266,144.7073)">
      <text xml:space="preserve" x="-439.42" y="16.0669" onclick="umlload('../../../../../../../com/msopentech/odatajclient/engine/data/metadata/edm/Documentation.html')" stroke="none">Documentation</text>
    </g>
    <g fill="rgb(238,238,255)" transform="matrix(0.6184,0,0,0.6184,346.9266,144.7073)" stroke="rgb(238,238,255)">
      <rect width="400.7766" x="4.51" height="17.9688" y="-133.1328" stroke="none"/>
    </g>
    <g fill="rgb(166,166,178)" stroke-miterlimit="1.45" transform="matrix(0.6184,0,0,0.6184,346.9266,144.7073)" stroke-linecap="butt" stroke="rgb(166,166,178)">
      <rect fill="none" width="400.7766" x="4.51" height="17.9688" y="-133.1328"/>
    </g>
    <g fill="rgb(238,238,255)" transform="matrix(0.6184,0,0,0.6184,346.9266,144.7073)" stroke="rgb(238,238,255)">
      <rect width="400.7766" x="4.51" height="39.1641" y="-115.1641" stroke="none"/>
    </g>
    <g fill="rgb(166,166,178)" stroke-miterlimit="1.45" transform="matrix(0.6184,0,0,0.6184,346.9266,144.7073)" stroke-linecap="butt" stroke="rgb(166,166,178)">
      <rect fill="none" width="400.7766" x="4.51" height="39.1641" y="-115.1641"/>
    </g>
    <g font-family="sans-serif" transform="matrix(0.6184,0,0,0.6184,346.9266,144.7073)">
      <text xml:space="preserve" x="10.51" y="-119.9941" onclick="umlload('../../../../../../../com/msopentech/odatajclient/engine/data/metadata/edm/package-summary.html')" stroke="none">com.msopentech.odatajclient.engine.data.metadata.edm</text>
    </g>
    <g fill="rgb(204,204,255)" transform="matrix(0.6184,0,0,0.6184,346.9266,144.7073)" stroke="rgb(204,204,255)">
      <rect x="120.51" y="-107.1328" clip-path="url(#clipPath8)" width="152.44" height="23.1328" stroke="none"/>
    </g>
    <g fill="rgb(142,142,178)" stroke-miterlimit="1.45" transform="matrix(0.6184,0,0,0.6184,346.9266,144.7073)" stroke-linecap="butt" stroke="rgb(142,142,178)">
      <rect fill="none" width="152.44" x="120.51" height="23.1328" y="-107.1328"/>
    </g>
    <g font-size="13" font-weight="bold" font-family="sans-serif" transform="matrix(0.6184,0,0,0.6184,346.9266,144.7073)">
      <text xml:space="preserve" x="126.73" y="-91.0659" onclick="umlload('../../../../../../../com/msopentech/odatajclient/engine/data/metadata/edm/AbstractAnnotated.html')" stroke="none">AbstractAnnotated</text>
    </g>
    <g fill="rgb(238,238,255)" transform="matrix(0.6184,0,0,0.6184,346.9266,144.7073)" stroke="rgb(238,238,255)">
      <rect width="400.7766" x="-8" height="17.9688" y="-26" stroke="none"/>
    </g>
    <g fill="rgb(166,166,178)" stroke-miterlimit="1.45" transform="matrix(0.6184,0,0,0.6184,346.9266,144.7073)" stroke-linecap="butt" stroke="rgb(166,166,178)">
      <rect fill="none" width="400.7766" x="-8" height="17.9688" y="-26"/>
    </g>
    <g fill="rgb(238,238,255)" transform="matrix(0.6184,0,0,0.6184,346.9266,144.7073)" stroke="rgb(238,238,255)">
      <rect width="409.46" x="-8" height="604.5625" y="-8.0312" stroke="none"/>
    </g>
    <g fill="rgb(166,166,178)" stroke-miterlimit="1.45" transform="matrix(0.6184,0,0,0.6184,346.9266,144.7073)" stroke-linecap="butt" stroke="rgb(166,166,178)">
      <rect fill="none" width="409.46" x="-8" height="604.5625" y="-8.0312"/>
    </g>
    <g font-family="sans-serif" transform="matrix(0.6184,0,0,0.6184,346.9266,144.7073)">
      <text xml:space="preserve" x="-2" y="-12.8613" onclick="umlload('package-summary.html')" stroke="none">com.msopentech.odatajclient.engine.data.metadata.edm</text>
    </g>
    <g fill="rgb(187,187,255)" transform="matrix(0.6184,0,0,0.6184,346.9266,144.7073)" stroke="rgb(187,187,255)">
      <rect x="0" y="0" clip-path="url(#clipPath9)" width="393.46" height="26.625" stroke="none"/>
      <line clip-path="url(#clipPath9)" fill="none" x1="0" x2="393.46" y1="26.625" y2="26.625" stroke="black"/>
      <rect x="0" y="27.625" clip-path="url(#clipPath9)" width="393.46" height="159.6875" stroke="none"/>
      <line clip-path="url(#clipPath9)" fill="none" x1="0" x2="393.46" y1="187.3125" y2="187.3125" stroke="black"/>
      <rect x="0" y="188.3125" clip-path="url(#clipPath9)" width="393.46" height="15.9688" stroke="none"/>
      <line clip-path="url(#clipPath9)" fill="none" x1="0" x2="393.46" y1="204.2812" y2="204.2812" stroke="black"/>
      <rect x="0" y="205.2812" clip-path="url(#clipPath9)" width="393.46" height="383.25" stroke="none"/>
    </g>
    <g fill="rgb(130,130,178)" stroke-miterlimit="1.45" transform="matrix(0.6184,0,0,0.6184,346.9266,144.7073)" stroke-linecap="butt" stroke="rgb(130,130,178)">
      <rect fill="none" width="393.46" x="0" height="588.5312" y="0"/>
    </g>
    <g font-size="16" font-weight="bold" font-family="sans-serif" transform="matrix(0.6184,0,0,0.6184,346.9266,144.7073)">
      <text xml:space="preserve" x="57.23" y="18.8516" onclick="umlload('#')" stroke="none">EntityContainer.FunctionImport</text>
    </g>
    <g font-family="sans-serif" transform="matrix(0.6184,0,0,0.6184,346.9266,144.7073)">
      <text xml:space="preserve" x="4" y="38.1719" stroke="none">#</text>
      <text xml:space="preserve" x="19" y="39.7637" onclick="umlload('#documentation')" stroke="none">documentation : Documentation</text>
    </g>
    <g font-family="sans-serif" transform="matrix(0.6184,0,0,0.6184,346.9266,144.7073)">
      <text xml:space="preserve" x="4" y="54.1719" stroke="none">#</text>
      <text xml:space="preserve" x="19" y="55.7324" onclick="umlload('#entitySet')" stroke="none">entitySet : String</text>
    </g>
    <g font-family="sans-serif" transform="matrix(0.6184,0,0,0.6184,346.9266,144.7073)">
      <text xml:space="preserve" x="4" y="70.1719" stroke="none">#</text>
      <text xml:space="preserve" x="19" y="71.7012" onclick="umlload('#entitySetPath')" stroke="none">entitySetPath : String</text>
    </g>
    <g font-family="sans-serif" transform="matrix(0.6184,0,0,0.6184,346.9266,144.7073)">
      <text xml:space="preserve" x="4" y="86.1719" stroke="none">#</text>
      <text xml:space="preserve" x="19" y="87.6699" onclick="umlload('#isBindable')" stroke="none">isBindable : Boolean</text>
    </g>
    <g font-family="sans-serif" transform="matrix(0.6184,0,0,0.6184,346.9266,144.7073)">
      <text xml:space="preserve" x="4" y="102.1719" stroke="none">#</text>
      <text xml:space="preserve" x="19" y="103.6387" onclick="umlload('#isComposable')" stroke="none">isComposable : Boolean</text>
    </g>
    <g font-family="sans-serif" transform="matrix(0.6184,0,0,0.6184,346.9266,144.7073)">
      <text xml:space="preserve" x="4" y="118.1719" stroke="none">#</text>
      <text xml:space="preserve" x="19" y="119.6074" onclick="umlload('#isSideEffecting')" stroke="none">isSideEffecting : Boolean</text>
    </g>
    <g font-family="sans-serif" transform="matrix(0.6184,0,0,0.6184,346.9266,144.7073)">
      <text xml:space="preserve" x="4" y="134.1719" stroke="none">#</text>
      <text xml:space="preserve" x="19" y="135.5762" onclick="umlload('#methodAccess')" stroke="none">methodAccess : Access</text>
    </g>
    <g font-family="sans-serif" transform="matrix(0.6184,0,0,0.6184,346.9266,144.7073)">
      <text xml:space="preserve" x="4" y="150.1719" stroke="none">#</text>
      <text xml:space="preserve" x="19" y="151.5449" onclick="umlload('#name')" stroke="none">name : String</text>
    </g>
    <g font-family="sans-serif" transform="matrix(0.6184,0,0,0.6184,346.9266,144.7073)">
      <text xml:space="preserve" x="4" y="166.1719" stroke="none">#</text>
      <text xml:space="preserve" x="19" y="167.5137" onclick="umlload('#returnType')" stroke="none">returnType : String</text>
    </g>
    <g font-family="sans-serif" transform="matrix(0.6184,0,0,0.6184,346.9266,144.7073)">
      <text xml:space="preserve" x="4" y="182.1719" stroke="none">#</text>
      <text xml:space="preserve" x="19" y="183.4824" onclick="umlload('#returnTypeOrParameterOrValueAnnotation')" stroke="none">returnTypeOrParameterOrValueAnnotation : List&lt;Object&gt;</text>
    </g>
    <g font-family="sans-serif" transform="matrix(0.6184,0,0,0.6184,346.9266,144.7073)">
      <text xml:space="preserve" x="4" y="199.1719" stroke="none">+</text>
      <text xml:space="preserve" x="19" y="200.4512" onclick="umlload('#EntityContainer.FunctionImport()')" stroke="none">EntityContainer.FunctionImport()</text>
    </g>
    <g font-family="sans-serif" transform="matrix(0.6184,0,0,0.6184,346.9266,144.7073)">
      <text xml:space="preserve" x="4" y="216.1719" stroke="none">+</text>
      <text xml:space="preserve" x="19" y="217.4199" onclick="umlload('#getDocumentation()')" stroke="none">getDocumentation() : Documentation</text>
    </g>
    <g font-family="sans-serif" transform="matrix(0.6184,0,0,0.6184,346.9266,144.7073)">
      <text xml:space="preserve" x="4" y="232.1719" stroke="none">+</text>
      <text xml:space="preserve" x="19" y="233.3887" onclick="umlload('#getEntitySet()')" stroke="none">getEntitySet() : String</text>
    </g>
    <g font-family="sans-serif" transform="matrix(0.6184,0,0,0.6184,346.9266,144.7073)">
      <text xml:space="preserve" x="4" y="248.1719" stroke="none">+</text>
      <text xml:space="preserve" x="19" y="249.3574" onclick="umlload('#getEntitySetPath()')" stroke="none">getEntitySetPath() : String</text>
    </g>
    <g font-family="sans-serif" transform="matrix(0.6184,0,0,0.6184,346.9266,144.7073)">
      <text xml:space="preserve" x="4" y="264.1719" stroke="none">+</text>
      <text xml:space="preserve" x="19" y="265.3262" onclick="umlload('#getFunctionImportReturnType()')" stroke="none">getFunctionImportReturnType() : String</text>
    </g>
    <g font-family="sans-serif" transform="matrix(0.6184,0,0,0.6184,346.9266,144.7073)">
      <text xml:space="preserve" x="4" y="280.1719" stroke="none">+</text>
      <text xml:space="preserve" x="19" y="281.2949" onclick="umlload('#getHttpMethod()')" stroke="none">getHttpMethod() : String</text>
    </g>
    <g font-family="sans-serif" transform="matrix(0.6184,0,0,0.6184,346.9266,144.7073)">
      <text xml:space="preserve" x="4" y="296.1719" stroke="none">+</text>
      <text xml:space="preserve" x="19" y="297.2637" onclick="umlload('#getMethodAccess()')" stroke="none">getMethodAccess() : Access</text>
    </g>
    <g font-family="sans-serif" transform="matrix(0.6184,0,0,0.6184,346.9266,144.7073)">
      <text xml:space="preserve" x="4" y="312.1719" stroke="none">+</text>
      <text xml:space="preserve" x="19" y="313.2324" onclick="umlload('#getName()')" stroke="none">getName() : String</text>
    </g>
    <g font-family="sans-serif" transform="matrix(0.6184,0,0,0.6184,346.9266,144.7073)">
      <text xml:space="preserve" x="4" y="328.1719" stroke="none">+</text>
      <text xml:space="preserve" x="19" y="329.2012" onclick="umlload('#getOtherAttributes()')" stroke="none">getOtherAttributes() : Map&lt;QName, String&gt;</text>
    </g>
    <g font-family="sans-serif" transform="matrix(0.6184,0,0,0.6184,346.9266,144.7073)">
      <text xml:space="preserve" x="4" y="344.1719" stroke="none">+</text>
      <text xml:space="preserve" x="19" y="345.1699" onclick="umlload('#getParameters()')" stroke="none">getParameters() : List&lt;FunctionImportParameter&gt;</text>
    </g>
    <g font-family="sans-serif" transform="matrix(0.6184,0,0,0.6184,346.9266,144.7073)">
      <text xml:space="preserve" x="4" y="359.1719" stroke="none">+</text>
      <text xml:space="preserve" x="19" y="361.1387" onclick="umlload('#getReturnType()')" stroke="none">getReturnType() : String</text>
    </g>
    <g font-family="sans-serif" transform="matrix(0.6184,0,0,0.6184,346.9266,144.7073)">
      <text xml:space="preserve" x="4" y="375.1719" stroke="none">+</text>
      <text xml:space="preserve" x="19" y="377.1074" onclick="umlload('#getValues()')" stroke="none">getValues() : List&lt;Object&gt;</text>
    </g>
    <g font-family="sans-serif" transform="matrix(0.6184,0,0,0.6184,346.9266,144.7073)">
      <text xml:space="preserve" x="4" y="391.1719" stroke="none">+</text>
      <text xml:space="preserve" x="19" y="393.0762" onclick="umlload('#isIsAlwaysBindable()')" stroke="none">isIsAlwaysBindable() : boolean</text>
    </g>
    <g font-family="sans-serif" transform="matrix(0.6184,0,0,0.6184,346.9266,144.7073)">
      <text xml:space="preserve" x="4" y="407.1719" stroke="none">+</text>
      <text xml:space="preserve" x="19" y="409.0449" onclick="umlload('#isIsBindable()')" stroke="none">isIsBindable() : boolean</text>
    </g>
    <g font-family="sans-serif" transform="matrix(0.6184,0,0,0.6184,346.9266,144.7073)">
      <text xml:space="preserve" x="4" y="423.1719" stroke="none">+</text>
      <text xml:space="preserve" x="19" y="425.0137" onclick="umlload('#isIsComposable()')" stroke="none">isIsComposable() : boolean</text>
    </g>
    <g font-family="sans-serif" transform="matrix(0.6184,0,0,0.6184,346.9266,144.7073)">
      <text xml:space="preserve" x="4" y="439.1719" stroke="none">+</text>
      <text xml:space="preserve" x="19" y="440.9824" onclick="umlload('#isIsSideEffecting()')" stroke="none">isIsSideEffecting() : Boolean</text>
    </g>
    <g font-family="sans-serif" transform="matrix(0.6184,0,0,0.6184,346.9266,144.7073)">
      <text xml:space="preserve" x="4" y="455.1719" stroke="none">+</text>
      <text xml:space="preserve" x="19" y="456.9512" onclick="umlload('#setDocumentation(com.msopentech.odatajclient.engine.data.metadata.edm.Documentation)')" stroke="none">setDocumentation(Documentation) : void</text>
    </g>
    <g font-family="sans-serif" transform="matrix(0.6184,0,0,0.6184,346.9266,144.7073)">
      <text xml:space="preserve" x="4" y="471.1719" stroke="none">+</text>
      <text xml:space="preserve" x="19" y="472.9199" onclick="umlload('#setEntitySet(java.lang.String)')" stroke="none">setEntitySet(String) : void</text>
    </g>
    <g font-family="sans-serif" transform="matrix(0.6184,0,0,0.6184,346.9266,144.7073)">
      <text xml:space="preserve" x="4" y="487.1719" stroke="none">+</text>
      <text xml:space="preserve" x="19" y="488.8887" onclick="umlload('#setEntitySetPath(java.lang.String)')" stroke="none">setEntitySetPath(String) : void</text>
    </g>
    <g font-family="sans-serif" transform="matrix(0.6184,0,0,0.6184,346.9266,144.7073)">
      <text xml:space="preserve" x="4" y="503.1719" stroke="none">+</text>
      <text xml:space="preserve" x="19" y="504.8574" onclick="umlload('#setIsBindable(java.lang.Boolean)')" stroke="none">setIsBindable(Boolean) : void</text>
    </g>
    <g font-family="sans-serif" transform="matrix(0.6184,0,0,0.6184,346.9266,144.7073)">
      <text xml:space="preserve" x="4" y="519.1719" stroke="none">+</text>
      <text xml:space="preserve" x="19" y="520.8262" onclick="umlload('#setIsComposable(java.lang.Boolean)')" stroke="none">setIsComposable(Boolean) : void</text>
    </g>
    <g font-family="sans-serif" transform="matrix(0.6184,0,0,0.6184,346.9266,144.7073)">
      <text xml:space="preserve" x="4" y="535.1719" stroke="none">+</text>
      <text xml:space="preserve" x="19" y="536.7949" onclick="umlload('#setIsSideEffecting(java.lang.Boolean)')" stroke="none">setIsSideEffecting(Boolean) : void</text>
    </g>
    <g font-family="sans-serif" transform="matrix(0.6184,0,0,0.6184,346.9266,144.7073)">
      <text xml:space="preserve" x="4" y="551.1719" stroke="none">+</text>
      <text xml:space="preserve" x="19" y="552.7637" onclick="umlload('#setMethodAccess(com.msopentech.odatajclient.engine.data.metadata.edm.codegeneration.Access)')" stroke="none">setMethodAccess(Access) : void</text>
    </g>
    <g font-family="sans-serif" transform="matrix(0.6184,0,0,0.6184,346.9266,144.7073)">
      <text xml:space="preserve" x="4" y="567.1719" stroke="none">+</text>
      <text xml:space="preserve" x="19" y="568.7324" onclick="umlload('#setName(java.lang.String)')" stroke="none">setName(String) : void</text>
    </g>
    <g font-family="sans-serif" transform="matrix(0.6184,0,0,0.6184,346.9266,144.7073)">
      <text xml:space="preserve" x="4" y="583.1719" stroke="none">+</text>
      <text xml:space="preserve" x="19" y="584.7012" onclick="umlload('#setReturnType(java.lang.String)')" stroke="none">setReturnType(String) : void</text>
    </g>
    <g font-family="sans-serif" transform="matrix(0.6184,0,0,0.6184,346.9266,144.7073)">
      <text xml:space="preserve" x="-555" y="621.1543" onclick="umlload('http://www.yworks.com/')" stroke="none">yWorks UML Doclet</text>
    </g>
    <g stroke-miterlimit="1.45" transform="matrix(0.6184,0,0,0.6184,346.9266,144.7073)" stroke-linecap="butt">
      <path fill="none" d="M196.73 0 L196.73 -69"/>
      <path fill="white" d="M196.73 -84 L190.73 -68 L202.73 -68 Z" stroke="none"/>
      <path fill="none" d="M196.73 -84 L190.73 -68 L202.73 -68 Z"/>
      <path fill="none" d="M0.03 11.5664 L-321.62 11.5664"/>
      <line stroke-linecap="square" transform="matrix(-1,0,0,-1,-321.62,11.5664)" fill="none" x1="0" x2="-14" y1="0" y2="-4" stroke-miterlimit="10"/>
      <line stroke-linecap="square" transform="matrix(-1,0,0,-1,-321.62,11.5664)" fill="none" x1="0" x2="-14" y1="0" y2="4" stroke-miterlimit="10"/>
    </g>
    <g stroke-miterlimit="1.45" transform="matrix(0.6184,0,0,0.6184,346.9266,144.7073)" stroke-linecap="butt">
      <path fill="none" d="M-0.0048 98.6992 L-491.57 98.6992"/>
      <line stroke-linecap="square" transform="matrix(-1,0,0,-1,-491.57,98.6992)" fill="none" x1="0" x2="-14" y1="0" y2="-4" stroke-miterlimit="10"/>
      <line stroke-linecap="square" transform="matrix(-1,0,0,-1,-491.57,98.6992)" fill="none" x1="0" x2="-14" y1="0" y2="4" stroke-miterlimit="10"/>
    </g>
    <g stroke-miterlimit="1.45" transform="matrix(0.6184,0,0,0.6184,346.9266,144.7073)" stroke-linecap="butt">
      <path fill="none" d="M-0.0358 185.832 L-66 185.832"/>
      <line stroke-linecap="square" transform="matrix(-1,0,0,-1,-66,185.832)" fill="none" x1="0" x2="-14" y1="0" y2="-4" stroke-miterlimit="10"/>
      <line stroke-linecap="square" transform="matrix(-1,0,0,-1,-66,185.832)" fill="none" x1="0" x2="-14" y1="0" y2="4" stroke-miterlimit="10"/>
    </g>
    <g stroke-miterlimit="1.45" transform="matrix(0.6184,0,0,0.6184,346.9266,144.7073)" stroke-linecap="butt">
      <path fill="none" d="M-0.0124 218.9648 L-81.45 218.9648"/>
      <line stroke-linecap="square" transform="matrix(-1,0,0,-1,-81.45,218.9648)" fill="none" x1="0" x2="-14" y1="0" y2="-4" stroke-miterlimit="10"/>
      <line stroke-linecap="square" transform="matrix(-1,0,0,-1,-81.45,218.9648)" fill="none" x1="0" x2="-14" y1="0" y2="4" stroke-miterlimit="10"/>
    </g>
    <g stroke-miterlimit="1.45" transform="matrix(0.6184,0,0,0.6184,346.9266,144.7073)" stroke-linecap="butt">
      <path fill="none" d="M0.0349 310.8886 L-103.8726 310.8886"/>
      <line stroke-linecap="square" transform="matrix(-1,0,0,-1,-103.8726,310.8886)" fill="none" x1="0" x2="-14" y1="0" y2="-4" stroke-miterlimit="10"/>
      <line stroke-linecap="square" transform="matrix(-1,0,0,-1,-103.8726,310.8886)" fill="none" x1="0" x2="-14" y1="0" y2="4" stroke-miterlimit="10"/>
    </g>
    <g stroke-miterlimit="1.45" transform="matrix(0.6184,0,0,0.6184,346.9266,144.7073)" stroke-linecap="butt">
      <path fill="none" d="M-0.0236 353.6034 L-66 353.6034"/>
      <line stroke-linecap="square" transform="matrix(-1,0,0,-1,-66,353.6034)" fill="none" x1="0" x2="-14" y1="0" y2="-4" stroke-miterlimit="10"/>
      <line stroke-linecap="square" transform="matrix(-1,0,0,-1,-66,353.6034)" fill="none" x1="0" x2="-14" y1="0" y2="4" stroke-miterlimit="10"/>
    </g>
  </g>
</svg>
