<?xml version="1.0" encoding="UTF-8"?><svg xmlns="http://www.w3.org/2000/svg" xmlns:xlink="http://www.w3.org/1999/xlink" fill-opacity="1" color-rendering="auto" color-interpolation="auto" stroke="black" text-rendering="auto" stroke-linecap="square" width="598" stroke-miterlimit="10" stroke-opacity="1" shape-rendering="auto" fill="black" stroke-dasharray="none" font-weight="normal" stroke-width="1" height="598" font-family="'Dialog'" font-style="normal" stroke-linejoin="miter" font-size="12" stroke-dashoffset="0" image-rendering="auto">
  <!--Generated by ySVG-->
  <defs id="genericDefs"/>
  <g>
    <defs id="defs1">
      <clipPath clipPathUnits="userSpaceOnUse" id="clipPath1">
        <path d="M0 0 L598 0 L598 598 L0 598 L0 0 Z"/>
      </clipPath>
      <clipPath clipPathUnits="userSpaceOnUse" id="clipPath2">
        <path d="M-103.8726 223.7558 C-103.8726 232.7897 -125.0678 240.1132 -151.2134 240.1132 C-177.359 240.1132 -198.5542 232.7897 -198.5542 223.7558 C-198.5542 214.7219 -177.359 207.3984 -151.2134 207.3984 C-125.0678 207.3984 -103.8726 214.7219 -103.8726 223.7558 Z"/>
      </clipPath>
      <clipPath clipPathUnits="userSpaceOnUse" id="clipPath3">
        <path d="M-66 266.4706 C-66 275.5045 -95.6733 282.8279 -132.2771 282.8279 C-168.881 282.8279 -198.5542 275.5045 -198.5542 266.4706 C-198.5542 257.4366 -168.881 250.1132 -132.2771 250.1132 C-95.6733 250.1132 -66 257.4366 -66 266.4706 Z"/>
      </clipPath>
      <clipPath clipPathUnits="userSpaceOnUse" id="clipPath4">
        <path d="M-130.04 87.1328 L-84.72 87.1328 L-84.72 110.2656 L-130.04 110.2656 L-130.04 87.1328 Z"/>
      </clipPath>
      <clipPath clipPathUnits="userSpaceOnUse" id="clipPath5">
        <path d="M-130.04 120.2656 L-76.48 120.2656 L-76.48 143.3984 L-130.04 143.3984 L-130.04 120.2656 Z"/>
      </clipPath>
      <clipPath clipPathUnits="userSpaceOnUse" id="clipPath6">
        <path d="M-445.22 0 L-321.62 0 L-321.62 23.1328 L-445.22 23.1328 L-445.22 0 Z"/>
      </clipPath>
      <clipPath clipPathUnits="userSpaceOnUse" id="clipPath7">
        <path d="M125.145 -107.1328 L182.825 -107.1328 L182.825 -84 L125.145 -84 L125.145 -107.1328 Z"/>
      </clipPath>
      <clipPath clipPathUnits="userSpaceOnUse" id="clipPath8">
        <path d="M-0 0 L307.97 0 L307.97 290.8279 L-0 290.8279 L-0 0 Z"/>
      </clipPath>
      <script type="text/ecmascript"><![CDATA[
function umlload(newLocation)
{
if (newLocation.charAt(0) != '#') {
if (newLocation.indexOf("://") > -1) {
window.parent.location.href = newLocation;
} else {
var tmp = window.parent.location.href;
tmp = tmp.substring(0, tmp.lastIndexOf("/") + 1);
window.parent.location.href = tmp.concat(newLocation);
}
} else {
window.parent.location.hash = newLocation;
}
}
]]></script>
    </defs>
    <g fill="rgb(238,238,255)" transform="matrix(0.706,0,0,0.706,320.5336,228.0449)" stroke="rgb(238,238,255)">
      <rect width="67.654" x="-206.5542" height="17.9688" y="181.3984" stroke="none"/>
    </g>
    <g fill="rgb(166,166,178)" stroke-miterlimit="1.45" transform="matrix(0.706,0,0,0.706,320.5336,228.0449)" stroke-linecap="butt" stroke="rgb(166,166,178)">
      <rect fill="none" width="67.654" x="-206.5542" height="17.9688" y="181.3984"/>
    </g>
    <g fill="rgb(238,238,255)" transform="matrix(0.706,0,0,0.706,320.5336,228.0449)" stroke="rgb(238,238,255)">
      <rect width="148.5542" x="-206.5542" height="91.4607" y="199.3672" stroke="none"/>
    </g>
    <g fill="rgb(166,166,178)" stroke-miterlimit="1.45" transform="matrix(0.706,0,0,0.706,320.5336,228.0449)" stroke-linecap="butt" stroke="rgb(166,166,178)">
      <rect fill="none" width="148.5542" x="-206.5542" height="91.4607" y="199.3672"/>
    </g>
    <g font-family="sans-serif" transform="matrix(0.706,0,0,0.706,320.5336,228.0449)">
      <text xml:space="preserve" x="-200.5542" y="194.5371" onclick="umlload('http://docs.oracle.com/javase/6/docs/api/java/util/package-summary.html')" stroke="none">java.util</text>
    </g>
    <g fill="rgb(221,221,255)" transform="matrix(0.706,0,0,0.706,320.5336,228.0449)" stroke="rgb(221,221,255)">
      <rect x="-198.5542" y="207.3984" clip-path="url(#clipPath2)" width="94.6816" height="32.7147" stroke="none"/>
    </g>
    <g fill="rgb(154,154,178)" stroke-miterlimit="1.45" transform="matrix(0.706,0,0,0.706,320.5336,228.0449)" stroke-linecap="butt" stroke="rgb(154,154,178)">
      <ellipse rx="47.3408" fill="none" ry="16.3574" cx="-151.2134" cy="223.7558"/>
    </g>
    <g font-style="italic" font-size="13" font-weight="bold" font-family="sans-serif" transform="matrix(0.706,0,0,0.706,320.5336,228.0449)">
      <text xml:space="preserve" x="-179.7134" y="228.2563" onclick="umlload('http://docs.oracle.com/javase/6/docs/api/java/util/List.html')" stroke="none">List&lt;E&gt;</text>
    </g>
    <g fill="rgb(221,221,255)" transform="matrix(0.706,0,0,0.706,320.5336,228.0449)" stroke="rgb(221,221,255)">
      <rect x="-198.5542" y="250.1132" clip-path="url(#clipPath3)" width="132.5542" height="32.7147" stroke="none"/>
    </g>
    <g fill="rgb(154,154,178)" stroke-miterlimit="1.45" transform="matrix(0.706,0,0,0.706,320.5336,228.0449)" stroke-linecap="butt" stroke="rgb(154,154,178)">
      <ellipse rx="66.2771" fill="none" ry="16.3574" cx="-132.2771" cy="266.4705"/>
    </g>
    <g font-style="italic" font-size="13" font-weight="bold" font-family="sans-serif" transform="matrix(0.706,0,0,0.706,320.5336,228.0449)">
      <text xml:space="preserve" x="-173.7771" y="270.971" onclick="umlload('http://docs.oracle.com/javase/6/docs/api/java/util/Map.html')" stroke="none">Map&lt;K, V&gt;</text>
    </g>
    <g fill="rgb(238,238,255)" transform="matrix(0.706,0,0,0.706,320.5336,228.0449)" stroke="rgb(238,238,255)">
      <rect width="76.1412" x="-138.04" height="17.9688" y="61.1328" stroke="none"/>
    </g>
    <g fill="rgb(166,166,178)" stroke-miterlimit="1.45" transform="matrix(0.706,0,0,0.706,320.5336,228.0449)" stroke-linecap="butt" stroke="rgb(166,166,178)">
      <rect fill="none" width="76.1412" x="-138.04" height="17.9688" y="61.1328"/>
    </g>
    <g fill="rgb(238,238,255)" transform="matrix(0.706,0,0,0.706,320.5336,228.0449)" stroke="rgb(238,238,255)">
      <rect width="79.56" x="-138.04" height="72.2969" y="79.1016" stroke="none"/>
    </g>
    <g fill="rgb(166,166,178)" stroke-miterlimit="1.45" transform="matrix(0.706,0,0,0.706,320.5336,228.0449)" stroke-linecap="butt" stroke="rgb(166,166,178)">
      <rect fill="none" width="79.56" x="-138.04" height="72.2969" y="79.1016"/>
    </g>
    <g font-family="sans-serif" transform="matrix(0.706,0,0,0.706,320.5336,228.0449)">
      <text xml:space="preserve" x="-132.04" y="74.2715" onclick="umlload('http://docs.oracle.com/javase/6/docs/api/java/lang/package-summary.html')" stroke="none">java.lang</text>
    </g>
    <g fill="rgb(187,187,255)" transform="matrix(0.706,0,0,0.706,320.5336,228.0449)" stroke="rgb(187,187,255)">
      <rect x="-130.04" y="87.1328" clip-path="url(#clipPath4)" width="45.32" height="23.1328" stroke="none"/>
    </g>
    <g fill="rgb(130,130,178)" stroke-miterlimit="1.45" transform="matrix(0.706,0,0,0.706,320.5336,228.0449)" stroke-linecap="butt" stroke="rgb(130,130,178)">
      <rect fill="none" width="45.32" x="-130.04" height="23.1328" y="87.1328"/>
    </g>
    <g font-size="13" font-weight="bold" font-family="sans-serif" transform="matrix(0.706,0,0,0.706,320.5336,228.0449)">
      <text xml:space="preserve" x="-125.38" y="103.1997" onclick="umlload('http://docs.oracle.com/javase/6/docs/api/java/lang/Long.html')" stroke="none">Long</text>
    </g>
    <g fill="rgb(187,187,255)" transform="matrix(0.706,0,0,0.706,320.5336,228.0449)" stroke="rgb(187,187,255)">
      <rect x="-130.04" y="120.2656" clip-path="url(#clipPath5)" width="53.56" height="23.1328" stroke="none"/>
    </g>
    <g fill="rgb(130,130,178)" stroke-miterlimit="1.45" transform="matrix(0.706,0,0,0.706,320.5336,228.0449)" stroke-linecap="butt" stroke="rgb(130,130,178)">
      <rect fill="none" width="53.56" x="-130.04" height="23.1328" y="120.2656"/>
    </g>
    <g font-size="13" font-weight="bold" font-family="sans-serif" transform="matrix(0.706,0,0,0.706,320.5336,228.0449)">
      <text xml:space="preserve" x="-125.26" y="136.3325" onclick="umlload('http://docs.oracle.com/javase/6/docs/api/java/lang/String.html')" stroke="none">String</text>
    </g>
    <g fill="rgb(238,238,255)" transform="matrix(0.706,0,0,0.706,320.5336,228.0449)" stroke="rgb(238,238,255)">
      <rect width="400.7766" x="-453.22" height="17.9688" y="-26" stroke="none"/>
    </g>
    <g fill="rgb(166,166,178)" stroke-miterlimit="1.45" transform="matrix(0.706,0,0,0.706,320.5336,228.0449)" stroke-linecap="butt" stroke="rgb(166,166,178)">
      <rect fill="none" width="400.7766" x="-453.22" height="17.9688" y="-26"/>
    </g>
    <g fill="rgb(238,238,255)" transform="matrix(0.706,0,0,0.706,320.5336,228.0449)" stroke="rgb(238,238,255)">
      <rect width="400.7766" x="-453.22" height="39.1641" y="-8.0312" stroke="none"/>
    </g>
    <g fill="rgb(166,166,178)" stroke-miterlimit="1.45" transform="matrix(0.706,0,0,0.706,320.5336,228.0449)" stroke-linecap="butt" stroke="rgb(166,166,178)">
      <rect fill="none" width="400.7766" x="-453.22" height="39.1641" y="-8.0312"/>
    </g>
    <g font-family="sans-serif" transform="matrix(0.706,0,0,0.706,320.5336,228.0449)">
      <text xml:space="preserve" x="-447.22" y="-12.8613" onclick="umlload('../../../../../../../com/msopentech/odatajclient/engine/data/metadata/edm/package-summary.html')" stroke="none">com.msopentech.odatajclient.engine.data.metadata.edm</text>
    </g>
    <g fill="rgb(187,187,255)" transform="matrix(0.706,0,0,0.706,320.5336,228.0449)" stroke="rgb(187,187,255)">
      <rect x="-445.22" y="0" clip-path="url(#clipPath6)" width="123.6" height="23.1328" stroke="none"/>
    </g>
    <g fill="rgb(130,130,178)" stroke-miterlimit="1.45" transform="matrix(0.706,0,0,0.706,320.5336,228.0449)" stroke-linecap="butt" stroke="rgb(130,130,178)">
      <rect fill="none" width="123.6" x="-445.22" height="23.1328" y="0"/>
    </g>
    <g font-size="13" font-weight="bold" font-family="sans-serif" transform="matrix(0.706,0,0,0.706,320.5336,228.0449)">
      <text xml:space="preserve" x="-439.42" y="16.0669" onclick="umlload('../../../../../../../com/msopentech/odatajclient/engine/data/metadata/edm/Documentation.html')" stroke="none">Documentation</text>
    </g>
    <g fill="rgb(238,238,255)" transform="matrix(0.706,0,0,0.706,320.5336,228.0449)" stroke="rgb(238,238,255)">
      <rect width="76.1412" x="117.145" height="17.9688" y="-133.1328" stroke="none"/>
    </g>
    <g fill="rgb(166,166,178)" stroke-miterlimit="1.45" transform="matrix(0.706,0,0,0.706,320.5336,228.0449)" stroke-linecap="butt" stroke="rgb(166,166,178)">
      <rect fill="none" width="76.1412" x="117.145" height="17.9688" y="-133.1328"/>
    </g>
    <g fill="rgb(238,238,255)" transform="matrix(0.706,0,0,0.706,320.5336,228.0449)" stroke="rgb(238,238,255)">
      <rect width="76.1412" x="117.145" height="39.1641" y="-115.1641" stroke="none"/>
    </g>
    <g fill="rgb(166,166,178)" stroke-miterlimit="1.45" transform="matrix(0.706,0,0,0.706,320.5336,228.0449)" stroke-linecap="butt" stroke="rgb(166,166,178)">
      <rect fill="none" width="76.1412" x="117.145" height="39.1641" y="-115.1641"/>
    </g>
    <g font-family="sans-serif" transform="matrix(0.706,0,0,0.706,320.5336,228.0449)">
      <text xml:space="preserve" x="123.145" y="-119.9941" onclick="umlload('http://docs.oracle.com/javase/6/docs/api/java/lang/package-summary.html')" stroke="none">java.lang</text>
    </g>
    <g fill="rgb(187,187,255)" transform="matrix(0.706,0,0,0.706,320.5336,228.0449)" stroke="rgb(187,187,255)">
      <rect x="125.145" y="-107.1328" clip-path="url(#clipPath7)" width="57.68" height="23.1328" stroke="none"/>
    </g>
    <g fill="rgb(130,130,178)" stroke-miterlimit="1.45" transform="matrix(0.706,0,0,0.706,320.5336,228.0449)" stroke-linecap="butt" stroke="rgb(130,130,178)">
      <rect fill="none" width="57.68" x="125.145" height="23.1328" y="-107.1328"/>
    </g>
    <g font-size="13" font-weight="bold" font-family="sans-serif" transform="matrix(0.706,0,0,0.706,320.5336,228.0449)">
      <text xml:space="preserve" x="129.985" y="-91.0659" onclick="umlload('http://docs.oracle.com/javase/6/docs/api/java/lang/Object.html')" stroke="none">Object</text>
    </g>
    <g fill="rgb(238,238,255)" transform="matrix(0.706,0,0,0.706,320.5336,228.0449)" stroke="rgb(238,238,255)">
      <rect width="400.7766" x="-8" height="17.9688" y="-26" stroke="none"/>
    </g>
    <g fill="rgb(166,166,178)" stroke-miterlimit="1.45" transform="matrix(0.706,0,0,0.706,320.5336,228.0449)" stroke-linecap="butt" stroke="rgb(166,166,178)">
      <rect fill="none" width="400.7766" x="-8" height="17.9688" y="-26"/>
    </g>
    <g fill="rgb(238,238,255)" transform="matrix(0.706,0,0,0.706,320.5336,228.0449)" stroke="rgb(238,238,255)">
      <rect width="400.97" x="-8" height="306.8592" y="-8.0312" stroke="none"/>
    </g>
    <g fill="rgb(166,166,178)" stroke-miterlimit="1.45" transform="matrix(0.706,0,0,0.706,320.5336,228.0449)" stroke-linecap="butt" stroke="rgb(166,166,178)">
      <rect fill="none" width="400.97" x="-8" height="306.8592" y="-8.0312"/>
    </g>
    <g font-family="sans-serif" transform="matrix(0.706,0,0,0.706,320.5336,228.0449)">
      <text xml:space="preserve" x="-2" y="-12.8613" onclick="umlload('package-summary.html')" stroke="none">com.msopentech.odatajclient.engine.data.metadata.edm</text>
    </g>
    <g fill="rgb(187,187,255)" transform="matrix(0.706,0,0,0.706,320.5336,228.0449)" stroke="rgb(187,187,255)">
      <rect x="0" y="0" clip-path="url(#clipPath8)" width="307.97" height="26.625" stroke="none"/>
      <line clip-path="url(#clipPath8)" fill="none" x1="0" x2="307.97" y1="26.625" y2="26.625" stroke="black"/>
      <rect x="0" y="27.625" clip-path="url(#clipPath8)" width="307.97" height="63.875" stroke="none"/>
      <line clip-path="url(#clipPath8)" fill="none" x1="0" x2="307.97" y1="91.5" y2="91.5" stroke="black"/>
      <rect x="0" y="92.5" clip-path="url(#clipPath8)" width="307.97" height="15.9688" stroke="none"/>
      <line clip-path="url(#clipPath8)" fill="none" x1="0" x2="307.97" y1="108.4688" y2="108.4688" stroke="black"/>
      <rect x="0" y="109.4688" clip-path="url(#clipPath8)" width="307.97" height="181.3592" stroke="none"/>
    </g>
    <g fill="rgb(130,130,178)" stroke-miterlimit="1.45" transform="matrix(0.706,0,0,0.706,320.5336,228.0449)" stroke-linecap="butt" stroke="rgb(130,130,178)">
      <rect fill="none" width="307.97" x="0" height="290.8279" y="0"/>
    </g>
    <g font-size="16" font-weight="bold" font-family="sans-serif" transform="matrix(0.706,0,0,0.706,320.5336,228.0449)">
      <text xml:space="preserve" x="71.985" y="18.8516" onclick="umlload('#')" stroke="none">EnumTypeMember</text>
    </g>
    <g font-family="sans-serif" transform="matrix(0.706,0,0,0.706,320.5336,228.0449)">
      <text xml:space="preserve" x="4" y="38.1719" stroke="none">#</text>
      <text xml:space="preserve" x="19" y="39.7637" onclick="umlload('#any')" stroke="none">any : List&lt;Object&gt;</text>
    </g>
    <g font-family="sans-serif" transform="matrix(0.706,0,0,0.706,320.5336,228.0449)">
      <text xml:space="preserve" x="4" y="54.1719" stroke="none">#</text>
      <text xml:space="preserve" x="19" y="55.7324" onclick="umlload('#documentation')" stroke="none">documentation : Documentation</text>
    </g>
    <g font-family="sans-serif" transform="matrix(0.706,0,0,0.706,320.5336,228.0449)">
      <text xml:space="preserve" x="4" y="70.1719" stroke="none">#</text>
      <text xml:space="preserve" x="19" y="71.7012" onclick="umlload('#name')" stroke="none">name : String</text>
    </g>
    <g font-family="sans-serif" transform="matrix(0.706,0,0,0.706,320.5336,228.0449)">
      <text xml:space="preserve" x="4" y="86.1719" stroke="none">#</text>
      <text xml:space="preserve" x="19" y="87.6699" onclick="umlload('#value')" stroke="none">value : Long</text>
    </g>
    <g font-family="sans-serif" transform="matrix(0.706,0,0,0.706,320.5336,228.0449)">
      <text xml:space="preserve" x="4" y="103.1719" stroke="none">+</text>
      <text xml:space="preserve" x="19" y="104.6387" onclick="umlload('#EnumTypeMember()')" stroke="none">EnumTypeMember()</text>
    </g>
    <g font-family="sans-serif" transform="matrix(0.706,0,0,0.706,320.5336,228.0449)">
      <text xml:space="preserve" x="4" y="120.1719" stroke="none">+</text>
      <text xml:space="preserve" x="19" y="121.6074" onclick="umlload('#getAny()')" stroke="none">getAny() : List&lt;Object&gt;</text>
    </g>
    <g font-family="sans-serif" transform="matrix(0.706,0,0,0.706,320.5336,228.0449)">
      <text xml:space="preserve" x="4" y="136.1719" stroke="none">+</text>
      <text xml:space="preserve" x="19" y="137.5762" onclick="umlload('#getDocumentation()')" stroke="none">getDocumentation() : Documentation</text>
    </g>
    <g font-family="sans-serif" transform="matrix(0.706,0,0,0.706,320.5336,228.0449)">
      <text xml:space="preserve" x="4" y="152.1719" stroke="none">+</text>
      <text xml:space="preserve" x="19" y="153.5449" onclick="umlload('#getName()')" stroke="none">getName() : String</text>
    </g>
    <g font-family="sans-serif" transform="matrix(0.706,0,0,0.706,320.5336,228.0449)">
      <text xml:space="preserve" x="4" y="168.1719" stroke="none">+</text>
      <text xml:space="preserve" x="19" y="169.5137" onclick="umlload('#getOtherAttributes()')" stroke="none">getOtherAttributes() : Map&lt;QName, String&gt;</text>
    </g>
    <g font-family="sans-serif" transform="matrix(0.706,0,0,0.706,320.5336,228.0449)">
      <text xml:space="preserve" x="4" y="184.1719" stroke="none">+</text>
      <text xml:space="preserve" x="19" y="185.4824" onclick="umlload('#getValue()')" stroke="none">getValue() : Long</text>
    </g>
    <g font-family="sans-serif" transform="matrix(0.706,0,0,0.706,320.5336,228.0449)">
      <text xml:space="preserve" x="4" y="200.1719" stroke="none">+</text>
      <text xml:space="preserve" x="19" y="201.4512" onclick="umlload('#setDocumentation(com.msopentech.odatajclient.engine.data.metadata.edm.Documentation)')" stroke="none">setDocumentation(Documentation) : void</text>
    </g>
    <g font-family="sans-serif" transform="matrix(0.706,0,0,0.706,320.5336,228.0449)">
      <text xml:space="preserve" x="4" y="216.1719" stroke="none">+</text>
      <text xml:space="preserve" x="19" y="217.4199" onclick="umlload('#setName(java.lang.String)')" stroke="none">setName(String) : void</text>
    </g>
    <g font-family="sans-serif" transform="matrix(0.706,0,0,0.706,320.5336,228.0449)">
      <text xml:space="preserve" x="4" y="232.1719" stroke="none">+</text>
      <text xml:space="preserve" x="19" y="233.3887" onclick="umlload('#setValue(java.lang.Long)')" stroke="none">setValue(Long) : void</text>
    </g>
    <g font-family="sans-serif" transform="matrix(0.706,0,0,0.706,320.5336,228.0449)">
      <text xml:space="preserve" x="-448" y="323.1543" onclick="umlload('http://www.yworks.com/')" stroke="none">yWorks UML Doclet</text>
    </g>
    <g stroke-miterlimit="1.45" transform="matrix(0.706,0,0,0.706,320.5336,228.0449)" stroke-linecap="butt">
      <path fill="none" d="M153.985 -0.0082 L153.985 -69"/>
      <path fill="white" d="M153.985 -84 L147.985 -68 L159.985 -68 Z" stroke="none"/>
      <path fill="none" d="M153.985 -84 L147.985 -68 L159.985 -68 Z"/>
      <path fill="none" d="M-0.0138 11.5664 L-321.62 11.5664"/>
      <line stroke-linecap="square" transform="matrix(-1,0,0,-1,-321.62,11.5664)" fill="none" x1="0" x2="-14" y1="0" y2="-4" stroke-miterlimit="10"/>
      <line stroke-linecap="square" transform="matrix(-1,0,0,-1,-321.62,11.5664)" fill="none" x1="0" x2="-14" y1="0" y2="4" stroke-miterlimit="10"/>
    </g>
    <g stroke-miterlimit="1.45" transform="matrix(0.706,0,0,0.706,320.5336,228.0449)" stroke-linecap="butt">
      <path fill="none" d="M-0.02 98.6992 L-84.72 98.6992"/>
      <line stroke-linecap="square" transform="matrix(-1,0,0,-1,-84.72,98.6992)" fill="none" x1="0" x2="-14" y1="0" y2="-4" stroke-miterlimit="10"/>
      <line stroke-linecap="square" transform="matrix(-1,0,0,-1,-84.72,98.6992)" fill="none" x1="0" x2="-14" y1="0" y2="4" stroke-miterlimit="10"/>
    </g>
    <g stroke-miterlimit="1.45" transform="matrix(0.706,0,0,0.706,320.5336,228.0449)" stroke-linecap="butt">
      <path fill="none" d="M0.0211 131.832 L-76.48 131.832"/>
      <line stroke-linecap="square" transform="matrix(-1,0,0,-1,-76.48,131.832)" fill="none" x1="0" x2="-14" y1="0" y2="-4" stroke-miterlimit="10"/>
      <line stroke-linecap="square" transform="matrix(-1,0,0,-1,-76.48,131.832)" fill="none" x1="0" x2="-14" y1="0" y2="4" stroke-miterlimit="10"/>
    </g>
    <g stroke-miterlimit="1.45" transform="matrix(0.706,0,0,0.706,320.5336,228.0449)" stroke-linecap="butt">
      <path fill="none" d="M0.0073 223.7558 L-103.8726 223.7558"/>
      <line stroke-linecap="square" transform="matrix(-1,0,0,-1,-103.8726,223.7558)" fill="none" x1="0" x2="-14" y1="0" y2="-4" stroke-miterlimit="10"/>
      <line stroke-linecap="square" transform="matrix(-1,0,0,-1,-103.8726,223.7558)" fill="none" x1="0" x2="-14" y1="0" y2="4" stroke-miterlimit="10"/>
    </g>
    <g stroke-miterlimit="1.45" transform="matrix(0.706,0,0,0.706,320.5336,228.0449)" stroke-linecap="butt">
      <path fill="none" d="M-0.0137 266.4706 L-66 266.4706"/>
      <line stroke-linecap="square" transform="matrix(-1,0,0,-1,-66,266.4706)" fill="none" x1="0" x2="-14" y1="0" y2="-4" stroke-miterlimit="10"/>
      <line stroke-linecap="square" transform="matrix(-1,0,0,-1,-66,266.4706)" fill="none" x1="0" x2="-14" y1="0" y2="4" stroke-miterlimit="10"/>
    </g>
  </g>
</svg>
