<?xml version="1.0" encoding="UTF-8"?><svg xmlns="http://www.w3.org/2000/svg" xmlns:xlink="http://www.w3.org/1999/xlink" fill-opacity="1" color-rendering="auto" color-interpolation="auto" stroke="black" text-rendering="auto" stroke-linecap="square" width="600" stroke-miterlimit="10" stroke-opacity="1" shape-rendering="auto" fill="black" stroke-dasharray="none" font-weight="normal" stroke-width="1" height="287" font-family="'Dialog'" font-style="normal" stroke-linejoin="miter" font-size="12" stroke-dashoffset="0" image-rendering="auto">
  <!--Generated by ySVG-->
  <defs id="genericDefs"/>
  <g>
    <defs id="defs1">
      <clipPath clipPathUnits="userSpaceOnUse" id="clipPath1">
        <path d="M0 0 L600 0 L600 287 L0 287 L0 0 Z"/>
      </clipPath>
      <clipPath clipPathUnits="userSpaceOnUse" id="clipPath2">
        <path d="M-66 16.3574 C-66 25.3913 -95.6733 32.7147 -132.2771 32.7147 C-168.881 32.7147 -198.5542 25.3913 -198.5542 16.3574 C-198.5542 7.3234 -168.881 0 -132.2771 0 C-95.6733 0 -66 7.3234 -66 16.3574 Z"/>
      </clipPath>
      <clipPath clipPathUnits="userSpaceOnUse" id="clipPath3">
        <path d="M125.145 -107.1328 L182.825 -107.1328 L182.825 -84 L125.145 -84 L125.145 -107.1328 Z"/>
      </clipPath>
      <clipPath clipPathUnits="userSpaceOnUse" id="clipPath4">
        <path d="M0 0 L307.97 0 L307.97 109.4688 L0 109.4688 L0 0 Z"/>
      </clipPath>
      <script type="text/ecmascript"><![CDATA[
function umlload(newLocation)
{
if (newLocation.charAt(0) != '#') {
if (newLocation.indexOf("://") > -1) {
window.parent.location.href = newLocation;
} else {
var tmp = window.parent.location.href;
tmp = tmp.substring(0, tmp.lastIndexOf("/") + 1);
window.parent.location.href = tmp.concat(newLocation);
}
} else {
window.parent.location.hash = newLocation;
}
}
]]></script>
    </defs>
    <g fill="rgb(238,238,255)" transform="matrix(1,0,0,1,207,134)" stroke="rgb(238,238,255)">
      <rect width="67.654" x="-206.5542" height="17.9688" y="-26" stroke="none"/>
    </g>
    <g fill="rgb(166,166,178)" stroke-miterlimit="1.45" transform="matrix(1,0,0,1,207,134)" stroke-linecap="butt" stroke="rgb(166,166,178)">
      <rect fill="none" width="67.654" x="-206.5542" height="17.9688" y="-26"/>
    </g>
    <g fill="rgb(238,238,255)" transform="matrix(1,0,0,1,207,134)" stroke="rgb(238,238,255)">
      <rect width="148.5542" x="-206.5542" height="48.746" y="-8.0312" stroke="none"/>
    </g>
    <g fill="rgb(166,166,178)" stroke-miterlimit="1.45" transform="matrix(1,0,0,1,207,134)" stroke-linecap="butt" stroke="rgb(166,166,178)">
      <rect fill="none" width="148.5542" x="-206.5542" height="48.746" y="-8.0312"/>
    </g>
    <g font-family="sans-serif" transform="matrix(1,0,0,1,207,134)">
      <text xml:space="preserve" x="-200.5542" y="-12.8613" onclick="umlload('http://docs.oracle.com/javase/6/docs/api/java/util/package-summary.html')" stroke="none">java.util</text>
    </g>
    <g fill="rgb(221,221,255)" transform="matrix(1,0,0,1,207,134)" stroke="rgb(221,221,255)">
      <rect x="-198.5542" y="0" clip-path="url(#clipPath2)" width="132.5542" height="32.7147" stroke="none"/>
    </g>
    <g fill="rgb(154,154,178)" stroke-miterlimit="1.45" transform="matrix(1,0,0,1,207,134)" stroke-linecap="butt" stroke="rgb(154,154,178)">
      <ellipse rx="66.2771" fill="none" ry="16.3574" cx="-132.2771" cy="16.3574"/>
    </g>
    <g font-style="italic" font-size="13" font-weight="bold" font-family="sans-serif" transform="matrix(1,0,0,1,207,134)">
      <text xml:space="preserve" x="-173.7771" y="20.8579" onclick="umlload('http://docs.oracle.com/javase/6/docs/api/java/util/Map.html')" stroke="none">Map&lt;K, V&gt;</text>
    </g>
    <g fill="rgb(238,238,255)" transform="matrix(1,0,0,1,207,134)" stroke="rgb(238,238,255)">
      <rect width="76.1412" x="117.145" height="17.9688" y="-133.1328" stroke="none"/>
    </g>
    <g fill="rgb(166,166,178)" stroke-miterlimit="1.45" transform="matrix(1,0,0,1,207,134)" stroke-linecap="butt" stroke="rgb(166,166,178)">
      <rect fill="none" width="76.1412" x="117.145" height="17.9688" y="-133.1328"/>
    </g>
    <g fill="rgb(238,238,255)" transform="matrix(1,0,0,1,207,134)" stroke="rgb(238,238,255)">
      <rect width="76.1412" x="117.145" height="39.1641" y="-115.1641" stroke="none"/>
    </g>
    <g fill="rgb(166,166,178)" stroke-miterlimit="1.45" transform="matrix(1,0,0,1,207,134)" stroke-linecap="butt" stroke="rgb(166,166,178)">
      <rect fill="none" width="76.1412" x="117.145" height="39.1641" y="-115.1641"/>
    </g>
    <g font-family="sans-serif" transform="matrix(1,0,0,1,207,134)">
      <text xml:space="preserve" x="123.145" y="-119.9941" onclick="umlload('http://docs.oracle.com/javase/6/docs/api/java/lang/package-summary.html')" stroke="none">java.lang</text>
    </g>
    <g fill="rgb(187,187,255)" transform="matrix(1,0,0,1,207,134)" stroke="rgb(187,187,255)">
      <rect x="125.145" y="-107.1328" clip-path="url(#clipPath3)" width="57.68" height="23.1328" stroke="none"/>
    </g>
    <g fill="rgb(130,130,178)" stroke-miterlimit="1.45" transform="matrix(1,0,0,1,207,134)" stroke-linecap="butt" stroke="rgb(130,130,178)">
      <rect fill="none" width="57.68" x="125.145" height="23.1328" y="-107.1328"/>
    </g>
    <g font-size="13" font-weight="bold" font-family="sans-serif" transform="matrix(1,0,0,1,207,134)">
      <text xml:space="preserve" x="129.985" y="-91.0659" onclick="umlload('http://docs.oracle.com/javase/6/docs/api/java/lang/Object.html')" stroke="none">Object</text>
    </g>
    <g fill="rgb(238,238,255)" transform="matrix(1,0,0,1,207,134)" stroke="rgb(238,238,255)">
      <rect width="400.7766" x="-8" height="17.9688" y="-26" stroke="none"/>
    </g>
    <g fill="rgb(166,166,178)" stroke-miterlimit="1.45" transform="matrix(1,0,0,1,207,134)" stroke-linecap="butt" stroke="rgb(166,166,178)">
      <rect fill="none" width="400.7766" x="-8" height="17.9688" y="-26"/>
    </g>
    <g fill="rgb(238,238,255)" transform="matrix(1,0,0,1,207,134)" stroke="rgb(238,238,255)">
      <rect width="400.97" x="-8" height="125.5" y="-8.0312" stroke="none"/>
    </g>
    <g fill="rgb(166,166,178)" stroke-miterlimit="1.45" transform="matrix(1,0,0,1,207,134)" stroke-linecap="butt" stroke="rgb(166,166,178)">
      <rect fill="none" width="400.97" x="-8" height="125.5" y="-8.0312"/>
    </g>
    <g font-family="sans-serif" transform="matrix(1,0,0,1,207,134)">
      <text xml:space="preserve" x="-2" y="-12.8613" onclick="umlload('package-summary.html')" stroke="none">com.msopentech.odatajclient.engine.data.metadata.edm</text>
    </g>
    <g fill="rgb(187,187,255)" transform="matrix(1,0,0,1,207,134)" stroke="rgb(187,187,255)">
      <rect x="0" y="0" clip-path="url(#clipPath4)" width="307.97" height="26.625" stroke="none"/>
      <line clip-path="url(#clipPath4)" fill="none" x1="0" x2="307.97" y1="26.625" y2="26.625" stroke="black"/>
      <rect x="0" y="27.625" clip-path="url(#clipPath4)" width="307.97" height="15.9688" stroke="none"/>
      <line clip-path="url(#clipPath4)" fill="none" x1="0" x2="307.97" y1="43.5938" y2="43.5938" stroke="black"/>
      <rect x="0" y="44.5938" clip-path="url(#clipPath4)" width="307.97" height="15.9688" stroke="none"/>
      <line clip-path="url(#clipPath4)" fill="none" x1="0" x2="307.97" y1="60.5625" y2="60.5625" stroke="black"/>
      <rect x="0" y="61.5625" clip-path="url(#clipPath4)" width="307.97" height="47.9062" stroke="none"/>
    </g>
    <g fill="rgb(130,130,178)" stroke-miterlimit="1.45" transform="matrix(1,0,0,1,207,134)" stroke-linecap="butt" stroke="rgb(130,130,178)">
      <rect fill="none" width="307.97" x="0" height="109.4688" y="0"/>
    </g>
    <g font-size="16" font-weight="bold" font-family="sans-serif" transform="matrix(1,0,0,1,207,134)">
      <text xml:space="preserve" x="43.985" y="18.8516" onclick="umlload('#')" stroke="none">FloatConstantExpression</text>
    </g>
    <g font-family="sans-serif" transform="matrix(1,0,0,1,207,134)">
      <text xml:space="preserve" x="4" y="38.1719" stroke="none">#</text>
      <text xml:space="preserve" x="19" y="39.7637" onclick="umlload('#value')" stroke="none">value : double</text>
    </g>
    <g font-family="sans-serif" transform="matrix(1,0,0,1,207,134)">
      <text xml:space="preserve" x="4" y="55.1719" stroke="none">+</text>
      <text xml:space="preserve" x="19" y="56.7324" onclick="umlload('#FloatConstantExpression()')" stroke="none">FloatConstantExpression()</text>
    </g>
    <g font-family="sans-serif" transform="matrix(1,0,0,1,207,134)">
      <text xml:space="preserve" x="4" y="72.1719" stroke="none">+</text>
      <text xml:space="preserve" x="19" y="73.7012" onclick="umlload('#getOtherAttributes()')" stroke="none">getOtherAttributes() : Map&lt;QName, String&gt;</text>
    </g>
    <g font-family="sans-serif" transform="matrix(1,0,0,1,207,134)">
      <text xml:space="preserve" x="4" y="88.1719" stroke="none">+</text>
      <text xml:space="preserve" x="19" y="89.6699" onclick="umlload('#getValue()')" stroke="none">getValue() : double</text>
    </g>
    <g font-family="sans-serif" transform="matrix(1,0,0,1,207,134)">
      <text xml:space="preserve" x="4" y="104.1719" stroke="none">+</text>
      <text xml:space="preserve" x="19" y="105.6387" onclick="umlload('#setValue(double)')" stroke="none">setValue(double) : void</text>
    </g>
    <g font-family="sans-serif" transform="matrix(1,0,0,1,207,134)">
      <text xml:space="preserve" x="-201" y="142.1543" onclick="umlload('http://www.yworks.com/')" stroke="none">yWorks UML Doclet</text>
    </g>
    <g stroke-miterlimit="1.45" transform="matrix(1,0,0,1,207,134)" stroke-linecap="butt">
      <path fill="none" d="M153.985 0 L153.985 -69"/>
      <path fill="white" d="M153.985 -84 L147.985 -68 L159.985 -68 Z" stroke="none"/>
      <path fill="none" d="M153.985 -84 L147.985 -68 L159.985 -68 Z"/>
      <path fill="none" d="M-0.0137 16.3574 L-66 16.3574"/>
      <line stroke-linecap="square" transform="matrix(-1,0,0,-1,-66,16.3574)" fill="none" x1="0" x2="-14" y1="0" y2="-4" stroke-miterlimit="10"/>
      <line stroke-linecap="square" transform="matrix(-1,0,0,-1,-66,16.3574)" fill="none" x1="0" x2="-14" y1="0" y2="4" stroke-miterlimit="10"/>
    </g>
  </g>
</svg>
