<?xml version="1.0" encoding="UTF-8"?><svg xmlns="http://www.w3.org/2000/svg" xmlns:xlink="http://www.w3.org/1999/xlink" fill-opacity="1" color-rendering="auto" color-interpolation="auto" stroke="black" text-rendering="auto" stroke-linecap="square" width="598" stroke-miterlimit="10" stroke-opacity="1" shape-rendering="auto" fill="black" stroke-dasharray="none" font-weight="normal" stroke-width="1" height="598" font-family="'Dialog'" font-style="normal" stroke-linejoin="miter" font-size="12" stroke-dashoffset="0" image-rendering="auto">
  <!--Generated by ySVG-->
  <defs id="genericDefs"/>
  <g>
    <defs id="defs1">
      <clipPath clipPathUnits="userSpaceOnUse" id="clipPath1">
        <path d="M0 0 L598 0 L598 598 L0 598 L0 0 Z"/>
      </clipPath>
      <clipPath clipPathUnits="userSpaceOnUse" id="clipPath2">
        <path d="M-103.8726 103.4902 C-103.8726 112.5241 -125.0678 119.8475 -151.2134 119.8475 C-177.359 119.8475 -198.5542 112.5241 -198.5542 103.4902 C-198.5542 94.4563 -177.359 87.1328 -151.2134 87.1328 C-125.0678 87.1328 -103.8726 94.4563 -103.8726 103.4902 Z"/>
      </clipPath>
      <clipPath clipPathUnits="userSpaceOnUse" id="clipPath3">
        <path d="M-66 146.2049 C-66 155.2388 -95.6733 162.5623 -132.2771 162.5623 C-168.881 162.5623 -198.5542 155.2388 -198.5542 146.2049 C-198.5542 137.171 -168.881 129.8475 -132.2771 129.8475 C-95.6733 129.8475 -66 137.171 -66 146.2049 Z"/>
      </clipPath>
      <clipPath clipPathUnits="userSpaceOnUse" id="clipPath4">
        <path d="M-130.04 0 L-76.48 0 L-76.48 23.1328 L-130.04 23.1328 L-130.04 0 Z"/>
      </clipPath>
      <clipPath clipPathUnits="userSpaceOnUse" id="clipPath5">
        <path d="M183.34 -107.1328 L241.02 -107.1328 L241.02 -84 L183.34 -84 L183.34 -107.1328 Z"/>
      </clipPath>
      <clipPath clipPathUnits="userSpaceOnUse" id="clipPath6">
        <path d="M0 0 L424.36 0 L424.36 170.5623 L0 170.5623 L0 0 Z"/>
      </clipPath>
      <script type="text/ecmascript"><![CDATA[
function umlload(newLocation)
{
if (newLocation.charAt(0) != '#') {
if (newLocation.indexOf("://") > -1) {
window.parent.location.href = newLocation;
} else {
var tmp = window.parent.location.href;
tmp = tmp.substring(0, tmp.lastIndexOf("/") + 1);
window.parent.location.href = tmp.concat(newLocation);
}
} else {
window.parent.location.hash = newLocation;
}
}
]]></script>
    </defs>
    <g fill="rgb(238,238,255)" transform="matrix(0.9344,0,0,0.9344,193.4156,261.625)" stroke="rgb(238,238,255)">
      <rect width="67.654" x="-206.5542" height="17.9688" y="61.1328" stroke="none"/>
    </g>
    <g fill="rgb(166,166,178)" stroke-miterlimit="1.45" transform="matrix(0.9344,0,0,0.9344,193.4156,261.625)" stroke-linecap="butt" stroke="rgb(166,166,178)">
      <rect fill="none" width="67.654" x="-206.5542" height="17.9688" y="61.1328"/>
    </g>
    <g fill="rgb(238,238,255)" transform="matrix(0.9344,0,0,0.9344,193.4156,261.625)" stroke="rgb(238,238,255)">
      <rect width="148.5542" x="-206.5542" height="91.4607" y="79.1016" stroke="none"/>
    </g>
    <g fill="rgb(166,166,178)" stroke-miterlimit="1.45" transform="matrix(0.9344,0,0,0.9344,193.4156,261.625)" stroke-linecap="butt" stroke="rgb(166,166,178)">
      <rect fill="none" width="148.5542" x="-206.5542" height="91.4607" y="79.1016"/>
    </g>
    <g font-family="sans-serif" transform="matrix(0.9344,0,0,0.9344,193.4156,261.625)">
      <text xml:space="preserve" x="-200.5542" y="74.2715" onclick="umlload('http://docs.oracle.com/javase/6/docs/api/java/util/package-summary.html')" stroke="none">java.util</text>
    </g>
    <g fill="rgb(221,221,255)" transform="matrix(0.9344,0,0,0.9344,193.4156,261.625)" stroke="rgb(221,221,255)">
      <rect x="-198.5542" y="87.1328" clip-path="url(#clipPath2)" width="94.6816" height="32.7147" stroke="none"/>
    </g>
    <g fill="rgb(154,154,178)" stroke-miterlimit="1.45" transform="matrix(0.9344,0,0,0.9344,193.4156,261.625)" stroke-linecap="butt" stroke="rgb(154,154,178)">
      <ellipse rx="47.3408" fill="none" ry="16.3574" cx="-151.2134" cy="103.4902"/>
    </g>
    <g font-style="italic" font-size="13" font-weight="bold" font-family="sans-serif" transform="matrix(0.9344,0,0,0.9344,193.4156,261.625)">
      <text xml:space="preserve" x="-179.7134" y="107.9907" onclick="umlload('http://docs.oracle.com/javase/6/docs/api/java/util/List.html')" stroke="none">List&lt;E&gt;</text>
    </g>
    <g fill="rgb(221,221,255)" transform="matrix(0.9344,0,0,0.9344,193.4156,261.625)" stroke="rgb(221,221,255)">
      <rect x="-198.5542" y="129.8475" clip-path="url(#clipPath3)" width="132.5542" height="32.7147" stroke="none"/>
    </g>
    <g fill="rgb(154,154,178)" stroke-miterlimit="1.45" transform="matrix(0.9344,0,0,0.9344,193.4156,261.625)" stroke-linecap="butt" stroke="rgb(154,154,178)">
      <ellipse rx="66.2771" fill="none" ry="16.3574" cx="-132.2771" cy="146.2049"/>
    </g>
    <g font-style="italic" font-size="13" font-weight="bold" font-family="sans-serif" transform="matrix(0.9344,0,0,0.9344,193.4156,261.625)">
      <text xml:space="preserve" x="-173.7771" y="150.7054" onclick="umlload('http://docs.oracle.com/javase/6/docs/api/java/util/Map.html')" stroke="none">Map&lt;K, V&gt;</text>
    </g>
    <g fill="rgb(238,238,255)" transform="matrix(0.9344,0,0,0.9344,193.4156,261.625)" stroke="rgb(238,238,255)">
      <rect width="76.1412" x="-138.04" height="17.9688" y="-26" stroke="none"/>
    </g>
    <g fill="rgb(166,166,178)" stroke-miterlimit="1.45" transform="matrix(0.9344,0,0,0.9344,193.4156,261.625)" stroke-linecap="butt" stroke="rgb(166,166,178)">
      <rect fill="none" width="76.1412" x="-138.04" height="17.9688" y="-26"/>
    </g>
    <g fill="rgb(238,238,255)" transform="matrix(0.9344,0,0,0.9344,193.4156,261.625)" stroke="rgb(238,238,255)">
      <rect width="79.56" x="-138.04" height="39.1641" y="-8.0312" stroke="none"/>
    </g>
    <g fill="rgb(166,166,178)" stroke-miterlimit="1.45" transform="matrix(0.9344,0,0,0.9344,193.4156,261.625)" stroke-linecap="butt" stroke="rgb(166,166,178)">
      <rect fill="none" width="79.56" x="-138.04" height="39.1641" y="-8.0312"/>
    </g>
    <g font-family="sans-serif" transform="matrix(0.9344,0,0,0.9344,193.4156,261.625)">
      <text xml:space="preserve" x="-132.04" y="-12.8613" onclick="umlload('http://docs.oracle.com/javase/6/docs/api/java/lang/package-summary.html')" stroke="none">java.lang</text>
    </g>
    <g fill="rgb(187,187,255)" transform="matrix(0.9344,0,0,0.9344,193.4156,261.625)" stroke="rgb(187,187,255)">
      <rect x="-130.04" y="0" clip-path="url(#clipPath4)" width="53.56" height="23.1328" stroke="none"/>
    </g>
    <g fill="rgb(130,130,178)" stroke-miterlimit="1.45" transform="matrix(0.9344,0,0,0.9344,193.4156,261.625)" stroke-linecap="butt" stroke="rgb(130,130,178)">
      <rect fill="none" width="53.56" x="-130.04" height="23.1328" y="0"/>
    </g>
    <g font-size="13" font-weight="bold" font-family="sans-serif" transform="matrix(0.9344,0,0,0.9344,193.4156,261.625)">
      <text xml:space="preserve" x="-125.26" y="16.0669" onclick="umlload('http://docs.oracle.com/javase/6/docs/api/java/lang/String.html')" stroke="none">String</text>
    </g>
    <g fill="rgb(238,238,255)" transform="matrix(0.9344,0,0,0.9344,193.4156,261.625)" stroke="rgb(238,238,255)">
      <rect width="76.1412" x="175.34" height="17.9688" y="-133.1328" stroke="none"/>
    </g>
    <g fill="rgb(166,166,178)" stroke-miterlimit="1.45" transform="matrix(0.9344,0,0,0.9344,193.4156,261.625)" stroke-linecap="butt" stroke="rgb(166,166,178)">
      <rect fill="none" width="76.1412" x="175.34" height="17.9688" y="-133.1328"/>
    </g>
    <g fill="rgb(238,238,255)" transform="matrix(0.9344,0,0,0.9344,193.4156,261.625)" stroke="rgb(238,238,255)">
      <rect width="76.1412" x="175.34" height="39.1641" y="-115.1641" stroke="none"/>
    </g>
    <g fill="rgb(166,166,178)" stroke-miterlimit="1.45" transform="matrix(0.9344,0,0,0.9344,193.4156,261.625)" stroke-linecap="butt" stroke="rgb(166,166,178)">
      <rect fill="none" width="76.1412" x="175.34" height="39.1641" y="-115.1641"/>
    </g>
    <g font-family="sans-serif" transform="matrix(0.9344,0,0,0.9344,193.4156,261.625)">
      <text xml:space="preserve" x="181.34" y="-119.9941" onclick="umlload('http://docs.oracle.com/javase/6/docs/api/java/lang/package-summary.html')" stroke="none">java.lang</text>
    </g>
    <g fill="rgb(187,187,255)" transform="matrix(0.9344,0,0,0.9344,193.4156,261.625)" stroke="rgb(187,187,255)">
      <rect x="183.34" y="-107.1328" clip-path="url(#clipPath5)" width="57.68" height="23.1328" stroke="none"/>
    </g>
    <g fill="rgb(130,130,178)" stroke-miterlimit="1.45" transform="matrix(0.9344,0,0,0.9344,193.4156,261.625)" stroke-linecap="butt" stroke="rgb(130,130,178)">
      <rect fill="none" width="57.68" x="183.34" height="23.1328" y="-107.1328"/>
    </g>
    <g font-size="13" font-weight="bold" font-family="sans-serif" transform="matrix(0.9344,0,0,0.9344,193.4156,261.625)">
      <text xml:space="preserve" x="188.18" y="-91.0659" onclick="umlload('http://docs.oracle.com/javase/6/docs/api/java/lang/Object.html')" stroke="none">Object</text>
    </g>
    <g fill="rgb(238,238,255)" transform="matrix(0.9344,0,0,0.9344,193.4156,261.625)" stroke="rgb(238,238,255)">
      <rect width="400.7766" x="-8" height="17.9688" y="-26" stroke="none"/>
    </g>
    <g fill="rgb(166,166,178)" stroke-miterlimit="1.45" transform="matrix(0.9344,0,0,0.9344,193.4156,261.625)" stroke-linecap="butt" stroke="rgb(166,166,178)">
      <rect fill="none" width="400.7766" x="-8" height="17.9688" y="-26"/>
    </g>
    <g fill="rgb(238,238,255)" transform="matrix(0.9344,0,0,0.9344,193.4156,261.625)" stroke="rgb(238,238,255)">
      <rect width="440.36" x="-8" height="186.5935" y="-8.0312" stroke="none"/>
    </g>
    <g fill="rgb(166,166,178)" stroke-miterlimit="1.45" transform="matrix(0.9344,0,0,0.9344,193.4156,261.625)" stroke-linecap="butt" stroke="rgb(166,166,178)">
      <rect fill="none" width="440.36" x="-8" height="186.5935" y="-8.0312"/>
    </g>
    <g font-family="sans-serif" transform="matrix(0.9344,0,0,0.9344,193.4156,261.625)">
      <text xml:space="preserve" x="-2" y="-12.8613" onclick="umlload('package-summary.html')" stroke="none">com.msopentech.odatajclient.engine.data.metadata.edm</text>
    </g>
    <g fill="rgb(187,187,255)" transform="matrix(0.9344,0,0,0.9344,193.4156,261.625)" stroke="rgb(187,187,255)">
      <rect x="0" y="0" clip-path="url(#clipPath6)" width="424.36" height="26.625" stroke="none"/>
      <line clip-path="url(#clipPath6)" fill="none" x1="0" x2="424.36" y1="26.625" y2="26.625" stroke="black"/>
      <rect x="0" y="27.625" clip-path="url(#clipPath6)" width="424.36" height="31.9375" stroke="none"/>
      <line clip-path="url(#clipPath6)" fill="none" x1="0" x2="424.36" y1="59.5625" y2="59.5625" stroke="black"/>
      <rect x="0" y="60.5625" clip-path="url(#clipPath6)" width="424.36" height="15.9688" stroke="none"/>
      <line clip-path="url(#clipPath6)" fill="none" x1="0" x2="424.36" y1="76.5312" y2="76.5312" stroke="black"/>
      <rect x="0" y="77.5312" clip-path="url(#clipPath6)" width="424.36" height="93.031" stroke="none"/>
    </g>
    <g fill="rgb(130,130,178)" stroke-miterlimit="1.45" transform="matrix(0.9344,0,0,0.9344,193.4156,261.625)" stroke-linecap="butt" stroke="rgb(130,130,178)">
      <rect fill="none" width="424.36" x="0" height="170.5623" y="0"/>
    </g>
    <g font-size="16" font-weight="bold" font-family="sans-serif" transform="matrix(0.9344,0,0,0.9344,193.4156,261.625)">
      <text xml:space="preserve" x="30.18" y="18.8516" onclick="umlload('#')" stroke="none">FunctionReferenceExpression.Parameter</text>
    </g>
    <g font-family="sans-serif" transform="matrix(0.9344,0,0,0.9344,193.4156,261.625)">
      <text xml:space="preserve" x="4" y="38.1719" stroke="none">#</text>
      <text xml:space="preserve" x="19" y="39.7637" onclick="umlload('#collectionTypeOrReferenceTypeOrRowType')" stroke="none">collectionTypeOrReferenceTypeOrRowType : List&lt;Object&gt;</text>
    </g>
    <g font-family="sans-serif" transform="matrix(0.9344,0,0,0.9344,193.4156,261.625)">
      <text xml:space="preserve" x="4" y="54.1719" stroke="none">#</text>
      <text xml:space="preserve" x="19" y="55.7324" onclick="umlload('#type')" stroke="none">type : String</text>
    </g>
    <g font-family="sans-serif" transform="matrix(0.9344,0,0,0.9344,193.4156,261.625)">
      <text xml:space="preserve" x="4" y="71.1719" stroke="none">+</text>
      <text xml:space="preserve" x="19" y="72.7012" onclick="umlload('#FunctionReferenceExpression.Parameter()')" stroke="none">FunctionReferenceExpression.Parameter()</text>
    </g>
    <g font-family="sans-serif" transform="matrix(0.9344,0,0,0.9344,193.4156,261.625)">
      <text xml:space="preserve" x="4" y="88.1719" stroke="none">+</text>
      <text xml:space="preserve" x="19" y="89.6699" onclick="umlload('#getCollectionTypeOrReferenceTypeOrRowType()')" stroke="none">getCollectionTypeOrReferenceTypeOrRowType() : List&lt;Object&gt;</text>
    </g>
    <g font-family="sans-serif" transform="matrix(0.9344,0,0,0.9344,193.4156,261.625)">
      <text xml:space="preserve" x="4" y="104.1719" stroke="none">+</text>
      <text xml:space="preserve" x="19" y="105.6387" onclick="umlload('#getOtherAttributes()')" stroke="none">getOtherAttributes() : Map&lt;QName, String&gt;</text>
    </g>
    <g font-family="sans-serif" transform="matrix(0.9344,0,0,0.9344,193.4156,261.625)">
      <text xml:space="preserve" x="4" y="120.1719" stroke="none">+</text>
      <text xml:space="preserve" x="19" y="121.6074" onclick="umlload('#getType()')" stroke="none">getType() : String</text>
    </g>
    <g font-family="sans-serif" transform="matrix(0.9344,0,0,0.9344,193.4156,261.625)">
      <text xml:space="preserve" x="4" y="136.1719" stroke="none">+</text>
      <text xml:space="preserve" x="19" y="137.5762" onclick="umlload('#setType(java.lang.String)')" stroke="none">setType(String) : void</text>
    </g>
    <g font-family="sans-serif" transform="matrix(0.9344,0,0,0.9344,193.4156,261.625)">
      <text xml:space="preserve" x="-201" y="203.1543" onclick="umlload('http://www.yworks.com/')" stroke="none">yWorks UML Doclet</text>
    </g>
    <g stroke-miterlimit="1.45" transform="matrix(0.9344,0,0,0.9344,193.4156,261.625)" stroke-linecap="butt">
      <path fill="none" d="M212.18 0.0305 L212.18 -69"/>
      <path fill="white" d="M212.18 -84 L206.18 -68 L218.18 -68 Z" stroke="none"/>
      <path fill="none" d="M212.18 -84 L206.18 -68 L218.18 -68 Z"/>
      <path fill="none" d="M-0.0258 11.5664 L-76.48 11.5664"/>
      <line stroke-linecap="square" transform="matrix(-1,0,0,-1,-76.48,11.5664)" fill="none" x1="0" x2="-14" y1="0" y2="-4" stroke-miterlimit="10"/>
      <line stroke-linecap="square" transform="matrix(-1,0,0,-1,-76.48,11.5664)" fill="none" x1="0" x2="-14" y1="0" y2="4" stroke-miterlimit="10"/>
    </g>
    <g stroke-miterlimit="1.45" transform="matrix(0.9344,0,0,0.9344,193.4156,261.625)" stroke-linecap="butt">
      <path fill="none" d="M0.0083 103.4902 L-103.8726 103.4902"/>
      <line stroke-linecap="square" transform="matrix(-1,0,0,-1,-103.8726,103.4902)" fill="none" x1="0" x2="-14" y1="0" y2="-4" stroke-miterlimit="10"/>
      <line stroke-linecap="square" transform="matrix(-1,0,0,-1,-103.8726,103.4902)" fill="none" x1="0" x2="-14" y1="0" y2="4" stroke-miterlimit="10"/>
    </g>
    <g stroke-miterlimit="1.45" transform="matrix(0.9344,0,0,0.9344,193.4156,261.625)" stroke-linecap="butt">
      <path fill="none" d="M-0.0362 146.2049 L-66 146.2049"/>
      <line stroke-linecap="square" transform="matrix(-1,0,0,-1,-66,146.2049)" fill="none" x1="0" x2="-14" y1="0" y2="-4" stroke-miterlimit="10"/>
      <line stroke-linecap="square" transform="matrix(-1,0,0,-1,-66,146.2049)" fill="none" x1="0" x2="-14" y1="0" y2="4" stroke-miterlimit="10"/>
    </g>
  </g>
</svg>
