<?xml version="1.0" encoding="UTF-8"?><svg xmlns="http://www.w3.org/2000/svg" xmlns:xlink="http://www.w3.org/1999/xlink" fill-opacity="1" color-rendering="auto" color-interpolation="auto" stroke="black" text-rendering="auto" stroke-linecap="square" width="598" stroke-miterlimit="10" stroke-opacity="1" shape-rendering="auto" fill="black" stroke-dasharray="none" font-weight="normal" stroke-width="1" height="598" font-family="'Dialog'" font-style="normal" stroke-linejoin="miter" font-size="12" stroke-dashoffset="0" image-rendering="auto">
  <!--Generated by ySVG-->
  <defs id="genericDefs"/>
  <g>
    <defs id="defs1">
      <clipPath clipPathUnits="userSpaceOnUse" id="clipPath1">
        <path d="M0 0 L598 0 L598 598 L0 598 L0 0 Z"/>
      </clipPath>
      <clipPath clipPathUnits="userSpaceOnUse" id="clipPath2">
        <path d="M-103.8726 377.1542 C-103.8726 386.1882 -125.0678 393.5116 -151.2134 393.5116 C-177.359 393.5116 -198.5542 386.1882 -198.5542 377.1542 C-198.5542 368.1203 -177.359 360.7969 -151.2134 360.7969 C-125.0678 360.7969 -103.8726 368.1203 -103.8726 377.1542 Z"/>
      </clipPath>
      <clipPath clipPathUnits="userSpaceOnUse" id="clipPath3">
        <path d="M-66 419.869 C-66 428.9029 -95.6733 436.2263 -132.2771 436.2263 C-168.881 436.2263 -198.5542 428.9029 -198.5542 419.869 C-198.5542 410.8351 -168.881 403.5116 -132.2771 403.5116 C-95.6733 403.5116 -66 410.8351 -66 419.869 Z"/>
      </clipPath>
      <clipPath clipPathUnits="userSpaceOnUse" id="clipPath4">
        <path d="M-153.55 273.6641 L-66 273.6641 L-66 296.7969 L-153.55 296.7969 L-153.55 273.6641 Z"/>
      </clipPath>
      <clipPath clipPathUnits="userSpaceOnUse" id="clipPath5">
        <path d="M-135.01 153.3984 L-66 153.3984 L-66 176.5312 L-135.01 176.5312 L-135.01 153.3984 Z"/>
      </clipPath>
      <clipPath clipPathUnits="userSpaceOnUse" id="clipPath6">
        <path d="M-135.01 186.5312 L-81.45 186.5312 L-81.45 209.6641 L-135.01 209.6641 L-135.01 186.5312 Z"/>
      </clipPath>
      <clipPath clipPathUnits="userSpaceOnUse" id="clipPath7">
        <path d="M-445.22 0 L-326.77 0 L-326.77 23.1328 L-445.22 23.1328 L-445.22 0 Z"/>
      </clipPath>
      <clipPath clipPathUnits="userSpaceOnUse" id="clipPath8">
        <path d="M-445.22 33.1328 L-323.68 33.1328 L-323.68 56.2656 L-445.22 56.2656 L-445.22 33.1328 Z"/>
      </clipPath>
      <clipPath clipPathUnits="userSpaceOnUse" id="clipPath9">
        <path d="M-445.22 66.2656 L-369 66.2656 L-369 89.3984 L-445.22 89.3984 L-445.22 66.2656 Z"/>
      </clipPath>
      <clipPath clipPathUnits="userSpaceOnUse" id="clipPath10">
        <path d="M125.145 -107.1328 L182.825 -107.1328 L182.825 -84 L125.145 -84 L125.145 -107.1328 Z"/>
      </clipPath>
      <clipPath clipPathUnits="userSpaceOnUse" id="clipPath11">
        <path d="M0 0 L307.97 0 L307.97 716.2812 L0 716.2812 L0 0 Z"/>
      </clipPath>
      <script type="text/ecmascript"><![CDATA[
function umlload(newLocation)
{
if (newLocation.charAt(0) != '#') {
if (newLocation.indexOf("://") > -1) {
window.parent.location.href = newLocation;
} else {
var tmp = window.parent.location.href;
tmp = tmp.substring(0, tmp.lastIndexOf("/") + 1);
window.parent.location.href = tmp.concat(newLocation);
}
} else {
window.parent.location.hash = newLocation;
}
}
]]></script>
    </defs>
    <g fill="rgb(238,238,255)" transform="matrix(0.6689,0,0,0.6689,319.0671,89.6331)" stroke="rgb(238,238,255)">
      <rect width="67.654" x="-206.5542" height="17.9688" y="334.7969" stroke="none"/>
    </g>
    <g fill="rgb(166,166,178)" stroke-miterlimit="1.45" transform="matrix(0.6689,0,0,0.6689,319.0671,89.6331)" stroke-linecap="butt" stroke="rgb(166,166,178)">
      <rect fill="none" width="67.654" x="-206.5542" height="17.9688" y="334.7969"/>
    </g>
    <g fill="rgb(238,238,255)" transform="matrix(0.6689,0,0,0.6689,319.0671,89.6331)" stroke="rgb(238,238,255)">
      <rect width="148.5542" x="-206.5542" height="91.4607" y="352.7656" stroke="none"/>
    </g>
    <g fill="rgb(166,166,178)" stroke-miterlimit="1.45" transform="matrix(0.6689,0,0,0.6689,319.0671,89.6331)" stroke-linecap="butt" stroke="rgb(166,166,178)">
      <rect fill="none" width="148.5542" x="-206.5542" height="91.4607" y="352.7656"/>
    </g>
    <g font-family="sans-serif" transform="matrix(0.6689,0,0,0.6689,319.0671,89.6331)">
      <text xml:space="preserve" x="-200.5542" y="347.9355" onclick="umlload('http://docs.oracle.com/javase/6/docs/api/java/util/package-summary.html')" stroke="none">java.util</text>
    </g>
    <g fill="rgb(221,221,255)" transform="matrix(0.6689,0,0,0.6689,319.0671,89.6331)" stroke="rgb(221,221,255)">
      <rect x="-198.5542" y="360.7969" clip-path="url(#clipPath2)" width="94.6816" height="32.7147" stroke="none"/>
    </g>
    <g fill="rgb(154,154,178)" stroke-miterlimit="1.45" transform="matrix(0.6689,0,0,0.6689,319.0671,89.6331)" stroke-linecap="butt" stroke="rgb(154,154,178)">
      <ellipse rx="47.3408" fill="none" ry="16.3574" cx="-151.2134" cy="377.1542"/>
    </g>
    <g font-style="italic" font-size="13" font-weight="bold" font-family="sans-serif" transform="matrix(0.6689,0,0,0.6689,319.0671,89.6331)">
      <text xml:space="preserve" x="-179.7134" y="381.6547" onclick="umlload('http://docs.oracle.com/javase/6/docs/api/java/util/List.html')" stroke="none">List&lt;E&gt;</text>
    </g>
    <g fill="rgb(221,221,255)" transform="matrix(0.6689,0,0,0.6689,319.0671,89.6331)" stroke="rgb(221,221,255)">
      <rect x="-198.5542" y="403.5116" clip-path="url(#clipPath3)" width="132.5542" height="32.7147" stroke="none"/>
    </g>
    <g fill="rgb(154,154,178)" stroke-miterlimit="1.45" transform="matrix(0.6689,0,0,0.6689,319.0671,89.6331)" stroke-linecap="butt" stroke="rgb(154,154,178)">
      <ellipse rx="66.2771" fill="none" ry="16.3574" cx="-132.2771" cy="419.869"/>
    </g>
    <g font-style="italic" font-size="13" font-weight="bold" font-family="sans-serif" transform="matrix(0.6689,0,0,0.6689,319.0671,89.6331)">
      <text xml:space="preserve" x="-173.7771" y="424.3695" onclick="umlload('http://docs.oracle.com/javase/6/docs/api/java/util/Map.html')" stroke="none">Map&lt;K, V&gt;</text>
    </g>
    <g fill="rgb(238,238,255)" transform="matrix(0.6689,0,0,0.6689,319.0671,89.6331)" stroke="rgb(238,238,255)">
      <rect width="81.4457" x="-161.55" height="17.9688" y="247.6641" stroke="none"/>
    </g>
    <g fill="rgb(166,166,178)" stroke-miterlimit="1.45" transform="matrix(0.6689,0,0,0.6689,319.0671,89.6331)" stroke-linecap="butt" stroke="rgb(166,166,178)">
      <rect fill="none" width="81.4457" x="-161.55" height="17.9688" y="247.6641"/>
    </g>
    <g fill="rgb(238,238,255)" transform="matrix(0.6689,0,0,0.6689,319.0671,89.6331)" stroke="rgb(238,238,255)">
      <rect width="103.55" x="-161.55" height="39.1641" y="265.6328" stroke="none"/>
    </g>
    <g fill="rgb(166,166,178)" stroke-miterlimit="1.45" transform="matrix(0.6689,0,0,0.6689,319.0671,89.6331)" stroke-linecap="butt" stroke="rgb(166,166,178)">
      <rect fill="none" width="103.55" x="-161.55" height="39.1641" y="265.6328"/>
    </g>
    <g font-family="sans-serif" transform="matrix(0.6689,0,0,0.6689,319.0671,89.6331)">
      <text xml:space="preserve" x="-155.55" y="260.8027" onclick="umlload('http://docs.oracle.com/javase/6/docs/api/java/math/package-summary.html')" stroke="none">java.math</text>
    </g>
    <g fill="rgb(187,187,255)" transform="matrix(0.6689,0,0,0.6689,319.0671,89.6331)" stroke="rgb(187,187,255)">
      <rect x="-153.55" y="273.6641" clip-path="url(#clipPath4)" width="87.55" height="23.1328" stroke="none"/>
    </g>
    <g fill="rgb(130,130,178)" stroke-miterlimit="1.45" transform="matrix(0.6689,0,0,0.6689,319.0671,89.6331)" stroke-linecap="butt" stroke="rgb(130,130,178)">
      <rect fill="none" width="87.55" x="-153.55" height="23.1328" y="273.6641"/>
    </g>
    <g font-size="13" font-weight="bold" font-family="sans-serif" transform="matrix(0.6689,0,0,0.6689,319.0671,89.6331)">
      <text xml:space="preserve" x="-148.275" y="289.731" onclick="umlload('http://docs.oracle.com/javase/6/docs/api/java/math/BigInteger.html')" stroke="none">BigInteger</text>
    </g>
    <g fill="rgb(238,238,255)" transform="matrix(0.6689,0,0,0.6689,319.0671,89.6331)" stroke="rgb(238,238,255)">
      <rect width="76.1412" x="-143.01" height="17.9688" y="127.3984" stroke="none"/>
    </g>
    <g fill="rgb(166,166,178)" stroke-miterlimit="1.45" transform="matrix(0.6689,0,0,0.6689,319.0671,89.6331)" stroke-linecap="butt" stroke="rgb(166,166,178)">
      <rect fill="none" width="76.1412" x="-143.01" height="17.9688" y="127.3984"/>
    </g>
    <g fill="rgb(238,238,255)" transform="matrix(0.6689,0,0,0.6689,319.0671,89.6331)" stroke="rgb(238,238,255)">
      <rect width="85.01" x="-143.01" height="72.2969" y="145.3672" stroke="none"/>
    </g>
    <g fill="rgb(166,166,178)" stroke-miterlimit="1.45" transform="matrix(0.6689,0,0,0.6689,319.0671,89.6331)" stroke-linecap="butt" stroke="rgb(166,166,178)">
      <rect fill="none" width="85.01" x="-143.01" height="72.2969" y="145.3672"/>
    </g>
    <g font-family="sans-serif" transform="matrix(0.6689,0,0,0.6689,319.0671,89.6331)">
      <text xml:space="preserve" x="-137.01" y="140.5371" onclick="umlload('http://docs.oracle.com/javase/6/docs/api/java/lang/package-summary.html')" stroke="none">java.lang</text>
    </g>
    <g fill="rgb(187,187,255)" transform="matrix(0.6689,0,0,0.6689,319.0671,89.6331)" stroke="rgb(187,187,255)">
      <rect x="-135.01" y="153.3984" clip-path="url(#clipPath5)" width="69.01" height="23.1328" stroke="none"/>
    </g>
    <g fill="rgb(130,130,178)" stroke-miterlimit="1.45" transform="matrix(0.6689,0,0,0.6689,319.0671,89.6331)" stroke-linecap="butt" stroke="rgb(130,130,178)">
      <rect fill="none" width="69.01" x="-135.01" height="23.1328" y="153.3984"/>
    </g>
    <g font-size="13" font-weight="bold" font-family="sans-serif" transform="matrix(0.6689,0,0,0.6689,319.0671,89.6331)">
      <text xml:space="preserve" x="-130.005" y="169.4653" onclick="umlload('http://docs.oracle.com/javase/6/docs/api/java/lang/Boolean.html')" stroke="none">Boolean</text>
    </g>
    <g fill="rgb(187,187,255)" transform="matrix(0.6689,0,0,0.6689,319.0671,89.6331)" stroke="rgb(187,187,255)">
      <rect x="-135.01" y="186.5312" clip-path="url(#clipPath6)" width="53.56" height="23.1328" stroke="none"/>
    </g>
    <g fill="rgb(130,130,178)" stroke-miterlimit="1.45" transform="matrix(0.6689,0,0,0.6689,319.0671,89.6331)" stroke-linecap="butt" stroke="rgb(130,130,178)">
      <rect fill="none" width="53.56" x="-135.01" height="23.1328" y="186.5312"/>
    </g>
    <g font-size="13" font-weight="bold" font-family="sans-serif" transform="matrix(0.6689,0,0,0.6689,319.0671,89.6331)">
      <text xml:space="preserve" x="-130.23" y="202.5981" onclick="umlload('http://docs.oracle.com/javase/6/docs/api/java/lang/String.html')" stroke="none">String</text>
    </g>
    <g fill="rgb(238,238,255)" transform="matrix(0.6689,0,0,0.6689,319.0671,89.6331)" stroke="rgb(238,238,255)">
      <rect width="400.7766" x="-453.22" height="17.9688" y="-26" stroke="none"/>
    </g>
    <g fill="rgb(166,166,178)" stroke-miterlimit="1.45" transform="matrix(0.6689,0,0,0.6689,319.0671,89.6331)" stroke-linecap="butt" stroke="rgb(166,166,178)">
      <rect fill="none" width="400.7766" x="-453.22" height="17.9688" y="-26"/>
    </g>
    <g fill="rgb(238,238,255)" transform="matrix(0.6689,0,0,0.6689,319.0671,89.6331)" stroke="rgb(238,238,255)">
      <rect width="400.7766" x="-453.22" height="105.4297" y="-8.0312" stroke="none"/>
    </g>
    <g fill="rgb(166,166,178)" stroke-miterlimit="1.45" transform="matrix(0.6689,0,0,0.6689,319.0671,89.6331)" stroke-linecap="butt" stroke="rgb(166,166,178)">
      <rect fill="none" width="400.7766" x="-453.22" height="105.4297" y="-8.0312"/>
    </g>
    <g font-family="sans-serif" transform="matrix(0.6689,0,0,0.6689,319.0671,89.6331)">
      <text xml:space="preserve" x="-447.22" y="-12.8613" onclick="umlload('../../../../../../../com/msopentech/odatajclient/engine/data/metadata/edm/package-summary.html')" stroke="none">com.msopentech.odatajclient.engine.data.metadata.edm</text>
    </g>
    <g fill="rgb(187,187,255)" transform="matrix(0.6689,0,0,0.6689,319.0671,89.6331)" stroke="rgb(187,187,255)">
      <rect x="-445.22" y="0" clip-path="url(#clipPath7)" width="118.45" height="23.1328" stroke="none"/>
    </g>
    <g fill="rgb(130,130,178)" stroke-miterlimit="1.45" transform="matrix(0.6689,0,0,0.6689,319.0671,89.6331)" stroke-linecap="butt" stroke="rgb(130,130,178)">
      <rect fill="none" width="118.45" x="-445.22" height="23.1328" y="0"/>
    </g>
    <g font-size="13" font-weight="bold" font-family="sans-serif" transform="matrix(0.6689,0,0,0.6689,319.0671,89.6331)">
      <text xml:space="preserve" x="-439.495" y="16.0669" onclick="umlload('../../../../../../../com/msopentech/odatajclient/engine/data/metadata/edm/CollectionType.html')" stroke="none">CollectionType</text>
    </g>
    <g fill="rgb(187,187,255)" transform="matrix(0.6689,0,0,0.6689,319.0671,89.6331)" stroke="rgb(187,187,255)">
      <rect x="-445.22" y="33.1328" clip-path="url(#clipPath8)" width="121.54" height="23.1328" stroke="none"/>
    </g>
    <g fill="rgb(130,130,178)" stroke-miterlimit="1.45" transform="matrix(0.6689,0,0,0.6689,319.0671,89.6331)" stroke-linecap="butt" stroke="rgb(130,130,178)">
      <rect fill="none" width="121.54" x="-445.22" height="23.1328" y="33.1328"/>
    </g>
    <g font-size="13" font-weight="bold" font-family="sans-serif" transform="matrix(0.6689,0,0,0.6689,319.0671,89.6331)">
      <text xml:space="preserve" x="-439.45" y="49.1997" onclick="umlload('../../../../../../../com/msopentech/odatajclient/engine/data/metadata/edm/ReferenceType.html')" stroke="none">ReferenceType</text>
    </g>
    <g fill="rgb(187,187,255)" transform="matrix(0.6689,0,0,0.6689,319.0671,89.6331)" stroke="rgb(187,187,255)">
      <rect x="-445.22" y="66.2656" clip-path="url(#clipPath9)" width="76.22" height="23.1328" stroke="none"/>
    </g>
    <g fill="rgb(130,130,178)" stroke-miterlimit="1.45" transform="matrix(0.6689,0,0,0.6689,319.0671,89.6331)" stroke-linecap="butt" stroke="rgb(130,130,178)">
      <rect fill="none" width="76.22" x="-445.22" height="23.1328" y="66.2656"/>
    </g>
    <g font-size="13" font-weight="bold" font-family="sans-serif" transform="matrix(0.6689,0,0,0.6689,319.0671,89.6331)">
      <text xml:space="preserve" x="-440.11" y="82.3325" onclick="umlload('../../../../../../../com/msopentech/odatajclient/engine/data/metadata/edm/RowType.html')" stroke="none">RowType</text>
    </g>
    <g fill="rgb(238,238,255)" transform="matrix(0.6689,0,0,0.6689,319.0671,89.6331)" stroke="rgb(238,238,255)">
      <rect width="76.1412" x="117.145" height="17.9688" y="-133.1328" stroke="none"/>
    </g>
    <g fill="rgb(166,166,178)" stroke-miterlimit="1.45" transform="matrix(0.6689,0,0,0.6689,319.0671,89.6331)" stroke-linecap="butt" stroke="rgb(166,166,178)">
      <rect fill="none" width="76.1412" x="117.145" height="17.9688" y="-133.1328"/>
    </g>
    <g fill="rgb(238,238,255)" transform="matrix(0.6689,0,0,0.6689,319.0671,89.6331)" stroke="rgb(238,238,255)">
      <rect width="76.1412" x="117.145" height="39.1641" y="-115.1641" stroke="none"/>
    </g>
    <g fill="rgb(166,166,178)" stroke-miterlimit="1.45" transform="matrix(0.6689,0,0,0.6689,319.0671,89.6331)" stroke-linecap="butt" stroke="rgb(166,166,178)">
      <rect fill="none" width="76.1412" x="117.145" height="39.1641" y="-115.1641"/>
    </g>
    <g font-family="sans-serif" transform="matrix(0.6689,0,0,0.6689,319.0671,89.6331)">
      <text xml:space="preserve" x="123.145" y="-119.9941" onclick="umlload('http://docs.oracle.com/javase/6/docs/api/java/lang/package-summary.html')" stroke="none">java.lang</text>
    </g>
    <g fill="rgb(187,187,255)" transform="matrix(0.6689,0,0,0.6689,319.0671,89.6331)" stroke="rgb(187,187,255)">
      <rect x="125.145" y="-107.1328" clip-path="url(#clipPath10)" width="57.68" height="23.1328" stroke="none"/>
    </g>
    <g fill="rgb(130,130,178)" stroke-miterlimit="1.45" transform="matrix(0.6689,0,0,0.6689,319.0671,89.6331)" stroke-linecap="butt" stroke="rgb(130,130,178)">
      <rect fill="none" width="57.68" x="125.145" height="23.1328" y="-107.1328"/>
    </g>
    <g font-size="13" font-weight="bold" font-family="sans-serif" transform="matrix(0.6689,0,0,0.6689,319.0671,89.6331)">
      <text xml:space="preserve" x="129.985" y="-91.0659" onclick="umlload('http://docs.oracle.com/javase/6/docs/api/java/lang/Object.html')" stroke="none">Object</text>
    </g>
    <g fill="rgb(238,238,255)" transform="matrix(0.6689,0,0,0.6689,319.0671,89.6331)" stroke="rgb(238,238,255)">
      <rect width="400.7766" x="-8" height="17.9688" y="-26" stroke="none"/>
    </g>
    <g fill="rgb(166,166,178)" stroke-miterlimit="1.45" transform="matrix(0.6689,0,0,0.6689,319.0671,89.6331)" stroke-linecap="butt" stroke="rgb(166,166,178)">
      <rect fill="none" width="400.7766" x="-8" height="17.9688" y="-26"/>
    </g>
    <g fill="rgb(238,238,255)" transform="matrix(0.6689,0,0,0.6689,319.0671,89.6331)" stroke="rgb(238,238,255)">
      <rect width="400.97" x="-8" height="732.3125" y="-8.0312" stroke="none"/>
    </g>
    <g fill="rgb(166,166,178)" stroke-miterlimit="1.45" transform="matrix(0.6689,0,0,0.6689,319.0671,89.6331)" stroke-linecap="butt" stroke="rgb(166,166,178)">
      <rect fill="none" width="400.97" x="-8" height="732.3125" y="-8.0312"/>
    </g>
    <g font-family="sans-serif" transform="matrix(0.6689,0,0,0.6689,319.0671,89.6331)">
      <text xml:space="preserve" x="-2" y="-12.8613" onclick="umlload('package-summary.html')" stroke="none">com.msopentech.odatajclient.engine.data.metadata.edm</text>
    </g>
    <g fill="rgb(187,187,255)" transform="matrix(0.6689,0,0,0.6689,319.0671,89.6331)" stroke="rgb(187,187,255)">
      <rect x="0" y="0" clip-path="url(#clipPath11)" width="307.97" height="26.625" stroke="none"/>
      <line clip-path="url(#clipPath11)" fill="none" x1="0" x2="307.97" y1="26.625" y2="26.625" stroke="black"/>
      <rect x="0" y="27.625" clip-path="url(#clipPath11)" width="307.97" height="223.5625" stroke="none"/>
      <line clip-path="url(#clipPath11)" fill="none" x1="0" x2="307.97" y1="251.1875" y2="251.1875" stroke="black"/>
      <rect x="0" y="252.1875" clip-path="url(#clipPath11)" width="307.97" height="15.9688" stroke="none"/>
      <line clip-path="url(#clipPath11)" fill="none" x1="0" x2="307.97" y1="268.1562" y2="268.1562" stroke="black"/>
      <rect x="0" y="269.1562" clip-path="url(#clipPath11)" width="307.97" height="447.125" stroke="none"/>
    </g>
    <g fill="rgb(130,130,178)" stroke-miterlimit="1.45" transform="matrix(0.6689,0,0,0.6689,319.0671,89.6331)" stroke-linecap="butt" stroke="rgb(130,130,178)">
      <rect fill="none" width="307.97" x="0" height="716.2812" y="0"/>
    </g>
    <g font-size="16" font-weight="bold" font-family="sans-serif" transform="matrix(0.6689,0,0,0.6689,319.0671,89.6331)">
      <text xml:space="preserve" x="63.985" y="18.8516" onclick="umlload('#')" stroke="none">FunctionReturnType</text>
    </g>
    <g font-family="sans-serif" transform="matrix(0.6689,0,0,0.6689,319.0671,89.6331)">
      <text xml:space="preserve" x="4" y="38.1719" stroke="none">#</text>
      <text xml:space="preserve" x="19" y="39.7637" onclick="umlload('#any')" stroke="none">any : List&lt;Object&gt;</text>
    </g>
    <g font-family="sans-serif" transform="matrix(0.6689,0,0,0.6689,319.0671,89.6331)">
      <text xml:space="preserve" x="4" y="54.1719" stroke="none">#</text>
      <text xml:space="preserve" x="19" y="55.7324" onclick="umlload('#collation')" stroke="none">collation : String</text>
    </g>
    <g font-family="sans-serif" transform="matrix(0.6689,0,0,0.6689,319.0671,89.6331)">
      <text xml:space="preserve" x="4" y="70.1719" stroke="none">#</text>
      <text xml:space="preserve" x="19" y="71.7012" onclick="umlload('#collectionType')" stroke="none">collectionType : CollectionType</text>
    </g>
    <g font-family="sans-serif" transform="matrix(0.6689,0,0,0.6689,319.0671,89.6331)">
      <text xml:space="preserve" x="4" y="86.1719" stroke="none">#</text>
      <text xml:space="preserve" x="19" y="87.6699" onclick="umlload('#defaultValue')" stroke="none">defaultValue : String</text>
    </g>
    <g font-family="sans-serif" transform="matrix(0.6689,0,0,0.6689,319.0671,89.6331)">
      <text xml:space="preserve" x="4" y="102.1719" stroke="none">#</text>
      <text xml:space="preserve" x="19" y="103.6387" onclick="umlload('#fixedLength')" stroke="none">fixedLength : Boolean</text>
    </g>
    <g font-family="sans-serif" transform="matrix(0.6689,0,0,0.6689,319.0671,89.6331)">
      <text xml:space="preserve" x="4" y="118.1719" stroke="none">#</text>
      <text xml:space="preserve" x="19" y="119.6074" onclick="umlload('#maxLength')" stroke="none">maxLength : String</text>
    </g>
    <g font-family="sans-serif" transform="matrix(0.6689,0,0,0.6689,319.0671,89.6331)">
      <text xml:space="preserve" x="4" y="134.1719" stroke="none">#</text>
      <text xml:space="preserve" x="19" y="135.5762" onclick="umlload('#nullable')" stroke="none">nullable : Boolean</text>
    </g>
    <g font-family="sans-serif" transform="matrix(0.6689,0,0,0.6689,319.0671,89.6331)">
      <text xml:space="preserve" x="4" y="150.1719" stroke="none">#</text>
      <text xml:space="preserve" x="19" y="151.5449" onclick="umlload('#precision')" stroke="none">precision : BigInteger</text>
    </g>
    <g font-family="sans-serif" transform="matrix(0.6689,0,0,0.6689,319.0671,89.6331)">
      <text xml:space="preserve" x="4" y="166.1719" stroke="none">#</text>
      <text xml:space="preserve" x="19" y="167.5137" onclick="umlload('#referenceType')" stroke="none">referenceType : ReferenceType</text>
    </g>
    <g font-family="sans-serif" transform="matrix(0.6689,0,0,0.6689,319.0671,89.6331)">
      <text xml:space="preserve" x="4" y="182.1719" stroke="none">#</text>
      <text xml:space="preserve" x="19" y="183.4824" onclick="umlload('#rowType')" stroke="none">rowType : RowType</text>
    </g>
    <g font-family="sans-serif" transform="matrix(0.6689,0,0,0.6689,319.0671,89.6331)">
      <text xml:space="preserve" x="4" y="198.1719" stroke="none">#</text>
      <text xml:space="preserve" x="19" y="199.4512" onclick="umlload('#scale')" stroke="none">scale : BigInteger</text>
    </g>
    <g font-family="sans-serif" transform="matrix(0.6689,0,0,0.6689,319.0671,89.6331)">
      <text xml:space="preserve" x="4" y="214.1719" stroke="none">#</text>
      <text xml:space="preserve" x="19" y="215.4199" onclick="umlload('#srid')" stroke="none">srid : String</text>
    </g>
    <g font-family="sans-serif" transform="matrix(0.6689,0,0,0.6689,319.0671,89.6331)">
      <text xml:space="preserve" x="4" y="230.1719" stroke="none">#</text>
      <text xml:space="preserve" x="19" y="231.3887" onclick="umlload('#type')" stroke="none">type : String</text>
    </g>
    <g font-family="sans-serif" transform="matrix(0.6689,0,0,0.6689,319.0671,89.6331)">
      <text xml:space="preserve" x="4" y="246.1719" stroke="none">#</text>
      <text xml:space="preserve" x="19" y="247.3574" onclick="umlload('#unicode')" stroke="none">unicode : Boolean</text>
    </g>
    <g font-family="sans-serif" transform="matrix(0.6689,0,0,0.6689,319.0671,89.6331)">
      <text xml:space="preserve" x="4" y="263.1719" stroke="none">+</text>
      <text xml:space="preserve" x="19" y="264.3262" onclick="umlload('#FunctionReturnType()')" stroke="none">FunctionReturnType()</text>
    </g>
    <g font-family="sans-serif" transform="matrix(0.6689,0,0,0.6689,319.0671,89.6331)">
      <text xml:space="preserve" x="4" y="280.1719" stroke="none">+</text>
      <text xml:space="preserve" x="19" y="281.2949" onclick="umlload('#getAny()')" stroke="none">getAny() : List&lt;Object&gt;</text>
    </g>
    <g font-family="sans-serif" transform="matrix(0.6689,0,0,0.6689,319.0671,89.6331)">
      <text xml:space="preserve" x="4" y="296.1719" stroke="none">+</text>
      <text xml:space="preserve" x="19" y="297.2637" onclick="umlload('#getCollation()')" stroke="none">getCollation() : String</text>
    </g>
    <g font-family="sans-serif" transform="matrix(0.6689,0,0,0.6689,319.0671,89.6331)">
      <text xml:space="preserve" x="4" y="312.1719" stroke="none">+</text>
      <text xml:space="preserve" x="19" y="313.2324" onclick="umlload('#getCollectionType()')" stroke="none">getCollectionType() : CollectionType</text>
    </g>
    <g font-family="sans-serif" transform="matrix(0.6689,0,0,0.6689,319.0671,89.6331)">
      <text xml:space="preserve" x="4" y="328.1719" stroke="none">+</text>
      <text xml:space="preserve" x="19" y="329.2012" onclick="umlload('#getDefaultValue()')" stroke="none">getDefaultValue() : String</text>
    </g>
    <g font-family="sans-serif" transform="matrix(0.6689,0,0,0.6689,319.0671,89.6331)">
      <text xml:space="preserve" x="4" y="344.1719" stroke="none">+</text>
      <text xml:space="preserve" x="19" y="345.1699" onclick="umlload('#getMaxLength()')" stroke="none">getMaxLength() : String</text>
    </g>
    <g font-family="sans-serif" transform="matrix(0.6689,0,0,0.6689,319.0671,89.6331)">
      <text xml:space="preserve" x="4" y="359.1719" stroke="none">+</text>
      <text xml:space="preserve" x="19" y="361.1387" onclick="umlload('#getOtherAttributes()')" stroke="none">getOtherAttributes() : Map&lt;QName, String&gt;</text>
    </g>
    <g font-family="sans-serif" transform="matrix(0.6689,0,0,0.6689,319.0671,89.6331)">
      <text xml:space="preserve" x="4" y="375.1719" stroke="none">+</text>
      <text xml:space="preserve" x="19" y="377.1074" onclick="umlload('#getPrecision()')" stroke="none">getPrecision() : BigInteger</text>
    </g>
    <g font-family="sans-serif" transform="matrix(0.6689,0,0,0.6689,319.0671,89.6331)">
      <text xml:space="preserve" x="4" y="391.1719" stroke="none">+</text>
      <text xml:space="preserve" x="19" y="393.0762" onclick="umlload('#getReferenceType()')" stroke="none">getReferenceType() : ReferenceType</text>
    </g>
    <g font-family="sans-serif" transform="matrix(0.6689,0,0,0.6689,319.0671,89.6331)">
      <text xml:space="preserve" x="4" y="407.1719" stroke="none">+</text>
      <text xml:space="preserve" x="19" y="409.0449" onclick="umlload('#getRowType()')" stroke="none">getRowType() : RowType</text>
    </g>
    <g font-family="sans-serif" transform="matrix(0.6689,0,0,0.6689,319.0671,89.6331)">
      <text xml:space="preserve" x="4" y="423.1719" stroke="none">+</text>
      <text xml:space="preserve" x="19" y="425.0137" onclick="umlload('#getScale()')" stroke="none">getScale() : BigInteger</text>
    </g>
    <g font-family="sans-serif" transform="matrix(0.6689,0,0,0.6689,319.0671,89.6331)">
      <text xml:space="preserve" x="4" y="439.1719" stroke="none">+</text>
      <text xml:space="preserve" x="19" y="440.9824" onclick="umlload('#getSRID()')" stroke="none">getSRID() : String</text>
    </g>
    <g font-family="sans-serif" transform="matrix(0.6689,0,0,0.6689,319.0671,89.6331)">
      <text xml:space="preserve" x="4" y="455.1719" stroke="none">+</text>
      <text xml:space="preserve" x="19" y="456.9512" onclick="umlload('#getType()')" stroke="none">getType() : String</text>
    </g>
    <g font-family="sans-serif" transform="matrix(0.6689,0,0,0.6689,319.0671,89.6331)">
      <text xml:space="preserve" x="4" y="471.1719" stroke="none">+</text>
      <text xml:space="preserve" x="19" y="472.9199" onclick="umlload('#isFixedLength()')" stroke="none">isFixedLength() : Boolean</text>
    </g>
    <g font-family="sans-serif" transform="matrix(0.6689,0,0,0.6689,319.0671,89.6331)">
      <text xml:space="preserve" x="4" y="487.1719" stroke="none">+</text>
      <text xml:space="preserve" x="19" y="488.8887" onclick="umlload('#isNullable()')" stroke="none">isNullable() : Boolean</text>
    </g>
    <g font-family="sans-serif" transform="matrix(0.6689,0,0,0.6689,319.0671,89.6331)">
      <text xml:space="preserve" x="4" y="503.1719" stroke="none">+</text>
      <text xml:space="preserve" x="19" y="504.8574" onclick="umlload('#isUnicode()')" stroke="none">isUnicode() : Boolean</text>
    </g>
    <g font-family="sans-serif" transform="matrix(0.6689,0,0,0.6689,319.0671,89.6331)">
      <text xml:space="preserve" x="4" y="519.1719" stroke="none">+</text>
      <text xml:space="preserve" x="19" y="520.8262" onclick="umlload('#setCollation(java.lang.String)')" stroke="none">setCollation(String) : void</text>
    </g>
    <g font-family="sans-serif" transform="matrix(0.6689,0,0,0.6689,319.0671,89.6331)">
      <text xml:space="preserve" x="4" y="535.1719" stroke="none">+</text>
      <text xml:space="preserve" x="19" y="536.7949" onclick="umlload('#setCollectionType(com.msopentech.odatajclient.engine.data.metadata.edm.CollectionType)')" stroke="none">setCollectionType(CollectionType) : void</text>
    </g>
    <g font-family="sans-serif" transform="matrix(0.6689,0,0,0.6689,319.0671,89.6331)">
      <text xml:space="preserve" x="4" y="551.1719" stroke="none">+</text>
      <text xml:space="preserve" x="19" y="552.7637" onclick="umlload('#setDefaultValue(java.lang.String)')" stroke="none">setDefaultValue(String) : void</text>
    </g>
    <g font-family="sans-serif" transform="matrix(0.6689,0,0,0.6689,319.0671,89.6331)">
      <text xml:space="preserve" x="4" y="567.1719" stroke="none">+</text>
      <text xml:space="preserve" x="19" y="568.7324" onclick="umlload('#setFixedLength(java.lang.Boolean)')" stroke="none">setFixedLength(Boolean) : void</text>
    </g>
    <g font-family="sans-serif" transform="matrix(0.6689,0,0,0.6689,319.0671,89.6331)">
      <text xml:space="preserve" x="4" y="583.1719" stroke="none">+</text>
      <text xml:space="preserve" x="19" y="584.7012" onclick="umlload('#setMaxLength(java.lang.String)')" stroke="none">setMaxLength(String) : void</text>
    </g>
    <g font-family="sans-serif" transform="matrix(0.6689,0,0,0.6689,319.0671,89.6331)">
      <text xml:space="preserve" x="4" y="599.1719" stroke="none">+</text>
      <text xml:space="preserve" x="19" y="600.6699" onclick="umlload('#setNullable(java.lang.Boolean)')" stroke="none">setNullable(Boolean) : void</text>
    </g>
    <g font-family="sans-serif" transform="matrix(0.6689,0,0,0.6689,319.0671,89.6331)">
      <text xml:space="preserve" x="4" y="615.1719" stroke="none">+</text>
      <text xml:space="preserve" x="19" y="616.6387" onclick="umlload('#setPrecision(java.math.BigInteger)')" stroke="none">setPrecision(BigInteger) : void</text>
    </g>
    <g font-family="sans-serif" transform="matrix(0.6689,0,0,0.6689,319.0671,89.6331)">
      <text xml:space="preserve" x="4" y="631.1719" stroke="none">+</text>
      <text xml:space="preserve" x="19" y="632.6074" onclick="umlload('#setReferenceType(com.msopentech.odatajclient.engine.data.metadata.edm.ReferenceType)')" stroke="none">setReferenceType(ReferenceType) : void</text>
    </g>
    <g font-family="sans-serif" transform="matrix(0.6689,0,0,0.6689,319.0671,89.6331)">
      <text xml:space="preserve" x="4" y="647.1719" stroke="none">+</text>
      <text xml:space="preserve" x="19" y="648.5762" onclick="umlload('#setRowType(com.msopentech.odatajclient.engine.data.metadata.edm.RowType)')" stroke="none">setRowType(RowType) : void</text>
    </g>
    <g font-family="sans-serif" transform="matrix(0.6689,0,0,0.6689,319.0671,89.6331)">
      <text xml:space="preserve" x="4" y="663.1719" stroke="none">+</text>
      <text xml:space="preserve" x="19" y="664.5449" onclick="umlload('#setScale(java.math.BigInteger)')" stroke="none">setScale(BigInteger) : void</text>
    </g>
    <g font-family="sans-serif" transform="matrix(0.6689,0,0,0.6689,319.0671,89.6331)">
      <text xml:space="preserve" x="4" y="679.1719" stroke="none">+</text>
      <text xml:space="preserve" x="19" y="680.5137" onclick="umlload('#setSRID(java.lang.String)')" stroke="none">setSRID(String) : void</text>
    </g>
    <g font-family="sans-serif" transform="matrix(0.6689,0,0,0.6689,319.0671,89.6331)">
      <text xml:space="preserve" x="4" y="695.1719" stroke="none">+</text>
      <text xml:space="preserve" x="19" y="696.4824" onclick="umlload('#setType(java.lang.String)')" stroke="none">setType(String) : void</text>
    </g>
    <g font-family="sans-serif" transform="matrix(0.6689,0,0,0.6689,319.0671,89.6331)">
      <text xml:space="preserve" x="4" y="711.1719" stroke="none">+</text>
      <text xml:space="preserve" x="19" y="712.4512" onclick="umlload('#setUnicode(java.lang.Boolean)')" stroke="none">setUnicode(Boolean) : void</text>
    </g>
    <g font-family="sans-serif" transform="matrix(0.6689,0,0,0.6689,319.0671,89.6331)">
      <text xml:space="preserve" x="-448" y="749.1543" onclick="umlload('http://www.yworks.com/')" stroke="none">yWorks UML Doclet</text>
    </g>
    <g stroke-miterlimit="1.45" transform="matrix(0.6689,0,0,0.6689,319.0671,89.6331)" stroke-linecap="butt">
      <path fill="none" d="M153.985 0 L153.985 -69"/>
      <path fill="white" d="M153.985 -84 L147.985 -68 L159.985 -68 Z" stroke="none"/>
      <path fill="none" d="M153.985 -84 L147.985 -68 L159.985 -68 Z"/>
      <path fill="none" d="M-0.0266 11.5664 L-326.77 11.5664"/>
      <line stroke-linecap="square" transform="matrix(-1,0,0,-1,-326.77,11.5664)" fill="none" x1="0" x2="-14" y1="0" y2="-4" stroke-miterlimit="10"/>
      <line stroke-linecap="square" transform="matrix(-1,0,0,-1,-326.77,11.5664)" fill="none" x1="0" x2="-14" y1="0" y2="4" stroke-miterlimit="10"/>
    </g>
    <g stroke-miterlimit="1.45" transform="matrix(0.6689,0,0,0.6689,319.0671,89.6331)" stroke-linecap="butt">
      <path fill="none" d="M0.0197 44.6992 L-323.68 44.6992"/>
      <line stroke-linecap="square" transform="matrix(-1,0,0,-1,-323.68,44.6992)" fill="none" x1="0" x2="-14" y1="0" y2="-4" stroke-miterlimit="10"/>
      <line stroke-linecap="square" transform="matrix(-1,0,0,-1,-323.68,44.6992)" fill="none" x1="0" x2="-14" y1="0" y2="4" stroke-miterlimit="10"/>
    </g>
    <g stroke-miterlimit="1.45" transform="matrix(0.6689,0,0,0.6689,319.0671,89.6331)" stroke-linecap="butt">
      <path fill="none" d="M-0.0216 77.832 L-369 77.832"/>
      <line stroke-linecap="square" transform="matrix(-1,0,0,-1,-369,77.832)" fill="none" x1="0" x2="-14" y1="0" y2="-4" stroke-miterlimit="10"/>
      <line stroke-linecap="square" transform="matrix(-1,0,0,-1,-369,77.832)" fill="none" x1="0" x2="-14" y1="0" y2="4" stroke-miterlimit="10"/>
    </g>
    <g stroke-miterlimit="1.45" transform="matrix(0.6689,0,0,0.6689,319.0671,89.6331)" stroke-linecap="butt">
      <path fill="none" d="M-0.0075 164.9648 L-66 164.9648"/>
      <line stroke-linecap="square" transform="matrix(-1,0,0,-1,-66,164.9648)" fill="none" x1="0" x2="-14" y1="0" y2="-4" stroke-miterlimit="10"/>
      <line stroke-linecap="square" transform="matrix(-1,0,0,-1,-66,164.9648)" fill="none" x1="0" x2="-14" y1="0" y2="4" stroke-miterlimit="10"/>
    </g>
    <g stroke-miterlimit="1.45" transform="matrix(0.6689,0,0,0.6689,319.0671,89.6331)" stroke-linecap="butt">
      <path fill="none" d="M-0.0087 198.0977 L-81.45 198.0977"/>
      <line stroke-linecap="square" transform="matrix(-1,0,0,-1,-81.45,198.0977)" fill="none" x1="0" x2="-14" y1="0" y2="-4" stroke-miterlimit="10"/>
      <line stroke-linecap="square" transform="matrix(-1,0,0,-1,-81.45,198.0977)" fill="none" x1="0" x2="-14" y1="0" y2="4" stroke-miterlimit="10"/>
    </g>
    <g stroke-miterlimit="1.45" transform="matrix(0.6689,0,0,0.6689,319.0671,89.6331)" stroke-linecap="butt">
      <path fill="none" d="M-0.0145 285.2305 L-66 285.2305"/>
      <line stroke-linecap="square" transform="matrix(-1,0,0,-1,-66,285.2305)" fill="none" x1="0" x2="-14" y1="0" y2="-4" stroke-miterlimit="10"/>
      <line stroke-linecap="square" transform="matrix(-1,0,0,-1,-66,285.2305)" fill="none" x1="0" x2="-14" y1="0" y2="4" stroke-miterlimit="10"/>
    </g>
    <g stroke-miterlimit="1.45" transform="matrix(0.6689,0,0,0.6689,319.0671,89.6331)" stroke-linecap="butt">
      <path fill="none" d="M0.0073 377.1542 L-103.8726 377.1542"/>
      <line stroke-linecap="square" transform="matrix(-1,0,0,-1,-103.8726,377.1542)" fill="none" x1="0" x2="-14" y1="0" y2="-4" stroke-miterlimit="10"/>
      <line stroke-linecap="square" transform="matrix(-1,0,0,-1,-103.8726,377.1542)" fill="none" x1="0" x2="-14" y1="0" y2="4" stroke-miterlimit="10"/>
    </g>
    <g stroke-miterlimit="1.45" transform="matrix(0.6689,0,0,0.6689,319.0671,89.6331)" stroke-linecap="butt">
      <path fill="none" d="M-0.0137 419.869 L-66 419.869"/>
      <line stroke-linecap="square" transform="matrix(-1,0,0,-1,-66,419.869)" fill="none" x1="0" x2="-14" y1="0" y2="-4" stroke-miterlimit="10"/>
      <line stroke-linecap="square" transform="matrix(-1,0,0,-1,-66,419.869)" fill="none" x1="0" x2="-14" y1="0" y2="4" stroke-miterlimit="10"/>
    </g>
  </g>
</svg>
