<?xml version="1.0" encoding="UTF-8"?><svg xmlns="http://www.w3.org/2000/svg" xmlns:xlink="http://www.w3.org/1999/xlink" fill-opacity="1" color-rendering="auto" color-interpolation="auto" stroke="black" text-rendering="auto" stroke-linecap="square" width="598" stroke-miterlimit="10" stroke-opacity="1" shape-rendering="auto" fill="black" stroke-dasharray="none" font-weight="normal" stroke-width="1" height="598" font-family="'Dialog'" font-style="normal" stroke-linejoin="miter" font-size="12" stroke-dashoffset="0" image-rendering="auto">
  <!--Generated by ySVG-->
  <defs id="genericDefs"/>
  <g>
    <defs id="defs1">
      <clipPath clipPathUnits="userSpaceOnUse" id="clipPath1">
        <path d="M0 0 L598 0 L598 598 L0 598 L0 0 Z"/>
      </clipPath>
      <clipPath clipPathUnits="userSpaceOnUse" id="clipPath2">
        <path d="M-103.8726 223.7558 C-103.8726 232.7897 -125.0678 240.1132 -151.2134 240.1132 C-177.359 240.1132 -198.5542 232.7897 -198.5542 223.7558 C-198.5542 214.7219 -177.359 207.3984 -151.2134 207.3984 C-125.0678 207.3984 -103.8726 214.7219 -103.8726 223.7558 Z"/>
      </clipPath>
      <clipPath clipPathUnits="userSpaceOnUse" id="clipPath3">
        <path d="M-66 266.4706 C-66 275.5045 -95.6733 282.8279 -132.2771 282.8279 C-168.881 282.8279 -198.5542 275.5045 -198.5542 266.4706 C-198.5542 257.4366 -168.881 250.1132 -132.2771 250.1132 C-95.6733 250.1132 -66 257.4366 -66 266.4706 Z"/>
      </clipPath>
      <clipPath clipPathUnits="userSpaceOnUse" id="clipPath4">
        <path d="M-153.55 120.2656 L-66 120.2656 L-66 143.3984 L-153.55 143.3984 L-153.55 120.2656 Z"/>
      </clipPath>
      <clipPath clipPathUnits="userSpaceOnUse" id="clipPath5">
        <path d="M-135.01 0 L-66 0 L-66 23.1328 L-135.01 23.1328 L-135.01 0 Z"/>
      </clipPath>
      <clipPath clipPathUnits="userSpaceOnUse" id="clipPath6">
        <path d="M-135.01 33.1328 L-81.45 33.1328 L-81.45 56.2656 L-135.01 56.2656 L-135.01 33.1328 Z"/>
      </clipPath>
      <clipPath clipPathUnits="userSpaceOnUse" id="clipPath7">
        <path d="M183.34 -107.1328 L241.02 -107.1328 L241.02 -84 L183.34 -84 L183.34 -107.1328 Z"/>
      </clipPath>
      <clipPath clipPathUnits="userSpaceOnUse" id="clipPath8">
        <path d="M0 0 L424.36 0 L424.36 652.4062 L0 652.4062 L0 0 Z"/>
      </clipPath>
      <script type="text/ecmascript"><![CDATA[
function umlload(newLocation)
{
if (newLocation.charAt(0) != '#') {
if (newLocation.indexOf("://") > -1) {
window.parent.location.href = newLocation;
} else {
var tmp = window.parent.location.href;
tmp = tmp.substring(0, tmp.lastIndexOf("/") + 1);
window.parent.location.href = tmp.concat(newLocation);
}
} else {
window.parent.location.hash = newLocation;
}
}
]]></script>
    </defs>
    <g fill="rgb(238,238,255)" transform="matrix(0.7205,0,0,0.7205,217.5855,96.5446)" stroke="rgb(238,238,255)">
      <rect width="67.654" x="-206.5542" height="17.9688" y="181.3984" stroke="none"/>
    </g>
    <g fill="rgb(166,166,178)" stroke-miterlimit="1.45" transform="matrix(0.7205,0,0,0.7205,217.5855,96.5446)" stroke-linecap="butt" stroke="rgb(166,166,178)">
      <rect fill="none" width="67.654" x="-206.5542" height="17.9688" y="181.3984"/>
    </g>
    <g fill="rgb(238,238,255)" transform="matrix(0.7205,0,0,0.7205,217.5855,96.5446)" stroke="rgb(238,238,255)">
      <rect width="148.5542" x="-206.5542" height="91.4607" y="199.3672" stroke="none"/>
    </g>
    <g fill="rgb(166,166,178)" stroke-miterlimit="1.45" transform="matrix(0.7205,0,0,0.7205,217.5855,96.5446)" stroke-linecap="butt" stroke="rgb(166,166,178)">
      <rect fill="none" width="148.5542" x="-206.5542" height="91.4607" y="199.3672"/>
    </g>
    <g font-family="sans-serif" transform="matrix(0.7205,0,0,0.7205,217.5855,96.5446)">
      <text xml:space="preserve" x="-200.5542" y="194.5371" onclick="umlload('http://docs.oracle.com/javase/6/docs/api/java/util/package-summary.html')" stroke="none">java.util</text>
    </g>
    <g fill="rgb(221,221,255)" transform="matrix(0.7205,0,0,0.7205,217.5855,96.5446)" stroke="rgb(221,221,255)">
      <rect x="-198.5542" y="207.3984" clip-path="url(#clipPath2)" width="94.6816" height="32.7147" stroke="none"/>
    </g>
    <g fill="rgb(154,154,178)" stroke-miterlimit="1.45" transform="matrix(0.7205,0,0,0.7205,217.5855,96.5446)" stroke-linecap="butt" stroke="rgb(154,154,178)">
      <ellipse rx="47.3408" fill="none" ry="16.3574" cx="-151.2134" cy="223.7558"/>
    </g>
    <g font-style="italic" font-size="13" font-weight="bold" font-family="sans-serif" transform="matrix(0.7205,0,0,0.7205,217.5855,96.5446)">
      <text xml:space="preserve" x="-179.7134" y="228.2563" onclick="umlload('http://docs.oracle.com/javase/6/docs/api/java/util/List.html')" stroke="none">List&lt;E&gt;</text>
    </g>
    <g fill="rgb(221,221,255)" transform="matrix(0.7205,0,0,0.7205,217.5855,96.5446)" stroke="rgb(221,221,255)">
      <rect x="-198.5542" y="250.1132" clip-path="url(#clipPath3)" width="132.5542" height="32.7147" stroke="none"/>
    </g>
    <g fill="rgb(154,154,178)" stroke-miterlimit="1.45" transform="matrix(0.7205,0,0,0.7205,217.5855,96.5446)" stroke-linecap="butt" stroke="rgb(154,154,178)">
      <ellipse rx="66.2771" fill="none" ry="16.3574" cx="-132.2771" cy="266.4705"/>
    </g>
    <g font-style="italic" font-size="13" font-weight="bold" font-family="sans-serif" transform="matrix(0.7205,0,0,0.7205,217.5855,96.5446)">
      <text xml:space="preserve" x="-173.7771" y="270.971" onclick="umlload('http://docs.oracle.com/javase/6/docs/api/java/util/Map.html')" stroke="none">Map&lt;K, V&gt;</text>
    </g>
    <g fill="rgb(238,238,255)" transform="matrix(0.7205,0,0,0.7205,217.5855,96.5446)" stroke="rgb(238,238,255)">
      <rect width="81.4457" x="-161.55" height="17.9688" y="94.2656" stroke="none"/>
    </g>
    <g fill="rgb(166,166,178)" stroke-miterlimit="1.45" transform="matrix(0.7205,0,0,0.7205,217.5855,96.5446)" stroke-linecap="butt" stroke="rgb(166,166,178)">
      <rect fill="none" width="81.4457" x="-161.55" height="17.9688" y="94.2656"/>
    </g>
    <g fill="rgb(238,238,255)" transform="matrix(0.7205,0,0,0.7205,217.5855,96.5446)" stroke="rgb(238,238,255)">
      <rect width="103.55" x="-161.55" height="39.1641" y="112.2344" stroke="none"/>
    </g>
    <g fill="rgb(166,166,178)" stroke-miterlimit="1.45" transform="matrix(0.7205,0,0,0.7205,217.5855,96.5446)" stroke-linecap="butt" stroke="rgb(166,166,178)">
      <rect fill="none" width="103.55" x="-161.55" height="39.1641" y="112.2344"/>
    </g>
    <g font-family="sans-serif" transform="matrix(0.7205,0,0,0.7205,217.5855,96.5446)">
      <text xml:space="preserve" x="-155.55" y="107.4043" onclick="umlload('http://docs.oracle.com/javase/6/docs/api/java/math/package-summary.html')" stroke="none">java.math</text>
    </g>
    <g fill="rgb(187,187,255)" transform="matrix(0.7205,0,0,0.7205,217.5855,96.5446)" stroke="rgb(187,187,255)">
      <rect x="-153.55" y="120.2656" clip-path="url(#clipPath4)" width="87.55" height="23.1328" stroke="none"/>
    </g>
    <g fill="rgb(130,130,178)" stroke-miterlimit="1.45" transform="matrix(0.7205,0,0,0.7205,217.5855,96.5446)" stroke-linecap="butt" stroke="rgb(130,130,178)">
      <rect fill="none" width="87.55" x="-153.55" height="23.1328" y="120.2656"/>
    </g>
    <g font-size="13" font-weight="bold" font-family="sans-serif" transform="matrix(0.7205,0,0,0.7205,217.5855,96.5446)">
      <text xml:space="preserve" x="-148.275" y="136.3325" onclick="umlload('http://docs.oracle.com/javase/6/docs/api/java/math/BigInteger.html')" stroke="none">BigInteger</text>
    </g>
    <g fill="rgb(238,238,255)" transform="matrix(0.7205,0,0,0.7205,217.5855,96.5446)" stroke="rgb(238,238,255)">
      <rect width="76.1412" x="-143.01" height="17.9688" y="-26" stroke="none"/>
    </g>
    <g fill="rgb(166,166,178)" stroke-miterlimit="1.45" transform="matrix(0.7205,0,0,0.7205,217.5855,96.5446)" stroke-linecap="butt" stroke="rgb(166,166,178)">
      <rect fill="none" width="76.1412" x="-143.01" height="17.9688" y="-26"/>
    </g>
    <g fill="rgb(238,238,255)" transform="matrix(0.7205,0,0,0.7205,217.5855,96.5446)" stroke="rgb(238,238,255)">
      <rect width="85.01" x="-143.01" height="72.2969" y="-8.0312" stroke="none"/>
    </g>
    <g fill="rgb(166,166,178)" stroke-miterlimit="1.45" transform="matrix(0.7205,0,0,0.7205,217.5855,96.5446)" stroke-linecap="butt" stroke="rgb(166,166,178)">
      <rect fill="none" width="85.01" x="-143.01" height="72.2969" y="-8.0312"/>
    </g>
    <g font-family="sans-serif" transform="matrix(0.7205,0,0,0.7205,217.5855,96.5446)">
      <text xml:space="preserve" x="-137.01" y="-12.8613" onclick="umlload('http://docs.oracle.com/javase/6/docs/api/java/lang/package-summary.html')" stroke="none">java.lang</text>
    </g>
    <g fill="rgb(187,187,255)" transform="matrix(0.7205,0,0,0.7205,217.5855,96.5446)" stroke="rgb(187,187,255)">
      <rect x="-135.01" y="0" clip-path="url(#clipPath5)" width="69.01" height="23.1328" stroke="none"/>
    </g>
    <g fill="rgb(130,130,178)" stroke-miterlimit="1.45" transform="matrix(0.7205,0,0,0.7205,217.5855,96.5446)" stroke-linecap="butt" stroke="rgb(130,130,178)">
      <rect fill="none" width="69.01" x="-135.01" height="23.1328" y="0"/>
    </g>
    <g font-size="13" font-weight="bold" font-family="sans-serif" transform="matrix(0.7205,0,0,0.7205,217.5855,96.5446)">
      <text xml:space="preserve" x="-130.005" y="16.0669" onclick="umlload('http://docs.oracle.com/javase/6/docs/api/java/lang/Boolean.html')" stroke="none">Boolean</text>
    </g>
    <g fill="rgb(187,187,255)" transform="matrix(0.7205,0,0,0.7205,217.5855,96.5446)" stroke="rgb(187,187,255)">
      <rect x="-135.01" y="33.1328" clip-path="url(#clipPath6)" width="53.56" height="23.1328" stroke="none"/>
    </g>
    <g fill="rgb(130,130,178)" stroke-miterlimit="1.45" transform="matrix(0.7205,0,0,0.7205,217.5855,96.5446)" stroke-linecap="butt" stroke="rgb(130,130,178)">
      <rect fill="none" width="53.56" x="-135.01" height="23.1328" y="33.1328"/>
    </g>
    <g font-size="13" font-weight="bold" font-family="sans-serif" transform="matrix(0.7205,0,0,0.7205,217.5855,96.5446)">
      <text xml:space="preserve" x="-130.23" y="49.1997" onclick="umlload('http://docs.oracle.com/javase/6/docs/api/java/lang/String.html')" stroke="none">String</text>
    </g>
    <g fill="rgb(238,238,255)" transform="matrix(0.7205,0,0,0.7205,217.5855,96.5446)" stroke="rgb(238,238,255)">
      <rect width="76.1412" x="175.34" height="17.9688" y="-133.1328" stroke="none"/>
    </g>
    <g fill="rgb(166,166,178)" stroke-miterlimit="1.45" transform="matrix(0.7205,0,0,0.7205,217.5855,96.5446)" stroke-linecap="butt" stroke="rgb(166,166,178)">
      <rect fill="none" width="76.1412" x="175.34" height="17.9688" y="-133.1328"/>
    </g>
    <g fill="rgb(238,238,255)" transform="matrix(0.7205,0,0,0.7205,217.5855,96.5446)" stroke="rgb(238,238,255)">
      <rect width="76.1412" x="175.34" height="39.1641" y="-115.1641" stroke="none"/>
    </g>
    <g fill="rgb(166,166,178)" stroke-miterlimit="1.45" transform="matrix(0.7205,0,0,0.7205,217.5855,96.5446)" stroke-linecap="butt" stroke="rgb(166,166,178)">
      <rect fill="none" width="76.1412" x="175.34" height="39.1641" y="-115.1641"/>
    </g>
    <g font-family="sans-serif" transform="matrix(0.7205,0,0,0.7205,217.5855,96.5446)">
      <text xml:space="preserve" x="181.34" y="-119.9941" onclick="umlload('http://docs.oracle.com/javase/6/docs/api/java/lang/package-summary.html')" stroke="none">java.lang</text>
    </g>
    <g fill="rgb(187,187,255)" transform="matrix(0.7205,0,0,0.7205,217.5855,96.5446)" stroke="rgb(187,187,255)">
      <rect x="183.34" y="-107.1328" clip-path="url(#clipPath7)" width="57.68" height="23.1328" stroke="none"/>
    </g>
    <g fill="rgb(130,130,178)" stroke-miterlimit="1.45" transform="matrix(0.7205,0,0,0.7205,217.5855,96.5446)" stroke-linecap="butt" stroke="rgb(130,130,178)">
      <rect fill="none" width="57.68" x="183.34" height="23.1328" y="-107.1328"/>
    </g>
    <g font-size="13" font-weight="bold" font-family="sans-serif" transform="matrix(0.7205,0,0,0.7205,217.5855,96.5446)">
      <text xml:space="preserve" x="188.18" y="-91.0659" onclick="umlload('http://docs.oracle.com/javase/6/docs/api/java/lang/Object.html')" stroke="none">Object</text>
    </g>
    <g fill="rgb(238,238,255)" transform="matrix(0.7205,0,0,0.7205,217.5855,96.5446)" stroke="rgb(238,238,255)">
      <rect width="400.7766" x="-8" height="17.9688" y="-26" stroke="none"/>
    </g>
    <g fill="rgb(166,166,178)" stroke-miterlimit="1.45" transform="matrix(0.7205,0,0,0.7205,217.5855,96.5446)" stroke-linecap="butt" stroke="rgb(166,166,178)">
      <rect fill="none" width="400.7766" x="-8" height="17.9688" y="-26"/>
    </g>
    <g fill="rgb(238,238,255)" transform="matrix(0.7205,0,0,0.7205,217.5855,96.5446)" stroke="rgb(238,238,255)">
      <rect width="440.36" x="-8" height="668.4375" y="-8.0312" stroke="none"/>
    </g>
    <g fill="rgb(166,166,178)" stroke-miterlimit="1.45" transform="matrix(0.7205,0,0,0.7205,217.5855,96.5446)" stroke-linecap="butt" stroke="rgb(166,166,178)">
      <rect fill="none" width="440.36" x="-8" height="668.4375" y="-8.0312"/>
    </g>
    <g font-family="sans-serif" transform="matrix(0.7205,0,0,0.7205,217.5855,96.5446)">
      <text xml:space="preserve" x="-2" y="-12.8613" onclick="umlload('package-summary.html')" stroke="none">com.msopentech.odatajclient.engine.data.metadata.edm</text>
    </g>
    <g fill="rgb(187,187,255)" transform="matrix(0.7205,0,0,0.7205,217.5855,96.5446)" stroke="rgb(187,187,255)">
      <rect x="0" y="0" clip-path="url(#clipPath8)" width="424.36" height="26.625" stroke="none"/>
      <line clip-path="url(#clipPath8)" fill="none" x1="0" x2="424.36" y1="26.625" y2="26.625" stroke="black"/>
      <rect x="0" y="27.625" clip-path="url(#clipPath8)" width="424.36" height="207.5938" stroke="none"/>
      <line clip-path="url(#clipPath8)" fill="none" x1="0" x2="424.36" y1="235.2188" y2="235.2188" stroke="black"/>
      <rect x="0" y="236.2188" clip-path="url(#clipPath8)" width="424.36" height="15.9688" stroke="none"/>
      <line clip-path="url(#clipPath8)" fill="none" x1="0" x2="424.36" y1="252.1875" y2="252.1875" stroke="black"/>
      <rect x="0" y="253.1875" clip-path="url(#clipPath8)" width="424.36" height="399.2188" stroke="none"/>
    </g>
    <g fill="rgb(130,130,178)" stroke-miterlimit="1.45" transform="matrix(0.7205,0,0,0.7205,217.5855,96.5446)" stroke-linecap="butt" stroke="rgb(130,130,178)">
      <rect fill="none" width="424.36" x="0" height="652.4062" y="0"/>
    </g>
    <g font-size="16" font-weight="bold" font-family="sans-serif" transform="matrix(0.7205,0,0,0.7205,217.5855,96.5446)">
      <text xml:space="preserve" x="127.18" y="18.8516" onclick="umlload('#')" stroke="none">FunctionParameter</text>
    </g>
    <g font-family="sans-serif" transform="matrix(0.7205,0,0,0.7205,217.5855,96.5446)">
      <text xml:space="preserve" x="4" y="38.1719" stroke="none">#</text>
      <text xml:space="preserve" x="19" y="39.7637" onclick="umlload('#any')" stroke="none">any : List&lt;Object&gt;</text>
    </g>
    <g font-family="sans-serif" transform="matrix(0.7205,0,0,0.7205,217.5855,96.5446)">
      <text xml:space="preserve" x="4" y="54.1719" stroke="none">#</text>
      <text xml:space="preserve" x="19" y="55.7324" onclick="umlload('#collation')" stroke="none">collation : String</text>
    </g>
    <g font-family="sans-serif" transform="matrix(0.7205,0,0,0.7205,217.5855,96.5446)">
      <text xml:space="preserve" x="4" y="70.1719" stroke="none">#</text>
      <text xml:space="preserve" x="19" y="71.7012" onclick="umlload('#collectionTypeOrReferenceTypeOrRowType')" stroke="none">collectionTypeOrReferenceTypeOrRowType : List&lt;Object&gt;</text>
    </g>
    <g font-family="sans-serif" transform="matrix(0.7205,0,0,0.7205,217.5855,96.5446)">
      <text xml:space="preserve" x="4" y="86.1719" stroke="none">#</text>
      <text xml:space="preserve" x="19" y="87.6699" onclick="umlload('#defaultValue')" stroke="none">defaultValue : String</text>
    </g>
    <g font-family="sans-serif" transform="matrix(0.7205,0,0,0.7205,217.5855,96.5446)">
      <text xml:space="preserve" x="4" y="102.1719" stroke="none">#</text>
      <text xml:space="preserve" x="19" y="103.6387" onclick="umlload('#fixedLength')" stroke="none">fixedLength : Boolean</text>
    </g>
    <g font-family="sans-serif" transform="matrix(0.7205,0,0,0.7205,217.5855,96.5446)">
      <text xml:space="preserve" x="4" y="118.1719" stroke="none">#</text>
      <text xml:space="preserve" x="19" y="119.6074" onclick="umlload('#maxLength')" stroke="none">maxLength : String</text>
    </g>
    <g font-family="sans-serif" transform="matrix(0.7205,0,0,0.7205,217.5855,96.5446)">
      <text xml:space="preserve" x="4" y="134.1719" stroke="none">#</text>
      <text xml:space="preserve" x="19" y="135.5762" onclick="umlload('#name')" stroke="none">name : String</text>
    </g>
    <g font-family="sans-serif" transform="matrix(0.7205,0,0,0.7205,217.5855,96.5446)">
      <text xml:space="preserve" x="4" y="150.1719" stroke="none">#</text>
      <text xml:space="preserve" x="19" y="151.5449" onclick="umlload('#nullable')" stroke="none">nullable : Boolean</text>
    </g>
    <g font-family="sans-serif" transform="matrix(0.7205,0,0,0.7205,217.5855,96.5446)">
      <text xml:space="preserve" x="4" y="166.1719" stroke="none">#</text>
      <text xml:space="preserve" x="19" y="167.5137" onclick="umlload('#precision')" stroke="none">precision : BigInteger</text>
    </g>
    <g font-family="sans-serif" transform="matrix(0.7205,0,0,0.7205,217.5855,96.5446)">
      <text xml:space="preserve" x="4" y="182.1719" stroke="none">#</text>
      <text xml:space="preserve" x="19" y="183.4824" onclick="umlload('#scale')" stroke="none">scale : BigInteger</text>
    </g>
    <g font-family="sans-serif" transform="matrix(0.7205,0,0,0.7205,217.5855,96.5446)">
      <text xml:space="preserve" x="4" y="198.1719" stroke="none">#</text>
      <text xml:space="preserve" x="19" y="199.4512" onclick="umlload('#srid')" stroke="none">srid : String</text>
    </g>
    <g font-family="sans-serif" transform="matrix(0.7205,0,0,0.7205,217.5855,96.5446)">
      <text xml:space="preserve" x="4" y="214.1719" stroke="none">#</text>
      <text xml:space="preserve" x="19" y="215.4199" onclick="umlload('#type')" stroke="none">type : String</text>
    </g>
    <g font-family="sans-serif" transform="matrix(0.7205,0,0,0.7205,217.5855,96.5446)">
      <text xml:space="preserve" x="4" y="230.1719" stroke="none">#</text>
      <text xml:space="preserve" x="19" y="231.3887" onclick="umlload('#unicode')" stroke="none">unicode : Boolean</text>
    </g>
    <g font-family="sans-serif" transform="matrix(0.7205,0,0,0.7205,217.5855,96.5446)">
      <text xml:space="preserve" x="4" y="247.1719" stroke="none">+</text>
      <text xml:space="preserve" x="19" y="248.3574" onclick="umlload('#FunctionParameter()')" stroke="none">FunctionParameter()</text>
    </g>
    <g font-family="sans-serif" transform="matrix(0.7205,0,0,0.7205,217.5855,96.5446)">
      <text xml:space="preserve" x="4" y="264.1719" stroke="none">+</text>
      <text xml:space="preserve" x="19" y="265.3262" onclick="umlload('#getAny()')" stroke="none">getAny() : List&lt;Object&gt;</text>
    </g>
    <g font-family="sans-serif" transform="matrix(0.7205,0,0,0.7205,217.5855,96.5446)">
      <text xml:space="preserve" x="4" y="280.1719" stroke="none">+</text>
      <text xml:space="preserve" x="19" y="281.2949" onclick="umlload('#getCollation()')" stroke="none">getCollation() : String</text>
    </g>
    <g font-family="sans-serif" transform="matrix(0.7205,0,0,0.7205,217.5855,96.5446)">
      <text xml:space="preserve" x="4" y="296.1719" stroke="none">+</text>
      <text xml:space="preserve" x="19" y="297.2637" onclick="umlload('#getCollectionTypeOrReferenceTypeOrRowType()')" stroke="none">getCollectionTypeOrReferenceTypeOrRowType() : List&lt;Object&gt;</text>
    </g>
    <g font-family="sans-serif" transform="matrix(0.7205,0,0,0.7205,217.5855,96.5446)">
      <text xml:space="preserve" x="4" y="312.1719" stroke="none">+</text>
      <text xml:space="preserve" x="19" y="313.2324" onclick="umlload('#getDefaultValue()')" stroke="none">getDefaultValue() : String</text>
    </g>
    <g font-family="sans-serif" transform="matrix(0.7205,0,0,0.7205,217.5855,96.5446)">
      <text xml:space="preserve" x="4" y="328.1719" stroke="none">+</text>
      <text xml:space="preserve" x="19" y="329.2012" onclick="umlload('#getMaxLength()')" stroke="none">getMaxLength() : String</text>
    </g>
    <g font-family="sans-serif" transform="matrix(0.7205,0,0,0.7205,217.5855,96.5446)">
      <text xml:space="preserve" x="4" y="344.1719" stroke="none">+</text>
      <text xml:space="preserve" x="19" y="345.1699" onclick="umlload('#getName()')" stroke="none">getName() : String</text>
    </g>
    <g font-family="sans-serif" transform="matrix(0.7205,0,0,0.7205,217.5855,96.5446)">
      <text xml:space="preserve" x="4" y="359.1719" stroke="none">+</text>
      <text xml:space="preserve" x="19" y="361.1387" onclick="umlload('#getOtherAttributes()')" stroke="none">getOtherAttributes() : Map&lt;QName, String&gt;</text>
    </g>
    <g font-family="sans-serif" transform="matrix(0.7205,0,0,0.7205,217.5855,96.5446)">
      <text xml:space="preserve" x="4" y="375.1719" stroke="none">+</text>
      <text xml:space="preserve" x="19" y="377.1074" onclick="umlload('#getPrecision()')" stroke="none">getPrecision() : BigInteger</text>
    </g>
    <g font-family="sans-serif" transform="matrix(0.7205,0,0,0.7205,217.5855,96.5446)">
      <text xml:space="preserve" x="4" y="391.1719" stroke="none">+</text>
      <text xml:space="preserve" x="19" y="393.0762" onclick="umlload('#getScale()')" stroke="none">getScale() : BigInteger</text>
    </g>
    <g font-family="sans-serif" transform="matrix(0.7205,0,0,0.7205,217.5855,96.5446)">
      <text xml:space="preserve" x="4" y="407.1719" stroke="none">+</text>
      <text xml:space="preserve" x="19" y="409.0449" onclick="umlload('#getSRID()')" stroke="none">getSRID() : String</text>
    </g>
    <g font-family="sans-serif" transform="matrix(0.7205,0,0,0.7205,217.5855,96.5446)">
      <text xml:space="preserve" x="4" y="423.1719" stroke="none">+</text>
      <text xml:space="preserve" x="19" y="425.0137" onclick="umlload('#getType()')" stroke="none">getType() : String</text>
    </g>
    <g font-family="sans-serif" transform="matrix(0.7205,0,0,0.7205,217.5855,96.5446)">
      <text xml:space="preserve" x="4" y="439.1719" stroke="none">+</text>
      <text xml:space="preserve" x="19" y="440.9824" onclick="umlload('#isFixedLength()')" stroke="none">isFixedLength() : Boolean</text>
    </g>
    <g font-family="sans-serif" transform="matrix(0.7205,0,0,0.7205,217.5855,96.5446)">
      <text xml:space="preserve" x="4" y="455.1719" stroke="none">+</text>
      <text xml:space="preserve" x="19" y="456.9512" onclick="umlload('#isNullable()')" stroke="none">isNullable() : Boolean</text>
    </g>
    <g font-family="sans-serif" transform="matrix(0.7205,0,0,0.7205,217.5855,96.5446)">
      <text xml:space="preserve" x="4" y="471.1719" stroke="none">+</text>
      <text xml:space="preserve" x="19" y="472.9199" onclick="umlload('#isUnicode()')" stroke="none">isUnicode() : Boolean</text>
    </g>
    <g font-family="sans-serif" transform="matrix(0.7205,0,0,0.7205,217.5855,96.5446)">
      <text xml:space="preserve" x="4" y="487.1719" stroke="none">+</text>
      <text xml:space="preserve" x="19" y="488.8887" onclick="umlload('#setCollation(java.lang.String)')" stroke="none">setCollation(String) : void</text>
    </g>
    <g font-family="sans-serif" transform="matrix(0.7205,0,0,0.7205,217.5855,96.5446)">
      <text xml:space="preserve" x="4" y="503.1719" stroke="none">+</text>
      <text xml:space="preserve" x="19" y="504.8574" onclick="umlload('#setDefaultValue(java.lang.String)')" stroke="none">setDefaultValue(String) : void</text>
    </g>
    <g font-family="sans-serif" transform="matrix(0.7205,0,0,0.7205,217.5855,96.5446)">
      <text xml:space="preserve" x="4" y="519.1719" stroke="none">+</text>
      <text xml:space="preserve" x="19" y="520.8262" onclick="umlload('#setFixedLength(java.lang.Boolean)')" stroke="none">setFixedLength(Boolean) : void</text>
    </g>
    <g font-family="sans-serif" transform="matrix(0.7205,0,0,0.7205,217.5855,96.5446)">
      <text xml:space="preserve" x="4" y="535.1719" stroke="none">+</text>
      <text xml:space="preserve" x="19" y="536.7949" onclick="umlload('#setMaxLength(java.lang.String)')" stroke="none">setMaxLength(String) : void</text>
    </g>
    <g font-family="sans-serif" transform="matrix(0.7205,0,0,0.7205,217.5855,96.5446)">
      <text xml:space="preserve" x="4" y="551.1719" stroke="none">+</text>
      <text xml:space="preserve" x="19" y="552.7637" onclick="umlload('#setName(java.lang.String)')" stroke="none">setName(String) : void</text>
    </g>
    <g font-family="sans-serif" transform="matrix(0.7205,0,0,0.7205,217.5855,96.5446)">
      <text xml:space="preserve" x="4" y="567.1719" stroke="none">+</text>
      <text xml:space="preserve" x="19" y="568.7324" onclick="umlload('#setNullable(java.lang.Boolean)')" stroke="none">setNullable(Boolean) : void</text>
    </g>
    <g font-family="sans-serif" transform="matrix(0.7205,0,0,0.7205,217.5855,96.5446)">
      <text xml:space="preserve" x="4" y="583.1719" stroke="none">+</text>
      <text xml:space="preserve" x="19" y="584.7012" onclick="umlload('#setPrecision(java.math.BigInteger)')" stroke="none">setPrecision(BigInteger) : void</text>
    </g>
    <g font-family="sans-serif" transform="matrix(0.7205,0,0,0.7205,217.5855,96.5446)">
      <text xml:space="preserve" x="4" y="599.1719" stroke="none">+</text>
      <text xml:space="preserve" x="19" y="600.6699" onclick="umlload('#setScale(java.math.BigInteger)')" stroke="none">setScale(BigInteger) : void</text>
    </g>
    <g font-family="sans-serif" transform="matrix(0.7205,0,0,0.7205,217.5855,96.5446)">
      <text xml:space="preserve" x="4" y="615.1719" stroke="none">+</text>
      <text xml:space="preserve" x="19" y="616.6387" onclick="umlload('#setSRID(java.lang.String)')" stroke="none">setSRID(String) : void</text>
    </g>
    <g font-family="sans-serif" transform="matrix(0.7205,0,0,0.7205,217.5855,96.5446)">
      <text xml:space="preserve" x="4" y="631.1719" stroke="none">+</text>
      <text xml:space="preserve" x="19" y="632.6074" onclick="umlload('#setType(java.lang.String)')" stroke="none">setType(String) : void</text>
    </g>
    <g font-family="sans-serif" transform="matrix(0.7205,0,0,0.7205,217.5855,96.5446)">
      <text xml:space="preserve" x="4" y="647.1719" stroke="none">+</text>
      <text xml:space="preserve" x="19" y="648.5762" onclick="umlload('#setUnicode(java.lang.Boolean)')" stroke="none">setUnicode(Boolean) : void</text>
    </g>
    <g font-family="sans-serif" transform="matrix(0.7205,0,0,0.7205,217.5855,96.5446)">
      <text xml:space="preserve" x="-201" y="685.1543" onclick="umlload('http://www.yworks.com/')" stroke="none">yWorks UML Doclet</text>
    </g>
    <g stroke-miterlimit="1.45" transform="matrix(0.7205,0,0,0.7205,217.5855,96.5446)" stroke-linecap="butt">
      <path fill="none" d="M212.18 0 L212.18 -69"/>
      <path fill="white" d="M212.18 -84 L206.18 -68 L218.18 -68 Z" stroke="none"/>
      <path fill="none" d="M212.18 -84 L206.18 -68 L218.18 -68 Z"/>
      <path fill="none" d="M-0.0046 11.5664 L-66 11.5664"/>
      <line stroke-linecap="square" transform="matrix(-1,0,0,-1,-66,11.5664)" fill="none" x1="0" x2="-14" y1="0" y2="-4" stroke-miterlimit="10"/>
      <line stroke-linecap="square" transform="matrix(-1,0,0,-1,-66,11.5664)" fill="none" x1="0" x2="-14" y1="0" y2="4" stroke-miterlimit="10"/>
    </g>
    <g stroke-miterlimit="1.45" transform="matrix(0.7205,0,0,0.7205,217.5855,96.5446)" stroke-linecap="butt">
      <path fill="none" d="M-0.0056 44.6992 L-81.45 44.6992"/>
      <line stroke-linecap="square" transform="matrix(-1,0,0,-1,-81.45,44.6992)" fill="none" x1="0" x2="-14" y1="0" y2="-4" stroke-miterlimit="10"/>
      <line stroke-linecap="square" transform="matrix(-1,0,0,-1,-81.45,44.6992)" fill="none" x1="0" x2="-14" y1="0" y2="4" stroke-miterlimit="10"/>
    </g>
    <g stroke-miterlimit="1.45" transform="matrix(0.7205,0,0,0.7205,217.5855,96.5446)" stroke-linecap="butt">
      <path fill="none" d="M-0.0069 131.832 L-66 131.832"/>
      <line stroke-linecap="square" transform="matrix(-1,0,0,-1,-66,131.832)" fill="none" x1="0" x2="-14" y1="0" y2="-4" stroke-miterlimit="10"/>
      <line stroke-linecap="square" transform="matrix(-1,0,0,-1,-66,131.832)" fill="none" x1="0" x2="-14" y1="0" y2="4" stroke-miterlimit="10"/>
    </g>
    <g stroke-miterlimit="1.45" transform="matrix(0.7205,0,0,0.7205,217.5855,96.5446)" stroke-linecap="butt">
      <path fill="none" d="M0.0083 223.7558 L-103.8726 223.7558"/>
      <line stroke-linecap="square" transform="matrix(-1,0,0,-1,-103.8726,223.7558)" fill="none" x1="0" x2="-14" y1="0" y2="-4" stroke-miterlimit="10"/>
      <line stroke-linecap="square" transform="matrix(-1,0,0,-1,-103.8726,223.7558)" fill="none" x1="0" x2="-14" y1="0" y2="4" stroke-miterlimit="10"/>
    </g>
    <g stroke-miterlimit="1.45" transform="matrix(0.7205,0,0,0.7205,217.5855,96.5446)" stroke-linecap="butt">
      <path fill="none" d="M-0.0362 266.4706 L-66 266.4706"/>
      <line stroke-linecap="square" transform="matrix(-1,0,0,-1,-66,266.4706)" fill="none" x1="0" x2="-14" y1="0" y2="-4" stroke-miterlimit="10"/>
      <line stroke-linecap="square" transform="matrix(-1,0,0,-1,-66,266.4706)" fill="none" x1="0" x2="-14" y1="0" y2="4" stroke-miterlimit="10"/>
    </g>
  </g>
</svg>
