<?xml version="1.0" encoding="UTF-8"?><svg xmlns="http://www.w3.org/2000/svg" xmlns:xlink="http://www.w3.org/1999/xlink" fill-opacity="1" color-rendering="auto" color-interpolation="auto" stroke="black" text-rendering="auto" stroke-linecap="square" width="598" stroke-miterlimit="10" stroke-opacity="1" shape-rendering="auto" fill="black" stroke-dasharray="none" font-weight="normal" stroke-width="1" height="598" font-family="'Dialog'" font-style="normal" stroke-linejoin="miter" font-size="12" stroke-dashoffset="0" image-rendering="auto">
  <!--Generated by ySVG-->
  <defs id="genericDefs"/>
  <g>
    <defs id="defs1">
      <clipPath clipPathUnits="userSpaceOnUse" id="clipPath1">
        <path d="M0 0 L598 0 L598 598 L0 598 L0 0 Z"/>
      </clipPath>
      <clipPath clipPathUnits="userSpaceOnUse" id="clipPath2">
        <path d="M442.98 -0 L587.18 -0 L587.18 23.1328 L442.98 23.1328 L442.98 -0 Z"/>
      </clipPath>
      <clipPath clipPathUnits="userSpaceOnUse" id="clipPath3">
        <path d="M-103.8726 344.0214 C-103.8726 353.0554 -125.0678 360.3788 -151.2134 360.3788 C-177.359 360.3788 -198.5542 353.0554 -198.5542 344.0214 C-198.5542 334.9875 -177.359 327.6641 -151.2134 327.6641 C-125.0678 327.6641 -103.8726 334.9875 -103.8726 344.0214 Z"/>
      </clipPath>
      <clipPath clipPathUnits="userSpaceOnUse" id="clipPath4">
        <path d="M-66 386.7362 C-66 395.7701 -95.6733 403.0935 -132.2771 403.0935 C-168.881 403.0935 -198.5542 395.7701 -198.5542 386.7362 C-198.5542 377.7022 -168.881 370.3788 -132.2771 370.3788 C-95.6733 370.3788 -66 377.7022 -66 386.7362 Z"/>
      </clipPath>
      <clipPath clipPathUnits="userSpaceOnUse" id="clipPath5">
        <path d="M-153.55 240.5312 L-66 240.5312 L-66 263.6641 L-153.55 263.6641 L-153.55 240.5312 Z"/>
      </clipPath>
      <clipPath clipPathUnits="userSpaceOnUse" id="clipPath6">
        <path d="M-135.01 120.2656 L-66 120.2656 L-66 143.3984 L-135.01 143.3984 L-135.01 120.2656 Z"/>
      </clipPath>
      <clipPath clipPathUnits="userSpaceOnUse" id="clipPath7">
        <path d="M-135.01 153.3984 L-81.45 153.3984 L-81.45 176.5312 L-135.01 176.5312 L-135.01 153.3984 Z"/>
      </clipPath>
      <clipPath clipPathUnits="userSpaceOnUse" id="clipPath8">
        <path d="M-445.22 -0 L-321.62 -0 L-321.62 23.1328 L-445.22 23.1328 L-445.22 -0 Z"/>
      </clipPath>
      <clipPath clipPathUnits="userSpaceOnUse" id="clipPath9">
        <path d="M-445.22 33.1328 L-314.41 33.1328 L-314.41 56.2656 L-445.22 56.2656 L-445.22 33.1328 Z"/>
      </clipPath>
      <clipPath clipPathUnits="userSpaceOnUse" id="clipPath10">
        <path d="M109.695 -107.1328 L267.285 -107.1328 L267.285 -84 L109.695 -84 L109.695 -107.1328 Z"/>
      </clipPath>
      <clipPath clipPathUnits="userSpaceOnUse" id="clipPath11">
        <path d="M-0 -0 L376.98 -0 L376.98 604.5 L-0 604.5 L-0 -0 Z"/>
      </clipPath>
      <script type="text/ecmascript"><![CDATA[
function umlload(newLocation)
{
if (newLocation.charAt(0) != '#') {
if (newLocation.indexOf("://") > -1) {
window.parent.location.href = newLocation;
} else {
var tmp = window.parent.location.href;
tmp = tmp.substring(0, tmp.lastIndexOf("/") + 1);
window.parent.location.href = tmp.concat(newLocation);
}
} else {
window.parent.location.hash = newLocation;
}
}
]]></script>
    </defs>
    <g fill="rgb(238,238,255)" transform="matrix(0.4632,0,0,0.4632,210.2959,179.7242)" stroke="rgb(238,238,255)">
      <rect width="400.7766" x="434.98" height="17.9688" y="-26" stroke="none"/>
    </g>
    <g fill="rgb(166,166,178)" stroke-miterlimit="1.45" transform="matrix(0.4632,0,0,0.4632,210.2959,179.7242)" stroke-linecap="butt" stroke="rgb(166,166,178)">
      <rect fill="none" width="400.7766" x="434.98" height="17.9688" y="-26"/>
    </g>
    <g fill="rgb(238,238,255)" transform="matrix(0.4632,0,0,0.4632,210.2959,179.7242)" stroke="rgb(238,238,255)">
      <rect width="401.2" x="434.98" height="39.1641" y="-8.0312" stroke="none"/>
    </g>
    <g fill="rgb(166,166,178)" stroke-miterlimit="1.45" transform="matrix(0.4632,0,0,0.4632,210.2959,179.7242)" stroke-linecap="butt" stroke="rgb(166,166,178)">
      <rect fill="none" width="401.2" x="434.98" height="39.1641" y="-8.0312"/>
    </g>
    <g font-family="sans-serif" transform="matrix(0.4632,0,0,0.4632,210.2959,179.7242)">
      <text xml:space="preserve" x="440.98" y="-12.8613" onclick="umlload('../../../../../../../com/msopentech/odatajclient/engine/data/metadata/edm/package-summary.html')" stroke="none">com.msopentech.odatajclient.engine.data.metadata.edm</text>
    </g>
    <g fill="rgb(170,170,255)" transform="matrix(0.4632,0,0,0.4632,210.2959,179.7242)" stroke="rgb(170,170,255)">
      <rect x="442.98" y="0" clip-path="url(#clipPath2)" width="144.2" height="23.1328" stroke="none"/>
    </g>
    <g fill="rgb(118,118,178)" stroke-miterlimit="1.45" transform="matrix(0.4632,0,0,0.4632,210.2959,179.7242)" stroke-linecap="butt" stroke="rgb(118,118,178)">
      <rect fill="none" width="144.2" x="442.98" height="23.1328" y="0"/>
    </g>
    <g font-size="13" font-weight="bold" font-family="sans-serif" transform="matrix(0.4632,0,0,0.4632,210.2959,179.7242)">
      <text xml:space="preserve" x="449.08" y="16.0669" onclick="umlload('../../../../../../../com/msopentech/odatajclient/engine/data/metadata/edm/ConcurrencyMode.html')" stroke="none">ConcurrencyMode</text>
    </g>
    <g fill="rgb(238,238,255)" transform="matrix(0.4632,0,0,0.4632,210.2959,179.7242)" stroke="rgb(238,238,255)">
      <rect width="67.654" x="-206.5542" height="17.9688" y="301.6641" stroke="none"/>
    </g>
    <g fill="rgb(166,166,178)" stroke-miterlimit="1.45" transform="matrix(0.4632,0,0,0.4632,210.2959,179.7242)" stroke-linecap="butt" stroke="rgb(166,166,178)">
      <rect fill="none" width="67.654" x="-206.5542" height="17.9688" y="301.6641"/>
    </g>
    <g fill="rgb(238,238,255)" transform="matrix(0.4632,0,0,0.4632,210.2959,179.7242)" stroke="rgb(238,238,255)">
      <rect width="148.5542" x="-206.5542" height="91.4607" y="319.6328" stroke="none"/>
    </g>
    <g fill="rgb(166,166,178)" stroke-miterlimit="1.45" transform="matrix(0.4632,0,0,0.4632,210.2959,179.7242)" stroke-linecap="butt" stroke="rgb(166,166,178)">
      <rect fill="none" width="148.5542" x="-206.5542" height="91.4607" y="319.6328"/>
    </g>
    <g font-family="sans-serif" transform="matrix(0.4632,0,0,0.4632,210.2959,179.7242)">
      <text xml:space="preserve" x="-200.5542" y="314.8027" onclick="umlload('http://docs.oracle.com/javase/6/docs/api/java/util/package-summary.html')" stroke="none">java.util</text>
    </g>
    <g fill="rgb(221,221,255)" transform="matrix(0.4632,0,0,0.4632,210.2959,179.7242)" stroke="rgb(221,221,255)">
      <rect x="-198.5542" y="327.6641" clip-path="url(#clipPath3)" width="94.6816" height="32.7147" stroke="none"/>
    </g>
    <g fill="rgb(154,154,178)" stroke-miterlimit="1.45" transform="matrix(0.4632,0,0,0.4632,210.2959,179.7242)" stroke-linecap="butt" stroke="rgb(154,154,178)">
      <ellipse rx="47.3408" fill="none" ry="16.3574" cx="-151.2134" cy="344.0214"/>
    </g>
    <g font-style="italic" font-size="13" font-weight="bold" font-family="sans-serif" transform="matrix(0.4632,0,0,0.4632,210.2959,179.7242)">
      <text xml:space="preserve" x="-179.7134" y="348.5219" onclick="umlload('http://docs.oracle.com/javase/6/docs/api/java/util/List.html')" stroke="none">List&lt;E&gt;</text>
    </g>
    <g fill="rgb(221,221,255)" transform="matrix(0.4632,0,0,0.4632,210.2959,179.7242)" stroke="rgb(221,221,255)">
      <rect x="-198.5542" y="370.3788" clip-path="url(#clipPath4)" width="132.5542" height="32.7147" stroke="none"/>
    </g>
    <g fill="rgb(154,154,178)" stroke-miterlimit="1.45" transform="matrix(0.4632,0,0,0.4632,210.2959,179.7242)" stroke-linecap="butt" stroke="rgb(154,154,178)">
      <ellipse rx="66.2771" fill="none" ry="16.3574" cx="-132.2771" cy="386.7362"/>
    </g>
    <g font-style="italic" font-size="13" font-weight="bold" font-family="sans-serif" transform="matrix(0.4632,0,0,0.4632,210.2959,179.7242)">
      <text xml:space="preserve" x="-173.7771" y="391.2367" onclick="umlload('http://docs.oracle.com/javase/6/docs/api/java/util/Map.html')" stroke="none">Map&lt;K, V&gt;</text>
    </g>
    <g fill="rgb(238,238,255)" transform="matrix(0.4632,0,0,0.4632,210.2959,179.7242)" stroke="rgb(238,238,255)">
      <rect width="81.4457" x="-161.55" height="17.9688" y="214.5312" stroke="none"/>
    </g>
    <g fill="rgb(166,166,178)" stroke-miterlimit="1.45" transform="matrix(0.4632,0,0,0.4632,210.2959,179.7242)" stroke-linecap="butt" stroke="rgb(166,166,178)">
      <rect fill="none" width="81.4457" x="-161.55" height="17.9688" y="214.5312"/>
    </g>
    <g fill="rgb(238,238,255)" transform="matrix(0.4632,0,0,0.4632,210.2959,179.7242)" stroke="rgb(238,238,255)">
      <rect width="103.55" x="-161.55" height="39.1641" y="232.5" stroke="none"/>
    </g>
    <g fill="rgb(166,166,178)" stroke-miterlimit="1.45" transform="matrix(0.4632,0,0,0.4632,210.2959,179.7242)" stroke-linecap="butt" stroke="rgb(166,166,178)">
      <rect fill="none" width="103.55" x="-161.55" height="39.1641" y="232.5"/>
    </g>
    <g font-family="sans-serif" transform="matrix(0.4632,0,0,0.4632,210.2959,179.7242)">
      <text xml:space="preserve" x="-155.55" y="227.6699" onclick="umlload('http://docs.oracle.com/javase/6/docs/api/java/math/package-summary.html')" stroke="none">java.math</text>
    </g>
    <g fill="rgb(187,187,255)" transform="matrix(0.4632,0,0,0.4632,210.2959,179.7242)" stroke="rgb(187,187,255)">
      <rect x="-153.55" y="240.5312" clip-path="url(#clipPath5)" width="87.55" height="23.1328" stroke="none"/>
    </g>
    <g fill="rgb(130,130,178)" stroke-miterlimit="1.45" transform="matrix(0.4632,0,0,0.4632,210.2959,179.7242)" stroke-linecap="butt" stroke="rgb(130,130,178)">
      <rect fill="none" width="87.55" x="-153.55" height="23.1328" y="240.5312"/>
    </g>
    <g font-size="13" font-weight="bold" font-family="sans-serif" transform="matrix(0.4632,0,0,0.4632,210.2959,179.7242)">
      <text xml:space="preserve" x="-148.275" y="256.5981" onclick="umlload('http://docs.oracle.com/javase/6/docs/api/java/math/BigInteger.html')" stroke="none">BigInteger</text>
    </g>
    <g fill="rgb(238,238,255)" transform="matrix(0.4632,0,0,0.4632,210.2959,179.7242)" stroke="rgb(238,238,255)">
      <rect width="76.1412" x="-143.01" height="17.9688" y="94.2656" stroke="none"/>
    </g>
    <g fill="rgb(166,166,178)" stroke-miterlimit="1.45" transform="matrix(0.4632,0,0,0.4632,210.2959,179.7242)" stroke-linecap="butt" stroke="rgb(166,166,178)">
      <rect fill="none" width="76.1412" x="-143.01" height="17.9688" y="94.2656"/>
    </g>
    <g fill="rgb(238,238,255)" transform="matrix(0.4632,0,0,0.4632,210.2959,179.7242)" stroke="rgb(238,238,255)">
      <rect width="85.01" x="-143.01" height="72.2969" y="112.2344" stroke="none"/>
    </g>
    <g fill="rgb(166,166,178)" stroke-miterlimit="1.45" transform="matrix(0.4632,0,0,0.4632,210.2959,179.7242)" stroke-linecap="butt" stroke="rgb(166,166,178)">
      <rect fill="none" width="85.01" x="-143.01" height="72.2969" y="112.2344"/>
    </g>
    <g font-family="sans-serif" transform="matrix(0.4632,0,0,0.4632,210.2959,179.7242)">
      <text xml:space="preserve" x="-137.01" y="107.4043" onclick="umlload('http://docs.oracle.com/javase/6/docs/api/java/lang/package-summary.html')" stroke="none">java.lang</text>
    </g>
    <g fill="rgb(187,187,255)" transform="matrix(0.4632,0,0,0.4632,210.2959,179.7242)" stroke="rgb(187,187,255)">
      <rect x="-135.01" y="120.2656" clip-path="url(#clipPath6)" width="69.01" height="23.1328" stroke="none"/>
    </g>
    <g fill="rgb(130,130,178)" stroke-miterlimit="1.45" transform="matrix(0.4632,0,0,0.4632,210.2959,179.7242)" stroke-linecap="butt" stroke="rgb(130,130,178)">
      <rect fill="none" width="69.01" x="-135.01" height="23.1328" y="120.2656"/>
    </g>
    <g font-size="13" font-weight="bold" font-family="sans-serif" transform="matrix(0.4632,0,0,0.4632,210.2959,179.7242)">
      <text xml:space="preserve" x="-130.005" y="136.3325" onclick="umlload('http://docs.oracle.com/javase/6/docs/api/java/lang/Boolean.html')" stroke="none">Boolean</text>
    </g>
    <g fill="rgb(187,187,255)" transform="matrix(0.4632,0,0,0.4632,210.2959,179.7242)" stroke="rgb(187,187,255)">
      <rect x="-135.01" y="153.3984" clip-path="url(#clipPath7)" width="53.56" height="23.1328" stroke="none"/>
    </g>
    <g fill="rgb(130,130,178)" stroke-miterlimit="1.45" transform="matrix(0.4632,0,0,0.4632,210.2959,179.7242)" stroke-linecap="butt" stroke="rgb(130,130,178)">
      <rect fill="none" width="53.56" x="-135.01" height="23.1328" y="153.3984"/>
    </g>
    <g font-size="13" font-weight="bold" font-family="sans-serif" transform="matrix(0.4632,0,0,0.4632,210.2959,179.7242)">
      <text xml:space="preserve" x="-130.23" y="169.4653" onclick="umlload('http://docs.oracle.com/javase/6/docs/api/java/lang/String.html')" stroke="none">String</text>
    </g>
    <g fill="rgb(238,238,255)" transform="matrix(0.4632,0,0,0.4632,210.2959,179.7242)" stroke="rgb(238,238,255)">
      <rect width="400.7766" x="-453.22" height="17.9688" y="-26" stroke="none"/>
    </g>
    <g fill="rgb(166,166,178)" stroke-miterlimit="1.45" transform="matrix(0.4632,0,0,0.4632,210.2959,179.7242)" stroke-linecap="butt" stroke="rgb(166,166,178)">
      <rect fill="none" width="400.7766" x="-453.22" height="17.9688" y="-26"/>
    </g>
    <g fill="rgb(238,238,255)" transform="matrix(0.4632,0,0,0.4632,210.2959,179.7242)" stroke="rgb(238,238,255)">
      <rect width="400.81" x="-453.22" height="72.2969" y="-8.0312" stroke="none"/>
    </g>
    <g fill="rgb(166,166,178)" stroke-miterlimit="1.45" transform="matrix(0.4632,0,0,0.4632,210.2959,179.7242)" stroke-linecap="butt" stroke="rgb(166,166,178)">
      <rect fill="none" width="400.81" x="-453.22" height="72.2969" y="-8.0312"/>
    </g>
    <g font-family="sans-serif" transform="matrix(0.4632,0,0,0.4632,210.2959,179.7242)">
      <text xml:space="preserve" x="-447.22" y="-12.8613" onclick="umlload('../../../../../../../com/msopentech/odatajclient/engine/data/metadata/edm/package-summary.html')" stroke="none">com.msopentech.odatajclient.engine.data.metadata.edm</text>
    </g>
    <g fill="rgb(187,187,255)" transform="matrix(0.4632,0,0,0.4632,210.2959,179.7242)" stroke="rgb(187,187,255)">
      <rect x="-445.22" y="0" clip-path="url(#clipPath8)" width="123.6" height="23.1328" stroke="none"/>
    </g>
    <g fill="rgb(130,130,178)" stroke-miterlimit="1.45" transform="matrix(0.4632,0,0,0.4632,210.2959,179.7242)" stroke-linecap="butt" stroke="rgb(130,130,178)">
      <rect fill="none" width="123.6" x="-445.22" height="23.1328" y="0"/>
    </g>
    <g font-size="13" font-weight="bold" font-family="sans-serif" transform="matrix(0.4632,0,0,0.4632,210.2959,179.7242)">
      <text xml:space="preserve" x="-439.42" y="16.0669" onclick="umlload('../../../../../../../com/msopentech/odatajclient/engine/data/metadata/edm/Documentation.html')" stroke="none">Documentation</text>
    </g>
    <g fill="rgb(170,170,255)" transform="matrix(0.4632,0,0,0.4632,210.2959,179.7242)" stroke="rgb(170,170,255)">
      <rect x="-445.22" y="33.1328" clip-path="url(#clipPath9)" width="130.81" height="23.1328" stroke="none"/>
    </g>
    <g fill="rgb(118,118,178)" stroke-miterlimit="1.45" transform="matrix(0.4632,0,0,0.4632,210.2959,179.7242)" stroke-linecap="butt" stroke="rgb(118,118,178)">
      <rect fill="none" width="130.81" x="-445.22" height="23.1328" y="33.1328"/>
    </g>
    <g font-size="13" font-weight="bold" font-family="sans-serif" transform="matrix(0.4632,0,0,0.4632,210.2959,179.7242)">
      <text xml:space="preserve" x="-439.315" y="49.1997" onclick="umlload('../../../../../../../com/msopentech/odatajclient/engine/data/metadata/edm/ParameterMode.html')" stroke="none">ParameterMode</text>
    </g>
    <g fill="rgb(238,238,255)" transform="matrix(0.4632,0,0,0.4632,210.2959,179.7242)" stroke="rgb(238,238,255)">
      <rect width="400.7766" x="-4.305" height="17.9688" y="-133.1328" stroke="none"/>
    </g>
    <g fill="rgb(166,166,178)" stroke-miterlimit="1.45" transform="matrix(0.4632,0,0,0.4632,210.2959,179.7242)" stroke-linecap="butt" stroke="rgb(166,166,178)">
      <rect fill="none" width="400.7766" x="-4.305" height="17.9688" y="-133.1328"/>
    </g>
    <g fill="rgb(238,238,255)" transform="matrix(0.4632,0,0,0.4632,210.2959,179.7242)" stroke="rgb(238,238,255)">
      <rect width="400.7766" x="-4.305" height="39.1641" y="-115.1641" stroke="none"/>
    </g>
    <g fill="rgb(166,166,178)" stroke-miterlimit="1.45" transform="matrix(0.4632,0,0,0.4632,210.2959,179.7242)" stroke-linecap="butt" stroke="rgb(166,166,178)">
      <rect fill="none" width="400.7766" x="-4.305" height="39.1641" y="-115.1641"/>
    </g>
    <g font-family="sans-serif" transform="matrix(0.4632,0,0,0.4632,210.2959,179.7242)">
      <text xml:space="preserve" x="1.695" y="-119.9941" onclick="umlload('../../../../../../../com/msopentech/odatajclient/engine/data/metadata/edm/package-summary.html')" stroke="none">com.msopentech.odatajclient.engine.data.metadata.edm</text>
    </g>
    <g fill="rgb(204,204,255)" transform="matrix(0.4632,0,0,0.4632,210.2959,179.7242)" stroke="rgb(204,204,255)">
      <rect x="109.695" y="-107.1328" clip-path="url(#clipPath10)" width="157.59" height="23.1328" stroke="none"/>
    </g>
    <g fill="rgb(142,142,178)" stroke-miterlimit="1.45" transform="matrix(0.4632,0,0,0.4632,210.2959,179.7242)" stroke-linecap="butt" stroke="rgb(142,142,178)">
      <rect fill="none" width="157.59" x="109.695" height="23.1328" y="-107.1328"/>
    </g>
    <g font-size="13" font-weight="bold" font-family="sans-serif" transform="matrix(0.4632,0,0,0.4632,210.2959,179.7242)">
      <text xml:space="preserve" x="115.99" y="-91.0659" onclick="umlload('../../../../../../../com/msopentech/odatajclient/engine/data/metadata/edm/AbstractFaceteable.html')" stroke="none">AbstractFaceteable</text>
    </g>
    <g fill="rgb(238,238,255)" transform="matrix(0.4632,0,0,0.4632,210.2959,179.7242)" stroke="rgb(238,238,255)">
      <rect width="400.7766" x="-8" height="17.9688" y="-26" stroke="none"/>
    </g>
    <g fill="rgb(166,166,178)" stroke-miterlimit="1.45" transform="matrix(0.4632,0,0,0.4632,210.2959,179.7242)" stroke-linecap="butt" stroke="rgb(166,166,178)">
      <rect fill="none" width="400.7766" x="-8" height="17.9688" y="-26"/>
    </g>
    <g fill="rgb(238,238,255)" transform="matrix(0.4632,0,0,0.4632,210.2959,179.7242)" stroke="rgb(238,238,255)">
      <rect width="400.98" x="-8" height="620.5312" y="-8.0312" stroke="none"/>
    </g>
    <g fill="rgb(166,166,178)" stroke-miterlimit="1.45" transform="matrix(0.4632,0,0,0.4632,210.2959,179.7242)" stroke-linecap="butt" stroke="rgb(166,166,178)">
      <rect fill="none" width="400.98" x="-8" height="620.5312" y="-8.0312"/>
    </g>
    <g font-family="sans-serif" transform="matrix(0.4632,0,0,0.4632,210.2959,179.7242)">
      <text xml:space="preserve" x="-2" y="-12.8613" onclick="umlload('package-summary.html')" stroke="none">com.msopentech.odatajclient.engine.data.metadata.edm</text>
    </g>
    <g fill="rgb(187,187,255)" transform="matrix(0.4632,0,0,0.4632,210.2959,179.7242)" stroke="rgb(187,187,255)">
      <rect x="0" y="0" clip-path="url(#clipPath11)" width="376.98" height="26.625" stroke="none"/>
      <line clip-path="url(#clipPath11)" fill="none" x1="0" x2="376.98" y1="26.625" y2="26.625" stroke="black"/>
      <rect x="0" y="27.625" clip-path="url(#clipPath11)" width="376.98" height="159.6875" stroke="none"/>
      <line clip-path="url(#clipPath11)" fill="none" x1="0" x2="376.98" y1="187.3125" y2="187.3125" stroke="black"/>
      <rect x="0" y="188.3125" clip-path="url(#clipPath11)" width="376.98" height="15.9688" stroke="none"/>
      <line clip-path="url(#clipPath11)" fill="none" x1="0" x2="376.98" y1="204.2812" y2="204.2812" stroke="black"/>
      <rect x="0" y="205.2812" clip-path="url(#clipPath11)" width="376.98" height="399.2188" stroke="none"/>
    </g>
    <g fill="rgb(130,130,178)" stroke-miterlimit="1.45" transform="matrix(0.4632,0,0,0.4632,210.2959,179.7242)" stroke-linecap="butt" stroke="rgb(130,130,178)">
      <rect fill="none" width="376.98" x="0" height="604.5" y="0"/>
    </g>
    <g font-size="16" font-weight="bold" font-family="sans-serif" transform="matrix(0.4632,0,0,0.4632,210.2959,179.7242)">
      <text xml:space="preserve" x="73.49" y="18.8516" onclick="umlload('#')" stroke="none">FunctionImportParameter</text>
    </g>
    <g font-family="sans-serif" transform="matrix(0.4632,0,0,0.4632,210.2959,179.7242)">
      <text xml:space="preserve" x="4" y="38.1719" stroke="none">#</text>
      <text xml:space="preserve" x="19" y="39.7637" onclick="umlload('#documentation')" stroke="none">documentation : Documentation</text>
    </g>
    <g font-family="sans-serif" transform="matrix(0.4632,0,0,0.4632,210.2959,179.7242)">
      <text xml:space="preserve" x="4" y="54.1719" stroke="none">#</text>
      <text xml:space="preserve" x="19" y="55.7324" onclick="umlload('#maxLength')" stroke="none">maxLength : String</text>
    </g>
    <g font-family="sans-serif" transform="matrix(0.4632,0,0,0.4632,210.2959,179.7242)">
      <text xml:space="preserve" x="4" y="70.1719" stroke="none">#</text>
      <text xml:space="preserve" x="19" y="71.7012" onclick="umlload('#mode')" stroke="none">mode : ParameterMode</text>
    </g>
    <g font-family="sans-serif" transform="matrix(0.4632,0,0,0.4632,210.2959,179.7242)">
      <text xml:space="preserve" x="4" y="86.1719" stroke="none">#</text>
      <text xml:space="preserve" x="19" y="87.6699" onclick="umlload('#name')" stroke="none">name : String</text>
    </g>
    <g font-family="sans-serif" transform="matrix(0.4632,0,0,0.4632,210.2959,179.7242)">
      <text xml:space="preserve" x="4" y="102.1719" stroke="none">#</text>
      <text xml:space="preserve" x="19" y="103.6387" onclick="umlload('#nullable')" stroke="none">nullable : Boolean</text>
    </g>
    <g font-family="sans-serif" transform="matrix(0.4632,0,0,0.4632,210.2959,179.7242)">
      <text xml:space="preserve" x="4" y="118.1719" stroke="none">#</text>
      <text xml:space="preserve" x="19" y="119.6074" onclick="umlload('#precision')" stroke="none">precision : BigInteger</text>
    </g>
    <g font-family="sans-serif" transform="matrix(0.4632,0,0,0.4632,210.2959,179.7242)">
      <text xml:space="preserve" x="4" y="134.1719" stroke="none">#</text>
      <text xml:space="preserve" x="19" y="135.5762" onclick="umlload('#scale')" stroke="none">scale : BigInteger</text>
    </g>
    <g font-family="sans-serif" transform="matrix(0.4632,0,0,0.4632,210.2959,179.7242)">
      <text xml:space="preserve" x="4" y="150.1719" stroke="none">#</text>
      <text xml:space="preserve" x="19" y="151.5449" onclick="umlload('#srid')" stroke="none">srid : String</text>
    </g>
    <g font-family="sans-serif" transform="matrix(0.4632,0,0,0.4632,210.2959,179.7242)">
      <text xml:space="preserve" x="4" y="166.1719" stroke="none">#</text>
      <text xml:space="preserve" x="19" y="167.5137" onclick="umlload('#type')" stroke="none">type : String</text>
    </g>
    <g font-family="sans-serif" transform="matrix(0.4632,0,0,0.4632,210.2959,179.7242)">
      <text xml:space="preserve" x="4" y="182.1719" stroke="none">#</text>
      <text xml:space="preserve" x="19" y="183.4824" onclick="umlload('#valueAnnotationOrTypeAnnotationOrAny')" stroke="none">valueAnnotationOrTypeAnnotationOrAny : List&lt;Object&gt;</text>
    </g>
    <g font-family="sans-serif" transform="matrix(0.4632,0,0,0.4632,210.2959,179.7242)">
      <text xml:space="preserve" x="4" y="199.1719" stroke="none">+</text>
      <text xml:space="preserve" x="19" y="200.4512" onclick="umlload('#FunctionImportParameter()')" stroke="none">FunctionImportParameter()</text>
    </g>
    <g font-family="sans-serif" transform="matrix(0.4632,0,0,0.4632,210.2959,179.7242)">
      <text xml:space="preserve" x="4" y="216.1719" stroke="none">+</text>
      <text xml:space="preserve" x="19" y="217.4199" onclick="umlload('#getCollation()')" stroke="none">getCollation() : String</text>
    </g>
    <g font-family="sans-serif" transform="matrix(0.4632,0,0,0.4632,210.2959,179.7242)">
      <text xml:space="preserve" x="4" y="232.1719" stroke="none">+</text>
      <text xml:space="preserve" x="19" y="233.3887" onclick="umlload('#getConcurrencyMode()')" stroke="none">getConcurrencyMode() : ConcurrencyMode</text>
    </g>
    <g font-family="sans-serif" transform="matrix(0.4632,0,0,0.4632,210.2959,179.7242)">
      <text xml:space="preserve" x="4" y="248.1719" stroke="none">+</text>
      <text xml:space="preserve" x="19" y="249.3574" onclick="umlload('#getDefaultValue()')" stroke="none">getDefaultValue() : String</text>
    </g>
    <g font-family="sans-serif" transform="matrix(0.4632,0,0,0.4632,210.2959,179.7242)">
      <text xml:space="preserve" x="4" y="264.1719" stroke="none">+</text>
      <text xml:space="preserve" x="19" y="265.3262" onclick="umlload('#getDocumentation()')" stroke="none">getDocumentation() : Documentation</text>
    </g>
    <g font-family="sans-serif" transform="matrix(0.4632,0,0,0.4632,210.2959,179.7242)">
      <text xml:space="preserve" x="4" y="280.1719" stroke="none">+</text>
      <text xml:space="preserve" x="19" y="281.2949" onclick="umlload('#getMaxLength()')" stroke="none">getMaxLength() : String</text>
    </g>
    <g font-family="sans-serif" transform="matrix(0.4632,0,0,0.4632,210.2959,179.7242)">
      <text xml:space="preserve" x="4" y="296.1719" stroke="none">+</text>
      <text xml:space="preserve" x="19" y="297.2637" onclick="umlload('#getMode()')" stroke="none">getMode() : ParameterMode</text>
    </g>
    <g font-family="sans-serif" transform="matrix(0.4632,0,0,0.4632,210.2959,179.7242)">
      <text xml:space="preserve" x="4" y="312.1719" stroke="none">+</text>
      <text xml:space="preserve" x="19" y="313.2324" onclick="umlload('#getName()')" stroke="none">getName() : String</text>
    </g>
    <g font-family="sans-serif" transform="matrix(0.4632,0,0,0.4632,210.2959,179.7242)">
      <text xml:space="preserve" x="4" y="328.1719" stroke="none">+</text>
      <text xml:space="preserve" x="19" y="329.2012" onclick="umlload('#getOtherAttributes()')" stroke="none">getOtherAttributes() : Map&lt;QName, String&gt;</text>
    </g>
    <g font-family="sans-serif" transform="matrix(0.4632,0,0,0.4632,210.2959,179.7242)">
      <text xml:space="preserve" x="4" y="344.1719" stroke="none">+</text>
      <text xml:space="preserve" x="19" y="345.1699" onclick="umlload('#getPrecision()')" stroke="none">getPrecision() : BigInteger</text>
    </g>
    <g font-family="sans-serif" transform="matrix(0.4632,0,0,0.4632,210.2959,179.7242)">
      <text xml:space="preserve" x="4" y="359.1719" stroke="none">+</text>
      <text xml:space="preserve" x="19" y="361.1387" onclick="umlload('#getScale()')" stroke="none">getScale() : BigInteger</text>
    </g>
    <g font-family="sans-serif" transform="matrix(0.4632,0,0,0.4632,210.2959,179.7242)">
      <text xml:space="preserve" x="4" y="375.1719" stroke="none">+</text>
      <text xml:space="preserve" x="19" y="377.1074" onclick="umlload('#getSRID()')" stroke="none">getSRID() : String</text>
    </g>
    <g font-family="sans-serif" transform="matrix(0.4632,0,0,0.4632,210.2959,179.7242)">
      <text xml:space="preserve" x="4" y="391.1719" stroke="none">+</text>
      <text xml:space="preserve" x="19" y="393.0762" onclick="umlload('#getType()')" stroke="none">getType() : String</text>
    </g>
    <g font-family="sans-serif" transform="matrix(0.4632,0,0,0.4632,210.2959,179.7242)">
      <text xml:space="preserve" x="4" y="407.1719" stroke="none">+</text>
      <text xml:space="preserve" x="19" y="409.0449" onclick="umlload('#getValues()')" stroke="none">getValues() : List&lt;Object&gt;</text>
    </g>
    <g font-family="sans-serif" transform="matrix(0.4632,0,0,0.4632,210.2959,179.7242)">
      <text xml:space="preserve" x="4" y="423.1719" stroke="none">+</text>
      <text xml:space="preserve" x="19" y="425.0137" onclick="umlload('#isFixedLength()')" stroke="none">isFixedLength() : Boolean</text>
    </g>
    <g font-family="sans-serif" transform="matrix(0.4632,0,0,0.4632,210.2959,179.7242)">
      <text xml:space="preserve" x="4" y="439.1719" stroke="none">+</text>
      <text xml:space="preserve" x="19" y="440.9824" onclick="umlload('#isNullable()')" stroke="none">isNullable() : boolean</text>
    </g>
    <g font-family="sans-serif" transform="matrix(0.4632,0,0,0.4632,210.2959,179.7242)">
      <text xml:space="preserve" x="4" y="455.1719" stroke="none">+</text>
      <text xml:space="preserve" x="19" y="456.9512" onclick="umlload('#isUnicode()')" stroke="none">isUnicode() : Boolean</text>
    </g>
    <g font-family="sans-serif" transform="matrix(0.4632,0,0,0.4632,210.2959,179.7242)">
      <text xml:space="preserve" x="4" y="471.1719" stroke="none">+</text>
      <text xml:space="preserve" x="19" y="472.9199" onclick="umlload('#setDocumentation(com.msopentech.odatajclient.engine.data.metadata.edm.Documentation)')" stroke="none">setDocumentation(Documentation) : void</text>
    </g>
    <g font-family="sans-serif" transform="matrix(0.4632,0,0,0.4632,210.2959,179.7242)">
      <text xml:space="preserve" x="4" y="487.1719" stroke="none">+</text>
      <text xml:space="preserve" x="19" y="488.8887" onclick="umlload('#setMaxLength(java.lang.String)')" stroke="none">setMaxLength(String) : void</text>
    </g>
    <g font-family="sans-serif" transform="matrix(0.4632,0,0,0.4632,210.2959,179.7242)">
      <text xml:space="preserve" x="4" y="503.1719" stroke="none">+</text>
      <text xml:space="preserve" x="19" y="504.8574" onclick="umlload('#setMode(com.msopentech.odatajclient.engine.data.metadata.edm.ParameterMode)')" stroke="none">setMode(ParameterMode) : void</text>
    </g>
    <g font-family="sans-serif" transform="matrix(0.4632,0,0,0.4632,210.2959,179.7242)">
      <text xml:space="preserve" x="4" y="519.1719" stroke="none">+</text>
      <text xml:space="preserve" x="19" y="520.8262" onclick="umlload('#setName(java.lang.String)')" stroke="none">setName(String) : void</text>
    </g>
    <g font-family="sans-serif" transform="matrix(0.4632,0,0,0.4632,210.2959,179.7242)">
      <text xml:space="preserve" x="4" y="535.1719" stroke="none">+</text>
      <text xml:space="preserve" x="19" y="536.7949" onclick="umlload('#setNullable(java.lang.Boolean)')" stroke="none">setNullable(Boolean) : void</text>
    </g>
    <g font-family="sans-serif" transform="matrix(0.4632,0,0,0.4632,210.2959,179.7242)">
      <text xml:space="preserve" x="4" y="551.1719" stroke="none">+</text>
      <text xml:space="preserve" x="19" y="552.7637" onclick="umlload('#setPrecision(java.math.BigInteger)')" stroke="none">setPrecision(BigInteger) : void</text>
    </g>
    <g font-family="sans-serif" transform="matrix(0.4632,0,0,0.4632,210.2959,179.7242)">
      <text xml:space="preserve" x="4" y="567.1719" stroke="none">+</text>
      <text xml:space="preserve" x="19" y="568.7324" onclick="umlload('#setScale(java.math.BigInteger)')" stroke="none">setScale(BigInteger) : void</text>
    </g>
    <g font-family="sans-serif" transform="matrix(0.4632,0,0,0.4632,210.2959,179.7242)">
      <text xml:space="preserve" x="4" y="583.1719" stroke="none">+</text>
      <text xml:space="preserve" x="19" y="584.7012" onclick="umlload('#setSRID(java.lang.String)')" stroke="none">setSRID(String) : void</text>
    </g>
    <g font-family="sans-serif" transform="matrix(0.4632,0,0,0.4632,210.2959,179.7242)">
      <text xml:space="preserve" x="4" y="599.1719" stroke="none">+</text>
      <text xml:space="preserve" x="19" y="600.6699" onclick="umlload('#setType(java.lang.String)')" stroke="none">setType(String) : void</text>
    </g>
    <g font-family="sans-serif" transform="matrix(0.4632,0,0,0.4632,210.2959,179.7242)">
      <text xml:space="preserve" x="-448" y="637.1543" onclick="umlload('http://www.yworks.com/')" stroke="none">yWorks UML Doclet</text>
    </g>
    <g stroke-miterlimit="1.45" transform="matrix(0.4632,0,0,0.4632,210.2959,179.7242)" stroke-linecap="butt">
      <path fill="none" d="M188.49 0 L188.49 -69"/>
      <path fill="white" d="M188.49 -84 L182.49 -68 L194.49 -68 Z" stroke="none"/>
      <path fill="none" d="M188.49 -84 L182.49 -68 L194.49 -68 Z"/>
      <path fill="none" d="M0.0292 11.5664 L-321.62 11.5664"/>
      <line stroke-linecap="square" transform="matrix(-1,0,0,-1,-321.62,11.5664)" fill="none" x1="0" x2="-14" y1="0" y2="-4" stroke-miterlimit="10"/>
      <line stroke-linecap="square" transform="matrix(-1,0,0,-1,-321.62,11.5664)" fill="none" x1="0" x2="-14" y1="0" y2="4" stroke-miterlimit="10"/>
    </g>
    <g stroke-miterlimit="1.45" transform="matrix(0.4632,0,0,0.4632,210.2959,179.7242)" stroke-linecap="butt">
      <path fill="none" d="M-0.0316 44.6992 L-314.41 44.6992"/>
      <line stroke-linecap="square" transform="matrix(-1,0,0,-1,-314.41,44.6992)" fill="none" x1="0" x2="-14" y1="0" y2="-4" stroke-miterlimit="10"/>
      <line stroke-linecap="square" transform="matrix(-1,0,0,-1,-314.41,44.6992)" fill="none" x1="0" x2="-14" y1="0" y2="4" stroke-miterlimit="10"/>
    </g>
    <g stroke-miterlimit="1.45" transform="matrix(0.4632,0,0,0.4632,210.2959,179.7242)" stroke-linecap="butt">
      <path fill="none" d="M0.0012 131.832 L-66 131.832"/>
      <line stroke-linecap="square" transform="matrix(-1,0,0,-1,-66,131.832)" fill="none" x1="0" x2="-14" y1="0" y2="-4" stroke-miterlimit="10"/>
      <line stroke-linecap="square" transform="matrix(-1,0,0,-1,-66,131.832)" fill="none" x1="0" x2="-14" y1="0" y2="4" stroke-miterlimit="10"/>
    </g>
    <g stroke-miterlimit="1.45" transform="matrix(0.4632,0,0,0.4632,210.2959,179.7242)" stroke-linecap="butt">
      <path fill="none" d="M0.0337 164.9648 L-81.45 164.9648"/>
      <line stroke-linecap="square" transform="matrix(-1,0,0,-1,-81.45,164.9648)" fill="none" x1="0" x2="-14" y1="0" y2="-4" stroke-miterlimit="10"/>
      <line stroke-linecap="square" transform="matrix(-1,0,0,-1,-81.45,164.9648)" fill="none" x1="0" x2="-14" y1="0" y2="4" stroke-miterlimit="10"/>
    </g>
    <g stroke-miterlimit="1.45" transform="matrix(0.4632,0,0,0.4632,210.2959,179.7242)" stroke-linecap="butt">
      <path fill="none" d="M-0.001 252.0977 L-66 252.0977"/>
      <line stroke-linecap="square" transform="matrix(-1,0,0,-1,-66,252.0977)" fill="none" x1="0" x2="-14" y1="0" y2="-4" stroke-miterlimit="10"/>
      <line stroke-linecap="square" transform="matrix(-1,0,0,-1,-66,252.0977)" fill="none" x1="0" x2="-14" y1="0" y2="4" stroke-miterlimit="10"/>
    </g>
    <g stroke-miterlimit="1.45" transform="matrix(0.4632,0,0,0.4632,210.2959,179.7242)" stroke-linecap="butt">
      <path fill="none" d="M0.0193 344.0214 L-103.8726 344.0214"/>
      <line stroke-linecap="square" transform="matrix(-1,0,0,-1,-103.8726,344.0214)" fill="none" x1="0" x2="-14" y1="0" y2="-4" stroke-miterlimit="10"/>
      <line stroke-linecap="square" transform="matrix(-1,0,0,-1,-103.8726,344.0214)" fill="none" x1="0" x2="-14" y1="0" y2="4" stroke-miterlimit="10"/>
    </g>
    <g stroke-miterlimit="1.45" transform="matrix(0.4632,0,0,0.4632,210.2959,179.7242)" stroke-linecap="butt">
      <path fill="none" d="M0.0315 386.7362 L-66 386.7362"/>
      <line stroke-linecap="square" transform="matrix(-1,0,0,-1,-66,386.7362)" fill="none" x1="0" x2="-14" y1="0" y2="-4" stroke-miterlimit="10"/>
      <line stroke-linecap="square" transform="matrix(-1,0,0,-1,-66,386.7362)" fill="none" x1="0" x2="-14" y1="0" y2="4" stroke-miterlimit="10"/>
    </g>
    <g stroke-dasharray="6,2" stroke-miterlimit="1.45" transform="matrix(0.4632,0,0,0.4632,210.2959,179.7242)" stroke-linecap="butt">
      <path fill="none" d="M376.941 11.5664 L442.98 11.5664"/>
      <line stroke-linecap="square" transform="matrix(1,0,0,1,442.98,11.5664)" fill="none" x1="0" x2="-14" y1="0" y2="-4" stroke-dasharray="none" stroke-miterlimit="10"/>
      <line stroke-linecap="square" transform="matrix(1,0,0,1,442.98,11.5664)" fill="none" x1="0" x2="-14" y1="0" y2="4" stroke-dasharray="none" stroke-miterlimit="10"/>
    </g>
  </g>
</svg>
