<?xml version="1.0" encoding="UTF-8"?><svg xmlns="http://www.w3.org/2000/svg" xmlns:xlink="http://www.w3.org/1999/xlink" fill-opacity="1" color-rendering="auto" color-interpolation="auto" stroke="black" text-rendering="auto" stroke-linecap="square" width="598" stroke-miterlimit="10" stroke-opacity="1" shape-rendering="auto" fill="black" stroke-dasharray="none" font-weight="normal" stroke-width="1" height="598" font-family="'Dialog'" font-style="normal" stroke-linejoin="miter" font-size="12" stroke-dashoffset="0" image-rendering="auto">
  <!--Generated by ySVG-->
  <defs id="genericDefs"/>
  <g>
    <defs id="defs1">
      <clipPath clipPathUnits="userSpaceOnUse" id="clipPath1">
        <path d="M0 0 L598 0 L598 598 L0 598 L0 0 Z"/>
      </clipPath>
      <clipPath clipPathUnits="userSpaceOnUse" id="clipPath2">
        <path d="M435.22 -0 L529.98 -0 L529.98 23.1328 L435.22 23.1328 L435.22 -0 Z"/>
      </clipPath>
      <clipPath clipPathUnits="userSpaceOnUse" id="clipPath3">
        <path d="M435.22 33.1328 L545.43 33.1328 L545.43 56.2656 L435.22 56.2656 L435.22 33.1328 Z"/>
      </clipPath>
      <clipPath clipPathUnits="userSpaceOnUse" id="clipPath4">
        <path d="M435.22 66.2656 L559.85 66.2656 L559.85 89.3984 L435.22 89.3984 L435.22 66.2656 Z"/>
      </clipPath>
      <clipPath clipPathUnits="userSpaceOnUse" id="clipPath5">
        <path d="M435.22 99.3984 L522.77 99.3984 L522.77 122.5312 L435.22 122.5312 L435.22 99.3984 Z"/>
      </clipPath>
      <clipPath clipPathUnits="userSpaceOnUse" id="clipPath6">
        <path d="M435.22 132.5312 L521.74 132.5312 L521.74 155.6641 L435.22 155.6641 L435.22 132.5312 Z"/>
      </clipPath>
      <clipPath clipPathUnits="userSpaceOnUse" id="clipPath7">
        <path d="M-103.8726 103.4902 C-103.8726 112.5241 -125.0678 119.8475 -151.2134 119.8475 C-177.359 119.8475 -198.5542 112.5241 -198.5542 103.4902 C-198.5542 94.4563 -177.359 87.1328 -151.2134 87.1328 C-125.0678 87.1328 -103.8726 94.4563 -103.8726 103.4902 Z"/>
      </clipPath>
      <clipPath clipPathUnits="userSpaceOnUse" id="clipPath8">
        <path d="M-66 146.2049 C-66 155.2388 -95.6733 162.5623 -132.2771 162.5623 C-168.881 162.5623 -198.5542 155.2388 -198.5542 146.2049 C-198.5542 137.171 -168.881 129.8475 -132.2771 129.8475 C-95.6733 129.8475 -66 137.171 -66 146.2049 Z"/>
      </clipPath>
      <clipPath clipPathUnits="userSpaceOnUse" id="clipPath9">
        <path d="M-130.04 -0 L-76.48 -0 L-76.48 23.1328 L-130.04 23.1328 L-130.04 -0 Z"/>
      </clipPath>
      <clipPath clipPathUnits="userSpaceOnUse" id="clipPath10">
        <path d="M90.125 -107.1328 L225.055 -107.1328 L225.055 -84 L90.125 -84 L90.125 -107.1328 Z"/>
      </clipPath>
      <clipPath clipPathUnits="userSpaceOnUse" id="clipPath11">
        <path d="M0 -0 L315.18 -0 L315.18 428.8438 L0 428.8438 L0 -0 Z"/>
      </clipPath>
      <script type="text/ecmascript"><![CDATA[
function umlload(newLocation)
{
if (newLocation.charAt(0) != '#') {
if (newLocation.indexOf("://") > -1) {
window.parent.location.href = newLocation;
} else {
var tmp = window.parent.location.href;
tmp = tmp.substring(0, tmp.lastIndexOf("/") + 1);
window.parent.location.href = tmp.concat(newLocation);
}
} else {
window.parent.location.hash = newLocation;
}
}
]]></script>
    </defs>
    <g fill="rgb(238,238,255)" transform="matrix(0.5778,0,0,0.5778,119.6,201.0667)" stroke="rgb(238,238,255)">
      <rect width="400.7766" x="427.22" height="17.9688" y="-26" stroke="none"/>
    </g>
    <g fill="rgb(166,166,178)" stroke-miterlimit="1.45" transform="matrix(0.5778,0,0,0.5778,119.6,201.0667)" stroke-linecap="butt" stroke="rgb(166,166,178)">
      <rect fill="none" width="400.7766" x="427.22" height="17.9688" y="-26"/>
    </g>
    <g fill="rgb(238,238,255)" transform="matrix(0.5778,0,0,0.5778,119.6,201.0667)" stroke="rgb(238,238,255)">
      <rect width="400.7766" x="427.22" height="171.6953" y="-8.0312" stroke="none"/>
    </g>
    <g fill="rgb(166,166,178)" stroke-miterlimit="1.45" transform="matrix(0.5778,0,0,0.5778,119.6,201.0667)" stroke-linecap="butt" stroke="rgb(166,166,178)">
      <rect fill="none" width="400.7766" x="427.22" height="171.6953" y="-8.0312"/>
    </g>
    <g font-family="sans-serif" transform="matrix(0.5778,0,0,0.5778,119.6,201.0667)">
      <text xml:space="preserve" x="433.22" y="-12.8613" onclick="umlload('../../../../../../../com/msopentech/odatajclient/engine/data/metadata/edm/package-summary.html')" stroke="none">com.msopentech.odatajclient.engine.data.metadata.edm</text>
    </g>
    <g fill="rgb(187,187,255)" transform="matrix(0.5778,0,0,0.5778,119.6,201.0667)" stroke="rgb(187,187,255)">
      <rect x="435.22" y="0" clip-path="url(#clipPath2)" width="94.76" height="23.1328" stroke="none"/>
    </g>
    <g fill="rgb(130,130,178)" stroke-miterlimit="1.45" transform="matrix(0.5778,0,0,0.5778,119.6,201.0667)" stroke-linecap="butt" stroke="rgb(130,130,178)">
      <rect fill="none" width="94.76" x="435.22" height="23.1328" y="0"/>
    </g>
    <g font-size="13" font-weight="bold" font-family="sans-serif" transform="matrix(0.5778,0,0,0.5778,119.6,201.0667)">
      <text xml:space="preserve" x="440.6" y="16.0669" onclick="umlload('../../../../../../../com/msopentech/odatajclient/engine/data/metadata/edm/Association.html')" stroke="none">Association</text>
    </g>
    <g fill="rgb(187,187,255)" transform="matrix(0.5778,0,0,0.5778,119.6,201.0667)" stroke="rgb(187,187,255)">
      <rect x="435.22" y="33.1328" clip-path="url(#clipPath3)" width="110.21" height="23.1328" stroke="none"/>
    </g>
    <g fill="rgb(130,130,178)" stroke-miterlimit="1.45" transform="matrix(0.5778,0,0,0.5778,119.6,201.0667)" stroke-linecap="butt" stroke="rgb(130,130,178)">
      <rect fill="none" width="110.21" x="435.22" height="23.1328" y="33.1328"/>
    </g>
    <g font-size="13" font-weight="bold" font-family="sans-serif" transform="matrix(0.5778,0,0,0.5778,119.6,201.0667)">
      <text xml:space="preserve" x="440.825" y="49.1997" onclick="umlload('../../../../../../../com/msopentech/odatajclient/engine/data/metadata/edm/ComplexType.html')" stroke="none">ComplexType</text>
    </g>
    <g fill="rgb(187,187,255)" transform="matrix(0.5778,0,0,0.5778,119.6,201.0667)" stroke="rgb(187,187,255)">
      <rect x="435.22" y="66.2656" clip-path="url(#clipPath4)" width="124.63" height="23.1328" stroke="none"/>
    </g>
    <g fill="rgb(130,130,178)" stroke-miterlimit="1.45" transform="matrix(0.5778,0,0,0.5778,119.6,201.0667)" stroke-linecap="butt" stroke="rgb(130,130,178)">
      <rect fill="none" width="124.63" x="435.22" height="23.1328" y="66.2656"/>
    </g>
    <g font-size="13" font-weight="bold" font-family="sans-serif" transform="matrix(0.5778,0,0,0.5778,119.6,201.0667)">
      <text xml:space="preserve" x="441.035" y="82.3325" onclick="umlload('../../../../../../../com/msopentech/odatajclient/engine/data/metadata/edm/EntityContainer.html')" stroke="none">EntityContainer</text>
    </g>
    <g fill="rgb(187,187,255)" transform="matrix(0.5778,0,0,0.5778,119.6,201.0667)" stroke="rgb(187,187,255)">
      <rect x="435.22" y="99.3984" clip-path="url(#clipPath5)" width="87.55" height="23.1328" stroke="none"/>
    </g>
    <g fill="rgb(130,130,178)" stroke-miterlimit="1.45" transform="matrix(0.5778,0,0,0.5778,119.6,201.0667)" stroke-linecap="butt" stroke="rgb(130,130,178)">
      <rect fill="none" width="87.55" x="435.22" height="23.1328" y="99.3984"/>
    </g>
    <g font-size="13" font-weight="bold" font-family="sans-serif" transform="matrix(0.5778,0,0,0.5778,119.6,201.0667)">
      <text xml:space="preserve" x="440.495" y="115.4653" onclick="umlload('../../../../../../../com/msopentech/odatajclient/engine/data/metadata/edm/EntityType.html')" stroke="none">EntityType</text>
    </g>
    <g fill="rgb(187,187,255)" transform="matrix(0.5778,0,0,0.5778,119.6,201.0667)" stroke="rgb(187,187,255)">
      <rect x="435.22" y="132.5312" clip-path="url(#clipPath6)" width="86.52" height="23.1328" stroke="none"/>
    </g>
    <g fill="rgb(130,130,178)" stroke-miterlimit="1.45" transform="matrix(0.5778,0,0,0.5778,119.6,201.0667)" stroke-linecap="butt" stroke="rgb(130,130,178)">
      <rect fill="none" width="86.52" x="435.22" height="23.1328" y="132.5312"/>
    </g>
    <g font-size="13" font-weight="bold" font-family="sans-serif" transform="matrix(0.5778,0,0,0.5778,119.6,201.0667)">
      <text xml:space="preserve" x="440.48" y="148.5981" onclick="umlload('../../../../../../../com/msopentech/odatajclient/engine/data/metadata/edm/EnumType.html')" stroke="none">EnumType</text>
    </g>
    <g fill="rgb(238,238,255)" transform="matrix(0.5778,0,0,0.5778,119.6,201.0667)" stroke="rgb(238,238,255)">
      <rect width="67.654" x="-206.5542" height="17.9688" y="61.1328" stroke="none"/>
    </g>
    <g fill="rgb(166,166,178)" stroke-miterlimit="1.45" transform="matrix(0.5778,0,0,0.5778,119.6,201.0667)" stroke-linecap="butt" stroke="rgb(166,166,178)">
      <rect fill="none" width="67.654" x="-206.5542" height="17.9688" y="61.1328"/>
    </g>
    <g fill="rgb(238,238,255)" transform="matrix(0.5778,0,0,0.5778,119.6,201.0667)" stroke="rgb(238,238,255)">
      <rect width="148.5542" x="-206.5542" height="91.4607" y="79.1016" stroke="none"/>
    </g>
    <g fill="rgb(166,166,178)" stroke-miterlimit="1.45" transform="matrix(0.5778,0,0,0.5778,119.6,201.0667)" stroke-linecap="butt" stroke="rgb(166,166,178)">
      <rect fill="none" width="148.5542" x="-206.5542" height="91.4607" y="79.1016"/>
    </g>
    <g font-family="sans-serif" transform="matrix(0.5778,0,0,0.5778,119.6,201.0667)">
      <text xml:space="preserve" x="-200.5542" y="74.2715" onclick="umlload('http://docs.oracle.com/javase/6/docs/api/java/util/package-summary.html')" stroke="none">java.util</text>
    </g>
    <g fill="rgb(221,221,255)" transform="matrix(0.5778,0,0,0.5778,119.6,201.0667)" stroke="rgb(221,221,255)">
      <rect x="-198.5542" y="87.1328" clip-path="url(#clipPath7)" width="94.6816" height="32.7147" stroke="none"/>
    </g>
    <g fill="rgb(154,154,178)" stroke-miterlimit="1.45" transform="matrix(0.5778,0,0,0.5778,119.6,201.0667)" stroke-linecap="butt" stroke="rgb(154,154,178)">
      <ellipse rx="47.3408" fill="none" ry="16.3574" cx="-151.2134" cy="103.4902"/>
    </g>
    <g font-style="italic" font-size="13" font-weight="bold" font-family="sans-serif" transform="matrix(0.5778,0,0,0.5778,119.6,201.0667)">
      <text xml:space="preserve" x="-179.7134" y="107.9907" onclick="umlload('http://docs.oracle.com/javase/6/docs/api/java/util/List.html')" stroke="none">List&lt;E&gt;</text>
    </g>
    <g fill="rgb(221,221,255)" transform="matrix(0.5778,0,0,0.5778,119.6,201.0667)" stroke="rgb(221,221,255)">
      <rect x="-198.5542" y="129.8475" clip-path="url(#clipPath8)" width="132.5542" height="32.7147" stroke="none"/>
    </g>
    <g fill="rgb(154,154,178)" stroke-miterlimit="1.45" transform="matrix(0.5778,0,0,0.5778,119.6,201.0667)" stroke-linecap="butt" stroke="rgb(154,154,178)">
      <ellipse rx="66.2771" fill="none" ry="16.3574" cx="-132.2771" cy="146.2049"/>
    </g>
    <g font-style="italic" font-size="13" font-weight="bold" font-family="sans-serif" transform="matrix(0.5778,0,0,0.5778,119.6,201.0667)">
      <text xml:space="preserve" x="-173.7771" y="150.7054" onclick="umlload('http://docs.oracle.com/javase/6/docs/api/java/util/Map.html')" stroke="none">Map&lt;K, V&gt;</text>
    </g>
    <g fill="rgb(238,238,255)" transform="matrix(0.5778,0,0,0.5778,119.6,201.0667)" stroke="rgb(238,238,255)">
      <rect width="76.1412" x="-138.04" height="17.9688" y="-26" stroke="none"/>
    </g>
    <g fill="rgb(166,166,178)" stroke-miterlimit="1.45" transform="matrix(0.5778,0,0,0.5778,119.6,201.0667)" stroke-linecap="butt" stroke="rgb(166,166,178)">
      <rect fill="none" width="76.1412" x="-138.04" height="17.9688" y="-26"/>
    </g>
    <g fill="rgb(238,238,255)" transform="matrix(0.5778,0,0,0.5778,119.6,201.0667)" stroke="rgb(238,238,255)">
      <rect width="79.56" x="-138.04" height="39.1641" y="-8.0312" stroke="none"/>
    </g>
    <g fill="rgb(166,166,178)" stroke-miterlimit="1.45" transform="matrix(0.5778,0,0,0.5778,119.6,201.0667)" stroke-linecap="butt" stroke="rgb(166,166,178)">
      <rect fill="none" width="79.56" x="-138.04" height="39.1641" y="-8.0312"/>
    </g>
    <g font-family="sans-serif" transform="matrix(0.5778,0,0,0.5778,119.6,201.0667)">
      <text xml:space="preserve" x="-132.04" y="-12.8613" onclick="umlload('http://docs.oracle.com/javase/6/docs/api/java/lang/package-summary.html')" stroke="none">java.lang</text>
    </g>
    <g fill="rgb(187,187,255)" transform="matrix(0.5778,0,0,0.5778,119.6,201.0667)" stroke="rgb(187,187,255)">
      <rect x="-130.04" y="0" clip-path="url(#clipPath9)" width="53.56" height="23.1328" stroke="none"/>
    </g>
    <g fill="rgb(130,130,178)" stroke-miterlimit="1.45" transform="matrix(0.5778,0,0,0.5778,119.6,201.0667)" stroke-linecap="butt" stroke="rgb(130,130,178)">
      <rect fill="none" width="53.56" x="-130.04" height="23.1328" y="0"/>
    </g>
    <g font-size="13" font-weight="bold" font-family="sans-serif" transform="matrix(0.5778,0,0,0.5778,119.6,201.0667)">
      <text xml:space="preserve" x="-125.26" y="16.0669" onclick="umlload('http://docs.oracle.com/javase/6/docs/api/java/lang/String.html')" stroke="none">String</text>
    </g>
    <g fill="rgb(238,238,255)" transform="matrix(0.5778,0,0,0.5778,119.6,201.0667)" stroke="rgb(238,238,255)">
      <rect width="400.7766" x="-34.875" height="17.9688" y="-133.1328" stroke="none"/>
    </g>
    <g fill="rgb(166,166,178)" stroke-miterlimit="1.45" transform="matrix(0.5778,0,0,0.5778,119.6,201.0667)" stroke-linecap="butt" stroke="rgb(166,166,178)">
      <rect fill="none" width="400.7766" x="-34.875" height="17.9688" y="-133.1328"/>
    </g>
    <g fill="rgb(238,238,255)" transform="matrix(0.5778,0,0,0.5778,119.6,201.0667)" stroke="rgb(238,238,255)">
      <rect width="400.93" x="-34.875" height="39.1641" y="-115.1641" stroke="none"/>
    </g>
    <g fill="rgb(166,166,178)" stroke-miterlimit="1.45" transform="matrix(0.5778,0,0,0.5778,119.6,201.0667)" stroke-linecap="butt" stroke="rgb(166,166,178)">
      <rect fill="none" width="400.93" x="-34.875" height="39.1641" y="-115.1641"/>
    </g>
    <g font-family="sans-serif" transform="matrix(0.5778,0,0,0.5778,119.6,201.0667)">
      <text xml:space="preserve" x="-28.875" y="-119.9941" onclick="umlload('../../../../../../../com/msopentech/odatajclient/engine/data/metadata/edm/package-summary.html')" stroke="none">com.msopentech.odatajclient.engine.data.metadata.edm</text>
    </g>
    <g fill="rgb(204,204,255)" transform="matrix(0.5778,0,0,0.5778,119.6,201.0667)" stroke="rgb(204,204,255)">
      <rect x="90.125" y="-107.1328" clip-path="url(#clipPath10)" width="134.93" height="23.1328" stroke="none"/>
    </g>
    <g fill="rgb(142,142,178)" stroke-miterlimit="1.45" transform="matrix(0.5778,0,0,0.5778,119.6,201.0667)" stroke-linecap="butt" stroke="rgb(142,142,178)">
      <rect fill="none" width="134.93" x="90.125" height="23.1328" y="-107.1328"/>
    </g>
    <g font-size="13" font-weight="bold" font-family="sans-serif" transform="matrix(0.5778,0,0,0.5778,119.6,201.0667)">
      <text xml:space="preserve" x="96.09" y="-91.0659" onclick="umlload('../../../../../../../com/msopentech/odatajclient/engine/data/metadata/edm/AbstractElement.html')" stroke="none">AbstractElement</text>
    </g>
    <g fill="rgb(238,238,255)" transform="matrix(0.5778,0,0,0.5778,119.6,201.0667)" stroke="rgb(238,238,255)">
      <rect width="400.7766" x="-8" height="17.9688" y="-26" stroke="none"/>
    </g>
    <g fill="rgb(166,166,178)" stroke-miterlimit="1.45" transform="matrix(0.5778,0,0,0.5778,119.6,201.0667)" stroke-linecap="butt" stroke="rgb(166,166,178)">
      <rect fill="none" width="400.7766" x="-8" height="17.9688" y="-26"/>
    </g>
    <g fill="rgb(238,238,255)" transform="matrix(0.5778,0,0,0.5778,119.6,201.0667)" stroke="rgb(238,238,255)">
      <rect width="401.18" x="-8" height="444.875" y="-8.0312" stroke="none"/>
    </g>
    <g fill="rgb(166,166,178)" stroke-miterlimit="1.45" transform="matrix(0.5778,0,0,0.5778,119.6,201.0667)" stroke-linecap="butt" stroke="rgb(166,166,178)">
      <rect fill="none" width="401.18" x="-8" height="444.875" y="-8.0312"/>
    </g>
    <g font-family="sans-serif" transform="matrix(0.5778,0,0,0.5778,119.6,201.0667)">
      <text xml:space="preserve" x="-2" y="-12.8613" onclick="umlload('package-summary.html')" stroke="none">com.msopentech.odatajclient.engine.data.metadata.edm</text>
    </g>
    <g fill="rgb(187,187,255)" transform="matrix(0.5778,0,0,0.5778,119.6,201.0667)" stroke="rgb(187,187,255)">
      <rect x="0" y="0" clip-path="url(#clipPath11)" width="315.18" height="26.625" stroke="none"/>
      <line clip-path="url(#clipPath11)" fill="none" x1="0" x2="315.18" y1="26.625" y2="26.625" stroke="black"/>
      <rect x="0" y="27.625" clip-path="url(#clipPath11)" width="315.18" height="63.875" stroke="none"/>
      <line clip-path="url(#clipPath11)" fill="none" x1="0" x2="315.18" y1="91.5" y2="91.5" stroke="black"/>
      <rect x="0" y="92.5" clip-path="url(#clipPath11)" width="315.18" height="15.9688" stroke="none"/>
      <line clip-path="url(#clipPath11)" fill="none" x1="0" x2="315.18" y1="108.4688" y2="108.4688" stroke="black"/>
      <rect x="0" y="109.4688" clip-path="url(#clipPath11)" width="315.18" height="319.375" stroke="none"/>
    </g>
    <g fill="rgb(130,130,178)" stroke-miterlimit="1.45" transform="matrix(0.5778,0,0,0.5778,119.6,201.0667)" stroke-linecap="butt" stroke="rgb(130,130,178)">
      <rect fill="none" width="315.18" x="0" height="428.8438" y="0"/>
    </g>
    <g font-size="16" font-weight="bold" font-family="sans-serif" transform="matrix(0.5778,0,0,0.5778,119.6,201.0667)">
      <text xml:space="preserve" x="123.09" y="18.8516" onclick="umlload('#')" stroke="none">Schema</text>
    </g>
    <g font-family="sans-serif" transform="matrix(0.5778,0,0,0.5778,119.6,201.0667)">
      <text xml:space="preserve" x="4" y="38.1719" stroke="none">#</text>
      <text xml:space="preserve" x="19" y="39.7637" onclick="umlload('#alias')" stroke="none">alias : String</text>
    </g>
    <g font-family="sans-serif" transform="matrix(0.5778,0,0,0.5778,119.6,201.0667)">
      <text xml:space="preserve" x="4" y="54.1719" stroke="none">#</text>
      <text xml:space="preserve" x="19" y="55.7324" onclick="umlload('#any')" stroke="none">any : List&lt;Object&gt;</text>
    </g>
    <g font-family="sans-serif" transform="matrix(0.5778,0,0,0.5778,119.6,201.0667)">
      <text xml:space="preserve" x="4" y="70.1719" stroke="none">#</text>
      <text xml:space="preserve" x="19" y="71.7012" onclick="umlload('#gSchemaBodyElements')" stroke="none">gSchemaBodyElements : List&lt;Object&gt;</text>
    </g>
    <g font-family="sans-serif" transform="matrix(0.5778,0,0,0.5778,119.6,201.0667)">
      <text xml:space="preserve" x="4" y="86.1719" stroke="none">#</text>
      <text xml:space="preserve" x="19" y="87.6699" onclick="umlload('#namespace')" stroke="none">namespace : String</text>
    </g>
    <g font-family="sans-serif" transform="matrix(0.5778,0,0,0.5778,119.6,201.0667)">
      <text xml:space="preserve" x="4" y="103.1719" stroke="none">+</text>
      <text xml:space="preserve" x="19" y="104.6387" onclick="umlload('#Schema()')" stroke="none">Schema()</text>
    </g>
    <g font-family="sans-serif" transform="matrix(0.5778,0,0,0.5778,119.6,201.0667)">
      <text xml:space="preserve" x="4" y="120.1719" stroke="none">+</text>
      <text xml:space="preserve" x="19" y="121.6074" onclick="umlload('#getAlias()')" stroke="none">getAlias() : String</text>
    </g>
    <g font-family="sans-serif" transform="matrix(0.5778,0,0,0.5778,119.6,201.0667)">
      <text xml:space="preserve" x="4" y="136.1719" stroke="none">+</text>
      <text xml:space="preserve" x="19" y="137.5762" onclick="umlload('#getAny()')" stroke="none">getAny() : List&lt;Object&gt;</text>
    </g>
    <g font-family="sans-serif" transform="matrix(0.5778,0,0,0.5778,119.6,201.0667)">
      <text xml:space="preserve" x="4" y="152.1719" stroke="none">+</text>
      <text xml:space="preserve" x="19" y="153.5449" onclick="umlload('#getAssociation(java.lang.String)')" stroke="none">getAssociation(String) : Association</text>
    </g>
    <g font-family="sans-serif" transform="matrix(0.5778,0,0,0.5778,119.6,201.0667)">
      <text xml:space="preserve" x="4" y="168.1719" stroke="none">+</text>
      <text xml:space="preserve" x="19" y="169.5137" onclick="umlload('#getAssociations()')" stroke="none">getAssociations() : List&lt;Association&gt;</text>
    </g>
    <g font-family="sans-serif" transform="matrix(0.5778,0,0,0.5778,119.6,201.0667)">
      <text xml:space="preserve" x="4" y="184.1719" stroke="none">+</text>
      <text xml:space="preserve" x="19" y="185.4824" onclick="umlload('#getComplexType(java.lang.String)')" stroke="none">getComplexType(String) : ComplexType</text>
    </g>
    <g font-family="sans-serif" transform="matrix(0.5778,0,0,0.5778,119.6,201.0667)">
      <text xml:space="preserve" x="4" y="200.1719" stroke="none">+</text>
      <text xml:space="preserve" x="19" y="201.4512" onclick="umlload('#getComplexTypes()')" stroke="none">getComplexTypes() : List&lt;ComplexType&gt;</text>
    </g>
    <g font-family="sans-serif" transform="matrix(0.5778,0,0,0.5778,119.6,201.0667)">
      <text xml:space="preserve" x="4" y="216.1719" stroke="none">+</text>
      <text xml:space="preserve" x="19" y="217.4199" onclick="umlload('#getDefaultEntityContainer()')" stroke="none">getDefaultEntityContainer() : EntityContainer</text>
    </g>
    <g font-family="sans-serif" transform="matrix(0.5778,0,0,0.5778,119.6,201.0667)">
      <text xml:space="preserve" x="4" y="232.1719" stroke="none">+</text>
      <text xml:space="preserve" x="19" y="233.3887" onclick="umlload('#getEntityContainer(java.lang.String)')" stroke="none">getEntityContainer(String) : EntityContainer</text>
    </g>
    <g font-family="sans-serif" transform="matrix(0.5778,0,0,0.5778,119.6,201.0667)">
      <text xml:space="preserve" x="4" y="248.1719" stroke="none">+</text>
      <text xml:space="preserve" x="19" y="249.3574" onclick="umlload('#getEntityContainers()')" stroke="none">getEntityContainers() : List&lt;EntityContainer&gt;</text>
    </g>
    <g font-family="sans-serif" transform="matrix(0.5778,0,0,0.5778,119.6,201.0667)">
      <text xml:space="preserve" x="4" y="264.1719" stroke="none">+</text>
      <text xml:space="preserve" x="19" y="265.3262" onclick="umlload('#getEntityType(java.lang.String)')" stroke="none">getEntityType(String) : EntityType</text>
    </g>
    <g font-family="sans-serif" transform="matrix(0.5778,0,0,0.5778,119.6,201.0667)">
      <text xml:space="preserve" x="4" y="280.1719" stroke="none">+</text>
      <text xml:space="preserve" x="19" y="281.2949" onclick="umlload('#getEntityTypes()')" stroke="none">getEntityTypes() : List&lt;EntityType&gt;</text>
    </g>
    <g font-family="sans-serif" transform="matrix(0.5778,0,0,0.5778,119.6,201.0667)">
      <text xml:space="preserve" x="4" y="296.1719" stroke="none">+</text>
      <text xml:space="preserve" x="19" y="297.2637" onclick="umlload('#getEnumType(java.lang.String)')" stroke="none">getEnumType(String) : EnumType</text>
    </g>
    <g font-family="sans-serif" transform="matrix(0.5778,0,0,0.5778,119.6,201.0667)">
      <text xml:space="preserve" x="4" y="312.1719" stroke="none">+</text>
      <text xml:space="preserve" x="19" y="313.2324" onclick="umlload('#getEnumTypes()')" stroke="none">getEnumTypes() : List&lt;EnumType&gt;</text>
    </g>
    <g font-family="sans-serif" transform="matrix(0.5778,0,0,0.5778,119.6,201.0667)">
      <text xml:space="preserve" x="4" y="328.1719" stroke="none">+</text>
      <text xml:space="preserve" x="19" y="329.2012" onclick="umlload('#getNamespace()')" stroke="none">getNamespace() : String</text>
    </g>
    <g font-family="sans-serif" transform="matrix(0.5778,0,0,0.5778,119.6,201.0667)">
      <text xml:space="preserve" x="4" y="344.1719" stroke="none">+</text>
      <text xml:space="preserve" x="19" y="345.1699" onclick="umlload('#getOtherAttributes()')" stroke="none">getOtherAttributes() : Map&lt;QName, String&gt;</text>
    </g>
    <g font-family="sans-serif" transform="matrix(0.5778,0,0,0.5778,119.6,201.0667)">
      <text xml:space="preserve" x="4" y="359.1719" stroke="none">+</text>
      <text xml:space="preserve" x="19" y="361.1387" onclick="umlload('#getRowTypes()')" stroke="none">getRowTypes() : List&lt;RowType&gt;</text>
    </g>
    <g font-family="sans-serif" transform="matrix(0.5778,0,0,0.5778,119.6,201.0667)">
      <text xml:space="preserve" x="4" y="375.1719" stroke="none">+</text>
      <text xml:space="preserve" x="19" y="377.1074" onclick="umlload('#getUsings()')" stroke="none">getUsings() : List&lt;Using&gt;</text>
    </g>
    <g font-family="sans-serif" transform="matrix(0.5778,0,0,0.5778,119.6,201.0667)">
      <text xml:space="preserve" x="4" y="391.1719" stroke="none">+</text>
      <text xml:space="preserve" x="19" y="393.0762" onclick="umlload('#getValues()')" stroke="none">getValues() : List&lt;Object&gt;</text>
    </g>
    <g font-family="sans-serif" transform="matrix(0.5778,0,0,0.5778,119.6,201.0667)">
      <text xml:space="preserve" x="4" y="407.1719" stroke="none">+</text>
      <text xml:space="preserve" x="19" y="409.0449" onclick="umlload('#setAlias(java.lang.String)')" stroke="none">setAlias(String) : void</text>
    </g>
    <g font-family="sans-serif" transform="matrix(0.5778,0,0,0.5778,119.6,201.0667)">
      <text xml:space="preserve" x="4" y="423.1719" stroke="none">+</text>
      <text xml:space="preserve" x="19" y="425.0137" onclick="umlload('#setNamespace(java.lang.String)')" stroke="none">setNamespace(String) : void</text>
    </g>
    <g font-family="sans-serif" transform="matrix(0.5778,0,0,0.5778,119.6,201.0667)">
      <text xml:space="preserve" x="-201" y="461.1543" onclick="umlload('http://www.yworks.com/')" stroke="none">yWorks UML Doclet</text>
    </g>
    <g stroke-miterlimit="1.45" transform="matrix(0.5778,0,0,0.5778,119.6,201.0667)" stroke-linecap="butt">
      <path fill="none" d="M157.59 0 L157.59 -69"/>
      <path fill="white" d="M157.59 -84 L151.59 -68 L163.59 -68 Z" stroke="none"/>
      <path fill="none" d="M157.59 -84 L151.59 -68 L163.59 -68 Z"/>
      <path fill="none" d="M0.0037 11.5664 L-76.48 11.5664"/>
      <line stroke-linecap="square" transform="matrix(-1,0,0,-1,-76.48,11.5664)" fill="none" x1="0" x2="-14" y1="0" y2="-4" stroke-miterlimit="10"/>
      <line stroke-linecap="square" transform="matrix(-1,0,0,-1,-76.48,11.5664)" fill="none" x1="0" x2="-14" y1="0" y2="4" stroke-miterlimit="10"/>
    </g>
    <g stroke-miterlimit="1.45" transform="matrix(0.5778,0,0,0.5778,119.6,201.0667)" stroke-linecap="butt">
      <path fill="none" d="M-0.0159 103.4902 L-103.8726 103.4902"/>
      <line stroke-linecap="square" transform="matrix(-1,0,0,-1,-103.8726,103.4902)" fill="none" x1="0" x2="-14" y1="0" y2="-4" stroke-miterlimit="10"/>
      <line stroke-linecap="square" transform="matrix(-1,0,0,-1,-103.8726,103.4902)" fill="none" x1="0" x2="-14" y1="0" y2="4" stroke-miterlimit="10"/>
    </g>
    <g stroke-miterlimit="1.45" transform="matrix(0.5778,0,0,0.5778,119.6,201.0667)" stroke-linecap="butt">
      <path fill="none" d="M0.0243 146.2049 L-66 146.2049"/>
      <line stroke-linecap="square" transform="matrix(-1,0,0,-1,-66,146.2049)" fill="none" x1="0" x2="-14" y1="0" y2="-4" stroke-miterlimit="10"/>
      <line stroke-linecap="square" transform="matrix(-1,0,0,-1,-66,146.2049)" fill="none" x1="0" x2="-14" y1="0" y2="4" stroke-miterlimit="10"/>
    </g>
    <g stroke-dasharray="6,2" stroke-miterlimit="1.45" transform="matrix(0.5778,0,0,0.5778,119.6,201.0667)" stroke-linecap="butt">
      <path fill="none" d="M315.2151 11.5664 L435.22 11.5664"/>
      <line stroke-linecap="square" transform="matrix(1,0,0,1,435.22,11.5664)" fill="none" x1="0" x2="-14" y1="0" y2="-4" stroke-dasharray="none" stroke-miterlimit="10"/>
      <line stroke-linecap="square" transform="matrix(1,0,0,1,435.22,11.5664)" fill="none" x1="0" x2="-14" y1="0" y2="4" stroke-dasharray="none" stroke-miterlimit="10"/>
    </g>
    <g stroke-dasharray="6,2" stroke-miterlimit="1.45" transform="matrix(0.5778,0,0,0.5778,119.6,201.0667)" stroke-linecap="butt">
      <path fill="none" d="M315.1436 44.6992 L435.22 44.6992"/>
      <line stroke-linecap="square" transform="matrix(1,0,0,1,435.22,44.6992)" fill="none" x1="0" x2="-14" y1="0" y2="-4" stroke-dasharray="none" stroke-miterlimit="10"/>
      <line stroke-linecap="square" transform="matrix(1,0,0,1,435.22,44.6992)" fill="none" x1="0" x2="-14" y1="0" y2="4" stroke-dasharray="none" stroke-miterlimit="10"/>
    </g>
    <g stroke-dasharray="6,2" stroke-miterlimit="1.45" transform="matrix(0.5778,0,0,0.5778,119.6,201.0667)" stroke-linecap="butt">
      <path fill="none" d="M315.1548 77.832 L435.22 77.832"/>
      <line stroke-linecap="square" transform="matrix(1,0,0,1,435.22,77.832)" fill="none" x1="0" x2="-14" y1="0" y2="-4" stroke-dasharray="none" stroke-miterlimit="10"/>
      <line stroke-linecap="square" transform="matrix(1,0,0,1,435.22,77.832)" fill="none" x1="0" x2="-14" y1="0" y2="4" stroke-dasharray="none" stroke-miterlimit="10"/>
    </g>
    <g stroke-dasharray="6,2" stroke-miterlimit="1.45" transform="matrix(0.5778,0,0,0.5778,119.6,201.0667)" stroke-linecap="butt">
      <path fill="none" d="M315.193 110.9648 L435.22 110.9648"/>
      <line stroke-linecap="square" transform="matrix(1,0,0,1,435.22,110.9648)" fill="none" x1="0" x2="-14" y1="0" y2="-4" stroke-dasharray="none" stroke-miterlimit="10"/>
      <line stroke-linecap="square" transform="matrix(1,0,0,1,435.22,110.9648)" fill="none" x1="0" x2="-14" y1="0" y2="4" stroke-dasharray="none" stroke-miterlimit="10"/>
    </g>
    <g stroke-dasharray="6,2" stroke-miterlimit="1.45" transform="matrix(0.5778,0,0,0.5778,119.6,201.0667)" stroke-linecap="butt">
      <path fill="none" d="M315.1755 144.0977 L435.22 144.0977"/>
      <line stroke-linecap="square" transform="matrix(1,0,0,1,435.22,144.0977)" fill="none" x1="0" x2="-14" y1="0" y2="-4" stroke-dasharray="none" stroke-miterlimit="10"/>
      <line stroke-linecap="square" transform="matrix(1,0,0,1,435.22,144.0977)" fill="none" x1="0" x2="-14" y1="0" y2="4" stroke-dasharray="none" stroke-miterlimit="10"/>
    </g>
  </g>
</svg>
