<?xml version="1.0" encoding="UTF-8"?><svg xmlns="http://www.w3.org/2000/svg" xmlns:xlink="http://www.w3.org/1999/xlink" fill-opacity="1" color-rendering="auto" color-interpolation="auto" stroke="black" text-rendering="auto" stroke-linecap="square" width="598" stroke-miterlimit="10" stroke-opacity="1" shape-rendering="auto" fill="black" stroke-dasharray="none" font-weight="normal" stroke-width="1" height="598" font-family="'Dialog'" font-style="normal" stroke-linejoin="miter" font-size="12" stroke-dashoffset="0" image-rendering="auto">
  <!--Generated by ySVG-->
  <defs id="genericDefs"/>
  <g>
    <defs id="defs1">
      <clipPath clipPathUnits="userSpaceOnUse" id="clipPath1">
        <path d="M0 0 L598 0 L598 598 L0 598 L0 0 Z"/>
      </clipPath>
      <clipPath clipPathUnits="userSpaceOnUse" id="clipPath2">
        <path d="M-249.34 500.2263 L-66 500.2263 L-66 523.3592 L-249.34 523.3592 L-249.34 500.2263 Z"/>
      </clipPath>
      <clipPath clipPathUnits="userSpaceOnUse" id="clipPath3">
        <path d="M-103.8726 377.1542 C-103.8726 386.1882 -125.0678 393.5116 -151.2134 393.5116 C-177.359 393.5116 -198.5542 386.1882 -198.5542 377.1542 C-198.5542 368.1203 -177.359 360.7969 -151.2134 360.7969 C-125.0678 360.7969 -103.8726 368.1203 -103.8726 377.1542 Z"/>
      </clipPath>
      <clipPath clipPathUnits="userSpaceOnUse" id="clipPath4">
        <path d="M-66 419.869 C-66 428.9029 -95.6733 436.2263 -132.2771 436.2263 C-168.881 436.2263 -198.5542 428.9029 -198.5542 419.869 C-198.5542 410.8351 -168.881 403.5116 -132.2771 403.5116 C-95.6733 403.5116 -66 410.8351 -66 419.869 Z"/>
      </clipPath>
      <clipPath clipPathUnits="userSpaceOnUse" id="clipPath5">
        <path d="M-159.73 240.5312 L-66 240.5312 L-66 263.6641 L-159.73 263.6641 L-159.73 240.5312 Z"/>
      </clipPath>
      <clipPath clipPathUnits="userSpaceOnUse" id="clipPath6">
        <path d="M-159.73 273.6641 L-72.18 273.6641 L-72.18 296.7969 L-159.73 296.7969 L-159.73 273.6641 Z"/>
      </clipPath>
      <clipPath clipPathUnits="userSpaceOnUse" id="clipPath7">
        <path d="M-135.01 87.1328 L-66 87.1328 L-66 110.2656 L-135.01 110.2656 L-135.01 87.1328 Z"/>
      </clipPath>
      <clipPath clipPathUnits="userSpaceOnUse" id="clipPath8">
        <path d="M-135.01 120.2656 L-73.21 120.2656 L-73.21 143.3984 L-135.01 143.3984 L-135.01 120.2656 Z"/>
      </clipPath>
      <clipPath clipPathUnits="userSpaceOnUse" id="clipPath9">
        <path d="M-135.01 153.3984 L-81.45 153.3984 L-81.45 176.5312 L-135.01 176.5312 L-135.01 153.3984 Z"/>
      </clipPath>
      <clipPath clipPathUnits="userSpaceOnUse" id="clipPath10">
        <path d="M-445.22 0 L-321.62 0 L-321.62 23.1328 L-445.22 23.1328 L-445.22 0 Z"/>
      </clipPath>
      <clipPath clipPathUnits="userSpaceOnUse" id="clipPath11">
        <path d="M139.565 -107.1328 L197.245 -107.1328 L197.245 -84 L139.565 -84 L139.565 -107.1328 Z"/>
      </clipPath>
      <clipPath clipPathUnits="userSpaceOnUse" id="clipPath12">
        <path d="M0 0 L336.81 0 L336.81 764.1875 L0 764.1875 L0 0 Z"/>
      </clipPath>
      <script type="text/ecmascript"><![CDATA[
function umlload(newLocation)
{
if (newLocation.charAt(0) != '#') {
if (newLocation.indexOf("://") > -1) {
window.parent.location.href = newLocation;
} else {
var tmp = window.parent.location.href;
tmp = tmp.substring(0, tmp.lastIndexOf("/") + 1);
window.parent.location.href = tmp.concat(newLocation);
}
} else {
window.parent.location.hash = newLocation;
}
}
]]></script>
    </defs>
    <g fill="rgb(238,238,255)" transform="matrix(0.6348,0,0,0.6348,318.0446,85.0658)" stroke="rgb(238,238,255)">
      <rect width="138.7343" x="-257.34" height="17.9688" y="474.2263" stroke="none"/>
    </g>
    <g fill="rgb(166,166,178)" stroke-miterlimit="1.45" transform="matrix(0.6348,0,0,0.6348,318.0446,85.0658)" stroke-linecap="butt" stroke="rgb(166,166,178)">
      <rect fill="none" width="138.7343" x="-257.34" height="17.9688" y="474.2263"/>
    </g>
    <g fill="rgb(238,238,255)" transform="matrix(0.6348,0,0,0.6348,318.0446,85.0658)" stroke="rgb(238,238,255)">
      <rect width="199.34" x="-257.34" height="39.1641" y="492.1951" stroke="none"/>
    </g>
    <g fill="rgb(166,166,178)" stroke-miterlimit="1.45" transform="matrix(0.6348,0,0,0.6348,318.0446,85.0658)" stroke-linecap="butt" stroke="rgb(166,166,178)">
      <rect fill="none" width="199.34" x="-257.34" height="39.1641" y="492.1951"/>
    </g>
    <g font-family="sans-serif" transform="matrix(0.6348,0,0,0.6348,318.0446,85.0658)">
      <text xml:space="preserve" x="-251.34" y="487.365" onclick="umlload('http://docs.oracle.com/javase/6/docs/api/javax/xml/datatype/package-summary.html')" stroke="none">javax.xml.datatype</text>
    </g>
    <g fill="rgb(204,204,255)" transform="matrix(0.6348,0,0,0.6348,318.0446,85.0658)" stroke="rgb(204,204,255)">
      <rect x="-249.34" y="500.2263" clip-path="url(#clipPath2)" width="183.34" height="23.1328" stroke="none"/>
    </g>
    <g fill="rgb(142,142,178)" stroke-miterlimit="1.45" transform="matrix(0.6348,0,0,0.6348,318.0446,85.0658)" stroke-linecap="butt" stroke="rgb(142,142,178)">
      <rect fill="none" width="183.34" x="-249.34" height="23.1328" y="500.2263"/>
    </g>
    <g font-size="13" font-weight="bold" font-family="sans-serif" transform="matrix(0.6348,0,0,0.6348,318.0446,85.0658)">
      <text xml:space="preserve" x="-242.67" y="516.2933" onclick="umlload('http://docs.oracle.com/javase/6/docs/api/javax/xml/datatype/XMLGregorianCalendar.html')" stroke="none">XMLGregorianCalendar</text>
    </g>
    <g fill="rgb(238,238,255)" transform="matrix(0.6348,0,0,0.6348,318.0446,85.0658)" stroke="rgb(238,238,255)">
      <rect width="67.654" x="-206.5542" height="17.9688" y="334.7969" stroke="none"/>
    </g>
    <g fill="rgb(166,166,178)" stroke-miterlimit="1.45" transform="matrix(0.6348,0,0,0.6348,318.0446,85.0658)" stroke-linecap="butt" stroke="rgb(166,166,178)">
      <rect fill="none" width="67.654" x="-206.5542" height="17.9688" y="334.7969"/>
    </g>
    <g fill="rgb(238,238,255)" transform="matrix(0.6348,0,0,0.6348,318.0446,85.0658)" stroke="rgb(238,238,255)">
      <rect width="148.5542" x="-206.5542" height="91.4607" y="352.7656" stroke="none"/>
    </g>
    <g fill="rgb(166,166,178)" stroke-miterlimit="1.45" transform="matrix(0.6348,0,0,0.6348,318.0446,85.0658)" stroke-linecap="butt" stroke="rgb(166,166,178)">
      <rect fill="none" width="148.5542" x="-206.5542" height="91.4607" y="352.7656"/>
    </g>
    <g font-family="sans-serif" transform="matrix(0.6348,0,0,0.6348,318.0446,85.0658)">
      <text xml:space="preserve" x="-200.5542" y="347.9355" onclick="umlload('http://docs.oracle.com/javase/6/docs/api/java/util/package-summary.html')" stroke="none">java.util</text>
    </g>
    <g fill="rgb(221,221,255)" transform="matrix(0.6348,0,0,0.6348,318.0446,85.0658)" stroke="rgb(221,221,255)">
      <rect x="-198.5542" y="360.7969" clip-path="url(#clipPath3)" width="94.6816" height="32.7147" stroke="none"/>
    </g>
    <g fill="rgb(154,154,178)" stroke-miterlimit="1.45" transform="matrix(0.6348,0,0,0.6348,318.0446,85.0658)" stroke-linecap="butt" stroke="rgb(154,154,178)">
      <ellipse rx="47.3408" fill="none" ry="16.3574" cx="-151.2134" cy="377.1542"/>
    </g>
    <g font-style="italic" font-size="13" font-weight="bold" font-family="sans-serif" transform="matrix(0.6348,0,0,0.6348,318.0446,85.0658)">
      <text xml:space="preserve" x="-179.7134" y="381.6547" onclick="umlload('http://docs.oracle.com/javase/6/docs/api/java/util/List.html')" stroke="none">List&lt;E&gt;</text>
    </g>
    <g fill="rgb(221,221,255)" transform="matrix(0.6348,0,0,0.6348,318.0446,85.0658)" stroke="rgb(221,221,255)">
      <rect x="-198.5542" y="403.5116" clip-path="url(#clipPath4)" width="132.5542" height="32.7147" stroke="none"/>
    </g>
    <g fill="rgb(154,154,178)" stroke-miterlimit="1.45" transform="matrix(0.6348,0,0,0.6348,318.0446,85.0658)" stroke-linecap="butt" stroke="rgb(154,154,178)">
      <ellipse rx="66.2771" fill="none" ry="16.3574" cx="-132.2771" cy="419.869"/>
    </g>
    <g font-style="italic" font-size="13" font-weight="bold" font-family="sans-serif" transform="matrix(0.6348,0,0,0.6348,318.0446,85.0658)">
      <text xml:space="preserve" x="-173.7771" y="424.3695" onclick="umlload('http://docs.oracle.com/javase/6/docs/api/java/util/Map.html')" stroke="none">Map&lt;K, V&gt;</text>
    </g>
    <g fill="rgb(238,238,255)" transform="matrix(0.6348,0,0,0.6348,318.0446,85.0658)" stroke="rgb(238,238,255)">
      <rect width="81.4457" x="-167.73" height="17.9688" y="214.5312" stroke="none"/>
    </g>
    <g fill="rgb(166,166,178)" stroke-miterlimit="1.45" transform="matrix(0.6348,0,0,0.6348,318.0446,85.0658)" stroke-linecap="butt" stroke="rgb(166,166,178)">
      <rect fill="none" width="81.4457" x="-167.73" height="17.9688" y="214.5312"/>
    </g>
    <g fill="rgb(238,238,255)" transform="matrix(0.6348,0,0,0.6348,318.0446,85.0658)" stroke="rgb(238,238,255)">
      <rect width="109.73" x="-167.73" height="72.2969" y="232.5" stroke="none"/>
    </g>
    <g fill="rgb(166,166,178)" stroke-miterlimit="1.45" transform="matrix(0.6348,0,0,0.6348,318.0446,85.0658)" stroke-linecap="butt" stroke="rgb(166,166,178)">
      <rect fill="none" width="109.73" x="-167.73" height="72.2969" y="232.5"/>
    </g>
    <g font-family="sans-serif" transform="matrix(0.6348,0,0,0.6348,318.0446,85.0658)">
      <text xml:space="preserve" x="-161.73" y="227.6699" onclick="umlload('http://docs.oracle.com/javase/6/docs/api/java/math/package-summary.html')" stroke="none">java.math</text>
    </g>
    <g fill="rgb(187,187,255)" transform="matrix(0.6348,0,0,0.6348,318.0446,85.0658)" stroke="rgb(187,187,255)">
      <rect x="-159.73" y="240.5312" clip-path="url(#clipPath5)" width="93.73" height="23.1328" stroke="none"/>
    </g>
    <g fill="rgb(130,130,178)" stroke-miterlimit="1.45" transform="matrix(0.6348,0,0,0.6348,318.0446,85.0658)" stroke-linecap="butt" stroke="rgb(130,130,178)">
      <rect fill="none" width="93.73" x="-159.73" height="23.1328" y="240.5312"/>
    </g>
    <g font-size="13" font-weight="bold" font-family="sans-serif" transform="matrix(0.6348,0,0,0.6348,318.0446,85.0658)">
      <text xml:space="preserve" x="-154.365" y="256.5981" onclick="umlload('http://docs.oracle.com/javase/6/docs/api/java/math/BigDecimal.html')" stroke="none">BigDecimal</text>
    </g>
    <g fill="rgb(187,187,255)" transform="matrix(0.6348,0,0,0.6348,318.0446,85.0658)" stroke="rgb(187,187,255)">
      <rect x="-159.73" y="273.6641" clip-path="url(#clipPath6)" width="87.55" height="23.1328" stroke="none"/>
    </g>
    <g fill="rgb(130,130,178)" stroke-miterlimit="1.45" transform="matrix(0.6348,0,0,0.6348,318.0446,85.0658)" stroke-linecap="butt" stroke="rgb(130,130,178)">
      <rect fill="none" width="87.55" x="-159.73" height="23.1328" y="273.6641"/>
    </g>
    <g font-size="13" font-weight="bold" font-family="sans-serif" transform="matrix(0.6348,0,0,0.6348,318.0446,85.0658)">
      <text xml:space="preserve" x="-154.455" y="289.731" onclick="umlload('http://docs.oracle.com/javase/6/docs/api/java/math/BigInteger.html')" stroke="none">BigInteger</text>
    </g>
    <g fill="rgb(238,238,255)" transform="matrix(0.6348,0,0,0.6348,318.0446,85.0658)" stroke="rgb(238,238,255)">
      <rect width="76.1412" x="-143.01" height="17.9688" y="61.1328" stroke="none"/>
    </g>
    <g fill="rgb(166,166,178)" stroke-miterlimit="1.45" transform="matrix(0.6348,0,0,0.6348,318.0446,85.0658)" stroke-linecap="butt" stroke="rgb(166,166,178)">
      <rect fill="none" width="76.1412" x="-143.01" height="17.9688" y="61.1328"/>
    </g>
    <g fill="rgb(238,238,255)" transform="matrix(0.6348,0,0,0.6348,318.0446,85.0658)" stroke="rgb(238,238,255)">
      <rect width="85.01" x="-143.01" height="105.4297" y="79.1016" stroke="none"/>
    </g>
    <g fill="rgb(166,166,178)" stroke-miterlimit="1.45" transform="matrix(0.6348,0,0,0.6348,318.0446,85.0658)" stroke-linecap="butt" stroke="rgb(166,166,178)">
      <rect fill="none" width="85.01" x="-143.01" height="105.4297" y="79.1016"/>
    </g>
    <g font-family="sans-serif" transform="matrix(0.6348,0,0,0.6348,318.0446,85.0658)">
      <text xml:space="preserve" x="-137.01" y="74.2715" onclick="umlload('http://docs.oracle.com/javase/6/docs/api/java/lang/package-summary.html')" stroke="none">java.lang</text>
    </g>
    <g fill="rgb(187,187,255)" transform="matrix(0.6348,0,0,0.6348,318.0446,85.0658)" stroke="rgb(187,187,255)">
      <rect x="-135.01" y="87.1328" clip-path="url(#clipPath7)" width="69.01" height="23.1328" stroke="none"/>
    </g>
    <g fill="rgb(130,130,178)" stroke-miterlimit="1.45" transform="matrix(0.6348,0,0,0.6348,318.0446,85.0658)" stroke-linecap="butt" stroke="rgb(130,130,178)">
      <rect fill="none" width="69.01" x="-135.01" height="23.1328" y="87.1328"/>
    </g>
    <g font-size="13" font-weight="bold" font-family="sans-serif" transform="matrix(0.6348,0,0,0.6348,318.0446,85.0658)">
      <text xml:space="preserve" x="-130.005" y="103.1997" onclick="umlload('http://docs.oracle.com/javase/6/docs/api/java/lang/Boolean.html')" stroke="none">Boolean</text>
    </g>
    <g fill="rgb(187,187,255)" transform="matrix(0.6348,0,0,0.6348,318.0446,85.0658)" stroke="rgb(187,187,255)">
      <rect x="-135.01" y="120.2656" clip-path="url(#clipPath8)" width="61.8" height="23.1328" stroke="none"/>
    </g>
    <g fill="rgb(130,130,178)" stroke-miterlimit="1.45" transform="matrix(0.6348,0,0,0.6348,318.0446,85.0658)" stroke-linecap="butt" stroke="rgb(130,130,178)">
      <rect fill="none" width="61.8" x="-135.01" height="23.1328" y="120.2656"/>
    </g>
    <g font-size="13" font-weight="bold" font-family="sans-serif" transform="matrix(0.6348,0,0,0.6348,318.0446,85.0658)">
      <text xml:space="preserve" x="-130.11" y="136.3325" onclick="umlload('http://docs.oracle.com/javase/6/docs/api/java/lang/Double.html')" stroke="none">Double</text>
    </g>
    <g fill="rgb(187,187,255)" transform="matrix(0.6348,0,0,0.6348,318.0446,85.0658)" stroke="rgb(187,187,255)">
      <rect x="-135.01" y="153.3984" clip-path="url(#clipPath9)" width="53.56" height="23.1328" stroke="none"/>
    </g>
    <g fill="rgb(130,130,178)" stroke-miterlimit="1.45" transform="matrix(0.6348,0,0,0.6348,318.0446,85.0658)" stroke-linecap="butt" stroke="rgb(130,130,178)">
      <rect fill="none" width="53.56" x="-135.01" height="23.1328" y="153.3984"/>
    </g>
    <g font-size="13" font-weight="bold" font-family="sans-serif" transform="matrix(0.6348,0,0,0.6348,318.0446,85.0658)">
      <text xml:space="preserve" x="-130.23" y="169.4653" onclick="umlload('http://docs.oracle.com/javase/6/docs/api/java/lang/String.html')" stroke="none">String</text>
    </g>
    <g fill="rgb(238,238,255)" transform="matrix(0.6348,0,0,0.6348,318.0446,85.0658)" stroke="rgb(238,238,255)">
      <rect width="400.7766" x="-453.22" height="17.9688" y="-26" stroke="none"/>
    </g>
    <g fill="rgb(166,166,178)" stroke-miterlimit="1.45" transform="matrix(0.6348,0,0,0.6348,318.0446,85.0658)" stroke-linecap="butt" stroke="rgb(166,166,178)">
      <rect fill="none" width="400.7766" x="-453.22" height="17.9688" y="-26"/>
    </g>
    <g fill="rgb(238,238,255)" transform="matrix(0.6348,0,0,0.6348,318.0446,85.0658)" stroke="rgb(238,238,255)">
      <rect width="400.7766" x="-453.22" height="39.1641" y="-8.0312" stroke="none"/>
    </g>
    <g fill="rgb(166,166,178)" stroke-miterlimit="1.45" transform="matrix(0.6348,0,0,0.6348,318.0446,85.0658)" stroke-linecap="butt" stroke="rgb(166,166,178)">
      <rect fill="none" width="400.7766" x="-453.22" height="39.1641" y="-8.0312"/>
    </g>
    <g font-family="sans-serif" transform="matrix(0.6348,0,0,0.6348,318.0446,85.0658)">
      <text xml:space="preserve" x="-447.22" y="-12.8613" onclick="umlload('../../../../../../../com/msopentech/odatajclient/engine/data/metadata/edm/package-summary.html')" stroke="none">com.msopentech.odatajclient.engine.data.metadata.edm</text>
    </g>
    <g fill="rgb(187,187,255)" transform="matrix(0.6348,0,0,0.6348,318.0446,85.0658)" stroke="rgb(187,187,255)">
      <rect x="-445.22" y="0" clip-path="url(#clipPath10)" width="123.6" height="23.1328" stroke="none"/>
    </g>
    <g fill="rgb(130,130,178)" stroke-miterlimit="1.45" transform="matrix(0.6348,0,0,0.6348,318.0446,85.0658)" stroke-linecap="butt" stroke="rgb(130,130,178)">
      <rect fill="none" width="123.6" x="-445.22" height="23.1328" y="0"/>
    </g>
    <g font-size="13" font-weight="bold" font-family="sans-serif" transform="matrix(0.6348,0,0,0.6348,318.0446,85.0658)">
      <text xml:space="preserve" x="-439.42" y="16.0669" onclick="umlload('../../../../../../../com/msopentech/odatajclient/engine/data/metadata/edm/Documentation.html')" stroke="none">Documentation</text>
    </g>
    <g fill="rgb(238,238,255)" transform="matrix(0.6348,0,0,0.6348,318.0446,85.0658)" stroke="rgb(238,238,255)">
      <rect width="76.1412" x="131.565" height="17.9688" y="-133.1328" stroke="none"/>
    </g>
    <g fill="rgb(166,166,178)" stroke-miterlimit="1.45" transform="matrix(0.6348,0,0,0.6348,318.0446,85.0658)" stroke-linecap="butt" stroke="rgb(166,166,178)">
      <rect fill="none" width="76.1412" x="131.565" height="17.9688" y="-133.1328"/>
    </g>
    <g fill="rgb(238,238,255)" transform="matrix(0.6348,0,0,0.6348,318.0446,85.0658)" stroke="rgb(238,238,255)">
      <rect width="76.1412" x="131.565" height="39.1641" y="-115.1641" stroke="none"/>
    </g>
    <g fill="rgb(166,166,178)" stroke-miterlimit="1.45" transform="matrix(0.6348,0,0,0.6348,318.0446,85.0658)" stroke-linecap="butt" stroke="rgb(166,166,178)">
      <rect fill="none" width="76.1412" x="131.565" height="39.1641" y="-115.1641"/>
    </g>
    <g font-family="sans-serif" transform="matrix(0.6348,0,0,0.6348,318.0446,85.0658)">
      <text xml:space="preserve" x="137.565" y="-119.9941" onclick="umlload('http://docs.oracle.com/javase/6/docs/api/java/lang/package-summary.html')" stroke="none">java.lang</text>
    </g>
    <g fill="rgb(187,187,255)" transform="matrix(0.6348,0,0,0.6348,318.0446,85.0658)" stroke="rgb(187,187,255)">
      <rect x="139.565" y="-107.1328" clip-path="url(#clipPath11)" width="57.68" height="23.1328" stroke="none"/>
    </g>
    <g fill="rgb(130,130,178)" stroke-miterlimit="1.45" transform="matrix(0.6348,0,0,0.6348,318.0446,85.0658)" stroke-linecap="butt" stroke="rgb(130,130,178)">
      <rect fill="none" width="57.68" x="139.565" height="23.1328" y="-107.1328"/>
    </g>
    <g font-size="13" font-weight="bold" font-family="sans-serif" transform="matrix(0.6348,0,0,0.6348,318.0446,85.0658)">
      <text xml:space="preserve" x="144.405" y="-91.0659" onclick="umlload('http://docs.oracle.com/javase/6/docs/api/java/lang/Object.html')" stroke="none">Object</text>
    </g>
    <g fill="rgb(238,238,255)" transform="matrix(0.6348,0,0,0.6348,318.0446,85.0658)" stroke="rgb(238,238,255)">
      <rect width="400.7766" x="-8" height="17.9688" y="-26" stroke="none"/>
    </g>
    <g fill="rgb(166,166,178)" stroke-miterlimit="1.45" transform="matrix(0.6348,0,0,0.6348,318.0446,85.0658)" stroke-linecap="butt" stroke="rgb(166,166,178)">
      <rect fill="none" width="400.7766" x="-8" height="17.9688" y="-26"/>
    </g>
    <g fill="rgb(238,238,255)" transform="matrix(0.6348,0,0,0.6348,318.0446,85.0658)" stroke="rgb(238,238,255)">
      <rect width="400.81" x="-8" height="780.2188" y="-8.0312" stroke="none"/>
    </g>
    <g fill="rgb(166,166,178)" stroke-miterlimit="1.45" transform="matrix(0.6348,0,0,0.6348,318.0446,85.0658)" stroke-linecap="butt" stroke="rgb(166,166,178)">
      <rect fill="none" width="400.81" x="-8" height="780.2188" y="-8.0312"/>
    </g>
    <g font-family="sans-serif" transform="matrix(0.6348,0,0,0.6348,318.0446,85.0658)">
      <text xml:space="preserve" x="-2" y="-12.8613" onclick="umlload('package-summary.html')" stroke="none">com.msopentech.odatajclient.engine.data.metadata.edm</text>
    </g>
    <g fill="rgb(187,187,255)" transform="matrix(0.6348,0,0,0.6348,318.0446,85.0658)" stroke="rgb(187,187,255)">
      <rect x="0" y="0" clip-path="url(#clipPath12)" width="336.81" height="26.625" stroke="none"/>
      <line clip-path="url(#clipPath12)" fill="none" x1="0" x2="336.81" y1="26.625" y2="26.625" stroke="black"/>
      <rect x="0" y="27.625" clip-path="url(#clipPath12)" width="336.81" height="239.5312" stroke="none"/>
      <line clip-path="url(#clipPath12)" fill="none" x1="0" x2="336.81" y1="267.1562" y2="267.1562" stroke="black"/>
      <rect x="0" y="268.1562" clip-path="url(#clipPath12)" width="336.81" height="15.9688" stroke="none"/>
      <line clip-path="url(#clipPath12)" fill="none" x1="0" x2="336.81" y1="284.125" y2="284.125" stroke="black"/>
      <rect x="0" y="285.125" clip-path="url(#clipPath12)" width="336.81" height="479.0625" stroke="none"/>
    </g>
    <g fill="rgb(130,130,178)" stroke-miterlimit="1.45" transform="matrix(0.6348,0,0,0.6348,318.0446,85.0658)" stroke-linecap="butt" stroke="rgb(130,130,178)">
      <rect fill="none" width="336.81" x="0" height="764.1875" y="0"/>
    </g>
    <g font-size="16" font-weight="bold" font-family="sans-serif" transform="matrix(0.6348,0,0,0.6348,318.0446,85.0658)">
      <text xml:space="preserve" x="98.405" y="18.8516" onclick="umlload('#')" stroke="none">TypeAnnotation</text>
    </g>
    <g font-family="sans-serif" transform="matrix(0.6348,0,0,0.6348,318.0446,85.0658)">
      <text xml:space="preserve" x="4" y="38.1719" stroke="none">#</text>
      <text xml:space="preserve" x="19" y="39.7637" onclick="umlload('#_float')" stroke="none">_float : Double</text>
    </g>
    <g font-family="sans-serif" transform="matrix(0.6348,0,0,0.6348,318.0446,85.0658)">
      <text xml:space="preserve" x="4" y="54.1719" stroke="none">#</text>
      <text xml:space="preserve" x="19" y="55.7324" onclick="umlload('#_int')" stroke="none">_int : BigInteger</text>
    </g>
    <g font-family="sans-serif" transform="matrix(0.6348,0,0,0.6348,318.0446,85.0658)">
      <text xml:space="preserve" x="4" y="70.1719" stroke="none">#</text>
      <text xml:space="preserve" x="19" y="71.7012" onclick="umlload('#binary')" stroke="none">binary : byte[]</text>
    </g>
    <g font-family="sans-serif" transform="matrix(0.6348,0,0,0.6348,318.0446,85.0658)">
      <text xml:space="preserve" x="4" y="86.1719" stroke="none">#</text>
      <text xml:space="preserve" x="19" y="87.6699" onclick="umlload('#bool')" stroke="none">bool : Boolean</text>
    </g>
    <g font-family="sans-serif" transform="matrix(0.6348,0,0,0.6348,318.0446,85.0658)">
      <text xml:space="preserve" x="4" y="102.1719" stroke="none">#</text>
      <text xml:space="preserve" x="19" y="103.6387" onclick="umlload('#dateTime')" stroke="none">dateTime : XMLGregorianCalendar</text>
    </g>
    <g font-family="sans-serif" transform="matrix(0.6348,0,0,0.6348,318.0446,85.0658)">
      <text xml:space="preserve" x="4" y="118.1719" stroke="none">#</text>
      <text xml:space="preserve" x="19" y="119.6074" onclick="umlload('#dateTimeOffset')" stroke="none">dateTimeOffset : XMLGregorianCalendar</text>
    </g>
    <g font-family="sans-serif" transform="matrix(0.6348,0,0,0.6348,318.0446,85.0658)">
      <text xml:space="preserve" x="4" y="134.1719" stroke="none">#</text>
      <text xml:space="preserve" x="19" y="135.5762" onclick="umlload('#decimal')" stroke="none">decimal : BigDecimal</text>
    </g>
    <g font-family="sans-serif" transform="matrix(0.6348,0,0,0.6348,318.0446,85.0658)">
      <text xml:space="preserve" x="4" y="150.1719" stroke="none">#</text>
      <text xml:space="preserve" x="19" y="151.5449" onclick="umlload('#documentation')" stroke="none">documentation : Documentation</text>
    </g>
    <g font-family="sans-serif" transform="matrix(0.6348,0,0,0.6348,318.0446,85.0658)">
      <text xml:space="preserve" x="4" y="166.1719" stroke="none">#</text>
      <text xml:space="preserve" x="19" y="167.5137" onclick="umlload('#guid')" stroke="none">guid : String</text>
    </g>
    <g font-family="sans-serif" transform="matrix(0.6348,0,0,0.6348,318.0446,85.0658)">
      <text xml:space="preserve" x="4" y="182.1719" stroke="none">#</text>
      <text xml:space="preserve" x="19" y="183.4824" onclick="umlload('#path')" stroke="none">path : String</text>
    </g>
    <g font-family="sans-serif" transform="matrix(0.6348,0,0,0.6348,318.0446,85.0658)">
      <text xml:space="preserve" x="4" y="198.1719" stroke="none">#</text>
      <text xml:space="preserve" x="19" y="199.4512" onclick="umlload('#propertyValueOrAny')" stroke="none">propertyValueOrAny : List&lt;Object&gt;</text>
    </g>
    <g font-family="sans-serif" transform="matrix(0.6348,0,0,0.6348,318.0446,85.0658)">
      <text xml:space="preserve" x="4" y="214.1719" stroke="none">#</text>
      <text xml:space="preserve" x="19" y="215.4199" onclick="umlload('#qualifier')" stroke="none">qualifier : String</text>
    </g>
    <g font-family="sans-serif" transform="matrix(0.6348,0,0,0.6348,318.0446,85.0658)">
      <text xml:space="preserve" x="4" y="230.1719" stroke="none">#</text>
      <text xml:space="preserve" x="19" y="231.3887" onclick="umlload('#string')" stroke="none">string : String</text>
    </g>
    <g font-family="sans-serif" transform="matrix(0.6348,0,0,0.6348,318.0446,85.0658)">
      <text xml:space="preserve" x="4" y="246.1719" stroke="none">#</text>
      <text xml:space="preserve" x="19" y="247.3574" onclick="umlload('#term')" stroke="none">term : String</text>
    </g>
    <g font-family="sans-serif" transform="matrix(0.6348,0,0,0.6348,318.0446,85.0658)">
      <text xml:space="preserve" x="4" y="262.1719" stroke="none">#</text>
      <text xml:space="preserve" x="19" y="263.3262" onclick="umlload('#time')" stroke="none">time : XMLGregorianCalendar</text>
    </g>
    <g font-family="sans-serif" transform="matrix(0.6348,0,0,0.6348,318.0446,85.0658)">
      <text xml:space="preserve" x="4" y="279.1719" stroke="none">+</text>
      <text xml:space="preserve" x="19" y="280.2949" onclick="umlload('#TypeAnnotation()')" stroke="none">TypeAnnotation()</text>
    </g>
    <g font-family="sans-serif" transform="matrix(0.6348,0,0,0.6348,318.0446,85.0658)">
      <text xml:space="preserve" x="4" y="296.1719" stroke="none">+</text>
      <text xml:space="preserve" x="19" y="297.2637" onclick="umlload('#getBinary()')" stroke="none">getBinary() : byte[]</text>
    </g>
    <g font-family="sans-serif" transform="matrix(0.6348,0,0,0.6348,318.0446,85.0658)">
      <text xml:space="preserve" x="4" y="312.1719" stroke="none">+</text>
      <text xml:space="preserve" x="19" y="313.2324" onclick="umlload('#getDateTime()')" stroke="none">getDateTime() : XMLGregorianCalendar</text>
    </g>
    <g font-family="sans-serif" transform="matrix(0.6348,0,0,0.6348,318.0446,85.0658)">
      <text xml:space="preserve" x="4" y="328.1719" stroke="none">+</text>
      <text xml:space="preserve" x="19" y="329.2012" onclick="umlload('#getDateTimeOffset()')" stroke="none">getDateTimeOffset() : XMLGregorianCalendar</text>
    </g>
    <g font-family="sans-serif" transform="matrix(0.6348,0,0,0.6348,318.0446,85.0658)">
      <text xml:space="preserve" x="4" y="344.1719" stroke="none">+</text>
      <text xml:space="preserve" x="19" y="345.1699" onclick="umlload('#getDecimal()')" stroke="none">getDecimal() : BigDecimal</text>
    </g>
    <g font-family="sans-serif" transform="matrix(0.6348,0,0,0.6348,318.0446,85.0658)">
      <text xml:space="preserve" x="4" y="359.1719" stroke="none">+</text>
      <text xml:space="preserve" x="19" y="361.1387" onclick="umlload('#getDocumentation()')" stroke="none">getDocumentation() : Documentation</text>
    </g>
    <g font-family="sans-serif" transform="matrix(0.6348,0,0,0.6348,318.0446,85.0658)">
      <text xml:space="preserve" x="4" y="375.1719" stroke="none">+</text>
      <text xml:space="preserve" x="19" y="377.1074" onclick="umlload('#getFloat()')" stroke="none">getFloat() : Double</text>
    </g>
    <g font-family="sans-serif" transform="matrix(0.6348,0,0,0.6348,318.0446,85.0658)">
      <text xml:space="preserve" x="4" y="391.1719" stroke="none">+</text>
      <text xml:space="preserve" x="19" y="393.0762" onclick="umlload('#getGuid()')" stroke="none">getGuid() : String</text>
    </g>
    <g font-family="sans-serif" transform="matrix(0.6348,0,0,0.6348,318.0446,85.0658)">
      <text xml:space="preserve" x="4" y="407.1719" stroke="none">+</text>
      <text xml:space="preserve" x="19" y="409.0449" onclick="umlload('#getInt()')" stroke="none">getInt() : BigInteger</text>
    </g>
    <g font-family="sans-serif" transform="matrix(0.6348,0,0,0.6348,318.0446,85.0658)">
      <text xml:space="preserve" x="4" y="423.1719" stroke="none">+</text>
      <text xml:space="preserve" x="19" y="425.0137" onclick="umlload('#getOtherAttributes()')" stroke="none">getOtherAttributes() : Map&lt;QName, String&gt;</text>
    </g>
    <g font-family="sans-serif" transform="matrix(0.6348,0,0,0.6348,318.0446,85.0658)">
      <text xml:space="preserve" x="4" y="439.1719" stroke="none">+</text>
      <text xml:space="preserve" x="19" y="440.9824" onclick="umlload('#getPath()')" stroke="none">getPath() : String</text>
    </g>
    <g font-family="sans-serif" transform="matrix(0.6348,0,0,0.6348,318.0446,85.0658)">
      <text xml:space="preserve" x="4" y="455.1719" stroke="none">+</text>
      <text xml:space="preserve" x="19" y="456.9512" onclick="umlload('#getPropertyValueOrAny()')" stroke="none">getPropertyValueOrAny() : List&lt;Object&gt;</text>
    </g>
    <g font-family="sans-serif" transform="matrix(0.6348,0,0,0.6348,318.0446,85.0658)">
      <text xml:space="preserve" x="4" y="471.1719" stroke="none">+</text>
      <text xml:space="preserve" x="19" y="472.9199" onclick="umlload('#getQualifier()')" stroke="none">getQualifier() : String</text>
    </g>
    <g font-family="sans-serif" transform="matrix(0.6348,0,0,0.6348,318.0446,85.0658)">
      <text xml:space="preserve" x="4" y="487.1719" stroke="none">+</text>
      <text xml:space="preserve" x="19" y="488.8887" onclick="umlload('#getString()')" stroke="none">getString() : String</text>
    </g>
    <g font-family="sans-serif" transform="matrix(0.6348,0,0,0.6348,318.0446,85.0658)">
      <text xml:space="preserve" x="4" y="503.1719" stroke="none">+</text>
      <text xml:space="preserve" x="19" y="504.8574" onclick="umlload('#getTerm()')" stroke="none">getTerm() : String</text>
    </g>
    <g font-family="sans-serif" transform="matrix(0.6348,0,0,0.6348,318.0446,85.0658)">
      <text xml:space="preserve" x="4" y="519.1719" stroke="none">+</text>
      <text xml:space="preserve" x="19" y="520.8262" onclick="umlload('#getTime()')" stroke="none">getTime() : XMLGregorianCalendar</text>
    </g>
    <g font-family="sans-serif" transform="matrix(0.6348,0,0,0.6348,318.0446,85.0658)">
      <text xml:space="preserve" x="4" y="535.1719" stroke="none">+</text>
      <text xml:space="preserve" x="19" y="536.7949" onclick="umlload('#isBool()')" stroke="none">isBool() : Boolean</text>
    </g>
    <g font-family="sans-serif" transform="matrix(0.6348,0,0,0.6348,318.0446,85.0658)">
      <text xml:space="preserve" x="4" y="551.1719" stroke="none">+</text>
      <text xml:space="preserve" x="19" y="552.7637" onclick="umlload('#setBinary(byte[])')" stroke="none">setBinary(byte[]) : void</text>
    </g>
    <g font-family="sans-serif" transform="matrix(0.6348,0,0,0.6348,318.0446,85.0658)">
      <text xml:space="preserve" x="4" y="567.1719" stroke="none">+</text>
      <text xml:space="preserve" x="19" y="568.7324" onclick="umlload('#setBool(java.lang.Boolean)')" stroke="none">setBool(Boolean) : void</text>
    </g>
    <g font-family="sans-serif" transform="matrix(0.6348,0,0,0.6348,318.0446,85.0658)">
      <text xml:space="preserve" x="4" y="583.1719" stroke="none">+</text>
      <text xml:space="preserve" x="19" y="584.7012" onclick="umlload('#setDateTime(javax.xml.datatype.XMLGregorianCalendar)')" stroke="none">setDateTime(XMLGregorianCalendar) : void</text>
    </g>
    <g font-family="sans-serif" transform="matrix(0.6348,0,0,0.6348,318.0446,85.0658)">
      <text xml:space="preserve" x="4" y="599.1719" stroke="none">+</text>
      <text xml:space="preserve" x="19" y="600.6699" onclick="umlload('#setDateTimeOffset(javax.xml.datatype.XMLGregorianCalendar)')" stroke="none">setDateTimeOffset(XMLGregorianCalendar) : void</text>
    </g>
    <g font-family="sans-serif" transform="matrix(0.6348,0,0,0.6348,318.0446,85.0658)">
      <text xml:space="preserve" x="4" y="615.1719" stroke="none">+</text>
      <text xml:space="preserve" x="19" y="616.6387" onclick="umlload('#setDecimal(java.math.BigDecimal)')" stroke="none">setDecimal(BigDecimal) : void</text>
    </g>
    <g font-family="sans-serif" transform="matrix(0.6348,0,0,0.6348,318.0446,85.0658)">
      <text xml:space="preserve" x="4" y="631.1719" stroke="none">+</text>
      <text xml:space="preserve" x="19" y="632.6074" onclick="umlload('#setDocumentation(com.msopentech.odatajclient.engine.data.metadata.edm.Documentation)')" stroke="none">setDocumentation(Documentation) : void</text>
    </g>
    <g font-family="sans-serif" transform="matrix(0.6348,0,0,0.6348,318.0446,85.0658)">
      <text xml:space="preserve" x="4" y="647.1719" stroke="none">+</text>
      <text xml:space="preserve" x="19" y="648.5762" onclick="umlload('#setFloat(java.lang.Double)')" stroke="none">setFloat(Double) : void</text>
    </g>
    <g font-family="sans-serif" transform="matrix(0.6348,0,0,0.6348,318.0446,85.0658)">
      <text xml:space="preserve" x="4" y="663.1719" stroke="none">+</text>
      <text xml:space="preserve" x="19" y="664.5449" onclick="umlload('#setGuid(java.lang.String)')" stroke="none">setGuid(String) : void</text>
    </g>
    <g font-family="sans-serif" transform="matrix(0.6348,0,0,0.6348,318.0446,85.0658)">
      <text xml:space="preserve" x="4" y="679.1719" stroke="none">+</text>
      <text xml:space="preserve" x="19" y="680.5137" onclick="umlload('#setInt(java.math.BigInteger)')" stroke="none">setInt(BigInteger) : void</text>
    </g>
    <g font-family="sans-serif" transform="matrix(0.6348,0,0,0.6348,318.0446,85.0658)">
      <text xml:space="preserve" x="4" y="695.1719" stroke="none">+</text>
      <text xml:space="preserve" x="19" y="696.4824" onclick="umlload('#setPath(java.lang.String)')" stroke="none">setPath(String) : void</text>
    </g>
    <g font-family="sans-serif" transform="matrix(0.6348,0,0,0.6348,318.0446,85.0658)">
      <text xml:space="preserve" x="4" y="711.1719" stroke="none">+</text>
      <text xml:space="preserve" x="19" y="712.4512" onclick="umlload('#setQualifier(java.lang.String)')" stroke="none">setQualifier(String) : void</text>
    </g>
    <g font-family="sans-serif" transform="matrix(0.6348,0,0,0.6348,318.0446,85.0658)">
      <text xml:space="preserve" x="4" y="727.1719" stroke="none">+</text>
      <text xml:space="preserve" x="19" y="728.4199" onclick="umlload('#setString(java.lang.String)')" stroke="none">setString(String) : void</text>
    </g>
    <g font-family="sans-serif" transform="matrix(0.6348,0,0,0.6348,318.0446,85.0658)">
      <text xml:space="preserve" x="4" y="743.1719" stroke="none">+</text>
      <text xml:space="preserve" x="19" y="744.3887" onclick="umlload('#setTerm(java.lang.String)')" stroke="none">setTerm(String) : void</text>
    </g>
    <g font-family="sans-serif" transform="matrix(0.6348,0,0,0.6348,318.0446,85.0658)">
      <text xml:space="preserve" x="4" y="759.1719" stroke="none">+</text>
      <text xml:space="preserve" x="19" y="760.3574" onclick="umlload('#setTime(javax.xml.datatype.XMLGregorianCalendar)')" stroke="none">setTime(XMLGregorianCalendar) : void</text>
    </g>
    <g font-family="sans-serif" transform="matrix(0.6348,0,0,0.6348,318.0446,85.0658)">
      <text xml:space="preserve" x="-448" y="797.1543" onclick="umlload('http://www.yworks.com/')" stroke="none">yWorks UML Doclet</text>
    </g>
    <g stroke-miterlimit="1.45" transform="matrix(0.6348,0,0,0.6348,318.0446,85.0658)" stroke-linecap="butt">
      <path fill="none" d="M168.405 0 L168.405 -69"/>
      <path fill="white" d="M168.405 -84 L162.405 -68 L174.405 -68 Z" stroke="none"/>
      <path fill="none" d="M168.405 -84 L162.405 -68 L174.405 -68 Z"/>
      <path fill="none" d="M-0.0323 11.5664 L-321.62 11.5664"/>
      <line stroke-linecap="square" transform="matrix(-1,0,0,-1,-321.62,11.5664)" fill="none" x1="0" x2="-14" y1="0" y2="-4" stroke-miterlimit="10"/>
      <line stroke-linecap="square" transform="matrix(-1,0,0,-1,-321.62,11.5664)" fill="none" x1="0" x2="-14" y1="0" y2="4" stroke-miterlimit="10"/>
    </g>
    <g stroke-miterlimit="1.45" transform="matrix(0.6348,0,0,0.6348,318.0446,85.0658)" stroke-linecap="butt">
      <path fill="none" d="M-0.0248 98.6992 L-66 98.6992"/>
      <line stroke-linecap="square" transform="matrix(-1,0,0,-1,-66,98.6992)" fill="none" x1="0" x2="-14" y1="0" y2="-4" stroke-miterlimit="10"/>
      <line stroke-linecap="square" transform="matrix(-1,0,0,-1,-66,98.6992)" fill="none" x1="0" x2="-14" y1="0" y2="4" stroke-miterlimit="10"/>
    </g>
    <g stroke-miterlimit="1.45" transform="matrix(0.6348,0,0,0.6348,318.0446,85.0658)" stroke-linecap="butt">
      <path fill="none" d="M-0.0207 131.832 L-73.21 131.832"/>
      <line stroke-linecap="square" transform="matrix(-1,0,0,-1,-73.21,131.832)" fill="none" x1="0" x2="-14" y1="0" y2="-4" stroke-miterlimit="10"/>
      <line stroke-linecap="square" transform="matrix(-1,0,0,-1,-73.21,131.832)" fill="none" x1="0" x2="-14" y1="0" y2="4" stroke-miterlimit="10"/>
    </g>
    <g stroke-miterlimit="1.45" transform="matrix(0.6348,0,0,0.6348,318.0446,85.0658)" stroke-linecap="butt">
      <path fill="none" d="M-0.0006 164.9648 L-81.45 164.9648"/>
      <line stroke-linecap="square" transform="matrix(-1,0,0,-1,-81.45,164.9648)" fill="none" x1="0" x2="-14" y1="0" y2="-4" stroke-miterlimit="10"/>
      <line stroke-linecap="square" transform="matrix(-1,0,0,-1,-81.45,164.9648)" fill="none" x1="0" x2="-14" y1="0" y2="4" stroke-miterlimit="10"/>
    </g>
    <g stroke-miterlimit="1.45" transform="matrix(0.6348,0,0,0.6348,318.0446,85.0658)" stroke-linecap="butt">
      <path fill="none" d="M-0.0068 252.0977 L-66 252.0977"/>
      <line stroke-linecap="square" transform="matrix(-1,0,0,-1,-66,252.0977)" fill="none" x1="0" x2="-14" y1="0" y2="-4" stroke-miterlimit="10"/>
      <line stroke-linecap="square" transform="matrix(-1,0,0,-1,-66,252.0977)" fill="none" x1="0" x2="-14" y1="0" y2="4" stroke-miterlimit="10"/>
    </g>
    <g stroke-miterlimit="1.45" transform="matrix(0.6348,0,0,0.6348,318.0446,85.0658)" stroke-linecap="butt">
      <path fill="none" d="M0.0175 285.2305 L-72.18 285.2305"/>
      <line stroke-linecap="square" transform="matrix(-1,0,0,-1,-72.18,285.2305)" fill="none" x1="0" x2="-14" y1="0" y2="-4" stroke-miterlimit="10"/>
      <line stroke-linecap="square" transform="matrix(-1,0,0,-1,-72.18,285.2305)" fill="none" x1="0" x2="-14" y1="0" y2="4" stroke-miterlimit="10"/>
    </g>
    <g stroke-miterlimit="1.45" transform="matrix(0.6348,0,0,0.6348,318.0446,85.0658)" stroke-linecap="butt">
      <path fill="none" d="M-0.0267 377.1542 L-103.8726 377.1542"/>
      <line stroke-linecap="square" transform="matrix(-1,0,0,-1,-103.8726,377.1542)" fill="none" x1="0" x2="-14" y1="0" y2="-4" stroke-miterlimit="10"/>
      <line stroke-linecap="square" transform="matrix(-1,0,0,-1,-103.8726,377.1542)" fill="none" x1="0" x2="-14" y1="0" y2="4" stroke-miterlimit="10"/>
    </g>
    <g stroke-miterlimit="1.45" transform="matrix(0.6348,0,0,0.6348,318.0446,85.0658)" stroke-linecap="butt">
      <path fill="none" d="M-0.0313 419.869 L-66 419.869"/>
      <line stroke-linecap="square" transform="matrix(-1,0,0,-1,-66,419.869)" fill="none" x1="0" x2="-14" y1="0" y2="-4" stroke-miterlimit="10"/>
      <line stroke-linecap="square" transform="matrix(-1,0,0,-1,-66,419.869)" fill="none" x1="0" x2="-14" y1="0" y2="4" stroke-miterlimit="10"/>
    </g>
    <g stroke-miterlimit="1.45" transform="matrix(0.6348,0,0,0.6348,318.0446,85.0658)" stroke-linecap="butt">
      <path fill="none" d="M-0.0061 511.7928 L-66 511.7928"/>
      <line stroke-linecap="square" transform="matrix(-1,0,0,-1,-66,511.7928)" fill="none" x1="0" x2="-14" y1="0" y2="-4" stroke-miterlimit="10"/>
      <line stroke-linecap="square" transform="matrix(-1,0,0,-1,-66,511.7928)" fill="none" x1="0" x2="-14" y1="0" y2="4" stroke-miterlimit="10"/>
    </g>
  </g>
</svg>
