<?xml version="1.0" encoding="UTF-8"?><svg xmlns="http://www.w3.org/2000/svg" xmlns:xlink="http://www.w3.org/1999/xlink" fill-opacity="1" color-rendering="auto" color-interpolation="auto" stroke="black" text-rendering="auto" stroke-linecap="square" width="598" stroke-miterlimit="10" stroke-opacity="1" shape-rendering="auto" fill="black" stroke-dasharray="none" font-weight="normal" stroke-width="1" height="598" font-family="'Dialog'" font-style="normal" stroke-linejoin="miter" font-size="12" stroke-dashoffset="0" image-rendering="auto">
  <!--Generated by ySVG-->
  <defs id="genericDefs"/>
  <g>
    <defs id="defs1">
      <clipPath clipPathUnits="userSpaceOnUse" id="clipPath1">
        <path d="M0 0 L598 0 L598 598 L0 598 L0 0 Z"/>
      </clipPath>
      <clipPath clipPathUnits="userSpaceOnUse" id="clipPath2">
        <path d="M1073.317 364.8886 C1073.317 373.9225 1037.1222 381.246 992.4735 381.246 C947.8249 381.246 911.63 373.9225 911.63 364.8886 C911.63 355.8547 947.8249 348.5312 992.4735 348.5312 C1037.1222 348.5312 1073.317 355.8547 1073.317 364.8886 Z"/>
      </clipPath>
      <clipPath clipPathUnits="userSpaceOnUse" id="clipPath3">
        <path d="M1044.1842 407.6034 C1044.1842 416.6373 1014.511 423.9607 977.9071 423.9607 C941.3033 423.9607 911.63 416.6373 911.63 407.6034 C911.63 398.5694 941.3033 391.246 977.9071 391.246 C1014.511 391.246 1044.1842 398.5694 1044.1842 407.6034 Z"/>
      </clipPath>
      <clipPath clipPathUnits="userSpaceOnUse" id="clipPath4">
        <path d="M1106.8197 450.3181 C1106.8197 459.352 1063.125 466.6755 1009.2249 466.6755 C955.3247 466.6755 911.63 459.352 911.63 450.3181 C911.63 441.2842 955.3247 433.9607 1009.2249 433.9607 C1063.125 433.9607 1106.8197 441.2842 1106.8197 450.3181 Z"/>
      </clipPath>
      <clipPath clipPathUnits="userSpaceOnUse" id="clipPath5">
        <path d="M911.63 261.3984 L965.19 261.3984 L965.19 284.5312 L911.63 284.5312 L911.63 261.3984 Z"/>
      </clipPath>
      <clipPath clipPathUnits="userSpaceOnUse" id="clipPath6">
        <path d="M911.63 174.2656 L1013.6 174.2656 L1013.6 197.3984 L911.63 197.3984 L911.63 174.2656 Z"/>
      </clipPath>
      <clipPath clipPathUnits="userSpaceOnUse" id="clipPath7">
        <path d="M911.63 87.1328 L1098.0601 87.1328 L1098.0601 110.2656 L911.63 110.2656 L911.63 87.1328 Z"/>
      </clipPath>
      <clipPath clipPathUnits="userSpaceOnUse" id="clipPath8">
        <path d="M911.63 0 L1136.17 0 L1136.17 23.1328 L911.63 23.1328 L911.63 0 Z"/>
      </clipPath>
      <clipPath clipPathUnits="userSpaceOnUse" id="clipPath9">
        <path d="M0 0 L845.63 0 L845.63 474.6755 L0 474.6755 L0 0 Z"/>
      </clipPath>
      <script type="text/ecmascript"><![CDATA[
function umlload(newLocation)
{
if (newLocation.charAt(0) != '#') {
if (newLocation.indexOf("://") > -1) {
window.parent.location.href = newLocation;
} else {
var tmp = window.parent.location.href;
tmp = tmp.substring(0, tmp.lastIndexOf("/") + 1);
window.parent.location.href = tmp.concat(newLocation);
}
} else {
window.parent.location.hash = newLocation;
}
}
]]></script>
    </defs>
    <g fill="rgb(238,238,255)" transform="matrix(0.4333,0,0,0.4333,3.4667,192.4)" stroke="rgb(238,238,255)">
      <rect width="67.654" x="903.63" height="17.9688" y="322.5312" stroke="none"/>
    </g>
    <g fill="rgb(166,166,178)" stroke-miterlimit="1.45" transform="matrix(0.4333,0,0,0.4333,3.4667,192.4)" stroke-linecap="butt" stroke="rgb(166,166,178)">
      <rect fill="none" width="67.654" x="903.63" height="17.9688" y="322.5312"/>
    </g>
    <g fill="rgb(238,238,255)" transform="matrix(0.4333,0,0,0.4333,3.4667,192.4)" stroke="rgb(238,238,255)">
      <rect width="211.1898" x="903.63" height="134.1755" y="340.5" stroke="none"/>
    </g>
    <g fill="rgb(166,166,178)" stroke-miterlimit="1.45" transform="matrix(0.4333,0,0,0.4333,3.4667,192.4)" stroke-linecap="butt" stroke="rgb(166,166,178)">
      <rect fill="none" width="211.1898" x="903.63" height="134.1755" y="340.5"/>
    </g>
    <g font-family="sans-serif" transform="matrix(0.4333,0,0,0.4333,3.4667,192.4)">
      <text xml:space="preserve" x="909.63" y="335.6699" onclick="umlload('http://docs.oracle.com/javase/6/docs/api/java/util/package-summary.html')" stroke="none">java.util</text>
    </g>
    <g fill="rgb(221,221,255)" transform="matrix(0.4333,0,0,0.4333,3.4667,192.4)" stroke="rgb(221,221,255)">
      <rect x="911.63" y="348.5312" clip-path="url(#clipPath2)" width="161.687" height="32.7147" stroke="none"/>
    </g>
    <g fill="rgb(154,154,178)" stroke-miterlimit="1.45" transform="matrix(0.4333,0,0,0.4333,3.4667,192.4)" stroke-linecap="butt" stroke="rgb(154,154,178)">
      <ellipse rx="80.8435" fill="none" ry="16.3574" cx="992.4735" cy="364.8886"/>
    </g>
    <g font-style="italic" font-size="13" font-weight="bold" font-family="sans-serif" transform="matrix(0.4333,0,0,0.4333,3.4667,192.4)">
      <text xml:space="preserve" x="940.9735" y="369.3891" onclick="umlload('http://docs.oracle.com/javase/6/docs/api/java/util/Collection.html')" stroke="none">Collection&lt;E&gt;</text>
    </g>
    <g fill="rgb(221,221,255)" transform="matrix(0.4333,0,0,0.4333,3.4667,192.4)" stroke="rgb(221,221,255)">
      <rect x="911.63" y="391.246" clip-path="url(#clipPath3)" width="132.5542" height="32.7147" stroke="none"/>
    </g>
    <g fill="rgb(154,154,178)" stroke-miterlimit="1.45" transform="matrix(0.4333,0,0,0.4333,3.4667,192.4)" stroke-linecap="butt" stroke="rgb(154,154,178)">
      <ellipse rx="66.2771" fill="none" ry="16.3574" cx="977.9071" cy="407.6034"/>
    </g>
    <g font-style="italic" font-size="13" font-weight="bold" font-family="sans-serif" transform="matrix(0.4333,0,0,0.4333,3.4667,192.4)">
      <text xml:space="preserve" x="936.4071" y="412.1039" onclick="umlload('http://docs.oracle.com/javase/6/docs/api/java/util/Map.html')" stroke="none">Map&lt;K, V&gt;</text>
    </g>
    <g fill="rgb(221,221,255)" transform="matrix(0.4333,0,0,0.4333,3.4667,192.4)" stroke="rgb(221,221,255)">
      <rect x="911.63" y="433.9607" clip-path="url(#clipPath4)" width="195.1898" height="32.7147" stroke="none"/>
    </g>
    <g fill="rgb(154,154,178)" stroke-miterlimit="1.45" transform="matrix(0.4333,0,0,0.4333,3.4667,192.4)" stroke-linecap="butt" stroke="rgb(154,154,178)">
      <ellipse rx="97.5949" fill="none" ry="16.3574" cx="1009.2249" cy="450.3181"/>
    </g>
    <g font-style="italic" font-size="13" font-weight="bold" font-family="sans-serif" transform="matrix(0.4333,0,0,0.4333,3.4667,192.4)">
      <text xml:space="preserve" x="946.2249" y="454.8186" onclick="umlload('http://docs.oracle.com/javase/6/docs/api/java/util/Map.Entry.html')" stroke="none">Map.Entry&lt;K, V&gt;</text>
    </g>
    <g fill="rgb(238,238,255)" transform="matrix(0.4333,0,0,0.4333,3.4667,192.4)" stroke="rgb(238,238,255)">
      <rect width="76.1412" x="903.63" height="17.9688" y="235.3984" stroke="none"/>
    </g>
    <g fill="rgb(166,166,178)" stroke-miterlimit="1.45" transform="matrix(0.4333,0,0,0.4333,3.4667,192.4)" stroke-linecap="butt" stroke="rgb(166,166,178)">
      <rect fill="none" width="76.1412" x="903.63" height="17.9688" y="235.3984"/>
    </g>
    <g fill="rgb(238,238,255)" transform="matrix(0.4333,0,0,0.4333,3.4667,192.4)" stroke="rgb(238,238,255)">
      <rect width="79.56" x="903.63" height="39.1641" y="253.3672" stroke="none"/>
    </g>
    <g fill="rgb(166,166,178)" stroke-miterlimit="1.45" transform="matrix(0.4333,0,0,0.4333,3.4667,192.4)" stroke-linecap="butt" stroke="rgb(166,166,178)">
      <rect fill="none" width="79.56" x="903.63" height="39.1641" y="253.3672"/>
    </g>
    <g font-family="sans-serif" transform="matrix(0.4333,0,0,0.4333,3.4667,192.4)">
      <text xml:space="preserve" x="909.63" y="248.5371" onclick="umlload('http://docs.oracle.com/javase/6/docs/api/java/lang/package-summary.html')" stroke="none">java.lang</text>
    </g>
    <g fill="rgb(187,187,255)" transform="matrix(0.4333,0,0,0.4333,3.4667,192.4)" stroke="rgb(187,187,255)">
      <rect x="911.63" y="261.3984" clip-path="url(#clipPath5)" width="53.56" height="23.1328" stroke="none"/>
    </g>
    <g fill="rgb(130,130,178)" stroke-miterlimit="1.45" transform="matrix(0.4333,0,0,0.4333,3.4667,192.4)" stroke-linecap="butt" stroke="rgb(130,130,178)">
      <rect fill="none" width="53.56" x="911.63" height="23.1328" y="261.3984"/>
    </g>
    <g font-size="13" font-weight="bold" font-family="sans-serif" transform="matrix(0.4333,0,0,0.4333,3.4667,192.4)">
      <text xml:space="preserve" x="916.41" y="277.4653" onclick="umlload('http://docs.oracle.com/javase/6/docs/api/java/lang/String.html')" stroke="none">String</text>
    </g>
    <g fill="rgb(238,238,255)" transform="matrix(0.4333,0,0,0.4333,3.4667,192.4)" stroke="rgb(238,238,255)">
      <rect width="59.1668" x="903.63" height="17.9688" y="148.2656" stroke="none"/>
    </g>
    <g fill="rgb(166,166,178)" stroke-miterlimit="1.45" transform="matrix(0.4333,0,0,0.4333,3.4667,192.4)" stroke-linecap="butt" stroke="rgb(166,166,178)">
      <rect fill="none" width="59.1668" x="903.63" height="17.9688" y="148.2656"/>
    </g>
    <g fill="rgb(238,238,255)" transform="matrix(0.4333,0,0,0.4333,3.4667,192.4)" stroke="rgb(238,238,255)">
      <rect width="117.97" x="903.63" height="39.1641" y="166.2344" stroke="none"/>
    </g>
    <g fill="rgb(166,166,178)" stroke-miterlimit="1.45" transform="matrix(0.4333,0,0,0.4333,3.4667,192.4)" stroke-linecap="butt" stroke="rgb(166,166,178)">
      <rect fill="none" width="117.97" x="903.63" height="39.1641" y="166.2344"/>
    </g>
    <g font-family="sans-serif" transform="matrix(0.4333,0,0,0.4333,3.4667,192.4)">
      <text xml:space="preserve" x="909.63" y="161.4043" onclick="umlload('http://docs.oracle.com/javase/6/docs/api/java/io/package-summary.html')" stroke="none">java.io</text>
    </g>
    <g fill="rgb(204,204,255)" transform="matrix(0.4333,0,0,0.4333,3.4667,192.4)" stroke="rgb(204,204,255)">
      <rect x="911.63" y="174.2656" clip-path="url(#clipPath6)" width="101.97" height="23.1328" stroke="none"/>
    </g>
    <g fill="rgb(142,142,178)" stroke-miterlimit="1.45" transform="matrix(0.4333,0,0,0.4333,3.4667,192.4)" stroke-linecap="butt" stroke="rgb(142,142,178)">
      <rect fill="none" width="101.97" x="911.63" height="23.1328" y="174.2656"/>
    </g>
    <g font-size="13" font-weight="bold" font-family="sans-serif" transform="matrix(0.4333,0,0,0.4333,3.4667,192.4)">
      <text xml:space="preserve" x="917.115" y="190.3325" onclick="umlload('http://docs.oracle.com/javase/6/docs/api/java/io/InputStream.html')" stroke="none">InputStream</text>
    </g>
    <g fill="rgb(238,238,255)" transform="matrix(0.4333,0,0,0.4333,3.4667,192.4)" stroke="rgb(238,238,255)">
      <rect width="467.6133" x="903.63" height="17.9688" y="61.1328" stroke="none"/>
    </g>
    <g fill="rgb(166,166,178)" stroke-miterlimit="1.45" transform="matrix(0.4333,0,0,0.4333,3.4667,192.4)" stroke-linecap="butt" stroke="rgb(166,166,178)">
      <rect fill="none" width="467.6133" x="903.63" height="17.9688" y="61.1328"/>
    </g>
    <g fill="rgb(238,238,255)" transform="matrix(0.4333,0,0,0.4333,3.4667,192.4)" stroke="rgb(238,238,255)">
      <rect width="467.6133" x="903.63" height="39.1641" y="79.1016" stroke="none"/>
    </g>
    <g fill="rgb(166,166,178)" stroke-miterlimit="1.45" transform="matrix(0.4333,0,0,0.4333,3.4667,192.4)" stroke-linecap="butt" stroke="rgb(166,166,178)">
      <rect fill="none" width="467.6133" x="903.63" height="39.1641" y="79.1016"/>
    </g>
    <g font-family="sans-serif" transform="matrix(0.4333,0,0,0.4333,3.4667,192.4)">
      <text xml:space="preserve" x="909.63" y="74.2715" onclick="umlload('../../../../../../com/msopentech/odatajclient/engine/communication/request/batch/package-summary.html')" stroke="none">com.msopentech.odatajclient.engine.communication.request.batch</text>
    </g>
    <g fill="rgb(187,187,255)" transform="matrix(0.4333,0,0,0.4333,3.4667,192.4)" stroke="rgb(187,187,255)">
      <rect x="911.63" y="87.1328" clip-path="url(#clipPath7)" width="186.43" height="23.1328" stroke="none"/>
    </g>
    <g fill="rgb(130,130,178)" stroke-miterlimit="1.45" transform="matrix(0.4333,0,0,0.4333,3.4667,192.4)" stroke-linecap="butt" stroke="rgb(130,130,178)">
      <rect fill="none" width="186.43" x="911.63" height="23.1328" y="87.1328"/>
    </g>
    <g font-size="13" font-weight="bold" font-family="sans-serif" transform="matrix(0.4333,0,0,0.4333,3.4667,192.4)">
      <text xml:space="preserve" x="918.345" y="103.1997" onclick="umlload('../../../../../../com/msopentech/odatajclient/engine/communication/request/batch/ODataBatchLineIterator.html')" stroke="none">ODataBatchLineIterator</text>
    </g>
    <g fill="rgb(238,238,255)" transform="matrix(0.4333,0,0,0.4333,3.4667,192.4)" stroke="rgb(238,238,255)">
      <rect width="420.9337" x="903.63" height="17.9688" y="-26" stroke="none"/>
    </g>
    <g fill="rgb(166,166,178)" stroke-miterlimit="1.45" transform="matrix(0.4333,0,0,0.4333,3.4667,192.4)" stroke-linecap="butt" stroke="rgb(166,166,178)">
      <rect fill="none" width="420.9337" x="903.63" height="17.9688" y="-26"/>
    </g>
    <g fill="rgb(238,238,255)" transform="matrix(0.4333,0,0,0.4333,3.4667,192.4)" stroke="rgb(238,238,255)">
      <rect width="420.9337" x="903.63" height="39.1641" y="-8.0312" stroke="none"/>
    </g>
    <g fill="rgb(166,166,178)" stroke-miterlimit="1.45" transform="matrix(0.4333,0,0,0.4333,3.4667,192.4)" stroke-linecap="butt" stroke="rgb(166,166,178)">
      <rect fill="none" width="420.9337" x="903.63" height="39.1641" y="-8.0312"/>
    </g>
    <g font-family="sans-serif" transform="matrix(0.4333,0,0,0.4333,3.4667,192.4)">
      <text xml:space="preserve" x="909.63" y="-12.8613" onclick="umlload('../../../../../../com/msopentech/odatajclient/engine/communication/header/package-summary.html')" stroke="none">com.msopentech.odatajclient.engine.communication.header</text>
    </g>
    <g fill="rgb(170,170,255)" transform="matrix(0.4333,0,0,0.4333,3.4667,192.4)" stroke="rgb(170,170,255)">
      <rect x="911.63" y="0" clip-path="url(#clipPath8)" width="224.54" height="23.1328" stroke="none"/>
    </g>
    <g fill="rgb(118,118,178)" stroke-miterlimit="1.45" transform="matrix(0.4333,0,0,0.4333,3.4667,192.4)" stroke-linecap="butt" stroke="rgb(118,118,178)">
      <rect fill="none" width="224.54" x="911.63" height="23.1328" y="0"/>
    </g>
    <g font-size="13" font-weight="bold" font-family="sans-serif" transform="matrix(0.4333,0,0,0.4333,3.4667,192.4)">
      <text xml:space="preserve" x="918.9" y="16.0669" onclick="umlload('../../../../../../com/msopentech/odatajclient/engine/communication/header/ODataHeaders.HeaderName.html')" stroke="none">ODataHeaders.HeaderName</text>
    </g>
    <g fill="rgb(238,238,255)" transform="matrix(0.4333,0,0,0.4333,3.4667,192.4)" stroke="rgb(238,238,255)">
      <rect width="435.7863" x="-8" height="17.9688" y="-26" stroke="none"/>
    </g>
    <g fill="rgb(166,166,178)" stroke-miterlimit="1.45" transform="matrix(0.4333,0,0,0.4333,3.4667,192.4)" stroke-linecap="butt" stroke="rgb(166,166,178)">
      <rect fill="none" width="435.7863" x="-8" height="17.9688" y="-26"/>
    </g>
    <g fill="rgb(238,238,255)" transform="matrix(0.4333,0,0,0.4333,3.4667,192.4)" stroke="rgb(238,238,255)">
      <rect width="861.63" x="-8" height="490.7067" y="-8.0312" stroke="none"/>
    </g>
    <g fill="rgb(166,166,178)" stroke-miterlimit="1.45" transform="matrix(0.4333,0,0,0.4333,3.4667,192.4)" stroke-linecap="butt" stroke="rgb(166,166,178)">
      <rect fill="none" width="861.63" x="-8" height="490.7067" y="-8.0312"/>
    </g>
    <g font-family="sans-serif" transform="matrix(0.4333,0,0,0.4333,3.4667,192.4)">
      <text xml:space="preserve" x="-2" y="-12.8613" onclick="umlload('package-summary.html')" stroke="none">com.msopentech.odatajclient.engine.communication.response</text>
    </g>
    <g fill="rgb(221,221,255)" transform="matrix(0.4333,0,0,0.4333,3.4667,192.4)" stroke="rgb(221,221,255)">
      <rect x="0" y="0" clip-path="url(#clipPath9)" width="845.63" height="38.5938" stroke="none"/>
      <line clip-path="url(#clipPath9)" fill="none" x1="0" x2="845.63" y1="38.5938" y2="38.5938" stroke="black"/>
      <line clip-path="url(#clipPath9)" x1="0" x2="845.63" y1="39.5938" y2="39.5938" stroke="none"/>
      <line clip-path="url(#clipPath9)" fill="none" x1="0" x2="845.63" y1="39.5938" y2="39.5938" stroke="black"/>
      <rect x="0" y="40.5938" clip-path="url(#clipPath9)" width="845.63" height="434.0817" stroke="none"/>
    </g>
    <g fill="rgb(154,154,178)" stroke-miterlimit="1.45" transform="matrix(0.4333,0,0,0.4333,3.4667,192.4)" stroke-linecap="butt" stroke="rgb(154,154,178)">
      <rect fill="none" width="845.63" x="0" height="474.6755" y="0"/>
    </g>
    <g font-style="italic" font-size="16" font-weight="bold" font-family="sans-serif" transform="matrix(0.4333,0,0,0.4333,3.4667,192.4)">
      <text xml:space="preserve" x="351.315" y="32.8203" onclick="umlload('#')" stroke="none">ODataResponse</text>
    </g>
    <g font-family="sans-serif" transform="matrix(0.4333,0,0,0.4333,3.4667,192.4)">
      <text xml:space="preserve" x="387.815" y="13.1387" stroke="none">«interface»</text>
    </g>
    <g font-family="sans-serif" transform="matrix(0.4333,0,0,0.4333,3.4667,192.4)">
      <text xml:space="preserve" x="4" y="51.1719" stroke="none">+</text>
      <text xml:space="preserve" x="19" y="52.7324" onclick="umlload('#close()')" stroke="none">close() : void</text>
    </g>
    <g font-family="sans-serif" transform="matrix(0.4333,0,0,0.4333,3.4667,192.4)">
      <text xml:space="preserve" x="4" y="67.1719" stroke="none">+</text>
      <text xml:space="preserve" x="19" y="68.7012" onclick="umlload('#getContentType()')" stroke="none">getContentType() : String</text>
    </g>
    <g font-family="sans-serif" transform="matrix(0.4333,0,0,0.4333,3.4667,192.4)">
      <text xml:space="preserve" x="4" y="83.1719" stroke="none">+</text>
      <text xml:space="preserve" x="19" y="84.6699" onclick="umlload('#getEtag()')" stroke="none">getEtag() : String</text>
    </g>
    <g font-family="sans-serif" transform="matrix(0.4333,0,0,0.4333,3.4667,192.4)">
      <text xml:space="preserve" x="4" y="99.1719" stroke="none">+</text>
      <text xml:space="preserve" x="19" y="100.6387" onclick="umlload('#getHeader(com.msopentech.odatajclient.engine.communication.header.ODataHeaders.HeaderName)')" stroke="none">getHeader(ODataHeaders.HeaderName) : Collection&lt;String&gt;</text>
    </g>
    <g font-family="sans-serif" transform="matrix(0.4333,0,0,0.4333,3.4667,192.4)">
      <text xml:space="preserve" x="4" y="115.1719" stroke="none">+</text>
      <text xml:space="preserve" x="19" y="116.6074" onclick="umlload('#getHeader(java.lang.String)')" stroke="none">getHeader(String) : Collection&lt;String&gt;</text>
    </g>
    <g font-family="sans-serif" transform="matrix(0.4333,0,0,0.4333,3.4667,192.4)">
      <text xml:space="preserve" x="4" y="131.1719" stroke="none">+</text>
      <text xml:space="preserve" x="19" y="132.5762" onclick="umlload('#getHeaderNames()')" stroke="none">getHeaderNames() : Collection&lt;String&gt;</text>
    </g>
    <g font-family="sans-serif" transform="matrix(0.4333,0,0,0.4333,3.4667,192.4)">
      <text xml:space="preserve" x="4" y="147.1719" stroke="none">+</text>
      <text xml:space="preserve" x="19" y="148.5449" onclick="umlload('#getRawResponse()')" stroke="none">getRawResponse() : InputStream</text>
    </g>
    <g font-family="sans-serif" transform="matrix(0.4333,0,0,0.4333,3.4667,192.4)">
      <text xml:space="preserve" x="4" y="163.1719" stroke="none">+</text>
      <text xml:space="preserve" x="19" y="164.5137" onclick="umlload('#getStatusCode()')" stroke="none">getStatusCode() : int</text>
    </g>
    <g font-family="sans-serif" transform="matrix(0.4333,0,0,0.4333,3.4667,192.4)">
      <text xml:space="preserve" x="4" y="179.1719" stroke="none">+</text>
      <text xml:space="preserve" x="19" y="180.4824" onclick="umlload('#getStatusMessage()')" stroke="none">getStatusMessage() : String</text>
    </g>
    <g font-family="sans-serif" transform="matrix(0.4333,0,0,0.4333,3.4667,192.4)">
      <text xml:space="preserve" x="4" y="195.1719" stroke="none">+</text>
      <text xml:space="preserve" x="19" y="196.4512" onclick="umlload('#initFromBatch(java.util.Map.Entry, java.util.Map, com.msopentech.odatajclient.engine.communication.request.batch.ODataBatchLineIterator, java.lang.String)')" stroke="none">initFromBatch(Map.Entry&lt;Integer, String&gt;, Map&lt;String, Collection&lt;String&gt;&gt;, ODataBatchLineIterator, String) : ODataResponse</text>
    </g>
    <g font-family="sans-serif" transform="matrix(0.4333,0,0,0.4333,3.4667,192.4)">
      <text xml:space="preserve" x="-2" y="507.1543" onclick="umlload('http://www.yworks.com/')" stroke="none">yWorks UML Doclet</text>
    </g>
    <g stroke-dasharray="6,2" stroke-miterlimit="1.45" transform="matrix(0.4333,0,0,0.4333,3.4667,192.4)" stroke-linecap="butt">
      <path fill="none" d="M845.6364 11.5664 L911.63 11.5664"/>
      <line stroke-linecap="square" transform="matrix(1,0,0,1,911.63,11.5664)" fill="none" x1="0" x2="-14" y1="0" y2="-4" stroke-dasharray="none" stroke-miterlimit="10"/>
      <line stroke-linecap="square" transform="matrix(1,0,0,1,911.63,11.5664)" fill="none" x1="0" x2="-14" y1="0" y2="4" stroke-dasharray="none" stroke-miterlimit="10"/>
    </g>
    <g stroke-dasharray="6,2" stroke-miterlimit="1.45" transform="matrix(0.4333,0,0,0.4333,3.4667,192.4)" stroke-linecap="butt">
      <path fill="none" d="M845.6606 98.6992 L911.63 98.6992"/>
      <line stroke-linecap="square" transform="matrix(1,0,0,1,911.63,98.6992)" fill="none" x1="0" x2="-14" y1="0" y2="-4" stroke-dasharray="none" stroke-miterlimit="10"/>
      <line stroke-linecap="square" transform="matrix(1,0,0,1,911.63,98.6992)" fill="none" x1="0" x2="-14" y1="0" y2="4" stroke-dasharray="none" stroke-miterlimit="10"/>
    </g>
    <g stroke-dasharray="6,2" stroke-miterlimit="1.45" transform="matrix(0.4333,0,0,0.4333,3.4667,192.4)" stroke-linecap="butt">
      <path fill="none" d="M845.621 185.832 L911.63 185.832"/>
      <line stroke-linecap="square" transform="matrix(1,0,0,1,911.63,185.832)" fill="none" x1="0" x2="-14" y1="0" y2="-4" stroke-dasharray="none" stroke-miterlimit="10"/>
      <line stroke-linecap="square" transform="matrix(1,0,0,1,911.63,185.832)" fill="none" x1="0" x2="-14" y1="0" y2="4" stroke-dasharray="none" stroke-miterlimit="10"/>
    </g>
    <g stroke-dasharray="6,2" stroke-miterlimit="1.45" transform="matrix(0.4333,0,0,0.4333,3.4667,192.4)" stroke-linecap="butt">
      <path fill="none" d="M845.6067 272.9648 L911.63 272.9648"/>
      <line stroke-linecap="square" transform="matrix(1,0,0,1,911.63,272.9648)" fill="none" x1="0" x2="-14" y1="0" y2="-4" stroke-dasharray="none" stroke-miterlimit="10"/>
      <line stroke-linecap="square" transform="matrix(1,0,0,1,911.63,272.9648)" fill="none" x1="0" x2="-14" y1="0" y2="4" stroke-dasharray="none" stroke-miterlimit="10"/>
    </g>
    <g stroke-dasharray="6,2" stroke-miterlimit="1.45" transform="matrix(0.4333,0,0,0.4333,3.4667,192.4)" stroke-linecap="butt">
      <path fill="none" d="M845.6432 364.8886 L911.63 364.8886"/>
      <line stroke-linecap="square" transform="matrix(1,0,0,1,911.63,364.8886)" fill="none" x1="0" x2="-14" y1="0" y2="-4" stroke-dasharray="none" stroke-miterlimit="10"/>
      <line stroke-linecap="square" transform="matrix(1,0,0,1,911.63,364.8886)" fill="none" x1="0" x2="-14" y1="0" y2="4" stroke-dasharray="none" stroke-miterlimit="10"/>
    </g>
    <g stroke-dasharray="6,2" stroke-miterlimit="1.45" transform="matrix(0.4333,0,0,0.4333,3.4667,192.4)" stroke-linecap="butt">
      <path fill="none" d="M845.6052 407.6034 L911.63 407.6034"/>
      <line stroke-linecap="square" transform="matrix(1,0,0,1,911.63,407.6034)" fill="none" x1="0" x2="-14" y1="0" y2="-4" stroke-dasharray="none" stroke-miterlimit="10"/>
      <line stroke-linecap="square" transform="matrix(1,0,0,1,911.63,407.6034)" fill="none" x1="0" x2="-14" y1="0" y2="4" stroke-dasharray="none" stroke-miterlimit="10"/>
    </g>
    <g stroke-dasharray="6,2" stroke-miterlimit="1.45" transform="matrix(0.4333,0,0,0.4333,3.4667,192.4)" stroke-linecap="butt">
      <path fill="none" d="M845.6214 450.3181 L911.63 450.3181"/>
      <line stroke-linecap="square" transform="matrix(1,0,0,1,911.63,450.3181)" fill="none" x1="0" x2="-14" y1="0" y2="-4" stroke-dasharray="none" stroke-miterlimit="10"/>
      <line stroke-linecap="square" transform="matrix(1,0,0,1,911.63,450.3181)" fill="none" x1="0" x2="-14" y1="0" y2="4" stroke-dasharray="none" stroke-miterlimit="10"/>
    </g>
  </g>
</svg>
