<?xml version="1.0" encoding="UTF-8"?><svg xmlns="http://www.w3.org/2000/svg" xmlns:xlink="http://www.w3.org/1999/xlink" fill-opacity="1" color-rendering="auto" color-interpolation="auto" stroke="black" text-rendering="auto" stroke-linecap="square" width="598" stroke-miterlimit="10" stroke-opacity="1" shape-rendering="auto" fill="black" stroke-dasharray="none" font-weight="normal" stroke-width="1" height="598" font-family="'Dialog'" font-style="normal" stroke-linejoin="miter" font-size="12" stroke-dashoffset="0" image-rendering="auto">
  <!--Generated by ySVG-->
  <defs id="genericDefs"/>
  <g>
    <defs id="defs1">
      <clipPath clipPathUnits="userSpaceOnUse" id="clipPath1">
        <path d="M0 0 L598 0 L598 598 L0 598 L0 0 Z"/>
      </clipPath>
      <clipPath clipPathUnits="userSpaceOnUse" id="clipPath2">
        <path d="M607.5908 16.3574 C607.5908 25.3913 576.6132 32.7147 538.4004 32.7147 C500.1876 32.7147 469.21 25.3913 469.21 16.3574 C469.21 7.3234 500.1876 0 538.4004 0 C576.6132 0 607.5908 7.3234 607.5908 16.3574 Z"/>
      </clipPath>
      <clipPath clipPathUnits="userSpaceOnUse" id="clipPath3">
        <path d="M259.445 -100.3574 C259.445 -91.3234 218.685 -84 168.405 -84 C118.125 -84 77.365 -91.3234 77.365 -100.3574 C77.365 -109.3913 118.125 -116.7147 168.405 -116.7147 C218.685 -116.7147 259.445 -109.3913 259.445 -100.3574 Z"/>
      </clipPath>
      <clipPath clipPathUnits="userSpaceOnUse" id="clipPath4">
        <path d="M0 0 L336.81 0 L336.81 56.5625 L0 56.5625 L0 0 Z"/>
      </clipPath>
      <script type="text/ecmascript"><![CDATA[
function umlload(newLocation)
{
if (newLocation.charAt(0) != '#') {
if (newLocation.indexOf("://") > -1) {
window.parent.location.href = newLocation;
} else {
var tmp = window.parent.location.href;
tmp = tmp.substring(0, tmp.lastIndexOf("/") + 1);
window.parent.location.href = tmp.concat(newLocation);
}
} else {
window.parent.location.hash = newLocation;
}
}
]]></script>
    </defs>
    <g fill="rgb(238,238,255)" transform="matrix(0.9088,0,0,0.9088,38.1702,318.0851)" stroke="rgb(238,238,255)">
      <rect width="67.654" x="461.21" height="17.9688" y="-26" stroke="none"/>
    </g>
    <g fill="rgb(166,166,178)" stroke-miterlimit="1.45" transform="matrix(0.9088,0,0,0.9088,38.1702,318.0851)" stroke-linecap="butt" stroke="rgb(166,166,178)">
      <rect fill="none" width="67.654" x="461.21" height="17.9688" y="-26"/>
    </g>
    <g fill="rgb(238,238,255)" transform="matrix(0.9088,0,0,0.9088,38.1702,318.0851)" stroke="rgb(238,238,255)">
      <rect width="154.3808" x="461.21" height="48.746" y="-8.0312" stroke="none"/>
    </g>
    <g fill="rgb(166,166,178)" stroke-miterlimit="1.45" transform="matrix(0.9088,0,0,0.9088,38.1702,318.0851)" stroke-linecap="butt" stroke="rgb(166,166,178)">
      <rect fill="none" width="154.3808" x="461.21" height="48.746" y="-8.0312"/>
    </g>
    <g font-family="sans-serif" transform="matrix(0.9088,0,0,0.9088,38.1702,318.0851)">
      <text xml:space="preserve" x="467.21" y="-12.8613" onclick="umlload('http://docs.oracle.com/javase/6/docs/api/java/util/package-summary.html')" stroke="none">java.util</text>
    </g>
    <g fill="rgb(221,221,255)" transform="matrix(0.9088,0,0,0.9088,38.1702,318.0851)" stroke="rgb(221,221,255)">
      <rect x="469.21" y="0" clip-path="url(#clipPath2)" width="138.3808" height="32.7147" stroke="none"/>
    </g>
    <g fill="rgb(154,154,178)" stroke-miterlimit="1.45" transform="matrix(0.9088,0,0,0.9088,38.1702,318.0851)" stroke-linecap="butt" stroke="rgb(154,154,178)">
      <ellipse rx="69.1904" fill="none" ry="16.3574" cx="538.4004" cy="16.3574"/>
    </g>
    <g font-style="italic" font-size="13" font-weight="bold" font-family="sans-serif" transform="matrix(0.9088,0,0,0.9088,38.1702,318.0851)">
      <text xml:space="preserve" x="494.9004" y="20.8579" onclick="umlload('http://docs.oracle.com/javase/6/docs/api/java/util/Iterator.html')" stroke="none">Iterator&lt;E&gt;</text>
    </g>
    <g fill="rgb(238,238,255)" transform="matrix(0.9088,0,0,0.9088,38.1702,318.0851)" stroke="rgb(238,238,255)">
      <rect width="435.7863" x="-41.635" height="17.9688" y="-142.7147" stroke="none"/>
    </g>
    <g fill="rgb(166,166,178)" stroke-miterlimit="1.45" transform="matrix(0.9088,0,0,0.9088,38.1702,318.0851)" stroke-linecap="butt" stroke="rgb(166,166,178)">
      <rect fill="none" width="435.7863" x="-41.635" height="17.9688" y="-142.7147"/>
    </g>
    <g fill="rgb(238,238,255)" transform="matrix(0.9088,0,0,0.9088,38.1702,318.0851)" stroke="rgb(238,238,255)">
      <rect width="436.08" x="-41.635" height="48.746" y="-124.746" stroke="none"/>
    </g>
    <g fill="rgb(166,166,178)" stroke-miterlimit="1.45" transform="matrix(0.9088,0,0,0.9088,38.1702,318.0851)" stroke-linecap="butt" stroke="rgb(166,166,178)">
      <rect fill="none" width="436.08" x="-41.635" height="48.746" y="-124.746"/>
    </g>
    <g font-family="sans-serif" transform="matrix(0.9088,0,0,0.9088,38.1702,318.0851)">
      <text xml:space="preserve" x="-35.635" y="-129.5761" onclick="umlload('../../../../../../com/msopentech/odatajclient/engine/communication/response/package-summary.html')" stroke="none">com.msopentech.odatajclient.engine.communication.response</text>
    </g>
    <g fill="rgb(221,221,255)" transform="matrix(0.9088,0,0,0.9088,38.1702,318.0851)" stroke="rgb(221,221,255)">
      <rect x="77.365" y="-116.7147" clip-path="url(#clipPath3)" width="182.08" height="32.7147" stroke="none"/>
    </g>
    <g fill="rgb(154,154,178)" stroke-miterlimit="1.45" transform="matrix(0.9088,0,0,0.9088,38.1702,318.0851)" stroke-linecap="butt" stroke="rgb(154,154,178)">
      <ellipse rx="91.04" fill="none" ry="16.3574" cx="168.405" cy="-100.3574"/>
    </g>
    <g font-style="italic" font-size="13" font-weight="bold" font-family="sans-serif" transform="matrix(0.9088,0,0,0.9088,38.1702,318.0851)">
      <text xml:space="preserve" x="109.905" y="-95.8569" onclick="umlload('../../../../../../com/msopentech/odatajclient/engine/communication/response/ODataResponse.html')" stroke="none">ODataResponse</text>
    </g>
    <g fill="rgb(238,238,255)" transform="matrix(0.9088,0,0,0.9088,38.1702,318.0851)" stroke="rgb(238,238,255)">
      <rect width="435.7863" x="-8" height="17.9688" y="-26" stroke="none"/>
    </g>
    <g fill="rgb(166,166,178)" stroke-miterlimit="1.45" transform="matrix(0.9088,0,0,0.9088,38.1702,318.0851)" stroke-linecap="butt" stroke="rgb(166,166,178)">
      <rect fill="none" width="435.7863" x="-8" height="17.9688" y="-26"/>
    </g>
    <g fill="rgb(238,238,255)" transform="matrix(0.9088,0,0,0.9088,38.1702,318.0851)" stroke="rgb(238,238,255)">
      <rect width="435.81" x="-8" height="72.5938" y="-8.0312" stroke="none"/>
    </g>
    <g fill="rgb(166,166,178)" stroke-miterlimit="1.45" transform="matrix(0.9088,0,0,0.9088,38.1702,318.0851)" stroke-linecap="butt" stroke="rgb(166,166,178)">
      <rect fill="none" width="435.81" x="-8" height="72.5938" y="-8.0312"/>
    </g>
    <g font-family="sans-serif" transform="matrix(0.9088,0,0,0.9088,38.1702,318.0851)">
      <text xml:space="preserve" x="-2" y="-12.8613" onclick="umlload('package-summary.html')" stroke="none">com.msopentech.odatajclient.engine.communication.response</text>
    </g>
    <g fill="rgb(221,221,255)" transform="matrix(0.9088,0,0,0.9088,38.1702,318.0851)" stroke="rgb(221,221,255)">
      <rect x="0" y="0" clip-path="url(#clipPath4)" width="336.81" height="38.5938" stroke="none"/>
      <line clip-path="url(#clipPath4)" fill="none" x1="0" x2="336.81" y1="38.5938" y2="38.5938" stroke="black"/>
      <line clip-path="url(#clipPath4)" x1="0" x2="336.81" y1="39.5938" y2="39.5938" stroke="none"/>
      <line clip-path="url(#clipPath4)" fill="none" x1="0" x2="336.81" y1="39.5938" y2="39.5938" stroke="black"/>
      <rect x="0" y="40.5938" clip-path="url(#clipPath4)" width="336.81" height="15.9688" stroke="none"/>
    </g>
    <g fill="rgb(154,154,178)" stroke-miterlimit="1.45" transform="matrix(0.9088,0,0,0.9088,38.1702,318.0851)" stroke-linecap="butt" stroke="rgb(154,154,178)">
      <rect fill="none" width="336.81" x="0" height="56.5625" y="0"/>
    </g>
    <g font-style="italic" font-size="16" font-weight="bold" font-family="sans-serif" transform="matrix(0.9088,0,0,0.9088,38.1702,318.0851)">
      <text xml:space="preserve" x="71.405" y="32.8203" onclick="umlload('#')" stroke="none">ODataBatchResponse</text>
    </g>
    <g font-family="sans-serif" transform="matrix(0.9088,0,0,0.9088,38.1702,318.0851)">
      <text xml:space="preserve" x="133.405" y="13.1387" stroke="none">«interface»</text>
    </g>
    <g font-family="sans-serif" transform="matrix(0.9088,0,0,0.9088,38.1702,318.0851)">
      <text xml:space="preserve" x="4" y="51.1719" stroke="none">+</text>
      <text xml:space="preserve" x="19" y="52.7324" onclick="umlload('#getBody()')" stroke="none">getBody() : Iterator&lt;ODataBatchResponseItem&gt;</text>
    </g>
    <g font-family="sans-serif" transform="matrix(0.9088,0,0,0.9088,38.1702,318.0851)">
      <text xml:space="preserve" x="-36" y="89.1543" onclick="umlload('http://www.yworks.com/')" stroke="none">yWorks UML Doclet</text>
    </g>
    <g stroke-miterlimit="1.45" transform="matrix(0.9088,0,0,0.9088,38.1702,318.0851)" stroke-linecap="butt">
      <path fill="none" d="M168.405 0 L168.405 -69"/>
      <path fill="white" d="M168.405 -84 L162.405 -68 L174.405 -68 Z" stroke="none"/>
      <path fill="none" d="M168.405 -84 L162.405 -68 L174.405 -68 Z"/>
      <path fill="none" stroke-dasharray="6,2" d="M336.827 16.3574 L469.21 16.3574"/>
      <line stroke-linecap="square" transform="matrix(1,0,0,1,469.21,16.3574)" fill="none" x1="0" x2="-14" y1="0" y2="-4" stroke-miterlimit="10"/>
      <line stroke-linecap="square" transform="matrix(1,0,0,1,469.21,16.3574)" fill="none" x1="0" x2="-14" y1="0" y2="4" stroke-miterlimit="10"/>
    </g>
  </g>
</svg>
