<?xml version="1.0" encoding="UTF-8"?><svg xmlns="http://www.w3.org/2000/svg" xmlns:xlink="http://www.w3.org/1999/xlink" fill-opacity="1" color-rendering="auto" color-interpolation="auto" stroke="black" text-rendering="auto" stroke-linecap="square" width="503" stroke-miterlimit="10" stroke-opacity="1" shape-rendering="auto" fill="black" stroke-dasharray="none" font-weight="normal" stroke-width="1" height="243" font-family="'Dialog'" font-style="normal" stroke-linejoin="miter" font-size="12" stroke-dashoffset="0" image-rendering="auto">
  <!--Generated by ySVG-->
  <defs id="genericDefs"/>
  <g>
    <defs id="defs1">
      <clipPath clipPathUnits="userSpaceOnUse" id="clipPath1">
        <path d="M0 0 L503 0 L503 243 L0 243 L0 0 Z"/>
      </clipPath>
      <clipPath clipPathUnits="userSpaceOnUse" id="clipPath2">
        <path d="M227 -100.3574 C227 -91.3234 186.24 -84 135.96 -84 C85.68 -84 44.92 -91.3234 44.92 -100.3574 C44.92 -109.3913 85.68 -116.7147 135.96 -116.7147 C186.24 -116.7147 227 -109.3913 227 -100.3574 Z"/>
      </clipPath>
      <clipPath clipPathUnits="userSpaceOnUse" id="clipPath3">
        <path d="M0 0 L271.92 0 L271.92 56.5625 L0 56.5625 L0 0 Z"/>
      </clipPath>
      <script type="text/ecmascript"><![CDATA[
function umlload(newLocation)
{
if (newLocation.charAt(0) != '#') {
if (newLocation.indexOf("://") > -1) {
window.parent.location.href = newLocation;
} else {
var tmp = window.parent.location.href;
tmp = tmp.substring(0, tmp.lastIndexOf("/") + 1);
window.parent.location.href = tmp.concat(newLocation);
}
} else {
window.parent.location.hash = newLocation;
}
}
]]></script>
    </defs>
    <g fill="rgb(238,238,255)" transform="matrix(1,0,0,1,75,143)" stroke="rgb(238,238,255)">
      <rect width="435.7863" x="-74.08" height="17.9688" y="-142.7147" stroke="none"/>
    </g>
    <g fill="rgb(166,166,178)" stroke-miterlimit="1.45" transform="matrix(1,0,0,1,75,143)" stroke-linecap="butt" stroke="rgb(166,166,178)">
      <rect fill="none" width="435.7863" x="-74.08" height="17.9688" y="-142.7147"/>
    </g>
    <g fill="rgb(238,238,255)" transform="matrix(1,0,0,1,75,143)" stroke="rgb(238,238,255)">
      <rect width="436.08" x="-74.08" height="48.746" y="-124.746" stroke="none"/>
    </g>
    <g fill="rgb(166,166,178)" stroke-miterlimit="1.45" transform="matrix(1,0,0,1,75,143)" stroke-linecap="butt" stroke="rgb(166,166,178)">
      <rect fill="none" width="436.08" x="-74.08" height="48.746" y="-124.746"/>
    </g>
    <g font-family="sans-serif" transform="matrix(1,0,0,1,75,143)">
      <text xml:space="preserve" x="-68.08" y="-129.5761" onclick="umlload('../../../../../../com/msopentech/odatajclient/engine/communication/response/package-summary.html')" stroke="none">com.msopentech.odatajclient.engine.communication.response</text>
    </g>
    <g fill="rgb(221,221,255)" transform="matrix(1,0,0,1,75,143)" stroke="rgb(221,221,255)">
      <rect x="44.92" y="-116.7147" clip-path="url(#clipPath2)" width="182.08" height="32.7147" stroke="none"/>
    </g>
    <g fill="rgb(154,154,178)" stroke-miterlimit="1.45" transform="matrix(1,0,0,1,75,143)" stroke-linecap="butt" stroke="rgb(154,154,178)">
      <ellipse rx="91.04" fill="none" ry="16.3574" cx="135.96" cy="-100.3574"/>
    </g>
    <g font-style="italic" font-size="13" font-weight="bold" font-family="sans-serif" transform="matrix(1,0,0,1,75,143)">
      <text xml:space="preserve" x="77.46" y="-95.8569" onclick="umlload('../../../../../../com/msopentech/odatajclient/engine/communication/response/ODataResponse.html')" stroke="none">ODataResponse</text>
    </g>
    <g fill="rgb(238,238,255)" transform="matrix(1,0,0,1,75,143)" stroke="rgb(238,238,255)">
      <rect width="435.7863" x="-8" height="17.9688" y="-26" stroke="none"/>
    </g>
    <g fill="rgb(166,166,178)" stroke-miterlimit="1.45" transform="matrix(1,0,0,1,75,143)" stroke-linecap="butt" stroke="rgb(166,166,178)">
      <rect fill="none" width="435.7863" x="-8" height="17.9688" y="-26"/>
    </g>
    <g fill="rgb(238,238,255)" transform="matrix(1,0,0,1,75,143)" stroke="rgb(238,238,255)">
      <rect width="435.92" x="-8" height="72.5938" y="-8.0312" stroke="none"/>
    </g>
    <g fill="rgb(166,166,178)" stroke-miterlimit="1.45" transform="matrix(1,0,0,1,75,143)" stroke-linecap="butt" stroke="rgb(166,166,178)">
      <rect fill="none" width="435.92" x="-8" height="72.5938" y="-8.0312"/>
    </g>
    <g font-family="sans-serif" transform="matrix(1,0,0,1,75,143)">
      <text xml:space="preserve" x="-2" y="-12.8613" onclick="umlload('package-summary.html')" stroke="none">com.msopentech.odatajclient.engine.communication.response</text>
    </g>
    <g fill="rgb(221,221,255)" transform="matrix(1,0,0,1,75,143)" stroke="rgb(221,221,255)">
      <rect x="0" y="0" clip-path="url(#clipPath3)" width="271.92" height="38.5938" stroke="none"/>
      <line clip-path="url(#clipPath3)" fill="none" x1="0" x2="271.92" y1="38.5938" y2="38.5938" stroke="black"/>
      <line clip-path="url(#clipPath3)" x1="0" x2="271.92" y1="39.5938" y2="39.5938" stroke="none"/>
      <line clip-path="url(#clipPath3)" fill="none" x1="0" x2="271.92" y1="39.5938" y2="39.5938" stroke="black"/>
      <rect x="0" y="40.5938" clip-path="url(#clipPath3)" width="271.92" height="15.9688" stroke="none"/>
    </g>
    <g fill="rgb(154,154,178)" stroke-miterlimit="1.45" transform="matrix(1,0,0,1,75,143)" stroke-linecap="butt" stroke="rgb(154,154,178)">
      <rect fill="none" width="271.92" x="0" height="56.5625" y="0"/>
    </g>
    <g font-style="italic" font-size="16" font-weight="bold" font-family="sans-serif" transform="matrix(1,0,0,1,75,143)">
      <text xml:space="preserve" x="7.96" y="32.8203" onclick="umlload('#')" stroke="none">ODataRetrieveResponse&lt;T&gt;</text>
    </g>
    <g font-family="sans-serif" transform="matrix(1,0,0,1,75,143)">
      <text xml:space="preserve" x="100.96" y="13.1387" stroke="none">«interface»</text>
    </g>
    <g font-family="sans-serif" transform="matrix(1,0,0,1,75,143)">
      <text xml:space="preserve" x="4" y="51.1719" stroke="none">+</text>
      <text xml:space="preserve" x="19" y="52.7324" onclick="umlload('#getBody()')" stroke="none">getBody() : T</text>
    </g>
    <g font-family="sans-serif" transform="matrix(1,0,0,1,75,143)">
      <text xml:space="preserve" x="-69" y="89.1543" onclick="umlload('http://www.yworks.com/')" stroke="none">yWorks UML Doclet</text>
    </g>
    <g stroke-miterlimit="1.45" transform="matrix(1,0,0,1,75,143)" stroke-linecap="butt">
      <path fill="none" d="M135.96 0 L135.96 -69"/>
      <path fill="white" d="M135.96 -84 L129.96 -68 L141.96 -68 Z" stroke="none"/>
      <path fill="none" d="M135.96 -84 L129.96 -68 L141.96 -68 Z"/>
    </g>
  </g>
</svg>
