<?xml version="1.0" encoding="UTF-8"?><svg xmlns="http://www.w3.org/2000/svg" xmlns:xlink="http://www.w3.org/1999/xlink" fill-opacity="1" color-rendering="auto" color-interpolation="auto" stroke="black" text-rendering="auto" stroke-linecap="square" width="598" stroke-miterlimit="10" stroke-opacity="1" shape-rendering="auto" fill="black" stroke-dasharray="none" font-weight="normal" stroke-width="1" height="598" font-family="'Dialog'" font-style="normal" stroke-linejoin="miter" font-size="12" stroke-dashoffset="0" image-rendering="auto">
  <!--Generated by ySVG-->
  <defs id="genericDefs"/>
  <g>
    <defs id="defs1">
      <clipPath clipPathUnits="userSpaceOnUse" id="clipPath1">
        <path d="M0 0 L598 0 L598 598 L0 598 L0 0 Z"/>
      </clipPath>
      <clipPath clipPathUnits="userSpaceOnUse" id="clipPath2">
        <path d="M469.21 0 L590.75 0 L590.75 23.1328 L469.21 23.1328 L469.21 0 Z"/>
      </clipPath>
      <clipPath clipPathUnits="userSpaceOnUse" id="clipPath3">
        <path d="M242.45 -100.3574 C242.45 -91.3234 201.69 -84 151.41 -84 C101.13 -84 60.37 -91.3234 60.37 -100.3574 C60.37 -109.3913 101.13 -116.7147 151.41 -116.7147 C201.69 -116.7147 242.45 -109.3913 242.45 -100.3574 Z"/>
      </clipPath>
      <clipPath clipPathUnits="userSpaceOnUse" id="clipPath4">
        <path d="M-0 0 L302.82 0 L302.82 56.5625 L-0 56.5625 L-0 0 Z"/>
      </clipPath>
      <script type="text/ecmascript"><![CDATA[
function umlload(newLocation)
{
if (newLocation.charAt(0) != '#') {
if (newLocation.indexOf("://") > -1) {
window.parent.location.href = newLocation;
} else {
var tmp = window.parent.location.href;
tmp = tmp.substring(0, tmp.lastIndexOf("/") + 1);
window.parent.location.href = tmp.concat(newLocation);
}
} else {
window.parent.location.hash = newLocation;
}
}
]]></script>
    </defs>
    <g fill="rgb(238,238,255)" transform="matrix(0.7293,0,0,0.7293,43.0268,314.3146)" stroke="rgb(238,238,255)">
      <rect width="298.9302" x="461.21" height="17.9688" y="-26" stroke="none"/>
    </g>
    <g fill="rgb(166,166,178)" stroke-miterlimit="1.45" transform="matrix(0.7293,0,0,0.7293,43.0268,314.3146)" stroke-linecap="butt" stroke="rgb(166,166,178)">
      <rect fill="none" width="298.9302" x="461.21" height="17.9688" y="-26"/>
    </g>
    <g fill="rgb(238,238,255)" transform="matrix(0.7293,0,0,0.7293,43.0268,314.3146)" stroke="rgb(238,238,255)">
      <rect width="298.9302" x="461.21" height="39.1641" y="-8.0312" stroke="none"/>
    </g>
    <g fill="rgb(166,166,178)" stroke-miterlimit="1.45" transform="matrix(0.7293,0,0,0.7293,43.0268,314.3146)" stroke-linecap="butt" stroke="rgb(166,166,178)">
      <rect fill="none" width="298.9302" x="461.21" height="39.1641" y="-8.0312"/>
    </g>
    <g font-family="sans-serif" transform="matrix(0.7293,0,0,0.7293,43.0268,314.3146)">
      <text xml:space="preserve" x="467.21" y="-12.8613" onclick="umlload('../../../../../../com/msopentech/odatajclient/engine/data/package-summary.html')" stroke="none">com.msopentech.odatajclient.engine.data</text>
    </g>
    <g fill="rgb(187,187,255)" transform="matrix(0.7293,0,0,0.7293,43.0268,314.3146)" stroke="rgb(187,187,255)">
      <rect x="469.21" y="0" clip-path="url(#clipPath2)" width="121.54" height="23.1328" stroke="none"/>
    </g>
    <g fill="rgb(130,130,178)" stroke-miterlimit="1.45" transform="matrix(0.7293,0,0,0.7293,43.0268,314.3146)" stroke-linecap="butt" stroke="rgb(130,130,178)">
      <rect fill="none" width="121.54" x="469.21" height="23.1328" y="0"/>
    </g>
    <g font-size="13" font-weight="bold" font-family="sans-serif" transform="matrix(0.7293,0,0,0.7293,43.0268,314.3146)">
      <text xml:space="preserve" x="474.98" y="16.0669" onclick="umlload('../../../../../../com/msopentech/odatajclient/engine/data/ODataProperty.html')" stroke="none">ODataProperty</text>
    </g>
    <g fill="rgb(238,238,255)" transform="matrix(0.7293,0,0,0.7293,43.0268,314.3146)" stroke="rgb(238,238,255)">
      <rect width="435.7863" x="-58.63" height="17.9688" y="-142.7147" stroke="none"/>
    </g>
    <g fill="rgb(166,166,178)" stroke-miterlimit="1.45" transform="matrix(0.7293,0,0,0.7293,43.0268,314.3146)" stroke-linecap="butt" stroke="rgb(166,166,178)">
      <rect fill="none" width="435.7863" x="-58.63" height="17.9688" y="-142.7147"/>
    </g>
    <g fill="rgb(238,238,255)" transform="matrix(0.7293,0,0,0.7293,43.0268,314.3146)" stroke="rgb(238,238,255)">
      <rect width="436.08" x="-58.63" height="48.746" y="-124.746" stroke="none"/>
    </g>
    <g fill="rgb(166,166,178)" stroke-miterlimit="1.45" transform="matrix(0.7293,0,0,0.7293,43.0268,314.3146)" stroke-linecap="butt" stroke="rgb(166,166,178)">
      <rect fill="none" width="436.08" x="-58.63" height="48.746" y="-124.746"/>
    </g>
    <g font-family="sans-serif" transform="matrix(0.7293,0,0,0.7293,43.0268,314.3146)">
      <text xml:space="preserve" x="-52.63" y="-129.5761" onclick="umlload('../../../../../../com/msopentech/odatajclient/engine/communication/response/package-summary.html')" stroke="none">com.msopentech.odatajclient.engine.communication.response</text>
    </g>
    <g fill="rgb(221,221,255)" transform="matrix(0.7293,0,0,0.7293,43.0268,314.3146)" stroke="rgb(221,221,255)">
      <rect x="60.37" y="-116.7147" clip-path="url(#clipPath3)" width="182.08" height="32.7147" stroke="none"/>
    </g>
    <g fill="rgb(154,154,178)" stroke-miterlimit="1.45" transform="matrix(0.7293,0,0,0.7293,43.0268,314.3146)" stroke-linecap="butt" stroke="rgb(154,154,178)">
      <ellipse rx="91.04" fill="none" ry="16.3574" cx="151.41" cy="-100.3574"/>
    </g>
    <g font-style="italic" font-size="13" font-weight="bold" font-family="sans-serif" transform="matrix(0.7293,0,0,0.7293,43.0268,314.3146)">
      <text xml:space="preserve" x="92.91" y="-95.8569" onclick="umlload('../../../../../../com/msopentech/odatajclient/engine/communication/response/ODataResponse.html')" stroke="none">ODataResponse</text>
    </g>
    <g fill="rgb(238,238,255)" transform="matrix(0.7293,0,0,0.7293,43.0268,314.3146)" stroke="rgb(238,238,255)">
      <rect width="435.7863" x="-8" height="17.9688" y="-26" stroke="none"/>
    </g>
    <g fill="rgb(166,166,178)" stroke-miterlimit="1.45" transform="matrix(0.7293,0,0,0.7293,43.0268,314.3146)" stroke-linecap="butt" stroke="rgb(166,166,178)">
      <rect fill="none" width="435.7863" x="-8" height="17.9688" y="-26"/>
    </g>
    <g fill="rgb(238,238,255)" transform="matrix(0.7293,0,0,0.7293,43.0268,314.3146)" stroke="rgb(238,238,255)">
      <rect width="435.82" x="-8" height="72.5938" y="-8.0312" stroke="none"/>
    </g>
    <g fill="rgb(166,166,178)" stroke-miterlimit="1.45" transform="matrix(0.7293,0,0,0.7293,43.0268,314.3146)" stroke-linecap="butt" stroke="rgb(166,166,178)">
      <rect fill="none" width="435.82" x="-8" height="72.5938" y="-8.0312"/>
    </g>
    <g font-family="sans-serif" transform="matrix(0.7293,0,0,0.7293,43.0268,314.3146)">
      <text xml:space="preserve" x="-2" y="-12.8613" onclick="umlload('package-summary.html')" stroke="none">com.msopentech.odatajclient.engine.communication.response</text>
    </g>
    <g fill="rgb(221,221,255)" transform="matrix(0.7293,0,0,0.7293,43.0268,314.3146)" stroke="rgb(221,221,255)">
      <rect x="0" y="0" clip-path="url(#clipPath4)" width="302.82" height="38.5938" stroke="none"/>
      <line clip-path="url(#clipPath4)" fill="none" x1="0" x2="302.82" y1="38.5938" y2="38.5938" stroke="black"/>
      <line clip-path="url(#clipPath4)" x1="0" x2="302.82" y1="39.5938" y2="39.5938" stroke="none"/>
      <line clip-path="url(#clipPath4)" fill="none" x1="0" x2="302.82" y1="39.5938" y2="39.5938" stroke="black"/>
      <rect x="0" y="40.5938" clip-path="url(#clipPath4)" width="302.82" height="15.9688" stroke="none"/>
    </g>
    <g fill="rgb(154,154,178)" stroke-miterlimit="1.45" transform="matrix(0.7293,0,0,0.7293,43.0268,314.3146)" stroke-linecap="butt" stroke="rgb(154,154,178)">
      <rect fill="none" width="302.82" x="0" height="56.5625" y="0"/>
    </g>
    <g font-style="italic" font-size="16" font-weight="bold" font-family="sans-serif" transform="matrix(0.7293,0,0,0.7293,43.0268,314.3146)">
      <text xml:space="preserve" x="8.41" y="32.8203" onclick="umlload('#')" stroke="none">ODataPropertyUpdateResponse</text>
    </g>
    <g font-family="sans-serif" transform="matrix(0.7293,0,0,0.7293,43.0268,314.3146)">
      <text xml:space="preserve" x="116.41" y="13.1387" stroke="none">«interface»</text>
    </g>
    <g font-family="sans-serif" transform="matrix(0.7293,0,0,0.7293,43.0268,314.3146)">
      <text xml:space="preserve" x="4" y="51.1719" stroke="none">+</text>
      <text xml:space="preserve" x="19" y="52.7324" onclick="umlload('#getBody()')" stroke="none">getBody() : ODataProperty</text>
    </g>
    <g font-family="sans-serif" transform="matrix(0.7293,0,0,0.7293,43.0268,314.3146)">
      <text xml:space="preserve" x="-53" y="89.1543" onclick="umlload('http://www.yworks.com/')" stroke="none">yWorks UML Doclet</text>
    </g>
    <g stroke-miterlimit="1.45" transform="matrix(0.7293,0,0,0.7293,43.0268,314.3146)" stroke-linecap="butt">
      <path fill="none" d="M151.41 0 L151.41 -69"/>
      <path fill="white" d="M151.41 -84 L145.41 -68 L157.41 -68 Z" stroke="none"/>
      <path fill="none" d="M151.41 -84 L145.41 -68 L157.41 -68 Z"/>
      <path fill="none" stroke-dasharray="6,2" d="M302.8472 11.5664 L469.21 11.5664"/>
      <line stroke-linecap="square" transform="matrix(1,0,0,1,469.21,11.5664)" fill="none" x1="0" x2="-14" y1="0" y2="-4" stroke-miterlimit="10"/>
      <line stroke-linecap="square" transform="matrix(1,0,0,1,469.21,11.5664)" fill="none" x1="0" x2="-14" y1="0" y2="4" stroke-miterlimit="10"/>
    </g>
  </g>
</svg>
