<?xml version="1.0" encoding="UTF-8"?><svg xmlns="http://www.w3.org/2000/svg" xmlns:xlink="http://www.w3.org/1999/xlink" fill-opacity="1" color-rendering="auto" color-interpolation="auto" stroke="black" text-rendering="auto" stroke-linecap="square" width="598" stroke-miterlimit="10" stroke-opacity="1" shape-rendering="auto" fill="black" stroke-dasharray="none" font-weight="normal" stroke-width="1" height="598" font-family="'Dialog'" font-style="normal" stroke-linejoin="miter" font-size="12" stroke-dashoffset="0" image-rendering="auto">
  <!--Generated by ySVG-->
  <defs id="genericDefs"/>
  <g>
    <defs id="defs1">
      <clipPath clipPathUnits="userSpaceOnUse" id="clipPath1">
        <path d="M0 0 L598 0 L598 598 L0 598 L0 0 Z"/>
      </clipPath>
      <clipPath clipPathUnits="userSpaceOnUse" id="clipPath2">
        <path d="M670.6226 16.3574 C670.6226 25.3913 621.3846 32.7147 560.6463 32.7147 C499.9081 32.7147 450.67 25.3913 450.67 16.3574 C450.67 7.3234 499.9081 0 560.6463 0 C621.3846 0 670.6226 7.3234 670.6226 16.3574 Z"/>
      </clipPath>
      <clipPath clipPathUnits="userSpaceOnUse" id="clipPath3">
        <path d="M686.6457 59.0721 C686.6457 68.106 633.8207 75.4295 568.6578 75.4295 C503.495 75.4295 450.67 68.106 450.67 59.0721 C450.67 50.0382 503.495 42.7147 568.6578 42.7147 C633.8207 42.7147 686.6457 50.0382 686.6457 59.0721 Z"/>
      </clipPath>
      <clipPath clipPathUnits="userSpaceOnUse" id="clipPath4">
        <path d="M143.17 -107.1328 L237.93 -107.1328 L237.93 -84 L143.17 -84 L143.17 -107.1328 Z"/>
      </clipPath>
      <clipPath clipPathUnits="userSpaceOnUse" id="clipPath5">
        <path d="M0 0 L381.1 0 L381.1 83.4295 L0 83.4295 L0 0 Z"/>
      </clipPath>
      <script type="text/ecmascript"><![CDATA[
function umlload(newLocation)
{
if (newLocation.charAt(0) != '#') {
if (newLocation.indexOf("://") > -1) {
window.parent.location.href = newLocation;
} else {
var tmp = window.parent.location.href;
tmp = tmp.substring(0, tmp.lastIndexOf("/") + 1);
window.parent.location.href = tmp.concat(newLocation);
}
} else {
window.parent.location.hash = newLocation;
}
}
]]></script>
    </defs>
    <g fill="rgb(238,238,255)" transform="matrix(0.8506,0,0,0.8506,6.8051,301.9772)" stroke="rgb(238,238,255)">
      <rect width="130.2471" x="442.67" height="17.9688" y="-26" stroke="none"/>
    </g>
    <g fill="rgb(166,166,178)" stroke-miterlimit="1.45" transform="matrix(0.8506,0,0,0.8506,6.8051,301.9772)" stroke-linecap="butt" stroke="rgb(166,166,178)">
      <rect fill="none" width="130.2471" x="442.67" height="17.9688" y="-26"/>
    </g>
    <g fill="rgb(238,238,255)" transform="matrix(0.8506,0,0,0.8506,6.8051,301.9772)" stroke="rgb(238,238,255)">
      <rect width="251.9757" x="442.67" height="91.4607" y="-8.0312" stroke="none"/>
    </g>
    <g fill="rgb(166,166,178)" stroke-miterlimit="1.45" transform="matrix(0.8506,0,0,0.8506,6.8051,301.9772)" stroke-linecap="butt" stroke="rgb(166,166,178)">
      <rect fill="none" width="251.9757" x="442.67" height="91.4607" y="-8.0312"/>
    </g>
    <g font-family="sans-serif" transform="matrix(0.8506,0,0,0.8506,6.8051,301.9772)">
      <text xml:space="preserve" x="448.67" y="-12.8613" stroke="none">javax.servlet.http</text>
    </g>
    <g fill="rgb(221,221,255)" transform="matrix(0.8506,0,0,0.8506,6.8051,301.9772)" stroke="rgb(221,221,255)">
      <rect x="450.67" y="0" clip-path="url(#clipPath2)" width="219.9526" height="32.7147" stroke="none"/>
    </g>
    <g fill="rgb(154,154,178)" stroke-miterlimit="1.45" transform="matrix(0.8506,0,0,0.8506,6.8051,301.9772)" stroke-linecap="butt" stroke="rgb(154,154,178)">
      <ellipse rx="109.9763" fill="none" ry="16.3574" cx="560.6463" cy="16.3574"/>
    </g>
    <g font-style="italic" font-size="13" font-weight="bold" font-family="sans-serif" transform="matrix(0.8506,0,0,0.8506,6.8051,301.9772)">
      <text xml:space="preserve" x="489.1463" y="20.8579" stroke="none">HttpServletRequest</text>
    </g>
    <g fill="rgb(221,221,255)" transform="matrix(0.8506,0,0,0.8506,6.8051,301.9772)" stroke="rgb(221,221,255)">
      <rect x="450.67" y="42.7147" clip-path="url(#clipPath3)" width="235.9757" height="32.7147" stroke="none"/>
    </g>
    <g fill="rgb(154,154,178)" stroke-miterlimit="1.45" transform="matrix(0.8506,0,0,0.8506,6.8051,301.9772)" stroke-linecap="butt" stroke="rgb(154,154,178)">
      <ellipse rx="117.9878" fill="none" ry="16.3574" cx="568.6578" cy="59.0721"/>
    </g>
    <g font-style="italic" font-size="13" font-weight="bold" font-family="sans-serif" transform="matrix(0.8506,0,0,0.8506,6.8051,301.9772)">
      <text xml:space="preserve" x="491.6578" y="63.5726" stroke="none">HttpServletResponse</text>
    </g>
    <g fill="rgb(238,238,255)" transform="matrix(0.8506,0,0,0.8506,6.8051,301.9772)" stroke="rgb(238,238,255)">
      <rect width="130.2471" x="129.17" height="17.9688" y="-133.1328" stroke="none"/>
    </g>
    <g fill="rgb(166,166,178)" stroke-miterlimit="1.45" transform="matrix(0.8506,0,0,0.8506,6.8051,301.9772)" stroke-linecap="butt" stroke="rgb(166,166,178)">
      <rect fill="none" width="130.2471" x="129.17" height="17.9688" y="-133.1328"/>
    </g>
    <g fill="rgb(238,238,255)" transform="matrix(0.8506,0,0,0.8506,6.8051,301.9772)" stroke="rgb(238,238,255)">
      <rect width="130.76" x="129.17" height="39.1641" y="-115.1641" stroke="none"/>
    </g>
    <g fill="rgb(166,166,178)" stroke-miterlimit="1.45" transform="matrix(0.8506,0,0,0.8506,6.8051,301.9772)" stroke-linecap="butt" stroke="rgb(166,166,178)">
      <rect fill="none" width="130.76" x="129.17" height="39.1641" y="-115.1641"/>
    </g>
    <g font-family="sans-serif" transform="matrix(0.8506,0,0,0.8506,6.8051,301.9772)">
      <text xml:space="preserve" x="135.17" y="-119.9941" stroke="none">javax.servlet.http</text>
    </g>
    <g fill="rgb(204,204,255)" transform="matrix(0.8506,0,0,0.8506,6.8051,301.9772)" stroke="rgb(204,204,255)">
      <rect x="143.17" y="-107.1328" clip-path="url(#clipPath4)" width="94.76" height="23.1328" stroke="none"/>
    </g>
    <g fill="rgb(142,142,178)" stroke-miterlimit="1.45" transform="matrix(0.8506,0,0,0.8506,6.8051,301.9772)" stroke-linecap="butt" stroke="rgb(142,142,178)">
      <rect fill="none" width="94.76" x="143.17" height="23.1328" y="-107.1328"/>
    </g>
    <g font-size="13" font-weight="bold" font-family="sans-serif" transform="matrix(0.8506,0,0,0.8506,6.8051,301.9772)">
      <text xml:space="preserve" x="148.55" y="-91.0659" stroke="none">HttpServlet</text>
    </g>
    <g fill="rgb(238,238,255)" transform="matrix(0.8506,0,0,0.8506,6.8051,301.9772)" stroke="rgb(238,238,255)">
      <rect width="416.6901" x="-8" height="17.9688" y="-26" stroke="none"/>
    </g>
    <g fill="rgb(166,166,178)" stroke-miterlimit="1.45" transform="matrix(0.8506,0,0,0.8506,6.8051,301.9772)" stroke-linecap="butt" stroke="rgb(166,166,178)">
      <rect fill="none" width="416.6901" x="-8" height="17.9688" y="-26"/>
    </g>
    <g fill="rgb(238,238,255)" transform="matrix(0.8506,0,0,0.8506,6.8051,301.9772)" stroke="rgb(238,238,255)">
      <rect width="417.1" x="-8" height="99.4607" y="-8.0312" stroke="none"/>
    </g>
    <g fill="rgb(166,166,178)" stroke-miterlimit="1.45" transform="matrix(0.8506,0,0,0.8506,6.8051,301.9772)" stroke-linecap="butt" stroke="rgb(166,166,178)">
      <rect fill="none" width="417.1" x="-8" height="99.4607" y="-8.0312"/>
    </g>
    <g font-family="sans-serif" transform="matrix(0.8506,0,0,0.8506,6.8051,301.9772)">
      <text xml:space="preserve" x="-2" y="-12.8613" onclick="umlload('package-summary.html')" stroke="none">com.msopentech.odatajclient.testauthproxy.staticmetadata</text>
    </g>
    <g fill="rgb(187,187,255)" transform="matrix(0.8506,0,0,0.8506,6.8051,301.9772)" stroke="rgb(187,187,255)">
      <rect x="0" y="0" clip-path="url(#clipPath5)" width="381.1" height="26.625" stroke="none"/>
      <line clip-path="url(#clipPath5)" fill="none" x1="0" x2="381.1" y1="26.625" y2="26.625" stroke="black"/>
      <rect x="0" y="27.625" clip-path="url(#clipPath5)" width="381.1" height="15.9688" stroke="none"/>
      <line clip-path="url(#clipPath5)" fill="none" x1="0" x2="381.1" y1="43.5938" y2="43.5938" stroke="black"/>
      <rect x="0" y="44.5938" clip-path="url(#clipPath5)" width="381.1" height="38.8357" stroke="none"/>
    </g>
    <g fill="rgb(130,130,178)" stroke-miterlimit="1.45" transform="matrix(0.8506,0,0,0.8506,6.8051,301.9772)" stroke-linecap="butt" stroke="rgb(130,130,178)">
      <rect fill="none" width="381.1" x="0" height="83.4295" y="0"/>
    </g>
    <g font-size="16" font-weight="bold" font-family="sans-serif" transform="matrix(0.8506,0,0,0.8506,6.8051,301.9772)">
      <text xml:space="preserve" x="91.55" y="18.8516" onclick="umlload('#')" stroke="none">StaticMetadataServlet</text>
    </g>
    <g font-family="sans-serif" transform="matrix(0.8506,0,0,0.8506,6.8051,301.9772)">
      <text xml:space="preserve" x="4" y="38.1719" stroke="none">+</text>
      <text xml:space="preserve" x="19" y="39.7637" onclick="umlload('#StaticMetadataServlet()')" stroke="none">StaticMetadataServlet()</text>
    </g>
    <g font-family="sans-serif" transform="matrix(0.8506,0,0,0.8506,6.8051,301.9772)">
      <text xml:space="preserve" x="4" y="55.1719" stroke="none">#</text>
      <text xml:space="preserve" x="19" y="56.7324" onclick="umlload('#doGet(javax.servlet.http.HttpServletRequest, javax.servlet.http.HttpServletResponse)')" stroke="none">doGet(HttpServletRequest, HttpServletResponse) : void</text>
    </g>
    <g font-family="sans-serif" transform="matrix(0.8506,0,0,0.8506,6.8051,301.9772)">
      <text xml:space="preserve" x="-2" y="116.1543" onclick="umlload('http://www.yworks.com/')" stroke="none">yWorks UML Doclet</text>
    </g>
    <g stroke-miterlimit="1.45" transform="matrix(0.8506,0,0,0.8506,6.8051,301.9772)" stroke-linecap="butt">
      <path fill="none" d="M190.55 0.0176 L190.55 -69"/>
      <path fill="white" d="M190.55 -84 L184.55 -68 L196.55 -68 Z" stroke="none"/>
      <path fill="none" d="M190.55 -84 L184.55 -68 L196.55 -68 Z"/>
      <path fill="none" stroke-dasharray="6,2" d="M381.0647 16.3574 L450.67 16.3574"/>
      <line stroke-linecap="square" transform="matrix(1,0,0,1,450.67,16.3574)" fill="none" x1="0" x2="-14" y1="0" y2="-4" stroke-miterlimit="10"/>
      <line stroke-linecap="square" transform="matrix(1,0,0,1,450.67,16.3574)" fill="none" x1="0" x2="-14" y1="0" y2="4" stroke-miterlimit="10"/>
    </g>
    <g stroke-dasharray="6,2" stroke-miterlimit="1.45" transform="matrix(0.8506,0,0,0.8506,6.8051,301.9772)" stroke-linecap="butt">
      <path fill="none" d="M381.127 59.0721 L450.67 59.0721"/>
      <line stroke-linecap="square" transform="matrix(1,0,0,1,450.67,59.0721)" fill="none" x1="0" x2="-14" y1="0" y2="-4" stroke-dasharray="none" stroke-miterlimit="10"/>
      <line stroke-linecap="square" transform="matrix(1,0,0,1,450.67,59.0721)" fill="none" x1="0" x2="-14" y1="0" y2="4" stroke-dasharray="none" stroke-miterlimit="10"/>
    </g>
  </g>
</svg>
