<?xml version="1.0" encoding="UTF-8"?><svg xmlns="http://www.w3.org/2000/svg" xmlns:xlink="http://www.w3.org/1999/xlink" fill-opacity="1" color-rendering="auto" color-interpolation="auto" stroke="black" text-rendering="auto" stroke-linecap="square" width="598" stroke-miterlimit="10" stroke-opacity="1" shape-rendering="auto" fill="black" stroke-dasharray="none" font-weight="normal" stroke-width="1" height="598" font-family="'Dialog'" font-style="normal" stroke-linejoin="miter" font-size="12" stroke-dashoffset="0" image-rendering="auto">
  <!--Generated by ySVG-->
  <defs id="genericDefs"/>
  <g>
    <defs id="defs1">
      <clipPath clipPathUnits="userSpaceOnUse" id="clipPath1">
        <path d="M0 0 L598 0 L598 598 L0 598 L0 0 Z"/>
      </clipPath>
      <clipPath clipPathUnits="userSpaceOnUse" id="clipPath2">
        <path d="M-66 190.623 C-66 199.6569 -87.1952 206.9804 -113.3408 206.9804 C-139.4864 206.9804 -160.6816 199.6569 -160.6816 190.623 C-160.6816 181.5891 -139.4864 174.2656 -113.3408 174.2656 C-87.1952 174.2656 -66 181.5891 -66 190.623 Z"/>
      </clipPath>
      <clipPath clipPathUnits="userSpaceOnUse" id="clipPath3">
        <path d="M-130.04 87.1328 L-76.48 87.1328 L-76.48 110.2656 L-130.04 110.2656 L-130.04 87.1328 Z"/>
      </clipPath>
      <clipPath clipPathUnits="userSpaceOnUse" id="clipPath4">
        <path d="M-529.68 0 L-184.63 0 L-184.63 23.1328 L-529.68 23.1328 L-529.68 0 Z"/>
      </clipPath>
      <clipPath clipPathUnits="userSpaceOnUse" id="clipPath5">
        <path d="M252.865 -107.1328 L310.545 -107.1328 L310.545 -84 L252.865 -84 L252.865 -107.1328 Z"/>
      </clipPath>
      <clipPath clipPathUnits="userSpaceOnUse" id="clipPath6">
        <path d="M0 0 L563.41 0 L563.41 349 L0 349 L0 0 Z"/>
      </clipPath>
      <script type="text/ecmascript"><![CDATA[
function umlload(newLocation)
{
if (newLocation.charAt(0) != '#') {
if (newLocation.indexOf("://") > -1) {
window.parent.location.href = newLocation;
} else {
var tmp = window.parent.location.href;
tmp = tmp.substring(0, tmp.lastIndexOf("/") + 1);
window.parent.location.href = tmp.concat(newLocation);
}
} else {
window.parent.location.hash = newLocation;
}
}
]]></script>
    </defs>
    <g fill="rgb(238,238,255)" transform="matrix(0.5387,0,0,0.5387,289.8414,229.5027)" stroke="rgb(238,238,255)">
      <rect width="67.654" x="-168.6816" height="17.9688" y="148.2656" stroke="none"/>
    </g>
    <g fill="rgb(166,166,178)" stroke-miterlimit="1.45" transform="matrix(0.5387,0,0,0.5387,289.8414,229.5027)" stroke-linecap="butt" stroke="rgb(166,166,178)">
      <rect fill="none" width="67.654" x="-168.6816" height="17.9688" y="148.2656"/>
    </g>
    <g fill="rgb(238,238,255)" transform="matrix(0.5387,0,0,0.5387,289.8414,229.5027)" stroke="rgb(238,238,255)">
      <rect width="110.6816" x="-168.6816" height="48.746" y="166.2344" stroke="none"/>
    </g>
    <g fill="rgb(166,166,178)" stroke-miterlimit="1.45" transform="matrix(0.5387,0,0,0.5387,289.8414,229.5027)" stroke-linecap="butt" stroke="rgb(166,166,178)">
      <rect fill="none" width="110.6816" x="-168.6816" height="48.746" y="166.2344"/>
    </g>
    <g font-family="sans-serif" transform="matrix(0.5387,0,0,0.5387,289.8414,229.5027)">
      <text xml:space="preserve" x="-162.6816" y="161.4043" onclick="umlload('http://docs.oracle.com/javase/6/docs/api/java/util/package-summary.html')" stroke="none">java.util</text>
    </g>
    <g fill="rgb(221,221,255)" transform="matrix(0.5387,0,0,0.5387,289.8414,229.5027)" stroke="rgb(221,221,255)">
      <rect x="-160.6816" y="174.2656" clip-path="url(#clipPath2)" width="94.6816" height="32.7147" stroke="none"/>
    </g>
    <g fill="rgb(154,154,178)" stroke-miterlimit="1.45" transform="matrix(0.5387,0,0,0.5387,289.8414,229.5027)" stroke-linecap="butt" stroke="rgb(154,154,178)">
      <ellipse rx="47.3408" fill="none" ry="16.3574" cx="-113.3408" cy="190.623"/>
    </g>
    <g font-style="italic" font-size="13" font-weight="bold" font-family="sans-serif" transform="matrix(0.5387,0,0,0.5387,289.8414,229.5027)">
      <text xml:space="preserve" x="-141.8408" y="195.1235" onclick="umlload('http://docs.oracle.com/javase/6/docs/api/java/util/List.html')" stroke="none">List&lt;E&gt;</text>
    </g>
    <g fill="rgb(238,238,255)" transform="matrix(0.5387,0,0,0.5387,289.8414,229.5027)" stroke="rgb(238,238,255)">
      <rect width="76.1412" x="-138.04" height="17.9688" y="61.1328" stroke="none"/>
    </g>
    <g fill="rgb(166,166,178)" stroke-miterlimit="1.45" transform="matrix(0.5387,0,0,0.5387,289.8414,229.5027)" stroke-linecap="butt" stroke="rgb(166,166,178)">
      <rect fill="none" width="76.1412" x="-138.04" height="17.9688" y="61.1328"/>
    </g>
    <g fill="rgb(238,238,255)" transform="matrix(0.5387,0,0,0.5387,289.8414,229.5027)" stroke="rgb(238,238,255)">
      <rect width="79.56" x="-138.04" height="39.1641" y="79.1016" stroke="none"/>
    </g>
    <g fill="rgb(166,166,178)" stroke-miterlimit="1.45" transform="matrix(0.5387,0,0,0.5387,289.8414,229.5027)" stroke-linecap="butt" stroke="rgb(166,166,178)">
      <rect fill="none" width="79.56" x="-138.04" height="39.1641" y="79.1016"/>
    </g>
    <g font-family="sans-serif" transform="matrix(0.5387,0,0,0.5387,289.8414,229.5027)">
      <text xml:space="preserve" x="-132.04" y="74.2715" onclick="umlload('http://docs.oracle.com/javase/6/docs/api/java/lang/package-summary.html')" stroke="none">java.lang</text>
    </g>
    <g fill="rgb(187,187,255)" transform="matrix(0.5387,0,0,0.5387,289.8414,229.5027)" stroke="rgb(187,187,255)">
      <rect x="-130.04" y="87.1328" clip-path="url(#clipPath3)" width="53.56" height="23.1328" stroke="none"/>
    </g>
    <g fill="rgb(130,130,178)" stroke-miterlimit="1.45" transform="matrix(0.5387,0,0,0.5387,289.8414,229.5027)" stroke-linecap="butt" stroke="rgb(130,130,178)">
      <rect fill="none" width="53.56" x="-130.04" height="23.1328" y="87.1328"/>
    </g>
    <g font-size="13" font-weight="bold" font-family="sans-serif" transform="matrix(0.5387,0,0,0.5387,289.8414,229.5027)">
      <text xml:space="preserve" x="-125.26" y="103.1997" onclick="umlload('http://docs.oracle.com/javase/6/docs/api/java/lang/String.html')" stroke="none">String</text>
    </g>
    <g fill="rgb(238,238,255)" transform="matrix(0.5387,0,0,0.5387,289.8414,229.5027)" stroke="rgb(238,238,255)">
      <rect width="487.7704" x="-537.68" height="17.9688" y="-26" stroke="none"/>
    </g>
    <g fill="rgb(166,166,178)" stroke-miterlimit="1.45" transform="matrix(0.5387,0,0,0.5387,289.8414,229.5027)" stroke-linecap="butt" stroke="rgb(166,166,178)">
      <rect fill="none" width="487.7704" x="-537.68" height="17.9688" y="-26"/>
    </g>
    <g fill="rgb(238,238,255)" transform="matrix(0.5387,0,0,0.5387,289.8414,229.5027)" stroke="rgb(238,238,255)">
      <rect width="488.05" x="-537.68" height="39.1641" y="-8.0312" stroke="none"/>
    </g>
    <g fill="rgb(166,166,178)" stroke-miterlimit="1.45" transform="matrix(0.5387,0,0,0.5387,289.8414,229.5027)" stroke-linecap="butt" stroke="rgb(166,166,178)">
      <rect fill="none" width="488.05" x="-537.68" height="39.1641" y="-8.0312"/>
    </g>
    <g font-family="sans-serif" transform="matrix(0.5387,0,0,0.5387,289.8414,229.5027)">
      <text xml:space="preserve" x="-531.68" y="-12.8613" onclick="umlload('../../../../../../../../../com/msopentech/odatajclient/engine/data/metadata/edmx/mapping/cs/package-summary.html')" stroke="none">com.msopentech.odatajclient.engine.data.metadata.edmx.mapping.cs</text>
    </g>
    <g fill="rgb(187,187,255)" transform="matrix(0.5387,0,0,0.5387,289.8414,229.5027)" stroke="rgb(187,187,255)">
      <rect x="-529.68" y="0" clip-path="url(#clipPath4)" width="345.05" height="23.1328" stroke="none"/>
    </g>
    <g fill="rgb(130,130,178)" stroke-miterlimit="1.45" transform="matrix(0.5387,0,0,0.5387,289.8414,229.5027)" stroke-linecap="butt" stroke="rgb(130,130,178)">
      <rect fill="none" width="345.05" x="-529.68" height="23.1328" y="0"/>
    </g>
    <g font-size="13" font-weight="bold" font-family="sans-serif" transform="matrix(0.5387,0,0,0.5387,289.8414,229.5027)">
      <text xml:space="preserve" x="-520.655" y="16.0669" onclick="umlload('../../../../../../../../../com/msopentech/odatajclient/engine/data/metadata/edmx/mapping/cs/AssociationSetModificationFunctionMapping.html')" stroke="none">AssociationSetModificationFunctionMapping</text>
    </g>
    <g fill="rgb(238,238,255)" transform="matrix(0.5387,0,0,0.5387,289.8414,229.5027)" stroke="rgb(238,238,255)">
      <rect width="76.1412" x="244.865" height="17.9688" y="-133.1328" stroke="none"/>
    </g>
    <g fill="rgb(166,166,178)" stroke-miterlimit="1.45" transform="matrix(0.5387,0,0,0.5387,289.8414,229.5027)" stroke-linecap="butt" stroke="rgb(166,166,178)">
      <rect fill="none" width="76.1412" x="244.865" height="17.9688" y="-133.1328"/>
    </g>
    <g fill="rgb(238,238,255)" transform="matrix(0.5387,0,0,0.5387,289.8414,229.5027)" stroke="rgb(238,238,255)">
      <rect width="76.1412" x="244.865" height="39.1641" y="-115.1641" stroke="none"/>
    </g>
    <g fill="rgb(166,166,178)" stroke-miterlimit="1.45" transform="matrix(0.5387,0,0,0.5387,289.8414,229.5027)" stroke-linecap="butt" stroke="rgb(166,166,178)">
      <rect fill="none" width="76.1412" x="244.865" height="39.1641" y="-115.1641"/>
    </g>
    <g font-family="sans-serif" transform="matrix(0.5387,0,0,0.5387,289.8414,229.5027)">
      <text xml:space="preserve" x="250.865" y="-119.9941" onclick="umlload('http://docs.oracle.com/javase/6/docs/api/java/lang/package-summary.html')" stroke="none">java.lang</text>
    </g>
    <g fill="rgb(187,187,255)" transform="matrix(0.5387,0,0,0.5387,289.8414,229.5027)" stroke="rgb(187,187,255)">
      <rect x="252.865" y="-107.1328" clip-path="url(#clipPath5)" width="57.68" height="23.1328" stroke="none"/>
    </g>
    <g fill="rgb(130,130,178)" stroke-miterlimit="1.45" transform="matrix(0.5387,0,0,0.5387,289.8414,229.5027)" stroke-linecap="butt" stroke="rgb(130,130,178)">
      <rect fill="none" width="57.68" x="252.865" height="23.1328" y="-107.1328"/>
    </g>
    <g font-size="13" font-weight="bold" font-family="sans-serif" transform="matrix(0.5387,0,0,0.5387,289.8414,229.5027)">
      <text xml:space="preserve" x="257.705" y="-91.0659" onclick="umlload('http://docs.oracle.com/javase/6/docs/api/java/lang/Object.html')" stroke="none">Object</text>
    </g>
    <g fill="rgb(238,238,255)" transform="matrix(0.5387,0,0,0.5387,289.8414,229.5027)" stroke="rgb(238,238,255)">
      <rect width="487.7704" x="-8" height="17.9688" y="-26" stroke="none"/>
    </g>
    <g fill="rgb(166,166,178)" stroke-miterlimit="1.45" transform="matrix(0.5387,0,0,0.5387,289.8414,229.5027)" stroke-linecap="butt" stroke="rgb(166,166,178)">
      <rect fill="none" width="487.7704" x="-8" height="17.9688" y="-26"/>
    </g>
    <g fill="rgb(238,238,255)" transform="matrix(0.5387,0,0,0.5387,289.8414,229.5027)" stroke="rgb(238,238,255)">
      <rect width="579.41" x="-8" height="365.0312" y="-8.0312" stroke="none"/>
    </g>
    <g fill="rgb(166,166,178)" stroke-miterlimit="1.45" transform="matrix(0.5387,0,0,0.5387,289.8414,229.5027)" stroke-linecap="butt" stroke="rgb(166,166,178)">
      <rect fill="none" width="579.41" x="-8" height="365.0312" y="-8.0312"/>
    </g>
    <g font-family="sans-serif" transform="matrix(0.5387,0,0,0.5387,289.8414,229.5027)">
      <text xml:space="preserve" x="-2" y="-12.8613" onclick="umlload('package-summary.html')" stroke="none">com.msopentech.odatajclient.engine.data.metadata.edmx.mapping.cs</text>
    </g>
    <g fill="rgb(187,187,255)" transform="matrix(0.5387,0,0,0.5387,289.8414,229.5027)" stroke="rgb(187,187,255)">
      <rect x="0" y="0" clip-path="url(#clipPath6)" width="563.41" height="26.625" stroke="none"/>
      <line clip-path="url(#clipPath6)" fill="none" x1="0" x2="563.41" y1="26.625" y2="26.625" stroke="black"/>
      <rect x="0" y="27.625" clip-path="url(#clipPath6)" width="563.41" height="111.7812" stroke="none"/>
      <line clip-path="url(#clipPath6)" fill="none" x1="0" x2="563.41" y1="139.4062" y2="139.4062" stroke="black"/>
      <rect x="0" y="140.4062" clip-path="url(#clipPath6)" width="563.41" height="15.9688" stroke="none"/>
      <line clip-path="url(#clipPath6)" fill="none" x1="0" x2="563.41" y1="156.375" y2="156.375" stroke="black"/>
      <rect x="0" y="157.375" clip-path="url(#clipPath6)" width="563.41" height="191.625" stroke="none"/>
    </g>
    <g fill="rgb(130,130,178)" stroke-miterlimit="1.45" transform="matrix(0.5387,0,0,0.5387,289.8414,229.5027)" stroke-linecap="butt" stroke="rgb(130,130,178)">
      <rect fill="none" width="563.41" x="0" height="349" y="0"/>
    </g>
    <g font-size="16" font-weight="bold" font-family="sans-serif" transform="matrix(0.5387,0,0,0.5387,289.8414,229.5027)">
      <text xml:space="preserve" x="179.205" y="18.8516" onclick="umlload('#')" stroke="none">AssociationSetMapping</text>
    </g>
    <g font-family="sans-serif" transform="matrix(0.5387,0,0,0.5387,289.8414,229.5027)">
      <text xml:space="preserve" x="4" y="38.1719" stroke="none">#</text>
      <text xml:space="preserve" x="19" y="39.7637" onclick="umlload('#condition')" stroke="none">condition : List&lt;Condition&gt;</text>
    </g>
    <g font-family="sans-serif" transform="matrix(0.5387,0,0,0.5387,289.8414,229.5027)">
      <text xml:space="preserve" x="4" y="54.1719" stroke="none">#</text>
      <text xml:space="preserve" x="19" y="55.7324" onclick="umlload('#endProperty')" stroke="none">endProperty : List&lt;EndProperty&gt;</text>
    </g>
    <g font-family="sans-serif" transform="matrix(0.5387,0,0,0.5387,289.8414,229.5027)">
      <text xml:space="preserve" x="4" y="70.1719" stroke="none">#</text>
      <text xml:space="preserve" x="19" y="71.7012" onclick="umlload('#modificationFunctionMapping')" stroke="none">modificationFunctionMapping : AssociationSetModificationFunctionMapping</text>
    </g>
    <g font-family="sans-serif" transform="matrix(0.5387,0,0,0.5387,289.8414,229.5027)">
      <text xml:space="preserve" x="4" y="86.1719" stroke="none">#</text>
      <text xml:space="preserve" x="19" y="87.6699" onclick="umlload('#name')" stroke="none">name : String</text>
    </g>
    <g font-family="sans-serif" transform="matrix(0.5387,0,0,0.5387,289.8414,229.5027)">
      <text xml:space="preserve" x="4" y="102.1719" stroke="none">#</text>
      <text xml:space="preserve" x="19" y="103.6387" onclick="umlload('#queryView')" stroke="none">queryView : String</text>
    </g>
    <g font-family="sans-serif" transform="matrix(0.5387,0,0,0.5387,289.8414,229.5027)">
      <text xml:space="preserve" x="4" y="118.1719" stroke="none">#</text>
      <text xml:space="preserve" x="19" y="119.6074" onclick="umlload('#storeEntitySet')" stroke="none">storeEntitySet : String</text>
    </g>
    <g font-family="sans-serif" transform="matrix(0.5387,0,0,0.5387,289.8414,229.5027)">
      <text xml:space="preserve" x="4" y="134.1719" stroke="none">#</text>
      <text xml:space="preserve" x="19" y="135.5762" onclick="umlload('#typeName')" stroke="none">typeName : String</text>
    </g>
    <g font-family="sans-serif" transform="matrix(0.5387,0,0,0.5387,289.8414,229.5027)">
      <text xml:space="preserve" x="4" y="151.1719" stroke="none">+</text>
      <text xml:space="preserve" x="19" y="152.5449" onclick="umlload('#AssociationSetMapping()')" stroke="none">AssociationSetMapping()</text>
    </g>
    <g font-family="sans-serif" transform="matrix(0.5387,0,0,0.5387,289.8414,229.5027)">
      <text xml:space="preserve" x="4" y="168.1719" stroke="none">+</text>
      <text xml:space="preserve" x="19" y="169.5137" onclick="umlload('#getCondition()')" stroke="none">getCondition() : List&lt;Condition&gt;</text>
    </g>
    <g font-family="sans-serif" transform="matrix(0.5387,0,0,0.5387,289.8414,229.5027)">
      <text xml:space="preserve" x="4" y="184.1719" stroke="none">+</text>
      <text xml:space="preserve" x="19" y="185.4824" onclick="umlload('#getEndProperty()')" stroke="none">getEndProperty() : List&lt;EndProperty&gt;</text>
    </g>
    <g font-family="sans-serif" transform="matrix(0.5387,0,0,0.5387,289.8414,229.5027)">
      <text xml:space="preserve" x="4" y="200.1719" stroke="none">+</text>
      <text xml:space="preserve" x="19" y="201.4512" onclick="umlload('#getModificationFunctionMapping()')" stroke="none">getModificationFunctionMapping() : AssociationSetModificationFunctionMapping</text>
    </g>
    <g font-family="sans-serif" transform="matrix(0.5387,0,0,0.5387,289.8414,229.5027)">
      <text xml:space="preserve" x="4" y="216.1719" stroke="none">+</text>
      <text xml:space="preserve" x="19" y="217.4199" onclick="umlload('#getName()')" stroke="none">getName() : String</text>
    </g>
    <g font-family="sans-serif" transform="matrix(0.5387,0,0,0.5387,289.8414,229.5027)">
      <text xml:space="preserve" x="4" y="232.1719" stroke="none">+</text>
      <text xml:space="preserve" x="19" y="233.3887" onclick="umlload('#getQueryView()')" stroke="none">getQueryView() : String</text>
    </g>
    <g font-family="sans-serif" transform="matrix(0.5387,0,0,0.5387,289.8414,229.5027)">
      <text xml:space="preserve" x="4" y="248.1719" stroke="none">+</text>
      <text xml:space="preserve" x="19" y="249.3574" onclick="umlload('#getStoreEntitySet()')" stroke="none">getStoreEntitySet() : String</text>
    </g>
    <g font-family="sans-serif" transform="matrix(0.5387,0,0,0.5387,289.8414,229.5027)">
      <text xml:space="preserve" x="4" y="264.1719" stroke="none">+</text>
      <text xml:space="preserve" x="19" y="265.3262" onclick="umlload('#getTypeName()')" stroke="none">getTypeName() : String</text>
    </g>
    <g font-family="sans-serif" transform="matrix(0.5387,0,0,0.5387,289.8414,229.5027)">
      <text xml:space="preserve" x="4" y="280.1719" stroke="none">+</text>
      <text xml:space="preserve" x="19" y="281.2949" onclick="umlload('#setModificationFunctionMapping(com.msopentech.odatajclient.engine.data.metadata.edmx.mapping.cs.AssociationSetModificationFunctionMapping)')" stroke="none">setModificationFunctionMapping(AssociationSetModificationFunctionMapping) : void</text>
    </g>
    <g font-family="sans-serif" transform="matrix(0.5387,0,0,0.5387,289.8414,229.5027)">
      <text xml:space="preserve" x="4" y="296.1719" stroke="none">+</text>
      <text xml:space="preserve" x="19" y="297.2637" onclick="umlload('#setName(java.lang.String)')" stroke="none">setName(String) : void</text>
    </g>
    <g font-family="sans-serif" transform="matrix(0.5387,0,0,0.5387,289.8414,229.5027)">
      <text xml:space="preserve" x="4" y="312.1719" stroke="none">+</text>
      <text xml:space="preserve" x="19" y="313.2324" onclick="umlload('#setQueryView(java.lang.String)')" stroke="none">setQueryView(String) : void</text>
    </g>
    <g font-family="sans-serif" transform="matrix(0.5387,0,0,0.5387,289.8414,229.5027)">
      <text xml:space="preserve" x="4" y="328.1719" stroke="none">+</text>
      <text xml:space="preserve" x="19" y="329.2012" onclick="umlload('#setStoreEntitySet(java.lang.String)')" stroke="none">setStoreEntitySet(String) : void</text>
    </g>
    <g font-family="sans-serif" transform="matrix(0.5387,0,0,0.5387,289.8414,229.5027)">
      <text xml:space="preserve" x="4" y="344.1719" stroke="none">+</text>
      <text xml:space="preserve" x="19" y="345.1699" onclick="umlload('#setTypeName(java.lang.String)')" stroke="none">setTypeName(String) : void</text>
    </g>
    <g font-family="sans-serif" transform="matrix(0.5387,0,0,0.5387,289.8414,229.5027)">
      <text xml:space="preserve" x="-532" y="381.1543" onclick="umlload('http://www.yworks.com/')" stroke="none">yWorks UML Doclet</text>
    </g>
    <g stroke-miterlimit="1.45" transform="matrix(0.5387,0,0,0.5387,289.8414,229.5027)" stroke-linecap="butt">
      <path fill="none" d="M281.705 0 L281.705 -69"/>
      <path fill="white" d="M281.705 -84 L275.705 -68 L287.705 -68 Z" stroke="none"/>
      <path fill="none" d="M281.705 -84 L275.705 -68 L287.705 -68 Z"/>
      <path fill="none" d="M-0.0188 11.5664 L-184.63 11.5664"/>
      <line stroke-linecap="square" transform="matrix(-1,0,0,-1,-184.63,11.5664)" fill="none" x1="0" x2="-14" y1="0" y2="-4" stroke-miterlimit="10"/>
      <line stroke-linecap="square" transform="matrix(-1,0,0,-1,-184.63,11.5664)" fill="none" x1="0" x2="-14" y1="0" y2="4" stroke-miterlimit="10"/>
    </g>
    <g stroke-miterlimit="1.45" transform="matrix(0.5387,0,0,0.5387,289.8414,229.5027)" stroke-linecap="butt">
      <path fill="none" d="M-0.0168 98.6992 L-76.48 98.6992"/>
      <line stroke-linecap="square" transform="matrix(-1,0,0,-1,-76.48,98.6992)" fill="none" x1="0" x2="-14" y1="0" y2="-4" stroke-miterlimit="10"/>
      <line stroke-linecap="square" transform="matrix(-1,0,0,-1,-76.48,98.6992)" fill="none" x1="0" x2="-14" y1="0" y2="4" stroke-miterlimit="10"/>
    </g>
    <g stroke-miterlimit="1.45" transform="matrix(0.5387,0,0,0.5387,289.8414,229.5027)" stroke-linecap="butt">
      <path fill="none" d="M0.0323 190.623 L-66 190.623"/>
      <line stroke-linecap="square" transform="matrix(-1,0,0,-1,-66,190.623)" fill="none" x1="0" x2="-14" y1="0" y2="-4" stroke-miterlimit="10"/>
      <line stroke-linecap="square" transform="matrix(-1,0,0,-1,-66,190.623)" fill="none" x1="0" x2="-14" y1="0" y2="4" stroke-miterlimit="10"/>
    </g>
  </g>
</svg>
