<?xml version="1.0" encoding="UTF-8"?><svg xmlns="http://www.w3.org/2000/svg" xmlns:xlink="http://www.w3.org/1999/xlink" fill-opacity="1" color-rendering="auto" color-interpolation="auto" stroke="black" text-rendering="auto" stroke-linecap="square" width="598" stroke-miterlimit="10" stroke-opacity="1" shape-rendering="auto" fill="black" stroke-dasharray="none" font-weight="normal" stroke-width="1" height="598" font-family="'Dialog'" font-style="normal" stroke-linejoin="miter" font-size="12" stroke-dashoffset="0" image-rendering="auto">
  <!--Generated by ySVG-->
  <defs id="genericDefs"/>
  <g>
    <defs id="defs1">
      <clipPath clipPathUnits="userSpaceOnUse" id="clipPath1">
        <path d="M0 0 L598 0 L598 598 L0 598 L0 0 Z"/>
      </clipPath>
      <clipPath clipPathUnits="userSpaceOnUse" id="clipPath2">
        <path d="M-529.68 0 L-251.58 0 L-251.58 23.1328 L-529.68 23.1328 L-529.68 0 Z"/>
      </clipPath>
      <clipPath clipPathUnits="userSpaceOnUse" id="clipPath3">
        <path d="M180.765 -107.1328 L238.445 -107.1328 L238.445 -84 L180.765 -84 L180.765 -107.1328 Z"/>
      </clipPath>
      <clipPath clipPathUnits="userSpaceOnUse" id="clipPath4">
        <path d="M0 0 L419.21 0 L419.21 141.4062 L0 141.4062 L0 0 Z"/>
      </clipPath>
      <script type="text/ecmascript"><![CDATA[
function umlload(newLocation)
{
if (newLocation.charAt(0) != '#') {
if (newLocation.indexOf("://") > -1) {
window.parent.location.href = newLocation;
} else {
var tmp = window.parent.location.href;
tmp = tmp.substring(0, tmp.lastIndexOf("/") + 1);
window.parent.location.href = tmp.concat(newLocation);
}
} else {
window.parent.location.hash = newLocation;
}
}
]]></script>
    </defs>
    <g fill="rgb(238,238,255)" transform="matrix(0.5868,0,0,0.5868,315.7252,284.0353)" stroke="rgb(238,238,255)">
      <rect width="487.7704" x="-537.68" height="17.9688" y="-26" stroke="none"/>
    </g>
    <g fill="rgb(166,166,178)" stroke-miterlimit="1.45" transform="matrix(0.5868,0,0,0.5868,315.7252,284.0353)" stroke-linecap="butt" stroke="rgb(166,166,178)">
      <rect fill="none" width="487.7704" x="-537.68" height="17.9688" y="-26"/>
    </g>
    <g fill="rgb(238,238,255)" transform="matrix(0.5868,0,0,0.5868,315.7252,284.0353)" stroke="rgb(238,238,255)">
      <rect width="488.1" x="-537.68" height="39.1641" y="-8.0312" stroke="none"/>
    </g>
    <g fill="rgb(166,166,178)" stroke-miterlimit="1.45" transform="matrix(0.5868,0,0,0.5868,315.7252,284.0353)" stroke-linecap="butt" stroke="rgb(166,166,178)">
      <rect fill="none" width="488.1" x="-537.68" height="39.1641" y="-8.0312"/>
    </g>
    <g font-family="sans-serif" transform="matrix(0.5868,0,0,0.5868,315.7252,284.0353)">
      <text xml:space="preserve" x="-531.68" y="-12.8613" onclick="umlload('../../../../../../../../../com/msopentech/odatajclient/engine/data/metadata/edmx/mapping/cs/package-summary.html')" stroke="none">com.msopentech.odatajclient.engine.data.metadata.edmx.mapping.cs</text>
    </g>
    <g fill="rgb(187,187,255)" transform="matrix(0.5868,0,0,0.5868,315.7252,284.0353)" stroke="rgb(187,187,255)">
      <rect x="-529.68" y="0" clip-path="url(#clipPath2)" width="278.1" height="23.1328" stroke="none"/>
    </g>
    <g fill="rgb(130,130,178)" stroke-miterlimit="1.45" transform="matrix(0.5868,0,0,0.5868,315.7252,284.0353)" stroke-linecap="butt" stroke="rgb(130,130,178)">
      <rect fill="none" width="278.1" x="-529.68" height="23.1328" y="0"/>
    </g>
    <g font-size="13" font-weight="bold" font-family="sans-serif" transform="matrix(0.5868,0,0,0.5868,315.7252,284.0353)">
      <text xml:space="preserve" x="-521.63" y="16.0669" onclick="umlload('../../../../../../../../../com/msopentech/odatajclient/engine/data/metadata/edmx/mapping/cs/AssociationSetModificationFunction.html')" stroke="none">AssociationSetModificationFunction</text>
    </g>
    <g fill="rgb(238,238,255)" transform="matrix(0.5868,0,0,0.5868,315.7252,284.0353)" stroke="rgb(238,238,255)">
      <rect width="76.1412" x="172.765" height="17.9688" y="-133.1328" stroke="none"/>
    </g>
    <g fill="rgb(166,166,178)" stroke-miterlimit="1.45" transform="matrix(0.5868,0,0,0.5868,315.7252,284.0353)" stroke-linecap="butt" stroke="rgb(166,166,178)">
      <rect fill="none" width="76.1412" x="172.765" height="17.9688" y="-133.1328"/>
    </g>
    <g fill="rgb(238,238,255)" transform="matrix(0.5868,0,0,0.5868,315.7252,284.0353)" stroke="rgb(238,238,255)">
      <rect width="76.1412" x="172.765" height="39.1641" y="-115.1641" stroke="none"/>
    </g>
    <g fill="rgb(166,166,178)" stroke-miterlimit="1.45" transform="matrix(0.5868,0,0,0.5868,315.7252,284.0353)" stroke-linecap="butt" stroke="rgb(166,166,178)">
      <rect fill="none" width="76.1412" x="172.765" height="39.1641" y="-115.1641"/>
    </g>
    <g font-family="sans-serif" transform="matrix(0.5868,0,0,0.5868,315.7252,284.0353)">
      <text xml:space="preserve" x="178.765" y="-119.9941" onclick="umlload('http://docs.oracle.com/javase/6/docs/api/java/lang/package-summary.html')" stroke="none">java.lang</text>
    </g>
    <g fill="rgb(187,187,255)" transform="matrix(0.5868,0,0,0.5868,315.7252,284.0353)" stroke="rgb(187,187,255)">
      <rect x="180.765" y="-107.1328" clip-path="url(#clipPath3)" width="57.68" height="23.1328" stroke="none"/>
    </g>
    <g fill="rgb(130,130,178)" stroke-miterlimit="1.45" transform="matrix(0.5868,0,0,0.5868,315.7252,284.0353)" stroke-linecap="butt" stroke="rgb(130,130,178)">
      <rect fill="none" width="57.68" x="180.765" height="23.1328" y="-107.1328"/>
    </g>
    <g font-size="13" font-weight="bold" font-family="sans-serif" transform="matrix(0.5868,0,0,0.5868,315.7252,284.0353)">
      <text xml:space="preserve" x="185.605" y="-91.0659" onclick="umlload('http://docs.oracle.com/javase/6/docs/api/java/lang/Object.html')" stroke="none">Object</text>
    </g>
    <g fill="rgb(238,238,255)" transform="matrix(0.5868,0,0,0.5868,315.7252,284.0353)" stroke="rgb(238,238,255)">
      <rect width="487.7704" x="-8" height="17.9688" y="-26" stroke="none"/>
    </g>
    <g fill="rgb(166,166,178)" stroke-miterlimit="1.45" transform="matrix(0.5868,0,0,0.5868,315.7252,284.0353)" stroke-linecap="butt" stroke="rgb(166,166,178)">
      <rect fill="none" width="487.7704" x="-8" height="17.9688" y="-26"/>
    </g>
    <g fill="rgb(238,238,255)" transform="matrix(0.5868,0,0,0.5868,315.7252,284.0353)" stroke="rgb(238,238,255)">
      <rect width="488.21" x="-8" height="157.4375" y="-8.0312" stroke="none"/>
    </g>
    <g fill="rgb(166,166,178)" stroke-miterlimit="1.45" transform="matrix(0.5868,0,0,0.5868,315.7252,284.0353)" stroke-linecap="butt" stroke="rgb(166,166,178)">
      <rect fill="none" width="488.21" x="-8" height="157.4375" y="-8.0312"/>
    </g>
    <g font-family="sans-serif" transform="matrix(0.5868,0,0,0.5868,315.7252,284.0353)">
      <text xml:space="preserve" x="-2" y="-12.8613" onclick="umlload('package-summary.html')" stroke="none">com.msopentech.odatajclient.engine.data.metadata.edmx.mapping.cs</text>
    </g>
    <g fill="rgb(187,187,255)" transform="matrix(0.5868,0,0,0.5868,315.7252,284.0353)" stroke="rgb(187,187,255)">
      <rect x="0" y="0" clip-path="url(#clipPath4)" width="419.21" height="26.625" stroke="none"/>
      <line clip-path="url(#clipPath4)" fill="none" x1="0" x2="419.21" y1="26.625" y2="26.625" stroke="black"/>
      <rect x="0" y="27.625" clip-path="url(#clipPath4)" width="419.21" height="31.9375" stroke="none"/>
      <line clip-path="url(#clipPath4)" fill="none" x1="0" x2="419.21" y1="59.5625" y2="59.5625" stroke="black"/>
      <rect x="0" y="60.5625" clip-path="url(#clipPath4)" width="419.21" height="15.9688" stroke="none"/>
      <line clip-path="url(#clipPath4)" fill="none" x1="0" x2="419.21" y1="76.5312" y2="76.5312" stroke="black"/>
      <rect x="0" y="77.5312" clip-path="url(#clipPath4)" width="419.21" height="63.875" stroke="none"/>
    </g>
    <g fill="rgb(130,130,178)" stroke-miterlimit="1.45" transform="matrix(0.5868,0,0,0.5868,315.7252,284.0353)" stroke-linecap="butt" stroke="rgb(130,130,178)">
      <rect fill="none" width="419.21" x="0" height="141.4062" y="0"/>
    </g>
    <g font-size="16" font-weight="bold" font-family="sans-serif" transform="matrix(0.5868,0,0,0.5868,315.7252,284.0353)">
      <text xml:space="preserve" x="15.605" y="18.8516" onclick="umlload('#')" stroke="none">AssociationSetModificationFunctionMapping</text>
    </g>
    <g font-family="sans-serif" transform="matrix(0.5868,0,0,0.5868,315.7252,284.0353)">
      <text xml:space="preserve" x="4" y="38.1719" stroke="none">#</text>
      <text xml:space="preserve" x="19" y="39.7637" onclick="umlload('#deleteFunction')" stroke="none">deleteFunction : AssociationSetModificationFunction</text>
    </g>
    <g font-family="sans-serif" transform="matrix(0.5868,0,0,0.5868,315.7252,284.0353)">
      <text xml:space="preserve" x="4" y="54.1719" stroke="none">#</text>
      <text xml:space="preserve" x="19" y="55.7324" onclick="umlload('#insertFunction')" stroke="none">insertFunction : AssociationSetModificationFunction</text>
    </g>
    <g font-family="sans-serif" transform="matrix(0.5868,0,0,0.5868,315.7252,284.0353)">
      <text xml:space="preserve" x="4" y="71.1719" stroke="none">+</text>
      <text xml:space="preserve" x="19" y="72.7012" onclick="umlload('#AssociationSetModificationFunctionMapping()')" stroke="none">AssociationSetModificationFunctionMapping()</text>
    </g>
    <g font-family="sans-serif" transform="matrix(0.5868,0,0,0.5868,315.7252,284.0353)">
      <text xml:space="preserve" x="4" y="88.1719" stroke="none">+</text>
      <text xml:space="preserve" x="19" y="89.6699" onclick="umlload('#getDeleteFunction()')" stroke="none">getDeleteFunction() : AssociationSetModificationFunction</text>
    </g>
    <g font-family="sans-serif" transform="matrix(0.5868,0,0,0.5868,315.7252,284.0353)">
      <text xml:space="preserve" x="4" y="104.1719" stroke="none">+</text>
      <text xml:space="preserve" x="19" y="105.6387" onclick="umlload('#getInsertFunction()')" stroke="none">getInsertFunction() : AssociationSetModificationFunction</text>
    </g>
    <g font-family="sans-serif" transform="matrix(0.5868,0,0,0.5868,315.7252,284.0353)">
      <text xml:space="preserve" x="4" y="120.1719" stroke="none">+</text>
      <text xml:space="preserve" x="19" y="121.6074" onclick="umlload('#setDeleteFunction(com.msopentech.odatajclient.engine.data.metadata.edmx.mapping.cs.AssociationSetModificationFunction)')" stroke="none">setDeleteFunction(AssociationSetModificationFunction) : void</text>
    </g>
    <g font-family="sans-serif" transform="matrix(0.5868,0,0,0.5868,315.7252,284.0353)">
      <text xml:space="preserve" x="4" y="136.1719" stroke="none">+</text>
      <text xml:space="preserve" x="19" y="137.5762" onclick="umlload('#setInsertFunction(com.msopentech.odatajclient.engine.data.metadata.edmx.mapping.cs.AssociationSetModificationFunction)')" stroke="none">setInsertFunction(AssociationSetModificationFunction) : void</text>
    </g>
    <g font-family="sans-serif" transform="matrix(0.5868,0,0,0.5868,315.7252,284.0353)">
      <text xml:space="preserve" x="-532" y="174.1543" onclick="umlload('http://www.yworks.com/')" stroke="none">yWorks UML Doclet</text>
    </g>
    <g stroke-miterlimit="1.45" transform="matrix(0.5868,0,0,0.5868,315.7252,284.0353)" stroke-linecap="butt">
      <path fill="none" d="M209.605 0 L209.605 -69"/>
      <path fill="white" d="M209.605 -84 L203.605 -68 L215.605 -68 Z" stroke="none"/>
      <path fill="none" d="M209.605 -84 L203.605 -68 L215.605 -68 Z"/>
      <path fill="none" d="M0.0137 11.5664 L-251.58 11.5664"/>
      <line stroke-linecap="square" transform="matrix(-1,0,0,-1,-251.58,11.5664)" fill="none" x1="0" x2="-14" y1="0" y2="-4" stroke-miterlimit="10"/>
      <line stroke-linecap="square" transform="matrix(-1,0,0,-1,-251.58,11.5664)" fill="none" x1="0" x2="-14" y1="0" y2="4" stroke-miterlimit="10"/>
    </g>
  </g>
</svg>
