<?xml version="1.0" encoding="UTF-8"?><svg xmlns="http://www.w3.org/2000/svg" xmlns:xlink="http://www.w3.org/1999/xlink" fill-opacity="1" color-rendering="auto" color-interpolation="auto" stroke="black" text-rendering="auto" stroke-linecap="square" width="598" stroke-miterlimit="10" stroke-opacity="1" shape-rendering="auto" fill="black" stroke-dasharray="none" font-weight="normal" stroke-width="1" height="598" font-family="'Dialog'" font-style="normal" stroke-linejoin="miter" font-size="12" stroke-dashoffset="0" image-rendering="auto">
  <!--Generated by ySVG-->
  <defs id="genericDefs"/>
  <g>
    <defs id="defs1">
      <clipPath clipPathUnits="userSpaceOnUse" id="clipPath1">
        <path d="M0 0 L598 0 L598 598 L0 598 L0 0 Z"/>
      </clipPath>
      <clipPath clipPathUnits="userSpaceOnUse" id="clipPath2">
        <path d="M-135.01 0 L-66 0 L-66 23.1328 L-135.01 23.1328 L-135.01 0 Z"/>
      </clipPath>
      <clipPath clipPathUnits="userSpaceOnUse" id="clipPath3">
        <path d="M-135.01 33.1328 L-81.45 33.1328 L-81.45 56.2656 L-135.01 56.2656 L-135.01 33.1328 Z"/>
      </clipPath>
      <clipPath clipPathUnits="userSpaceOnUse" id="clipPath4">
        <path d="M78.795 -107.1328 L136.475 -107.1328 L136.475 -84 L78.795 -84 L78.795 -107.1328 Z"/>
      </clipPath>
      <clipPath clipPathUnits="userSpaceOnUse" id="clipPath5">
        <path d="M0 0 L215.27 0 L215.27 237.2188 L0 237.2188 L0 0 Z"/>
      </clipPath>
      <script type="text/ecmascript"><![CDATA[
function umlload(newLocation)
{
if (newLocation.charAt(0) != '#') {
if (newLocation.indexOf("://") > -1) {
window.parent.location.href = newLocation;
} else {
var tmp = window.parent.location.href;
tmp = tmp.substring(0, tmp.lastIndexOf("/") + 1);
window.parent.location.href = tmp.concat(newLocation);
}
} else {
window.parent.location.hash = newLocation;
}
}
]]></script>
    </defs>
    <g fill="rgb(238,238,255)" transform="matrix(0.9568,0,0,0.9568,137.7792,228.6752)" stroke="rgb(238,238,255)">
      <rect width="76.1412" x="-143.01" height="17.9688" y="-26" stroke="none"/>
    </g>
    <g fill="rgb(166,166,178)" stroke-miterlimit="1.45" transform="matrix(0.9568,0,0,0.9568,137.7792,228.6752)" stroke-linecap="butt" stroke="rgb(166,166,178)">
      <rect fill="none" width="76.1412" x="-143.01" height="17.9688" y="-26"/>
    </g>
    <g fill="rgb(238,238,255)" transform="matrix(0.9568,0,0,0.9568,137.7792,228.6752)" stroke="rgb(238,238,255)">
      <rect width="85.01" x="-143.01" height="72.2969" y="-8.0312" stroke="none"/>
    </g>
    <g fill="rgb(166,166,178)" stroke-miterlimit="1.45" transform="matrix(0.9568,0,0,0.9568,137.7792,228.6752)" stroke-linecap="butt" stroke="rgb(166,166,178)">
      <rect fill="none" width="85.01" x="-143.01" height="72.2969" y="-8.0312"/>
    </g>
    <g font-family="sans-serif" transform="matrix(0.9568,0,0,0.9568,137.7792,228.6752)">
      <text xml:space="preserve" x="-137.01" y="-12.8613" onclick="umlload('http://docs.oracle.com/javase/6/docs/api/java/lang/package-summary.html')" stroke="none">java.lang</text>
    </g>
    <g fill="rgb(187,187,255)" transform="matrix(0.9568,0,0,0.9568,137.7792,228.6752)" stroke="rgb(187,187,255)">
      <rect x="-135.01" y="0" clip-path="url(#clipPath2)" width="69.01" height="23.1328" stroke="none"/>
    </g>
    <g fill="rgb(130,130,178)" stroke-miterlimit="1.45" transform="matrix(0.9568,0,0,0.9568,137.7792,228.6752)" stroke-linecap="butt" stroke="rgb(130,130,178)">
      <rect fill="none" width="69.01" x="-135.01" height="23.1328" y="0"/>
    </g>
    <g font-size="13" font-weight="bold" font-family="sans-serif" transform="matrix(0.9568,0,0,0.9568,137.7792,228.6752)">
      <text xml:space="preserve" x="-130.005" y="16.0669" onclick="umlload('http://docs.oracle.com/javase/6/docs/api/java/lang/Boolean.html')" stroke="none">Boolean</text>
    </g>
    <g fill="rgb(187,187,255)" transform="matrix(0.9568,0,0,0.9568,137.7792,228.6752)" stroke="rgb(187,187,255)">
      <rect x="-135.01" y="33.1328" clip-path="url(#clipPath3)" width="53.56" height="23.1328" stroke="none"/>
    </g>
    <g fill="rgb(130,130,178)" stroke-miterlimit="1.45" transform="matrix(0.9568,0,0,0.9568,137.7792,228.6752)" stroke-linecap="butt" stroke="rgb(130,130,178)">
      <rect fill="none" width="53.56" x="-135.01" height="23.1328" y="33.1328"/>
    </g>
    <g font-size="13" font-weight="bold" font-family="sans-serif" transform="matrix(0.9568,0,0,0.9568,137.7792,228.6752)">
      <text xml:space="preserve" x="-130.23" y="49.1997" onclick="umlload('http://docs.oracle.com/javase/6/docs/api/java/lang/String.html')" stroke="none">String</text>
    </g>
    <g fill="rgb(238,238,255)" transform="matrix(0.9568,0,0,0.9568,137.7792,228.6752)" stroke="rgb(238,238,255)">
      <rect width="76.1412" x="70.795" height="17.9688" y="-133.1328" stroke="none"/>
    </g>
    <g fill="rgb(166,166,178)" stroke-miterlimit="1.45" transform="matrix(0.9568,0,0,0.9568,137.7792,228.6752)" stroke-linecap="butt" stroke="rgb(166,166,178)">
      <rect fill="none" width="76.1412" x="70.795" height="17.9688" y="-133.1328"/>
    </g>
    <g fill="rgb(238,238,255)" transform="matrix(0.9568,0,0,0.9568,137.7792,228.6752)" stroke="rgb(238,238,255)">
      <rect width="76.1412" x="70.795" height="39.1641" y="-115.1641" stroke="none"/>
    </g>
    <g fill="rgb(166,166,178)" stroke-miterlimit="1.45" transform="matrix(0.9568,0,0,0.9568,137.7792,228.6752)" stroke-linecap="butt" stroke="rgb(166,166,178)">
      <rect fill="none" width="76.1412" x="70.795" height="39.1641" y="-115.1641"/>
    </g>
    <g font-family="sans-serif" transform="matrix(0.9568,0,0,0.9568,137.7792,228.6752)">
      <text xml:space="preserve" x="76.795" y="-119.9941" onclick="umlload('http://docs.oracle.com/javase/6/docs/api/java/lang/package-summary.html')" stroke="none">java.lang</text>
    </g>
    <g fill="rgb(187,187,255)" transform="matrix(0.9568,0,0,0.9568,137.7792,228.6752)" stroke="rgb(187,187,255)">
      <rect x="78.795" y="-107.1328" clip-path="url(#clipPath4)" width="57.68" height="23.1328" stroke="none"/>
    </g>
    <g fill="rgb(130,130,178)" stroke-miterlimit="1.45" transform="matrix(0.9568,0,0,0.9568,137.7792,228.6752)" stroke-linecap="butt" stroke="rgb(130,130,178)">
      <rect fill="none" width="57.68" x="78.795" height="23.1328" y="-107.1328"/>
    </g>
    <g font-size="13" font-weight="bold" font-family="sans-serif" transform="matrix(0.9568,0,0,0.9568,137.7792,228.6752)">
      <text xml:space="preserve" x="83.635" y="-91.0659" onclick="umlload('http://docs.oracle.com/javase/6/docs/api/java/lang/Object.html')" stroke="none">Object</text>
    </g>
    <g fill="rgb(238,238,255)" transform="matrix(0.9568,0,0,0.9568,137.7792,228.6752)" stroke="rgb(238,238,255)">
      <rect width="487.7704" x="-8" height="17.9688" y="-26" stroke="none"/>
    </g>
    <g fill="rgb(166,166,178)" stroke-miterlimit="1.45" transform="matrix(0.9568,0,0,0.9568,137.7792,228.6752)" stroke-linecap="butt" stroke="rgb(166,166,178)">
      <rect fill="none" width="487.7704" x="-8" height="17.9688" y="-26"/>
    </g>
    <g fill="rgb(238,238,255)" transform="matrix(0.9568,0,0,0.9568,137.7792,228.6752)" stroke="rgb(238,238,255)">
      <rect width="488.27" x="-8" height="253.25" y="-8.0312" stroke="none"/>
    </g>
    <g fill="rgb(166,166,178)" stroke-miterlimit="1.45" transform="matrix(0.9568,0,0,0.9568,137.7792,228.6752)" stroke-linecap="butt" stroke="rgb(166,166,178)">
      <rect fill="none" width="488.27" x="-8" height="253.25" y="-8.0312"/>
    </g>
    <g font-family="sans-serif" transform="matrix(0.9568,0,0,0.9568,137.7792,228.6752)">
      <text xml:space="preserve" x="-2" y="-12.8613" onclick="umlload('package-summary.html')" stroke="none">com.msopentech.odatajclient.engine.data.metadata.edmx.mapping.cs</text>
    </g>
    <g fill="rgb(187,187,255)" transform="matrix(0.9568,0,0,0.9568,137.7792,228.6752)" stroke="rgb(187,187,255)">
      <rect x="0" y="0" clip-path="url(#clipPath5)" width="215.27" height="26.625" stroke="none"/>
      <line clip-path="url(#clipPath5)" fill="none" x1="0" x2="215.27" y1="26.625" y2="26.625" stroke="black"/>
      <rect x="0" y="27.625" clip-path="url(#clipPath5)" width="215.27" height="63.875" stroke="none"/>
      <line clip-path="url(#clipPath5)" fill="none" x1="0" x2="215.27" y1="91.5" y2="91.5" stroke="black"/>
      <rect x="0" y="92.5" clip-path="url(#clipPath5)" width="215.27" height="15.9688" stroke="none"/>
      <line clip-path="url(#clipPath5)" fill="none" x1="0" x2="215.27" y1="108.4688" y2="108.4688" stroke="black"/>
      <rect x="0" y="109.4688" clip-path="url(#clipPath5)" width="215.27" height="127.75" stroke="none"/>
    </g>
    <g fill="rgb(130,130,178)" stroke-miterlimit="1.45" transform="matrix(0.9568,0,0,0.9568,137.7792,228.6752)" stroke-linecap="butt" stroke="rgb(130,130,178)">
      <rect fill="none" width="215.27" x="0" height="237.2188" y="0"/>
    </g>
    <g font-size="16" font-weight="bold" font-family="sans-serif" transform="matrix(0.9568,0,0,0.9568,137.7792,228.6752)">
      <text xml:space="preserve" x="66.135" y="18.8516" onclick="umlload('#')" stroke="none">Condition</text>
    </g>
    <g font-family="sans-serif" transform="matrix(0.9568,0,0,0.9568,137.7792,228.6752)">
      <text xml:space="preserve" x="4" y="38.1719" stroke="none">#</text>
      <text xml:space="preserve" x="19" y="39.7637" onclick="umlload('#columnName')" stroke="none">columnName : String</text>
    </g>
    <g font-family="sans-serif" transform="matrix(0.9568,0,0,0.9568,137.7792,228.6752)">
      <text xml:space="preserve" x="4" y="54.1719" stroke="none">#</text>
      <text xml:space="preserve" x="19" y="55.7324" onclick="umlload('#isNull')" stroke="none">isNull : Boolean</text>
    </g>
    <g font-family="sans-serif" transform="matrix(0.9568,0,0,0.9568,137.7792,228.6752)">
      <text xml:space="preserve" x="4" y="70.1719" stroke="none">#</text>
      <text xml:space="preserve" x="19" y="71.7012" onclick="umlload('#name')" stroke="none">name : String</text>
    </g>
    <g font-family="sans-serif" transform="matrix(0.9568,0,0,0.9568,137.7792,228.6752)">
      <text xml:space="preserve" x="4" y="86.1719" stroke="none">#</text>
      <text xml:space="preserve" x="19" y="87.6699" onclick="umlload('#value')" stroke="none">value : String</text>
    </g>
    <g font-family="sans-serif" transform="matrix(0.9568,0,0,0.9568,137.7792,228.6752)">
      <text xml:space="preserve" x="4" y="103.1719" stroke="none">+</text>
      <text xml:space="preserve" x="19" y="104.6387" onclick="umlload('#Condition()')" stroke="none">Condition()</text>
    </g>
    <g font-family="sans-serif" transform="matrix(0.9568,0,0,0.9568,137.7792,228.6752)">
      <text xml:space="preserve" x="4" y="120.1719" stroke="none">+</text>
      <text xml:space="preserve" x="19" y="121.6074" onclick="umlload('#getColumnName()')" stroke="none">getColumnName() : String</text>
    </g>
    <g font-family="sans-serif" transform="matrix(0.9568,0,0,0.9568,137.7792,228.6752)">
      <text xml:space="preserve" x="4" y="136.1719" stroke="none">+</text>
      <text xml:space="preserve" x="19" y="137.5762" onclick="umlload('#getName()')" stroke="none">getName() : String</text>
    </g>
    <g font-family="sans-serif" transform="matrix(0.9568,0,0,0.9568,137.7792,228.6752)">
      <text xml:space="preserve" x="4" y="152.1719" stroke="none">+</text>
      <text xml:space="preserve" x="19" y="153.5449" onclick="umlload('#getValue()')" stroke="none">getValue() : String</text>
    </g>
    <g font-family="sans-serif" transform="matrix(0.9568,0,0,0.9568,137.7792,228.6752)">
      <text xml:space="preserve" x="4" y="168.1719" stroke="none">+</text>
      <text xml:space="preserve" x="19" y="169.5137" onclick="umlload('#isIsNull()')" stroke="none">isIsNull() : Boolean</text>
    </g>
    <g font-family="sans-serif" transform="matrix(0.9568,0,0,0.9568,137.7792,228.6752)">
      <text xml:space="preserve" x="4" y="184.1719" stroke="none">+</text>
      <text xml:space="preserve" x="19" y="185.4824" onclick="umlload('#setColumnName(java.lang.String)')" stroke="none">setColumnName(String) : void</text>
    </g>
    <g font-family="sans-serif" transform="matrix(0.9568,0,0,0.9568,137.7792,228.6752)">
      <text xml:space="preserve" x="4" y="200.1719" stroke="none">+</text>
      <text xml:space="preserve" x="19" y="201.4512" onclick="umlload('#setIsNull(java.lang.Boolean)')" stroke="none">setIsNull(Boolean) : void</text>
    </g>
    <g font-family="sans-serif" transform="matrix(0.9568,0,0,0.9568,137.7792,228.6752)">
      <text xml:space="preserve" x="4" y="216.1719" stroke="none">+</text>
      <text xml:space="preserve" x="19" y="217.4199" onclick="umlload('#setName(java.lang.String)')" stroke="none">setName(String) : void</text>
    </g>
    <g font-family="sans-serif" transform="matrix(0.9568,0,0,0.9568,137.7792,228.6752)">
      <text xml:space="preserve" x="4" y="232.1719" stroke="none">+</text>
      <text xml:space="preserve" x="19" y="233.3887" onclick="umlload('#setValue(java.lang.String)')" stroke="none">setValue(String) : void</text>
    </g>
    <g font-family="sans-serif" transform="matrix(0.9568,0,0,0.9568,137.7792,228.6752)">
      <text xml:space="preserve" x="-138" y="270.1543" onclick="umlload('http://www.yworks.com/')" stroke="none">yWorks UML Doclet</text>
    </g>
    <g stroke-miterlimit="1.45" transform="matrix(0.9568,0,0,0.9568,137.7792,228.6752)" stroke-linecap="butt">
      <path fill="none" d="M107.635 0 L107.635 -69"/>
      <path fill="white" d="M107.635 -84 L101.635 -68 L113.635 -68 Z" stroke="none"/>
      <path fill="none" d="M107.635 -84 L101.635 -68 L113.635 -68 Z"/>
      <path fill="none" d="M-0.0175 11.5664 L-66 11.5664"/>
      <line stroke-linecap="square" transform="matrix(-1,0,0,-1,-66,11.5664)" fill="none" x1="0" x2="-14" y1="0" y2="-4" stroke-miterlimit="10"/>
      <line stroke-linecap="square" transform="matrix(-1,0,0,-1,-66,11.5664)" fill="none" x1="0" x2="-14" y1="0" y2="4" stroke-miterlimit="10"/>
    </g>
    <g stroke-miterlimit="1.45" transform="matrix(0.9568,0,0,0.9568,137.7792,228.6752)" stroke-linecap="butt">
      <path fill="none" d="M-0.0076 44.6992 L-81.45 44.6992"/>
      <line stroke-linecap="square" transform="matrix(-1,0,0,-1,-81.45,44.6992)" fill="none" x1="0" x2="-14" y1="0" y2="-4" stroke-miterlimit="10"/>
      <line stroke-linecap="square" transform="matrix(-1,0,0,-1,-81.45,44.6992)" fill="none" x1="0" x2="-14" y1="0" y2="4" stroke-miterlimit="10"/>
    </g>
  </g>
</svg>
