<?xml version="1.0" encoding="UTF-8"?><svg xmlns="http://www.w3.org/2000/svg" xmlns:xlink="http://www.w3.org/1999/xlink" fill-opacity="1" color-rendering="auto" color-interpolation="auto" stroke="black" text-rendering="auto" stroke-linecap="square" width="598" stroke-miterlimit="10" stroke-opacity="1" shape-rendering="auto" fill="black" stroke-dasharray="none" font-weight="normal" stroke-width="1" height="598" font-family="'Dialog'" font-style="normal" stroke-linejoin="miter" font-size="12" stroke-dashoffset="0" image-rendering="auto">
  <!--Generated by ySVG-->
  <defs id="genericDefs"/>
  <g>
    <defs id="defs1">
      <clipPath clipPathUnits="userSpaceOnUse" id="clipPath1">
        <path d="M0 0 L598 0 L598 598 L0 598 L0 0 Z"/>
      </clipPath>
      <clipPath clipPathUnits="userSpaceOnUse" id="clipPath2">
        <path d="M-66 136.623 C-66 145.6569 -87.1952 152.9804 -113.3408 152.9804 C-139.4864 152.9804 -160.6816 145.6569 -160.6816 136.623 C-160.6816 127.5891 -139.4864 120.2656 -113.3408 120.2656 C-87.1952 120.2656 -66 127.5891 -66 136.623 Z"/>
      </clipPath>
      <clipPath clipPathUnits="userSpaceOnUse" id="clipPath3">
        <path d="M-135.01 0 L-66 0 L-66 23.1328 L-135.01 23.1328 L-135.01 0 Z"/>
      </clipPath>
      <clipPath clipPathUnits="userSpaceOnUse" id="clipPath4">
        <path d="M-135.01 33.1328 L-81.45 33.1328 L-81.45 56.2656 L-135.01 56.2656 L-135.01 33.1328 Z"/>
      </clipPath>
      <clipPath clipPathUnits="userSpaceOnUse" id="clipPath5">
        <path d="M268.315 -107.1328 L325.995 -107.1328 L325.995 -84 L268.315 -84 L268.315 -107.1328 Z"/>
      </clipPath>
      <clipPath clipPathUnits="userSpaceOnUse" id="clipPath6">
        <path d="M0 0 L594.31 0 L594.31 221.25 L0 221.25 L0 0 Z"/>
      </clipPath>
      <script type="text/ecmascript"><![CDATA[
function umlload(newLocation)
{
if (newLocation.charAt(0) != '#') {
if (newLocation.indexOf("://") > -1) {
window.parent.location.href = newLocation;
} else {
var tmp = window.parent.location.href;
tmp = tmp.substring(0, tmp.lastIndexOf("/") + 1);
window.parent.location.href = tmp.concat(newLocation);
}
} else {
window.parent.location.hash = newLocation;
}
}
]]></script>
    </defs>
    <g fill="rgb(238,238,255)" transform="matrix(0.7746,0,0,0.7746,130.9093,247.8756)" stroke="rgb(238,238,255)">
      <rect width="67.654" x="-168.6816" height="17.9688" y="94.2656" stroke="none"/>
    </g>
    <g fill="rgb(166,166,178)" stroke-miterlimit="1.45" transform="matrix(0.7746,0,0,0.7746,130.9093,247.8756)" stroke-linecap="butt" stroke="rgb(166,166,178)">
      <rect fill="none" width="67.654" x="-168.6816" height="17.9688" y="94.2656"/>
    </g>
    <g fill="rgb(238,238,255)" transform="matrix(0.7746,0,0,0.7746,130.9093,247.8756)" stroke="rgb(238,238,255)">
      <rect width="110.6816" x="-168.6816" height="48.746" y="112.2344" stroke="none"/>
    </g>
    <g fill="rgb(166,166,178)" stroke-miterlimit="1.45" transform="matrix(0.7746,0,0,0.7746,130.9093,247.8756)" stroke-linecap="butt" stroke="rgb(166,166,178)">
      <rect fill="none" width="110.6816" x="-168.6816" height="48.746" y="112.2344"/>
    </g>
    <g font-family="sans-serif" transform="matrix(0.7746,0,0,0.7746,130.9093,247.8756)">
      <text xml:space="preserve" x="-162.6816" y="107.4043" onclick="umlload('http://docs.oracle.com/javase/6/docs/api/java/util/package-summary.html')" stroke="none">java.util</text>
    </g>
    <g fill="rgb(221,221,255)" transform="matrix(0.7746,0,0,0.7746,130.9093,247.8756)" stroke="rgb(221,221,255)">
      <rect x="-160.6816" y="120.2656" clip-path="url(#clipPath2)" width="94.6816" height="32.7147" stroke="none"/>
    </g>
    <g fill="rgb(154,154,178)" stroke-miterlimit="1.45" transform="matrix(0.7746,0,0,0.7746,130.9093,247.8756)" stroke-linecap="butt" stroke="rgb(154,154,178)">
      <ellipse rx="47.3408" fill="none" ry="16.3574" cx="-113.3408" cy="136.623"/>
    </g>
    <g font-style="italic" font-size="13" font-weight="bold" font-family="sans-serif" transform="matrix(0.7746,0,0,0.7746,130.9093,247.8756)">
      <text xml:space="preserve" x="-141.8408" y="141.1235" onclick="umlload('http://docs.oracle.com/javase/6/docs/api/java/util/List.html')" stroke="none">List&lt;E&gt;</text>
    </g>
    <g fill="rgb(238,238,255)" transform="matrix(0.7746,0,0,0.7746,130.9093,247.8756)" stroke="rgb(238,238,255)">
      <rect width="76.1412" x="-143.01" height="17.9688" y="-26" stroke="none"/>
    </g>
    <g fill="rgb(166,166,178)" stroke-miterlimit="1.45" transform="matrix(0.7746,0,0,0.7746,130.9093,247.8756)" stroke-linecap="butt" stroke="rgb(166,166,178)">
      <rect fill="none" width="76.1412" x="-143.01" height="17.9688" y="-26"/>
    </g>
    <g fill="rgb(238,238,255)" transform="matrix(0.7746,0,0,0.7746,130.9093,247.8756)" stroke="rgb(238,238,255)">
      <rect width="85.01" x="-143.01" height="72.2969" y="-8.0312" stroke="none"/>
    </g>
    <g fill="rgb(166,166,178)" stroke-miterlimit="1.45" transform="matrix(0.7746,0,0,0.7746,130.9093,247.8756)" stroke-linecap="butt" stroke="rgb(166,166,178)">
      <rect fill="none" width="85.01" x="-143.01" height="72.2969" y="-8.0312"/>
    </g>
    <g font-family="sans-serif" transform="matrix(0.7746,0,0,0.7746,130.9093,247.8756)">
      <text xml:space="preserve" x="-137.01" y="-12.8613" onclick="umlload('http://docs.oracle.com/javase/6/docs/api/java/lang/package-summary.html')" stroke="none">java.lang</text>
    </g>
    <g fill="rgb(187,187,255)" transform="matrix(0.7746,0,0,0.7746,130.9093,247.8756)" stroke="rgb(187,187,255)">
      <rect x="-135.01" y="0" clip-path="url(#clipPath3)" width="69.01" height="23.1328" stroke="none"/>
    </g>
    <g fill="rgb(130,130,178)" stroke-miterlimit="1.45" transform="matrix(0.7746,0,0,0.7746,130.9093,247.8756)" stroke-linecap="butt" stroke="rgb(130,130,178)">
      <rect fill="none" width="69.01" x="-135.01" height="23.1328" y="0"/>
    </g>
    <g font-size="13" font-weight="bold" font-family="sans-serif" transform="matrix(0.7746,0,0,0.7746,130.9093,247.8756)">
      <text xml:space="preserve" x="-130.005" y="16.0669" onclick="umlload('http://docs.oracle.com/javase/6/docs/api/java/lang/Boolean.html')" stroke="none">Boolean</text>
    </g>
    <g fill="rgb(187,187,255)" transform="matrix(0.7746,0,0,0.7746,130.9093,247.8756)" stroke="rgb(187,187,255)">
      <rect x="-135.01" y="33.1328" clip-path="url(#clipPath4)" width="53.56" height="23.1328" stroke="none"/>
    </g>
    <g fill="rgb(130,130,178)" stroke-miterlimit="1.45" transform="matrix(0.7746,0,0,0.7746,130.9093,247.8756)" stroke-linecap="butt" stroke="rgb(130,130,178)">
      <rect fill="none" width="53.56" x="-135.01" height="23.1328" y="33.1328"/>
    </g>
    <g font-size="13" font-weight="bold" font-family="sans-serif" transform="matrix(0.7746,0,0,0.7746,130.9093,247.8756)">
      <text xml:space="preserve" x="-130.23" y="49.1997" onclick="umlload('http://docs.oracle.com/javase/6/docs/api/java/lang/String.html')" stroke="none">String</text>
    </g>
    <g fill="rgb(238,238,255)" transform="matrix(0.7746,0,0,0.7746,130.9093,247.8756)" stroke="rgb(238,238,255)">
      <rect width="76.1412" x="260.315" height="17.9688" y="-133.1328" stroke="none"/>
    </g>
    <g fill="rgb(166,166,178)" stroke-miterlimit="1.45" transform="matrix(0.7746,0,0,0.7746,130.9093,247.8756)" stroke-linecap="butt" stroke="rgb(166,166,178)">
      <rect fill="none" width="76.1412" x="260.315" height="17.9688" y="-133.1328"/>
    </g>
    <g fill="rgb(238,238,255)" transform="matrix(0.7746,0,0,0.7746,130.9093,247.8756)" stroke="rgb(238,238,255)">
      <rect width="76.1412" x="260.315" height="39.1641" y="-115.1641" stroke="none"/>
    </g>
    <g fill="rgb(166,166,178)" stroke-miterlimit="1.45" transform="matrix(0.7746,0,0,0.7746,130.9093,247.8756)" stroke-linecap="butt" stroke="rgb(166,166,178)">
      <rect fill="none" width="76.1412" x="260.315" height="39.1641" y="-115.1641"/>
    </g>
    <g font-family="sans-serif" transform="matrix(0.7746,0,0,0.7746,130.9093,247.8756)">
      <text xml:space="preserve" x="266.315" y="-119.9941" onclick="umlload('http://docs.oracle.com/javase/6/docs/api/java/lang/package-summary.html')" stroke="none">java.lang</text>
    </g>
    <g fill="rgb(187,187,255)" transform="matrix(0.7746,0,0,0.7746,130.9093,247.8756)" stroke="rgb(187,187,255)">
      <rect x="268.315" y="-107.1328" clip-path="url(#clipPath5)" width="57.68" height="23.1328" stroke="none"/>
    </g>
    <g fill="rgb(130,130,178)" stroke-miterlimit="1.45" transform="matrix(0.7746,0,0,0.7746,130.9093,247.8756)" stroke-linecap="butt" stroke="rgb(130,130,178)">
      <rect fill="none" width="57.68" x="268.315" height="23.1328" y="-107.1328"/>
    </g>
    <g font-size="13" font-weight="bold" font-family="sans-serif" transform="matrix(0.7746,0,0,0.7746,130.9093,247.8756)">
      <text xml:space="preserve" x="273.155" y="-91.0659" onclick="umlload('http://docs.oracle.com/javase/6/docs/api/java/lang/Object.html')" stroke="none">Object</text>
    </g>
    <g fill="rgb(238,238,255)" transform="matrix(0.7746,0,0,0.7746,130.9093,247.8756)" stroke="rgb(238,238,255)">
      <rect width="487.7704" x="-8" height="17.9688" y="-26" stroke="none"/>
    </g>
    <g fill="rgb(166,166,178)" stroke-miterlimit="1.45" transform="matrix(0.7746,0,0,0.7746,130.9093,247.8756)" stroke-linecap="butt" stroke="rgb(166,166,178)">
      <rect fill="none" width="487.7704" x="-8" height="17.9688" y="-26"/>
    </g>
    <g fill="rgb(238,238,255)" transform="matrix(0.7746,0,0,0.7746,130.9093,247.8756)" stroke="rgb(238,238,255)">
      <rect width="610.31" x="-8" height="237.2812" y="-8.0312" stroke="none"/>
    </g>
    <g fill="rgb(166,166,178)" stroke-miterlimit="1.45" transform="matrix(0.7746,0,0,0.7746,130.9093,247.8756)" stroke-linecap="butt" stroke="rgb(166,166,178)">
      <rect fill="none" width="610.31" x="-8" height="237.2812" y="-8.0312"/>
    </g>
    <g font-family="sans-serif" transform="matrix(0.7746,0,0,0.7746,130.9093,247.8756)">
      <text xml:space="preserve" x="-2" y="-12.8613" onclick="umlload('package-summary.html')" stroke="none">com.msopentech.odatajclient.engine.data.metadata.edmx.mapping.cs</text>
    </g>
    <g fill="rgb(187,187,255)" transform="matrix(0.7746,0,0,0.7746,130.9093,247.8756)" stroke="rgb(187,187,255)">
      <rect x="0" y="0" clip-path="url(#clipPath6)" width="594.31" height="26.625" stroke="none"/>
      <line clip-path="url(#clipPath6)" fill="none" x1="0" x2="594.31" y1="26.625" y2="26.625" stroke="black"/>
      <rect x="0" y="27.625" clip-path="url(#clipPath6)" width="594.31" height="63.875" stroke="none"/>
      <line clip-path="url(#clipPath6)" fill="none" x1="0" x2="594.31" y1="91.5" y2="91.5" stroke="black"/>
      <rect x="0" y="92.5" clip-path="url(#clipPath6)" width="594.31" height="15.9688" stroke="none"/>
      <line clip-path="url(#clipPath6)" fill="none" x1="0" x2="594.31" y1="108.4688" y2="108.4688" stroke="black"/>
      <rect x="0" y="109.4688" clip-path="url(#clipPath6)" width="594.31" height="111.7812" stroke="none"/>
    </g>
    <g fill="rgb(130,130,178)" stroke-miterlimit="1.45" transform="matrix(0.7746,0,0,0.7746,130.9093,247.8756)" stroke-linecap="butt" stroke="rgb(130,130,178)">
      <rect fill="none" width="594.31" x="0" height="221.25" y="0"/>
    </g>
    <g font-size="16" font-weight="bold" font-family="sans-serif" transform="matrix(0.7746,0,0,0.7746,130.9093,247.8756)">
      <text xml:space="preserve" x="191.655" y="18.8516" onclick="umlload('#')" stroke="none">EntityContainerMapping</text>
    </g>
    <g font-family="sans-serif" transform="matrix(0.7746,0,0,0.7746,130.9093,247.8756)">
      <text xml:space="preserve" x="4" y="38.1719" stroke="none">#</text>
      <text xml:space="preserve" x="19" y="39.7637" onclick="umlload('#cdmEntityContainer')" stroke="none">cdmEntityContainer : String</text>
    </g>
    <g font-family="sans-serif" transform="matrix(0.7746,0,0,0.7746,130.9093,247.8756)">
      <text xml:space="preserve" x="4" y="54.1719" stroke="none">#</text>
      <text xml:space="preserve" x="19" y="55.7324" onclick="umlload('#entitySetMappingOrAssociationSetMappingOrFunctionImportMapping')" stroke="none">entitySetMappingOrAssociationSetMappingOrFunctionImportMapping : List&lt;Object&gt;</text>
    </g>
    <g font-family="sans-serif" transform="matrix(0.7746,0,0,0.7746,130.9093,247.8756)">
      <text xml:space="preserve" x="4" y="70.1719" stroke="none">#</text>
      <text xml:space="preserve" x="19" y="71.7012" onclick="umlload('#generateUpdateViews')" stroke="none">generateUpdateViews : Boolean</text>
    </g>
    <g font-family="sans-serif" transform="matrix(0.7746,0,0,0.7746,130.9093,247.8756)">
      <text xml:space="preserve" x="4" y="86.1719" stroke="none">#</text>
      <text xml:space="preserve" x="19" y="87.6699" onclick="umlload('#storageEntityContainer')" stroke="none">storageEntityContainer : String</text>
    </g>
    <g font-family="sans-serif" transform="matrix(0.7746,0,0,0.7746,130.9093,247.8756)">
      <text xml:space="preserve" x="4" y="103.1719" stroke="none">+</text>
      <text xml:space="preserve" x="19" y="104.6387" onclick="umlload('#EntityContainerMapping()')" stroke="none">EntityContainerMapping()</text>
    </g>
    <g font-family="sans-serif" transform="matrix(0.7746,0,0,0.7746,130.9093,247.8756)">
      <text xml:space="preserve" x="4" y="120.1719" stroke="none">+</text>
      <text xml:space="preserve" x="19" y="121.6074" onclick="umlload('#getCdmEntityContainer()')" stroke="none">getCdmEntityContainer() : String</text>
    </g>
    <g font-family="sans-serif" transform="matrix(0.7746,0,0,0.7746,130.9093,247.8756)">
      <text xml:space="preserve" x="4" y="136.1719" stroke="none">+</text>
      <text xml:space="preserve" x="19" y="137.5762" onclick="umlload('#getEntitySetMappingOrAssociationSetMappingOrFunctionImportMapping()')" stroke="none">getEntitySetMappingOrAssociationSetMappingOrFunctionImportMapping() : List&lt;Object&gt;</text>
    </g>
    <g font-family="sans-serif" transform="matrix(0.7746,0,0,0.7746,130.9093,247.8756)">
      <text xml:space="preserve" x="4" y="152.1719" stroke="none">+</text>
      <text xml:space="preserve" x="19" y="153.5449" onclick="umlload('#getStorageEntityContainer()')" stroke="none">getStorageEntityContainer() : String</text>
    </g>
    <g font-family="sans-serif" transform="matrix(0.7746,0,0,0.7746,130.9093,247.8756)">
      <text xml:space="preserve" x="4" y="168.1719" stroke="none">+</text>
      <text xml:space="preserve" x="19" y="169.5137" onclick="umlload('#isGenerateUpdateViews()')" stroke="none">isGenerateUpdateViews() : Boolean</text>
    </g>
    <g font-family="sans-serif" transform="matrix(0.7746,0,0,0.7746,130.9093,247.8756)">
      <text xml:space="preserve" x="4" y="184.1719" stroke="none">+</text>
      <text xml:space="preserve" x="19" y="185.4824" onclick="umlload('#setCdmEntityContainer(java.lang.String)')" stroke="none">setCdmEntityContainer(String) : void</text>
    </g>
    <g font-family="sans-serif" transform="matrix(0.7746,0,0,0.7746,130.9093,247.8756)">
      <text xml:space="preserve" x="4" y="200.1719" stroke="none">+</text>
      <text xml:space="preserve" x="19" y="201.4512" onclick="umlload('#setGenerateUpdateViews(java.lang.Boolean)')" stroke="none">setGenerateUpdateViews(Boolean) : void</text>
    </g>
    <g font-family="sans-serif" transform="matrix(0.7746,0,0,0.7746,130.9093,247.8756)">
      <text xml:space="preserve" x="4" y="216.1719" stroke="none">+</text>
      <text xml:space="preserve" x="19" y="217.4199" onclick="umlload('#setStorageEntityContainer(java.lang.String)')" stroke="none">setStorageEntityContainer(String) : void</text>
    </g>
    <g font-family="sans-serif" transform="matrix(0.7746,0,0,0.7746,130.9093,247.8756)">
      <text xml:space="preserve" x="-163" y="254.1543" onclick="umlload('http://www.yworks.com/')" stroke="none">yWorks UML Doclet</text>
    </g>
    <g stroke-miterlimit="1.45" transform="matrix(0.7746,0,0,0.7746,130.9093,247.8756)" stroke-linecap="butt">
      <path fill="none" d="M297.155 0 L297.155 -69"/>
      <path fill="white" d="M297.155 -84 L291.155 -68 L303.155 -68 Z" stroke="none"/>
      <path fill="none" d="M297.155 -84 L291.155 -68 L303.155 -68 Z"/>
      <path fill="none" d="M0.0265 11.5664 L-66 11.5664"/>
      <line stroke-linecap="square" transform="matrix(-1,0,0,-1,-66,11.5664)" fill="none" x1="0" x2="-14" y1="0" y2="-4" stroke-miterlimit="10"/>
      <line stroke-linecap="square" transform="matrix(-1,0,0,-1,-66,11.5664)" fill="none" x1="0" x2="-14" y1="0" y2="4" stroke-miterlimit="10"/>
    </g>
    <g stroke-miterlimit="1.45" transform="matrix(0.7746,0,0,0.7746,130.9093,247.8756)" stroke-linecap="butt">
      <path fill="none" d="M-0.0053 44.6992 L-81.45 44.6992"/>
      <line stroke-linecap="square" transform="matrix(-1,0,0,-1,-81.45,44.6992)" fill="none" x1="0" x2="-14" y1="0" y2="-4" stroke-miterlimit="10"/>
      <line stroke-linecap="square" transform="matrix(-1,0,0,-1,-81.45,44.6992)" fill="none" x1="0" x2="-14" y1="0" y2="4" stroke-miterlimit="10"/>
    </g>
    <g stroke-miterlimit="1.45" transform="matrix(0.7746,0,0,0.7746,130.9093,247.8756)" stroke-linecap="butt">
      <path fill="none" d="M-0.0185 136.623 L-66 136.623"/>
      <line stroke-linecap="square" transform="matrix(-1,0,0,-1,-66,136.623)" fill="none" x1="0" x2="-14" y1="0" y2="-4" stroke-miterlimit="10"/>
      <line stroke-linecap="square" transform="matrix(-1,0,0,-1,-66,136.623)" fill="none" x1="0" x2="-14" y1="0" y2="4" stroke-miterlimit="10"/>
    </g>
  </g>
</svg>
