<?xml version="1.0" encoding="UTF-8"?><svg xmlns="http://www.w3.org/2000/svg" xmlns:xlink="http://www.w3.org/1999/xlink" fill-opacity="1" color-rendering="auto" color-interpolation="auto" stroke="black" text-rendering="auto" stroke-linecap="square" width="598" stroke-miterlimit="10" stroke-opacity="1" shape-rendering="auto" fill="black" stroke-dasharray="none" font-weight="normal" stroke-width="1" height="598" font-family="'Dialog'" font-style="normal" stroke-linejoin="miter" font-size="12" stroke-dashoffset="0" image-rendering="auto">
  <!--Generated by ySVG-->
  <defs id="genericDefs"/>
  <g>
    <defs id="defs1">
      <clipPath clipPathUnits="userSpaceOnUse" id="clipPath1">
        <path d="M0 0 L598 0 L598 598 L0 598 L0 0 Z"/>
      </clipPath>
      <clipPath clipPathUnits="userSpaceOnUse" id="clipPath2">
        <path d="M-66 103.4902 C-66 112.5241 -87.1952 119.8475 -113.3408 119.8475 C-139.4864 119.8475 -160.6816 112.5241 -160.6816 103.4902 C-160.6816 94.4563 -139.4864 87.1328 -113.3408 87.1328 C-87.1952 87.1328 -66 94.4563 -66 103.4902 Z"/>
      </clipPath>
      <clipPath clipPathUnits="userSpaceOnUse" id="clipPath3">
        <path d="M-130.04 0 L-76.48 0 L-76.48 23.1328 L-130.04 23.1328 L-130.04 0 Z"/>
      </clipPath>
      <clipPath clipPathUnits="userSpaceOnUse" id="clipPath4">
        <path d="M196.73 -107.1328 L254.41 -107.1328 L254.41 -84 L196.73 -84 L196.73 -107.1328 Z"/>
      </clipPath>
      <clipPath clipPathUnits="userSpaceOnUse" id="clipPath5">
        <path d="M0 0 L451.14 0 L451.14 173.3438 L0 173.3438 L0 0 Z"/>
      </clipPath>
      <script type="text/ecmascript"><![CDATA[
function umlload(newLocation)
{
if (newLocation.charAt(0) != '#') {
if (newLocation.indexOf("://") > -1) {
window.parent.location.href = newLocation;
} else {
var tmp = window.parent.location.href;
tmp = tmp.substring(0, tmp.lastIndexOf("/") + 1);
window.parent.location.href = tmp.concat(newLocation);
}
} else {
window.parent.location.hash = newLocation;
}
}
]]></script>
    </defs>
    <g fill="rgb(238,238,255)" transform="matrix(0.92,0,0,0.92,155.48,260.36)" stroke="rgb(238,238,255)">
      <rect width="67.654" x="-168.6816" height="17.9688" y="61.1328" stroke="none"/>
    </g>
    <g fill="rgb(166,166,178)" stroke-miterlimit="1.45" transform="matrix(0.92,0,0,0.92,155.48,260.36)" stroke-linecap="butt" stroke="rgb(166,166,178)">
      <rect fill="none" width="67.654" x="-168.6816" height="17.9688" y="61.1328"/>
    </g>
    <g fill="rgb(238,238,255)" transform="matrix(0.92,0,0,0.92,155.48,260.36)" stroke="rgb(238,238,255)">
      <rect width="110.6816" x="-168.6816" height="48.746" y="79.1016" stroke="none"/>
    </g>
    <g fill="rgb(166,166,178)" stroke-miterlimit="1.45" transform="matrix(0.92,0,0,0.92,155.48,260.36)" stroke-linecap="butt" stroke="rgb(166,166,178)">
      <rect fill="none" width="110.6816" x="-168.6816" height="48.746" y="79.1016"/>
    </g>
    <g font-family="sans-serif" transform="matrix(0.92,0,0,0.92,155.48,260.36)">
      <text xml:space="preserve" x="-162.6816" y="74.2715" onclick="umlload('http://docs.oracle.com/javase/6/docs/api/java/util/package-summary.html')" stroke="none">java.util</text>
    </g>
    <g fill="rgb(221,221,255)" transform="matrix(0.92,0,0,0.92,155.48,260.36)" stroke="rgb(221,221,255)">
      <rect x="-160.6816" y="87.1328" clip-path="url(#clipPath2)" width="94.6816" height="32.7147" stroke="none"/>
    </g>
    <g fill="rgb(154,154,178)" stroke-miterlimit="1.45" transform="matrix(0.92,0,0,0.92,155.48,260.36)" stroke-linecap="butt" stroke="rgb(154,154,178)">
      <ellipse rx="47.3408" fill="none" ry="16.3574" cx="-113.3408" cy="103.4902"/>
    </g>
    <g font-style="italic" font-size="13" font-weight="bold" font-family="sans-serif" transform="matrix(0.92,0,0,0.92,155.48,260.36)">
      <text xml:space="preserve" x="-141.8408" y="107.9907" onclick="umlload('http://docs.oracle.com/javase/6/docs/api/java/util/List.html')" stroke="none">List&lt;E&gt;</text>
    </g>
    <g fill="rgb(238,238,255)" transform="matrix(0.92,0,0,0.92,155.48,260.36)" stroke="rgb(238,238,255)">
      <rect width="76.1412" x="-138.04" height="17.9688" y="-26" stroke="none"/>
    </g>
    <g fill="rgb(166,166,178)" stroke-miterlimit="1.45" transform="matrix(0.92,0,0,0.92,155.48,260.36)" stroke-linecap="butt" stroke="rgb(166,166,178)">
      <rect fill="none" width="76.1412" x="-138.04" height="17.9688" y="-26"/>
    </g>
    <g fill="rgb(238,238,255)" transform="matrix(0.92,0,0,0.92,155.48,260.36)" stroke="rgb(238,238,255)">
      <rect width="79.56" x="-138.04" height="39.1641" y="-8.0312" stroke="none"/>
    </g>
    <g fill="rgb(166,166,178)" stroke-miterlimit="1.45" transform="matrix(0.92,0,0,0.92,155.48,260.36)" stroke-linecap="butt" stroke="rgb(166,166,178)">
      <rect fill="none" width="79.56" x="-138.04" height="39.1641" y="-8.0312"/>
    </g>
    <g font-family="sans-serif" transform="matrix(0.92,0,0,0.92,155.48,260.36)">
      <text xml:space="preserve" x="-132.04" y="-12.8613" onclick="umlload('http://docs.oracle.com/javase/6/docs/api/java/lang/package-summary.html')" stroke="none">java.lang</text>
    </g>
    <g fill="rgb(187,187,255)" transform="matrix(0.92,0,0,0.92,155.48,260.36)" stroke="rgb(187,187,255)">
      <rect x="-130.04" y="0" clip-path="url(#clipPath3)" width="53.56" height="23.1328" stroke="none"/>
    </g>
    <g fill="rgb(130,130,178)" stroke-miterlimit="1.45" transform="matrix(0.92,0,0,0.92,155.48,260.36)" stroke-linecap="butt" stroke="rgb(130,130,178)">
      <rect fill="none" width="53.56" x="-130.04" height="23.1328" y="0"/>
    </g>
    <g font-size="13" font-weight="bold" font-family="sans-serif" transform="matrix(0.92,0,0,0.92,155.48,260.36)">
      <text xml:space="preserve" x="-125.26" y="16.0669" onclick="umlload('http://docs.oracle.com/javase/6/docs/api/java/lang/String.html')" stroke="none">String</text>
    </g>
    <g fill="rgb(238,238,255)" transform="matrix(0.92,0,0,0.92,155.48,260.36)" stroke="rgb(238,238,255)">
      <rect width="76.1412" x="188.73" height="17.9688" y="-133.1328" stroke="none"/>
    </g>
    <g fill="rgb(166,166,178)" stroke-miterlimit="1.45" transform="matrix(0.92,0,0,0.92,155.48,260.36)" stroke-linecap="butt" stroke="rgb(166,166,178)">
      <rect fill="none" width="76.1412" x="188.73" height="17.9688" y="-133.1328"/>
    </g>
    <g fill="rgb(238,238,255)" transform="matrix(0.92,0,0,0.92,155.48,260.36)" stroke="rgb(238,238,255)">
      <rect width="76.1412" x="188.73" height="39.1641" y="-115.1641" stroke="none"/>
    </g>
    <g fill="rgb(166,166,178)" stroke-miterlimit="1.45" transform="matrix(0.92,0,0,0.92,155.48,260.36)" stroke-linecap="butt" stroke="rgb(166,166,178)">
      <rect fill="none" width="76.1412" x="188.73" height="39.1641" y="-115.1641"/>
    </g>
    <g font-family="sans-serif" transform="matrix(0.92,0,0,0.92,155.48,260.36)">
      <text xml:space="preserve" x="194.73" y="-119.9941" onclick="umlload('http://docs.oracle.com/javase/6/docs/api/java/lang/package-summary.html')" stroke="none">java.lang</text>
    </g>
    <g fill="rgb(187,187,255)" transform="matrix(0.92,0,0,0.92,155.48,260.36)" stroke="rgb(187,187,255)">
      <rect x="196.73" y="-107.1328" clip-path="url(#clipPath4)" width="57.68" height="23.1328" stroke="none"/>
    </g>
    <g fill="rgb(130,130,178)" stroke-miterlimit="1.45" transform="matrix(0.92,0,0,0.92,155.48,260.36)" stroke-linecap="butt" stroke="rgb(130,130,178)">
      <rect fill="none" width="57.68" x="196.73" height="23.1328" y="-107.1328"/>
    </g>
    <g font-size="13" font-weight="bold" font-family="sans-serif" transform="matrix(0.92,0,0,0.92,155.48,260.36)">
      <text xml:space="preserve" x="201.57" y="-91.0659" onclick="umlload('http://docs.oracle.com/javase/6/docs/api/java/lang/Object.html')" stroke="none">Object</text>
    </g>
    <g fill="rgb(238,238,255)" transform="matrix(0.92,0,0,0.92,155.48,260.36)" stroke="rgb(238,238,255)">
      <rect width="487.7704" x="-8" height="17.9688" y="-26" stroke="none"/>
    </g>
    <g fill="rgb(166,166,178)" stroke-miterlimit="1.45" transform="matrix(0.92,0,0,0.92,155.48,260.36)" stroke-linecap="butt" stroke="rgb(166,166,178)">
      <rect fill="none" width="487.7704" x="-8" height="17.9688" y="-26"/>
    </g>
    <g fill="rgb(238,238,255)" transform="matrix(0.92,0,0,0.92,155.48,260.36)" stroke="rgb(238,238,255)">
      <rect width="488.14" x="-8" height="189.375" y="-8.0312" stroke="none"/>
    </g>
    <g fill="rgb(166,166,178)" stroke-miterlimit="1.45" transform="matrix(0.92,0,0,0.92,155.48,260.36)" stroke-linecap="butt" stroke="rgb(166,166,178)">
      <rect fill="none" width="488.14" x="-8" height="189.375" y="-8.0312"/>
    </g>
    <g font-family="sans-serif" transform="matrix(0.92,0,0,0.92,155.48,260.36)">
      <text xml:space="preserve" x="-2" y="-12.8613" onclick="umlload('package-summary.html')" stroke="none">com.msopentech.odatajclient.engine.data.metadata.edmx.mapping.cs</text>
    </g>
    <g fill="rgb(187,187,255)" transform="matrix(0.92,0,0,0.92,155.48,260.36)" stroke="rgb(187,187,255)">
      <rect x="0" y="0" clip-path="url(#clipPath5)" width="451.14" height="26.625" stroke="none"/>
      <line clip-path="url(#clipPath5)" fill="none" x1="0" x2="451.14" y1="26.625" y2="26.625" stroke="black"/>
      <rect x="0" y="27.625" clip-path="url(#clipPath5)" width="451.14" height="47.9062" stroke="none"/>
      <line clip-path="url(#clipPath5)" fill="none" x1="0" x2="451.14" y1="75.5312" y2="75.5312" stroke="black"/>
      <rect x="0" y="76.5312" clip-path="url(#clipPath5)" width="451.14" height="15.9688" stroke="none"/>
      <line clip-path="url(#clipPath5)" fill="none" x1="0" x2="451.14" y1="92.5" y2="92.5" stroke="black"/>
      <rect x="0" y="93.5" clip-path="url(#clipPath5)" width="451.14" height="79.8438" stroke="none"/>
    </g>
    <g fill="rgb(130,130,178)" stroke-miterlimit="1.45" transform="matrix(0.92,0,0,0.92,155.48,260.36)" stroke-linecap="butt" stroke="rgb(130,130,178)">
      <rect fill="none" width="451.14" x="0" height="173.3438" y="0"/>
    </g>
    <g font-size="16" font-weight="bold" font-family="sans-serif" transform="matrix(0.92,0,0,0.92,155.48,260.36)">
      <text xml:space="preserve" x="120.57" y="18.8516" onclick="umlload('#')" stroke="none">FunctionImportMapping</text>
    </g>
    <g font-family="sans-serif" transform="matrix(0.92,0,0,0.92,155.48,260.36)">
      <text xml:space="preserve" x="4" y="38.1719" stroke="none">#</text>
      <text xml:space="preserve" x="19" y="39.7637" onclick="umlload('#functionImportName')" stroke="none">functionImportName : String</text>
    </g>
    <g font-family="sans-serif" transform="matrix(0.92,0,0,0.92,155.48,260.36)">
      <text xml:space="preserve" x="4" y="54.1719" stroke="none">#</text>
      <text xml:space="preserve" x="19" y="55.7324" onclick="umlload('#functionName')" stroke="none">functionName : String</text>
    </g>
    <g font-family="sans-serif" transform="matrix(0.92,0,0,0.92,155.48,260.36)">
      <text xml:space="preserve" x="4" y="70.1719" stroke="none">#</text>
      <text xml:space="preserve" x="19" y="71.7012" onclick="umlload('#resultMapping')" stroke="none">resultMapping : List&lt;FunctionImportMappingResultMapping&gt;</text>
    </g>
    <g font-family="sans-serif" transform="matrix(0.92,0,0,0.92,155.48,260.36)">
      <text xml:space="preserve" x="4" y="87.1719" stroke="none">+</text>
      <text xml:space="preserve" x="19" y="88.6699" onclick="umlload('#FunctionImportMapping()')" stroke="none">FunctionImportMapping()</text>
    </g>
    <g font-family="sans-serif" transform="matrix(0.92,0,0,0.92,155.48,260.36)">
      <text xml:space="preserve" x="4" y="104.1719" stroke="none">+</text>
      <text xml:space="preserve" x="19" y="105.6387" onclick="umlload('#getFunctionImportName()')" stroke="none">getFunctionImportName() : String</text>
    </g>
    <g font-family="sans-serif" transform="matrix(0.92,0,0,0.92,155.48,260.36)">
      <text xml:space="preserve" x="4" y="120.1719" stroke="none">+</text>
      <text xml:space="preserve" x="19" y="121.6074" onclick="umlload('#getFunctionName()')" stroke="none">getFunctionName() : String</text>
    </g>
    <g font-family="sans-serif" transform="matrix(0.92,0,0,0.92,155.48,260.36)">
      <text xml:space="preserve" x="4" y="136.1719" stroke="none">+</text>
      <text xml:space="preserve" x="19" y="137.5762" onclick="umlload('#getResultMapping()')" stroke="none">getResultMapping() : List&lt;FunctionImportMappingResultMapping&gt;</text>
    </g>
    <g font-family="sans-serif" transform="matrix(0.92,0,0,0.92,155.48,260.36)">
      <text xml:space="preserve" x="4" y="152.1719" stroke="none">+</text>
      <text xml:space="preserve" x="19" y="153.5449" onclick="umlload('#setFunctionImportName(java.lang.String)')" stroke="none">setFunctionImportName(String) : void</text>
    </g>
    <g font-family="sans-serif" transform="matrix(0.92,0,0,0.92,155.48,260.36)">
      <text xml:space="preserve" x="4" y="168.1719" stroke="none">+</text>
      <text xml:space="preserve" x="19" y="169.5137" onclick="umlload('#setFunctionName(java.lang.String)')" stroke="none">setFunctionName(String) : void</text>
    </g>
    <g font-family="sans-serif" transform="matrix(0.92,0,0,0.92,155.48,260.36)">
      <text xml:space="preserve" x="-163" y="206.1543" onclick="umlload('http://www.yworks.com/')" stroke="none">yWorks UML Doclet</text>
    </g>
    <g stroke-miterlimit="1.45" transform="matrix(0.92,0,0,0.92,155.48,260.36)" stroke-linecap="butt">
      <path fill="none" d="M225.57 0 L225.57 -69"/>
      <path fill="white" d="M225.57 -84 L219.57 -68 L231.57 -68 Z" stroke="none"/>
      <path fill="none" d="M225.57 -84 L219.57 -68 L231.57 -68 Z"/>
      <path fill="none" d="M0.0212 11.5664 L-76.48 11.5664"/>
      <line stroke-linecap="square" transform="matrix(-1,0,0,-1,-76.48,11.5664)" fill="none" x1="0" x2="-14" y1="0" y2="-4" stroke-miterlimit="10"/>
      <line stroke-linecap="square" transform="matrix(-1,0,0,-1,-76.48,11.5664)" fill="none" x1="0" x2="-14" y1="0" y2="4" stroke-miterlimit="10"/>
    </g>
    <g stroke-miterlimit="1.45" transform="matrix(0.92,0,0,0.92,155.48,260.36)" stroke-linecap="butt">
      <path fill="none" d="M-0.0258 103.4902 L-66 103.4902"/>
      <line stroke-linecap="square" transform="matrix(-1,0,0,-1,-66,103.4902)" fill="none" x1="0" x2="-14" y1="0" y2="-4" stroke-miterlimit="10"/>
      <line stroke-linecap="square" transform="matrix(-1,0,0,-1,-66,103.4902)" fill="none" x1="0" x2="-14" y1="0" y2="4" stroke-miterlimit="10"/>
    </g>
  </g>
</svg>
