<?xml version="1.0" encoding="UTF-8"?><svg xmlns="http://www.w3.org/2000/svg" xmlns:xlink="http://www.w3.org/1999/xlink" fill-opacity="1" color-rendering="auto" color-interpolation="auto" stroke="black" text-rendering="auto" stroke-linecap="square" width="598" stroke-miterlimit="10" stroke-opacity="1" shape-rendering="auto" fill="black" stroke-dasharray="none" font-weight="normal" stroke-width="1" height="598" font-family="'Dialog'" font-style="normal" stroke-linejoin="miter" font-size="12" stroke-dashoffset="0" image-rendering="auto">
  <!--Generated by ySVG-->
  <defs id="genericDefs"/>
  <g>
    <defs id="defs1">
      <clipPath clipPathUnits="userSpaceOnUse" id="clipPath1">
        <path d="M0 0 L598 0 L598 598 L0 598 L0 0 Z"/>
      </clipPath>
      <clipPath clipPathUnits="userSpaceOnUse" id="clipPath2">
        <path d="M-130.04 87.1328 L-76.48 87.1328 L-76.48 110.2656 L-130.04 110.2656 L-130.04 87.1328 Z"/>
      </clipPath>
      <clipPath clipPathUnits="userSpaceOnUse" id="clipPath3">
        <path d="M-529.68 0 L-464.79 0 L-464.79 23.1328 L-529.68 23.1328 L-529.68 0 Z"/>
      </clipPath>
      <clipPath clipPathUnits="userSpaceOnUse" id="clipPath4">
        <path d="M175.615 -107.1328 L233.295 -107.1328 L233.295 -84 L175.615 -84 L175.615 -107.1328 Z"/>
      </clipPath>
      <clipPath clipPathUnits="userSpaceOnUse" id="clipPath5">
        <path d="M0 0 L408.91 0 L408.91 189.3125 L0 189.3125 L0 0 Z"/>
      </clipPath>
      <script type="text/ecmascript"><![CDATA[
function umlload(newLocation)
{
if (newLocation.charAt(0) != '#') {
if (newLocation.indexOf("://") > -1) {
window.parent.location.href = newLocation;
} else {
var tmp = window.parent.location.href;
tmp = tmp.substring(0, tmp.lastIndexOf("/") + 1);
window.parent.location.href = tmp.concat(newLocation);
}
} else {
window.parent.location.hash = newLocation;
}
}
]]></script>
    </defs>
    <g fill="rgb(238,238,255)" transform="matrix(0.5874,0,0,0.5874,316.0354,269.6287)" stroke="rgb(238,238,255)">
      <rect width="76.1412" x="-138.04" height="17.9688" y="61.1328" stroke="none"/>
    </g>
    <g fill="rgb(166,166,178)" stroke-miterlimit="1.45" transform="matrix(0.5874,0,0,0.5874,316.0354,269.6287)" stroke-linecap="butt" stroke="rgb(166,166,178)">
      <rect fill="none" width="76.1412" x="-138.04" height="17.9688" y="61.1328"/>
    </g>
    <g fill="rgb(238,238,255)" transform="matrix(0.5874,0,0,0.5874,316.0354,269.6287)" stroke="rgb(238,238,255)">
      <rect width="79.56" x="-138.04" height="39.1641" y="79.1016" stroke="none"/>
    </g>
    <g fill="rgb(166,166,178)" stroke-miterlimit="1.45" transform="matrix(0.5874,0,0,0.5874,316.0354,269.6287)" stroke-linecap="butt" stroke="rgb(166,166,178)">
      <rect fill="none" width="79.56" x="-138.04" height="39.1641" y="79.1016"/>
    </g>
    <g font-family="sans-serif" transform="matrix(0.5874,0,0,0.5874,316.0354,269.6287)">
      <text xml:space="preserve" x="-132.04" y="74.2715" onclick="umlload('http://docs.oracle.com/javase/6/docs/api/java/lang/package-summary.html')" stroke="none">java.lang</text>
    </g>
    <g fill="rgb(187,187,255)" transform="matrix(0.5874,0,0,0.5874,316.0354,269.6287)" stroke="rgb(187,187,255)">
      <rect x="-130.04" y="87.1328" clip-path="url(#clipPath2)" width="53.56" height="23.1328" stroke="none"/>
    </g>
    <g fill="rgb(130,130,178)" stroke-miterlimit="1.45" transform="matrix(0.5874,0,0,0.5874,316.0354,269.6287)" stroke-linecap="butt" stroke="rgb(130,130,178)">
      <rect fill="none" width="53.56" x="-130.04" height="23.1328" y="87.1328"/>
    </g>
    <g font-size="13" font-weight="bold" font-family="sans-serif" transform="matrix(0.5874,0,0,0.5874,316.0354,269.6287)">
      <text xml:space="preserve" x="-125.26" y="103.1997" onclick="umlload('http://docs.oracle.com/javase/6/docs/api/java/lang/String.html')" stroke="none">String</text>
    </g>
    <g fill="rgb(238,238,255)" transform="matrix(0.5874,0,0,0.5874,316.0354,269.6287)" stroke="rgb(238,238,255)">
      <rect width="487.7704" x="-537.68" height="17.9688" y="-26" stroke="none"/>
    </g>
    <g fill="rgb(166,166,178)" stroke-miterlimit="1.45" transform="matrix(0.5874,0,0,0.5874,316.0354,269.6287)" stroke-linecap="butt" stroke="rgb(166,166,178)">
      <rect fill="none" width="487.7704" x="-537.68" height="17.9688" y="-26"/>
    </g>
    <g fill="rgb(238,238,255)" transform="matrix(0.5874,0,0,0.5874,316.0354,269.6287)" stroke="rgb(238,238,255)">
      <rect width="487.89" x="-537.68" height="39.1641" y="-8.0312" stroke="none"/>
    </g>
    <g fill="rgb(166,166,178)" stroke-miterlimit="1.45" transform="matrix(0.5874,0,0,0.5874,316.0354,269.6287)" stroke-linecap="butt" stroke="rgb(166,166,178)">
      <rect fill="none" width="487.89" x="-537.68" height="39.1641" y="-8.0312"/>
    </g>
    <g font-family="sans-serif" transform="matrix(0.5874,0,0,0.5874,316.0354,269.6287)">
      <text xml:space="preserve" x="-531.68" y="-12.8613" onclick="umlload('../../../../../../../../../com/msopentech/odatajclient/engine/data/metadata/edmx/mapping/cs/package-summary.html')" stroke="none">com.msopentech.odatajclient.engine.data.metadata.edmx.mapping.cs</text>
    </g>
    <g fill="rgb(170,170,255)" transform="matrix(0.5874,0,0,0.5874,316.0354,269.6287)" stroke="rgb(170,170,255)">
      <rect x="-529.68" y="0" clip-path="url(#clipPath3)" width="64.89" height="23.1328" stroke="none"/>
    </g>
    <g fill="rgb(118,118,178)" stroke-miterlimit="1.45" transform="matrix(0.5874,0,0,0.5874,316.0354,269.6287)" stroke-linecap="butt" stroke="rgb(118,118,178)">
      <rect fill="none" width="64.89" x="-529.68" height="23.1328" y="0"/>
    </g>
    <g font-size="13" font-weight="bold" font-family="sans-serif" transform="matrix(0.5874,0,0,0.5874,316.0354,269.6287)">
      <text xml:space="preserve" x="-524.735" y="16.0669" onclick="umlload('../../../../../../../../../com/msopentech/odatajclient/engine/data/metadata/edmx/mapping/cs/Version.html')" stroke="none">Version</text>
    </g>
    <g fill="rgb(238,238,255)" transform="matrix(0.5874,0,0,0.5874,316.0354,269.6287)" stroke="rgb(238,238,255)">
      <rect width="76.1412" x="167.615" height="17.9688" y="-133.1328" stroke="none"/>
    </g>
    <g fill="rgb(166,166,178)" stroke-miterlimit="1.45" transform="matrix(0.5874,0,0,0.5874,316.0354,269.6287)" stroke-linecap="butt" stroke="rgb(166,166,178)">
      <rect fill="none" width="76.1412" x="167.615" height="17.9688" y="-133.1328"/>
    </g>
    <g fill="rgb(238,238,255)" transform="matrix(0.5874,0,0,0.5874,316.0354,269.6287)" stroke="rgb(238,238,255)">
      <rect width="76.1412" x="167.615" height="39.1641" y="-115.1641" stroke="none"/>
    </g>
    <g fill="rgb(166,166,178)" stroke-miterlimit="1.45" transform="matrix(0.5874,0,0,0.5874,316.0354,269.6287)" stroke-linecap="butt" stroke="rgb(166,166,178)">
      <rect fill="none" width="76.1412" x="167.615" height="39.1641" y="-115.1641"/>
    </g>
    <g font-family="sans-serif" transform="matrix(0.5874,0,0,0.5874,316.0354,269.6287)">
      <text xml:space="preserve" x="173.615" y="-119.9941" onclick="umlload('http://docs.oracle.com/javase/6/docs/api/java/lang/package-summary.html')" stroke="none">java.lang</text>
    </g>
    <g fill="rgb(187,187,255)" transform="matrix(0.5874,0,0,0.5874,316.0354,269.6287)" stroke="rgb(187,187,255)">
      <rect x="175.615" y="-107.1328" clip-path="url(#clipPath4)" width="57.68" height="23.1328" stroke="none"/>
    </g>
    <g fill="rgb(130,130,178)" stroke-miterlimit="1.45" transform="matrix(0.5874,0,0,0.5874,316.0354,269.6287)" stroke-linecap="butt" stroke="rgb(130,130,178)">
      <rect fill="none" width="57.68" x="175.615" height="23.1328" y="-107.1328"/>
    </g>
    <g font-size="13" font-weight="bold" font-family="sans-serif" transform="matrix(0.5874,0,0,0.5874,316.0354,269.6287)">
      <text xml:space="preserve" x="180.455" y="-91.0659" onclick="umlload('http://docs.oracle.com/javase/6/docs/api/java/lang/Object.html')" stroke="none">Object</text>
    </g>
    <g fill="rgb(238,238,255)" transform="matrix(0.5874,0,0,0.5874,316.0354,269.6287)" stroke="rgb(238,238,255)">
      <rect width="487.7704" x="-8" height="17.9688" y="-26" stroke="none"/>
    </g>
    <g fill="rgb(166,166,178)" stroke-miterlimit="1.45" transform="matrix(0.5874,0,0,0.5874,316.0354,269.6287)" stroke-linecap="butt" stroke="rgb(166,166,178)">
      <rect fill="none" width="487.7704" x="-8" height="17.9688" y="-26"/>
    </g>
    <g fill="rgb(238,238,255)" transform="matrix(0.5874,0,0,0.5874,316.0354,269.6287)" stroke="rgb(238,238,255)">
      <rect width="487.91" x="-8" height="205.3438" y="-8.0312" stroke="none"/>
    </g>
    <g fill="rgb(166,166,178)" stroke-miterlimit="1.45" transform="matrix(0.5874,0,0,0.5874,316.0354,269.6287)" stroke-linecap="butt" stroke="rgb(166,166,178)">
      <rect fill="none" width="487.91" x="-8" height="205.3438" y="-8.0312"/>
    </g>
    <g font-family="sans-serif" transform="matrix(0.5874,0,0,0.5874,316.0354,269.6287)">
      <text xml:space="preserve" x="-2" y="-12.8613" onclick="umlload('package-summary.html')" stroke="none">com.msopentech.odatajclient.engine.data.metadata.edmx.mapping.cs</text>
    </g>
    <g fill="rgb(187,187,255)" transform="matrix(0.5874,0,0,0.5874,316.0354,269.6287)" stroke="rgb(187,187,255)">
      <rect x="0" y="0" clip-path="url(#clipPath5)" width="408.91" height="26.625" stroke="none"/>
      <line clip-path="url(#clipPath5)" fill="none" x1="0" x2="408.91" y1="26.625" y2="26.625" stroke="black"/>
      <rect x="0" y="27.625" clip-path="url(#clipPath5)" width="408.91" height="47.9062" stroke="none"/>
      <line clip-path="url(#clipPath5)" fill="none" x1="0" x2="408.91" y1="75.5312" y2="75.5312" stroke="black"/>
      <rect x="0" y="76.5312" clip-path="url(#clipPath5)" width="408.91" height="15.9688" stroke="none"/>
      <line clip-path="url(#clipPath5)" fill="none" x1="0" x2="408.91" y1="92.5" y2="92.5" stroke="black"/>
      <rect x="0" y="93.5" clip-path="url(#clipPath5)" width="408.91" height="95.8125" stroke="none"/>
    </g>
    <g fill="rgb(130,130,178)" stroke-miterlimit="1.45" transform="matrix(0.5874,0,0,0.5874,316.0354,269.6287)" stroke-linecap="butt" stroke="rgb(130,130,178)">
      <rect fill="none" width="408.91" x="0" height="189.3125" y="0"/>
    </g>
    <g font-size="16" font-weight="bold" font-family="sans-serif" transform="matrix(0.5874,0,0,0.5874,316.0354,269.6287)">
      <text xml:space="preserve" x="9.955" y="18.8516" onclick="umlload('#')" stroke="none">ModificationFunctionMappingScalarProperty</text>
    </g>
    <g font-family="sans-serif" transform="matrix(0.5874,0,0,0.5874,316.0354,269.6287)">
      <text xml:space="preserve" x="4" y="38.1719" stroke="none">#</text>
      <text xml:space="preserve" x="19" y="39.7637" onclick="umlload('#name')" stroke="none">name : String</text>
    </g>
    <g font-family="sans-serif" transform="matrix(0.5874,0,0,0.5874,316.0354,269.6287)">
      <text xml:space="preserve" x="4" y="54.1719" stroke="none">#</text>
      <text xml:space="preserve" x="19" y="55.7324" onclick="umlload('#parameterName')" stroke="none">parameterName : String</text>
    </g>
    <g font-family="sans-serif" transform="matrix(0.5874,0,0,0.5874,316.0354,269.6287)">
      <text xml:space="preserve" x="4" y="70.1719" stroke="none">#</text>
      <text xml:space="preserve" x="19" y="71.7012" onclick="umlload('#version')" stroke="none">version : Version</text>
    </g>
    <g font-family="sans-serif" transform="matrix(0.5874,0,0,0.5874,316.0354,269.6287)">
      <text xml:space="preserve" x="4" y="87.1719" stroke="none">+</text>
      <text xml:space="preserve" x="19" y="88.6699" onclick="umlload('#ModificationFunctionMappingScalarProperty()')" stroke="none">ModificationFunctionMappingScalarProperty()</text>
    </g>
    <g font-family="sans-serif" transform="matrix(0.5874,0,0,0.5874,316.0354,269.6287)">
      <text xml:space="preserve" x="4" y="104.1719" stroke="none">+</text>
      <text xml:space="preserve" x="19" y="105.6387" onclick="umlload('#getName()')" stroke="none">getName() : String</text>
    </g>
    <g font-family="sans-serif" transform="matrix(0.5874,0,0,0.5874,316.0354,269.6287)">
      <text xml:space="preserve" x="4" y="120.1719" stroke="none">+</text>
      <text xml:space="preserve" x="19" y="121.6074" onclick="umlload('#getParameterName()')" stroke="none">getParameterName() : String</text>
    </g>
    <g font-family="sans-serif" transform="matrix(0.5874,0,0,0.5874,316.0354,269.6287)">
      <text xml:space="preserve" x="4" y="136.1719" stroke="none">+</text>
      <text xml:space="preserve" x="19" y="137.5762" onclick="umlload('#getVersion()')" stroke="none">getVersion() : Version</text>
    </g>
    <g font-family="sans-serif" transform="matrix(0.5874,0,0,0.5874,316.0354,269.6287)">
      <text xml:space="preserve" x="4" y="152.1719" stroke="none">+</text>
      <text xml:space="preserve" x="19" y="153.5449" onclick="umlload('#setName(java.lang.String)')" stroke="none">setName(String) : void</text>
    </g>
    <g font-family="sans-serif" transform="matrix(0.5874,0,0,0.5874,316.0354,269.6287)">
      <text xml:space="preserve" x="4" y="168.1719" stroke="none">+</text>
      <text xml:space="preserve" x="19" y="169.5137" onclick="umlload('#setParameterName(java.lang.String)')" stroke="none">setParameterName(String) : void</text>
    </g>
    <g font-family="sans-serif" transform="matrix(0.5874,0,0,0.5874,316.0354,269.6287)">
      <text xml:space="preserve" x="4" y="184.1719" stroke="none">+</text>
      <text xml:space="preserve" x="19" y="185.4824" onclick="umlload('#setVersion(com.msopentech.odatajclient.engine.data.metadata.edmx.mapping.cs.Version)')" stroke="none">setVersion(Version) : void</text>
    </g>
    <g font-family="sans-serif" transform="matrix(0.5874,0,0,0.5874,316.0354,269.6287)">
      <text xml:space="preserve" x="-532" y="222.1543" onclick="umlload('http://www.yworks.com/')" stroke="none">yWorks UML Doclet</text>
    </g>
    <g stroke-miterlimit="1.45" transform="matrix(0.5874,0,0,0.5874,316.0354,269.6287)" stroke-linecap="butt">
      <path fill="none" d="M204.455 0 L204.455 -69"/>
      <path fill="white" d="M204.455 -84 L198.455 -68 L210.455 -68 Z" stroke="none"/>
      <path fill="none" d="M204.455 -84 L198.455 -68 L210.455 -68 Z"/>
      <path fill="none" d="M0.0381 11.5664 L-464.79 11.5664"/>
      <line stroke-linecap="square" transform="matrix(-1,0,0,-1,-464.79,11.5664)" fill="none" x1="0" x2="-14" y1="0" y2="-4" stroke-miterlimit="10"/>
      <line stroke-linecap="square" transform="matrix(-1,0,0,-1,-464.79,11.5664)" fill="none" x1="0" x2="-14" y1="0" y2="4" stroke-miterlimit="10"/>
    </g>
    <g stroke-miterlimit="1.45" transform="matrix(0.5874,0,0,0.5874,316.0354,269.6287)" stroke-linecap="butt">
      <path fill="none" d="M0.0003 98.6992 L-76.48 98.6992"/>
      <line stroke-linecap="square" transform="matrix(-1,0,0,-1,-76.48,98.6992)" fill="none" x1="0" x2="-14" y1="0" y2="-4" stroke-miterlimit="10"/>
      <line stroke-linecap="square" transform="matrix(-1,0,0,-1,-76.48,98.6992)" fill="none" x1="0" x2="-14" y1="0" y2="4" stroke-miterlimit="10"/>
    </g>
  </g>
</svg>
