<?xml version="1.0" encoding="UTF-8"?><svg xmlns="http://www.w3.org/2000/svg" xmlns:xlink="http://www.w3.org/1999/xlink" fill-opacity="1" color-rendering="auto" color-interpolation="auto" stroke="black" text-rendering="auto" stroke-linecap="square" width="598" stroke-miterlimit="10" stroke-opacity="1" shape-rendering="auto" fill="black" stroke-dasharray="none" font-weight="normal" stroke-width="1" height="598" font-family="'Dialog'" font-style="normal" stroke-linejoin="miter" font-size="12" stroke-dashoffset="0" image-rendering="auto">
  <!--Generated by ySVG-->
  <defs id="genericDefs"/>
  <g>
    <defs id="defs1">
      <clipPath clipPathUnits="userSpaceOnUse" id="clipPath1">
        <path d="M0 0 L598 0 L598 598 L0 598 L0 0 Z"/>
      </clipPath>
      <clipPath clipPathUnits="userSpaceOnUse" id="clipPath2">
        <path d="M380.54 26 L424.83 26 L424.83 49.1328 L380.54 49.1328 L380.54 26 Z"/>
      </clipPath>
      <clipPath clipPathUnits="userSpaceOnUse" id="clipPath3">
        <path d="M469.83 26 L656.26 26 L656.26 49.1328 L469.83 49.1328 L469.83 26 Z"/>
      </clipPath>
      <clipPath clipPathUnits="userSpaceOnUse" id="clipPath4">
        <path d="M8 167.2656 L286.1 167.2656 L286.1 190.3984 L8 190.3984 L8 167.2656 Z"/>
      </clipPath>
      <clipPath clipPathUnits="userSpaceOnUse" id="clipPath5">
        <path d="M331.1 167.2656 L676.15 167.2656 L676.15 190.3984 L331.1 190.3984 L331.1 167.2656 Z"/>
      </clipPath>
      <clipPath clipPathUnits="userSpaceOnUse" id="clipPath6">
        <path d="M721.15 167.2656 L861.23 167.2656 L861.23 190.3984 L721.15 190.3984 L721.15 167.2656 Z"/>
      </clipPath>
      <clipPath clipPathUnits="userSpaceOnUse" id="clipPath7">
        <path d="M8 235.3984 L185.16 235.3984 L185.16 258.5312 L8 258.5312 L8 235.3984 Z"/>
      </clipPath>
      <clipPath clipPathUnits="userSpaceOnUse" id="clipPath8">
        <path d="M230.16 235.3984 L310.5 235.3984 L310.5 258.5312 L230.16 258.5312 L230.16 235.3984 Z"/>
      </clipPath>
      <clipPath clipPathUnits="userSpaceOnUse" id="clipPath9">
        <path d="M355.5 235.3984 L458.5 235.3984 L458.5 258.5312 L355.5 258.5312 L355.5 235.3984 Z"/>
      </clipPath>
      <clipPath clipPathUnits="userSpaceOnUse" id="clipPath10">
        <path d="M503.5 235.3984 L695.08 235.3984 L695.08 258.5312 L503.5 258.5312 L503.5 235.3984 Z"/>
      </clipPath>
      <clipPath clipPathUnits="userSpaceOnUse" id="clipPath11">
        <path d="M740.08 235.3984 L883.25 235.3984 L883.25 258.5312 L740.08 258.5312 L740.08 235.3984 Z"/>
      </clipPath>
      <clipPath clipPathUnits="userSpaceOnUse" id="clipPath12">
        <path d="M8 303.5312 L162.5 303.5312 L162.5 326.6641 L8 326.6641 L8 303.5312 Z"/>
      </clipPath>
      <clipPath clipPathUnits="userSpaceOnUse" id="clipPath13">
        <path d="M48.685 26 L294.855 26 L294.855 49.1328 L48.685 49.1328 L48.685 26 Z"/>
      </clipPath>
      <clipPath clipPathUnits="userSpaceOnUse" id="clipPath14">
        <path d="M207.5 303.5312 L520.62 303.5312 L520.62 326.6641 L207.5 326.6641 L207.5 303.5312 Z"/>
      </clipPath>
      <clipPath clipPathUnits="userSpaceOnUse" id="clipPath15">
        <path d="M8 99.1328 L335.54 99.1328 L335.54 122.2656 L8 122.2656 L8 99.1328 Z"/>
      </clipPath>
      <clipPath clipPathUnits="userSpaceOnUse" id="clipPath16">
        <path d="M565.62 303.5312 L858.14 303.5312 L858.14 326.6641 L565.62 326.6641 L565.62 303.5312 Z"/>
      </clipPath>
      <clipPath clipPathUnits="userSpaceOnUse" id="clipPath17">
        <path d="M8 371.6641 L203.7 371.6641 L203.7 394.7969 L8 394.7969 L8 371.6641 Z"/>
      </clipPath>
      <clipPath clipPathUnits="userSpaceOnUse" id="clipPath18">
        <path d="M248.7 371.6641 L518.56 371.6641 L518.56 394.7969 L248.7 394.7969 L248.7 371.6641 Z"/>
      </clipPath>
      <clipPath clipPathUnits="userSpaceOnUse" id="clipPath19">
        <path d="M563.56 371.6641 L754.11 371.6641 L754.11 394.7969 L563.56 394.7969 L563.56 371.6641 Z"/>
      </clipPath>
      <clipPath clipPathUnits="userSpaceOnUse" id="clipPath20">
        <path d="M8 439.7969 L312.88 439.7969 L312.88 462.9297 L8 462.9297 L8 439.7969 Z"/>
      </clipPath>
      <clipPath clipPathUnits="userSpaceOnUse" id="clipPath21">
        <path d="M357.88 439.7969 L433.07 439.7969 L433.07 462.9297 L357.88 462.9297 L357.88 439.7969 Z"/>
      </clipPath>
      <clipPath clipPathUnits="userSpaceOnUse" id="clipPath22">
        <path d="M478.07 439.7969 L627.42 439.7969 L627.42 462.9297 L478.07 462.9297 L478.07 439.7969 Z"/>
      </clipPath>
      <clipPath clipPathUnits="userSpaceOnUse" id="clipPath23">
        <path d="M8 507.9297 L357.17 507.9297 L357.17 531.0625 L8 531.0625 L8 507.9297 Z"/>
      </clipPath>
      <clipPath clipPathUnits="userSpaceOnUse" id="clipPath24">
        <path d="M402.17 507.9297 L767.82 507.9297 L767.82 531.0625 L402.17 531.0625 L402.17 507.9297 Z"/>
      </clipPath>
      <clipPath clipPathUnits="userSpaceOnUse" id="clipPath25">
        <path d="M8 576.0625 L336.57 576.0625 L336.57 599.1953 L8 599.1953 L8 576.0625 Z"/>
      </clipPath>
      <clipPath clipPathUnits="userSpaceOnUse" id="clipPath26">
        <path d="M381.57 576.0625 L727.65 576.0625 L727.65 599.1953 L381.57 599.1953 L381.57 576.0625 Z"/>
      </clipPath>
      <clipPath clipPathUnits="userSpaceOnUse" id="clipPath27">
        <path d="M772.65 576.0625 L886.98 576.0625 L886.98 599.1953 L772.65 599.1953 L772.65 576.0625 Z"/>
      </clipPath>
      <clipPath clipPathUnits="userSpaceOnUse" id="clipPath28">
        <path d="M8 644.1953 L96.58 644.1953 L96.58 667.3281 L8 667.3281 L8 644.1953 Z"/>
      </clipPath>
      <clipPath clipPathUnits="userSpaceOnUse" id="clipPath29">
        <path d="M141.58 644.1953 L254.88 644.1953 L254.88 667.3281 L141.58 667.3281 L141.58 644.1953 Z"/>
      </clipPath>
      <clipPath clipPathUnits="userSpaceOnUse" id="clipPath30">
        <path d="M299.88 644.1953 L420.39 644.1953 L420.39 667.3281 L299.88 667.3281 L299.88 644.1953 Z"/>
      </clipPath>
      <clipPath clipPathUnits="userSpaceOnUse" id="clipPath31">
        <path d="M8 712.3281 L62.59 712.3281 L62.59 735.4609 L8 735.4609 L8 712.3281 Z"/>
      </clipPath>
      <clipPath clipPathUnits="userSpaceOnUse" id="clipPath32">
        <path d="M107.59 712.3281 L172.48 712.3281 L172.48 735.4609 L107.59 735.4609 L107.59 712.3281 Z"/>
      </clipPath>
      <script type="text/ecmascript"><![CDATA[
function umlload(newLocation)
{
if (newLocation.charAt(0) != '#') {
if (newLocation.indexOf("://") > -1) {
window.parent.location.href = newLocation;
} else {
var tmp = window.parent.location.href;
tmp = tmp.substring(0, tmp.lastIndexOf("/") + 1);
window.parent.location.href = tmp.concat(newLocation);
}
} else {
window.parent.location.hash = newLocation;
}
}
]]></script>
    </defs>
    <g fill="rgb(238,238,255)" transform="matrix(0.6682,0,0,0.6682,0,38.7531)" stroke="rgb(238,238,255)">
      <rect width="487.7704" x="0" height="17.9688" y="0" stroke="none"/>
    </g>
    <g fill="rgb(166,166,178)" stroke-miterlimit="1.45" transform="matrix(0.6682,0,0,0.6682,0,38.7531)" stroke-linecap="butt" stroke="rgb(166,166,178)">
      <rect fill="none" width="487.7704" x="0" height="17.9688" y="0"/>
    </g>
    <g fill="rgb(238,238,255)" transform="matrix(0.6682,0,0,0.6682,0,38.7531)" stroke="rgb(238,238,255)">
      <rect width="894.98" x="0" height="725.4922" y="17.9688" stroke="none"/>
    </g>
    <g fill="rgb(166,166,178)" stroke-miterlimit="1.45" transform="matrix(0.6682,0,0,0.6682,0,38.7531)" stroke-linecap="butt" stroke="rgb(166,166,178)">
      <rect fill="none" width="894.98" x="0" height="725.4922" y="17.9688"/>
    </g>
    <g font-family="sans-serif" transform="matrix(0.6682,0,0,0.6682,0,38.7531)">
      <text xml:space="preserve" x="6" y="13.1387" onclick="umlload('#')" stroke="none">com.msopentech.odatajclient.engine.data.metadata.edmx.mapping.cs</text>
    </g>
    <g fill="rgb(187,187,255)" transform="matrix(0.6682,0,0,0.6682,0,38.7531)" stroke="rgb(187,187,255)">
      <rect x="380.54" y="26" clip-path="url(#clipPath2)" width="44.29" height="23.1328" stroke="none"/>
    </g>
    <g fill="rgb(130,130,178)" stroke-miterlimit="1.45" transform="matrix(0.6682,0,0,0.6682,0,38.7531)" stroke-linecap="butt" stroke="rgb(130,130,178)">
      <rect fill="none" width="44.29" x="380.54" height="23.1328" y="26"/>
    </g>
    <g font-size="13" font-weight="bold" font-family="sans-serif" transform="matrix(0.6682,0,0,0.6682,0,38.7531)">
      <text xml:space="preserve" x="385.185" y="42.0669" onclick="umlload('Alias.html')" stroke="none">Alias</text>
    </g>
    <g fill="rgb(187,187,255)" transform="matrix(0.6682,0,0,0.6682,0,38.7531)" stroke="rgb(187,187,255)">
      <rect x="469.83" y="26" clip-path="url(#clipPath3)" width="186.43" height="23.1328" stroke="none"/>
    </g>
    <g fill="rgb(130,130,178)" stroke-miterlimit="1.45" transform="matrix(0.6682,0,0,0.6682,0,38.7531)" stroke-linecap="butt" stroke="rgb(130,130,178)">
      <rect fill="none" width="186.43" x="469.83" height="23.1328" y="26"/>
    </g>
    <g font-size="13" font-weight="bold" font-family="sans-serif" transform="matrix(0.6682,0,0,0.6682,0,38.7531)">
      <text xml:space="preserve" x="476.545" y="42.0669" onclick="umlload('AssociationSetMapping.html')" stroke="none">AssociationSetMapping</text>
    </g>
    <g fill="rgb(187,187,255)" transform="matrix(0.6682,0,0,0.6682,0,38.7531)" stroke="rgb(187,187,255)">
      <rect x="8" y="167.2656" clip-path="url(#clipPath4)" width="278.1" height="23.1328" stroke="none"/>
    </g>
    <g fill="rgb(130,130,178)" stroke-miterlimit="1.45" transform="matrix(0.6682,0,0,0.6682,0,38.7531)" stroke-linecap="butt" stroke="rgb(130,130,178)">
      <rect fill="none" width="278.1" x="8" height="23.1328" y="167.2656"/>
    </g>
    <g font-size="13" font-weight="bold" font-family="sans-serif" transform="matrix(0.6682,0,0,0.6682,0,38.7531)">
      <text xml:space="preserve" x="16.05" y="183.3325" onclick="umlload('AssociationSetModificationFunction.html')" stroke="none">AssociationSetModificationFunction</text>
    </g>
    <g fill="rgb(187,187,255)" transform="matrix(0.6682,0,0,0.6682,0,38.7531)" stroke="rgb(187,187,255)">
      <rect x="331.1" y="167.2656" clip-path="url(#clipPath5)" width="345.05" height="23.1328" stroke="none"/>
    </g>
    <g fill="rgb(130,130,178)" stroke-miterlimit="1.45" transform="matrix(0.6682,0,0,0.6682,0,38.7531)" stroke-linecap="butt" stroke="rgb(130,130,178)">
      <rect fill="none" width="345.05" x="331.1" height="23.1328" y="167.2656"/>
    </g>
    <g font-size="13" font-weight="bold" font-family="sans-serif" transform="matrix(0.6682,0,0,0.6682,0,38.7531)">
      <text xml:space="preserve" x="340.125" y="183.3325" onclick="umlload('AssociationSetModificationFunctionMapping.html')" stroke="none">AssociationSetModificationFunctionMapping</text>
    </g>
    <g fill="rgb(187,187,255)" transform="matrix(0.6682,0,0,0.6682,0,38.7531)" stroke="rgb(187,187,255)">
      <rect x="721.15" y="167.2656" clip-path="url(#clipPath6)" width="140.08" height="23.1328" stroke="none"/>
    </g>
    <g fill="rgb(130,130,178)" stroke-miterlimit="1.45" transform="matrix(0.6682,0,0,0.6682,0,38.7531)" stroke-linecap="butt" stroke="rgb(130,130,178)">
      <rect fill="none" width="140.08" x="721.15" height="23.1328" y="167.2656"/>
    </g>
    <g font-size="13" font-weight="bold" font-family="sans-serif" transform="matrix(0.6682,0,0,0.6682,0,38.7531)">
      <text xml:space="preserve" x="727.19" y="183.3325" onclick="umlload('ComplexProperty.html')" stroke="none">ComplexProperty</text>
    </g>
    <g fill="rgb(187,187,255)" transform="matrix(0.6682,0,0,0.6682,0,38.7531)" stroke="rgb(187,187,255)">
      <rect x="8" y="235.3984" clip-path="url(#clipPath7)" width="177.16" height="23.1328" stroke="none"/>
    </g>
    <g fill="rgb(130,130,178)" stroke-miterlimit="1.45" transform="matrix(0.6682,0,0,0.6682,0,38.7531)" stroke-linecap="butt" stroke="rgb(130,130,178)">
      <rect fill="none" width="177.16" x="8" height="23.1328" y="235.3984"/>
    </g>
    <g font-size="13" font-weight="bold" font-family="sans-serif" transform="matrix(0.6682,0,0,0.6682,0,38.7531)">
      <text xml:space="preserve" x="14.58" y="251.4653" onclick="umlload('ComplexTypeMapping.html')" stroke="none">ComplexTypeMapping</text>
    </g>
    <g fill="rgb(187,187,255)" transform="matrix(0.6682,0,0,0.6682,0,38.7531)" stroke="rgb(187,187,255)">
      <rect x="230.16" y="235.3984" clip-path="url(#clipPath8)" width="80.34" height="23.1328" stroke="none"/>
    </g>
    <g fill="rgb(130,130,178)" stroke-miterlimit="1.45" transform="matrix(0.6682,0,0,0.6682,0,38.7531)" stroke-linecap="butt" stroke="rgb(130,130,178)">
      <rect fill="none" width="80.34" x="230.16" height="23.1328" y="235.3984"/>
    </g>
    <g font-size="13" font-weight="bold" font-family="sans-serif" transform="matrix(0.6682,0,0,0.6682,0,38.7531)">
      <text xml:space="preserve" x="235.33" y="251.4653" onclick="umlload('Condition.html')" stroke="none">Condition</text>
    </g>
    <g fill="rgb(187,187,255)" transform="matrix(0.6682,0,0,0.6682,0,38.7531)" stroke="rgb(187,187,255)">
      <rect x="355.5" y="235.3984" clip-path="url(#clipPath9)" width="103" height="23.1328" stroke="none"/>
    </g>
    <g fill="rgb(130,130,178)" stroke-miterlimit="1.45" transform="matrix(0.6682,0,0,0.6682,0,38.7531)" stroke-linecap="butt" stroke="rgb(130,130,178)">
      <rect fill="none" width="103" x="355.5" height="23.1328" y="235.3984"/>
    </g>
    <g font-size="13" font-weight="bold" font-family="sans-serif" transform="matrix(0.6682,0,0,0.6682,0,38.7531)">
      <text xml:space="preserve" x="361" y="251.4653" onclick="umlload('EndProperty.html')" stroke="none">EndProperty</text>
    </g>
    <g fill="rgb(187,187,255)" transform="matrix(0.6682,0,0,0.6682,0,38.7531)" stroke="rgb(187,187,255)">
      <rect x="503.5" y="235.3984" clip-path="url(#clipPath10)" width="191.58" height="23.1328" stroke="none"/>
    </g>
    <g fill="rgb(130,130,178)" stroke-miterlimit="1.45" transform="matrix(0.6682,0,0,0.6682,0,38.7531)" stroke-linecap="butt" stroke="rgb(130,130,178)">
      <rect fill="none" width="191.58" x="503.5" height="23.1328" y="235.3984"/>
    </g>
    <g font-size="13" font-weight="bold" font-family="sans-serif" transform="matrix(0.6682,0,0,0.6682,0,38.7531)">
      <text xml:space="preserve" x="510.29" y="251.4653" onclick="umlload('EntityContainerMapping.html')" stroke="none">EntityContainerMapping</text>
    </g>
    <g fill="rgb(187,187,255)" transform="matrix(0.6682,0,0,0.6682,0,38.7531)" stroke="rgb(187,187,255)">
      <rect x="740.08" y="235.3984" clip-path="url(#clipPath11)" width="143.17" height="23.1328" stroke="none"/>
    </g>
    <g fill="rgb(130,130,178)" stroke-miterlimit="1.45" transform="matrix(0.6682,0,0,0.6682,0,38.7531)" stroke-linecap="butt" stroke="rgb(130,130,178)">
      <rect fill="none" width="143.17" x="740.08" height="23.1328" y="235.3984"/>
    </g>
    <g font-size="13" font-weight="bold" font-family="sans-serif" transform="matrix(0.6682,0,0,0.6682,0,38.7531)">
      <text xml:space="preserve" x="746.165" y="251.4653" onclick="umlload('EntitySetMapping.html')" stroke="none">EntitySetMapping</text>
    </g>
    <g fill="rgb(187,187,255)" transform="matrix(0.6682,0,0,0.6682,0,38.7531)" stroke="rgb(187,187,255)">
      <rect x="8" y="303.5312" clip-path="url(#clipPath12)" width="154.5" height="23.1328" stroke="none"/>
    </g>
    <g fill="rgb(130,130,178)" stroke-miterlimit="1.45" transform="matrix(0.6682,0,0,0.6682,0,38.7531)" stroke-linecap="butt" stroke="rgb(130,130,178)">
      <rect fill="none" width="154.5" x="8" height="23.1328" y="303.5312"/>
    </g>
    <g font-size="13" font-weight="bold" font-family="sans-serif" transform="matrix(0.6682,0,0,0.6682,0,38.7531)">
      <text xml:space="preserve" x="14.25" y="319.5981" onclick="umlload('EntityTypeMapping.html')" stroke="none">EntityTypeMapping</text>
    </g>
    <g fill="rgb(187,187,255)" transform="matrix(0.6682,0,0,0.6682,0,38.7531)" stroke="rgb(187,187,255)">
      <rect x="48.685" y="26" clip-path="url(#clipPath13)" width="246.17" height="23.1328" stroke="none"/>
    </g>
    <g fill="rgb(130,130,178)" stroke-miterlimit="1.45" transform="matrix(0.6682,0,0,0.6682,0,38.7531)" stroke-linecap="butt" stroke="rgb(130,130,178)">
      <rect fill="none" width="246.17" x="48.685" height="23.1328" y="26"/>
    </g>
    <g font-size="13" font-weight="bold" font-family="sans-serif" transform="matrix(0.6682,0,0,0.6682,0,38.7531)">
      <text xml:space="preserve" x="56.27" y="42.0669" onclick="umlload('EntityTypeModificationFunction.html')" stroke="none">EntityTypeModificationFunction</text>
    </g>
    <g fill="rgb(187,187,255)" transform="matrix(0.6682,0,0,0.6682,0,38.7531)" stroke="rgb(187,187,255)">
      <rect x="207.5" y="303.5312" clip-path="url(#clipPath14)" width="313.12" height="23.1328" stroke="none"/>
    </g>
    <g fill="rgb(130,130,178)" stroke-miterlimit="1.45" transform="matrix(0.6682,0,0,0.6682,0,38.7531)" stroke-linecap="butt" stroke="rgb(130,130,178)">
      <rect fill="none" width="313.12" x="207.5" height="23.1328" y="303.5312"/>
    </g>
    <g font-size="13" font-weight="bold" font-family="sans-serif" transform="matrix(0.6682,0,0,0.6682,0,38.7531)">
      <text xml:space="preserve" x="216.06" y="319.5981" onclick="umlload('EntityTypeModificationFunctionMapping.html')" stroke="none">EntityTypeModificationFunctionMapping</text>
    </g>
    <g fill="rgb(187,187,255)" transform="matrix(0.6682,0,0,0.6682,0,38.7531)" stroke="rgb(187,187,255)">
      <rect x="8" y="99.1328" clip-path="url(#clipPath15)" width="327.54" height="23.1328" stroke="none"/>
    </g>
    <g fill="rgb(130,130,178)" stroke-miterlimit="1.45" transform="matrix(0.6682,0,0,0.6682,0,38.7531)" stroke-linecap="butt" stroke="rgb(130,130,178)">
      <rect fill="none" width="327.54" x="8" height="23.1328" y="99.1328"/>
    </g>
    <g font-size="13" font-weight="bold" font-family="sans-serif" transform="matrix(0.6682,0,0,0.6682,0,38.7531)">
      <text xml:space="preserve" x="16.77" y="115.1997" onclick="umlload('EntityTypeModificationFunctionWithResult.html')" stroke="none">EntityTypeModificationFunctionWithResult</text>
    </g>
    <g fill="rgb(187,187,255)" transform="matrix(0.6682,0,0,0.6682,0,38.7531)" stroke="rgb(187,187,255)">
      <rect x="565.62" y="303.5312" clip-path="url(#clipPath16)" width="292.52" height="23.1328" stroke="none"/>
    </g>
    <g fill="rgb(130,130,178)" stroke-miterlimit="1.45" transform="matrix(0.6682,0,0,0.6682,0,38.7531)" stroke-linecap="butt" stroke="rgb(130,130,178)">
      <rect fill="none" width="292.52" x="565.62" height="23.1328" y="303.5312"/>
    </g>
    <g font-size="13" font-weight="bold" font-family="sans-serif" transform="matrix(0.6682,0,0,0.6682,0,38.7531)">
      <text xml:space="preserve" x="573.88" y="319.5981" onclick="umlload('FunctionImportComplexTypeMapping.html')" stroke="none">FunctionImportComplexTypeMapping</text>
    </g>
    <g fill="rgb(187,187,255)" transform="matrix(0.6682,0,0,0.6682,0,38.7531)" stroke="rgb(187,187,255)">
      <rect x="8" y="371.6641" clip-path="url(#clipPath17)" width="195.7" height="23.1328" stroke="none"/>
    </g>
    <g fill="rgb(130,130,178)" stroke-miterlimit="1.45" transform="matrix(0.6682,0,0,0.6682,0,38.7531)" stroke-linecap="butt" stroke="rgb(130,130,178)">
      <rect fill="none" width="195.7" x="8" height="23.1328" y="371.6641"/>
    </g>
    <g font-size="13" font-weight="bold" font-family="sans-serif" transform="matrix(0.6682,0,0,0.6682,0,38.7531)">
      <text xml:space="preserve" x="14.85" y="387.731" onclick="umlload('FunctionImportCondition.html')" stroke="none">FunctionImportCondition</text>
    </g>
    <g fill="rgb(187,187,255)" transform="matrix(0.6682,0,0,0.6682,0,38.7531)" stroke="rgb(187,187,255)">
      <rect x="248.7" y="371.6641" clip-path="url(#clipPath18)" width="269.86" height="23.1328" stroke="none"/>
    </g>
    <g fill="rgb(130,130,178)" stroke-miterlimit="1.45" transform="matrix(0.6682,0,0,0.6682,0,38.7531)" stroke-linecap="butt" stroke="rgb(130,130,178)">
      <rect fill="none" width="269.86" x="248.7" height="23.1328" y="371.6641"/>
    </g>
    <g font-size="13" font-weight="bold" font-family="sans-serif" transform="matrix(0.6682,0,0,0.6682,0,38.7531)">
      <text xml:space="preserve" x="256.63" y="387.731" onclick="umlload('FunctionImportEntityTypeMapping.html')" stroke="none">FunctionImportEntityTypeMapping</text>
    </g>
    <g fill="rgb(187,187,255)" transform="matrix(0.6682,0,0,0.6682,0,38.7531)" stroke="rgb(187,187,255)">
      <rect x="563.56" y="371.6641" clip-path="url(#clipPath19)" width="190.55" height="23.1328" stroke="none"/>
    </g>
    <g fill="rgb(130,130,178)" stroke-miterlimit="1.45" transform="matrix(0.6682,0,0,0.6682,0,38.7531)" stroke-linecap="butt" stroke="rgb(130,130,178)">
      <rect fill="none" width="190.55" x="563.56" height="23.1328" y="371.6641"/>
    </g>
    <g font-size="13" font-weight="bold" font-family="sans-serif" transform="matrix(0.6682,0,0,0.6682,0,38.7531)">
      <text xml:space="preserve" x="570.335" y="387.731" onclick="umlload('FunctionImportMapping.html')" stroke="none">FunctionImportMapping</text>
    </g>
    <g fill="rgb(187,187,255)" transform="matrix(0.6682,0,0,0.6682,0,38.7531)" stroke="rgb(187,187,255)">
      <rect x="8" y="439.7969" clip-path="url(#clipPath20)" width="304.88" height="23.1328" stroke="none"/>
    </g>
    <g fill="rgb(130,130,178)" stroke-miterlimit="1.45" transform="matrix(0.6682,0,0,0.6682,0,38.7531)" stroke-linecap="butt" stroke="rgb(130,130,178)">
      <rect fill="none" width="304.88" x="8" height="23.1328" y="439.7969"/>
    </g>
    <g font-size="13" font-weight="bold" font-family="sans-serif" transform="matrix(0.6682,0,0,0.6682,0,38.7531)">
      <text xml:space="preserve" x="16.44" y="455.8638" onclick="umlload('FunctionImportMappingResultMapping.html')" stroke="none">FunctionImportMappingResultMapping</text>
    </g>
    <g fill="rgb(187,187,255)" transform="matrix(0.6682,0,0,0.6682,0,38.7531)" stroke="rgb(187,187,255)">
      <rect x="357.88" y="439.7969" clip-path="url(#clipPath21)" width="75.19" height="23.1328" stroke="none"/>
    </g>
    <g fill="rgb(130,130,178)" stroke-miterlimit="1.45" transform="matrix(0.6682,0,0,0.6682,0,38.7531)" stroke-linecap="butt" stroke="rgb(130,130,178)">
      <rect fill="none" width="75.19" x="357.88" height="23.1328" y="439.7969"/>
    </g>
    <g font-size="13" font-weight="bold" font-family="sans-serif" transform="matrix(0.6682,0,0,0.6682,0,38.7531)">
      <text xml:space="preserve" x="362.975" y="455.8638" onclick="umlload('Mapping.html')" stroke="none">Mapping</text>
    </g>
    <g fill="rgb(187,187,255)" transform="matrix(0.6682,0,0,0.6682,0,38.7531)" stroke="rgb(187,187,255)">
      <rect x="478.07" y="439.7969" clip-path="url(#clipPath22)" width="149.35" height="23.1328" stroke="none"/>
    </g>
    <g fill="rgb(130,130,178)" stroke-miterlimit="1.45" transform="matrix(0.6682,0,0,0.6682,0,38.7531)" stroke-linecap="butt" stroke="rgb(130,130,178)">
      <rect fill="none" width="149.35" x="478.07" height="23.1328" y="439.7969"/>
    </g>
    <g font-size="13" font-weight="bold" font-family="sans-serif" transform="matrix(0.6682,0,0,0.6682,0,38.7531)">
      <text xml:space="preserve" x="484.245" y="455.8638" onclick="umlload('MappingFragment.html')" stroke="none">MappingFragment</text>
    </g>
    <g fill="rgb(187,187,255)" transform="matrix(0.6682,0,0,0.6682,0,38.7531)" stroke="rgb(187,187,255)">
      <rect x="8" y="507.9297" clip-path="url(#clipPath23)" width="349.17" height="23.1328" stroke="none"/>
    </g>
    <g fill="rgb(130,130,178)" stroke-miterlimit="1.45" transform="matrix(0.6682,0,0,0.6682,0,38.7531)" stroke-linecap="butt" stroke="rgb(130,130,178)">
      <rect fill="none" width="349.17" x="8" height="23.1328" y="507.9297"/>
    </g>
    <g font-size="13" font-weight="bold" font-family="sans-serif" transform="matrix(0.6682,0,0,0.6682,0,38.7531)">
      <text xml:space="preserve" x="17.085" y="523.9966" onclick="umlload('ModificationFunctionMappingAssociationEnd.html')" stroke="none">ModificationFunctionMappingAssociationEnd</text>
    </g>
    <g fill="rgb(187,187,255)" transform="matrix(0.6682,0,0,0.6682,0,38.7531)" stroke="rgb(187,187,255)">
      <rect x="402.17" y="507.9297" clip-path="url(#clipPath24)" width="365.65" height="23.1328" stroke="none"/>
    </g>
    <g fill="rgb(130,130,178)" stroke-miterlimit="1.45" transform="matrix(0.6682,0,0,0.6682,0,38.7531)" stroke-linecap="butt" stroke="rgb(130,130,178)">
      <rect fill="none" width="365.65" x="402.17" height="23.1328" y="507.9297"/>
    </g>
    <g font-size="13" font-weight="bold" font-family="sans-serif" transform="matrix(0.6682,0,0,0.6682,0,38.7531)">
      <text xml:space="preserve" x="411.495" y="523.9966" onclick="umlload('ModificationFunctionMappingComplexProperty.html')" stroke="none">ModificationFunctionMappingComplexProperty</text>
    </g>
    <g fill="rgb(187,187,255)" transform="matrix(0.6682,0,0,0.6682,0,38.7531)" stroke="rgb(187,187,255)">
      <rect x="8" y="576.0625" clip-path="url(#clipPath25)" width="328.57" height="23.1328" stroke="none"/>
    </g>
    <g fill="rgb(130,130,178)" stroke-miterlimit="1.45" transform="matrix(0.6682,0,0,0.6682,0,38.7531)" stroke-linecap="butt" stroke="rgb(130,130,178)">
      <rect fill="none" width="328.57" x="8" height="23.1328" y="576.0625"/>
    </g>
    <g font-size="13" font-weight="bold" font-family="sans-serif" transform="matrix(0.6682,0,0,0.6682,0,38.7531)">
      <text xml:space="preserve" x="16.785" y="592.1294" onclick="umlload('ModificationFunctionMappingEndProperty.html')" stroke="none">ModificationFunctionMappingEndProperty</text>
    </g>
    <g fill="rgb(187,187,255)" transform="matrix(0.6682,0,0,0.6682,0,38.7531)" stroke="rgb(187,187,255)">
      <rect x="381.57" y="576.0625" clip-path="url(#clipPath26)" width="346.08" height="23.1328" stroke="none"/>
    </g>
    <g fill="rgb(130,130,178)" stroke-miterlimit="1.45" transform="matrix(0.6682,0,0,0.6682,0,38.7531)" stroke-linecap="butt" stroke="rgb(130,130,178)">
      <rect fill="none" width="346.08" x="381.57" height="23.1328" y="576.0625"/>
    </g>
    <g font-size="13" font-weight="bold" font-family="sans-serif" transform="matrix(0.6682,0,0,0.6682,0,38.7531)">
      <text xml:space="preserve" x="390.61" y="592.1294" onclick="umlload('ModificationFunctionMappingScalarProperty.html')" stroke="none">ModificationFunctionMappingScalarProperty</text>
    </g>
    <g fill="rgb(187,187,255)" transform="matrix(0.6682,0,0,0.6682,0,38.7531)" stroke="rgb(187,187,255)">
      <rect x="772.65" y="576.0625" clip-path="url(#clipPath27)" width="114.33" height="23.1328" stroke="none"/>
    </g>
    <g fill="rgb(130,130,178)" stroke-miterlimit="1.45" transform="matrix(0.6682,0,0,0.6682,0,38.7531)" stroke-linecap="butt" stroke="rgb(130,130,178)">
      <rect fill="none" width="114.33" x="772.65" height="23.1328" y="576.0625"/>
    </g>
    <g font-size="13" font-weight="bold" font-family="sans-serif" transform="matrix(0.6682,0,0,0.6682,0,38.7531)">
      <text xml:space="preserve" x="778.315" y="592.1294" onclick="umlload('ObjectFactory.html')" stroke="none">ObjectFactory</text>
    </g>
    <g fill="rgb(187,187,255)" transform="matrix(0.6682,0,0,0.6682,0,38.7531)" stroke="rgb(187,187,255)">
      <rect x="8" y="644.1953" clip-path="url(#clipPath28)" width="88.58" height="23.1328" stroke="none"/>
    </g>
    <g fill="rgb(130,130,178)" stroke-miterlimit="1.45" transform="matrix(0.6682,0,0,0.6682,0,38.7531)" stroke-linecap="butt" stroke="rgb(130,130,178)">
      <rect fill="none" width="88.58" x="8" height="23.1328" y="644.1953"/>
    </g>
    <g font-size="13" font-weight="bold" font-family="sans-serif" transform="matrix(0.6682,0,0,0.6682,0,38.7531)">
      <text xml:space="preserve" x="13.29" y="660.2622" onclick="umlload('QueryView.html')" stroke="none">QueryView</text>
    </g>
    <g fill="rgb(187,187,255)" transform="matrix(0.6682,0,0,0.6682,0,38.7531)" stroke="rgb(187,187,255)">
      <rect x="141.58" y="644.1953" clip-path="url(#clipPath29)" width="113.3" height="23.1328" stroke="none"/>
    </g>
    <g fill="rgb(130,130,178)" stroke-miterlimit="1.45" transform="matrix(0.6682,0,0,0.6682,0,38.7531)" stroke-linecap="butt" stroke="rgb(130,130,178)">
      <rect fill="none" width="113.3" x="141.58" height="23.1328" y="644.1953"/>
    </g>
    <g font-size="13" font-weight="bold" font-family="sans-serif" transform="matrix(0.6682,0,0,0.6682,0,38.7531)">
      <text xml:space="preserve" x="147.23" y="660.2622" onclick="umlload('ResultBinding.html')" stroke="none">ResultBinding</text>
    </g>
    <g fill="rgb(187,187,255)" transform="matrix(0.6682,0,0,0.6682,0,38.7531)" stroke="rgb(187,187,255)">
      <rect x="299.88" y="644.1953" clip-path="url(#clipPath30)" width="120.51" height="23.1328" stroke="none"/>
    </g>
    <g fill="rgb(130,130,178)" stroke-miterlimit="1.45" transform="matrix(0.6682,0,0,0.6682,0,38.7531)" stroke-linecap="butt" stroke="rgb(130,130,178)">
      <rect fill="none" width="120.51" x="299.88" height="23.1328" y="644.1953"/>
    </g>
    <g font-size="13" font-weight="bold" font-family="sans-serif" transform="matrix(0.6682,0,0,0.6682,0,38.7531)">
      <text xml:space="preserve" x="305.635" y="660.2622" onclick="umlload('ScalarProperty.html')" stroke="none">ScalarProperty</text>
    </g>
    <g fill="rgb(170,170,255)" transform="matrix(0.6682,0,0,0.6682,0,38.7531)" stroke="rgb(170,170,255)">
      <rect x="8" y="712.3281" clip-path="url(#clipPath31)" width="54.59" height="23.1328" stroke="none"/>
    </g>
    <g fill="rgb(118,118,178)" stroke-miterlimit="1.45" transform="matrix(0.6682,0,0,0.6682,0,38.7531)" stroke-linecap="butt" stroke="rgb(118,118,178)">
      <rect fill="none" width="54.59" x="8" height="23.1328" y="712.3281"/>
    </g>
    <g font-size="13" font-weight="bold" font-family="sans-serif" transform="matrix(0.6682,0,0,0.6682,0,38.7531)">
      <text xml:space="preserve" x="12.795" y="728.395" onclick="umlload('Space.html')" stroke="none">Space</text>
    </g>
    <g fill="rgb(170,170,255)" transform="matrix(0.6682,0,0,0.6682,0,38.7531)" stroke="rgb(170,170,255)">
      <rect x="107.59" y="712.3281" clip-path="url(#clipPath32)" width="64.89" height="23.1328" stroke="none"/>
    </g>
    <g fill="rgb(118,118,178)" stroke-miterlimit="1.45" transform="matrix(0.6682,0,0,0.6682,0,38.7531)" stroke-linecap="butt" stroke="rgb(118,118,178)">
      <rect fill="none" width="64.89" x="107.59" height="23.1328" y="712.3281"/>
    </g>
    <g font-size="13" font-weight="bold" font-family="sans-serif" transform="matrix(0.6682,0,0,0.6682,0,38.7531)">
      <text xml:space="preserve" x="112.535" y="728.395" onclick="umlload('Version.html')" stroke="none">Version</text>
    </g>
    <g font-family="sans-serif" transform="matrix(0.6682,0,0,0.6682,0,38.7531)">
      <text xml:space="preserve" x="6" y="768.1543" onclick="umlload('http://www.yworks.com/')" stroke="none">yWorks UML Doclet</text>
    </g>
    <g stroke-miterlimit="1.45" transform="matrix(0.6682,0,0,0.6682,0,38.7531)" stroke-linecap="butt">
      <path fill="none" d="M171.77 99.1328 L171.77 64.1328"/>
      <path fill="white" d="M171.77 49.1328 L165.77 65.1328 L177.77 65.1328 Z" stroke="none"/>
      <path fill="none" d="M171.77 49.1328 L165.77 65.1328 L177.77 65.1328 Z"/>
    </g>
  </g>
</svg>
