<?xml version="1.0" encoding="UTF-8"?><svg xmlns="http://www.w3.org/2000/svg" xmlns:xlink="http://www.w3.org/1999/xlink" fill-opacity="1" color-rendering="auto" color-interpolation="auto" stroke="black" text-rendering="auto" stroke-linecap="square" width="598" stroke-miterlimit="10" stroke-opacity="1" shape-rendering="auto" fill="black" stroke-dasharray="none" font-weight="normal" stroke-width="1" height="598" font-family="'Dialog'" font-style="normal" stroke-linejoin="miter" font-size="12" stroke-dashoffset="0" image-rendering="auto">
  <!--Generated by ySVG-->
  <defs id="genericDefs"/>
  <g>
    <defs id="defs1">
      <clipPath clipPathUnits="userSpaceOnUse" id="clipPath1">
        <path d="M0 0 L598 0 L598 598 L0 598 L0 0 Z"/>
      </clipPath>
      <clipPath clipPathUnits="userSpaceOnUse" id="clipPath2">
        <path d="M652.07 153.3984 L790.09 153.3984 L790.09 176.5312 L652.07 176.5312 L652.07 153.3984 Z"/>
      </clipPath>
      <clipPath clipPathUnits="userSpaceOnUse" id="clipPath3">
        <path d="M652.07 186.5312 L717.99 186.5312 L717.99 209.6641 L652.07 209.6641 L652.07 186.5312 Z"/>
      </clipPath>
      <clipPath clipPathUnits="userSpaceOnUse" id="clipPath4">
        <path d="M652.07 0 L731.38 0 L731.38 23.1328 L652.07 23.1328 L652.07 0 Z"/>
      </clipPath>
      <clipPath clipPathUnits="userSpaceOnUse" id="clipPath5">
        <path d="M652.07 33.1328 L705.63 33.1328 L705.63 56.2656 L652.07 56.2656 L652.07 33.1328 Z"/>
      </clipPath>
      <clipPath clipPathUnits="userSpaceOnUse" id="clipPath6">
        <path d="M652.07 66.2656 L694.3 66.2656 L694.3 89.3984 L652.07 89.3984 L652.07 66.2656 Z"/>
      </clipPath>
      <clipPath clipPathUnits="userSpaceOnUse" id="clipPath7">
        <path d="M-66 16.3574 C-66 25.3913 -84.9126 32.7147 -108.2426 32.7147 C-131.5725 32.7147 -150.4851 25.3913 -150.4851 16.3574 C-150.4851 7.3234 -131.5725 0 -108.2426 0 C-84.9126 0 -66 7.3234 -66 16.3574 Z"/>
      </clipPath>
      <clipPath clipPathUnits="userSpaceOnUse" id="clipPath8">
        <path d="M264.195 -107.1328 L321.875 -107.1328 L321.875 -84 L264.195 -84 L264.195 -107.1328 Z"/>
      </clipPath>
      <clipPath clipPathUnits="userSpaceOnUse" id="clipPath9">
        <path d="M0 0 L586.07 0 L586.07 217.6641 L0 217.6641 L0 0 Z"/>
      </clipPath>
      <script type="text/ecmascript"><![CDATA[
function umlload(newLocation)
{
if (newLocation.charAt(0) != '#') {
if (newLocation.indexOf("://") > -1) {
window.parent.location.href = newLocation;
} else {
var tmp = window.parent.location.href;
tmp = tmp.substring(0, tmp.lastIndexOf("/") + 1);
window.parent.location.href = tmp.concat(newLocation);
}
} else {
window.parent.location.hash = newLocation;
}
}
]]></script>
    </defs>
    <g fill="rgb(238,238,255)" transform="matrix(0.6242,0,0,0.6242,99.2505,259.0501)" stroke="rgb(238,238,255)">
      <rect width="122.8208" x="644.07" height="17.9688" y="127.3984" stroke="none"/>
    </g>
    <g fill="rgb(166,166,178)" stroke-miterlimit="1.45" transform="matrix(0.6242,0,0,0.6242,99.2505,259.0501)" stroke-linecap="butt" stroke="rgb(166,166,178)">
      <rect fill="none" width="122.8208" x="644.07" height="17.9688" y="127.3984"/>
    </g>
    <g fill="rgb(238,238,255)" transform="matrix(0.6242,0,0,0.6242,99.2505,259.0501)" stroke="rgb(238,238,255)">
      <rect width="154.02" x="644.07" height="72.2969" y="145.3672" stroke="none"/>
    </g>
    <g fill="rgb(166,166,178)" stroke-miterlimit="1.45" transform="matrix(0.6242,0,0,0.6242,99.2505,259.0501)" stroke-linecap="butt" stroke="rgb(166,166,178)">
      <rect fill="none" width="154.02" x="644.07" height="72.2969" y="145.3672"/>
    </g>
    <g font-family="sans-serif" transform="matrix(0.6242,0,0,0.6242,99.2505,259.0501)">
      <text xml:space="preserve" x="650.07" y="140.5371" onclick="umlload('http://docs.oracle.com/javase/6/docs/api/java/lang/reflect/package-summary.html')" stroke="none">java.lang.reflect</text>
    </g>
    <g fill="rgb(187,187,255)" transform="matrix(0.6242,0,0,0.6242,99.2505,259.0501)" stroke="rgb(187,187,255)">
      <rect x="652.07" y="153.3984" clip-path="url(#clipPath2)" width="138.02" height="23.1328" stroke="none"/>
    </g>
    <g fill="rgb(130,130,178)" stroke-miterlimit="1.45" transform="matrix(0.6242,0,0,0.6242,99.2505,259.0501)" stroke-linecap="butt" stroke="rgb(130,130,178)">
      <rect fill="none" width="138.02" x="652.07" height="23.1328" y="153.3984"/>
    </g>
    <g font-size="13" font-weight="bold" font-family="sans-serif" transform="matrix(0.6242,0,0,0.6242,99.2505,259.0501)">
      <text xml:space="preserve" x="658.08" y="169.4653" onclick="umlload('http://docs.oracle.com/javase/6/docs/api/java/lang/reflect/AccessibleObject.html')" stroke="none">AccessibleObject</text>
    </g>
    <g fill="rgb(187,187,255)" transform="matrix(0.6242,0,0,0.6242,99.2505,259.0501)" stroke="rgb(187,187,255)">
      <rect x="652.07" y="186.5312" clip-path="url(#clipPath3)" width="65.92" height="23.1328" stroke="none"/>
    </g>
    <g fill="rgb(130,130,178)" stroke-miterlimit="1.45" transform="matrix(0.6242,0,0,0.6242,99.2505,259.0501)" stroke-linecap="butt" stroke="rgb(130,130,178)">
      <rect fill="none" width="65.92" x="652.07" height="23.1328" y="186.5312"/>
    </g>
    <g font-size="13" font-weight="bold" font-family="sans-serif" transform="matrix(0.6242,0,0,0.6242,99.2505,259.0501)">
      <text xml:space="preserve" x="657.03" y="202.5981" onclick="umlload('http://docs.oracle.com/javase/6/docs/api/java/lang/reflect/Method.html')" stroke="none">Method</text>
    </g>
    <g fill="rgb(238,238,255)" transform="matrix(0.6242,0,0,0.6242,99.2505,259.0501)" stroke="rgb(238,238,255)">
      <rect width="76.1412" x="644.07" height="17.9688" y="-26" stroke="none"/>
    </g>
    <g fill="rgb(166,166,178)" stroke-miterlimit="1.45" transform="matrix(0.6242,0,0,0.6242,99.2505,259.0501)" stroke-linecap="butt" stroke="rgb(166,166,178)">
      <rect fill="none" width="76.1412" x="644.07" height="17.9688" y="-26"/>
    </g>
    <g fill="rgb(238,238,255)" transform="matrix(0.6242,0,0,0.6242,99.2505,259.0501)" stroke="rgb(238,238,255)">
      <rect width="95.31" x="644.07" height="105.4297" y="-8.0312" stroke="none"/>
    </g>
    <g fill="rgb(166,166,178)" stroke-miterlimit="1.45" transform="matrix(0.6242,0,0,0.6242,99.2505,259.0501)" stroke-linecap="butt" stroke="rgb(166,166,178)">
      <rect fill="none" width="95.31" x="644.07" height="105.4297" y="-8.0312"/>
    </g>
    <g font-family="sans-serif" transform="matrix(0.6242,0,0,0.6242,99.2505,259.0501)">
      <text xml:space="preserve" x="650.07" y="-12.8613" onclick="umlload('http://docs.oracle.com/javase/6/docs/api/java/lang/package-summary.html')" stroke="none">java.lang</text>
    </g>
    <g fill="rgb(187,187,255)" transform="matrix(0.6242,0,0,0.6242,99.2505,259.0501)" stroke="rgb(187,187,255)">
      <rect x="652.07" y="0" clip-path="url(#clipPath4)" width="79.31" height="23.1328" stroke="none"/>
    </g>
    <g fill="rgb(130,130,178)" stroke-miterlimit="1.45" transform="matrix(0.6242,0,0,0.6242,99.2505,259.0501)" stroke-linecap="butt" stroke="rgb(130,130,178)">
      <rect fill="none" width="79.31" x="652.07" height="23.1328" y="0"/>
    </g>
    <g font-size="13" font-weight="bold" font-family="sans-serif" transform="matrix(0.6242,0,0,0.6242,99.2505,259.0501)">
      <text xml:space="preserve" x="657.225" y="16.0669" onclick="umlload('http://docs.oracle.com/javase/6/docs/api/java/lang/Class.html')" stroke="none">Class&lt;T&gt;</text>
    </g>
    <g fill="rgb(187,187,255)" transform="matrix(0.6242,0,0,0.6242,99.2505,259.0501)" stroke="rgb(187,187,255)">
      <rect x="652.07" y="33.1328" clip-path="url(#clipPath5)" width="53.56" height="23.1328" stroke="none"/>
    </g>
    <g fill="rgb(130,130,178)" stroke-miterlimit="1.45" transform="matrix(0.6242,0,0,0.6242,99.2505,259.0501)" stroke-linecap="butt" stroke="rgb(130,130,178)">
      <rect fill="none" width="53.56" x="652.07" height="23.1328" y="33.1328"/>
    </g>
    <g font-size="13" font-weight="bold" font-family="sans-serif" transform="matrix(0.6242,0,0,0.6242,99.2505,259.0501)">
      <text xml:space="preserve" x="656.85" y="49.1997" onclick="umlload('http://docs.oracle.com/javase/6/docs/api/java/lang/String.html')" stroke="none">String</text>
    </g>
    <g fill="rgb(187,187,255)" transform="matrix(0.6242,0,0,0.6242,99.2505,259.0501)" stroke="rgb(187,187,255)">
      <rect x="652.07" y="66.2656" clip-path="url(#clipPath6)" width="42.23" height="23.1328" stroke="none"/>
    </g>
    <g fill="rgb(130,130,178)" stroke-miterlimit="1.45" transform="matrix(0.6242,0,0,0.6242,99.2505,259.0501)" stroke-linecap="butt" stroke="rgb(130,130,178)">
      <rect fill="none" width="42.23" x="652.07" height="23.1328" y="66.2656"/>
    </g>
    <g font-size="13" font-weight="bold" font-family="sans-serif" transform="matrix(0.6242,0,0,0.6242,99.2505,259.0501)">
      <text xml:space="preserve" x="656.685" y="82.3325" onclick="umlload('http://docs.oracle.com/javase/6/docs/api/java/lang/Void.html')" stroke="none">Void</text>
    </g>
    <g fill="rgb(238,238,255)" transform="matrix(0.6242,0,0,0.6242,99.2505,259.0501)" stroke="rgb(238,238,255)">
      <rect width="69.7758" x="-158.4851" height="17.9688" y="-26" stroke="none"/>
    </g>
    <g fill="rgb(166,166,178)" stroke-miterlimit="1.45" transform="matrix(0.6242,0,0,0.6242,99.2505,259.0501)" stroke-linecap="butt" stroke="rgb(166,166,178)">
      <rect fill="none" width="69.7758" x="-158.4851" height="17.9688" y="-26"/>
    </g>
    <g fill="rgb(238,238,255)" transform="matrix(0.6242,0,0,0.6242,99.2505,259.0501)" stroke="rgb(238,238,255)">
      <rect width="100.4851" x="-158.4851" height="48.746" y="-8.0312" stroke="none"/>
    </g>
    <g fill="rgb(166,166,178)" stroke-miterlimit="1.45" transform="matrix(0.6242,0,0,0.6242,99.2505,259.0501)" stroke-linecap="butt" stroke="rgb(166,166,178)">
      <rect fill="none" width="100.4851" x="-158.4851" height="48.746" y="-8.0312"/>
    </g>
    <g font-family="sans-serif" transform="matrix(0.6242,0,0,0.6242,99.2505,259.0501)">
      <text xml:space="preserve" x="-152.4851" y="-12.8613" stroke="none">org.slf4j</text>
    </g>
    <g fill="rgb(221,221,255)" transform="matrix(0.6242,0,0,0.6242,99.2505,259.0501)" stroke="rgb(221,221,255)">
      <rect x="-150.4851" y="0" clip-path="url(#clipPath7)" width="84.4851" height="32.7147" stroke="none"/>
    </g>
    <g fill="rgb(154,154,178)" stroke-miterlimit="1.45" transform="matrix(0.6242,0,0,0.6242,99.2505,259.0501)" stroke-linecap="butt" stroke="rgb(154,154,178)">
      <ellipse rx="42.2426" fill="none" ry="16.3574" cx="-108.2426" cy="16.3574"/>
    </g>
    <g font-style="italic" font-size="13" font-weight="bold" font-family="sans-serif" transform="matrix(0.6242,0,0,0.6242,99.2505,259.0501)">
      <text xml:space="preserve" x="-133.2426" y="20.8579" stroke="none">Logger</text>
    </g>
    <g fill="rgb(238,238,255)" transform="matrix(0.6242,0,0,0.6242,99.2505,259.0501)" stroke="rgb(238,238,255)">
      <rect width="76.1412" x="256.195" height="17.9688" y="-133.1328" stroke="none"/>
    </g>
    <g fill="rgb(166,166,178)" stroke-miterlimit="1.45" transform="matrix(0.6242,0,0,0.6242,99.2505,259.0501)" stroke-linecap="butt" stroke="rgb(166,166,178)">
      <rect fill="none" width="76.1412" x="256.195" height="17.9688" y="-133.1328"/>
    </g>
    <g fill="rgb(238,238,255)" transform="matrix(0.6242,0,0,0.6242,99.2505,259.0501)" stroke="rgb(238,238,255)">
      <rect width="76.1412" x="256.195" height="39.1641" y="-115.1641" stroke="none"/>
    </g>
    <g fill="rgb(166,166,178)" stroke-miterlimit="1.45" transform="matrix(0.6242,0,0,0.6242,99.2505,259.0501)" stroke-linecap="butt" stroke="rgb(166,166,178)">
      <rect fill="none" width="76.1412" x="256.195" height="39.1641" y="-115.1641"/>
    </g>
    <g font-family="sans-serif" transform="matrix(0.6242,0,0,0.6242,99.2505,259.0501)">
      <text xml:space="preserve" x="262.195" y="-119.9941" onclick="umlload('http://docs.oracle.com/javase/6/docs/api/java/lang/package-summary.html')" stroke="none">java.lang</text>
    </g>
    <g fill="rgb(187,187,255)" transform="matrix(0.6242,0,0,0.6242,99.2505,259.0501)" stroke="rgb(187,187,255)">
      <rect x="264.195" y="-107.1328" clip-path="url(#clipPath8)" width="57.68" height="23.1328" stroke="none"/>
    </g>
    <g fill="rgb(130,130,178)" stroke-miterlimit="1.45" transform="matrix(0.6242,0,0,0.6242,99.2505,259.0501)" stroke-linecap="butt" stroke="rgb(130,130,178)">
      <rect fill="none" width="57.68" x="264.195" height="23.1328" y="-107.1328"/>
    </g>
    <g font-size="13" font-weight="bold" font-family="sans-serif" transform="matrix(0.6242,0,0,0.6242,99.2505,259.0501)">
      <text xml:space="preserve" x="269.035" y="-91.0659" onclick="umlload('http://docs.oracle.com/javase/6/docs/api/java/lang/Object.html')" stroke="none">Object</text>
    </g>
    <g fill="rgb(238,238,255)" transform="matrix(0.6242,0,0,0.6242,99.2505,259.0501)" stroke="rgb(238,238,255)">
      <rect width="285.1385" x="-8" height="17.9688" y="-26" stroke="none"/>
    </g>
    <g fill="rgb(166,166,178)" stroke-miterlimit="1.45" transform="matrix(0.6242,0,0,0.6242,99.2505,259.0501)" stroke-linecap="butt" stroke="rgb(166,166,178)">
      <rect fill="none" width="285.1385" x="-8" height="17.9688" y="-26"/>
    </g>
    <g fill="rgb(238,238,255)" transform="matrix(0.6242,0,0,0.6242,99.2505,259.0501)" stroke="rgb(238,238,255)">
      <rect width="602.07" x="-8" height="233.6953" y="-8.0312" stroke="none"/>
    </g>
    <g fill="rgb(166,166,178)" stroke-miterlimit="1.45" transform="matrix(0.6242,0,0,0.6242,99.2505,259.0501)" stroke-linecap="butt" stroke="rgb(166,166,178)">
      <rect fill="none" width="602.07" x="-8" height="233.6953" y="-8.0312"/>
    </g>
    <g font-family="sans-serif" transform="matrix(0.6242,0,0,0.6242,99.2505,259.0501)">
      <text xml:space="preserve" x="-2" y="-12.8613" onclick="umlload('package-summary.html')" stroke="none">com.msopentech.odatajclient.proxy.utils</text>
    </g>
    <g fill="rgb(187,187,255)" transform="matrix(0.6242,0,0,0.6242,99.2505,259.0501)" stroke="rgb(187,187,255)">
      <rect x="0" y="0" clip-path="url(#clipPath9)" width="586.07" height="26.625" stroke="none"/>
      <line clip-path="url(#clipPath9)" fill="none" x1="0" x2="586.07" y1="26.625" y2="26.625" stroke="black"/>
      <line clip-path="url(#clipPath9)" x1="0" x2="586.07" y1="27.625" y2="27.625" stroke="none"/>
      <line clip-path="url(#clipPath9)" fill="none" x1="0" x2="586.07" y1="27.625" y2="27.625" stroke="black"/>
      <rect x="0" y="28.625" clip-path="url(#clipPath9)" width="586.07" height="189.0391" stroke="none"/>
    </g>
    <g fill="rgb(130,130,178)" stroke-miterlimit="1.45" transform="matrix(0.6242,0,0,0.6242,99.2505,259.0501)" stroke-linecap="butt" stroke="rgb(130,130,178)">
      <rect fill="none" width="586.07" x="0" height="217.6641" y="0"/>
    </g>
    <g font-size="16" font-weight="bold" font-family="sans-serif" transform="matrix(0.6242,0,0,0.6242,99.2505,259.0501)">
      <text xml:space="preserve" x="251.035" y="18.8516" onclick="umlload('#')" stroke="none">ClassUtils</text>
    </g>
    <g font-family="sans-serif" transform="matrix(0.6242,0,0,0.6242,99.2505,259.0501)">
      <text xml:space="preserve" x="4" y="39.1719" stroke="none">+</text>
      <text xml:space="preserve" x="19" y="40.7637" onclick="umlload('#extractTypeArg(java.lang.Class)')" stroke="none">extractTypeArg(Class&lt;?&gt;) : Class&lt;?&gt;</text>
      <line y2="43.5938" fill="none" x1="19" x2="253" y1="43.5938"/>
    </g>
    <g font-family="sans-serif" transform="matrix(0.6242,0,0,0.6242,99.2505,259.0501)">
      <text xml:space="preserve" x="4" y="55.1719" stroke="none">+</text>
      <text xml:space="preserve" x="19" y="56.7324" onclick="umlload('#findGetterByAnnotatedName(java.lang.Class, java.lang.Class, java.lang.String)')" stroke="none">findGetterByAnnotatedName(Class&lt;?&gt;, Class&lt;? extends Annotation&gt;, String) : Method</text>
      <line y2="59.5625" fill="none" x1="19" x2="565" y1="59.5625"/>
    </g>
    <g font-family="sans-serif" transform="matrix(0.6242,0,0,0.6242,99.2505,259.0501)">
      <text xml:space="preserve" x="4" y="71.1719" stroke="none">+</text>
      <text xml:space="preserve" x="19" y="72.7012" onclick="umlload('#getAnnotation(java.lang.Class, java.lang.reflect.AccessibleObject)')" stroke="none">getAnnotation(Class&lt;ANN&gt;, AccessibleObject) : &lt;ANN extends Annotation&gt; ANN</text>
      <line y2="75.5312" fill="none" x1="19" x2="527" y1="75.5312"/>
    </g>
    <g font-family="sans-serif" transform="matrix(0.6242,0,0,0.6242,99.2505,259.0501)">
      <text xml:space="preserve" x="4" y="87.1719" stroke="none">+</text>
      <text xml:space="preserve" x="19" y="88.6699" onclick="umlload('#getCompoundKeyRef(java.lang.Class)')" stroke="none">getCompoundKeyRef(Class&lt;?&gt;) : Class&lt;?&gt;</text>
      <line y2="91.5" fill="none" x1="19" x2="288" y1="91.5"/>
    </g>
    <g font-family="sans-serif" transform="matrix(0.6242,0,0,0.6242,99.2505,259.0501)">
      <text xml:space="preserve" x="4" y="103.1719" stroke="none">+</text>
      <text xml:space="preserve" x="19" y="104.6387" onclick="umlload('#getEntityTypeName(java.lang.Class)')" stroke="none">getEntityTypeName(Class&lt;?&gt;) : String</text>
      <line y2="107.4688" fill="none" x1="19" x2="258" y1="107.4688"/>
    </g>
    <g font-family="sans-serif" transform="matrix(0.6242,0,0,0.6242,99.2505,259.0501)">
      <text xml:space="preserve" x="4" y="119.1719" stroke="none">+</text>
      <text xml:space="preserve" x="19" y="120.6074" onclick="umlload('#getKeyRef(java.lang.Class)')" stroke="none">getKeyRef(Class&lt;?&gt;) : Class&lt;?&gt;</text>
      <line y2="123.4375" fill="none" x1="19" x2="221" y1="123.4375"/>
    </g>
    <g font-family="sans-serif" transform="matrix(0.6242,0,0,0.6242,99.2505,259.0501)">
      <text xml:space="preserve" x="4" y="135.1719" stroke="none">+</text>
      <text xml:space="preserve" x="19" y="136.5762" onclick="umlload('#getNamespace(java.lang.Class)')" stroke="none">getNamespace(Class&lt;?&gt;) : String</text>
      <line y2="139.4062" fill="none" x1="19" x2="232" y1="139.4062"/>
    </g>
    <g font-family="sans-serif" transform="matrix(0.6242,0,0,0.6242,99.2505,259.0501)">
      <text xml:space="preserve" x="4" y="151.1719" stroke="none">+</text>
      <text xml:space="preserve" x="19" y="152.5449" onclick="umlload('#returnVoid()')" stroke="none">returnVoid() : Void</text>
      <line y2="155.375" fill="none" x1="19" x2="134" y1="155.375"/>
    </g>
    <g font-family="sans-serif" transform="matrix(0.6242,0,0,0.6242,99.2505,259.0501)">
      <text xml:space="preserve" x="-153" y="250.1543" onclick="umlload('http://www.yworks.com/')" stroke="none">yWorks UML Doclet</text>
    </g>
    <g stroke-miterlimit="1.45" transform="matrix(0.6242,0,0,0.6242,99.2505,259.0501)" stroke-linecap="butt">
      <path fill="none" d="M293.035 0.0067 L293.035 -69"/>
      <path fill="white" d="M293.035 -84 L287.035 -68 L299.035 -68 Z" stroke="none"/>
      <path fill="none" d="M293.035 -84 L287.035 -68 L299.035 -68 Z"/>
      <path fill="none" d="M-0.0367 16.3574 L-66 16.3574"/>
      <line stroke-linecap="square" transform="matrix(-1,0,0,-1,-66,16.3574)" fill="none" x1="0" x2="-14" y1="0" y2="-4" stroke-miterlimit="10"/>
      <line stroke-linecap="square" transform="matrix(-1,0,0,-1,-66,16.3574)" fill="none" x1="0" x2="-14" y1="0" y2="4" stroke-miterlimit="10"/>
    </g>
    <g stroke-dasharray="6,2" stroke-miterlimit="1.45" transform="matrix(0.6242,0,0,0.6242,99.2505,259.0501)" stroke-linecap="butt">
      <path fill="none" d="M586.0663 11.5664 L652.07 11.5664"/>
      <line stroke-linecap="square" transform="matrix(1,0,0,1,652.07,11.5664)" fill="none" x1="0" x2="-14" y1="0" y2="-4" stroke-dasharray="none" stroke-miterlimit="10"/>
      <line stroke-linecap="square" transform="matrix(1,0,0,1,652.07,11.5664)" fill="none" x1="0" x2="-14" y1="0" y2="4" stroke-dasharray="none" stroke-miterlimit="10"/>
    </g>
    <g stroke-dasharray="6,2" stroke-miterlimit="1.45" transform="matrix(0.6242,0,0,0.6242,99.2505,259.0501)" stroke-linecap="butt">
      <path fill="none" d="M586.1169 44.6992 L652.07 44.6992"/>
      <line stroke-linecap="square" transform="matrix(1,0,0,1,652.07,44.6992)" fill="none" x1="0" x2="-14" y1="0" y2="-4" stroke-dasharray="none" stroke-miterlimit="10"/>
      <line stroke-linecap="square" transform="matrix(1,0,0,1,652.07,44.6992)" fill="none" x1="0" x2="-14" y1="0" y2="4" stroke-dasharray="none" stroke-miterlimit="10"/>
    </g>
    <g stroke-dasharray="6,2" stroke-miterlimit="1.45" transform="matrix(0.6242,0,0,0.6242,99.2505,259.0501)" stroke-linecap="butt">
      <path fill="none" d="M586.0828 77.832 L652.07 77.832"/>
      <line stroke-linecap="square" transform="matrix(1,0,0,1,652.07,77.832)" fill="none" x1="0" x2="-14" y1="0" y2="-4" stroke-dasharray="none" stroke-miterlimit="10"/>
      <line stroke-linecap="square" transform="matrix(1,0,0,1,652.07,77.832)" fill="none" x1="0" x2="-14" y1="0" y2="4" stroke-dasharray="none" stroke-miterlimit="10"/>
    </g>
    <g stroke-dasharray="6,2" stroke-miterlimit="1.45" transform="matrix(0.6242,0,0,0.6242,99.2505,259.0501)" stroke-linecap="butt">
      <path fill="none" d="M586.088 164.9648 L652.07 164.9648"/>
      <line stroke-linecap="square" transform="matrix(1,0,0,1,652.07,164.9648)" fill="none" x1="0" x2="-14" y1="0" y2="-4" stroke-dasharray="none" stroke-miterlimit="10"/>
      <line stroke-linecap="square" transform="matrix(1,0,0,1,652.07,164.9648)" fill="none" x1="0" x2="-14" y1="0" y2="4" stroke-dasharray="none" stroke-miterlimit="10"/>
    </g>
    <g stroke-dasharray="6,2" stroke-miterlimit="1.45" transform="matrix(0.6242,0,0,0.6242,99.2505,259.0501)" stroke-linecap="butt">
      <path fill="none" d="M586.0264 198.0977 L652.07 198.0977"/>
      <line stroke-linecap="square" transform="matrix(1,0,0,1,652.07,198.0977)" fill="none" x1="0" x2="-14" y1="0" y2="-4" stroke-dasharray="none" stroke-miterlimit="10"/>
      <line stroke-linecap="square" transform="matrix(1,0,0,1,652.07,198.0977)" fill="none" x1="0" x2="-14" y1="0" y2="4" stroke-dasharray="none" stroke-miterlimit="10"/>
    </g>
  </g>
</svg>
