<?xml version="1.0" encoding="UTF-8"?><svg xmlns="http://www.w3.org/2000/svg" xmlns:xlink="http://www.w3.org/1999/xlink" fill-opacity="1" color-rendering="auto" color-interpolation="auto" stroke="black" text-rendering="auto" stroke-linecap="square" width="598" stroke-miterlimit="10" stroke-opacity="1" shape-rendering="auto" fill="black" stroke-dasharray="none" font-weight="normal" stroke-width="1" height="598" font-family="'Dialog'" font-style="normal" stroke-linejoin="miter" font-size="12" stroke-dashoffset="0" image-rendering="auto">
  <!--Generated by ySVG-->
  <defs id="genericDefs"/>
  <g>
    <defs id="defs1">
      <clipPath clipPathUnits="userSpaceOnUse" id="clipPath1">
        <path d="M0 0 L598 0 L598 598 L0 598 L0 0 Z"/>
      </clipPath>
      <clipPath clipPathUnits="userSpaceOnUse" id="clipPath2">
        <path d="M506.8045 190.623 C506.8045 199.6569 480.0659 206.9804 447.0822 206.9804 C414.0986 206.9804 387.36 199.6569 387.36 190.623 C387.36 181.5891 414.0986 174.2656 447.0822 174.2656 C480.0659 174.2656 506.8045 181.5891 506.8045 190.623 Z"/>
      </clipPath>
      <clipPath clipPathUnits="userSpaceOnUse" id="clipPath3">
        <path d="M387.36 87.1328 L420.32 87.1328 L420.32 110.2656 L387.36 110.2656 L387.36 87.1328 Z"/>
      </clipPath>
      <clipPath clipPathUnits="userSpaceOnUse" id="clipPath4">
        <path d="M387.36 0 L487.27 0 L487.27 23.1328 L387.36 23.1328 L387.36 0 Z"/>
      </clipPath>
      <clipPath clipPathUnits="userSpaceOnUse" id="clipPath5">
        <path d="M488.4948 -100.3574 C488.4948 -91.3234 443.8219 -84 388.715 -84 C333.6081 -84 288.9352 -91.3234 288.9352 -100.3574 C288.9352 -109.3913 333.6081 -116.7147 388.715 -116.7147 C443.8219 -116.7147 488.4948 -109.3913 488.4948 -100.3574 Z"/>
      </clipPath>
      <clipPath clipPathUnits="userSpaceOnUse" id="clipPath6">
        <path d="M131.84 -107.1328 L189.52 -107.1328 L189.52 -84 L131.84 -84 L131.84 -107.1328 Z"/>
      </clipPath>
      <clipPath clipPathUnits="userSpaceOnUse" id="clipPath7">
        <path d="M0 0 L321.36 0 L321.36 214.9804 L0 214.9804 L0 0 Z"/>
      </clipPath>
      <script type="text/ecmascript"><![CDATA[
function umlload(newLocation)
{
if (newLocation.charAt(0) != '#') {
if (newLocation.indexOf("://") > -1) {
window.parent.location.href = newLocation;
} else {
var tmp = window.parent.location.href;
tmp = tmp.substring(0, tmp.lastIndexOf("/") + 1);
window.parent.location.href = tmp.concat(newLocation);
}
} else {
window.parent.location.hash = newLocation;
}
}
]]></script>
    </defs>
    <g fill="rgb(238,238,255)" transform="matrix(0.826,0,0,0.826,6.6077,251.0939)" stroke="rgb(238,238,255)">
      <rect width="165.2568" x="379.36" height="17.9688" y="148.2656" stroke="none"/>
    </g>
    <g fill="rgb(166,166,178)" stroke-miterlimit="1.45" transform="matrix(0.826,0,0,0.826,6.6077,251.0939)" stroke-linecap="butt" stroke="rgb(166,166,178)">
      <rect fill="none" width="165.2568" x="379.36" height="17.9688" y="148.2656"/>
    </g>
    <g fill="rgb(238,238,255)" transform="matrix(0.826,0,0,0.826,6.6077,251.0939)" stroke="rgb(238,238,255)">
      <rect width="166.4445" x="379.36" height="48.746" y="166.2344" stroke="none"/>
    </g>
    <g fill="rgb(166,166,178)" stroke-miterlimit="1.45" transform="matrix(0.826,0,0,0.826,6.6077,251.0939)" stroke-linecap="butt" stroke="rgb(166,166,178)">
      <rect fill="none" width="166.4445" x="379.36" height="48.746" y="166.2344"/>
    </g>
    <g font-family="sans-serif" transform="matrix(0.826,0,0,0.826,6.6077,251.0939)">
      <text xml:space="preserve" x="385.36" y="161.4043" stroke="none">org.apache.http.client</text>
    </g>
    <g fill="rgb(221,221,255)" transform="matrix(0.826,0,0,0.826,6.6077,251.0939)" stroke="rgb(221,221,255)">
      <rect x="387.36" y="174.2656" clip-path="url(#clipPath2)" width="119.4445" height="32.7147" stroke="none"/>
    </g>
    <g fill="rgb(154,154,178)" stroke-miterlimit="1.45" transform="matrix(0.826,0,0,0.826,6.6077,251.0939)" stroke-linecap="butt" stroke="rgb(154,154,178)">
      <ellipse rx="59.7222" fill="none" ry="16.3574" cx="447.0822" cy="190.623"/>
    </g>
    <g font-style="italic" font-size="13" font-weight="bold" font-family="sans-serif" transform="matrix(0.826,0,0,0.826,6.6077,251.0939)">
      <text xml:space="preserve" x="410.0822" y="195.1235" stroke="none">HttpClient</text>
    </g>
    <g fill="rgb(238,238,255)" transform="matrix(0.826,0,0,0.826,6.6077,251.0939)" stroke="rgb(238,238,255)">
      <rect width="69.7758" x="379.36" height="17.9688" y="61.1328" stroke="none"/>
    </g>
    <g fill="rgb(166,166,178)" stroke-miterlimit="1.45" transform="matrix(0.826,0,0,0.826,6.6077,251.0939)" stroke-linecap="butt" stroke="rgb(166,166,178)">
      <rect fill="none" width="69.7758" x="379.36" height="17.9688" y="61.1328"/>
    </g>
    <g fill="rgb(238,238,255)" transform="matrix(0.826,0,0,0.826,6.6077,251.0939)" stroke="rgb(238,238,255)">
      <rect width="73.96" x="379.36" height="39.1641" y="79.1016" stroke="none"/>
    </g>
    <g fill="rgb(166,166,178)" stroke-miterlimit="1.45" transform="matrix(0.826,0,0,0.826,6.6077,251.0939)" stroke-linecap="butt" stroke="rgb(166,166,178)">
      <rect fill="none" width="73.96" x="379.36" height="39.1641" y="79.1016"/>
    </g>
    <g font-family="sans-serif" transform="matrix(0.826,0,0,0.826,6.6077,251.0939)">
      <text xml:space="preserve" x="385.36" y="74.2715" onclick="umlload('http://docs.oracle.com/javase/6/docs/api/java/net/package-summary.html')" stroke="none">java.net</text>
    </g>
    <g fill="rgb(187,187,255)" transform="matrix(0.826,0,0,0.826,6.6077,251.0939)" stroke="rgb(187,187,255)">
      <rect x="387.36" y="87.1328" clip-path="url(#clipPath3)" width="32.96" height="23.1328" stroke="none"/>
    </g>
    <g fill="rgb(130,130,178)" stroke-miterlimit="1.45" transform="matrix(0.826,0,0,0.826,6.6077,251.0939)" stroke-linecap="butt" stroke="rgb(130,130,178)">
      <rect fill="none" width="32.96" x="387.36" height="23.1328" y="87.1328"/>
    </g>
    <g font-size="13" font-weight="bold" font-family="sans-serif" transform="matrix(0.826,0,0,0.826,6.6077,251.0939)">
      <text xml:space="preserve" x="391.84" y="103.1997" onclick="umlload('http://docs.oracle.com/javase/6/docs/api/java/net/URI.html')" stroke="none">URI</text>
    </g>
    <g fill="rgb(238,238,255)" transform="matrix(0.826,0,0,0.826,6.6077,251.0939)" stroke="rgb(238,238,255)">
      <rect width="336.0617" x="379.36" height="17.9688" y="-26" stroke="none"/>
    </g>
    <g fill="rgb(166,166,178)" stroke-miterlimit="1.45" transform="matrix(0.826,0,0,0.826,6.6077,251.0939)" stroke-linecap="butt" stroke="rgb(166,166,178)">
      <rect fill="none" width="336.0617" x="379.36" height="17.9688" y="-26"/>
    </g>
    <g fill="rgb(238,238,255)" transform="matrix(0.826,0,0,0.826,6.6077,251.0939)" stroke="rgb(238,238,255)">
      <rect width="336.0617" x="379.36" height="39.1641" y="-8.0312" stroke="none"/>
    </g>
    <g fill="rgb(166,166,178)" stroke-miterlimit="1.45" transform="matrix(0.826,0,0,0.826,6.6077,251.0939)" stroke-linecap="butt" stroke="rgb(166,166,178)">
      <rect fill="none" width="336.0617" x="379.36" height="39.1641" y="-8.0312"/>
    </g>
    <g font-family="sans-serif" transform="matrix(0.826,0,0,0.826,6.6077,251.0939)">
      <text xml:space="preserve" x="385.36" y="-12.8613" onclick="umlload('../../../../../../com/msopentech/odatajclient/engine/client/http/package-summary.html')" stroke="none">com.msopentech.odatajclient.engine.client.http</text>
    </g>
    <g fill="rgb(170,170,255)" transform="matrix(0.826,0,0,0.826,6.6077,251.0939)" stroke="rgb(170,170,255)">
      <rect x="387.36" y="0" clip-path="url(#clipPath4)" width="99.91" height="23.1328" stroke="none"/>
    </g>
    <g fill="rgb(118,118,178)" stroke-miterlimit="1.45" transform="matrix(0.826,0,0,0.826,6.6077,251.0939)" stroke-linecap="butt" stroke="rgb(118,118,178)">
      <rect fill="none" width="99.91" x="387.36" height="23.1328" y="0"/>
    </g>
    <g font-size="13" font-weight="bold" font-family="sans-serif" transform="matrix(0.826,0,0,0.826,6.6077,251.0939)">
      <text xml:space="preserve" x="392.815" y="16.0669" onclick="umlload('../../../../../../com/msopentech/odatajclient/engine/client/http/HttpMethod.html')" stroke="none">HttpMethod</text>
    </g>
    <g fill="rgb(238,238,255)" transform="matrix(0.826,0,0,0.826,6.6077,251.0939)" stroke="rgb(238,238,255)">
      <rect width="336.0617" x="227.9352" height="17.9688" y="-142.7147" stroke="none"/>
    </g>
    <g fill="rgb(166,166,178)" stroke-miterlimit="1.45" transform="matrix(0.826,0,0,0.826,6.6077,251.0939)" stroke-linecap="butt" stroke="rgb(166,166,178)">
      <rect fill="none" width="336.0617" x="227.9352" height="17.9688" y="-142.7147"/>
    </g>
    <g fill="rgb(238,238,255)" transform="matrix(0.826,0,0,0.826,6.6077,251.0939)" stroke="rgb(238,238,255)">
      <rect width="336.0617" x="227.9352" height="48.746" y="-124.746" stroke="none"/>
    </g>
    <g fill="rgb(166,166,178)" stroke-miterlimit="1.45" transform="matrix(0.826,0,0,0.826,6.6077,251.0939)" stroke-linecap="butt" stroke="rgb(166,166,178)">
      <rect fill="none" width="336.0617" x="227.9352" height="48.746" y="-124.746"/>
    </g>
    <g font-family="sans-serif" transform="matrix(0.826,0,0,0.826,6.6077,251.0939)">
      <text xml:space="preserve" x="233.9352" y="-129.5761" onclick="umlload('../../../../../../com/msopentech/odatajclient/engine/client/http/package-summary.html')" stroke="none">com.msopentech.odatajclient.engine.client.http</text>
    </g>
    <g fill="rgb(221,221,255)" transform="matrix(0.826,0,0,0.826,6.6077,251.0939)" stroke="rgb(221,221,255)">
      <rect x="288.9352" y="-116.7147" clip-path="url(#clipPath5)" width="199.5597" height="32.7147" stroke="none"/>
    </g>
    <g fill="rgb(154,154,178)" stroke-miterlimit="1.45" transform="matrix(0.826,0,0,0.826,6.6077,251.0939)" stroke-linecap="butt" stroke="rgb(154,154,178)">
      <ellipse rx="99.7798" fill="none" ry="16.3574" cx="388.715" cy="-100.3574"/>
    </g>
    <g font-style="italic" font-size="13" font-weight="bold" font-family="sans-serif" transform="matrix(0.826,0,0,0.826,6.6077,251.0939)">
      <text xml:space="preserve" x="324.215" y="-95.8569" onclick="umlload('../../../../../../com/msopentech/odatajclient/engine/client/http/HttpClientFactory.html')" stroke="none">HttpClientFactory</text>
    </g>
    <g fill="rgb(238,238,255)" transform="matrix(0.826,0,0,0.826,6.6077,251.0939)" stroke="rgb(238,238,255)">
      <rect width="76.1412" x="123.84" height="17.9688" y="-133.1328" stroke="none"/>
    </g>
    <g fill="rgb(166,166,178)" stroke-miterlimit="1.45" transform="matrix(0.826,0,0,0.826,6.6077,251.0939)" stroke-linecap="butt" stroke="rgb(166,166,178)">
      <rect fill="none" width="76.1412" x="123.84" height="17.9688" y="-133.1328"/>
    </g>
    <g fill="rgb(238,238,255)" transform="matrix(0.826,0,0,0.826,6.6077,251.0939)" stroke="rgb(238,238,255)">
      <rect width="76.1412" x="123.84" height="39.1641" y="-115.1641" stroke="none"/>
    </g>
    <g fill="rgb(166,166,178)" stroke-miterlimit="1.45" transform="matrix(0.826,0,0,0.826,6.6077,251.0939)" stroke-linecap="butt" stroke="rgb(166,166,178)">
      <rect fill="none" width="76.1412" x="123.84" height="39.1641" y="-115.1641"/>
    </g>
    <g font-family="sans-serif" transform="matrix(0.826,0,0,0.826,6.6077,251.0939)">
      <text xml:space="preserve" x="129.84" y="-119.9941" onclick="umlload('http://docs.oracle.com/javase/6/docs/api/java/lang/package-summary.html')" stroke="none">java.lang</text>
    </g>
    <g fill="rgb(187,187,255)" transform="matrix(0.826,0,0,0.826,6.6077,251.0939)" stroke="rgb(187,187,255)">
      <rect x="131.84" y="-107.1328" clip-path="url(#clipPath6)" width="57.68" height="23.1328" stroke="none"/>
    </g>
    <g fill="rgb(130,130,178)" stroke-miterlimit="1.45" transform="matrix(0.826,0,0,0.826,6.6077,251.0939)" stroke-linecap="butt" stroke="rgb(130,130,178)">
      <rect fill="none" width="57.68" x="131.84" height="23.1328" y="-107.1328"/>
    </g>
    <g font-size="13" font-weight="bold" font-family="sans-serif" transform="matrix(0.826,0,0,0.826,6.6077,251.0939)">
      <text xml:space="preserve" x="136.68" y="-91.0659" onclick="umlload('http://docs.oracle.com/javase/6/docs/api/java/lang/Object.html')" stroke="none">Object</text>
    </g>
    <g fill="rgb(238,238,255)" transform="matrix(0.826,0,0,0.826,6.6077,251.0939)" stroke="rgb(238,238,255)">
      <rect width="336.0617" x="-8" height="17.9688" y="-26" stroke="none"/>
    </g>
    <g fill="rgb(166,166,178)" stroke-miterlimit="1.45" transform="matrix(0.826,0,0,0.826,6.6077,251.0939)" stroke-linecap="butt" stroke="rgb(166,166,178)">
      <rect fill="none" width="336.0617" x="-8" height="17.9688" y="-26"/>
    </g>
    <g fill="rgb(238,238,255)" transform="matrix(0.826,0,0,0.826,6.6077,251.0939)" stroke="rgb(238,238,255)">
      <rect width="337.36" x="-8" height="231.0116" y="-8.0312" stroke="none"/>
    </g>
    <g fill="rgb(166,166,178)" stroke-miterlimit="1.45" transform="matrix(0.826,0,0,0.826,6.6077,251.0939)" stroke-linecap="butt" stroke="rgb(166,166,178)">
      <rect fill="none" width="337.36" x="-8" height="231.0116" y="-8.0312"/>
    </g>
    <g font-family="sans-serif" transform="matrix(0.826,0,0,0.826,6.6077,251.0939)">
      <text xml:space="preserve" x="-2" y="-12.8613" onclick="umlload('package-summary.html')" stroke="none">com.msopentech.odatajclient.engine.client.http</text>
    </g>
    <g fill="rgb(187,187,255)" transform="matrix(0.826,0,0,0.826,6.6077,251.0939)" stroke="rgb(187,187,255)">
      <rect x="0" y="0" clip-path="url(#clipPath7)" width="321.36" height="26.625" stroke="none"/>
      <line clip-path="url(#clipPath7)" fill="none" x1="0" x2="321.36" y1="26.625" y2="26.625" stroke="black"/>
      <rect x="0" y="27.625" clip-path="url(#clipPath7)" width="321.36" height="15.9688" stroke="none"/>
      <line clip-path="url(#clipPath7)" fill="none" x1="0" x2="321.36" y1="43.5938" y2="43.5938" stroke="black"/>
      <rect x="0" y="44.5938" clip-path="url(#clipPath7)" width="321.36" height="170.3866" stroke="none"/>
    </g>
    <g fill="rgb(130,130,178)" stroke-miterlimit="1.45" transform="matrix(0.826,0,0,0.826,6.6077,251.0939)" stroke-linecap="butt" stroke="rgb(130,130,178)">
      <rect fill="none" width="321.36" x="0" height="214.9804" y="0"/>
    </g>
    <g font-size="16" font-weight="bold" font-family="sans-serif" transform="matrix(0.826,0,0,0.826,6.6077,251.0939)">
      <text xml:space="preserve" x="50.68" y="18.8516" onclick="umlload('#')" stroke="none">DefaultHttpClientFactory</text>
    </g>
    <g font-family="sans-serif" transform="matrix(0.826,0,0,0.826,6.6077,251.0939)">
      <text xml:space="preserve" x="4" y="38.1719" stroke="none">+</text>
      <text xml:space="preserve" x="19" y="39.7637" onclick="umlload('#DefaultHttpClientFactory()')" stroke="none">DefaultHttpClientFactory()</text>
    </g>
    <g font-family="sans-serif" transform="matrix(0.826,0,0,0.826,6.6077,251.0939)">
      <text xml:space="preserve" x="4" y="55.1719" stroke="none">+</text>
      <text xml:space="preserve" x="19" y="56.7324" onclick="umlload('#createHttpClient(com.msopentech.odatajclient.engine.client.http.HttpMethod, java.net.URI)')" stroke="none">createHttpClient(HttpMethod, URI) : HttpClient</text>
    </g>
    <g font-family="sans-serif" transform="matrix(0.826,0,0,0.826,6.6077,251.0939)">
      <text xml:space="preserve" x="-2" y="247.1543" onclick="umlload('http://www.yworks.com/')" stroke="none">yWorks UML Doclet</text>
    </g>
    <g stroke-miterlimit="1.45" transform="matrix(0.826,0,0,0.826,6.6077,251.0939)" stroke-linecap="butt">
      <path fill="none" d="M160.68 0.0176 L160.68 -69"/>
      <path fill="white" d="M160.68 -84 L154.68 -68 L166.68 -68 Z" stroke="none"/>
      <path fill="none" d="M160.68 -84 L154.68 -68 L166.68 -68 Z"/>
      <path fill="none" stroke-dasharray="6,2" d="M241.02 -0.0008 L241.02 -51 L388.715 -51 L388.715 -69"/>
      <path fill="white" stroke-dasharray="6,2" d="M388.715 -84 L382.715 -68 L394.715 -68 Z" stroke="none"/>
      <path fill="none" d="M388.715 -84 L382.715 -68 L394.715 -68 Z"/>
      <path fill="none" stroke-dasharray="6,2" d="M321.3863 11.5664 L387.36 11.5664"/>
      <line stroke-linecap="square" transform="matrix(1,0,0,1,387.36,11.5664)" fill="none" x1="0" x2="-14" y1="0" y2="-4" stroke-miterlimit="10"/>
      <line stroke-linecap="square" transform="matrix(1,0,0,1,387.36,11.5664)" fill="none" x1="0" x2="-14" y1="0" y2="4" stroke-miterlimit="10"/>
    </g>
    <g stroke-dasharray="6,2" stroke-miterlimit="1.45" transform="matrix(0.826,0,0,0.826,6.6077,251.0939)" stroke-linecap="butt">
      <path fill="none" d="M321.352 98.6992 L387.36 98.6992"/>
      <line stroke-linecap="square" transform="matrix(1,0,0,1,387.36,98.6992)" fill="none" x1="0" x2="-14" y1="0" y2="-4" stroke-dasharray="none" stroke-miterlimit="10"/>
      <line stroke-linecap="square" transform="matrix(1,0,0,1,387.36,98.6992)" fill="none" x1="0" x2="-14" y1="0" y2="4" stroke-dasharray="none" stroke-miterlimit="10"/>
    </g>
    <g stroke-dasharray="6,2" stroke-miterlimit="1.45" transform="matrix(0.826,0,0,0.826,6.6077,251.0939)" stroke-linecap="butt">
      <path fill="none" d="M321.3268 190.623 L387.36 190.623"/>
      <line stroke-linecap="square" transform="matrix(1,0,0,1,387.36,190.623)" fill="none" x1="0" x2="-14" y1="0" y2="-4" stroke-dasharray="none" stroke-miterlimit="10"/>
      <line stroke-linecap="square" transform="matrix(1,0,0,1,387.36,190.623)" fill="none" x1="0" x2="-14" y1="0" y2="4" stroke-dasharray="none" stroke-miterlimit="10"/>
    </g>
  </g>
</svg>
