<?xml version="1.0" encoding="UTF-8"?><svg xmlns="http://www.w3.org/2000/svg" xmlns:xlink="http://www.w3.org/1999/xlink" fill-opacity="1" color-rendering="auto" color-interpolation="auto" stroke="black" text-rendering="auto" stroke-linecap="square" width="598" stroke-miterlimit="10" stroke-opacity="1" shape-rendering="auto" fill="black" stroke-dasharray="none" font-weight="normal" stroke-width="1" height="598" font-family="'Dialog'" font-style="normal" stroke-linejoin="miter" font-size="12" stroke-dashoffset="0" image-rendering="auto">
  <!--Generated by ySVG-->
  <defs id="genericDefs"/>
  <g>
    <defs id="defs1">
      <clipPath clipPathUnits="userSpaceOnUse" id="clipPath1">
        <path d="M0 0 L598 0 L598 598 L0 598 L0 0 Z"/>
      </clipPath>
      <clipPath clipPathUnits="userSpaceOnUse" id="clipPath2">
        <path d="M633.6534 190.623 C633.6534 199.6569 594.1978 206.9804 545.5267 206.9804 C496.8557 206.9804 457.4 199.6569 457.4 190.623 C457.4 181.5891 496.8557 174.2656 545.5267 174.2656 C594.1978 174.2656 633.6534 181.5891 633.6534 190.623 Z"/>
      </clipPath>
      <clipPath clipPathUnits="userSpaceOnUse" id="clipPath3">
        <path d="M457.4 87.1328 L490.36 87.1328 L490.36 110.2656 L457.4 110.2656 L457.4 87.1328 Z"/>
      </clipPath>
      <clipPath clipPathUnits="userSpaceOnUse" id="clipPath4">
        <path d="M457.4 0 L557.31 0 L557.31 23.1328 L457.4 23.1328 L457.4 0 Z"/>
      </clipPath>
      <clipPath clipPathUnits="userSpaceOnUse" id="clipPath5">
        <path d="M0 0 L391.4 0 L391.4 214.9804 L0 214.9804 L0 0 Z"/>
      </clipPath>
      <script type="text/ecmascript"><![CDATA[
function umlload(newLocation)
{
if (newLocation.charAt(0) != '#') {
if (newLocation.indexOf("://") > -1) {
window.parent.location.href = newLocation;
} else {
var tmp = window.parent.location.href;
tmp = tmp.substring(0, tmp.lastIndexOf("/") + 1);
window.parent.location.href = tmp.concat(newLocation);
}
} else {
window.parent.location.hash = newLocation;
}
}
]]></script>
    </defs>
    <g fill="rgb(238,238,255)" transform="matrix(0.7531,0,0,0.7531,6.0252,211.6348)" stroke="rgb(238,238,255)">
      <rect width="227.8499" x="449.4" height="17.9688" y="148.2656" stroke="none"/>
    </g>
    <g fill="rgb(166,166,178)" stroke-miterlimit="1.45" transform="matrix(0.7531,0,0,0.7531,6.0252,211.6348)" stroke-linecap="butt" stroke="rgb(166,166,178)">
      <rect fill="none" width="227.8499" x="449.4" height="17.9688" y="148.2656"/>
    </g>
    <g fill="rgb(238,238,255)" transform="matrix(0.7531,0,0,0.7531,6.0252,211.6348)" stroke="rgb(238,238,255)">
      <rect width="228.2534" x="449.4" height="48.746" y="166.2344" stroke="none"/>
    </g>
    <g fill="rgb(166,166,178)" stroke-miterlimit="1.45" transform="matrix(0.7531,0,0,0.7531,6.0252,211.6348)" stroke-linecap="butt" stroke="rgb(166,166,178)">
      <rect fill="none" width="228.2534" x="449.4" height="48.746" y="166.2344"/>
    </g>
    <g font-family="sans-serif" transform="matrix(0.7531,0,0,0.7531,6.0252,211.6348)">
      <text xml:space="preserve" x="455.4" y="161.4043" stroke="none">org.apache.http.client.methods</text>
    </g>
    <g fill="rgb(221,221,255)" transform="matrix(0.7531,0,0,0.7531,6.0252,211.6348)" stroke="rgb(221,221,255)">
      <rect x="457.4" y="174.2656" clip-path="url(#clipPath2)" width="176.2534" height="32.7147" stroke="none"/>
    </g>
    <g fill="rgb(154,154,178)" stroke-miterlimit="1.45" transform="matrix(0.7531,0,0,0.7531,6.0252,211.6348)" stroke-linecap="butt" stroke="rgb(154,154,178)">
      <ellipse rx="88.1267" fill="none" ry="16.3574" cx="545.5267" cy="190.623"/>
    </g>
    <g font-style="italic" font-size="13" font-weight="bold" font-family="sans-serif" transform="matrix(0.7531,0,0,0.7531,6.0252,211.6348)">
      <text xml:space="preserve" x="489.0267" y="195.1235" stroke="none">HttpUriRequest</text>
    </g>
    <g fill="rgb(238,238,255)" transform="matrix(0.7531,0,0,0.7531,6.0252,211.6348)" stroke="rgb(238,238,255)">
      <rect width="69.7758" x="449.4" height="17.9688" y="61.1328" stroke="none"/>
    </g>
    <g fill="rgb(166,166,178)" stroke-miterlimit="1.45" transform="matrix(0.7531,0,0,0.7531,6.0252,211.6348)" stroke-linecap="butt" stroke="rgb(166,166,178)">
      <rect fill="none" width="69.7758" x="449.4" height="17.9688" y="61.1328"/>
    </g>
    <g fill="rgb(238,238,255)" transform="matrix(0.7531,0,0,0.7531,6.0252,211.6348)" stroke="rgb(238,238,255)">
      <rect width="73.96" x="449.4" height="39.1641" y="79.1016" stroke="none"/>
    </g>
    <g fill="rgb(166,166,178)" stroke-miterlimit="1.45" transform="matrix(0.7531,0,0,0.7531,6.0252,211.6348)" stroke-linecap="butt" stroke="rgb(166,166,178)">
      <rect fill="none" width="73.96" x="449.4" height="39.1641" y="79.1016"/>
    </g>
    <g font-family="sans-serif" transform="matrix(0.7531,0,0,0.7531,6.0252,211.6348)">
      <text xml:space="preserve" x="455.4" y="74.2715" onclick="umlload('http://docs.oracle.com/javase/6/docs/api/java/net/package-summary.html')" stroke="none">java.net</text>
    </g>
    <g fill="rgb(187,187,255)" transform="matrix(0.7531,0,0,0.7531,6.0252,211.6348)" stroke="rgb(187,187,255)">
      <rect x="457.4" y="87.1328" clip-path="url(#clipPath3)" width="32.96" height="23.1328" stroke="none"/>
    </g>
    <g fill="rgb(130,130,178)" stroke-miterlimit="1.45" transform="matrix(0.7531,0,0,0.7531,6.0252,211.6348)" stroke-linecap="butt" stroke="rgb(130,130,178)">
      <rect fill="none" width="32.96" x="457.4" height="23.1328" y="87.1328"/>
    </g>
    <g font-size="13" font-weight="bold" font-family="sans-serif" transform="matrix(0.7531,0,0,0.7531,6.0252,211.6348)">
      <text xml:space="preserve" x="461.88" y="103.1997" onclick="umlload('http://docs.oracle.com/javase/6/docs/api/java/net/URI.html')" stroke="none">URI</text>
    </g>
    <g fill="rgb(238,238,255)" transform="matrix(0.7531,0,0,0.7531,6.0252,211.6348)" stroke="rgb(238,238,255)">
      <rect width="336.0617" x="449.4" height="17.9688" y="-26" stroke="none"/>
    </g>
    <g fill="rgb(166,166,178)" stroke-miterlimit="1.45" transform="matrix(0.7531,0,0,0.7531,6.0252,211.6348)" stroke-linecap="butt" stroke="rgb(166,166,178)">
      <rect fill="none" width="336.0617" x="449.4" height="17.9688" y="-26"/>
    </g>
    <g fill="rgb(238,238,255)" transform="matrix(0.7531,0,0,0.7531,6.0252,211.6348)" stroke="rgb(238,238,255)">
      <rect width="336.0617" x="449.4" height="39.1641" y="-8.0312" stroke="none"/>
    </g>
    <g fill="rgb(166,166,178)" stroke-miterlimit="1.45" transform="matrix(0.7531,0,0,0.7531,6.0252,211.6348)" stroke-linecap="butt" stroke="rgb(166,166,178)">
      <rect fill="none" width="336.0617" x="449.4" height="39.1641" y="-8.0312"/>
    </g>
    <g font-family="sans-serif" transform="matrix(0.7531,0,0,0.7531,6.0252,211.6348)">
      <text xml:space="preserve" x="455.4" y="-12.8613" onclick="umlload('../../../../../../com/msopentech/odatajclient/engine/client/http/package-summary.html')" stroke="none">com.msopentech.odatajclient.engine.client.http</text>
    </g>
    <g fill="rgb(170,170,255)" transform="matrix(0.7531,0,0,0.7531,6.0252,211.6348)" stroke="rgb(170,170,255)">
      <rect x="457.4" y="0" clip-path="url(#clipPath4)" width="99.91" height="23.1328" stroke="none"/>
    </g>
    <g fill="rgb(118,118,178)" stroke-miterlimit="1.45" transform="matrix(0.7531,0,0,0.7531,6.0252,211.6348)" stroke-linecap="butt" stroke="rgb(118,118,178)">
      <rect fill="none" width="99.91" x="457.4" height="23.1328" y="0"/>
    </g>
    <g font-size="13" font-weight="bold" font-family="sans-serif" transform="matrix(0.7531,0,0,0.7531,6.0252,211.6348)">
      <text xml:space="preserve" x="462.855" y="16.0669" onclick="umlload('../../../../../../com/msopentech/odatajclient/engine/client/http/HttpMethod.html')" stroke="none">HttpMethod</text>
    </g>
    <g fill="rgb(238,238,255)" transform="matrix(0.7531,0,0,0.7531,6.0252,211.6348)" stroke="rgb(238,238,255)">
      <rect width="336.0617" x="-8" height="17.9688" y="-26" stroke="none"/>
    </g>
    <g fill="rgb(166,166,178)" stroke-miterlimit="1.45" transform="matrix(0.7531,0,0,0.7531,6.0252,211.6348)" stroke-linecap="butt" stroke="rgb(166,166,178)">
      <rect fill="none" width="336.0617" x="-8" height="17.9688" y="-26"/>
    </g>
    <g fill="rgb(238,238,255)" transform="matrix(0.7531,0,0,0.7531,6.0252,211.6348)" stroke="rgb(238,238,255)">
      <rect width="407.4" x="-8" height="231.0116" y="-8.0312" stroke="none"/>
    </g>
    <g fill="rgb(166,166,178)" stroke-miterlimit="1.45" transform="matrix(0.7531,0,0,0.7531,6.0252,211.6348)" stroke-linecap="butt" stroke="rgb(166,166,178)">
      <rect fill="none" width="407.4" x="-8" height="231.0116" y="-8.0312"/>
    </g>
    <g font-family="sans-serif" transform="matrix(0.7531,0,0,0.7531,6.0252,211.6348)">
      <text xml:space="preserve" x="-2" y="-12.8613" onclick="umlload('package-summary.html')" stroke="none">com.msopentech.odatajclient.engine.client.http</text>
    </g>
    <g fill="rgb(221,221,255)" transform="matrix(0.7531,0,0,0.7531,6.0252,211.6348)" stroke="rgb(221,221,255)">
      <rect x="0" y="0" clip-path="url(#clipPath5)" width="391.4" height="38.5938" stroke="none"/>
      <line clip-path="url(#clipPath5)" fill="none" x1="0" x2="391.4" y1="38.5938" y2="38.5938" stroke="black"/>
      <line clip-path="url(#clipPath5)" x1="0" x2="391.4" y1="39.5938" y2="39.5938" stroke="none"/>
      <line clip-path="url(#clipPath5)" fill="none" x1="0" x2="391.4" y1="39.5938" y2="39.5938" stroke="black"/>
      <rect x="0" y="40.5938" clip-path="url(#clipPath5)" width="391.4" height="174.3866" stroke="none"/>
    </g>
    <g fill="rgb(154,154,178)" stroke-miterlimit="1.45" transform="matrix(0.7531,0,0,0.7531,6.0252,211.6348)" stroke-linecap="butt" stroke="rgb(154,154,178)">
      <rect fill="none" width="391.4" x="0" height="214.9804" y="0"/>
    </g>
    <g font-style="italic" font-size="16" font-weight="bold" font-family="sans-serif" transform="matrix(0.7531,0,0,0.7531,6.0252,211.6348)">
      <text xml:space="preserve" x="92.2" y="32.8203" onclick="umlload('#')" stroke="none">HttpUriRequestFactory</text>
    </g>
    <g font-family="sans-serif" transform="matrix(0.7531,0,0,0.7531,6.0252,211.6348)">
      <text xml:space="preserve" x="160.7" y="13.1387" stroke="none">«interface»</text>
    </g>
    <g font-family="sans-serif" transform="matrix(0.7531,0,0,0.7531,6.0252,211.6348)">
      <text xml:space="preserve" x="4" y="51.1719" stroke="none">+</text>
      <text xml:space="preserve" x="19" y="52.7324" onclick="umlload('#createHttpUriRequest(com.msopentech.odatajclient.engine.client.http.HttpMethod, java.net.URI)')" stroke="none">createHttpUriRequest(HttpMethod, URI) : HttpUriRequest</text>
    </g>
    <g font-family="sans-serif" transform="matrix(0.7531,0,0,0.7531,6.0252,211.6348)">
      <text xml:space="preserve" x="-2" y="247.1543" onclick="umlload('http://www.yworks.com/')" stroke="none">yWorks UML Doclet</text>
    </g>
    <g stroke-dasharray="6,2" stroke-miterlimit="1.45" transform="matrix(0.7531,0,0,0.7531,6.0252,211.6348)" stroke-linecap="butt">
      <path fill="none" d="M391.4355 11.5664 L457.4 11.5664"/>
      <line stroke-linecap="square" transform="matrix(1,0,0,1,457.4,11.5664)" fill="none" x1="0" x2="-14" y1="0" y2="-4" stroke-dasharray="none" stroke-miterlimit="10"/>
      <line stroke-linecap="square" transform="matrix(1,0,0,1,457.4,11.5664)" fill="none" x1="0" x2="-14" y1="0" y2="4" stroke-dasharray="none" stroke-miterlimit="10"/>
    </g>
    <g stroke-dasharray="6,2" stroke-miterlimit="1.45" transform="matrix(0.7531,0,0,0.7531,6.0252,211.6348)" stroke-linecap="butt">
      <path fill="none" d="M391.3972 98.6992 L457.4 98.6992"/>
      <line stroke-linecap="square" transform="matrix(1,0,0,1,457.4,98.6992)" fill="none" x1="0" x2="-14" y1="0" y2="-4" stroke-dasharray="none" stroke-miterlimit="10"/>
      <line stroke-linecap="square" transform="matrix(1,0,0,1,457.4,98.6992)" fill="none" x1="0" x2="-14" y1="0" y2="4" stroke-dasharray="none" stroke-miterlimit="10"/>
    </g>
    <g stroke-dasharray="6,2" stroke-miterlimit="1.45" transform="matrix(0.7531,0,0,0.7531,6.0252,211.6348)" stroke-linecap="butt">
      <path fill="none" d="M391.4099 190.623 L457.4 190.623"/>
      <line stroke-linecap="square" transform="matrix(1,0,0,1,457.4,190.623)" fill="none" x1="0" x2="-14" y1="0" y2="-4" stroke-dasharray="none" stroke-miterlimit="10"/>
      <line stroke-linecap="square" transform="matrix(1,0,0,1,457.4,190.623)" fill="none" x1="0" x2="-14" y1="0" y2="4" stroke-dasharray="none" stroke-miterlimit="10"/>
    </g>
  </g>
</svg>
