<?xml version="1.0" encoding="UTF-8"?><svg xmlns="http://www.w3.org/2000/svg" xmlns:xlink="http://www.w3.org/1999/xlink" fill-opacity="1" color-rendering="auto" color-interpolation="auto" stroke="black" text-rendering="auto" stroke-linecap="square" width="598" stroke-miterlimit="10" stroke-opacity="1" shape-rendering="auto" fill="black" stroke-dasharray="none" font-weight="normal" stroke-width="1" height="598" font-family="'Dialog'" font-style="normal" stroke-linejoin="miter" font-size="12" stroke-dashoffset="0" image-rendering="auto">
  <!--Generated by ySVG-->
  <defs id="genericDefs"/>
  <g>
    <defs id="defs1">
      <clipPath clipPathUnits="userSpaceOnUse" id="clipPath1">
        <path d="M0 0 L598 0 L598 598 L0 598 L0 0 Z"/>
      </clipPath>
      <clipPath clipPathUnits="userSpaceOnUse" id="clipPath2">
        <path d="M248.8898 42.3574 C248.8898 51.3913 204.2169 58.7147 149.11 58.7147 C94.0031 58.7147 49.3302 51.3913 49.3302 42.3574 C49.3302 33.3234 94.0031 26 149.11 26 C204.2169 26 248.8898 33.3234 248.8898 42.3574 Z"/>
      </clipPath>
      <clipPath clipPathUnits="userSpaceOnUse" id="clipPath3">
        <path d="M264.3686 266.3377 C264.3686 275.3716 206.9786 282.6951 136.1843 282.6951 C65.3901 282.6951 8 275.3716 8 266.3377 C8 257.3038 65.3901 249.9804 136.1843 249.9804 C206.9786 249.9804 264.3686 257.3038 264.3686 266.3377 Z"/>
      </clipPath>
      <clipPath clipPathUnits="userSpaceOnUse" id="clipPath4">
        <path d="M8 181.8475 L290.22 181.8475 L290.22 204.9804 L8 204.9804 L8 181.8475 Z"/>
      </clipPath>
      <clipPath clipPathUnits="userSpaceOnUse" id="clipPath5">
        <path d="M50.23 108.7147 L247.99 108.7147 L247.99 131.8475 L50.23 131.8475 L50.23 108.7147 Z"/>
      </clipPath>
      <clipPath clipPathUnits="userSpaceOnUse" id="clipPath6">
        <path d="M17.2193 332.6951 L255.1493 332.6951 L255.1493 355.8279 L17.2193 355.8279 L17.2193 332.6951 Z"/>
      </clipPath>
      <clipPath clipPathUnits="userSpaceOnUse" id="clipPath7">
        <path d="M8 400.8279 L98.64 400.8279 L98.64 423.9607 L8 423.9607 L8 400.8279 Z"/>
      </clipPath>
      <clipPath clipPathUnits="userSpaceOnUse" id="clipPath8">
        <path d="M143.64 400.8279 L229.13 400.8279 L229.13 423.9607 L143.64 423.9607 L143.64 400.8279 Z"/>
      </clipPath>
      <clipPath clipPathUnits="userSpaceOnUse" id="clipPath9">
        <path d="M8 468.9607 L107.91 468.9607 L107.91 492.0935 L8 492.0935 L8 468.9607 Z"/>
      </clipPath>
      <clipPath clipPathUnits="userSpaceOnUse" id="clipPath10">
        <path d="M9.545 537.0936 L169.195 537.0936 L169.195 560.2264 L9.545 560.2264 L9.545 537.0936 Z"/>
      </clipPath>
      <clipPath clipPathUnits="userSpaceOnUse" id="clipPath11">
        <path d="M8 610.2264 L170.74 610.2264 L170.74 633.3592 L8 633.3592 L8 610.2264 Z"/>
      </clipPath>
      <script type="text/ecmascript"><![CDATA[
function umlload(newLocation)
{
if (newLocation.charAt(0) != '#') {
if (newLocation.indexOf("://") > -1) {
window.parent.location.href = newLocation;
} else {
var tmp = window.parent.location.href;
tmp = tmp.substring(0, tmp.lastIndexOf("/") + 1);
window.parent.location.href = tmp.concat(newLocation);
}
} else {
window.parent.location.hash = newLocation;
}
}
]]></script>
    </defs>
    <g fill="rgb(238,238,255)" transform="matrix(0.8833,0,0,0.8833,150.1625,0)" stroke="rgb(238,238,255)">
      <rect width="336.0617" x="0" height="17.9688" y="0" stroke="none"/>
    </g>
    <g fill="rgb(166,166,178)" stroke-miterlimit="1.45" transform="matrix(0.8833,0,0,0.8833,150.1625,0)" stroke-linecap="butt" stroke="rgb(166,166,178)">
      <rect fill="none" width="336.0617" x="0" height="17.9688" y="0"/>
    </g>
    <g fill="rgb(238,238,255)" transform="matrix(0.8833,0,0,0.8833,150.1625,0)" stroke="rgb(238,238,255)">
      <rect width="336.22" x="0" height="623.3904" y="17.9688" stroke="none"/>
    </g>
    <g fill="rgb(166,166,178)" stroke-miterlimit="1.45" transform="matrix(0.8833,0,0,0.8833,150.1625,0)" stroke-linecap="butt" stroke="rgb(166,166,178)">
      <rect fill="none" width="336.22" x="0" height="623.3904" y="17.9688"/>
    </g>
    <g font-family="sans-serif" transform="matrix(0.8833,0,0,0.8833,150.1625,0)">
      <text xml:space="preserve" x="6" y="13.1387" onclick="umlload('#')" stroke="none">com.msopentech.odatajclient.engine.client.http</text>
    </g>
    <g fill="rgb(221,221,255)" transform="matrix(0.8833,0,0,0.8833,150.1625,0)" stroke="rgb(221,221,255)">
      <rect x="49.3302" y="26" clip-path="url(#clipPath2)" width="199.5597" height="32.7147" stroke="none"/>
    </g>
    <g fill="rgb(154,154,178)" stroke-miterlimit="1.45" transform="matrix(0.8833,0,0,0.8833,150.1625,0)" stroke-linecap="butt" stroke="rgb(154,154,178)">
      <ellipse rx="99.7798" fill="none" ry="16.3574" cx="149.11" cy="42.3574"/>
    </g>
    <g font-style="italic" font-size="13" font-weight="bold" font-family="sans-serif" transform="matrix(0.8833,0,0,0.8833,150.1625,0)">
      <text xml:space="preserve" x="84.61" y="46.8579" onclick="umlload('HttpClientFactory.html')" stroke="none">HttpClientFactory</text>
    </g>
    <g fill="rgb(221,221,255)" transform="matrix(0.8833,0,0,0.8833,150.1625,0)" stroke="rgb(221,221,255)">
      <rect x="8" y="249.9804" clip-path="url(#clipPath3)" width="256.3686" height="32.7147" stroke="none"/>
    </g>
    <g fill="rgb(154,154,178)" stroke-miterlimit="1.45" transform="matrix(0.8833,0,0,0.8833,150.1625,0)" stroke-linecap="butt" stroke="rgb(154,154,178)">
      <ellipse rx="128.1843" fill="none" ry="16.3574" cx="136.1843" cy="266.3377"/>
    </g>
    <g font-style="italic" font-size="13" font-weight="bold" font-family="sans-serif" transform="matrix(0.8833,0,0,0.8833,150.1625,0)">
      <text xml:space="preserve" x="52.1843" y="270.8382" onclick="umlload('HttpUriRequestFactory.html')" stroke="none">HttpUriRequestFactory</text>
    </g>
    <g fill="rgb(204,204,255)" transform="matrix(0.8833,0,0,0.8833,150.1625,0)" stroke="rgb(204,204,255)">
      <rect x="8" y="181.8475" clip-path="url(#clipPath4)" width="282.22" height="23.1328" stroke="none"/>
    </g>
    <g fill="rgb(142,142,178)" stroke-miterlimit="1.45" transform="matrix(0.8833,0,0,0.8833,150.1625,0)" stroke-linecap="butt" stroke="rgb(142,142,178)">
      <rect fill="none" width="282.22" x="8" height="23.1328" y="181.8475"/>
    </g>
    <g font-size="13" font-weight="bold" font-family="sans-serif" transform="matrix(0.8833,0,0,0.8833,150.1625,0)">
      <text xml:space="preserve" x="16.11" y="197.9144" onclick="umlload('AbstractBasicAuthHttpClientFactory.html')" stroke="none">AbstractBasicAuthHttpClientFactory</text>
    </g>
    <g fill="rgb(187,187,255)" transform="matrix(0.8833,0,0,0.8833,150.1625,0)" stroke="rgb(187,187,255)">
      <rect x="50.23" y="108.7147" clip-path="url(#clipPath5)" width="197.76" height="23.1328" stroke="none"/>
    </g>
    <g fill="rgb(130,130,178)" stroke-miterlimit="1.45" transform="matrix(0.8833,0,0,0.8833,150.1625,0)" stroke-linecap="butt" stroke="rgb(130,130,178)">
      <rect fill="none" width="197.76" x="50.23" height="23.1328" y="108.7147"/>
    </g>
    <g font-size="13" font-weight="bold" font-family="sans-serif" transform="matrix(0.8833,0,0,0.8833,150.1625,0)">
      <text xml:space="preserve" x="57.11" y="124.7816" onclick="umlload('DefaultHttpClientFactory.html')" stroke="none">DefaultHttpClientFactory</text>
    </g>
    <g fill="rgb(187,187,255)" transform="matrix(0.8833,0,0,0.8833,150.1625,0)" stroke="rgb(187,187,255)">
      <rect x="17.2193" y="332.6951" clip-path="url(#clipPath6)" width="237.93" height="23.1328" stroke="none"/>
    </g>
    <g fill="rgb(130,130,178)" stroke-miterlimit="1.45" transform="matrix(0.8833,0,0,0.8833,150.1625,0)" stroke-linecap="butt" stroke="rgb(130,130,178)">
      <rect fill="none" width="237.93" x="17.2193" height="23.1328" y="332.6951"/>
    </g>
    <g font-size="13" font-weight="bold" font-family="sans-serif" transform="matrix(0.8833,0,0,0.8833,150.1625,0)">
      <text xml:space="preserve" x="24.6843" y="348.762" onclick="umlload('DefaultHttpUriRequestFactory.html')" stroke="none">DefaultHttpUriRequestFactory</text>
    </g>
    <g fill="rgb(187,187,255)" transform="matrix(0.8833,0,0,0.8833,150.1625,0)" stroke="rgb(187,187,255)">
      <rect x="8" y="400.8279" clip-path="url(#clipPath7)" width="90.64" height="23.1328" stroke="none"/>
    </g>
    <g fill="rgb(130,130,178)" stroke-miterlimit="1.45" transform="matrix(0.8833,0,0,0.8833,150.1625,0)" stroke-linecap="butt" stroke="rgb(130,130,178)">
      <rect fill="none" width="90.64" x="8" height="23.1328" y="400.8279"/>
    </g>
    <g font-size="13" font-weight="bold" font-family="sans-serif" transform="matrix(0.8833,0,0,0.8833,150.1625,0)">
      <text xml:space="preserve" x="13.32" y="416.8948" onclick="umlload('HttpMerge.html')" stroke="none">HttpMerge</text>
    </g>
    <g fill="rgb(187,187,255)" transform="matrix(0.8833,0,0,0.8833,150.1625,0)" stroke="rgb(187,187,255)">
      <rect x="143.64" y="400.8279" clip-path="url(#clipPath8)" width="85.49" height="23.1328" stroke="none"/>
    </g>
    <g fill="rgb(130,130,178)" stroke-miterlimit="1.45" transform="matrix(0.8833,0,0,0.8833,150.1625,0)" stroke-linecap="butt" stroke="rgb(130,130,178)">
      <rect fill="none" width="85.49" x="143.64" height="23.1328" y="400.8279"/>
    </g>
    <g font-size="13" font-weight="bold" font-family="sans-serif" transform="matrix(0.8833,0,0,0.8833,150.1625,0)">
      <text xml:space="preserve" x="148.885" y="416.8948" onclick="umlload('HttpPatch.html')" stroke="none">HttpPatch</text>
    </g>
    <g fill="rgb(170,170,255)" transform="matrix(0.8833,0,0,0.8833,150.1625,0)" stroke="rgb(170,170,255)">
      <rect x="8" y="468.9607" clip-path="url(#clipPath9)" width="99.91" height="23.1328" stroke="none"/>
    </g>
    <g fill="rgb(118,118,178)" stroke-miterlimit="1.45" transform="matrix(0.8833,0,0,0.8833,150.1625,0)" stroke-linecap="butt" stroke="rgb(118,118,178)">
      <rect fill="none" width="99.91" x="8" height="23.1328" y="468.9607"/>
    </g>
    <g font-size="13" font-weight="bold" font-family="sans-serif" transform="matrix(0.8833,0,0,0.8833,150.1625,0)">
      <text xml:space="preserve" x="13.455" y="485.0276" onclick="umlload('HttpMethod.html')" stroke="none">HttpMethod</text>
    </g>
    <g fill="rgb(153,153,255)" transform="matrix(0.8833,0,0,0.8833,150.1625,0)" stroke="rgb(153,153,255)">
      <rect x="9.545" y="537.0935" clip-path="url(#clipPath10)" width="159.65" height="23.1328" stroke="none"/>
    </g>
    <g fill="rgb(106,106,178)" stroke-miterlimit="1.45" transform="matrix(0.8833,0,0,0.8833,150.1625,0)" stroke-linecap="butt" stroke="rgb(106,106,178)">
      <rect fill="none" width="159.65" x="9.545" height="23.1328" y="537.0935"/>
    </g>
    <g font-size="13" font-weight="bold" font-family="sans-serif" transform="matrix(0.8833,0,0,0.8833,150.1625,0)">
      <text xml:space="preserve" x="15.87" y="553.1605" onclick="umlload('HttpClientException.html')" stroke="none">HttpClientException</text>
    </g>
    <g fill="rgb(153,153,255)" transform="matrix(0.8833,0,0,0.8833,150.1625,0)" stroke="rgb(153,153,255)">
      <rect x="8" y="610.2263" clip-path="url(#clipPath11)" width="162.74" height="23.1328" stroke="none"/>
    </g>
    <g fill="rgb(106,106,178)" stroke-miterlimit="1.45" transform="matrix(0.8833,0,0,0.8833,150.1625,0)" stroke-linecap="butt" stroke="rgb(106,106,178)">
      <rect fill="none" width="162.74" x="8" height="23.1328" y="610.2263"/>
    </g>
    <g font-size="13" font-weight="bold" font-family="sans-serif" transform="matrix(0.8833,0,0,0.8833,150.1625,0)">
      <text xml:space="preserve" x="14.37" y="626.2933" onclick="umlload('NoContentException.html')" stroke="none">NoContentException</text>
    </g>
    <g font-family="sans-serif" transform="matrix(0.8833,0,0,0.8833,150.1625,0)">
      <text xml:space="preserve" x="6" y="666.1543" onclick="umlload('http://www.yworks.com/')" stroke="none">yWorks UML Doclet</text>
    </g>
    <g stroke-miterlimit="1.45" transform="matrix(0.8833,0,0,0.8833,150.1625,0)" stroke-linecap="butt">
      <path fill="none" d="M149.11 181.8475 L149.11 146.8475"/>
      <path fill="white" d="M149.11 131.8475 L143.11 147.8475 L155.11 147.8475 Z" stroke="none"/>
      <path fill="none" d="M149.11 131.8475 L143.11 147.8475 L155.11 147.8475 Z"/>
      <path fill="none" stroke-dasharray="6,2" d="M149.11 73.7147 L149.11 108.7147"/>
      <path fill="white" stroke-dasharray="6,2" d="M149.11 58.7147 L143.11 74.7147 L155.11 74.7147 Z" stroke="none"/>
      <path fill="none" d="M149.11 58.7147 L143.11 74.7147 L155.11 74.7147 Z"/>
      <path fill="none" stroke-dasharray="6,2" d="M136.1843 297.6951 L136.1843 332.6951"/>
      <path fill="white" stroke-dasharray="6,2" d="M136.1843 282.6951 L130.1843 298.6951 L142.1843 298.6951 Z" stroke="none"/>
      <path fill="none" d="M136.1843 282.6951 L130.1843 298.6951 L142.1843 298.6951 Z"/>
      <path fill="none" d="M89.37 610.2264 L89.37 575.2264"/>
      <path fill="white" d="M89.37 560.2264 L83.37 576.2264 L95.37 576.2264 Z" stroke="none"/>
      <path fill="none" d="M89.37 560.2264 L83.37 576.2264 L95.37 576.2264 Z"/>
    </g>
  </g>
</svg>
