<?xml version="1.0" encoding="UTF-8"?><svg xmlns="http://www.w3.org/2000/svg" xmlns:xlink="http://www.w3.org/1999/xlink" fill-opacity="1" color-rendering="auto" color-interpolation="auto" stroke="black" text-rendering="auto" stroke-linecap="square" width="598" stroke-miterlimit="10" stroke-opacity="1" shape-rendering="auto" fill="black" stroke-dasharray="none" font-weight="normal" stroke-width="1" height="598" font-family="'Dialog'" font-style="normal" stroke-linejoin="miter" font-size="12" stroke-dashoffset="0" image-rendering="auto">
  <!--Generated by ySVG-->
  <defs id="genericDefs"/>
  <g>
    <defs id="defs1">
      <clipPath clipPathUnits="userSpaceOnUse" id="clipPath1">
        <path d="M0 0 L598 0 L598 598 L0 598 L0 0 Z"/>
      </clipPath>
      <clipPath clipPathUnits="userSpaceOnUse" id="clipPath2">
        <path d="M619.2815 374.4706 C619.2815 383.5045 597.1081 390.8279 569.7557 390.8279 C542.4034 390.8279 520.23 383.5045 520.23 374.4706 C520.23 365.4366 542.4034 358.1132 569.7557 358.1132 C597.1081 358.1132 619.2815 365.4366 619.2815 374.4706 Z"/>
      </clipPath>
      <clipPath clipPathUnits="userSpaceOnUse" id="clipPath3">
        <path d="M587.2354 417.1853 C587.2354 426.2192 572.2358 433.5427 553.7327 433.5427 C535.2297 433.5427 520.23 426.2192 520.23 417.1853 C520.23 408.1514 535.2297 400.8279 553.7327 400.8279 C572.2358 400.8279 587.2354 408.1514 587.2354 417.1853 Z"/>
      </clipPath>
      <clipPath clipPathUnits="userSpaceOnUse" id="clipPath4">
        <path d="M614.9116 277.7558 C614.9116 286.7897 593.7164 294.1132 567.5708 294.1132 C541.4252 294.1132 520.23 286.7897 520.23 277.7558 C520.23 268.7219 541.4252 261.3984 567.5708 261.3984 C593.7164 261.3984 614.9116 268.7219 614.9116 277.7558 Z"/>
      </clipPath>
      <clipPath clipPathUnits="userSpaceOnUse" id="clipPath5">
        <path d="M520.23 174.2656 L573.79 174.2656 L573.79 197.3984 L520.23 197.3984 L520.23 174.2656 Z"/>
      </clipPath>
      <clipPath clipPathUnits="userSpaceOnUse" id="clipPath6">
        <path d="M520.23 87.1328 L694.3 87.1328 L694.3 110.2656 L520.23 110.2656 L520.23 87.1328 Z"/>
      </clipPath>
      <clipPath clipPathUnits="userSpaceOnUse" id="clipPath7">
        <path d="M520.23 0 L650.01 0 L650.01 23.1328 L520.23 23.1328 L520.23 0 Z"/>
      </clipPath>
      <clipPath clipPathUnits="userSpaceOnUse" id="clipPath8">
        <path d="M198.275 -107.1328 L255.955 -107.1328 L255.955 -84 L198.275 -84 L198.275 -107.1328 Z"/>
      </clipPath>
      <clipPath clipPathUnits="userSpaceOnUse" id="clipPath9">
        <path d="M0 0 L454.23 0 L454.23 441.5427 L0 441.5427 L0 0 Z"/>
      </clipPath>
      <script type="text/ecmascript"><![CDATA[
function umlload(newLocation)
{
if (newLocation.charAt(0) != '#') {
if (newLocation.indexOf("://") > -1) {
window.parent.location.href = newLocation;
} else {
var tmp = window.parent.location.href;
tmp = tmp.substring(0, tmp.lastIndexOf("/") + 1);
window.parent.location.href = tmp.concat(newLocation);
}
} else {
window.parent.location.hash = newLocation;
}
}
]]></script>
    </defs>
    <g fill="rgb(238,238,255)" transform="matrix(0.6004,0,0,0.6004,4.8032,193.3293)" stroke="rgb(238,238,255)">
      <rect width="101.6028" x="512.23" height="17.9688" y="332.1132" stroke="none"/>
    </g>
    <g fill="rgb(166,166,178)" stroke-miterlimit="1.45" transform="matrix(0.6004,0,0,0.6004,4.8032,193.3293)" stroke-linecap="butt" stroke="rgb(166,166,178)">
      <rect fill="none" width="101.6028" x="512.23" height="17.9688" y="332.1132"/>
    </g>
    <g fill="rgb(238,238,255)" transform="matrix(0.6004,0,0,0.6004,4.8032,193.3293)" stroke="rgb(238,238,255)">
      <rect width="115.0515" x="512.23" height="91.4607" y="350.0819" stroke="none"/>
    </g>
    <g fill="rgb(166,166,178)" stroke-miterlimit="1.45" transform="matrix(0.6004,0,0,0.6004,4.8032,193.3293)" stroke-linecap="butt" stroke="rgb(166,166,178)">
      <rect fill="none" width="115.0515" x="512.23" height="91.4607" y="350.0819"/>
    </g>
    <g font-family="sans-serif" transform="matrix(0.6004,0,0,0.6004,4.8032,193.3293)">
      <text xml:space="preserve" x="518.23" y="345.2519" onclick="umlload('http://docs.oracle.com/javase/6/docs/api/org/w3c/dom/package-summary.html')" stroke="none">org.w3c.dom</text>
    </g>
    <g fill="rgb(221,221,255)" transform="matrix(0.6004,0,0,0.6004,4.8032,193.3293)" stroke="rgb(221,221,255)">
      <rect x="520.23" y="358.1132" clip-path="url(#clipPath2)" width="99.0515" height="32.7147" stroke="none"/>
    </g>
    <g fill="rgb(154,154,178)" stroke-miterlimit="1.45" transform="matrix(0.6004,0,0,0.6004,4.8032,193.3293)" stroke-linecap="butt" stroke="rgb(154,154,178)">
      <ellipse rx="49.5258" fill="none" ry="16.3574" cx="569.7558" cy="374.4705"/>
    </g>
    <g font-style="italic" font-size="13" font-weight="bold" font-family="sans-serif" transform="matrix(0.6004,0,0,0.6004,4.8032,193.3293)">
      <text xml:space="preserve" x="539.7557" y="378.971" onclick="umlload('http://docs.oracle.com/javase/6/docs/api/org/w3c/dom/Element.html')" stroke="none">Element</text>
    </g>
    <g fill="rgb(221,221,255)" transform="matrix(0.6004,0,0,0.6004,4.8032,193.3293)" stroke="rgb(221,221,255)">
      <rect x="520.23" y="400.8279" clip-path="url(#clipPath3)" width="67.0054" height="32.7147" stroke="none"/>
    </g>
    <g fill="rgb(154,154,178)" stroke-miterlimit="1.45" transform="matrix(0.6004,0,0,0.6004,4.8032,193.3293)" stroke-linecap="butt" stroke="rgb(154,154,178)">
      <ellipse rx="33.5027" fill="none" ry="16.3574" cx="553.7327" cy="417.1853"/>
    </g>
    <g font-style="italic" font-size="13" font-weight="bold" font-family="sans-serif" transform="matrix(0.6004,0,0,0.6004,4.8032,193.3293)">
      <text xml:space="preserve" x="534.7327" y="421.6858" onclick="umlload('http://docs.oracle.com/javase/6/docs/api/org/w3c/dom/Node.html')" stroke="none">Node</text>
    </g>
    <g fill="rgb(238,238,255)" transform="matrix(0.6004,0,0,0.6004,4.8032,193.3293)" stroke="rgb(238,238,255)">
      <rect width="67.654" x="512.23" height="17.9688" y="235.3984" stroke="none"/>
    </g>
    <g fill="rgb(166,166,178)" stroke-miterlimit="1.45" transform="matrix(0.6004,0,0,0.6004,4.8032,193.3293)" stroke-linecap="butt" stroke="rgb(166,166,178)">
      <rect fill="none" width="67.654" x="512.23" height="17.9688" y="235.3984"/>
    </g>
    <g fill="rgb(238,238,255)" transform="matrix(0.6004,0,0,0.6004,4.8032,193.3293)" stroke="rgb(238,238,255)">
      <rect width="110.6816" x="512.23" height="48.746" y="253.3672" stroke="none"/>
    </g>
    <g fill="rgb(166,166,178)" stroke-miterlimit="1.45" transform="matrix(0.6004,0,0,0.6004,4.8032,193.3293)" stroke-linecap="butt" stroke="rgb(166,166,178)">
      <rect fill="none" width="110.6816" x="512.23" height="48.746" y="253.3672"/>
    </g>
    <g font-family="sans-serif" transform="matrix(0.6004,0,0,0.6004,4.8032,193.3293)">
      <text xml:space="preserve" x="518.23" y="248.5371" onclick="umlload('http://docs.oracle.com/javase/6/docs/api/java/util/package-summary.html')" stroke="none">java.util</text>
    </g>
    <g fill="rgb(221,221,255)" transform="matrix(0.6004,0,0,0.6004,4.8032,193.3293)" stroke="rgb(221,221,255)">
      <rect x="520.23" y="261.3984" clip-path="url(#clipPath4)" width="94.6816" height="32.7147" stroke="none"/>
    </g>
    <g fill="rgb(154,154,178)" stroke-miterlimit="1.45" transform="matrix(0.6004,0,0,0.6004,4.8032,193.3293)" stroke-linecap="butt" stroke="rgb(154,154,178)">
      <ellipse rx="47.3408" fill="none" ry="16.3574" cx="567.5708" cy="277.7558"/>
    </g>
    <g font-style="italic" font-size="13" font-weight="bold" font-family="sans-serif" transform="matrix(0.6004,0,0,0.6004,4.8032,193.3293)">
      <text xml:space="preserve" x="539.0708" y="282.2563" onclick="umlload('http://docs.oracle.com/javase/6/docs/api/java/util/List.html')" stroke="none">List&lt;E&gt;</text>
    </g>
    <g fill="rgb(238,238,255)" transform="matrix(0.6004,0,0,0.6004,4.8032,193.3293)" stroke="rgb(238,238,255)">
      <rect width="76.1412" x="512.23" height="17.9688" y="148.2656" stroke="none"/>
    </g>
    <g fill="rgb(166,166,178)" stroke-miterlimit="1.45" transform="matrix(0.6004,0,0,0.6004,4.8032,193.3293)" stroke-linecap="butt" stroke="rgb(166,166,178)">
      <rect fill="none" width="76.1412" x="512.23" height="17.9688" y="148.2656"/>
    </g>
    <g fill="rgb(238,238,255)" transform="matrix(0.6004,0,0,0.6004,4.8032,193.3293)" stroke="rgb(238,238,255)">
      <rect width="79.56" x="512.23" height="39.1641" y="166.2344" stroke="none"/>
    </g>
    <g fill="rgb(166,166,178)" stroke-miterlimit="1.45" transform="matrix(0.6004,0,0,0.6004,4.8032,193.3293)" stroke-linecap="butt" stroke="rgb(166,166,178)">
      <rect fill="none" width="79.56" x="512.23" height="39.1641" y="166.2344"/>
    </g>
    <g font-family="sans-serif" transform="matrix(0.6004,0,0,0.6004,4.8032,193.3293)">
      <text xml:space="preserve" x="518.23" y="161.4043" onclick="umlload('http://docs.oracle.com/javase/6/docs/api/java/lang/package-summary.html')" stroke="none">java.lang</text>
    </g>
    <g fill="rgb(187,187,255)" transform="matrix(0.6004,0,0,0.6004,4.8032,193.3293)" stroke="rgb(187,187,255)">
      <rect x="520.23" y="174.2656" clip-path="url(#clipPath5)" width="53.56" height="23.1328" stroke="none"/>
    </g>
    <g fill="rgb(130,130,178)" stroke-miterlimit="1.45" transform="matrix(0.6004,0,0,0.6004,4.8032,193.3293)" stroke-linecap="butt" stroke="rgb(130,130,178)">
      <rect fill="none" width="53.56" x="520.23" height="23.1328" y="174.2656"/>
    </g>
    <g font-size="13" font-weight="bold" font-family="sans-serif" transform="matrix(0.6004,0,0,0.6004,4.8032,193.3293)">
      <text xml:space="preserve" x="525.01" y="190.3325" onclick="umlload('http://docs.oracle.com/javase/6/docs/api/java/lang/String.html')" stroke="none">String</text>
    </g>
    <g fill="rgb(238,238,255)" transform="matrix(0.6004,0,0,0.6004,4.8032,193.3293)" stroke="rgb(238,238,255)">
      <rect width="475.0396" x="512.23" height="17.9688" y="61.1328" stroke="none"/>
    </g>
    <g fill="rgb(166,166,178)" stroke-miterlimit="1.45" transform="matrix(0.6004,0,0,0.6004,4.8032,193.3293)" stroke-linecap="butt" stroke="rgb(166,166,178)">
      <rect fill="none" width="475.0396" x="512.23" height="17.9688" y="61.1328"/>
    </g>
    <g fill="rgb(238,238,255)" transform="matrix(0.6004,0,0,0.6004,4.8032,193.3293)" stroke="rgb(238,238,255)">
      <rect width="475.07" x="512.23" height="39.1641" y="79.1016" stroke="none"/>
    </g>
    <g fill="rgb(166,166,178)" stroke-miterlimit="1.45" transform="matrix(0.6004,0,0,0.6004,4.8032,193.3293)" stroke-linecap="butt" stroke="rgb(166,166,178)">
      <rect fill="none" width="475.07" x="512.23" height="39.1641" y="79.1016"/>
    </g>
    <g font-family="sans-serif" transform="matrix(0.6004,0,0,0.6004,4.8032,193.3293)">
      <text xml:space="preserve" x="518.23" y="74.2715" onclick="umlload('../../../../../com/msopentech/odatajclient/engine/data/metadata/edm/geospatial/package-summary.html')" stroke="none">com.msopentech.odatajclient.engine.data.metadata.edm.geospatial</text>
    </g>
    <g fill="rgb(170,170,255)" transform="matrix(0.6004,0,0,0.6004,4.8032,193.3293)" stroke="rgb(170,170,255)">
      <rect x="520.23" y="87.1328" clip-path="url(#clipPath6)" width="174.07" height="23.1328" stroke="none"/>
    </g>
    <g fill="rgb(118,118,178)" stroke-miterlimit="1.45" transform="matrix(0.6004,0,0,0.6004,4.8032,193.3293)" stroke-linecap="butt" stroke="rgb(118,118,178)">
      <rect fill="none" width="174.07" x="520.23" height="23.1328" y="87.1328"/>
    </g>
    <g font-size="13" font-weight="bold" font-family="sans-serif" transform="matrix(0.6004,0,0,0.6004,4.8032,193.3293)">
      <text xml:space="preserve" x="526.765" y="103.1997" onclick="umlload('../../../../../com/msopentech/odatajclient/engine/data/metadata/edm/geospatial/Geospatial.Dimension.html')" stroke="none">Geospatial.Dimension</text>
    </g>
    <g fill="rgb(238,238,255)" transform="matrix(0.6004,0,0,0.6004,4.8032,193.3293)" stroke="rgb(238,238,255)">
      <rect width="400.7766" x="512.23" height="17.9688" y="-26" stroke="none"/>
    </g>
    <g fill="rgb(166,166,178)" stroke-miterlimit="1.45" transform="matrix(0.6004,0,0,0.6004,4.8032,193.3293)" stroke-linecap="butt" stroke="rgb(166,166,178)">
      <rect fill="none" width="400.7766" x="512.23" height="17.9688" y="-26"/>
    </g>
    <g fill="rgb(238,238,255)" transform="matrix(0.6004,0,0,0.6004,4.8032,193.3293)" stroke="rgb(238,238,255)">
      <rect width="400.78" x="512.23" height="39.1641" y="-8.0312" stroke="none"/>
    </g>
    <g fill="rgb(166,166,178)" stroke-miterlimit="1.45" transform="matrix(0.6004,0,0,0.6004,4.8032,193.3293)" stroke-linecap="butt" stroke="rgb(166,166,178)">
      <rect fill="none" width="400.78" x="512.23" height="39.1641" y="-8.0312"/>
    </g>
    <g font-family="sans-serif" transform="matrix(0.6004,0,0,0.6004,4.8032,193.3293)">
      <text xml:space="preserve" x="518.23" y="-12.8613" onclick="umlload('../../../../../com/msopentech/odatajclient/engine/data/metadata/edm/package-summary.html')" stroke="none">com.msopentech.odatajclient.engine.data.metadata.edm</text>
    </g>
    <g fill="rgb(170,170,255)" transform="matrix(0.6004,0,0,0.6004,4.8032,193.3293)" stroke="rgb(170,170,255)">
      <rect x="520.23" y="0" clip-path="url(#clipPath7)" width="129.78" height="23.1328" stroke="none"/>
    </g>
    <g fill="rgb(118,118,178)" stroke-miterlimit="1.45" transform="matrix(0.6004,0,0,0.6004,4.8032,193.3293)" stroke-linecap="butt" stroke="rgb(118,118,178)">
      <rect fill="none" width="129.78" x="520.23" height="23.1328" y="0"/>
    </g>
    <g font-size="13" font-weight="bold" font-family="sans-serif" transform="matrix(0.6004,0,0,0.6004,4.8032,193.3293)">
      <text xml:space="preserve" x="526.12" y="16.0669" onclick="umlload('../../../../../com/msopentech/odatajclient/engine/data/metadata/edm/EdmSimpleType.html')" stroke="none">EdmSimpleType</text>
    </g>
    <g fill="rgb(238,238,255)" transform="matrix(0.6004,0,0,0.6004,4.8032,193.3293)" stroke="rgb(238,238,255)">
      <rect width="76.1412" x="190.275" height="17.9688" y="-133.1328" stroke="none"/>
    </g>
    <g fill="rgb(166,166,178)" stroke-miterlimit="1.45" transform="matrix(0.6004,0,0,0.6004,4.8032,193.3293)" stroke-linecap="butt" stroke="rgb(166,166,178)">
      <rect fill="none" width="76.1412" x="190.275" height="17.9688" y="-133.1328"/>
    </g>
    <g fill="rgb(238,238,255)" transform="matrix(0.6004,0,0,0.6004,4.8032,193.3293)" stroke="rgb(238,238,255)">
      <rect width="76.1412" x="190.275" height="39.1641" y="-115.1641" stroke="none"/>
    </g>
    <g fill="rgb(166,166,178)" stroke-miterlimit="1.45" transform="matrix(0.6004,0,0,0.6004,4.8032,193.3293)" stroke-linecap="butt" stroke="rgb(166,166,178)">
      <rect fill="none" width="76.1412" x="190.275" height="39.1641" y="-115.1641"/>
    </g>
    <g font-family="sans-serif" transform="matrix(0.6004,0,0,0.6004,4.8032,193.3293)">
      <text xml:space="preserve" x="196.275" y="-119.9941" onclick="umlload('http://docs.oracle.com/javase/6/docs/api/java/lang/package-summary.html')" stroke="none">java.lang</text>
    </g>
    <g fill="rgb(187,187,255)" transform="matrix(0.6004,0,0,0.6004,4.8032,193.3293)" stroke="rgb(187,187,255)">
      <rect x="198.275" y="-107.1328" clip-path="url(#clipPath8)" width="57.68" height="23.1328" stroke="none"/>
    </g>
    <g fill="rgb(130,130,178)" stroke-miterlimit="1.45" transform="matrix(0.6004,0,0,0.6004,4.8032,193.3293)" stroke-linecap="butt" stroke="rgb(130,130,178)">
      <rect fill="none" width="57.68" x="198.275" height="23.1328" y="-107.1328"/>
    </g>
    <g font-size="13" font-weight="bold" font-family="sans-serif" transform="matrix(0.6004,0,0,0.6004,4.8032,193.3293)">
      <text xml:space="preserve" x="203.115" y="-91.0659" onclick="umlload('http://docs.oracle.com/javase/6/docs/api/java/lang/Object.html')" stroke="none">Object</text>
    </g>
    <g fill="rgb(238,238,255)" transform="matrix(0.6004,0,0,0.6004,4.8032,193.3293)" stroke="rgb(238,238,255)">
      <rect width="295.7475" x="-8" height="17.9688" y="-26" stroke="none"/>
    </g>
    <g fill="rgb(166,166,178)" stroke-miterlimit="1.45" transform="matrix(0.6004,0,0,0.6004,4.8032,193.3293)" stroke-linecap="butt" stroke="rgb(166,166,178)">
      <rect fill="none" width="295.7475" x="-8" height="17.9688" y="-26"/>
    </g>
    <g fill="rgb(238,238,255)" transform="matrix(0.6004,0,0,0.6004,4.8032,193.3293)" stroke="rgb(238,238,255)">
      <rect width="470.23" x="-8" height="457.5739" y="-8.0312" stroke="none"/>
    </g>
    <g fill="rgb(166,166,178)" stroke-miterlimit="1.45" transform="matrix(0.6004,0,0,0.6004,4.8032,193.3293)" stroke-linecap="butt" stroke="rgb(166,166,178)">
      <rect fill="none" width="470.23" x="-8" height="457.5739" y="-8.0312"/>
    </g>
    <g font-family="sans-serif" transform="matrix(0.6004,0,0,0.6004,4.8032,193.3293)">
      <text xml:space="preserve" x="-2" y="-12.8613" onclick="umlload('package-summary.html')" stroke="none">com.msopentech.odatajclient.engine.utils</text>
    </g>
    <g fill="rgb(187,187,255)" transform="matrix(0.6004,0,0,0.6004,4.8032,193.3293)" stroke="rgb(187,187,255)">
      <rect x="0" y="0" clip-path="url(#clipPath9)" width="454.23" height="26.625" stroke="none"/>
      <line clip-path="url(#clipPath9)" fill="none" x1="0" x2="454.23" y1="26.625" y2="26.625" stroke="black"/>
      <line clip-path="url(#clipPath9)" x1="0" x2="454.23" y1="27.625" y2="27.625" stroke="none"/>
      <line clip-path="url(#clipPath9)" fill="none" x1="0" x2="454.23" y1="27.625" y2="27.625" stroke="black"/>
      <rect x="0" y="28.625" clip-path="url(#clipPath9)" width="454.23" height="412.9176" stroke="none"/>
    </g>
    <g fill="rgb(130,130,178)" stroke-miterlimit="1.45" transform="matrix(0.6004,0,0,0.6004,4.8032,193.3293)" stroke-linecap="butt" stroke="rgb(130,130,178)">
      <rect fill="none" width="454.23" x="0" height="441.5426" y="0"/>
    </g>
    <g font-size="16" font-weight="bold" font-family="sans-serif" transform="matrix(0.6004,0,0,0.6004,4.8032,193.3293)">
      <text xml:space="preserve" x="189.115" y="18.8516" onclick="umlload('#')" stroke="none">XMLUtils</text>
    </g>
    <g font-family="sans-serif" transform="matrix(0.6004,0,0,0.6004,4.8032,193.3293)">
      <text xml:space="preserve" x="4" y="39.1719" stroke="none">+</text>
      <text xml:space="preserve" x="19" y="40.7637" onclick="umlload('#getChildElements(org.w3c.dom.Element, java.lang.String)')" stroke="none">getChildElements(Element, String) : List&lt;Element&gt;</text>
      <line y2="43.5938" fill="none" x1="19" x2="338" y1="43.5938"/>
    </g>
    <g font-family="sans-serif" transform="matrix(0.6004,0,0,0.6004,4.8032,193.3293)">
      <text xml:space="preserve" x="4" y="55.1719" stroke="none">+</text>
      <text xml:space="preserve" x="19" y="56.7324" onclick="umlload('#getChildNodes(org.w3c.dom.Node, short)')" stroke="none">getChildNodes(Node, short) : List&lt;Node&gt;</text>
      <line y2="59.5625" fill="none" x1="19" x2="280" y1="59.5625"/>
    </g>
    <g font-family="sans-serif" transform="matrix(0.6004,0,0,0.6004,4.8032,193.3293)">
      <text xml:space="preserve" x="4" y="71.1719" stroke="none">+</text>
      <text xml:space="preserve" x="19" y="72.7012" onclick="umlload('#getSimpleName(org.w3c.dom.Node)')" stroke="none">getSimpleName(Node) : String</text>
      <line y2="75.5312" fill="none" x1="19" x2="209" y1="75.5312"/>
    </g>
    <g font-family="sans-serif" transform="matrix(0.6004,0,0,0.6004,4.8032,193.3293)">
      <text xml:space="preserve" x="4" y="87.1719" stroke="none">+</text>
      <text xml:space="preserve" x="19" y="88.6699" onclick="umlload('#hasElementsChildNode(org.w3c.dom.Node)')" stroke="none">hasElementsChildNode(Node) : boolean</text>
      <line y2="91.5" fill="none" x1="19" x2="269" y1="91.5"/>
    </g>
    <g font-family="sans-serif" transform="matrix(0.6004,0,0,0.6004,4.8032,193.3293)">
      <text xml:space="preserve" x="4" y="103.1719" stroke="none">+</text>
      <text xml:space="preserve" x="19" y="104.6387" onclick="umlload('#hasOnlyTextChildNodes(org.w3c.dom.Node)')" stroke="none">hasOnlyTextChildNodes(Node) : boolean</text>
      <line y2="107.4688" fill="none" x1="19" x2="270" y1="107.4688"/>
    </g>
    <g font-family="sans-serif" transform="matrix(0.6004,0,0,0.6004,4.8032,193.3293)">
      <text xml:space="preserve" x="4" y="119.1719" stroke="none">+</text>
      <text xml:space="preserve" x="19" y="120.6074" onclick="umlload('#simpleTypeForNode(com.msopentech.odatajclient.engine.data.metadata.edm.geospatial.Geospatial.Dimension, org.w3c.dom.Node)')" stroke="none">simpleTypeForNode(Geospatial.Dimension, Node) : EdmSimpleType</text>
      <line y2="123.4375" fill="none" x1="19" x2="437" y1="123.4375"/>
    </g>
    <g font-family="sans-serif" transform="matrix(0.6004,0,0,0.6004,4.8032,193.3293)">
      <text xml:space="preserve" x="-2" y="474.1543" onclick="umlload('http://www.yworks.com/')" stroke="none">yWorks UML Doclet</text>
    </g>
    <g stroke-miterlimit="1.45" transform="matrix(0.6004,0,0,0.6004,4.8032,193.3293)" stroke-linecap="butt">
      <path fill="none" d="M227.115 0.0061 L227.115 -69"/>
      <path fill="white" d="M227.115 -84 L221.115 -68 L233.115 -68 Z" stroke="none"/>
      <path fill="none" d="M227.115 -84 L221.115 -68 L233.115 -68 Z"/>
      <path fill="none" stroke-dasharray="6,2" d="M454.2332 11.5664 L520.23 11.5664"/>
      <line stroke-linecap="square" transform="matrix(1,0,0,1,520.23,11.5664)" fill="none" x1="0" x2="-14" y1="0" y2="-4" stroke-miterlimit="10"/>
      <line stroke-linecap="square" transform="matrix(1,0,0,1,520.23,11.5664)" fill="none" x1="0" x2="-14" y1="0" y2="4" stroke-miterlimit="10"/>
    </g>
    <g stroke-dasharray="6,2" stroke-miterlimit="1.45" transform="matrix(0.6004,0,0,0.6004,4.8032,193.3293)" stroke-linecap="butt">
      <path fill="none" d="M454.2676 98.6992 L520.23 98.6992"/>
      <line stroke-linecap="square" transform="matrix(1,0,0,1,520.23,98.6992)" fill="none" x1="0" x2="-14" y1="0" y2="-4" stroke-dasharray="none" stroke-miterlimit="10"/>
      <line stroke-linecap="square" transform="matrix(1,0,0,1,520.23,98.6992)" fill="none" x1="0" x2="-14" y1="0" y2="4" stroke-dasharray="none" stroke-miterlimit="10"/>
    </g>
    <g stroke-dasharray="6,2" stroke-miterlimit="1.45" transform="matrix(0.6004,0,0,0.6004,4.8032,193.3293)" stroke-linecap="butt">
      <path fill="none" d="M454.267 185.832 L520.23 185.832"/>
      <line stroke-linecap="square" transform="matrix(1,0,0,1,520.23,185.832)" fill="none" x1="0" x2="-14" y1="0" y2="-4" stroke-dasharray="none" stroke-miterlimit="10"/>
      <line stroke-linecap="square" transform="matrix(1,0,0,1,520.23,185.832)" fill="none" x1="0" x2="-14" y1="0" y2="4" stroke-dasharray="none" stroke-miterlimit="10"/>
    </g>
    <g stroke-dasharray="6,2" stroke-miterlimit="1.45" transform="matrix(0.6004,0,0,0.6004,4.8032,193.3293)" stroke-linecap="butt">
      <path fill="none" d="M454.2379 277.7558 L520.23 277.7558"/>
      <line stroke-linecap="square" transform="matrix(1,0,0,1,520.23,277.7558)" fill="none" x1="0" x2="-14" y1="0" y2="-4" stroke-dasharray="none" stroke-miterlimit="10"/>
      <line stroke-linecap="square" transform="matrix(1,0,0,1,520.23,277.7558)" fill="none" x1="0" x2="-14" y1="0" y2="4" stroke-dasharray="none" stroke-miterlimit="10"/>
    </g>
    <g stroke-dasharray="6,2" stroke-miterlimit="1.45" transform="matrix(0.6004,0,0,0.6004,4.8032,193.3293)" stroke-linecap="butt">
      <path fill="none" d="M454.1898 374.4706 L520.23 374.4706"/>
      <line stroke-linecap="square" transform="matrix(1,0,0,1,520.23,374.4706)" fill="none" x1="0" x2="-14" y1="0" y2="-4" stroke-dasharray="none" stroke-miterlimit="10"/>
      <line stroke-linecap="square" transform="matrix(1,0,0,1,520.23,374.4706)" fill="none" x1="0" x2="-14" y1="0" y2="4" stroke-dasharray="none" stroke-miterlimit="10"/>
    </g>
    <g stroke-dasharray="6,2" stroke-miterlimit="1.45" transform="matrix(0.6004,0,0,0.6004,4.8032,193.3293)" stroke-linecap="butt">
      <path fill="none" d="M454.2563 417.1853 L520.23 417.1853"/>
      <line stroke-linecap="square" transform="matrix(1,0,0,1,520.23,417.1853)" fill="none" x1="0" x2="-14" y1="0" y2="-4" stroke-dasharray="none" stroke-miterlimit="10"/>
      <line stroke-linecap="square" transform="matrix(1,0,0,1,520.23,417.1853)" fill="none" x1="0" x2="-14" y1="0" y2="4" stroke-dasharray="none" stroke-miterlimit="10"/>
    </g>
  </g>
</svg>
