<?xml version="1.0" encoding="UTF-8"?><svg xmlns="http://www.w3.org/2000/svg" xmlns:xlink="http://www.w3.org/1999/xlink" fill-opacity="1" color-rendering="auto" color-interpolation="auto" stroke="black" text-rendering="auto" stroke-linecap="square" width="598" stroke-miterlimit="10" stroke-opacity="1" shape-rendering="auto" fill="black" stroke-dasharray="none" font-weight="normal" stroke-width="1" height="598" font-family="'Dialog'" font-style="normal" stroke-linejoin="miter" font-size="12" stroke-dashoffset="0" image-rendering="auto">
  <!--Generated by ySVG-->
  <defs id="genericDefs"/>
  <g>
    <defs id="defs1">
      <clipPath clipPathUnits="userSpaceOnUse" id="clipPath1">
        <path d="M0 0 L598 0 L598 598 L0 598 L0 0 Z"/>
      </clipPath>
      <clipPath clipPathUnits="userSpaceOnUse" id="clipPath2">
        <path d="M400.2 174.2656 L450.67 174.2656 L450.67 197.3984 L400.2 197.3984 L400.2 174.2656 Z"/>
      </clipPath>
      <clipPath clipPathUnits="userSpaceOnUse" id="clipPath3">
        <path d="M400.2 207.3984 L523.8 207.3984 L523.8 230.5312 L400.2 230.5312 L400.2 207.3984 Z"/>
      </clipPath>
      <clipPath clipPathUnits="userSpaceOnUse" id="clipPath4">
        <path d="M400.2 87.1328 L453.76 87.1328 L453.76 110.2656 L400.2 110.2656 L400.2 87.1328 Z"/>
      </clipPath>
      <clipPath clipPathUnits="userSpaceOnUse" id="clipPath5">
        <path d="M400.2 0 L487.75 0 L487.75 23.1328 L400.2 23.1328 L400.2 0 Z"/>
      </clipPath>
      <clipPath clipPathUnits="userSpaceOnUse" id="clipPath6">
        <path d="M-222.56 0 L-66 0 L-66 23.1328 L-222.56 23.1328 L-222.56 0 Z"/>
      </clipPath>
      <clipPath clipPathUnits="userSpaceOnUse" id="clipPath7">
        <path d="M549.7326 -100.3574 C549.7326 -91.3234 523.9723 -84 492.1953 -84 C460.4184 -84 434.6581 -91.3234 434.6581 -100.3574 C434.6581 -109.3913 460.4184 -116.7147 492.1953 -116.7147 C523.9723 -116.7147 549.7326 -109.3913 549.7326 -100.3574 Z"/>
      </clipPath>
      <clipPath clipPathUnits="userSpaceOnUse" id="clipPath8">
        <path d="M377.4603 -100.3574 C377.4603 -91.3234 340.6133 -84 295.1602 -84 C249.707 -84 212.86 -91.3234 212.86 -100.3574 C212.86 -109.3913 249.707 -116.7147 295.1602 -116.7147 C340.6133 -116.7147 377.4603 -109.3913 377.4603 -100.3574 Z"/>
      </clipPath>
      <clipPath clipPathUnits="userSpaceOnUse" id="clipPath9">
        <path d="M109.18 -107.1328 L166.86 -107.1328 L166.86 -84 L109.18 -84 L109.18 -107.1328 Z"/>
      </clipPath>
      <clipPath clipPathUnits="userSpaceOnUse" id="clipPath10">
        <path d="M0 0 L276.04 0 L276.04 238.5312 L0 238.5312 L0 0 Z"/>
      </clipPath>
      <script type="text/ecmascript"><![CDATA[
function umlload(newLocation)
{
if (newLocation.charAt(0) != '#') {
if (newLocation.indexOf("://") > -1) {
window.parent.location.href = newLocation;
} else {
var tmp = window.parent.location.href;
tmp = tmp.substring(0, tmp.lastIndexOf("/") + 1);
window.parent.location.href = tmp.concat(newLocation);
}
} else {
window.parent.location.hash = newLocation;
}
}
]]></script>
    </defs>
    <g fill="rgb(238,238,255)" transform="matrix(0.7392,0,0,0.7392,170.7515,247.6267)" stroke="rgb(238,238,255)">
      <rect width="141.917" x="392.2" height="17.9688" y="148.2656" stroke="none"/>
    </g>
    <g fill="rgb(166,166,178)" stroke-miterlimit="1.45" transform="matrix(0.7392,0,0,0.7392,170.7515,247.6267)" stroke-linecap="butt" stroke="rgb(166,166,178)">
      <rect fill="none" width="141.917" x="392.2" height="17.9688" y="148.2656"/>
    </g>
    <g fill="rgb(238,238,255)" transform="matrix(0.7392,0,0,0.7392,170.7515,247.6267)" stroke="rgb(238,238,255)">
      <rect width="143.6" x="392.2" height="72.2969" y="166.2344" stroke="none"/>
    </g>
    <g fill="rgb(166,166,178)" stroke-miterlimit="1.45" transform="matrix(0.7392,0,0,0.7392,170.7515,247.6267)" stroke-linecap="butt" stroke="rgb(166,166,178)">
      <rect fill="none" width="143.6" x="392.2" height="72.2969" y="166.2344"/>
    </g>
    <g font-family="sans-serif" transform="matrix(0.7392,0,0,0.7392,170.7515,247.6267)">
      <text xml:space="preserve" x="398.2" y="161.4043" stroke="none">org.esigate.events</text>
    </g>
    <g fill="rgb(204,204,255)" transform="matrix(0.7392,0,0,0.7392,170.7515,247.6267)" stroke="rgb(204,204,255)">
      <rect x="400.2" y="174.2656" clip-path="url(#clipPath2)" width="50.47" height="23.1328" stroke="none"/>
    </g>
    <g fill="rgb(142,142,178)" stroke-miterlimit="1.45" transform="matrix(0.7392,0,0,0.7392,170.7515,247.6267)" stroke-linecap="butt" stroke="rgb(142,142,178)">
      <rect fill="none" width="50.47" x="400.2" height="23.1328" y="174.2656"/>
    </g>
    <g font-size="13" font-weight="bold" font-family="sans-serif" transform="matrix(0.7392,0,0,0.7392,170.7515,247.6267)">
      <text xml:space="preserve" x="404.935" y="190.3325" stroke="none">Event</text>
    </g>
    <g fill="rgb(187,187,255)" transform="matrix(0.7392,0,0,0.7392,170.7515,247.6267)" stroke="rgb(187,187,255)">
      <rect x="400.2" y="207.3984" clip-path="url(#clipPath3)" width="123.6" height="23.1328" stroke="none"/>
    </g>
    <g fill="rgb(130,130,178)" stroke-miterlimit="1.45" transform="matrix(0.7392,0,0,0.7392,170.7515,247.6267)" stroke-linecap="butt" stroke="rgb(130,130,178)">
      <rect fill="none" width="123.6" x="400.2" height="23.1328" y="207.3984"/>
    </g>
    <g font-size="13" font-weight="bold" font-family="sans-serif" transform="matrix(0.7392,0,0,0.7392,170.7515,247.6267)">
      <text xml:space="preserve" x="406" y="223.4653" stroke="none">EventDefinition</text>
    </g>
    <g fill="rgb(238,238,255)" transform="matrix(0.7392,0,0,0.7392,170.7515,247.6267)" stroke="rgb(238,238,255)">
      <rect width="93.1156" x="392.2" height="17.9688" y="61.1328" stroke="none"/>
    </g>
    <g fill="rgb(166,166,178)" stroke-miterlimit="1.45" transform="matrix(0.7392,0,0,0.7392,170.7515,247.6267)" stroke-linecap="butt" stroke="rgb(166,166,178)">
      <rect fill="none" width="93.1156" x="392.2" height="17.9688" y="61.1328"/>
    </g>
    <g fill="rgb(238,238,255)" transform="matrix(0.7392,0,0,0.7392,170.7515,247.6267)" stroke="rgb(238,238,255)">
      <rect width="96.56" x="392.2" height="39.1641" y="79.1016" stroke="none"/>
    </g>
    <g fill="rgb(166,166,178)" stroke-miterlimit="1.45" transform="matrix(0.7392,0,0,0.7392,170.7515,247.6267)" stroke-linecap="butt" stroke="rgb(166,166,178)">
      <rect fill="none" width="96.56" x="392.2" height="39.1641" y="79.1016"/>
    </g>
    <g font-family="sans-serif" transform="matrix(0.7392,0,0,0.7392,170.7515,247.6267)">
      <text xml:space="preserve" x="398.2" y="74.2715" stroke="none">org.esigate</text>
    </g>
    <g fill="rgb(187,187,255)" transform="matrix(0.7392,0,0,0.7392,170.7515,247.6267)" stroke="rgb(187,187,255)">
      <rect x="400.2" y="87.1328" clip-path="url(#clipPath4)" width="53.56" height="23.1328" stroke="none"/>
    </g>
    <g fill="rgb(130,130,178)" stroke-miterlimit="1.45" transform="matrix(0.7392,0,0,0.7392,170.7515,247.6267)" stroke-linecap="butt" stroke="rgb(130,130,178)">
      <rect fill="none" width="53.56" x="400.2" height="23.1328" y="87.1328"/>
    </g>
    <g font-size="13" font-weight="bold" font-family="sans-serif" transform="matrix(0.7392,0,0,0.7392,170.7515,247.6267)">
      <text xml:space="preserve" x="404.98" y="103.1997" stroke="none">Driver</text>
    </g>
    <g fill="rgb(238,238,255)" transform="matrix(0.7392,0,0,0.7392,170.7515,247.6267)" stroke="rgb(238,238,255)">
      <rect width="67.654" x="392.2" height="17.9688" y="-26" stroke="none"/>
    </g>
    <g fill="rgb(166,166,178)" stroke-miterlimit="1.45" transform="matrix(0.7392,0,0,0.7392,170.7515,247.6267)" stroke-linecap="butt" stroke="rgb(166,166,178)">
      <rect fill="none" width="67.654" x="392.2" height="17.9688" y="-26"/>
    </g>
    <g fill="rgb(238,238,255)" transform="matrix(0.7392,0,0,0.7392,170.7515,247.6267)" stroke="rgb(238,238,255)">
      <rect width="103.55" x="392.2" height="39.1641" y="-8.0312" stroke="none"/>
    </g>
    <g fill="rgb(166,166,178)" stroke-miterlimit="1.45" transform="matrix(0.7392,0,0,0.7392,170.7515,247.6267)" stroke-linecap="butt" stroke="rgb(166,166,178)">
      <rect fill="none" width="103.55" x="392.2" height="39.1641" y="-8.0312"/>
    </g>
    <g font-family="sans-serif" transform="matrix(0.7392,0,0,0.7392,170.7515,247.6267)">
      <text xml:space="preserve" x="398.2" y="-12.8613" onclick="umlload('http://docs.oracle.com/javase/6/docs/api/java/util/package-summary.html')" stroke="none">java.util</text>
    </g>
    <g fill="rgb(187,187,255)" transform="matrix(0.7392,0,0,0.7392,170.7515,247.6267)" stroke="rgb(187,187,255)">
      <rect x="400.2" y="0" clip-path="url(#clipPath5)" width="87.55" height="23.1328" stroke="none"/>
    </g>
    <g fill="rgb(130,130,178)" stroke-miterlimit="1.45" transform="matrix(0.7392,0,0,0.7392,170.7515,247.6267)" stroke-linecap="butt" stroke="rgb(130,130,178)">
      <rect fill="none" width="87.55" x="400.2" height="23.1328" y="0"/>
    </g>
    <g font-size="13" font-weight="bold" font-family="sans-serif" transform="matrix(0.7392,0,0,0.7392,170.7515,247.6267)">
      <text xml:space="preserve" x="405.475" y="16.0669" onclick="umlload('http://docs.oracle.com/javase/6/docs/api/java/util/Properties.html')" stroke="none">Properties</text>
    </g>
    <g fill="rgb(238,238,255)" transform="matrix(0.7392,0,0,0.7392,170.7515,247.6267)" stroke="rgb(238,238,255)">
      <rect width="93.1156" x="-230.56" height="17.9688" y="-26" stroke="none"/>
    </g>
    <g fill="rgb(166,166,178)" stroke-miterlimit="1.45" transform="matrix(0.7392,0,0,0.7392,170.7515,247.6267)" stroke-linecap="butt" stroke="rgb(166,166,178)">
      <rect fill="none" width="93.1156" x="-230.56" height="17.9688" y="-26"/>
    </g>
    <g fill="rgb(238,238,255)" transform="matrix(0.7392,0,0,0.7392,170.7515,247.6267)" stroke="rgb(238,238,255)">
      <rect width="172.56" x="-230.56" height="39.1641" y="-8.0312" stroke="none"/>
    </g>
    <g fill="rgb(166,166,178)" stroke-miterlimit="1.45" transform="matrix(0.7392,0,0,0.7392,170.7515,247.6267)" stroke-linecap="butt" stroke="rgb(166,166,178)">
      <rect fill="none" width="172.56" x="-230.56" height="39.1641" y="-8.0312"/>
    </g>
    <g font-family="sans-serif" transform="matrix(0.7392,0,0,0.7392,170.7515,247.6267)">
      <text xml:space="preserve" x="-224.56" y="-12.8613" stroke="none">org.esigate</text>
    </g>
    <g fill="rgb(187,187,255)" transform="matrix(0.7392,0,0,0.7392,170.7515,247.6267)" stroke="rgb(187,187,255)">
      <rect x="-222.56" y="0" clip-path="url(#clipPath6)" width="156.56" height="23.1328" stroke="none"/>
    </g>
    <g fill="rgb(130,130,178)" stroke-miterlimit="1.45" transform="matrix(0.7392,0,0,0.7392,170.7515,247.6267)" stroke-linecap="butt" stroke="rgb(130,130,178)">
      <rect fill="none" width="156.56" x="-222.56" height="23.1328" y="0"/>
    </g>
    <g font-size="13" font-weight="bold" font-family="sans-serif" transform="matrix(0.7392,0,0,0.7392,170.7515,247.6267)">
      <text xml:space="preserve" x="-216.28" y="16.0669" stroke="none">DriverConfiguration</text>
    </g>
    <g fill="rgb(238,238,255)" transform="matrix(0.7392,0,0,0.7392,170.7515,247.6267)" stroke="rgb(238,238,255)">
      <rect width="162.0741" x="415.658" height="17.9688" y="-142.7147" stroke="none"/>
    </g>
    <g fill="rgb(166,166,178)" stroke-miterlimit="1.45" transform="matrix(0.7392,0,0,0.7392,170.7515,247.6267)" stroke-linecap="butt" stroke="rgb(166,166,178)">
      <rect fill="none" width="162.0741" x="415.658" height="17.9688" y="-142.7147"/>
    </g>
    <g fill="rgb(238,238,255)" transform="matrix(0.7392,0,0,0.7392,170.7515,247.6267)" stroke="rgb(238,238,255)">
      <rect width="162.0746" x="415.658" height="48.746" y="-124.746" stroke="none"/>
    </g>
    <g fill="rgb(166,166,178)" stroke-miterlimit="1.45" transform="matrix(0.7392,0,0,0.7392,170.7515,247.6267)" stroke-linecap="butt" stroke="rgb(166,166,178)">
      <rect fill="none" width="162.0746" x="415.658" height="48.746" y="-124.746"/>
    </g>
    <g font-family="sans-serif" transform="matrix(0.7392,0,0,0.7392,170.7515,247.6267)">
      <text xml:space="preserve" x="421.6581" y="-129.5761" stroke="none">org.esigate.extension</text>
    </g>
    <g fill="rgb(221,221,255)" transform="matrix(0.7392,0,0,0.7392,170.7515,247.6267)" stroke="rgb(221,221,255)">
      <rect x="434.658" y="-116.7147" clip-path="url(#clipPath7)" width="115.0746" height="32.7147" stroke="none"/>
    </g>
    <g fill="rgb(154,154,178)" stroke-miterlimit="1.45" transform="matrix(0.7392,0,0,0.7392,170.7515,247.6267)" stroke-linecap="butt" stroke="rgb(154,154,178)">
      <ellipse rx="57.5373" fill="none" ry="16.3574" cx="492.1953" cy="-100.3574"/>
    </g>
    <g font-style="italic" font-size="13" font-weight="bold" font-family="sans-serif" transform="matrix(0.7392,0,0,0.7392,170.7515,247.6267)">
      <text xml:space="preserve" x="456.6953" y="-95.8569" stroke="none">Extension</text>
    </g>
    <g fill="rgb(238,238,255)" transform="matrix(0.7392,0,0,0.7392,170.7515,247.6267)" stroke="rgb(238,238,255)">
      <rect width="141.917" x="204.86" height="17.9688" y="-142.7147" stroke="none"/>
    </g>
    <g fill="rgb(166,166,178)" stroke-miterlimit="1.45" transform="matrix(0.7392,0,0,0.7392,170.7515,247.6267)" stroke-linecap="butt" stroke="rgb(166,166,178)">
      <rect fill="none" width="141.917" x="204.86" height="17.9688" y="-142.7147"/>
    </g>
    <g fill="rgb(238,238,255)" transform="matrix(0.7392,0,0,0.7392,170.7515,247.6267)" stroke="rgb(238,238,255)">
      <rect width="180.6003" x="204.86" height="48.746" y="-124.746" stroke="none"/>
    </g>
    <g fill="rgb(166,166,178)" stroke-miterlimit="1.45" transform="matrix(0.7392,0,0,0.7392,170.7515,247.6267)" stroke-linecap="butt" stroke="rgb(166,166,178)">
      <rect fill="none" width="180.6003" x="204.86" height="48.746" y="-124.746"/>
    </g>
    <g font-family="sans-serif" transform="matrix(0.7392,0,0,0.7392,170.7515,247.6267)">
      <text xml:space="preserve" x="210.86" y="-129.5761" stroke="none">org.esigate.events</text>
    </g>
    <g fill="rgb(221,221,255)" transform="matrix(0.7392,0,0,0.7392,170.7515,247.6267)" stroke="rgb(221,221,255)">
      <rect x="212.86" y="-116.7147" clip-path="url(#clipPath8)" width="164.6003" height="32.7147" stroke="none"/>
    </g>
    <g fill="rgb(154,154,178)" stroke-miterlimit="1.45" transform="matrix(0.7392,0,0,0.7392,170.7515,247.6267)" stroke-linecap="butt" stroke="rgb(154,154,178)">
      <ellipse rx="82.3002" fill="none" ry="16.3574" cx="295.1602" cy="-100.3574"/>
    </g>
    <g font-style="italic" font-size="13" font-weight="bold" font-family="sans-serif" transform="matrix(0.7392,0,0,0.7392,170.7515,247.6267)">
      <text xml:space="preserve" x="242.6602" y="-95.8569" stroke="none">IEventListener</text>
    </g>
    <g fill="rgb(238,238,255)" transform="matrix(0.7392,0,0,0.7392,170.7515,247.6267)" stroke="rgb(238,238,255)">
      <rect width="76.1412" x="101.18" height="17.9688" y="-133.1328" stroke="none"/>
    </g>
    <g fill="rgb(166,166,178)" stroke-miterlimit="1.45" transform="matrix(0.7392,0,0,0.7392,170.7515,247.6267)" stroke-linecap="butt" stroke="rgb(166,166,178)">
      <rect fill="none" width="76.1412" x="101.18" height="17.9688" y="-133.1328"/>
    </g>
    <g fill="rgb(238,238,255)" transform="matrix(0.7392,0,0,0.7392,170.7515,247.6267)" stroke="rgb(238,238,255)">
      <rect width="76.1412" x="101.18" height="39.1641" y="-115.1641" stroke="none"/>
    </g>
    <g fill="rgb(166,166,178)" stroke-miterlimit="1.45" transform="matrix(0.7392,0,0,0.7392,170.7515,247.6267)" stroke-linecap="butt" stroke="rgb(166,166,178)">
      <rect fill="none" width="76.1412" x="101.18" height="39.1641" y="-115.1641"/>
    </g>
    <g font-family="sans-serif" transform="matrix(0.7392,0,0,0.7392,170.7515,247.6267)">
      <text xml:space="preserve" x="107.18" y="-119.9941" onclick="umlload('http://docs.oracle.com/javase/6/docs/api/java/lang/package-summary.html')" stroke="none">java.lang</text>
    </g>
    <g fill="rgb(187,187,255)" transform="matrix(0.7392,0,0,0.7392,170.7515,247.6267)" stroke="rgb(187,187,255)">
      <rect x="109.18" y="-107.1328" clip-path="url(#clipPath9)" width="57.68" height="23.1328" stroke="none"/>
    </g>
    <g fill="rgb(130,130,178)" stroke-miterlimit="1.45" transform="matrix(0.7392,0,0,0.7392,170.7515,247.6267)" stroke-linecap="butt" stroke="rgb(130,130,178)">
      <rect fill="none" width="57.68" x="109.18" height="23.1328" y="-107.1328"/>
    </g>
    <g font-size="13" font-weight="bold" font-family="sans-serif" transform="matrix(0.7392,0,0,0.7392,170.7515,247.6267)">
      <text xml:space="preserve" x="114.02" y="-91.0659" onclick="umlload('http://docs.oracle.com/javase/6/docs/api/java/lang/Object.html')" stroke="none">Object</text>
    </g>
    <g fill="rgb(238,238,255)" transform="matrix(0.7392,0,0,0.7392,170.7515,247.6267)" stroke="rgb(238,238,255)">
      <rect width="364.706" x="-8" height="17.9688" y="-26" stroke="none"/>
    </g>
    <g fill="rgb(166,166,178)" stroke-miterlimit="1.45" transform="matrix(0.7392,0,0,0.7392,170.7515,247.6267)" stroke-linecap="butt" stroke="rgb(166,166,178)">
      <rect fill="none" width="364.706" x="-8" height="17.9688" y="-26"/>
    </g>
    <g fill="rgb(238,238,255)" transform="matrix(0.7392,0,0,0.7392,170.7515,247.6267)" stroke="rgb(238,238,255)">
      <rect width="365.04" x="-8" height="254.5625" y="-8.0312" stroke="none"/>
    </g>
    <g fill="rgb(166,166,178)" stroke-miterlimit="1.45" transform="matrix(0.7392,0,0,0.7392,170.7515,247.6267)" stroke-linecap="butt" stroke="rgb(166,166,178)">
      <rect fill="none" width="365.04" x="-8" height="254.5625" y="-8.0312"/>
    </g>
    <g font-family="sans-serif" transform="matrix(0.7392,0,0,0.7392,170.7515,247.6267)">
      <text xml:space="preserve" x="-2" y="-12.8613" onclick="umlload('package-summary.html')" stroke="none">com.msopentech.odatajclient.testauthproxy.esigate</text>
    </g>
    <g fill="rgb(187,187,255)" transform="matrix(0.7392,0,0,0.7392,170.7515,247.6267)" stroke="rgb(187,187,255)">
      <rect x="0" y="0" clip-path="url(#clipPath10)" width="276.04" height="26.625" stroke="none"/>
      <line clip-path="url(#clipPath10)" fill="none" x1="0" x2="276.04" y1="26.625" y2="26.625" stroke="black"/>
      <rect x="0" y="27.625" clip-path="url(#clipPath10)" width="276.04" height="15.9688" stroke="none"/>
      <line clip-path="url(#clipPath10)" fill="none" x1="0" x2="276.04" y1="43.5938" y2="43.5938" stroke="black"/>
      <rect x="0" y="44.5938" clip-path="url(#clipPath10)" width="276.04" height="193.9375" stroke="none"/>
    </g>
    <g fill="rgb(130,130,178)" stroke-miterlimit="1.45" transform="matrix(0.7392,0,0,0.7392,170.7515,247.6267)" stroke-linecap="butt" stroke="rgb(130,130,178)">
      <rect fill="none" width="276.04" x="0" height="238.5312" y="0"/>
    </g>
    <g font-size="16" font-weight="bold" font-family="sans-serif" transform="matrix(0.7392,0,0,0.7392,170.7515,247.6267)">
      <text xml:space="preserve" x="85.52" y="18.8516" onclick="umlload('#')" stroke="none">LinkRewrite</text>
    </g>
    <g font-family="sans-serif" transform="matrix(0.7392,0,0,0.7392,170.7515,247.6267)">
      <text xml:space="preserve" x="4" y="38.1719" stroke="none">+</text>
      <text xml:space="preserve" x="19" y="39.7637" onclick="umlload('#LinkRewrite()')" stroke="none">LinkRewrite()</text>
    </g>
    <g font-family="sans-serif" transform="matrix(0.7392,0,0,0.7392,170.7515,247.6267)">
      <text xml:space="preserve" x="4" y="55.1719" stroke="none">+</text>
      <text xml:space="preserve" x="19" y="56.7324" onclick="umlload('#event(org.esigate.events.EventDefinition, org.esigate.events.Event)')" stroke="none">event(EventDefinition, Event) : boolean</text>
    </g>
    <g font-family="sans-serif" transform="matrix(0.7392,0,0,0.7392,170.7515,247.6267)">
      <text xml:space="preserve" x="4" y="71.1719" stroke="none">+</text>
      <text xml:space="preserve" x="19" y="72.7012" onclick="umlload('#init(org.esigate.Driver, java.util.Properties)')" stroke="none">init(Driver, Properties) : void</text>
    </g>
    <g font-family="sans-serif" transform="matrix(0.7392,0,0,0.7392,170.7515,247.6267)">
      <text xml:space="preserve" x="-225" y="271.1543" onclick="umlload('http://www.yworks.com/')" stroke="none">yWorks UML Doclet</text>
    </g>
    <g stroke-miterlimit="1.45" transform="matrix(0.7392,0,0,0.7392,170.7515,247.6267)" stroke-linecap="butt">
      <path fill="none" d="M138.02 0.0046 L138.02 -69"/>
      <path fill="white" d="M138.02 -84 L132.02 -68 L144.02 -68 Z" stroke="none"/>
      <path fill="none" d="M138.02 -84 L132.02 -68 L144.02 -68 Z"/>
      <path fill="none" stroke-dasharray="6,2" d="M207.03 0.0401 L207.03 -51 L295.1602 -51 L295.1602 -69"/>
      <path fill="white" stroke-dasharray="6,2" d="M295.1602 -84 L289.1602 -68 L301.1602 -68 Z" stroke="none"/>
      <path fill="none" d="M295.1602 -84 L289.1602 -68 L301.1602 -68 Z"/>
      <path fill="none" stroke-dasharray="6,2" d="M207.03 0.0401 L207.03 -51 L492.1953 -51 L492.1953 -69"/>
      <path fill="white" stroke-dasharray="6,2" d="M492.1953 -84 L486.1953 -68 L498.1953 -68 Z" stroke="none"/>
      <path fill="none" d="M492.1953 -84 L486.1953 -68 L498.1953 -68 Z"/>
      <path fill="none" d="M0.0059 11.5664 L-66 11.5664"/>
      <line stroke-linecap="square" transform="matrix(-1,0,0,-1,-66,11.5664)" fill="none" x1="0" x2="-14" y1="0" y2="-4" stroke-miterlimit="10"/>
      <line stroke-linecap="square" transform="matrix(-1,0,0,-1,-66,11.5664)" fill="none" x1="0" x2="-14" y1="0" y2="4" stroke-miterlimit="10"/>
    </g>
    <g stroke-dasharray="6,2" stroke-miterlimit="1.45" transform="matrix(0.7392,0,0,0.7392,170.7515,247.6267)" stroke-linecap="butt">
      <path fill="none" d="M276.0209 11.5664 L400.2 11.5664"/>
      <line stroke-linecap="square" transform="matrix(1,0,0,1,400.2,11.5664)" fill="none" x1="0" x2="-14" y1="0" y2="-4" stroke-dasharray="none" stroke-miterlimit="10"/>
      <line stroke-linecap="square" transform="matrix(1,0,0,1,400.2,11.5664)" fill="none" x1="0" x2="-14" y1="0" y2="4" stroke-dasharray="none" stroke-miterlimit="10"/>
    </g>
    <g stroke-dasharray="6,2" stroke-miterlimit="1.45" transform="matrix(0.7392,0,0,0.7392,170.7515,247.6267)" stroke-linecap="butt">
      <path fill="none" d="M276.045 98.6992 L400.2 98.6992"/>
      <line stroke-linecap="square" transform="matrix(1,0,0,1,400.2,98.6992)" fill="none" x1="0" x2="-14" y1="0" y2="-4" stroke-dasharray="none" stroke-miterlimit="10"/>
      <line stroke-linecap="square" transform="matrix(1,0,0,1,400.2,98.6992)" fill="none" x1="0" x2="-14" y1="0" y2="4" stroke-dasharray="none" stroke-miterlimit="10"/>
    </g>
    <g stroke-dasharray="6,2" stroke-miterlimit="1.45" transform="matrix(0.7392,0,0,0.7392,170.7515,247.6267)" stroke-linecap="butt">
      <path fill="none" d="M276.0087 185.832 L400.2 185.832"/>
      <line stroke-linecap="square" transform="matrix(1,0,0,1,400.2,185.832)" fill="none" x1="0" x2="-14" y1="0" y2="-4" stroke-dasharray="none" stroke-miterlimit="10"/>
      <line stroke-linecap="square" transform="matrix(1,0,0,1,400.2,185.832)" fill="none" x1="0" x2="-14" y1="0" y2="4" stroke-dasharray="none" stroke-miterlimit="10"/>
    </g>
    <g stroke-dasharray="6,2" stroke-miterlimit="1.45" transform="matrix(0.7392,0,0,0.7392,170.7515,247.6267)" stroke-linecap="butt">
      <path fill="none" d="M276.0042 218.9648 L400.2 218.9648"/>
      <line stroke-linecap="square" transform="matrix(1,0,0,1,400.2,218.9648)" fill="none" x1="0" x2="-14" y1="0" y2="-4" stroke-dasharray="none" stroke-miterlimit="10"/>
      <line stroke-linecap="square" transform="matrix(1,0,0,1,400.2,218.9648)" fill="none" x1="0" x2="-14" y1="0" y2="4" stroke-dasharray="none" stroke-miterlimit="10"/>
    </g>
  </g>
</svg>
