<?xml version="1.0" encoding="UTF-8"?><svg xmlns="http://www.w3.org/2000/svg" xmlns:xlink="http://www.w3.org/1999/xlink" fill-opacity="1" color-rendering="auto" color-interpolation="auto" stroke="black" text-rendering="auto" stroke-linecap="square" width="598" stroke-miterlimit="10" stroke-opacity="1" shape-rendering="auto" fill="black" stroke-dasharray="none" font-weight="normal" stroke-width="1" height="598" font-family="'Dialog'" font-style="normal" stroke-linejoin="miter" font-size="12" stroke-dashoffset="0" image-rendering="auto">
  <!--Generated by ySVG-->
  <defs id="genericDefs"/>
  <g>
    <defs id="defs1">
      <clipPath clipPathUnits="userSpaceOnUse" id="clipPath1">
        <path d="M0 0 L598 0 L598 598 L0 598 L0 0 Z"/>
      </clipPath>
      <clipPath clipPathUnits="userSpaceOnUse" id="clipPath2">
        <path d="M760.631 103.4902 C760.631 112.5241 691.8282 119.8475 606.9555 119.8475 C522.0829 119.8475 453.28 112.5241 453.28 103.4902 C453.28 94.4563 522.0829 87.1328 606.9555 87.1328 C691.8282 87.1328 760.631 94.4563 760.631 103.4902 Z"/>
      </clipPath>
      <clipPath clipPathUnits="userSpaceOnUse" id="clipPath3">
        <path d="M453.28 0 L507.87 0 L507.87 23.1328 L453.28 23.1328 L453.28 0 Z"/>
      </clipPath>
      <clipPath clipPathUnits="userSpaceOnUse" id="clipPath4">
        <path d="M-130.04 0 L-76.48 0 L-76.48 23.1328 L-130.04 23.1328 L-130.04 0 Z"/>
      </clipPath>
      <clipPath clipPathUnits="userSpaceOnUse" id="clipPath5">
        <path d="M377.728 -100.3574 C377.728 -91.3234 353.272 -84 323.104 -84 C292.936 -84 268.48 -91.3234 268.48 -100.3574 C268.48 -109.3913 292.936 -116.7147 323.104 -116.7147 C353.272 -116.7147 377.728 -109.3913 377.728 -100.3574 Z"/>
      </clipPath>
      <clipPath clipPathUnits="userSpaceOnUse" id="clipPath6">
        <path d="M164.8 -107.1328 L222.48 -107.1328 L222.48 -84 L164.8 -84 L164.8 -107.1328 Z"/>
      </clipPath>
      <clipPath clipPathUnits="userSpaceOnUse" id="clipPath7">
        <path d="M0 0 L387.28 0 L387.28 127.8475 L0 127.8475 L0 0 Z"/>
      </clipPath>
      <script type="text/ecmascript"><![CDATA[
function umlload(newLocation)
{
if (newLocation.charAt(0) != '#') {
if (newLocation.indexOf("://") > -1) {
window.parent.location.href = newLocation;
} else {
var tmp = window.parent.location.href;
tmp = tmp.substring(0, tmp.lastIndexOf("/") + 1);
window.parent.location.href = tmp.concat(newLocation);
}
} else {
window.parent.location.hash = newLocation;
}
}
]]></script>
    </defs>
    <g fill="rgb(238,238,255)" transform="matrix(0.6586,0,0,0.6586,91.5441,289.7797)" stroke="rgb(238,238,255)">
      <rect width="124.9426" x="445.28" height="17.9688" y="61.1328" stroke="none"/>
    </g>
    <g fill="rgb(166,166,178)" stroke-miterlimit="1.45" transform="matrix(0.6586,0,0,0.6586,91.5441,289.7797)" stroke-linecap="butt" stroke="rgb(166,166,178)">
      <rect fill="none" width="124.9426" x="445.28" height="17.9688" y="61.1328"/>
    </g>
    <g fill="rgb(238,238,255)" transform="matrix(0.6586,0,0,0.6586,91.5441,289.7797)" stroke="rgb(238,238,255)">
      <rect width="323.351" x="445.28" height="48.746" y="79.1016" stroke="none"/>
    </g>
    <g fill="rgb(166,166,178)" stroke-miterlimit="1.45" transform="matrix(0.6586,0,0,0.6586,91.5441,289.7797)" stroke-linecap="butt" stroke="rgb(166,166,178)">
      <rect fill="none" width="323.351" x="445.28" height="48.746" y="79.1016"/>
    </g>
    <g font-family="sans-serif" transform="matrix(0.6586,0,0,0.6586,91.5441,289.7797)">
      <text xml:space="preserve" x="451.28" y="74.2715" stroke="none">org.apache.http</text>
    </g>
    <g fill="rgb(221,221,255)" transform="matrix(0.6586,0,0,0.6586,91.5441,289.7797)" stroke="rgb(221,221,255)">
      <rect x="453.28" y="87.1328" clip-path="url(#clipPath2)" width="307.351" height="32.7147" stroke="none"/>
    </g>
    <g fill="rgb(154,154,178)" stroke-miterlimit="1.45" transform="matrix(0.6586,0,0,0.6586,91.5441,289.7797)" stroke-linecap="butt" stroke="rgb(154,154,178)">
      <ellipse rx="153.6755" fill="none" ry="16.3574" cx="606.9555" cy="103.4902"/>
    </g>
    <g font-style="italic" font-size="13" font-weight="bold" font-family="sans-serif" transform="matrix(0.6586,0,0,0.6586,91.5441,289.7797)">
      <text xml:space="preserve" x="505.4555" y="107.9907" stroke="none">HttpEntityEnclosingRequest</text>
    </g>
    <g fill="rgb(238,238,255)" transform="matrix(0.6586,0,0,0.6586,91.5441,289.7797)" stroke="rgb(238,238,255)">
      <rect width="59.1668" x="445.28" height="17.9688" y="-26" stroke="none"/>
    </g>
    <g fill="rgb(166,166,178)" stroke-miterlimit="1.45" transform="matrix(0.6586,0,0,0.6586,91.5441,289.7797)" stroke-linecap="butt" stroke="rgb(166,166,178)">
      <rect fill="none" width="59.1668" x="445.28" height="17.9688" y="-26"/>
    </g>
    <g fill="rgb(238,238,255)" transform="matrix(0.6586,0,0,0.6586,91.5441,289.7797)" stroke="rgb(238,238,255)">
      <rect width="70.59" x="445.28" height="39.1641" y="-8.0312" stroke="none"/>
    </g>
    <g fill="rgb(166,166,178)" stroke-miterlimit="1.45" transform="matrix(0.6586,0,0,0.6586,91.5441,289.7797)" stroke-linecap="butt" stroke="rgb(166,166,178)">
      <rect fill="none" width="70.59" x="445.28" height="39.1641" y="-8.0312"/>
    </g>
    <g font-family="sans-serif" transform="matrix(0.6586,0,0,0.6586,91.5441,289.7797)">
      <text xml:space="preserve" x="451.28" y="-12.8613" onclick="umlload('http://docs.oracle.com/javase/6/docs/api/java/io/package-summary.html')" stroke="none">java.io</text>
    </g>
    <g fill="rgb(204,204,255)" transform="matrix(0.6586,0,0,0.6586,91.5441,289.7797)" stroke="rgb(204,204,255)">
      <rect x="453.28" y="0" clip-path="url(#clipPath3)" width="54.59" height="23.1328" stroke="none"/>
    </g>
    <g fill="rgb(142,142,178)" stroke-miterlimit="1.45" transform="matrix(0.6586,0,0,0.6586,91.5441,289.7797)" stroke-linecap="butt" stroke="rgb(142,142,178)">
      <rect fill="none" width="54.59" x="453.28" height="23.1328" y="0"/>
    </g>
    <g font-size="13" font-weight="bold" font-family="sans-serif" transform="matrix(0.6586,0,0,0.6586,91.5441,289.7797)">
      <text xml:space="preserve" x="458.075" y="16.0669" onclick="umlload('http://docs.oracle.com/javase/6/docs/api/java/io/Writer.html')" stroke="none">Writer</text>
    </g>
    <g fill="rgb(238,238,255)" transform="matrix(0.6586,0,0,0.6586,91.5441,289.7797)" stroke="rgb(238,238,255)">
      <rect width="76.1412" x="-138.04" height="17.9688" y="-26" stroke="none"/>
    </g>
    <g fill="rgb(166,166,178)" stroke-miterlimit="1.45" transform="matrix(0.6586,0,0,0.6586,91.5441,289.7797)" stroke-linecap="butt" stroke="rgb(166,166,178)">
      <rect fill="none" width="76.1412" x="-138.04" height="17.9688" y="-26"/>
    </g>
    <g fill="rgb(238,238,255)" transform="matrix(0.6586,0,0,0.6586,91.5441,289.7797)" stroke="rgb(238,238,255)">
      <rect width="79.56" x="-138.04" height="39.1641" y="-8.0312" stroke="none"/>
    </g>
    <g fill="rgb(166,166,178)" stroke-miterlimit="1.45" transform="matrix(0.6586,0,0,0.6586,91.5441,289.7797)" stroke-linecap="butt" stroke="rgb(166,166,178)">
      <rect fill="none" width="79.56" x="-138.04" height="39.1641" y="-8.0312"/>
    </g>
    <g font-family="sans-serif" transform="matrix(0.6586,0,0,0.6586,91.5441,289.7797)">
      <text xml:space="preserve" x="-132.04" y="-12.8613" onclick="umlload('http://docs.oracle.com/javase/6/docs/api/java/lang/package-summary.html')" stroke="none">java.lang</text>
    </g>
    <g fill="rgb(187,187,255)" transform="matrix(0.6586,0,0,0.6586,91.5441,289.7797)" stroke="rgb(187,187,255)">
      <rect x="-130.04" y="0" clip-path="url(#clipPath4)" width="53.56" height="23.1328" stroke="none"/>
    </g>
    <g fill="rgb(130,130,178)" stroke-miterlimit="1.45" transform="matrix(0.6586,0,0,0.6586,91.5441,289.7797)" stroke-linecap="butt" stroke="rgb(130,130,178)">
      <rect fill="none" width="53.56" x="-130.04" height="23.1328" y="0"/>
    </g>
    <g font-size="13" font-weight="bold" font-family="sans-serif" transform="matrix(0.6586,0,0,0.6586,91.5441,289.7797)">
      <text xml:space="preserve" x="-125.26" y="16.0669" onclick="umlload('http://docs.oracle.com/javase/6/docs/api/java/lang/String.html')" stroke="none">String</text>
    </g>
    <g fill="rgb(238,238,255)" transform="matrix(0.6586,0,0,0.6586,91.5441,289.7797)" stroke="rgb(238,238,255)">
      <rect width="93.1156" x="260.48" height="17.9688" y="-142.7147" stroke="none"/>
    </g>
    <g fill="rgb(166,166,178)" stroke-miterlimit="1.45" transform="matrix(0.6586,0,0,0.6586,91.5441,289.7797)" stroke-linecap="butt" stroke="rgb(166,166,178)">
      <rect fill="none" width="93.1156" x="260.48" height="17.9688" y="-142.7147"/>
    </g>
    <g fill="rgb(238,238,255)" transform="matrix(0.6586,0,0,0.6586,91.5441,289.7797)" stroke="rgb(238,238,255)">
      <rect width="125.248" x="260.48" height="48.746" y="-124.746" stroke="none"/>
    </g>
    <g fill="rgb(166,166,178)" stroke-miterlimit="1.45" transform="matrix(0.6586,0,0,0.6586,91.5441,289.7797)" stroke-linecap="butt" stroke="rgb(166,166,178)">
      <rect fill="none" width="125.248" x="260.48" height="48.746" y="-124.746"/>
    </g>
    <g font-family="sans-serif" transform="matrix(0.6586,0,0,0.6586,91.5441,289.7797)">
      <text xml:space="preserve" x="266.48" y="-129.5761" stroke="none">org.esigate</text>
    </g>
    <g fill="rgb(221,221,255)" transform="matrix(0.6586,0,0,0.6586,91.5441,289.7797)" stroke="rgb(221,221,255)">
      <rect x="268.48" y="-116.7147" clip-path="url(#clipPath5)" width="109.248" height="32.7147" stroke="none"/>
    </g>
    <g fill="rgb(154,154,178)" stroke-miterlimit="1.45" transform="matrix(0.6586,0,0,0.6586,91.5441,289.7797)" stroke-linecap="butt" stroke="rgb(154,154,178)">
      <ellipse rx="54.624" fill="none" ry="16.3574" cx="323.104" cy="-100.3574"/>
    </g>
    <g font-style="italic" font-size="13" font-weight="bold" font-family="sans-serif" transform="matrix(0.6586,0,0,0.6586,91.5441,289.7797)">
      <text xml:space="preserve" x="289.604" y="-95.8569" stroke="none">Renderer</text>
    </g>
    <g fill="rgb(238,238,255)" transform="matrix(0.6586,0,0,0.6586,91.5441,289.7797)" stroke="rgb(238,238,255)">
      <rect width="76.1412" x="156.8" height="17.9688" y="-133.1328" stroke="none"/>
    </g>
    <g fill="rgb(166,166,178)" stroke-miterlimit="1.45" transform="matrix(0.6586,0,0,0.6586,91.5441,289.7797)" stroke-linecap="butt" stroke="rgb(166,166,178)">
      <rect fill="none" width="76.1412" x="156.8" height="17.9688" y="-133.1328"/>
    </g>
    <g fill="rgb(238,238,255)" transform="matrix(0.6586,0,0,0.6586,91.5441,289.7797)" stroke="rgb(238,238,255)">
      <rect width="76.1412" x="156.8" height="39.1641" y="-115.1641" stroke="none"/>
    </g>
    <g fill="rgb(166,166,178)" stroke-miterlimit="1.45" transform="matrix(0.6586,0,0,0.6586,91.5441,289.7797)" stroke-linecap="butt" stroke="rgb(166,166,178)">
      <rect fill="none" width="76.1412" x="156.8" height="39.1641" y="-115.1641"/>
    </g>
    <g font-family="sans-serif" transform="matrix(0.6586,0,0,0.6586,91.5441,289.7797)">
      <text xml:space="preserve" x="162.8" y="-119.9941" onclick="umlload('http://docs.oracle.com/javase/6/docs/api/java/lang/package-summary.html')" stroke="none">java.lang</text>
    </g>
    <g fill="rgb(187,187,255)" transform="matrix(0.6586,0,0,0.6586,91.5441,289.7797)" stroke="rgb(187,187,255)">
      <rect x="164.8" y="-107.1328" clip-path="url(#clipPath6)" width="57.68" height="23.1328" stroke="none"/>
    </g>
    <g fill="rgb(130,130,178)" stroke-miterlimit="1.45" transform="matrix(0.6586,0,0,0.6586,91.5441,289.7797)" stroke-linecap="butt" stroke="rgb(130,130,178)">
      <rect fill="none" width="57.68" x="164.8" height="23.1328" y="-107.1328"/>
    </g>
    <g font-size="13" font-weight="bold" font-family="sans-serif" transform="matrix(0.6586,0,0,0.6586,91.5441,289.7797)">
      <text xml:space="preserve" x="169.64" y="-91.0659" onclick="umlload('http://docs.oracle.com/javase/6/docs/api/java/lang/Object.html')" stroke="none">Object</text>
    </g>
    <g fill="rgb(238,238,255)" transform="matrix(0.6586,0,0,0.6586,91.5441,289.7797)" stroke="rgb(238,238,255)">
      <rect width="364.706" x="-8" height="17.9688" y="-26" stroke="none"/>
    </g>
    <g fill="rgb(166,166,178)" stroke-miterlimit="1.45" transform="matrix(0.6586,0,0,0.6586,91.5441,289.7797)" stroke-linecap="butt" stroke="rgb(166,166,178)">
      <rect fill="none" width="364.706" x="-8" height="17.9688" y="-26"/>
    </g>
    <g fill="rgb(238,238,255)" transform="matrix(0.6586,0,0,0.6586,91.5441,289.7797)" stroke="rgb(238,238,255)">
      <rect width="403.28" x="-8" height="143.8788" y="-8.0312" stroke="none"/>
    </g>
    <g fill="rgb(166,166,178)" stroke-miterlimit="1.45" transform="matrix(0.6586,0,0,0.6586,91.5441,289.7797)" stroke-linecap="butt" stroke="rgb(166,166,178)">
      <rect fill="none" width="403.28" x="-8" height="143.8788" y="-8.0312"/>
    </g>
    <g font-family="sans-serif" transform="matrix(0.6586,0,0,0.6586,91.5441,289.7797)">
      <text xml:space="preserve" x="-2" y="-12.8613" onclick="umlload('package-summary.html')" stroke="none">com.msopentech.odatajclient.testauthproxy.esigate</text>
    </g>
    <g fill="rgb(187,187,255)" transform="matrix(0.6586,0,0,0.6586,91.5441,289.7797)" stroke="rgb(187,187,255)">
      <rect x="0" y="0" clip-path="url(#clipPath7)" width="387.28" height="26.625" stroke="none"/>
      <line clip-path="url(#clipPath7)" fill="none" x1="0" x2="387.28" y1="26.625" y2="26.625" stroke="black"/>
      <rect x="0" y="27.625" clip-path="url(#clipPath7)" width="387.28" height="15.9688" stroke="none"/>
      <line clip-path="url(#clipPath7)" fill="none" x1="0" x2="387.28" y1="43.5938" y2="43.5938" stroke="black"/>
      <rect x="0" y="44.5938" clip-path="url(#clipPath7)" width="387.28" height="83.2538" stroke="none"/>
    </g>
    <g fill="rgb(130,130,178)" stroke-miterlimit="1.45" transform="matrix(0.6586,0,0,0.6586,91.5441,289.7797)" stroke-linecap="butt" stroke="rgb(130,130,178)">
      <rect fill="none" width="387.28" x="0" height="127.8475" y="0"/>
    </g>
    <g font-size="16" font-weight="bold" font-family="sans-serif" transform="matrix(0.6586,0,0,0.6586,91.5441,289.7797)">
      <text xml:space="preserve" x="99.64" y="18.8516" onclick="umlload('#')" stroke="none">LinkRewriteRenderer</text>
    </g>
    <g font-family="sans-serif" transform="matrix(0.6586,0,0,0.6586,91.5441,289.7797)">
      <text xml:space="preserve" x="4" y="38.1719" stroke="none">+</text>
      <text xml:space="preserve" x="19" y="39.7637" onclick="umlload('#LinkRewriteRenderer(java.lang.String, java.lang.String)')" stroke="none">LinkRewriteRenderer(String, String)</text>
    </g>
    <g font-family="sans-serif" transform="matrix(0.6586,0,0,0.6586,91.5441,289.7797)">
      <text xml:space="preserve" x="4" y="55.1719" stroke="none">+</text>
      <text xml:space="preserve" x="19" y="56.7324" onclick="umlload('#render(org.apache.http.HttpEntityEnclosingRequest, java.lang.String, java.io.Writer)')" stroke="none">render(HttpEntityEnclosingRequest, String, Writer) : void</text>
    </g>
    <g font-family="sans-serif" transform="matrix(0.6586,0,0,0.6586,91.5441,289.7797)">
      <text xml:space="preserve" x="-133" y="160.1543" onclick="umlload('http://www.yworks.com/')" stroke="none">yWorks UML Doclet</text>
    </g>
    <g stroke-miterlimit="1.45" transform="matrix(0.6586,0,0,0.6586,91.5441,289.7797)" stroke-linecap="butt">
      <path fill="none" d="M193.64 0.0176 L193.64 -69"/>
      <path fill="white" d="M193.64 -84 L187.64 -68 L199.64 -68 Z" stroke="none"/>
      <path fill="none" d="M193.64 -84 L187.64 -68 L199.64 -68 Z"/>
      <path fill="none" stroke-dasharray="6,2" d="M290.46 -0.0008 L290.46 -51 L323.104 -51 L323.104 -69"/>
      <path fill="white" stroke-dasharray="6,2" d="M323.104 -84 L317.104 -68 L329.104 -68 Z" stroke="none"/>
      <path fill="none" d="M323.104 -84 L317.104 -68 L329.104 -68 Z"/>
      <path fill="none" d="M-0.0046 11.5664 L-76.48 11.5664"/>
      <line stroke-linecap="square" transform="matrix(-1,0,0,-1,-76.48,11.5664)" fill="none" x1="0" x2="-14" y1="0" y2="-4" stroke-miterlimit="10"/>
      <line stroke-linecap="square" transform="matrix(-1,0,0,-1,-76.48,11.5664)" fill="none" x1="0" x2="-14" y1="0" y2="4" stroke-miterlimit="10"/>
    </g>
    <g stroke-dasharray="6,2" stroke-miterlimit="1.45" transform="matrix(0.6586,0,0,0.6586,91.5441,289.7797)" stroke-linecap="butt">
      <path fill="none" d="M387.3001 11.5664 L453.28 11.5664"/>
      <line stroke-linecap="square" transform="matrix(1,0,0,1,453.28,11.5664)" fill="none" x1="0" x2="-14" y1="0" y2="-4" stroke-dasharray="none" stroke-miterlimit="10"/>
      <line stroke-linecap="square" transform="matrix(1,0,0,1,453.28,11.5664)" fill="none" x1="0" x2="-14" y1="0" y2="4" stroke-dasharray="none" stroke-miterlimit="10"/>
    </g>
    <g stroke-dasharray="6,2" stroke-miterlimit="1.45" transform="matrix(0.6586,0,0,0.6586,91.5441,289.7797)" stroke-linecap="butt">
      <path fill="none" d="M387.2555 103.4902 L453.28 103.4902"/>
      <line stroke-linecap="square" transform="matrix(1,0,0,1,453.28,103.4902)" fill="none" x1="0" x2="-14" y1="0" y2="-4" stroke-dasharray="none" stroke-miterlimit="10"/>
      <line stroke-linecap="square" transform="matrix(1,0,0,1,453.28,103.4902)" fill="none" x1="0" x2="-14" y1="0" y2="4" stroke-dasharray="none" stroke-miterlimit="10"/>
    </g>
  </g>
</svg>
