<?xml version="1.0" encoding="UTF-8"?><svg xmlns="http://www.w3.org/2000/svg" xmlns:xlink="http://www.w3.org/1999/xlink" fill-opacity="1" color-rendering="auto" color-interpolation="auto" stroke="black" text-rendering="auto" stroke-linecap="square" width="598" stroke-miterlimit="10" stroke-opacity="1" shape-rendering="auto" fill="black" stroke-dasharray="none" font-weight="normal" stroke-width="1" height="598" font-family="'Dialog'" font-style="normal" stroke-linejoin="miter" font-size="12" stroke-dashoffset="0" image-rendering="auto">
  <!--Generated by ySVG-->
  <defs id="genericDefs"/>
  <g>
    <defs id="defs1">
      <clipPath clipPathUnits="userSpaceOnUse" id="clipPath1">
        <path d="M0 0 L598 0 L598 598 L0 598 L0 0 Z"/>
      </clipPath>
      <clipPath clipPathUnits="userSpaceOnUse" id="clipPath2">
        <path d="M684.3608 223.7558 C684.3608 232.7897 653.3832 240.1132 615.1704 240.1132 C576.9576 240.1132 545.98 232.7897 545.98 223.7558 C545.98 214.7219 576.9576 207.3984 615.1704 207.3984 C653.3832 207.3984 684.3608 214.7219 684.3608 223.7558 Z"/>
      </clipPath>
      <clipPath clipPathUnits="userSpaceOnUse" id="clipPath3">
        <path d="M545.98 120.2656 L608.81 120.2656 L608.81 143.3984 L545.98 143.3984 L545.98 120.2656 Z"/>
      </clipPath>
      <clipPath clipPathUnits="userSpaceOnUse" id="clipPath4">
        <path d="M545.98 0 L720.05 0 L720.05 23.1328 L545.98 23.1328 L545.98 0 Z"/>
      </clipPath>
      <clipPath clipPathUnits="userSpaceOnUse" id="clipPath5">
        <path d="M545.98 33.1328 L676.79 33.1328 L676.79 56.2656 L545.98 56.2656 L545.98 33.1328 Z"/>
      </clipPath>
      <clipPath clipPathUnits="userSpaceOnUse" id="clipPath6">
        <path d="M-66 16.3574 C-66 25.3913 -87.1952 32.7147 -113.3408 32.7147 C-139.4864 32.7147 -160.6816 25.3913 -160.6816 16.3574 C-160.6816 7.3234 -139.4864 0 -113.3408 0 C-87.1952 0 -66 7.3234 -66 16.3574 Z"/>
      </clipPath>
      <clipPath clipPathUnits="userSpaceOnUse" id="clipPath7">
        <path d="M859.1569 -100.3574 C859.1569 -91.3234 780.2455 -84 682.9034 -84 C585.5613 -84 506.65 -91.3234 506.65 -100.3574 C506.65 -109.3913 585.5613 -116.7147 682.9034 -116.7147 C780.2455 -116.7147 859.1569 -109.3913 859.1569 -100.3574 Z"/>
      </clipPath>
      <clipPath clipPathUnits="userSpaceOnUse" id="clipPath8">
        <path d="M195.185 -107.1328 L284.795 -107.1328 L284.795 -84 L195.185 -84 L195.185 -107.1328 Z"/>
      </clipPath>
      <clipPath clipPathUnits="userSpaceOnUse" id="clipPath9">
        <path d="M0 0 L479.98 0 L479.98 248.1132 L0 248.1132 L0 0 Z"/>
      </clipPath>
      <script type="text/ecmascript"><![CDATA[
function umlload(newLocation)
{
if (newLocation.charAt(0) != '#') {
if (newLocation.indexOf("://") > -1) {
window.parent.location.href = newLocation;
} else {
var tmp = window.parent.location.href;
tmp = tmp.substring(0, tmp.lastIndexOf("/") + 1);
window.parent.location.href = tmp.concat(newLocation);
}
} else {
window.parent.location.hash = newLocation;
}
}
]]></script>
    </defs>
    <g fill="rgb(238,238,255)" transform="matrix(0.5055,0,0,0.5055,85.4286,261.3407)" stroke="rgb(238,238,255)">
      <rect width="67.654" x="537.98" height="17.9688" y="181.3984" stroke="none"/>
    </g>
    <g fill="rgb(166,166,178)" stroke-miterlimit="1.45" transform="matrix(0.5055,0,0,0.5055,85.4286,261.3407)" stroke-linecap="butt" stroke="rgb(166,166,178)">
      <rect fill="none" width="67.654" x="537.98" height="17.9688" y="181.3984"/>
    </g>
    <g fill="rgb(238,238,255)" transform="matrix(0.5055,0,0,0.5055,85.4286,261.3407)" stroke="rgb(238,238,255)">
      <rect width="154.3808" x="537.98" height="48.746" y="199.3672" stroke="none"/>
    </g>
    <g fill="rgb(166,166,178)" stroke-miterlimit="1.45" transform="matrix(0.5055,0,0,0.5055,85.4286,261.3407)" stroke-linecap="butt" stroke="rgb(166,166,178)">
      <rect fill="none" width="154.3808" x="537.98" height="48.746" y="199.3672"/>
    </g>
    <g font-family="sans-serif" transform="matrix(0.5055,0,0,0.5055,85.4286,261.3407)">
      <text xml:space="preserve" x="543.98" y="194.5371" onclick="umlload('http://docs.oracle.com/javase/6/docs/api/java/util/package-summary.html')" stroke="none">java.util</text>
    </g>
    <g fill="rgb(221,221,255)" transform="matrix(0.5055,0,0,0.5055,85.4286,261.3407)" stroke="rgb(221,221,255)">
      <rect x="545.98" y="207.3984" clip-path="url(#clipPath2)" width="138.3808" height="32.7147" stroke="none"/>
    </g>
    <g fill="rgb(154,154,178)" stroke-miterlimit="1.45" transform="matrix(0.5055,0,0,0.5055,85.4286,261.3407)" stroke-linecap="butt" stroke="rgb(154,154,178)">
      <ellipse rx="69.1904" fill="none" ry="16.3574" cx="615.1704" cy="223.7558"/>
    </g>
    <g font-style="italic" font-size="13" font-weight="bold" font-family="sans-serif" transform="matrix(0.5055,0,0,0.5055,85.4286,261.3407)">
      <text xml:space="preserve" x="571.6704" y="228.2563" onclick="umlload('http://docs.oracle.com/javase/6/docs/api/java/util/Iterator.html')" stroke="none">Iterator&lt;E&gt;</text>
    </g>
    <g fill="rgb(238,238,255)" transform="matrix(0.5055,0,0,0.5055,85.4286,261.3407)" stroke="rgb(238,238,255)">
      <rect width="76.1412" x="537.98" height="17.9688" y="94.2656" stroke="none"/>
    </g>
    <g fill="rgb(166,166,178)" stroke-miterlimit="1.45" transform="matrix(0.5055,0,0,0.5055,85.4286,261.3407)" stroke-linecap="butt" stroke="rgb(166,166,178)">
      <rect fill="none" width="76.1412" x="537.98" height="17.9688" y="94.2656"/>
    </g>
    <g fill="rgb(238,238,255)" transform="matrix(0.5055,0,0,0.5055,85.4286,261.3407)" stroke="rgb(238,238,255)">
      <rect width="79.83" x="537.98" height="39.1641" y="112.2344" stroke="none"/>
    </g>
    <g fill="rgb(166,166,178)" stroke-miterlimit="1.45" transform="matrix(0.5055,0,0,0.5055,85.4286,261.3407)" stroke-linecap="butt" stroke="rgb(166,166,178)">
      <rect fill="none" width="79.83" x="537.98" height="39.1641" y="112.2344"/>
    </g>
    <g font-family="sans-serif" transform="matrix(0.5055,0,0,0.5055,85.4286,261.3407)">
      <text xml:space="preserve" x="543.98" y="107.4043" onclick="umlload('http://docs.oracle.com/javase/6/docs/api/java/lang/package-summary.html')" stroke="none">java.lang</text>
    </g>
    <g fill="rgb(187,187,255)" transform="matrix(0.5055,0,0,0.5055,85.4286,261.3407)" stroke="rgb(187,187,255)">
      <rect x="545.98" y="120.2656" clip-path="url(#clipPath3)" width="62.83" height="23.1328" stroke="none"/>
    </g>
    <g fill="rgb(130,130,178)" stroke-miterlimit="1.45" transform="matrix(0.5055,0,0,0.5055,85.4286,261.3407)" stroke-linecap="butt" stroke="rgb(130,130,178)">
      <rect fill="none" width="62.83" x="545.98" height="23.1328" y="120.2656"/>
    </g>
    <g font-size="13" font-weight="bold" font-family="sans-serif" transform="matrix(0.5055,0,0,0.5055,85.4286,261.3407)">
      <text xml:space="preserve" x="550.895" y="136.3325" onclick="umlload('http://docs.oracle.com/javase/6/docs/api/java/lang/Integer.html')" stroke="none">Integer</text>
    </g>
    <g fill="rgb(238,238,255)" transform="matrix(0.5055,0,0,0.5055,85.4286,261.3407)" stroke="rgb(238,238,255)">
      <rect width="475.0396" x="537.98" height="17.9688" y="-26" stroke="none"/>
    </g>
    <g fill="rgb(166,166,178)" stroke-miterlimit="1.45" transform="matrix(0.5055,0,0,0.5055,85.4286,261.3407)" stroke-linecap="butt" stroke="rgb(166,166,178)">
      <rect fill="none" width="475.0396" x="537.98" height="17.9688" y="-26"/>
    </g>
    <g fill="rgb(238,238,255)" transform="matrix(0.5055,0,0,0.5055,85.4286,261.3407)" stroke="rgb(238,238,255)">
      <rect width="475.07" x="537.98" height="72.2969" y="-8.0312" stroke="none"/>
    </g>
    <g fill="rgb(166,166,178)" stroke-miterlimit="1.45" transform="matrix(0.5055,0,0,0.5055,85.4286,261.3407)" stroke-linecap="butt" stroke="rgb(166,166,178)">
      <rect fill="none" width="475.07" x="537.98" height="72.2969" y="-8.0312"/>
    </g>
    <g font-family="sans-serif" transform="matrix(0.5055,0,0,0.5055,85.4286,261.3407)">
      <text xml:space="preserve" x="543.98" y="-12.8613" onclick="umlload('../../../../../../../../com/msopentech/odatajclient/engine/data/metadata/edm/geospatial/package-summary.html')" stroke="none">com.msopentech.odatajclient.engine.data.metadata.edm.geospatial</text>
    </g>
    <g fill="rgb(170,170,255)" transform="matrix(0.5055,0,0,0.5055,85.4286,261.3407)" stroke="rgb(170,170,255)">
      <rect x="545.98" y="0" clip-path="url(#clipPath4)" width="174.07" height="23.1328" stroke="none"/>
    </g>
    <g fill="rgb(118,118,178)" stroke-miterlimit="1.45" transform="matrix(0.5055,0,0,0.5055,85.4286,261.3407)" stroke-linecap="butt" stroke="rgb(118,118,178)">
      <rect fill="none" width="174.07" x="545.98" height="23.1328" y="0"/>
    </g>
    <g font-size="13" font-weight="bold" font-family="sans-serif" transform="matrix(0.5055,0,0,0.5055,85.4286,261.3407)">
      <text xml:space="preserve" x="552.515" y="16.0669" onclick="umlload('../../../../../../../../com/msopentech/odatajclient/engine/data/metadata/edm/geospatial/Geospatial.Dimension.html')" stroke="none">Geospatial.Dimension</text>
    </g>
    <g fill="rgb(170,170,255)" transform="matrix(0.5055,0,0,0.5055,85.4286,261.3407)" stroke="rgb(170,170,255)">
      <rect x="545.98" y="33.1328" clip-path="url(#clipPath5)" width="130.81" height="23.1328" stroke="none"/>
    </g>
    <g fill="rgb(118,118,178)" stroke-miterlimit="1.45" transform="matrix(0.5055,0,0,0.5055,85.4286,261.3407)" stroke-linecap="butt" stroke="rgb(118,118,178)">
      <rect fill="none" width="130.81" x="545.98" height="23.1328" y="33.1328"/>
    </g>
    <g font-size="13" font-weight="bold" font-family="sans-serif" transform="matrix(0.5055,0,0,0.5055,85.4286,261.3407)">
      <text xml:space="preserve" x="551.885" y="49.1997" onclick="umlload('../../../../../../../../com/msopentech/odatajclient/engine/data/metadata/edm/geospatial/Geospatial.Type.html')" stroke="none">Geospatial.Type</text>
    </g>
    <g fill="rgb(238,238,255)" transform="matrix(0.5055,0,0,0.5055,85.4286,261.3407)" stroke="rgb(238,238,255)">
      <rect width="67.654" x="-168.6816" height="17.9688" y="-26" stroke="none"/>
    </g>
    <g fill="rgb(166,166,178)" stroke-miterlimit="1.45" transform="matrix(0.5055,0,0,0.5055,85.4286,261.3407)" stroke-linecap="butt" stroke="rgb(166,166,178)">
      <rect fill="none" width="67.654" x="-168.6816" height="17.9688" y="-26"/>
    </g>
    <g fill="rgb(238,238,255)" transform="matrix(0.5055,0,0,0.5055,85.4286,261.3407)" stroke="rgb(238,238,255)">
      <rect width="110.6816" x="-168.6816" height="48.746" y="-8.0312" stroke="none"/>
    </g>
    <g fill="rgb(166,166,178)" stroke-miterlimit="1.45" transform="matrix(0.5055,0,0,0.5055,85.4286,261.3407)" stroke-linecap="butt" stroke="rgb(166,166,178)">
      <rect fill="none" width="110.6816" x="-168.6816" height="48.746" y="-8.0312"/>
    </g>
    <g font-family="sans-serif" transform="matrix(0.5055,0,0,0.5055,85.4286,261.3407)">
      <text xml:space="preserve" x="-162.6816" y="-12.8613" onclick="umlload('http://docs.oracle.com/javase/6/docs/api/java/util/package-summary.html')" stroke="none">java.util</text>
    </g>
    <g fill="rgb(221,221,255)" transform="matrix(0.5055,0,0,0.5055,85.4286,261.3407)" stroke="rgb(221,221,255)">
      <rect x="-160.6816" y="0" clip-path="url(#clipPath6)" width="94.6816" height="32.7147" stroke="none"/>
    </g>
    <g fill="rgb(154,154,178)" stroke-miterlimit="1.45" transform="matrix(0.5055,0,0,0.5055,85.4286,261.3407)" stroke-linecap="butt" stroke="rgb(154,154,178)">
      <ellipse rx="47.3408" fill="none" ry="16.3574" cx="-113.3408" cy="16.3574"/>
    </g>
    <g font-style="italic" font-size="13" font-weight="bold" font-family="sans-serif" transform="matrix(0.5055,0,0,0.5055,85.4286,261.3407)">
      <text xml:space="preserve" x="-141.8408" y="20.8579" onclick="umlload('http://docs.oracle.com/javase/6/docs/api/java/util/List.html')" stroke="none">List&lt;E&gt;</text>
    </g>
    <g fill="rgb(238,238,255)" transform="matrix(0.5055,0,0,0.5055,85.4286,261.3407)" stroke="rgb(238,238,255)">
      <rect width="76.1412" x="498.65" height="17.9688" y="-142.7147" stroke="none"/>
    </g>
    <g fill="rgb(166,166,178)" stroke-miterlimit="1.45" transform="matrix(0.5055,0,0,0.5055,85.4286,261.3407)" stroke-linecap="butt" stroke="rgb(166,166,178)">
      <rect fill="none" width="76.1412" x="498.65" height="17.9688" y="-142.7147"/>
    </g>
    <g fill="rgb(238,238,255)" transform="matrix(0.5055,0,0,0.5055,85.4286,261.3407)" stroke="rgb(238,238,255)">
      <rect width="368.5069" x="498.65" height="48.746" y="-124.746" stroke="none"/>
    </g>
    <g fill="rgb(166,166,178)" stroke-miterlimit="1.45" transform="matrix(0.5055,0,0,0.5055,85.4286,261.3407)" stroke-linecap="butt" stroke="rgb(166,166,178)">
      <rect fill="none" width="368.5069" x="498.65" height="48.746" y="-124.746"/>
    </g>
    <g font-family="sans-serif" transform="matrix(0.5055,0,0,0.5055,85.4286,261.3407)">
      <text xml:space="preserve" x="504.65" y="-129.5761" onclick="umlload('http://docs.oracle.com/javase/6/docs/api/java/lang/package-summary.html')" stroke="none">java.lang</text>
    </g>
    <g fill="rgb(221,221,255)" transform="matrix(0.5055,0,0,0.5055,85.4286,261.3407)" stroke="rgb(221,221,255)">
      <rect x="506.65" y="-116.7147" clip-path="url(#clipPath7)" width="352.5069" height="32.7147" stroke="none"/>
    </g>
    <g fill="rgb(154,154,178)" stroke-miterlimit="1.45" transform="matrix(0.5055,0,0,0.5055,85.4286,261.3407)" stroke-linecap="butt" stroke="rgb(154,154,178)">
      <ellipse rx="176.2534" fill="none" ry="16.3574" cx="682.9034" cy="-100.3574"/>
    </g>
    <g font-style="italic" font-size="13" font-weight="bold" font-family="sans-serif" transform="matrix(0.5055,0,0,0.5055,85.4286,261.3407)">
      <text xml:space="preserve" x="565.9034" y="-95.8569" onclick="umlload('http://docs.oracle.com/javase/6/docs/api/java/lang/Iterable.html')" stroke="none">Iterable&lt;T extends Geospatial&gt;</text>
    </g>
    <g fill="rgb(238,238,255)" transform="matrix(0.5055,0,0,0.5055,85.4286,261.3407)" stroke="rgb(238,238,255)">
      <rect width="475.0396" x="11.185" height="17.9688" y="-133.1328" stroke="none"/>
    </g>
    <g fill="rgb(166,166,178)" stroke-miterlimit="1.45" transform="matrix(0.5055,0,0,0.5055,85.4286,261.3407)" stroke-linecap="butt" stroke="rgb(166,166,178)">
      <rect fill="none" width="475.0396" x="11.185" height="17.9688" y="-133.1328"/>
    </g>
    <g fill="rgb(238,238,255)" transform="matrix(0.5055,0,0,0.5055,85.4286,261.3407)" stroke="rgb(238,238,255)">
      <rect width="475.61" x="11.185" height="39.1641" y="-115.1641" stroke="none"/>
    </g>
    <g fill="rgb(166,166,178)" stroke-miterlimit="1.45" transform="matrix(0.5055,0,0,0.5055,85.4286,261.3407)" stroke-linecap="butt" stroke="rgb(166,166,178)">
      <rect fill="none" width="475.61" x="11.185" height="39.1641" y="-115.1641"/>
    </g>
    <g font-family="sans-serif" transform="matrix(0.5055,0,0,0.5055,85.4286,261.3407)">
      <text xml:space="preserve" x="17.185" y="-119.9941" onclick="umlload('../../../../../../../../com/msopentech/odatajclient/engine/data/metadata/edm/geospatial/package-summary.html')" stroke="none">com.msopentech.odatajclient.engine.data.metadata.edm.geospatial</text>
    </g>
    <g fill="rgb(204,204,255)" transform="matrix(0.5055,0,0,0.5055,85.4286,261.3407)" stroke="rgb(204,204,255)">
      <rect x="195.185" y="-107.1328" clip-path="url(#clipPath8)" width="89.61" height="23.1328" stroke="none"/>
    </g>
    <g fill="rgb(142,142,178)" stroke-miterlimit="1.45" transform="matrix(0.5055,0,0,0.5055,85.4286,261.3407)" stroke-linecap="butt" stroke="rgb(142,142,178)">
      <rect fill="none" width="89.61" x="195.185" height="23.1328" y="-107.1328"/>
    </g>
    <g font-size="13" font-weight="bold" font-family="sans-serif" transform="matrix(0.5055,0,0,0.5055,85.4286,261.3407)">
      <text xml:space="preserve" x="200.49" y="-91.0659" onclick="umlload('../../../../../../../../com/msopentech/odatajclient/engine/data/metadata/edm/geospatial/Geospatial.html')" stroke="none">Geospatial</text>
    </g>
    <g fill="rgb(238,238,255)" transform="matrix(0.5055,0,0,0.5055,85.4286,261.3407)" stroke="rgb(238,238,255)">
      <rect width="475.0396" x="-8" height="17.9688" y="-26" stroke="none"/>
    </g>
    <g fill="rgb(166,166,178)" stroke-miterlimit="1.45" transform="matrix(0.5055,0,0,0.5055,85.4286,261.3407)" stroke-linecap="butt" stroke="rgb(166,166,178)">
      <rect fill="none" width="475.0396" x="-8" height="17.9688" y="-26"/>
    </g>
    <g fill="rgb(238,238,255)" transform="matrix(0.5055,0,0,0.5055,85.4286,261.3407)" stroke="rgb(238,238,255)">
      <rect width="495.98" x="-8" height="264.1444" y="-8.0312" stroke="none"/>
    </g>
    <g fill="rgb(166,166,178)" stroke-miterlimit="1.45" transform="matrix(0.5055,0,0,0.5055,85.4286,261.3407)" stroke-linecap="butt" stroke="rgb(166,166,178)">
      <rect fill="none" width="495.98" x="-8" height="264.1444" y="-8.0312"/>
    </g>
    <g font-family="sans-serif" transform="matrix(0.5055,0,0,0.5055,85.4286,261.3407)">
      <text xml:space="preserve" x="-2" y="-12.8613" onclick="umlload('package-summary.html')" stroke="none">com.msopentech.odatajclient.engine.data.metadata.edm.geospatial</text>
    </g>
    <g fill="rgb(204,204,255)" transform="matrix(0.5055,0,0,0.5055,85.4286,261.3407)" stroke="rgb(204,204,255)">
      <rect x="0" y="0" clip-path="url(#clipPath9)" width="479.98" height="38.5938" stroke="none"/>
      <line clip-path="url(#clipPath9)" fill="none" x1="0" x2="479.98" y1="38.5938" y2="38.5938" stroke="black"/>
      <rect x="0" y="39.5938" clip-path="url(#clipPath9)" width="479.98" height="15.9688" stroke="none"/>
      <line clip-path="url(#clipPath9)" fill="none" x1="0" x2="479.98" y1="55.5625" y2="55.5625" stroke="black"/>
      <line clip-path="url(#clipPath9)" x1="0" x2="479.98" y1="56.5625" y2="56.5625" stroke="none"/>
      <line clip-path="url(#clipPath9)" fill="none" x1="0" x2="479.98" y1="56.5625" y2="56.5625" stroke="black"/>
      <rect x="0" y="57.5625" clip-path="url(#clipPath9)" width="479.98" height="190.5507" stroke="none"/>
    </g>
    <g fill="rgb(142,142,178)" stroke-miterlimit="1.45" transform="matrix(0.5055,0,0,0.5055,85.4286,261.3407)" stroke-linecap="butt" stroke="rgb(142,142,178)">
      <rect fill="none" width="479.98" x="0" height="248.1132" y="0"/>
    </g>
    <g font-size="16" font-weight="bold" font-family="sans-serif" transform="matrix(0.5055,0,0,0.5055,85.4286,261.3407)">
      <text xml:space="preserve" x="40.99" y="16.8516" onclick="umlload('#')" stroke="none">ComposedGeospatial&lt;T extends Geospatial&gt;</text>
    </g>
    <g font-family="sans-serif" transform="matrix(0.5055,0,0,0.5055,85.4286,261.3407)">
      <text xml:space="preserve" x="406.98" y="33.7637" stroke="none">{abstract}</text>
    </g>
    <g font-family="sans-serif" transform="matrix(0.5055,0,0,0.5055,85.4286,261.3407)">
      <text xml:space="preserve" x="4" y="50.1719" stroke="none">#</text>
      <text xml:space="preserve" x="19" y="51.7324" onclick="umlload('#geospatials')" stroke="none">geospatials : List&lt;T extends Geospatial&gt;</text>
    </g>
    <g font-family="sans-serif" transform="matrix(0.5055,0,0,0.5055,85.4286,261.3407)">
      <text xml:space="preserve" x="4" y="68.1719" stroke="none">#</text>
      <text xml:space="preserve" x="19" y="69.7012" stroke="none">ComposedGeospatial(Geospatial.Dimension, Geospatial.Type, List&lt;T&gt;)</text>
    </g>
    <g font-family="sans-serif" transform="matrix(0.5055,0,0,0.5055,85.4286,261.3407)">
      <text xml:space="preserve" x="4" y="84.1719" stroke="none">+</text>
      <text xml:space="preserve" x="19" y="85.6699" onclick="umlload('#isEmpty()')" stroke="none">isEmpty() : boolean</text>
    </g>
    <g font-family="sans-serif" transform="matrix(0.5055,0,0,0.5055,85.4286,261.3407)">
      <text xml:space="preserve" x="4" y="100.1719" stroke="none">+</text>
      <text xml:space="preserve" x="19" y="101.6387" onclick="umlload('#iterator()')" stroke="none">iterator() : Iterator&lt;T extends Geospatial&gt;</text>
    </g>
    <g font-family="sans-serif" transform="matrix(0.5055,0,0,0.5055,85.4286,261.3407)">
      <text xml:space="preserve" x="4" y="116.1719" stroke="none">+</text>
      <text xml:space="preserve" x="19" y="117.6074" onclick="umlload('#setSrid(java.lang.Integer)')" stroke="none">setSrid(Integer) : void</text>
    </g>
    <g font-family="sans-serif" transform="matrix(0.5055,0,0,0.5055,85.4286,261.3407)">
      <text xml:space="preserve" x="-163" y="281.1543" onclick="umlload('http://www.yworks.com/')" stroke="none">yWorks UML Doclet</text>
    </g>
    <g stroke-miterlimit="1.45" transform="matrix(0.5055,0,0,0.5055,85.4286,261.3407)" stroke-linecap="butt">
      <path fill="none" d="M239.99 0.0133 L239.99 -69"/>
      <path fill="white" d="M239.99 -84 L233.99 -68 L245.99 -68 Z" stroke="none"/>
      <path fill="none" d="M239.99 -84 L233.99 -68 L245.99 -68 Z"/>
      <path fill="none" stroke-dasharray="6,2" d="M359.985 -0.0229 L359.985 -51 L682.9034 -51 L682.9034 -69"/>
      <path fill="white" stroke-dasharray="6,2" d="M682.9034 -84 L676.9034 -68 L688.9034 -68 Z" stroke="none"/>
      <path fill="none" d="M682.9034 -84 L676.9034 -68 L688.9034 -68 Z"/>
      <path fill="none" d="M-0.0351 16.3574 L-66 16.3574"/>
      <line stroke-linecap="square" transform="matrix(-1,0,0,-1,-66,16.3574)" fill="none" x1="0" x2="-14" y1="0" y2="-4" stroke-miterlimit="10"/>
      <line stroke-linecap="square" transform="matrix(-1,0,0,-1,-66,16.3574)" fill="none" x1="0" x2="-14" y1="0" y2="4" stroke-miterlimit="10"/>
    </g>
    <g stroke-dasharray="6,2" stroke-miterlimit="1.45" transform="matrix(0.5055,0,0,0.5055,85.4286,261.3407)" stroke-linecap="butt">
      <path fill="none" d="M480.0174 11.5664 L545.98 11.5664"/>
      <line stroke-linecap="square" transform="matrix(1,0,0,1,545.98,11.5664)" fill="none" x1="0" x2="-14" y1="0" y2="-4" stroke-dasharray="none" stroke-miterlimit="10"/>
      <line stroke-linecap="square" transform="matrix(1,0,0,1,545.98,11.5664)" fill="none" x1="0" x2="-14" y1="0" y2="4" stroke-dasharray="none" stroke-miterlimit="10"/>
    </g>
    <g stroke-dasharray="6,2" stroke-miterlimit="1.45" transform="matrix(0.5055,0,0,0.5055,85.4286,261.3407)" stroke-linecap="butt">
      <path fill="none" d="M479.955 44.6992 L545.98 44.6992"/>
      <line stroke-linecap="square" transform="matrix(1,0,0,1,545.98,44.6992)" fill="none" x1="0" x2="-14" y1="0" y2="-4" stroke-dasharray="none" stroke-miterlimit="10"/>
      <line stroke-linecap="square" transform="matrix(1,0,0,1,545.98,44.6992)" fill="none" x1="0" x2="-14" y1="0" y2="4" stroke-dasharray="none" stroke-miterlimit="10"/>
    </g>
    <g stroke-dasharray="6,2" stroke-miterlimit="1.45" transform="matrix(0.5055,0,0,0.5055,85.4286,261.3407)" stroke-linecap="butt">
      <path fill="none" d="M479.9874 131.832 L545.98 131.832"/>
      <line stroke-linecap="square" transform="matrix(1,0,0,1,545.98,131.832)" fill="none" x1="0" x2="-14" y1="0" y2="-4" stroke-dasharray="none" stroke-miterlimit="10"/>
      <line stroke-linecap="square" transform="matrix(1,0,0,1,545.98,131.832)" fill="none" x1="0" x2="-14" y1="0" y2="4" stroke-dasharray="none" stroke-miterlimit="10"/>
    </g>
    <g stroke-dasharray="6,2" stroke-miterlimit="1.45" transform="matrix(0.5055,0,0,0.5055,85.4286,261.3407)" stroke-linecap="butt">
      <path fill="none" d="M480.0193 223.7558 L545.98 223.7558"/>
      <line stroke-linecap="square" transform="matrix(1,0,0,1,545.98,223.7558)" fill="none" x1="0" x2="-14" y1="0" y2="-4" stroke-dasharray="none" stroke-miterlimit="10"/>
      <line stroke-linecap="square" transform="matrix(1,0,0,1,545.98,223.7558)" fill="none" x1="0" x2="-14" y1="0" y2="4" stroke-dasharray="none" stroke-miterlimit="10"/>
    </g>
  </g>
</svg>
