<?xml version="1.0" encoding="UTF-8"?><svg xmlns="http://www.w3.org/2000/svg" xmlns:xlink="http://www.w3.org/1999/xlink" fill-opacity="1" color-rendering="auto" color-interpolation="auto" stroke="black" text-rendering="auto" stroke-linecap="square" width="598" stroke-miterlimit="10" stroke-opacity="1" shape-rendering="auto" fill="black" stroke-dasharray="none" font-weight="normal" stroke-width="1" height="598" font-family="'Dialog'" font-style="normal" stroke-linejoin="miter" font-size="12" stroke-dashoffset="0" image-rendering="auto">
  <!--Generated by ySVG-->
  <defs id="genericDefs"/>
  <g>
    <defs id="defs1">
      <clipPath clipPathUnits="userSpaceOnUse" id="clipPath1">
        <path d="M0 0 L598 0 L598 598 L0 598 L0 0 Z"/>
      </clipPath>
      <clipPath clipPathUnits="userSpaceOnUse" id="clipPath2">
        <path d="M507.32 87.1328 L565 87.1328 L565 110.2656 L507.32 110.2656 L507.32 87.1328 Z"/>
      </clipPath>
      <clipPath clipPathUnits="userSpaceOnUse" id="clipPath3">
        <path d="M507.32 120.2656 L560.88 120.2656 L560.88 143.3984 L507.32 143.3984 L507.32 120.2656 Z"/>
      </clipPath>
      <clipPath clipPathUnits="userSpaceOnUse" id="clipPath4">
        <path d="M507.32 0 L637.1 0 L637.1 23.1328 L507.32 23.1328 L507.32 0 Z"/>
      </clipPath>
      <clipPath clipPathUnits="userSpaceOnUse" id="clipPath5">
        <path d="M-130.04 120.2656 L-67.21 120.2656 L-67.21 143.3984 L-130.04 143.3984 L-130.04 120.2656 Z"/>
      </clipPath>
      <clipPath clipPathUnits="userSpaceOnUse" id="clipPath6">
        <path d="M-517.32 0 L-343.25 0 L-343.25 23.1328 L-517.32 23.1328 L-517.32 0 Z"/>
      </clipPath>
      <clipPath clipPathUnits="userSpaceOnUse" id="clipPath7">
        <path d="M-517.32 33.1328 L-386.51 33.1328 L-386.51 56.2656 L-517.32 56.2656 L-517.32 33.1328 Z"/>
      </clipPath>
      <clipPath clipPathUnits="userSpaceOnUse" id="clipPath8">
        <path d="M386.0109 -100.3574 C386.0109 -91.3234 356.0115 -84 319.0054 -84 C281.9994 -84 252 -91.3234 252 -100.3574 C252 -109.3913 281.9994 -116.7147 319.0054 -116.7147 C356.0115 -116.7147 386.0109 -109.3913 386.0109 -100.3574 Z"/>
      </clipPath>
      <clipPath clipPathUnits="userSpaceOnUse" id="clipPath9">
        <path d="M148.32 -107.1328 L206 -107.1328 L206 -84 L148.32 -84 L148.32 -107.1328 Z"/>
      </clipPath>
      <clipPath clipPathUnits="userSpaceOnUse" id="clipPath10">
        <path d="M0 0 L354.32 0 L354.32 233.2188 L0 233.2188 L0 0 Z"/>
      </clipPath>
      <script type="text/ecmascript"><![CDATA[
function umlload(newLocation)
{
if (newLocation.charAt(0) != '#') {
if (newLocation.indexOf("://") > -1) {
window.parent.location.href = newLocation;
} else {
var tmp = window.parent.location.href;
tmp = tmp.substring(0, tmp.lastIndexOf("/") + 1);
window.parent.location.href = tmp.concat(newLocation);
}
} else {
window.parent.location.hash = newLocation;
}
}
]]></script>
    </defs>
    <g fill="rgb(238,238,255)" transform="matrix(0.4191,0,0,0.4191,220.4261,270.7134)" stroke="rgb(238,238,255)">
      <rect width="76.1412" x="499.32" height="17.9688" y="61.1328" stroke="none"/>
    </g>
    <g fill="rgb(166,166,178)" stroke-miterlimit="1.45" transform="matrix(0.4191,0,0,0.4191,220.4261,270.7134)" stroke-linecap="butt" stroke="rgb(166,166,178)">
      <rect fill="none" width="76.1412" x="499.32" height="17.9688" y="61.1328"/>
    </g>
    <g fill="rgb(238,238,255)" transform="matrix(0.4191,0,0,0.4191,220.4261,270.7134)" stroke="rgb(238,238,255)">
      <rect width="79.68" x="499.32" height="72.2969" y="79.1016" stroke="none"/>
    </g>
    <g fill="rgb(166,166,178)" stroke-miterlimit="1.45" transform="matrix(0.4191,0,0,0.4191,220.4261,270.7134)" stroke-linecap="butt" stroke="rgb(166,166,178)">
      <rect fill="none" width="79.68" x="499.32" height="72.2969" y="79.1016"/>
    </g>
    <g font-family="sans-serif" transform="matrix(0.4191,0,0,0.4191,220.4261,270.7134)">
      <text xml:space="preserve" x="505.32" y="74.2715" onclick="umlload('http://docs.oracle.com/javase/6/docs/api/java/lang/package-summary.html')" stroke="none">java.lang</text>
    </g>
    <g fill="rgb(187,187,255)" transform="matrix(0.4191,0,0,0.4191,220.4261,270.7134)" stroke="rgb(187,187,255)">
      <rect x="507.32" y="87.1328" clip-path="url(#clipPath2)" width="57.68" height="23.1328" stroke="none"/>
    </g>
    <g fill="rgb(130,130,178)" stroke-miterlimit="1.45" transform="matrix(0.4191,0,0,0.4191,220.4261,270.7134)" stroke-linecap="butt" stroke="rgb(130,130,178)">
      <rect fill="none" width="57.68" x="507.32" height="23.1328" y="87.1328"/>
    </g>
    <g font-size="13" font-weight="bold" font-family="sans-serif" transform="matrix(0.4191,0,0,0.4191,220.4261,270.7134)">
      <text xml:space="preserve" x="512.16" y="103.1997" onclick="umlload('http://docs.oracle.com/javase/6/docs/api/java/lang/Object.html')" stroke="none">Object</text>
    </g>
    <g fill="rgb(187,187,255)" transform="matrix(0.4191,0,0,0.4191,220.4261,270.7134)" stroke="rgb(187,187,255)">
      <rect x="507.32" y="120.2656" clip-path="url(#clipPath3)" width="53.56" height="23.1328" stroke="none"/>
    </g>
    <g fill="rgb(130,130,178)" stroke-miterlimit="1.45" transform="matrix(0.4191,0,0,0.4191,220.4261,270.7134)" stroke-linecap="butt" stroke="rgb(130,130,178)">
      <rect fill="none" width="53.56" x="507.32" height="23.1328" y="120.2656"/>
    </g>
    <g font-size="13" font-weight="bold" font-family="sans-serif" transform="matrix(0.4191,0,0,0.4191,220.4261,270.7134)">
      <text xml:space="preserve" x="512.1" y="136.3325" onclick="umlload('http://docs.oracle.com/javase/6/docs/api/java/lang/String.html')" stroke="none">String</text>
    </g>
    <g fill="rgb(238,238,255)" transform="matrix(0.4191,0,0,0.4191,220.4261,270.7134)" stroke="rgb(238,238,255)">
      <rect width="400.7766" x="499.32" height="17.9688" y="-26" stroke="none"/>
    </g>
    <g fill="rgb(166,166,178)" stroke-miterlimit="1.45" transform="matrix(0.4191,0,0,0.4191,220.4261,270.7134)" stroke-linecap="butt" stroke="rgb(166,166,178)">
      <rect fill="none" width="400.7766" x="499.32" height="17.9688" y="-26"/>
    </g>
    <g fill="rgb(238,238,255)" transform="matrix(0.4191,0,0,0.4191,220.4261,270.7134)" stroke="rgb(238,238,255)">
      <rect width="400.78" x="499.32" height="39.1641" y="-8.0312" stroke="none"/>
    </g>
    <g fill="rgb(166,166,178)" stroke-miterlimit="1.45" transform="matrix(0.4191,0,0,0.4191,220.4261,270.7134)" stroke-linecap="butt" stroke="rgb(166,166,178)">
      <rect fill="none" width="400.78" x="499.32" height="39.1641" y="-8.0312"/>
    </g>
    <g font-family="sans-serif" transform="matrix(0.4191,0,0,0.4191,220.4261,270.7134)">
      <text xml:space="preserve" x="505.32" y="-12.8613" onclick="umlload('../../../../../../../../com/msopentech/odatajclient/engine/data/metadata/edm/package-summary.html')" stroke="none">com.msopentech.odatajclient.engine.data.metadata.edm</text>
    </g>
    <g fill="rgb(170,170,255)" transform="matrix(0.4191,0,0,0.4191,220.4261,270.7134)" stroke="rgb(170,170,255)">
      <rect x="507.32" y="0" clip-path="url(#clipPath4)" width="129.78" height="23.1328" stroke="none"/>
    </g>
    <g fill="rgb(118,118,178)" stroke-miterlimit="1.45" transform="matrix(0.4191,0,0,0.4191,220.4261,270.7134)" stroke-linecap="butt" stroke="rgb(118,118,178)">
      <rect fill="none" width="129.78" x="507.32" height="23.1328" y="0"/>
    </g>
    <g font-size="13" font-weight="bold" font-family="sans-serif" transform="matrix(0.4191,0,0,0.4191,220.4261,270.7134)">
      <text xml:space="preserve" x="513.21" y="16.0669" onclick="umlload('../../../../../../../../com/msopentech/odatajclient/engine/data/metadata/edm/EdmSimpleType.html')" stroke="none">EdmSimpleType</text>
    </g>
    <g fill="rgb(238,238,255)" transform="matrix(0.4191,0,0,0.4191,220.4261,270.7134)" stroke="rgb(238,238,255)">
      <rect width="76.1412" x="-138.04" height="17.9688" y="94.2656" stroke="none"/>
    </g>
    <g fill="rgb(166,166,178)" stroke-miterlimit="1.45" transform="matrix(0.4191,0,0,0.4191,220.4261,270.7134)" stroke-linecap="butt" stroke="rgb(166,166,178)">
      <rect fill="none" width="76.1412" x="-138.04" height="17.9688" y="94.2656"/>
    </g>
    <g fill="rgb(238,238,255)" transform="matrix(0.4191,0,0,0.4191,220.4261,270.7134)" stroke="rgb(238,238,255)">
      <rect width="79.83" x="-138.04" height="39.1641" y="112.2344" stroke="none"/>
    </g>
    <g fill="rgb(166,166,178)" stroke-miterlimit="1.45" transform="matrix(0.4191,0,0,0.4191,220.4261,270.7134)" stroke-linecap="butt" stroke="rgb(166,166,178)">
      <rect fill="none" width="79.83" x="-138.04" height="39.1641" y="112.2344"/>
    </g>
    <g font-family="sans-serif" transform="matrix(0.4191,0,0,0.4191,220.4261,270.7134)">
      <text xml:space="preserve" x="-132.04" y="107.4043" onclick="umlload('http://docs.oracle.com/javase/6/docs/api/java/lang/package-summary.html')" stroke="none">java.lang</text>
    </g>
    <g fill="rgb(187,187,255)" transform="matrix(0.4191,0,0,0.4191,220.4261,270.7134)" stroke="rgb(187,187,255)">
      <rect x="-130.04" y="120.2656" clip-path="url(#clipPath5)" width="62.83" height="23.1328" stroke="none"/>
    </g>
    <g fill="rgb(130,130,178)" stroke-miterlimit="1.45" transform="matrix(0.4191,0,0,0.4191,220.4261,270.7134)" stroke-linecap="butt" stroke="rgb(130,130,178)">
      <rect fill="none" width="62.83" x="-130.04" height="23.1328" y="120.2656"/>
    </g>
    <g font-size="13" font-weight="bold" font-family="sans-serif" transform="matrix(0.4191,0,0,0.4191,220.4261,270.7134)">
      <text xml:space="preserve" x="-125.125" y="136.3325" onclick="umlload('http://docs.oracle.com/javase/6/docs/api/java/lang/Integer.html')" stroke="none">Integer</text>
    </g>
    <g fill="rgb(238,238,255)" transform="matrix(0.4191,0,0,0.4191,220.4261,270.7134)" stroke="rgb(238,238,255)">
      <rect width="475.0396" x="-525.32" height="17.9688" y="-26" stroke="none"/>
    </g>
    <g fill="rgb(166,166,178)" stroke-miterlimit="1.45" transform="matrix(0.4191,0,0,0.4191,220.4261,270.7134)" stroke-linecap="butt" stroke="rgb(166,166,178)">
      <rect fill="none" width="475.0396" x="-525.32" height="17.9688" y="-26"/>
    </g>
    <g fill="rgb(238,238,255)" transform="matrix(0.4191,0,0,0.4191,220.4261,270.7134)" stroke="rgb(238,238,255)">
      <rect width="475.07" x="-525.32" height="72.2969" y="-8.0312" stroke="none"/>
    </g>
    <g fill="rgb(166,166,178)" stroke-miterlimit="1.45" transform="matrix(0.4191,0,0,0.4191,220.4261,270.7134)" stroke-linecap="butt" stroke="rgb(166,166,178)">
      <rect fill="none" width="475.07" x="-525.32" height="72.2969" y="-8.0312"/>
    </g>
    <g font-family="sans-serif" transform="matrix(0.4191,0,0,0.4191,220.4261,270.7134)">
      <text xml:space="preserve" x="-519.32" y="-12.8613" onclick="umlload('../../../../../../../../com/msopentech/odatajclient/engine/data/metadata/edm/geospatial/package-summary.html')" stroke="none">com.msopentech.odatajclient.engine.data.metadata.edm.geospatial</text>
    </g>
    <g fill="rgb(170,170,255)" transform="matrix(0.4191,0,0,0.4191,220.4261,270.7134)" stroke="rgb(170,170,255)">
      <rect x="-517.32" y="0" clip-path="url(#clipPath6)" width="174.07" height="23.1328" stroke="none"/>
    </g>
    <g fill="rgb(118,118,178)" stroke-miterlimit="1.45" transform="matrix(0.4191,0,0,0.4191,220.4261,270.7134)" stroke-linecap="butt" stroke="rgb(118,118,178)">
      <rect fill="none" width="174.07" x="-517.32" height="23.1328" y="0"/>
    </g>
    <g font-size="13" font-weight="bold" font-family="sans-serif" transform="matrix(0.4191,0,0,0.4191,220.4261,270.7134)">
      <text xml:space="preserve" x="-510.785" y="16.0669" onclick="umlload('../../../../../../../../com/msopentech/odatajclient/engine/data/metadata/edm/geospatial/Geospatial.Dimension.html')" stroke="none">Geospatial.Dimension</text>
    </g>
    <g fill="rgb(170,170,255)" transform="matrix(0.4191,0,0,0.4191,220.4261,270.7134)" stroke="rgb(170,170,255)">
      <rect x="-517.32" y="33.1328" clip-path="url(#clipPath7)" width="130.81" height="23.1328" stroke="none"/>
    </g>
    <g fill="rgb(118,118,178)" stroke-miterlimit="1.45" transform="matrix(0.4191,0,0,0.4191,220.4261,270.7134)" stroke-linecap="butt" stroke="rgb(118,118,178)">
      <rect fill="none" width="130.81" x="-517.32" height="23.1328" y="33.1328"/>
    </g>
    <g font-size="13" font-weight="bold" font-family="sans-serif" transform="matrix(0.4191,0,0,0.4191,220.4261,270.7134)">
      <text xml:space="preserve" x="-511.415" y="49.1997" onclick="umlload('../../../../../../../../com/msopentech/odatajclient/engine/data/metadata/edm/geospatial/Geospatial.Type.html')" stroke="none">Geospatial.Type</text>
    </g>
    <g fill="rgb(238,238,255)" transform="matrix(0.4191,0,0,0.4191,220.4261,270.7134)" stroke="rgb(238,238,255)">
      <rect width="59.1668" x="244" height="17.9688" y="-142.7147" stroke="none"/>
    </g>
    <g fill="rgb(166,166,178)" stroke-miterlimit="1.45" transform="matrix(0.4191,0,0,0.4191,220.4261,270.7134)" stroke-linecap="butt" stroke="rgb(166,166,178)">
      <rect fill="none" width="59.1668" x="244" height="17.9688" y="-142.7147"/>
    </g>
    <g fill="rgb(238,238,255)" transform="matrix(0.4191,0,0,0.4191,220.4261,270.7134)" stroke="rgb(238,238,255)">
      <rect width="150.0109" x="244" height="48.746" y="-124.746" stroke="none"/>
    </g>
    <g fill="rgb(166,166,178)" stroke-miterlimit="1.45" transform="matrix(0.4191,0,0,0.4191,220.4261,270.7134)" stroke-linecap="butt" stroke="rgb(166,166,178)">
      <rect fill="none" width="150.0109" x="244" height="48.746" y="-124.746"/>
    </g>
    <g font-family="sans-serif" transform="matrix(0.4191,0,0,0.4191,220.4261,270.7134)">
      <text xml:space="preserve" x="250" y="-129.5761" onclick="umlload('http://docs.oracle.com/javase/6/docs/api/java/io/package-summary.html')" stroke="none">java.io</text>
    </g>
    <g fill="rgb(221,221,255)" transform="matrix(0.4191,0,0,0.4191,220.4261,270.7134)" stroke="rgb(221,221,255)">
      <rect x="252" y="-116.7147" clip-path="url(#clipPath8)" width="134.0109" height="32.7147" stroke="none"/>
    </g>
    <g fill="rgb(154,154,178)" stroke-miterlimit="1.45" transform="matrix(0.4191,0,0,0.4191,220.4261,270.7134)" stroke-linecap="butt" stroke="rgb(154,154,178)">
      <ellipse rx="67.0054" fill="none" ry="16.3574" cx="319.0054" cy="-100.3574"/>
    </g>
    <g font-style="italic" font-size="13" font-weight="bold" font-family="sans-serif" transform="matrix(0.4191,0,0,0.4191,220.4261,270.7134)">
      <text xml:space="preserve" x="277.0054" y="-95.8569" onclick="umlload('http://docs.oracle.com/javase/6/docs/api/java/io/Serializable.html')" stroke="none">Serializable</text>
    </g>
    <g fill="rgb(238,238,255)" transform="matrix(0.4191,0,0,0.4191,220.4261,270.7134)" stroke="rgb(238,238,255)">
      <rect width="76.1412" x="140.32" height="17.9688" y="-133.1328" stroke="none"/>
    </g>
    <g fill="rgb(166,166,178)" stroke-miterlimit="1.45" transform="matrix(0.4191,0,0,0.4191,220.4261,270.7134)" stroke-linecap="butt" stroke="rgb(166,166,178)">
      <rect fill="none" width="76.1412" x="140.32" height="17.9688" y="-133.1328"/>
    </g>
    <g fill="rgb(238,238,255)" transform="matrix(0.4191,0,0,0.4191,220.4261,270.7134)" stroke="rgb(238,238,255)">
      <rect width="76.1412" x="140.32" height="39.1641" y="-115.1641" stroke="none"/>
    </g>
    <g fill="rgb(166,166,178)" stroke-miterlimit="1.45" transform="matrix(0.4191,0,0,0.4191,220.4261,270.7134)" stroke-linecap="butt" stroke="rgb(166,166,178)">
      <rect fill="none" width="76.1412" x="140.32" height="39.1641" y="-115.1641"/>
    </g>
    <g font-family="sans-serif" transform="matrix(0.4191,0,0,0.4191,220.4261,270.7134)">
      <text xml:space="preserve" x="146.32" y="-119.9941" onclick="umlload('http://docs.oracle.com/javase/6/docs/api/java/lang/package-summary.html')" stroke="none">java.lang</text>
    </g>
    <g fill="rgb(187,187,255)" transform="matrix(0.4191,0,0,0.4191,220.4261,270.7134)" stroke="rgb(187,187,255)">
      <rect x="148.32" y="-107.1328" clip-path="url(#clipPath9)" width="57.68" height="23.1328" stroke="none"/>
    </g>
    <g fill="rgb(130,130,178)" stroke-miterlimit="1.45" transform="matrix(0.4191,0,0,0.4191,220.4261,270.7134)" stroke-linecap="butt" stroke="rgb(130,130,178)">
      <rect fill="none" width="57.68" x="148.32" height="23.1328" y="-107.1328"/>
    </g>
    <g font-size="13" font-weight="bold" font-family="sans-serif" transform="matrix(0.4191,0,0,0.4191,220.4261,270.7134)">
      <text xml:space="preserve" x="153.16" y="-91.0659" onclick="umlload('http://docs.oracle.com/javase/6/docs/api/java/lang/Object.html')" stroke="none">Object</text>
    </g>
    <g fill="rgb(238,238,255)" transform="matrix(0.4191,0,0,0.4191,220.4261,270.7134)" stroke="rgb(238,238,255)">
      <rect width="475.0396" x="-8" height="17.9688" y="-26" stroke="none"/>
    </g>
    <g fill="rgb(166,166,178)" stroke-miterlimit="1.45" transform="matrix(0.4191,0,0,0.4191,220.4261,270.7134)" stroke-linecap="butt" stroke="rgb(166,166,178)">
      <rect fill="none" width="475.0396" x="-8" height="17.9688" y="-26"/>
    </g>
    <g fill="rgb(238,238,255)" transform="matrix(0.4191,0,0,0.4191,220.4261,270.7134)" stroke="rgb(238,238,255)">
      <rect width="475.32" x="-8" height="249.25" y="-8.0312" stroke="none"/>
    </g>
    <g fill="rgb(166,166,178)" stroke-miterlimit="1.45" transform="matrix(0.4191,0,0,0.4191,220.4261,270.7134)" stroke-linecap="butt" stroke="rgb(166,166,178)">
      <rect fill="none" width="475.32" x="-8" height="249.25" y="-8.0312"/>
    </g>
    <g font-family="sans-serif" transform="matrix(0.4191,0,0,0.4191,220.4261,270.7134)">
      <text xml:space="preserve" x="-2" y="-12.8613" onclick="umlload('package-summary.html')" stroke="none">com.msopentech.odatajclient.engine.data.metadata.edm.geospatial</text>
    </g>
    <g fill="rgb(204,204,255)" transform="matrix(0.4191,0,0,0.4191,220.4261,270.7134)" stroke="rgb(204,204,255)">
      <rect x="0" y="0" clip-path="url(#clipPath10)" width="354.32" height="38.5938" stroke="none"/>
      <line clip-path="url(#clipPath10)" fill="none" x1="0" x2="354.32" y1="38.5938" y2="38.5938" stroke="black"/>
      <rect x="0" y="39.5938" clip-path="url(#clipPath10)" width="354.32" height="47.9062" stroke="none"/>
      <line clip-path="url(#clipPath10)" fill="none" x1="0" x2="354.32" y1="87.5" y2="87.5" stroke="black"/>
      <rect x="0" y="88.5" clip-path="url(#clipPath10)" width="354.32" height="15.9688" stroke="none"/>
      <line clip-path="url(#clipPath10)" fill="none" x1="0" x2="354.32" y1="104.4688" y2="104.4688" stroke="black"/>
      <rect x="0" y="105.4688" clip-path="url(#clipPath10)" width="354.32" height="127.75" stroke="none"/>
    </g>
    <g fill="rgb(142,142,178)" stroke-miterlimit="1.45" transform="matrix(0.4191,0,0,0.4191,220.4261,270.7134)" stroke-linecap="butt" stroke="rgb(142,142,178)">
      <rect fill="none" width="354.32" x="0" height="233.2188" y="0"/>
    </g>
    <g font-size="16" font-weight="bold" font-family="sans-serif" transform="matrix(0.4191,0,0,0.4191,220.4261,270.7134)">
      <text xml:space="preserve" x="131.16" y="16.8516" onclick="umlload('#')" stroke="none">Geospatial</text>
    </g>
    <g font-family="sans-serif" transform="matrix(0.4191,0,0,0.4191,220.4261,270.7134)">
      <text xml:space="preserve" x="281.32" y="33.7637" stroke="none">{abstract}</text>
    </g>
    <g font-family="sans-serif" transform="matrix(0.4191,0,0,0.4191,220.4261,270.7134)">
      <text xml:space="preserve" x="4" y="50.1719" stroke="none">#</text>
      <text xml:space="preserve" x="19" y="51.7324" onclick="umlload('#dimension')" stroke="none">dimension : Geospatial.Dimension</text>
    </g>
    <g font-family="sans-serif" transform="matrix(0.4191,0,0,0.4191,220.4261,270.7134)">
      <text xml:space="preserve" x="4" y="66.1719" stroke="none">#</text>
      <text xml:space="preserve" x="19" y="67.7012" onclick="umlload('#srid')" stroke="none">srid : Integer</text>
    </g>
    <g font-family="sans-serif" transform="matrix(0.4191,0,0,0.4191,220.4261,270.7134)">
      <text xml:space="preserve" x="4" y="82.1719" stroke="none">#</text>
      <text xml:space="preserve" x="19" y="83.6699" onclick="umlload('#type')" stroke="none">type : Geospatial.Type</text>
    </g>
    <g font-family="sans-serif" transform="matrix(0.4191,0,0,0.4191,220.4261,270.7134)">
      <text xml:space="preserve" x="4" y="99.1719" stroke="none">#</text>
      <text xml:space="preserve" x="19" y="100.6387" onclick="umlload('#Geospatial(com.msopentech.odatajclient.engine.data.metadata.edm.geospatial.Geospatial.Dimension, com.msopentech.odatajclient.engine.data.metadata.edm.geospatial.Geospatial.Type)')" stroke="none">Geospatial(Geospatial.Dimension, Geospatial.Type)</text>
    </g>
    <g font-family="sans-serif" transform="matrix(0.4191,0,0,0.4191,220.4261,270.7134)">
      <text xml:space="preserve" x="4" y="116.1719" stroke="none">+</text>
      <text xml:space="preserve" x="19" y="117.6074" onclick="umlload('#equals(java.lang.Object)')" stroke="none">equals(Object) : boolean</text>
    </g>
    <g font-family="sans-serif" transform="matrix(0.4191,0,0,0.4191,220.4261,270.7134)">
      <text xml:space="preserve" x="4" y="132.1719" stroke="none">+</text>
      <text xml:space="preserve" x="19" y="133.5762" onclick="umlload('#getDimension()')" stroke="none">getDimension() : Geospatial.Dimension</text>
    </g>
    <g font-family="sans-serif" transform="matrix(0.4191,0,0,0.4191,220.4261,270.7134)">
      <text xml:space="preserve" x="4" y="148.1719" stroke="none">+</text>
      <text xml:space="preserve" x="19" y="149.5449" onclick="umlload('#getEdmSimpleType()')" stroke="none">getEdmSimpleType() : EdmSimpleType</text>
    </g>
    <g font-family="sans-serif" transform="matrix(0.4191,0,0,0.4191,220.4261,270.7134)">
      <text xml:space="preserve" x="4" y="164.1719" stroke="none">+</text>
      <text xml:space="preserve" x="19" y="165.5137" onclick="umlload('#getSrid()')" stroke="none">getSrid() : Integer</text>
    </g>
    <g font-family="sans-serif" transform="matrix(0.4191,0,0,0.4191,220.4261,270.7134)">
      <text xml:space="preserve" x="4" y="180.1719" stroke="none">+</text>
      <text xml:space="preserve" x="19" y="181.4824" onclick="umlload('#getType()')" stroke="none">getType() : Geospatial.Type</text>
    </g>
    <g font-family="sans-serif" transform="matrix(0.4191,0,0,0.4191,220.4261,270.7134)">
      <text xml:space="preserve" x="4" y="196.1719" stroke="none">+</text>
      <text xml:space="preserve" x="19" y="197.4512" onclick="umlload('#hashCode()')" stroke="none">hashCode() : int</text>
    </g>
    <g font-family="sans-serif" transform="matrix(0.4191,0,0,0.4191,220.4261,270.7134)">
      <text xml:space="preserve" x="4" y="212.1719" stroke="none">+</text>
      <text xml:space="preserve" x="19" y="213.4199" onclick="umlload('#setSrid(java.lang.Integer)')" stroke="none">setSrid(Integer) : void</text>
    </g>
    <g font-family="sans-serif" transform="matrix(0.4191,0,0,0.4191,220.4261,270.7134)">
      <text xml:space="preserve" x="4" y="228.1719" stroke="none">+</text>
      <text xml:space="preserve" x="19" y="229.3887" onclick="umlload('#toString()')" stroke="none">toString() : String</text>
    </g>
    <g font-family="sans-serif" transform="matrix(0.4191,0,0,0.4191,220.4261,270.7134)">
      <text xml:space="preserve" x="-520" y="266.1543" onclick="umlload('http://www.yworks.com/')" stroke="none">yWorks UML Doclet</text>
    </g>
    <g stroke-miterlimit="1.45" transform="matrix(0.4191,0,0,0.4191,220.4261,270.7134)" stroke-linecap="butt">
      <path fill="none" d="M177.16 0 L177.16 -69"/>
      <path fill="white" d="M177.16 -84 L171.16 -68 L183.16 -68 Z" stroke="none"/>
      <path fill="none" d="M177.16 -84 L171.16 -68 L183.16 -68 Z"/>
      <path fill="none" stroke-dasharray="6,2" d="M265.74 0.0276 L265.74 -51 L319.0054 -51 L319.0054 -69"/>
      <path fill="white" stroke-dasharray="6,2" d="M319.0054 -84 L313.0054 -68 L325.0054 -68 Z" stroke="none"/>
      <path fill="none" d="M319.0054 -84 L313.0054 -68 L325.0054 -68 Z"/>
      <path fill="none" d="M-0.0238 11.5664 L-343.25 11.5664"/>
      <line stroke-linecap="square" transform="matrix(-1,0,0,-1,-343.25,11.5664)" fill="none" x1="0" x2="-14" y1="0" y2="-4" stroke-miterlimit="10"/>
      <line stroke-linecap="square" transform="matrix(-1,0,0,-1,-343.25,11.5664)" fill="none" x1="0" x2="-14" y1="0" y2="4" stroke-miterlimit="10"/>
    </g>
    <g stroke-miterlimit="1.45" transform="matrix(0.4191,0,0,0.4191,220.4261,270.7134)" stroke-linecap="butt">
      <path fill="none" d="M-0.0361 44.6992 L-386.51 44.6992"/>
      <line stroke-linecap="square" transform="matrix(-1,0,0,-1,-386.51,44.6992)" fill="none" x1="0" x2="-14" y1="0" y2="-4" stroke-miterlimit="10"/>
      <line stroke-linecap="square" transform="matrix(-1,0,0,-1,-386.51,44.6992)" fill="none" x1="0" x2="-14" y1="0" y2="4" stroke-miterlimit="10"/>
    </g>
    <g stroke-miterlimit="1.45" transform="matrix(0.4191,0,0,0.4191,220.4261,270.7134)" stroke-linecap="butt">
      <path fill="none" d="M-0.0197 131.832 L-67.21 131.832"/>
      <line stroke-linecap="square" transform="matrix(-1,0,0,-1,-67.21,131.832)" fill="none" x1="0" x2="-14" y1="0" y2="-4" stroke-miterlimit="10"/>
      <line stroke-linecap="square" transform="matrix(-1,0,0,-1,-67.21,131.832)" fill="none" x1="0" x2="-14" y1="0" y2="4" stroke-miterlimit="10"/>
    </g>
    <g stroke-dasharray="6,2" stroke-miterlimit="1.45" transform="matrix(0.4191,0,0,0.4191,220.4261,270.7134)" stroke-linecap="butt">
      <path fill="none" d="M354.2863 11.5664 L507.32 11.5664"/>
      <line stroke-linecap="square" transform="matrix(1,0,0,1,507.32,11.5664)" fill="none" x1="0" x2="-14" y1="0" y2="-4" stroke-dasharray="none" stroke-miterlimit="10"/>
      <line stroke-linecap="square" transform="matrix(1,0,0,1,507.32,11.5664)" fill="none" x1="0" x2="-14" y1="0" y2="4" stroke-dasharray="none" stroke-miterlimit="10"/>
    </g>
    <g stroke-dasharray="6,2" stroke-miterlimit="1.45" transform="matrix(0.4191,0,0,0.4191,220.4261,270.7134)" stroke-linecap="butt">
      <path fill="none" d="M354.3374 98.6992 L507.32 98.6992"/>
      <line stroke-linecap="square" transform="matrix(1,0,0,1,507.32,98.6992)" fill="none" x1="0" x2="-14" y1="0" y2="-4" stroke-dasharray="none" stroke-miterlimit="10"/>
      <line stroke-linecap="square" transform="matrix(1,0,0,1,507.32,98.6992)" fill="none" x1="0" x2="-14" y1="0" y2="4" stroke-dasharray="none" stroke-miterlimit="10"/>
    </g>
    <g stroke-dasharray="6,2" stroke-miterlimit="1.45" transform="matrix(0.4191,0,0,0.4191,220.4261,270.7134)" stroke-linecap="butt">
      <path fill="none" d="M354.2793 131.832 L507.32 131.832"/>
      <line stroke-linecap="square" transform="matrix(1,0,0,1,507.32,131.832)" fill="none" x1="0" x2="-14" y1="0" y2="-4" stroke-dasharray="none" stroke-miterlimit="10"/>
      <line stroke-linecap="square" transform="matrix(1,0,0,1,507.32,131.832)" fill="none" x1="0" x2="-14" y1="0" y2="4" stroke-dasharray="none" stroke-miterlimit="10"/>
    </g>
  </g>
</svg>
