<?xml version="1.0" encoding="UTF-8"?><svg xmlns="http://www.w3.org/2000/svg" xmlns:xlink="http://www.w3.org/1999/xlink" fill-opacity="1" color-rendering="auto" color-interpolation="auto" stroke="black" text-rendering="auto" stroke-linecap="square" width="598" stroke-miterlimit="10" stroke-opacity="1" shape-rendering="auto" fill="black" stroke-dasharray="none" font-weight="normal" stroke-width="1" height="598" font-family="'Dialog'" font-style="normal" stroke-linejoin="miter" font-size="12" stroke-dashoffset="0" image-rendering="auto">
  <!--Generated by ySVG-->
  <defs id="genericDefs"/>
  <g>
    <defs id="defs1">
      <clipPath clipPathUnits="userSpaceOnUse" id="clipPath1">
        <path d="M0 0 L598 0 L598 598 L0 598 L0 0 Z"/>
      </clipPath>
      <clipPath clipPathUnits="userSpaceOnUse" id="clipPath2">
        <path d="M239.8401 99.1328 L594.1601 99.1328 L594.1601 122.2656 L239.8401 122.2656 L239.8401 99.1328 Z"/>
      </clipPath>
      <clipPath clipPathUnits="userSpaceOnUse" id="clipPath3">
        <path d="M623.0451 26 L712.6551 26 L712.6551 49.1328 L623.0451 49.1328 L623.0451 26 Z"/>
      </clipPath>
      <clipPath clipPathUnits="userSpaceOnUse" id="clipPath4">
        <path d="M8 172.2656 L171.77 172.2656 L171.77 195.3984 L8 195.3984 L8 172.2656 Z"/>
      </clipPath>
      <clipPath clipPathUnits="userSpaceOnUse" id="clipPath5">
        <path d="M221.7701 172.2656 L306.2301 172.2656 L306.2301 195.3984 L221.7701 195.3984 L221.7701 172.2656 Z"/>
      </clipPath>
      <clipPath clipPathUnits="userSpaceOnUse" id="clipPath6">
        <path d="M356.2301 172.2656 L477.7701 172.2656 L477.7701 195.3984 L356.2301 195.3984 L356.2301 172.2656 Z"/>
      </clipPath>
      <clipPath clipPathUnits="userSpaceOnUse" id="clipPath7">
        <path d="M527.7701 172.2656 L612.2301 172.2656 L612.2301 195.3984 L527.7701 195.3984 L527.7701 172.2656 Z"/>
      </clipPath>
      <clipPath clipPathUnits="userSpaceOnUse" id="clipPath8">
        <path d="M662.2301 172.2656 L768.3201 172.2656 L768.3201 195.3984 L662.2301 195.3984 L662.2301 172.2656 Z"/>
      </clipPath>
      <clipPath clipPathUnits="userSpaceOnUse" id="clipPath9">
        <path d="M644.1601 99.1328 L691.5401 99.1328 L691.5401 122.2656 L644.1601 122.2656 L644.1601 99.1328 Z"/>
      </clipPath>
      <clipPath clipPathUnits="userSpaceOnUse" id="clipPath10">
        <path d="M741.5403 99.1328 L810.5503 99.1328 L810.5503 122.2656 L741.5403 122.2656 L741.5403 99.1328 Z"/>
      </clipPath>
      <clipPath clipPathUnits="userSpaceOnUse" id="clipPath11">
        <path d="M8 240.3984 L182.07 240.3984 L182.07 263.5312 L8 263.5312 L8 240.3984 Z"/>
      </clipPath>
      <clipPath clipPathUnits="userSpaceOnUse" id="clipPath12">
        <path d="M227.07 240.3984 L357.88 240.3984 L357.88 263.5312 L227.07 263.5312 L227.07 240.3984 Z"/>
      </clipPath>
      <script type="text/ecmascript"><![CDATA[
function umlload(newLocation)
{
if (newLocation.charAt(0) != '#') {
if (newLocation.indexOf("://") > -1) {
window.parent.location.href = newLocation;
} else {
var tmp = window.parent.location.href;
tmp = tmp.substring(0, tmp.lastIndexOf("/") + 1);
window.parent.location.href = tmp.concat(newLocation);
}
} else {
window.parent.location.hash = newLocation;
}
}
]]></script>
    </defs>
    <g fill="rgb(238,238,255)" transform="matrix(0.7302,0,0,0.7302,0,186.9206)" stroke="rgb(238,238,255)">
      <rect width="475.0396" x="0" height="17.9688" y="0" stroke="none"/>
    </g>
    <g fill="rgb(166,166,178)" stroke-miterlimit="1.45" transform="matrix(0.7302,0,0,0.7302,0,186.9206)" stroke-linecap="butt" stroke="rgb(166,166,178)">
      <rect fill="none" width="475.0396" x="0" height="17.9688" y="0"/>
    </g>
    <g fill="rgb(238,238,255)" transform="matrix(0.7302,0,0,0.7302,0,186.9206)" stroke="rgb(238,238,255)">
      <rect width="818.5503" x="0" height="253.5625" y="17.9688" stroke="none"/>
    </g>
    <g fill="rgb(166,166,178)" stroke-miterlimit="1.45" transform="matrix(0.7302,0,0,0.7302,0,186.9206)" stroke-linecap="butt" stroke="rgb(166,166,178)">
      <rect fill="none" width="818.5503" x="0" height="253.5625" y="17.9688"/>
    </g>
    <g font-family="sans-serif" transform="matrix(0.7302,0,0,0.7302,0,186.9206)">
      <text xml:space="preserve" x="6" y="13.1387" onclick="umlload('#')" stroke="none">com.msopentech.odatajclient.engine.data.metadata.edm.geospatial</text>
    </g>
    <g fill="rgb(204,204,255)" transform="matrix(0.7302,0,0,0.7302,0,186.9206)" stroke="rgb(204,204,255)">
      <rect x="239.8401" y="99.1328" clip-path="url(#clipPath2)" width="354.32" height="23.1328" stroke="none"/>
    </g>
    <g fill="rgb(142,142,178)" stroke-miterlimit="1.45" transform="matrix(0.7302,0,0,0.7302,0,186.9206)" stroke-linecap="butt" stroke="rgb(142,142,178)">
      <rect fill="none" width="354.32" x="239.8401" height="23.1328" y="99.1328"/>
    </g>
    <g font-size="13" font-weight="bold" font-family="sans-serif" transform="matrix(0.7302,0,0,0.7302,0,186.9206)">
      <text xml:space="preserve" x="249.0001" y="115.1997" onclick="umlload('ComposedGeospatial.html')" stroke="none">ComposedGeospatial&lt;T extends Geospatial&gt;</text>
    </g>
    <g fill="rgb(204,204,255)" transform="matrix(0.7302,0,0,0.7302,0,186.9206)" stroke="rgb(204,204,255)">
      <rect x="623.0451" y="26" clip-path="url(#clipPath3)" width="89.61" height="23.1328" stroke="none"/>
    </g>
    <g fill="rgb(142,142,178)" stroke-miterlimit="1.45" transform="matrix(0.7302,0,0,0.7302,0,186.9206)" stroke-linecap="butt" stroke="rgb(142,142,178)">
      <rect fill="none" width="89.61" x="623.0451" height="23.1328" y="26"/>
    </g>
    <g font-size="13" font-weight="bold" font-family="sans-serif" transform="matrix(0.7302,0,0,0.7302,0,186.9206)">
      <text xml:space="preserve" x="628.3501" y="42.0669" onclick="umlload('Geospatial.html')" stroke="none">Geospatial</text>
    </g>
    <g fill="rgb(187,187,255)" transform="matrix(0.7302,0,0,0.7302,0,186.9206)" stroke="rgb(187,187,255)">
      <rect x="8" y="172.2656" clip-path="url(#clipPath4)" width="163.77" height="23.1328" stroke="none"/>
    </g>
    <g fill="rgb(130,130,178)" stroke-miterlimit="1.45" transform="matrix(0.7302,0,0,0.7302,0,186.9206)" stroke-linecap="butt" stroke="rgb(130,130,178)">
      <rect fill="none" width="163.77" x="8" height="23.1328" y="172.2656"/>
    </g>
    <g font-size="13" font-weight="bold" font-family="sans-serif" transform="matrix(0.7302,0,0,0.7302,0,186.9206)">
      <text xml:space="preserve" x="14.385" y="188.3325" onclick="umlload('GeospatialCollection.html')" stroke="none">GeospatialCollection</text>
    </g>
    <g fill="rgb(187,187,255)" transform="matrix(0.7302,0,0,0.7302,0,186.9206)" stroke="rgb(187,187,255)">
      <rect x="221.7701" y="172.2656" clip-path="url(#clipPath5)" width="84.46" height="23.1328" stroke="none"/>
    </g>
    <g fill="rgb(130,130,178)" stroke-miterlimit="1.45" transform="matrix(0.7302,0,0,0.7302,0,186.9206)" stroke-linecap="butt" stroke="rgb(130,130,178)">
      <rect fill="none" width="84.46" x="221.7701" height="23.1328" y="172.2656"/>
    </g>
    <g font-size="13" font-weight="bold" font-family="sans-serif" transform="matrix(0.7302,0,0,0.7302,0,186.9206)">
      <text xml:space="preserve" x="227.0001" y="188.3325" onclick="umlload('LineString.html')" stroke="none">LineString</text>
    </g>
    <g fill="rgb(187,187,255)" transform="matrix(0.7302,0,0,0.7302,0,186.9206)" stroke="rgb(187,187,255)">
      <rect x="356.2301" y="172.2656" clip-path="url(#clipPath6)" width="121.54" height="23.1328" stroke="none"/>
    </g>
    <g fill="rgb(130,130,178)" stroke-miterlimit="1.45" transform="matrix(0.7302,0,0,0.7302,0,186.9206)" stroke-linecap="butt" stroke="rgb(130,130,178)">
      <rect fill="none" width="121.54" x="356.2301" height="23.1328" y="172.2656"/>
    </g>
    <g font-size="13" font-weight="bold" font-family="sans-serif" transform="matrix(0.7302,0,0,0.7302,0,186.9206)">
      <text xml:space="preserve" x="362.0001" y="188.3325" onclick="umlload('MultiLineString.html')" stroke="none">MultiLineString</text>
    </g>
    <g fill="rgb(187,187,255)" transform="matrix(0.7302,0,0,0.7302,0,186.9206)" stroke="rgb(187,187,255)">
      <rect x="527.7701" y="172.2656" clip-path="url(#clipPath7)" width="84.46" height="23.1328" stroke="none"/>
    </g>
    <g fill="rgb(130,130,178)" stroke-miterlimit="1.45" transform="matrix(0.7302,0,0,0.7302,0,186.9206)" stroke-linecap="butt" stroke="rgb(130,130,178)">
      <rect fill="none" width="84.46" x="527.7701" height="23.1328" y="172.2656"/>
    </g>
    <g font-size="13" font-weight="bold" font-family="sans-serif" transform="matrix(0.7302,0,0,0.7302,0,186.9206)">
      <text xml:space="preserve" x="533.0001" y="188.3325" onclick="umlload('MultiPoint.html')" stroke="none">MultiPoint</text>
    </g>
    <g fill="rgb(187,187,255)" transform="matrix(0.7302,0,0,0.7302,0,186.9206)" stroke="rgb(187,187,255)">
      <rect x="662.2301" y="172.2656" clip-path="url(#clipPath8)" width="106.09" height="23.1328" stroke="none"/>
    </g>
    <g fill="rgb(130,130,178)" stroke-miterlimit="1.45" transform="matrix(0.7302,0,0,0.7302,0,186.9206)" stroke-linecap="butt" stroke="rgb(130,130,178)">
      <rect fill="none" width="106.09" x="662.2301" height="23.1328" y="172.2656"/>
    </g>
    <g font-size="13" font-weight="bold" font-family="sans-serif" transform="matrix(0.7302,0,0,0.7302,0,186.9206)">
      <text xml:space="preserve" x="667.7751" y="188.3325" onclick="umlload('MultiPolygon.html')" stroke="none">MultiPolygon</text>
    </g>
    <g fill="rgb(187,187,255)" transform="matrix(0.7302,0,0,0.7302,0,186.9206)" stroke="rgb(187,187,255)">
      <rect x="644.1601" y="99.1328" clip-path="url(#clipPath9)" width="47.38" height="23.1328" stroke="none"/>
    </g>
    <g fill="rgb(130,130,178)" stroke-miterlimit="1.45" transform="matrix(0.7302,0,0,0.7302,0,186.9206)" stroke-linecap="butt" stroke="rgb(130,130,178)">
      <rect fill="none" width="47.38" x="644.1601" height="23.1328" y="99.1328"/>
    </g>
    <g font-size="13" font-weight="bold" font-family="sans-serif" transform="matrix(0.7302,0,0,0.7302,0,186.9206)">
      <text xml:space="preserve" x="648.8501" y="115.1997" onclick="umlload('Point.html')" stroke="none">Point</text>
    </g>
    <g fill="rgb(187,187,255)" transform="matrix(0.7302,0,0,0.7302,0,186.9206)" stroke="rgb(187,187,255)">
      <rect x="741.5403" y="99.1328" clip-path="url(#clipPath10)" width="69.01" height="23.1328" stroke="none"/>
    </g>
    <g fill="rgb(130,130,178)" stroke-miterlimit="1.45" transform="matrix(0.7302,0,0,0.7302,0,186.9206)" stroke-linecap="butt" stroke="rgb(130,130,178)">
      <rect fill="none" width="69.01" x="741.5403" height="23.1328" y="99.1328"/>
    </g>
    <g font-size="13" font-weight="bold" font-family="sans-serif" transform="matrix(0.7302,0,0,0.7302,0,186.9206)">
      <text xml:space="preserve" x="746.5453" y="115.1997" onclick="umlload('Polygon.html')" stroke="none">Polygon</text>
    </g>
    <g fill="rgb(170,170,255)" transform="matrix(0.7302,0,0,0.7302,0,186.9206)" stroke="rgb(170,170,255)">
      <rect x="8" y="240.3984" clip-path="url(#clipPath11)" width="174.07" height="23.1328" stroke="none"/>
    </g>
    <g fill="rgb(118,118,178)" stroke-miterlimit="1.45" transform="matrix(0.7302,0,0,0.7302,0,186.9206)" stroke-linecap="butt" stroke="rgb(118,118,178)">
      <rect fill="none" width="174.07" x="8" height="23.1328" y="240.3984"/>
    </g>
    <g font-size="13" font-weight="bold" font-family="sans-serif" transform="matrix(0.7302,0,0,0.7302,0,186.9206)">
      <text xml:space="preserve" x="14.535" y="256.4653" onclick="umlload('Geospatial.Dimension.html')" stroke="none">Geospatial.Dimension</text>
    </g>
    <g fill="rgb(170,170,255)" transform="matrix(0.7302,0,0,0.7302,0,186.9206)" stroke="rgb(170,170,255)">
      <rect x="227.07" y="240.3984" clip-path="url(#clipPath12)" width="130.81" height="23.1328" stroke="none"/>
    </g>
    <g fill="rgb(118,118,178)" stroke-miterlimit="1.45" transform="matrix(0.7302,0,0,0.7302,0,186.9206)" stroke-linecap="butt" stroke="rgb(118,118,178)">
      <rect fill="none" width="130.81" x="227.07" height="23.1328" y="240.3984"/>
    </g>
    <g font-size="13" font-weight="bold" font-family="sans-serif" transform="matrix(0.7302,0,0,0.7302,0,186.9206)">
      <text xml:space="preserve" x="232.975" y="256.4653" onclick="umlload('Geospatial.Type.html')" stroke="none">Geospatial.Type</text>
    </g>
    <g font-family="sans-serif" transform="matrix(0.7302,0,0,0.7302,0,186.9206)">
      <text xml:space="preserve" x="6" y="296.1543" onclick="umlload('http://www.yworks.com/')" stroke="none">yWorks UML Doclet</text>
    </g>
    <g stroke-miterlimit="1.45" transform="matrix(0.7302,0,0,0.7302,0,186.9206)" stroke-linecap="butt">
      <path fill="none" d="M417.0001 99.1328 L417.0001 74.1328 L667.8501 74.1328 L667.8501 64.1328"/>
      <path fill="white" d="M667.8501 49.1328 L661.8501 65.1328 L673.8501 65.1328 Z" stroke="none"/>
      <path fill="none" d="M667.8501 49.1328 L661.8501 65.1328 L673.8501 65.1328 Z"/>
      <path fill="none" d="M89.885 172.2656 L89.885 147.2656 L417.0001 147.2656 L417.0001 137.2656"/>
      <path fill="white" d="M417.0001 122.2656 L411.0001 138.2656 L423.0001 138.2656 Z" stroke="none"/>
      <path fill="none" d="M417.0001 122.2656 L411.0001 138.2656 L423.0001 138.2656 Z"/>
      <path fill="none" d="M264.0001 172.2656 L264.0001 147.2656 L417.0001 147.2656 L417.0001 137.2656"/>
      <path fill="white" d="M417.0001 122.2656 L411.0001 138.2656 L423.0001 138.2656 Z" stroke="none"/>
      <path fill="none" d="M417.0001 122.2656 L411.0001 138.2656 L423.0001 138.2656 Z"/>
      <path fill="none" d="M417.0001 172.2656 L417.0001 137.2656"/>
      <path fill="white" d="M417.0001 122.2656 L411.0001 138.2656 L423.0001 138.2656 Z" stroke="none"/>
      <path fill="none" d="M417.0001 122.2656 L411.0001 138.2656 L423.0001 138.2656 Z"/>
      <path fill="none" d="M570.0001 172.2656 L570.0001 147.2656 L417.0001 147.2656 L417.0001 137.2656"/>
      <path fill="white" d="M417.0001 122.2656 L411.0001 138.2656 L423.0001 138.2656 Z" stroke="none"/>
      <path fill="none" d="M417.0001 122.2656 L411.0001 138.2656 L423.0001 138.2656 Z"/>
      <path fill="none" d="M715.2751 172.2656 L715.2751 147.2656 L417.0001 147.2656 L417.0001 137.2656"/>
      <path fill="white" d="M417.0001 122.2656 L411.0001 138.2656 L423.0001 138.2656 Z" stroke="none"/>
      <path fill="none" d="M417.0001 122.2656 L411.0001 138.2656 L423.0001 138.2656 Z"/>
      <path fill="none" d="M667.8501 99.1328 L667.8501 64.1328"/>
      <path fill="white" d="M667.8501 49.1328 L661.8501 65.1328 L673.8501 65.1328 Z" stroke="none"/>
      <path fill="none" d="M667.8501 49.1328 L661.8501 65.1328 L673.8501 65.1328 Z"/>
      <path fill="none" d="M776.0453 99.1328 L776.0453 74.1328 L667.8501 74.1328 L667.8501 64.1328"/>
      <path fill="white" d="M667.8501 49.1328 L661.8501 65.1328 L673.8501 65.1328 Z" stroke="none"/>
      <path fill="none" d="M667.8501 49.1328 L661.8501 65.1328 L673.8501 65.1328 Z"/>
    </g>
  </g>
</svg>
