<?xml version="1.0" encoding="UTF-8"?><svg xmlns="http://www.w3.org/2000/svg" xmlns:xlink="http://www.w3.org/1999/xlink" fill-opacity="1" color-rendering="auto" color-interpolation="auto" stroke="black" text-rendering="auto" stroke-linecap="square" width="598" stroke-miterlimit="10" stroke-opacity="1" shape-rendering="auto" fill="black" stroke-dasharray="none" font-weight="normal" stroke-width="1" height="598" font-family="'Dialog'" font-style="normal" stroke-linejoin="miter" font-size="12" stroke-dashoffset="0" image-rendering="auto">
  <!--Generated by ySVG-->
  <defs id="genericDefs"/>
  <g>
    <defs id="defs1">
      <clipPath clipPathUnits="userSpaceOnUse" id="clipPath1">
        <path d="M0 0 L598 0 L598 598 L0 598 L0 0 Z"/>
      </clipPath>
      <clipPath clipPathUnits="userSpaceOnUse" id="clipPath2">
        <path d="M507.32 87.1328 L681.39 87.1328 L681.39 110.2656 L507.32 110.2656 L507.32 87.1328 Z"/>
      </clipPath>
      <clipPath clipPathUnits="userSpaceOnUse" id="clipPath3">
        <path d="M507.32 0 L637.1 0 L637.1 23.1328 L507.32 23.1328 L507.32 0 Z"/>
      </clipPath>
      <clipPath clipPathUnits="userSpaceOnUse" id="clipPath4">
        <path d="M89.095 -107.1328 L178.705 -107.1328 L178.705 -84 L89.095 -84 L89.095 -107.1328 Z"/>
      </clipPath>
      <clipPath clipPathUnits="userSpaceOnUse" id="clipPath5">
        <path d="M0 0 L267.8 0 L267.8 156.375 L0 156.375 L0 0 Z"/>
      </clipPath>
      <script type="text/ecmascript"><![CDATA[
function umlload(newLocation)
{
if (newLocation.charAt(0) != '#') {
if (newLocation.indexOf("://") > -1) {
window.parent.location.href = newLocation;
} else {
var tmp = window.parent.location.href;
tmp = tmp.substring(0, tmp.lastIndexOf("/") + 1);
window.parent.location.href = tmp.concat(newLocation);
}
} else {
window.parent.location.hash = newLocation;
}
}
]]></script>
    </defs>
    <g fill="rgb(238,238,255)" transform="matrix(0.5589,0,0,0.5589,53.0935,280.557)" stroke="rgb(238,238,255)">
      <rect width="475.0396" x="499.32" height="17.9688" y="61.1328" stroke="none"/>
    </g>
    <g fill="rgb(166,166,178)" stroke-miterlimit="1.45" transform="matrix(0.5589,0,0,0.5589,53.0935,280.557)" stroke-linecap="butt" stroke="rgb(166,166,178)">
      <rect fill="none" width="475.0396" x="499.32" height="17.9688" y="61.1328"/>
    </g>
    <g fill="rgb(238,238,255)" transform="matrix(0.5589,0,0,0.5589,53.0935,280.557)" stroke="rgb(238,238,255)">
      <rect width="475.07" x="499.32" height="39.1641" y="79.1016" stroke="none"/>
    </g>
    <g fill="rgb(166,166,178)" stroke-miterlimit="1.45" transform="matrix(0.5589,0,0,0.5589,53.0935,280.557)" stroke-linecap="butt" stroke="rgb(166,166,178)">
      <rect fill="none" width="475.07" x="499.32" height="39.1641" y="79.1016"/>
    </g>
    <g font-family="sans-serif" transform="matrix(0.5589,0,0,0.5589,53.0935,280.557)">
      <text xml:space="preserve" x="505.32" y="74.2715" onclick="umlload('../../../../../../../../com/msopentech/odatajclient/engine/data/metadata/edm/geospatial/package-summary.html')" stroke="none">com.msopentech.odatajclient.engine.data.metadata.edm.geospatial</text>
    </g>
    <g fill="rgb(170,170,255)" transform="matrix(0.5589,0,0,0.5589,53.0935,280.557)" stroke="rgb(170,170,255)">
      <rect x="507.32" y="87.1328" clip-path="url(#clipPath2)" width="174.07" height="23.1328" stroke="none"/>
    </g>
    <g fill="rgb(118,118,178)" stroke-miterlimit="1.45" transform="matrix(0.5589,0,0,0.5589,53.0935,280.557)" stroke-linecap="butt" stroke="rgb(118,118,178)">
      <rect fill="none" width="174.07" x="507.32" height="23.1328" y="87.1328"/>
    </g>
    <g font-size="13" font-weight="bold" font-family="sans-serif" transform="matrix(0.5589,0,0,0.5589,53.0935,280.557)">
      <text xml:space="preserve" x="513.855" y="103.1997" onclick="umlload('../../../../../../../../com/msopentech/odatajclient/engine/data/metadata/edm/geospatial/Geospatial.Dimension.html')" stroke="none">Geospatial.Dimension</text>
    </g>
    <g fill="rgb(238,238,255)" transform="matrix(0.5589,0,0,0.5589,53.0935,280.557)" stroke="rgb(238,238,255)">
      <rect width="400.7766" x="499.32" height="17.9688" y="-26" stroke="none"/>
    </g>
    <g fill="rgb(166,166,178)" stroke-miterlimit="1.45" transform="matrix(0.5589,0,0,0.5589,53.0935,280.557)" stroke-linecap="butt" stroke="rgb(166,166,178)">
      <rect fill="none" width="400.7766" x="499.32" height="17.9688" y="-26"/>
    </g>
    <g fill="rgb(238,238,255)" transform="matrix(0.5589,0,0,0.5589,53.0935,280.557)" stroke="rgb(238,238,255)">
      <rect width="400.78" x="499.32" height="39.1641" y="-8.0312" stroke="none"/>
    </g>
    <g fill="rgb(166,166,178)" stroke-miterlimit="1.45" transform="matrix(0.5589,0,0,0.5589,53.0935,280.557)" stroke-linecap="butt" stroke="rgb(166,166,178)">
      <rect fill="none" width="400.78" x="499.32" height="39.1641" y="-8.0312"/>
    </g>
    <g font-family="sans-serif" transform="matrix(0.5589,0,0,0.5589,53.0935,280.557)">
      <text xml:space="preserve" x="505.32" y="-12.8613" onclick="umlload('../../../../../../../../com/msopentech/odatajclient/engine/data/metadata/edm/package-summary.html')" stroke="none">com.msopentech.odatajclient.engine.data.metadata.edm</text>
    </g>
    <g fill="rgb(170,170,255)" transform="matrix(0.5589,0,0,0.5589,53.0935,280.557)" stroke="rgb(170,170,255)">
      <rect x="507.32" y="0" clip-path="url(#clipPath3)" width="129.78" height="23.1328" stroke="none"/>
    </g>
    <g fill="rgb(118,118,178)" stroke-miterlimit="1.45" transform="matrix(0.5589,0,0,0.5589,53.0935,280.557)" stroke-linecap="butt" stroke="rgb(118,118,178)">
      <rect fill="none" width="129.78" x="507.32" height="23.1328" y="0"/>
    </g>
    <g font-size="13" font-weight="bold" font-family="sans-serif" transform="matrix(0.5589,0,0,0.5589,53.0935,280.557)">
      <text xml:space="preserve" x="513.21" y="16.0669" onclick="umlload('../../../../../../../../com/msopentech/odatajclient/engine/data/metadata/edm/EdmSimpleType.html')" stroke="none">EdmSimpleType</text>
    </g>
    <g fill="rgb(238,238,255)" transform="matrix(0.5589,0,0,0.5589,53.0935,280.557)" stroke="rgb(238,238,255)">
      <rect width="475.0396" x="-94.905" height="17.9688" y="-133.1328" stroke="none"/>
    </g>
    <g fill="rgb(166,166,178)" stroke-miterlimit="1.45" transform="matrix(0.5589,0,0,0.5589,53.0935,280.557)" stroke-linecap="butt" stroke="rgb(166,166,178)">
      <rect fill="none" width="475.0396" x="-94.905" height="17.9688" y="-133.1328"/>
    </g>
    <g fill="rgb(238,238,255)" transform="matrix(0.5589,0,0,0.5589,53.0935,280.557)" stroke="rgb(238,238,255)">
      <rect width="475.61" x="-94.905" height="39.1641" y="-115.1641" stroke="none"/>
    </g>
    <g fill="rgb(166,166,178)" stroke-miterlimit="1.45" transform="matrix(0.5589,0,0,0.5589,53.0935,280.557)" stroke-linecap="butt" stroke="rgb(166,166,178)">
      <rect fill="none" width="475.61" x="-94.905" height="39.1641" y="-115.1641"/>
    </g>
    <g font-family="sans-serif" transform="matrix(0.5589,0,0,0.5589,53.0935,280.557)">
      <text xml:space="preserve" x="-88.905" y="-119.9941" onclick="umlload('../../../../../../../../com/msopentech/odatajclient/engine/data/metadata/edm/geospatial/package-summary.html')" stroke="none">com.msopentech.odatajclient.engine.data.metadata.edm.geospatial</text>
    </g>
    <g fill="rgb(204,204,255)" transform="matrix(0.5589,0,0,0.5589,53.0935,280.557)" stroke="rgb(204,204,255)">
      <rect x="89.095" y="-107.1328" clip-path="url(#clipPath4)" width="89.61" height="23.1328" stroke="none"/>
    </g>
    <g fill="rgb(142,142,178)" stroke-miterlimit="1.45" transform="matrix(0.5589,0,0,0.5589,53.0935,280.557)" stroke-linecap="butt" stroke="rgb(142,142,178)">
      <rect fill="none" width="89.61" x="89.095" height="23.1328" y="-107.1328"/>
    </g>
    <g font-size="13" font-weight="bold" font-family="sans-serif" transform="matrix(0.5589,0,0,0.5589,53.0935,280.557)">
      <text xml:space="preserve" x="94.4" y="-91.0659" onclick="umlload('../../../../../../../../com/msopentech/odatajclient/engine/data/metadata/edm/geospatial/Geospatial.html')" stroke="none">Geospatial</text>
    </g>
    <g fill="rgb(238,238,255)" transform="matrix(0.5589,0,0,0.5589,53.0935,280.557)" stroke="rgb(238,238,255)">
      <rect width="475.0396" x="-8" height="17.9688" y="-26" stroke="none"/>
    </g>
    <g fill="rgb(166,166,178)" stroke-miterlimit="1.45" transform="matrix(0.5589,0,0,0.5589,53.0935,280.557)" stroke-linecap="butt" stroke="rgb(166,166,178)">
      <rect fill="none" width="475.0396" x="-8" height="17.9688" y="-26"/>
    </g>
    <g fill="rgb(238,238,255)" transform="matrix(0.5589,0,0,0.5589,53.0935,280.557)" stroke="rgb(238,238,255)">
      <rect width="475.0396" x="-8" height="172.4062" y="-8.0312" stroke="none"/>
    </g>
    <g fill="rgb(166,166,178)" stroke-miterlimit="1.45" transform="matrix(0.5589,0,0,0.5589,53.0935,280.557)" stroke-linecap="butt" stroke="rgb(166,166,178)">
      <rect fill="none" width="475.0396" x="-8" height="172.4062" y="-8.0312"/>
    </g>
    <g font-family="sans-serif" transform="matrix(0.5589,0,0,0.5589,53.0935,280.557)">
      <text xml:space="preserve" x="-2" y="-12.8613" onclick="umlload('package-summary.html')" stroke="none">com.msopentech.odatajclient.engine.data.metadata.edm.geospatial</text>
    </g>
    <g fill="rgb(187,187,255)" transform="matrix(0.5589,0,0,0.5589,53.0935,280.557)" stroke="rgb(187,187,255)">
      <rect x="0" y="0" clip-path="url(#clipPath5)" width="267.8" height="26.625" stroke="none"/>
      <line clip-path="url(#clipPath5)" fill="none" x1="0" x2="267.8" y1="26.625" y2="26.625" stroke="black"/>
      <rect x="0" y="27.625" clip-path="url(#clipPath5)" width="267.8" height="15.9688" stroke="none"/>
      <line clip-path="url(#clipPath5)" fill="none" x1="0" x2="267.8" y1="43.5938" y2="43.5938" stroke="black"/>
      <rect x="0" y="44.5938" clip-path="url(#clipPath5)" width="267.8" height="111.7812" stroke="none"/>
    </g>
    <g fill="rgb(130,130,178)" stroke-miterlimit="1.45" transform="matrix(0.5589,0,0,0.5589,53.0935,280.557)" stroke-linecap="butt" stroke="rgb(130,130,178)">
      <rect fill="none" width="267.8" x="0" height="156.375" y="0"/>
    </g>
    <g font-size="16" font-weight="bold" font-family="sans-serif" transform="matrix(0.5589,0,0,0.5589,53.0935,280.557)">
      <text xml:space="preserve" x="110.9" y="18.8516" onclick="umlload('#')" stroke="none">Point</text>
    </g>
    <g font-family="sans-serif" transform="matrix(0.5589,0,0,0.5589,53.0935,280.557)">
      <text xml:space="preserve" x="4" y="38.1719" stroke="none">+</text>
      <text xml:space="preserve" x="19" y="39.7637" onclick="umlload('#Point(com.msopentech.odatajclient.engine.data.metadata.edm.geospatial.Geospatial.Dimension)')" stroke="none">Point(Geospatial.Dimension)</text>
    </g>
    <g font-family="sans-serif" transform="matrix(0.5589,0,0,0.5589,53.0935,280.557)">
      <text xml:space="preserve" x="4" y="55.1719" stroke="none">+</text>
      <text xml:space="preserve" x="19" y="56.7324" onclick="umlload('#getEdmSimpleType()')" stroke="none">getEdmSimpleType() : EdmSimpleType</text>
    </g>
    <g font-family="sans-serif" transform="matrix(0.5589,0,0,0.5589,53.0935,280.557)">
      <text xml:space="preserve" x="4" y="71.1719" stroke="none">+</text>
      <text xml:space="preserve" x="19" y="72.7012" onclick="umlload('#getX()')" stroke="none">getX() : double</text>
    </g>
    <g font-family="sans-serif" transform="matrix(0.5589,0,0,0.5589,53.0935,280.557)">
      <text xml:space="preserve" x="4" y="87.1719" stroke="none">+</text>
      <text xml:space="preserve" x="19" y="88.6699" onclick="umlload('#getY()')" stroke="none">getY() : double</text>
    </g>
    <g font-family="sans-serif" transform="matrix(0.5589,0,0,0.5589,53.0935,280.557)">
      <text xml:space="preserve" x="4" y="103.1719" stroke="none">+</text>
      <text xml:space="preserve" x="19" y="104.6387" onclick="umlload('#getZ()')" stroke="none">getZ() : double</text>
    </g>
    <g font-family="sans-serif" transform="matrix(0.5589,0,0,0.5589,53.0935,280.557)">
      <text xml:space="preserve" x="4" y="119.1719" stroke="none">+</text>
      <text xml:space="preserve" x="19" y="120.6074" onclick="umlload('#setX(double)')" stroke="none">setX(double) : void</text>
    </g>
    <g font-family="sans-serif" transform="matrix(0.5589,0,0,0.5589,53.0935,280.557)">
      <text xml:space="preserve" x="4" y="135.1719" stroke="none">+</text>
      <text xml:space="preserve" x="19" y="136.5762" onclick="umlload('#setY(double)')" stroke="none">setY(double) : void</text>
    </g>
    <g font-family="sans-serif" transform="matrix(0.5589,0,0,0.5589,53.0935,280.557)">
      <text xml:space="preserve" x="4" y="151.1719" stroke="none">+</text>
      <text xml:space="preserve" x="19" y="152.5449" onclick="umlload('#setZ(double)')" stroke="none">setZ(double) : void</text>
    </g>
    <g font-family="sans-serif" transform="matrix(0.5589,0,0,0.5589,53.0935,280.557)">
      <text xml:space="preserve" x="-89" y="189.1543" onclick="umlload('http://www.yworks.com/')" stroke="none">yWorks UML Doclet</text>
    </g>
    <g stroke-miterlimit="1.45" transform="matrix(0.5589,0,0,0.5589,53.0935,280.557)" stroke-linecap="butt">
      <path fill="none" d="M133.9 0 L133.9 -69"/>
      <path fill="white" d="M133.9 -84 L127.9 -68 L139.9 -68 Z" stroke="none"/>
      <path fill="none" d="M133.9 -84 L127.9 -68 L139.9 -68 Z"/>
      <path fill="none" stroke-dasharray="6,2" d="M267.7953 11.5664 L507.32 11.5664"/>
      <line stroke-linecap="square" transform="matrix(1,0,0,1,507.32,11.5664)" fill="none" x1="0" x2="-14" y1="0" y2="-4" stroke-miterlimit="10"/>
      <line stroke-linecap="square" transform="matrix(1,0,0,1,507.32,11.5664)" fill="none" x1="0" x2="-14" y1="0" y2="4" stroke-miterlimit="10"/>
    </g>
    <g stroke-dasharray="6,2" stroke-miterlimit="1.45" transform="matrix(0.5589,0,0,0.5589,53.0935,280.557)" stroke-linecap="butt">
      <path fill="none" d="M267.8153 98.6992 L507.32 98.6992"/>
      <line stroke-linecap="square" transform="matrix(1,0,0,1,507.32,98.6992)" fill="none" x1="0" x2="-14" y1="0" y2="-4" stroke-dasharray="none" stroke-miterlimit="10"/>
      <line stroke-linecap="square" transform="matrix(1,0,0,1,507.32,98.6992)" fill="none" x1="0" x2="-14" y1="0" y2="4" stroke-dasharray="none" stroke-miterlimit="10"/>
    </g>
  </g>
</svg>
