<?xml version="1.0" encoding="UTF-8"?><svg xmlns="http://www.w3.org/2000/svg" xmlns:xlink="http://www.w3.org/1999/xlink" fill-opacity="1" color-rendering="auto" color-interpolation="auto" stroke="black" text-rendering="auto" stroke-linecap="square" width="598" stroke-miterlimit="10" stroke-opacity="1" shape-rendering="auto" fill="black" stroke-dasharray="none" font-weight="normal" stroke-width="1" height="598" font-family="'Dialog'" font-style="normal" stroke-linejoin="miter" font-size="12" stroke-dashoffset="0" image-rendering="auto">
  <!--Generated by ySVG-->
  <defs id="genericDefs"/>
  <g>
    <defs id="defs1">
      <clipPath clipPathUnits="userSpaceOnUse" id="clipPath1">
        <path d="M0 0 L598 0 L598 598 L0 598 L0 0 Z"/>
      </clipPath>
      <clipPath clipPathUnits="userSpaceOnUse" id="clipPath2">
        <path d="M542.34 0 L595.9 0 L595.9 23.1328 L542.34 23.1328 L542.34 0 Z"/>
      </clipPath>
      <clipPath clipPathUnits="userSpaceOnUse" id="clipPath3">
        <path d="M-552.34 0 L-491.57 0 L-491.57 23.1328 L-552.34 23.1328 L-552.34 0 Z"/>
      </clipPath>
      <clipPath clipPathUnits="userSpaceOnUse" id="clipPath4">
        <path d="M28.325 -107.1328 L275.525 -107.1328 L275.525 -84 L28.325 -84 L28.325 -107.1328 Z"/>
      </clipPath>
      <clipPath clipPathUnits="userSpaceOnUse" id="clipPath5">
        <path d="M0 0 L303.85 0 L303.85 104.4688 L0 104.4688 L0 0 Z"/>
      </clipPath>
      <script type="text/ecmascript"><![CDATA[
function umlload(newLocation)
{
if (newLocation.charAt(0) != '#') {
if (newLocation.indexOf("://") > -1) {
window.parent.location.href = newLocation;
} else {
var tmp = window.parent.location.href;
tmp = tmp.substring(0, tmp.lastIndexOf("/") + 1);
window.parent.location.href = tmp.concat(newLocation);
}
} else {
window.parent.location.hash = newLocation;
}
}
]]></script>
    </defs>
    <g fill="rgb(238,238,255)" transform="matrix(0.5089,0,0,0.5089,285.5132,295.183)" stroke="rgb(238,238,255)">
      <rect width="76.1412" x="534.34" height="17.9688" y="-26" stroke="none"/>
    </g>
    <g fill="rgb(166,166,178)" stroke-miterlimit="1.45" transform="matrix(0.5089,0,0,0.5089,285.5132,295.183)" stroke-linecap="butt" stroke="rgb(166,166,178)">
      <rect fill="none" width="76.1412" x="534.34" height="17.9688" y="-26"/>
    </g>
    <g fill="rgb(238,238,255)" transform="matrix(0.5089,0,0,0.5089,285.5132,295.183)" stroke="rgb(238,238,255)">
      <rect width="79.56" x="534.34" height="39.1641" y="-8.0312" stroke="none"/>
    </g>
    <g fill="rgb(166,166,178)" stroke-miterlimit="1.45" transform="matrix(0.5089,0,0,0.5089,285.5132,295.183)" stroke-linecap="butt" stroke="rgb(166,166,178)">
      <rect fill="none" width="79.56" x="534.34" height="39.1641" y="-8.0312"/>
    </g>
    <g font-family="sans-serif" transform="matrix(0.5089,0,0,0.5089,285.5132,295.183)">
      <text xml:space="preserve" x="540.34" y="-12.8613" onclick="umlload('http://docs.oracle.com/javase/6/docs/api/java/lang/package-summary.html')" stroke="none">java.lang</text>
    </g>
    <g fill="rgb(187,187,255)" transform="matrix(0.5089,0,0,0.5089,285.5132,295.183)" stroke="rgb(187,187,255)">
      <rect x="542.34" y="0" clip-path="url(#clipPath2)" width="53.56" height="23.1328" stroke="none"/>
    </g>
    <g fill="rgb(130,130,178)" stroke-miterlimit="1.45" transform="matrix(0.5089,0,0,0.5089,285.5132,295.183)" stroke-linecap="butt" stroke="rgb(130,130,178)">
      <rect fill="none" width="53.56" x="542.34" height="23.1328" y="0"/>
    </g>
    <g font-size="13" font-weight="bold" font-family="sans-serif" transform="matrix(0.5089,0,0,0.5089,285.5132,295.183)">
      <text xml:space="preserve" x="547.12" y="16.0669" onclick="umlload('http://docs.oracle.com/javase/6/docs/api/java/lang/String.html')" stroke="none">String</text>
    </g>
    <g fill="rgb(238,238,255)" transform="matrix(0.5089,0,0,0.5089,285.5132,295.183)" stroke="rgb(238,238,255)">
      <rect width="511.1102" x="-560.34" height="17.9688" y="-26" stroke="none"/>
    </g>
    <g fill="rgb(166,166,178)" stroke-miterlimit="1.45" transform="matrix(0.5089,0,0,0.5089,285.5132,295.183)" stroke-linecap="butt" stroke="rgb(166,166,178)">
      <rect fill="none" width="511.1102" x="-560.34" height="17.9688" y="-26"/>
    </g>
    <g fill="rgb(238,238,255)" transform="matrix(0.5089,0,0,0.5089,285.5132,295.183)" stroke="rgb(238,238,255)">
      <rect width="511.1102" x="-560.34" height="39.1641" y="-8.0312" stroke="none"/>
    </g>
    <g fill="rgb(166,166,178)" stroke-miterlimit="1.45" transform="matrix(0.5089,0,0,0.5089,285.5132,295.183)" stroke-linecap="butt" stroke="rgb(166,166,178)">
      <rect fill="none" width="511.1102" x="-560.34" height="39.1641" y="-8.0312"/>
    </g>
    <g font-family="sans-serif" transform="matrix(0.5089,0,0,0.5089,285.5132,295.183)">
      <text xml:space="preserve" x="-554.34" y="-12.8613" onclick="umlload('../../../../../../../../com/msopentech/odatajclient/engine/data/metadata/edm/codegeneration/package-summary.html')" stroke="none">com.msopentech.odatajclient.engine.data.metadata.edm.codegeneration</text>
    </g>
    <g fill="rgb(170,170,255)" transform="matrix(0.5089,0,0,0.5089,285.5132,295.183)" stroke="rgb(170,170,255)">
      <rect x="-552.34" y="0" clip-path="url(#clipPath3)" width="60.77" height="23.1328" stroke="none"/>
    </g>
    <g fill="rgb(118,118,178)" stroke-miterlimit="1.45" transform="matrix(0.5089,0,0,0.5089,285.5132,295.183)" stroke-linecap="butt" stroke="rgb(118,118,178)">
      <rect fill="none" width="60.77" x="-552.34" height="23.1328" y="0"/>
    </g>
    <g font-size="13" font-weight="bold" font-family="sans-serif" transform="matrix(0.5089,0,0,0.5089,285.5132,295.183)">
      <text xml:space="preserve" x="-547.455" y="16.0669" onclick="umlload('../../../../../../../../com/msopentech/odatajclient/engine/data/metadata/edm/codegeneration/Access.html')" stroke="none">Access</text>
    </g>
    <g fill="rgb(238,238,255)" transform="matrix(0.5089,0,0,0.5089,285.5132,295.183)" stroke="rgb(238,238,255)">
      <rect width="76.1412" x="20.325" height="17.9688" y="-133.1328" stroke="none"/>
    </g>
    <g fill="rgb(166,166,178)" stroke-miterlimit="1.45" transform="matrix(0.5089,0,0,0.5089,285.5132,295.183)" stroke-linecap="butt" stroke="rgb(166,166,178)">
      <rect fill="none" width="76.1412" x="20.325" height="17.9688" y="-133.1328"/>
    </g>
    <g fill="rgb(238,238,255)" transform="matrix(0.5089,0,0,0.5089,285.5132,295.183)" stroke="rgb(238,238,255)">
      <rect width="263.2" x="20.325" height="39.1641" y="-115.1641" stroke="none"/>
    </g>
    <g fill="rgb(166,166,178)" stroke-miterlimit="1.45" transform="matrix(0.5089,0,0,0.5089,285.5132,295.183)" stroke-linecap="butt" stroke="rgb(166,166,178)">
      <rect fill="none" width="263.2" x="20.325" height="39.1641" y="-115.1641"/>
    </g>
    <g font-family="sans-serif" transform="matrix(0.5089,0,0,0.5089,285.5132,295.183)">
      <text xml:space="preserve" x="26.325" y="-119.9941" onclick="umlload('http://docs.oracle.com/javase/6/docs/api/java/lang/package-summary.html')" stroke="none">java.lang</text>
    </g>
    <g fill="rgb(204,204,255)" transform="matrix(0.5089,0,0,0.5089,285.5132,295.183)" stroke="rgb(204,204,255)">
      <rect x="28.325" y="-107.1328" clip-path="url(#clipPath4)" width="247.2" height="23.1328" stroke="none"/>
    </g>
    <g fill="rgb(142,142,178)" stroke-miterlimit="1.45" transform="matrix(0.5089,0,0,0.5089,285.5132,295.183)" stroke-linecap="butt" stroke="rgb(142,142,178)">
      <rect fill="none" width="247.2" x="28.325" height="23.1328" y="-107.1328"/>
    </g>
    <g font-size="13" font-weight="bold" font-family="sans-serif" transform="matrix(0.5089,0,0,0.5089,285.5132,295.183)">
      <text xml:space="preserve" x="35.925" y="-91.0659" onclick="umlload('http://docs.oracle.com/javase/6/docs/api/java/lang/Enum.html')" stroke="none">Enum&lt;PublicOrInternalAccess&gt;</text>
    </g>
    <g fill="rgb(238,238,255)" transform="matrix(0.5089,0,0,0.5089,285.5132,295.183)" stroke="rgb(238,238,255)">
      <rect width="511.1102" x="-8" height="17.9688" y="-26" stroke="none"/>
    </g>
    <g fill="rgb(166,166,178)" stroke-miterlimit="1.45" transform="matrix(0.5089,0,0,0.5089,285.5132,295.183)" stroke-linecap="butt" stroke="rgb(166,166,178)">
      <rect fill="none" width="511.1102" x="-8" height="17.9688" y="-26"/>
    </g>
    <g fill="rgb(238,238,255)" transform="matrix(0.5089,0,0,0.5089,285.5132,295.183)" stroke="rgb(238,238,255)">
      <rect width="511.1102" x="-8" height="120.5" y="-8.0312" stroke="none"/>
    </g>
    <g fill="rgb(166,166,178)" stroke-miterlimit="1.45" transform="matrix(0.5089,0,0,0.5089,285.5132,295.183)" stroke-linecap="butt" stroke="rgb(166,166,178)">
      <rect fill="none" width="511.1102" x="-8" height="120.5" y="-8.0312"/>
    </g>
    <g font-family="sans-serif" transform="matrix(0.5089,0,0,0.5089,285.5132,295.183)">
      <text xml:space="preserve" x="-2" y="-12.8613" onclick="umlload('package-summary.html')" stroke="none">com.msopentech.odatajclient.engine.data.metadata.edm.codegeneration</text>
    </g>
    <g fill="rgb(170,170,255)" transform="matrix(0.5089,0,0,0.5089,285.5132,295.183)" stroke="rgb(170,170,255)">
      <rect x="0" y="0" clip-path="url(#clipPath5)" width="303.85" height="38.5938" stroke="none"/>
      <line clip-path="url(#clipPath5)" fill="none" x1="0" x2="303.85" y1="38.5938" y2="38.5938" stroke="black"/>
      <line clip-path="url(#clipPath5)" x1="0" x2="303.85" y1="39.5938" y2="39.5938" stroke="none"/>
      <line clip-path="url(#clipPath5)" fill="none" x1="0" x2="303.85" y1="39.5938" y2="39.5938" stroke="black"/>
      <rect x="0" y="40.5938" clip-path="url(#clipPath5)" width="303.85" height="63.875" stroke="none"/>
    </g>
    <g fill="rgb(118,118,178)" stroke-miterlimit="1.45" transform="matrix(0.5089,0,0,0.5089,285.5132,295.183)" stroke-linecap="butt" stroke="rgb(118,118,178)">
      <rect fill="none" width="303.85" x="0" height="104.4688" y="0"/>
    </g>
    <g font-size="16" font-weight="bold" font-family="sans-serif" transform="matrix(0.5089,0,0,0.5089,285.5132,295.183)">
      <text xml:space="preserve" x="48.925" y="32.8203" onclick="umlload('#')" stroke="none">PublicOrInternalAccess</text>
    </g>
    <g font-family="sans-serif" transform="matrix(0.5089,0,0,0.5089,285.5132,295.183)">
      <text xml:space="preserve" x="127.425" y="13.1387" stroke="none">«enum»</text>
    </g>
    <g font-family="sans-serif" transform="matrix(0.5089,0,0,0.5089,285.5132,295.183)">
      <text xml:space="preserve" x="4" y="51.1719" stroke="none">+</text>
      <text xml:space="preserve" x="19" y="52.7324" onclick="umlload('#fromValue(com.msopentech.odatajclient.engine.data.metadata.edm.codegeneration.Access)')" stroke="none">fromValue(Access) : PublicOrInternalAccess</text>
      <line y2="55.5625" fill="none" x1="19" x2="291" y1="55.5625"/>
    </g>
    <g font-family="sans-serif" transform="matrix(0.5089,0,0,0.5089,285.5132,295.183)">
      <text xml:space="preserve" x="4" y="67.1719" stroke="none">+</text>
      <text xml:space="preserve" x="19" y="68.7012" onclick="umlload('#value()')" stroke="none">value() : Access</text>
    </g>
    <g font-family="sans-serif" transform="matrix(0.5089,0,0,0.5089,285.5132,295.183)">
      <text xml:space="preserve" x="4" y="83.1719" stroke="none">+</text>
      <text xml:space="preserve" x="19" y="84.6699" onclick="umlload('#valueOf(java.lang.String)')" stroke="none">valueOf(String) : PublicOrInternalAccess</text>
      <line y2="87.5" fill="none" x1="19" x2="267" y1="87.5"/>
    </g>
    <g font-family="sans-serif" transform="matrix(0.5089,0,0,0.5089,285.5132,295.183)">
      <text xml:space="preserve" x="4" y="99.1719" stroke="none">+</text>
      <text xml:space="preserve" x="19" y="100.6387" onclick="umlload('#values()')" stroke="none">values() : PublicOrInternalAccess[]</text>
      <line y2="103.4688" fill="none" x1="19" x2="234" y1="103.4688"/>
    </g>
    <g font-family="sans-serif" transform="matrix(0.5089,0,0,0.5089,285.5132,295.183)">
      <text xml:space="preserve" x="-555" y="137.1543" onclick="umlload('http://www.yworks.com/')" stroke="none">yWorks UML Doclet</text>
    </g>
    <g stroke-miterlimit="1.45" transform="matrix(0.5089,0,0,0.5089,285.5132,295.183)" stroke-linecap="butt">
      <path fill="none" d="M151.925 0 L151.925 -69"/>
      <path fill="white" d="M151.925 -84 L145.925 -68 L157.925 -68 Z" stroke="none"/>
      <path fill="none" d="M151.925 -84 L145.925 -68 L157.925 -68 Z"/>
      <path fill="none" d="M0.0305 11.5664 L-491.57 11.5664"/>
      <line stroke-linecap="square" transform="matrix(-1,0,0,-1,-491.57,11.5664)" fill="none" x1="0" x2="-14" y1="0" y2="-4" stroke-miterlimit="10"/>
      <line stroke-linecap="square" transform="matrix(-1,0,0,-1,-491.57,11.5664)" fill="none" x1="0" x2="-14" y1="0" y2="4" stroke-miterlimit="10"/>
    </g>
    <g stroke-dasharray="6,2" stroke-miterlimit="1.45" transform="matrix(0.5089,0,0,0.5089,285.5132,295.183)" stroke-linecap="butt">
      <path fill="none" d="M303.8661 11.5664 L542.34 11.5664"/>
      <line stroke-linecap="square" transform="matrix(1,0,0,1,542.34,11.5664)" fill="none" x1="0" x2="-14" y1="0" y2="-4" stroke-dasharray="none" stroke-miterlimit="10"/>
      <line stroke-linecap="square" transform="matrix(1,0,0,1,542.34,11.5664)" fill="none" x1="0" x2="-14" y1="0" y2="4" stroke-dasharray="none" stroke-miterlimit="10"/>
    </g>
  </g>
</svg>
