<?xml version="1.0" encoding="UTF-8"?><svg xmlns="http://www.w3.org/2000/svg" xmlns:xlink="http://www.w3.org/1999/xlink" fill-opacity="1" color-rendering="auto" color-interpolation="auto" stroke="black" text-rendering="auto" stroke-linecap="square" width="598" stroke-miterlimit="10" stroke-opacity="1" shape-rendering="auto" fill="black" stroke-dasharray="none" font-weight="normal" stroke-width="1" height="598" font-family="'Dialog'" font-style="normal" stroke-linejoin="miter" font-size="12" stroke-dashoffset="0" image-rendering="auto">
  <!--Generated by ySVG-->
  <defs id="genericDefs"/>
  <g>
    <defs id="defs1">
      <clipPath clipPathUnits="userSpaceOnUse" id="clipPath1">
        <path d="M0 0 L598 0 L598 598 L0 598 L0 0 Z"/>
      </clipPath>
      <clipPath clipPathUnits="userSpaceOnUse" id="clipPath2">
        <path d="M516.1435 -100.3574 C516.1435 -91.3234 478.9704 -84 433.115 -84 C387.2596 -84 350.0865 -91.3234 350.0865 -100.3574 C350.0865 -109.3913 387.2596 -116.7147 433.115 -116.7147 C478.9704 -116.7147 516.1435 -109.3913 516.1435 -100.3574 Z"/>
      </clipPath>
      <clipPath clipPathUnits="userSpaceOnUse" id="clipPath3">
        <path d="M0 0 L866.23 0 L866.23 56.5625 L0 56.5625 L0 0 Z"/>
      </clipPath>
      <script type="text/ecmascript"><![CDATA[
function umlload(newLocation)
{
if (newLocation.charAt(0) != '#') {
if (newLocation.indexOf("://") > -1) {
window.parent.location.href = newLocation;
} else {
var tmp = window.parent.location.href;
tmp = tmp.substring(0, tmp.lastIndexOf("/") + 1);
window.parent.location.href = tmp.concat(newLocation);
}
} else {
window.parent.location.hash = newLocation;
}
}
]]></script>
    </defs>
    <g fill="rgb(238,238,255)" transform="matrix(0.6772,0,0,0.6772,5.4179,313.5606)" stroke="rgb(238,238,255)">
      <rect width="425.1773" x="229.0865" height="17.9688" y="-142.7147" stroke="none"/>
    </g>
    <g fill="rgb(166,166,178)" stroke-miterlimit="1.45" transform="matrix(0.6772,0,0,0.6772,5.4179,313.5606)" stroke-linecap="butt" stroke="rgb(166,166,178)">
      <rect fill="none" width="425.1773" x="229.0865" height="17.9688" y="-142.7147"/>
    </g>
    <g fill="rgb(238,238,255)" transform="matrix(0.6772,0,0,0.6772,5.4179,313.5606)" stroke="rgb(238,238,255)">
      <rect width="425.1773" x="229.0865" height="48.746" y="-124.746" stroke="none"/>
    </g>
    <g fill="rgb(166,166,178)" stroke-miterlimit="1.45" transform="matrix(0.6772,0,0,0.6772,5.4179,313.5606)" stroke-linecap="butt" stroke="rgb(166,166,178)">
      <rect fill="none" width="425.1773" x="229.0865" height="48.746" y="-124.746"/>
    </g>
    <g font-family="sans-serif" transform="matrix(0.6772,0,0,0.6772,5.4179,313.5606)">
      <text xml:space="preserve" x="235.0865" y="-129.5761" onclick="umlload('../../../../../../../com/msopentech/odatajclient/engine/communication/request/package-summary.html')" stroke="none">com.msopentech.odatajclient.engine.communication.request</text>
    </g>
    <g fill="rgb(221,221,255)" transform="matrix(0.6772,0,0,0.6772,5.4179,313.5606)" stroke="rgb(221,221,255)">
      <rect x="350.0865" y="-116.7147" clip-path="url(#clipPath2)" width="166.057" height="32.7147" stroke="none"/>
    </g>
    <g fill="rgb(154,154,178)" stroke-miterlimit="1.45" transform="matrix(0.6772,0,0,0.6772,5.4179,313.5606)" stroke-linecap="butt" stroke="rgb(154,154,178)">
      <ellipse rx="83.0285" fill="none" ry="16.3574" cx="433.115" cy="-100.3574"/>
    </g>
    <g font-style="italic" font-size="13" font-weight="bold" font-family="sans-serif" transform="matrix(0.6772,0,0,0.6772,5.4179,313.5606)">
      <text xml:space="preserve" x="380.115" y="-95.8569" onclick="umlload('../../../../../../../com/msopentech/odatajclient/engine/communication/request/ODataRequest.html')" stroke="none">ODataRequest</text>
    </g>
    <g fill="rgb(238,238,255)" transform="matrix(0.6772,0,0,0.6772,5.4179,313.5606)" stroke="rgb(238,238,255)">
      <rect width="493.0749" x="-8" height="17.9688" y="-26" stroke="none"/>
    </g>
    <g fill="rgb(166,166,178)" stroke-miterlimit="1.45" transform="matrix(0.6772,0,0,0.6772,5.4179,313.5606)" stroke-linecap="butt" stroke="rgb(166,166,178)">
      <rect fill="none" width="493.0749" x="-8" height="17.9688" y="-26"/>
    </g>
    <g fill="rgb(238,238,255)" transform="matrix(0.6772,0,0,0.6772,5.4179,313.5606)" stroke="rgb(238,238,255)">
      <rect width="882.23" x="-8" height="72.5938" y="-8.0312" stroke="none"/>
    </g>
    <g fill="rgb(166,166,178)" stroke-miterlimit="1.45" transform="matrix(0.6772,0,0,0.6772,5.4179,313.5606)" stroke-linecap="butt" stroke="rgb(166,166,178)">
      <rect fill="none" width="882.23" x="-8" height="72.5938" y="-8.0312"/>
    </g>
    <g font-family="sans-serif" transform="matrix(0.6772,0,0,0.6772,5.4179,313.5606)">
      <text xml:space="preserve" x="-2" y="-12.8613" onclick="umlload('package-summary.html')" stroke="none">com.msopentech.odatajclient.engine.communication.request.streamed</text>
    </g>
    <g fill="rgb(221,221,255)" transform="matrix(0.6772,0,0,0.6772,5.4179,313.5606)" stroke="rgb(221,221,255)">
      <rect x="0" y="0" clip-path="url(#clipPath3)" width="866.23" height="38.5938" stroke="none"/>
      <line clip-path="url(#clipPath3)" fill="none" x1="0" x2="866.23" y1="38.5938" y2="38.5938" stroke="black"/>
      <line clip-path="url(#clipPath3)" x1="0" x2="866.23" y1="39.5938" y2="39.5938" stroke="none"/>
      <line clip-path="url(#clipPath3)" fill="none" x1="0" x2="866.23" y1="39.5938" y2="39.5938" stroke="black"/>
      <rect x="0" y="40.5938" clip-path="url(#clipPath3)" width="866.23" height="15.9688" stroke="none"/>
    </g>
    <g fill="rgb(154,154,178)" stroke-miterlimit="1.45" transform="matrix(0.6772,0,0,0.6772,5.4179,313.5606)" stroke-linecap="butt" stroke="rgb(154,154,178)">
      <rect fill="none" width="866.23" x="0" height="56.5625" y="0"/>
    </g>
    <g font-style="italic" font-size="16" font-weight="bold" font-family="sans-serif" transform="matrix(0.6772,0,0,0.6772,5.4179,313.5606)">
      <text xml:space="preserve" x="16.615" y="32.8203" onclick="umlload('#')" stroke="none">ODataStreamedRequest&lt;V extends ODataResponse, T extends ODataStreamManager&lt;V&gt;&gt;</text>
    </g>
    <g font-family="sans-serif" transform="matrix(0.6772,0,0,0.6772,5.4179,313.5606)">
      <text xml:space="preserve" x="398.115" y="13.1387" stroke="none">«interface»</text>
    </g>
    <g font-family="sans-serif" transform="matrix(0.6772,0,0,0.6772,5.4179,313.5606)">
      <text xml:space="preserve" x="4" y="51.1719" stroke="none">+</text>
      <text xml:space="preserve" x="19" y="52.7324" onclick="umlload('#execute()')" stroke="none">execute() : T</text>
    </g>
    <g font-family="sans-serif" transform="matrix(0.6772,0,0,0.6772,5.4179,313.5606)">
      <text xml:space="preserve" x="-2" y="89.1543" onclick="umlload('http://www.yworks.com/')" stroke="none">yWorks UML Doclet</text>
    </g>
    <g stroke-miterlimit="1.45" transform="matrix(0.6772,0,0,0.6772,5.4179,313.5606)" stroke-linecap="butt">
      <path fill="none" d="M433.115 0 L433.115 -69"/>
      <path fill="white" d="M433.115 -84 L427.115 -68 L439.115 -68 Z" stroke="none"/>
      <path fill="none" d="M433.115 -84 L427.115 -68 L439.115 -68 Z"/>
    </g>
  </g>
</svg>
