<?xml version="1.0" encoding="UTF-8"?><svg xmlns="http://www.w3.org/2000/svg" xmlns:xlink="http://www.w3.org/1999/xlink" fill-opacity="1" color-rendering="auto" color-interpolation="auto" stroke="black" text-rendering="auto" stroke-linecap="square" width="598" stroke-miterlimit="10" stroke-opacity="1" shape-rendering="auto" fill="black" stroke-dasharray="none" font-weight="normal" stroke-width="1" height="598" font-family="'Dialog'" font-style="normal" stroke-linejoin="miter" font-size="12" stroke-dashoffset="0" image-rendering="auto">
  <!--Generated by ySVG-->
  <defs id="genericDefs"/>
  <g>
    <defs id="defs1">
      <clipPath clipPathUnits="userSpaceOnUse" id="clipPath1">
        <path d="M0 0 L598 0 L598 598 L0 598 L0 0 Z"/>
      </clipPath>
      <clipPath clipPathUnits="userSpaceOnUse" id="clipPath2">
        <path d="M625.29 174.2656 L658.25 174.2656 L658.25 197.3984 L625.29 197.3984 L625.29 174.2656 Z"/>
      </clipPath>
      <clipPath clipPathUnits="userSpaceOnUse" id="clipPath3">
        <path d="M625.29 87.1328 L1090.85 87.1328 L1090.85 110.2656 L625.29 110.2656 L625.29 87.1328 Z"/>
      </clipPath>
      <clipPath clipPathUnits="userSpaceOnUse" id="clipPath4">
        <path d="M625.29 0 L725.2 0 L725.2 23.1328 L625.29 23.1328 L625.29 0 Z"/>
      </clipPath>
      <clipPath clipPathUnits="userSpaceOnUse" id="clipPath5">
        <path d="M-167.97 0 L-66 0 L-66 23.1328 L-167.97 23.1328 L-167.97 0 Z"/>
      </clipPath>
      <clipPath clipPathUnits="userSpaceOnUse" id="clipPath6">
        <path d="M1152.6958 -100.3574 C1152.6958 -91.3234 1091.7189 -84 1016.5 -84 C941.2811 -84 880.3041 -91.3234 880.3041 -100.3574 C880.3041 -109.3913 941.2811 -116.7147 1016.5 -116.7147 C1091.7189 -116.7147 1152.6958 -109.3913 1152.6958 -100.3574 Z"/>
      </clipPath>
      <clipPath clipPathUnits="userSpaceOnUse" id="clipPath7">
        <path d="M-194.155 -107.1328 L753.445 -107.1328 L753.445 -84 L-194.155 -84 L-194.155 -107.1328 Z"/>
      </clipPath>
      <clipPath clipPathUnits="userSpaceOnUse" id="clipPath8">
        <path d="M0 0 L559.29 0 L559.29 205.3984 L0 205.3984 L0 0 Z"/>
      </clipPath>
      <script type="text/ecmascript"><![CDATA[
function umlload(newLocation)
{
if (newLocation.charAt(0) != '#') {
if (newLocation.indexOf("://") > -1) {
window.parent.location.href = newLocation;
} else {
var tmp = window.parent.location.href;
tmp = tmp.substring(0, tmp.lastIndexOf("/") + 1);
window.parent.location.href = tmp.concat(newLocation);
}
} else {
window.parent.location.hash = newLocation;
}
}
]]></script>
    </defs>
    <g fill="rgb(238,238,255)" transform="matrix(0.409,0,0,0.409,83.0328,277.3215)" stroke="rgb(238,238,255)">
      <rect width="69.7758" x="617.29" height="17.9688" y="148.2656" stroke="none"/>
    </g>
    <g fill="rgb(166,166,178)" stroke-miterlimit="1.45" transform="matrix(0.409,0,0,0.409,83.0328,277.3215)" stroke-linecap="butt" stroke="rgb(166,166,178)">
      <rect fill="none" width="69.7758" x="617.29" height="17.9688" y="148.2656"/>
    </g>
    <g fill="rgb(238,238,255)" transform="matrix(0.409,0,0,0.409,83.0328,277.3215)" stroke="rgb(238,238,255)">
      <rect width="73.96" x="617.29" height="39.1641" y="166.2344" stroke="none"/>
    </g>
    <g fill="rgb(166,166,178)" stroke-miterlimit="1.45" transform="matrix(0.409,0,0,0.409,83.0328,277.3215)" stroke-linecap="butt" stroke="rgb(166,166,178)">
      <rect fill="none" width="73.96" x="617.29" height="39.1641" y="166.2344"/>
    </g>
    <g font-family="sans-serif" transform="matrix(0.409,0,0,0.409,83.0328,277.3215)">
      <text xml:space="preserve" x="623.29" y="161.4043" onclick="umlload('http://docs.oracle.com/javase/6/docs/api/java/net/package-summary.html')" stroke="none">java.net</text>
    </g>
    <g fill="rgb(187,187,255)" transform="matrix(0.409,0,0,0.409,83.0328,277.3215)" stroke="rgb(187,187,255)">
      <rect x="625.29" y="174.2656" clip-path="url(#clipPath2)" width="32.96" height="23.1328" stroke="none"/>
    </g>
    <g fill="rgb(130,130,178)" stroke-miterlimit="1.45" transform="matrix(0.409,0,0,0.409,83.0328,277.3215)" stroke-linecap="butt" stroke="rgb(130,130,178)">
      <rect fill="none" width="32.96" x="625.29" height="23.1328" y="174.2656"/>
    </g>
    <g font-size="13" font-weight="bold" font-family="sans-serif" transform="matrix(0.409,0,0,0.409,83.0328,277.3215)">
      <text xml:space="preserve" x="629.77" y="190.3325" onclick="umlload('http://docs.oracle.com/javase/6/docs/api/java/net/URI.html')" stroke="none">URI</text>
    </g>
    <g fill="rgb(238,238,255)" transform="matrix(0.409,0,0,0.409,83.0328,277.3215)" stroke="rgb(238,238,255)">
      <rect width="493.0749" x="617.29" height="17.9688" y="61.1328" stroke="none"/>
    </g>
    <g fill="rgb(166,166,178)" stroke-miterlimit="1.45" transform="matrix(0.409,0,0,0.409,83.0328,277.3215)" stroke-linecap="butt" stroke="rgb(166,166,178)">
      <rect fill="none" width="493.0749" x="617.29" height="17.9688" y="61.1328"/>
    </g>
    <g fill="rgb(238,238,255)" transform="matrix(0.409,0,0,0.409,83.0328,277.3215)" stroke="rgb(238,238,255)">
      <rect width="493.56" x="617.29" height="39.1641" y="79.1016" stroke="none"/>
    </g>
    <g fill="rgb(166,166,178)" stroke-miterlimit="1.45" transform="matrix(0.409,0,0,0.409,83.0328,277.3215)" stroke-linecap="butt" stroke="rgb(166,166,178)">
      <rect fill="none" width="493.56" x="617.29" height="39.1641" y="79.1016"/>
    </g>
    <g font-family="sans-serif" transform="matrix(0.409,0,0,0.409,83.0328,277.3215)">
      <text xml:space="preserve" x="623.29" y="74.2715" onclick="umlload('../../../../../../../com/msopentech/odatajclient/engine/communication/request/streamed/package-summary.html')" stroke="none">com.msopentech.odatajclient.engine.communication.request.streamed</text>
    </g>
    <g fill="rgb(187,187,255)" transform="matrix(0.409,0,0,0.409,83.0328,277.3215)" stroke="rgb(187,187,255)">
      <rect x="625.29" y="87.1328" clip-path="url(#clipPath3)" width="465.56" height="23.1328" stroke="none"/>
    </g>
    <g fill="rgb(130,130,178)" stroke-miterlimit="1.45" transform="matrix(0.409,0,0,0.409,83.0328,277.3215)" stroke-linecap="butt" stroke="rgb(130,130,178)">
      <rect fill="none" width="465.56" x="625.29" height="23.1328" y="87.1328"/>
    </g>
    <g font-size="13" font-weight="bold" font-family="sans-serif" transform="matrix(0.409,0,0,0.409,83.0328,277.3215)">
      <text xml:space="preserve" x="636.07" y="103.1997" onclick="umlload('../../../../../../../com/msopentech/odatajclient/engine/communication/request/streamed/ODataStreamUpdateRequest.StreamUpdateStreamManager.html')" stroke="none">ODataStreamUpdateRequest.StreamUpdateStreamManager</text>
    </g>
    <g fill="rgb(238,238,255)" transform="matrix(0.409,0,0,0.409,83.0328,277.3215)" stroke="rgb(238,238,255)">
      <rect width="336.0617" x="617.29" height="17.9688" y="-26" stroke="none"/>
    </g>
    <g fill="rgb(166,166,178)" stroke-miterlimit="1.45" transform="matrix(0.409,0,0,0.409,83.0328,277.3215)" stroke-linecap="butt" stroke="rgb(166,166,178)">
      <rect fill="none" width="336.0617" x="617.29" height="17.9688" y="-26"/>
    </g>
    <g fill="rgb(238,238,255)" transform="matrix(0.409,0,0,0.409,83.0328,277.3215)" stroke="rgb(238,238,255)">
      <rect width="336.0617" x="617.29" height="39.1641" y="-8.0312" stroke="none"/>
    </g>
    <g fill="rgb(166,166,178)" stroke-miterlimit="1.45" transform="matrix(0.409,0,0,0.409,83.0328,277.3215)" stroke-linecap="butt" stroke="rgb(166,166,178)">
      <rect fill="none" width="336.0617" x="617.29" height="39.1641" y="-8.0312"/>
    </g>
    <g font-family="sans-serif" transform="matrix(0.409,0,0,0.409,83.0328,277.3215)">
      <text xml:space="preserve" x="623.29" y="-12.8613" onclick="umlload('../../../../../../../com/msopentech/odatajclient/engine/client/http/package-summary.html')" stroke="none">com.msopentech.odatajclient.engine.client.http</text>
    </g>
    <g fill="rgb(170,170,255)" transform="matrix(0.409,0,0,0.409,83.0328,277.3215)" stroke="rgb(170,170,255)">
      <rect x="625.29" y="0" clip-path="url(#clipPath4)" width="99.91" height="23.1328" stroke="none"/>
    </g>
    <g fill="rgb(118,118,178)" stroke-miterlimit="1.45" transform="matrix(0.409,0,0,0.409,83.0328,277.3215)" stroke-linecap="butt" stroke="rgb(118,118,178)">
      <rect fill="none" width="99.91" x="625.29" height="23.1328" y="0"/>
    </g>
    <g font-size="13" font-weight="bold" font-family="sans-serif" transform="matrix(0.409,0,0,0.409,83.0328,277.3215)">
      <text xml:space="preserve" x="630.745" y="16.0669" onclick="umlload('../../../../../../../com/msopentech/odatajclient/engine/client/http/HttpMethod.html')" stroke="none">HttpMethod</text>
    </g>
    <g fill="rgb(238,238,255)" transform="matrix(0.409,0,0,0.409,83.0328,277.3215)" stroke="rgb(238,238,255)">
      <rect width="59.1668" x="-175.97" height="17.9688" y="-26" stroke="none"/>
    </g>
    <g fill="rgb(166,166,178)" stroke-miterlimit="1.45" transform="matrix(0.409,0,0,0.409,83.0328,277.3215)" stroke-linecap="butt" stroke="rgb(166,166,178)">
      <rect fill="none" width="59.1668" x="-175.97" height="17.9688" y="-26"/>
    </g>
    <g fill="rgb(238,238,255)" transform="matrix(0.409,0,0,0.409,83.0328,277.3215)" stroke="rgb(238,238,255)">
      <rect width="117.97" x="-175.97" height="39.1641" y="-8.0312" stroke="none"/>
    </g>
    <g fill="rgb(166,166,178)" stroke-miterlimit="1.45" transform="matrix(0.409,0,0,0.409,83.0328,277.3215)" stroke-linecap="butt" stroke="rgb(166,166,178)">
      <rect fill="none" width="117.97" x="-175.97" height="39.1641" y="-8.0312"/>
    </g>
    <g font-family="sans-serif" transform="matrix(0.409,0,0,0.409,83.0328,277.3215)">
      <text xml:space="preserve" x="-169.97" y="-12.8613" onclick="umlload('http://docs.oracle.com/javase/6/docs/api/java/io/package-summary.html')" stroke="none">java.io</text>
    </g>
    <g fill="rgb(204,204,255)" transform="matrix(0.409,0,0,0.409,83.0328,277.3215)" stroke="rgb(204,204,255)">
      <rect x="-167.97" y="0" clip-path="url(#clipPath5)" width="101.97" height="23.1328" stroke="none"/>
    </g>
    <g fill="rgb(142,142,178)" stroke-miterlimit="1.45" transform="matrix(0.409,0,0,0.409,83.0328,277.3215)" stroke-linecap="butt" stroke="rgb(142,142,178)">
      <rect fill="none" width="101.97" x="-167.97" height="23.1328" y="0"/>
    </g>
    <g font-size="13" font-weight="bold" font-family="sans-serif" transform="matrix(0.409,0,0,0.409,83.0328,277.3215)">
      <text xml:space="preserve" x="-162.485" y="16.0669" onclick="umlload('http://docs.oracle.com/javase/6/docs/api/java/io/InputStream.html')" stroke="none">InputStream</text>
    </g>
    <g fill="rgb(238,238,255)" transform="matrix(0.409,0,0,0.409,83.0328,277.3215)" stroke="rgb(238,238,255)">
      <rect width="467.6133" x="791.3042" height="17.9688" y="-142.7147" stroke="none"/>
    </g>
    <g fill="rgb(166,166,178)" stroke-miterlimit="1.45" transform="matrix(0.409,0,0,0.409,83.0328,277.3215)" stroke-linecap="butt" stroke="rgb(166,166,178)">
      <rect fill="none" width="467.6133" x="791.3042" height="17.9688" y="-142.7147"/>
    </g>
    <g fill="rgb(238,238,255)" transform="matrix(0.409,0,0,0.409,83.0328,277.3215)" stroke="rgb(238,238,255)">
      <rect width="467.6133" x="791.3042" height="48.746" y="-124.746" stroke="none"/>
    </g>
    <g fill="rgb(166,166,178)" stroke-miterlimit="1.45" transform="matrix(0.409,0,0,0.409,83.0328,277.3215)" stroke-linecap="butt" stroke="rgb(166,166,178)">
      <rect fill="none" width="467.6133" x="791.3042" height="48.746" y="-124.746"/>
    </g>
    <g font-family="sans-serif" transform="matrix(0.409,0,0,0.409,83.0328,277.3215)">
      <text xml:space="preserve" x="797.3041" y="-129.5761" onclick="umlload('../../../../../../../com/msopentech/odatajclient/engine/communication/request/batch/package-summary.html')" stroke="none">com.msopentech.odatajclient.engine.communication.request.batch</text>
    </g>
    <g fill="rgb(221,221,255)" transform="matrix(0.409,0,0,0.409,83.0328,277.3215)" stroke="rgb(221,221,255)">
      <rect x="880.3042" y="-116.7147" clip-path="url(#clipPath6)" width="272.3917" height="32.7147" stroke="none"/>
    </g>
    <g fill="rgb(154,154,178)" stroke-miterlimit="1.45" transform="matrix(0.409,0,0,0.409,83.0328,277.3215)" stroke-linecap="butt" stroke="rgb(154,154,178)">
      <ellipse rx="136.1958" fill="none" ry="16.3574" cx="1016.5" cy="-100.3574"/>
    </g>
    <g font-style="italic" font-size="13" font-weight="bold" font-family="sans-serif" transform="matrix(0.409,0,0,0.409,83.0328,277.3215)">
      <text xml:space="preserve" x="927" y="-95.8569" onclick="umlload('../../../../../../../com/msopentech/odatajclient/engine/communication/request/batch/ODataBatchableRequest.html')" stroke="none">ODataBatchableRequest</text>
    </g>
    <g fill="rgb(238,238,255)" transform="matrix(0.409,0,0,0.409,83.0328,277.3215)" stroke="rgb(238,238,255)">
      <rect width="493.0749" x="-202.155" height="17.9688" y="-133.1328" stroke="none"/>
    </g>
    <g fill="rgb(166,166,178)" stroke-miterlimit="1.45" transform="matrix(0.409,0,0,0.409,83.0328,277.3215)" stroke-linecap="butt" stroke="rgb(166,166,178)">
      <rect fill="none" width="493.0749" x="-202.155" height="17.9688" y="-133.1328"/>
    </g>
    <g fill="rgb(238,238,255)" transform="matrix(0.409,0,0,0.409,83.0328,277.3215)" stroke="rgb(238,238,255)">
      <rect width="963.6" x="-202.155" height="39.1641" y="-115.1641" stroke="none"/>
    </g>
    <g fill="rgb(166,166,178)" stroke-miterlimit="1.45" transform="matrix(0.409,0,0,0.409,83.0328,277.3215)" stroke-linecap="butt" stroke="rgb(166,166,178)">
      <rect fill="none" width="963.6" x="-202.155" height="39.1641" y="-115.1641"/>
    </g>
    <g font-family="sans-serif" transform="matrix(0.409,0,0,0.409,83.0328,277.3215)">
      <text xml:space="preserve" x="-196.155" y="-119.9941" onclick="umlload('../../../../../../../com/msopentech/odatajclient/engine/communication/request/streamed/package-summary.html')" stroke="none">com.msopentech.odatajclient.engine.communication.request.streamed</text>
    </g>
    <g fill="rgb(204,204,255)" transform="matrix(0.409,0,0,0.409,83.0328,277.3215)" stroke="rgb(204,204,255)">
      <rect x="-194.155" y="-107.1328" clip-path="url(#clipPath7)" width="947.6" height="23.1328" stroke="none"/>
    </g>
    <g fill="rgb(142,142,178)" stroke-miterlimit="1.45" transform="matrix(0.409,0,0,0.409,83.0328,277.3215)" stroke-linecap="butt" stroke="rgb(142,142,178)">
      <rect fill="none" width="947.6" x="-194.155" height="23.1328" y="-107.1328"/>
    </g>
    <g font-size="13" font-weight="bold" font-family="sans-serif" transform="matrix(0.409,0,0,0.409,83.0328,277.3215)">
      <text xml:space="preserve" x="-176.355" y="-91.0659" onclick="umlload('../../../../../../../com/msopentech/odatajclient/engine/communication/request/streamed/ODataStreamedRequestImpl.html')" stroke="none">ODataStreamedRequestImpl&lt;ODataStreamUpdateResponse, ODataStreamUpdateRequest.StreamUpdateStreamManager&gt;</text>
    </g>
    <g fill="rgb(238,238,255)" transform="matrix(0.409,0,0,0.409,83.0328,277.3215)" stroke="rgb(238,238,255)">
      <rect width="493.0749" x="-8" height="17.9688" y="-26" stroke="none"/>
    </g>
    <g fill="rgb(166,166,178)" stroke-miterlimit="1.45" transform="matrix(0.409,0,0,0.409,83.0328,277.3215)" stroke-linecap="butt" stroke="rgb(166,166,178)">
      <rect fill="none" width="493.0749" x="-8" height="17.9688" y="-26"/>
    </g>
    <g fill="rgb(238,238,255)" transform="matrix(0.409,0,0,0.409,83.0328,277.3215)" stroke="rgb(238,238,255)">
      <rect width="575.29" x="-8" height="221.4297" y="-8.0312" stroke="none"/>
    </g>
    <g fill="rgb(166,166,178)" stroke-miterlimit="1.45" transform="matrix(0.409,0,0,0.409,83.0328,277.3215)" stroke-linecap="butt" stroke="rgb(166,166,178)">
      <rect fill="none" width="575.29" x="-8" height="221.4297" y="-8.0312"/>
    </g>
    <g font-family="sans-serif" transform="matrix(0.409,0,0,0.409,83.0328,277.3215)">
      <text xml:space="preserve" x="-2" y="-12.8613" onclick="umlload('package-summary.html')" stroke="none">com.msopentech.odatajclient.engine.communication.request.streamed</text>
    </g>
    <g fill="rgb(187,187,255)" transform="matrix(0.409,0,0,0.409,83.0328,277.3215)" stroke="rgb(187,187,255)">
      <rect x="0" y="0" clip-path="url(#clipPath8)" width="559.29" height="26.625" stroke="none"/>
      <line clip-path="url(#clipPath8)" fill="none" x1="0" x2="559.29" y1="26.625" y2="26.625" stroke="black"/>
      <line clip-path="url(#clipPath8)" x1="0" x2="559.29" y1="27.625" y2="27.625" stroke="none"/>
      <line clip-path="url(#clipPath8)" fill="none" x1="0" x2="559.29" y1="27.625" y2="27.625" stroke="black"/>
      <rect x="0" y="28.625" clip-path="url(#clipPath8)" width="559.29" height="176.7734" stroke="none"/>
    </g>
    <g fill="rgb(130,130,178)" stroke-miterlimit="1.45" transform="matrix(0.409,0,0,0.409,83.0328,277.3215)" stroke-linecap="butt" stroke="rgb(130,130,178)">
      <rect fill="none" width="559.29" x="0" height="205.3984" y="0"/>
    </g>
    <g font-size="16" font-weight="bold" font-family="sans-serif" transform="matrix(0.409,0,0,0.409,83.0328,277.3215)">
      <text xml:space="preserve" x="151.645" y="18.8516" onclick="umlload('#')" stroke="none">ODataStreamUpdateRequest</text>
    </g>
    <g font-family="sans-serif" transform="matrix(0.409,0,0,0.409,83.0328,277.3215)">
      <text xml:space="preserve" x="4" y="39.1719" stroke="none">#</text>
      <text xml:space="preserve" x="19" y="40.7637" onclick="umlload('#getStreamManager()')" stroke="none">getStreamManager() : ODataStreamUpdateRequest.StreamUpdateStreamManager</text>
    </g>
    <g font-family="sans-serif" transform="matrix(0.409,0,0,0.409,83.0328,277.3215)">
      <text xml:space="preserve" x="-197" y="238.1543" onclick="umlload('http://www.yworks.com/')" stroke="none">yWorks UML Doclet</text>
    </g>
    <g stroke-miterlimit="1.45" transform="matrix(0.409,0,0,0.409,83.0328,277.3215)" stroke-linecap="butt">
      <path fill="none" d="M279.645 -0.0039 L279.645 -69"/>
      <path fill="white" d="M279.645 -84 L273.645 -68 L285.645 -68 Z" stroke="none"/>
      <path fill="none" d="M279.645 -84 L273.645 -68 L285.645 -68 Z"/>
      <path fill="none" stroke-dasharray="6,2" d="M419.4675 0 L419.4675 -51 L1016.5 -51 L1016.5 -69"/>
      <path fill="white" stroke-dasharray="6,2" d="M1016.5 -84 L1010.5 -68 L1022.5 -68 Z" stroke="none"/>
      <path fill="none" d="M1016.5 -84 L1010.5 -68 L1022.5 -68 Z"/>
      <path fill="none" d="M0.0383 11.5664 L-66 11.5664"/>
      <line stroke-linecap="square" transform="matrix(-1,0,0,-1,-66,11.5664)" fill="none" x1="0" x2="-14" y1="0" y2="-4" stroke-miterlimit="10"/>
      <line stroke-linecap="square" transform="matrix(-1,0,0,-1,-66,11.5664)" fill="none" x1="0" x2="-14" y1="0" y2="4" stroke-miterlimit="10"/>
    </g>
    <g stroke-dasharray="6,2" stroke-miterlimit="1.45" transform="matrix(0.409,0,0,0.409,83.0328,277.3215)" stroke-linecap="butt">
      <path fill="none" d="M559.2983 11.5664 L625.29 11.5664"/>
      <line stroke-linecap="square" transform="matrix(1,0,0,1,625.29,11.5664)" fill="none" x1="0" x2="-14" y1="0" y2="-4" stroke-dasharray="none" stroke-miterlimit="10"/>
      <line stroke-linecap="square" transform="matrix(1,0,0,1,625.29,11.5664)" fill="none" x1="0" x2="-14" y1="0" y2="4" stroke-dasharray="none" stroke-miterlimit="10"/>
    </g>
    <g stroke-dasharray="6,2" stroke-miterlimit="1.45" transform="matrix(0.409,0,0,0.409,83.0328,277.3215)" stroke-linecap="butt">
      <path fill="none" d="M559.29 98.6992 L625.29 98.6992"/>
      <line stroke-linecap="square" transform="matrix(1,0,0,1,625.29,98.6992)" fill="none" x1="0" x2="-14" y1="0" y2="-4" stroke-dasharray="none" stroke-miterlimit="10"/>
      <line stroke-linecap="square" transform="matrix(1,0,0,1,625.29,98.6992)" fill="none" x1="0" x2="-14" y1="0" y2="4" stroke-dasharray="none" stroke-miterlimit="10"/>
    </g>
    <g stroke-dasharray="6,2" stroke-miterlimit="1.45" transform="matrix(0.409,0,0,0.409,83.0328,277.3215)" stroke-linecap="butt">
      <path fill="none" d="M559.3282 185.832 L625.29 185.832"/>
      <line stroke-linecap="square" transform="matrix(1,0,0,1,625.29,185.832)" fill="none" x1="0" x2="-14" y1="0" y2="-4" stroke-dasharray="none" stroke-miterlimit="10"/>
      <line stroke-linecap="square" transform="matrix(1,0,0,1,625.29,185.832)" fill="none" x1="0" x2="-14" y1="0" y2="4" stroke-dasharray="none" stroke-miterlimit="10"/>
    </g>
  </g>
</svg>
