<?xml version="1.0" encoding="UTF-8"?><svg xmlns="http://www.w3.org/2000/svg" xmlns:xlink="http://www.w3.org/1999/xlink" fill-opacity="1" color-rendering="auto" color-interpolation="auto" stroke="black" text-rendering="auto" stroke-linecap="square" width="598" stroke-miterlimit="10" stroke-opacity="1" shape-rendering="auto" fill="black" stroke-dasharray="none" font-weight="normal" stroke-width="1" height="598" font-family="'Dialog'" font-style="normal" stroke-linejoin="miter" font-size="12" stroke-dashoffset="0" image-rendering="auto">
  <!--Generated by ySVG-->
  <defs id="genericDefs"/>
  <g>
    <defs id="defs1">
      <clipPath clipPathUnits="userSpaceOnUse" id="clipPath1">
        <path d="M0 0 L598 0 L598 598 L0 598 L0 0 Z"/>
      </clipPath>
      <clipPath clipPathUnits="userSpaceOnUse" id="clipPath2">
        <path d="M1009.48 87.1328 L1042.4399 87.1328 L1042.4399 110.2656 L1009.48 110.2656 L1009.48 87.1328 Z"/>
      </clipPath>
      <clipPath clipPathUnits="userSpaceOnUse" id="clipPath3">
        <path d="M1009.48 -0 L1109.39 -0 L1109.39 23.1328 L1009.48 23.1328 L1009.48 -0 Z"/>
      </clipPath>
      <clipPath clipPathUnits="userSpaceOnUse" id="clipPath4">
        <path d="M-358.7 -0 L-218.62 -0 L-218.62 23.1328 L-358.7 23.1328 L-358.7 -0 Z"/>
      </clipPath>
      <clipPath clipPathUnits="userSpaceOnUse" id="clipPath5">
        <path d="M100.425 -107.1328 L843.055 -107.1328 L843.055 -84 L100.425 -84 L100.425 -107.1328 Z"/>
      </clipPath>
      <clipPath clipPathUnits="userSpaceOnUse" id="clipPath6">
        <path d="M0 -0 L943.48 -0 L943.48 118.2656 L0 118.2656 L0 -0 Z"/>
      </clipPath>
      <script type="text/ecmascript"><![CDATA[
function umlload(newLocation)
{
if (newLocation.charAt(0) != '#') {
if (newLocation.indexOf("://") > -1) {
window.parent.location.href = newLocation;
} else {
var tmp = window.parent.location.href;
tmp = tmp.substring(0, tmp.lastIndexOf("/") + 1);
window.parent.location.href = tmp.concat(newLocation);
}
} else {
window.parent.location.hash = newLocation;
}
}
]]></script>
    </defs>
    <g fill="rgb(238,238,255)" transform="matrix(0.3507,0,0,0.3507,128.7191,293.9144)" stroke="rgb(238,238,255)">
      <rect width="69.7758" x="1001.48" height="17.9688" y="61.1328" stroke="none"/>
    </g>
    <g fill="rgb(166,166,178)" stroke-miterlimit="1.45" transform="matrix(0.3507,0,0,0.3507,128.7191,293.9144)" stroke-linecap="butt" stroke="rgb(166,166,178)">
      <rect fill="none" width="69.7758" x="1001.48" height="17.9688" y="61.1328"/>
    </g>
    <g fill="rgb(238,238,255)" transform="matrix(0.3507,0,0,0.3507,128.7191,293.9144)" stroke="rgb(238,238,255)">
      <rect width="73.96" x="1001.48" height="39.1641" y="79.1016" stroke="none"/>
    </g>
    <g fill="rgb(166,166,178)" stroke-miterlimit="1.45" transform="matrix(0.3507,0,0,0.3507,128.7191,293.9144)" stroke-linecap="butt" stroke="rgb(166,166,178)">
      <rect fill="none" width="73.96" x="1001.48" height="39.1641" y="79.1016"/>
    </g>
    <g font-family="sans-serif" transform="matrix(0.3507,0,0,0.3507,128.7191,293.9144)">
      <text xml:space="preserve" x="1007.48" y="74.2715" onclick="umlload('http://docs.oracle.com/javase/6/docs/api/java/net/package-summary.html')" stroke="none">java.net</text>
    </g>
    <g fill="rgb(187,187,255)" transform="matrix(0.3507,0,0,0.3507,128.7191,293.9144)" stroke="rgb(187,187,255)">
      <rect x="1009.48" y="87.1328" clip-path="url(#clipPath2)" width="32.96" height="23.1328" stroke="none"/>
    </g>
    <g fill="rgb(130,130,178)" stroke-miterlimit="1.45" transform="matrix(0.3507,0,0,0.3507,128.7191,293.9144)" stroke-linecap="butt" stroke="rgb(130,130,178)">
      <rect fill="none" width="32.96" x="1009.48" height="23.1328" y="87.1328"/>
    </g>
    <g font-size="13" font-weight="bold" font-family="sans-serif" transform="matrix(0.3507,0,0,0.3507,128.7191,293.9144)">
      <text xml:space="preserve" x="1013.96" y="103.1997" onclick="umlload('http://docs.oracle.com/javase/6/docs/api/java/net/URI.html')" stroke="none">URI</text>
    </g>
    <g fill="rgb(238,238,255)" transform="matrix(0.3507,0,0,0.3507,128.7191,293.9144)" stroke="rgb(238,238,255)">
      <rect width="336.0617" x="1001.48" height="17.9688" y="-26" stroke="none"/>
    </g>
    <g fill="rgb(166,166,178)" stroke-miterlimit="1.45" transform="matrix(0.3507,0,0,0.3507,128.7191,293.9144)" stroke-linecap="butt" stroke="rgb(166,166,178)">
      <rect fill="none" width="336.0617" x="1001.48" height="17.9688" y="-26"/>
    </g>
    <g fill="rgb(238,238,255)" transform="matrix(0.3507,0,0,0.3507,128.7191,293.9144)" stroke="rgb(238,238,255)">
      <rect width="336.0617" x="1001.48" height="39.1641" y="-8.0312" stroke="none"/>
    </g>
    <g fill="rgb(166,166,178)" stroke-miterlimit="1.45" transform="matrix(0.3507,0,0,0.3507,128.7191,293.9144)" stroke-linecap="butt" stroke="rgb(166,166,178)">
      <rect fill="none" width="336.0617" x="1001.48" height="39.1641" y="-8.0312"/>
    </g>
    <g font-family="sans-serif" transform="matrix(0.3507,0,0,0.3507,128.7191,293.9144)">
      <text xml:space="preserve" x="1007.48" y="-12.8613" onclick="umlload('../../../../../../../com/msopentech/odatajclient/engine/client/http/package-summary.html')" stroke="none">com.msopentech.odatajclient.engine.client.http</text>
    </g>
    <g fill="rgb(170,170,255)" transform="matrix(0.3507,0,0,0.3507,128.7191,293.9144)" stroke="rgb(170,170,255)">
      <rect x="1009.48" y="0" clip-path="url(#clipPath3)" width="99.91" height="23.1328" stroke="none"/>
    </g>
    <g fill="rgb(118,118,178)" stroke-miterlimit="1.45" transform="matrix(0.3507,0,0,0.3507,128.7191,293.9144)" stroke-linecap="butt" stroke="rgb(118,118,178)">
      <rect fill="none" width="99.91" x="1009.48" height="23.1328" y="0"/>
    </g>
    <g font-size="13" font-weight="bold" font-family="sans-serif" transform="matrix(0.3507,0,0,0.3507,128.7191,293.9144)">
      <text xml:space="preserve" x="1014.935" y="16.0669" onclick="umlload('../../../../../../../com/msopentech/odatajclient/engine/client/http/HttpMethod.html')" stroke="none">HttpMethod</text>
    </g>
    <g fill="rgb(238,238,255)" transform="matrix(0.3507,0,0,0.3507,128.7191,293.9144)" stroke="rgb(238,238,255)">
      <rect width="311.661" x="-366.7" height="17.9688" y="-26" stroke="none"/>
    </g>
    <g fill="rgb(166,166,178)" stroke-miterlimit="1.45" transform="matrix(0.3507,0,0,0.3507,128.7191,293.9144)" stroke-linecap="butt" stroke="rgb(166,166,178)">
      <rect fill="none" width="311.661" x="-366.7" height="17.9688" y="-26"/>
    </g>
    <g fill="rgb(238,238,255)" transform="matrix(0.3507,0,0,0.3507,128.7191,293.9144)" stroke="rgb(238,238,255)">
      <rect width="312.08" x="-366.7" height="39.1641" y="-8.0312" stroke="none"/>
    </g>
    <g fill="rgb(166,166,178)" stroke-miterlimit="1.45" transform="matrix(0.3507,0,0,0.3507,128.7191,293.9144)" stroke-linecap="butt" stroke="rgb(166,166,178)">
      <rect fill="none" width="312.08" x="-366.7" height="39.1641" y="-8.0312"/>
    </g>
    <g font-family="sans-serif" transform="matrix(0.3507,0,0,0.3507,128.7191,293.9144)">
      <text xml:space="preserve" x="-360.7" y="-12.8613" onclick="umlload('../../../../../../../com/msopentech/odatajclient/engine/format/package-summary.html')" stroke="none">com.msopentech.odatajclient.engine.format</text>
    </g>
    <g fill="rgb(170,170,255)" transform="matrix(0.3507,0,0,0.3507,128.7191,293.9144)" stroke="rgb(170,170,255)">
      <rect x="-358.7" y="0" clip-path="url(#clipPath4)" width="140.08" height="23.1328" stroke="none"/>
    </g>
    <g fill="rgb(118,118,178)" stroke-miterlimit="1.45" transform="matrix(0.3507,0,0,0.3507,128.7191,293.9144)" stroke-linecap="butt" stroke="rgb(118,118,178)">
      <rect fill="none" width="140.08" x="-358.7" height="23.1328" y="0"/>
    </g>
    <g font-size="13" font-weight="bold" font-family="sans-serif" transform="matrix(0.3507,0,0,0.3507,128.7191,293.9144)">
      <text xml:space="preserve" x="-352.66" y="16.0669" onclick="umlload('../../../../../../../com/msopentech/odatajclient/engine/format/ODataPubFormat.html')" stroke="none">ODataPubFormat</text>
    </g>
    <g fill="rgb(238,238,255)" transform="matrix(0.3507,0,0,0.3507,128.7191,293.9144)" stroke="rgb(238,238,255)">
      <rect width="493.0749" x="92.425" height="17.9688" y="-133.1328" stroke="none"/>
    </g>
    <g fill="rgb(166,166,178)" stroke-miterlimit="1.45" transform="matrix(0.3507,0,0,0.3507,128.7191,293.9144)" stroke-linecap="butt" stroke="rgb(166,166,178)">
      <rect fill="none" width="493.0749" x="92.425" height="17.9688" y="-133.1328"/>
    </g>
    <g fill="rgb(238,238,255)" transform="matrix(0.3507,0,0,0.3507,128.7191,293.9144)" stroke="rgb(238,238,255)">
      <rect width="758.63" x="92.425" height="39.1641" y="-115.1641" stroke="none"/>
    </g>
    <g fill="rgb(166,166,178)" stroke-miterlimit="1.45" transform="matrix(0.3507,0,0,0.3507,128.7191,293.9144)" stroke-linecap="butt" stroke="rgb(166,166,178)">
      <rect fill="none" width="758.63" x="92.425" height="39.1641" y="-115.1641"/>
    </g>
    <g font-family="sans-serif" transform="matrix(0.3507,0,0,0.3507,128.7191,293.9144)">
      <text xml:space="preserve" x="98.425" y="-119.9941" onclick="umlload('../../../../../../../com/msopentech/odatajclient/engine/communication/request/streamed/package-summary.html')" stroke="none">com.msopentech.odatajclient.engine.communication.request.streamed</text>
    </g>
    <g fill="rgb(204,204,255)" transform="matrix(0.3507,0,0,0.3507,128.7191,293.9144)" stroke="rgb(204,204,255)">
      <rect x="100.425" y="-107.1328" clip-path="url(#clipPath5)" width="742.63" height="23.1328" stroke="none"/>
    </g>
    <g fill="rgb(142,142,178)" stroke-miterlimit="1.45" transform="matrix(0.3507,0,0,0.3507,128.7191,293.9144)" stroke-linecap="butt" stroke="rgb(142,142,178)">
      <rect fill="none" width="742.63" x="100.425" height="23.1328" y="-107.1328"/>
    </g>
    <g font-size="13" font-weight="bold" font-family="sans-serif" transform="matrix(0.3507,0,0,0.3507,128.7191,293.9144)">
      <text xml:space="preserve" x="115.24" y="-91.0659" onclick="umlload('../../../../../../../com/msopentech/odatajclient/engine/communication/request/streamed/ODataStreamedRequestImpl.html')" stroke="none">ODataStreamedRequestImpl&lt;V extends ODataResponse, T extends ODataStreamManager&lt;V&gt;&gt;</text>
    </g>
    <g fill="rgb(238,238,255)" transform="matrix(0.3507,0,0,0.3507,128.7191,293.9144)" stroke="rgb(238,238,255)">
      <rect width="493.0749" x="-8" height="17.9688" y="-26" stroke="none"/>
    </g>
    <g fill="rgb(166,166,178)" stroke-miterlimit="1.45" transform="matrix(0.3507,0,0,0.3507,128.7191,293.9144)" stroke-linecap="butt" stroke="rgb(166,166,178)">
      <rect fill="none" width="493.0749" x="-8" height="17.9688" y="-26"/>
    </g>
    <g fill="rgb(238,238,255)" transform="matrix(0.3507,0,0,0.3507,128.7191,293.9144)" stroke="rgb(238,238,255)">
      <rect width="959.48" x="-8" height="134.2969" y="-8.0312" stroke="none"/>
    </g>
    <g fill="rgb(166,166,178)" stroke-miterlimit="1.45" transform="matrix(0.3507,0,0,0.3507,128.7191,293.9144)" stroke-linecap="butt" stroke="rgb(166,166,178)">
      <rect fill="none" width="959.48" x="-8" height="134.2969" y="-8.0312"/>
    </g>
    <g font-family="sans-serif" transform="matrix(0.3507,0,0,0.3507,128.7191,293.9144)">
      <text xml:space="preserve" x="-2" y="-12.8613" onclick="umlload('package-summary.html')" stroke="none">com.msopentech.odatajclient.engine.communication.request.streamed</text>
    </g>
    <g fill="rgb(204,204,255)" transform="matrix(0.3507,0,0,0.3507,128.7191,293.9144)" stroke="rgb(204,204,255)">
      <rect x="0" y="0" clip-path="url(#clipPath6)" width="943.48" height="38.5938" stroke="none"/>
      <line clip-path="url(#clipPath6)" fill="none" x1="0" x2="943.48" y1="38.5938" y2="38.5938" stroke="black"/>
      <line clip-path="url(#clipPath6)" x1="0" x2="943.48" y1="39.5938" y2="39.5938" stroke="none"/>
      <line clip-path="url(#clipPath6)" fill="none" x1="0" x2="943.48" y1="39.5938" y2="39.5938" stroke="black"/>
      <rect x="0" y="40.5938" clip-path="url(#clipPath6)" width="943.48" height="77.6719" stroke="none"/>
    </g>
    <g fill="rgb(142,142,178)" stroke-miterlimit="1.45" transform="matrix(0.3507,0,0,0.3507,128.7191,293.9144)" stroke-linecap="butt" stroke="rgb(142,142,178)">
      <rect fill="none" width="943.48" x="0" height="118.2656" y="0"/>
    </g>
    <g font-size="16" font-weight="bold" font-family="sans-serif" transform="matrix(0.3507,0,0,0.3507,128.7191,293.9144)">
      <text xml:space="preserve" x="17.74" y="16.8516" onclick="umlload('#')" stroke="none">ODataStreamedEntityRequestImpl&lt;V extends ODataResponse, T extends ODataStreamManager&lt;V&gt;&gt;</text>
    </g>
    <g font-family="sans-serif" transform="matrix(0.3507,0,0,0.3507,128.7191,293.9144)">
      <text xml:space="preserve" x="870.48" y="33.7637" stroke="none">{abstract}</text>
    </g>
    <g font-family="sans-serif" transform="matrix(0.3507,0,0,0.3507,128.7191,293.9144)">
      <text xml:space="preserve" x="4" y="51.1719" stroke="none">+</text>
      <text xml:space="preserve" x="19" y="52.7324" stroke="none">ODataStreamedEntityRequestImpl(HttpMethod, URI)</text>
    </g>
    <g font-family="sans-serif" transform="matrix(0.3507,0,0,0.3507,128.7191,293.9144)">
      <text xml:space="preserve" x="4" y="67.1719" stroke="none">+</text>
      <text xml:space="preserve" x="19" y="68.7012" onclick="umlload('#getFormat()')" stroke="none">getFormat() : ODataPubFormat</text>
    </g>
    <g font-family="sans-serif" transform="matrix(0.3507,0,0,0.3507,128.7191,293.9144)">
      <text xml:space="preserve" x="4" y="83.1719" stroke="none">+</text>
      <text xml:space="preserve" x="19" y="84.6699" onclick="umlload('#setFormat(com.msopentech.odatajclient.engine.format.ODataPubFormat)')" stroke="none">setFormat(ODataPubFormat) : void</text>
    </g>
    <g font-family="sans-serif" transform="matrix(0.3507,0,0,0.3507,128.7191,293.9144)">
      <text xml:space="preserve" x="-361" y="151.1543" onclick="umlload('http://www.yworks.com/')" stroke="none">yWorks UML Doclet</text>
    </g>
    <g stroke-miterlimit="1.45" transform="matrix(0.3507,0,0,0.3507,128.7191,293.9144)" stroke-linecap="butt">
      <path fill="none" d="M471.74 -0.0229 L471.74 -69"/>
      <path fill="white" d="M471.74 -84 L465.74 -68 L477.74 -68 Z" stroke="none"/>
      <path fill="none" d="M471.74 -84 L465.74 -68 L477.74 -68 Z"/>
      <path fill="none" d="M-0.0292 11.5664 L-218.62 11.5664"/>
      <line stroke-linecap="square" transform="matrix(-1,0,0,-1,-218.62,11.5664)" fill="none" x1="0" x2="-14" y1="0" y2="-4" stroke-miterlimit="10"/>
      <line stroke-linecap="square" transform="matrix(-1,0,0,-1,-218.62,11.5664)" fill="none" x1="0" x2="-14" y1="0" y2="4" stroke-miterlimit="10"/>
    </g>
    <g stroke-dasharray="6,2" stroke-miterlimit="1.45" transform="matrix(0.3507,0,0,0.3507,128.7191,293.9144)" stroke-linecap="butt">
      <path fill="none" d="M943.4671 11.5664 L1009.48 11.5664"/>
      <line stroke-linecap="square" transform="matrix(1,0,0,1,1009.48,11.5664)" fill="none" x1="0" x2="-14" y1="0" y2="-4" stroke-dasharray="none" stroke-miterlimit="10"/>
      <line stroke-linecap="square" transform="matrix(1,0,0,1,1009.48,11.5664)" fill="none" x1="0" x2="-14" y1="0" y2="4" stroke-dasharray="none" stroke-miterlimit="10"/>
    </g>
    <g stroke-dasharray="6,2" stroke-miterlimit="1.45" transform="matrix(0.3507,0,0,0.3507,128.7191,293.9144)" stroke-linecap="butt">
      <path fill="none" d="M943.4562 98.6992 L1009.48 98.6992"/>
      <line stroke-linecap="square" transform="matrix(1,0,0,1,1009.48,98.6992)" fill="none" x1="0" x2="-14" y1="0" y2="-4" stroke-dasharray="none" stroke-miterlimit="10"/>
      <line stroke-linecap="square" transform="matrix(1,0,0,1,1009.48,98.6992)" fill="none" x1="0" x2="-14" y1="0" y2="4" stroke-dasharray="none" stroke-miterlimit="10"/>
    </g>
  </g>
</svg>
