<?xml version="1.0" encoding="UTF-8"?><svg xmlns="http://www.w3.org/2000/svg" xmlns:xlink="http://www.w3.org/1999/xlink" fill-opacity="1" color-rendering="auto" color-interpolation="auto" stroke="black" text-rendering="auto" stroke-linecap="square" width="598" stroke-miterlimit="10" stroke-opacity="1" shape-rendering="auto" fill="black" stroke-dasharray="none" font-weight="normal" stroke-width="1" height="598" font-family="'Dialog'" font-style="normal" stroke-linejoin="miter" font-size="12" stroke-dashoffset="0" image-rendering="auto">
  <!--Generated by ySVG-->
  <defs id="genericDefs"/>
  <g>
    <defs id="defs1">
      <clipPath clipPathUnits="userSpaceOnUse" id="clipPath1">
        <path d="M0 0 L598 0 L598 598 L0 598 L0 0 Z"/>
      </clipPath>
      <clipPath clipPathUnits="userSpaceOnUse" id="clipPath2">
        <path d="M672.67 87.1328 L705.63 87.1328 L705.63 110.2656 L672.67 110.2656 L672.67 87.1328 Z"/>
      </clipPath>
      <clipPath clipPathUnits="userSpaceOnUse" id="clipPath3">
        <path d="M672.67 0 L1197.97 0 L1197.97 23.1328 L672.67 23.1328 L672.67 0 Z"/>
      </clipPath>
      <clipPath clipPathUnits="userSpaceOnUse" id="clipPath4">
        <path d="M-167.97 0 L-66 0 L-66 23.1328 L-167.97 23.1328 L-167.97 0 Z"/>
      </clipPath>
      <clipPath clipPathUnits="userSpaceOnUse" id="clipPath5">
        <path d="M1242.8208 -100.3574 C1242.8208 -91.3234 1181.8439 -84 1106.625 -84 C1031.4061 -84 970.4291 -91.3234 970.4291 -100.3574 C970.4291 -109.3913 1031.4061 -116.7147 1106.625 -116.7147 C1181.8439 -116.7147 1242.8208 -109.3913 1242.8208 -100.3574 Z"/>
      </clipPath>
      <clipPath clipPathUnits="userSpaceOnUse" id="clipPath6">
        <path d="M-236.9 -107.1328 L843.57 -107.1328 L843.57 -84 L-236.9 -84 L-236.9 -107.1328 Z"/>
      </clipPath>
      <clipPath clipPathUnits="userSpaceOnUse" id="clipPath7">
        <path d="M0 0 L606.67 0 L606.67 118.2656 L0 118.2656 L0 0 Z"/>
      </clipPath>
      <script type="text/ecmascript"><![CDATA[
function umlload(newLocation)
{
if (newLocation.charAt(0) != '#') {
if (newLocation.indexOf("://") > -1) {
window.parent.location.href = newLocation;
} else {
var tmp = window.parent.location.href;
tmp = tmp.substring(0, tmp.lastIndexOf("/") + 1);
window.parent.location.href = tmp.concat(newLocation);
}
} else {
window.parent.location.hash = newLocation;
}
}
]]></script>
    </defs>
    <g fill="rgb(238,238,255)" transform="matrix(0.3749,0,0,0.3749,91.8558,295.4382)" stroke="rgb(238,238,255)">
      <rect width="69.7758" x="664.67" height="17.9688" y="61.1328" stroke="none"/>
    </g>
    <g fill="rgb(166,166,178)" stroke-miterlimit="1.45" transform="matrix(0.3749,0,0,0.3749,91.8558,295.4382)" stroke-linecap="butt" stroke="rgb(166,166,178)">
      <rect fill="none" width="69.7758" x="664.67" height="17.9688" y="61.1328"/>
    </g>
    <g fill="rgb(238,238,255)" transform="matrix(0.3749,0,0,0.3749,91.8558,295.4382)" stroke="rgb(238,238,255)">
      <rect width="73.96" x="664.67" height="39.1641" y="79.1016" stroke="none"/>
    </g>
    <g fill="rgb(166,166,178)" stroke-miterlimit="1.45" transform="matrix(0.3749,0,0,0.3749,91.8558,295.4382)" stroke-linecap="butt" stroke="rgb(166,166,178)">
      <rect fill="none" width="73.96" x="664.67" height="39.1641" y="79.1016"/>
    </g>
    <g font-family="sans-serif" transform="matrix(0.3749,0,0,0.3749,91.8558,295.4382)">
      <text xml:space="preserve" x="670.67" y="74.2715" onclick="umlload('http://docs.oracle.com/javase/6/docs/api/java/net/package-summary.html')" stroke="none">java.net</text>
    </g>
    <g fill="rgb(187,187,255)" transform="matrix(0.3749,0,0,0.3749,91.8558,295.4382)" stroke="rgb(187,187,255)">
      <rect x="672.67" y="87.1328" clip-path="url(#clipPath2)" width="32.96" height="23.1328" stroke="none"/>
    </g>
    <g fill="rgb(130,130,178)" stroke-miterlimit="1.45" transform="matrix(0.3749,0,0,0.3749,91.8558,295.4382)" stroke-linecap="butt" stroke="rgb(130,130,178)">
      <rect fill="none" width="32.96" x="672.67" height="23.1328" y="87.1328"/>
    </g>
    <g font-size="13" font-weight="bold" font-family="sans-serif" transform="matrix(0.3749,0,0,0.3749,91.8558,295.4382)">
      <text xml:space="preserve" x="677.15" y="103.1997" onclick="umlload('http://docs.oracle.com/javase/6/docs/api/java/net/URI.html')" stroke="none">URI</text>
    </g>
    <g fill="rgb(238,238,255)" transform="matrix(0.3749,0,0,0.3749,91.8558,295.4382)" stroke="rgb(238,238,255)">
      <rect width="493.0749" x="664.67" height="17.9688" y="-26" stroke="none"/>
    </g>
    <g fill="rgb(166,166,178)" stroke-miterlimit="1.45" transform="matrix(0.3749,0,0,0.3749,91.8558,295.4382)" stroke-linecap="butt" stroke="rgb(166,166,178)">
      <rect fill="none" width="493.0749" x="664.67" height="17.9688" y="-26"/>
    </g>
    <g fill="rgb(238,238,255)" transform="matrix(0.3749,0,0,0.3749,91.8558,295.4382)" stroke="rgb(238,238,255)">
      <rect width="541.3" x="664.67" height="39.1641" y="-8.0312" stroke="none"/>
    </g>
    <g fill="rgb(166,166,178)" stroke-miterlimit="1.45" transform="matrix(0.3749,0,0,0.3749,91.8558,295.4382)" stroke-linecap="butt" stroke="rgb(166,166,178)">
      <rect fill="none" width="541.3" x="664.67" height="39.1641" y="-8.0312"/>
    </g>
    <g font-family="sans-serif" transform="matrix(0.3749,0,0,0.3749,91.8558,295.4382)">
      <text xml:space="preserve" x="670.67" y="-12.8613" onclick="umlload('../../../../../../../com/msopentech/odatajclient/engine/communication/request/streamed/package-summary.html')" stroke="none">com.msopentech.odatajclient.engine.communication.request.streamed</text>
    </g>
    <g fill="rgb(187,187,255)" transform="matrix(0.3749,0,0,0.3749,91.8558,295.4382)" stroke="rgb(187,187,255)">
      <rect x="672.67" y="0" clip-path="url(#clipPath3)" width="525.3" height="23.1328" stroke="none"/>
    </g>
    <g fill="rgb(130,130,178)" stroke-miterlimit="1.45" transform="matrix(0.3749,0,0,0.3749,91.8558,295.4382)" stroke-linecap="butt" stroke="rgb(130,130,178)">
      <rect fill="none" width="525.3" x="672.67" height="23.1328" y="0"/>
    </g>
    <g font-size="13" font-weight="bold" font-family="sans-serif" transform="matrix(0.3749,0,0,0.3749,91.8558,295.4382)">
      <text xml:space="preserve" x="684.32" y="16.0669" onclick="umlload('../../../../../../../com/msopentech/odatajclient/engine/communication/request/streamed/ODataMediaEntityCreateRequest.MediaEntityCreateStreamManager.html')" stroke="none">ODataMediaEntityCreateRequest.MediaEntityCreateStreamManager</text>
    </g>
    <g fill="rgb(238,238,255)" transform="matrix(0.3749,0,0,0.3749,91.8558,295.4382)" stroke="rgb(238,238,255)">
      <rect width="59.1668" x="-175.97" height="17.9688" y="-26" stroke="none"/>
    </g>
    <g fill="rgb(166,166,178)" stroke-miterlimit="1.45" transform="matrix(0.3749,0,0,0.3749,91.8558,295.4382)" stroke-linecap="butt" stroke="rgb(166,166,178)">
      <rect fill="none" width="59.1668" x="-175.97" height="17.9688" y="-26"/>
    </g>
    <g fill="rgb(238,238,255)" transform="matrix(0.3749,0,0,0.3749,91.8558,295.4382)" stroke="rgb(238,238,255)">
      <rect width="117.97" x="-175.97" height="39.1641" y="-8.0312" stroke="none"/>
    </g>
    <g fill="rgb(166,166,178)" stroke-miterlimit="1.45" transform="matrix(0.3749,0,0,0.3749,91.8558,295.4382)" stroke-linecap="butt" stroke="rgb(166,166,178)">
      <rect fill="none" width="117.97" x="-175.97" height="39.1641" y="-8.0312"/>
    </g>
    <g font-family="sans-serif" transform="matrix(0.3749,0,0,0.3749,91.8558,295.4382)">
      <text xml:space="preserve" x="-169.97" y="-12.8613" onclick="umlload('http://docs.oracle.com/javase/6/docs/api/java/io/package-summary.html')" stroke="none">java.io</text>
    </g>
    <g fill="rgb(204,204,255)" transform="matrix(0.3749,0,0,0.3749,91.8558,295.4382)" stroke="rgb(204,204,255)">
      <rect x="-167.97" y="0" clip-path="url(#clipPath4)" width="101.97" height="23.1328" stroke="none"/>
    </g>
    <g fill="rgb(142,142,178)" stroke-miterlimit="1.45" transform="matrix(0.3749,0,0,0.3749,91.8558,295.4382)" stroke-linecap="butt" stroke="rgb(142,142,178)">
      <rect fill="none" width="101.97" x="-167.97" height="23.1328" y="0"/>
    </g>
    <g font-size="13" font-weight="bold" font-family="sans-serif" transform="matrix(0.3749,0,0,0.3749,91.8558,295.4382)">
      <text xml:space="preserve" x="-162.485" y="16.0669" onclick="umlload('http://docs.oracle.com/javase/6/docs/api/java/io/InputStream.html')" stroke="none">InputStream</text>
    </g>
    <g fill="rgb(238,238,255)" transform="matrix(0.3749,0,0,0.3749,91.8558,295.4382)" stroke="rgb(238,238,255)">
      <rect width="467.6133" x="881.4292" height="17.9688" y="-142.7147" stroke="none"/>
    </g>
    <g fill="rgb(166,166,178)" stroke-miterlimit="1.45" transform="matrix(0.3749,0,0,0.3749,91.8558,295.4382)" stroke-linecap="butt" stroke="rgb(166,166,178)">
      <rect fill="none" width="467.6133" x="881.4292" height="17.9688" y="-142.7147"/>
    </g>
    <g fill="rgb(238,238,255)" transform="matrix(0.3749,0,0,0.3749,91.8558,295.4382)" stroke="rgb(238,238,255)">
      <rect width="467.6133" x="881.4292" height="48.746" y="-124.746" stroke="none"/>
    </g>
    <g fill="rgb(166,166,178)" stroke-miterlimit="1.45" transform="matrix(0.3749,0,0,0.3749,91.8558,295.4382)" stroke-linecap="butt" stroke="rgb(166,166,178)">
      <rect fill="none" width="467.6133" x="881.4292" height="48.746" y="-124.746"/>
    </g>
    <g font-family="sans-serif" transform="matrix(0.3749,0,0,0.3749,91.8558,295.4382)">
      <text xml:space="preserve" x="887.4291" y="-129.5761" onclick="umlload('../../../../../../../com/msopentech/odatajclient/engine/communication/request/batch/package-summary.html')" stroke="none">com.msopentech.odatajclient.engine.communication.request.batch</text>
    </g>
    <g fill="rgb(221,221,255)" transform="matrix(0.3749,0,0,0.3749,91.8558,295.4382)" stroke="rgb(221,221,255)">
      <rect x="970.4292" y="-116.7147" clip-path="url(#clipPath5)" width="272.3917" height="32.7147" stroke="none"/>
    </g>
    <g fill="rgb(154,154,178)" stroke-miterlimit="1.45" transform="matrix(0.3749,0,0,0.3749,91.8558,295.4382)" stroke-linecap="butt" stroke="rgb(154,154,178)">
      <ellipse rx="136.1958" fill="none" ry="16.3574" cx="1106.625" cy="-100.3574"/>
    </g>
    <g font-style="italic" font-size="13" font-weight="bold" font-family="sans-serif" transform="matrix(0.3749,0,0,0.3749,91.8558,295.4382)">
      <text xml:space="preserve" x="1017.125" y="-95.8569" onclick="umlload('../../../../../../../com/msopentech/odatajclient/engine/communication/request/batch/ODataBatchableRequest.html')" stroke="none">ODataBatchableRequest</text>
    </g>
    <g fill="rgb(238,238,255)" transform="matrix(0.3749,0,0,0.3749,91.8558,295.4382)" stroke="rgb(238,238,255)">
      <rect width="493.0749" x="-244.9" height="17.9688" y="-133.1328" stroke="none"/>
    </g>
    <g fill="rgb(166,166,178)" stroke-miterlimit="1.45" transform="matrix(0.3749,0,0,0.3749,91.8558,295.4382)" stroke-linecap="butt" stroke="rgb(166,166,178)">
      <rect fill="none" width="493.0749" x="-244.9" height="17.9688" y="-133.1328"/>
    </g>
    <g fill="rgb(238,238,255)" transform="matrix(0.3749,0,0,0.3749,91.8558,295.4382)" stroke="rgb(238,238,255)">
      <rect width="1096.47" x="-244.9" height="39.1641" y="-115.1641" stroke="none"/>
    </g>
    <g fill="rgb(166,166,178)" stroke-miterlimit="1.45" transform="matrix(0.3749,0,0,0.3749,91.8558,295.4382)" stroke-linecap="butt" stroke="rgb(166,166,178)">
      <rect fill="none" width="1096.47" x="-244.9" height="39.1641" y="-115.1641"/>
    </g>
    <g font-family="sans-serif" transform="matrix(0.3749,0,0,0.3749,91.8558,295.4382)">
      <text xml:space="preserve" x="-238.9" y="-119.9941" onclick="umlload('../../../../../../../com/msopentech/odatajclient/engine/communication/request/streamed/package-summary.html')" stroke="none">com.msopentech.odatajclient.engine.communication.request.streamed</text>
    </g>
    <g fill="rgb(204,204,255)" transform="matrix(0.3749,0,0,0.3749,91.8558,295.4382)" stroke="rgb(204,204,255)">
      <rect x="-236.9" y="-107.1328" clip-path="url(#clipPath6)" width="1080.47" height="23.1328" stroke="none"/>
    </g>
    <g fill="rgb(142,142,178)" stroke-miterlimit="1.45" transform="matrix(0.3749,0,0,0.3749,91.8558,295.4382)" stroke-linecap="butt" stroke="rgb(142,142,178)">
      <rect fill="none" width="1080.47" x="-236.9" height="23.1328" y="-107.1328"/>
    </g>
    <g font-size="13" font-weight="bold" font-family="sans-serif" transform="matrix(0.3749,0,0,0.3749,91.8558,295.4382)">
      <text xml:space="preserve" x="-217.165" y="-91.0659" onclick="umlload('../../../../../../../com/msopentech/odatajclient/engine/communication/request/streamed/ODataStreamedEntityRequestImpl.html')" stroke="none">ODataStreamedEntityRequestImpl&lt;ODataMediaEntityCreateResponse, ODataMediaEntityCreateRequest.MediaEntityCreateStreamManager&gt;</text>
    </g>
    <g fill="rgb(238,238,255)" transform="matrix(0.3749,0,0,0.3749,91.8558,295.4382)" stroke="rgb(238,238,255)">
      <rect width="493.0749" x="-8" height="17.9688" y="-26" stroke="none"/>
    </g>
    <g fill="rgb(166,166,178)" stroke-miterlimit="1.45" transform="matrix(0.3749,0,0,0.3749,91.8558,295.4382)" stroke-linecap="butt" stroke="rgb(166,166,178)">
      <rect fill="none" width="493.0749" x="-8" height="17.9688" y="-26"/>
    </g>
    <g fill="rgb(238,238,255)" transform="matrix(0.3749,0,0,0.3749,91.8558,295.4382)" stroke="rgb(238,238,255)">
      <rect width="622.67" x="-8" height="134.2969" y="-8.0312" stroke="none"/>
    </g>
    <g fill="rgb(166,166,178)" stroke-miterlimit="1.45" transform="matrix(0.3749,0,0,0.3749,91.8558,295.4382)" stroke-linecap="butt" stroke="rgb(166,166,178)">
      <rect fill="none" width="622.67" x="-8" height="134.2969" y="-8.0312"/>
    </g>
    <g font-family="sans-serif" transform="matrix(0.3749,0,0,0.3749,91.8558,295.4382)">
      <text xml:space="preserve" x="-2" y="-12.8613" onclick="umlload('package-summary.html')" stroke="none">com.msopentech.odatajclient.engine.communication.request.streamed</text>
    </g>
    <g fill="rgb(187,187,255)" transform="matrix(0.3749,0,0,0.3749,91.8558,295.4382)" stroke="rgb(187,187,255)">
      <rect x="0" y="0" clip-path="url(#clipPath7)" width="606.67" height="26.625" stroke="none"/>
      <line clip-path="url(#clipPath7)" fill="none" x1="0" x2="606.67" y1="26.625" y2="26.625" stroke="black"/>
      <line clip-path="url(#clipPath7)" x1="0" x2="606.67" y1="27.625" y2="27.625" stroke="none"/>
      <line clip-path="url(#clipPath7)" fill="none" x1="0" x2="606.67" y1="27.625" y2="27.625" stroke="black"/>
      <rect x="0" y="28.625" clip-path="url(#clipPath7)" width="606.67" height="89.6406" stroke="none"/>
    </g>
    <g fill="rgb(130,130,178)" stroke-miterlimit="1.45" transform="matrix(0.3749,0,0,0.3749,91.8558,295.4382)" stroke-linecap="butt" stroke="rgb(130,130,178)">
      <rect fill="none" width="606.67" x="0" height="118.2656" y="0"/>
    </g>
    <g font-size="16" font-weight="bold" font-family="sans-serif" transform="matrix(0.3749,0,0,0.3749,91.8558,295.4382)">
      <text xml:space="preserve" x="157.335" y="18.8516" onclick="umlload('#')" stroke="none">ODataMediaEntityCreateRequest</text>
    </g>
    <g font-family="sans-serif" transform="matrix(0.3749,0,0,0.3749,91.8558,295.4382)">
      <text xml:space="preserve" x="4" y="39.1719" stroke="none">#</text>
      <text xml:space="preserve" x="19" y="40.7637" onclick="umlload('#getStreamManager()')" stroke="none">getStreamManager() : ODataMediaEntityCreateRequest.MediaEntityCreateStreamManager</text>
    </g>
    <g font-family="sans-serif" transform="matrix(0.3749,0,0,0.3749,91.8558,295.4382)">
      <text xml:space="preserve" x="-239" y="151.1543" onclick="umlload('http://www.yworks.com/')" stroke="none">yWorks UML Doclet</text>
    </g>
    <g stroke-miterlimit="1.45" transform="matrix(0.3749,0,0,0.3749,91.8558,295.4382)" stroke-linecap="butt">
      <path fill="none" d="M303.335 -0.0039 L303.335 -69"/>
      <path fill="white" d="M303.335 -84 L297.335 -68 L309.335 -68 Z" stroke="none"/>
      <path fill="none" d="M303.335 -84 L297.335 -68 L309.335 -68 Z"/>
      <path fill="none" stroke-dasharray="6,2" d="M455.0025 0 L455.0025 -51 L1106.625 -51 L1106.625 -69"/>
      <path fill="white" stroke-dasharray="6,2" d="M1106.625 -84 L1100.625 -68 L1112.625 -68 Z" stroke="none"/>
      <path fill="none" d="M1106.625 -84 L1100.625 -68 L1112.625 -68 Z"/>
      <path fill="none" d="M0.0242 11.5664 L-66 11.5664"/>
      <line stroke-linecap="square" transform="matrix(-1,0,0,-1,-66,11.5664)" fill="none" x1="0" x2="-14" y1="0" y2="-4" stroke-miterlimit="10"/>
      <line stroke-linecap="square" transform="matrix(-1,0,0,-1,-66,11.5664)" fill="none" x1="0" x2="-14" y1="0" y2="4" stroke-miterlimit="10"/>
    </g>
    <g stroke-dasharray="6,2" stroke-miterlimit="1.45" transform="matrix(0.3749,0,0,0.3749,91.8558,295.4382)" stroke-linecap="butt">
      <path fill="none" d="M606.6369 11.5664 L672.67 11.5664"/>
      <line stroke-linecap="square" transform="matrix(1,0,0,1,672.67,11.5664)" fill="none" x1="0" x2="-14" y1="0" y2="-4" stroke-dasharray="none" stroke-miterlimit="10"/>
      <line stroke-linecap="square" transform="matrix(1,0,0,1,672.67,11.5664)" fill="none" x1="0" x2="-14" y1="0" y2="4" stroke-dasharray="none" stroke-miterlimit="10"/>
    </g>
    <g stroke-dasharray="6,2" stroke-miterlimit="1.45" transform="matrix(0.3749,0,0,0.3749,91.8558,295.4382)" stroke-linecap="butt">
      <path fill="none" d="M606.6839 98.6992 L672.67 98.6992"/>
      <line stroke-linecap="square" transform="matrix(1,0,0,1,672.67,98.6992)" fill="none" x1="0" x2="-14" y1="0" y2="-4" stroke-dasharray="none" stroke-miterlimit="10"/>
      <line stroke-linecap="square" transform="matrix(1,0,0,1,672.67,98.6992)" fill="none" x1="0" x2="-14" y1="0" y2="4" stroke-dasharray="none" stroke-miterlimit="10"/>
    </g>
  </g>
</svg>
