<?xml version="1.0" encoding="UTF-8"?><svg xmlns="http://www.w3.org/2000/svg" xmlns:xlink="http://www.w3.org/1999/xlink" fill-opacity="1" color-rendering="auto" color-interpolation="auto" stroke="black" text-rendering="auto" stroke-linecap="square" width="598" stroke-miterlimit="10" stroke-opacity="1" shape-rendering="auto" fill="black" stroke-dasharray="none" font-weight="normal" stroke-width="1" height="598" font-family="'Dialog'" font-style="normal" stroke-linejoin="miter" font-size="12" stroke-dashoffset="0" image-rendering="auto">
  <!--Generated by ySVG-->
  <defs id="genericDefs"/>
  <g>
    <defs id="defs1">
      <clipPath clipPathUnits="userSpaceOnUse" id="clipPath1">
        <path d="M0 0 L598 0 L598 598 L0 598 L0 0 Z"/>
      </clipPath>
      <clipPath clipPathUnits="userSpaceOnUse" id="clipPath2">
        <path d="M620.14 183.8475 L694.3 183.8475 L694.3 206.9804 L620.14 206.9804 L620.14 183.8475 Z"/>
      </clipPath>
      <clipPath clipPathUnits="userSpaceOnUse" id="clipPath3">
        <path d="M620.14 96.7147 L722.11 96.7147 L722.11 119.8475 L620.14 119.8475 L620.14 96.7147 Z"/>
      </clipPath>
      <clipPath clipPathUnits="userSpaceOnUse" id="clipPath4">
        <path d="M956.6238 16.3574 C956.6238 25.3913 881.2994 32.7147 788.3819 32.7147 C695.4645 32.7147 620.14 25.3913 620.14 16.3574 C620.14 7.3234 695.4645 -0 788.3819 -0 C881.2994 -0 956.6238 7.3234 956.6238 16.3574 Z"/>
      </clipPath>
      <clipPath clipPathUnits="userSpaceOnUse" id="clipPath5">
        <path d="M61.285 -107.1328 L492.855 -107.1328 L492.855 -84 L61.285 -84 L61.285 -107.1328 Z"/>
      </clipPath>
      <clipPath clipPathUnits="userSpaceOnUse" id="clipPath6">
        <path d="M0 -0 L554.14 -0 L554.14 214.9804 L0 214.9804 L0 -0 Z"/>
      </clipPath>
      <script type="text/ecmascript"><![CDATA[
function umlload(newLocation)
{
if (newLocation.charAt(0) != '#') {
if (newLocation.indexOf("://") > -1) {
window.parent.location.href = newLocation;
} else {
var tmp = window.parent.location.href;
tmp = tmp.substring(0, tmp.lastIndexOf("/") + 1);
window.parent.location.href = tmp.concat(newLocation);
}
} else {
window.parent.location.hash = newLocation;
}
}
]]></script>
    </defs>
    <g fill="rgb(238,238,255)" transform="matrix(0.5663,0,0,0.5663,4.5303,263.8902)" stroke="rgb(238,238,255)">
      <rect width="145.0997" x="612.14" height="17.9688" y="157.8475" stroke="none"/>
    </g>
    <g fill="rgb(166,166,178)" stroke-miterlimit="1.45" transform="matrix(0.5663,0,0,0.5663,4.5303,263.8902)" stroke-linecap="butt" stroke="rgb(166,166,178)">
      <rect fill="none" width="145.0997" x="612.14" height="17.9688" y="157.8475"/>
    </g>
    <g fill="rgb(238,238,255)" transform="matrix(0.5663,0,0,0.5663,4.5303,263.8902)" stroke="rgb(238,238,255)">
      <rect width="147.16" x="612.14" height="39.1641" y="175.8163" stroke="none"/>
    </g>
    <g fill="rgb(166,166,178)" stroke-miterlimit="1.45" transform="matrix(0.5663,0,0,0.5663,4.5303,263.8902)" stroke-linecap="butt" stroke="rgb(166,166,178)">
      <rect fill="none" width="147.16" x="612.14" height="39.1641" y="175.8163"/>
    </g>
    <g font-family="sans-serif" transform="matrix(0.5663,0,0,0.5663,4.5303,263.8902)">
      <text xml:space="preserve" x="618.14" y="170.9862" onclick="umlload('http://docs.oracle.com/javase/6/docs/api/java/util/concurrent/package-summary.html')" stroke="none">java.util.concurrent</text>
    </g>
    <g fill="rgb(204,204,255)" transform="matrix(0.5663,0,0,0.5663,4.5303,263.8902)" stroke="rgb(204,204,255)">
      <rect x="620.14" y="183.8475" clip-path="url(#clipPath2)" width="74.16" height="23.1328" stroke="none"/>
    </g>
    <g fill="rgb(142,142,178)" stroke-miterlimit="1.45" transform="matrix(0.5663,0,0,0.5663,4.5303,263.8902)" stroke-linecap="butt" stroke="rgb(142,142,178)">
      <rect fill="none" width="74.16" x="620.14" height="23.1328" y="183.8475"/>
    </g>
    <g font-size="13" font-weight="bold" font-family="sans-serif" transform="matrix(0.5663,0,0,0.5663,4.5303,263.8902)">
      <text xml:space="preserve" x="625.22" y="199.9144" onclick="umlload('http://docs.oracle.com/javase/6/docs/api/java/util/concurrent/TimeUnit.html')" stroke="none">TimeUnit</text>
    </g>
    <g fill="rgb(238,238,255)" transform="matrix(0.5663,0,0,0.5663,4.5303,263.8902)" stroke="rgb(238,238,255)">
      <rect width="59.1668" x="612.14" height="17.9688" y="70.7147" stroke="none"/>
    </g>
    <g fill="rgb(166,166,178)" stroke-miterlimit="1.45" transform="matrix(0.5663,0,0,0.5663,4.5303,263.8902)" stroke-linecap="butt" stroke="rgb(166,166,178)">
      <rect fill="none" width="59.1668" x="612.14" height="17.9688" y="70.7147"/>
    </g>
    <g fill="rgb(238,238,255)" transform="matrix(0.5663,0,0,0.5663,4.5303,263.8902)" stroke="rgb(238,238,255)">
      <rect width="117.97" x="612.14" height="39.1641" y="88.6835" stroke="none"/>
    </g>
    <g fill="rgb(166,166,178)" stroke-miterlimit="1.45" transform="matrix(0.5663,0,0,0.5663,4.5303,263.8902)" stroke-linecap="butt" stroke="rgb(166,166,178)">
      <rect fill="none" width="117.97" x="612.14" height="39.1641" y="88.6835"/>
    </g>
    <g font-family="sans-serif" transform="matrix(0.5663,0,0,0.5663,4.5303,263.8902)">
      <text xml:space="preserve" x="618.14" y="83.8534" onclick="umlload('http://docs.oracle.com/javase/6/docs/api/java/io/package-summary.html')" stroke="none">java.io</text>
    </g>
    <g fill="rgb(204,204,255)" transform="matrix(0.5663,0,0,0.5663,4.5303,263.8902)" stroke="rgb(204,204,255)">
      <rect x="620.14" y="96.7147" clip-path="url(#clipPath3)" width="101.97" height="23.1328" stroke="none"/>
    </g>
    <g fill="rgb(142,142,178)" stroke-miterlimit="1.45" transform="matrix(0.5663,0,0,0.5663,4.5303,263.8902)" stroke-linecap="butt" stroke="rgb(142,142,178)">
      <rect fill="none" width="101.97" x="620.14" height="23.1328" y="96.7147"/>
    </g>
    <g font-size="13" font-weight="bold" font-family="sans-serif" transform="matrix(0.5663,0,0,0.5663,4.5303,263.8902)">
      <text xml:space="preserve" x="625.625" y="112.7816" onclick="umlload('http://docs.oracle.com/javase/6/docs/api/java/io/InputStream.html')" stroke="none">InputStream</text>
    </g>
    <g fill="rgb(238,238,255)" transform="matrix(0.5663,0,0,0.5663,4.5303,263.8902)" stroke="rgb(238,238,255)">
      <rect width="435.7863" x="612.14" height="17.9688" y="-26" stroke="none"/>
    </g>
    <g fill="rgb(166,166,178)" stroke-miterlimit="1.45" transform="matrix(0.5663,0,0,0.5663,4.5303,263.8902)" stroke-linecap="butt" stroke="rgb(166,166,178)">
      <rect fill="none" width="435.7863" x="612.14" height="17.9688" y="-26"/>
    </g>
    <g fill="rgb(238,238,255)" transform="matrix(0.5663,0,0,0.5663,4.5303,263.8902)" stroke="rgb(238,238,255)">
      <rect width="435.7863" x="612.14" height="48.746" y="-8.0312" stroke="none"/>
    </g>
    <g fill="rgb(166,166,178)" stroke-miterlimit="1.45" transform="matrix(0.5663,0,0,0.5663,4.5303,263.8902)" stroke-linecap="butt" stroke="rgb(166,166,178)">
      <rect fill="none" width="435.7863" x="612.14" height="48.746" y="-8.0312"/>
    </g>
    <g font-family="sans-serif" transform="matrix(0.5663,0,0,0.5663,4.5303,263.8902)">
      <text xml:space="preserve" x="618.14" y="-12.8613" onclick="umlload('../../../../../../../com/msopentech/odatajclient/engine/communication/response/package-summary.html')" stroke="none">com.msopentech.odatajclient.engine.communication.response</text>
    </g>
    <g fill="rgb(221,221,255)" transform="matrix(0.5663,0,0,0.5663,4.5303,263.8902)" stroke="rgb(221,221,255)">
      <rect x="620.14" y="0" clip-path="url(#clipPath4)" width="336.4838" height="32.7147" stroke="none"/>
    </g>
    <g fill="rgb(154,154,178)" stroke-miterlimit="1.45" transform="matrix(0.5663,0,0,0.5663,4.5303,263.8902)" stroke-linecap="butt" stroke="rgb(154,154,178)">
      <ellipse rx="168.2419" fill="none" ry="16.3574" cx="788.3819" cy="16.3574"/>
    </g>
    <g font-style="italic" font-size="13" font-weight="bold" font-family="sans-serif" transform="matrix(0.5663,0,0,0.5663,4.5303,263.8902)">
      <text xml:space="preserve" x="676.8819" y="20.8579" onclick="umlload('../../../../../../../com/msopentech/odatajclient/engine/communication/response/ODataStreamUpdateResponse.html')" stroke="none">ODataStreamUpdateResponse</text>
    </g>
    <g fill="rgb(238,238,255)" transform="matrix(0.5663,0,0,0.5663,4.5303,263.8902)" stroke="rgb(238,238,255)">
      <rect width="425.1773" x="53.285" height="17.9688" y="-133.1328" stroke="none"/>
    </g>
    <g fill="rgb(166,166,178)" stroke-miterlimit="1.45" transform="matrix(0.5663,0,0,0.5663,4.5303,263.8902)" stroke-linecap="butt" stroke="rgb(166,166,178)">
      <rect fill="none" width="425.1773" x="53.285" height="17.9688" y="-133.1328"/>
    </g>
    <g fill="rgb(238,238,255)" transform="matrix(0.5663,0,0,0.5663,4.5303,263.8902)" stroke="rgb(238,238,255)">
      <rect width="447.57" x="53.285" height="39.1641" y="-115.1641" stroke="none"/>
    </g>
    <g fill="rgb(166,166,178)" stroke-miterlimit="1.45" transform="matrix(0.5663,0,0,0.5663,4.5303,263.8902)" stroke-linecap="butt" stroke="rgb(166,166,178)">
      <rect fill="none" width="447.57" x="53.285" height="39.1641" y="-115.1641"/>
    </g>
    <g font-family="sans-serif" transform="matrix(0.5663,0,0,0.5663,4.5303,263.8902)">
      <text xml:space="preserve" x="59.285" y="-119.9941" onclick="umlload('../../../../../../../com/msopentech/odatajclient/engine/communication/request/package-summary.html')" stroke="none">com.msopentech.odatajclient.engine.communication.request</text>
    </g>
    <g fill="rgb(204,204,255)" transform="matrix(0.5663,0,0,0.5663,4.5303,263.8902)" stroke="rgb(204,204,255)">
      <rect x="61.285" y="-107.1328" clip-path="url(#clipPath5)" width="431.57" height="23.1328" stroke="none"/>
    </g>
    <g fill="rgb(142,142,178)" stroke-miterlimit="1.45" transform="matrix(0.5663,0,0,0.5663,4.5303,263.8902)" stroke-linecap="butt" stroke="rgb(142,142,178)">
      <rect fill="none" width="431.57" x="61.285" height="23.1328" y="-107.1328"/>
    </g>
    <g font-size="13" font-weight="bold" font-family="sans-serif" transform="matrix(0.5663,0,0,0.5663,4.5303,263.8902)">
      <text xml:space="preserve" x="71.57" y="-91.0659" onclick="umlload('../../../../../../../com/msopentech/odatajclient/engine/communication/request/ODataStreamManager.html')" stroke="none">ODataStreamManager&lt;ODataStreamUpdateResponse&gt;</text>
    </g>
    <g fill="rgb(238,238,255)" transform="matrix(0.5663,0,0,0.5663,4.5303,263.8902)" stroke="rgb(238,238,255)">
      <rect width="493.0749" x="-8" height="17.9688" y="-26" stroke="none"/>
    </g>
    <g fill="rgb(166,166,178)" stroke-miterlimit="1.45" transform="matrix(0.5663,0,0,0.5663,4.5303,263.8902)" stroke-linecap="butt" stroke="rgb(166,166,178)">
      <rect fill="none" width="493.0749" x="-8" height="17.9688" y="-26"/>
    </g>
    <g fill="rgb(238,238,255)" transform="matrix(0.5663,0,0,0.5663,4.5303,263.8902)" stroke="rgb(238,238,255)">
      <rect width="570.14" x="-8" height="231.0116" y="-8.0312" stroke="none"/>
    </g>
    <g fill="rgb(166,166,178)" stroke-miterlimit="1.45" transform="matrix(0.5663,0,0,0.5663,4.5303,263.8902)" stroke-linecap="butt" stroke="rgb(166,166,178)">
      <rect fill="none" width="570.14" x="-8" height="231.0116" y="-8.0312"/>
    </g>
    <g font-family="sans-serif" transform="matrix(0.5663,0,0,0.5663,4.5303,263.8902)">
      <text xml:space="preserve" x="-2" y="-12.8613" onclick="umlload('package-summary.html')" stroke="none">com.msopentech.odatajclient.engine.communication.request.streamed</text>
    </g>
    <g fill="rgb(187,187,255)" transform="matrix(0.5663,0,0,0.5663,4.5303,263.8902)" stroke="rgb(187,187,255)">
      <rect x="0" y="0" clip-path="url(#clipPath6)" width="554.14" height="26.625" stroke="none"/>
      <line clip-path="url(#clipPath6)" fill="none" x1="0" x2="554.14" y1="26.625" y2="26.625" stroke="black"/>
      <line clip-path="url(#clipPath6)" x1="0" x2="554.14" y1="27.625" y2="27.625" stroke="none"/>
      <line clip-path="url(#clipPath6)" fill="none" x1="0" x2="554.14" y1="27.625" y2="27.625" stroke="black"/>
      <rect x="0" y="28.625" clip-path="url(#clipPath6)" width="554.14" height="186.3554" stroke="none"/>
    </g>
    <g fill="rgb(130,130,178)" stroke-miterlimit="1.45" transform="matrix(0.5663,0,0,0.5663,4.5303,263.8902)" stroke-linecap="butt" stroke="rgb(130,130,178)">
      <rect fill="none" width="554.14" x="0" height="214.9804" y="0"/>
    </g>
    <g font-size="16" font-weight="bold" font-family="sans-serif" transform="matrix(0.5663,0,0,0.5663,4.5303,263.8902)">
      <text xml:space="preserve" x="12.07" y="18.8516" onclick="umlload('#')" stroke="none">ODataStreamUpdateRequest.StreamUpdateStreamManager</text>
    </g>
    <g font-family="sans-serif" transform="matrix(0.5663,0,0,0.5663,4.5303,263.8902)">
      <text xml:space="preserve" x="4" y="39.1719" stroke="none">#</text>
      <text xml:space="preserve" x="19" y="40.7637" onclick="umlload('#getResponse(long, java.util.concurrent.TimeUnit)')" stroke="none">getResponse(long, TimeUnit) : ODataStreamUpdateResponse</text>
    </g>
    <g font-family="sans-serif" transform="matrix(0.5663,0,0,0.5663,4.5303,263.8902)">
      <text xml:space="preserve" x="-2" y="247.1543" onclick="umlload('http://www.yworks.com/')" stroke="none">yWorks UML Doclet</text>
    </g>
    <g stroke-miterlimit="1.45" transform="matrix(0.5663,0,0,0.5663,4.5303,263.8902)" stroke-linecap="butt">
      <path fill="none" d="M277.07 -0.0039 L277.07 -69"/>
      <path fill="white" d="M277.07 -84 L271.07 -68 L283.07 -68 Z" stroke="none"/>
      <path fill="none" d="M277.07 -84 L271.07 -68 L283.07 -68 Z"/>
      <path fill="none" stroke-dasharray="6,2" d="M554.1658 16.3574 L620.14 16.3574"/>
      <line stroke-linecap="square" transform="matrix(1,0,0,1,620.14,16.3574)" fill="none" x1="0" x2="-14" y1="0" y2="-4" stroke-miterlimit="10"/>
      <line stroke-linecap="square" transform="matrix(1,0,0,1,620.14,16.3574)" fill="none" x1="0" x2="-14" y1="0" y2="4" stroke-miterlimit="10"/>
    </g>
    <g stroke-dasharray="6,2" stroke-miterlimit="1.45" transform="matrix(0.5663,0,0,0.5663,4.5303,263.8902)" stroke-linecap="butt">
      <path fill="none" d="M554.188 108.2811 L620.14 108.2811"/>
      <line stroke-linecap="square" transform="matrix(1,0,0,1,620.14,108.2811)" fill="none" x1="0" x2="-14" y1="0" y2="-4" stroke-dasharray="none" stroke-miterlimit="10"/>
      <line stroke-linecap="square" transform="matrix(1,0,0,1,620.14,108.2811)" fill="none" x1="0" x2="-14" y1="0" y2="4" stroke-dasharray="none" stroke-miterlimit="10"/>
    </g>
    <g stroke-dasharray="6,2" stroke-miterlimit="1.45" transform="matrix(0.5663,0,0,0.5663,4.5303,263.8902)" stroke-linecap="butt">
      <path fill="none" d="M554.1544 195.414 L620.14 195.414"/>
      <line stroke-linecap="square" transform="matrix(1,0,0,1,620.14,195.414)" fill="none" x1="0" x2="-14" y1="0" y2="-4" stroke-dasharray="none" stroke-miterlimit="10"/>
      <line stroke-linecap="square" transform="matrix(1,0,0,1,620.14,195.414)" fill="none" x1="0" x2="-14" y1="0" y2="4" stroke-dasharray="none" stroke-miterlimit="10"/>
    </g>
  </g>
</svg>
