<?xml version="1.0" encoding="UTF-8"?><svg xmlns="http://www.w3.org/2000/svg" xmlns:xlink="http://www.w3.org/1999/xlink" fill-opacity="1" color-rendering="auto" color-interpolation="auto" stroke="black" text-rendering="auto" stroke-linecap="square" width="598" stroke-miterlimit="10" stroke-opacity="1" shape-rendering="auto" fill="black" stroke-dasharray="none" font-weight="normal" stroke-width="1" height="598" font-family="'Dialog'" font-style="normal" stroke-linejoin="miter" font-size="12" stroke-dashoffset="0" image-rendering="auto">
  <!--Generated by ySVG-->
  <defs id="genericDefs"/>
  <g>
    <defs id="defs1">
      <clipPath clipPathUnits="userSpaceOnUse" id="clipPath1">
        <path d="M0 0 L598 0 L598 598 L0 598 L0 0 Z"/>
      </clipPath>
      <clipPath clipPathUnits="userSpaceOnUse" id="clipPath2">
        <path d="M632.5 240.5312 L665.46 240.5312 L665.46 263.6641 L632.5 263.6641 L632.5 240.5312 Z"/>
      </clipPath>
      <clipPath clipPathUnits="userSpaceOnUse" id="clipPath3">
        <path d="M632.5 153.3984 L734.47 153.3984 L734.47 176.5312 L632.5 176.5312 L632.5 153.3984 Z"/>
      </clipPath>
      <clipPath clipPathUnits="userSpaceOnUse" id="clipPath4">
        <path d="M632.5 0 L891.03 0 L891.03 23.1328 L632.5 23.1328 L632.5 0 Z"/>
      </clipPath>
      <clipPath clipPathUnits="userSpaceOnUse" id="clipPath5">
        <path d="M632.5 33.1328 L896.18 33.1328 L896.18 56.2656 L632.5 56.2656 L632.5 33.1328 Z"/>
      </clipPath>
      <clipPath clipPathUnits="userSpaceOnUse" id="clipPath6">
        <path d="M632.5 66.2656 L861.16 66.2656 L861.16 89.3984 L632.5 89.3984 L632.5 66.2656 Z"/>
      </clipPath>
      <clipPath clipPathUnits="userSpaceOnUse" id="clipPath7">
        <path d="M254.41 -107.1328 L312.09 -107.1328 L312.09 -84 L254.41 -84 L254.41 -107.1328 Z"/>
      </clipPath>
      <clipPath clipPathUnits="userSpaceOnUse" id="clipPath8">
        <path d="M0 0 L566.5 0 L566.5 271.6641 L0 271.6641 L0 0 Z"/>
      </clipPath>
      <script type="text/ecmascript"><![CDATA[
function umlload(newLocation)
{
if (newLocation.charAt(0) != '#') {
if (newLocation.indexOf("://") > -1) {
window.parent.location.href = newLocation;
} else {
var tmp = window.parent.location.href;
tmp = tmp.substring(0, tmp.lastIndexOf("/") + 1);
window.parent.location.href = tmp.concat(newLocation);
}
} else {
window.parent.location.hash = newLocation;
}
}
]]></script>
    </defs>
    <g fill="rgb(238,238,255)" transform="matrix(0.5311,0,0,0.5311,4.2487,250.6714)" stroke="rgb(238,238,255)">
      <rect width="69.7758" x="624.5" height="17.9688" y="214.5312" stroke="none"/>
    </g>
    <g fill="rgb(166,166,178)" stroke-miterlimit="1.45" transform="matrix(0.5311,0,0,0.5311,4.2487,250.6714)" stroke-linecap="butt" stroke="rgb(166,166,178)">
      <rect fill="none" width="69.7758" x="624.5" height="17.9688" y="214.5312"/>
    </g>
    <g fill="rgb(238,238,255)" transform="matrix(0.5311,0,0,0.5311,4.2487,250.6714)" stroke="rgb(238,238,255)">
      <rect width="73.96" x="624.5" height="39.1641" y="232.5" stroke="none"/>
    </g>
    <g fill="rgb(166,166,178)" stroke-miterlimit="1.45" transform="matrix(0.5311,0,0,0.5311,4.2487,250.6714)" stroke-linecap="butt" stroke="rgb(166,166,178)">
      <rect fill="none" width="73.96" x="624.5" height="39.1641" y="232.5"/>
    </g>
    <g font-family="sans-serif" transform="matrix(0.5311,0,0,0.5311,4.2487,250.6714)">
      <text xml:space="preserve" x="630.5" y="227.6699" onclick="umlload('http://docs.oracle.com/javase/6/docs/api/java/net/package-summary.html')" stroke="none">java.net</text>
    </g>
    <g fill="rgb(187,187,255)" transform="matrix(0.5311,0,0,0.5311,4.2487,250.6714)" stroke="rgb(187,187,255)">
      <rect x="632.5" y="240.5312" clip-path="url(#clipPath2)" width="32.96" height="23.1328" stroke="none"/>
    </g>
    <g fill="rgb(130,130,178)" stroke-miterlimit="1.45" transform="matrix(0.5311,0,0,0.5311,4.2487,250.6714)" stroke-linecap="butt" stroke="rgb(130,130,178)">
      <rect fill="none" width="32.96" x="632.5" height="23.1328" y="240.5312"/>
    </g>
    <g font-size="13" font-weight="bold" font-family="sans-serif" transform="matrix(0.5311,0,0,0.5311,4.2487,250.6714)">
      <text xml:space="preserve" x="636.98" y="256.5981" onclick="umlload('http://docs.oracle.com/javase/6/docs/api/java/net/URI.html')" stroke="none">URI</text>
    </g>
    <g fill="rgb(238,238,255)" transform="matrix(0.5311,0,0,0.5311,4.2487,250.6714)" stroke="rgb(238,238,255)">
      <rect width="59.1668" x="624.5" height="17.9688" y="127.3984" stroke="none"/>
    </g>
    <g fill="rgb(166,166,178)" stroke-miterlimit="1.45" transform="matrix(0.5311,0,0,0.5311,4.2487,250.6714)" stroke-linecap="butt" stroke="rgb(166,166,178)">
      <rect fill="none" width="59.1668" x="624.5" height="17.9688" y="127.3984"/>
    </g>
    <g fill="rgb(238,238,255)" transform="matrix(0.5311,0,0,0.5311,4.2487,250.6714)" stroke="rgb(238,238,255)">
      <rect width="117.97" x="624.5" height="39.1641" y="145.3672" stroke="none"/>
    </g>
    <g fill="rgb(166,166,178)" stroke-miterlimit="1.45" transform="matrix(0.5311,0,0,0.5311,4.2487,250.6714)" stroke-linecap="butt" stroke="rgb(166,166,178)">
      <rect fill="none" width="117.97" x="624.5" height="39.1641" y="145.3672"/>
    </g>
    <g font-family="sans-serif" transform="matrix(0.5311,0,0,0.5311,4.2487,250.6714)">
      <text xml:space="preserve" x="630.5" y="140.5371" onclick="umlload('http://docs.oracle.com/javase/6/docs/api/java/io/package-summary.html')" stroke="none">java.io</text>
    </g>
    <g fill="rgb(204,204,255)" transform="matrix(0.5311,0,0,0.5311,4.2487,250.6714)" stroke="rgb(204,204,255)">
      <rect x="632.5" y="153.3984" clip-path="url(#clipPath3)" width="101.97" height="23.1328" stroke="none"/>
    </g>
    <g fill="rgb(142,142,178)" stroke-miterlimit="1.45" transform="matrix(0.5311,0,0,0.5311,4.2487,250.6714)" stroke-linecap="butt" stroke="rgb(142,142,178)">
      <rect fill="none" width="101.97" x="632.5" height="23.1328" y="153.3984"/>
    </g>
    <g font-size="13" font-weight="bold" font-family="sans-serif" transform="matrix(0.5311,0,0,0.5311,4.2487,250.6714)">
      <text xml:space="preserve" x="637.985" y="169.4653" onclick="umlload('http://docs.oracle.com/javase/6/docs/api/java/io/InputStream.html')" stroke="none">InputStream</text>
    </g>
    <g fill="rgb(238,238,255)" transform="matrix(0.5311,0,0,0.5311,4.2487,250.6714)" stroke="rgb(238,238,255)">
      <rect width="493.0749" x="624.5" height="17.9688" y="-26" stroke="none"/>
    </g>
    <g fill="rgb(166,166,178)" stroke-miterlimit="1.45" transform="matrix(0.5311,0,0,0.5311,4.2487,250.6714)" stroke-linecap="butt" stroke="rgb(166,166,178)">
      <rect fill="none" width="493.0749" x="624.5" height="17.9688" y="-26"/>
    </g>
    <g fill="rgb(238,238,255)" transform="matrix(0.5311,0,0,0.5311,4.2487,250.6714)" stroke="rgb(238,238,255)">
      <rect width="493.0749" x="624.5" height="105.4297" y="-8.0312" stroke="none"/>
    </g>
    <g fill="rgb(166,166,178)" stroke-miterlimit="1.45" transform="matrix(0.5311,0,0,0.5311,4.2487,250.6714)" stroke-linecap="butt" stroke="rgb(166,166,178)">
      <rect fill="none" width="493.0749" x="624.5" height="105.4297" y="-8.0312"/>
    </g>
    <g font-family="sans-serif" transform="matrix(0.5311,0,0,0.5311,4.2487,250.6714)">
      <text xml:space="preserve" x="630.5" y="-12.8613" onclick="umlload('../../../../../../../com/msopentech/odatajclient/engine/communication/request/streamed/package-summary.html')" stroke="none">com.msopentech.odatajclient.engine.communication.request.streamed</text>
    </g>
    <g fill="rgb(187,187,255)" transform="matrix(0.5311,0,0,0.5311,4.2487,250.6714)" stroke="rgb(187,187,255)">
      <rect x="632.5" y="0" clip-path="url(#clipPath4)" width="258.53" height="23.1328" stroke="none"/>
    </g>
    <g fill="rgb(130,130,178)" stroke-miterlimit="1.45" transform="matrix(0.5311,0,0,0.5311,4.2487,250.6714)" stroke-linecap="butt" stroke="rgb(130,130,178)">
      <rect fill="none" width="258.53" x="632.5" height="23.1328" y="0"/>
    </g>
    <g font-size="13" font-weight="bold" font-family="sans-serif" transform="matrix(0.5311,0,0,0.5311,4.2487,250.6714)">
      <text xml:space="preserve" x="640.265" y="16.0669" onclick="umlload('../../../../../../../com/msopentech/odatajclient/engine/communication/request/streamed/ODataMediaEntityCreateRequest.html')" stroke="none">ODataMediaEntityCreateRequest</text>
    </g>
    <g fill="rgb(187,187,255)" transform="matrix(0.5311,0,0,0.5311,4.2487,250.6714)" stroke="rgb(187,187,255)">
      <rect x="632.5" y="33.1328" clip-path="url(#clipPath5)" width="263.68" height="23.1328" stroke="none"/>
    </g>
    <g fill="rgb(130,130,178)" stroke-miterlimit="1.45" transform="matrix(0.5311,0,0,0.5311,4.2487,250.6714)" stroke-linecap="butt" stroke="rgb(130,130,178)">
      <rect fill="none" width="263.68" x="632.5" height="23.1328" y="33.1328"/>
    </g>
    <g font-size="13" font-weight="bold" font-family="sans-serif" transform="matrix(0.5311,0,0,0.5311,4.2487,250.6714)">
      <text xml:space="preserve" x="640.34" y="49.1997" onclick="umlload('../../../../../../../com/msopentech/odatajclient/engine/communication/request/streamed/ODataMediaEntityUpdateRequest.html')" stroke="none">ODataMediaEntityUpdateRequest</text>
    </g>
    <g fill="rgb(187,187,255)" transform="matrix(0.5311,0,0,0.5311,4.2487,250.6714)" stroke="rgb(187,187,255)">
      <rect x="632.5" y="66.2656" clip-path="url(#clipPath6)" width="228.66" height="23.1328" stroke="none"/>
    </g>
    <g fill="rgb(130,130,178)" stroke-miterlimit="1.45" transform="matrix(0.5311,0,0,0.5311,4.2487,250.6714)" stroke-linecap="butt" stroke="rgb(130,130,178)">
      <rect fill="none" width="228.66" x="632.5" height="23.1328" y="66.2656"/>
    </g>
    <g font-size="13" font-weight="bold" font-family="sans-serif" transform="matrix(0.5311,0,0,0.5311,4.2487,250.6714)">
      <text xml:space="preserve" x="639.83" y="82.3325" onclick="umlload('../../../../../../../com/msopentech/odatajclient/engine/communication/request/streamed/ODataStreamUpdateRequest.html')" stroke="none">ODataStreamUpdateRequest</text>
    </g>
    <g fill="rgb(238,238,255)" transform="matrix(0.5311,0,0,0.5311,4.2487,250.6714)" stroke="rgb(238,238,255)">
      <rect width="76.1412" x="246.41" height="17.9688" y="-133.1328" stroke="none"/>
    </g>
    <g fill="rgb(166,166,178)" stroke-miterlimit="1.45" transform="matrix(0.5311,0,0,0.5311,4.2487,250.6714)" stroke-linecap="butt" stroke="rgb(166,166,178)">
      <rect fill="none" width="76.1412" x="246.41" height="17.9688" y="-133.1328"/>
    </g>
    <g fill="rgb(238,238,255)" transform="matrix(0.5311,0,0,0.5311,4.2487,250.6714)" stroke="rgb(238,238,255)">
      <rect width="76.1412" x="246.41" height="39.1641" y="-115.1641" stroke="none"/>
    </g>
    <g fill="rgb(166,166,178)" stroke-miterlimit="1.45" transform="matrix(0.5311,0,0,0.5311,4.2487,250.6714)" stroke-linecap="butt" stroke="rgb(166,166,178)">
      <rect fill="none" width="76.1412" x="246.41" height="39.1641" y="-115.1641"/>
    </g>
    <g font-family="sans-serif" transform="matrix(0.5311,0,0,0.5311,4.2487,250.6714)">
      <text xml:space="preserve" x="252.41" y="-119.9941" onclick="umlload('http://docs.oracle.com/javase/6/docs/api/java/lang/package-summary.html')" stroke="none">java.lang</text>
    </g>
    <g fill="rgb(187,187,255)" transform="matrix(0.5311,0,0,0.5311,4.2487,250.6714)" stroke="rgb(187,187,255)">
      <rect x="254.41" y="-107.1328" clip-path="url(#clipPath7)" width="57.68" height="23.1328" stroke="none"/>
    </g>
    <g fill="rgb(130,130,178)" stroke-miterlimit="1.45" transform="matrix(0.5311,0,0,0.5311,4.2487,250.6714)" stroke-linecap="butt" stroke="rgb(130,130,178)">
      <rect fill="none" width="57.68" x="254.41" height="23.1328" y="-107.1328"/>
    </g>
    <g font-size="13" font-weight="bold" font-family="sans-serif" transform="matrix(0.5311,0,0,0.5311,4.2487,250.6714)">
      <text xml:space="preserve" x="259.25" y="-91.0659" onclick="umlload('http://docs.oracle.com/javase/6/docs/api/java/lang/Object.html')" stroke="none">Object</text>
    </g>
    <g fill="rgb(238,238,255)" transform="matrix(0.5311,0,0,0.5311,4.2487,250.6714)" stroke="rgb(238,238,255)">
      <rect width="493.0749" x="-8" height="17.9688" y="-26" stroke="none"/>
    </g>
    <g fill="rgb(166,166,178)" stroke-miterlimit="1.45" transform="matrix(0.5311,0,0,0.5311,4.2487,250.6714)" stroke-linecap="butt" stroke="rgb(166,166,178)">
      <rect fill="none" width="493.0749" x="-8" height="17.9688" y="-26"/>
    </g>
    <g fill="rgb(238,238,255)" transform="matrix(0.5311,0,0,0.5311,4.2487,250.6714)" stroke="rgb(238,238,255)">
      <rect width="582.5" x="-8" height="287.6953" y="-8.0312" stroke="none"/>
    </g>
    <g fill="rgb(166,166,178)" stroke-miterlimit="1.45" transform="matrix(0.5311,0,0,0.5311,4.2487,250.6714)" stroke-linecap="butt" stroke="rgb(166,166,178)">
      <rect fill="none" width="582.5" x="-8" height="287.6953" y="-8.0312"/>
    </g>
    <g font-family="sans-serif" transform="matrix(0.5311,0,0,0.5311,4.2487,250.6714)">
      <text xml:space="preserve" x="-2" y="-12.8613" onclick="umlload('package-summary.html')" stroke="none">com.msopentech.odatajclient.engine.communication.request.streamed</text>
    </g>
    <g fill="rgb(187,187,255)" transform="matrix(0.5311,0,0,0.5311,4.2487,250.6714)" stroke="rgb(187,187,255)">
      <rect x="0" y="0" clip-path="url(#clipPath8)" width="566.5" height="26.625" stroke="none"/>
      <line clip-path="url(#clipPath8)" fill="none" x1="0" x2="566.5" y1="26.625" y2="26.625" stroke="black"/>
      <line clip-path="url(#clipPath8)" x1="0" x2="566.5" y1="27.625" y2="27.625" stroke="none"/>
      <line clip-path="url(#clipPath8)" fill="none" x1="0" x2="566.5" y1="27.625" y2="27.625" stroke="black"/>
      <rect x="0" y="28.625" clip-path="url(#clipPath8)" width="566.5" height="243.0391" stroke="none"/>
    </g>
    <g fill="rgb(130,130,178)" stroke-miterlimit="1.45" transform="matrix(0.5311,0,0,0.5311,4.2487,250.6714)" stroke-linecap="butt" stroke="rgb(130,130,178)">
      <rect fill="none" width="566.5" x="0" height="271.6641" y="0"/>
    </g>
    <g font-size="16" font-weight="bold" font-family="sans-serif" transform="matrix(0.5311,0,0,0.5311,4.2487,250.6714)">
      <text xml:space="preserve" x="142.25" y="18.8516" onclick="umlload('#')" stroke="none">ODataStreamedRequestFactory</text>
    </g>
    <g font-family="sans-serif" transform="matrix(0.5311,0,0,0.5311,4.2487,250.6714)">
      <text xml:space="preserve" x="4" y="39.1719" stroke="none">+</text>
      <text xml:space="preserve" x="19" y="40.7637" onclick="umlload('#getMediaEntityCreateRequest(java.net.URI, java.io.InputStream)')" stroke="none">getMediaEntityCreateRequest(URI, InputStream) : ODataMediaEntityCreateRequest</text>
      <line y2="43.5938" fill="none" x1="19" x2="538" y1="43.5938"/>
    </g>
    <g font-family="sans-serif" transform="matrix(0.5311,0,0,0.5311,4.2487,250.6714)">
      <text xml:space="preserve" x="4" y="55.1719" stroke="none">+</text>
      <text xml:space="preserve" x="19" y="56.7324" onclick="umlload('#getMediaEntityUpdateRequest(java.net.URI, java.io.InputStream)')" stroke="none">getMediaEntityUpdateRequest(URI, InputStream) : ODataMediaEntityUpdateRequest</text>
      <line y2="59.5625" fill="none" x1="19" x2="546" y1="59.5625"/>
    </g>
    <g font-family="sans-serif" transform="matrix(0.5311,0,0,0.5311,4.2487,250.6714)">
      <text xml:space="preserve" x="4" y="71.1719" stroke="none">+</text>
      <text xml:space="preserve" x="19" y="72.7012" onclick="umlload('#getStreamUpdateRequest(java.net.URI, java.io.InputStream)')" stroke="none">getStreamUpdateRequest(URI, InputStream) : ODataStreamUpdateRequest</text>
      <line y2="75.5312" fill="none" x1="19" x2="492" y1="75.5312"/>
    </g>
    <g font-family="sans-serif" transform="matrix(0.5311,0,0,0.5311,4.2487,250.6714)">
      <text xml:space="preserve" x="-2" y="304.1543" onclick="umlload('http://www.yworks.com/')" stroke="none">yWorks UML Doclet</text>
    </g>
    <g stroke-miterlimit="1.45" transform="matrix(0.5311,0,0,0.5311,4.2487,250.6714)" stroke-linecap="butt">
      <path fill="none" d="M283.25 0.0046 L283.25 -69"/>
      <path fill="white" d="M283.25 -84 L277.25 -68 L289.25 -68 Z" stroke="none"/>
      <path fill="none" d="M283.25 -84 L277.25 -68 L289.25 -68 Z"/>
      <path fill="none" stroke-dasharray="6,2" d="M566.5213 11.5664 L632.5 11.5664"/>
      <line stroke-linecap="square" transform="matrix(1,0,0,1,632.5,11.5664)" fill="none" x1="0" x2="-14" y1="0" y2="-4" stroke-miterlimit="10"/>
      <line stroke-linecap="square" transform="matrix(1,0,0,1,632.5,11.5664)" fill="none" x1="0" x2="-14" y1="0" y2="4" stroke-miterlimit="10"/>
    </g>
    <g stroke-dasharray="6,2" stroke-miterlimit="1.45" transform="matrix(0.5311,0,0,0.5311,4.2487,250.6714)" stroke-linecap="butt">
      <path fill="none" d="M566.5187 44.6992 L632.5 44.6992"/>
      <line stroke-linecap="square" transform="matrix(1,0,0,1,632.5,44.6992)" fill="none" x1="0" x2="-14" y1="0" y2="-4" stroke-dasharray="none" stroke-miterlimit="10"/>
      <line stroke-linecap="square" transform="matrix(1,0,0,1,632.5,44.6992)" fill="none" x1="0" x2="-14" y1="0" y2="4" stroke-dasharray="none" stroke-miterlimit="10"/>
    </g>
    <g stroke-dasharray="6,2" stroke-miterlimit="1.45" transform="matrix(0.5311,0,0,0.5311,4.2487,250.6714)" stroke-linecap="butt">
      <path fill="none" d="M566.508 77.832 L632.5 77.832"/>
      <line stroke-linecap="square" transform="matrix(1,0,0,1,632.5,77.832)" fill="none" x1="0" x2="-14" y1="0" y2="-4" stroke-dasharray="none" stroke-miterlimit="10"/>
      <line stroke-linecap="square" transform="matrix(1,0,0,1,632.5,77.832)" fill="none" x1="0" x2="-14" y1="0" y2="4" stroke-dasharray="none" stroke-miterlimit="10"/>
    </g>
    <g stroke-dasharray="6,2" stroke-miterlimit="1.45" transform="matrix(0.5311,0,0,0.5311,4.2487,250.6714)" stroke-linecap="butt">
      <path fill="none" d="M566.473 164.9648 L632.5 164.9648"/>
      <line stroke-linecap="square" transform="matrix(1,0,0,1,632.5,164.9648)" fill="none" x1="0" x2="-14" y1="0" y2="-4" stroke-dasharray="none" stroke-miterlimit="10"/>
      <line stroke-linecap="square" transform="matrix(1,0,0,1,632.5,164.9648)" fill="none" x1="0" x2="-14" y1="0" y2="4" stroke-dasharray="none" stroke-miterlimit="10"/>
    </g>
    <g stroke-dasharray="6,2" stroke-miterlimit="1.45" transform="matrix(0.5311,0,0,0.5311,4.2487,250.6714)" stroke-linecap="butt">
      <path fill="none" d="M566.5211 252.0977 L632.5 252.0977"/>
      <line stroke-linecap="square" transform="matrix(1,0,0,1,632.5,252.0977)" fill="none" x1="0" x2="-14" y1="0" y2="-4" stroke-dasharray="none" stroke-miterlimit="10"/>
      <line stroke-linecap="square" transform="matrix(1,0,0,1,632.5,252.0977)" fill="none" x1="0" x2="-14" y1="0" y2="4" stroke-dasharray="none" stroke-miterlimit="10"/>
    </g>
  </g>
</svg>
