<?xml version="1.0" encoding="UTF-8"?><svg xmlns="http://www.w3.org/2000/svg" xmlns:xlink="http://www.w3.org/1999/xlink" fill-opacity="1" color-rendering="auto" color-interpolation="auto" stroke="black" text-rendering="auto" stroke-linecap="square" width="598" stroke-miterlimit="10" stroke-opacity="1" shape-rendering="auto" fill="black" stroke-dasharray="none" font-weight="normal" stroke-width="1" height="598" font-family="'Dialog'" font-style="normal" stroke-linejoin="miter" font-size="12" stroke-dashoffset="0" image-rendering="auto">
  <!--Generated by ySVG-->
  <defs id="genericDefs"/>
  <g>
    <defs id="defs1">
      <clipPath clipPathUnits="userSpaceOnUse" id="clipPath1">
        <path d="M0 0 L598 0 L598 598 L0 598 L0 0 Z"/>
      </clipPath>
      <clipPath clipPathUnits="userSpaceOnUse" id="clipPath2">
        <path d="M680.91 174.2656 L713.87 174.2656 L713.87 197.3984 L680.91 197.3984 L680.91 174.2656 Z"/>
      </clipPath>
      <clipPath clipPathUnits="userSpaceOnUse" id="clipPath3">
        <path d="M680.91 87.1328 L1216.51 87.1328 L1216.51 110.2656 L680.91 110.2656 L680.91 87.1328 Z"/>
      </clipPath>
      <clipPath clipPathUnits="userSpaceOnUse" id="clipPath4">
        <path d="M680.91 -0 L780.82 -0 L780.82 23.1328 L680.91 23.1328 L680.91 -0 Z"/>
      </clipPath>
      <clipPath clipPathUnits="userSpaceOnUse" id="clipPath5">
        <path d="M-167.97 -0 L-66 -0 L-66 23.1328 L-167.97 23.1328 L-167.97 -0 Z"/>
      </clipPath>
      <clipPath clipPathUnits="userSpaceOnUse" id="clipPath6">
        <path d="M1254.6659 -100.3574 C1254.6659 -91.3234 1193.6888 -84 1118.47 -84 C1043.2511 -84 982.2742 -91.3234 982.2742 -100.3574 C982.2742 -109.3913 1043.2511 -116.7147 1118.47 -116.7147 C1193.6888 -116.7147 1254.6659 -109.3913 1254.6659 -100.3574 Z"/>
      </clipPath>
      <clipPath clipPathUnits="userSpaceOnUse" id="clipPath7">
        <path d="M-240.505 -107.1328 L855.415 -107.1328 L855.415 -84 L-240.505 -84 L-240.505 -107.1328 Z"/>
      </clipPath>
      <clipPath clipPathUnits="userSpaceOnUse" id="clipPath8">
        <path d="M-0 -0 L614.91 -0 L614.91 205.3984 L-0 205.3984 L-0 -0 Z"/>
      </clipPath>
      <script type="text/ecmascript"><![CDATA[
function umlload(newLocation)
{
if (newLocation.charAt(0) != '#') {
if (newLocation.indexOf("://") > -1) {
window.parent.location.href = newLocation;
} else {
var tmp = window.parent.location.href;
tmp = tmp.substring(0, tmp.lastIndexOf("/") + 1);
window.parent.location.href = tmp.concat(newLocation);
}
} else {
window.parent.location.hash = newLocation;
}
}
]]></script>
    </defs>
    <g fill="rgb(238,238,255)" transform="matrix(0.3714,0,0,0.3714,92.4857,279.3143)" stroke="rgb(238,238,255)">
      <rect width="69.7758" x="672.91" height="17.9688" y="148.2656" stroke="none"/>
    </g>
    <g fill="rgb(166,166,178)" stroke-miterlimit="1.45" transform="matrix(0.3714,0,0,0.3714,92.4857,279.3143)" stroke-linecap="butt" stroke="rgb(166,166,178)">
      <rect fill="none" width="69.7758" x="672.91" height="17.9688" y="148.2656"/>
    </g>
    <g fill="rgb(238,238,255)" transform="matrix(0.3714,0,0,0.3714,92.4857,279.3143)" stroke="rgb(238,238,255)">
      <rect width="73.96" x="672.91" height="39.1641" y="166.2344" stroke="none"/>
    </g>
    <g fill="rgb(166,166,178)" stroke-miterlimit="1.45" transform="matrix(0.3714,0,0,0.3714,92.4857,279.3143)" stroke-linecap="butt" stroke="rgb(166,166,178)">
      <rect fill="none" width="73.96" x="672.91" height="39.1641" y="166.2344"/>
    </g>
    <g font-family="sans-serif" transform="matrix(0.3714,0,0,0.3714,92.4857,279.3143)">
      <text xml:space="preserve" x="678.91" y="161.4043" onclick="umlload('http://docs.oracle.com/javase/6/docs/api/java/net/package-summary.html')" stroke="none">java.net</text>
    </g>
    <g fill="rgb(187,187,255)" transform="matrix(0.3714,0,0,0.3714,92.4857,279.3143)" stroke="rgb(187,187,255)">
      <rect x="680.91" y="174.2656" clip-path="url(#clipPath2)" width="32.96" height="23.1328" stroke="none"/>
    </g>
    <g fill="rgb(130,130,178)" stroke-miterlimit="1.45" transform="matrix(0.3714,0,0,0.3714,92.4857,279.3143)" stroke-linecap="butt" stroke="rgb(130,130,178)">
      <rect fill="none" width="32.96" x="680.91" height="23.1328" y="174.2656"/>
    </g>
    <g font-size="13" font-weight="bold" font-family="sans-serif" transform="matrix(0.3714,0,0,0.3714,92.4857,279.3143)">
      <text xml:space="preserve" x="685.39" y="190.3325" onclick="umlload('http://docs.oracle.com/javase/6/docs/api/java/net/URI.html')" stroke="none">URI</text>
    </g>
    <g fill="rgb(238,238,255)" transform="matrix(0.3714,0,0,0.3714,92.4857,279.3143)" stroke="rgb(238,238,255)">
      <rect width="493.0749" x="672.91" height="17.9688" y="61.1328" stroke="none"/>
    </g>
    <g fill="rgb(166,166,178)" stroke-miterlimit="1.45" transform="matrix(0.3714,0,0,0.3714,92.4857,279.3143)" stroke-linecap="butt" stroke="rgb(166,166,178)">
      <rect fill="none" width="493.0749" x="672.91" height="17.9688" y="61.1328"/>
    </g>
    <g fill="rgb(238,238,255)" transform="matrix(0.3714,0,0,0.3714,92.4857,279.3143)" stroke="rgb(238,238,255)">
      <rect width="551.6" x="672.91" height="39.1641" y="79.1016" stroke="none"/>
    </g>
    <g fill="rgb(166,166,178)" stroke-miterlimit="1.45" transform="matrix(0.3714,0,0,0.3714,92.4857,279.3143)" stroke-linecap="butt" stroke="rgb(166,166,178)">
      <rect fill="none" width="551.6" x="672.91" height="39.1641" y="79.1016"/>
    </g>
    <g font-family="sans-serif" transform="matrix(0.3714,0,0,0.3714,92.4857,279.3143)">
      <text xml:space="preserve" x="678.91" y="74.2715" onclick="umlload('../../../../../../../com/msopentech/odatajclient/engine/communication/request/streamed/package-summary.html')" stroke="none">com.msopentech.odatajclient.engine.communication.request.streamed</text>
    </g>
    <g fill="rgb(187,187,255)" transform="matrix(0.3714,0,0,0.3714,92.4857,279.3143)" stroke="rgb(187,187,255)">
      <rect x="680.91" y="87.1328" clip-path="url(#clipPath3)" width="535.6" height="23.1328" stroke="none"/>
    </g>
    <g fill="rgb(130,130,178)" stroke-miterlimit="1.45" transform="matrix(0.3714,0,0,0.3714,92.4857,279.3143)" stroke-linecap="butt" stroke="rgb(130,130,178)">
      <rect fill="none" width="535.6" x="680.91" height="23.1328" y="87.1328"/>
    </g>
    <g font-size="13" font-weight="bold" font-family="sans-serif" transform="matrix(0.3714,0,0,0.3714,92.4857,279.3143)">
      <text xml:space="preserve" x="692.71" y="103.1997" onclick="umlload('../../../../../../../com/msopentech/odatajclient/engine/communication/request/streamed/ODataMediaEntityUpdateRequest.MediaEntityUpdateStreamManager.html')" stroke="none">ODataMediaEntityUpdateRequest.MediaEntityUpdateStreamManager</text>
    </g>
    <g fill="rgb(238,238,255)" transform="matrix(0.3714,0,0,0.3714,92.4857,279.3143)" stroke="rgb(238,238,255)">
      <rect width="336.0617" x="672.91" height="17.9688" y="-26" stroke="none"/>
    </g>
    <g fill="rgb(166,166,178)" stroke-miterlimit="1.45" transform="matrix(0.3714,0,0,0.3714,92.4857,279.3143)" stroke-linecap="butt" stroke="rgb(166,166,178)">
      <rect fill="none" width="336.0617" x="672.91" height="17.9688" y="-26"/>
    </g>
    <g fill="rgb(238,238,255)" transform="matrix(0.3714,0,0,0.3714,92.4857,279.3143)" stroke="rgb(238,238,255)">
      <rect width="336.0617" x="672.91" height="39.1641" y="-8.0312" stroke="none"/>
    </g>
    <g fill="rgb(166,166,178)" stroke-miterlimit="1.45" transform="matrix(0.3714,0,0,0.3714,92.4857,279.3143)" stroke-linecap="butt" stroke="rgb(166,166,178)">
      <rect fill="none" width="336.0617" x="672.91" height="39.1641" y="-8.0312"/>
    </g>
    <g font-family="sans-serif" transform="matrix(0.3714,0,0,0.3714,92.4857,279.3143)">
      <text xml:space="preserve" x="678.91" y="-12.8613" onclick="umlload('../../../../../../../com/msopentech/odatajclient/engine/client/http/package-summary.html')" stroke="none">com.msopentech.odatajclient.engine.client.http</text>
    </g>
    <g fill="rgb(170,170,255)" transform="matrix(0.3714,0,0,0.3714,92.4857,279.3143)" stroke="rgb(170,170,255)">
      <rect x="680.91" y="0" clip-path="url(#clipPath4)" width="99.91" height="23.1328" stroke="none"/>
    </g>
    <g fill="rgb(118,118,178)" stroke-miterlimit="1.45" transform="matrix(0.3714,0,0,0.3714,92.4857,279.3143)" stroke-linecap="butt" stroke="rgb(118,118,178)">
      <rect fill="none" width="99.91" x="680.91" height="23.1328" y="0"/>
    </g>
    <g font-size="13" font-weight="bold" font-family="sans-serif" transform="matrix(0.3714,0,0,0.3714,92.4857,279.3143)">
      <text xml:space="preserve" x="686.365" y="16.0669" onclick="umlload('../../../../../../../com/msopentech/odatajclient/engine/client/http/HttpMethod.html')" stroke="none">HttpMethod</text>
    </g>
    <g fill="rgb(238,238,255)" transform="matrix(0.3714,0,0,0.3714,92.4857,279.3143)" stroke="rgb(238,238,255)">
      <rect width="59.1668" x="-175.97" height="17.9688" y="-26" stroke="none"/>
    </g>
    <g fill="rgb(166,166,178)" stroke-miterlimit="1.45" transform="matrix(0.3714,0,0,0.3714,92.4857,279.3143)" stroke-linecap="butt" stroke="rgb(166,166,178)">
      <rect fill="none" width="59.1668" x="-175.97" height="17.9688" y="-26"/>
    </g>
    <g fill="rgb(238,238,255)" transform="matrix(0.3714,0,0,0.3714,92.4857,279.3143)" stroke="rgb(238,238,255)">
      <rect width="117.97" x="-175.97" height="39.1641" y="-8.0312" stroke="none"/>
    </g>
    <g fill="rgb(166,166,178)" stroke-miterlimit="1.45" transform="matrix(0.3714,0,0,0.3714,92.4857,279.3143)" stroke-linecap="butt" stroke="rgb(166,166,178)">
      <rect fill="none" width="117.97" x="-175.97" height="39.1641" y="-8.0312"/>
    </g>
    <g font-family="sans-serif" transform="matrix(0.3714,0,0,0.3714,92.4857,279.3143)">
      <text xml:space="preserve" x="-169.97" y="-12.8613" onclick="umlload('http://docs.oracle.com/javase/6/docs/api/java/io/package-summary.html')" stroke="none">java.io</text>
    </g>
    <g fill="rgb(204,204,255)" transform="matrix(0.3714,0,0,0.3714,92.4857,279.3143)" stroke="rgb(204,204,255)">
      <rect x="-167.97" y="0" clip-path="url(#clipPath5)" width="101.97" height="23.1328" stroke="none"/>
    </g>
    <g fill="rgb(142,142,178)" stroke-miterlimit="1.45" transform="matrix(0.3714,0,0,0.3714,92.4857,279.3143)" stroke-linecap="butt" stroke="rgb(142,142,178)">
      <rect fill="none" width="101.97" x="-167.97" height="23.1328" y="0"/>
    </g>
    <g font-size="13" font-weight="bold" font-family="sans-serif" transform="matrix(0.3714,0,0,0.3714,92.4857,279.3143)">
      <text xml:space="preserve" x="-162.485" y="16.0669" onclick="umlload('http://docs.oracle.com/javase/6/docs/api/java/io/InputStream.html')" stroke="none">InputStream</text>
    </g>
    <g fill="rgb(238,238,255)" transform="matrix(0.3714,0,0,0.3714,92.4857,279.3143)" stroke="rgb(238,238,255)">
      <rect width="467.6133" x="893.2742" height="17.9688" y="-142.7147" stroke="none"/>
    </g>
    <g fill="rgb(166,166,178)" stroke-miterlimit="1.45" transform="matrix(0.3714,0,0,0.3714,92.4857,279.3143)" stroke-linecap="butt" stroke="rgb(166,166,178)">
      <rect fill="none" width="467.6133" x="893.2742" height="17.9688" y="-142.7147"/>
    </g>
    <g fill="rgb(238,238,255)" transform="matrix(0.3714,0,0,0.3714,92.4857,279.3143)" stroke="rgb(238,238,255)">
      <rect width="467.6133" x="893.2742" height="48.746" y="-124.746" stroke="none"/>
    </g>
    <g fill="rgb(166,166,178)" stroke-miterlimit="1.45" transform="matrix(0.3714,0,0,0.3714,92.4857,279.3143)" stroke-linecap="butt" stroke="rgb(166,166,178)">
      <rect fill="none" width="467.6133" x="893.2742" height="48.746" y="-124.746"/>
    </g>
    <g font-family="sans-serif" transform="matrix(0.3714,0,0,0.3714,92.4857,279.3143)">
      <text xml:space="preserve" x="899.2742" y="-129.5761" onclick="umlload('../../../../../../../com/msopentech/odatajclient/engine/communication/request/batch/package-summary.html')" stroke="none">com.msopentech.odatajclient.engine.communication.request.batch</text>
    </g>
    <g fill="rgb(221,221,255)" transform="matrix(0.3714,0,0,0.3714,92.4857,279.3143)" stroke="rgb(221,221,255)">
      <rect x="982.2742" y="-116.7147" clip-path="url(#clipPath6)" width="272.3917" height="32.7147" stroke="none"/>
    </g>
    <g fill="rgb(154,154,178)" stroke-miterlimit="1.45" transform="matrix(0.3714,0,0,0.3714,92.4857,279.3143)" stroke-linecap="butt" stroke="rgb(154,154,178)">
      <ellipse rx="136.1958" fill="none" ry="16.3574" cx="1118.47" cy="-100.3574"/>
    </g>
    <g font-style="italic" font-size="13" font-weight="bold" font-family="sans-serif" transform="matrix(0.3714,0,0,0.3714,92.4857,279.3143)">
      <text xml:space="preserve" x="1028.97" y="-95.8569" onclick="umlload('../../../../../../../com/msopentech/odatajclient/engine/communication/request/batch/ODataBatchableRequest.html')" stroke="none">ODataBatchableRequest</text>
    </g>
    <g fill="rgb(238,238,255)" transform="matrix(0.3714,0,0,0.3714,92.4857,279.3143)" stroke="rgb(238,238,255)">
      <rect width="493.0749" x="-248.505" height="17.9688" y="-133.1328" stroke="none"/>
    </g>
    <g fill="rgb(166,166,178)" stroke-miterlimit="1.45" transform="matrix(0.3714,0,0,0.3714,92.4857,279.3143)" stroke-linecap="butt" stroke="rgb(166,166,178)">
      <rect fill="none" width="493.0749" x="-248.505" height="17.9688" y="-133.1328"/>
    </g>
    <g fill="rgb(238,238,255)" transform="matrix(0.3714,0,0,0.3714,92.4857,279.3143)" stroke="rgb(238,238,255)">
      <rect width="1111.92" x="-248.505" height="39.1641" y="-115.1641" stroke="none"/>
    </g>
    <g fill="rgb(166,166,178)" stroke-miterlimit="1.45" transform="matrix(0.3714,0,0,0.3714,92.4857,279.3143)" stroke-linecap="butt" stroke="rgb(166,166,178)">
      <rect fill="none" width="1111.92" x="-248.505" height="39.1641" y="-115.1641"/>
    </g>
    <g font-family="sans-serif" transform="matrix(0.3714,0,0,0.3714,92.4857,279.3143)">
      <text xml:space="preserve" x="-242.505" y="-119.9941" onclick="umlload('../../../../../../../com/msopentech/odatajclient/engine/communication/request/streamed/package-summary.html')" stroke="none">com.msopentech.odatajclient.engine.communication.request.streamed</text>
    </g>
    <g fill="rgb(204,204,255)" transform="matrix(0.3714,0,0,0.3714,92.4857,279.3143)" stroke="rgb(204,204,255)">
      <rect x="-240.505" y="-107.1328" clip-path="url(#clipPath7)" width="1095.92" height="23.1328" stroke="none"/>
    </g>
    <g fill="rgb(142,142,178)" stroke-miterlimit="1.45" transform="matrix(0.3714,0,0,0.3714,92.4857,279.3143)" stroke-linecap="butt" stroke="rgb(142,142,178)">
      <rect fill="none" width="1095.92" x="-240.505" height="23.1328" y="-107.1328"/>
    </g>
    <g font-size="13" font-weight="bold" font-family="sans-serif" transform="matrix(0.3714,0,0,0.3714,92.4857,279.3143)">
      <text xml:space="preserve" x="-220.545" y="-91.0659" onclick="umlload('../../../../../../../com/msopentech/odatajclient/engine/communication/request/streamed/ODataStreamedEntityRequestImpl.html')" stroke="none">ODataStreamedEntityRequestImpl&lt;ODataMediaEntityUpdateResponse, ODataMediaEntityUpdateRequest.MediaEntityUpdateStreamManager&gt;</text>
    </g>
    <g fill="rgb(238,238,255)" transform="matrix(0.3714,0,0,0.3714,92.4857,279.3143)" stroke="rgb(238,238,255)">
      <rect width="493.0749" x="-8" height="17.9688" y="-26" stroke="none"/>
    </g>
    <g fill="rgb(166,166,178)" stroke-miterlimit="1.45" transform="matrix(0.3714,0,0,0.3714,92.4857,279.3143)" stroke-linecap="butt" stroke="rgb(166,166,178)">
      <rect fill="none" width="493.0749" x="-8" height="17.9688" y="-26"/>
    </g>
    <g fill="rgb(238,238,255)" transform="matrix(0.3714,0,0,0.3714,92.4857,279.3143)" stroke="rgb(238,238,255)">
      <rect width="630.91" x="-8" height="221.4297" y="-8.0312" stroke="none"/>
    </g>
    <g fill="rgb(166,166,178)" stroke-miterlimit="1.45" transform="matrix(0.3714,0,0,0.3714,92.4857,279.3143)" stroke-linecap="butt" stroke="rgb(166,166,178)">
      <rect fill="none" width="630.91" x="-8" height="221.4297" y="-8.0312"/>
    </g>
    <g font-family="sans-serif" transform="matrix(0.3714,0,0,0.3714,92.4857,279.3143)">
      <text xml:space="preserve" x="-2" y="-12.8613" onclick="umlload('package-summary.html')" stroke="none">com.msopentech.odatajclient.engine.communication.request.streamed</text>
    </g>
    <g fill="rgb(187,187,255)" transform="matrix(0.3714,0,0,0.3714,92.4857,279.3143)" stroke="rgb(187,187,255)">
      <rect x="0" y="0" clip-path="url(#clipPath8)" width="614.91" height="26.625" stroke="none"/>
      <line clip-path="url(#clipPath8)" fill="none" x1="0" x2="614.91" y1="26.625" y2="26.625" stroke="black"/>
      <line clip-path="url(#clipPath8)" x1="0" x2="614.91" y1="27.625" y2="27.625" stroke="none"/>
      <line clip-path="url(#clipPath8)" fill="none" x1="0" x2="614.91" y1="27.625" y2="27.625" stroke="black"/>
      <rect x="0" y="28.625" clip-path="url(#clipPath8)" width="614.91" height="176.7734" stroke="none"/>
    </g>
    <g fill="rgb(130,130,178)" stroke-miterlimit="1.45" transform="matrix(0.3714,0,0,0.3714,92.4857,279.3143)" stroke-linecap="butt" stroke="rgb(130,130,178)">
      <rect fill="none" width="614.91" x="0" height="205.3984" y="0"/>
    </g>
    <g font-size="16" font-weight="bold" font-family="sans-serif" transform="matrix(0.3714,0,0,0.3714,92.4857,279.3143)">
      <text xml:space="preserve" x="159.955" y="18.8516" onclick="umlload('#')" stroke="none">ODataMediaEntityUpdateRequest</text>
    </g>
    <g font-family="sans-serif" transform="matrix(0.3714,0,0,0.3714,92.4857,279.3143)">
      <text xml:space="preserve" x="4" y="39.1719" stroke="none">#</text>
      <text xml:space="preserve" x="19" y="40.7637" onclick="umlload('#getStreamManager()')" stroke="none">getStreamManager() : ODataMediaEntityUpdateRequest.MediaEntityUpdateStreamManager</text>
    </g>
    <g font-family="sans-serif" transform="matrix(0.3714,0,0,0.3714,92.4857,279.3143)">
      <text xml:space="preserve" x="-243" y="238.1543" onclick="umlload('http://www.yworks.com/')" stroke="none">yWorks UML Doclet</text>
    </g>
    <g stroke-miterlimit="1.45" transform="matrix(0.3714,0,0,0.3714,92.4857,279.3143)" stroke-linecap="butt">
      <path fill="none" d="M307.455 -0.0039 L307.455 -69"/>
      <path fill="white" d="M307.455 -84 L301.455 -68 L313.455 -68 Z" stroke="none"/>
      <path fill="none" d="M307.455 -84 L301.455 -68 L313.455 -68 Z"/>
      <path fill="none" stroke-dasharray="6,2" d="M461.1825 0 L461.1825 -51 L1118.47 -51 L1118.47 -69"/>
      <path fill="white" stroke-dasharray="6,2" d="M1118.47 -84 L1112.47 -68 L1124.47 -68 Z" stroke="none"/>
      <path fill="none" d="M1118.47 -84 L1112.47 -68 L1124.47 -68 Z"/>
      <path fill="none" d="M-0.0205 11.5664 L-66 11.5664"/>
      <line stroke-linecap="square" transform="matrix(-1,0,0,-1,-66,11.5664)" fill="none" x1="0" x2="-14" y1="0" y2="-4" stroke-miterlimit="10"/>
      <line stroke-linecap="square" transform="matrix(-1,0,0,-1,-66,11.5664)" fill="none" x1="0" x2="-14" y1="0" y2="4" stroke-miterlimit="10"/>
    </g>
    <g stroke-dasharray="6,2" stroke-miterlimit="1.45" transform="matrix(0.3714,0,0,0.3714,92.4857,279.3143)" stroke-linecap="butt">
      <path fill="none" d="M614.9079 11.5664 L680.91 11.5664"/>
      <line stroke-linecap="square" transform="matrix(1,0,0,1,680.91,11.5664)" fill="none" x1="0" x2="-14" y1="0" y2="-4" stroke-dasharray="none" stroke-miterlimit="10"/>
      <line stroke-linecap="square" transform="matrix(1,0,0,1,680.91,11.5664)" fill="none" x1="0" x2="-14" y1="0" y2="4" stroke-dasharray="none" stroke-miterlimit="10"/>
    </g>
    <g stroke-dasharray="6,2" stroke-miterlimit="1.45" transform="matrix(0.3714,0,0,0.3714,92.4857,279.3143)" stroke-linecap="butt">
      <path fill="none" d="M614.8926 98.6992 L680.91 98.6992"/>
      <line stroke-linecap="square" transform="matrix(1,0,0,1,680.91,98.6992)" fill="none" x1="0" x2="-14" y1="0" y2="-4" stroke-dasharray="none" stroke-miterlimit="10"/>
      <line stroke-linecap="square" transform="matrix(1,0,0,1,680.91,98.6992)" fill="none" x1="0" x2="-14" y1="0" y2="4" stroke-dasharray="none" stroke-miterlimit="10"/>
    </g>
    <g stroke-dasharray="6,2" stroke-miterlimit="1.45" transform="matrix(0.3714,0,0,0.3714,92.4857,279.3143)" stroke-linecap="butt">
      <path fill="none" d="M614.9001 185.832 L680.91 185.832"/>
      <line stroke-linecap="square" transform="matrix(1,0,0,1,680.91,185.832)" fill="none" x1="0" x2="-14" y1="0" y2="-4" stroke-dasharray="none" stroke-miterlimit="10"/>
      <line stroke-linecap="square" transform="matrix(1,0,0,1,680.91,185.832)" fill="none" x1="0" x2="-14" y1="0" y2="4" stroke-dasharray="none" stroke-miterlimit="10"/>
    </g>
  </g>
</svg>
