<?xml version="1.0" encoding="UTF-8"?><svg xmlns="http://www.w3.org/2000/svg" xmlns:xlink="http://www.w3.org/1999/xlink" fill-opacity="1" color-rendering="auto" color-interpolation="auto" stroke="black" text-rendering="auto" stroke-linecap="square" width="598" stroke-miterlimit="10" stroke-opacity="1" shape-rendering="auto" fill="black" stroke-dasharray="none" font-weight="normal" stroke-width="1" height="598" font-family="'Dialog'" font-style="normal" stroke-linejoin="miter" font-size="12" stroke-dashoffset="0" image-rendering="auto">
  <!--Generated by ySVG-->
  <defs id="genericDefs"/>
  <g>
    <defs id="defs1">
      <clipPath clipPathUnits="userSpaceOnUse" id="clipPath1">
        <path d="M0 0 L598 0 L598 598 L0 598 L0 0 Z"/>
      </clipPath>
      <clipPath clipPathUnits="userSpaceOnUse" id="clipPath2">
        <path d="M1038.4458 42.3574 C1038.4458 51.3913 815.4071 58.7147 540.275 58.7147 C265.1428 58.7147 42.1041 51.3913 42.1041 42.3574 C42.1041 33.3234 265.1428 26 540.275 26 C815.4071 26 1038.4458 33.3234 1038.4458 42.3574 Z"/>
      </clipPath>
      <clipPath clipPathUnits="userSpaceOnUse" id="clipPath3">
        <path d="M8 181.8475 L793.89 181.8475 L793.89 204.9804 L8 204.9804 L8 181.8475 Z"/>
      </clipPath>
      <clipPath clipPathUnits="userSpaceOnUse" id="clipPath4">
        <path d="M168.96 108.7147 L911.59 108.7147 L911.59 131.8475 L168.96 131.8475 L168.96 108.7147 Z"/>
      </clipPath>
      <clipPath clipPathUnits="userSpaceOnUse" id="clipPath5">
        <path d="M139.8399 254.9804 L398.3699 254.9804 L398.3699 278.1132 L139.8399 278.1132 L139.8399 254.9804 Z"/>
      </clipPath>
      <clipPath clipPathUnits="userSpaceOnUse" id="clipPath6">
        <path d="M8 323.1132 L533.3 323.1132 L533.3 346.246 L8 346.246 L8 323.1132 Z"/>
      </clipPath>
      <clipPath clipPathUnits="userSpaceOnUse" id="clipPath7">
        <path d="M448.3701 254.9804 L712.0501 254.9804 L712.0501 278.1132 L448.3701 278.1132 L448.3701 254.9804 Z"/>
      </clipPath>
      <clipPath clipPathUnits="userSpaceOnUse" id="clipPath8">
        <path d="M8 391.246 L543.6 391.246 L543.6 414.3788 L8 414.3788 L8 391.246 Z"/>
      </clipPath>
      <clipPath clipPathUnits="userSpaceOnUse" id="clipPath9">
        <path d="M843.89 181.8475 L1072.55 181.8475 L1072.55 204.9804 L843.89 204.9804 L843.89 181.8475 Z"/>
      </clipPath>
      <clipPath clipPathUnits="userSpaceOnUse" id="clipPath10">
        <path d="M8 459.3788 L473.56 459.3788 L473.56 482.5116 L8 482.5116 L8 459.3788 Z"/>
      </clipPath>
      <clipPath clipPathUnits="userSpaceOnUse" id="clipPath11">
        <path d="M8 527.5116 L257.26 527.5116 L257.26 550.6444 L8 550.6444 L8 527.5116 Z"/>
      </clipPath>
      <script type="text/ecmascript"><![CDATA[
function umlload(newLocation)
{
if (newLocation.charAt(0) != '#') {
if (newLocation.indexOf("://") > -1) {
window.parent.location.href = newLocation;
} else {
var tmp = window.parent.location.href;
tmp = tmp.substring(0, tmp.lastIndexOf("/") + 1);
window.parent.location.href = tmp.concat(newLocation);
}
} else {
window.parent.location.hash = newLocation;
}
}
]]></script>
    </defs>
    <g fill="rgb(238,238,255)" transform="matrix(0.5532,0,0,0.5532,0,134.4255)" stroke="rgb(238,238,255)">
      <rect width="493.0749" x="0" height="17.9688" y="0" stroke="none"/>
    </g>
    <g fill="rgb(166,166,178)" stroke-miterlimit="1.45" transform="matrix(0.5532,0,0,0.5532,0,134.4255)" stroke-linecap="butt" stroke="rgb(166,166,178)">
      <rect fill="none" width="493.0749" x="0" height="17.9688" y="0"/>
    </g>
    <g fill="rgb(238,238,255)" transform="matrix(0.5532,0,0,0.5532,0,134.4255)" stroke="rgb(238,238,255)">
      <rect width="1080.55" x="0" height="540.6757" y="17.9688" stroke="none"/>
    </g>
    <g fill="rgb(166,166,178)" stroke-miterlimit="1.45" transform="matrix(0.5532,0,0,0.5532,0,134.4255)" stroke-linecap="butt" stroke="rgb(166,166,178)">
      <rect fill="none" width="1080.55" x="0" height="540.6757" y="17.9688"/>
    </g>
    <g font-family="sans-serif" transform="matrix(0.5532,0,0,0.5532,0,134.4255)">
      <text xml:space="preserve" x="6" y="13.1387" onclick="umlload('#')" stroke="none">com.msopentech.odatajclient.engine.communication.request.streamed</text>
    </g>
    <g fill="rgb(221,221,255)" transform="matrix(0.5532,0,0,0.5532,0,134.4255)" stroke="rgb(221,221,255)">
      <rect x="42.1041" y="26" clip-path="url(#clipPath2)" width="996.3417" height="32.7147" stroke="none"/>
    </g>
    <g fill="rgb(154,154,178)" stroke-miterlimit="1.45" transform="matrix(0.5532,0,0,0.5532,0,134.4255)" stroke-linecap="butt" stroke="rgb(154,154,178)">
      <ellipse rx="498.1709" fill="none" ry="16.3574" cx="540.275" cy="42.3574"/>
    </g>
    <g font-style="italic" font-size="13" font-weight="bold" font-family="sans-serif" transform="matrix(0.5532,0,0,0.5532,0,134.4255)">
      <text xml:space="preserve" x="202.275" y="46.8579" onclick="umlload('ODataStreamedRequest.html')" stroke="none">ODataStreamedRequest&lt;V extends ODataResponse, T extends ODataStreamManager&lt;V&gt;&gt;</text>
    </g>
    <g fill="rgb(204,204,255)" transform="matrix(0.5532,0,0,0.5532,0,134.4255)" stroke="rgb(204,204,255)">
      <rect x="8" y="181.8475" clip-path="url(#clipPath3)" width="785.89" height="23.1328" stroke="none"/>
    </g>
    <g fill="rgb(142,142,178)" stroke-miterlimit="1.45" transform="matrix(0.5532,0,0,0.5532,0,134.4255)" stroke-linecap="butt" stroke="rgb(142,142,178)">
      <rect fill="none" width="785.89" x="8" height="23.1328" y="181.8475"/>
    </g>
    <g font-size="13" font-weight="bold" font-family="sans-serif" transform="matrix(0.5532,0,0,0.5532,0,134.4255)">
      <text xml:space="preserve" x="23.445" y="197.9144" onclick="umlload('ODataStreamedEntityRequestImpl.html')" stroke="none">ODataStreamedEntityRequestImpl&lt;V extends ODataResponse, T extends ODataStreamManager&lt;V&gt;&gt;</text>
    </g>
    <g fill="rgb(204,204,255)" transform="matrix(0.5532,0,0,0.5532,0,134.4255)" stroke="rgb(204,204,255)">
      <rect x="168.96" y="108.7147" clip-path="url(#clipPath4)" width="742.63" height="23.1328" stroke="none"/>
    </g>
    <g fill="rgb(142,142,178)" stroke-miterlimit="1.45" transform="matrix(0.5532,0,0,0.5532,0,134.4255)" stroke-linecap="butt" stroke="rgb(142,142,178)">
      <rect fill="none" width="742.63" x="168.96" height="23.1328" y="108.7147"/>
    </g>
    <g font-size="13" font-weight="bold" font-family="sans-serif" transform="matrix(0.5532,0,0,0.5532,0,134.4255)">
      <text xml:space="preserve" x="183.775" y="124.7816" onclick="umlload('ODataStreamedRequestImpl.html')" stroke="none">ODataStreamedRequestImpl&lt;V extends ODataResponse, T extends ODataStreamManager&lt;V&gt;&gt;</text>
    </g>
    <g fill="rgb(187,187,255)" transform="matrix(0.5532,0,0,0.5532,0,134.4255)" stroke="rgb(187,187,255)">
      <rect x="139.8399" y="254.9804" clip-path="url(#clipPath5)" width="258.53" height="23.1328" stroke="none"/>
    </g>
    <g fill="rgb(130,130,178)" stroke-miterlimit="1.45" transform="matrix(0.5532,0,0,0.5532,0,134.4255)" stroke-linecap="butt" stroke="rgb(130,130,178)">
      <rect fill="none" width="258.53" x="139.8399" height="23.1328" y="254.9804"/>
    </g>
    <g font-size="13" font-weight="bold" font-family="sans-serif" transform="matrix(0.5532,0,0,0.5532,0,134.4255)">
      <text xml:space="preserve" x="147.6049" y="271.0473" onclick="umlload('ODataMediaEntityCreateRequest.html')" stroke="none">ODataMediaEntityCreateRequest</text>
    </g>
    <g fill="rgb(187,187,255)" transform="matrix(0.5532,0,0,0.5532,0,134.4255)" stroke="rgb(187,187,255)">
      <rect x="8" y="323.1132" clip-path="url(#clipPath6)" width="525.3" height="23.1328" stroke="none"/>
    </g>
    <g fill="rgb(130,130,178)" stroke-miterlimit="1.45" transform="matrix(0.5532,0,0,0.5532,0,134.4255)" stroke-linecap="butt" stroke="rgb(130,130,178)">
      <rect fill="none" width="525.3" x="8" height="23.1328" y="323.1132"/>
    </g>
    <g font-size="13" font-weight="bold" font-family="sans-serif" transform="matrix(0.5532,0,0,0.5532,0,134.4255)">
      <text xml:space="preserve" x="19.65" y="339.1801" onclick="umlload('ODataMediaEntityCreateRequest.MediaEntityCreateStreamManager.html')" stroke="none">ODataMediaEntityCreateRequest.MediaEntityCreateStreamManager</text>
    </g>
    <g fill="rgb(187,187,255)" transform="matrix(0.5532,0,0,0.5532,0,134.4255)" stroke="rgb(187,187,255)">
      <rect x="448.3701" y="254.9804" clip-path="url(#clipPath7)" width="263.68" height="23.1328" stroke="none"/>
    </g>
    <g fill="rgb(130,130,178)" stroke-miterlimit="1.45" transform="matrix(0.5532,0,0,0.5532,0,134.4255)" stroke-linecap="butt" stroke="rgb(130,130,178)">
      <rect fill="none" width="263.68" x="448.3701" height="23.1328" y="254.9804"/>
    </g>
    <g font-size="13" font-weight="bold" font-family="sans-serif" transform="matrix(0.5532,0,0,0.5532,0,134.4255)">
      <text xml:space="preserve" x="456.2101" y="271.0473" onclick="umlload('ODataMediaEntityUpdateRequest.html')" stroke="none">ODataMediaEntityUpdateRequest</text>
    </g>
    <g fill="rgb(187,187,255)" transform="matrix(0.5532,0,0,0.5532,0,134.4255)" stroke="rgb(187,187,255)">
      <rect x="8" y="391.246" clip-path="url(#clipPath8)" width="535.6" height="23.1328" stroke="none"/>
    </g>
    <g fill="rgb(130,130,178)" stroke-miterlimit="1.45" transform="matrix(0.5532,0,0,0.5532,0,134.4255)" stroke-linecap="butt" stroke="rgb(130,130,178)">
      <rect fill="none" width="535.6" x="8" height="23.1328" y="391.246"/>
    </g>
    <g font-size="13" font-weight="bold" font-family="sans-serif" transform="matrix(0.5532,0,0,0.5532,0,134.4255)">
      <text xml:space="preserve" x="19.8" y="407.3129" onclick="umlload('ODataMediaEntityUpdateRequest.MediaEntityUpdateStreamManager.html')" stroke="none">ODataMediaEntityUpdateRequest.MediaEntityUpdateStreamManager</text>
    </g>
    <g fill="rgb(187,187,255)" transform="matrix(0.5532,0,0,0.5532,0,134.4255)" stroke="rgb(187,187,255)">
      <rect x="843.89" y="181.8475" clip-path="url(#clipPath9)" width="228.66" height="23.1328" stroke="none"/>
    </g>
    <g fill="rgb(130,130,178)" stroke-miterlimit="1.45" transform="matrix(0.5532,0,0,0.5532,0,134.4255)" stroke-linecap="butt" stroke="rgb(130,130,178)">
      <rect fill="none" width="228.66" x="843.89" height="23.1328" y="181.8475"/>
    </g>
    <g font-size="13" font-weight="bold" font-family="sans-serif" transform="matrix(0.5532,0,0,0.5532,0,134.4255)">
      <text xml:space="preserve" x="851.22" y="197.9144" onclick="umlload('ODataStreamUpdateRequest.html')" stroke="none">ODataStreamUpdateRequest</text>
    </g>
    <g fill="rgb(187,187,255)" transform="matrix(0.5532,0,0,0.5532,0,134.4255)" stroke="rgb(187,187,255)">
      <rect x="8" y="459.3788" clip-path="url(#clipPath10)" width="465.56" height="23.1328" stroke="none"/>
    </g>
    <g fill="rgb(130,130,178)" stroke-miterlimit="1.45" transform="matrix(0.5532,0,0,0.5532,0,134.4255)" stroke-linecap="butt" stroke="rgb(130,130,178)">
      <rect fill="none" width="465.56" x="8" height="23.1328" y="459.3788"/>
    </g>
    <g font-size="13" font-weight="bold" font-family="sans-serif" transform="matrix(0.5532,0,0,0.5532,0,134.4255)">
      <text xml:space="preserve" x="18.78" y="475.4457" onclick="umlload('ODataStreamUpdateRequest.StreamUpdateStreamManager.html')" stroke="none">ODataStreamUpdateRequest.StreamUpdateStreamManager</text>
    </g>
    <g fill="rgb(187,187,255)" transform="matrix(0.5532,0,0,0.5532,0,134.4255)" stroke="rgb(187,187,255)">
      <rect x="8" y="527.5116" clip-path="url(#clipPath11)" width="249.26" height="23.1328" stroke="none"/>
    </g>
    <g fill="rgb(130,130,178)" stroke-miterlimit="1.45" transform="matrix(0.5532,0,0,0.5532,0,134.4255)" stroke-linecap="butt" stroke="rgb(130,130,178)">
      <rect fill="none" width="249.26" x="8" height="23.1328" y="527.5116"/>
    </g>
    <g font-size="13" font-weight="bold" font-family="sans-serif" transform="matrix(0.5532,0,0,0.5532,0,134.4255)">
      <text xml:space="preserve" x="15.63" y="543.5785" onclick="umlload('ODataStreamedRequestFactory.html')" stroke="none">ODataStreamedRequestFactory</text>
    </g>
    <g font-family="sans-serif" transform="matrix(0.5532,0,0,0.5532,0,134.4255)">
      <text xml:space="preserve" x="6" y="583.1543" onclick="umlload('http://www.yworks.com/')" stroke="none">yWorks UML Doclet</text>
    </g>
    <g stroke-miterlimit="1.45" transform="matrix(0.5532,0,0,0.5532,0,134.4255)" stroke-linecap="butt">
      <path fill="none" d="M400.945 181.8475 L400.945 156.8475 L540.275 156.8475 L540.275 146.8475"/>
      <path fill="white" d="M540.275 131.8475 L534.275 147.8475 L546.275 147.8475 Z" stroke="none"/>
      <path fill="none" d="M540.275 131.8475 L534.275 147.8475 L546.275 147.8475 Z"/>
      <path fill="none" stroke-dasharray="6,2" d="M540.275 73.7147 L540.275 108.7147"/>
      <path fill="white" stroke-dasharray="6,2" d="M540.275 58.7147 L534.275 74.7147 L546.275 74.7147 Z" stroke="none"/>
      <path fill="none" d="M540.275 58.7147 L534.275 74.7147 L546.275 74.7147 Z"/>
      <path fill="none" d="M269.1049 254.9804 L269.1049 229.9804 L400.945 229.9804 L400.945 219.9804"/>
      <path fill="white" d="M400.945 204.9804 L394.945 220.9804 L406.945 220.9804 Z" stroke="none"/>
      <path fill="none" d="M400.945 204.9804 L394.945 220.9804 L406.945 220.9804 Z"/>
      <path fill="none" d="M580.2101 254.9804 L580.2101 229.9804 L400.945 229.9804 L400.945 219.9804"/>
      <path fill="white" d="M400.945 204.9804 L394.945 220.9804 L406.945 220.9804 Z" stroke="none"/>
      <path fill="none" d="M400.945 204.9804 L394.945 220.9804 L406.945 220.9804 Z"/>
      <path fill="none" d="M958.22 181.8475 L958.22 156.8475 L540.275 156.8475 L540.275 146.8475"/>
      <path fill="white" d="M540.275 131.8475 L534.275 147.8475 L546.275 147.8475 Z" stroke="none"/>
      <path fill="none" d="M540.275 131.8475 L534.275 147.8475 L546.275 147.8475 Z"/>
    </g>
  </g>
</svg>
