<?xml version="1.0" encoding="UTF-8"?><svg xmlns="http://www.w3.org/2000/svg" xmlns:xlink="http://www.w3.org/1999/xlink" fill-opacity="1" color-rendering="auto" color-interpolation="auto" stroke="black" text-rendering="auto" stroke-linecap="square" width="598" stroke-miterlimit="10" stroke-opacity="1" shape-rendering="auto" fill="black" stroke-dasharray="none" font-weight="normal" stroke-width="1" height="598" font-family="'Dialog'" font-style="normal" stroke-linejoin="miter" font-size="12" stroke-dashoffset="0" image-rendering="auto">
  <!--Generated by ySVG-->
  <defs id="genericDefs"/>
  <g>
    <defs id="defs1">
      <clipPath clipPathUnits="userSpaceOnUse" id="clipPath1">
        <path d="M0 0 L598 0 L598 598 L0 598 L0 0 Z"/>
      </clipPath>
      <clipPath clipPathUnits="userSpaceOnUse" id="clipPath2">
        <path d="M401.78 0 L526.41 0 L526.41 23.1328 L401.78 23.1328 L401.78 0 Z"/>
      </clipPath>
      <clipPath clipPathUnits="userSpaceOnUse" id="clipPath3">
        <path d="M401.78 33.1328 L599.54 33.1328 L599.54 56.2656 L401.78 56.2656 L401.78 33.1328 Z"/>
      </clipPath>
      <clipPath clipPathUnits="userSpaceOnUse" id="clipPath4">
        <path d="M139.05 -107.1328 L196.73 -107.1328 L196.73 -84 L139.05 -84 L139.05 -107.1328 Z"/>
      </clipPath>
      <clipPath clipPathUnits="userSpaceOnUse" id="clipPath5">
        <path d="M0 0 L335.78 0 L335.78 76.5312 L0 76.5312 L0 0 Z"/>
      </clipPath>
      <script type="text/ecmascript"><![CDATA[
function umlload(newLocation)
{
if (newLocation.charAt(0) != '#') {
if (newLocation.indexOf("://") > -1) {
window.parent.location.href = newLocation;
} else {
var tmp = window.parent.location.href;
tmp = tmp.substring(0, tmp.lastIndexOf("/") + 1);
window.parent.location.href = tmp.concat(newLocation);
}
} else {
window.parent.location.hash = newLocation;
}
}
]]></script>
    </defs>
    <g fill="rgb(238,238,255)" transform="matrix(0.7827,0,0,0.7827,6.2618,304.4791)" stroke="rgb(238,238,255)">
      <rect width="361.5233" x="393.78" height="17.9688" y="-26" stroke="none"/>
    </g>
    <g fill="rgb(166,166,178)" stroke-miterlimit="1.45" transform="matrix(0.7827,0,0,0.7827,6.2618,304.4791)" stroke-linecap="butt" stroke="rgb(166,166,178)">
      <rect fill="none" width="361.5233" x="393.78" height="17.9688" y="-26"/>
    </g>
    <g fill="rgb(238,238,255)" transform="matrix(0.7827,0,0,0.7827,6.2618,304.4791)" stroke="rgb(238,238,255)">
      <rect width="361.76" x="393.78" height="72.2969" y="-8.0312" stroke="none"/>
    </g>
    <g fill="rgb(166,166,178)" stroke-miterlimit="1.45" transform="matrix(0.7827,0,0,0.7827,6.2618,304.4791)" stroke-linecap="butt" stroke="rgb(166,166,178)">
      <rect fill="none" width="361.76" x="393.78" height="72.2969" y="-8.0312"/>
    </g>
    <g font-family="sans-serif" transform="matrix(0.7827,0,0,0.7827,6.2618,304.4791)">
      <text xml:space="preserve" x="399.78" y="-12.8613" onclick="umlload('../../../../../../../com/msopentech/odatajclient/engine/data/xml/error/package-summary.html')" stroke="none">com.msopentech.odatajclient.engine.data.xml.error</text>
    </g>
    <g fill="rgb(187,187,255)" transform="matrix(0.7827,0,0,0.7827,6.2618,304.4791)" stroke="rgb(187,187,255)">
      <rect x="401.78" y="0" clip-path="url(#clipPath2)" width="124.63" height="23.1328" stroke="none"/>
    </g>
    <g fill="rgb(130,130,178)" stroke-miterlimit="1.45" transform="matrix(0.7827,0,0,0.7827,6.2618,304.4791)" stroke-linecap="butt" stroke="rgb(130,130,178)">
      <rect fill="none" width="124.63" x="401.78" height="23.1328" y="0"/>
    </g>
    <g font-size="13" font-weight="bold" font-family="sans-serif" transform="matrix(0.7827,0,0,0.7827,6.2618,304.4791)">
      <text xml:space="preserve" x="407.595" y="16.0669" onclick="umlload('../../../../../../../com/msopentech/odatajclient/engine/data/xml/error/XMLODataError.html')" stroke="none">XMLODataError</text>
    </g>
    <g fill="rgb(187,187,255)" transform="matrix(0.7827,0,0,0.7827,6.2618,304.4791)" stroke="rgb(187,187,255)">
      <rect x="401.78" y="33.1328" clip-path="url(#clipPath3)" width="197.76" height="23.1328" stroke="none"/>
    </g>
    <g fill="rgb(130,130,178)" stroke-miterlimit="1.45" transform="matrix(0.7827,0,0,0.7827,6.2618,304.4791)" stroke-linecap="butt" stroke="rgb(130,130,178)">
      <rect fill="none" width="197.76" x="401.78" height="23.1328" y="33.1328"/>
    </g>
    <g font-size="13" font-weight="bold" font-family="sans-serif" transform="matrix(0.7827,0,0,0.7827,6.2618,304.4791)">
      <text xml:space="preserve" x="408.66" y="49.1997" onclick="umlload('../../../../../../../com/msopentech/odatajclient/engine/data/xml/error/XMLODataError.Message.html')" stroke="none">XMLODataError.Message</text>
    </g>
    <g fill="rgb(238,238,255)" transform="matrix(0.7827,0,0,0.7827,6.2618,304.4791)" stroke="rgb(238,238,255)">
      <rect width="76.1412" x="131.05" height="17.9688" y="-133.1328" stroke="none"/>
    </g>
    <g fill="rgb(166,166,178)" stroke-miterlimit="1.45" transform="matrix(0.7827,0,0,0.7827,6.2618,304.4791)" stroke-linecap="butt" stroke="rgb(166,166,178)">
      <rect fill="none" width="76.1412" x="131.05" height="17.9688" y="-133.1328"/>
    </g>
    <g fill="rgb(238,238,255)" transform="matrix(0.7827,0,0,0.7827,6.2618,304.4791)" stroke="rgb(238,238,255)">
      <rect width="76.1412" x="131.05" height="39.1641" y="-115.1641" stroke="none"/>
    </g>
    <g fill="rgb(166,166,178)" stroke-miterlimit="1.45" transform="matrix(0.7827,0,0,0.7827,6.2618,304.4791)" stroke-linecap="butt" stroke="rgb(166,166,178)">
      <rect fill="none" width="76.1412" x="131.05" height="39.1641" y="-115.1641"/>
    </g>
    <g font-family="sans-serif" transform="matrix(0.7827,0,0,0.7827,6.2618,304.4791)">
      <text xml:space="preserve" x="137.05" y="-119.9941" onclick="umlload('http://docs.oracle.com/javase/6/docs/api/java/lang/package-summary.html')" stroke="none">java.lang</text>
    </g>
    <g fill="rgb(187,187,255)" transform="matrix(0.7827,0,0,0.7827,6.2618,304.4791)" stroke="rgb(187,187,255)">
      <rect x="139.05" y="-107.1328" clip-path="url(#clipPath4)" width="57.68" height="23.1328" stroke="none"/>
    </g>
    <g fill="rgb(130,130,178)" stroke-miterlimit="1.45" transform="matrix(0.7827,0,0,0.7827,6.2618,304.4791)" stroke-linecap="butt" stroke="rgb(130,130,178)">
      <rect fill="none" width="57.68" x="139.05" height="23.1328" y="-107.1328"/>
    </g>
    <g font-size="13" font-weight="bold" font-family="sans-serif" transform="matrix(0.7827,0,0,0.7827,6.2618,304.4791)">
      <text xml:space="preserve" x="143.89" y="-91.0659" onclick="umlload('http://docs.oracle.com/javase/6/docs/api/java/lang/Object.html')" stroke="none">Object</text>
    </g>
    <g fill="rgb(238,238,255)" transform="matrix(0.7827,0,0,0.7827,6.2618,304.4791)" stroke="rgb(238,238,255)">
      <rect width="361.5233" x="-8" height="17.9688" y="-26" stroke="none"/>
    </g>
    <g fill="rgb(166,166,178)" stroke-miterlimit="1.45" transform="matrix(0.7827,0,0,0.7827,6.2618,304.4791)" stroke-linecap="butt" stroke="rgb(166,166,178)">
      <rect fill="none" width="361.5233" x="-8" height="17.9688" y="-26"/>
    </g>
    <g fill="rgb(238,238,255)" transform="matrix(0.7827,0,0,0.7827,6.2618,304.4791)" stroke="rgb(238,238,255)">
      <rect width="361.78" x="-8" height="92.5625" y="-8.0312" stroke="none"/>
    </g>
    <g fill="rgb(166,166,178)" stroke-miterlimit="1.45" transform="matrix(0.7827,0,0,0.7827,6.2618,304.4791)" stroke-linecap="butt" stroke="rgb(166,166,178)">
      <rect fill="none" width="361.78" x="-8" height="92.5625" y="-8.0312"/>
    </g>
    <g font-family="sans-serif" transform="matrix(0.7827,0,0,0.7827,6.2618,304.4791)">
      <text xml:space="preserve" x="-2" y="-12.8613" onclick="umlload('package-summary.html')" stroke="none">com.msopentech.odatajclient.engine.data.xml.error</text>
    </g>
    <g fill="rgb(187,187,255)" transform="matrix(0.7827,0,0,0.7827,6.2618,304.4791)" stroke="rgb(187,187,255)">
      <rect x="0" y="0" clip-path="url(#clipPath5)" width="335.78" height="26.625" stroke="none"/>
      <line clip-path="url(#clipPath5)" fill="none" x1="0" x2="335.78" y1="26.625" y2="26.625" stroke="black"/>
      <rect x="0" y="27.625" clip-path="url(#clipPath5)" width="335.78" height="15.9688" stroke="none"/>
      <line clip-path="url(#clipPath5)" fill="none" x1="0" x2="335.78" y1="43.5938" y2="43.5938" stroke="black"/>
      <rect x="0" y="44.5938" clip-path="url(#clipPath5)" width="335.78" height="31.9375" stroke="none"/>
    </g>
    <g fill="rgb(130,130,178)" stroke-miterlimit="1.45" transform="matrix(0.7827,0,0,0.7827,6.2618,304.4791)" stroke-linecap="butt" stroke="rgb(130,130,178)">
      <rect fill="none" width="335.78" x="0" height="76.5312" y="0"/>
    </g>
    <g font-size="16" font-weight="bold" font-family="sans-serif" transform="matrix(0.7827,0,0,0.7827,6.2618,304.4791)">
      <text xml:space="preserve" x="105.39" y="18.8516" onclick="umlload('#')" stroke="none">ObjectFactory</text>
    </g>
    <g font-family="sans-serif" transform="matrix(0.7827,0,0,0.7827,6.2618,304.4791)">
      <text xml:space="preserve" x="4" y="38.1719" stroke="none">+</text>
      <text xml:space="preserve" x="19" y="39.7637" onclick="umlload('#ObjectFactory()')" stroke="none">ObjectFactory()</text>
    </g>
    <g font-family="sans-serif" transform="matrix(0.7827,0,0,0.7827,6.2618,304.4791)">
      <text xml:space="preserve" x="4" y="55.1719" stroke="none">+</text>
      <text xml:space="preserve" x="19" y="56.7324" onclick="umlload('#createError()')" stroke="none">createError() : XMLODataError</text>
    </g>
    <g font-family="sans-serif" transform="matrix(0.7827,0,0,0.7827,6.2618,304.4791)">
      <text xml:space="preserve" x="4" y="71.1719" stroke="none">+</text>
      <text xml:space="preserve" x="19" y="72.7012" onclick="umlload('#createErrorMessage()')" stroke="none">createErrorMessage() : XMLODataError.Message</text>
    </g>
    <g font-family="sans-serif" transform="matrix(0.7827,0,0,0.7827,6.2618,304.4791)">
      <text xml:space="preserve" x="-2" y="109.1543" onclick="umlload('http://www.yworks.com/')" stroke="none">yWorks UML Doclet</text>
    </g>
    <g stroke-miterlimit="1.45" transform="matrix(0.7827,0,0,0.7827,6.2618,304.4791)" stroke-linecap="butt">
      <path fill="none" d="M167.89 0 L167.89 -69"/>
      <path fill="white" d="M167.89 -84 L161.89 -68 L173.89 -68 Z" stroke="none"/>
      <path fill="none" d="M167.89 -84 L161.89 -68 L173.89 -68 Z"/>
      <path fill="none" stroke-dasharray="6,2" d="M335.7708 11.5664 L401.78 11.5664"/>
      <line stroke-linecap="square" transform="matrix(1,0,0,1,401.78,11.5664)" fill="none" x1="0" x2="-14" y1="0" y2="-4" stroke-miterlimit="10"/>
      <line stroke-linecap="square" transform="matrix(1,0,0,1,401.78,11.5664)" fill="none" x1="0" x2="-14" y1="0" y2="4" stroke-miterlimit="10"/>
    </g>
    <g stroke-dasharray="6,2" stroke-miterlimit="1.45" transform="matrix(0.7827,0,0,0.7827,6.2618,304.4791)" stroke-linecap="butt">
      <path fill="none" d="M335.778 44.6992 L401.78 44.6992"/>
      <line stroke-linecap="square" transform="matrix(1,0,0,1,401.78,44.6992)" fill="none" x1="0" x2="-14" y1="0" y2="-4" stroke-dasharray="none" stroke-miterlimit="10"/>
      <line stroke-linecap="square" transform="matrix(1,0,0,1,401.78,44.6992)" fill="none" x1="0" x2="-14" y1="0" y2="4" stroke-dasharray="none" stroke-miterlimit="10"/>
    </g>
  </g>
</svg>
