<?xml version="1.0" encoding="UTF-8"?><svg xmlns="http://www.w3.org/2000/svg" xmlns:xlink="http://www.w3.org/1999/xlink" fill-opacity="1" color-rendering="auto" color-interpolation="auto" stroke="black" text-rendering="auto" stroke-linecap="square" width="598" stroke-miterlimit="10" stroke-opacity="1" shape-rendering="auto" fill="black" stroke-dasharray="none" font-weight="normal" stroke-width="1" height="598" font-family="'Dialog'" font-style="normal" stroke-linejoin="miter" font-size="12" stroke-dashoffset="0" image-rendering="auto">
  <!--Generated by ySVG-->
  <defs id="genericDefs"/>
  <g>
    <defs id="defs1">
      <clipPath clipPathUnits="userSpaceOnUse" id="clipPath1">
        <path d="M0 0 L598 0 L598 598 L0 598 L0 0 Z"/>
      </clipPath>
      <clipPath clipPathUnits="userSpaceOnUse" id="clipPath2">
        <path d="M-130.04 87.1328 L-72.36 87.1328 L-72.36 110.2656 L-130.04 110.2656 L-130.04 87.1328 Z"/>
      </clipPath>
      <clipPath clipPathUnits="userSpaceOnUse" id="clipPath3">
        <path d="M-130.04 120.2656 L-76.48 120.2656 L-76.48 143.3984 L-130.04 143.3984 L-130.04 120.2656 Z"/>
      </clipPath>
      <clipPath clipPathUnits="userSpaceOnUse" id="clipPath4">
        <path d="M-407.11 0 L-209.35 0 L-209.35 23.1328 L-407.11 23.1328 L-407.11 0 Z"/>
      </clipPath>
      <clipPath clipPathUnits="userSpaceOnUse" id="clipPath5">
        <path d="M429.5438 -100.3574 C429.5438 -91.3234 400.1966 -84 363.995 -84 C327.7934 -84 298.4462 -91.3234 298.4462 -100.3574 C298.4462 -109.3913 327.7934 -116.7147 363.995 -116.7147 C400.1966 -116.7147 429.5438 -109.3913 429.5438 -100.3574 Z"/>
      </clipPath>
      <clipPath clipPathUnits="userSpaceOnUse" id="clipPath6">
        <path d="M125.145 -107.1328 L182.825 -107.1328 L182.825 -84 L125.145 -84 L125.145 -107.1328 Z"/>
      </clipPath>
      <clipPath clipPathUnits="userSpaceOnUse" id="clipPath7">
        <path d="M0 0 L307.97 0 L307.97 269.1562 L0 269.1562 L0 0 Z"/>
      </clipPath>
      <script type="text/ecmascript"><![CDATA[
function umlload(newLocation)
{
if (newLocation.charAt(0) != '#') {
if (newLocation.indexOf("://") > -1) {
window.parent.location.href = newLocation;
} else {
var tmp = window.parent.location.href;
tmp = tmp.substring(0, tmp.lastIndexOf("/") + 1);
window.parent.location.href = tmp.concat(newLocation);
}
} else {
window.parent.location.hash = newLocation;
}
}
]]></script>
    </defs>
    <g fill="rgb(238,238,255)" transform="matrix(0.6389,0,0,0.6389,265.7778,244.6944)" stroke="rgb(238,238,255)">
      <rect width="76.1412" x="-138.04" height="17.9688" y="61.1328" stroke="none"/>
    </g>
    <g fill="rgb(166,166,178)" stroke-miterlimit="1.45" transform="matrix(0.6389,0,0,0.6389,265.7778,244.6944)" stroke-linecap="butt" stroke="rgb(166,166,178)">
      <rect fill="none" width="76.1412" x="-138.04" height="17.9688" y="61.1328"/>
    </g>
    <g fill="rgb(238,238,255)" transform="matrix(0.6389,0,0,0.6389,265.7778,244.6944)" stroke="rgb(238,238,255)">
      <rect width="79.68" x="-138.04" height="72.2969" y="79.1016" stroke="none"/>
    </g>
    <g fill="rgb(166,166,178)" stroke-miterlimit="1.45" transform="matrix(0.6389,0,0,0.6389,265.7778,244.6944)" stroke-linecap="butt" stroke="rgb(166,166,178)">
      <rect fill="none" width="79.68" x="-138.04" height="72.2969" y="79.1016"/>
    </g>
    <g font-family="sans-serif" transform="matrix(0.6389,0,0,0.6389,265.7778,244.6944)">
      <text xml:space="preserve" x="-132.04" y="74.2715" onclick="umlload('http://docs.oracle.com/javase/6/docs/api/java/lang/package-summary.html')" stroke="none">java.lang</text>
    </g>
    <g fill="rgb(187,187,255)" transform="matrix(0.6389,0,0,0.6389,265.7778,244.6944)" stroke="rgb(187,187,255)">
      <rect x="-130.04" y="87.1328" clip-path="url(#clipPath2)" width="57.68" height="23.1328" stroke="none"/>
    </g>
    <g fill="rgb(130,130,178)" stroke-miterlimit="1.45" transform="matrix(0.6389,0,0,0.6389,265.7778,244.6944)" stroke-linecap="butt" stroke="rgb(130,130,178)">
      <rect fill="none" width="57.68" x="-130.04" height="23.1328" y="87.1328"/>
    </g>
    <g font-size="13" font-weight="bold" font-family="sans-serif" transform="matrix(0.6389,0,0,0.6389,265.7778,244.6944)">
      <text xml:space="preserve" x="-125.2" y="103.1997" onclick="umlload('http://docs.oracle.com/javase/6/docs/api/java/lang/Object.html')" stroke="none">Object</text>
    </g>
    <g fill="rgb(187,187,255)" transform="matrix(0.6389,0,0,0.6389,265.7778,244.6944)" stroke="rgb(187,187,255)">
      <rect x="-130.04" y="120.2656" clip-path="url(#clipPath3)" width="53.56" height="23.1328" stroke="none"/>
    </g>
    <g fill="rgb(130,130,178)" stroke-miterlimit="1.45" transform="matrix(0.6389,0,0,0.6389,265.7778,244.6944)" stroke-linecap="butt" stroke="rgb(130,130,178)">
      <rect fill="none" width="53.56" x="-130.04" height="23.1328" y="120.2656"/>
    </g>
    <g font-size="13" font-weight="bold" font-family="sans-serif" transform="matrix(0.6389,0,0,0.6389,265.7778,244.6944)">
      <text xml:space="preserve" x="-125.26" y="136.3325" onclick="umlload('http://docs.oracle.com/javase/6/docs/api/java/lang/String.html')" stroke="none">String</text>
    </g>
    <g fill="rgb(238,238,255)" transform="matrix(0.6389,0,0,0.6389,265.7778,244.6944)" stroke="rgb(238,238,255)">
      <rect width="361.5233" x="-415.11" height="17.9688" y="-26" stroke="none"/>
    </g>
    <g fill="rgb(166,166,178)" stroke-miterlimit="1.45" transform="matrix(0.6389,0,0,0.6389,265.7778,244.6944)" stroke-linecap="butt" stroke="rgb(166,166,178)">
      <rect fill="none" width="361.5233" x="-415.11" height="17.9688" y="-26"/>
    </g>
    <g fill="rgb(238,238,255)" transform="matrix(0.6389,0,0,0.6389,265.7778,244.6944)" stroke="rgb(238,238,255)">
      <rect width="361.76" x="-415.11" height="39.1641" y="-8.0312" stroke="none"/>
    </g>
    <g fill="rgb(166,166,178)" stroke-miterlimit="1.45" transform="matrix(0.6389,0,0,0.6389,265.7778,244.6944)" stroke-linecap="butt" stroke="rgb(166,166,178)">
      <rect fill="none" width="361.76" x="-415.11" height="39.1641" y="-8.0312"/>
    </g>
    <g font-family="sans-serif" transform="matrix(0.6389,0,0,0.6389,265.7778,244.6944)">
      <text xml:space="preserve" x="-409.11" y="-12.8613" onclick="umlload('../../../../../../../com/msopentech/odatajclient/engine/data/xml/error/package-summary.html')" stroke="none">com.msopentech.odatajclient.engine.data.xml.error</text>
    </g>
    <g fill="rgb(187,187,255)" transform="matrix(0.6389,0,0,0.6389,265.7778,244.6944)" stroke="rgb(187,187,255)">
      <rect x="-407.11" y="0" clip-path="url(#clipPath4)" width="197.76" height="23.1328" stroke="none"/>
    </g>
    <g fill="rgb(130,130,178)" stroke-miterlimit="1.45" transform="matrix(0.6389,0,0,0.6389,265.7778,244.6944)" stroke-linecap="butt" stroke="rgb(130,130,178)">
      <rect fill="none" width="197.76" x="-407.11" height="23.1328" y="0"/>
    </g>
    <g font-size="13" font-weight="bold" font-family="sans-serif" transform="matrix(0.6389,0,0,0.6389,265.7778,244.6944)">
      <text xml:space="preserve" x="-400.23" y="16.0669" onclick="umlload('../../../../../../../com/msopentech/odatajclient/engine/data/xml/error/XMLODataError.Message.html')" stroke="none">XMLODataError.Message</text>
    </g>
    <g fill="rgb(238,238,255)" transform="matrix(0.6389,0,0,0.6389,265.7778,244.6944)" stroke="rgb(238,238,255)">
      <rect width="298.9302" x="220.4462" height="17.9688" y="-142.7147" stroke="none"/>
    </g>
    <g fill="rgb(166,166,178)" stroke-miterlimit="1.45" transform="matrix(0.6389,0,0,0.6389,265.7778,244.6944)" stroke-linecap="butt" stroke="rgb(166,166,178)">
      <rect fill="none" width="298.9302" x="220.4462" height="17.9688" y="-142.7147"/>
    </g>
    <g fill="rgb(238,238,255)" transform="matrix(0.6389,0,0,0.6389,265.7778,244.6944)" stroke="rgb(238,238,255)">
      <rect width="299.0976" x="220.4462" height="48.746" y="-124.746" stroke="none"/>
    </g>
    <g fill="rgb(166,166,178)" stroke-miterlimit="1.45" transform="matrix(0.6389,0,0,0.6389,265.7778,244.6944)" stroke-linecap="butt" stroke="rgb(166,166,178)">
      <rect fill="none" width="299.0976" x="220.4462" height="48.746" y="-124.746"/>
    </g>
    <g font-family="sans-serif" transform="matrix(0.6389,0,0,0.6389,265.7778,244.6944)">
      <text xml:space="preserve" x="226.4462" y="-129.5761" onclick="umlload('../../../../../../../com/msopentech/odatajclient/engine/data/package-summary.html')" stroke="none">com.msopentech.odatajclient.engine.data</text>
    </g>
    <g fill="rgb(221,221,255)" transform="matrix(0.6389,0,0,0.6389,265.7778,244.6944)" stroke="rgb(221,221,255)">
      <rect x="298.4462" y="-116.7147" clip-path="url(#clipPath5)" width="131.0976" height="32.7147" stroke="none"/>
    </g>
    <g fill="rgb(154,154,178)" stroke-miterlimit="1.45" transform="matrix(0.6389,0,0,0.6389,265.7778,244.6944)" stroke-linecap="butt" stroke="rgb(154,154,178)">
      <ellipse rx="65.5488" fill="none" ry="16.3574" cx="363.995" cy="-100.3574"/>
    </g>
    <g font-style="italic" font-size="13" font-weight="bold" font-family="sans-serif" transform="matrix(0.6389,0,0,0.6389,265.7778,244.6944)">
      <text xml:space="preserve" x="322.995" y="-95.8569" onclick="umlload('../../../../../../../com/msopentech/odatajclient/engine/data/ODataError.html')" stroke="none">ODataError</text>
    </g>
    <g fill="rgb(238,238,255)" transform="matrix(0.6389,0,0,0.6389,265.7778,244.6944)" stroke="rgb(238,238,255)">
      <rect width="76.1412" x="117.145" height="17.9688" y="-133.1328" stroke="none"/>
    </g>
    <g fill="rgb(166,166,178)" stroke-miterlimit="1.45" transform="matrix(0.6389,0,0,0.6389,265.7778,244.6944)" stroke-linecap="butt" stroke="rgb(166,166,178)">
      <rect fill="none" width="76.1412" x="117.145" height="17.9688" y="-133.1328"/>
    </g>
    <g fill="rgb(238,238,255)" transform="matrix(0.6389,0,0,0.6389,265.7778,244.6944)" stroke="rgb(238,238,255)">
      <rect width="76.1412" x="117.145" height="39.1641" y="-115.1641" stroke="none"/>
    </g>
    <g fill="rgb(166,166,178)" stroke-miterlimit="1.45" transform="matrix(0.6389,0,0,0.6389,265.7778,244.6944)" stroke-linecap="butt" stroke="rgb(166,166,178)">
      <rect fill="none" width="76.1412" x="117.145" height="39.1641" y="-115.1641"/>
    </g>
    <g font-family="sans-serif" transform="matrix(0.6389,0,0,0.6389,265.7778,244.6944)">
      <text xml:space="preserve" x="123.145" y="-119.9941" onclick="umlload('http://docs.oracle.com/javase/6/docs/api/java/lang/package-summary.html')" stroke="none">java.lang</text>
    </g>
    <g fill="rgb(187,187,255)" transform="matrix(0.6389,0,0,0.6389,265.7778,244.6944)" stroke="rgb(187,187,255)">
      <rect x="125.145" y="-107.1328" clip-path="url(#clipPath6)" width="57.68" height="23.1328" stroke="none"/>
    </g>
    <g fill="rgb(130,130,178)" stroke-miterlimit="1.45" transform="matrix(0.6389,0,0,0.6389,265.7778,244.6944)" stroke-linecap="butt" stroke="rgb(130,130,178)">
      <rect fill="none" width="57.68" x="125.145" height="23.1328" y="-107.1328"/>
    </g>
    <g font-size="13" font-weight="bold" font-family="sans-serif" transform="matrix(0.6389,0,0,0.6389,265.7778,244.6944)">
      <text xml:space="preserve" x="129.985" y="-91.0659" onclick="umlload('http://docs.oracle.com/javase/6/docs/api/java/lang/Object.html')" stroke="none">Object</text>
    </g>
    <g fill="rgb(238,238,255)" transform="matrix(0.6389,0,0,0.6389,265.7778,244.6944)" stroke="rgb(238,238,255)">
      <rect width="361.5233" x="-8" height="17.9688" y="-26" stroke="none"/>
    </g>
    <g fill="rgb(166,166,178)" stroke-miterlimit="1.45" transform="matrix(0.6389,0,0,0.6389,265.7778,244.6944)" stroke-linecap="butt" stroke="rgb(166,166,178)">
      <rect fill="none" width="361.5233" x="-8" height="17.9688" y="-26"/>
    </g>
    <g fill="rgb(238,238,255)" transform="matrix(0.6389,0,0,0.6389,265.7778,244.6944)" stroke="rgb(238,238,255)">
      <rect width="361.97" x="-8" height="285.1875" y="-8.0312" stroke="none"/>
    </g>
    <g fill="rgb(166,166,178)" stroke-miterlimit="1.45" transform="matrix(0.6389,0,0,0.6389,265.7778,244.6944)" stroke-linecap="butt" stroke="rgb(166,166,178)">
      <rect fill="none" width="361.97" x="-8" height="285.1875" y="-8.0312"/>
    </g>
    <g font-family="sans-serif" transform="matrix(0.6389,0,0,0.6389,265.7778,244.6944)">
      <text xml:space="preserve" x="-2" y="-12.8613" onclick="umlload('package-summary.html')" stroke="none">com.msopentech.odatajclient.engine.data.xml.error</text>
    </g>
    <g fill="rgb(187,187,255)" transform="matrix(0.6389,0,0,0.6389,265.7778,244.6944)" stroke="rgb(187,187,255)">
      <rect x="0" y="0" clip-path="url(#clipPath7)" width="307.97" height="26.625" stroke="none"/>
      <line clip-path="url(#clipPath7)" fill="none" x1="0" x2="307.97" y1="26.625" y2="26.625" stroke="black"/>
      <rect x="0" y="27.625" clip-path="url(#clipPath7)" width="307.97" height="47.9062" stroke="none"/>
      <line clip-path="url(#clipPath7)" fill="none" x1="0" x2="307.97" y1="75.5312" y2="75.5312" stroke="black"/>
      <rect x="0" y="76.5312" clip-path="url(#clipPath7)" width="307.97" height="15.9688" stroke="none"/>
      <line clip-path="url(#clipPath7)" fill="none" x1="0" x2="307.97" y1="92.5" y2="92.5" stroke="black"/>
      <rect x="0" y="93.5" clip-path="url(#clipPath7)" width="307.97" height="175.6562" stroke="none"/>
    </g>
    <g fill="rgb(130,130,178)" stroke-miterlimit="1.45" transform="matrix(0.6389,0,0,0.6389,265.7778,244.6944)" stroke-linecap="butt" stroke="rgb(130,130,178)">
      <rect fill="none" width="307.97" x="0" height="269.1562" y="0"/>
    </g>
    <g font-size="16" font-weight="bold" font-family="sans-serif" transform="matrix(0.6389,0,0,0.6389,265.7778,244.6944)">
      <text xml:space="preserve" x="84.985" y="18.8516" onclick="umlload('#')" stroke="none">XMLODataError</text>
    </g>
    <g font-family="sans-serif" transform="matrix(0.6389,0,0,0.6389,265.7778,244.6944)">
      <text xml:space="preserve" x="4" y="38.1719" stroke="none">#</text>
      <text xml:space="preserve" x="19" y="39.7637" onclick="umlload('#any')" stroke="none">any : Object</text>
    </g>
    <g font-family="sans-serif" transform="matrix(0.6389,0,0,0.6389,265.7778,244.6944)">
      <text xml:space="preserve" x="4" y="54.1719" stroke="none">#</text>
      <text xml:space="preserve" x="19" y="55.7324" onclick="umlload('#code')" stroke="none">code : String</text>
    </g>
    <g font-family="sans-serif" transform="matrix(0.6389,0,0,0.6389,265.7778,244.6944)">
      <text xml:space="preserve" x="4" y="70.1719" stroke="none">#</text>
      <text xml:space="preserve" x="19" y="71.7012" onclick="umlload('#message')" stroke="none">message : XMLODataError.Message</text>
    </g>
    <g font-family="sans-serif" transform="matrix(0.6389,0,0,0.6389,265.7778,244.6944)">
      <text xml:space="preserve" x="4" y="87.1719" stroke="none">+</text>
      <text xml:space="preserve" x="19" y="88.6699" onclick="umlload('#XMLODataError()')" stroke="none">XMLODataError()</text>
    </g>
    <g font-family="sans-serif" transform="matrix(0.6389,0,0,0.6389,265.7778,244.6944)">
      <text xml:space="preserve" x="4" y="104.1719" stroke="none">+</text>
      <text xml:space="preserve" x="19" y="105.6387" onclick="umlload('#getAny()')" stroke="none">getAny() : Object</text>
    </g>
    <g font-family="sans-serif" transform="matrix(0.6389,0,0,0.6389,265.7778,244.6944)">
      <text xml:space="preserve" x="4" y="120.1719" stroke="none">+</text>
      <text xml:space="preserve" x="19" y="121.6074" onclick="umlload('#getCode()')" stroke="none">getCode() : String</text>
    </g>
    <g font-family="sans-serif" transform="matrix(0.6389,0,0,0.6389,265.7778,244.6944)">
      <text xml:space="preserve" x="4" y="136.1719" stroke="none">+</text>
      <text xml:space="preserve" x="19" y="137.5762" onclick="umlload('#getInnerErrorMessage()')" stroke="none">getInnerErrorMessage() : String</text>
    </g>
    <g font-family="sans-serif" transform="matrix(0.6389,0,0,0.6389,265.7778,244.6944)">
      <text xml:space="preserve" x="4" y="152.1719" stroke="none">+</text>
      <text xml:space="preserve" x="19" y="153.5449" onclick="umlload('#getInnerErrorStacktrace()')" stroke="none">getInnerErrorStacktrace() : String</text>
    </g>
    <g font-family="sans-serif" transform="matrix(0.6389,0,0,0.6389,265.7778,244.6944)">
      <text xml:space="preserve" x="4" y="168.1719" stroke="none">+</text>
      <text xml:space="preserve" x="19" y="169.5137" onclick="umlload('#getInnerErrorType()')" stroke="none">getInnerErrorType() : String</text>
    </g>
    <g font-family="sans-serif" transform="matrix(0.6389,0,0,0.6389,265.7778,244.6944)">
      <text xml:space="preserve" x="4" y="184.1719" stroke="none">+</text>
      <text xml:space="preserve" x="19" y="185.4824" onclick="umlload('#getMessage()')" stroke="none">getMessage() : XMLODataError.Message</text>
    </g>
    <g font-family="sans-serif" transform="matrix(0.6389,0,0,0.6389,265.7778,244.6944)">
      <text xml:space="preserve" x="4" y="200.1719" stroke="none">+</text>
      <text xml:space="preserve" x="19" y="201.4512" onclick="umlload('#getMessageLang()')" stroke="none">getMessageLang() : String</text>
    </g>
    <g font-family="sans-serif" transform="matrix(0.6389,0,0,0.6389,265.7778,244.6944)">
      <text xml:space="preserve" x="4" y="216.1719" stroke="none">+</text>
      <text xml:space="preserve" x="19" y="217.4199" onclick="umlload('#getMessageValue()')" stroke="none">getMessageValue() : String</text>
    </g>
    <g font-family="sans-serif" transform="matrix(0.6389,0,0,0.6389,265.7778,244.6944)">
      <text xml:space="preserve" x="4" y="232.1719" stroke="none">+</text>
      <text xml:space="preserve" x="19" y="233.3887" onclick="umlload('#setAny(java.lang.Object)')" stroke="none">setAny(Object) : void</text>
    </g>
    <g font-family="sans-serif" transform="matrix(0.6389,0,0,0.6389,265.7778,244.6944)">
      <text xml:space="preserve" x="4" y="248.1719" stroke="none">+</text>
      <text xml:space="preserve" x="19" y="249.3574" onclick="umlload('#setCode(java.lang.String)')" stroke="none">setCode(String) : void</text>
    </g>
    <g font-family="sans-serif" transform="matrix(0.6389,0,0,0.6389,265.7778,244.6944)">
      <text xml:space="preserve" x="4" y="264.1719" stroke="none">+</text>
      <text xml:space="preserve" x="19" y="265.3262" onclick="umlload('#setMessage(com.msopentech.odatajclient.engine.data.xml.error.XMLODataError.Message)')" stroke="none">setMessage(XMLODataError.Message) : void</text>
    </g>
    <g font-family="sans-serif" transform="matrix(0.6389,0,0,0.6389,265.7778,244.6944)">
      <text xml:space="preserve" x="-410" y="302.1543" onclick="umlload('http://www.yworks.com/')" stroke="none">yWorks UML Doclet</text>
    </g>
    <g stroke-miterlimit="1.45" transform="matrix(0.6389,0,0,0.6389,265.7778,244.6944)" stroke-linecap="butt">
      <path fill="none" d="M153.985 0 L153.985 -69"/>
      <path fill="white" d="M153.985 -84 L147.985 -68 L159.985 -68 Z" stroke="none"/>
      <path fill="none" d="M153.985 -84 L147.985 -68 L159.985 -68 Z"/>
      <path fill="none" stroke-dasharray="6,2" d="M230.9775 -0.0294 L230.9775 -51 L363.995 -51 L363.995 -69"/>
      <path fill="white" stroke-dasharray="6,2" d="M363.995 -84 L357.995 -68 L369.995 -68 Z" stroke="none"/>
      <path fill="none" d="M363.995 -84 L357.995 -68 L369.995 -68 Z"/>
      <path fill="none" d="M-0.0208 11.5664 L-209.35 11.5664"/>
      <line stroke-linecap="square" transform="matrix(-1,0,0,-1,-209.35,11.5664)" fill="none" x1="0" x2="-14" y1="0" y2="-4" stroke-miterlimit="10"/>
      <line stroke-linecap="square" transform="matrix(-1,0,0,-1,-209.35,11.5664)" fill="none" x1="0" x2="-14" y1="0" y2="4" stroke-miterlimit="10"/>
    </g>
    <g stroke-miterlimit="1.45" transform="matrix(0.6389,0,0,0.6389,265.7778,244.6944)" stroke-linecap="butt">
      <path fill="none" d="M0.008 98.6992 L-72.36 98.6992"/>
      <line stroke-linecap="square" transform="matrix(-1,0,0,-1,-72.36,98.6992)" fill="none" x1="0" x2="-14" y1="0" y2="-4" stroke-miterlimit="10"/>
      <line stroke-linecap="square" transform="matrix(-1,0,0,-1,-72.36,98.6992)" fill="none" x1="0" x2="-14" y1="0" y2="4" stroke-miterlimit="10"/>
    </g>
    <g stroke-miterlimit="1.45" transform="matrix(0.6389,0,0,0.6389,265.7778,244.6944)" stroke-linecap="butt">
      <path fill="none" d="M0.0211 131.832 L-76.48 131.832"/>
      <line stroke-linecap="square" transform="matrix(-1,0,0,-1,-76.48,131.832)" fill="none" x1="0" x2="-14" y1="0" y2="-4" stroke-miterlimit="10"/>
      <line stroke-linecap="square" transform="matrix(-1,0,0,-1,-76.48,131.832)" fill="none" x1="0" x2="-14" y1="0" y2="4" stroke-miterlimit="10"/>
    </g>
  </g>
</svg>
