<?xml version="1.0" encoding="UTF-8"?><svg xmlns="http://www.w3.org/2000/svg" xmlns:xlink="http://www.w3.org/1999/xlink" fill-opacity="1" color-rendering="auto" color-interpolation="auto" stroke="black" text-rendering="auto" stroke-linecap="square" width="554" stroke-miterlimit="10" stroke-opacity="1" shape-rendering="auto" fill="black" stroke-dasharray="none" font-weight="normal" stroke-width="1" height="242" font-family="'Dialog'" font-style="normal" stroke-linejoin="miter" font-size="12" stroke-dashoffset="0" image-rendering="auto">
  <!--Generated by ySVG-->
  <defs id="genericDefs"/>
  <g>
    <defs id="defs1">
      <clipPath clipPathUnits="userSpaceOnUse" id="clipPath1">
        <path d="M0 0 L554 0 L554 242 L0 242 L0 0 Z"/>
      </clipPath>
      <clipPath clipPathUnits="userSpaceOnUse" id="clipPath2">
        <path d="M322.95 0 L380.63 0 L380.63 23.1328 L322.95 23.1328 L322.95 0 Z"/>
      </clipPath>
      <clipPath clipPathUnits="userSpaceOnUse" id="clipPath3">
        <path d="M322.95 33.1328 L376.51 33.1328 L376.51 56.2656 L322.95 56.2656 L322.95 33.1328 Z"/>
      </clipPath>
      <clipPath clipPathUnits="userSpaceOnUse" id="clipPath4">
        <path d="M-66 16.3574 C-66 25.3913 -84.9126 32.7147 -108.2426 32.7147 C-131.5725 32.7147 -150.4851 25.3913 -150.4851 16.3574 C-150.4851 7.3234 -131.5725 0 -108.2426 0 C-84.9126 0 -66 7.3234 -66 16.3574 Z"/>
      </clipPath>
      <clipPath clipPathUnits="userSpaceOnUse" id="clipPath5">
        <path d="M91.155 -107.1328 L148.835 -107.1328 L148.835 -84 L91.155 -84 L91.155 -107.1328 Z"/>
      </clipPath>
      <clipPath clipPathUnits="userSpaceOnUse" id="clipPath6">
        <path d="M0 0 L239.99 0 L239.99 64.2656 L0 64.2656 L0 0 Z"/>
      </clipPath>
      <script type="text/ecmascript"><![CDATA[
function umlload(newLocation)
{
if (newLocation.charAt(0) != '#') {
if (newLocation.indexOf("://") > -1) {
window.parent.location.href = newLocation;
} else {
var tmp = window.parent.location.href;
tmp = tmp.substring(0, tmp.lastIndexOf("/") + 1);
window.parent.location.href = tmp.concat(newLocation);
}
} else {
window.parent.location.hash = newLocation;
}
}
]]></script>
    </defs>
    <g fill="rgb(238,238,255)" transform="matrix(1,0,0,1,159,134)" stroke="rgb(238,238,255)">
      <rect width="76.1412" x="314.95" height="17.9688" y="-26" stroke="none"/>
    </g>
    <g fill="rgb(166,166,178)" stroke-miterlimit="1.45" transform="matrix(1,0,0,1,159,134)" stroke-linecap="butt" stroke="rgb(166,166,178)">
      <rect fill="none" width="76.1412" x="314.95" height="17.9688" y="-26"/>
    </g>
    <g fill="rgb(238,238,255)" transform="matrix(1,0,0,1,159,134)" stroke="rgb(238,238,255)">
      <rect width="79.68" x="314.95" height="72.2969" y="-8.0312" stroke="none"/>
    </g>
    <g fill="rgb(166,166,178)" stroke-miterlimit="1.45" transform="matrix(1,0,0,1,159,134)" stroke-linecap="butt" stroke="rgb(166,166,178)">
      <rect fill="none" width="79.68" x="314.95" height="72.2969" y="-8.0312"/>
    </g>
    <g font-family="sans-serif" transform="matrix(1,0,0,1,159,134)">
      <text xml:space="preserve" x="320.95" y="-12.8613" onclick="umlload('http://docs.oracle.com/javase/6/docs/api/java/lang/package-summary.html')" stroke="none">java.lang</text>
    </g>
    <g fill="rgb(187,187,255)" transform="matrix(1,0,0,1,159,134)" stroke="rgb(187,187,255)">
      <rect x="322.95" y="0" clip-path="url(#clipPath2)" width="57.68" height="23.1328" stroke="none"/>
    </g>
    <g fill="rgb(130,130,178)" stroke-miterlimit="1.45" transform="matrix(1,0,0,1,159,134)" stroke-linecap="butt" stroke="rgb(130,130,178)">
      <rect fill="none" width="57.68" x="322.95" height="23.1328" y="0"/>
    </g>
    <g font-size="13" font-weight="bold" font-family="sans-serif" transform="matrix(1,0,0,1,159,134)">
      <text xml:space="preserve" x="327.79" y="16.0669" onclick="umlload('http://docs.oracle.com/javase/6/docs/api/java/lang/Object.html')" stroke="none">Object</text>
    </g>
    <g fill="rgb(187,187,255)" transform="matrix(1,0,0,1,159,134)" stroke="rgb(187,187,255)">
      <rect x="322.95" y="33.1328" clip-path="url(#clipPath3)" width="53.56" height="23.1328" stroke="none"/>
    </g>
    <g fill="rgb(130,130,178)" stroke-miterlimit="1.45" transform="matrix(1,0,0,1,159,134)" stroke-linecap="butt" stroke="rgb(130,130,178)">
      <rect fill="none" width="53.56" x="322.95" height="23.1328" y="33.1328"/>
    </g>
    <g font-size="13" font-weight="bold" font-family="sans-serif" transform="matrix(1,0,0,1,159,134)">
      <text xml:space="preserve" x="327.73" y="49.1997" onclick="umlload('http://docs.oracle.com/javase/6/docs/api/java/lang/String.html')" stroke="none">String</text>
    </g>
    <g fill="rgb(238,238,255)" transform="matrix(1,0,0,1,159,134)" stroke="rgb(238,238,255)">
      <rect width="69.7758" x="-158.4851" height="17.9688" y="-26" stroke="none"/>
    </g>
    <g fill="rgb(166,166,178)" stroke-miterlimit="1.45" transform="matrix(1,0,0,1,159,134)" stroke-linecap="butt" stroke="rgb(166,166,178)">
      <rect fill="none" width="69.7758" x="-158.4851" height="17.9688" y="-26"/>
    </g>
    <g fill="rgb(238,238,255)" transform="matrix(1,0,0,1,159,134)" stroke="rgb(238,238,255)">
      <rect width="100.4851" x="-158.4851" height="48.746" y="-8.0312" stroke="none"/>
    </g>
    <g fill="rgb(166,166,178)" stroke-miterlimit="1.45" transform="matrix(1,0,0,1,159,134)" stroke-linecap="butt" stroke="rgb(166,166,178)">
      <rect fill="none" width="100.4851" x="-158.4851" height="48.746" y="-8.0312"/>
    </g>
    <g font-family="sans-serif" transform="matrix(1,0,0,1,159,134)">
      <text xml:space="preserve" x="-152.4851" y="-12.8613" stroke="none">org.slf4j</text>
    </g>
    <g fill="rgb(221,221,255)" transform="matrix(1,0,0,1,159,134)" stroke="rgb(221,221,255)">
      <rect x="-150.4851" y="0" clip-path="url(#clipPath4)" width="84.4851" height="32.7147" stroke="none"/>
    </g>
    <g fill="rgb(154,154,178)" stroke-miterlimit="1.45" transform="matrix(1,0,0,1,159,134)" stroke-linecap="butt" stroke="rgb(154,154,178)">
      <ellipse rx="42.2426" fill="none" ry="16.3574" cx="-108.2426" cy="16.3574"/>
    </g>
    <g font-style="italic" font-size="13" font-weight="bold" font-family="sans-serif" transform="matrix(1,0,0,1,159,134)">
      <text xml:space="preserve" x="-133.2426" y="20.8579" stroke="none">Logger</text>
    </g>
    <g fill="rgb(238,238,255)" transform="matrix(1,0,0,1,159,134)" stroke="rgb(238,238,255)">
      <rect width="76.1412" x="83.155" height="17.9688" y="-133.1328" stroke="none"/>
    </g>
    <g fill="rgb(166,166,178)" stroke-miterlimit="1.45" transform="matrix(1,0,0,1,159,134)" stroke-linecap="butt" stroke="rgb(166,166,178)">
      <rect fill="none" width="76.1412" x="83.155" height="17.9688" y="-133.1328"/>
    </g>
    <g fill="rgb(238,238,255)" transform="matrix(1,0,0,1,159,134)" stroke="rgb(238,238,255)">
      <rect width="76.1412" x="83.155" height="39.1641" y="-115.1641" stroke="none"/>
    </g>
    <g fill="rgb(166,166,178)" stroke-miterlimit="1.45" transform="matrix(1,0,0,1,159,134)" stroke-linecap="butt" stroke="rgb(166,166,178)">
      <rect fill="none" width="76.1412" x="83.155" height="39.1641" y="-115.1641"/>
    </g>
    <g font-family="sans-serif" transform="matrix(1,0,0,1,159,134)">
      <text xml:space="preserve" x="89.155" y="-119.9941" onclick="umlload('http://docs.oracle.com/javase/6/docs/api/java/lang/package-summary.html')" stroke="none">java.lang</text>
    </g>
    <g fill="rgb(187,187,255)" transform="matrix(1,0,0,1,159,134)" stroke="rgb(187,187,255)">
      <rect x="91.155" y="-107.1328" clip-path="url(#clipPath5)" width="57.68" height="23.1328" stroke="none"/>
    </g>
    <g fill="rgb(130,130,178)" stroke-miterlimit="1.45" transform="matrix(1,0,0,1,159,134)" stroke-linecap="butt" stroke="rgb(130,130,178)">
      <rect fill="none" width="57.68" x="91.155" height="23.1328" y="-107.1328"/>
    </g>
    <g font-size="13" font-weight="bold" font-family="sans-serif" transform="matrix(1,0,0,1,159,134)">
      <text xml:space="preserve" x="95.995" y="-91.0659" onclick="umlload('http://docs.oracle.com/javase/6/docs/api/java/lang/Object.html')" stroke="none">Object</text>
    </g>
    <g fill="rgb(238,238,255)" transform="matrix(1,0,0,1,159,134)" stroke="rgb(238,238,255)">
      <rect width="285.1385" x="-8" height="17.9688" y="-26" stroke="none"/>
    </g>
    <g fill="rgb(166,166,178)" stroke-miterlimit="1.45" transform="matrix(1,0,0,1,159,134)" stroke-linecap="butt" stroke="rgb(166,166,178)">
      <rect fill="none" width="285.1385" x="-8" height="17.9688" y="-26"/>
    </g>
    <g fill="rgb(238,238,255)" transform="matrix(1,0,0,1,159,134)" stroke="rgb(238,238,255)">
      <rect width="285.1385" x="-8" height="80.2969" y="-8.0312" stroke="none"/>
    </g>
    <g fill="rgb(166,166,178)" stroke-miterlimit="1.45" transform="matrix(1,0,0,1,159,134)" stroke-linecap="butt" stroke="rgb(166,166,178)">
      <rect fill="none" width="285.1385" x="-8" height="80.2969" y="-8.0312"/>
    </g>
    <g font-family="sans-serif" transform="matrix(1,0,0,1,159,134)">
      <text xml:space="preserve" x="-2" y="-12.8613" onclick="umlload('package-summary.html')" stroke="none">com.msopentech.odatajclient.engine.uri</text>
    </g>
    <g fill="rgb(187,187,255)" transform="matrix(1,0,0,1,159,134)" stroke="rgb(187,187,255)">
      <rect x="0" y="0" clip-path="url(#clipPath6)" width="239.99" height="26.625" stroke="none"/>
      <line clip-path="url(#clipPath6)" fill="none" x1="0" x2="239.99" y1="26.625" y2="26.625" stroke="black"/>
      <line clip-path="url(#clipPath6)" x1="0" x2="239.99" y1="27.625" y2="27.625" stroke="none"/>
      <line clip-path="url(#clipPath6)" fill="none" x1="0" x2="239.99" y1="27.625" y2="27.625" stroke="black"/>
      <rect x="0" y="28.625" clip-path="url(#clipPath6)" width="239.99" height="35.6406" stroke="none"/>
    </g>
    <g fill="rgb(130,130,178)" stroke-miterlimit="1.45" transform="matrix(1,0,0,1,159,134)" stroke-linecap="butt" stroke="rgb(130,130,178)">
      <rect fill="none" width="239.99" x="0" height="64.2656" y="0"/>
    </g>
    <g font-size="16" font-weight="bold" font-family="sans-serif" transform="matrix(1,0,0,1,159,134)">
      <text xml:space="preserve" x="7.495" y="18.8516" onclick="umlload('#')" stroke="none">PrimitiveValueURIEscaper</text>
    </g>
    <g font-family="sans-serif" transform="matrix(1,0,0,1,159,134)">
      <text xml:space="preserve" x="4" y="39.1719" stroke="none">+</text>
      <text xml:space="preserve" x="19" y="40.7637" onclick="umlload('#escape(java.lang.Object)')" stroke="none">escape(Object) : String</text>
      <line y2="43.5938" fill="none" x1="19" x2="164" y1="43.5938"/>
    </g>
    <g font-family="sans-serif" transform="matrix(1,0,0,1,159,134)">
      <text xml:space="preserve" x="-153" y="97.1543" onclick="umlload('http://www.yworks.com/')" stroke="none">yWorks UML Doclet</text>
    </g>
    <g stroke-miterlimit="1.45" transform="matrix(1,0,0,1,159,134)" stroke-linecap="butt">
      <path fill="none" d="M119.995 -0.0039 L119.995 -69"/>
      <path fill="white" d="M119.995 -84 L113.995 -68 L125.995 -68 Z" stroke="none"/>
      <path fill="none" d="M119.995 -84 L113.995 -68 L125.995 -68 Z"/>
      <path fill="none" d="M-0.0025 16.3574 L-66 16.3574"/>
      <line stroke-linecap="square" transform="matrix(-1,0,0,-1,-66,16.3574)" fill="none" x1="0" x2="-14" y1="0" y2="-4" stroke-miterlimit="10"/>
      <line stroke-linecap="square" transform="matrix(-1,0,0,-1,-66,16.3574)" fill="none" x1="0" x2="-14" y1="0" y2="4" stroke-miterlimit="10"/>
    </g>
    <g stroke-dasharray="6,2" stroke-miterlimit="1.45" transform="matrix(1,0,0,1,159,134)" stroke-linecap="butt">
      <path fill="none" d="M239.9953 11.5664 L322.95 11.5664"/>
      <line stroke-linecap="square" transform="matrix(1,0,0,1,322.95,11.5664)" fill="none" x1="0" x2="-14" y1="0" y2="-4" stroke-dasharray="none" stroke-miterlimit="10"/>
      <line stroke-linecap="square" transform="matrix(1,0,0,1,322.95,11.5664)" fill="none" x1="0" x2="-14" y1="0" y2="4" stroke-dasharray="none" stroke-miterlimit="10"/>
    </g>
    <g stroke-dasharray="6,2" stroke-miterlimit="1.45" transform="matrix(1,0,0,1,159,134)" stroke-linecap="butt">
      <path fill="none" d="M239.9945 44.6992 L322.95 44.6992"/>
      <line stroke-linecap="square" transform="matrix(1,0,0,1,322.95,44.6992)" fill="none" x1="0" x2="-14" y1="0" y2="-4" stroke-dasharray="none" stroke-miterlimit="10"/>
      <line stroke-linecap="square" transform="matrix(1,0,0,1,322.95,44.6992)" fill="none" x1="0" x2="-14" y1="0" y2="4" stroke-dasharray="none" stroke-miterlimit="10"/>
    </g>
  </g>
</svg>
