<?xml version="1.0" encoding="UTF-8"?><svg xmlns="http://www.w3.org/2000/svg" xmlns:xlink="http://www.w3.org/1999/xlink" fill-opacity="1" color-rendering="auto" color-interpolation="auto" stroke="black" text-rendering="auto" stroke-linecap="square" width="598" stroke-miterlimit="10" stroke-opacity="1" shape-rendering="auto" fill="black" stroke-dasharray="none" font-weight="normal" stroke-width="1" height="598" font-family="'Dialog'" font-style="normal" stroke-linejoin="miter" font-size="12" stroke-dashoffset="0" image-rendering="auto">
  <!--Generated by ySVG-->
  <defs id="genericDefs"/>
  <g>
    <defs id="defs1">
      <clipPath clipPathUnits="userSpaceOnUse" id="clipPath1">
        <path d="M0 0 L598 0 L598 598 L0 598 L0 0 Z"/>
      </clipPath>
      <clipPath clipPathUnits="userSpaceOnUse" id="clipPath2">
        <path d="M497.9716 277.7558 C497.9716 286.7897 476.7764 294.1132 450.6308 294.1132 C424.4852 294.1132 403.29 286.7897 403.29 277.7558 C403.29 268.7219 424.4852 261.3984 450.6308 261.3984 C476.7764 261.3984 497.9716 268.7219 497.9716 277.7558 Z"/>
      </clipPath>
      <clipPath clipPathUnits="userSpaceOnUse" id="clipPath3">
        <path d="M403.29 174.2656 L456.85 174.2656 L456.85 197.3984 L403.29 197.3984 L403.29 174.2656 Z"/>
      </clipPath>
      <clipPath clipPathUnits="userSpaceOnUse" id="clipPath4">
        <path d="M403.29 87.1328 L505.26 87.1328 L505.26 110.2656 L403.29 110.2656 L403.29 87.1328 Z"/>
      </clipPath>
      <clipPath clipPathUnits="userSpaceOnUse" id="clipPath5">
        <path d="M403.29 0 L471.27 0 L471.27 23.1328 L403.29 23.1328 L403.29 0 Z"/>
      </clipPath>
      <clipPath clipPathUnits="userSpaceOnUse" id="clipPath6">
        <path d="M-66 103.4902 C-66 112.5241 -95.6733 119.8475 -132.2771 119.8475 C-168.881 119.8475 -198.5542 112.5241 -198.5542 103.4902 C-198.5542 94.4563 -168.881 87.1328 -132.2771 87.1328 C-95.6733 87.1328 -66 94.4563 -66 103.4902 Z"/>
      </clipPath>
      <clipPath clipPathUnits="userSpaceOnUse" id="clipPath7">
        <path d="M-451.4 0 L-344.28 0 L-344.28 23.1328 L-451.4 23.1328 L-451.4 0 Z"/>
      </clipPath>
      <clipPath clipPathUnits="userSpaceOnUse" id="clipPath8">
        <path d="M319.0609 -100.3574 C319.0609 -91.3234 289.0615 -84 252.0554 -84 C215.0494 -84 185.05 -91.3234 185.05 -100.3574 C185.05 -109.3913 215.0494 -116.7147 252.0554 -116.7147 C289.0615 -116.7147 319.0609 -109.3913 319.0609 -100.3574 Z"/>
      </clipPath>
      <clipPath clipPathUnits="userSpaceOnUse" id="clipPath9">
        <path d="M81.37 -107.1328 L139.05 -107.1328 L139.05 -84 L81.37 -84 L81.37 -107.1328 Z"/>
      </clipPath>
      <clipPath clipPathUnits="userSpaceOnUse" id="clipPath10">
        <path d="M0 0 L220.42 0 L220.42 302.1132 L0 302.1132 L0 0 Z"/>
      </clipPath>
      <script type="text/ecmascript"><![CDATA[
function umlload(newLocation)
{
if (newLocation.charAt(0) != '#') {
if (newLocation.indexOf("://") > -1) {
window.parent.location.href = newLocation;
} else {
var tmp = window.parent.location.href;
tmp = tmp.substring(0, tmp.lastIndexOf("/") + 1);
window.parent.location.href = tmp.concat(newLocation);
}
} else {
window.parent.location.hash = newLocation;
}
}
]]></script>
    </defs>
    <g fill="rgb(238,238,255)" transform="matrix(0.4757,0,0,0.4757,218.8385,250.7128)" stroke="rgb(238,238,255)">
      <rect width="67.654" x="395.29" height="17.9688" y="235.3984" stroke="none"/>
    </g>
    <g fill="rgb(166,166,178)" stroke-miterlimit="1.45" transform="matrix(0.4757,0,0,0.4757,218.8385,250.7128)" stroke-linecap="butt" stroke="rgb(166,166,178)">
      <rect fill="none" width="67.654" x="395.29" height="17.9688" y="235.3984"/>
    </g>
    <g fill="rgb(238,238,255)" transform="matrix(0.4757,0,0,0.4757,218.8385,250.7128)" stroke="rgb(238,238,255)">
      <rect width="110.6816" x="395.29" height="48.746" y="253.3672" stroke="none"/>
    </g>
    <g fill="rgb(166,166,178)" stroke-miterlimit="1.45" transform="matrix(0.4757,0,0,0.4757,218.8385,250.7128)" stroke-linecap="butt" stroke="rgb(166,166,178)">
      <rect fill="none" width="110.6816" x="395.29" height="48.746" y="253.3672"/>
    </g>
    <g font-family="sans-serif" transform="matrix(0.4757,0,0,0.4757,218.8385,250.7128)">
      <text xml:space="preserve" x="401.29" y="248.5371" onclick="umlload('http://docs.oracle.com/javase/6/docs/api/java/util/package-summary.html')" stroke="none">java.util</text>
    </g>
    <g fill="rgb(221,221,255)" transform="matrix(0.4757,0,0,0.4757,218.8385,250.7128)" stroke="rgb(221,221,255)">
      <rect x="403.29" y="261.3984" clip-path="url(#clipPath2)" width="94.6816" height="32.7147" stroke="none"/>
    </g>
    <g fill="rgb(154,154,178)" stroke-miterlimit="1.45" transform="matrix(0.4757,0,0,0.4757,218.8385,250.7128)" stroke-linecap="butt" stroke="rgb(154,154,178)">
      <ellipse rx="47.3408" fill="none" ry="16.3574" cx="450.6308" cy="277.7558"/>
    </g>
    <g font-style="italic" font-size="13" font-weight="bold" font-family="sans-serif" transform="matrix(0.4757,0,0,0.4757,218.8385,250.7128)">
      <text xml:space="preserve" x="422.1308" y="282.2563" onclick="umlload('http://docs.oracle.com/javase/6/docs/api/java/util/List.html')" stroke="none">List&lt;E&gt;</text>
    </g>
    <g fill="rgb(238,238,255)" transform="matrix(0.4757,0,0,0.4757,218.8385,250.7128)" stroke="rgb(238,238,255)">
      <rect width="76.1412" x="395.29" height="17.9688" y="148.2656" stroke="none"/>
    </g>
    <g fill="rgb(166,166,178)" stroke-miterlimit="1.45" transform="matrix(0.4757,0,0,0.4757,218.8385,250.7128)" stroke-linecap="butt" stroke="rgb(166,166,178)">
      <rect fill="none" width="76.1412" x="395.29" height="17.9688" y="148.2656"/>
    </g>
    <g fill="rgb(238,238,255)" transform="matrix(0.4757,0,0,0.4757,218.8385,250.7128)" stroke="rgb(238,238,255)">
      <rect width="79.56" x="395.29" height="39.1641" y="166.2344" stroke="none"/>
    </g>
    <g fill="rgb(166,166,178)" stroke-miterlimit="1.45" transform="matrix(0.4757,0,0,0.4757,218.8385,250.7128)" stroke-linecap="butt" stroke="rgb(166,166,178)">
      <rect fill="none" width="79.56" x="395.29" height="39.1641" y="166.2344"/>
    </g>
    <g font-family="sans-serif" transform="matrix(0.4757,0,0,0.4757,218.8385,250.7128)">
      <text xml:space="preserve" x="401.29" y="161.4043" onclick="umlload('http://docs.oracle.com/javase/6/docs/api/java/lang/package-summary.html')" stroke="none">java.lang</text>
    </g>
    <g fill="rgb(187,187,255)" transform="matrix(0.4757,0,0,0.4757,218.8385,250.7128)" stroke="rgb(187,187,255)">
      <rect x="403.29" y="174.2656" clip-path="url(#clipPath3)" width="53.56" height="23.1328" stroke="none"/>
    </g>
    <g fill="rgb(130,130,178)" stroke-miterlimit="1.45" transform="matrix(0.4757,0,0,0.4757,218.8385,250.7128)" stroke-linecap="butt" stroke="rgb(130,130,178)">
      <rect fill="none" width="53.56" x="403.29" height="23.1328" y="174.2656"/>
    </g>
    <g font-size="13" font-weight="bold" font-family="sans-serif" transform="matrix(0.4757,0,0,0.4757,218.8385,250.7128)">
      <text xml:space="preserve" x="408.07" y="190.3325" onclick="umlload('http://docs.oracle.com/javase/6/docs/api/java/lang/String.html')" stroke="none">String</text>
    </g>
    <g fill="rgb(238,238,255)" transform="matrix(0.4757,0,0,0.4757,218.8385,250.7128)" stroke="rgb(238,238,255)">
      <rect width="59.1668" x="395.29" height="17.9688" y="61.1328" stroke="none"/>
    </g>
    <g fill="rgb(166,166,178)" stroke-miterlimit="1.45" transform="matrix(0.4757,0,0,0.4757,218.8385,250.7128)" stroke-linecap="butt" stroke="rgb(166,166,178)">
      <rect fill="none" width="59.1668" x="395.29" height="17.9688" y="61.1328"/>
    </g>
    <g fill="rgb(238,238,255)" transform="matrix(0.4757,0,0,0.4757,218.8385,250.7128)" stroke="rgb(238,238,255)">
      <rect width="117.97" x="395.29" height="39.1641" y="79.1016" stroke="none"/>
    </g>
    <g fill="rgb(166,166,178)" stroke-miterlimit="1.45" transform="matrix(0.4757,0,0,0.4757,218.8385,250.7128)" stroke-linecap="butt" stroke="rgb(166,166,178)">
      <rect fill="none" width="117.97" x="395.29" height="39.1641" y="79.1016"/>
    </g>
    <g font-family="sans-serif" transform="matrix(0.4757,0,0,0.4757,218.8385,250.7128)">
      <text xml:space="preserve" x="401.29" y="74.2715" onclick="umlload('http://docs.oracle.com/javase/6/docs/api/java/io/package-summary.html')" stroke="none">java.io</text>
    </g>
    <g fill="rgb(204,204,255)" transform="matrix(0.4757,0,0,0.4757,218.8385,250.7128)" stroke="rgb(204,204,255)">
      <rect x="403.29" y="87.1328" clip-path="url(#clipPath4)" width="101.97" height="23.1328" stroke="none"/>
    </g>
    <g fill="rgb(142,142,178)" stroke-miterlimit="1.45" transform="matrix(0.4757,0,0,0.4757,218.8385,250.7128)" stroke-linecap="butt" stroke="rgb(142,142,178)">
      <rect fill="none" width="101.97" x="403.29" height="23.1328" y="87.1328"/>
    </g>
    <g font-size="13" font-weight="bold" font-family="sans-serif" transform="matrix(0.4757,0,0,0.4757,218.8385,250.7128)">
      <text xml:space="preserve" x="408.775" y="103.1997" onclick="umlload('http://docs.oracle.com/javase/6/docs/api/java/io/InputStream.html')" stroke="none">InputStream</text>
    </g>
    <g fill="rgb(238,238,255)" transform="matrix(0.4757,0,0,0.4757,218.8385,250.7128)" stroke="rgb(238,238,255)">
      <rect width="400.7766" x="395.29" height="17.9688" y="-26" stroke="none"/>
    </g>
    <g fill="rgb(166,166,178)" stroke-miterlimit="1.45" transform="matrix(0.4757,0,0,0.4757,218.8385,250.7128)" stroke-linecap="butt" stroke="rgb(166,166,178)">
      <rect fill="none" width="400.7766" x="395.29" height="17.9688" y="-26"/>
    </g>
    <g fill="rgb(238,238,255)" transform="matrix(0.4757,0,0,0.4757,218.8385,250.7128)" stroke="rgb(238,238,255)">
      <rect width="400.98" x="395.29" height="39.1641" y="-8.0312" stroke="none"/>
    </g>
    <g fill="rgb(166,166,178)" stroke-miterlimit="1.45" transform="matrix(0.4757,0,0,0.4757,218.8385,250.7128)" stroke-linecap="butt" stroke="rgb(166,166,178)">
      <rect fill="none" width="400.98" x="395.29" height="39.1641" y="-8.0312"/>
    </g>
    <g font-family="sans-serif" transform="matrix(0.4757,0,0,0.4757,218.8385,250.7128)">
      <text xml:space="preserve" x="401.29" y="-12.8613" onclick="umlload('../../../../../../com/msopentech/odatajclient/engine/data/metadata/edm/package-summary.html')" stroke="none">com.msopentech.odatajclient.engine.data.metadata.edm</text>
    </g>
    <g fill="rgb(187,187,255)" transform="matrix(0.4757,0,0,0.4757,218.8385,250.7128)" stroke="rgb(187,187,255)">
      <rect x="403.29" y="0" clip-path="url(#clipPath5)" width="67.98" height="23.1328" stroke="none"/>
    </g>
    <g fill="rgb(130,130,178)" stroke-miterlimit="1.45" transform="matrix(0.4757,0,0,0.4757,218.8385,250.7128)" stroke-linecap="butt" stroke="rgb(130,130,178)">
      <rect fill="none" width="67.98" x="403.29" height="23.1328" y="0"/>
    </g>
    <g font-size="13" font-weight="bold" font-family="sans-serif" transform="matrix(0.4757,0,0,0.4757,218.8385,250.7128)">
      <text xml:space="preserve" x="408.28" y="16.0669" onclick="umlload('../../../../../../com/msopentech/odatajclient/engine/data/metadata/edm/Schema.html')" stroke="none">Schema</text>
    </g>
    <g fill="rgb(238,238,255)" transform="matrix(0.4757,0,0,0.4757,218.8385,250.7128)" stroke="rgb(238,238,255)">
      <rect width="67.654" x="-206.5542" height="17.9688" y="61.1328" stroke="none"/>
    </g>
    <g fill="rgb(166,166,178)" stroke-miterlimit="1.45" transform="matrix(0.4757,0,0,0.4757,218.8385,250.7128)" stroke-linecap="butt" stroke="rgb(166,166,178)">
      <rect fill="none" width="67.654" x="-206.5542" height="17.9688" y="61.1328"/>
    </g>
    <g fill="rgb(238,238,255)" transform="matrix(0.4757,0,0,0.4757,218.8385,250.7128)" stroke="rgb(238,238,255)">
      <rect width="148.5542" x="-206.5542" height="48.746" y="79.1016" stroke="none"/>
    </g>
    <g fill="rgb(166,166,178)" stroke-miterlimit="1.45" transform="matrix(0.4757,0,0,0.4757,218.8385,250.7128)" stroke-linecap="butt" stroke="rgb(166,166,178)">
      <rect fill="none" width="148.5542" x="-206.5542" height="48.746" y="79.1016"/>
    </g>
    <g font-family="sans-serif" transform="matrix(0.4757,0,0,0.4757,218.8385,250.7128)">
      <text xml:space="preserve" x="-200.5542" y="74.2715" onclick="umlload('http://docs.oracle.com/javase/6/docs/api/java/util/package-summary.html')" stroke="none">java.util</text>
    </g>
    <g fill="rgb(221,221,255)" transform="matrix(0.4757,0,0,0.4757,218.8385,250.7128)" stroke="rgb(221,221,255)">
      <rect x="-198.5542" y="87.1328" clip-path="url(#clipPath6)" width="132.5542" height="32.7147" stroke="none"/>
    </g>
    <g fill="rgb(154,154,178)" stroke-miterlimit="1.45" transform="matrix(0.4757,0,0,0.4757,218.8385,250.7128)" stroke-linecap="butt" stroke="rgb(154,154,178)">
      <ellipse rx="66.2771" fill="none" ry="16.3574" cx="-132.2771" cy="103.4902"/>
    </g>
    <g font-style="italic" font-size="13" font-weight="bold" font-family="sans-serif" transform="matrix(0.4757,0,0,0.4757,218.8385,250.7128)">
      <text xml:space="preserve" x="-173.7771" y="107.9907" onclick="umlload('http://docs.oracle.com/javase/6/docs/api/java/util/Map.html')" stroke="none">Map&lt;K, V&gt;</text>
    </g>
    <g fill="rgb(238,238,255)" transform="matrix(0.4757,0,0,0.4757,218.8385,250.7128)" stroke="rgb(238,238,255)">
      <rect width="407.142" x="-459.4" height="17.9688" y="-26" stroke="none"/>
    </g>
    <g fill="rgb(166,166,178)" stroke-miterlimit="1.45" transform="matrix(0.4757,0,0,0.4757,218.8385,250.7128)" stroke-linecap="butt" stroke="rgb(166,166,178)">
      <rect fill="none" width="407.142" x="-459.4" height="17.9688" y="-26"/>
    </g>
    <g fill="rgb(238,238,255)" transform="matrix(0.4757,0,0,0.4757,218.8385,250.7128)" stroke="rgb(238,238,255)">
      <rect width="407.142" x="-459.4" height="39.1641" y="-8.0312" stroke="none"/>
    </g>
    <g fill="rgb(166,166,178)" stroke-miterlimit="1.45" transform="matrix(0.4757,0,0,0.4757,218.8385,250.7128)" stroke-linecap="butt" stroke="rgb(166,166,178)">
      <rect fill="none" width="407.142" x="-459.4" height="39.1641" y="-8.0312"/>
    </g>
    <g font-family="sans-serif" transform="matrix(0.4757,0,0,0.4757,218.8385,250.7128)">
      <text xml:space="preserve" x="-453.4" y="-12.8613" onclick="umlload('../../../../../../com/msopentech/odatajclient/engine/data/metadata/edmx/package-summary.html')" stroke="none">com.msopentech.odatajclient.engine.data.metadata.edmx</text>
    </g>
    <g fill="rgb(187,187,255)" transform="matrix(0.4757,0,0,0.4757,218.8385,250.7128)" stroke="rgb(187,187,255)">
      <rect x="-451.4" y="0" clip-path="url(#clipPath7)" width="107.12" height="23.1328" stroke="none"/>
    </g>
    <g fill="rgb(130,130,178)" stroke-miterlimit="1.45" transform="matrix(0.4757,0,0,0.4757,218.8385,250.7128)" stroke-linecap="butt" stroke="rgb(130,130,178)">
      <rect fill="none" width="107.12" x="-451.4" height="23.1328" y="0"/>
    </g>
    <g font-size="13" font-weight="bold" font-family="sans-serif" transform="matrix(0.4757,0,0,0.4757,218.8385,250.7128)">
      <text xml:space="preserve" x="-445.84" y="16.0669" onclick="umlload('../../../../../../com/msopentech/odatajclient/engine/data/metadata/edmx/DataServices.html')" stroke="none">DataServices</text>
    </g>
    <g fill="rgb(238,238,255)" transform="matrix(0.4757,0,0,0.4757,218.8385,250.7128)" stroke="rgb(238,238,255)">
      <rect width="59.1668" x="177.05" height="17.9688" y="-142.7147" stroke="none"/>
    </g>
    <g fill="rgb(166,166,178)" stroke-miterlimit="1.45" transform="matrix(0.4757,0,0,0.4757,218.8385,250.7128)" stroke-linecap="butt" stroke="rgb(166,166,178)">
      <rect fill="none" width="59.1668" x="177.05" height="17.9688" y="-142.7147"/>
    </g>
    <g fill="rgb(238,238,255)" transform="matrix(0.4757,0,0,0.4757,218.8385,250.7128)" stroke="rgb(238,238,255)">
      <rect width="150.0109" x="177.05" height="48.746" y="-124.746" stroke="none"/>
    </g>
    <g fill="rgb(166,166,178)" stroke-miterlimit="1.45" transform="matrix(0.4757,0,0,0.4757,218.8385,250.7128)" stroke-linecap="butt" stroke="rgb(166,166,178)">
      <rect fill="none" width="150.0109" x="177.05" height="48.746" y="-124.746"/>
    </g>
    <g font-family="sans-serif" transform="matrix(0.4757,0,0,0.4757,218.8385,250.7128)">
      <text xml:space="preserve" x="183.05" y="-129.5761" onclick="umlload('http://docs.oracle.com/javase/6/docs/api/java/io/package-summary.html')" stroke="none">java.io</text>
    </g>
    <g fill="rgb(221,221,255)" transform="matrix(0.4757,0,0,0.4757,218.8385,250.7128)" stroke="rgb(221,221,255)">
      <rect x="185.05" y="-116.7147" clip-path="url(#clipPath8)" width="134.0109" height="32.7147" stroke="none"/>
    </g>
    <g fill="rgb(154,154,178)" stroke-miterlimit="1.45" transform="matrix(0.4757,0,0,0.4757,218.8385,250.7128)" stroke-linecap="butt" stroke="rgb(154,154,178)">
      <ellipse rx="67.0054" fill="none" ry="16.3574" cx="252.0554" cy="-100.3574"/>
    </g>
    <g font-style="italic" font-size="13" font-weight="bold" font-family="sans-serif" transform="matrix(0.4757,0,0,0.4757,218.8385,250.7128)">
      <text xml:space="preserve" x="210.0554" y="-95.8569" onclick="umlload('http://docs.oracle.com/javase/6/docs/api/java/io/Serializable.html')" stroke="none">Serializable</text>
    </g>
    <g fill="rgb(238,238,255)" transform="matrix(0.4757,0,0,0.4757,218.8385,250.7128)" stroke="rgb(238,238,255)">
      <rect width="76.1412" x="73.37" height="17.9688" y="-133.1328" stroke="none"/>
    </g>
    <g fill="rgb(166,166,178)" stroke-miterlimit="1.45" transform="matrix(0.4757,0,0,0.4757,218.8385,250.7128)" stroke-linecap="butt" stroke="rgb(166,166,178)">
      <rect fill="none" width="76.1412" x="73.37" height="17.9688" y="-133.1328"/>
    </g>
    <g fill="rgb(238,238,255)" transform="matrix(0.4757,0,0,0.4757,218.8385,250.7128)" stroke="rgb(238,238,255)">
      <rect width="76.1412" x="73.37" height="39.1641" y="-115.1641" stroke="none"/>
    </g>
    <g fill="rgb(166,166,178)" stroke-miterlimit="1.45" transform="matrix(0.4757,0,0,0.4757,218.8385,250.7128)" stroke-linecap="butt" stroke="rgb(166,166,178)">
      <rect fill="none" width="76.1412" x="73.37" height="39.1641" y="-115.1641"/>
    </g>
    <g font-family="sans-serif" transform="matrix(0.4757,0,0,0.4757,218.8385,250.7128)">
      <text xml:space="preserve" x="79.37" y="-119.9941" onclick="umlload('http://docs.oracle.com/javase/6/docs/api/java/lang/package-summary.html')" stroke="none">java.lang</text>
    </g>
    <g fill="rgb(187,187,255)" transform="matrix(0.4757,0,0,0.4757,218.8385,250.7128)" stroke="rgb(187,187,255)">
      <rect x="81.37" y="-107.1328" clip-path="url(#clipPath9)" width="57.68" height="23.1328" stroke="none"/>
    </g>
    <g fill="rgb(130,130,178)" stroke-miterlimit="1.45" transform="matrix(0.4757,0,0,0.4757,218.8385,250.7128)" stroke-linecap="butt" stroke="rgb(130,130,178)">
      <rect fill="none" width="57.68" x="81.37" height="23.1328" y="-107.1328"/>
    </g>
    <g font-size="13" font-weight="bold" font-family="sans-serif" transform="matrix(0.4757,0,0,0.4757,218.8385,250.7128)">
      <text xml:space="preserve" x="86.21" y="-91.0659" onclick="umlload('http://docs.oracle.com/javase/6/docs/api/java/lang/Object.html')" stroke="none">Object</text>
    </g>
    <g fill="rgb(238,238,255)" transform="matrix(0.4757,0,0,0.4757,218.8385,250.7128)" stroke="rgb(238,238,255)">
      <rect width="367.8887" x="-8" height="17.9688" y="-26" stroke="none"/>
    </g>
    <g fill="rgb(166,166,178)" stroke-miterlimit="1.45" transform="matrix(0.4757,0,0,0.4757,218.8385,250.7128)" stroke-linecap="butt" stroke="rgb(166,166,178)">
      <rect fill="none" width="367.8887" x="-8" height="17.9688" y="-26"/>
    </g>
    <g fill="rgb(238,238,255)" transform="matrix(0.4757,0,0,0.4757,218.8385,250.7128)" stroke="rgb(238,238,255)">
      <rect width="367.8887" x="-8" height="318.1444" y="-8.0312" stroke="none"/>
    </g>
    <g fill="rgb(166,166,178)" stroke-miterlimit="1.45" transform="matrix(0.4757,0,0,0.4757,218.8385,250.7128)" stroke-linecap="butt" stroke="rgb(166,166,178)">
      <rect fill="none" width="367.8887" x="-8" height="318.1444" y="-8.0312"/>
    </g>
    <g font-family="sans-serif" transform="matrix(0.4757,0,0,0.4757,218.8385,250.7128)">
      <text xml:space="preserve" x="-2" y="-12.8613" onclick="umlload('package-summary.html')" stroke="none">com.msopentech.odatajclient.engine.data.metadata</text>
    </g>
    <g fill="rgb(187,187,255)" transform="matrix(0.4757,0,0,0.4757,218.8385,250.7128)" stroke="rgb(187,187,255)">
      <rect x="0" y="0" clip-path="url(#clipPath10)" width="220.42" height="26.625" stroke="none"/>
      <line clip-path="url(#clipPath10)" fill="none" x1="0" x2="220.42" y1="26.625" y2="26.625" stroke="black"/>
      <rect x="0" y="27.625" clip-path="url(#clipPath10)" width="220.42" height="15.9688" stroke="none"/>
      <line clip-path="url(#clipPath10)" fill="none" x1="0" x2="220.42" y1="43.5938" y2="43.5938" stroke="black"/>
      <rect x="0" y="44.5938" clip-path="url(#clipPath10)" width="220.42" height="257.5194" stroke="none"/>
    </g>
    <g fill="rgb(130,130,178)" stroke-miterlimit="1.45" transform="matrix(0.4757,0,0,0.4757,218.8385,250.7128)" stroke-linecap="butt" stroke="rgb(130,130,178)">
      <rect fill="none" width="220.42" x="0" height="302.1132" y="0"/>
    </g>
    <g font-size="16" font-weight="bold" font-family="sans-serif" transform="matrix(0.4757,0,0,0.4757,218.8385,250.7128)">
      <text xml:space="preserve" x="49.71" y="18.8516" onclick="umlload('#')" stroke="none">EdmMetadata</text>
    </g>
    <g font-family="sans-serif" transform="matrix(0.4757,0,0,0.4757,218.8385,250.7128)">
      <text xml:space="preserve" x="4" y="38.1719" stroke="none">+</text>
      <text xml:space="preserve" x="19" y="39.7637" onclick="umlload('#EdmMetadata(java.io.InputStream)')" stroke="none">EdmMetadata(InputStream)</text>
    </g>
    <g font-family="sans-serif" transform="matrix(0.4757,0,0,0.4757,218.8385,250.7128)">
      <text xml:space="preserve" x="4" y="55.1719" stroke="none">+</text>
      <text xml:space="preserve" x="19" y="56.7324" onclick="umlload('#getSchema(int)')" stroke="none">getSchema(int) : Schema</text>
    </g>
    <g font-family="sans-serif" transform="matrix(0.4757,0,0,0.4757,218.8385,250.7128)">
      <text xml:space="preserve" x="4" y="71.1719" stroke="none">+</text>
      <text xml:space="preserve" x="19" y="72.7012" onclick="umlload('#getSchema(java.lang.String)')" stroke="none">getSchema(String) : Schema</text>
    </g>
    <g font-family="sans-serif" transform="matrix(0.4757,0,0,0.4757,218.8385,250.7128)">
      <text xml:space="preserve" x="4" y="87.1719" stroke="none">+</text>
      <text xml:space="preserve" x="19" y="88.6699" onclick="umlload('#getSchemas()')" stroke="none">getSchemas() : List&lt;Schema&gt;</text>
    </g>
    <g font-family="sans-serif" transform="matrix(0.4757,0,0,0.4757,218.8385,250.7128)">
      <text xml:space="preserve" x="4" y="103.1719" stroke="none">+</text>
      <text xml:space="preserve" x="19" y="104.6387" onclick="umlload('#isNsOrAlias(java.lang.String)')" stroke="none">isNsOrAlias(String) : boolean</text>
    </g>
    <g font-family="sans-serif" transform="matrix(0.4757,0,0,0.4757,218.8385,250.7128)">
      <text xml:space="preserve" x="-454" y="335.1543" onclick="umlload('http://www.yworks.com/')" stroke="none">yWorks UML Doclet</text>
    </g>
    <g stroke-miterlimit="1.45" transform="matrix(0.4757,0,0,0.4757,218.8385,250.7128)" stroke-linecap="butt">
      <path fill="none" d="M110.21 -0.0026 L110.21 -69"/>
      <path fill="white" d="M110.21 -84 L104.21 -68 L116.21 -68 Z" stroke="none"/>
      <path fill="none" d="M110.21 -84 L104.21 -68 L116.21 -68 Z"/>
      <path fill="none" stroke-dasharray="6,2" d="M165.315 -0.0014 L165.315 -51 L252.0554 -51 L252.0554 -69"/>
      <path fill="white" stroke-dasharray="6,2" d="M252.0554 -84 L246.0554 -68 L258.0554 -68 Z" stroke="none"/>
      <path fill="none" d="M252.0554 -84 L246.0554 -68 L258.0554 -68 Z"/>
      <path fill="none" d="M-0.0267 11.5664 L-344.28 11.5664"/>
      <line stroke-linecap="square" transform="matrix(-1,0,0,-1,-344.28,11.5664)" fill="none" x1="0" x2="-14" y1="0" y2="-4" stroke-miterlimit="10"/>
      <line stroke-linecap="square" transform="matrix(-1,0,0,-1,-344.28,11.5664)" fill="none" x1="0" x2="-14" y1="0" y2="4" stroke-miterlimit="10"/>
    </g>
    <g stroke-miterlimit="1.45" transform="matrix(0.4757,0,0,0.4757,218.8385,250.7128)" stroke-linecap="butt">
      <path fill="none" d="M0.0074 103.4902 L-66 103.4902"/>
      <line stroke-linecap="square" transform="matrix(-1,0,0,-1,-66,103.4902)" fill="none" x1="0" x2="-14" y1="0" y2="-4" stroke-miterlimit="10"/>
      <line stroke-linecap="square" transform="matrix(-1,0,0,-1,-66,103.4902)" fill="none" x1="0" x2="-14" y1="0" y2="4" stroke-miterlimit="10"/>
    </g>
    <g stroke-dasharray="6,2" stroke-miterlimit="1.45" transform="matrix(0.4757,0,0,0.4757,218.8385,250.7128)" stroke-linecap="butt">
      <path fill="none" d="M220.4444 11.5664 L403.29 11.5664"/>
      <line stroke-linecap="square" transform="matrix(1,0,0,1,403.29,11.5664)" fill="none" x1="0" x2="-14" y1="0" y2="-4" stroke-dasharray="none" stroke-miterlimit="10"/>
      <line stroke-linecap="square" transform="matrix(1,0,0,1,403.29,11.5664)" fill="none" x1="0" x2="-14" y1="0" y2="4" stroke-dasharray="none" stroke-miterlimit="10"/>
    </g>
    <g stroke-dasharray="6,2" stroke-miterlimit="1.45" transform="matrix(0.4757,0,0,0.4757,218.8385,250.7128)" stroke-linecap="butt">
      <path fill="none" d="M220.4603 98.6992 L403.29 98.6992"/>
      <line stroke-linecap="square" transform="matrix(1,0,0,1,403.29,98.6992)" fill="none" x1="0" x2="-14" y1="0" y2="-4" stroke-dasharray="none" stroke-miterlimit="10"/>
      <line stroke-linecap="square" transform="matrix(1,0,0,1,403.29,98.6992)" fill="none" x1="0" x2="-14" y1="0" y2="4" stroke-dasharray="none" stroke-miterlimit="10"/>
    </g>
    <g stroke-dasharray="6,2" stroke-miterlimit="1.45" transform="matrix(0.4757,0,0,0.4757,218.8385,250.7128)" stroke-linecap="butt">
      <path fill="none" d="M220.4352 185.832 L403.29 185.832"/>
      <line stroke-linecap="square" transform="matrix(1,0,0,1,403.29,185.832)" fill="none" x1="0" x2="-14" y1="0" y2="-4" stroke-dasharray="none" stroke-miterlimit="10"/>
      <line stroke-linecap="square" transform="matrix(1,0,0,1,403.29,185.832)" fill="none" x1="0" x2="-14" y1="0" y2="4" stroke-dasharray="none" stroke-miterlimit="10"/>
    </g>
    <g stroke-dasharray="6,2" stroke-miterlimit="1.45" transform="matrix(0.4757,0,0,0.4757,218.8385,250.7128)" stroke-linecap="butt">
      <path fill="none" d="M220.4561 277.7558 L403.29 277.7558"/>
      <line stroke-linecap="square" transform="matrix(1,0,0,1,403.29,277.7558)" fill="none" x1="0" x2="-14" y1="0" y2="-4" stroke-dasharray="none" stroke-miterlimit="10"/>
      <line stroke-linecap="square" transform="matrix(1,0,0,1,403.29,277.7558)" fill="none" x1="0" x2="-14" y1="0" y2="4" stroke-dasharray="none" stroke-miterlimit="10"/>
    </g>
  </g>
</svg>
