<?xml version="1.0" encoding="UTF-8"?><svg xmlns="http://www.w3.org/2000/svg" xmlns:xlink="http://www.w3.org/1999/xlink" fill-opacity="1" color-rendering="auto" color-interpolation="auto" stroke="black" text-rendering="auto" stroke-linecap="square" width="598" stroke-miterlimit="10" stroke-opacity="1" shape-rendering="auto" fill="black" stroke-dasharray="none" font-weight="normal" stroke-width="1" height="598" font-family="'Dialog'" font-style="normal" stroke-linejoin="miter" font-size="12" stroke-dashoffset="0" image-rendering="auto">
  <!--Generated by ySVG-->
  <defs id="genericDefs"/>
  <g>
    <defs id="defs1">
      <clipPath clipPathUnits="userSpaceOnUse" id="clipPath1">
        <path d="M0 0 L598 0 L598 598 L0 598 L0 0 Z"/>
      </clipPath>
      <clipPath clipPathUnits="userSpaceOnUse" id="clipPath2">
        <path d="M403.29 0 L518.65 0 L518.65 23.1328 L403.29 23.1328 L403.29 0 Z"/>
      </clipPath>
      <clipPath clipPathUnits="userSpaceOnUse" id="clipPath3">
        <path d="M-130.04 186.5312 L-76.48 186.5312 L-76.48 209.6641 L-130.04 209.6641 L-130.04 186.5312 Z"/>
      </clipPath>
      <clipPath clipPathUnits="userSpaceOnUse" id="clipPath4">
        <path d="M-445.22 0 L-335.01 0 L-335.01 23.1328 L-445.22 23.1328 L-445.22 0 Z"/>
      </clipPath>
      <clipPath clipPathUnits="userSpaceOnUse" id="clipPath5">
        <path d="M-445.22 33.1328 L-315.44 33.1328 L-315.44 56.2656 L-445.22 56.2656 L-445.22 33.1328 Z"/>
      </clipPath>
      <clipPath clipPathUnits="userSpaceOnUse" id="clipPath6">
        <path d="M-445.22 66.2656 L-357.67 66.2656 L-357.67 89.3984 L-445.22 89.3984 L-445.22 66.2656 Z"/>
      </clipPath>
      <clipPath clipPathUnits="userSpaceOnUse" id="clipPath7">
        <path d="M-445.22 99.3984 L-358.7 99.3984 L-358.7 122.5312 L-445.22 122.5312 L-445.22 99.3984 Z"/>
      </clipPath>
      <clipPath clipPathUnits="userSpaceOnUse" id="clipPath8">
        <path d="M91.155 -107.1328 L148.835 -107.1328 L148.835 -84 L91.155 -84 L91.155 -107.1328 Z"/>
      </clipPath>
      <clipPath clipPathUnits="userSpaceOnUse" id="clipPath9">
        <path d="M-0 0 L239.99 0 L239.99 252.1875 L-0 252.1875 L-0 0 Z"/>
      </clipPath>
      <script type="text/ecmascript"><![CDATA[
function umlload(newLocation)
{
if (newLocation.charAt(0) != '#') {
if (newLocation.indexOf("://") > -1) {
window.parent.location.href = newLocation;
} else {
var tmp = window.parent.location.href;
tmp = tmp.substring(0, tmp.lastIndexOf("/") + 1);
window.parent.location.href = tmp.concat(newLocation);
}
} else {
window.parent.location.hash = newLocation;
}
}
]]></script>
    </defs>
    <g fill="rgb(238,238,255)" transform="matrix(0.491,0,0,0.491,222.8998,259.2315)" stroke="rgb(238,238,255)">
      <rect width="367.8887" x="395.29" height="17.9688" y="-26" stroke="none"/>
    </g>
    <g fill="rgb(166,166,178)" stroke-miterlimit="1.45" transform="matrix(0.491,0,0,0.491,222.8998,259.2315)" stroke-linecap="butt" stroke="rgb(166,166,178)">
      <rect fill="none" width="367.8887" x="395.29" height="17.9688" y="-26"/>
    </g>
    <g fill="rgb(238,238,255)" transform="matrix(0.491,0,0,0.491,222.8998,259.2315)" stroke="rgb(238,238,255)">
      <rect width="368.36" x="395.29" height="39.1641" y="-8.0312" stroke="none"/>
    </g>
    <g fill="rgb(166,166,178)" stroke-miterlimit="1.45" transform="matrix(0.491,0,0,0.491,222.8998,259.2315)" stroke-linecap="butt" stroke="rgb(166,166,178)">
      <rect fill="none" width="368.36" x="395.29" height="39.1641" y="-8.0312"/>
    </g>
    <g font-family="sans-serif" transform="matrix(0.491,0,0,0.491,222.8998,259.2315)">
      <text xml:space="preserve" x="401.29" y="-12.8613" onclick="umlload('../../../../../../com/msopentech/odatajclient/engine/data/metadata/package-summary.html')" stroke="none">com.msopentech.odatajclient.engine.data.metadata</text>
    </g>
    <g fill="rgb(187,187,255)" transform="matrix(0.491,0,0,0.491,222.8998,259.2315)" stroke="rgb(187,187,255)">
      <rect x="403.29" y="0" clip-path="url(#clipPath2)" width="115.36" height="23.1328" stroke="none"/>
    </g>
    <g fill="rgb(130,130,178)" stroke-miterlimit="1.45" transform="matrix(0.491,0,0,0.491,222.8998,259.2315)" stroke-linecap="butt" stroke="rgb(130,130,178)">
      <rect fill="none" width="115.36" x="403.29" height="23.1328" y="0"/>
    </g>
    <g font-size="13" font-weight="bold" font-family="sans-serif" transform="matrix(0.491,0,0,0.491,222.8998,259.2315)">
      <text xml:space="preserve" x="408.97" y="16.0669" onclick="umlload('../../../../../../com/msopentech/odatajclient/engine/data/metadata/EdmMetadata.html')" stroke="none">EdmMetadata</text>
    </g>
    <g fill="rgb(238,238,255)" transform="matrix(0.491,0,0,0.491,222.8998,259.2315)" stroke="rgb(238,238,255)">
      <rect width="76.1412" x="-138.04" height="17.9688" y="160.5312" stroke="none"/>
    </g>
    <g fill="rgb(166,166,178)" stroke-miterlimit="1.45" transform="matrix(0.491,0,0,0.491,222.8998,259.2315)" stroke-linecap="butt" stroke="rgb(166,166,178)">
      <rect fill="none" width="76.1412" x="-138.04" height="17.9688" y="160.5312"/>
    </g>
    <g fill="rgb(238,238,255)" transform="matrix(0.491,0,0,0.491,222.8998,259.2315)" stroke="rgb(238,238,255)">
      <rect width="79.56" x="-138.04" height="39.1641" y="178.5" stroke="none"/>
    </g>
    <g fill="rgb(166,166,178)" stroke-miterlimit="1.45" transform="matrix(0.491,0,0,0.491,222.8998,259.2315)" stroke-linecap="butt" stroke="rgb(166,166,178)">
      <rect fill="none" width="79.56" x="-138.04" height="39.1641" y="178.5"/>
    </g>
    <g font-family="sans-serif" transform="matrix(0.491,0,0,0.491,222.8998,259.2315)">
      <text xml:space="preserve" x="-132.04" y="173.6699" onclick="umlload('http://docs.oracle.com/javase/6/docs/api/java/lang/package-summary.html')" stroke="none">java.lang</text>
    </g>
    <g fill="rgb(187,187,255)" transform="matrix(0.491,0,0,0.491,222.8998,259.2315)" stroke="rgb(187,187,255)">
      <rect x="-130.04" y="186.5312" clip-path="url(#clipPath3)" width="53.56" height="23.1328" stroke="none"/>
    </g>
    <g fill="rgb(130,130,178)" stroke-miterlimit="1.45" transform="matrix(0.491,0,0,0.491,222.8998,259.2315)" stroke-linecap="butt" stroke="rgb(130,130,178)">
      <rect fill="none" width="53.56" x="-130.04" height="23.1328" y="186.5312"/>
    </g>
    <g font-size="13" font-weight="bold" font-family="sans-serif" transform="matrix(0.491,0,0,0.491,222.8998,259.2315)">
      <text xml:space="preserve" x="-125.26" y="202.5981" onclick="umlload('http://docs.oracle.com/javase/6/docs/api/java/lang/String.html')" stroke="none">String</text>
    </g>
    <g fill="rgb(238,238,255)" transform="matrix(0.491,0,0,0.491,222.8998,259.2315)" stroke="rgb(238,238,255)">
      <rect width="400.7766" x="-453.22" height="17.9688" y="-26" stroke="none"/>
    </g>
    <g fill="rgb(166,166,178)" stroke-miterlimit="1.45" transform="matrix(0.491,0,0,0.491,222.8998,259.2315)" stroke-linecap="butt" stroke="rgb(166,166,178)">
      <rect fill="none" width="400.7766" x="-453.22" height="17.9688" y="-26"/>
    </g>
    <g fill="rgb(238,238,255)" transform="matrix(0.491,0,0,0.491,222.8998,259.2315)" stroke="rgb(238,238,255)">
      <rect width="400.78" x="-453.22" height="138.5625" y="-8.0312" stroke="none"/>
    </g>
    <g fill="rgb(166,166,178)" stroke-miterlimit="1.45" transform="matrix(0.491,0,0,0.491,222.8998,259.2315)" stroke-linecap="butt" stroke="rgb(166,166,178)">
      <rect fill="none" width="400.78" x="-453.22" height="138.5625" y="-8.0312"/>
    </g>
    <g font-family="sans-serif" transform="matrix(0.491,0,0,0.491,222.8998,259.2315)">
      <text xml:space="preserve" x="-447.22" y="-12.8613" onclick="umlload('../../../../../../com/msopentech/odatajclient/engine/data/metadata/edm/package-summary.html')" stroke="none">com.msopentech.odatajclient.engine.data.metadata.edm</text>
    </g>
    <g fill="rgb(187,187,255)" transform="matrix(0.491,0,0,0.491,222.8998,259.2315)" stroke="rgb(187,187,255)">
      <rect x="-445.22" y="0" clip-path="url(#clipPath4)" width="110.21" height="23.1328" stroke="none"/>
    </g>
    <g fill="rgb(130,130,178)" stroke-miterlimit="1.45" transform="matrix(0.491,0,0,0.491,222.8998,259.2315)" stroke-linecap="butt" stroke="rgb(130,130,178)">
      <rect fill="none" width="110.21" x="-445.22" height="23.1328" y="0"/>
    </g>
    <g font-size="13" font-weight="bold" font-family="sans-serif" transform="matrix(0.491,0,0,0.491,222.8998,259.2315)">
      <text xml:space="preserve" x="-439.615" y="16.0669" onclick="umlload('../../../../../../com/msopentech/odatajclient/engine/data/metadata/edm/ComplexType.html')" stroke="none">ComplexType</text>
    </g>
    <g fill="rgb(170,170,255)" transform="matrix(0.491,0,0,0.491,222.8998,259.2315)" stroke="rgb(170,170,255)">
      <rect x="-445.22" y="33.1328" clip-path="url(#clipPath5)" width="129.78" height="23.1328" stroke="none"/>
    </g>
    <g fill="rgb(118,118,178)" stroke-miterlimit="1.45" transform="matrix(0.491,0,0,0.491,222.8998,259.2315)" stroke-linecap="butt" stroke="rgb(118,118,178)">
      <rect fill="none" width="129.78" x="-445.22" height="23.1328" y="33.1328"/>
    </g>
    <g font-size="13" font-weight="bold" font-family="sans-serif" transform="matrix(0.491,0,0,0.491,222.8998,259.2315)">
      <text xml:space="preserve" x="-439.33" y="49.1997" onclick="umlload('../../../../../../com/msopentech/odatajclient/engine/data/metadata/edm/EdmSimpleType.html')" stroke="none">EdmSimpleType</text>
    </g>
    <g fill="rgb(187,187,255)" transform="matrix(0.491,0,0,0.491,222.8998,259.2315)" stroke="rgb(187,187,255)">
      <rect x="-445.22" y="66.2656" clip-path="url(#clipPath6)" width="87.55" height="23.1328" stroke="none"/>
    </g>
    <g fill="rgb(130,130,178)" stroke-miterlimit="1.45" transform="matrix(0.491,0,0,0.491,222.8998,259.2315)" stroke-linecap="butt" stroke="rgb(130,130,178)">
      <rect fill="none" width="87.55" x="-445.22" height="23.1328" y="66.2656"/>
    </g>
    <g font-size="13" font-weight="bold" font-family="sans-serif" transform="matrix(0.491,0,0,0.491,222.8998,259.2315)">
      <text xml:space="preserve" x="-439.945" y="82.3325" onclick="umlload('../../../../../../com/msopentech/odatajclient/engine/data/metadata/edm/EntityType.html')" stroke="none">EntityType</text>
    </g>
    <g fill="rgb(187,187,255)" transform="matrix(0.491,0,0,0.491,222.8998,259.2315)" stroke="rgb(187,187,255)">
      <rect x="-445.22" y="99.3984" clip-path="url(#clipPath7)" width="86.52" height="23.1328" stroke="none"/>
    </g>
    <g fill="rgb(130,130,178)" stroke-miterlimit="1.45" transform="matrix(0.491,0,0,0.491,222.8998,259.2315)" stroke-linecap="butt" stroke="rgb(130,130,178)">
      <rect fill="none" width="86.52" x="-445.22" height="23.1328" y="99.3984"/>
    </g>
    <g font-size="13" font-weight="bold" font-family="sans-serif" transform="matrix(0.491,0,0,0.491,222.8998,259.2315)">
      <text xml:space="preserve" x="-439.96" y="115.4653" onclick="umlload('../../../../../../com/msopentech/odatajclient/engine/data/metadata/edm/EnumType.html')" stroke="none">EnumType</text>
    </g>
    <g fill="rgb(238,238,255)" transform="matrix(0.491,0,0,0.491,222.8998,259.2315)" stroke="rgb(238,238,255)">
      <rect width="76.1412" x="83.155" height="17.9688" y="-133.1328" stroke="none"/>
    </g>
    <g fill="rgb(166,166,178)" stroke-miterlimit="1.45" transform="matrix(0.491,0,0,0.491,222.8998,259.2315)" stroke-linecap="butt" stroke="rgb(166,166,178)">
      <rect fill="none" width="76.1412" x="83.155" height="17.9688" y="-133.1328"/>
    </g>
    <g fill="rgb(238,238,255)" transform="matrix(0.491,0,0,0.491,222.8998,259.2315)" stroke="rgb(238,238,255)">
      <rect width="76.1412" x="83.155" height="39.1641" y="-115.1641" stroke="none"/>
    </g>
    <g fill="rgb(166,166,178)" stroke-miterlimit="1.45" transform="matrix(0.491,0,0,0.491,222.8998,259.2315)" stroke-linecap="butt" stroke="rgb(166,166,178)">
      <rect fill="none" width="76.1412" x="83.155" height="39.1641" y="-115.1641"/>
    </g>
    <g font-family="sans-serif" transform="matrix(0.491,0,0,0.491,222.8998,259.2315)">
      <text xml:space="preserve" x="89.155" y="-119.9941" onclick="umlload('http://docs.oracle.com/javase/6/docs/api/java/lang/package-summary.html')" stroke="none">java.lang</text>
    </g>
    <g fill="rgb(187,187,255)" transform="matrix(0.491,0,0,0.491,222.8998,259.2315)" stroke="rgb(187,187,255)">
      <rect x="91.155" y="-107.1328" clip-path="url(#clipPath8)" width="57.68" height="23.1328" stroke="none"/>
    </g>
    <g fill="rgb(130,130,178)" stroke-miterlimit="1.45" transform="matrix(0.491,0,0,0.491,222.8998,259.2315)" stroke-linecap="butt" stroke="rgb(130,130,178)">
      <rect fill="none" width="57.68" x="91.155" height="23.1328" y="-107.1328"/>
    </g>
    <g font-size="13" font-weight="bold" font-family="sans-serif" transform="matrix(0.491,0,0,0.491,222.8998,259.2315)">
      <text xml:space="preserve" x="95.995" y="-91.0659" onclick="umlload('http://docs.oracle.com/javase/6/docs/api/java/lang/Object.html')" stroke="none">Object</text>
    </g>
    <g fill="rgb(238,238,255)" transform="matrix(0.491,0,0,0.491,222.8998,259.2315)" stroke="rgb(238,238,255)">
      <rect width="367.8887" x="-8" height="17.9688" y="-26" stroke="none"/>
    </g>
    <g fill="rgb(166,166,178)" stroke-miterlimit="1.45" transform="matrix(0.491,0,0,0.491,222.8998,259.2315)" stroke-linecap="butt" stroke="rgb(166,166,178)">
      <rect fill="none" width="367.8887" x="-8" height="17.9688" y="-26"/>
    </g>
    <g fill="rgb(238,238,255)" transform="matrix(0.491,0,0,0.491,222.8998,259.2315)" stroke="rgb(238,238,255)">
      <rect width="367.99" x="-8" height="268.2188" y="-8.0312" stroke="none"/>
    </g>
    <g fill="rgb(166,166,178)" stroke-miterlimit="1.45" transform="matrix(0.491,0,0,0.491,222.8998,259.2315)" stroke-linecap="butt" stroke="rgb(166,166,178)">
      <rect fill="none" width="367.99" x="-8" height="268.2188" y="-8.0312"/>
    </g>
    <g font-family="sans-serif" transform="matrix(0.491,0,0,0.491,222.8998,259.2315)">
      <text xml:space="preserve" x="-2" y="-12.8613" onclick="umlload('package-summary.html')" stroke="none">com.msopentech.odatajclient.engine.data.metadata</text>
    </g>
    <g fill="rgb(187,187,255)" transform="matrix(0.491,0,0,0.491,222.8998,259.2315)" stroke="rgb(187,187,255)">
      <rect x="0" y="0" clip-path="url(#clipPath9)" width="239.99" height="26.625" stroke="none"/>
      <line clip-path="url(#clipPath9)" fill="none" x1="0" x2="239.99" y1="26.625" y2="26.625" stroke="black"/>
      <rect x="0" y="27.625" clip-path="url(#clipPath9)" width="239.99" height="31.9375" stroke="none"/>
      <line clip-path="url(#clipPath9)" fill="none" x1="0" x2="239.99" y1="59.5625" y2="59.5625" stroke="black"/>
      <rect x="0" y="60.5625" clip-path="url(#clipPath9)" width="239.99" height="191.625" stroke="none"/>
    </g>
    <g fill="rgb(130,130,178)" stroke-miterlimit="1.45" transform="matrix(0.491,0,0,0.491,222.8998,259.2315)" stroke-linecap="butt" stroke="rgb(130,130,178)">
      <rect fill="none" width="239.99" x="0" height="252.1875" y="0"/>
    </g>
    <g font-size="16" font-weight="bold" font-family="sans-serif" transform="matrix(0.491,0,0,0.491,222.8998,259.2315)">
      <text xml:space="preserve" x="79.995" y="18.8516" onclick="umlload('#')" stroke="none">EdmType</text>
    </g>
    <g font-family="sans-serif" transform="matrix(0.491,0,0,0.491,222.8998,259.2315)">
      <text xml:space="preserve" x="4" y="38.1719" stroke="none">+</text>
      <text xml:space="preserve" x="19" y="39.7637" onclick="umlload('#EdmType(com.msopentech.odatajclient.engine.data.metadata.EdmMetadata, java.lang.String)')" stroke="none">EdmType(EdmMetadata, String)</text>
    </g>
    <g font-family="sans-serif" transform="matrix(0.491,0,0,0.491,222.8998,259.2315)">
      <text xml:space="preserve" x="4" y="54.1719" stroke="none">+</text>
      <text xml:space="preserve" x="19" y="55.7324" onclick="umlload('#EdmType(java.lang.String)')" stroke="none">EdmType(String)</text>
    </g>
    <g font-family="sans-serif" transform="matrix(0.491,0,0,0.491,222.8998,259.2315)">
      <text xml:space="preserve" x="4" y="71.1719" stroke="none">+</text>
      <text xml:space="preserve" x="19" y="72.7012" onclick="umlload('#getBaseType()')" stroke="none">getBaseType() : String</text>
    </g>
    <g font-family="sans-serif" transform="matrix(0.491,0,0,0.491,222.8998,259.2315)">
      <text xml:space="preserve" x="4" y="87.1719" stroke="none">+</text>
      <text xml:space="preserve" x="19" y="88.6699" onclick="umlload('#getComplexType()')" stroke="none">getComplexType() : ComplexType</text>
    </g>
    <g font-family="sans-serif" transform="matrix(0.491,0,0,0.491,222.8998,259.2315)">
      <text xml:space="preserve" x="4" y="103.1719" stroke="none">+</text>
      <text xml:space="preserve" x="19" y="104.6387" onclick="umlload('#getEntityType()')" stroke="none">getEntityType() : EntityType</text>
    </g>
    <g font-family="sans-serif" transform="matrix(0.491,0,0,0.491,222.8998,259.2315)">
      <text xml:space="preserve" x="4" y="119.1719" stroke="none">+</text>
      <text xml:space="preserve" x="19" y="120.6074" onclick="umlload('#getEnumType()')" stroke="none">getEnumType() : EnumType</text>
    </g>
    <g font-family="sans-serif" transform="matrix(0.491,0,0,0.491,222.8998,259.2315)">
      <text xml:space="preserve" x="4" y="135.1719" stroke="none">+</text>
      <text xml:space="preserve" x="19" y="136.5762" onclick="umlload('#getNamespaceOrAlias()')" stroke="none">getNamespaceOrAlias() : String</text>
    </g>
    <g font-family="sans-serif" transform="matrix(0.491,0,0,0.491,222.8998,259.2315)">
      <text xml:space="preserve" x="4" y="151.1719" stroke="none">+</text>
      <text xml:space="preserve" x="19" y="152.5449" onclick="umlload('#getSimpleType()')" stroke="none">getSimpleType() : EdmSimpleType</text>
    </g>
    <g font-family="sans-serif" transform="matrix(0.491,0,0,0.491,222.8998,259.2315)">
      <text xml:space="preserve" x="4" y="167.1719" stroke="none">+</text>
      <text xml:space="preserve" x="19" y="168.5137" onclick="umlload('#getTypeExpression()')" stroke="none">getTypeExpression() : String</text>
    </g>
    <g font-family="sans-serif" transform="matrix(0.491,0,0,0.491,222.8998,259.2315)">
      <text xml:space="preserve" x="4" y="183.1719" stroke="none">+</text>
      <text xml:space="preserve" x="19" y="184.4824" onclick="umlload('#isCollection()')" stroke="none">isCollection() : boolean</text>
    </g>
    <g font-family="sans-serif" transform="matrix(0.491,0,0,0.491,222.8998,259.2315)">
      <text xml:space="preserve" x="4" y="199.1719" stroke="none">+</text>
      <text xml:space="preserve" x="19" y="200.4512" onclick="umlload('#isComplexType()')" stroke="none">isComplexType() : boolean</text>
    </g>
    <g font-family="sans-serif" transform="matrix(0.491,0,0,0.491,222.8998,259.2315)">
      <text xml:space="preserve" x="4" y="215.1719" stroke="none">+</text>
      <text xml:space="preserve" x="19" y="216.4199" onclick="umlload('#isEntityType()')" stroke="none">isEntityType() : boolean</text>
    </g>
    <g font-family="sans-serif" transform="matrix(0.491,0,0,0.491,222.8998,259.2315)">
      <text xml:space="preserve" x="4" y="231.1719" stroke="none">+</text>
      <text xml:space="preserve" x="19" y="232.3887" onclick="umlload('#isEnumType()')" stroke="none">isEnumType() : boolean</text>
    </g>
    <g font-family="sans-serif" transform="matrix(0.491,0,0,0.491,222.8998,259.2315)">
      <text xml:space="preserve" x="4" y="247.1719" stroke="none">+</text>
      <text xml:space="preserve" x="19" y="248.3574" onclick="umlload('#isSimpleType()')" stroke="none">isSimpleType() : boolean</text>
    </g>
    <g font-family="sans-serif" transform="matrix(0.491,0,0,0.491,222.8998,259.2315)">
      <text xml:space="preserve" x="-448" y="285.1543" onclick="umlload('http://www.yworks.com/')" stroke="none">yWorks UML Doclet</text>
    </g>
    <g stroke-miterlimit="1.45" transform="matrix(0.491,0,0,0.491,222.8998,259.2315)" stroke-linecap="butt">
      <path fill="none" d="M119.995 0 L119.995 -69"/>
      <path fill="white" d="M119.995 -84 L113.995 -68 L125.995 -68 Z" stroke="none"/>
      <path fill="none" d="M119.995 -84 L113.995 -68 L125.995 -68 Z"/>
      <path fill="none" d="M-0.0291 11.5664 L-335.01 11.5664"/>
      <line stroke-linecap="square" transform="matrix(-1,0,0,-1,-335.01,11.5664)" fill="none" x1="0" x2="-14" y1="0" y2="-4" stroke-miterlimit="10"/>
      <line stroke-linecap="square" transform="matrix(-1,0,0,-1,-335.01,11.5664)" fill="none" x1="0" x2="-14" y1="0" y2="4" stroke-miterlimit="10"/>
    </g>
    <g stroke-miterlimit="1.45" transform="matrix(0.491,0,0,0.491,222.8998,259.2315)" stroke-linecap="butt">
      <path fill="none" d="M0.0135 44.6992 L-315.44 44.6992"/>
      <line stroke-linecap="square" transform="matrix(-1,0,0,-1,-315.44,44.6992)" fill="none" x1="0" x2="-14" y1="0" y2="-4" stroke-miterlimit="10"/>
      <line stroke-linecap="square" transform="matrix(-1,0,0,-1,-315.44,44.6992)" fill="none" x1="0" x2="-14" y1="0" y2="4" stroke-miterlimit="10"/>
    </g>
    <g stroke-miterlimit="1.45" transform="matrix(0.491,0,0,0.491,222.8998,259.2315)" stroke-linecap="butt">
      <path fill="none" d="M-0.0215 77.832 L-357.67 77.832"/>
      <line stroke-linecap="square" transform="matrix(-1,0,0,-1,-357.67,77.832)" fill="none" x1="0" x2="-14" y1="0" y2="-4" stroke-miterlimit="10"/>
      <line stroke-linecap="square" transform="matrix(-1,0,0,-1,-357.67,77.832)" fill="none" x1="0" x2="-14" y1="0" y2="4" stroke-miterlimit="10"/>
    </g>
    <g stroke-miterlimit="1.45" transform="matrix(0.491,0,0,0.491,222.8998,259.2315)" stroke-linecap="butt">
      <path fill="none" d="M-0.0126 110.9648 L-358.7 110.9648"/>
      <line stroke-linecap="square" transform="matrix(-1,0,0,-1,-358.7,110.9648)" fill="none" x1="0" x2="-14" y1="0" y2="-4" stroke-miterlimit="10"/>
      <line stroke-linecap="square" transform="matrix(-1,0,0,-1,-358.7,110.9648)" fill="none" x1="0" x2="-14" y1="0" y2="4" stroke-miterlimit="10"/>
    </g>
    <g stroke-miterlimit="1.45" transform="matrix(0.491,0,0,0.491,222.8998,259.2315)" stroke-linecap="butt">
      <path fill="none" d="M0.0009 198.0977 L-76.48 198.0977"/>
      <line stroke-linecap="square" transform="matrix(-1,0,0,-1,-76.48,198.0977)" fill="none" x1="0" x2="-14" y1="0" y2="-4" stroke-miterlimit="10"/>
      <line stroke-linecap="square" transform="matrix(-1,0,0,-1,-76.48,198.0977)" fill="none" x1="0" x2="-14" y1="0" y2="4" stroke-miterlimit="10"/>
    </g>
    <g stroke-dasharray="6,2" stroke-miterlimit="1.45" transform="matrix(0.491,0,0,0.491,222.8998,259.2315)" stroke-linecap="butt">
      <path fill="none" d="M239.9939 11.5664 L403.29 11.5664"/>
      <line stroke-linecap="square" transform="matrix(1,0,0,1,403.29,11.5664)" fill="none" x1="0" x2="-14" y1="0" y2="-4" stroke-dasharray="none" stroke-miterlimit="10"/>
      <line stroke-linecap="square" transform="matrix(1,0,0,1,403.29,11.5664)" fill="none" x1="0" x2="-14" y1="0" y2="4" stroke-dasharray="none" stroke-miterlimit="10"/>
    </g>
  </g>
</svg>
