<?xml version="1.0" encoding="UTF-8"?><svg xmlns="http://www.w3.org/2000/svg" xmlns:xlink="http://www.w3.org/1999/xlink" fill-opacity="1" color-rendering="auto" color-interpolation="auto" stroke="black" text-rendering="auto" stroke-linecap="square" width="598" stroke-miterlimit="10" stroke-opacity="1" shape-rendering="auto" fill="black" stroke-dasharray="none" font-weight="normal" stroke-width="1" height="598" font-family="'Dialog'" font-style="normal" stroke-linejoin="miter" font-size="12" stroke-dashoffset="0" image-rendering="auto">
  <!--Generated by ySVG-->
  <defs id="genericDefs"/>
  <g>
    <defs id="defs1">
      <clipPath clipPathUnits="userSpaceOnUse" id="clipPath1">
        <path d="M0 0 L598 0 L598 598 L0 598 L0 0 Z"/>
      </clipPath>
      <clipPath clipPathUnits="userSpaceOnUse" id="clipPath2">
        <path d="M620.14 120.2656 L686.06 120.2656 L686.06 143.3984 L620.14 143.3984 L620.14 120.2656 Z"/>
      </clipPath>
      <clipPath clipPathUnits="userSpaceOnUse" id="clipPath3">
        <path d="M620.14 0 L699.45 0 L699.45 23.1328 L620.14 23.1328 L620.14 0 Z"/>
      </clipPath>
      <clipPath clipPathUnits="userSpaceOnUse" id="clipPath4">
        <path d="M620.14 33.1328 L677.82 33.1328 L677.82 56.2656 L620.14 56.2656 L620.14 33.1328 Z"/>
      </clipPath>
      <clipPath clipPathUnits="userSpaceOnUse" id="clipPath5">
        <path d="M-130.04 87.1328 L-76.48 87.1328 L-76.48 110.2656 L-130.04 110.2656 L-130.04 87.1328 Z"/>
      </clipPath>
      <clipPath clipPathUnits="userSpaceOnUse" id="clipPath6">
        <path d="M-325.74 0 L-144.46 0 L-144.46 23.1328 L-325.74 23.1328 L-325.74 0 Z"/>
      </clipPath>
      <clipPath clipPathUnits="userSpaceOnUse" id="clipPath7">
        <path d="M172.01 -107.1328 L382.13 -107.1328 L382.13 -84 L172.01 -84 L172.01 -107.1328 Z"/>
      </clipPath>
      <clipPath clipPathUnits="userSpaceOnUse" id="clipPath8">
        <path d="M0 0 L554.14 0 L554.14 151.3984 L0 151.3984 L0 0 Z"/>
      </clipPath>
      <script type="text/ecmascript"><![CDATA[
function umlload(newLocation)
{
if (newLocation.charAt(0) != '#') {
if (newLocation.indexOf("://") > -1) {
window.parent.location.href = newLocation;
} else {
var tmp = window.parent.location.href;
tmp = tmp.substring(0, tmp.lastIndexOf("/") + 1);
window.parent.location.href = tmp.concat(newLocation);
}
} else {
window.parent.location.hash = newLocation;
}
}
]]></script>
    </defs>
    <g fill="rgb(238,238,255)" transform="matrix(0.5578,0,0,0.5578,186.3172,281.7071)" stroke="rgb(238,238,255)">
      <rect width="122.8208" x="612.14" height="17.9688" y="94.2656" stroke="none"/>
    </g>
    <g fill="rgb(166,166,178)" stroke-miterlimit="1.45" transform="matrix(0.5578,0,0,0.5578,186.3172,281.7071)" stroke-linecap="butt" stroke="rgb(166,166,178)">
      <rect fill="none" width="122.8208" x="612.14" height="17.9688" y="94.2656"/>
    </g>
    <g fill="rgb(238,238,255)" transform="matrix(0.5578,0,0,0.5578,186.3172,281.7071)" stroke="rgb(238,238,255)">
      <rect width="124.92" x="612.14" height="39.1641" y="112.2344" stroke="none"/>
    </g>
    <g fill="rgb(166,166,178)" stroke-miterlimit="1.45" transform="matrix(0.5578,0,0,0.5578,186.3172,281.7071)" stroke-linecap="butt" stroke="rgb(166,166,178)">
      <rect fill="none" width="124.92" x="612.14" height="39.1641" y="112.2344"/>
    </g>
    <g font-family="sans-serif" transform="matrix(0.5578,0,0,0.5578,186.3172,281.7071)">
      <text xml:space="preserve" x="618.14" y="107.4043" onclick="umlload('http://docs.oracle.com/javase/6/docs/api/java/lang/reflect/package-summary.html')" stroke="none">java.lang.reflect</text>
    </g>
    <g fill="rgb(187,187,255)" transform="matrix(0.5578,0,0,0.5578,186.3172,281.7071)" stroke="rgb(187,187,255)">
      <rect x="620.14" y="120.2656" clip-path="url(#clipPath2)" width="65.92" height="23.1328" stroke="none"/>
    </g>
    <g fill="rgb(130,130,178)" stroke-miterlimit="1.45" transform="matrix(0.5578,0,0,0.5578,186.3172,281.7071)" stroke-linecap="butt" stroke="rgb(130,130,178)">
      <rect fill="none" width="65.92" x="620.14" height="23.1328" y="120.2656"/>
    </g>
    <g font-size="13" font-weight="bold" font-family="sans-serif" transform="matrix(0.5578,0,0,0.5578,186.3172,281.7071)">
      <text xml:space="preserve" x="625.1" y="136.3325" onclick="umlload('http://docs.oracle.com/javase/6/docs/api/java/lang/reflect/Method.html')" stroke="none">Method</text>
    </g>
    <g fill="rgb(238,238,255)" transform="matrix(0.5578,0,0,0.5578,186.3172,281.7071)" stroke="rgb(238,238,255)">
      <rect width="76.1412" x="612.14" height="17.9688" y="-26" stroke="none"/>
    </g>
    <g fill="rgb(166,166,178)" stroke-miterlimit="1.45" transform="matrix(0.5578,0,0,0.5578,186.3172,281.7071)" stroke-linecap="butt" stroke="rgb(166,166,178)">
      <rect fill="none" width="76.1412" x="612.14" height="17.9688" y="-26"/>
    </g>
    <g fill="rgb(238,238,255)" transform="matrix(0.5578,0,0,0.5578,186.3172,281.7071)" stroke="rgb(238,238,255)">
      <rect width="95.31" x="612.14" height="72.2969" y="-8.0312" stroke="none"/>
    </g>
    <g fill="rgb(166,166,178)" stroke-miterlimit="1.45" transform="matrix(0.5578,0,0,0.5578,186.3172,281.7071)" stroke-linecap="butt" stroke="rgb(166,166,178)">
      <rect fill="none" width="95.31" x="612.14" height="72.2969" y="-8.0312"/>
    </g>
    <g font-family="sans-serif" transform="matrix(0.5578,0,0,0.5578,186.3172,281.7071)">
      <text xml:space="preserve" x="618.14" y="-12.8613" onclick="umlload('http://docs.oracle.com/javase/6/docs/api/java/lang/package-summary.html')" stroke="none">java.lang</text>
    </g>
    <g fill="rgb(187,187,255)" transform="matrix(0.5578,0,0,0.5578,186.3172,281.7071)" stroke="rgb(187,187,255)">
      <rect x="620.14" y="0" clip-path="url(#clipPath3)" width="79.31" height="23.1328" stroke="none"/>
    </g>
    <g fill="rgb(130,130,178)" stroke-miterlimit="1.45" transform="matrix(0.5578,0,0,0.5578,186.3172,281.7071)" stroke-linecap="butt" stroke="rgb(130,130,178)">
      <rect fill="none" width="79.31" x="620.14" height="23.1328" y="0"/>
    </g>
    <g font-size="13" font-weight="bold" font-family="sans-serif" transform="matrix(0.5578,0,0,0.5578,186.3172,281.7071)">
      <text xml:space="preserve" x="625.295" y="16.0669" onclick="umlload('http://docs.oracle.com/javase/6/docs/api/java/lang/Class.html')" stroke="none">Class&lt;T&gt;</text>
    </g>
    <g fill="rgb(187,187,255)" transform="matrix(0.5578,0,0,0.5578,186.3172,281.7071)" stroke="rgb(187,187,255)">
      <rect x="620.14" y="33.1328" clip-path="url(#clipPath4)" width="57.68" height="23.1328" stroke="none"/>
    </g>
    <g fill="rgb(130,130,178)" stroke-miterlimit="1.45" transform="matrix(0.5578,0,0,0.5578,186.3172,281.7071)" stroke-linecap="butt" stroke="rgb(130,130,178)">
      <rect fill="none" width="57.68" x="620.14" height="23.1328" y="33.1328"/>
    </g>
    <g font-size="13" font-weight="bold" font-family="sans-serif" transform="matrix(0.5578,0,0,0.5578,186.3172,281.7071)">
      <text xml:space="preserve" x="624.98" y="49.1997" onclick="umlload('http://docs.oracle.com/javase/6/docs/api/java/lang/Object.html')" stroke="none">Object</text>
    </g>
    <g fill="rgb(238,238,255)" transform="matrix(0.5578,0,0,0.5578,186.3172,281.7071)" stroke="rgb(238,238,255)">
      <rect width="76.1412" x="-138.04" height="17.9688" y="61.1328" stroke="none"/>
    </g>
    <g fill="rgb(166,166,178)" stroke-miterlimit="1.45" transform="matrix(0.5578,0,0,0.5578,186.3172,281.7071)" stroke-linecap="butt" stroke="rgb(166,166,178)">
      <rect fill="none" width="76.1412" x="-138.04" height="17.9688" y="61.1328"/>
    </g>
    <g fill="rgb(238,238,255)" transform="matrix(0.5578,0,0,0.5578,186.3172,281.7071)" stroke="rgb(238,238,255)">
      <rect width="79.56" x="-138.04" height="39.1641" y="79.1016" stroke="none"/>
    </g>
    <g fill="rgb(166,166,178)" stroke-miterlimit="1.45" transform="matrix(0.5578,0,0,0.5578,186.3172,281.7071)" stroke-linecap="butt" stroke="rgb(166,166,178)">
      <rect fill="none" width="79.56" x="-138.04" height="39.1641" y="79.1016"/>
    </g>
    <g font-family="sans-serif" transform="matrix(0.5578,0,0,0.5578,186.3172,281.7071)">
      <text xml:space="preserve" x="-132.04" y="74.2715" onclick="umlload('http://docs.oracle.com/javase/6/docs/api/java/lang/package-summary.html')" stroke="none">java.lang</text>
    </g>
    <g fill="rgb(187,187,255)" transform="matrix(0.5578,0,0,0.5578,186.3172,281.7071)" stroke="rgb(187,187,255)">
      <rect x="-130.04" y="87.1328" clip-path="url(#clipPath5)" width="53.56" height="23.1328" stroke="none"/>
    </g>
    <g fill="rgb(130,130,178)" stroke-miterlimit="1.45" transform="matrix(0.5578,0,0,0.5578,186.3172,281.7071)" stroke-linecap="butt" stroke="rgb(130,130,178)">
      <rect fill="none" width="53.56" x="-130.04" height="23.1328" y="87.1328"/>
    </g>
    <g font-size="13" font-weight="bold" font-family="sans-serif" transform="matrix(0.5578,0,0,0.5578,186.3172,281.7071)">
      <text xml:space="preserve" x="-125.26" y="103.1997" onclick="umlload('http://docs.oracle.com/javase/6/docs/api/java/lang/String.html')" stroke="none">String</text>
    </g>
    <g fill="rgb(238,238,255)" transform="matrix(0.5578,0,0,0.5578,186.3172,281.7071)" stroke="rgb(238,238,255)">
      <rect width="277.7122" x="-333.74" height="17.9688" y="-26" stroke="none"/>
    </g>
    <g fill="rgb(166,166,178)" stroke-miterlimit="1.45" transform="matrix(0.5578,0,0,0.5578,186.3172,281.7071)" stroke-linecap="butt" stroke="rgb(166,166,178)">
      <rect fill="none" width="277.7122" x="-333.74" height="17.9688" y="-26"/>
    </g>
    <g fill="rgb(238,238,255)" transform="matrix(0.5578,0,0,0.5578,186.3172,281.7071)" stroke="rgb(238,238,255)">
      <rect width="277.7122" x="-333.74" height="39.1641" y="-8.0312" stroke="none"/>
    </g>
    <g fill="rgb(166,166,178)" stroke-miterlimit="1.45" transform="matrix(0.5578,0,0,0.5578,186.3172,281.7071)" stroke-linecap="butt" stroke="rgb(166,166,178)">
      <rect fill="none" width="277.7122" x="-333.74" height="39.1641" y="-8.0312"/>
    </g>
    <g font-family="sans-serif" transform="matrix(0.5578,0,0,0.5578,186.3172,281.7071)">
      <text xml:space="preserve" x="-327.74" y="-12.8613" onclick="umlload('../../../../../../com/msopentech/odatajclient/proxy/api/package-summary.html')" stroke="none">com.msopentech.odatajclient.proxy.api</text>
    </g>
    <g fill="rgb(187,187,255)" transform="matrix(0.5578,0,0,0.5578,186.3172,281.7071)" stroke="rgb(187,187,255)">
      <rect x="-325.74" y="0" clip-path="url(#clipPath6)" width="181.28" height="23.1328" stroke="none"/>
    </g>
    <g fill="rgb(130,130,178)" stroke-miterlimit="1.45" transform="matrix(0.5578,0,0,0.5578,186.3172,281.7071)" stroke-linecap="butt" stroke="rgb(130,130,178)">
      <rect fill="none" width="181.28" x="-325.74" height="23.1328" y="0"/>
    </g>
    <g font-size="13" font-weight="bold" font-family="sans-serif" transform="matrix(0.5578,0,0,0.5578,186.3172,281.7071)">
      <text xml:space="preserve" x="-319.1" y="16.0669" onclick="umlload('../../../../../../com/msopentech/odatajclient/proxy/api/EntityContainerFactory.html')" stroke="none">EntityContainerFactory</text>
    </g>
    <g fill="rgb(238,238,255)" transform="matrix(0.5578,0,0,0.5578,186.3172,281.7071)" stroke="rgb(238,238,255)">
      <rect width="308.4783" x="129.01" height="17.9688" y="-133.1328" stroke="none"/>
    </g>
    <g fill="rgb(166,166,178)" stroke-miterlimit="1.45" transform="matrix(0.5578,0,0,0.5578,186.3172,281.7071)" stroke-linecap="butt" stroke="rgb(166,166,178)">
      <rect fill="none" width="308.4783" x="129.01" height="17.9688" y="-133.1328"/>
    </g>
    <g fill="rgb(238,238,255)" transform="matrix(0.5578,0,0,0.5578,186.3172,281.7071)" stroke="rgb(238,238,255)">
      <rect width="309.12" x="129.01" height="39.1641" y="-115.1641" stroke="none"/>
    </g>
    <g fill="rgb(166,166,178)" stroke-miterlimit="1.45" transform="matrix(0.5578,0,0,0.5578,186.3172,281.7071)" stroke-linecap="butt" stroke="rgb(166,166,178)">
      <rect fill="none" width="309.12" x="129.01" height="39.1641" y="-115.1641"/>
    </g>
    <g font-family="sans-serif" transform="matrix(0.5578,0,0,0.5578,186.3172,281.7071)">
      <text xml:space="preserve" x="135.01" y="-119.9941" onclick="umlload('../../../../../../com/msopentech/odatajclient/proxy/api/impl/package-summary.html')" stroke="none">com.msopentech.odatajclient.proxy.api.impl</text>
    </g>
    <g fill="rgb(204,204,255)" transform="matrix(0.5578,0,0,0.5578,186.3172,281.7071)" stroke="rgb(204,204,255)">
      <rect x="172.01" y="-107.1328" clip-path="url(#clipPath7)" width="210.12" height="23.1328" stroke="none"/>
    </g>
    <g fill="rgb(142,142,178)" stroke-miterlimit="1.45" transform="matrix(0.5578,0,0,0.5578,186.3172,281.7071)" stroke-linecap="butt" stroke="rgb(142,142,178)">
      <rect fill="none" width="210.12" x="172.01" height="23.1328" y="-107.1328"/>
    </g>
    <g font-size="13" font-weight="bold" font-family="sans-serif" transform="matrix(0.5578,0,0,0.5578,186.3172,281.7071)">
      <text xml:space="preserve" x="179.07" y="-91.0659" stroke="none">AbstractInvocationHandler</text>
    </g>
    <g fill="rgb(238,238,255)" transform="matrix(0.5578,0,0,0.5578,186.3172,281.7071)" stroke="rgb(238,238,255)">
      <rect width="308.4783" x="-8" height="17.9688" y="-26" stroke="none"/>
    </g>
    <g fill="rgb(166,166,178)" stroke-miterlimit="1.45" transform="matrix(0.5578,0,0,0.5578,186.3172,281.7071)" stroke-linecap="butt" stroke="rgb(166,166,178)">
      <rect fill="none" width="308.4783" x="-8" height="17.9688" y="-26"/>
    </g>
    <g fill="rgb(238,238,255)" transform="matrix(0.5578,0,0,0.5578,186.3172,281.7071)" stroke="rgb(238,238,255)">
      <rect width="570.14" x="-8" height="167.4297" y="-8.0312" stroke="none"/>
    </g>
    <g fill="rgb(166,166,178)" stroke-miterlimit="1.45" transform="matrix(0.5578,0,0,0.5578,186.3172,281.7071)" stroke-linecap="butt" stroke="rgb(166,166,178)">
      <rect fill="none" width="570.14" x="-8" height="167.4297" y="-8.0312"/>
    </g>
    <g font-family="sans-serif" transform="matrix(0.5578,0,0,0.5578,186.3172,281.7071)">
      <text xml:space="preserve" x="-2" y="-12.8613" onclick="umlload('package-summary.html')" stroke="none">com.msopentech.odatajclient.proxy.api.impl</text>
    </g>
    <g fill="rgb(187,187,255)" transform="matrix(0.5578,0,0,0.5578,186.3172,281.7071)" stroke="rgb(187,187,255)">
      <rect x="0" y="0" clip-path="url(#clipPath8)" width="554.14" height="26.625" stroke="none"/>
      <line clip-path="url(#clipPath8)" fill="none" x1="0" x2="554.14" y1="26.625" y2="26.625" stroke="black"/>
      <rect x="0" y="27.625" clip-path="url(#clipPath8)" width="554.14" height="15.9688" stroke="none"/>
      <line clip-path="url(#clipPath8)" fill="none" x1="0" x2="554.14" y1="43.5938" y2="43.5938" stroke="black"/>
      <line clip-path="url(#clipPath8)" x1="0" x2="554.14" y1="44.5938" y2="44.5938" stroke="none"/>
      <line clip-path="url(#clipPath8)" fill="none" x1="0" x2="554.14" y1="44.5938" y2="44.5938" stroke="black"/>
      <rect x="0" y="45.5938" clip-path="url(#clipPath8)" width="554.14" height="105.8047" stroke="none"/>
    </g>
    <g fill="rgb(130,130,178)" stroke-miterlimit="1.45" transform="matrix(0.5578,0,0,0.5578,186.3172,281.7071)" stroke-linecap="butt" stroke="rgb(130,130,178)">
      <rect fill="none" width="554.14" x="0" height="151.3984" y="0"/>
    </g>
    <g font-size="16" font-weight="bold" font-family="sans-serif" transform="matrix(0.5578,0,0,0.5578,186.3172,281.7071)">
      <text xml:space="preserve" x="129.07" y="18.8516" onclick="umlload('#')" stroke="none">EntityContainerInvocationHandler</text>
    </g>
    <g font-family="sans-serif" transform="matrix(0.5578,0,0,0.5578,186.3172,281.7071)">
      <text xml:space="preserve" x="4" y="38.1719" stroke="none">#</text>
      <text xml:space="preserve" x="19" y="39.7637" onclick="umlload('#schemaName')" stroke="none">schemaName : String</text>
    </g>
    <g font-family="sans-serif" transform="matrix(0.5578,0,0,0.5578,186.3172,281.7071)">
      <text xml:space="preserve" x="4" y="56.1719" stroke="none">+</text>
      <text xml:space="preserve" x="19" y="57.7324" onclick="umlload('#getInstance(java.lang.Class, com.msopentech.odatajclient.proxy.api.EntityContainerFactory)')" stroke="none">getInstance(Class&lt;?&gt;, EntityContainerFactory) : EntityContainerInvocationHandler</text>
      <line y2="60.5625" fill="none" x1="19" x2="534" y1="60.5625"/>
    </g>
    <g font-family="sans-serif" transform="matrix(0.5578,0,0,0.5578,186.3172,281.7071)">
      <text xml:space="preserve" x="4" y="72.1719" stroke="none">+</text>
      <text xml:space="preserve" x="19" y="73.7012" onclick="umlload('#invoke(java.lang.Object, java.lang.reflect.Method, java.lang.Object[])')" stroke="none">invoke(Object, Method, Object[]) : Object</text>
    </g>
    <g font-family="sans-serif" transform="matrix(0.5578,0,0,0.5578,186.3172,281.7071)">
      <text xml:space="preserve" x="-328" y="184.1543" onclick="umlload('http://www.yworks.com/')" stroke="none">yWorks UML Doclet</text>
    </g>
    <g stroke-miterlimit="1.45" transform="matrix(0.5578,0,0,0.5578,186.3172,281.7071)" stroke-linecap="butt">
      <path fill="none" d="M277.07 -0.0319 L277.07 -69"/>
      <path fill="white" d="M277.07 -84 L271.07 -68 L283.07 -68 Z" stroke="none"/>
      <path fill="none" d="M277.07 -84 L271.07 -68 L283.07 -68 Z"/>
      <path fill="none" d="M0.0093 11.5664 L-144.46 11.5664"/>
      <line stroke-linecap="square" transform="matrix(-1,0,0,-1,-144.46,11.5664)" fill="none" x1="0" x2="-14" y1="0" y2="-4" stroke-miterlimit="10"/>
      <line stroke-linecap="square" transform="matrix(-1,0,0,-1,-144.46,11.5664)" fill="none" x1="0" x2="-14" y1="0" y2="4" stroke-miterlimit="10"/>
    </g>
    <g stroke-miterlimit="1.45" transform="matrix(0.5578,0,0,0.5578,186.3172,281.7071)" stroke-linecap="butt">
      <path fill="none" d="M0.0401 98.6992 L-76.48 98.6992"/>
      <line stroke-linecap="square" transform="matrix(-1,0,0,-1,-76.48,98.6992)" fill="none" x1="0" x2="-14" y1="0" y2="-4" stroke-miterlimit="10"/>
      <line stroke-linecap="square" transform="matrix(-1,0,0,-1,-76.48,98.6992)" fill="none" x1="0" x2="-14" y1="0" y2="4" stroke-miterlimit="10"/>
    </g>
    <g stroke-dasharray="6,2" stroke-miterlimit="1.45" transform="matrix(0.5578,0,0,0.5578,186.3172,281.7071)" stroke-linecap="butt">
      <path fill="none" d="M554.1625 11.5664 L620.14 11.5664"/>
      <line stroke-linecap="square" transform="matrix(1,0,0,1,620.14,11.5664)" fill="none" x1="0" x2="-14" y1="0" y2="-4" stroke-dasharray="none" stroke-miterlimit="10"/>
      <line stroke-linecap="square" transform="matrix(1,0,0,1,620.14,11.5664)" fill="none" x1="0" x2="-14" y1="0" y2="4" stroke-dasharray="none" stroke-miterlimit="10"/>
    </g>
    <g stroke-dasharray="6,2" stroke-miterlimit="1.45" transform="matrix(0.5578,0,0,0.5578,186.3172,281.7071)" stroke-linecap="butt">
      <path fill="none" d="M554.1411 44.6992 L620.14 44.6992"/>
      <line stroke-linecap="square" transform="matrix(1,0,0,1,620.14,44.6992)" fill="none" x1="0" x2="-14" y1="0" y2="-4" stroke-dasharray="none" stroke-miterlimit="10"/>
      <line stroke-linecap="square" transform="matrix(1,0,0,1,620.14,44.6992)" fill="none" x1="0" x2="-14" y1="0" y2="4" stroke-dasharray="none" stroke-miterlimit="10"/>
    </g>
    <g stroke-dasharray="6,2" stroke-miterlimit="1.45" transform="matrix(0.5578,0,0,0.5578,186.3172,281.7071)" stroke-linecap="butt">
      <path fill="none" d="M554.181 131.832 L620.14 131.832"/>
      <line stroke-linecap="square" transform="matrix(1,0,0,1,620.14,131.832)" fill="none" x1="0" x2="-14" y1="0" y2="-4" stroke-dasharray="none" stroke-miterlimit="10"/>
      <line stroke-linecap="square" transform="matrix(1,0,0,1,620.14,131.832)" fill="none" x1="0" x2="-14" y1="0" y2="4" stroke-dasharray="none" stroke-miterlimit="10"/>
    </g>
  </g>
</svg>
