<?xml version="1.0" encoding="UTF-8"?><svg xmlns="http://www.w3.org/2000/svg" xmlns:xlink="http://www.w3.org/1999/xlink" fill-opacity="1" color-rendering="auto" color-interpolation="auto" stroke="black" text-rendering="auto" stroke-linecap="square" width="598" stroke-miterlimit="10" stroke-opacity="1" shape-rendering="auto" fill="black" stroke-dasharray="none" font-weight="normal" stroke-width="1" height="598" font-family="'Dialog'" font-style="normal" stroke-linejoin="miter" font-size="12" stroke-dashoffset="0" image-rendering="auto">
  <!--Generated by ySVG-->
  <defs id="genericDefs"/>
  <g>
    <defs id="defs1">
      <clipPath clipPathUnits="userSpaceOnUse" id="clipPath1">
        <path d="M0 0 L598 0 L598 598 L0 598 L0 0 Z"/>
      </clipPath>
      <clipPath clipPathUnits="userSpaceOnUse" id="clipPath2">
        <path d="M911.9908 277.7558 C911.9908 286.7897 881.0132 294.1132 842.8004 294.1132 C804.5876 294.1132 773.61 286.7897 773.61 277.7558 C773.61 268.7219 804.5876 261.3984 842.8004 261.3984 C881.0132 261.3984 911.9908 268.7219 911.9908 277.7558 Z"/>
      </clipPath>
      <clipPath clipPathUnits="userSpaceOnUse" id="clipPath3">
        <path d="M773.61 174.2656 L839.53 174.2656 L839.53 197.3984 L773.61 197.3984 L773.61 174.2656 Z"/>
      </clipPath>
      <clipPath clipPathUnits="userSpaceOnUse" id="clipPath4">
        <path d="M773.61 87.1328 L831.29 87.1328 L831.29 110.2656 L773.61 110.2656 L773.61 87.1328 Z"/>
      </clipPath>
      <clipPath clipPathUnits="userSpaceOnUse" id="clipPath5">
        <path d="M773.61 0 L1035.23 0 L1035.23 23.1328 L773.61 23.1328 L773.61 0 Z"/>
      </clipPath>
      <clipPath clipPathUnits="userSpaceOnUse" id="clipPath6">
        <path d="M-66 223.7558 C-66 232.7897 -102.1949 240.1132 -146.8435 240.1132 C-191.4922 240.1132 -227.687 232.7897 -227.687 223.7558 C-227.687 214.7219 -191.4922 207.3984 -146.8435 207.3984 C-102.1949 207.3984 -66 214.7219 -66 223.7558 Z"/>
      </clipPath>
      <clipPath clipPathUnits="userSpaceOnUse" id="clipPath7">
        <path d="M-123.86 120.2656 L-90.9 120.2656 L-90.9 143.3984 L-123.86 143.3984 L-123.86 120.2656 Z"/>
      </clipPath>
      <clipPath clipPathUnits="userSpaceOnUse" id="clipPath8">
        <path d="M-145.31 0 L-66 0 L-66 23.1328 L-145.31 23.1328 L-145.31 0 Z"/>
      </clipPath>
      <clipPath clipPathUnits="userSpaceOnUse" id="clipPath9">
        <path d="M-145.31 33.1328 L-91.75 33.1328 L-91.75 56.2656 L-145.31 56.2656 L-145.31 33.1328 Z"/>
      </clipPath>
      <clipPath clipPathUnits="userSpaceOnUse" id="clipPath10">
        <path d="M1074.1969 -100.3574 C1074.1969 -91.3234 954.5255 -84 806.9034 -84 C659.2814 -84 539.61 -91.3234 539.61 -100.3574 C539.61 -109.3913 659.2814 -116.7147 806.9034 -116.7147 C954.5255 -116.7147 1074.1969 -109.3913 1074.1969 -100.3574 Z"/>
      </clipPath>
      <clipPath clipPathUnits="userSpaceOnUse" id="clipPath11">
        <path d="M248.745 -107.1328 L458.865 -107.1328 L458.865 -84 L248.745 -84 L248.745 -107.1328 Z"/>
      </clipPath>
      <clipPath clipPathUnits="userSpaceOnUse" id="clipPath12">
        <path d="M-0 0 L707.61 0 L707.61 302.1132 L-0 302.1132 L-0 0 Z"/>
      </clipPath>
      <script type="text/ecmascript"><![CDATA[
function umlload(newLocation)
{
if (newLocation.charAt(0) != '#') {
if (newLocation.indexOf("://") > -1) {
window.parent.location.href = newLocation;
} else {
var tmp = window.parent.location.href;
tmp = tmp.substring(0, tmp.lastIndexOf("/") + 1);
window.parent.location.href = tmp.concat(newLocation);
}
} else {
window.parent.location.hash = newLocation;
}
}
]]></script>
    </defs>
    <g fill="rgb(238,238,255)" transform="matrix(0.4534,0,0,0.4534,106.9962,252.9826)" stroke="rgb(238,238,255)">
      <rect width="67.654" x="765.61" height="17.9688" y="235.3984" stroke="none"/>
    </g>
    <g fill="rgb(166,166,178)" stroke-miterlimit="1.45" transform="matrix(0.4534,0,0,0.4534,106.9962,252.9826)" stroke-linecap="butt" stroke="rgb(166,166,178)">
      <rect fill="none" width="67.654" x="765.61" height="17.9688" y="235.3984"/>
    </g>
    <g fill="rgb(238,238,255)" transform="matrix(0.4534,0,0,0.4534,106.9962,252.9826)" stroke="rgb(238,238,255)">
      <rect width="154.3808" x="765.61" height="48.746" y="253.3672" stroke="none"/>
    </g>
    <g fill="rgb(166,166,178)" stroke-miterlimit="1.45" transform="matrix(0.4534,0,0,0.4534,106.9962,252.9826)" stroke-linecap="butt" stroke="rgb(166,166,178)">
      <rect fill="none" width="154.3808" x="765.61" height="48.746" y="253.3672"/>
    </g>
    <g font-family="sans-serif" transform="matrix(0.4534,0,0,0.4534,106.9962,252.9826)">
      <text xml:space="preserve" x="771.61" y="248.5371" onclick="umlload('http://docs.oracle.com/javase/6/docs/api/java/util/package-summary.html')" stroke="none">java.util</text>
    </g>
    <g fill="rgb(221,221,255)" transform="matrix(0.4534,0,0,0.4534,106.9962,252.9826)" stroke="rgb(221,221,255)">
      <rect x="773.61" y="261.3984" clip-path="url(#clipPath2)" width="138.3808" height="32.7147" stroke="none"/>
    </g>
    <g fill="rgb(154,154,178)" stroke-miterlimit="1.45" transform="matrix(0.4534,0,0,0.4534,106.9962,252.9826)" stroke-linecap="butt" stroke="rgb(154,154,178)">
      <ellipse rx="69.1904" fill="none" ry="16.3574" cx="842.8004" cy="277.7558"/>
    </g>
    <g font-style="italic" font-size="13" font-weight="bold" font-family="sans-serif" transform="matrix(0.4534,0,0,0.4534,106.9962,252.9826)">
      <text xml:space="preserve" x="799.3004" y="282.2563" onclick="umlload('http://docs.oracle.com/javase/6/docs/api/java/util/Iterator.html')" stroke="none">Iterator&lt;E&gt;</text>
    </g>
    <g fill="rgb(238,238,255)" transform="matrix(0.4534,0,0,0.4534,106.9962,252.9826)" stroke="rgb(238,238,255)">
      <rect width="122.8208" x="765.61" height="17.9688" y="148.2656" stroke="none"/>
    </g>
    <g fill="rgb(166,166,178)" stroke-miterlimit="1.45" transform="matrix(0.4534,0,0,0.4534,106.9962,252.9826)" stroke-linecap="butt" stroke="rgb(166,166,178)">
      <rect fill="none" width="122.8208" x="765.61" height="17.9688" y="148.2656"/>
    </g>
    <g fill="rgb(238,238,255)" transform="matrix(0.4534,0,0,0.4534,106.9962,252.9826)" stroke="rgb(238,238,255)">
      <rect width="124.92" x="765.61" height="39.1641" y="166.2344" stroke="none"/>
    </g>
    <g fill="rgb(166,166,178)" stroke-miterlimit="1.45" transform="matrix(0.4534,0,0,0.4534,106.9962,252.9826)" stroke-linecap="butt" stroke="rgb(166,166,178)">
      <rect fill="none" width="124.92" x="765.61" height="39.1641" y="166.2344"/>
    </g>
    <g font-family="sans-serif" transform="matrix(0.4534,0,0,0.4534,106.9962,252.9826)">
      <text xml:space="preserve" x="771.61" y="161.4043" onclick="umlload('http://docs.oracle.com/javase/6/docs/api/java/lang/reflect/package-summary.html')" stroke="none">java.lang.reflect</text>
    </g>
    <g fill="rgb(187,187,255)" transform="matrix(0.4534,0,0,0.4534,106.9962,252.9826)" stroke="rgb(187,187,255)">
      <rect x="773.61" y="174.2656" clip-path="url(#clipPath3)" width="65.92" height="23.1328" stroke="none"/>
    </g>
    <g fill="rgb(130,130,178)" stroke-miterlimit="1.45" transform="matrix(0.4534,0,0,0.4534,106.9962,252.9826)" stroke-linecap="butt" stroke="rgb(130,130,178)">
      <rect fill="none" width="65.92" x="773.61" height="23.1328" y="174.2656"/>
    </g>
    <g font-size="13" font-weight="bold" font-family="sans-serif" transform="matrix(0.4534,0,0,0.4534,106.9962,252.9826)">
      <text xml:space="preserve" x="778.57" y="190.3325" onclick="umlload('http://docs.oracle.com/javase/6/docs/api/java/lang/reflect/Method.html')" stroke="none">Method</text>
    </g>
    <g fill="rgb(238,238,255)" transform="matrix(0.4534,0,0,0.4534,106.9962,252.9826)" stroke="rgb(238,238,255)">
      <rect width="76.1412" x="765.61" height="17.9688" y="61.1328" stroke="none"/>
    </g>
    <g fill="rgb(166,166,178)" stroke-miterlimit="1.45" transform="matrix(0.4534,0,0,0.4534,106.9962,252.9826)" stroke-linecap="butt" stroke="rgb(166,166,178)">
      <rect fill="none" width="76.1412" x="765.61" height="17.9688" y="61.1328"/>
    </g>
    <g fill="rgb(238,238,255)" transform="matrix(0.4534,0,0,0.4534,106.9962,252.9826)" stroke="rgb(238,238,255)">
      <rect width="79.68" x="765.61" height="39.1641" y="79.1016" stroke="none"/>
    </g>
    <g fill="rgb(166,166,178)" stroke-miterlimit="1.45" transform="matrix(0.4534,0,0,0.4534,106.9962,252.9826)" stroke-linecap="butt" stroke="rgb(166,166,178)">
      <rect fill="none" width="79.68" x="765.61" height="39.1641" y="79.1016"/>
    </g>
    <g font-family="sans-serif" transform="matrix(0.4534,0,0,0.4534,106.9962,252.9826)">
      <text xml:space="preserve" x="771.61" y="74.2715" onclick="umlload('http://docs.oracle.com/javase/6/docs/api/java/lang/package-summary.html')" stroke="none">java.lang</text>
    </g>
    <g fill="rgb(187,187,255)" transform="matrix(0.4534,0,0,0.4534,106.9962,252.9826)" stroke="rgb(187,187,255)">
      <rect x="773.61" y="87.1328" clip-path="url(#clipPath4)" width="57.68" height="23.1328" stroke="none"/>
    </g>
    <g fill="rgb(130,130,178)" stroke-miterlimit="1.45" transform="matrix(0.4534,0,0,0.4534,106.9962,252.9826)" stroke-linecap="butt" stroke="rgb(130,130,178)">
      <rect fill="none" width="57.68" x="773.61" height="23.1328" y="87.1328"/>
    </g>
    <g font-size="13" font-weight="bold" font-family="sans-serif" transform="matrix(0.4534,0,0,0.4534,106.9962,252.9826)">
      <text xml:space="preserve" x="778.45" y="103.1997" onclick="umlload('http://docs.oracle.com/javase/6/docs/api/java/lang/Object.html')" stroke="none">Object</text>
    </g>
    <g fill="rgb(238,238,255)" transform="matrix(0.4534,0,0,0.4534,106.9962,252.9826)" stroke="rgb(238,238,255)">
      <rect width="308.4783" x="765.61" height="17.9688" y="-26" stroke="none"/>
    </g>
    <g fill="rgb(166,166,178)" stroke-miterlimit="1.45" transform="matrix(0.4534,0,0,0.4534,106.9962,252.9826)" stroke-linecap="butt" stroke="rgb(166,166,178)">
      <rect fill="none" width="308.4783" x="765.61" height="17.9688" y="-26"/>
    </g>
    <g fill="rgb(238,238,255)" transform="matrix(0.4534,0,0,0.4534,106.9962,252.9826)" stroke="rgb(238,238,255)">
      <rect width="308.62" x="765.61" height="39.1641" y="-8.0312" stroke="none"/>
    </g>
    <g fill="rgb(166,166,178)" stroke-miterlimit="1.45" transform="matrix(0.4534,0,0,0.4534,106.9962,252.9826)" stroke-linecap="butt" stroke="rgb(166,166,178)">
      <rect fill="none" width="308.62" x="765.61" height="39.1641" y="-8.0312"/>
    </g>
    <g font-family="sans-serif" transform="matrix(0.4534,0,0,0.4534,106.9962,252.9826)">
      <text xml:space="preserve" x="771.61" y="-12.8613" onclick="umlload('../../../../../../com/msopentech/odatajclient/proxy/api/impl/package-summary.html')" stroke="none">com.msopentech.odatajclient.proxy.api.impl</text>
    </g>
    <g fill="rgb(187,187,255)" transform="matrix(0.4534,0,0,0.4534,106.9962,252.9826)" stroke="rgb(187,187,255)">
      <rect x="773.61" y="0" clip-path="url(#clipPath5)" width="261.62" height="23.1328" stroke="none"/>
    </g>
    <g fill="rgb(130,130,178)" stroke-miterlimit="1.45" transform="matrix(0.4534,0,0,0.4534,106.9962,252.9826)" stroke-linecap="butt" stroke="rgb(130,130,178)">
      <rect fill="none" width="261.62" x="773.61" height="23.1328" y="0"/>
    </g>
    <g font-size="13" font-weight="bold" font-family="sans-serif" transform="matrix(0.4534,0,0,0.4534,106.9962,252.9826)">
      <text xml:space="preserve" x="781.42" y="16.0669" onclick="umlload('../../../../../../com/msopentech/odatajclient/proxy/api/impl/EntityContainerInvocationHandler.html')" stroke="none">EntityContainerInvocationHandler</text>
    </g>
    <g fill="rgb(238,238,255)" transform="matrix(0.4534,0,0,0.4534,106.9962,252.9826)" stroke="rgb(238,238,255)">
      <rect width="67.654" x="-235.687" height="17.9688" y="181.3984" stroke="none"/>
    </g>
    <g fill="rgb(166,166,178)" stroke-miterlimit="1.45" transform="matrix(0.4534,0,0,0.4534,106.9962,252.9826)" stroke-linecap="butt" stroke="rgb(166,166,178)">
      <rect fill="none" width="67.654" x="-235.687" height="17.9688" y="181.3984"/>
    </g>
    <g fill="rgb(238,238,255)" transform="matrix(0.4534,0,0,0.4534,106.9962,252.9826)" stroke="rgb(238,238,255)">
      <rect width="177.687" x="-235.687" height="48.746" y="199.3672" stroke="none"/>
    </g>
    <g fill="rgb(166,166,178)" stroke-miterlimit="1.45" transform="matrix(0.4534,0,0,0.4534,106.9962,252.9826)" stroke-linecap="butt" stroke="rgb(166,166,178)">
      <rect fill="none" width="177.687" x="-235.687" height="48.746" y="199.3672"/>
    </g>
    <g font-family="sans-serif" transform="matrix(0.4534,0,0,0.4534,106.9962,252.9826)">
      <text xml:space="preserve" x="-229.687" y="194.5371" onclick="umlload('http://docs.oracle.com/javase/6/docs/api/java/util/package-summary.html')" stroke="none">java.util</text>
    </g>
    <g fill="rgb(221,221,255)" transform="matrix(0.4534,0,0,0.4534,106.9962,252.9826)" stroke="rgb(221,221,255)">
      <rect x="-227.687" y="207.3984" clip-path="url(#clipPath6)" width="161.687" height="32.7147" stroke="none"/>
    </g>
    <g fill="rgb(154,154,178)" stroke-miterlimit="1.45" transform="matrix(0.4534,0,0,0.4534,106.9962,252.9826)" stroke-linecap="butt" stroke="rgb(154,154,178)">
      <ellipse rx="80.8435" fill="none" ry="16.3574" cx="-146.8435" cy="223.7558"/>
    </g>
    <g font-style="italic" font-size="13" font-weight="bold" font-family="sans-serif" transform="matrix(0.4534,0,0,0.4534,106.9962,252.9826)">
      <text xml:space="preserve" x="-198.3435" y="228.2563" onclick="umlload('http://docs.oracle.com/javase/6/docs/api/java/util/Collection.html')" stroke="none">Collection&lt;E&gt;</text>
    </g>
    <g fill="rgb(238,238,255)" transform="matrix(0.4534,0,0,0.4534,106.9962,252.9826)" stroke="rgb(238,238,255)">
      <rect width="69.7758" x="-131.86" height="17.9688" y="94.2656" stroke="none"/>
    </g>
    <g fill="rgb(166,166,178)" stroke-miterlimit="1.45" transform="matrix(0.4534,0,0,0.4534,106.9962,252.9826)" stroke-linecap="butt" stroke="rgb(166,166,178)">
      <rect fill="none" width="69.7758" x="-131.86" height="17.9688" y="94.2656"/>
    </g>
    <g fill="rgb(238,238,255)" transform="matrix(0.4534,0,0,0.4534,106.9962,252.9826)" stroke="rgb(238,238,255)">
      <rect width="73.96" x="-131.86" height="39.1641" y="112.2344" stroke="none"/>
    </g>
    <g fill="rgb(166,166,178)" stroke-miterlimit="1.45" transform="matrix(0.4534,0,0,0.4534,106.9962,252.9826)" stroke-linecap="butt" stroke="rgb(166,166,178)">
      <rect fill="none" width="73.96" x="-131.86" height="39.1641" y="112.2344"/>
    </g>
    <g font-family="sans-serif" transform="matrix(0.4534,0,0,0.4534,106.9962,252.9826)">
      <text xml:space="preserve" x="-125.86" y="107.4043" onclick="umlload('http://docs.oracle.com/javase/6/docs/api/java/net/package-summary.html')" stroke="none">java.net</text>
    </g>
    <g fill="rgb(187,187,255)" transform="matrix(0.4534,0,0,0.4534,106.9962,252.9826)" stroke="rgb(187,187,255)">
      <rect x="-123.86" y="120.2656" clip-path="url(#clipPath7)" width="32.96" height="23.1328" stroke="none"/>
    </g>
    <g fill="rgb(130,130,178)" stroke-miterlimit="1.45" transform="matrix(0.4534,0,0,0.4534,106.9962,252.9826)" stroke-linecap="butt" stroke="rgb(130,130,178)">
      <rect fill="none" width="32.96" x="-123.86" height="23.1328" y="120.2656"/>
    </g>
    <g font-size="13" font-weight="bold" font-family="sans-serif" transform="matrix(0.4534,0,0,0.4534,106.9962,252.9826)">
      <text xml:space="preserve" x="-119.38" y="136.3325" onclick="umlload('http://docs.oracle.com/javase/6/docs/api/java/net/URI.html')" stroke="none">URI</text>
    </g>
    <g fill="rgb(238,238,255)" transform="matrix(0.4534,0,0,0.4534,106.9962,252.9826)" stroke="rgb(238,238,255)">
      <rect width="76.1412" x="-153.31" height="17.9688" y="-26" stroke="none"/>
    </g>
    <g fill="rgb(166,166,178)" stroke-miterlimit="1.45" transform="matrix(0.4534,0,0,0.4534,106.9962,252.9826)" stroke-linecap="butt" stroke="rgb(166,166,178)">
      <rect fill="none" width="76.1412" x="-153.31" height="17.9688" y="-26"/>
    </g>
    <g fill="rgb(238,238,255)" transform="matrix(0.4534,0,0,0.4534,106.9962,252.9826)" stroke="rgb(238,238,255)">
      <rect width="95.31" x="-153.31" height="72.2969" y="-8.0312" stroke="none"/>
    </g>
    <g fill="rgb(166,166,178)" stroke-miterlimit="1.45" transform="matrix(0.4534,0,0,0.4534,106.9962,252.9826)" stroke-linecap="butt" stroke="rgb(166,166,178)">
      <rect fill="none" width="95.31" x="-153.31" height="72.2969" y="-8.0312"/>
    </g>
    <g font-family="sans-serif" transform="matrix(0.4534,0,0,0.4534,106.9962,252.9826)">
      <text xml:space="preserve" x="-147.31" y="-12.8613" onclick="umlload('http://docs.oracle.com/javase/6/docs/api/java/lang/package-summary.html')" stroke="none">java.lang</text>
    </g>
    <g fill="rgb(187,187,255)" transform="matrix(0.4534,0,0,0.4534,106.9962,252.9826)" stroke="rgb(187,187,255)">
      <rect x="-145.31" y="0" clip-path="url(#clipPath8)" width="79.31" height="23.1328" stroke="none"/>
    </g>
    <g fill="rgb(130,130,178)" stroke-miterlimit="1.45" transform="matrix(0.4534,0,0,0.4534,106.9962,252.9826)" stroke-linecap="butt" stroke="rgb(130,130,178)">
      <rect fill="none" width="79.31" x="-145.31" height="23.1328" y="0"/>
    </g>
    <g font-size="13" font-weight="bold" font-family="sans-serif" transform="matrix(0.4534,0,0,0.4534,106.9962,252.9826)">
      <text xml:space="preserve" x="-140.155" y="16.0669" onclick="umlload('http://docs.oracle.com/javase/6/docs/api/java/lang/Class.html')" stroke="none">Class&lt;T&gt;</text>
    </g>
    <g fill="rgb(187,187,255)" transform="matrix(0.4534,0,0,0.4534,106.9962,252.9826)" stroke="rgb(187,187,255)">
      <rect x="-145.31" y="33.1328" clip-path="url(#clipPath9)" width="53.56" height="23.1328" stroke="none"/>
    </g>
    <g fill="rgb(130,130,178)" stroke-miterlimit="1.45" transform="matrix(0.4534,0,0,0.4534,106.9962,252.9826)" stroke-linecap="butt" stroke="rgb(130,130,178)">
      <rect fill="none" width="53.56" x="-145.31" height="23.1328" y="33.1328"/>
    </g>
    <g font-size="13" font-weight="bold" font-family="sans-serif" transform="matrix(0.4534,0,0,0.4534,106.9962,252.9826)">
      <text xml:space="preserve" x="-140.53" y="49.1997" onclick="umlload('http://docs.oracle.com/javase/6/docs/api/java/lang/String.html')" stroke="none">String</text>
    </g>
    <g fill="rgb(238,238,255)" transform="matrix(0.4534,0,0,0.4534,106.9962,252.9826)" stroke="rgb(238,238,255)">
      <rect width="277.7122" x="531.61" height="17.9688" y="-142.7147" stroke="none"/>
    </g>
    <g fill="rgb(166,166,178)" stroke-miterlimit="1.45" transform="matrix(0.4534,0,0,0.4534,106.9962,252.9826)" stroke-linecap="butt" stroke="rgb(166,166,178)">
      <rect fill="none" width="277.7122" x="531.61" height="17.9688" y="-142.7147"/>
    </g>
    <g fill="rgb(238,238,255)" transform="matrix(0.4534,0,0,0.4534,106.9962,252.9826)" stroke="rgb(238,238,255)">
      <rect width="550.5869" x="531.61" height="48.746" y="-124.746" stroke="none"/>
    </g>
    <g fill="rgb(166,166,178)" stroke-miterlimit="1.45" transform="matrix(0.4534,0,0,0.4534,106.9962,252.9826)" stroke-linecap="butt" stroke="rgb(166,166,178)">
      <rect fill="none" width="550.5869" x="531.61" height="48.746" y="-124.746"/>
    </g>
    <g font-family="sans-serif" transform="matrix(0.4534,0,0,0.4534,106.9962,252.9826)">
      <text xml:space="preserve" x="537.61" y="-129.5761" onclick="umlload('../../../../../../com/msopentech/odatajclient/proxy/api/package-summary.html')" stroke="none">com.msopentech.odatajclient.proxy.api</text>
    </g>
    <g fill="rgb(221,221,255)" transform="matrix(0.4534,0,0,0.4534,106.9962,252.9826)" stroke="rgb(221,221,255)">
      <rect x="539.61" y="-116.7147" clip-path="url(#clipPath10)" width="534.5869" height="32.7147" stroke="none"/>
    </g>
    <g fill="rgb(154,154,178)" stroke-miterlimit="1.45" transform="matrix(0.4534,0,0,0.4534,106.9962,252.9826)" stroke-linecap="butt" stroke="rgb(154,154,178)">
      <ellipse rx="267.2934" fill="none" ry="16.3574" cx="806.9034" cy="-100.3574"/>
    </g>
    <g font-style="italic" font-size="13" font-weight="bold" font-family="sans-serif" transform="matrix(0.4534,0,0,0.4534,106.9962,252.9826)">
      <text xml:space="preserve" x="627.4034" y="-95.8569" onclick="umlload('../../../../../../com/msopentech/odatajclient/proxy/api/AbstractEntityCollection.html')" stroke="none">AbstractEntityCollection&lt;T extends Serializable&gt;</text>
    </g>
    <g fill="rgb(238,238,255)" transform="matrix(0.4534,0,0,0.4534,106.9962,252.9826)" stroke="rgb(238,238,255)">
      <rect width="308.4783" x="205.745" height="17.9688" y="-133.1328" stroke="none"/>
    </g>
    <g fill="rgb(166,166,178)" stroke-miterlimit="1.45" transform="matrix(0.4534,0,0,0.4534,106.9962,252.9826)" stroke-linecap="butt" stroke="rgb(166,166,178)">
      <rect fill="none" width="308.4783" x="205.745" height="17.9688" y="-133.1328"/>
    </g>
    <g fill="rgb(238,238,255)" transform="matrix(0.4534,0,0,0.4534,106.9962,252.9826)" stroke="rgb(238,238,255)">
      <rect width="309.12" x="205.745" height="39.1641" y="-115.1641" stroke="none"/>
    </g>
    <g fill="rgb(166,166,178)" stroke-miterlimit="1.45" transform="matrix(0.4534,0,0,0.4534,106.9962,252.9826)" stroke-linecap="butt" stroke="rgb(166,166,178)">
      <rect fill="none" width="309.12" x="205.745" height="39.1641" y="-115.1641"/>
    </g>
    <g font-family="sans-serif" transform="matrix(0.4534,0,0,0.4534,106.9962,252.9826)">
      <text xml:space="preserve" x="211.745" y="-119.9941" onclick="umlload('../../../../../../com/msopentech/odatajclient/proxy/api/impl/package-summary.html')" stroke="none">com.msopentech.odatajclient.proxy.api.impl</text>
    </g>
    <g fill="rgb(204,204,255)" transform="matrix(0.4534,0,0,0.4534,106.9962,252.9826)" stroke="rgb(204,204,255)">
      <rect x="248.745" y="-107.1328" clip-path="url(#clipPath11)" width="210.12" height="23.1328" stroke="none"/>
    </g>
    <g fill="rgb(142,142,178)" stroke-miterlimit="1.45" transform="matrix(0.4534,0,0,0.4534,106.9962,252.9826)" stroke-linecap="butt" stroke="rgb(142,142,178)">
      <rect fill="none" width="210.12" x="248.745" height="23.1328" y="-107.1328"/>
    </g>
    <g font-size="13" font-weight="bold" font-family="sans-serif" transform="matrix(0.4534,0,0,0.4534,106.9962,252.9826)">
      <text xml:space="preserve" x="255.805" y="-91.0659" stroke="none">AbstractInvocationHandler</text>
    </g>
    <g fill="rgb(238,238,255)" transform="matrix(0.4534,0,0,0.4534,106.9962,252.9826)" stroke="rgb(238,238,255)">
      <rect width="308.4783" x="-8" height="17.9688" y="-26" stroke="none"/>
    </g>
    <g fill="rgb(166,166,178)" stroke-miterlimit="1.45" transform="matrix(0.4534,0,0,0.4534,106.9962,252.9826)" stroke-linecap="butt" stroke="rgb(166,166,178)">
      <rect fill="none" width="308.4783" x="-8" height="17.9688" y="-26"/>
    </g>
    <g fill="rgb(238,238,255)" transform="matrix(0.4534,0,0,0.4534,106.9962,252.9826)" stroke="rgb(238,238,255)">
      <rect width="723.61" x="-8" height="318.1444" y="-8.0312" stroke="none"/>
    </g>
    <g fill="rgb(166,166,178)" stroke-miterlimit="1.45" transform="matrix(0.4534,0,0,0.4534,106.9962,252.9826)" stroke-linecap="butt" stroke="rgb(166,166,178)">
      <rect fill="none" width="723.61" x="-8" height="318.1444" y="-8.0312"/>
    </g>
    <g font-family="sans-serif" transform="matrix(0.4534,0,0,0.4534,106.9962,252.9826)">
      <text xml:space="preserve" x="-2" y="-12.8613" onclick="umlload('package-summary.html')" stroke="none">com.msopentech.odatajclient.proxy.api.impl</text>
    </g>
    <g fill="rgb(187,187,255)" transform="matrix(0.4534,0,0,0.4534,106.9962,252.9826)" stroke="rgb(187,187,255)">
      <rect x="0" y="0" clip-path="url(#clipPath12)" width="707.61" height="26.625" stroke="none"/>
      <line clip-path="url(#clipPath12)" fill="none" x1="0" x2="707.61" y1="26.625" y2="26.625" stroke="black"/>
      <line clip-path="url(#clipPath12)" x1="0" x2="707.61" y1="27.625" y2="27.625" stroke="none"/>
      <line clip-path="url(#clipPath12)" fill="none" x1="0" x2="707.61" y1="27.625" y2="27.625" stroke="black"/>
      <rect x="0" y="28.625" clip-path="url(#clipPath12)" width="707.61" height="273.4882" stroke="none"/>
    </g>
    <g fill="rgb(130,130,178)" stroke-miterlimit="1.45" transform="matrix(0.4534,0,0,0.4534,106.9962,252.9826)" stroke-linecap="butt" stroke="rgb(130,130,178)">
      <rect fill="none" width="707.61" x="0" height="302.1132" y="0"/>
    </g>
    <g font-size="16" font-weight="bold" font-family="sans-serif" transform="matrix(0.4534,0,0,0.4534,106.9962,252.9826)">
      <text xml:space="preserve" x="96.805" y="18.8516" onclick="umlload('#')" stroke="none">EntityCollectionInvocationHandler&lt;T extends Serializable&gt;</text>
    </g>
    <g font-family="sans-serif" transform="matrix(0.4534,0,0,0.4534,106.9962,252.9826)">
      <text xml:space="preserve" x="4" y="39.1719" stroke="none">+</text>
      <text xml:space="preserve" x="19" y="40.7637" stroke="none">EntityCollectionInvocationHandler(EntityContainerInvocationHandler, Collection&lt;T&gt;, Class&lt;?&gt;, String)</text>
    </g>
    <g font-family="sans-serif" transform="matrix(0.4534,0,0,0.4534,106.9962,252.9826)">
      <text xml:space="preserve" x="4" y="55.1719" stroke="none">+</text>
      <text xml:space="preserve" x="19" y="56.7324" stroke="none">EntityCollectionInvocationHandler(EntityContainerInvocationHandler, Collection&lt;T&gt;, Class&lt;?&gt;, String, URI)</text>
    </g>
    <g font-family="sans-serif" transform="matrix(0.4534,0,0,0.4534,106.9962,252.9826)">
      <text xml:space="preserve" x="4" y="71.1719" stroke="none">+</text>
      <text xml:space="preserve" x="19" y="72.7012" onclick="umlload('#add(T)')" stroke="none">add(T) : boolean</text>
    </g>
    <g font-family="sans-serif" transform="matrix(0.4534,0,0,0.4534,106.9962,252.9826)">
      <text xml:space="preserve" x="4" y="87.1719" stroke="none">+</text>
      <text xml:space="preserve" x="19" y="88.6699" onclick="umlload('#addAll(java.util.Collection)')" stroke="none">addAll(Collection&lt;? extends T&gt;) : boolean</text>
    </g>
    <g font-family="sans-serif" transform="matrix(0.4534,0,0,0.4534,106.9962,252.9826)">
      <text xml:space="preserve" x="4" y="103.1719" stroke="none">+</text>
      <text xml:space="preserve" x="19" y="104.6387" onclick="umlload('#clear()')" stroke="none">clear() : void</text>
    </g>
    <g font-family="sans-serif" transform="matrix(0.4534,0,0,0.4534,106.9962,252.9826)">
      <text xml:space="preserve" x="4" y="119.1719" stroke="none">+</text>
      <text xml:space="preserve" x="19" y="120.6074" onclick="umlload('#contains(java.lang.Object)')" stroke="none">contains(Object) : boolean</text>
    </g>
    <g font-family="sans-serif" transform="matrix(0.4534,0,0,0.4534,106.9962,252.9826)">
      <text xml:space="preserve" x="4" y="135.1719" stroke="none">+</text>
      <text xml:space="preserve" x="19" y="136.5762" onclick="umlload('#containsAll(java.util.Collection)')" stroke="none">containsAll(Collection&lt;?&gt;) : boolean</text>
    </g>
    <g font-family="sans-serif" transform="matrix(0.4534,0,0,0.4534,106.9962,252.9826)">
      <text xml:space="preserve" x="4" y="151.1719" stroke="none">+</text>
      <text xml:space="preserve" x="19" y="152.5449" onclick="umlload('#invoke(java.lang.Object, java.lang.reflect.Method, java.lang.Object[])')" stroke="none">invoke(Object, Method, Object[]) : Object</text>
    </g>
    <g font-family="sans-serif" transform="matrix(0.4534,0,0,0.4534,106.9962,252.9826)">
      <text xml:space="preserve" x="4" y="167.1719" stroke="none">+</text>
      <text xml:space="preserve" x="19" y="168.5137" onclick="umlload('#isEmpty()')" stroke="none">isEmpty() : boolean</text>
    </g>
    <g font-family="sans-serif" transform="matrix(0.4534,0,0,0.4534,106.9962,252.9826)">
      <text xml:space="preserve" x="4" y="183.1719" stroke="none">+</text>
      <text xml:space="preserve" x="19" y="184.4824" onclick="umlload('#iterator()')" stroke="none">iterator() : Iterator&lt;T extends Serializable&gt;</text>
    </g>
    <g font-family="sans-serif" transform="matrix(0.4534,0,0,0.4534,106.9962,252.9826)">
      <text xml:space="preserve" x="4" y="199.1719" stroke="none">+</text>
      <text xml:space="preserve" x="19" y="200.4512" onclick="umlload('#remove(java.lang.Object)')" stroke="none">remove(Object) : boolean</text>
    </g>
    <g font-family="sans-serif" transform="matrix(0.4534,0,0,0.4534,106.9962,252.9826)">
      <text xml:space="preserve" x="4" y="215.1719" stroke="none">+</text>
      <text xml:space="preserve" x="19" y="216.4199" onclick="umlload('#removeAll(java.util.Collection)')" stroke="none">removeAll(Collection&lt;?&gt;) : boolean</text>
    </g>
    <g font-family="sans-serif" transform="matrix(0.4534,0,0,0.4534,106.9962,252.9826)">
      <text xml:space="preserve" x="4" y="231.1719" stroke="none">+</text>
      <text xml:space="preserve" x="19" y="232.3887" onclick="umlload('#retainAll(java.util.Collection)')" stroke="none">retainAll(Collection&lt;?&gt;) : boolean</text>
    </g>
    <g font-family="sans-serif" transform="matrix(0.4534,0,0,0.4534,106.9962,252.9826)">
      <text xml:space="preserve" x="4" y="247.1719" stroke="none">+</text>
      <text xml:space="preserve" x="19" y="248.3574" onclick="umlload('#size()')" stroke="none">size() : int</text>
    </g>
    <g font-family="sans-serif" transform="matrix(0.4534,0,0,0.4534,106.9962,252.9826)">
      <text xml:space="preserve" x="4" y="263.1719" stroke="none">+</text>
      <text xml:space="preserve" x="19" y="264.3262" onclick="umlload('#toArray()')" stroke="none">toArray() : Object[]</text>
    </g>
    <g font-family="sans-serif" transform="matrix(0.4534,0,0,0.4534,106.9962,252.9826)">
      <text xml:space="preserve" x="4" y="279.1719" stroke="none">+</text>
      <text xml:space="preserve" x="19" y="280.2949" onclick="umlload('#toArray(T[])')" stroke="none">toArray(T[]) : &lt;T&gt; Object[]</text>
    </g>
    <g font-family="sans-serif" transform="matrix(0.4534,0,0,0.4534,106.9962,252.9826)">
      <text xml:space="preserve" x="-230" y="335.1543" onclick="umlload('http://www.yworks.com/')" stroke="none">yWorks UML Doclet</text>
    </g>
    <g stroke-miterlimit="1.45" transform="matrix(0.4534,0,0,0.4534,106.9962,252.9826)" stroke-linecap="butt">
      <path fill="none" d="M353.805 0.0131 L353.805 -69"/>
      <path fill="white" d="M353.805 -84 L347.805 -68 L359.805 -68 Z" stroke="none"/>
      <path fill="none" d="M353.805 -84 L347.805 -68 L359.805 -68 Z"/>
      <path fill="none" stroke-dasharray="6,2" d="M530.7075 0.0466 L530.7075 -51 L806.9034 -51 L806.9034 -69"/>
      <path fill="white" stroke-dasharray="6,2" d="M806.9034 -84 L800.9034 -68 L812.9034 -68 Z" stroke="none"/>
      <path fill="none" d="M806.9034 -84 L800.9034 -68 L812.9034 -68 Z"/>
      <path fill="none" d="M-0.0162 11.5664 L-66 11.5664"/>
      <line stroke-linecap="square" transform="matrix(-1,0,0,-1,-66,11.5664)" fill="none" x1="0" x2="-14" y1="0" y2="-4" stroke-miterlimit="10"/>
      <line stroke-linecap="square" transform="matrix(-1,0,0,-1,-66,11.5664)" fill="none" x1="0" x2="-14" y1="0" y2="4" stroke-miterlimit="10"/>
    </g>
    <g stroke-miterlimit="1.45" transform="matrix(0.4534,0,0,0.4534,106.9962,252.9826)" stroke-linecap="butt">
      <path fill="none" d="M-0.0138 44.6992 L-91.75 44.6992"/>
      <line stroke-linecap="square" transform="matrix(-1,0,0,-1,-91.75,44.6992)" fill="none" x1="0" x2="-14" y1="0" y2="-4" stroke-miterlimit="10"/>
      <line stroke-linecap="square" transform="matrix(-1,0,0,-1,-91.75,44.6992)" fill="none" x1="0" x2="-14" y1="0" y2="4" stroke-miterlimit="10"/>
    </g>
    <g stroke-miterlimit="1.45" transform="matrix(0.4534,0,0,0.4534,106.9962,252.9826)" stroke-linecap="butt">
      <path fill="none" d="M0.0065 131.832 L-90.9 131.832"/>
      <line stroke-linecap="square" transform="matrix(-1,0,0,-1,-90.9,131.832)" fill="none" x1="0" x2="-14" y1="0" y2="-4" stroke-miterlimit="10"/>
      <line stroke-linecap="square" transform="matrix(-1,0,0,-1,-90.9,131.832)" fill="none" x1="0" x2="-14" y1="0" y2="4" stroke-miterlimit="10"/>
    </g>
    <g stroke-miterlimit="1.45" transform="matrix(0.4534,0,0,0.4534,106.9962,252.9826)" stroke-linecap="butt">
      <path fill="none" d="M-0.0164 223.7558 L-66 223.7558"/>
      <line stroke-linecap="square" transform="matrix(-1,0,0,-1,-66,223.7558)" fill="none" x1="0" x2="-14" y1="0" y2="-4" stroke-miterlimit="10"/>
      <line stroke-linecap="square" transform="matrix(-1,0,0,-1,-66,223.7558)" fill="none" x1="0" x2="-14" y1="0" y2="4" stroke-miterlimit="10"/>
    </g>
    <g stroke-dasharray="6,2" stroke-miterlimit="1.45" transform="matrix(0.4534,0,0,0.4534,106.9962,252.9826)" stroke-linecap="butt">
      <path fill="none" d="M707.5845 11.5664 L773.61 11.5664"/>
      <line stroke-linecap="square" transform="matrix(1,0,0,1,773.61,11.5664)" fill="none" x1="0" x2="-14" y1="0" y2="-4" stroke-dasharray="none" stroke-miterlimit="10"/>
      <line stroke-linecap="square" transform="matrix(1,0,0,1,773.61,11.5664)" fill="none" x1="0" x2="-14" y1="0" y2="4" stroke-dasharray="none" stroke-miterlimit="10"/>
    </g>
    <g stroke-dasharray="6,2" stroke-miterlimit="1.45" transform="matrix(0.4534,0,0,0.4534,106.9962,252.9826)" stroke-linecap="butt">
      <path fill="none" d="M707.6223 98.6992 L773.61 98.6992"/>
      <line stroke-linecap="square" transform="matrix(1,0,0,1,773.61,98.6992)" fill="none" x1="0" x2="-14" y1="0" y2="-4" stroke-dasharray="none" stroke-miterlimit="10"/>
      <line stroke-linecap="square" transform="matrix(1,0,0,1,773.61,98.6992)" fill="none" x1="0" x2="-14" y1="0" y2="4" stroke-dasharray="none" stroke-miterlimit="10"/>
    </g>
    <g stroke-dasharray="6,2" stroke-miterlimit="1.45" transform="matrix(0.4534,0,0,0.4534,106.9962,252.9826)" stroke-linecap="butt">
      <path fill="none" d="M707.6105 185.832 L773.61 185.832"/>
      <line stroke-linecap="square" transform="matrix(1,0,0,1,773.61,185.832)" fill="none" x1="0" x2="-14" y1="0" y2="-4" stroke-dasharray="none" stroke-miterlimit="10"/>
      <line stroke-linecap="square" transform="matrix(1,0,0,1,773.61,185.832)" fill="none" x1="0" x2="-14" y1="0" y2="4" stroke-dasharray="none" stroke-miterlimit="10"/>
    </g>
    <g stroke-dasharray="6,2" stroke-miterlimit="1.45" transform="matrix(0.4534,0,0,0.4534,106.9962,252.9826)" stroke-linecap="butt">
      <path fill="none" d="M707.6283 277.7558 L773.61 277.7558"/>
      <line stroke-linecap="square" transform="matrix(1,0,0,1,773.61,277.7558)" fill="none" x1="0" x2="-14" y1="0" y2="-4" stroke-dasharray="none" stroke-miterlimit="10"/>
      <line stroke-linecap="square" transform="matrix(1,0,0,1,773.61,277.7558)" fill="none" x1="0" x2="-14" y1="0" y2="4" stroke-dasharray="none" stroke-miterlimit="10"/>
    </g>
  </g>
</svg>
