<?xml version="1.0" encoding="UTF-8"?><svg xmlns="http://www.w3.org/2000/svg" xmlns:xlink="http://www.w3.org/1999/xlink" fill-opacity="1" color-rendering="auto" color-interpolation="auto" stroke="black" text-rendering="auto" stroke-linecap="square" width="598" stroke-miterlimit="10" stroke-opacity="1" shape-rendering="auto" fill="black" stroke-dasharray="none" font-weight="normal" stroke-width="1" height="598" font-family="'Dialog'" font-style="normal" stroke-linejoin="miter" font-size="12" stroke-dashoffset="0" image-rendering="auto">
  <!--Generated by ySVG-->
  <defs id="genericDefs"/>
  <g>
    <defs id="defs1">
      <clipPath clipPathUnits="userSpaceOnUse" id="clipPath1">
        <path d="M0 0 L598 0 L598 598 L0 598 L0 0 Z"/>
      </clipPath>
      <clipPath clipPathUnits="userSpaceOnUse" id="clipPath2">
        <path d="M8 26 L460.17 26 L460.17 49.1328 L8 49.1328 L8 26 Z"/>
      </clipPath>
      <clipPath clipPathUnits="userSpaceOnUse" id="clipPath3">
        <path d="M8 94.1328 L269.62 94.1328 L269.62 117.2656 L8 117.2656 L8 94.1328 Z"/>
      </clipPath>
      <clipPath clipPathUnits="userSpaceOnUse" id="clipPath4">
        <path d="M8 162.2656 L232.54 162.2656 L232.54 185.3984 L8 185.3984 L8 162.2656 Z"/>
      </clipPath>
      <clipPath clipPathUnits="userSpaceOnUse" id="clipPath5">
        <path d="M8 230.3984 L597.16 230.3984 L597.16 253.5312 L8 253.5312 L8 230.3984 Z"/>
      </clipPath>
      <script type="text/ecmascript"><![CDATA[
function umlload(newLocation)
{
if (newLocation.charAt(0) != '#') {
if (newLocation.indexOf("://") > -1) {
window.parent.location.href = newLocation;
} else {
var tmp = window.parent.location.href;
tmp = tmp.substring(0, tmp.lastIndexOf("/") + 1);
window.parent.location.href = tmp.concat(newLocation);
}
} else {
window.parent.location.hash = newLocation;
}
}
]]></script>
    </defs>
    <g fill="rgb(238,238,255)" transform="matrix(0.9868,0,0,0.9868,0,151.967)" stroke="rgb(238,238,255)">
      <rect width="308.4783" x="0" height="17.9688" y="0" stroke="none"/>
    </g>
    <g fill="rgb(166,166,178)" stroke-miterlimit="1.45" transform="matrix(0.9868,0,0,0.9868,0,151.967)" stroke-linecap="butt" stroke="rgb(166,166,178)">
      <rect fill="none" width="308.4783" x="0" height="17.9688" y="0"/>
    </g>
    <g fill="rgb(238,238,255)" transform="matrix(0.9868,0,0,0.9868,0,151.967)" stroke="rgb(238,238,255)">
      <rect width="605.16" x="0" height="243.5625" y="17.9688" stroke="none"/>
    </g>
    <g fill="rgb(166,166,178)" stroke-miterlimit="1.45" transform="matrix(0.9868,0,0,0.9868,0,151.967)" stroke-linecap="butt" stroke="rgb(166,166,178)">
      <rect fill="none" width="605.16" x="0" height="243.5625" y="17.9688"/>
    </g>
    <g font-family="sans-serif" transform="matrix(0.9868,0,0,0.9868,0,151.967)">
      <text xml:space="preserve" x="6" y="13.1387" onclick="umlload('#')" stroke="none">com.msopentech.odatajclient.proxy.api.impl</text>
    </g>
    <g fill="rgb(187,187,255)" transform="matrix(0.9868,0,0,0.9868,0,151.967)" stroke="rgb(187,187,255)">
      <rect x="8" y="26" clip-path="url(#clipPath2)" width="452.17" height="23.1328" stroke="none"/>
    </g>
    <g fill="rgb(130,130,178)" stroke-miterlimit="1.45" transform="matrix(0.9868,0,0,0.9868,0,151.967)" stroke-linecap="butt" stroke="rgb(130,130,178)">
      <rect fill="none" width="452.17" x="8" height="23.1328" y="26"/>
    </g>
    <g font-size="13" font-weight="bold" font-family="sans-serif" transform="matrix(0.9868,0,0,0.9868,0,151.967)">
      <text xml:space="preserve" x="18.585" y="42.0669" onclick="umlload('EntityCollectionInvocationHandler.html')" stroke="none">EntityCollectionInvocationHandler&lt;T extends Serializable&gt;</text>
    </g>
    <g fill="rgb(187,187,255)" transform="matrix(0.9868,0,0,0.9868,0,151.967)" stroke="rgb(187,187,255)">
      <rect x="8" y="94.1328" clip-path="url(#clipPath3)" width="261.62" height="23.1328" stroke="none"/>
    </g>
    <g fill="rgb(130,130,178)" stroke-miterlimit="1.45" transform="matrix(0.9868,0,0,0.9868,0,151.967)" stroke-linecap="butt" stroke="rgb(130,130,178)">
      <rect fill="none" width="261.62" x="8" height="23.1328" y="94.1328"/>
    </g>
    <g font-size="13" font-weight="bold" font-family="sans-serif" transform="matrix(0.9868,0,0,0.9868,0,151.967)">
      <text xml:space="preserve" x="15.81" y="110.1997" onclick="umlload('EntityContainerInvocationHandler.html')" stroke="none">EntityContainerInvocationHandler</text>
    </g>
    <g fill="rgb(187,187,255)" transform="matrix(0.9868,0,0,0.9868,0,151.967)" stroke="rgb(187,187,255)">
      <rect x="8" y="162.2656" clip-path="url(#clipPath4)" width="224.54" height="23.1328" stroke="none"/>
    </g>
    <g fill="rgb(130,130,178)" stroke-miterlimit="1.45" transform="matrix(0.9868,0,0,0.9868,0,151.967)" stroke-linecap="butt" stroke="rgb(130,130,178)">
      <rect fill="none" width="224.54" x="8" height="23.1328" y="162.2656"/>
    </g>
    <g font-size="13" font-weight="bold" font-family="sans-serif" transform="matrix(0.9868,0,0,0.9868,0,151.967)">
      <text xml:space="preserve" x="15.27" y="178.3325" onclick="umlload('EntityTypeInvocationHandler.html')" stroke="none">EntityTypeInvocationHandler</text>
    </g>
    <g fill="rgb(187,187,255)" transform="matrix(0.9868,0,0,0.9868,0,151.967)" stroke="rgb(187,187,255)">
      <rect x="8" y="230.3984" clip-path="url(#clipPath5)" width="589.16" height="23.1328" stroke="none"/>
    </g>
    <g fill="rgb(130,130,178)" stroke-miterlimit="1.45" transform="matrix(0.9868,0,0,0.9868,0,151.967)" stroke-linecap="butt" stroke="rgb(130,130,178)">
      <rect fill="none" width="589.16" x="8" height="23.1328" y="230.3984"/>
    </g>
    <g font-size="13" font-weight="bold" font-family="sans-serif" transform="matrix(0.9868,0,0,0.9868,0,151.967)">
      <text xml:space="preserve" x="20.58" y="246.4653" onclick="umlload('QueryImpl.html')" stroke="none">QueryImpl&lt;T extends Serializable, EC extends AbstractEntityCollection&lt;T&gt;&gt;</text>
    </g>
    <g font-family="sans-serif" transform="matrix(0.9868,0,0,0.9868,0,151.967)">
      <text xml:space="preserve" x="6" y="286.1543" onclick="umlload('http://www.yworks.com/')" stroke="none">yWorks UML Doclet</text>
    </g>
  </g>
</svg>
