<?xml version="1.0" encoding="UTF-8"?><svg xmlns="http://www.w3.org/2000/svg" xmlns:xlink="http://www.w3.org/1999/xlink" fill-opacity="1" color-rendering="auto" color-interpolation="auto" stroke="black" text-rendering="auto" stroke-linecap="square" width="598" stroke-miterlimit="10" stroke-opacity="1" shape-rendering="auto" fill="black" stroke-dasharray="none" font-weight="normal" stroke-width="1" height="598" font-family="'Dialog'" font-style="normal" stroke-linejoin="miter" font-size="12" stroke-dashoffset="0" image-rendering="auto">
  <!--Generated by ySVG-->
  <defs id="genericDefs"/>
  <g>
    <defs id="defs1">
      <clipPath clipPathUnits="userSpaceOnUse" id="clipPath1">
        <path d="M0 0 L598 0 L598 598 L0 598 L0 0 Z"/>
      </clipPath>
      <clipPath clipPathUnits="userSpaceOnUse" id="clipPath2">
        <path d="M1556.2523 113.0721 C1556.2523 122.106 1380.8213 129.4295 1164.4161 129.4295 C948.011 129.4295 772.58 122.106 772.58 113.0721 C772.58 104.0382 948.011 96.7147 1164.4161 96.7147 C1380.8213 96.7147 1556.2523 104.0382 1556.2523 113.0721 Z"/>
      </clipPath>
      <clipPath clipPathUnits="userSpaceOnUse" id="clipPath3">
        <path d="M772.58 139.4295 L811.72 139.4295 L811.72 162.5623 L772.58 162.5623 L772.58 139.4295 Z"/>
      </clipPath>
      <clipPath clipPathUnits="userSpaceOnUse" id="clipPath4">
        <path d="M906.5909 16.3574 C906.5909 25.3913 876.5915 32.7147 839.5854 32.7147 C802.5793 32.7147 772.58 25.3913 772.58 16.3574 C772.58 7.3234 802.5793 -0 839.5854 -0 C876.5915 -0 906.5909 7.3234 906.5909 16.3574 Z"/>
      </clipPath>
      <clipPath clipPathUnits="userSpaceOnUse" id="clipPath5">
        <path d="M-123.86 153.3984 L-90.9 153.3984 L-90.9 176.5312 L-123.86 176.5312 L-123.86 153.3984 Z"/>
      </clipPath>
      <clipPath clipPathUnits="userSpaceOnUse" id="clipPath6">
        <path d="M-145.31 -0 L-66 -0 L-66 23.1328 L-145.31 23.1328 L-145.31 -0 Z"/>
      </clipPath>
      <clipPath clipPathUnits="userSpaceOnUse" id="clipPath7">
        <path d="M-145.31 33.1328 L-82.48 33.1328 L-82.48 56.2656 L-145.31 56.2656 L-145.31 33.1328 Z"/>
      </clipPath>
      <clipPath clipPathUnits="userSpaceOnUse" id="clipPath8">
        <path d="M-145.31 66.2656 L-91.75 66.2656 L-91.75 89.3984 L-145.31 89.3984 L-145.31 66.2656 Z"/>
      </clipPath>
      <clipPath clipPathUnits="userSpaceOnUse" id="clipPath9">
        <path d="M1211.8022 -100.3574 C1211.8022 -91.3234 1036.3713 -84 819.9661 -84 C603.561 -84 428.13 -91.3234 428.13 -100.3574 C428.13 -109.3913 603.561 -116.7147 819.9661 -116.7147 C1036.3713 -116.7147 1211.8022 -109.3913 1211.8022 -100.3574 Z"/>
      </clipPath>
      <clipPath clipPathUnits="userSpaceOnUse" id="clipPath10">
        <path d="M324.45 -107.1328 L382.13 -107.1328 L382.13 -84 L324.45 -84 L324.45 -107.1328 Z"/>
      </clipPath>
      <clipPath clipPathUnits="userSpaceOnUse" id="clipPath11">
        <path d="M0 -0 L706.58 -0 L706.58 220.25 L0 220.25 L0 -0 Z"/>
      </clipPath>
      <script type="text/ecmascript"><![CDATA[
function umlload(newLocation)
{
if (newLocation.charAt(0) != '#') {
if (newLocation.indexOf("://") > -1) {
window.parent.location.href = newLocation;
} else {
var tmp = window.parent.location.href;
tmp = tmp.substring(0, tmp.lastIndexOf("/") + 1);
window.parent.location.href = tmp.concat(newLocation);
}
} else {
window.parent.location.hash = newLocation;
}
}
]]></script>
    </defs>
    <g fill="rgb(238,238,255)" transform="matrix(0.3479,0,0,0.3479,53.573,277.9535)" stroke="rgb(238,238,255)">
      <rect width="277.7122" x="764.58" height="17.9688" y="70.7147" stroke="none"/>
    </g>
    <g fill="rgb(166,166,178)" stroke-miterlimit="1.45" transform="matrix(0.3479,0,0,0.3479,53.573,277.9535)" stroke-linecap="butt" stroke="rgb(166,166,178)">
      <rect fill="none" width="277.7122" x="764.58" height="17.9688" y="70.7147"/>
    </g>
    <g fill="rgb(238,238,255)" transform="matrix(0.3479,0,0,0.3479,53.573,277.9535)" stroke="rgb(238,238,255)">
      <rect width="799.6723" x="764.58" height="81.8788" y="88.6835" stroke="none"/>
    </g>
    <g fill="rgb(166,166,178)" stroke-miterlimit="1.45" transform="matrix(0.3479,0,0,0.3479,53.573,277.9535)" stroke-linecap="butt" stroke="rgb(166,166,178)">
      <rect fill="none" width="799.6723" x="764.58" height="81.8788" y="88.6835"/>
    </g>
    <g font-family="sans-serif" transform="matrix(0.3479,0,0,0.3479,53.573,277.9535)">
      <text xml:space="preserve" x="770.58" y="83.8534" onclick="umlload('../../../../../../com/msopentech/odatajclient/proxy/api/package-summary.html')" stroke="none">com.msopentech.odatajclient.proxy.api</text>
    </g>
    <g fill="rgb(221,221,255)" transform="matrix(0.3479,0,0,0.3479,53.573,277.9535)" stroke="rgb(221,221,255)">
      <rect x="772.58" y="96.7147" clip-path="url(#clipPath2)" width="783.6723" height="32.7147" stroke="none"/>
    </g>
    <g fill="rgb(154,154,178)" stroke-miterlimit="1.45" transform="matrix(0.3479,0,0,0.3479,53.573,277.9535)" stroke-linecap="butt" stroke="rgb(154,154,178)">
      <ellipse rx="391.8362" fill="none" ry="16.3574" cx="1164.4162" cy="113.0721"/>
    </g>
    <g font-style="italic" font-size="13" font-weight="bold" font-family="sans-serif" transform="matrix(0.3479,0,0,0.3479,53.573,277.9535)">
      <text xml:space="preserve" x="899.4161" y="117.5726" onclick="umlload('../../../../../../com/msopentech/odatajclient/proxy/api/Query.html')" stroke="none">Query&lt;T extends Serializable, EC extends AbstractEntityCollection&lt;T&gt;&gt;</text>
    </g>
    <g fill="rgb(187,187,255)" transform="matrix(0.3479,0,0,0.3479,53.573,277.9535)" stroke="rgb(187,187,255)">
      <rect x="772.58" y="139.4295" clip-path="url(#clipPath3)" width="39.14" height="23.1328" stroke="none"/>
    </g>
    <g fill="rgb(130,130,178)" stroke-miterlimit="1.45" transform="matrix(0.3479,0,0,0.3479,53.573,277.9535)" stroke-linecap="butt" stroke="rgb(130,130,178)">
      <rect fill="none" width="39.14" x="772.58" height="23.1328" y="139.4295"/>
    </g>
    <g font-size="13" font-weight="bold" font-family="sans-serif" transform="matrix(0.3479,0,0,0.3479,53.573,277.9535)">
      <text xml:space="preserve" x="777.15" y="155.4964" onclick="umlload('../../../../../../com/msopentech/odatajclient/proxy/api/Sort.html')" stroke="none">Sort</text>
    </g>
    <g fill="rgb(238,238,255)" transform="matrix(0.3479,0,0,0.3479,53.573,277.9535)" stroke="rgb(238,238,255)">
      <rect width="319.0873" x="764.58" height="17.9688" y="-26" stroke="none"/>
    </g>
    <g fill="rgb(166,166,178)" stroke-miterlimit="1.45" transform="matrix(0.3479,0,0,0.3479,53.573,277.9535)" stroke-linecap="butt" stroke="rgb(166,166,178)">
      <rect fill="none" width="319.0873" x="764.58" height="17.9688" y="-26"/>
    </g>
    <g fill="rgb(238,238,255)" transform="matrix(0.3479,0,0,0.3479,53.573,277.9535)" stroke="rgb(238,238,255)">
      <rect width="319.0873" x="764.58" height="48.746" y="-8.0312" stroke="none"/>
    </g>
    <g fill="rgb(166,166,178)" stroke-miterlimit="1.45" transform="matrix(0.3479,0,0,0.3479,53.573,277.9535)" stroke-linecap="butt" stroke="rgb(166,166,178)">
      <rect fill="none" width="319.0873" x="764.58" height="48.746" y="-8.0312"/>
    </g>
    <g font-family="sans-serif" transform="matrix(0.3479,0,0,0.3479,53.573,277.9535)">
      <text xml:space="preserve" x="770.58" y="-12.8613" onclick="umlload('../../../../../../com/msopentech/odatajclient/engine/uri/filter/package-summary.html')" stroke="none">com.msopentech.odatajclient.engine.uri.filter</text>
    </g>
    <g fill="rgb(221,221,255)" transform="matrix(0.3479,0,0,0.3479,53.573,277.9535)" stroke="rgb(221,221,255)">
      <rect x="772.58" y="0" clip-path="url(#clipPath4)" width="134.0109" height="32.7147" stroke="none"/>
    </g>
    <g fill="rgb(154,154,178)" stroke-miterlimit="1.45" transform="matrix(0.3479,0,0,0.3479,53.573,277.9535)" stroke-linecap="butt" stroke="rgb(154,154,178)">
      <ellipse rx="67.0054" fill="none" ry="16.3574" cx="839.5854" cy="16.3574"/>
    </g>
    <g font-style="italic" font-size="13" font-weight="bold" font-family="sans-serif" transform="matrix(0.3479,0,0,0.3479,53.573,277.9535)">
      <text xml:space="preserve" x="797.5854" y="20.8579" onclick="umlload('../../../../../../com/msopentech/odatajclient/engine/uri/filter/ODataFilter.html')" stroke="none">ODataFilter</text>
    </g>
    <g fill="rgb(238,238,255)" transform="matrix(0.3479,0,0,0.3479,53.573,277.9535)" stroke="rgb(238,238,255)">
      <rect width="69.7758" x="-131.86" height="17.9688" y="127.3984" stroke="none"/>
    </g>
    <g fill="rgb(166,166,178)" stroke-miterlimit="1.45" transform="matrix(0.3479,0,0,0.3479,53.573,277.9535)" stroke-linecap="butt" stroke="rgb(166,166,178)">
      <rect fill="none" width="69.7758" x="-131.86" height="17.9688" y="127.3984"/>
    </g>
    <g fill="rgb(238,238,255)" transform="matrix(0.3479,0,0,0.3479,53.573,277.9535)" stroke="rgb(238,238,255)">
      <rect width="73.96" x="-131.86" height="39.1641" y="145.3672" stroke="none"/>
    </g>
    <g fill="rgb(166,166,178)" stroke-miterlimit="1.45" transform="matrix(0.3479,0,0,0.3479,53.573,277.9535)" stroke-linecap="butt" stroke="rgb(166,166,178)">
      <rect fill="none" width="73.96" x="-131.86" height="39.1641" y="145.3672"/>
    </g>
    <g font-family="sans-serif" transform="matrix(0.3479,0,0,0.3479,53.573,277.9535)">
      <text xml:space="preserve" x="-125.86" y="140.5371" onclick="umlload('http://docs.oracle.com/javase/6/docs/api/java/net/package-summary.html')" stroke="none">java.net</text>
    </g>
    <g fill="rgb(187,187,255)" transform="matrix(0.3479,0,0,0.3479,53.573,277.9535)" stroke="rgb(187,187,255)">
      <rect x="-123.86" y="153.3984" clip-path="url(#clipPath5)" width="32.96" height="23.1328" stroke="none"/>
    </g>
    <g fill="rgb(130,130,178)" stroke-miterlimit="1.45" transform="matrix(0.3479,0,0,0.3479,53.573,277.9535)" stroke-linecap="butt" stroke="rgb(130,130,178)">
      <rect fill="none" width="32.96" x="-123.86" height="23.1328" y="153.3984"/>
    </g>
    <g font-size="13" font-weight="bold" font-family="sans-serif" transform="matrix(0.3479,0,0,0.3479,53.573,277.9535)">
      <text xml:space="preserve" x="-119.38" y="169.4653" onclick="umlload('http://docs.oracle.com/javase/6/docs/api/java/net/URI.html')" stroke="none">URI</text>
    </g>
    <g fill="rgb(238,238,255)" transform="matrix(0.3479,0,0,0.3479,53.573,277.9535)" stroke="rgb(238,238,255)">
      <rect width="76.1412" x="-153.31" height="17.9688" y="-26" stroke="none"/>
    </g>
    <g fill="rgb(166,166,178)" stroke-miterlimit="1.45" transform="matrix(0.3479,0,0,0.3479,53.573,277.9535)" stroke-linecap="butt" stroke="rgb(166,166,178)">
      <rect fill="none" width="76.1412" x="-153.31" height="17.9688" y="-26"/>
    </g>
    <g fill="rgb(238,238,255)" transform="matrix(0.3479,0,0,0.3479,53.573,277.9535)" stroke="rgb(238,238,255)">
      <rect width="95.31" x="-153.31" height="105.4297" y="-8.0312" stroke="none"/>
    </g>
    <g fill="rgb(166,166,178)" stroke-miterlimit="1.45" transform="matrix(0.3479,0,0,0.3479,53.573,277.9535)" stroke-linecap="butt" stroke="rgb(166,166,178)">
      <rect fill="none" width="95.31" x="-153.31" height="105.4297" y="-8.0312"/>
    </g>
    <g font-family="sans-serif" transform="matrix(0.3479,0,0,0.3479,53.573,277.9535)">
      <text xml:space="preserve" x="-147.31" y="-12.8613" onclick="umlload('http://docs.oracle.com/javase/6/docs/api/java/lang/package-summary.html')" stroke="none">java.lang</text>
    </g>
    <g fill="rgb(187,187,255)" transform="matrix(0.3479,0,0,0.3479,53.573,277.9535)" stroke="rgb(187,187,255)">
      <rect x="-145.31" y="0" clip-path="url(#clipPath6)" width="79.31" height="23.1328" stroke="none"/>
    </g>
    <g fill="rgb(130,130,178)" stroke-miterlimit="1.45" transform="matrix(0.3479,0,0,0.3479,53.573,277.9535)" stroke-linecap="butt" stroke="rgb(130,130,178)">
      <rect fill="none" width="79.31" x="-145.31" height="23.1328" y="0"/>
    </g>
    <g font-size="13" font-weight="bold" font-family="sans-serif" transform="matrix(0.3479,0,0,0.3479,53.573,277.9535)">
      <text xml:space="preserve" x="-140.155" y="16.0669" onclick="umlload('http://docs.oracle.com/javase/6/docs/api/java/lang/Class.html')" stroke="none">Class&lt;T&gt;</text>
    </g>
    <g fill="rgb(187,187,255)" transform="matrix(0.3479,0,0,0.3479,53.573,277.9535)" stroke="rgb(187,187,255)">
      <rect x="-145.31" y="33.1328" clip-path="url(#clipPath7)" width="62.83" height="23.1328" stroke="none"/>
    </g>
    <g fill="rgb(130,130,178)" stroke-miterlimit="1.45" transform="matrix(0.3479,0,0,0.3479,53.573,277.9535)" stroke-linecap="butt" stroke="rgb(130,130,178)">
      <rect fill="none" width="62.83" x="-145.31" height="23.1328" y="33.1328"/>
    </g>
    <g font-size="13" font-weight="bold" font-family="sans-serif" transform="matrix(0.3479,0,0,0.3479,53.573,277.9535)">
      <text xml:space="preserve" x="-140.395" y="49.1997" onclick="umlload('http://docs.oracle.com/javase/6/docs/api/java/lang/Integer.html')" stroke="none">Integer</text>
    </g>
    <g fill="rgb(187,187,255)" transform="matrix(0.3479,0,0,0.3479,53.573,277.9535)" stroke="rgb(187,187,255)">
      <rect x="-145.31" y="66.2656" clip-path="url(#clipPath8)" width="53.56" height="23.1328" stroke="none"/>
    </g>
    <g fill="rgb(130,130,178)" stroke-miterlimit="1.45" transform="matrix(0.3479,0,0,0.3479,53.573,277.9535)" stroke-linecap="butt" stroke="rgb(130,130,178)">
      <rect fill="none" width="53.56" x="-145.31" height="23.1328" y="66.2656"/>
    </g>
    <g font-size="13" font-weight="bold" font-family="sans-serif" transform="matrix(0.3479,0,0,0.3479,53.573,277.9535)">
      <text xml:space="preserve" x="-140.53" y="82.3325" onclick="umlload('http://docs.oracle.com/javase/6/docs/api/java/lang/String.html')" stroke="none">String</text>
    </g>
    <g fill="rgb(238,238,255)" transform="matrix(0.3479,0,0,0.3479,53.573,277.9535)" stroke="rgb(238,238,255)">
      <rect width="277.7122" x="420.13" height="17.9688" y="-142.7147" stroke="none"/>
    </g>
    <g fill="rgb(166,166,178)" stroke-miterlimit="1.45" transform="matrix(0.3479,0,0,0.3479,53.573,277.9535)" stroke-linecap="butt" stroke="rgb(166,166,178)">
      <rect fill="none" width="277.7122" x="420.13" height="17.9688" y="-142.7147"/>
    </g>
    <g fill="rgb(238,238,255)" transform="matrix(0.3479,0,0,0.3479,53.573,277.9535)" stroke="rgb(238,238,255)">
      <rect width="799.6723" x="420.13" height="48.746" y="-124.746" stroke="none"/>
    </g>
    <g fill="rgb(166,166,178)" stroke-miterlimit="1.45" transform="matrix(0.3479,0,0,0.3479,53.573,277.9535)" stroke-linecap="butt" stroke="rgb(166,166,178)">
      <rect fill="none" width="799.6723" x="420.13" height="48.746" y="-124.746"/>
    </g>
    <g font-family="sans-serif" transform="matrix(0.3479,0,0,0.3479,53.573,277.9535)">
      <text xml:space="preserve" x="426.13" y="-129.5761" onclick="umlload('../../../../../../com/msopentech/odatajclient/proxy/api/package-summary.html')" stroke="none">com.msopentech.odatajclient.proxy.api</text>
    </g>
    <g fill="rgb(221,221,255)" transform="matrix(0.3479,0,0,0.3479,53.573,277.9535)" stroke="rgb(221,221,255)">
      <rect x="428.13" y="-116.7147" clip-path="url(#clipPath9)" width="783.6723" height="32.7147" stroke="none"/>
    </g>
    <g fill="rgb(154,154,178)" stroke-miterlimit="1.45" transform="matrix(0.3479,0,0,0.3479,53.573,277.9535)" stroke-linecap="butt" stroke="rgb(154,154,178)">
      <ellipse rx="391.8362" fill="none" ry="16.3574" cx="819.9662" cy="-100.3574"/>
    </g>
    <g font-style="italic" font-size="13" font-weight="bold" font-family="sans-serif" transform="matrix(0.3479,0,0,0.3479,53.573,277.9535)">
      <text xml:space="preserve" x="554.9661" y="-95.8569" onclick="umlload('../../../../../../com/msopentech/odatajclient/proxy/api/Query.html')" stroke="none">Query&lt;T extends Serializable, EC extends AbstractEntityCollection&lt;T&gt;&gt;</text>
    </g>
    <g fill="rgb(238,238,255)" transform="matrix(0.3479,0,0,0.3479,53.573,277.9535)" stroke="rgb(238,238,255)">
      <rect width="76.1412" x="316.45" height="17.9688" y="-133.1328" stroke="none"/>
    </g>
    <g fill="rgb(166,166,178)" stroke-miterlimit="1.45" transform="matrix(0.3479,0,0,0.3479,53.573,277.9535)" stroke-linecap="butt" stroke="rgb(166,166,178)">
      <rect fill="none" width="76.1412" x="316.45" height="17.9688" y="-133.1328"/>
    </g>
    <g fill="rgb(238,238,255)" transform="matrix(0.3479,0,0,0.3479,53.573,277.9535)" stroke="rgb(238,238,255)">
      <rect width="76.1412" x="316.45" height="39.1641" y="-115.1641" stroke="none"/>
    </g>
    <g fill="rgb(166,166,178)" stroke-miterlimit="1.45" transform="matrix(0.3479,0,0,0.3479,53.573,277.9535)" stroke-linecap="butt" stroke="rgb(166,166,178)">
      <rect fill="none" width="76.1412" x="316.45" height="39.1641" y="-115.1641"/>
    </g>
    <g font-family="sans-serif" transform="matrix(0.3479,0,0,0.3479,53.573,277.9535)">
      <text xml:space="preserve" x="322.45" y="-119.9941" onclick="umlload('http://docs.oracle.com/javase/6/docs/api/java/lang/package-summary.html')" stroke="none">java.lang</text>
    </g>
    <g fill="rgb(187,187,255)" transform="matrix(0.3479,0,0,0.3479,53.573,277.9535)" stroke="rgb(187,187,255)">
      <rect x="324.45" y="-107.1328" clip-path="url(#clipPath10)" width="57.68" height="23.1328" stroke="none"/>
    </g>
    <g fill="rgb(130,130,178)" stroke-miterlimit="1.45" transform="matrix(0.3479,0,0,0.3479,53.573,277.9535)" stroke-linecap="butt" stroke="rgb(130,130,178)">
      <rect fill="none" width="57.68" x="324.45" height="23.1328" y="-107.1328"/>
    </g>
    <g font-size="13" font-weight="bold" font-family="sans-serif" transform="matrix(0.3479,0,0,0.3479,53.573,277.9535)">
      <text xml:space="preserve" x="329.29" y="-91.0659" onclick="umlload('http://docs.oracle.com/javase/6/docs/api/java/lang/Object.html')" stroke="none">Object</text>
    </g>
    <g fill="rgb(238,238,255)" transform="matrix(0.3479,0,0,0.3479,53.573,277.9535)" stroke="rgb(238,238,255)">
      <rect width="308.4783" x="-8" height="17.9688" y="-26" stroke="none"/>
    </g>
    <g fill="rgb(166,166,178)" stroke-miterlimit="1.45" transform="matrix(0.3479,0,0,0.3479,53.573,277.9535)" stroke-linecap="butt" stroke="rgb(166,166,178)">
      <rect fill="none" width="308.4783" x="-8" height="17.9688" y="-26"/>
    </g>
    <g fill="rgb(238,238,255)" transform="matrix(0.3479,0,0,0.3479,53.573,277.9535)" stroke="rgb(238,238,255)">
      <rect width="722.58" x="-8" height="236.2812" y="-8.0312" stroke="none"/>
    </g>
    <g fill="rgb(166,166,178)" stroke-miterlimit="1.45" transform="matrix(0.3479,0,0,0.3479,53.573,277.9535)" stroke-linecap="butt" stroke="rgb(166,166,178)">
      <rect fill="none" width="722.58" x="-8" height="236.2812" y="-8.0312"/>
    </g>
    <g font-family="sans-serif" transform="matrix(0.3479,0,0,0.3479,53.573,277.9535)">
      <text xml:space="preserve" x="-2" y="-12.8613" onclick="umlload('package-summary.html')" stroke="none">com.msopentech.odatajclient.proxy.api.impl</text>
    </g>
    <g fill="rgb(187,187,255)" transform="matrix(0.3479,0,0,0.3479,53.573,277.9535)" stroke="rgb(187,187,255)">
      <rect x="0" y="0" clip-path="url(#clipPath11)" width="706.58" height="26.625" stroke="none"/>
      <line clip-path="url(#clipPath11)" fill="none" x1="0" x2="706.58" y1="26.625" y2="26.625" stroke="black"/>
      <line clip-path="url(#clipPath11)" x1="0" x2="706.58" y1="27.625" y2="27.625" stroke="none"/>
      <line clip-path="url(#clipPath11)" fill="none" x1="0" x2="706.58" y1="27.625" y2="27.625" stroke="black"/>
      <rect x="0" y="28.625" clip-path="url(#clipPath11)" width="706.58" height="191.625" stroke="none"/>
    </g>
    <g fill="rgb(130,130,178)" stroke-miterlimit="1.45" transform="matrix(0.3479,0,0,0.3479,53.573,277.9535)" stroke-linecap="butt" stroke="rgb(130,130,178)">
      <rect fill="none" width="706.58" x="0" height="220.25" y="0"/>
    </g>
    <g font-size="16" font-weight="bold" font-family="sans-serif" transform="matrix(0.3479,0,0,0.3479,53.573,277.9535)">
      <text xml:space="preserve" x="14.29" y="18.8516" onclick="umlload('#')" stroke="none">QueryImpl&lt;T extends Serializable, EC extends AbstractEntityCollection&lt;T&gt;&gt;</text>
    </g>
    <g font-family="sans-serif" transform="matrix(0.3479,0,0,0.3479,53.573,277.9535)">
      <text xml:space="preserve" x="4" y="39.1719" stroke="none">+</text>
      <text xml:space="preserve" x="19" y="40.7637" onclick="umlload('#getFilter()')" stroke="none">getFilter() : String</text>
    </g>
    <g font-family="sans-serif" transform="matrix(0.3479,0,0,0.3479,53.573,277.9535)">
      <text xml:space="preserve" x="4" y="55.1719" stroke="none">+</text>
      <text xml:space="preserve" x="19" y="56.7324" onclick="umlload('#getFirstResult()')" stroke="none">getFirstResult() : int</text>
    </g>
    <g font-family="sans-serif" transform="matrix(0.3479,0,0,0.3479,53.573,277.9535)">
      <text xml:space="preserve" x="4" y="71.1719" stroke="none">+</text>
      <text xml:space="preserve" x="19" y="72.7012" onclick="umlload('#getMaxResults()')" stroke="none">getMaxResults() : int</text>
    </g>
    <g font-family="sans-serif" transform="matrix(0.3479,0,0,0.3479,53.573,277.9535)">
      <text xml:space="preserve" x="4" y="87.1719" stroke="none">+</text>
      <text xml:space="preserve" x="19" y="88.6699" onclick="umlload('#getOrderBy()')" stroke="none">getOrderBy() : String</text>
    </g>
    <g font-family="sans-serif" transform="matrix(0.3479,0,0,0.3479,53.573,277.9535)">
      <text xml:space="preserve" x="4" y="103.1719" stroke="none">+</text>
      <text xml:space="preserve" x="19" y="104.6387" onclick="umlload('#getResult()')" stroke="none">getResult() : EC</text>
    </g>
    <g font-family="sans-serif" transform="matrix(0.3479,0,0,0.3479,53.573,277.9535)">
      <text xml:space="preserve" x="4" y="119.1719" stroke="none">+</text>
      <text xml:space="preserve" x="19" y="120.6074" onclick="umlload('#getSingleResult()')" stroke="none">getSingleResult() : T</text>
    </g>
    <g font-family="sans-serif" transform="matrix(0.3479,0,0,0.3479,53.573,277.9535)">
      <text xml:space="preserve" x="4" y="135.1719" stroke="none">+</text>
      <text xml:space="preserve" x="19" y="136.5762" onclick="umlload('#setFilter(com.msopentech.odatajclient.engine.uri.filter.ODataFilter)')" stroke="none">setFilter(ODataFilter) : Query&lt;T extends Serializable, EC extends AbstractEntityCollection&lt;T&gt;&gt;</text>
    </g>
    <g font-family="sans-serif" transform="matrix(0.3479,0,0,0.3479,53.573,277.9535)">
      <text xml:space="preserve" x="4" y="151.1719" stroke="none">+</text>
      <text xml:space="preserve" x="19" y="152.5449" onclick="umlload('#setFilter(java.lang.String)')" stroke="none">setFilter(String) : Query&lt;T extends Serializable, EC extends AbstractEntityCollection&lt;T&gt;&gt;</text>
    </g>
    <g font-family="sans-serif" transform="matrix(0.3479,0,0,0.3479,53.573,277.9535)">
      <text xml:space="preserve" x="4" y="167.1719" stroke="none">+</text>
      <text xml:space="preserve" x="19" y="168.5137" onclick="umlload('#setFirstResult(int)')" stroke="none">setFirstResult(int) : Query&lt;T extends Serializable, EC extends AbstractEntityCollection&lt;T&gt;&gt;</text>
    </g>
    <g font-family="sans-serif" transform="matrix(0.3479,0,0,0.3479,53.573,277.9535)">
      <text xml:space="preserve" x="4" y="183.1719" stroke="none">+</text>
      <text xml:space="preserve" x="19" y="184.4824" onclick="umlload('#setMaxResults(int)')" stroke="none">setMaxResults(int) : Query&lt;T extends Serializable, EC extends AbstractEntityCollection&lt;T&gt;&gt;</text>
    </g>
    <g font-family="sans-serif" transform="matrix(0.3479,0,0,0.3479,53.573,277.9535)">
      <text xml:space="preserve" x="4" y="199.1719" stroke="none">+</text>
      <text xml:space="preserve" x="19" y="200.4512" onclick="umlload('#setOrderBy(com.msopentech.odatajclient.proxy.api.Sort...)')" stroke="none">setOrderBy(Sort...) : Query&lt;T extends Serializable, EC extends AbstractEntityCollection&lt;T&gt;&gt;</text>
    </g>
    <g font-family="sans-serif" transform="matrix(0.3479,0,0,0.3479,53.573,277.9535)">
      <text xml:space="preserve" x="4" y="215.1719" stroke="none">+</text>
      <text xml:space="preserve" x="19" y="216.4199" onclick="umlload('#setOrderBy(java.lang.String)')" stroke="none">setOrderBy(String) : Query&lt;T extends Serializable, EC extends AbstractEntityCollection&lt;T&gt;&gt;</text>
    </g>
    <g font-family="sans-serif" transform="matrix(0.3479,0,0,0.3479,53.573,277.9535)">
      <text xml:space="preserve" x="-148" y="253.1543" onclick="umlload('http://www.yworks.com/')" stroke="none">yWorks UML Doclet</text>
    </g>
    <g stroke-miterlimit="1.45" transform="matrix(0.3479,0,0,0.3479,53.573,277.9535)" stroke-linecap="butt">
      <path fill="none" d="M353.29 0 L353.29 -69"/>
      <path fill="white" d="M353.29 -84 L347.29 -68 L359.29 -68 Z" stroke="none"/>
      <path fill="none" d="M353.29 -84 L347.29 -68 L359.29 -68 Z"/>
      <path fill="none" stroke-dasharray="6,2" d="M529.935 0.0203 L529.935 -51 L819.9661 -51 L819.9661 -69"/>
      <path fill="white" stroke-dasharray="6,2" d="M819.9661 -84 L813.9661 -68 L825.9661 -68 Z" stroke="none"/>
      <path fill="none" d="M819.9661 -84 L813.9661 -68 L825.9661 -68 Z"/>
      <path fill="none" d="M-0.0226 11.5664 L-66 11.5664"/>
      <line stroke-linecap="square" transform="matrix(-1,0,0,-1,-66,11.5664)" fill="none" x1="0" x2="-14" y1="0" y2="-4" stroke-miterlimit="10"/>
      <line stroke-linecap="square" transform="matrix(-1,0,0,-1,-66,11.5664)" fill="none" x1="0" x2="-14" y1="0" y2="4" stroke-miterlimit="10"/>
    </g>
    <g stroke-miterlimit="1.45" transform="matrix(0.3479,0,0,0.3479,53.573,277.9535)" stroke-linecap="butt">
      <path fill="none" d="M0.0213 44.6992 L-82.48 44.6992"/>
      <line stroke-linecap="square" transform="matrix(-1,0,0,-1,-82.48,44.6992)" fill="none" x1="0" x2="-14" y1="0" y2="-4" stroke-miterlimit="10"/>
      <line stroke-linecap="square" transform="matrix(-1,0,0,-1,-82.48,44.6992)" fill="none" x1="0" x2="-14" y1="0" y2="4" stroke-miterlimit="10"/>
    </g>
    <g stroke-miterlimit="1.45" transform="matrix(0.3479,0,0,0.3479,53.573,277.9535)" stroke-linecap="butt">
      <path fill="none" d="M-0.0278 77.832 L-91.75 77.832"/>
      <line stroke-linecap="square" transform="matrix(-1,0,0,-1,-91.75,77.832)" fill="none" x1="0" x2="-14" y1="0" y2="-4" stroke-miterlimit="10"/>
      <line stroke-linecap="square" transform="matrix(-1,0,0,-1,-91.75,77.832)" fill="none" x1="0" x2="-14" y1="0" y2="4" stroke-miterlimit="10"/>
    </g>
    <g stroke-miterlimit="1.45" transform="matrix(0.3479,0,0,0.3479,53.573,277.9535)" stroke-linecap="butt">
      <path fill="none" d="M-0.0009 164.9648 L-90.9 164.9648"/>
      <line stroke-linecap="square" transform="matrix(-1,0,0,-1,-90.9,164.9648)" fill="none" x1="0" x2="-14" y1="0" y2="-4" stroke-miterlimit="10"/>
      <line stroke-linecap="square" transform="matrix(-1,0,0,-1,-90.9,164.9648)" fill="none" x1="0" x2="-14" y1="0" y2="4" stroke-miterlimit="10"/>
    </g>
    <g stroke-dasharray="6,2" stroke-miterlimit="1.45" transform="matrix(0.3479,0,0,0.3479,53.573,277.9535)" stroke-linecap="butt">
      <path fill="none" d="M706.5844 16.3574 L772.58 16.3574"/>
      <line stroke-linecap="square" transform="matrix(1,0,0,1,772.58,16.3574)" fill="none" x1="0" x2="-14" y1="0" y2="-4" stroke-dasharray="none" stroke-miterlimit="10"/>
      <line stroke-linecap="square" transform="matrix(1,0,0,1,772.58,16.3574)" fill="none" x1="0" x2="-14" y1="0" y2="4" stroke-dasharray="none" stroke-miterlimit="10"/>
    </g>
    <g stroke-dasharray="6,2" stroke-miterlimit="1.45" transform="matrix(0.3479,0,0,0.3479,53.573,277.9535)" stroke-linecap="butt">
      <path fill="none" d="M706.623 113.0721 L772.58 113.0721"/>
      <line stroke-linecap="square" transform="matrix(1,0,0,1,772.58,113.0721)" fill="none" x1="0" x2="-14" y1="0" y2="-4" stroke-dasharray="none" stroke-miterlimit="10"/>
      <line stroke-linecap="square" transform="matrix(1,0,0,1,772.58,113.0721)" fill="none" x1="0" x2="-14" y1="0" y2="4" stroke-dasharray="none" stroke-miterlimit="10"/>
    </g>
    <g stroke-dasharray="6,2" stroke-miterlimit="1.45" transform="matrix(0.3479,0,0,0.3479,53.573,277.9535)" stroke-linecap="butt">
      <path fill="none" d="M706.5691 150.9959 L772.58 150.9959"/>
      <line stroke-linecap="square" transform="matrix(1,0,0,1,772.58,150.9959)" fill="none" x1="0" x2="-14" y1="0" y2="-4" stroke-dasharray="none" stroke-miterlimit="10"/>
      <line stroke-linecap="square" transform="matrix(1,0,0,1,772.58,150.9959)" fill="none" x1="0" x2="-14" y1="0" y2="4" stroke-dasharray="none" stroke-miterlimit="10"/>
    </g>
  </g>
</svg>
