<?xml version="1.0" encoding="UTF-8"?><svg xmlns="http://www.w3.org/2000/svg" xmlns:xlink="http://www.w3.org/1999/xlink" fill-opacity="1" color-rendering="auto" color-interpolation="auto" stroke="black" text-rendering="auto" stroke-linecap="square" width="598" stroke-miterlimit="10" stroke-opacity="1" shape-rendering="auto" fill="black" stroke-dasharray="none" font-weight="normal" stroke-width="1" height="598" font-family="'Dialog'" font-style="normal" stroke-linejoin="miter" font-size="12" stroke-dashoffset="0" image-rendering="auto">
  <!--Generated by ySVG-->
  <defs id="genericDefs"/>
  <g>
    <defs id="defs1">
      <clipPath clipPathUnits="userSpaceOnUse" id="clipPath1">
        <path d="M0 0 L598 0 L598 598 L0 598 L0 0 Z"/>
      </clipPath>
      <clipPath clipPathUnits="userSpaceOnUse" id="clipPath2">
        <path d="M-66 190.623 C-66 199.6569 -87.1952 206.9804 -113.3408 206.9804 C-139.4864 206.9804 -160.6816 199.6569 -160.6816 190.623 C-160.6816 181.5891 -139.4864 174.2656 -113.3408 174.2656 C-87.1952 174.2656 -66 181.5891 -66 190.623 Z"/>
      </clipPath>
      <clipPath clipPathUnits="userSpaceOnUse" id="clipPath3">
        <path d="M-123.86 87.1328 L-90.9 87.1328 L-90.9 110.2656 L-123.86 110.2656 L-123.86 87.1328 Z"/>
      </clipPath>
      <clipPath clipPathUnits="userSpaceOnUse" id="clipPath4">
        <path d="M-130.04 0 L-76.48 0 L-76.48 23.1328 L-130.04 23.1328 L-130.04 0 Z"/>
      </clipPath>
      <clipPath clipPathUnits="userSpaceOnUse" id="clipPath5">
        <path d="M535.5909 -100.3574 C535.5909 -91.3234 477.5487 -84 405.95 -84 C334.3513 -84 276.3091 -91.3234 276.3091 -100.3574 C276.3091 -109.3913 334.3513 -116.7147 405.95 -116.7147 C477.5487 -116.7147 535.5909 -109.3913 535.5909 -100.3574 Z"/>
      </clipPath>
      <clipPath clipPathUnits="userSpaceOnUse" id="clipPath6">
        <path d="M-2.06 -107.1328 L181.28 -107.1328 L181.28 -84 L-2.06 -84 L-2.06 -107.1328 Z"/>
      </clipPath>
      <clipPath clipPathUnits="userSpaceOnUse" id="clipPath7">
        <path d="M0 0 L179.22 0 L179.22 214.9804 L0 214.9804 L0 0 Z"/>
      </clipPath>
      <script type="text/ecmascript"><![CDATA[
function umlload(newLocation)
{
if (newLocation.charAt(0) != '#') {
if (newLocation.indexOf("://") > -1) {
window.parent.location.href = newLocation;
} else {
var tmp = window.parent.location.href;
tmp = tmp.substring(0, tmp.lastIndexOf("/") + 1);
window.parent.location.href = tmp.concat(newLocation);
}
} else {
window.parent.location.hash = newLocation;
}
}
]]></script>
    </defs>
    <g fill="rgb(238,238,255)" transform="matrix(0.8181,0,0,0.8181,138.2517,251.9617)" stroke="rgb(238,238,255)">
      <rect width="67.654" x="-168.6816" height="17.9688" y="148.2656" stroke="none"/>
    </g>
    <g fill="rgb(166,166,178)" stroke-miterlimit="1.45" transform="matrix(0.8181,0,0,0.8181,138.2517,251.9617)" stroke-linecap="butt" stroke="rgb(166,166,178)">
      <rect fill="none" width="67.654" x="-168.6816" height="17.9688" y="148.2656"/>
    </g>
    <g fill="rgb(238,238,255)" transform="matrix(0.8181,0,0,0.8181,138.2517,251.9617)" stroke="rgb(238,238,255)">
      <rect width="110.6816" x="-168.6816" height="48.746" y="166.2344" stroke="none"/>
    </g>
    <g fill="rgb(166,166,178)" stroke-miterlimit="1.45" transform="matrix(0.8181,0,0,0.8181,138.2517,251.9617)" stroke-linecap="butt" stroke="rgb(166,166,178)">
      <rect fill="none" width="110.6816" x="-168.6816" height="48.746" y="166.2344"/>
    </g>
    <g font-family="sans-serif" transform="matrix(0.8181,0,0,0.8181,138.2517,251.9617)">
      <text xml:space="preserve" x="-162.6816" y="161.4043" onclick="umlload('http://docs.oracle.com/javase/6/docs/api/java/util/package-summary.html')" stroke="none">java.util</text>
    </g>
    <g fill="rgb(221,221,255)" transform="matrix(0.8181,0,0,0.8181,138.2517,251.9617)" stroke="rgb(221,221,255)">
      <rect x="-160.6816" y="174.2656" clip-path="url(#clipPath2)" width="94.6816" height="32.7147" stroke="none"/>
    </g>
    <g fill="rgb(154,154,178)" stroke-miterlimit="1.45" transform="matrix(0.8181,0,0,0.8181,138.2517,251.9617)" stroke-linecap="butt" stroke="rgb(154,154,178)">
      <ellipse rx="47.3408" fill="none" ry="16.3574" cx="-113.3408" cy="190.623"/>
    </g>
    <g font-style="italic" font-size="13" font-weight="bold" font-family="sans-serif" transform="matrix(0.8181,0,0,0.8181,138.2517,251.9617)">
      <text xml:space="preserve" x="-141.8408" y="195.1235" onclick="umlload('http://docs.oracle.com/javase/6/docs/api/java/util/List.html')" stroke="none">List&lt;E&gt;</text>
    </g>
    <g fill="rgb(238,238,255)" transform="matrix(0.8181,0,0,0.8181,138.2517,251.9617)" stroke="rgb(238,238,255)">
      <rect width="69.7758" x="-131.86" height="17.9688" y="61.1328" stroke="none"/>
    </g>
    <g fill="rgb(166,166,178)" stroke-miterlimit="1.45" transform="matrix(0.8181,0,0,0.8181,138.2517,251.9617)" stroke-linecap="butt" stroke="rgb(166,166,178)">
      <rect fill="none" width="69.7758" x="-131.86" height="17.9688" y="61.1328"/>
    </g>
    <g fill="rgb(238,238,255)" transform="matrix(0.8181,0,0,0.8181,138.2517,251.9617)" stroke="rgb(238,238,255)">
      <rect width="73.96" x="-131.86" height="39.1641" y="79.1016" stroke="none"/>
    </g>
    <g fill="rgb(166,166,178)" stroke-miterlimit="1.45" transform="matrix(0.8181,0,0,0.8181,138.2517,251.9617)" stroke-linecap="butt" stroke="rgb(166,166,178)">
      <rect fill="none" width="73.96" x="-131.86" height="39.1641" y="79.1016"/>
    </g>
    <g font-family="sans-serif" transform="matrix(0.8181,0,0,0.8181,138.2517,251.9617)">
      <text xml:space="preserve" x="-125.86" y="74.2715" onclick="umlload('http://docs.oracle.com/javase/6/docs/api/java/net/package-summary.html')" stroke="none">java.net</text>
    </g>
    <g fill="rgb(187,187,255)" transform="matrix(0.8181,0,0,0.8181,138.2517,251.9617)" stroke="rgb(187,187,255)">
      <rect x="-123.86" y="87.1328" clip-path="url(#clipPath3)" width="32.96" height="23.1328" stroke="none"/>
    </g>
    <g fill="rgb(130,130,178)" stroke-miterlimit="1.45" transform="matrix(0.8181,0,0,0.8181,138.2517,251.9617)" stroke-linecap="butt" stroke="rgb(130,130,178)">
      <rect fill="none" width="32.96" x="-123.86" height="23.1328" y="87.1328"/>
    </g>
    <g font-size="13" font-weight="bold" font-family="sans-serif" transform="matrix(0.8181,0,0,0.8181,138.2517,251.9617)">
      <text xml:space="preserve" x="-119.38" y="103.1997" onclick="umlload('http://docs.oracle.com/javase/6/docs/api/java/net/URI.html')" stroke="none">URI</text>
    </g>
    <g fill="rgb(238,238,255)" transform="matrix(0.8181,0,0,0.8181,138.2517,251.9617)" stroke="rgb(238,238,255)">
      <rect width="76.1412" x="-138.04" height="17.9688" y="-26" stroke="none"/>
    </g>
    <g fill="rgb(166,166,178)" stroke-miterlimit="1.45" transform="matrix(0.8181,0,0,0.8181,138.2517,251.9617)" stroke-linecap="butt" stroke="rgb(166,166,178)">
      <rect fill="none" width="76.1412" x="-138.04" height="17.9688" y="-26"/>
    </g>
    <g fill="rgb(238,238,255)" transform="matrix(0.8181,0,0,0.8181,138.2517,251.9617)" stroke="rgb(238,238,255)">
      <rect width="79.56" x="-138.04" height="39.1641" y="-8.0312" stroke="none"/>
    </g>
    <g fill="rgb(166,166,178)" stroke-miterlimit="1.45" transform="matrix(0.8181,0,0,0.8181,138.2517,251.9617)" stroke-linecap="butt" stroke="rgb(166,166,178)">
      <rect fill="none" width="79.56" x="-138.04" height="39.1641" y="-8.0312"/>
    </g>
    <g font-family="sans-serif" transform="matrix(0.8181,0,0,0.8181,138.2517,251.9617)">
      <text xml:space="preserve" x="-132.04" y="-12.8613" onclick="umlload('http://docs.oracle.com/javase/6/docs/api/java/lang/package-summary.html')" stroke="none">java.lang</text>
    </g>
    <g fill="rgb(187,187,255)" transform="matrix(0.8181,0,0,0.8181,138.2517,251.9617)" stroke="rgb(187,187,255)">
      <rect x="-130.04" y="0" clip-path="url(#clipPath4)" width="53.56" height="23.1328" stroke="none"/>
    </g>
    <g fill="rgb(130,130,178)" stroke-miterlimit="1.45" transform="matrix(0.8181,0,0,0.8181,138.2517,251.9617)" stroke-linecap="butt" stroke="rgb(130,130,178)">
      <rect fill="none" width="53.56" x="-130.04" height="23.1328" y="0"/>
    </g>
    <g font-size="13" font-weight="bold" font-family="sans-serif" transform="matrix(0.8181,0,0,0.8181,138.2517,251.9617)">
      <text xml:space="preserve" x="-125.26" y="16.0669" onclick="umlload('http://docs.oracle.com/javase/6/docs/api/java/lang/String.html')" stroke="none">String</text>
    </g>
    <g fill="rgb(238,238,255)" transform="matrix(0.8181,0,0,0.8181,138.2517,251.9617)" stroke="rgb(238,238,255)">
      <rect width="298.9302" x="262.309" height="17.9688" y="-142.7147" stroke="none"/>
    </g>
    <g fill="rgb(166,166,178)" stroke-miterlimit="1.45" transform="matrix(0.8181,0,0,0.8181,138.2517,251.9617)" stroke-linecap="butt" stroke="rgb(166,166,178)">
      <rect fill="none" width="298.9302" x="262.309" height="17.9688" y="-142.7147"/>
    </g>
    <g fill="rgb(238,238,255)" transform="matrix(0.8181,0,0,0.8181,138.2517,251.9617)" stroke="rgb(238,238,255)">
      <rect width="299.2819" x="262.309" height="48.746" y="-124.746" stroke="none"/>
    </g>
    <g fill="rgb(166,166,178)" stroke-miterlimit="1.45" transform="matrix(0.8181,0,0,0.8181,138.2517,251.9617)" stroke-linecap="butt" stroke="rgb(166,166,178)">
      <rect fill="none" width="299.2819" x="262.309" height="48.746" y="-124.746"/>
    </g>
    <g font-family="sans-serif" transform="matrix(0.8181,0,0,0.8181,138.2517,251.9617)">
      <text xml:space="preserve" x="268.3091" y="-129.5761" onclick="umlload('../../../../../../com/msopentech/odatajclient/engine/data/package-summary.html')" stroke="none">com.msopentech.odatajclient.engine.data</text>
    </g>
    <g fill="rgb(221,221,255)" transform="matrix(0.8181,0,0,0.8181,138.2517,251.9617)" stroke="rgb(221,221,255)">
      <rect x="276.309" y="-116.7147" clip-path="url(#clipPath5)" width="259.2819" height="32.7147" stroke="none"/>
    </g>
    <g fill="rgb(154,154,178)" stroke-miterlimit="1.45" transform="matrix(0.8181,0,0,0.8181,138.2517,251.9617)" stroke-linecap="butt" stroke="rgb(154,154,178)">
      <ellipse rx="129.641" fill="none" ry="16.3574" cx="405.95" cy="-100.3574"/>
    </g>
    <g font-style="italic" font-size="13" font-weight="bold" font-family="sans-serif" transform="matrix(0.8181,0,0,0.8181,138.2517,251.9617)">
      <text xml:space="preserve" x="320.95" y="-95.8569" onclick="umlload('../../../../../../com/msopentech/odatajclient/engine/data/LinkCollectionResource.html')" stroke="none">LinkCollectionResource</text>
    </g>
    <g fill="rgb(238,238,255)" transform="matrix(0.8181,0,0,0.8181,138.2517,251.9617)" stroke="rgb(238,238,255)">
      <rect width="298.9302" x="-54.06" height="17.9688" y="-133.1328" stroke="none"/>
    </g>
    <g fill="rgb(166,166,178)" stroke-miterlimit="1.45" transform="matrix(0.8181,0,0,0.8181,138.2517,251.9617)" stroke-linecap="butt" stroke="rgb(166,166,178)">
      <rect fill="none" width="298.9302" x="-54.06" height="17.9688" y="-133.1328"/>
    </g>
    <g fill="rgb(238,238,255)" transform="matrix(0.8181,0,0,0.8181,138.2517,251.9617)" stroke="rgb(238,238,255)">
      <rect width="299.34" x="-54.06" height="39.1641" y="-115.1641" stroke="none"/>
    </g>
    <g fill="rgb(166,166,178)" stroke-miterlimit="1.45" transform="matrix(0.8181,0,0,0.8181,138.2517,251.9617)" stroke-linecap="butt" stroke="rgb(166,166,178)">
      <rect fill="none" width="299.34" x="-54.06" height="39.1641" y="-115.1641"/>
    </g>
    <g font-family="sans-serif" transform="matrix(0.8181,0,0,0.8181,138.2517,251.9617)">
      <text xml:space="preserve" x="-48.06" y="-119.9941" onclick="umlload('../../../../../../com/msopentech/odatajclient/engine/data/package-summary.html')" stroke="none">com.msopentech.odatajclient.engine.data</text>
    </g>
    <g fill="rgb(204,204,255)" transform="matrix(0.8181,0,0,0.8181,138.2517,251.9617)" stroke="rgb(204,204,255)">
      <rect x="-2.06" y="-107.1328" clip-path="url(#clipPath6)" width="183.34" height="23.1328" stroke="none"/>
    </g>
    <g fill="rgb(142,142,178)" stroke-miterlimit="1.45" transform="matrix(0.8181,0,0,0.8181,138.2517,251.9617)" stroke-linecap="butt" stroke="rgb(142,142,178)">
      <rect fill="none" width="183.34" x="-2.06" height="23.1328" y="-107.1328"/>
    </g>
    <g font-size="13" font-weight="bold" font-family="sans-serif" transform="matrix(0.8181,0,0,0.8181,138.2517,251.9617)">
      <text xml:space="preserve" x="4.61" y="-91.0659" onclick="umlload('../../../../../../com/msopentech/odatajclient/engine/data/AbstractPayloadObject.html')" stroke="none">AbstractPayloadObject</text>
    </g>
    <g fill="rgb(238,238,255)" transform="matrix(0.8181,0,0,0.8181,138.2517,251.9617)" stroke="rgb(238,238,255)">
      <rect width="330.7572" x="-8" height="17.9688" y="-26" stroke="none"/>
    </g>
    <g fill="rgb(166,166,178)" stroke-miterlimit="1.45" transform="matrix(0.8181,0,0,0.8181,138.2517,251.9617)" stroke-linecap="butt" stroke="rgb(166,166,178)">
      <rect fill="none" width="330.7572" x="-8" height="17.9688" y="-26"/>
    </g>
    <g fill="rgb(238,238,255)" transform="matrix(0.8181,0,0,0.8181,138.2517,251.9617)" stroke="rgb(238,238,255)">
      <rect width="331.22" x="-8" height="231.0116" y="-8.0312" stroke="none"/>
    </g>
    <g fill="rgb(166,166,178)" stroke-miterlimit="1.45" transform="matrix(0.8181,0,0,0.8181,138.2517,251.9617)" stroke-linecap="butt" stroke="rgb(166,166,178)">
      <rect fill="none" width="331.22" x="-8" height="231.0116" y="-8.0312"/>
    </g>
    <g font-family="sans-serif" transform="matrix(0.8181,0,0,0.8181,138.2517,251.9617)">
      <text xml:space="preserve" x="-2" y="-12.8613" onclick="umlload('package-summary.html')" stroke="none">com.msopentech.odatajclient.engine.data.json</text>
    </g>
    <g fill="rgb(187,187,255)" transform="matrix(0.8181,0,0,0.8181,138.2517,251.9617)" stroke="rgb(187,187,255)">
      <rect x="0" y="0" clip-path="url(#clipPath7)" width="179.22" height="26.625" stroke="none"/>
      <line clip-path="url(#clipPath7)" fill="none" x1="0" x2="179.22" y1="26.625" y2="26.625" stroke="black"/>
      <rect x="0" y="27.625" clip-path="url(#clipPath7)" width="179.22" height="15.9688" stroke="none"/>
      <line clip-path="url(#clipPath7)" fill="none" x1="0" x2="179.22" y1="43.5938" y2="43.5938" stroke="black"/>
      <rect x="0" y="44.5938" clip-path="url(#clipPath7)" width="179.22" height="170.3866" stroke="none"/>
    </g>
    <g fill="rgb(130,130,178)" stroke-miterlimit="1.45" transform="matrix(0.8181,0,0,0.8181,138.2517,251.9617)" stroke-linecap="butt" stroke="rgb(130,130,178)">
      <rect fill="none" width="179.22" x="0" height="214.9804" y="0"/>
    </g>
    <g font-size="16" font-weight="bold" font-family="sans-serif" transform="matrix(0.8181,0,0,0.8181,138.2517,251.9617)">
      <text xml:space="preserve" x="6.61" y="18.8516" onclick="umlload('#')" stroke="none">JSONLinkCollection</text>
    </g>
    <g font-family="sans-serif" transform="matrix(0.8181,0,0,0.8181,138.2517,251.9617)">
      <text xml:space="preserve" x="4" y="38.1719" stroke="none">+</text>
      <text xml:space="preserve" x="19" y="39.7637" onclick="umlload('#JSONLinkCollection()')" stroke="none">JSONLinkCollection()</text>
    </g>
    <g font-family="sans-serif" transform="matrix(0.8181,0,0,0.8181,138.2517,251.9617)">
      <text xml:space="preserve" x="4" y="55.1719" stroke="none">+</text>
      <text xml:space="preserve" x="19" y="56.7324" onclick="umlload('#getLinks()')" stroke="none">getLinks() : List&lt;URI&gt;</text>
    </g>
    <g font-family="sans-serif" transform="matrix(0.8181,0,0,0.8181,138.2517,251.9617)">
      <text xml:space="preserve" x="4" y="71.1719" stroke="none">+</text>
      <text xml:space="preserve" x="19" y="72.7012" onclick="umlload('#getMetadata()')" stroke="none">getMetadata() : URI</text>
    </g>
    <g font-family="sans-serif" transform="matrix(0.8181,0,0,0.8181,138.2517,251.9617)">
      <text xml:space="preserve" x="4" y="87.1719" stroke="none">+</text>
      <text xml:space="preserve" x="19" y="88.6699" onclick="umlload('#getNext()')" stroke="none">getNext() : URI</text>
    </g>
    <g font-family="sans-serif" transform="matrix(0.8181,0,0,0.8181,138.2517,251.9617)">
      <text xml:space="preserve" x="4" y="103.1719" stroke="none">+</text>
      <text xml:space="preserve" x="19" y="104.6387" onclick="umlload('#setMetadata(java.net.URI)')" stroke="none">setMetadata(URI) : void</text>
    </g>
    <g font-family="sans-serif" transform="matrix(0.8181,0,0,0.8181,138.2517,251.9617)">
      <text xml:space="preserve" x="4" y="119.1719" stroke="none">+</text>
      <text xml:space="preserve" x="19" y="120.6074" onclick="umlload('#setNext(java.net.URI)')" stroke="none">setNext(URI) : void</text>
    </g>
    <g font-family="sans-serif" transform="matrix(0.8181,0,0,0.8181,138.2517,251.9617)">
      <text xml:space="preserve" x="-163" y="247.1543" onclick="umlload('http://www.yworks.com/')" stroke="none">yWorks UML Doclet</text>
    </g>
    <g stroke-miterlimit="1.45" transform="matrix(0.8181,0,0,0.8181,138.2517,251.9617)" stroke-linecap="butt">
      <path fill="none" d="M89.61 0.0061 L89.61 -69"/>
      <path fill="white" d="M89.61 -84 L83.61 -68 L95.61 -68 Z" stroke="none"/>
      <path fill="none" d="M89.61 -84 L83.61 -68 L95.61 -68 Z"/>
      <path fill="none" stroke-dasharray="6,2" d="M134.415 -0.0018 L134.415 -51 L405.95 -51 L405.95 -69"/>
      <path fill="white" stroke-dasharray="6,2" d="M405.95 -84 L399.95 -68 L411.95 -68 Z" stroke="none"/>
      <path fill="none" d="M405.95 -84 L399.95 -68 L411.95 -68 Z"/>
      <path fill="none" d="M0.0027 11.5664 L-76.48 11.5664"/>
      <line stroke-linecap="square" transform="matrix(-1,0,0,-1,-76.48,11.5664)" fill="none" x1="0" x2="-14" y1="0" y2="-4" stroke-miterlimit="10"/>
      <line stroke-linecap="square" transform="matrix(-1,0,0,-1,-76.48,11.5664)" fill="none" x1="0" x2="-14" y1="0" y2="4" stroke-miterlimit="10"/>
    </g>
    <g stroke-miterlimit="1.45" transform="matrix(0.8181,0,0,0.8181,138.2517,251.9617)" stroke-linecap="butt">
      <path fill="none" d="M0.0123 98.6992 L-90.9 98.6992"/>
      <line stroke-linecap="square" transform="matrix(-1,0,0,-1,-90.9,98.6992)" fill="none" x1="0" x2="-14" y1="0" y2="-4" stroke-miterlimit="10"/>
      <line stroke-linecap="square" transform="matrix(-1,0,0,-1,-90.9,98.6992)" fill="none" x1="0" x2="-14" y1="0" y2="4" stroke-miterlimit="10"/>
    </g>
    <g stroke-miterlimit="1.45" transform="matrix(0.8181,0,0,0.8181,138.2517,251.9617)" stroke-linecap="butt">
      <path fill="none" d="M-0.0233 190.623 L-66 190.623"/>
      <line stroke-linecap="square" transform="matrix(-1,0,0,-1,-66,190.623)" fill="none" x1="0" x2="-14" y1="0" y2="-4" stroke-miterlimit="10"/>
      <line stroke-linecap="square" transform="matrix(-1,0,0,-1,-66,190.623)" fill="none" x1="0" x2="-14" y1="0" y2="4" stroke-miterlimit="10"/>
    </g>
  </g>
</svg>
