<?xml version="1.0" encoding="UTF-8"?><svg xmlns="http://www.w3.org/2000/svg" xmlns:xlink="http://www.w3.org/1999/xlink" fill-opacity="1" color-rendering="auto" color-interpolation="auto" stroke="black" text-rendering="auto" stroke-linecap="square" width="598" stroke-miterlimit="10" stroke-opacity="1" shape-rendering="auto" fill="black" stroke-dasharray="none" font-weight="normal" stroke-width="1" height="598" font-family="'Dialog'" font-style="normal" stroke-linejoin="miter" font-size="12" stroke-dashoffset="0" image-rendering="auto">
  <!--Generated by ySVG-->
  <defs id="genericDefs"/>
  <g>
    <defs id="defs1">
      <clipPath clipPathUnits="userSpaceOnUse" id="clipPath1">
        <path d="M0 0 L598 0 L598 598 L0 598 L0 0 Z"/>
      </clipPath>
      <clipPath clipPathUnits="userSpaceOnUse" id="clipPath2">
        <path d="M367.24 0 L450.67 0 L450.67 23.1328 L367.24 23.1328 L367.24 0 Z"/>
      </clipPath>
      <clipPath clipPathUnits="userSpaceOnUse" id="clipPath3">
        <path d="M-66 223.7558 C-66 232.7897 -87.1952 240.1132 -113.3408 240.1132 C-139.4864 240.1132 -160.6816 232.7897 -160.6816 223.7558 C-160.6816 214.7219 -139.4864 207.3984 -113.3408 207.3984 C-87.1952 207.3984 -66 214.7219 -66 223.7558 Z"/>
      </clipPath>
      <clipPath clipPathUnits="userSpaceOnUse" id="clipPath4">
        <path d="M-123.86 120.2656 L-90.9 120.2656 L-90.9 143.3984 L-123.86 143.3984 L-123.86 120.2656 Z"/>
      </clipPath>
      <clipPath clipPathUnits="userSpaceOnUse" id="clipPath5">
        <path d="M-130.04 0 L-67.21 0 L-67.21 23.1328 L-130.04 23.1328 L-130.04 0 Z"/>
      </clipPath>
      <clipPath clipPathUnits="userSpaceOnUse" id="clipPath6">
        <path d="M-130.04 33.1328 L-76.48 33.1328 L-76.48 56.2656 L-130.04 56.2656 L-130.04 33.1328 Z"/>
      </clipPath>
      <clipPath clipPathUnits="userSpaceOnUse" id="clipPath7">
        <path d="M534.9019 -100.3574 C534.9019 -91.3234 498.3809 -84 453.33 -84 C408.2791 -84 371.7581 -91.3234 371.7581 -100.3574 C371.7581 -109.3913 408.2791 -116.7147 453.33 -116.7147 C498.3809 -116.7147 534.9019 -109.3913 534.9019 -100.3574 Z"/>
      </clipPath>
      <clipPath clipPathUnits="userSpaceOnUse" id="clipPath8">
        <path d="M45.32 -107.1328 L228.66 -107.1328 L228.66 -84 L45.32 -84 L45.32 -107.1328 Z"/>
      </clipPath>
      <clipPath clipPathUnits="userSpaceOnUse" id="clipPath9">
        <path d="M0 0 L273.98 0 L273.98 248.1132 L0 248.1132 L0 0 Z"/>
      </clipPath>
      <script type="text/ecmascript"><![CDATA[
function umlload(newLocation)
{
if (newLocation.charAt(0) != '#') {
if (newLocation.indexOf("://") > -1) {
window.parent.location.href = newLocation;
} else {
var tmp = window.parent.location.href;
tmp = tmp.substring(0, tmp.lastIndexOf("/") + 1);
window.parent.location.href = tmp.concat(newLocation);
}
} else {
window.parent.location.hash = newLocation;
}
}
]]></script>
    </defs>
    <g fill="rgb(238,238,255)" transform="matrix(0.6962,0,0,0.6962,117.6508,247.1362)" stroke="rgb(238,238,255)">
      <rect width="330.7572" x="359.24" height="17.9688" y="-26" stroke="none"/>
    </g>
    <g fill="rgb(166,166,178)" stroke-miterlimit="1.45" transform="matrix(0.6962,0,0,0.6962,117.6508,247.1362)" stroke-linecap="butt" stroke="rgb(166,166,178)">
      <rect fill="none" width="330.7572" x="359.24" height="17.9688" y="-26"/>
    </g>
    <g fill="rgb(238,238,255)" transform="matrix(0.6962,0,0,0.6962,117.6508,247.1362)" stroke="rgb(238,238,255)">
      <rect width="330.7572" x="359.24" height="39.1641" y="-8.0312" stroke="none"/>
    </g>
    <g fill="rgb(166,166,178)" stroke-miterlimit="1.45" transform="matrix(0.6962,0,0,0.6962,117.6508,247.1362)" stroke-linecap="butt" stroke="rgb(166,166,178)">
      <rect fill="none" width="330.7572" x="359.24" height="39.1641" y="-8.0312"/>
    </g>
    <g font-family="sans-serif" transform="matrix(0.6962,0,0,0.6962,117.6508,247.1362)">
      <text xml:space="preserve" x="365.24" y="-12.8613" onclick="umlload('../../../../../../com/msopentech/odatajclient/engine/data/json/package-summary.html')" stroke="none">com.msopentech.odatajclient.engine.data.json</text>
    </g>
    <g fill="rgb(187,187,255)" transform="matrix(0.6962,0,0,0.6962,117.6508,247.1362)" stroke="rgb(187,187,255)">
      <rect x="367.24" y="0" clip-path="url(#clipPath2)" width="83.43" height="23.1328" stroke="none"/>
    </g>
    <g fill="rgb(130,130,178)" stroke-miterlimit="1.45" transform="matrix(0.6962,0,0,0.6962,117.6508,247.1362)" stroke-linecap="butt" stroke="rgb(130,130,178)">
      <rect fill="none" width="83.43" x="367.24" height="23.1328" y="0"/>
    </g>
    <g font-size="13" font-weight="bold" font-family="sans-serif" transform="matrix(0.6962,0,0,0.6962,117.6508,247.1362)">
      <text xml:space="preserve" x="372.455" y="16.0669" onclick="umlload('../../../../../../com/msopentech/odatajclient/engine/data/json/JSONEntry.html')" stroke="none">JSONEntry</text>
    </g>
    <g fill="rgb(238,238,255)" transform="matrix(0.6962,0,0,0.6962,117.6508,247.1362)" stroke="rgb(238,238,255)">
      <rect width="67.654" x="-168.6816" height="17.9688" y="181.3984" stroke="none"/>
    </g>
    <g fill="rgb(166,166,178)" stroke-miterlimit="1.45" transform="matrix(0.6962,0,0,0.6962,117.6508,247.1362)" stroke-linecap="butt" stroke="rgb(166,166,178)">
      <rect fill="none" width="67.654" x="-168.6816" height="17.9688" y="181.3984"/>
    </g>
    <g fill="rgb(238,238,255)" transform="matrix(0.6962,0,0,0.6962,117.6508,247.1362)" stroke="rgb(238,238,255)">
      <rect width="110.6816" x="-168.6816" height="48.746" y="199.3672" stroke="none"/>
    </g>
    <g fill="rgb(166,166,178)" stroke-miterlimit="1.45" transform="matrix(0.6962,0,0,0.6962,117.6508,247.1362)" stroke-linecap="butt" stroke="rgb(166,166,178)">
      <rect fill="none" width="110.6816" x="-168.6816" height="48.746" y="199.3672"/>
    </g>
    <g font-family="sans-serif" transform="matrix(0.6962,0,0,0.6962,117.6508,247.1362)">
      <text xml:space="preserve" x="-162.6816" y="194.5371" onclick="umlload('http://docs.oracle.com/javase/6/docs/api/java/util/package-summary.html')" stroke="none">java.util</text>
    </g>
    <g fill="rgb(221,221,255)" transform="matrix(0.6962,0,0,0.6962,117.6508,247.1362)" stroke="rgb(221,221,255)">
      <rect x="-160.6816" y="207.3984" clip-path="url(#clipPath3)" width="94.6816" height="32.7147" stroke="none"/>
    </g>
    <g fill="rgb(154,154,178)" stroke-miterlimit="1.45" transform="matrix(0.6962,0,0,0.6962,117.6508,247.1362)" stroke-linecap="butt" stroke="rgb(154,154,178)">
      <ellipse rx="47.3408" fill="none" ry="16.3574" cx="-113.3408" cy="223.7558"/>
    </g>
    <g font-style="italic" font-size="13" font-weight="bold" font-family="sans-serif" transform="matrix(0.6962,0,0,0.6962,117.6508,247.1362)">
      <text xml:space="preserve" x="-141.8408" y="228.2563" onclick="umlload('http://docs.oracle.com/javase/6/docs/api/java/util/List.html')" stroke="none">List&lt;E&gt;</text>
    </g>
    <g fill="rgb(238,238,255)" transform="matrix(0.6962,0,0,0.6962,117.6508,247.1362)" stroke="rgb(238,238,255)">
      <rect width="69.7758" x="-131.86" height="17.9688" y="94.2656" stroke="none"/>
    </g>
    <g fill="rgb(166,166,178)" stroke-miterlimit="1.45" transform="matrix(0.6962,0,0,0.6962,117.6508,247.1362)" stroke-linecap="butt" stroke="rgb(166,166,178)">
      <rect fill="none" width="69.7758" x="-131.86" height="17.9688" y="94.2656"/>
    </g>
    <g fill="rgb(238,238,255)" transform="matrix(0.6962,0,0,0.6962,117.6508,247.1362)" stroke="rgb(238,238,255)">
      <rect width="73.96" x="-131.86" height="39.1641" y="112.2344" stroke="none"/>
    </g>
    <g fill="rgb(166,166,178)" stroke-miterlimit="1.45" transform="matrix(0.6962,0,0,0.6962,117.6508,247.1362)" stroke-linecap="butt" stroke="rgb(166,166,178)">
      <rect fill="none" width="73.96" x="-131.86" height="39.1641" y="112.2344"/>
    </g>
    <g font-family="sans-serif" transform="matrix(0.6962,0,0,0.6962,117.6508,247.1362)">
      <text xml:space="preserve" x="-125.86" y="107.4043" onclick="umlload('http://docs.oracle.com/javase/6/docs/api/java/net/package-summary.html')" stroke="none">java.net</text>
    </g>
    <g fill="rgb(187,187,255)" transform="matrix(0.6962,0,0,0.6962,117.6508,247.1362)" stroke="rgb(187,187,255)">
      <rect x="-123.86" y="120.2656" clip-path="url(#clipPath4)" width="32.96" height="23.1328" stroke="none"/>
    </g>
    <g fill="rgb(130,130,178)" stroke-miterlimit="1.45" transform="matrix(0.6962,0,0,0.6962,117.6508,247.1362)" stroke-linecap="butt" stroke="rgb(130,130,178)">
      <rect fill="none" width="32.96" x="-123.86" height="23.1328" y="120.2656"/>
    </g>
    <g font-size="13" font-weight="bold" font-family="sans-serif" transform="matrix(0.6962,0,0,0.6962,117.6508,247.1362)">
      <text xml:space="preserve" x="-119.38" y="136.3325" onclick="umlload('http://docs.oracle.com/javase/6/docs/api/java/net/URI.html')" stroke="none">URI</text>
    </g>
    <g fill="rgb(238,238,255)" transform="matrix(0.6962,0,0,0.6962,117.6508,247.1362)" stroke="rgb(238,238,255)">
      <rect width="76.1412" x="-138.04" height="17.9688" y="-26" stroke="none"/>
    </g>
    <g fill="rgb(166,166,178)" stroke-miterlimit="1.45" transform="matrix(0.6962,0,0,0.6962,117.6508,247.1362)" stroke-linecap="butt" stroke="rgb(166,166,178)">
      <rect fill="none" width="76.1412" x="-138.04" height="17.9688" y="-26"/>
    </g>
    <g fill="rgb(238,238,255)" transform="matrix(0.6962,0,0,0.6962,117.6508,247.1362)" stroke="rgb(238,238,255)">
      <rect width="79.83" x="-138.04" height="72.2969" y="-8.0312" stroke="none"/>
    </g>
    <g fill="rgb(166,166,178)" stroke-miterlimit="1.45" transform="matrix(0.6962,0,0,0.6962,117.6508,247.1362)" stroke-linecap="butt" stroke="rgb(166,166,178)">
      <rect fill="none" width="79.83" x="-138.04" height="72.2969" y="-8.0312"/>
    </g>
    <g font-family="sans-serif" transform="matrix(0.6962,0,0,0.6962,117.6508,247.1362)">
      <text xml:space="preserve" x="-132.04" y="-12.8613" onclick="umlload('http://docs.oracle.com/javase/6/docs/api/java/lang/package-summary.html')" stroke="none">java.lang</text>
    </g>
    <g fill="rgb(187,187,255)" transform="matrix(0.6962,0,0,0.6962,117.6508,247.1362)" stroke="rgb(187,187,255)">
      <rect x="-130.04" y="0" clip-path="url(#clipPath5)" width="62.83" height="23.1328" stroke="none"/>
    </g>
    <g fill="rgb(130,130,178)" stroke-miterlimit="1.45" transform="matrix(0.6962,0,0,0.6962,117.6508,247.1362)" stroke-linecap="butt" stroke="rgb(130,130,178)">
      <rect fill="none" width="62.83" x="-130.04" height="23.1328" y="0"/>
    </g>
    <g font-size="13" font-weight="bold" font-family="sans-serif" transform="matrix(0.6962,0,0,0.6962,117.6508,247.1362)">
      <text xml:space="preserve" x="-125.125" y="16.0669" onclick="umlload('http://docs.oracle.com/javase/6/docs/api/java/lang/Integer.html')" stroke="none">Integer</text>
    </g>
    <g fill="rgb(187,187,255)" transform="matrix(0.6962,0,0,0.6962,117.6508,247.1362)" stroke="rgb(187,187,255)">
      <rect x="-130.04" y="33.1328" clip-path="url(#clipPath6)" width="53.56" height="23.1328" stroke="none"/>
    </g>
    <g fill="rgb(130,130,178)" stroke-miterlimit="1.45" transform="matrix(0.6962,0,0,0.6962,117.6508,247.1362)" stroke-linecap="butt" stroke="rgb(130,130,178)">
      <rect fill="none" width="53.56" x="-130.04" height="23.1328" y="33.1328"/>
    </g>
    <g font-size="13" font-weight="bold" font-family="sans-serif" transform="matrix(0.6962,0,0,0.6962,117.6508,247.1362)">
      <text xml:space="preserve" x="-125.26" y="49.1997" onclick="umlload('http://docs.oracle.com/javase/6/docs/api/java/lang/String.html')" stroke="none">String</text>
    </g>
    <g fill="rgb(238,238,255)" transform="matrix(0.6962,0,0,0.6962,117.6508,247.1362)" stroke="rgb(238,238,255)">
      <rect width="298.9302" x="309.7582" height="17.9688" y="-142.7147" stroke="none"/>
    </g>
    <g fill="rgb(166,166,178)" stroke-miterlimit="1.45" transform="matrix(0.6962,0,0,0.6962,117.6508,247.1362)" stroke-linecap="butt" stroke="rgb(166,166,178)">
      <rect fill="none" width="298.9302" x="309.7582" height="17.9688" y="-142.7147"/>
    </g>
    <g fill="rgb(238,238,255)" transform="matrix(0.6962,0,0,0.6962,117.6508,247.1362)" stroke="rgb(238,238,255)">
      <rect width="299.1437" x="309.7582" height="48.746" y="-124.746" stroke="none"/>
    </g>
    <g fill="rgb(166,166,178)" stroke-miterlimit="1.45" transform="matrix(0.6962,0,0,0.6962,117.6508,247.1362)" stroke-linecap="butt" stroke="rgb(166,166,178)">
      <rect fill="none" width="299.1437" x="309.7582" height="48.746" y="-124.746"/>
    </g>
    <g font-family="sans-serif" transform="matrix(0.6962,0,0,0.6962,117.6508,247.1362)">
      <text xml:space="preserve" x="315.7581" y="-129.5761" onclick="umlload('../../../../../../com/msopentech/odatajclient/engine/data/package-summary.html')" stroke="none">com.msopentech.odatajclient.engine.data</text>
    </g>
    <g fill="rgb(221,221,255)" transform="matrix(0.6962,0,0,0.6962,117.6508,247.1362)" stroke="rgb(221,221,255)">
      <rect x="371.7582" y="-116.7147" clip-path="url(#clipPath7)" width="163.1437" height="32.7147" stroke="none"/>
    </g>
    <g fill="rgb(154,154,178)" stroke-miterlimit="1.45" transform="matrix(0.6962,0,0,0.6962,117.6508,247.1362)" stroke-linecap="butt" stroke="rgb(154,154,178)">
      <ellipse rx="81.5718" fill="none" ry="16.3574" cx="453.33" cy="-100.3574"/>
    </g>
    <g font-style="italic" font-size="13" font-weight="bold" font-family="sans-serif" transform="matrix(0.6962,0,0,0.6962,117.6508,247.1362)">
      <text xml:space="preserve" x="401.33" y="-95.8569" onclick="umlload('../../../../../../com/msopentech/odatajclient/engine/data/FeedResource.html')" stroke="none">FeedResource</text>
    </g>
    <g fill="rgb(238,238,255)" transform="matrix(0.6962,0,0,0.6962,117.6508,247.1362)" stroke="rgb(238,238,255)">
      <rect width="298.9302" x="-6.68" height="17.9688" y="-133.1328" stroke="none"/>
    </g>
    <g fill="rgb(166,166,178)" stroke-miterlimit="1.45" transform="matrix(0.6962,0,0,0.6962,117.6508,247.1362)" stroke-linecap="butt" stroke="rgb(166,166,178)">
      <rect fill="none" width="298.9302" x="-6.68" height="17.9688" y="-133.1328"/>
    </g>
    <g fill="rgb(238,238,255)" transform="matrix(0.6962,0,0,0.6962,117.6508,247.1362)" stroke="rgb(238,238,255)">
      <rect width="299.34" x="-6.68" height="39.1641" y="-115.1641" stroke="none"/>
    </g>
    <g fill="rgb(166,166,178)" stroke-miterlimit="1.45" transform="matrix(0.6962,0,0,0.6962,117.6508,247.1362)" stroke-linecap="butt" stroke="rgb(166,166,178)">
      <rect fill="none" width="299.34" x="-6.68" height="39.1641" y="-115.1641"/>
    </g>
    <g font-family="sans-serif" transform="matrix(0.6962,0,0,0.6962,117.6508,247.1362)">
      <text xml:space="preserve" x="-0.68" y="-119.9941" onclick="umlload('../../../../../../com/msopentech/odatajclient/engine/data/package-summary.html')" stroke="none">com.msopentech.odatajclient.engine.data</text>
    </g>
    <g fill="rgb(204,204,255)" transform="matrix(0.6962,0,0,0.6962,117.6508,247.1362)" stroke="rgb(204,204,255)">
      <rect x="45.32" y="-107.1328" clip-path="url(#clipPath8)" width="183.34" height="23.1328" stroke="none"/>
    </g>
    <g fill="rgb(142,142,178)" stroke-miterlimit="1.45" transform="matrix(0.6962,0,0,0.6962,117.6508,247.1362)" stroke-linecap="butt" stroke="rgb(142,142,178)">
      <rect fill="none" width="183.34" x="45.32" height="23.1328" y="-107.1328"/>
    </g>
    <g font-size="13" font-weight="bold" font-family="sans-serif" transform="matrix(0.6962,0,0,0.6962,117.6508,247.1362)">
      <text xml:space="preserve" x="51.99" y="-91.0659" onclick="umlload('../../../../../../com/msopentech/odatajclient/engine/data/AbstractPayloadObject.html')" stroke="none">AbstractPayloadObject</text>
    </g>
    <g fill="rgb(238,238,255)" transform="matrix(0.6962,0,0,0.6962,117.6508,247.1362)" stroke="rgb(238,238,255)">
      <rect width="330.7572" x="-8" height="17.9688" y="-26" stroke="none"/>
    </g>
    <g fill="rgb(166,166,178)" stroke-miterlimit="1.45" transform="matrix(0.6962,0,0,0.6962,117.6508,247.1362)" stroke-linecap="butt" stroke="rgb(166,166,178)">
      <rect fill="none" width="330.7572" x="-8" height="17.9688" y="-26"/>
    </g>
    <g fill="rgb(238,238,255)" transform="matrix(0.6962,0,0,0.6962,117.6508,247.1362)" stroke="rgb(238,238,255)">
      <rect width="330.98" x="-8" height="264.1444" y="-8.0312" stroke="none"/>
    </g>
    <g fill="rgb(166,166,178)" stroke-miterlimit="1.45" transform="matrix(0.6962,0,0,0.6962,117.6508,247.1362)" stroke-linecap="butt" stroke="rgb(166,166,178)">
      <rect fill="none" width="330.98" x="-8" height="264.1444" y="-8.0312"/>
    </g>
    <g font-family="sans-serif" transform="matrix(0.6962,0,0,0.6962,117.6508,247.1362)">
      <text xml:space="preserve" x="-2" y="-12.8613" onclick="umlload('package-summary.html')" stroke="none">com.msopentech.odatajclient.engine.data.json</text>
    </g>
    <g fill="rgb(187,187,255)" transform="matrix(0.6962,0,0,0.6962,117.6508,247.1362)" stroke="rgb(187,187,255)">
      <rect x="0" y="0" clip-path="url(#clipPath9)" width="273.98" height="26.625" stroke="none"/>
      <line clip-path="url(#clipPath9)" fill="none" x1="0" x2="273.98" y1="26.625" y2="26.625" stroke="black"/>
      <rect x="0" y="27.625" clip-path="url(#clipPath9)" width="273.98" height="15.9688" stroke="none"/>
      <line clip-path="url(#clipPath9)" fill="none" x1="0" x2="273.98" y1="43.5938" y2="43.5938" stroke="black"/>
      <rect x="0" y="44.5938" clip-path="url(#clipPath9)" width="273.98" height="203.5194" stroke="none"/>
    </g>
    <g fill="rgb(130,130,178)" stroke-miterlimit="1.45" transform="matrix(0.6962,0,0,0.6962,117.6508,247.1362)" stroke-linecap="butt" stroke="rgb(130,130,178)">
      <rect fill="none" width="273.98" x="0" height="248.1132" y="0"/>
    </g>
    <g font-size="16" font-weight="bold" font-family="sans-serif" transform="matrix(0.6962,0,0,0.6962,117.6508,247.1362)">
      <text xml:space="preserve" x="93.49" y="18.8516" onclick="umlload('#')" stroke="none">JSONFeed</text>
    </g>
    <g font-family="sans-serif" transform="matrix(0.6962,0,0,0.6962,117.6508,247.1362)">
      <text xml:space="preserve" x="4" y="38.1719" stroke="none">+</text>
      <text xml:space="preserve" x="19" y="39.7637" onclick="umlload('#JSONFeed()')" stroke="none">JSONFeed()</text>
    </g>
    <g font-family="sans-serif" transform="matrix(0.6962,0,0,0.6962,117.6508,247.1362)">
      <text xml:space="preserve" x="4" y="55.1719" stroke="none">+</text>
      <text xml:space="preserve" x="19" y="56.7324" onclick="umlload('#addEntry(com.msopentech.odatajclient.engine.data.json.JSONEntry)')" stroke="none">addEntry(JSONEntry) : boolean</text>
    </g>
    <g font-family="sans-serif" transform="matrix(0.6962,0,0,0.6962,117.6508,247.1362)">
      <text xml:space="preserve" x="4" y="71.1719" stroke="none">+</text>
      <text xml:space="preserve" x="19" y="72.7012" onclick="umlload('#getBaseURI()')" stroke="none">getBaseURI() : URI</text>
    </g>
    <g font-family="sans-serif" transform="matrix(0.6962,0,0,0.6962,117.6508,247.1362)">
      <text xml:space="preserve" x="4" y="87.1719" stroke="none">+</text>
      <text xml:space="preserve" x="19" y="88.6699" onclick="umlload('#getCount()')" stroke="none">getCount() : Integer</text>
    </g>
    <g font-family="sans-serif" transform="matrix(0.6962,0,0,0.6962,117.6508,247.1362)">
      <text xml:space="preserve" x="4" y="103.1719" stroke="none">+</text>
      <text xml:space="preserve" x="19" y="104.6387" onclick="umlload('#getEntries()')" stroke="none">getEntries() : List&lt;JSONEntry&gt;</text>
    </g>
    <g font-family="sans-serif" transform="matrix(0.6962,0,0,0.6962,117.6508,247.1362)">
      <text xml:space="preserve" x="4" y="119.1719" stroke="none">+</text>
      <text xml:space="preserve" x="19" y="120.6074" onclick="umlload('#getMetadata()')" stroke="none">getMetadata() : URI</text>
    </g>
    <g font-family="sans-serif" transform="matrix(0.6962,0,0,0.6962,117.6508,247.1362)">
      <text xml:space="preserve" x="4" y="135.1719" stroke="none">+</text>
      <text xml:space="preserve" x="19" y="136.5762" onclick="umlload('#getNext()')" stroke="none">getNext() : URI</text>
    </g>
    <g font-family="sans-serif" transform="matrix(0.6962,0,0,0.6962,117.6508,247.1362)">
      <text xml:space="preserve" x="4" y="151.1719" stroke="none">+</text>
      <text xml:space="preserve" x="19" y="152.5449" onclick="umlload('#setEntries(java.util.List)')" stroke="none">setEntries(List&lt;EntryResource&gt;) : void</text>
    </g>
    <g font-family="sans-serif" transform="matrix(0.6962,0,0,0.6962,117.6508,247.1362)">
      <text xml:space="preserve" x="4" y="167.1719" stroke="none">+</text>
      <text xml:space="preserve" x="19" y="168.5137" onclick="umlload('#setMetadata(java.net.URI)')" stroke="none">setMetadata(URI) : void</text>
    </g>
    <g font-family="sans-serif" transform="matrix(0.6962,0,0,0.6962,117.6508,247.1362)">
      <text xml:space="preserve" x="4" y="183.1719" stroke="none">+</text>
      <text xml:space="preserve" x="19" y="184.4824" onclick="umlload('#setNext(java.net.URI)')" stroke="none">setNext(URI) : void</text>
    </g>
    <g font-family="sans-serif" transform="matrix(0.6962,0,0,0.6962,117.6508,247.1362)">
      <text xml:space="preserve" x="-163" y="281.1543" onclick="umlload('http://www.yworks.com/')" stroke="none">yWorks UML Doclet</text>
    </g>
    <g stroke-miterlimit="1.45" transform="matrix(0.6962,0,0,0.6962,117.6508,247.1362)" stroke-linecap="butt">
      <path fill="none" d="M136.99 -0.0103 L136.99 -69"/>
      <path fill="white" d="M136.99 -84 L130.99 -68 L142.99 -68 Z" stroke="none"/>
      <path fill="none" d="M136.99 -84 L130.99 -68 L142.99 -68 Z"/>
      <path fill="none" stroke-dasharray="6,2" d="M205.485 -0.0039 L205.485 -51 L453.33 -51 L453.33 -69"/>
      <path fill="white" stroke-dasharray="6,2" d="M453.33 -84 L447.33 -68 L459.33 -68 Z" stroke="none"/>
      <path fill="none" d="M453.33 -84 L447.33 -68 L459.33 -68 Z"/>
      <path fill="none" d="M-0.0015 11.5664 L-67.21 11.5664"/>
      <line stroke-linecap="square" transform="matrix(-1,0,0,-1,-67.21,11.5664)" fill="none" x1="0" x2="-14" y1="0" y2="-4" stroke-miterlimit="10"/>
      <line stroke-linecap="square" transform="matrix(-1,0,0,-1,-67.21,11.5664)" fill="none" x1="0" x2="-14" y1="0" y2="4" stroke-miterlimit="10"/>
    </g>
    <g stroke-miterlimit="1.45" transform="matrix(0.6962,0,0,0.6962,117.6508,247.1362)" stroke-linecap="butt">
      <path fill="none" d="M0.0017 44.6992 L-76.48 44.6992"/>
      <line stroke-linecap="square" transform="matrix(-1,0,0,-1,-76.48,44.6992)" fill="none" x1="0" x2="-14" y1="0" y2="-4" stroke-miterlimit="10"/>
      <line stroke-linecap="square" transform="matrix(-1,0,0,-1,-76.48,44.6992)" fill="none" x1="0" x2="-14" y1="0" y2="4" stroke-miterlimit="10"/>
    </g>
    <g stroke-miterlimit="1.45" transform="matrix(0.6962,0,0,0.6962,117.6508,247.1362)" stroke-linecap="butt">
      <path fill="none" d="M-0.0207 131.832 L-90.9 131.832"/>
      <line stroke-linecap="square" transform="matrix(-1,0,0,-1,-90.9,131.832)" fill="none" x1="0" x2="-14" y1="0" y2="-4" stroke-miterlimit="10"/>
      <line stroke-linecap="square" transform="matrix(-1,0,0,-1,-90.9,131.832)" fill="none" x1="0" x2="-14" y1="0" y2="4" stroke-miterlimit="10"/>
    </g>
    <g stroke-miterlimit="1.45" transform="matrix(0.6962,0,0,0.6962,117.6508,247.1362)" stroke-linecap="butt">
      <path fill="none" d="M-0.0013 223.7558 L-66 223.7558"/>
      <line stroke-linecap="square" transform="matrix(-1,0,0,-1,-66,223.7558)" fill="none" x1="0" x2="-14" y1="0" y2="-4" stroke-miterlimit="10"/>
      <line stroke-linecap="square" transform="matrix(-1,0,0,-1,-66,223.7558)" fill="none" x1="0" x2="-14" y1="0" y2="4" stroke-miterlimit="10"/>
    </g>
    <g stroke-dasharray="6,2" stroke-miterlimit="1.45" transform="matrix(0.6962,0,0,0.6962,117.6508,247.1362)" stroke-linecap="butt">
      <path fill="none" d="M274.0017 11.5664 L367.24 11.5664"/>
      <line stroke-linecap="square" transform="matrix(1,0,0,1,367.24,11.5664)" fill="none" x1="0" x2="-14" y1="0" y2="-4" stroke-dasharray="none" stroke-miterlimit="10"/>
      <line stroke-linecap="square" transform="matrix(1,0,0,1,367.24,11.5664)" fill="none" x1="0" x2="-14" y1="0" y2="4" stroke-dasharray="none" stroke-miterlimit="10"/>
    </g>
  </g>
</svg>
