<?xml version="1.0" encoding="UTF-8"?><svg xmlns="http://www.w3.org/2000/svg" xmlns:xlink="http://www.w3.org/1999/xlink" fill-opacity="1" color-rendering="auto" color-interpolation="auto" stroke="black" text-rendering="auto" stroke-linecap="square" width="598" stroke-miterlimit="10" stroke-opacity="1" shape-rendering="auto" fill="black" stroke-dasharray="none" font-weight="normal" stroke-width="1" height="598" font-family="'Dialog'" font-style="normal" stroke-linejoin="miter" font-size="12" stroke-dashoffset="0" image-rendering="auto">
  <!--Generated by ySVG-->
  <defs id="genericDefs"/>
  <g>
    <defs id="defs1">
      <clipPath clipPathUnits="userSpaceOnUse" id="clipPath1">
        <path d="M0 0 L598 0 L598 598 L0 598 L0 0 Z"/>
      </clipPath>
      <clipPath clipPathUnits="userSpaceOnUse" id="clipPath2">
        <path d="M485.21 174.2656 L595.42 174.2656 L595.42 197.3984 L485.21 197.3984 L485.21 174.2656 Z"/>
      </clipPath>
      <clipPath clipPathUnits="userSpaceOnUse" id="clipPath3">
        <path d="M485.21 87.1328 L664.43 87.1328 L664.43 110.2656 L485.21 110.2656 L485.21 87.1328 Z"/>
      </clipPath>
      <clipPath clipPathUnits="userSpaceOnUse" id="clipPath4">
        <path d="M485.21 0 L573.79 0 L573.79 23.1328 L485.21 23.1328 L485.21 0 Z"/>
      </clipPath>
      <clipPath clipPathUnits="userSpaceOnUse" id="clipPath5">
        <path d="M82.915 -107.1328 L336.295 -107.1328 L336.295 -84 L82.915 -84 L82.915 -107.1328 Z"/>
      </clipPath>
      <clipPath clipPathUnits="userSpaceOnUse" id="clipPath6">
        <path d="M0 0 L419.21 0 L419.21 205.3984 L0 205.3984 L0 0 Z"/>
      </clipPath>
      <script type="text/ecmascript"><![CDATA[
function umlload(newLocation)
{
if (newLocation.charAt(0) != '#') {
if (newLocation.indexOf("://") > -1) {
window.parent.location.href = newLocation;
} else {
var tmp = window.parent.location.href;
tmp = tmp.substring(0, tmp.lastIndexOf("/") + 1);
window.parent.location.href = tmp.concat(newLocation);
}
} else {
window.parent.location.hash = newLocation;
}
}
]]></script>
    </defs>
    <g fill="rgb(238,238,255)" transform="matrix(0.7319,0,0,0.7319,5.8556,256.9131)" stroke="rgb(238,238,255)">
      <rect width="330.7572" x="477.21" height="17.9688" y="148.2656" stroke="none"/>
    </g>
    <g fill="rgb(166,166,178)" stroke-miterlimit="1.45" transform="matrix(0.7319,0,0,0.7319,5.8556,256.9131)" stroke-linecap="butt" stroke="rgb(166,166,178)">
      <rect fill="none" width="330.7572" x="477.21" height="17.9688" y="148.2656"/>
    </g>
    <g fill="rgb(238,238,255)" transform="matrix(0.7319,0,0,0.7319,5.8556,256.9131)" stroke="rgb(238,238,255)">
      <rect width="331.21" x="477.21" height="39.1641" y="166.2344" stroke="none"/>
    </g>
    <g fill="rgb(166,166,178)" stroke-miterlimit="1.45" transform="matrix(0.7319,0,0,0.7319,5.8556,256.9131)" stroke-linecap="butt" stroke="rgb(166,166,178)">
      <rect fill="none" width="331.21" x="477.21" height="39.1641" y="166.2344"/>
    </g>
    <g font-family="sans-serif" transform="matrix(0.7319,0,0,0.7319,5.8556,256.9131)">
      <text xml:space="preserve" x="483.21" y="161.4043" onclick="umlload('../../../../../../com/msopentech/odatajclient/engine/data/json/package-summary.html')" stroke="none">com.msopentech.odatajclient.engine.data.json</text>
    </g>
    <g fill="rgb(187,187,255)" transform="matrix(0.7319,0,0,0.7319,5.8556,256.9131)" stroke="rgb(187,187,255)">
      <rect x="485.21" y="174.2656" clip-path="url(#clipPath2)" width="110.21" height="23.1328" stroke="none"/>
    </g>
    <g fill="rgb(130,130,178)" stroke-miterlimit="1.45" transform="matrix(0.7319,0,0,0.7319,5.8556,256.9131)" stroke-linecap="butt" stroke="rgb(130,130,178)">
      <rect fill="none" width="110.21" x="485.21" height="23.1328" y="174.2656"/>
    </g>
    <g font-size="13" font-weight="bold" font-family="sans-serif" transform="matrix(0.7319,0,0,0.7319,5.8556,256.9131)">
      <text xml:space="preserve" x="490.815" y="190.3325" onclick="umlload('../../../../../../com/msopentech/odatajclient/engine/data/json/JSONProperty.html')" stroke="none">JSONProperty</text>
    </g>
    <g fill="rgb(238,238,255)" transform="matrix(0.7319,0,0,0.7319,5.8556,256.9131)" stroke="rgb(238,238,255)">
      <rect width="227.8499" x="477.21" height="17.9688" y="61.1328" stroke="none"/>
    </g>
    <g fill="rgb(166,166,178)" stroke-miterlimit="1.45" transform="matrix(0.7319,0,0,0.7319,5.8556,256.9131)" stroke-linecap="butt" stroke="rgb(166,166,178)">
      <rect fill="none" width="227.8499" x="477.21" height="17.9688" y="61.1328"/>
    </g>
    <g fill="rgb(238,238,255)" transform="matrix(0.7319,0,0,0.7319,5.8556,256.9131)" stroke="rgb(238,238,255)">
      <rect width="228.22" x="477.21" height="39.1641" y="79.1016" stroke="none"/>
    </g>
    <g fill="rgb(166,166,178)" stroke-miterlimit="1.45" transform="matrix(0.7319,0,0,0.7319,5.8556,256.9131)" stroke-linecap="butt" stroke="rgb(166,166,178)">
      <rect fill="none" width="228.22" x="477.21" height="39.1641" y="79.1016"/>
    </g>
    <g font-family="sans-serif" transform="matrix(0.7319,0,0,0.7319,5.8556,256.9131)">
      <text xml:space="preserve" x="483.21" y="74.2715" stroke="none">com.fasterxml.jackson.databind</text>
    </g>
    <g fill="rgb(204,204,255)" transform="matrix(0.7319,0,0,0.7319,5.8556,256.9131)" stroke="rgb(204,204,255)">
      <rect x="485.21" y="87.1328" clip-path="url(#clipPath3)" width="179.22" height="23.1328" stroke="none"/>
    </g>
    <g fill="rgb(142,142,178)" stroke-miterlimit="1.45" transform="matrix(0.7319,0,0,0.7319,5.8556,256.9131)" stroke-linecap="butt" stroke="rgb(142,142,178)">
      <rect fill="none" width="179.22" x="485.21" height="23.1328" y="87.1328"/>
    </g>
    <g font-size="13" font-weight="bold" font-family="sans-serif" transform="matrix(0.7319,0,0,0.7319,5.8556,256.9131)">
      <text xml:space="preserve" x="491.82" y="103.1997" stroke="none">DeserializationContext</text>
    </g>
    <g fill="rgb(238,238,255)" transform="matrix(0.7319,0,0,0.7319,5.8556,256.9131)" stroke="rgb(238,238,255)">
      <rect width="198.1447" x="477.21" height="17.9688" y="-26" stroke="none"/>
    </g>
    <g fill="rgb(166,166,178)" stroke-miterlimit="1.45" transform="matrix(0.7319,0,0,0.7319,5.8556,256.9131)" stroke-linecap="butt" stroke="rgb(166,166,178)">
      <rect fill="none" width="198.1447" x="477.21" height="17.9688" y="-26"/>
    </g>
    <g fill="rgb(238,238,255)" transform="matrix(0.7319,0,0,0.7319,5.8556,256.9131)" stroke="rgb(238,238,255)">
      <rect width="198.58" x="477.21" height="39.1641" y="-8.0312" stroke="none"/>
    </g>
    <g fill="rgb(166,166,178)" stroke-miterlimit="1.45" transform="matrix(0.7319,0,0,0.7319,5.8556,256.9131)" stroke-linecap="butt" stroke="rgb(166,166,178)">
      <rect fill="none" width="198.58" x="477.21" height="39.1641" y="-8.0312"/>
    </g>
    <g font-family="sans-serif" transform="matrix(0.7319,0,0,0.7319,5.8556,256.9131)">
      <text xml:space="preserve" x="483.21" y="-12.8613" stroke="none">com.fasterxml.jackson.core</text>
    </g>
    <g fill="rgb(204,204,255)" transform="matrix(0.7319,0,0,0.7319,5.8556,256.9131)" stroke="rgb(204,204,255)">
      <rect x="485.21" y="0" clip-path="url(#clipPath4)" width="88.58" height="23.1328" stroke="none"/>
    </g>
    <g fill="rgb(142,142,178)" stroke-miterlimit="1.45" transform="matrix(0.7319,0,0,0.7319,5.8556,256.9131)" stroke-linecap="butt" stroke="rgb(142,142,178)">
      <rect fill="none" width="88.58" x="485.21" height="23.1328" y="0"/>
    </g>
    <g font-size="13" font-weight="bold" font-family="sans-serif" transform="matrix(0.7319,0,0,0.7319,5.8556,256.9131)">
      <text xml:space="preserve" x="490.5" y="16.0669" stroke="none">JsonParser</text>
    </g>
    <g fill="rgb(238,238,255)" transform="matrix(0.7319,0,0,0.7319,5.8556,256.9131)" stroke="rgb(238,238,255)">
      <rect width="227.8499" x="74.915" height="17.9688" y="-133.1328" stroke="none"/>
    </g>
    <g fill="rgb(166,166,178)" stroke-miterlimit="1.45" transform="matrix(0.7319,0,0,0.7319,5.8556,256.9131)" stroke-linecap="butt" stroke="rgb(166,166,178)">
      <rect fill="none" width="227.8499" x="74.915" height="17.9688" y="-133.1328"/>
    </g>
    <g fill="rgb(238,238,255)" transform="matrix(0.7319,0,0,0.7319,5.8556,256.9131)" stroke="rgb(238,238,255)">
      <rect width="269.38" x="74.915" height="39.1641" y="-115.1641" stroke="none"/>
    </g>
    <g fill="rgb(166,166,178)" stroke-miterlimit="1.45" transform="matrix(0.7319,0,0,0.7319,5.8556,256.9131)" stroke-linecap="butt" stroke="rgb(166,166,178)">
      <rect fill="none" width="269.38" x="74.915" height="39.1641" y="-115.1641"/>
    </g>
    <g font-family="sans-serif" transform="matrix(0.7319,0,0,0.7319,5.8556,256.9131)">
      <text xml:space="preserve" x="80.915" y="-119.9941" stroke="none">com.fasterxml.jackson.databind</text>
    </g>
    <g fill="rgb(204,204,255)" transform="matrix(0.7319,0,0,0.7319,5.8556,256.9131)" stroke="rgb(204,204,255)">
      <rect x="82.915" y="-107.1328" clip-path="url(#clipPath5)" width="253.38" height="23.1328" stroke="none"/>
    </g>
    <g fill="rgb(142,142,178)" stroke-miterlimit="1.45" transform="matrix(0.7319,0,0,0.7319,5.8556,256.9131)" stroke-linecap="butt" stroke="rgb(142,142,178)">
      <rect fill="none" width="253.38" x="82.915" height="23.1328" y="-107.1328"/>
    </g>
    <g font-size="13" font-weight="bold" font-family="sans-serif" transform="matrix(0.7319,0,0,0.7319,5.8556,256.9131)">
      <text xml:space="preserve" x="90.605" y="-91.0659" stroke="none">JsonDeserializer&lt;JSONProperty&gt;</text>
    </g>
    <g fill="rgb(238,238,255)" transform="matrix(0.7319,0,0,0.7319,5.8556,256.9131)" stroke="rgb(238,238,255)">
      <rect width="330.7572" x="-8" height="17.9688" y="-26" stroke="none"/>
    </g>
    <g fill="rgb(166,166,178)" stroke-miterlimit="1.45" transform="matrix(0.7319,0,0,0.7319,5.8556,256.9131)" stroke-linecap="butt" stroke="rgb(166,166,178)">
      <rect fill="none" width="330.7572" x="-8" height="17.9688" y="-26"/>
    </g>
    <g fill="rgb(238,238,255)" transform="matrix(0.7319,0,0,0.7319,5.8556,256.9131)" stroke="rgb(238,238,255)">
      <rect width="435.21" x="-8" height="221.4297" y="-8.0312" stroke="none"/>
    </g>
    <g fill="rgb(166,166,178)" stroke-miterlimit="1.45" transform="matrix(0.7319,0,0,0.7319,5.8556,256.9131)" stroke-linecap="butt" stroke="rgb(166,166,178)">
      <rect fill="none" width="435.21" x="-8" height="221.4297" y="-8.0312"/>
    </g>
    <g font-family="sans-serif" transform="matrix(0.7319,0,0,0.7319,5.8556,256.9131)">
      <text xml:space="preserve" x="-2" y="-12.8613" onclick="umlload('package-summary.html')" stroke="none">com.msopentech.odatajclient.engine.data.json</text>
    </g>
    <g fill="rgb(187,187,255)" transform="matrix(0.7319,0,0,0.7319,5.8556,256.9131)" stroke="rgb(187,187,255)">
      <rect x="0" y="0" clip-path="url(#clipPath6)" width="419.21" height="26.625" stroke="none"/>
      <line clip-path="url(#clipPath6)" fill="none" x1="0" x2="419.21" y1="26.625" y2="26.625" stroke="black"/>
      <rect x="0" y="27.625" clip-path="url(#clipPath6)" width="419.21" height="15.9688" stroke="none"/>
      <line clip-path="url(#clipPath6)" fill="none" x1="0" x2="419.21" y1="43.5938" y2="43.5938" stroke="black"/>
      <rect x="0" y="44.5938" clip-path="url(#clipPath6)" width="419.21" height="160.8047" stroke="none"/>
    </g>
    <g fill="rgb(130,130,178)" stroke-miterlimit="1.45" transform="matrix(0.7319,0,0,0.7319,5.8556,256.9131)" stroke-linecap="butt" stroke="rgb(130,130,178)">
      <rect fill="none" width="419.21" x="0" height="205.3984" y="0"/>
    </g>
    <g font-size="16" font-weight="bold" font-family="sans-serif" transform="matrix(0.7319,0,0,0.7319,5.8556,256.9131)">
      <text xml:space="preserve" x="96.605" y="18.8516" onclick="umlload('#')" stroke="none">JSONPropertyDeserializer</text>
    </g>
    <g font-family="sans-serif" transform="matrix(0.7319,0,0,0.7319,5.8556,256.9131)">
      <text xml:space="preserve" x="4" y="38.1719" stroke="none">+</text>
      <text xml:space="preserve" x="19" y="39.7637" onclick="umlload('#JSONPropertyDeserializer()')" stroke="none">JSONPropertyDeserializer()</text>
    </g>
    <g font-family="sans-serif" transform="matrix(0.7319,0,0,0.7319,5.8556,256.9131)">
      <text xml:space="preserve" x="4" y="55.1719" stroke="none">+</text>
      <text xml:space="preserve" x="19" y="56.7324" onclick="umlload('#deserialize(com.fasterxml.jackson.core.JsonParser, com.fasterxml.jackson.databind.DeserializationContext)')" stroke="none">deserialize(JsonParser, DeserializationContext) : JSONProperty</text>
    </g>
    <g font-family="sans-serif" transform="matrix(0.7319,0,0,0.7319,5.8556,256.9131)">
      <text xml:space="preserve" x="-2" y="238.1543" onclick="umlload('http://www.yworks.com/')" stroke="none">yWorks UML Doclet</text>
    </g>
    <g stroke-miterlimit="1.45" transform="matrix(0.7319,0,0,0.7319,5.8556,256.9131)" stroke-linecap="butt">
      <path fill="none" d="M209.605 0.0176 L209.605 -69"/>
      <path fill="white" d="M209.605 -84 L203.605 -68 L215.605 -68 Z" stroke="none"/>
      <path fill="none" d="M209.605 -84 L203.605 -68 L215.605 -68 Z"/>
      <path fill="none" stroke-dasharray="6,2" d="M419.1846 11.5664 L485.21 11.5664"/>
      <line stroke-linecap="square" transform="matrix(1,0,0,1,485.21,11.5664)" fill="none" x1="0" x2="-14" y1="0" y2="-4" stroke-miterlimit="10"/>
      <line stroke-linecap="square" transform="matrix(1,0,0,1,485.21,11.5664)" fill="none" x1="0" x2="-14" y1="0" y2="4" stroke-miterlimit="10"/>
    </g>
    <g stroke-dasharray="6,2" stroke-miterlimit="1.45" transform="matrix(0.7319,0,0,0.7319,5.8556,256.9131)" stroke-linecap="butt">
      <path fill="none" d="M419.1846 98.6992 L485.21 98.6992"/>
      <line stroke-linecap="square" transform="matrix(1,0,0,1,485.21,98.6992)" fill="none" x1="0" x2="-14" y1="0" y2="-4" stroke-dasharray="none" stroke-miterlimit="10"/>
      <line stroke-linecap="square" transform="matrix(1,0,0,1,485.21,98.6992)" fill="none" x1="0" x2="-14" y1="0" y2="4" stroke-dasharray="none" stroke-miterlimit="10"/>
    </g>
    <g stroke-dasharray="6,2" stroke-miterlimit="1.45" transform="matrix(0.7319,0,0,0.7319,5.8556,256.9131)" stroke-linecap="butt">
      <path fill="none" d="M419.2458 185.832 L485.21 185.832"/>
      <line stroke-linecap="square" transform="matrix(1,0,0,1,485.21,185.832)" fill="none" x1="0" x2="-14" y1="0" y2="-4" stroke-dasharray="none" stroke-miterlimit="10"/>
      <line stroke-linecap="square" transform="matrix(1,0,0,1,485.21,185.832)" fill="none" x1="0" x2="-14" y1="0" y2="4" stroke-dasharray="none" stroke-miterlimit="10"/>
    </g>
  </g>
</svg>
