<?xml version="1.0" encoding="UTF-8"?><svg xmlns="http://www.w3.org/2000/svg" xmlns:xlink="http://www.w3.org/1999/xlink" fill-opacity="1" color-rendering="auto" color-interpolation="auto" stroke="black" text-rendering="auto" stroke-linecap="square" width="598" stroke-miterlimit="10" stroke-opacity="1" shape-rendering="auto" fill="black" stroke-dasharray="none" font-weight="normal" stroke-width="1" height="598" font-family="'Dialog'" font-style="normal" stroke-linejoin="miter" font-size="12" stroke-dashoffset="0" image-rendering="auto">
  <!--Generated by ySVG-->
  <defs id="genericDefs"/>
  <g>
    <defs id="defs1">
      <clipPath clipPathUnits="userSpaceOnUse" id="clipPath1">
        <path d="M0 0 L598 0 L598 598 L0 598 L0 0 Z"/>
      </clipPath>
      <clipPath clipPathUnits="userSpaceOnUse" id="clipPath2">
        <path d="M684.7142 16.3574 C684.7142 25.3913 655.041 32.7147 618.4371 32.7147 C581.8333 32.7147 552.16 25.3913 552.16 16.3574 C552.16 7.3234 581.8333 0 618.4371 0 C655.041 0 684.7142 7.3234 684.7142 16.3574 Z"/>
      </clipPath>
      <clipPath clipPathUnits="userSpaceOnUse" id="clipPath3">
        <path d="M-66 103.4902 C-66 112.5241 -87.1952 119.8475 -113.3408 119.8475 C-139.4864 119.8475 -160.6816 112.5241 -160.6816 103.4902 C-160.6816 94.4563 -139.4864 87.1328 -113.3408 87.1328 C-87.1952 87.1328 -66 94.4563 -66 103.4902 Z"/>
      </clipPath>
      <clipPath clipPathUnits="userSpaceOnUse" id="clipPath4">
        <path d="M-123.86 0 L-90.9 0 L-90.9 23.1328 L-123.86 23.1328 L-123.86 0 Z"/>
      </clipPath>
      <clipPath clipPathUnits="userSpaceOnUse" id="clipPath5">
        <path d="M721.4045 -100.3574 C721.4045 -91.3234 654.8842 -84 572.8273 -84 C490.7703 -84 424.25 -91.3234 424.25 -100.3574 C424.25 -109.3913 490.7703 -116.7147 572.8273 -116.7147 C654.8842 -116.7147 721.4045 -109.3913 721.4045 -100.3574 Z"/>
      </clipPath>
      <clipPath clipPathUnits="userSpaceOnUse" id="clipPath6">
        <path d="M151.41 -107.1328 L334.75 -107.1328 L334.75 -84 L151.41 -84 L151.41 -107.1328 Z"/>
      </clipPath>
      <clipPath clipPathUnits="userSpaceOnUse" id="clipPath7">
        <path d="M-0 0 L486.16 0 L486.16 140.4062 L-0 140.4062 L-0 0 Z"/>
      </clipPath>
      <script type="text/ecmascript"><![CDATA[
function umlload(newLocation)
{
if (newLocation.charAt(0) != '#') {
if (newLocation.indexOf("://") > -1) {
window.parent.location.href = newLocation;
} else {
var tmp = window.parent.location.href;
tmp = tmp.substring(0, tmp.lastIndexOf("/") + 1);
window.parent.location.href = tmp.concat(newLocation);
}
} else {
window.parent.location.hash = newLocation;
}
}
]]></script>
    </defs>
    <g fill="rgb(238,238,255)" transform="matrix(0.6652,0,0,0.6652,112.416,285.3637)" stroke="rgb(238,238,255)">
      <rect width="67.654" x="544.16" height="17.9688" y="-26" stroke="none"/>
    </g>
    <g fill="rgb(166,166,178)" stroke-miterlimit="1.45" transform="matrix(0.6652,0,0,0.6652,112.416,285.3637)" stroke-linecap="butt" stroke="rgb(166,166,178)">
      <rect fill="none" width="67.654" x="544.16" height="17.9688" y="-26"/>
    </g>
    <g fill="rgb(238,238,255)" transform="matrix(0.6652,0,0,0.6652,112.416,285.3637)" stroke="rgb(238,238,255)">
      <rect width="148.5542" x="544.16" height="48.746" y="-8.0312" stroke="none"/>
    </g>
    <g fill="rgb(166,166,178)" stroke-miterlimit="1.45" transform="matrix(0.6652,0,0,0.6652,112.416,285.3637)" stroke-linecap="butt" stroke="rgb(166,166,178)">
      <rect fill="none" width="148.5542" x="544.16" height="48.746" y="-8.0312"/>
    </g>
    <g font-family="sans-serif" transform="matrix(0.6652,0,0,0.6652,112.416,285.3637)">
      <text xml:space="preserve" x="550.16" y="-12.8613" onclick="umlload('http://docs.oracle.com/javase/6/docs/api/java/util/package-summary.html')" stroke="none">java.util</text>
    </g>
    <g fill="rgb(221,221,255)" transform="matrix(0.6652,0,0,0.6652,112.416,285.3637)" stroke="rgb(221,221,255)">
      <rect x="552.16" y="0" clip-path="url(#clipPath2)" width="132.5542" height="32.7147" stroke="none"/>
    </g>
    <g fill="rgb(154,154,178)" stroke-miterlimit="1.45" transform="matrix(0.6652,0,0,0.6652,112.416,285.3637)" stroke-linecap="butt" stroke="rgb(154,154,178)">
      <ellipse rx="66.2771" fill="none" ry="16.3574" cx="618.4371" cy="16.3574"/>
    </g>
    <g font-style="italic" font-size="13" font-weight="bold" font-family="sans-serif" transform="matrix(0.6652,0,0,0.6652,112.416,285.3637)">
      <text xml:space="preserve" x="576.9371" y="20.8579" onclick="umlload('http://docs.oracle.com/javase/6/docs/api/java/util/Map.html')" stroke="none">Map&lt;K, V&gt;</text>
    </g>
    <g fill="rgb(238,238,255)" transform="matrix(0.6652,0,0,0.6652,112.416,285.3637)" stroke="rgb(238,238,255)">
      <rect width="67.654" x="-168.6816" height="17.9688" y="61.1328" stroke="none"/>
    </g>
    <g fill="rgb(166,166,178)" stroke-miterlimit="1.45" transform="matrix(0.6652,0,0,0.6652,112.416,285.3637)" stroke-linecap="butt" stroke="rgb(166,166,178)">
      <rect fill="none" width="67.654" x="-168.6816" height="17.9688" y="61.1328"/>
    </g>
    <g fill="rgb(238,238,255)" transform="matrix(0.6652,0,0,0.6652,112.416,285.3637)" stroke="rgb(238,238,255)">
      <rect width="110.6816" x="-168.6816" height="48.746" y="79.1016" stroke="none"/>
    </g>
    <g fill="rgb(166,166,178)" stroke-miterlimit="1.45" transform="matrix(0.6652,0,0,0.6652,112.416,285.3637)" stroke-linecap="butt" stroke="rgb(166,166,178)">
      <rect fill="none" width="110.6816" x="-168.6816" height="48.746" y="79.1016"/>
    </g>
    <g font-family="sans-serif" transform="matrix(0.6652,0,0,0.6652,112.416,285.3637)">
      <text xml:space="preserve" x="-162.6816" y="74.2715" onclick="umlload('http://docs.oracle.com/javase/6/docs/api/java/util/package-summary.html')" stroke="none">java.util</text>
    </g>
    <g fill="rgb(221,221,255)" transform="matrix(0.6652,0,0,0.6652,112.416,285.3637)" stroke="rgb(221,221,255)">
      <rect x="-160.6816" y="87.1328" clip-path="url(#clipPath3)" width="94.6816" height="32.7147" stroke="none"/>
    </g>
    <g fill="rgb(154,154,178)" stroke-miterlimit="1.45" transform="matrix(0.6652,0,0,0.6652,112.416,285.3637)" stroke-linecap="butt" stroke="rgb(154,154,178)">
      <ellipse rx="47.3408" fill="none" ry="16.3574" cx="-113.3408" cy="103.4902"/>
    </g>
    <g font-style="italic" font-size="13" font-weight="bold" font-family="sans-serif" transform="matrix(0.6652,0,0,0.6652,112.416,285.3637)">
      <text xml:space="preserve" x="-141.8408" y="107.9907" onclick="umlload('http://docs.oracle.com/javase/6/docs/api/java/util/List.html')" stroke="none">List&lt;E&gt;</text>
    </g>
    <g fill="rgb(238,238,255)" transform="matrix(0.6652,0,0,0.6652,112.416,285.3637)" stroke="rgb(238,238,255)">
      <rect width="69.7758" x="-131.86" height="17.9688" y="-26" stroke="none"/>
    </g>
    <g fill="rgb(166,166,178)" stroke-miterlimit="1.45" transform="matrix(0.6652,0,0,0.6652,112.416,285.3637)" stroke-linecap="butt" stroke="rgb(166,166,178)">
      <rect fill="none" width="69.7758" x="-131.86" height="17.9688" y="-26"/>
    </g>
    <g fill="rgb(238,238,255)" transform="matrix(0.6652,0,0,0.6652,112.416,285.3637)" stroke="rgb(238,238,255)">
      <rect width="73.96" x="-131.86" height="39.1641" y="-8.0312" stroke="none"/>
    </g>
    <g fill="rgb(166,166,178)" stroke-miterlimit="1.45" transform="matrix(0.6652,0,0,0.6652,112.416,285.3637)" stroke-linecap="butt" stroke="rgb(166,166,178)">
      <rect fill="none" width="73.96" x="-131.86" height="39.1641" y="-8.0312"/>
    </g>
    <g font-family="sans-serif" transform="matrix(0.6652,0,0,0.6652,112.416,285.3637)">
      <text xml:space="preserve" x="-125.86" y="-12.8613" onclick="umlload('http://docs.oracle.com/javase/6/docs/api/java/net/package-summary.html')" stroke="none">java.net</text>
    </g>
    <g fill="rgb(187,187,255)" transform="matrix(0.6652,0,0,0.6652,112.416,285.3637)" stroke="rgb(187,187,255)">
      <rect x="-123.86" y="0" clip-path="url(#clipPath4)" width="32.96" height="23.1328" stroke="none"/>
    </g>
    <g fill="rgb(130,130,178)" stroke-miterlimit="1.45" transform="matrix(0.6652,0,0,0.6652,112.416,285.3637)" stroke-linecap="butt" stroke="rgb(130,130,178)">
      <rect fill="none" width="32.96" x="-123.86" height="23.1328" y="0"/>
    </g>
    <g font-size="13" font-weight="bold" font-family="sans-serif" transform="matrix(0.6652,0,0,0.6652,112.416,285.3637)">
      <text xml:space="preserve" x="-119.38" y="16.0669" onclick="umlload('http://docs.oracle.com/javase/6/docs/api/java/net/URI.html')" stroke="none">URI</text>
    </g>
    <g fill="rgb(238,238,255)" transform="matrix(0.6652,0,0,0.6652,112.416,285.3637)" stroke="rgb(238,238,255)">
      <rect width="298.9302" x="416.25" height="17.9688" y="-142.7147" stroke="none"/>
    </g>
    <g fill="rgb(166,166,178)" stroke-miterlimit="1.45" transform="matrix(0.6652,0,0,0.6652,112.416,285.3637)" stroke-linecap="butt" stroke="rgb(166,166,178)">
      <rect fill="none" width="298.9302" x="416.25" height="17.9688" y="-142.7147"/>
    </g>
    <g fill="rgb(238,238,255)" transform="matrix(0.6652,0,0,0.6652,112.416,285.3637)" stroke="rgb(238,238,255)">
      <rect width="313.1546" x="416.25" height="48.746" y="-124.746" stroke="none"/>
    </g>
    <g fill="rgb(166,166,178)" stroke-miterlimit="1.45" transform="matrix(0.6652,0,0,0.6652,112.416,285.3637)" stroke-linecap="butt" stroke="rgb(166,166,178)">
      <rect fill="none" width="313.1546" x="416.25" height="48.746" y="-124.746"/>
    </g>
    <g font-family="sans-serif" transform="matrix(0.6652,0,0,0.6652,112.416,285.3637)">
      <text xml:space="preserve" x="422.25" y="-129.5761" onclick="umlload('../../../../../../com/msopentech/odatajclient/engine/data/package-summary.html')" stroke="none">com.msopentech.odatajclient.engine.data</text>
    </g>
    <g fill="rgb(221,221,255)" transform="matrix(0.6652,0,0,0.6652,112.416,285.3637)" stroke="rgb(221,221,255)">
      <rect x="424.25" y="-116.7147" clip-path="url(#clipPath5)" width="297.1546" height="32.7147" stroke="none"/>
    </g>
    <g fill="rgb(154,154,178)" stroke-miterlimit="1.45" transform="matrix(0.6652,0,0,0.6652,112.416,285.3637)" stroke-linecap="butt" stroke="rgb(154,154,178)">
      <ellipse rx="148.5773" fill="none" ry="16.3574" cx="572.8273" cy="-100.3574"/>
    </g>
    <g font-style="italic" font-size="13" font-weight="bold" font-family="sans-serif" transform="matrix(0.6652,0,0,0.6652,112.416,285.3637)">
      <text xml:space="preserve" x="474.8273" y="-95.8569" onclick="umlload('../../../../../../com/msopentech/odatajclient/engine/data/ServiceDocumentResource.html')" stroke="none">ServiceDocumentResource</text>
    </g>
    <g fill="rgb(238,238,255)" transform="matrix(0.6652,0,0,0.6652,112.416,285.3637)" stroke="rgb(238,238,255)">
      <rect width="298.9302" x="99.41" height="17.9688" y="-133.1328" stroke="none"/>
    </g>
    <g fill="rgb(166,166,178)" stroke-miterlimit="1.45" transform="matrix(0.6652,0,0,0.6652,112.416,285.3637)" stroke-linecap="butt" stroke="rgb(166,166,178)">
      <rect fill="none" width="298.9302" x="99.41" height="17.9688" y="-133.1328"/>
    </g>
    <g fill="rgb(238,238,255)" transform="matrix(0.6652,0,0,0.6652,112.416,285.3637)" stroke="rgb(238,238,255)">
      <rect width="299.34" x="99.41" height="39.1641" y="-115.1641" stroke="none"/>
    </g>
    <g fill="rgb(166,166,178)" stroke-miterlimit="1.45" transform="matrix(0.6652,0,0,0.6652,112.416,285.3637)" stroke-linecap="butt" stroke="rgb(166,166,178)">
      <rect fill="none" width="299.34" x="99.41" height="39.1641" y="-115.1641"/>
    </g>
    <g font-family="sans-serif" transform="matrix(0.6652,0,0,0.6652,112.416,285.3637)">
      <text xml:space="preserve" x="105.41" y="-119.9941" onclick="umlload('../../../../../../com/msopentech/odatajclient/engine/data/package-summary.html')" stroke="none">com.msopentech.odatajclient.engine.data</text>
    </g>
    <g fill="rgb(204,204,255)" transform="matrix(0.6652,0,0,0.6652,112.416,285.3637)" stroke="rgb(204,204,255)">
      <rect x="151.41" y="-107.1328" clip-path="url(#clipPath6)" width="183.34" height="23.1328" stroke="none"/>
    </g>
    <g fill="rgb(142,142,178)" stroke-miterlimit="1.45" transform="matrix(0.6652,0,0,0.6652,112.416,285.3637)" stroke-linecap="butt" stroke="rgb(142,142,178)">
      <rect fill="none" width="183.34" x="151.41" height="23.1328" y="-107.1328"/>
    </g>
    <g font-size="13" font-weight="bold" font-family="sans-serif" transform="matrix(0.6652,0,0,0.6652,112.416,285.3637)">
      <text xml:space="preserve" x="158.08" y="-91.0659" onclick="umlload('../../../../../../com/msopentech/odatajclient/engine/data/AbstractPayloadObject.html')" stroke="none">AbstractPayloadObject</text>
    </g>
    <g fill="rgb(238,238,255)" transform="matrix(0.6652,0,0,0.6652,112.416,285.3637)" stroke="rgb(238,238,255)">
      <rect width="330.7572" x="-8" height="17.9688" y="-26" stroke="none"/>
    </g>
    <g fill="rgb(166,166,178)" stroke-miterlimit="1.45" transform="matrix(0.6652,0,0,0.6652,112.416,285.3637)" stroke-linecap="butt" stroke="rgb(166,166,178)">
      <rect fill="none" width="330.7572" x="-8" height="17.9688" y="-26"/>
    </g>
    <g fill="rgb(238,238,255)" transform="matrix(0.6652,0,0,0.6652,112.416,285.3637)" stroke="rgb(238,238,255)">
      <rect width="502.16" x="-8" height="156.4375" y="-8.0312" stroke="none"/>
    </g>
    <g fill="rgb(166,166,178)" stroke-miterlimit="1.45" transform="matrix(0.6652,0,0,0.6652,112.416,285.3637)" stroke-linecap="butt" stroke="rgb(166,166,178)">
      <rect fill="none" width="502.16" x="-8" height="156.4375" y="-8.0312"/>
    </g>
    <g font-family="sans-serif" transform="matrix(0.6652,0,0,0.6652,112.416,285.3637)">
      <text xml:space="preserve" x="-2" y="-12.8613" onclick="umlload('package-summary.html')" stroke="none">com.msopentech.odatajclient.engine.data.json</text>
    </g>
    <g fill="rgb(187,187,255)" transform="matrix(0.6652,0,0,0.6652,112.416,285.3637)" stroke="rgb(187,187,255)">
      <rect x="0" y="0" clip-path="url(#clipPath7)" width="486.16" height="26.625" stroke="none"/>
      <line clip-path="url(#clipPath7)" fill="none" x1="0" x2="486.16" y1="26.625" y2="26.625" stroke="black"/>
      <rect x="0" y="27.625" clip-path="url(#clipPath7)" width="486.16" height="15.9688" stroke="none"/>
      <line clip-path="url(#clipPath7)" fill="none" x1="0" x2="486.16" y1="43.5938" y2="43.5938" stroke="black"/>
      <rect x="0" y="44.5938" clip-path="url(#clipPath7)" width="486.16" height="95.8125" stroke="none"/>
    </g>
    <g fill="rgb(130,130,178)" stroke-miterlimit="1.45" transform="matrix(0.6652,0,0,0.6652,112.416,285.3637)" stroke-linecap="butt" stroke="rgb(130,130,178)">
      <rect fill="none" width="486.16" x="0" height="140.4062" y="0"/>
    </g>
    <g font-size="16" font-weight="bold" font-family="sans-serif" transform="matrix(0.6652,0,0,0.6652,112.416,285.3637)">
      <text xml:space="preserve" x="143.08" y="18.8516" onclick="umlload('#')" stroke="none">JSONServiceDocument</text>
    </g>
    <g font-family="sans-serif" transform="matrix(0.6652,0,0,0.6652,112.416,285.3637)">
      <text xml:space="preserve" x="4" y="38.1719" stroke="none">+</text>
      <text xml:space="preserve" x="19" y="39.7637" onclick="umlload('#JSONServiceDocument()')" stroke="none">JSONServiceDocument()</text>
    </g>
    <g font-family="sans-serif" transform="matrix(0.6652,0,0,0.6652,112.416,285.3637)">
      <text xml:space="preserve" x="4" y="55.1719" stroke="none">+</text>
      <text xml:space="preserve" x="19" y="56.7324" onclick="umlload('#getBaseURI()')" stroke="none">getBaseURI() : URI</text>
    </g>
    <g font-family="sans-serif" transform="matrix(0.6652,0,0,0.6652,112.416,285.3637)">
      <text xml:space="preserve" x="4" y="71.1719" stroke="none">+</text>
      <text xml:space="preserve" x="19" y="72.7012" onclick="umlload('#getEntitySets()')" stroke="none">getEntitySets() : List&lt;JSONServiceDocument.JSONToplevelEntitySet&gt;</text>
    </g>
    <g font-family="sans-serif" transform="matrix(0.6652,0,0,0.6652,112.416,285.3637)">
      <text xml:space="preserve" x="4" y="87.1719" stroke="none">+</text>
      <text xml:space="preserve" x="19" y="88.6699" onclick="umlload('#getMetadata()')" stroke="none">getMetadata() : URI</text>
    </g>
    <g font-family="sans-serif" transform="matrix(0.6652,0,0,0.6652,112.416,285.3637)">
      <text xml:space="preserve" x="4" y="103.1719" stroke="none">+</text>
      <text xml:space="preserve" x="19" y="104.6387" onclick="umlload('#getToplevelEntitySets()')" stroke="none">getToplevelEntitySets() : Map&lt;String, String&gt;</text>
    </g>
    <g font-family="sans-serif" transform="matrix(0.6652,0,0,0.6652,112.416,285.3637)">
      <text xml:space="preserve" x="4" y="119.1719" stroke="none">+</text>
      <text xml:space="preserve" x="19" y="120.6074" onclick="umlload('#setEntitySets(java.util.List)')" stroke="none">setEntitySets(List&lt;JSONServiceDocument.JSONToplevelEntitySet&gt;) : void</text>
    </g>
    <g font-family="sans-serif" transform="matrix(0.6652,0,0,0.6652,112.416,285.3637)">
      <text xml:space="preserve" x="4" y="135.1719" stroke="none">+</text>
      <text xml:space="preserve" x="19" y="136.5762" onclick="umlload('#setMetadata(java.net.URI)')" stroke="none">setMetadata(URI) : void</text>
    </g>
    <g font-family="sans-serif" transform="matrix(0.6652,0,0,0.6652,112.416,285.3637)">
      <text xml:space="preserve" x="-163" y="173.1543" onclick="umlload('http://www.yworks.com/')" stroke="none">yWorks UML Doclet</text>
    </g>
    <g stroke-miterlimit="1.45" transform="matrix(0.6652,0,0,0.6652,112.416,285.3637)" stroke-linecap="butt">
      <path fill="none" d="M243.08 -0.0142 L243.08 -69"/>
      <path fill="white" d="M243.08 -84 L237.08 -68 L249.08 -68 Z" stroke="none"/>
      <path fill="none" d="M243.08 -84 L237.08 -68 L249.08 -68 Z"/>
      <path fill="none" stroke-dasharray="6,2" d="M364.62 -0.0154 L364.62 -51 L572.8273 -51 L572.8273 -69"/>
      <path fill="white" stroke-dasharray="6,2" d="M572.8273 -84 L566.8273 -68 L578.8273 -68 Z" stroke="none"/>
      <path fill="none" d="M572.8273 -84 L566.8273 -68 L578.8273 -68 Z"/>
      <path fill="none" d="M0.0425 11.5664 L-90.9 11.5664"/>
      <line stroke-linecap="square" transform="matrix(-1,0,0,-1,-90.9,11.5664)" fill="none" x1="0" x2="-14" y1="0" y2="-4" stroke-miterlimit="10"/>
      <line stroke-linecap="square" transform="matrix(-1,0,0,-1,-90.9,11.5664)" fill="none" x1="0" x2="-14" y1="0" y2="4" stroke-miterlimit="10"/>
    </g>
    <g stroke-miterlimit="1.45" transform="matrix(0.6652,0,0,0.6652,112.416,285.3637)" stroke-linecap="butt">
      <path fill="none" d="M-0.0014 103.4902 L-66 103.4902"/>
      <line stroke-linecap="square" transform="matrix(-1,0,0,-1,-66,103.4902)" fill="none" x1="0" x2="-14" y1="0" y2="-4" stroke-miterlimit="10"/>
      <line stroke-linecap="square" transform="matrix(-1,0,0,-1,-66,103.4902)" fill="none" x1="0" x2="-14" y1="0" y2="4" stroke-miterlimit="10"/>
    </g>
    <g stroke-dasharray="6,2" stroke-miterlimit="1.45" transform="matrix(0.6652,0,0,0.6652,112.416,285.3637)" stroke-linecap="butt">
      <path fill="none" d="M486.1549 16.3574 L552.16 16.3574"/>
      <line stroke-linecap="square" transform="matrix(1,0,0,1,552.16,16.3574)" fill="none" x1="0" x2="-14" y1="0" y2="-4" stroke-dasharray="none" stroke-miterlimit="10"/>
      <line stroke-linecap="square" transform="matrix(1,0,0,1,552.16,16.3574)" fill="none" x1="0" x2="-14" y1="0" y2="4" stroke-dasharray="none" stroke-miterlimit="10"/>
    </g>
  </g>
</svg>
