<?xml version="1.0" encoding="UTF-8"?><svg xmlns="http://www.w3.org/2000/svg" xmlns:xlink="http://www.w3.org/1999/xlink" fill-opacity="1" color-rendering="auto" color-interpolation="auto" stroke="black" text-rendering="auto" stroke-linecap="square" width="497" stroke-miterlimit="10" stroke-opacity="1" shape-rendering="auto" fill="black" stroke-dasharray="none" font-weight="normal" stroke-width="1" height="305" font-family="'Dialog'" font-style="normal" stroke-linejoin="miter" font-size="12" stroke-dashoffset="0" image-rendering="auto">
  <!--Generated by ySVG-->
  <defs id="genericDefs"/>
  <g>
    <defs id="defs1">
      <clipPath clipPathUnits="userSpaceOnUse" id="clipPath1">
        <path d="M0 0 L497 0 L497 305 L0 305 L0 0 Z"/>
      </clipPath>
      <clipPath clipPathUnits="userSpaceOnUse" id="clipPath2">
        <path d="M-66 103.4902 C-66 112.5241 -88.1734 119.8475 -115.5258 119.8475 C-142.8781 119.8475 -165.0515 112.5241 -165.0515 103.4902 C-165.0515 94.4563 -142.8781 87.1328 -115.5258 87.1328 C-88.1734 87.1328 -66 94.4563 -66 103.4902 Z"/>
      </clipPath>
      <clipPath clipPathUnits="userSpaceOnUse" id="clipPath3">
        <path d="M-123.86 0 L-90.9 0 L-90.9 23.1328 L-123.86 23.1328 L-123.86 0 Z"/>
      </clipPath>
      <clipPath clipPathUnits="userSpaceOnUse" id="clipPath4">
        <path d="M6.695 -107.1328 L190.035 -107.1328 L190.035 -84 L6.695 -84 L6.695 -107.1328 Z"/>
      </clipPath>
      <clipPath clipPathUnits="userSpaceOnUse" id="clipPath5">
        <path d="M0 0 L196.73 0 L196.73 127.8475 L0 127.8475 L0 0 Z"/>
      </clipPath>
      <script type="text/ecmascript"><![CDATA[
function umlload(newLocation)
{
if (newLocation.charAt(0) != '#') {
if (newLocation.indexOf("://") > -1) {
window.parent.location.href = newLocation;
} else {
var tmp = window.parent.location.href;
tmp = tmp.substring(0, tmp.lastIndexOf("/") + 1);
window.parent.location.href = tmp.concat(newLocation);
}
} else {
window.parent.location.hash = newLocation;
}
}
]]></script>
    </defs>
    <g fill="rgb(238,238,255)" transform="matrix(1,0,0,1,174,134)" stroke="rgb(238,238,255)">
      <rect width="101.6028" x="-173.0515" height="17.9688" y="61.1328" stroke="none"/>
    </g>
    <g fill="rgb(166,166,178)" stroke-miterlimit="1.45" transform="matrix(1,0,0,1,174,134)" stroke-linecap="butt" stroke="rgb(166,166,178)">
      <rect fill="none" width="101.6028" x="-173.0515" height="17.9688" y="61.1328"/>
    </g>
    <g fill="rgb(238,238,255)" transform="matrix(1,0,0,1,174,134)" stroke="rgb(238,238,255)">
      <rect width="115.0515" x="-173.0515" height="48.746" y="79.1016" stroke="none"/>
    </g>
    <g fill="rgb(166,166,178)" stroke-miterlimit="1.45" transform="matrix(1,0,0,1,174,134)" stroke-linecap="butt" stroke="rgb(166,166,178)">
      <rect fill="none" width="115.0515" x="-173.0515" height="48.746" y="79.1016"/>
    </g>
    <g font-family="sans-serif" transform="matrix(1,0,0,1,174,134)">
      <text xml:space="preserve" x="-167.0515" y="74.2715" onclick="umlload('http://docs.oracle.com/javase/6/docs/api/org/w3c/dom/package-summary.html')" stroke="none">org.w3c.dom</text>
    </g>
    <g fill="rgb(221,221,255)" transform="matrix(1,0,0,1,174,134)" stroke="rgb(221,221,255)">
      <rect x="-165.0515" y="87.1328" clip-path="url(#clipPath2)" width="99.0515" height="32.7147" stroke="none"/>
    </g>
    <g fill="rgb(154,154,178)" stroke-miterlimit="1.45" transform="matrix(1,0,0,1,174,134)" stroke-linecap="butt" stroke="rgb(154,154,178)">
      <ellipse rx="49.5258" fill="none" ry="16.3574" cx="-115.5258" cy="103.4902"/>
    </g>
    <g font-style="italic" font-size="13" font-weight="bold" font-family="sans-serif" transform="matrix(1,0,0,1,174,134)">
      <text xml:space="preserve" x="-145.5258" y="107.9907" onclick="umlload('http://docs.oracle.com/javase/6/docs/api/org/w3c/dom/Element.html')" stroke="none">Element</text>
    </g>
    <g fill="rgb(238,238,255)" transform="matrix(1,0,0,1,174,134)" stroke="rgb(238,238,255)">
      <rect width="69.7758" x="-131.86" height="17.9688" y="-26" stroke="none"/>
    </g>
    <g fill="rgb(166,166,178)" stroke-miterlimit="1.45" transform="matrix(1,0,0,1,174,134)" stroke-linecap="butt" stroke="rgb(166,166,178)">
      <rect fill="none" width="69.7758" x="-131.86" height="17.9688" y="-26"/>
    </g>
    <g fill="rgb(238,238,255)" transform="matrix(1,0,0,1,174,134)" stroke="rgb(238,238,255)">
      <rect width="73.96" x="-131.86" height="39.1641" y="-8.0312" stroke="none"/>
    </g>
    <g fill="rgb(166,166,178)" stroke-miterlimit="1.45" transform="matrix(1,0,0,1,174,134)" stroke-linecap="butt" stroke="rgb(166,166,178)">
      <rect fill="none" width="73.96" x="-131.86" height="39.1641" y="-8.0312"/>
    </g>
    <g font-family="sans-serif" transform="matrix(1,0,0,1,174,134)">
      <text xml:space="preserve" x="-125.86" y="-12.8613" onclick="umlload('http://docs.oracle.com/javase/6/docs/api/java/net/package-summary.html')" stroke="none">java.net</text>
    </g>
    <g fill="rgb(187,187,255)" transform="matrix(1,0,0,1,174,134)" stroke="rgb(187,187,255)">
      <rect x="-123.86" y="0" clip-path="url(#clipPath3)" width="32.96" height="23.1328" stroke="none"/>
    </g>
    <g fill="rgb(130,130,178)" stroke-miterlimit="1.45" transform="matrix(1,0,0,1,174,134)" stroke-linecap="butt" stroke="rgb(130,130,178)">
      <rect fill="none" width="32.96" x="-123.86" height="23.1328" y="0"/>
    </g>
    <g font-size="13" font-weight="bold" font-family="sans-serif" transform="matrix(1,0,0,1,174,134)">
      <text xml:space="preserve" x="-119.38" y="16.0669" onclick="umlload('http://docs.oracle.com/javase/6/docs/api/java/net/URI.html')" stroke="none">URI</text>
    </g>
    <g fill="rgb(238,238,255)" transform="matrix(1,0,0,1,174,134)" stroke="rgb(238,238,255)">
      <rect width="298.9302" x="-45.305" height="17.9688" y="-133.1328" stroke="none"/>
    </g>
    <g fill="rgb(166,166,178)" stroke-miterlimit="1.45" transform="matrix(1,0,0,1,174,134)" stroke-linecap="butt" stroke="rgb(166,166,178)">
      <rect fill="none" width="298.9302" x="-45.305" height="17.9688" y="-133.1328"/>
    </g>
    <g fill="rgb(238,238,255)" transform="matrix(1,0,0,1,174,134)" stroke="rgb(238,238,255)">
      <rect width="299.34" x="-45.305" height="39.1641" y="-115.1641" stroke="none"/>
    </g>
    <g fill="rgb(166,166,178)" stroke-miterlimit="1.45" transform="matrix(1,0,0,1,174,134)" stroke-linecap="butt" stroke="rgb(166,166,178)">
      <rect fill="none" width="299.34" x="-45.305" height="39.1641" y="-115.1641"/>
    </g>
    <g font-family="sans-serif" transform="matrix(1,0,0,1,174,134)">
      <text xml:space="preserve" x="-39.305" y="-119.9941" onclick="umlload('../../../../../../com/msopentech/odatajclient/engine/data/package-summary.html')" stroke="none">com.msopentech.odatajclient.engine.data</text>
    </g>
    <g fill="rgb(204,204,255)" transform="matrix(1,0,0,1,174,134)" stroke="rgb(204,204,255)">
      <rect x="6.695" y="-107.1328" clip-path="url(#clipPath4)" width="183.34" height="23.1328" stroke="none"/>
    </g>
    <g fill="rgb(142,142,178)" stroke-miterlimit="1.45" transform="matrix(1,0,0,1,174,134)" stroke-linecap="butt" stroke="rgb(142,142,178)">
      <rect fill="none" width="183.34" x="6.695" height="23.1328" y="-107.1328"/>
    </g>
    <g font-size="13" font-weight="bold" font-family="sans-serif" transform="matrix(1,0,0,1,174,134)">
      <text xml:space="preserve" x="13.365" y="-91.0659" onclick="umlload('../../../../../../com/msopentech/odatajclient/engine/data/AbstractPayloadObject.html')" stroke="none">AbstractPayloadObject</text>
    </g>
    <g fill="rgb(238,238,255)" transform="matrix(1,0,0,1,174,134)" stroke="rgb(238,238,255)">
      <rect width="330.7572" x="-8" height="17.9688" y="-26" stroke="none"/>
    </g>
    <g fill="rgb(166,166,178)" stroke-miterlimit="1.45" transform="matrix(1,0,0,1,174,134)" stroke-linecap="butt" stroke="rgb(166,166,178)">
      <rect fill="none" width="330.7572" x="-8" height="17.9688" y="-26"/>
    </g>
    <g fill="rgb(238,238,255)" transform="matrix(1,0,0,1,174,134)" stroke="rgb(238,238,255)">
      <rect width="330.7572" x="-8" height="143.8788" y="-8.0312" stroke="none"/>
    </g>
    <g fill="rgb(166,166,178)" stroke-miterlimit="1.45" transform="matrix(1,0,0,1,174,134)" stroke-linecap="butt" stroke="rgb(166,166,178)">
      <rect fill="none" width="330.7572" x="-8" height="143.8788" y="-8.0312"/>
    </g>
    <g font-family="sans-serif" transform="matrix(1,0,0,1,174,134)">
      <text xml:space="preserve" x="-2" y="-12.8613" onclick="umlload('package-summary.html')" stroke="none">com.msopentech.odatajclient.engine.data.json</text>
    </g>
    <g fill="rgb(187,187,255)" transform="matrix(1,0,0,1,174,134)" stroke="rgb(187,187,255)">
      <rect x="0" y="0" clip-path="url(#clipPath5)" width="196.73" height="26.625" stroke="none"/>
      <line clip-path="url(#clipPath5)" fill="none" x1="0" x2="196.73" y1="26.625" y2="26.625" stroke="black"/>
      <rect x="0" y="27.625" clip-path="url(#clipPath5)" width="196.73" height="15.9688" stroke="none"/>
      <line clip-path="url(#clipPath5)" fill="none" x1="0" x2="196.73" y1="43.5938" y2="43.5938" stroke="black"/>
      <rect x="0" y="44.5938" clip-path="url(#clipPath5)" width="196.73" height="83.2538" stroke="none"/>
    </g>
    <g fill="rgb(130,130,178)" stroke-miterlimit="1.45" transform="matrix(1,0,0,1,174,134)" stroke-linecap="butt" stroke="rgb(130,130,178)">
      <rect fill="none" width="196.73" x="0" height="127.8475" y="0"/>
    </g>
    <g font-size="16" font-weight="bold" font-family="sans-serif" transform="matrix(1,0,0,1,174,134)">
      <text xml:space="preserve" x="36.865" y="18.8516" onclick="umlload('#')" stroke="none">JSONProperty</text>
    </g>
    <g font-family="sans-serif" transform="matrix(1,0,0,1,174,134)">
      <text xml:space="preserve" x="4" y="38.1719" stroke="none">+</text>
      <text xml:space="preserve" x="19" y="39.7637" onclick="umlload('#JSONProperty()')" stroke="none">JSONProperty()</text>
    </g>
    <g font-family="sans-serif" transform="matrix(1,0,0,1,174,134)">
      <text xml:space="preserve" x="4" y="55.1719" stroke="none">+</text>
      <text xml:space="preserve" x="19" y="56.7324" onclick="umlload('#getContent()')" stroke="none">getContent() : Element</text>
    </g>
    <g font-family="sans-serif" transform="matrix(1,0,0,1,174,134)">
      <text xml:space="preserve" x="4" y="71.1719" stroke="none">+</text>
      <text xml:space="preserve" x="19" y="72.7012" onclick="umlload('#getMetadata()')" stroke="none">getMetadata() : URI</text>
    </g>
    <g font-family="sans-serif" transform="matrix(1,0,0,1,174,134)">
      <text xml:space="preserve" x="4" y="87.1719" stroke="none">+</text>
      <text xml:space="preserve" x="19" y="88.6699" onclick="umlload('#setContent(org.w3c.dom.Element)')" stroke="none">setContent(Element) : void</text>
    </g>
    <g font-family="sans-serif" transform="matrix(1,0,0,1,174,134)">
      <text xml:space="preserve" x="4" y="103.1719" stroke="none">+</text>
      <text xml:space="preserve" x="19" y="104.6387" onclick="umlload('#setMetadata(java.net.URI)')" stroke="none">setMetadata(URI) : void</text>
    </g>
    <g font-family="sans-serif" transform="matrix(1,0,0,1,174,134)">
      <text xml:space="preserve" x="-168" y="160.1543" onclick="umlload('http://www.yworks.com/')" stroke="none">yWorks UML Doclet</text>
    </g>
    <g stroke-miterlimit="1.45" transform="matrix(1,0,0,1,174,134)" stroke-linecap="butt">
      <path fill="none" d="M98.365 -0.0026 L98.365 -69"/>
      <path fill="white" d="M98.365 -84 L92.365 -68 L104.365 -68 Z" stroke="none"/>
      <path fill="none" d="M98.365 -84 L92.365 -68 L104.365 -68 Z"/>
      <path fill="none" d="M-0.0119 11.5664 L-90.9 11.5664"/>
      <line stroke-linecap="square" transform="matrix(-1,0,0,-1,-90.9,11.5664)" fill="none" x1="0" x2="-14" y1="0" y2="-4" stroke-miterlimit="10"/>
      <line stroke-linecap="square" transform="matrix(-1,0,0,-1,-90.9,11.5664)" fill="none" x1="0" x2="-14" y1="0" y2="4" stroke-miterlimit="10"/>
    </g>
    <g stroke-miterlimit="1.45" transform="matrix(1,0,0,1,174,134)" stroke-linecap="butt">
      <path fill="none" d="M0.0097 103.4902 L-66 103.4902"/>
      <line stroke-linecap="square" transform="matrix(-1,0,0,-1,-66,103.4902)" fill="none" x1="0" x2="-14" y1="0" y2="-4" stroke-miterlimit="10"/>
      <line stroke-linecap="square" transform="matrix(-1,0,0,-1,-66,103.4902)" fill="none" x1="0" x2="-14" y1="0" y2="4" stroke-miterlimit="10"/>
    </g>
  </g>
</svg>
