<?xml version="1.0" encoding="UTF-8"?><svg xmlns="http://www.w3.org/2000/svg" xmlns:xlink="http://www.w3.org/1999/xlink" fill-opacity="1" color-rendering="auto" color-interpolation="auto" stroke="black" text-rendering="auto" stroke-linecap="square" width="598" stroke-miterlimit="10" stroke-opacity="1" shape-rendering="auto" fill="black" stroke-dasharray="none" font-weight="normal" stroke-width="1" height="598" font-family="'Dialog'" font-style="normal" stroke-linejoin="miter" font-size="12" stroke-dashoffset="0" image-rendering="auto">
  <!--Generated by ySVG-->
  <defs id="genericDefs"/>
  <g>
    <defs id="defs1">
      <clipPath clipPathUnits="userSpaceOnUse" id="clipPath1">
        <path d="M0 0 L598 0 L598 598 L0 598 L0 0 Z"/>
      </clipPath>
      <clipPath clipPathUnits="userSpaceOnUse" id="clipPath2">
        <path d="M744.7345 113.0721 C744.7345 122.106 717.9959 129.4295 685.0123 129.4295 C652.0286 129.4295 625.29 122.106 625.29 113.0721 C625.29 104.0382 652.0286 96.7147 685.0123 96.7147 C717.9959 96.7147 744.7345 104.0382 744.7345 113.0721 Z"/>
      </clipPath>
      <clipPath clipPathUnits="userSpaceOnUse" id="clipPath3">
        <path d="M786.9771 16.3574 C786.9771 25.3913 750.7822 32.7147 706.1335 32.7147 C661.4849 32.7147 625.29 25.3913 625.29 16.3574 C625.29 7.3234 661.4849 -0 706.1335 -0 C750.7822 -0 786.9771 7.3234 786.9771 16.3574 Z"/>
      </clipPath>
      <clipPath clipPathUnits="userSpaceOnUse" id="clipPath4">
        <path d="M-346.34 -0 L-158.88 -0 L-158.88 23.1328 L-346.34 23.1328 L-346.34 -0 Z"/>
      </clipPath>
      <clipPath clipPathUnits="userSpaceOnUse" id="clipPath5">
        <path d="M77.765 -107.1328 L481.525 -107.1328 L481.525 -84 L77.765 -84 L77.765 -107.1328 Z"/>
      </clipPath>
      <clipPath clipPathUnits="userSpaceOnUse" id="clipPath6">
        <path d="M-0 -0 L559.29 -0 L559.29 137.4295 L-0 137.4295 L-0 -0 Z"/>
      </clipPath>
      <script type="text/ecmascript"><![CDATA[
function umlload(newLocation)
{
if (newLocation.charAt(0) != '#') {
if (newLocation.indexOf("://") > -1) {
window.parent.location.href = newLocation;
} else {
var tmp = window.parent.location.href;
tmp = tmp.substring(0, tmp.lastIndexOf("/") + 1);
window.parent.location.href = tmp.concat(newLocation);
}
} else {
window.parent.location.hash = newLocation;
}
}
]]></script>
    </defs>
    <g fill="rgb(238,238,255)" transform="matrix(0.52,0,0,0.52,184.6,286.52)" stroke="rgb(238,238,255)">
      <rect width="165.2568" x="617.29" height="17.9688" y="70.7147" stroke="none"/>
    </g>
    <g fill="rgb(166,166,178)" stroke-miterlimit="1.45" transform="matrix(0.52,0,0,0.52,184.6,286.52)" stroke-linecap="butt" stroke="rgb(166,166,178)">
      <rect fill="none" width="165.2568" x="617.29" height="17.9688" y="70.7147"/>
    </g>
    <g fill="rgb(238,238,255)" transform="matrix(0.52,0,0,0.52,184.6,286.52)" stroke="rgb(238,238,255)">
      <rect width="166.4445" x="617.29" height="48.746" y="88.6835" stroke="none"/>
    </g>
    <g fill="rgb(166,166,178)" stroke-miterlimit="1.45" transform="matrix(0.52,0,0,0.52,184.6,286.52)" stroke-linecap="butt" stroke="rgb(166,166,178)">
      <rect fill="none" width="166.4445" x="617.29" height="48.746" y="88.6835"/>
    </g>
    <g font-family="sans-serif" transform="matrix(0.52,0,0,0.52,184.6,286.52)">
      <text xml:space="preserve" x="623.29" y="83.8534" stroke="none">org.apache.http.client</text>
    </g>
    <g fill="rgb(221,221,255)" transform="matrix(0.52,0,0,0.52,184.6,286.52)" stroke="rgb(221,221,255)">
      <rect x="625.29" y="96.7147" clip-path="url(#clipPath2)" width="119.4445" height="32.7147" stroke="none"/>
    </g>
    <g fill="rgb(154,154,178)" stroke-miterlimit="1.45" transform="matrix(0.52,0,0,0.52,184.6,286.52)" stroke-linecap="butt" stroke="rgb(154,154,178)">
      <ellipse rx="59.7222" fill="none" ry="16.3574" cx="685.0122" cy="113.0721"/>
    </g>
    <g font-style="italic" font-size="13" font-weight="bold" font-family="sans-serif" transform="matrix(0.52,0,0,0.52,184.6,286.52)">
      <text xml:space="preserve" x="648.0123" y="117.5726" stroke="none">HttpClient</text>
    </g>
    <g fill="rgb(238,238,255)" transform="matrix(0.52,0,0,0.52,184.6,286.52)" stroke="rgb(238,238,255)">
      <rect width="124.9426" x="617.29" height="17.9688" y="-26" stroke="none"/>
    </g>
    <g fill="rgb(166,166,178)" stroke-miterlimit="1.45" transform="matrix(0.52,0,0,0.52,184.6,286.52)" stroke-linecap="butt" stroke="rgb(166,166,178)">
      <rect fill="none" width="124.9426" x="617.29" height="17.9688" y="-26"/>
    </g>
    <g fill="rgb(238,238,255)" transform="matrix(0.52,0,0,0.52,184.6,286.52)" stroke="rgb(238,238,255)">
      <rect width="177.687" x="617.29" height="48.746" y="-8.0312" stroke="none"/>
    </g>
    <g fill="rgb(166,166,178)" stroke-miterlimit="1.45" transform="matrix(0.52,0,0,0.52,184.6,286.52)" stroke-linecap="butt" stroke="rgb(166,166,178)">
      <rect fill="none" width="177.687" x="617.29" height="48.746" y="-8.0312"/>
    </g>
    <g font-family="sans-serif" transform="matrix(0.52,0,0,0.52,184.6,286.52)">
      <text xml:space="preserve" x="623.29" y="-12.8613" stroke="none">org.apache.http</text>
    </g>
    <g fill="rgb(221,221,255)" transform="matrix(0.52,0,0,0.52,184.6,286.52)" stroke="rgb(221,221,255)">
      <rect x="625.29" y="0" clip-path="url(#clipPath3)" width="161.687" height="32.7147" stroke="none"/>
    </g>
    <g fill="rgb(154,154,178)" stroke-miterlimit="1.45" transform="matrix(0.52,0,0,0.52,184.6,286.52)" stroke-linecap="butt" stroke="rgb(154,154,178)">
      <ellipse rx="80.8435" fill="none" ry="16.3574" cx="706.1335" cy="16.3574"/>
    </g>
    <g font-style="italic" font-size="13" font-weight="bold" font-family="sans-serif" transform="matrix(0.52,0,0,0.52,184.6,286.52)">
      <text xml:space="preserve" x="654.6335" y="20.8579" stroke="none">HttpResponse</text>
    </g>
    <g fill="rgb(238,238,255)" transform="matrix(0.52,0,0,0.52,184.6,286.52)" stroke="rgb(238,238,255)">
      <rect width="298.9302" x="-354.34" height="17.9688" y="-26" stroke="none"/>
    </g>
    <g fill="rgb(166,166,178)" stroke-miterlimit="1.45" transform="matrix(0.52,0,0,0.52,184.6,286.52)" stroke-linecap="butt" stroke="rgb(166,166,178)">
      <rect fill="none" width="298.9302" x="-354.34" height="17.9688" y="-26"/>
    </g>
    <g fill="rgb(238,238,255)" transform="matrix(0.52,0,0,0.52,184.6,286.52)" stroke="rgb(238,238,255)">
      <rect width="298.9302" x="-354.34" height="39.1641" y="-8.0312" stroke="none"/>
    </g>
    <g fill="rgb(166,166,178)" stroke-miterlimit="1.45" transform="matrix(0.52,0,0,0.52,184.6,286.52)" stroke-linecap="butt" stroke="rgb(166,166,178)">
      <rect fill="none" width="298.9302" x="-354.34" height="39.1641" y="-8.0312"/>
    </g>
    <g font-family="sans-serif" transform="matrix(0.52,0,0,0.52,184.6,286.52)">
      <text xml:space="preserve" x="-348.34" y="-12.8613" onclick="umlload('../../../../../../../com/msopentech/odatajclient/engine/data/package-summary.html')" stroke="none">com.msopentech.odatajclient.engine.data</text>
    </g>
    <g fill="rgb(187,187,255)" transform="matrix(0.52,0,0,0.52,184.6,286.52)" stroke="rgb(187,187,255)">
      <rect x="-346.34" y="0" clip-path="url(#clipPath4)" width="187.46" height="23.1328" stroke="none"/>
    </g>
    <g fill="rgb(130,130,178)" stroke-miterlimit="1.45" transform="matrix(0.52,0,0,0.52,184.6,286.52)" stroke-linecap="butt" stroke="rgb(130,130,178)">
      <rect fill="none" width="187.46" x="-346.34" height="23.1328" y="0"/>
    </g>
    <g font-size="13" font-weight="bold" font-family="sans-serif" transform="matrix(0.52,0,0,0.52,184.6,286.52)">
      <text xml:space="preserve" x="-339.61" y="16.0669" onclick="umlload('../../../../../../../com/msopentech/odatajclient/engine/data/ODataServiceDocument.html')" stroke="none">ODataServiceDocument</text>
    </g>
    <g fill="rgb(238,238,255)" transform="matrix(0.52,0,0,0.52,184.6,286.52)" stroke="rgb(238,238,255)">
      <rect width="480.3441" x="48.765" height="17.9688" y="-133.1328" stroke="none"/>
    </g>
    <g fill="rgb(166,166,178)" stroke-miterlimit="1.45" transform="matrix(0.52,0,0,0.52,184.6,286.52)" stroke-linecap="butt" stroke="rgb(166,166,178)">
      <rect fill="none" width="480.3441" x="48.765" height="17.9688" y="-133.1328"/>
    </g>
    <g fill="rgb(238,238,255)" transform="matrix(0.52,0,0,0.52,184.6,286.52)" stroke="rgb(238,238,255)">
      <rect width="480.3441" x="48.765" height="39.1641" y="-115.1641" stroke="none"/>
    </g>
    <g fill="rgb(166,166,178)" stroke-miterlimit="1.45" transform="matrix(0.52,0,0,0.52,184.6,286.52)" stroke-linecap="butt" stroke="rgb(166,166,178)">
      <rect fill="none" width="480.3441" x="48.765" height="39.1641" y="-115.1641"/>
    </g>
    <g font-family="sans-serif" transform="matrix(0.52,0,0,0.52,184.6,286.52)">
      <text xml:space="preserve" x="54.765" y="-119.9941" onclick="umlload('../../../../../../../com/msopentech/odatajclient/engine/communication/request/retrieve/package-summary.html')" stroke="none">com.msopentech.odatajclient.engine.communication.request.retrieve</text>
    </g>
    <g fill="rgb(204,204,255)" transform="matrix(0.52,0,0,0.52,184.6,286.52)" stroke="rgb(204,204,255)">
      <rect x="77.765" y="-107.1328" clip-path="url(#clipPath5)" width="403.76" height="23.1328" stroke="none"/>
    </g>
    <g fill="rgb(142,142,178)" stroke-miterlimit="1.45" transform="matrix(0.52,0,0,0.52,184.6,286.52)" stroke-linecap="butt" stroke="rgb(142,142,178)">
      <rect fill="none" width="403.76" x="77.765" height="23.1328" y="-107.1328"/>
    </g>
    <g font-size="13" font-weight="bold" font-family="sans-serif" transform="matrix(0.52,0,0,0.52,184.6,286.52)">
      <text xml:space="preserve" x="87.645" y="-91.0659" stroke="none">ODataRetrieveRequest.ODataRetrieveResponseImpl</text>
    </g>
    <g fill="rgb(238,238,255)" transform="matrix(0.52,0,0,0.52,184.6,286.52)" stroke="rgb(238,238,255)">
      <rect width="480.3441" x="-8" height="17.9688" y="-26" stroke="none"/>
    </g>
    <g fill="rgb(166,166,178)" stroke-miterlimit="1.45" transform="matrix(0.52,0,0,0.52,184.6,286.52)" stroke-linecap="butt" stroke="rgb(166,166,178)">
      <rect fill="none" width="480.3441" x="-8" height="17.9688" y="-26"/>
    </g>
    <g fill="rgb(238,238,255)" transform="matrix(0.52,0,0,0.52,184.6,286.52)" stroke="rgb(238,238,255)">
      <rect width="575.29" x="-8" height="153.4607" y="-8.0312" stroke="none"/>
    </g>
    <g fill="rgb(166,166,178)" stroke-miterlimit="1.45" transform="matrix(0.52,0,0,0.52,184.6,286.52)" stroke-linecap="butt" stroke="rgb(166,166,178)">
      <rect fill="none" width="575.29" x="-8" height="153.4607" y="-8.0312"/>
    </g>
    <g font-family="sans-serif" transform="matrix(0.52,0,0,0.52,184.6,286.52)">
      <text xml:space="preserve" x="-2" y="-12.8613" onclick="umlload('package-summary.html')" stroke="none">com.msopentech.odatajclient.engine.communication.request.retrieve</text>
    </g>
    <g fill="rgb(187,187,255)" transform="matrix(0.52,0,0,0.52,184.6,286.52)" stroke="rgb(187,187,255)">
      <rect x="0" y="0" clip-path="url(#clipPath6)" width="559.29" height="26.625" stroke="none"/>
      <line clip-path="url(#clipPath6)" fill="none" x1="0" x2="559.29" y1="26.625" y2="26.625" stroke="black"/>
      <line clip-path="url(#clipPath6)" x1="0" x2="559.29" y1="27.625" y2="27.625" stroke="none"/>
      <line clip-path="url(#clipPath6)" fill="none" x1="0" x2="559.29" y1="27.625" y2="27.625" stroke="black"/>
      <rect x="0" y="28.625" clip-path="url(#clipPath6)" width="559.29" height="108.8045" stroke="none"/>
    </g>
    <g fill="rgb(130,130,178)" stroke-miterlimit="1.45" transform="matrix(0.52,0,0,0.52,184.6,286.52)" stroke-linecap="butt" stroke="rgb(130,130,178)">
      <rect fill="none" width="559.29" x="0" height="137.4295" y="0"/>
    </g>
    <g font-size="16" font-weight="bold" font-family="sans-serif" transform="matrix(0.52,0,0,0.52,184.6,286.52)">
      <text xml:space="preserve" x="12.145" y="18.8516" onclick="umlload('#')" stroke="none">ODataServiceDocumentRequest.ODataServiceResponseImpl</text>
    </g>
    <g font-family="sans-serif" transform="matrix(0.52,0,0,0.52,184.6,286.52)">
      <text xml:space="preserve" x="4" y="39.1719" stroke="none">+</text>
      <text xml:space="preserve" x="19" y="40.7637" onclick="umlload('#getBody()')" stroke="none">getBody() : ODataServiceDocument</text>
    </g>
    <g font-family="sans-serif" transform="matrix(0.52,0,0,0.52,184.6,286.52)">
      <text xml:space="preserve" x="-349" y="170.1543" onclick="umlload('http://www.yworks.com/')" stroke="none">yWorks UML Doclet</text>
    </g>
    <g stroke-miterlimit="1.45" transform="matrix(0.52,0,0,0.52,184.6,286.52)" stroke-linecap="butt">
      <path fill="none" d="M279.645 -0.0039 L279.645 -69"/>
      <path fill="white" d="M279.645 -84 L273.645 -68 L285.645 -68 Z" stroke="none"/>
      <path fill="none" d="M279.645 -84 L273.645 -68 L285.645 -68 Z"/>
      <path fill="none" d="M-0.0293 11.5664 L-158.88 11.5664"/>
      <line stroke-linecap="square" transform="matrix(-1,0,0,-1,-158.88,11.5664)" fill="none" x1="0" x2="-14" y1="0" y2="-4" stroke-miterlimit="10"/>
      <line stroke-linecap="square" transform="matrix(-1,0,0,-1,-158.88,11.5664)" fill="none" x1="0" x2="-14" y1="0" y2="4" stroke-miterlimit="10"/>
    </g>
    <g stroke-dasharray="6,2" stroke-miterlimit="1.45" transform="matrix(0.52,0,0,0.52,184.6,286.52)" stroke-linecap="butt">
      <path fill="none" d="M559.2938 16.3574 L625.29 16.3574"/>
      <line stroke-linecap="square" transform="matrix(1,0,0,1,625.29,16.3574)" fill="none" x1="0" x2="-14" y1="0" y2="-4" stroke-dasharray="none" stroke-miterlimit="10"/>
      <line stroke-linecap="square" transform="matrix(1,0,0,1,625.29,16.3574)" fill="none" x1="0" x2="-14" y1="0" y2="4" stroke-dasharray="none" stroke-miterlimit="10"/>
    </g>
    <g stroke-dasharray="6,2" stroke-miterlimit="1.45" transform="matrix(0.52,0,0,0.52,184.6,286.52)" stroke-linecap="butt">
      <path fill="none" d="M559.2751 113.0721 L625.29 113.0721"/>
      <line stroke-linecap="square" transform="matrix(1,0,0,1,625.29,113.0721)" fill="none" x1="0" x2="-14" y1="0" y2="-4" stroke-dasharray="none" stroke-miterlimit="10"/>
      <line stroke-linecap="square" transform="matrix(1,0,0,1,625.29,113.0721)" fill="none" x1="0" x2="-14" y1="0" y2="4" stroke-dasharray="none" stroke-miterlimit="10"/>
    </g>
  </g>
</svg>
