<?xml version="1.0" encoding="UTF-8"?><svg xmlns="http://www.w3.org/2000/svg" xmlns:xlink="http://www.w3.org/1999/xlink" fill-opacity="1" color-rendering="auto" color-interpolation="auto" stroke="black" text-rendering="auto" stroke-linecap="square" width="598" stroke-miterlimit="10" stroke-opacity="1" shape-rendering="auto" fill="black" stroke-dasharray="none" font-weight="normal" stroke-width="1" height="598" font-family="'Dialog'" font-style="normal" stroke-linejoin="miter" font-size="12" stroke-dashoffset="0" image-rendering="auto">
  <!--Generated by ySVG-->
  <defs id="genericDefs"/>
  <g>
    <defs id="defs1">
      <clipPath clipPathUnits="userSpaceOnUse" id="clipPath1">
        <path d="M0 0 L598 0 L598 598 L0 598 L0 0 Z"/>
      </clipPath>
      <clipPath clipPathUnits="userSpaceOnUse" id="clipPath2">
        <path d="M512.47 183.8475 L545.43 183.8475 L545.43 206.9804 L512.47 206.9804 L512.47 183.8475 Z"/>
      </clipPath>
      <clipPath clipPathUnits="userSpaceOnUse" id="clipPath3">
        <path d="M512.47 96.7147 L566.03 96.7147 L566.03 119.8475 L512.47 119.8475 L512.47 96.7147 Z"/>
      </clipPath>
      <clipPath clipPathUnits="userSpaceOnUse" id="clipPath4">
        <path d="M828.5609 16.3574 C828.5609 25.3913 757.8015 32.7147 670.5154 32.7147 C583.2294 32.7147 512.47 25.3913 512.47 16.3574 C512.47 7.3234 583.2294 0 670.5154 0 C757.8015 0 828.5609 7.3234 828.5609 16.3574 Z"/>
      </clipPath>
      <clipPath clipPathUnits="userSpaceOnUse" id="clipPath5">
        <path d="M-32.96 -107.1328 L435.69 -107.1328 L435.69 -84 L-32.96 -84 L-32.96 -107.1328 Z"/>
      </clipPath>
      <clipPath clipPathUnits="userSpaceOnUse" id="clipPath6">
        <path d="M0 0 L402.73 0 L402.73 214.9804 L0 214.9804 L0 0 Z"/>
      </clipPath>
      <script type="text/ecmascript"><![CDATA[
function umlload(newLocation)
{
if (newLocation.charAt(0) != '#') {
if (newLocation.indexOf("://") > -1) {
window.parent.location.href = newLocation;
} else {
var tmp = window.parent.location.href;
tmp = tmp.substring(0, tmp.lastIndexOf("/") + 1);
window.parent.location.href = tmp.concat(newLocation);
}
} else {
window.parent.location.hash = newLocation;
}
}
]]></script>
    </defs>
    <g fill="rgb(238,238,255)" transform="matrix(0.609,0,0,0.609,24.9674,261.2444)" stroke="rgb(238,238,255)">
      <rect width="69.7758" x="504.47" height="17.9688" y="157.8475" stroke="none"/>
    </g>
    <g fill="rgb(166,166,178)" stroke-miterlimit="1.45" transform="matrix(0.609,0,0,0.609,24.9674,261.2444)" stroke-linecap="butt" stroke="rgb(166,166,178)">
      <rect fill="none" width="69.7758" x="504.47" height="17.9688" y="157.8475"/>
    </g>
    <g fill="rgb(238,238,255)" transform="matrix(0.609,0,0,0.609,24.9674,261.2444)" stroke="rgb(238,238,255)">
      <rect width="73.96" x="504.47" height="39.1641" y="175.8163" stroke="none"/>
    </g>
    <g fill="rgb(166,166,178)" stroke-miterlimit="1.45" transform="matrix(0.609,0,0,0.609,24.9674,261.2444)" stroke-linecap="butt" stroke="rgb(166,166,178)">
      <rect fill="none" width="73.96" x="504.47" height="39.1641" y="175.8163"/>
    </g>
    <g font-family="sans-serif" transform="matrix(0.609,0,0,0.609,24.9674,261.2444)">
      <text xml:space="preserve" x="510.47" y="170.9862" onclick="umlload('http://docs.oracle.com/javase/6/docs/api/java/net/package-summary.html')" stroke="none">java.net</text>
    </g>
    <g fill="rgb(187,187,255)" transform="matrix(0.609,0,0,0.609,24.9674,261.2444)" stroke="rgb(187,187,255)">
      <rect x="512.47" y="183.8475" clip-path="url(#clipPath2)" width="32.96" height="23.1328" stroke="none"/>
    </g>
    <g fill="rgb(130,130,178)" stroke-miterlimit="1.45" transform="matrix(0.609,0,0,0.609,24.9674,261.2444)" stroke-linecap="butt" stroke="rgb(130,130,178)">
      <rect fill="none" width="32.96" x="512.47" height="23.1328" y="183.8475"/>
    </g>
    <g font-size="13" font-weight="bold" font-family="sans-serif" transform="matrix(0.609,0,0,0.609,24.9674,261.2444)">
      <text xml:space="preserve" x="516.95" y="199.9144" onclick="umlload('http://docs.oracle.com/javase/6/docs/api/java/net/URI.html')" stroke="none">URI</text>
    </g>
    <g fill="rgb(238,238,255)" transform="matrix(0.609,0,0,0.609,24.9674,261.2444)" stroke="rgb(238,238,255)">
      <rect width="76.1412" x="504.47" height="17.9688" y="70.7147" stroke="none"/>
    </g>
    <g fill="rgb(166,166,178)" stroke-miterlimit="1.45" transform="matrix(0.609,0,0,0.609,24.9674,261.2444)" stroke-linecap="butt" stroke="rgb(166,166,178)">
      <rect fill="none" width="76.1412" x="504.47" height="17.9688" y="70.7147"/>
    </g>
    <g fill="rgb(238,238,255)" transform="matrix(0.609,0,0,0.609,24.9674,261.2444)" stroke="rgb(238,238,255)">
      <rect width="79.56" x="504.47" height="39.1641" y="88.6835" stroke="none"/>
    </g>
    <g fill="rgb(166,166,178)" stroke-miterlimit="1.45" transform="matrix(0.609,0,0,0.609,24.9674,261.2444)" stroke-linecap="butt" stroke="rgb(166,166,178)">
      <rect fill="none" width="79.56" x="504.47" height="39.1641" y="88.6835"/>
    </g>
    <g font-family="sans-serif" transform="matrix(0.609,0,0,0.609,24.9674,261.2444)">
      <text xml:space="preserve" x="510.47" y="83.8534" onclick="umlload('http://docs.oracle.com/javase/6/docs/api/java/lang/package-summary.html')" stroke="none">java.lang</text>
    </g>
    <g fill="rgb(187,187,255)" transform="matrix(0.609,0,0,0.609,24.9674,261.2444)" stroke="rgb(187,187,255)">
      <rect x="512.47" y="96.7147" clip-path="url(#clipPath3)" width="53.56" height="23.1328" stroke="none"/>
    </g>
    <g fill="rgb(130,130,178)" stroke-miterlimit="1.45" transform="matrix(0.609,0,0,0.609,24.9674,261.2444)" stroke-linecap="butt" stroke="rgb(130,130,178)">
      <rect fill="none" width="53.56" x="512.47" height="23.1328" y="96.7147"/>
    </g>
    <g font-size="13" font-weight="bold" font-family="sans-serif" transform="matrix(0.609,0,0,0.609,24.9674,261.2444)">
      <text xml:space="preserve" x="517.25" y="112.7816" onclick="umlload('http://docs.oracle.com/javase/6/docs/api/java/lang/String.html')" stroke="none">String</text>
    </g>
    <g fill="rgb(238,238,255)" transform="matrix(0.609,0,0,0.609,24.9674,261.2444)" stroke="rgb(238,238,255)">
      <rect width="435.7863" x="504.47" height="17.9688" y="-26" stroke="none"/>
    </g>
    <g fill="rgb(166,166,178)" stroke-miterlimit="1.45" transform="matrix(0.609,0,0,0.609,24.9674,261.2444)" stroke-linecap="butt" stroke="rgb(166,166,178)">
      <rect fill="none" width="435.7863" x="504.47" height="17.9688" y="-26"/>
    </g>
    <g fill="rgb(238,238,255)" transform="matrix(0.609,0,0,0.609,24.9674,261.2444)" stroke="rgb(238,238,255)">
      <rect width="436.0909" x="504.47" height="48.746" y="-8.0312" stroke="none"/>
    </g>
    <g fill="rgb(166,166,178)" stroke-miterlimit="1.45" transform="matrix(0.609,0,0,0.609,24.9674,261.2444)" stroke-linecap="butt" stroke="rgb(166,166,178)">
      <rect fill="none" width="436.0909" x="504.47" height="48.746" y="-8.0312"/>
    </g>
    <g font-family="sans-serif" transform="matrix(0.609,0,0,0.609,24.9674,261.2444)">
      <text xml:space="preserve" x="510.47" y="-12.8613" onclick="umlload('../../../../../../../com/msopentech/odatajclient/engine/communication/response/package-summary.html')" stroke="none">com.msopentech.odatajclient.engine.communication.response</text>
    </g>
    <g fill="rgb(221,221,255)" transform="matrix(0.609,0,0,0.609,24.9674,261.2444)" stroke="rgb(221,221,255)">
      <rect x="512.47" y="0" clip-path="url(#clipPath4)" width="316.0909" height="32.7147" stroke="none"/>
    </g>
    <g fill="rgb(154,154,178)" stroke-miterlimit="1.45" transform="matrix(0.609,0,0,0.609,24.9674,261.2444)" stroke-linecap="butt" stroke="rgb(154,154,178)">
      <ellipse rx="158.0454" fill="none" ry="16.3574" cx="670.5154" cy="16.3574"/>
    </g>
    <g font-style="italic" font-size="13" font-weight="bold" font-family="sans-serif" transform="matrix(0.609,0,0,0.609,24.9674,261.2444)">
      <text xml:space="preserve" x="566.0154" y="20.8579" onclick="umlload('../../../../../../../com/msopentech/odatajclient/engine/communication/response/ODataRetrieveResponse.html')" stroke="none">ODataRetrieveResponse&lt;T&gt;</text>
    </g>
    <g fill="rgb(238,238,255)" transform="matrix(0.609,0,0,0.609,24.9674,261.2444)" stroke="rgb(238,238,255)">
      <rect width="480.3441" x="-40.96" height="17.9688" y="-133.1328" stroke="none"/>
    </g>
    <g fill="rgb(166,166,178)" stroke-miterlimit="1.45" transform="matrix(0.609,0,0,0.609,24.9674,261.2444)" stroke-linecap="butt" stroke="rgb(166,166,178)">
      <rect fill="none" width="480.3441" x="-40.96" height="17.9688" y="-133.1328"/>
    </g>
    <g fill="rgb(238,238,255)" transform="matrix(0.609,0,0,0.609,24.9674,261.2444)" stroke="rgb(238,238,255)">
      <rect width="484.65" x="-40.96" height="39.1641" y="-115.1641" stroke="none"/>
    </g>
    <g fill="rgb(166,166,178)" stroke-miterlimit="1.45" transform="matrix(0.609,0,0,0.609,24.9674,261.2444)" stroke-linecap="butt" stroke="rgb(166,166,178)">
      <rect fill="none" width="484.65" x="-40.96" height="39.1641" y="-115.1641"/>
    </g>
    <g font-family="sans-serif" transform="matrix(0.609,0,0,0.609,24.9674,261.2444)">
      <text xml:space="preserve" x="-34.96" y="-119.9941" onclick="umlload('../../../../../../../com/msopentech/odatajclient/engine/communication/request/retrieve/package-summary.html')" stroke="none">com.msopentech.odatajclient.engine.communication.request.retrieve</text>
    </g>
    <g fill="rgb(204,204,255)" transform="matrix(0.609,0,0,0.609,24.9674,261.2444)" stroke="rgb(204,204,255)">
      <rect x="-32.96" y="-107.1328" clip-path="url(#clipPath5)" width="468.65" height="23.1328" stroke="none"/>
    </g>
    <g fill="rgb(142,142,178)" stroke-miterlimit="1.45" transform="matrix(0.609,0,0,0.609,24.9674,261.2444)" stroke-linecap="butt" stroke="rgb(142,142,178)">
      <rect fill="none" width="468.65" x="-32.96" height="23.1328" y="-107.1328"/>
    </g>
    <g font-size="13" font-weight="bold" font-family="sans-serif" transform="matrix(0.609,0,0,0.609,24.9674,261.2444)">
      <text xml:space="preserve" x="-22.135" y="-91.0659" stroke="none">ODataRetrieveRequest&lt;ODataLinkCollection, ODataFormat&gt;</text>
    </g>
    <g fill="rgb(238,238,255)" transform="matrix(0.609,0,0,0.609,24.9674,261.2444)" stroke="rgb(238,238,255)">
      <rect width="480.3441" x="-8" height="17.9688" y="-26" stroke="none"/>
    </g>
    <g fill="rgb(166,166,178)" stroke-miterlimit="1.45" transform="matrix(0.609,0,0,0.609,24.9674,261.2444)" stroke-linecap="butt" stroke="rgb(166,166,178)">
      <rect fill="none" width="480.3441" x="-8" height="17.9688" y="-26"/>
    </g>
    <g fill="rgb(238,238,255)" transform="matrix(0.609,0,0,0.609,24.9674,261.2444)" stroke="rgb(238,238,255)">
      <rect width="480.73" x="-8" height="231.0116" y="-8.0312" stroke="none"/>
    </g>
    <g fill="rgb(166,166,178)" stroke-miterlimit="1.45" transform="matrix(0.609,0,0,0.609,24.9674,261.2444)" stroke-linecap="butt" stroke="rgb(166,166,178)">
      <rect fill="none" width="480.73" x="-8" height="231.0116" y="-8.0312"/>
    </g>
    <g font-family="sans-serif" transform="matrix(0.609,0,0,0.609,24.9674,261.2444)">
      <text xml:space="preserve" x="-2" y="-12.8613" onclick="umlload('package-summary.html')" stroke="none">com.msopentech.odatajclient.engine.communication.request.retrieve</text>
    </g>
    <g fill="rgb(187,187,255)" transform="matrix(0.609,0,0,0.609,24.9674,261.2444)" stroke="rgb(187,187,255)">
      <rect x="0" y="0" clip-path="url(#clipPath6)" width="402.73" height="26.625" stroke="none"/>
      <line clip-path="url(#clipPath6)" fill="none" x1="0" x2="402.73" y1="26.625" y2="26.625" stroke="black"/>
      <line clip-path="url(#clipPath6)" x1="0" x2="402.73" y1="27.625" y2="27.625" stroke="none"/>
      <line clip-path="url(#clipPath6)" fill="none" x1="0" x2="402.73" y1="27.625" y2="27.625" stroke="black"/>
      <rect x="0" y="28.625" clip-path="url(#clipPath6)" width="402.73" height="186.3554" stroke="none"/>
    </g>
    <g fill="rgb(130,130,178)" stroke-miterlimit="1.45" transform="matrix(0.609,0,0,0.609,24.9674,261.2444)" stroke-linecap="butt" stroke="rgb(130,130,178)">
      <rect fill="none" width="402.73" x="0" height="214.9804" y="0"/>
    </g>
    <g font-size="16" font-weight="bold" font-family="sans-serif" transform="matrix(0.609,0,0,0.609,24.9674,261.2444)">
      <text xml:space="preserve" x="75.865" y="18.8516" onclick="umlload('#')" stroke="none">ODataLinkCollectionRequest</text>
    </g>
    <g font-family="sans-serif" transform="matrix(0.609,0,0,0.609,24.9674,261.2444)">
      <text xml:space="preserve" x="4" y="39.1719" stroke="none">+</text>
      <text xml:space="preserve" x="19" y="40.7637" onclick="umlload('#execute()')" stroke="none">execute() : ODataRetrieveResponse&lt;ODataLinkCollection&gt;</text>
    </g>
    <g font-family="sans-serif" transform="matrix(0.609,0,0,0.609,24.9674,261.2444)">
      <text xml:space="preserve" x="-35" y="247.1543" onclick="umlload('http://www.yworks.com/')" stroke="none">yWorks UML Doclet</text>
    </g>
    <g stroke-miterlimit="1.45" transform="matrix(0.609,0,0,0.609,24.9674,261.2444)" stroke-linecap="butt">
      <path fill="none" d="M201.365 -0.0039 L201.365 -69"/>
      <path fill="white" d="M201.365 -84 L195.365 -68 L207.365 -68 Z" stroke="none"/>
      <path fill="none" d="M201.365 -84 L195.365 -68 L207.365 -68 Z"/>
      <path fill="none" stroke-dasharray="6,2" d="M402.7526 16.3574 L512.47 16.3574"/>
      <line stroke-linecap="square" transform="matrix(1,0,0,1,512.47,16.3574)" fill="none" x1="0" x2="-14" y1="0" y2="-4" stroke-miterlimit="10"/>
      <line stroke-linecap="square" transform="matrix(1,0,0,1,512.47,16.3574)" fill="none" x1="0" x2="-14" y1="0" y2="4" stroke-miterlimit="10"/>
    </g>
    <g stroke-dasharray="6,2" stroke-miterlimit="1.45" transform="matrix(0.609,0,0,0.609,24.9674,261.2444)" stroke-linecap="butt">
      <path fill="none" d="M402.7679 108.2811 L512.47 108.2811"/>
      <line stroke-linecap="square" transform="matrix(1,0,0,1,512.47,108.2811)" fill="none" x1="0" x2="-14" y1="0" y2="-4" stroke-dasharray="none" stroke-miterlimit="10"/>
      <line stroke-linecap="square" transform="matrix(1,0,0,1,512.47,108.2811)" fill="none" x1="0" x2="-14" y1="0" y2="4" stroke-dasharray="none" stroke-miterlimit="10"/>
    </g>
    <g stroke-dasharray="6,2" stroke-miterlimit="1.45" transform="matrix(0.609,0,0,0.609,24.9674,261.2444)" stroke-linecap="butt">
      <path fill="none" d="M402.7066 195.414 L512.47 195.414"/>
      <line stroke-linecap="square" transform="matrix(1,0,0,1,512.47,195.414)" fill="none" x1="0" x2="-14" y1="0" y2="-4" stroke-dasharray="none" stroke-miterlimit="10"/>
      <line stroke-linecap="square" transform="matrix(1,0,0,1,512.47,195.414)" fill="none" x1="0" x2="-14" y1="0" y2="4" stroke-dasharray="none" stroke-miterlimit="10"/>
    </g>
  </g>
</svg>
