<?xml version="1.0" encoding="UTF-8"?><svg xmlns="http://www.w3.org/2000/svg" xmlns:xlink="http://www.w3.org/1999/xlink" fill-opacity="1" color-rendering="auto" color-interpolation="auto" stroke="black" text-rendering="auto" stroke-linecap="square" width="598" stroke-miterlimit="10" stroke-opacity="1" shape-rendering="auto" fill="black" stroke-dasharray="none" font-weight="normal" stroke-width="1" height="598" font-family="'Dialog'" font-style="normal" stroke-linejoin="miter" font-size="12" stroke-dashoffset="0" image-rendering="auto">
  <!--Generated by ySVG-->
  <defs id="genericDefs"/>
  <g>
    <defs id="defs1">
      <clipPath clipPathUnits="userSpaceOnUse" id="clipPath1">
        <path d="M0 0 L598 0 L598 598 L0 598 L0 0 Z"/>
      </clipPath>
      <clipPath clipPathUnits="userSpaceOnUse" id="clipPath2">
        <path d="M631.9145 113.0721 C631.9145 122.106 605.1759 129.4295 572.1923 129.4295 C539.2086 129.4295 512.47 122.106 512.47 113.0721 C512.47 104.0382 539.2086 96.7147 572.1923 96.7147 C605.1759 96.7147 631.9145 104.0382 631.9145 113.0721 Z"/>
      </clipPath>
      <clipPath clipPathUnits="userSpaceOnUse" id="clipPath3">
        <path d="M674.157 16.3574 C674.157 25.3913 637.9622 32.7147 593.3135 32.7147 C548.6649 32.7147 512.47 25.3913 512.47 16.3574 C512.47 7.3234 548.6649 0 593.3135 0 C637.9622 0 674.157 7.3234 674.157 16.3574 Z"/>
      </clipPath>
      <clipPath clipPathUnits="userSpaceOnUse" id="clipPath4">
        <path d="M-346.34 0 L-248.49 0 L-248.49 23.1328 L-346.34 23.1328 L-346.34 0 Z"/>
      </clipPath>
      <clipPath clipPathUnits="userSpaceOnUse" id="clipPath5">
        <path d="M13.39 -107.1328 L417.15 -107.1328 L417.15 -84 L13.39 -84 L13.39 -107.1328 Z"/>
      </clipPath>
      <clipPath clipPathUnits="userSpaceOnUse" id="clipPath6">
        <path d="M0 0 L430.54 0 L430.54 137.4295 L0 137.4295 L0 0 Z"/>
      </clipPath>
      <script type="text/ecmascript"><![CDATA[
function umlload(newLocation)
{
if (newLocation.charAt(0) != '#') {
if (newLocation.indexOf("://") > -1) {
window.parent.location.href = newLocation;
} else {
var tmp = window.parent.location.href;
tmp = tmp.substring(0, tmp.lastIndexOf("/") + 1);
window.parent.location.href = tmp.concat(newLocation);
}
} else {
window.parent.location.hash = newLocation;
}
}
]]></script>
    </defs>
    <g fill="rgb(238,238,255)" transform="matrix(0.5761,0,0,0.5761,204.5183,285.1734)" stroke="rgb(238,238,255)">
      <rect width="165.2568" x="504.47" height="17.9688" y="70.7147" stroke="none"/>
    </g>
    <g fill="rgb(166,166,178)" stroke-miterlimit="1.45" transform="matrix(0.5761,0,0,0.5761,204.5183,285.1734)" stroke-linecap="butt" stroke="rgb(166,166,178)">
      <rect fill="none" width="165.2568" x="504.47" height="17.9688" y="70.7147"/>
    </g>
    <g fill="rgb(238,238,255)" transform="matrix(0.5761,0,0,0.5761,204.5183,285.1734)" stroke="rgb(238,238,255)">
      <rect width="166.4445" x="504.47" height="48.746" y="88.6835" stroke="none"/>
    </g>
    <g fill="rgb(166,166,178)" stroke-miterlimit="1.45" transform="matrix(0.5761,0,0,0.5761,204.5183,285.1734)" stroke-linecap="butt" stroke="rgb(166,166,178)">
      <rect fill="none" width="166.4445" x="504.47" height="48.746" y="88.6835"/>
    </g>
    <g font-family="sans-serif" transform="matrix(0.5761,0,0,0.5761,204.5183,285.1734)">
      <text xml:space="preserve" x="510.47" y="83.8534" stroke="none">org.apache.http.client</text>
    </g>
    <g fill="rgb(221,221,255)" transform="matrix(0.5761,0,0,0.5761,204.5183,285.1734)" stroke="rgb(221,221,255)">
      <rect x="512.47" y="96.7147" clip-path="url(#clipPath2)" width="119.4445" height="32.7147" stroke="none"/>
    </g>
    <g fill="rgb(154,154,178)" stroke-miterlimit="1.45" transform="matrix(0.5761,0,0,0.5761,204.5183,285.1734)" stroke-linecap="butt" stroke="rgb(154,154,178)">
      <ellipse rx="59.7222" fill="none" ry="16.3574" cx="572.1922" cy="113.0721"/>
    </g>
    <g font-style="italic" font-size="13" font-weight="bold" font-family="sans-serif" transform="matrix(0.5761,0,0,0.5761,204.5183,285.1734)">
      <text xml:space="preserve" x="535.1923" y="117.5726" stroke="none">HttpClient</text>
    </g>
    <g fill="rgb(238,238,255)" transform="matrix(0.5761,0,0,0.5761,204.5183,285.1734)" stroke="rgb(238,238,255)">
      <rect width="124.9426" x="504.47" height="17.9688" y="-26" stroke="none"/>
    </g>
    <g fill="rgb(166,166,178)" stroke-miterlimit="1.45" transform="matrix(0.5761,0,0,0.5761,204.5183,285.1734)" stroke-linecap="butt" stroke="rgb(166,166,178)">
      <rect fill="none" width="124.9426" x="504.47" height="17.9688" y="-26"/>
    </g>
    <g fill="rgb(238,238,255)" transform="matrix(0.5761,0,0,0.5761,204.5183,285.1734)" stroke="rgb(238,238,255)">
      <rect width="177.687" x="504.47" height="48.746" y="-8.0312" stroke="none"/>
    </g>
    <g fill="rgb(166,166,178)" stroke-miterlimit="1.45" transform="matrix(0.5761,0,0,0.5761,204.5183,285.1734)" stroke-linecap="butt" stroke="rgb(166,166,178)">
      <rect fill="none" width="177.687" x="504.47" height="48.746" y="-8.0312"/>
    </g>
    <g font-family="sans-serif" transform="matrix(0.5761,0,0,0.5761,204.5183,285.1734)">
      <text xml:space="preserve" x="510.47" y="-12.8613" stroke="none">org.apache.http</text>
    </g>
    <g fill="rgb(221,221,255)" transform="matrix(0.5761,0,0,0.5761,204.5183,285.1734)" stroke="rgb(221,221,255)">
      <rect x="512.47" y="0" clip-path="url(#clipPath3)" width="161.687" height="32.7147" stroke="none"/>
    </g>
    <g fill="rgb(154,154,178)" stroke-miterlimit="1.45" transform="matrix(0.5761,0,0,0.5761,204.5183,285.1734)" stroke-linecap="butt" stroke="rgb(154,154,178)">
      <ellipse rx="80.8435" fill="none" ry="16.3574" cx="593.3135" cy="16.3574"/>
    </g>
    <g font-style="italic" font-size="13" font-weight="bold" font-family="sans-serif" transform="matrix(0.5761,0,0,0.5761,204.5183,285.1734)">
      <text xml:space="preserve" x="541.8135" y="20.8579" stroke="none">HttpResponse</text>
    </g>
    <g fill="rgb(238,238,255)" transform="matrix(0.5761,0,0,0.5761,204.5183,285.1734)" stroke="rgb(238,238,255)">
      <rect width="298.9302" x="-354.34" height="17.9688" y="-26" stroke="none"/>
    </g>
    <g fill="rgb(166,166,178)" stroke-miterlimit="1.45" transform="matrix(0.5761,0,0,0.5761,204.5183,285.1734)" stroke-linecap="butt" stroke="rgb(166,166,178)">
      <rect fill="none" width="298.9302" x="-354.34" height="17.9688" y="-26"/>
    </g>
    <g fill="rgb(238,238,255)" transform="matrix(0.5761,0,0,0.5761,204.5183,285.1734)" stroke="rgb(238,238,255)">
      <rect width="298.9302" x="-354.34" height="39.1641" y="-8.0312" stroke="none"/>
    </g>
    <g fill="rgb(166,166,178)" stroke-miterlimit="1.45" transform="matrix(0.5761,0,0,0.5761,204.5183,285.1734)" stroke-linecap="butt" stroke="rgb(166,166,178)">
      <rect fill="none" width="298.9302" x="-354.34" height="39.1641" y="-8.0312"/>
    </g>
    <g font-family="sans-serif" transform="matrix(0.5761,0,0,0.5761,204.5183,285.1734)">
      <text xml:space="preserve" x="-348.34" y="-12.8613" onclick="umlload('../../../../../../../com/msopentech/odatajclient/engine/data/package-summary.html')" stroke="none">com.msopentech.odatajclient.engine.data</text>
    </g>
    <g fill="rgb(204,204,255)" transform="matrix(0.5761,0,0,0.5761,204.5183,285.1734)" stroke="rgb(204,204,255)">
      <rect x="-346.34" y="0" clip-path="url(#clipPath4)" width="97.85" height="23.1328" stroke="none"/>
    </g>
    <g fill="rgb(142,142,178)" stroke-miterlimit="1.45" transform="matrix(0.5761,0,0,0.5761,204.5183,285.1734)" stroke-linecap="butt" stroke="rgb(142,142,178)">
      <rect fill="none" width="97.85" x="-346.34" height="23.1328" y="0"/>
    </g>
    <g font-size="13" font-weight="bold" font-family="sans-serif" transform="matrix(0.5761,0,0,0.5761,204.5183,285.1734)">
      <text xml:space="preserve" x="-340.915" y="16.0669" onclick="umlload('../../../../../../../com/msopentech/odatajclient/engine/data/ODataValue.html')" stroke="none">ODataValue</text>
    </g>
    <g fill="rgb(238,238,255)" transform="matrix(0.5761,0,0,0.5761,204.5183,285.1734)" stroke="rgb(238,238,255)">
      <rect width="480.3441" x="-15.61" height="17.9688" y="-133.1328" stroke="none"/>
    </g>
    <g fill="rgb(166,166,178)" stroke-miterlimit="1.45" transform="matrix(0.5761,0,0,0.5761,204.5183,285.1734)" stroke-linecap="butt" stroke="rgb(166,166,178)">
      <rect fill="none" width="480.3441" x="-15.61" height="17.9688" y="-133.1328"/>
    </g>
    <g fill="rgb(238,238,255)" transform="matrix(0.5761,0,0,0.5761,204.5183,285.1734)" stroke="rgb(238,238,255)">
      <rect width="480.3441" x="-15.61" height="39.1641" y="-115.1641" stroke="none"/>
    </g>
    <g fill="rgb(166,166,178)" stroke-miterlimit="1.45" transform="matrix(0.5761,0,0,0.5761,204.5183,285.1734)" stroke-linecap="butt" stroke="rgb(166,166,178)">
      <rect fill="none" width="480.3441" x="-15.61" height="39.1641" y="-115.1641"/>
    </g>
    <g font-family="sans-serif" transform="matrix(0.5761,0,0,0.5761,204.5183,285.1734)">
      <text xml:space="preserve" x="-9.61" y="-119.9941" onclick="umlload('../../../../../../../com/msopentech/odatajclient/engine/communication/request/retrieve/package-summary.html')" stroke="none">com.msopentech.odatajclient.engine.communication.request.retrieve</text>
    </g>
    <g fill="rgb(204,204,255)" transform="matrix(0.5761,0,0,0.5761,204.5183,285.1734)" stroke="rgb(204,204,255)">
      <rect x="13.39" y="-107.1328" clip-path="url(#clipPath5)" width="403.76" height="23.1328" stroke="none"/>
    </g>
    <g fill="rgb(142,142,178)" stroke-miterlimit="1.45" transform="matrix(0.5761,0,0,0.5761,204.5183,285.1734)" stroke-linecap="butt" stroke="rgb(142,142,178)">
      <rect fill="none" width="403.76" x="13.39" height="23.1328" y="-107.1328"/>
    </g>
    <g font-size="13" font-weight="bold" font-family="sans-serif" transform="matrix(0.5761,0,0,0.5761,204.5183,285.1734)">
      <text xml:space="preserve" x="23.27" y="-91.0659" stroke="none">ODataRetrieveRequest.ODataRetrieveResponseImpl</text>
    </g>
    <g fill="rgb(238,238,255)" transform="matrix(0.5761,0,0,0.5761,204.5183,285.1734)" stroke="rgb(238,238,255)">
      <rect width="480.3441" x="-8" height="17.9688" y="-26" stroke="none"/>
    </g>
    <g fill="rgb(166,166,178)" stroke-miterlimit="1.45" transform="matrix(0.5761,0,0,0.5761,204.5183,285.1734)" stroke-linecap="butt" stroke="rgb(166,166,178)">
      <rect fill="none" width="480.3441" x="-8" height="17.9688" y="-26"/>
    </g>
    <g fill="rgb(238,238,255)" transform="matrix(0.5761,0,0,0.5761,204.5183,285.1734)" stroke="rgb(238,238,255)">
      <rect width="480.54" x="-8" height="153.4607" y="-8.0312" stroke="none"/>
    </g>
    <g fill="rgb(166,166,178)" stroke-miterlimit="1.45" transform="matrix(0.5761,0,0,0.5761,204.5183,285.1734)" stroke-linecap="butt" stroke="rgb(166,166,178)">
      <rect fill="none" width="480.54" x="-8" height="153.4607" y="-8.0312"/>
    </g>
    <g font-family="sans-serif" transform="matrix(0.5761,0,0,0.5761,204.5183,285.1734)">
      <text xml:space="preserve" x="-2" y="-12.8613" onclick="umlload('package-summary.html')" stroke="none">com.msopentech.odatajclient.engine.communication.request.retrieve</text>
    </g>
    <g fill="rgb(187,187,255)" transform="matrix(0.5761,0,0,0.5761,204.5183,285.1734)" stroke="rgb(187,187,255)">
      <rect x="0" y="0" clip-path="url(#clipPath6)" width="430.54" height="26.625" stroke="none"/>
      <line clip-path="url(#clipPath6)" fill="none" x1="0" x2="430.54" y1="26.625" y2="26.625" stroke="black"/>
      <line clip-path="url(#clipPath6)" x1="0" x2="430.54" y1="27.625" y2="27.625" stroke="none"/>
      <line clip-path="url(#clipPath6)" fill="none" x1="0" x2="430.54" y1="27.625" y2="27.625" stroke="black"/>
      <rect x="0" y="28.625" clip-path="url(#clipPath6)" width="430.54" height="108.8045" stroke="none"/>
    </g>
    <g fill="rgb(130,130,178)" stroke-miterlimit="1.45" transform="matrix(0.5761,0,0,0.5761,204.5183,285.1734)" stroke-linecap="butt" stroke="rgb(130,130,178)">
      <rect fill="none" width="430.54" x="0" height="137.4295" y="0"/>
    </g>
    <g font-size="16" font-weight="bold" font-family="sans-serif" transform="matrix(0.5761,0,0,0.5761,204.5183,285.1734)">
      <text xml:space="preserve" x="10.27" y="18.8516" onclick="umlload('#')" stroke="none">ODataValueRequest.ODataValueResponseImpl</text>
    </g>
    <g font-family="sans-serif" transform="matrix(0.5761,0,0,0.5761,204.5183,285.1734)">
      <text xml:space="preserve" x="4" y="39.1719" stroke="none">+</text>
      <text xml:space="preserve" x="19" y="40.7637" onclick="umlload('#getBody()')" stroke="none">getBody() : ODataValue</text>
    </g>
    <g font-family="sans-serif" transform="matrix(0.5761,0,0,0.5761,204.5183,285.1734)">
      <text xml:space="preserve" x="-349" y="170.1543" onclick="umlload('http://www.yworks.com/')" stroke="none">yWorks UML Doclet</text>
    </g>
    <g stroke-miterlimit="1.45" transform="matrix(0.5761,0,0,0.5761,204.5183,285.1734)" stroke-linecap="butt">
      <path fill="none" d="M215.27 -0.0039 L215.27 -69"/>
      <path fill="white" d="M215.27 -84 L209.27 -68 L221.27 -68 Z" stroke="none"/>
      <path fill="none" d="M215.27 -84 L209.27 -68 L221.27 -68 Z"/>
      <path fill="none" d="M0.0136 11.5664 L-248.49 11.5664"/>
      <line stroke-linecap="square" transform="matrix(-1,0,0,-1,-248.49,11.5664)" fill="none" x1="0" x2="-14" y1="0" y2="-4" stroke-miterlimit="10"/>
      <line stroke-linecap="square" transform="matrix(-1,0,0,-1,-248.49,11.5664)" fill="none" x1="0" x2="-14" y1="0" y2="4" stroke-miterlimit="10"/>
    </g>
    <g stroke-dasharray="6,2" stroke-miterlimit="1.45" transform="matrix(0.5761,0,0,0.5761,204.5183,285.1734)" stroke-linecap="butt">
      <path fill="none" d="M430.5499 16.3574 L512.47 16.3574"/>
      <line stroke-linecap="square" transform="matrix(1,0,0,1,512.47,16.3574)" fill="none" x1="0" x2="-14" y1="0" y2="-4" stroke-dasharray="none" stroke-miterlimit="10"/>
      <line stroke-linecap="square" transform="matrix(1,0,0,1,512.47,16.3574)" fill="none" x1="0" x2="-14" y1="0" y2="4" stroke-dasharray="none" stroke-miterlimit="10"/>
    </g>
    <g stroke-dasharray="6,2" stroke-miterlimit="1.45" transform="matrix(0.5761,0,0,0.5761,204.5183,285.1734)" stroke-linecap="butt">
      <path fill="none" d="M430.5474 113.0721 L512.47 113.0721"/>
      <line stroke-linecap="square" transform="matrix(1,0,0,1,512.47,113.0721)" fill="none" x1="0" x2="-14" y1="0" y2="-4" stroke-dasharray="none" stroke-miterlimit="10"/>
      <line stroke-linecap="square" transform="matrix(1,0,0,1,512.47,113.0721)" fill="none" x1="0" x2="-14" y1="0" y2="4" stroke-dasharray="none" stroke-miterlimit="10"/>
    </g>
  </g>
</svg>
