<?xml version="1.0" encoding="UTF-8"?><svg xmlns="http://www.w3.org/2000/svg" xmlns:xlink="http://www.w3.org/1999/xlink" fill-opacity="1" color-rendering="auto" color-interpolation="auto" stroke="black" text-rendering="auto" stroke-linecap="square" width="598" stroke-miterlimit="10" stroke-opacity="1" shape-rendering="auto" fill="black" stroke-dasharray="none" font-weight="normal" stroke-width="1" height="598" font-family="'Dialog'" font-style="normal" stroke-linejoin="miter" font-size="12" stroke-dashoffset="0" image-rendering="auto">
  <!--Generated by ySVG-->
  <defs id="genericDefs"/>
  <g>
    <defs id="defs1">
      <clipPath clipPathUnits="userSpaceOnUse" id="clipPath1">
        <path d="M0 0 L598 0 L598 598 L0 598 L0 0 Z"/>
      </clipPath>
      <clipPath clipPathUnits="userSpaceOnUse" id="clipPath2">
        <path d="M543.92 505.5938 L576.88 505.5938 L576.88 528.7266 L543.92 528.7266 L543.92 505.5938 Z"/>
      </clipPath>
      <clipPath clipPathUnits="userSpaceOnUse" id="clipPath3">
        <path d="M543.92 418.4609 L597.48 418.4609 L597.48 441.5938 L543.92 441.5938 L543.92 418.4609 Z"/>
      </clipPath>
      <clipPath clipPathUnits="userSpaceOnUse" id="clipPath4">
        <path d="M543.92 0 L705.63 0 L705.63 23.1328 L543.92 23.1328 L543.92 0 Z"/>
      </clipPath>
      <clipPath clipPathUnits="userSpaceOnUse" id="clipPath5">
        <path d="M543.92 33.1328 L787 33.1328 L787 56.2656 L543.92 56.2656 L543.92 33.1328 Z"/>
      </clipPath>
      <clipPath clipPathUnits="userSpaceOnUse" id="clipPath6">
        <path d="M543.92 66.2656 L730.35 66.2656 L730.35 89.3984 L543.92 89.3984 L543.92 66.2656 Z"/>
      </clipPath>
      <clipPath clipPathUnits="userSpaceOnUse" id="clipPath7">
        <path d="M543.92 99.3984 L782.88 99.3984 L782.88 122.5312 L543.92 122.5312 L543.92 99.3984 Z"/>
      </clipPath>
      <clipPath clipPathUnits="userSpaceOnUse" id="clipPath8">
        <path d="M543.92 132.5312 L767.43 132.5312 L767.43 155.6641 L543.92 155.6641 L543.92 132.5312 Z"/>
      </clipPath>
      <clipPath clipPathUnits="userSpaceOnUse" id="clipPath9">
        <path d="M543.92 165.6641 L708.72 165.6641 L708.72 188.7969 L543.92 188.7969 L543.92 165.6641 Z"/>
      </clipPath>
      <clipPath clipPathUnits="userSpaceOnUse" id="clipPath10">
        <path d="M543.92 198.7969 L735.5 198.7969 L735.5 221.9297 L543.92 221.9297 L543.92 198.7969 Z"/>
      </clipPath>
      <clipPath clipPathUnits="userSpaceOnUse" id="clipPath11">
        <path d="M543.92 231.9297 L728.29 231.9297 L728.29 255.0625 L543.92 255.0625 L543.92 231.9297 Z"/>
      </clipPath>
      <clipPath clipPathUnits="userSpaceOnUse" id="clipPath12">
        <path d="M543.92 265.0625 L694.3 265.0625 L694.3 288.1953 L543.92 288.1953 L543.92 265.0625 Z"/>
      </clipPath>
      <clipPath clipPathUnits="userSpaceOnUse" id="clipPath13">
        <path d="M543.92 298.1953 L794.21 298.1953 L794.21 321.3281 L543.92 321.3281 L543.92 298.1953 Z"/>
      </clipPath>
      <clipPath clipPathUnits="userSpaceOnUse" id="clipPath14">
        <path d="M543.92 331.3281 L704.6 331.3281 L704.6 354.4609 L543.92 354.4609 L543.92 331.3281 Z"/>
      </clipPath>
      <clipPath clipPathUnits="userSpaceOnUse" id="clipPath15">
        <path d="M210.12 -107.1328 L267.8 -107.1328 L267.8 -84 L210.12 -84 L210.12 -107.1328 Z"/>
      </clipPath>
      <clipPath clipPathUnits="userSpaceOnUse" id="clipPath16">
        <path d="M0 0 L477.92 0 L477.92 536.7266 L0 536.7266 L0 0 Z"/>
      </clipPath>
      <script type="text/ecmascript"><![CDATA[
function umlload(newLocation)
{
if (newLocation.charAt(0) != '#') {
if (newLocation.indexOf("://") > -1) {
window.parent.location.href = newLocation;
} else {
var tmp = window.parent.location.href;
tmp = tmp.substring(0, tmp.lastIndexOf("/") + 1);
window.parent.location.href = tmp.concat(newLocation);
}
} else {
window.parent.location.hash = newLocation;
}
}
]]></script>
    </defs>
    <g fill="rgb(238,238,255)" transform="matrix(0.5834,0,0,0.5834,4.6673,168.6068)" stroke="rgb(238,238,255)">
      <rect width="69.7758" x="535.92" height="17.9688" y="479.5938" stroke="none"/>
    </g>
    <g fill="rgb(166,166,178)" stroke-miterlimit="1.45" transform="matrix(0.5834,0,0,0.5834,4.6673,168.6068)" stroke-linecap="butt" stroke="rgb(166,166,178)">
      <rect fill="none" width="69.7758" x="535.92" height="17.9688" y="479.5938"/>
    </g>
    <g fill="rgb(238,238,255)" transform="matrix(0.5834,0,0,0.5834,4.6673,168.6068)" stroke="rgb(238,238,255)">
      <rect width="73.96" x="535.92" height="39.1641" y="497.5625" stroke="none"/>
    </g>
    <g fill="rgb(166,166,178)" stroke-miterlimit="1.45" transform="matrix(0.5834,0,0,0.5834,4.6673,168.6068)" stroke-linecap="butt" stroke="rgb(166,166,178)">
      <rect fill="none" width="73.96" x="535.92" height="39.1641" y="497.5625"/>
    </g>
    <g font-family="sans-serif" transform="matrix(0.5834,0,0,0.5834,4.6673,168.6068)">
      <text xml:space="preserve" x="541.92" y="492.7324" onclick="umlload('http://docs.oracle.com/javase/6/docs/api/java/net/package-summary.html')" stroke="none">java.net</text>
    </g>
    <g fill="rgb(187,187,255)" transform="matrix(0.5834,0,0,0.5834,4.6673,168.6068)" stroke="rgb(187,187,255)">
      <rect x="543.92" y="505.5938" clip-path="url(#clipPath2)" width="32.96" height="23.1328" stroke="none"/>
    </g>
    <g fill="rgb(130,130,178)" stroke-miterlimit="1.45" transform="matrix(0.5834,0,0,0.5834,4.6673,168.6068)" stroke-linecap="butt" stroke="rgb(130,130,178)">
      <rect fill="none" width="32.96" x="543.92" height="23.1328" y="505.5938"/>
    </g>
    <g font-size="13" font-weight="bold" font-family="sans-serif" transform="matrix(0.5834,0,0,0.5834,4.6673,168.6068)">
      <text xml:space="preserve" x="548.4" y="521.6606" onclick="umlload('http://docs.oracle.com/javase/6/docs/api/java/net/URI.html')" stroke="none">URI</text>
    </g>
    <g fill="rgb(238,238,255)" transform="matrix(0.5834,0,0,0.5834,4.6673,168.6068)" stroke="rgb(238,238,255)">
      <rect width="76.1412" x="535.92" height="17.9688" y="392.4609" stroke="none"/>
    </g>
    <g fill="rgb(166,166,178)" stroke-miterlimit="1.45" transform="matrix(0.5834,0,0,0.5834,4.6673,168.6068)" stroke-linecap="butt" stroke="rgb(166,166,178)">
      <rect fill="none" width="76.1412" x="535.92" height="17.9688" y="392.4609"/>
    </g>
    <g fill="rgb(238,238,255)" transform="matrix(0.5834,0,0,0.5834,4.6673,168.6068)" stroke="rgb(238,238,255)">
      <rect width="79.56" x="535.92" height="39.1641" y="410.4297" stroke="none"/>
    </g>
    <g fill="rgb(166,166,178)" stroke-miterlimit="1.45" transform="matrix(0.5834,0,0,0.5834,4.6673,168.6068)" stroke-linecap="butt" stroke="rgb(166,166,178)">
      <rect fill="none" width="79.56" x="535.92" height="39.1641" y="410.4297"/>
    </g>
    <g font-family="sans-serif" transform="matrix(0.5834,0,0,0.5834,4.6673,168.6068)">
      <text xml:space="preserve" x="541.92" y="405.5996" onclick="umlload('http://docs.oracle.com/javase/6/docs/api/java/lang/package-summary.html')" stroke="none">java.lang</text>
    </g>
    <g fill="rgb(187,187,255)" transform="matrix(0.5834,0,0,0.5834,4.6673,168.6068)" stroke="rgb(187,187,255)">
      <rect x="543.92" y="418.4609" clip-path="url(#clipPath3)" width="53.56" height="23.1328" stroke="none"/>
    </g>
    <g fill="rgb(130,130,178)" stroke-miterlimit="1.45" transform="matrix(0.5834,0,0,0.5834,4.6673,168.6068)" stroke-linecap="butt" stroke="rgb(130,130,178)">
      <rect fill="none" width="53.56" x="543.92" height="23.1328" y="418.4609"/>
    </g>
    <g font-size="13" font-weight="bold" font-family="sans-serif" transform="matrix(0.5834,0,0,0.5834,4.6673,168.6068)">
      <text xml:space="preserve" x="548.7" y="434.5278" onclick="umlload('http://docs.oracle.com/javase/6/docs/api/java/lang/String.html')" stroke="none">String</text>
    </g>
    <g fill="rgb(238,238,255)" transform="matrix(0.5834,0,0,0.5834,4.6673,168.6068)" stroke="rgb(238,238,255)">
      <rect width="480.3441" x="535.92" height="17.9688" y="-26" stroke="none"/>
    </g>
    <g fill="rgb(166,166,178)" stroke-miterlimit="1.45" transform="matrix(0.5834,0,0,0.5834,4.6673,168.6068)" stroke-linecap="butt" stroke="rgb(166,166,178)">
      <rect fill="none" width="480.3441" x="535.92" height="17.9688" y="-26"/>
    </g>
    <g fill="rgb(238,238,255)" transform="matrix(0.5834,0,0,0.5834,4.6673,168.6068)" stroke="rgb(238,238,255)">
      <rect width="480.3441" x="535.92" height="370.4922" y="-8.0312" stroke="none"/>
    </g>
    <g fill="rgb(166,166,178)" stroke-miterlimit="1.45" transform="matrix(0.5834,0,0,0.5834,4.6673,168.6068)" stroke-linecap="butt" stroke="rgb(166,166,178)">
      <rect fill="none" width="480.3441" x="535.92" height="370.4922" y="-8.0312"/>
    </g>
    <g font-family="sans-serif" transform="matrix(0.5834,0,0,0.5834,4.6673,168.6068)">
      <text xml:space="preserve" x="541.92" y="-12.8613" onclick="umlload('../../../../../../../com/msopentech/odatajclient/engine/communication/request/retrieve/package-summary.html')" stroke="none">com.msopentech.odatajclient.engine.communication.request.retrieve</text>
    </g>
    <g fill="rgb(187,187,255)" transform="matrix(0.5834,0,0,0.5834,4.6673,168.6068)" stroke="rgb(187,187,255)">
      <rect x="543.92" y="0" clip-path="url(#clipPath4)" width="161.71" height="23.1328" stroke="none"/>
    </g>
    <g fill="rgb(130,130,178)" stroke-miterlimit="1.45" transform="matrix(0.5834,0,0,0.5834,4.6673,168.6068)" stroke-linecap="butt" stroke="rgb(130,130,178)">
      <rect fill="none" width="161.71" x="543.92" height="23.1328" y="0"/>
    </g>
    <g font-size="13" font-weight="bold" font-family="sans-serif" transform="matrix(0.5834,0,0,0.5834,4.6673,168.6068)">
      <text xml:space="preserve" x="550.275" y="16.0669" onclick="umlload('../../../../../../../com/msopentech/odatajclient/engine/communication/request/retrieve/ODataEntityRequest.html')" stroke="none">ODataEntityRequest</text>
    </g>
    <g fill="rgb(187,187,255)" transform="matrix(0.5834,0,0,0.5834,4.6673,168.6068)" stroke="rgb(187,187,255)">
      <rect x="543.92" y="33.1328" clip-path="url(#clipPath5)" width="243.08" height="23.1328" stroke="none"/>
    </g>
    <g fill="rgb(130,130,178)" stroke-miterlimit="1.45" transform="matrix(0.5834,0,0,0.5834,4.6673,168.6068)" stroke-linecap="butt" stroke="rgb(130,130,178)">
      <rect fill="none" width="243.08" x="543.92" height="23.1328" y="33.1328"/>
    </g>
    <g font-size="13" font-weight="bold" font-family="sans-serif" transform="matrix(0.5834,0,0,0.5834,4.6673,168.6068)">
      <text xml:space="preserve" x="551.46" y="49.1997" onclick="umlload('../../../../../../../com/msopentech/odatajclient/engine/communication/request/retrieve/ODataEntitySetIteratorRequest.html')" stroke="none">ODataEntitySetIteratorRequest</text>
    </g>
    <g fill="rgb(187,187,255)" transform="matrix(0.5834,0,0,0.5834,4.6673,168.6068)" stroke="rgb(187,187,255)">
      <rect x="543.92" y="66.2656" clip-path="url(#clipPath6)" width="186.43" height="23.1328" stroke="none"/>
    </g>
    <g fill="rgb(130,130,178)" stroke-miterlimit="1.45" transform="matrix(0.5834,0,0,0.5834,4.6673,168.6068)" stroke-linecap="butt" stroke="rgb(130,130,178)">
      <rect fill="none" width="186.43" x="543.92" height="23.1328" y="66.2656"/>
    </g>
    <g font-size="13" font-weight="bold" font-family="sans-serif" transform="matrix(0.5834,0,0,0.5834,4.6673,168.6068)">
      <text xml:space="preserve" x="550.635" y="82.3325" onclick="umlload('../../../../../../../com/msopentech/odatajclient/engine/communication/request/retrieve/ODataEntitySetRequest.html')" stroke="none">ODataEntitySetRequest</text>
    </g>
    <g fill="rgb(187,187,255)" transform="matrix(0.5834,0,0,0.5834,4.6673,168.6068)" stroke="rgb(187,187,255)">
      <rect x="543.92" y="99.3984" clip-path="url(#clipPath7)" width="238.96" height="23.1328" stroke="none"/>
    </g>
    <g fill="rgb(130,130,178)" stroke-miterlimit="1.45" transform="matrix(0.5834,0,0,0.5834,4.6673,168.6068)" stroke-linecap="butt" stroke="rgb(130,130,178)">
      <rect fill="none" width="238.96" x="543.92" height="23.1328" y="99.3984"/>
    </g>
    <g font-size="13" font-weight="bold" font-family="sans-serif" transform="matrix(0.5834,0,0,0.5834,4.6673,168.6068)">
      <text xml:space="preserve" x="551.4" y="115.4653" onclick="umlload('../../../../../../../com/msopentech/odatajclient/engine/communication/request/retrieve/ODataGenericRetrieveRequest.html')" stroke="none">ODataGenericRetrieveRequest</text>
    </g>
    <g fill="rgb(187,187,255)" transform="matrix(0.5834,0,0,0.5834,4.6673,168.6068)" stroke="rgb(187,187,255)">
      <rect x="543.92" y="132.5312" clip-path="url(#clipPath8)" width="223.51" height="23.1328" stroke="none"/>
    </g>
    <g fill="rgb(130,130,178)" stroke-miterlimit="1.45" transform="matrix(0.5834,0,0,0.5834,4.6673,168.6068)" stroke-linecap="butt" stroke="rgb(130,130,178)">
      <rect fill="none" width="223.51" x="543.92" height="23.1328" y="132.5312"/>
    </g>
    <g font-size="13" font-weight="bold" font-family="sans-serif" transform="matrix(0.5834,0,0,0.5834,4.6673,168.6068)">
      <text xml:space="preserve" x="551.175" y="148.5981" onclick="umlload('../../../../../../../com/msopentech/odatajclient/engine/communication/request/retrieve/ODataLinkCollectionRequest.html')" stroke="none">ODataLinkCollectionRequest</text>
    </g>
    <g fill="rgb(187,187,255)" transform="matrix(0.5834,0,0,0.5834,4.6673,168.6068)" stroke="rgb(187,187,255)">
      <rect x="543.92" y="165.6641" clip-path="url(#clipPath9)" width="164.8" height="23.1328" stroke="none"/>
    </g>
    <g fill="rgb(130,130,178)" stroke-miterlimit="1.45" transform="matrix(0.5834,0,0,0.5834,4.6673,168.6068)" stroke-linecap="butt" stroke="rgb(130,130,178)">
      <rect fill="none" width="164.8" x="543.92" height="23.1328" y="165.6641"/>
    </g>
    <g font-size="13" font-weight="bold" font-family="sans-serif" transform="matrix(0.5834,0,0,0.5834,4.6673,168.6068)">
      <text xml:space="preserve" x="550.32" y="181.731" onclick="umlload('../../../../../../../com/msopentech/odatajclient/engine/communication/request/retrieve/ODataMediaRequest.html')" stroke="none">ODataMediaRequest</text>
    </g>
    <g fill="rgb(187,187,255)" transform="matrix(0.5834,0,0,0.5834,4.6673,168.6068)" stroke="rgb(187,187,255)">
      <rect x="543.92" y="198.7969" clip-path="url(#clipPath10)" width="191.58" height="23.1328" stroke="none"/>
    </g>
    <g fill="rgb(130,130,178)" stroke-miterlimit="1.45" transform="matrix(0.5834,0,0,0.5834,4.6673,168.6068)" stroke-linecap="butt" stroke="rgb(130,130,178)">
      <rect fill="none" width="191.58" x="543.92" height="23.1328" y="198.7969"/>
    </g>
    <g font-size="13" font-weight="bold" font-family="sans-serif" transform="matrix(0.5834,0,0,0.5834,4.6673,168.6068)">
      <text xml:space="preserve" x="550.71" y="214.8638" onclick="umlload('../../../../../../../com/msopentech/odatajclient/engine/communication/request/retrieve/ODataMetadataRequest.html')" stroke="none">ODataMetadataRequest</text>
    </g>
    <g fill="rgb(187,187,255)" transform="matrix(0.5834,0,0,0.5834,4.6673,168.6068)" stroke="rgb(187,187,255)">
      <rect x="543.92" y="231.9297" clip-path="url(#clipPath11)" width="184.37" height="23.1328" stroke="none"/>
    </g>
    <g fill="rgb(130,130,178)" stroke-miterlimit="1.45" transform="matrix(0.5834,0,0,0.5834,4.6673,168.6068)" stroke-linecap="butt" stroke="rgb(130,130,178)">
      <rect fill="none" width="184.37" x="543.92" height="23.1328" y="231.9297"/>
    </g>
    <g font-size="13" font-weight="bold" font-family="sans-serif" transform="matrix(0.5834,0,0,0.5834,4.6673,168.6068)">
      <text xml:space="preserve" x="550.605" y="247.9966" onclick="umlload('../../../../../../../com/msopentech/odatajclient/engine/communication/request/retrieve/ODataPropertyRequest.html')" stroke="none">ODataPropertyRequest</text>
    </g>
    <g fill="rgb(187,187,255)" transform="matrix(0.5834,0,0,0.5834,4.6673,168.6068)" stroke="rgb(187,187,255)">
      <rect x="543.92" y="265.0625" clip-path="url(#clipPath12)" width="150.38" height="23.1328" stroke="none"/>
    </g>
    <g fill="rgb(130,130,178)" stroke-miterlimit="1.45" transform="matrix(0.5834,0,0,0.5834,4.6673,168.6068)" stroke-linecap="butt" stroke="rgb(130,130,178)">
      <rect fill="none" width="150.38" x="543.92" height="23.1328" y="265.0625"/>
    </g>
    <g font-size="13" font-weight="bold" font-family="sans-serif" transform="matrix(0.5834,0,0,0.5834,4.6673,168.6068)">
      <text xml:space="preserve" x="550.11" y="281.1294" onclick="umlload('../../../../../../../com/msopentech/odatajclient/engine/communication/request/retrieve/ODataRawRequest.html')" stroke="none">ODataRawRequest</text>
    </g>
    <g fill="rgb(187,187,255)" transform="matrix(0.5834,0,0,0.5834,4.6673,168.6068)" stroke="rgb(187,187,255)">
      <rect x="543.92" y="298.1953" clip-path="url(#clipPath13)" width="250.29" height="23.1328" stroke="none"/>
    </g>
    <g fill="rgb(130,130,178)" stroke-miterlimit="1.45" transform="matrix(0.5834,0,0,0.5834,4.6673,168.6068)" stroke-linecap="butt" stroke="rgb(130,130,178)">
      <rect fill="none" width="250.29" x="543.92" height="23.1328" y="298.1953"/>
    </g>
    <g font-size="13" font-weight="bold" font-family="sans-serif" transform="matrix(0.5834,0,0,0.5834,4.6673,168.6068)">
      <text xml:space="preserve" x="551.565" y="314.2622" onclick="umlload('../../../../../../../com/msopentech/odatajclient/engine/communication/request/retrieve/ODataServiceDocumentRequest.html')" stroke="none">ODataServiceDocumentRequest</text>
    </g>
    <g fill="rgb(187,187,255)" transform="matrix(0.5834,0,0,0.5834,4.6673,168.6068)" stroke="rgb(187,187,255)">
      <rect x="543.92" y="331.3281" clip-path="url(#clipPath14)" width="160.68" height="23.1328" stroke="none"/>
    </g>
    <g fill="rgb(130,130,178)" stroke-miterlimit="1.45" transform="matrix(0.5834,0,0,0.5834,4.6673,168.6068)" stroke-linecap="butt" stroke="rgb(130,130,178)">
      <rect fill="none" width="160.68" x="543.92" height="23.1328" y="331.3281"/>
    </g>
    <g font-size="13" font-weight="bold" font-family="sans-serif" transform="matrix(0.5834,0,0,0.5834,4.6673,168.6068)">
      <text xml:space="preserve" x="550.26" y="347.395" onclick="umlload('../../../../../../../com/msopentech/odatajclient/engine/communication/request/retrieve/ODataValueRequest.html')" stroke="none">ODataValueRequest</text>
    </g>
    <g fill="rgb(238,238,255)" transform="matrix(0.5834,0,0,0.5834,4.6673,168.6068)" stroke="rgb(238,238,255)">
      <rect width="76.1412" x="202.12" height="17.9688" y="-133.1328" stroke="none"/>
    </g>
    <g fill="rgb(166,166,178)" stroke-miterlimit="1.45" transform="matrix(0.5834,0,0,0.5834,4.6673,168.6068)" stroke-linecap="butt" stroke="rgb(166,166,178)">
      <rect fill="none" width="76.1412" x="202.12" height="17.9688" y="-133.1328"/>
    </g>
    <g fill="rgb(238,238,255)" transform="matrix(0.5834,0,0,0.5834,4.6673,168.6068)" stroke="rgb(238,238,255)">
      <rect width="76.1412" x="202.12" height="39.1641" y="-115.1641" stroke="none"/>
    </g>
    <g fill="rgb(166,166,178)" stroke-miterlimit="1.45" transform="matrix(0.5834,0,0,0.5834,4.6673,168.6068)" stroke-linecap="butt" stroke="rgb(166,166,178)">
      <rect fill="none" width="76.1412" x="202.12" height="39.1641" y="-115.1641"/>
    </g>
    <g font-family="sans-serif" transform="matrix(0.5834,0,0,0.5834,4.6673,168.6068)">
      <text xml:space="preserve" x="208.12" y="-119.9941" onclick="umlload('http://docs.oracle.com/javase/6/docs/api/java/lang/package-summary.html')" stroke="none">java.lang</text>
    </g>
    <g fill="rgb(187,187,255)" transform="matrix(0.5834,0,0,0.5834,4.6673,168.6068)" stroke="rgb(187,187,255)">
      <rect x="210.12" y="-107.1328" clip-path="url(#clipPath15)" width="57.68" height="23.1328" stroke="none"/>
    </g>
    <g fill="rgb(130,130,178)" stroke-miterlimit="1.45" transform="matrix(0.5834,0,0,0.5834,4.6673,168.6068)" stroke-linecap="butt" stroke="rgb(130,130,178)">
      <rect fill="none" width="57.68" x="210.12" height="23.1328" y="-107.1328"/>
    </g>
    <g font-size="13" font-weight="bold" font-family="sans-serif" transform="matrix(0.5834,0,0,0.5834,4.6673,168.6068)">
      <text xml:space="preserve" x="214.96" y="-91.0659" onclick="umlload('http://docs.oracle.com/javase/6/docs/api/java/lang/Object.html')" stroke="none">Object</text>
    </g>
    <g fill="rgb(238,238,255)" transform="matrix(0.5834,0,0,0.5834,4.6673,168.6068)" stroke="rgb(238,238,255)">
      <rect width="480.3441" x="-8" height="17.9688" y="-26" stroke="none"/>
    </g>
    <g fill="rgb(166,166,178)" stroke-miterlimit="1.45" transform="matrix(0.5834,0,0,0.5834,4.6673,168.6068)" stroke-linecap="butt" stroke="rgb(166,166,178)">
      <rect fill="none" width="480.3441" x="-8" height="17.9688" y="-26"/>
    </g>
    <g fill="rgb(238,238,255)" transform="matrix(0.5834,0,0,0.5834,4.6673,168.6068)" stroke="rgb(238,238,255)">
      <rect width="493.92" x="-8" height="552.7578" y="-8.0312" stroke="none"/>
    </g>
    <g fill="rgb(166,166,178)" stroke-miterlimit="1.45" transform="matrix(0.5834,0,0,0.5834,4.6673,168.6068)" stroke-linecap="butt" stroke="rgb(166,166,178)">
      <rect fill="none" width="493.92" x="-8" height="552.7578" y="-8.0312"/>
    </g>
    <g font-family="sans-serif" transform="matrix(0.5834,0,0,0.5834,4.6673,168.6068)">
      <text xml:space="preserve" x="-2" y="-12.8613" onclick="umlload('package-summary.html')" stroke="none">com.msopentech.odatajclient.engine.communication.request.retrieve</text>
    </g>
    <g fill="rgb(187,187,255)" transform="matrix(0.5834,0,0,0.5834,4.6673,168.6068)" stroke="rgb(187,187,255)">
      <rect x="0" y="0" clip-path="url(#clipPath16)" width="477.92" height="26.625" stroke="none"/>
      <line clip-path="url(#clipPath16)" fill="none" x1="0" x2="477.92" y1="26.625" y2="26.625" stroke="black"/>
      <line clip-path="url(#clipPath16)" x1="0" x2="477.92" y1="27.625" y2="27.625" stroke="none"/>
      <line clip-path="url(#clipPath16)" fill="none" x1="0" x2="477.92" y1="27.625" y2="27.625" stroke="black"/>
      <rect x="0" y="28.625" clip-path="url(#clipPath16)" width="477.92" height="508.1016" stroke="none"/>
    </g>
    <g fill="rgb(130,130,178)" stroke-miterlimit="1.45" transform="matrix(0.5834,0,0,0.5834,4.6673,168.6068)" stroke-linecap="butt" stroke="rgb(130,130,178)">
      <rect fill="none" width="477.92" x="0" height="536.7266" y="0"/>
    </g>
    <g font-size="16" font-weight="bold" font-family="sans-serif" transform="matrix(0.5834,0,0,0.5834,4.6673,168.6068)">
      <text xml:space="preserve" x="103.46" y="18.8516" onclick="umlload('#')" stroke="none">ODataRetrieveRequestFactory</text>
    </g>
    <g font-family="sans-serif" transform="matrix(0.5834,0,0,0.5834,4.6673,168.6068)">
      <text xml:space="preserve" x="4" y="39.1719" stroke="none">+</text>
      <text xml:space="preserve" x="19" y="40.7637" onclick="umlload('#getEntityRequest(java.net.URI)')" stroke="none">getEntityRequest(URI) : ODataEntityRequest</text>
      <line y2="43.5938" fill="none" x1="19" x2="295" y1="43.5938"/>
    </g>
    <g font-family="sans-serif" transform="matrix(0.5834,0,0,0.5834,4.6673,168.6068)">
      <text xml:space="preserve" x="4" y="55.1719" stroke="none">+</text>
      <text xml:space="preserve" x="19" y="56.7324" onclick="umlload('#getEntitySetIteratorRequest(java.net.URI)')" stroke="none">getEntitySetIteratorRequest(URI) : ODataEntitySetIteratorRequest</text>
      <line y2="59.5625" fill="none" x1="19" x2="431" y1="59.5625"/>
    </g>
    <g font-family="sans-serif" transform="matrix(0.5834,0,0,0.5834,4.6673,168.6068)">
      <text xml:space="preserve" x="4" y="71.1719" stroke="none">+</text>
      <text xml:space="preserve" x="19" y="72.7012" onclick="umlload('#getEntitySetRequest(java.net.URI)')" stroke="none">getEntitySetRequest(URI) : ODataEntitySetRequest</text>
      <line y2="75.5312" fill="none" x1="19" x2="337" y1="75.5312"/>
    </g>
    <g font-family="sans-serif" transform="matrix(0.5834,0,0,0.5834,4.6673,168.6068)">
      <text xml:space="preserve" x="4" y="87.1719" stroke="none">+</text>
      <text xml:space="preserve" x="19" y="88.6699" onclick="umlload('#getGenericRetrieveRequest(java.net.URI)')" stroke="none">getGenericRetrieveRequest(URI) : ODataGenericRetrieveRequest</text>
      <line y2="91.5" fill="none" x1="19" x2="423" y1="91.5"/>
    </g>
    <g font-family="sans-serif" transform="matrix(0.5834,0,0,0.5834,4.6673,168.6068)">
      <text xml:space="preserve" x="4" y="103.1719" stroke="none">+</text>
      <text xml:space="preserve" x="19" y="104.6387" onclick="umlload('#getLinkCollectionRequest(java.net.URI, java.lang.String)')" stroke="none">getLinkCollectionRequest(URI, String) : ODataLinkCollectionRequest</text>
      <line y2="107.4688" fill="none" x1="19" x2="440" y1="107.4688"/>
    </g>
    <g font-family="sans-serif" transform="matrix(0.5834,0,0,0.5834,4.6673,168.6068)">
      <text xml:space="preserve" x="4" y="119.1719" stroke="none">+</text>
      <text xml:space="preserve" x="19" y="120.6074" onclick="umlload('#getMediaRequest(java.net.URI)')" stroke="none">getMediaRequest(URI) : ODataMediaRequest</text>
      <line y2="123.4375" fill="none" x1="19" x2="299" y1="123.4375"/>
    </g>
    <g font-family="sans-serif" transform="matrix(0.5834,0,0,0.5834,4.6673,168.6068)">
      <text xml:space="preserve" x="4" y="135.1719" stroke="none">+</text>
      <text xml:space="preserve" x="19" y="136.5762" onclick="umlload('#getMetadataRequest(java.lang.String)')" stroke="none">getMetadataRequest(String) : ODataMetadataRequest</text>
      <line y2="139.4062" fill="none" x1="19" x2="362" y1="139.4062"/>
    </g>
    <g font-family="sans-serif" transform="matrix(0.5834,0,0,0.5834,4.6673,168.6068)">
      <text xml:space="preserve" x="4" y="151.1719" stroke="none">+</text>
      <text xml:space="preserve" x="19" y="152.5449" onclick="umlload('#getPropertyRequest(java.net.URI)')" stroke="none">getPropertyRequest(URI) : ODataPropertyRequest</text>
      <line y2="155.375" fill="none" x1="19" x2="331" y1="155.375"/>
    </g>
    <g font-family="sans-serif" transform="matrix(0.5834,0,0,0.5834,4.6673,168.6068)">
      <text xml:space="preserve" x="4" y="167.1719" stroke="none">+</text>
      <text xml:space="preserve" x="19" y="168.5137" onclick="umlload('#getRawRequest(java.net.URI)')" stroke="none">getRawRequest(URI) : ODataRawRequest</text>
      <line y2="171.3438" fill="none" x1="19" x2="275" y1="171.3438"/>
    </g>
    <g font-family="sans-serif" transform="matrix(0.5834,0,0,0.5834,4.6673,168.6068)">
      <text xml:space="preserve" x="4" y="183.1719" stroke="none">+</text>
      <text xml:space="preserve" x="19" y="184.4824" onclick="umlload('#getServiceDocumentRequest(java.lang.String)')" stroke="none">getServiceDocumentRequest(String) : ODataServiceDocumentRequest</text>
      <line y2="187.3125" fill="none" x1="19" x2="460" y1="187.3125"/>
    </g>
    <g font-family="sans-serif" transform="matrix(0.5834,0,0,0.5834,4.6673,168.6068)">
      <text xml:space="preserve" x="4" y="199.1719" stroke="none">+</text>
      <text xml:space="preserve" x="19" y="200.4512" onclick="umlload('#getValueRequest(java.net.URI)')" stroke="none">getValueRequest(URI) : ODataValueRequest</text>
      <line y2="203.2812" fill="none" x1="19" x2="295" y1="203.2812"/>
    </g>
    <g font-family="sans-serif" transform="matrix(0.5834,0,0,0.5834,4.6673,168.6068)">
      <text xml:space="preserve" x="-2" y="569.1543" onclick="umlload('http://www.yworks.com/')" stroke="none">yWorks UML Doclet</text>
    </g>
    <g stroke-miterlimit="1.45" transform="matrix(0.5834,0,0,0.5834,4.6673,168.6068)" stroke-linecap="butt">
      <path fill="none" d="M238.96 -0.0434 L238.96 -69"/>
      <path fill="white" d="M238.96 -84 L232.96 -68 L244.96 -68 Z" stroke="none"/>
      <path fill="none" d="M238.96 -84 L232.96 -68 L244.96 -68 Z"/>
      <path fill="none" stroke-dasharray="6,2" d="M477.8808 11.5664 L543.92 11.5664"/>
      <line stroke-linecap="square" transform="matrix(1,0,0,1,543.92,11.5664)" fill="none" x1="0" x2="-14" y1="0" y2="-4" stroke-miterlimit="10"/>
      <line stroke-linecap="square" transform="matrix(1,0,0,1,543.92,11.5664)" fill="none" x1="0" x2="-14" y1="0" y2="4" stroke-miterlimit="10"/>
    </g>
    <g stroke-dasharray="6,2" stroke-miterlimit="1.45" transform="matrix(0.5834,0,0,0.5834,4.6673,168.6068)" stroke-linecap="butt">
      <path fill="none" d="M477.9031 44.6992 L543.92 44.6992"/>
      <line stroke-linecap="square" transform="matrix(1,0,0,1,543.92,44.6992)" fill="none" x1="0" x2="-14" y1="0" y2="-4" stroke-dasharray="none" stroke-miterlimit="10"/>
      <line stroke-linecap="square" transform="matrix(1,0,0,1,543.92,44.6992)" fill="none" x1="0" x2="-14" y1="0" y2="4" stroke-dasharray="none" stroke-miterlimit="10"/>
    </g>
    <g stroke-dasharray="6,2" stroke-miterlimit="1.45" transform="matrix(0.5834,0,0,0.5834,4.6673,168.6068)" stroke-linecap="butt">
      <path fill="none" d="M477.9525 77.832 L543.92 77.832"/>
      <line stroke-linecap="square" transform="matrix(1,0,0,1,543.92,77.832)" fill="none" x1="0" x2="-14" y1="0" y2="-4" stroke-dasharray="none" stroke-miterlimit="10"/>
      <line stroke-linecap="square" transform="matrix(1,0,0,1,543.92,77.832)" fill="none" x1="0" x2="-14" y1="0" y2="4" stroke-dasharray="none" stroke-miterlimit="10"/>
    </g>
    <g stroke-dasharray="6,2" stroke-miterlimit="1.45" transform="matrix(0.5834,0,0,0.5834,4.6673,168.6068)" stroke-linecap="butt">
      <path fill="none" d="M477.9406 110.9648 L543.92 110.9648"/>
      <line stroke-linecap="square" transform="matrix(1,0,0,1,543.92,110.9648)" fill="none" x1="0" x2="-14" y1="0" y2="-4" stroke-dasharray="none" stroke-miterlimit="10"/>
      <line stroke-linecap="square" transform="matrix(1,0,0,1,543.92,110.9648)" fill="none" x1="0" x2="-14" y1="0" y2="4" stroke-dasharray="none" stroke-miterlimit="10"/>
    </g>
    <g stroke-dasharray="6,2" stroke-miterlimit="1.45" transform="matrix(0.5834,0,0,0.5834,4.6673,168.6068)" stroke-linecap="butt">
      <path fill="none" d="M477.9149 144.0977 L543.92 144.0977"/>
      <line stroke-linecap="square" transform="matrix(1,0,0,1,543.92,144.0977)" fill="none" x1="0" x2="-14" y1="0" y2="-4" stroke-dasharray="none" stroke-miterlimit="10"/>
      <line stroke-linecap="square" transform="matrix(1,0,0,1,543.92,144.0977)" fill="none" x1="0" x2="-14" y1="0" y2="4" stroke-dasharray="none" stroke-miterlimit="10"/>
    </g>
    <g stroke-dasharray="6,2" stroke-miterlimit="1.45" transform="matrix(0.5834,0,0,0.5834,4.6673,168.6068)" stroke-linecap="butt">
      <path fill="none" d="M477.8919 177.2305 L543.92 177.2305"/>
      <line stroke-linecap="square" transform="matrix(1,0,0,1,543.92,177.2305)" fill="none" x1="0" x2="-14" y1="0" y2="-4" stroke-dasharray="none" stroke-miterlimit="10"/>
      <line stroke-linecap="square" transform="matrix(1,0,0,1,543.92,177.2305)" fill="none" x1="0" x2="-14" y1="0" y2="4" stroke-dasharray="none" stroke-miterlimit="10"/>
    </g>
    <g stroke-dasharray="6,2" stroke-miterlimit="1.45" transform="matrix(0.5834,0,0,0.5834,4.6673,168.6068)" stroke-linecap="butt">
      <path fill="none" d="M477.9326 210.3633 L543.92 210.3633"/>
      <line stroke-linecap="square" transform="matrix(1,0,0,1,543.92,210.3633)" fill="none" x1="0" x2="-14" y1="0" y2="-4" stroke-dasharray="none" stroke-miterlimit="10"/>
      <line stroke-linecap="square" transform="matrix(1,0,0,1,543.92,210.3633)" fill="none" x1="0" x2="-14" y1="0" y2="4" stroke-dasharray="none" stroke-miterlimit="10"/>
    </g>
    <g stroke-dasharray="6,2" stroke-miterlimit="1.45" transform="matrix(0.5834,0,0,0.5834,4.6673,168.6068)" stroke-linecap="butt">
      <path fill="none" d="M477.916 243.4961 L543.92 243.4961"/>
      <line stroke-linecap="square" transform="matrix(1,0,0,1,543.92,243.4961)" fill="none" x1="0" x2="-14" y1="0" y2="-4" stroke-dasharray="none" stroke-miterlimit="10"/>
      <line stroke-linecap="square" transform="matrix(1,0,0,1,543.92,243.4961)" fill="none" x1="0" x2="-14" y1="0" y2="4" stroke-dasharray="none" stroke-miterlimit="10"/>
    </g>
    <g stroke-dasharray="6,2" stroke-miterlimit="1.45" transform="matrix(0.5834,0,0,0.5834,4.6673,168.6068)" stroke-linecap="butt">
      <path fill="none" d="M477.8995 276.6289 L543.92 276.6289"/>
      <line stroke-linecap="square" transform="matrix(1,0,0,1,543.92,276.6289)" fill="none" x1="0" x2="-14" y1="0" y2="-4" stroke-dasharray="none" stroke-miterlimit="10"/>
      <line stroke-linecap="square" transform="matrix(1,0,0,1,543.92,276.6289)" fill="none" x1="0" x2="-14" y1="0" y2="4" stroke-dasharray="none" stroke-miterlimit="10"/>
    </g>
    <g stroke-dasharray="6,2" stroke-miterlimit="1.45" transform="matrix(0.5834,0,0,0.5834,4.6673,168.6068)" stroke-linecap="butt">
      <path fill="none" d="M477.9276 309.7617 L543.92 309.7617"/>
      <line stroke-linecap="square" transform="matrix(1,0,0,1,543.92,309.7617)" fill="none" x1="0" x2="-14" y1="0" y2="-4" stroke-dasharray="none" stroke-miterlimit="10"/>
      <line stroke-linecap="square" transform="matrix(1,0,0,1,543.92,309.7617)" fill="none" x1="0" x2="-14" y1="0" y2="4" stroke-dasharray="none" stroke-miterlimit="10"/>
    </g>
    <g stroke-dasharray="6,2" stroke-miterlimit="1.45" transform="matrix(0.5834,0,0,0.5834,4.6673,168.6068)" stroke-linecap="butt">
      <path fill="none" d="M477.9382 342.8945 L543.92 342.8945"/>
      <line stroke-linecap="square" transform="matrix(1,0,0,1,543.92,342.8945)" fill="none" x1="0" x2="-14" y1="0" y2="-4" stroke-dasharray="none" stroke-miterlimit="10"/>
      <line stroke-linecap="square" transform="matrix(1,0,0,1,543.92,342.8945)" fill="none" x1="0" x2="-14" y1="0" y2="4" stroke-dasharray="none" stroke-miterlimit="10"/>
    </g>
    <g stroke-dasharray="6,2" stroke-miterlimit="1.45" transform="matrix(0.5834,0,0,0.5834,4.6673,168.6068)" stroke-linecap="butt">
      <path fill="none" d="M477.9246 430.0273 L543.92 430.0273"/>
      <line stroke-linecap="square" transform="matrix(1,0,0,1,543.92,430.0273)" fill="none" x1="0" x2="-14" y1="0" y2="-4" stroke-dasharray="none" stroke-miterlimit="10"/>
      <line stroke-linecap="square" transform="matrix(1,0,0,1,543.92,430.0273)" fill="none" x1="0" x2="-14" y1="0" y2="4" stroke-dasharray="none" stroke-miterlimit="10"/>
    </g>
    <g stroke-dasharray="6,2" stroke-miterlimit="1.45" transform="matrix(0.5834,0,0,0.5834,4.6673,168.6068)" stroke-linecap="butt">
      <path fill="none" d="M477.8819 517.1602 L543.92 517.1602"/>
      <line stroke-linecap="square" transform="matrix(1,0,0,1,543.92,517.1602)" fill="none" x1="0" x2="-14" y1="0" y2="-4" stroke-dasharray="none" stroke-miterlimit="10"/>
      <line stroke-linecap="square" transform="matrix(1,0,0,1,543.92,517.1602)" fill="none" x1="0" x2="-14" y1="0" y2="4" stroke-dasharray="none" stroke-miterlimit="10"/>
    </g>
  </g>
</svg>
