<?xml version="1.0" encoding="UTF-8"?><svg xmlns="http://www.w3.org/2000/svg" xmlns:xlink="http://www.w3.org/1999/xlink" fill-opacity="1" color-rendering="auto" color-interpolation="auto" stroke="black" text-rendering="auto" stroke-linecap="square" width="598" stroke-miterlimit="10" stroke-opacity="1" shape-rendering="auto" fill="black" stroke-dasharray="none" font-weight="normal" stroke-width="1" height="598" font-family="'Dialog'" font-style="normal" stroke-linejoin="miter" font-size="12" stroke-dashoffset="0" image-rendering="auto">
  <!--Generated by ySVG-->
  <defs id="genericDefs"/>
  <g>
    <defs id="defs1">
      <clipPath clipPathUnits="userSpaceOnUse" id="clipPath1">
        <path d="M0 0 L598 0 L598 598 L0 598 L0 0 Z"/>
      </clipPath>
      <clipPath clipPathUnits="userSpaceOnUse" id="clipPath2">
        <path d="M512.47 0 L545.43 0 L545.43 23.1328 L512.47 23.1328 L512.47 0 Z"/>
      </clipPath>
      <clipPath clipPathUnits="userSpaceOnUse" id="clipPath3">
        <path d="M13.905 -107.1328 L165.315 -107.1328 L165.315 -84 L13.905 -84 L13.905 -107.1328 Z"/>
      </clipPath>
      <clipPath clipPathUnits="userSpaceOnUse" id="clipPath4">
        <path d="M0 0 L179.22 0 L179.22 31.1328 L0 31.1328 L0 0 Z"/>
      </clipPath>
      <script type="text/ecmascript"><![CDATA[
function umlload(newLocation)
{
if (newLocation.charAt(0) != '#') {
if (newLocation.indexOf("://") > -1) {
window.parent.location.href = newLocation;
} else {
var tmp = window.parent.location.href;
tmp = tmp.substring(0, tmp.lastIndexOf("/") + 1);
window.parent.location.href = tmp.concat(newLocation);
}
} else {
window.parent.location.hash = newLocation;
}
}
]]></script>
    </defs>
    <g fill="rgb(238,238,255)" transform="matrix(0.8604,0,0,0.8604,99.8101,324.3827)" stroke="rgb(238,238,255)">
      <rect width="69.7758" x="504.47" height="17.9688" y="-26" stroke="none"/>
    </g>
    <g fill="rgb(166,166,178)" stroke-miterlimit="1.45" transform="matrix(0.8604,0,0,0.8604,99.8101,324.3827)" stroke-linecap="butt" stroke="rgb(166,166,178)">
      <rect fill="none" width="69.7758" x="504.47" height="17.9688" y="-26"/>
    </g>
    <g fill="rgb(238,238,255)" transform="matrix(0.8604,0,0,0.8604,99.8101,324.3827)" stroke="rgb(238,238,255)">
      <rect width="73.96" x="504.47" height="39.1641" y="-8.0312" stroke="none"/>
    </g>
    <g fill="rgb(166,166,178)" stroke-miterlimit="1.45" transform="matrix(0.8604,0,0,0.8604,99.8101,324.3827)" stroke-linecap="butt" stroke="rgb(166,166,178)">
      <rect fill="none" width="73.96" x="504.47" height="39.1641" y="-8.0312"/>
    </g>
    <g font-family="sans-serif" transform="matrix(0.8604,0,0,0.8604,99.8101,324.3827)">
      <text xml:space="preserve" x="510.47" y="-12.8613" onclick="umlload('http://docs.oracle.com/javase/6/docs/api/java/net/package-summary.html')" stroke="none">java.net</text>
    </g>
    <g fill="rgb(187,187,255)" transform="matrix(0.8604,0,0,0.8604,99.8101,324.3827)" stroke="rgb(187,187,255)">
      <rect x="512.47" y="0" clip-path="url(#clipPath2)" width="32.96" height="23.1328" stroke="none"/>
    </g>
    <g fill="rgb(130,130,178)" stroke-miterlimit="1.45" transform="matrix(0.8604,0,0,0.8604,99.8101,324.3827)" stroke-linecap="butt" stroke="rgb(130,130,178)">
      <rect fill="none" width="32.96" x="512.47" height="23.1328" y="0"/>
    </g>
    <g font-size="13" font-weight="bold" font-family="sans-serif" transform="matrix(0.8604,0,0,0.8604,99.8101,324.3827)">
      <text xml:space="preserve" x="516.95" y="16.0669" onclick="umlload('http://docs.oracle.com/javase/6/docs/api/java/net/URI.html')" stroke="none">URI</text>
    </g>
    <g fill="rgb(238,238,255)" transform="matrix(0.8604,0,0,0.8604,99.8101,324.3827)" stroke="rgb(238,238,255)">
      <rect width="425.1773" x="-115.095" height="17.9688" y="-133.1328" stroke="none"/>
    </g>
    <g fill="rgb(166,166,178)" stroke-miterlimit="1.45" transform="matrix(0.8604,0,0,0.8604,99.8101,324.3827)" stroke-linecap="butt" stroke="rgb(166,166,178)">
      <rect fill="none" width="425.1773" x="-115.095" height="17.9688" y="-133.1328"/>
    </g>
    <g fill="rgb(238,238,255)" transform="matrix(0.8604,0,0,0.8604,99.8101,324.3827)" stroke="rgb(238,238,255)">
      <rect width="425.41" x="-115.095" height="39.1641" y="-115.1641" stroke="none"/>
    </g>
    <g fill="rgb(166,166,178)" stroke-miterlimit="1.45" transform="matrix(0.8604,0,0,0.8604,99.8101,324.3827)" stroke-linecap="butt" stroke="rgb(166,166,178)">
      <rect fill="none" width="425.41" x="-115.095" height="39.1641" y="-115.1641"/>
    </g>
    <g font-family="sans-serif" transform="matrix(0.8604,0,0,0.8604,99.8101,324.3827)">
      <text xml:space="preserve" x="-109.095" y="-119.9941" onclick="umlload('../../../../../../../com/msopentech/odatajclient/engine/communication/request/package-summary.html')" stroke="none">com.msopentech.odatajclient.engine.communication.request</text>
    </g>
    <g fill="rgb(187,187,255)" transform="matrix(0.8604,0,0,0.8604,99.8101,324.3827)" stroke="rgb(187,187,255)">
      <rect x="13.905" y="-107.1328" clip-path="url(#clipPath3)" width="151.41" height="23.1328" stroke="none"/>
    </g>
    <g fill="rgb(130,130,178)" stroke-miterlimit="1.45" transform="matrix(0.8604,0,0,0.8604,99.8101,324.3827)" stroke-linecap="butt" stroke="rgb(130,130,178)">
      <rect fill="none" width="151.41" x="13.905" height="23.1328" y="-107.1328"/>
    </g>
    <g font-size="13" font-weight="bold" font-family="sans-serif" transform="matrix(0.8604,0,0,0.8604,99.8101,324.3827)">
      <text xml:space="preserve" x="20.11" y="-91.0659" onclick="umlload('../../../../../../../com/msopentech/odatajclient/engine/communication/request/ODataRequestImpl.html')" stroke="none">ODataRequestImpl</text>
    </g>
    <g fill="rgb(238,238,255)" transform="matrix(0.8604,0,0,0.8604,99.8101,324.3827)" stroke="rgb(238,238,255)">
      <rect width="480.3441" x="-8" height="17.9688" y="-26" stroke="none"/>
    </g>
    <g fill="rgb(166,166,178)" stroke-miterlimit="1.45" transform="matrix(0.8604,0,0,0.8604,99.8101,324.3827)" stroke-linecap="butt" stroke="rgb(166,166,178)">
      <rect fill="none" width="480.3441" x="-8" height="17.9688" y="-26"/>
    </g>
    <g fill="rgb(238,238,255)" transform="matrix(0.8604,0,0,0.8604,99.8101,324.3827)" stroke="rgb(238,238,255)">
      <rect width="480.3441" x="-8" height="47.1641" y="-8.0312" stroke="none"/>
    </g>
    <g fill="rgb(166,166,178)" stroke-miterlimit="1.45" transform="matrix(0.8604,0,0,0.8604,99.8101,324.3827)" stroke-linecap="butt" stroke="rgb(166,166,178)">
      <rect fill="none" width="480.3441" x="-8" height="47.1641" y="-8.0312"/>
    </g>
    <g font-family="sans-serif" transform="matrix(0.8604,0,0,0.8604,99.8101,324.3827)">
      <text xml:space="preserve" x="-2" y="-12.8613" onclick="umlload('package-summary.html')" stroke="none">com.msopentech.odatajclient.engine.communication.request.retrieve</text>
    </g>
    <g fill="rgb(187,187,255)" transform="matrix(0.8604,0,0,0.8604,99.8101,324.3827)" stroke="rgb(187,187,255)">
      <rect x="0" y="0" clip-path="url(#clipPath4)" width="179.22" height="31.1328" stroke="none"/>
    </g>
    <g fill="rgb(130,130,178)" stroke-miterlimit="1.45" transform="matrix(0.8604,0,0,0.8604,99.8101,324.3827)" stroke-linecap="butt" stroke="rgb(130,130,178)">
      <rect fill="none" width="179.22" x="0" height="31.1328" y="0"/>
    </g>
    <g font-size="16" font-weight="bold" font-family="sans-serif" transform="matrix(0.8604,0,0,0.8604,99.8101,324.3827)">
      <text xml:space="preserve" x="6.61" y="18.8516" onclick="umlload('#')" stroke="none">ODataRawRequest</text>
    </g>
    <g font-family="sans-serif" transform="matrix(0.8604,0,0,0.8604,99.8101,324.3827)">
      <text xml:space="preserve" x="-110" y="64.1543" onclick="umlload('http://www.yworks.com/')" stroke="none">yWorks UML Doclet</text>
    </g>
    <g stroke-miterlimit="1.45" transform="matrix(0.8604,0,0,0.8604,99.8101,324.3827)" stroke-linecap="butt">
      <path fill="none" d="M89.61 -0.005 L89.61 -69"/>
      <path fill="white" d="M89.61 -84 L83.61 -68 L95.61 -68 Z" stroke="none"/>
      <path fill="none" d="M89.61 -84 L83.61 -68 L95.61 -68 Z"/>
      <path fill="none" stroke-dasharray="6,2" d="M179.1995 11.5664 L512.47 11.5664"/>
      <line stroke-linecap="square" transform="matrix(1,0,0,1,512.47,11.5664)" fill="none" x1="0" x2="-14" y1="0" y2="-4" stroke-miterlimit="10"/>
      <line stroke-linecap="square" transform="matrix(1,0,0,1,512.47,11.5664)" fill="none" x1="0" x2="-14" y1="0" y2="4" stroke-miterlimit="10"/>
    </g>
  </g>
</svg>
