<?xml version="1.0" encoding="UTF-8"?><svg xmlns="http://www.w3.org/2000/svg" xmlns:xlink="http://www.w3.org/1999/xlink" fill-opacity="1" color-rendering="auto" color-interpolation="auto" stroke="black" text-rendering="auto" stroke-linecap="square" width="598" stroke-miterlimit="10" stroke-opacity="1" shape-rendering="auto" fill="black" stroke-dasharray="none" font-weight="normal" stroke-width="1" height="598" font-family="'Dialog'" font-style="normal" stroke-linejoin="miter" font-size="12" stroke-dashoffset="0" image-rendering="auto">
  <!--Generated by ySVG-->
  <defs id="genericDefs"/>
  <g>
    <defs id="defs1">
      <clipPath clipPathUnits="userSpaceOnUse" id="clipPath1">
        <path d="M0 0 L598 0 L598 598 L0 598 L0 0 Z"/>
      </clipPath>
      <clipPath clipPathUnits="userSpaceOnUse" id="clipPath2">
        <path d="M828.1645 200.2049 C828.1645 209.2388 801.4259 216.5623 768.4423 216.5623 C735.4586 216.5623 708.72 209.2388 708.72 200.2049 C708.72 191.171 735.4586 183.8475 768.4423 183.8475 C801.4259 183.8475 828.1645 191.171 828.1645 200.2049 Z"/>
      </clipPath>
      <clipPath clipPathUnits="userSpaceOnUse" id="clipPath3">
        <path d="M870.407 103.4902 C870.407 112.5241 834.2122 119.8475 789.5635 119.8475 C744.9149 119.8475 708.72 112.5241 708.72 103.4902 C708.72 94.4563 744.9149 87.1328 789.5635 87.1328 C834.2122 87.1328 870.407 94.4563 870.407 103.4902 Z"/>
      </clipPath>
      <clipPath clipPathUnits="userSpaceOnUse" id="clipPath4">
        <path d="M708.72 0 L888.97 0 L888.97 23.1328 L708.72 23.1328 L708.72 0 Z"/>
      </clipPath>
      <clipPath clipPathUnits="userSpaceOnUse" id="clipPath5">
        <path d="M119.48 -107.1328 L523.24 -107.1328 L523.24 -84 L119.48 -84 L119.48 -107.1328 Z"/>
      </clipPath>
      <clipPath clipPathUnits="userSpaceOnUse" id="clipPath6">
        <path d="M0 0 L642.72 0 L642.72 224.5623 L0 224.5623 L0 0 Z"/>
      </clipPath>
      <script type="text/ecmascript"><![CDATA[
function umlload(newLocation)
{
if (newLocation.charAt(0) != '#') {
if (newLocation.indexOf("://") > -1) {
window.parent.location.href = newLocation;
} else {
var tmp = window.parent.location.href;
tmp = tmp.substring(0, tmp.lastIndexOf("/") + 1);
window.parent.location.href = tmp.concat(newLocation);
}
} else {
window.parent.location.hash = newLocation;
}
}
]]></script>
    </defs>
    <g fill="rgb(238,238,255)" transform="matrix(0.5933,0,0,0.5933,4.746,259.252)" stroke="rgb(238,238,255)">
      <rect width="165.2568" x="700.72" height="17.9688" y="157.8475" stroke="none"/>
    </g>
    <g fill="rgb(166,166,178)" stroke-miterlimit="1.45" transform="matrix(0.5933,0,0,0.5933,4.746,259.252)" stroke-linecap="butt" stroke="rgb(166,166,178)">
      <rect fill="none" width="165.2568" x="700.72" height="17.9688" y="157.8475"/>
    </g>
    <g fill="rgb(238,238,255)" transform="matrix(0.5933,0,0,0.5933,4.746,259.252)" stroke="rgb(238,238,255)">
      <rect width="166.4445" x="700.72" height="48.746" y="175.8163" stroke="none"/>
    </g>
    <g fill="rgb(166,166,178)" stroke-miterlimit="1.45" transform="matrix(0.5933,0,0,0.5933,4.746,259.252)" stroke-linecap="butt" stroke="rgb(166,166,178)">
      <rect fill="none" width="166.4445" x="700.72" height="48.746" y="175.8163"/>
    </g>
    <g font-family="sans-serif" transform="matrix(0.5933,0,0,0.5933,4.746,259.252)">
      <text xml:space="preserve" x="706.72" y="170.9862" stroke="none">org.apache.http.client</text>
    </g>
    <g fill="rgb(221,221,255)" transform="matrix(0.5933,0,0,0.5933,4.746,259.252)" stroke="rgb(221,221,255)">
      <rect x="708.72" y="183.8475" clip-path="url(#clipPath2)" width="119.4445" height="32.7147" stroke="none"/>
    </g>
    <g fill="rgb(154,154,178)" stroke-miterlimit="1.45" transform="matrix(0.5933,0,0,0.5933,4.746,259.252)" stroke-linecap="butt" stroke="rgb(154,154,178)">
      <ellipse rx="59.7222" fill="none" ry="16.3574" cx="768.4422" cy="200.2049"/>
    </g>
    <g font-style="italic" font-size="13" font-weight="bold" font-family="sans-serif" transform="matrix(0.5933,0,0,0.5933,4.746,259.252)">
      <text xml:space="preserve" x="731.4423" y="204.7054" stroke="none">HttpClient</text>
    </g>
    <g fill="rgb(238,238,255)" transform="matrix(0.5933,0,0,0.5933,4.746,259.252)" stroke="rgb(238,238,255)">
      <rect width="124.9426" x="700.72" height="17.9688" y="61.1328" stroke="none"/>
    </g>
    <g fill="rgb(166,166,178)" stroke-miterlimit="1.45" transform="matrix(0.5933,0,0,0.5933,4.746,259.252)" stroke-linecap="butt" stroke="rgb(166,166,178)">
      <rect fill="none" width="124.9426" x="700.72" height="17.9688" y="61.1328"/>
    </g>
    <g fill="rgb(238,238,255)" transform="matrix(0.5933,0,0,0.5933,4.746,259.252)" stroke="rgb(238,238,255)">
      <rect width="177.687" x="700.72" height="48.746" y="79.1016" stroke="none"/>
    </g>
    <g fill="rgb(166,166,178)" stroke-miterlimit="1.45" transform="matrix(0.5933,0,0,0.5933,4.746,259.252)" stroke-linecap="butt" stroke="rgb(166,166,178)">
      <rect fill="none" width="177.687" x="700.72" height="48.746" y="79.1016"/>
    </g>
    <g font-family="sans-serif" transform="matrix(0.5933,0,0,0.5933,4.746,259.252)">
      <text xml:space="preserve" x="706.72" y="74.2715" stroke="none">org.apache.http</text>
    </g>
    <g fill="rgb(221,221,255)" transform="matrix(0.5933,0,0,0.5933,4.746,259.252)" stroke="rgb(221,221,255)">
      <rect x="708.72" y="87.1328" clip-path="url(#clipPath3)" width="161.687" height="32.7147" stroke="none"/>
    </g>
    <g fill="rgb(154,154,178)" stroke-miterlimit="1.45" transform="matrix(0.5933,0,0,0.5933,4.746,259.252)" stroke-linecap="butt" stroke="rgb(154,154,178)">
      <ellipse rx="80.8435" fill="none" ry="16.3574" cx="789.5635" cy="103.4902"/>
    </g>
    <g font-style="italic" font-size="13" font-weight="bold" font-family="sans-serif" transform="matrix(0.5933,0,0,0.5933,4.746,259.252)">
      <text xml:space="preserve" x="738.0635" y="107.9907" stroke="none">HttpResponse</text>
    </g>
    <g fill="rgb(238,238,255)" transform="matrix(0.5933,0,0,0.5933,4.746,259.252)" stroke="rgb(238,238,255)">
      <rect width="298.9302" x="700.72" height="17.9688" y="-26" stroke="none"/>
    </g>
    <g fill="rgb(166,166,178)" stroke-miterlimit="1.45" transform="matrix(0.5933,0,0,0.5933,4.746,259.252)" stroke-linecap="butt" stroke="rgb(166,166,178)">
      <rect fill="none" width="298.9302" x="700.72" height="17.9688" y="-26"/>
    </g>
    <g fill="rgb(238,238,255)" transform="matrix(0.5933,0,0,0.5933,4.746,259.252)" stroke="rgb(238,238,255)">
      <rect width="299.25" x="700.72" height="39.1641" y="-8.0312" stroke="none"/>
    </g>
    <g fill="rgb(166,166,178)" stroke-miterlimit="1.45" transform="matrix(0.5933,0,0,0.5933,4.746,259.252)" stroke-linecap="butt" stroke="rgb(166,166,178)">
      <rect fill="none" width="299.25" x="700.72" height="39.1641" y="-8.0312"/>
    </g>
    <g font-family="sans-serif" transform="matrix(0.5933,0,0,0.5933,4.746,259.252)">
      <text xml:space="preserve" x="706.72" y="-12.8613" onclick="umlload('../../../../../../../com/msopentech/odatajclient/engine/data/package-summary.html')" stroke="none">com.msopentech.odatajclient.engine.data</text>
    </g>
    <g fill="rgb(187,187,255)" transform="matrix(0.5933,0,0,0.5933,4.746,259.252)" stroke="rgb(187,187,255)">
      <rect x="708.72" y="0" clip-path="url(#clipPath4)" width="180.25" height="23.1328" stroke="none"/>
    </g>
    <g fill="rgb(130,130,178)" stroke-miterlimit="1.45" transform="matrix(0.5933,0,0,0.5933,4.746,259.252)" stroke-linecap="butt" stroke="rgb(130,130,178)">
      <rect fill="none" width="180.25" x="708.72" height="23.1328" y="0"/>
    </g>
    <g font-size="13" font-weight="bold" font-family="sans-serif" transform="matrix(0.5933,0,0,0.5933,4.746,259.252)">
      <text xml:space="preserve" x="715.345" y="16.0669" onclick="umlload('../../../../../../../com/msopentech/odatajclient/engine/data/ODataEntitySetIterator.html')" stroke="none">ODataEntitySetIterator</text>
    </g>
    <g fill="rgb(238,238,255)" transform="matrix(0.5933,0,0,0.5933,4.746,259.252)" stroke="rgb(238,238,255)">
      <rect width="480.3441" x="90.48" height="17.9688" y="-133.1328" stroke="none"/>
    </g>
    <g fill="rgb(166,166,178)" stroke-miterlimit="1.45" transform="matrix(0.5933,0,0,0.5933,4.746,259.252)" stroke-linecap="butt" stroke="rgb(166,166,178)">
      <rect fill="none" width="480.3441" x="90.48" height="17.9688" y="-133.1328"/>
    </g>
    <g fill="rgb(238,238,255)" transform="matrix(0.5933,0,0,0.5933,4.746,259.252)" stroke="rgb(238,238,255)">
      <rect width="480.3441" x="90.48" height="39.1641" y="-115.1641" stroke="none"/>
    </g>
    <g fill="rgb(166,166,178)" stroke-miterlimit="1.45" transform="matrix(0.5933,0,0,0.5933,4.746,259.252)" stroke-linecap="butt" stroke="rgb(166,166,178)">
      <rect fill="none" width="480.3441" x="90.48" height="39.1641" y="-115.1641"/>
    </g>
    <g font-family="sans-serif" transform="matrix(0.5933,0,0,0.5933,4.746,259.252)">
      <text xml:space="preserve" x="96.48" y="-119.9941" onclick="umlload('../../../../../../../com/msopentech/odatajclient/engine/communication/request/retrieve/package-summary.html')" stroke="none">com.msopentech.odatajclient.engine.communication.request.retrieve</text>
    </g>
    <g fill="rgb(204,204,255)" transform="matrix(0.5933,0,0,0.5933,4.746,259.252)" stroke="rgb(204,204,255)">
      <rect x="119.48" y="-107.1328" clip-path="url(#clipPath5)" width="403.76" height="23.1328" stroke="none"/>
    </g>
    <g fill="rgb(142,142,178)" stroke-miterlimit="1.45" transform="matrix(0.5933,0,0,0.5933,4.746,259.252)" stroke-linecap="butt" stroke="rgb(142,142,178)">
      <rect fill="none" width="403.76" x="119.48" height="23.1328" y="-107.1328"/>
    </g>
    <g font-size="13" font-weight="bold" font-family="sans-serif" transform="matrix(0.5933,0,0,0.5933,4.746,259.252)">
      <text xml:space="preserve" x="129.36" y="-91.0659" stroke="none">ODataRetrieveRequest.ODataRetrieveResponseImpl</text>
    </g>
    <g fill="rgb(238,238,255)" transform="matrix(0.5933,0,0,0.5933,4.746,259.252)" stroke="rgb(238,238,255)">
      <rect width="480.3441" x="-8" height="17.9688" y="-26" stroke="none"/>
    </g>
    <g fill="rgb(166,166,178)" stroke-miterlimit="1.45" transform="matrix(0.5933,0,0,0.5933,4.746,259.252)" stroke-linecap="butt" stroke="rgb(166,166,178)">
      <rect fill="none" width="480.3441" x="-8" height="17.9688" y="-26"/>
    </g>
    <g fill="rgb(238,238,255)" transform="matrix(0.5933,0,0,0.5933,4.746,259.252)" stroke="rgb(238,238,255)">
      <rect width="658.72" x="-8" height="240.5935" y="-8.0312" stroke="none"/>
    </g>
    <g fill="rgb(166,166,178)" stroke-miterlimit="1.45" transform="matrix(0.5933,0,0,0.5933,4.746,259.252)" stroke-linecap="butt" stroke="rgb(166,166,178)">
      <rect fill="none" width="658.72" x="-8" height="240.5935" y="-8.0312"/>
    </g>
    <g font-family="sans-serif" transform="matrix(0.5933,0,0,0.5933,4.746,259.252)">
      <text xml:space="preserve" x="-2" y="-12.8613" onclick="umlload('package-summary.html')" stroke="none">com.msopentech.odatajclient.engine.communication.request.retrieve</text>
    </g>
    <g fill="rgb(187,187,255)" transform="matrix(0.5933,0,0,0.5933,4.746,259.252)" stroke="rgb(187,187,255)">
      <rect x="0" y="0" clip-path="url(#clipPath6)" width="642.72" height="26.625" stroke="none"/>
      <line clip-path="url(#clipPath6)" fill="none" x1="0" x2="642.72" y1="26.625" y2="26.625" stroke="black"/>
      <line clip-path="url(#clipPath6)" x1="0" x2="642.72" y1="27.625" y2="27.625" stroke="none"/>
      <line clip-path="url(#clipPath6)" fill="none" x1="0" x2="642.72" y1="27.625" y2="27.625" stroke="black"/>
      <rect x="0" y="28.625" clip-path="url(#clipPath6)" width="642.72" height="195.9373" stroke="none"/>
    </g>
    <g fill="rgb(130,130,178)" stroke-miterlimit="1.45" transform="matrix(0.5933,0,0,0.5933,4.746,259.252)" stroke-linecap="butt" stroke="rgb(130,130,178)">
      <rect fill="none" width="642.72" x="0" height="224.5623" y="0"/>
    </g>
    <g font-size="16" font-weight="bold" font-family="sans-serif" transform="matrix(0.5933,0,0,0.5933,4.746,259.252)">
      <text xml:space="preserve" x="13.36" y="18.8516" onclick="umlload('#')" stroke="none">ODataEntitySetIteratorRequest.ODataEntitySetIteratorResponseImpl</text>
    </g>
    <g font-family="sans-serif" transform="matrix(0.5933,0,0,0.5933,4.746,259.252)">
      <text xml:space="preserve" x="4" y="39.1719" stroke="none">+</text>
      <text xml:space="preserve" x="19" y="40.7637" onclick="umlload('#getBody()')" stroke="none">getBody() : ODataEntitySetIterator</text>
    </g>
    <g font-family="sans-serif" transform="matrix(0.5933,0,0,0.5933,4.746,259.252)">
      <text xml:space="preserve" x="-2" y="257.1543" onclick="umlload('http://www.yworks.com/')" stroke="none">yWorks UML Doclet</text>
    </g>
    <g stroke-miterlimit="1.45" transform="matrix(0.5933,0,0,0.5933,4.746,259.252)" stroke-linecap="butt">
      <path fill="none" d="M321.36 -0.0039 L321.36 -69"/>
      <path fill="white" d="M321.36 -84 L315.36 -68 L327.36 -68 Z" stroke="none"/>
      <path fill="none" d="M321.36 -84 L315.36 -68 L327.36 -68 Z"/>
      <path fill="none" stroke-dasharray="6,2" d="M642.7239 11.5664 L708.72 11.5664"/>
      <line stroke-linecap="square" transform="matrix(1,0,0,1,708.72,11.5664)" fill="none" x1="0" x2="-14" y1="0" y2="-4" stroke-miterlimit="10"/>
      <line stroke-linecap="square" transform="matrix(1,0,0,1,708.72,11.5664)" fill="none" x1="0" x2="-14" y1="0" y2="4" stroke-miterlimit="10"/>
    </g>
    <g stroke-dasharray="6,2" stroke-miterlimit="1.45" transform="matrix(0.5933,0,0,0.5933,4.746,259.252)" stroke-linecap="butt">
      <path fill="none" d="M642.707 103.4902 L708.72 103.4902"/>
      <line stroke-linecap="square" transform="matrix(1,0,0,1,708.72,103.4902)" fill="none" x1="0" x2="-14" y1="0" y2="-4" stroke-dasharray="none" stroke-miterlimit="10"/>
      <line stroke-linecap="square" transform="matrix(1,0,0,1,708.72,103.4902)" fill="none" x1="0" x2="-14" y1="0" y2="4" stroke-dasharray="none" stroke-miterlimit="10"/>
    </g>
    <g stroke-dasharray="6,2" stroke-miterlimit="1.45" transform="matrix(0.5933,0,0,0.5933,4.746,259.252)" stroke-linecap="butt">
      <path fill="none" d="M642.7277 200.2049 L708.72 200.2049"/>
      <line stroke-linecap="square" transform="matrix(1,0,0,1,708.72,200.2049)" fill="none" x1="0" x2="-14" y1="0" y2="-4" stroke-dasharray="none" stroke-miterlimit="10"/>
      <line stroke-linecap="square" transform="matrix(1,0,0,1,708.72,200.2049)" fill="none" x1="0" x2="-14" y1="0" y2="4" stroke-dasharray="none" stroke-miterlimit="10"/>
    </g>
  </g>
</svg>
