<?xml version="1.0" encoding="UTF-8"?><svg xmlns="http://www.w3.org/2000/svg" xmlns:xlink="http://www.w3.org/1999/xlink" fill-opacity="1" color-rendering="auto" color-interpolation="auto" stroke="black" text-rendering="auto" stroke-linecap="square" width="598" stroke-miterlimit="10" stroke-opacity="1" shape-rendering="auto" fill="black" stroke-dasharray="none" font-weight="normal" stroke-width="1" height="598" font-family="'Dialog'" font-style="normal" stroke-linejoin="miter" font-size="12" stroke-dashoffset="0" image-rendering="auto">
  <!--Generated by ySVG-->
  <defs id="genericDefs"/>
  <g>
    <defs id="defs1">
      <clipPath clipPathUnits="userSpaceOnUse" id="clipPath1">
        <path d="M0 0 L598 0 L598 598 L0 598 L0 0 Z"/>
      </clipPath>
      <clipPath clipPathUnits="userSpaceOnUse" id="clipPath2">
        <path d="M768.4245 113.0721 C768.4245 122.106 741.6859 129.4295 708.7022 129.4295 C675.7186 129.4295 648.98 122.106 648.98 113.0721 C648.98 104.0382 675.7186 96.7147 708.7022 96.7147 C741.6859 96.7147 768.4245 104.0382 768.4245 113.0721 Z"/>
      </clipPath>
      <clipPath clipPathUnits="userSpaceOnUse" id="clipPath3">
        <path d="M810.6671 16.3574 C810.6671 25.3913 774.4722 32.7147 729.8235 32.7147 C685.1749 32.7147 648.98 25.3913 648.98 16.3574 C648.98 7.3234 685.1749 0 729.8235 0 C774.4722 0 810.6671 7.3234 810.6671 16.3574 Z"/>
      </clipPath>
      <clipPath clipPathUnits="userSpaceOnUse" id="clipPath4">
        <path d="M-346.34 0 L-185.66 0 L-185.66 23.1328 L-346.34 23.1328 L-346.34 0 Z"/>
      </clipPath>
      <clipPath clipPathUnits="userSpaceOnUse" id="clipPath5">
        <path d="M89.61 -107.1328 L493.37 -107.1328 L493.37 -84 L89.61 -84 L89.61 -107.1328 Z"/>
      </clipPath>
      <clipPath clipPathUnits="userSpaceOnUse" id="clipPath6">
        <path d="M0 0 L582.98 0 L582.98 137.4295 L0 137.4295 L0 0 Z"/>
      </clipPath>
      <script type="text/ecmascript"><![CDATA[
function umlload(newLocation)
{
if (newLocation.charAt(0) != '#') {
if (newLocation.indexOf("://") > -1) {
window.parent.location.href = newLocation;
} else {
var tmp = window.parent.location.href;
tmp = tmp.substring(0, tmp.lastIndexOf("/") + 1);
window.parent.location.href = tmp.concat(newLocation);
}
} else {
window.parent.location.hash = newLocation;
}
}
]]></script>
    </defs>
    <g fill="rgb(238,238,255)" transform="matrix(0.5094,0,0,0.5094,180.8262,286.7751)" stroke="rgb(238,238,255)">
      <rect width="165.2568" x="640.98" height="17.9688" y="70.7147" stroke="none"/>
    </g>
    <g fill="rgb(166,166,178)" stroke-miterlimit="1.45" transform="matrix(0.5094,0,0,0.5094,180.8262,286.7751)" stroke-linecap="butt" stroke="rgb(166,166,178)">
      <rect fill="none" width="165.2568" x="640.98" height="17.9688" y="70.7147"/>
    </g>
    <g fill="rgb(238,238,255)" transform="matrix(0.5094,0,0,0.5094,180.8262,286.7751)" stroke="rgb(238,238,255)">
      <rect width="166.4445" x="640.98" height="48.746" y="88.6835" stroke="none"/>
    </g>
    <g fill="rgb(166,166,178)" stroke-miterlimit="1.45" transform="matrix(0.5094,0,0,0.5094,180.8262,286.7751)" stroke-linecap="butt" stroke="rgb(166,166,178)">
      <rect fill="none" width="166.4445" x="640.98" height="48.746" y="88.6835"/>
    </g>
    <g font-family="sans-serif" transform="matrix(0.5094,0,0,0.5094,180.8262,286.7751)">
      <text xml:space="preserve" x="646.98" y="83.8534" stroke="none">org.apache.http.client</text>
    </g>
    <g fill="rgb(221,221,255)" transform="matrix(0.5094,0,0,0.5094,180.8262,286.7751)" stroke="rgb(221,221,255)">
      <rect x="648.98" y="96.7147" clip-path="url(#clipPath2)" width="119.4445" height="32.7147" stroke="none"/>
    </g>
    <g fill="rgb(154,154,178)" stroke-miterlimit="1.45" transform="matrix(0.5094,0,0,0.5094,180.8262,286.7751)" stroke-linecap="butt" stroke="rgb(154,154,178)">
      <ellipse rx="59.7222" fill="none" ry="16.3574" cx="708.7022" cy="113.0721"/>
    </g>
    <g font-style="italic" font-size="13" font-weight="bold" font-family="sans-serif" transform="matrix(0.5094,0,0,0.5094,180.8262,286.7751)">
      <text xml:space="preserve" x="671.7022" y="117.5726" stroke="none">HttpClient</text>
    </g>
    <g fill="rgb(238,238,255)" transform="matrix(0.5094,0,0,0.5094,180.8262,286.7751)" stroke="rgb(238,238,255)">
      <rect width="124.9426" x="640.98" height="17.9688" y="-26" stroke="none"/>
    </g>
    <g fill="rgb(166,166,178)" stroke-miterlimit="1.45" transform="matrix(0.5094,0,0,0.5094,180.8262,286.7751)" stroke-linecap="butt" stroke="rgb(166,166,178)">
      <rect fill="none" width="124.9426" x="640.98" height="17.9688" y="-26"/>
    </g>
    <g fill="rgb(238,238,255)" transform="matrix(0.5094,0,0,0.5094,180.8262,286.7751)" stroke="rgb(238,238,255)">
      <rect width="177.687" x="640.98" height="48.746" y="-8.0312" stroke="none"/>
    </g>
    <g fill="rgb(166,166,178)" stroke-miterlimit="1.45" transform="matrix(0.5094,0,0,0.5094,180.8262,286.7751)" stroke-linecap="butt" stroke="rgb(166,166,178)">
      <rect fill="none" width="177.687" x="640.98" height="48.746" y="-8.0312"/>
    </g>
    <g font-family="sans-serif" transform="matrix(0.5094,0,0,0.5094,180.8262,286.7751)">
      <text xml:space="preserve" x="646.98" y="-12.8613" stroke="none">org.apache.http</text>
    </g>
    <g fill="rgb(221,221,255)" transform="matrix(0.5094,0,0,0.5094,180.8262,286.7751)" stroke="rgb(221,221,255)">
      <rect x="648.98" y="0" clip-path="url(#clipPath3)" width="161.687" height="32.7147" stroke="none"/>
    </g>
    <g fill="rgb(154,154,178)" stroke-miterlimit="1.45" transform="matrix(0.5094,0,0,0.5094,180.8262,286.7751)" stroke-linecap="butt" stroke="rgb(154,154,178)">
      <ellipse rx="80.8435" fill="none" ry="16.3574" cx="729.8235" cy="16.3574"/>
    </g>
    <g font-style="italic" font-size="13" font-weight="bold" font-family="sans-serif" transform="matrix(0.5094,0,0,0.5094,180.8262,286.7751)">
      <text xml:space="preserve" x="678.3235" y="20.8579" stroke="none">HttpResponse</text>
    </g>
    <g fill="rgb(238,238,255)" transform="matrix(0.5094,0,0,0.5094,180.8262,286.7751)" stroke="rgb(238,238,255)">
      <rect width="298.9302" x="-354.34" height="17.9688" y="-26" stroke="none"/>
    </g>
    <g fill="rgb(166,166,178)" stroke-miterlimit="1.45" transform="matrix(0.5094,0,0,0.5094,180.8262,286.7751)" stroke-linecap="butt" stroke="rgb(166,166,178)">
      <rect fill="none" width="298.9302" x="-354.34" height="17.9688" y="-26"/>
    </g>
    <g fill="rgb(238,238,255)" transform="matrix(0.5094,0,0,0.5094,180.8262,286.7751)" stroke="rgb(238,238,255)">
      <rect width="298.9302" x="-354.34" height="39.1641" y="-8.0312" stroke="none"/>
    </g>
    <g fill="rgb(166,166,178)" stroke-miterlimit="1.45" transform="matrix(0.5094,0,0,0.5094,180.8262,286.7751)" stroke-linecap="butt" stroke="rgb(166,166,178)">
      <rect fill="none" width="298.9302" x="-354.34" height="39.1641" y="-8.0312"/>
    </g>
    <g font-family="sans-serif" transform="matrix(0.5094,0,0,0.5094,180.8262,286.7751)">
      <text xml:space="preserve" x="-348.34" y="-12.8613" onclick="umlload('../../../../../../../com/msopentech/odatajclient/engine/data/package-summary.html')" stroke="none">com.msopentech.odatajclient.engine.data</text>
    </g>
    <g fill="rgb(187,187,255)" transform="matrix(0.5094,0,0,0.5094,180.8262,286.7751)" stroke="rgb(187,187,255)">
      <rect x="-346.34" y="0" clip-path="url(#clipPath4)" width="160.68" height="23.1328" stroke="none"/>
    </g>
    <g fill="rgb(130,130,178)" stroke-miterlimit="1.45" transform="matrix(0.5094,0,0,0.5094,180.8262,286.7751)" stroke-linecap="butt" stroke="rgb(130,130,178)">
      <rect fill="none" width="160.68" x="-346.34" height="23.1328" y="0"/>
    </g>
    <g font-size="13" font-weight="bold" font-family="sans-serif" transform="matrix(0.5094,0,0,0.5094,180.8262,286.7751)">
      <text xml:space="preserve" x="-340" y="16.0669" onclick="umlload('../../../../../../../com/msopentech/odatajclient/engine/data/ODataLinkCollection.html')" stroke="none">ODataLinkCollection</text>
    </g>
    <g fill="rgb(238,238,255)" transform="matrix(0.5094,0,0,0.5094,180.8262,286.7751)" stroke="rgb(238,238,255)">
      <rect width="480.3441" x="60.61" height="17.9688" y="-133.1328" stroke="none"/>
    </g>
    <g fill="rgb(166,166,178)" stroke-miterlimit="1.45" transform="matrix(0.5094,0,0,0.5094,180.8262,286.7751)" stroke-linecap="butt" stroke="rgb(166,166,178)">
      <rect fill="none" width="480.3441" x="60.61" height="17.9688" y="-133.1328"/>
    </g>
    <g fill="rgb(238,238,255)" transform="matrix(0.5094,0,0,0.5094,180.8262,286.7751)" stroke="rgb(238,238,255)">
      <rect width="480.3441" x="60.61" height="39.1641" y="-115.1641" stroke="none"/>
    </g>
    <g fill="rgb(166,166,178)" stroke-miterlimit="1.45" transform="matrix(0.5094,0,0,0.5094,180.8262,286.7751)" stroke-linecap="butt" stroke="rgb(166,166,178)">
      <rect fill="none" width="480.3441" x="60.61" height="39.1641" y="-115.1641"/>
    </g>
    <g font-family="sans-serif" transform="matrix(0.5094,0,0,0.5094,180.8262,286.7751)">
      <text xml:space="preserve" x="66.61" y="-119.9941" onclick="umlload('../../../../../../../com/msopentech/odatajclient/engine/communication/request/retrieve/package-summary.html')" stroke="none">com.msopentech.odatajclient.engine.communication.request.retrieve</text>
    </g>
    <g fill="rgb(204,204,255)" transform="matrix(0.5094,0,0,0.5094,180.8262,286.7751)" stroke="rgb(204,204,255)">
      <rect x="89.61" y="-107.1328" clip-path="url(#clipPath5)" width="403.76" height="23.1328" stroke="none"/>
    </g>
    <g fill="rgb(142,142,178)" stroke-miterlimit="1.45" transform="matrix(0.5094,0,0,0.5094,180.8262,286.7751)" stroke-linecap="butt" stroke="rgb(142,142,178)">
      <rect fill="none" width="403.76" x="89.61" height="23.1328" y="-107.1328"/>
    </g>
    <g font-size="13" font-weight="bold" font-family="sans-serif" transform="matrix(0.5094,0,0,0.5094,180.8262,286.7751)">
      <text xml:space="preserve" x="99.49" y="-91.0659" stroke="none">ODataRetrieveRequest.ODataRetrieveResponseImpl</text>
    </g>
    <g fill="rgb(238,238,255)" transform="matrix(0.5094,0,0,0.5094,180.8262,286.7751)" stroke="rgb(238,238,255)">
      <rect width="480.3441" x="-8" height="17.9688" y="-26" stroke="none"/>
    </g>
    <g fill="rgb(166,166,178)" stroke-miterlimit="1.45" transform="matrix(0.5094,0,0,0.5094,180.8262,286.7751)" stroke-linecap="butt" stroke="rgb(166,166,178)">
      <rect fill="none" width="480.3441" x="-8" height="17.9688" y="-26"/>
    </g>
    <g fill="rgb(238,238,255)" transform="matrix(0.5094,0,0,0.5094,180.8262,286.7751)" stroke="rgb(238,238,255)">
      <rect width="598.98" x="-8" height="153.4607" y="-8.0312" stroke="none"/>
    </g>
    <g fill="rgb(166,166,178)" stroke-miterlimit="1.45" transform="matrix(0.5094,0,0,0.5094,180.8262,286.7751)" stroke-linecap="butt" stroke="rgb(166,166,178)">
      <rect fill="none" width="598.98" x="-8" height="153.4607" y="-8.0312"/>
    </g>
    <g font-family="sans-serif" transform="matrix(0.5094,0,0,0.5094,180.8262,286.7751)">
      <text xml:space="preserve" x="-2" y="-12.8613" onclick="umlload('package-summary.html')" stroke="none">com.msopentech.odatajclient.engine.communication.request.retrieve</text>
    </g>
    <g fill="rgb(187,187,255)" transform="matrix(0.5094,0,0,0.5094,180.8262,286.7751)" stroke="rgb(187,187,255)">
      <rect x="0" y="0" clip-path="url(#clipPath6)" width="582.98" height="26.625" stroke="none"/>
      <line clip-path="url(#clipPath6)" fill="none" x1="0" x2="582.98" y1="26.625" y2="26.625" stroke="black"/>
      <line clip-path="url(#clipPath6)" x1="0" x2="582.98" y1="27.625" y2="27.625" stroke="none"/>
      <line clip-path="url(#clipPath6)" fill="none" x1="0" x2="582.98" y1="27.625" y2="27.625" stroke="black"/>
      <rect x="0" y="28.625" clip-path="url(#clipPath6)" width="582.98" height="108.8045" stroke="none"/>
    </g>
    <g fill="rgb(130,130,178)" stroke-miterlimit="1.45" transform="matrix(0.5094,0,0,0.5094,180.8262,286.7751)" stroke-linecap="butt" stroke="rgb(130,130,178)">
      <rect fill="none" width="582.98" x="0" height="137.4295" y="0"/>
    </g>
    <g font-size="16" font-weight="bold" font-family="sans-serif" transform="matrix(0.5094,0,0,0.5094,180.8262,286.7751)">
      <text xml:space="preserve" x="12.49" y="18.8516" onclick="umlload('#')" stroke="none">ODataLinkCollectionRequest.ODataLinkCollectionResponseImpl</text>
    </g>
    <g font-family="sans-serif" transform="matrix(0.5094,0,0,0.5094,180.8262,286.7751)">
      <text xml:space="preserve" x="4" y="39.1719" stroke="none">+</text>
      <text xml:space="preserve" x="19" y="40.7637" onclick="umlload('#getBody()')" stroke="none">getBody() : ODataLinkCollection</text>
    </g>
    <g font-family="sans-serif" transform="matrix(0.5094,0,0,0.5094,180.8262,286.7751)">
      <text xml:space="preserve" x="-349" y="170.1543" onclick="umlload('http://www.yworks.com/')" stroke="none">yWorks UML Doclet</text>
    </g>
    <g stroke-miterlimit="1.45" transform="matrix(0.5094,0,0,0.5094,180.8262,286.7751)" stroke-linecap="butt">
      <path fill="none" d="M291.49 -0.0039 L291.49 -69"/>
      <path fill="white" d="M291.49 -84 L285.49 -68 L297.49 -68 Z" stroke="none"/>
      <path fill="none" d="M291.49 -84 L285.49 -68 L297.49 -68 Z"/>
      <path fill="none" d="M-0.0149 11.5664 L-185.66 11.5664"/>
      <line stroke-linecap="square" transform="matrix(-1,0,0,-1,-185.66,11.5664)" fill="none" x1="0" x2="-14" y1="0" y2="-4" stroke-miterlimit="10"/>
      <line stroke-linecap="square" transform="matrix(-1,0,0,-1,-185.66,11.5664)" fill="none" x1="0" x2="-14" y1="0" y2="4" stroke-miterlimit="10"/>
    </g>
    <g stroke-dasharray="6,2" stroke-miterlimit="1.45" transform="matrix(0.5094,0,0,0.5094,180.8262,286.7751)" stroke-linecap="butt">
      <path fill="none" d="M582.9722 16.3574 L648.98 16.3574"/>
      <line stroke-linecap="square" transform="matrix(1,0,0,1,648.98,16.3574)" fill="none" x1="0" x2="-14" y1="0" y2="-4" stroke-dasharray="none" stroke-miterlimit="10"/>
      <line stroke-linecap="square" transform="matrix(1,0,0,1,648.98,16.3574)" fill="none" x1="0" x2="-14" y1="0" y2="4" stroke-dasharray="none" stroke-miterlimit="10"/>
    </g>
    <g stroke-dasharray="6,2" stroke-miterlimit="1.45" transform="matrix(0.5094,0,0,0.5094,180.8262,286.7751)" stroke-linecap="butt">
      <path fill="none" d="M582.9835 113.0721 L648.98 113.0721"/>
      <line stroke-linecap="square" transform="matrix(1,0,0,1,648.98,113.0721)" fill="none" x1="0" x2="-14" y1="0" y2="-4" stroke-dasharray="none" stroke-miterlimit="10"/>
      <line stroke-linecap="square" transform="matrix(1,0,0,1,648.98,113.0721)" fill="none" x1="0" x2="-14" y1="0" y2="4" stroke-dasharray="none" stroke-miterlimit="10"/>
    </g>
  </g>
</svg>
