<?xml version="1.0" encoding="UTF-8"?><svg xmlns="http://www.w3.org/2000/svg" xmlns:xlink="http://www.w3.org/1999/xlink" fill-opacity="1" color-rendering="auto" color-interpolation="auto" stroke="black" text-rendering="auto" stroke-linecap="square" width="598" stroke-miterlimit="10" stroke-opacity="1" shape-rendering="auto" fill="black" stroke-dasharray="none" font-weight="normal" stroke-width="1" height="598" font-family="'Dialog'" font-style="normal" stroke-linejoin="miter" font-size="12" stroke-dashoffset="0" image-rendering="auto">
  <!--Generated by ySVG-->
  <defs id="genericDefs"/>
  <g>
    <defs id="defs1">
      <clipPath clipPathUnits="userSpaceOnUse" id="clipPath1">
        <path d="M0 0 L598 0 L598 598 L0 598 L0 0 Z"/>
      </clipPath>
      <clipPath clipPathUnits="userSpaceOnUse" id="clipPath2">
        <path d="M678.8145 113.0721 C678.8145 122.106 652.0759 129.4295 619.0922 129.4295 C586.1086 129.4295 559.37 122.106 559.37 113.0721 C559.37 104.0382 586.1086 96.7147 619.0922 96.7147 C652.0759 96.7147 678.8145 104.0382 678.8145 113.0721 Z"/>
      </clipPath>
      <clipPath clipPathUnits="userSpaceOnUse" id="clipPath3">
        <path d="M721.057 16.3574 C721.057 25.3913 684.8622 32.7147 640.2135 32.7147 C595.5649 32.7147 559.37 25.3913 559.37 16.3574 C559.37 7.3234 595.5649 0 640.2135 0 C684.8622 0 721.057 7.3234 721.057 16.3574 Z"/>
      </clipPath>
      <clipPath clipPathUnits="userSpaceOnUse" id="clipPath4">
        <path d="M-413.29 0 L-297.93 0 L-297.93 23.1328 L-413.29 23.1328 L-413.29 0 Z"/>
      </clipPath>
      <clipPath clipPathUnits="userSpaceOnUse" id="clipPath5">
        <path d="M44.805 -107.1328 L448.565 -107.1328 L448.565 -84 L44.805 -84 L44.805 -107.1328 Z"/>
      </clipPath>
      <clipPath clipPathUnits="userSpaceOnUse" id="clipPath6">
        <path d="M0 0 L493.37 0 L493.37 137.4295 L0 137.4295 L0 0 Z"/>
      </clipPath>
      <script type="text/ecmascript"><![CDATA[
function umlload(newLocation)
{
if (newLocation.charAt(0) != '#') {
if (newLocation.indexOf("://") > -1) {
window.parent.location.href = newLocation;
} else {
var tmp = window.parent.location.href;
tmp = tmp.substring(0, tmp.lastIndexOf("/") + 1);
window.parent.location.href = tmp.concat(newLocation);
}
} else {
window.parent.location.hash = newLocation;
}
}
]]></script>
    </defs>
    <g fill="rgb(238,238,255)" transform="matrix(0.5191,0,0,0.5191,219.059,286.5417)" stroke="rgb(238,238,255)">
      <rect width="165.2568" x="551.37" height="17.9688" y="70.7147" stroke="none"/>
    </g>
    <g fill="rgb(166,166,178)" stroke-miterlimit="1.45" transform="matrix(0.5191,0,0,0.5191,219.059,286.5417)" stroke-linecap="butt" stroke="rgb(166,166,178)">
      <rect fill="none" width="165.2568" x="551.37" height="17.9688" y="70.7147"/>
    </g>
    <g fill="rgb(238,238,255)" transform="matrix(0.5191,0,0,0.5191,219.059,286.5417)" stroke="rgb(238,238,255)">
      <rect width="166.4445" x="551.37" height="48.746" y="88.6835" stroke="none"/>
    </g>
    <g fill="rgb(166,166,178)" stroke-miterlimit="1.45" transform="matrix(0.5191,0,0,0.5191,219.059,286.5417)" stroke-linecap="butt" stroke="rgb(166,166,178)">
      <rect fill="none" width="166.4445" x="551.37" height="48.746" y="88.6835"/>
    </g>
    <g font-family="sans-serif" transform="matrix(0.5191,0,0,0.5191,219.059,286.5417)">
      <text xml:space="preserve" x="557.37" y="83.8534" stroke="none">org.apache.http.client</text>
    </g>
    <g fill="rgb(221,221,255)" transform="matrix(0.5191,0,0,0.5191,219.059,286.5417)" stroke="rgb(221,221,255)">
      <rect x="559.37" y="96.7147" clip-path="url(#clipPath2)" width="119.4445" height="32.7147" stroke="none"/>
    </g>
    <g fill="rgb(154,154,178)" stroke-miterlimit="1.45" transform="matrix(0.5191,0,0,0.5191,219.059,286.5417)" stroke-linecap="butt" stroke="rgb(154,154,178)">
      <ellipse rx="59.7222" fill="none" ry="16.3574" cx="619.0922" cy="113.0721"/>
    </g>
    <g font-style="italic" font-size="13" font-weight="bold" font-family="sans-serif" transform="matrix(0.5191,0,0,0.5191,219.059,286.5417)">
      <text xml:space="preserve" x="582.0922" y="117.5726" stroke="none">HttpClient</text>
    </g>
    <g fill="rgb(238,238,255)" transform="matrix(0.5191,0,0,0.5191,219.059,286.5417)" stroke="rgb(238,238,255)">
      <rect width="124.9426" x="551.37" height="17.9688" y="-26" stroke="none"/>
    </g>
    <g fill="rgb(166,166,178)" stroke-miterlimit="1.45" transform="matrix(0.5191,0,0,0.5191,219.059,286.5417)" stroke-linecap="butt" stroke="rgb(166,166,178)">
      <rect fill="none" width="124.9426" x="551.37" height="17.9688" y="-26"/>
    </g>
    <g fill="rgb(238,238,255)" transform="matrix(0.5191,0,0,0.5191,219.059,286.5417)" stroke="rgb(238,238,255)">
      <rect width="177.687" x="551.37" height="48.746" y="-8.0312" stroke="none"/>
    </g>
    <g fill="rgb(166,166,178)" stroke-miterlimit="1.45" transform="matrix(0.5191,0,0,0.5191,219.059,286.5417)" stroke-linecap="butt" stroke="rgb(166,166,178)">
      <rect fill="none" width="177.687" x="551.37" height="48.746" y="-8.0312"/>
    </g>
    <g font-family="sans-serif" transform="matrix(0.5191,0,0,0.5191,219.059,286.5417)">
      <text xml:space="preserve" x="557.37" y="-12.8613" stroke="none">org.apache.http</text>
    </g>
    <g fill="rgb(221,221,255)" transform="matrix(0.5191,0,0,0.5191,219.059,286.5417)" stroke="rgb(221,221,255)">
      <rect x="559.37" y="0" clip-path="url(#clipPath3)" width="161.687" height="32.7147" stroke="none"/>
    </g>
    <g fill="rgb(154,154,178)" stroke-miterlimit="1.45" transform="matrix(0.5191,0,0,0.5191,219.059,286.5417)" stroke-linecap="butt" stroke="rgb(154,154,178)">
      <ellipse rx="80.8435" fill="none" ry="16.3574" cx="640.2135" cy="16.3574"/>
    </g>
    <g font-style="italic" font-size="13" font-weight="bold" font-family="sans-serif" transform="matrix(0.5191,0,0,0.5191,219.059,286.5417)">
      <text xml:space="preserve" x="588.7135" y="20.8579" stroke="none">HttpResponse</text>
    </g>
    <g fill="rgb(238,238,255)" transform="matrix(0.5191,0,0,0.5191,219.059,286.5417)" stroke="rgb(238,238,255)">
      <rect width="367.8887" x="-421.29" height="17.9688" y="-26" stroke="none"/>
    </g>
    <g fill="rgb(166,166,178)" stroke-miterlimit="1.45" transform="matrix(0.5191,0,0,0.5191,219.059,286.5417)" stroke-linecap="butt" stroke="rgb(166,166,178)">
      <rect fill="none" width="367.8887" x="-421.29" height="17.9688" y="-26"/>
    </g>
    <g fill="rgb(238,238,255)" transform="matrix(0.5191,0,0,0.5191,219.059,286.5417)" stroke="rgb(238,238,255)">
      <rect width="368.36" x="-421.29" height="39.1641" y="-8.0312" stroke="none"/>
    </g>
    <g fill="rgb(166,166,178)" stroke-miterlimit="1.45" transform="matrix(0.5191,0,0,0.5191,219.059,286.5417)" stroke-linecap="butt" stroke="rgb(166,166,178)">
      <rect fill="none" width="368.36" x="-421.29" height="39.1641" y="-8.0312"/>
    </g>
    <g font-family="sans-serif" transform="matrix(0.5191,0,0,0.5191,219.059,286.5417)">
      <text xml:space="preserve" x="-415.29" y="-12.8613" onclick="umlload('../../../../../../../com/msopentech/odatajclient/engine/data/metadata/package-summary.html')" stroke="none">com.msopentech.odatajclient.engine.data.metadata</text>
    </g>
    <g fill="rgb(187,187,255)" transform="matrix(0.5191,0,0,0.5191,219.059,286.5417)" stroke="rgb(187,187,255)">
      <rect x="-413.29" y="0" clip-path="url(#clipPath4)" width="115.36" height="23.1328" stroke="none"/>
    </g>
    <g fill="rgb(130,130,178)" stroke-miterlimit="1.45" transform="matrix(0.5191,0,0,0.5191,219.059,286.5417)" stroke-linecap="butt" stroke="rgb(130,130,178)">
      <rect fill="none" width="115.36" x="-413.29" height="23.1328" y="0"/>
    </g>
    <g font-size="13" font-weight="bold" font-family="sans-serif" transform="matrix(0.5191,0,0,0.5191,219.059,286.5417)">
      <text xml:space="preserve" x="-407.61" y="16.0669" onclick="umlload('../../../../../../../com/msopentech/odatajclient/engine/data/metadata/EdmMetadata.html')" stroke="none">EdmMetadata</text>
    </g>
    <g fill="rgb(238,238,255)" transform="matrix(0.5191,0,0,0.5191,219.059,286.5417)" stroke="rgb(238,238,255)">
      <rect width="480.3441" x="15.805" height="17.9688" y="-133.1328" stroke="none"/>
    </g>
    <g fill="rgb(166,166,178)" stroke-miterlimit="1.45" transform="matrix(0.5191,0,0,0.5191,219.059,286.5417)" stroke-linecap="butt" stroke="rgb(166,166,178)">
      <rect fill="none" width="480.3441" x="15.805" height="17.9688" y="-133.1328"/>
    </g>
    <g fill="rgb(238,238,255)" transform="matrix(0.5191,0,0,0.5191,219.059,286.5417)" stroke="rgb(238,238,255)">
      <rect width="480.3441" x="15.805" height="39.1641" y="-115.1641" stroke="none"/>
    </g>
    <g fill="rgb(166,166,178)" stroke-miterlimit="1.45" transform="matrix(0.5191,0,0,0.5191,219.059,286.5417)" stroke-linecap="butt" stroke="rgb(166,166,178)">
      <rect fill="none" width="480.3441" x="15.805" height="39.1641" y="-115.1641"/>
    </g>
    <g font-family="sans-serif" transform="matrix(0.5191,0,0,0.5191,219.059,286.5417)">
      <text xml:space="preserve" x="21.805" y="-119.9941" onclick="umlload('../../../../../../../com/msopentech/odatajclient/engine/communication/request/retrieve/package-summary.html')" stroke="none">com.msopentech.odatajclient.engine.communication.request.retrieve</text>
    </g>
    <g fill="rgb(204,204,255)" transform="matrix(0.5191,0,0,0.5191,219.059,286.5417)" stroke="rgb(204,204,255)">
      <rect x="44.805" y="-107.1328" clip-path="url(#clipPath5)" width="403.76" height="23.1328" stroke="none"/>
    </g>
    <g fill="rgb(142,142,178)" stroke-miterlimit="1.45" transform="matrix(0.5191,0,0,0.5191,219.059,286.5417)" stroke-linecap="butt" stroke="rgb(142,142,178)">
      <rect fill="none" width="403.76" x="44.805" height="23.1328" y="-107.1328"/>
    </g>
    <g font-size="13" font-weight="bold" font-family="sans-serif" transform="matrix(0.5191,0,0,0.5191,219.059,286.5417)">
      <text xml:space="preserve" x="54.685" y="-91.0659" stroke="none">ODataRetrieveRequest.ODataRetrieveResponseImpl</text>
    </g>
    <g fill="rgb(238,238,255)" transform="matrix(0.5191,0,0,0.5191,219.059,286.5417)" stroke="rgb(238,238,255)">
      <rect width="480.3441" x="-8" height="17.9688" y="-26" stroke="none"/>
    </g>
    <g fill="rgb(166,166,178)" stroke-miterlimit="1.45" transform="matrix(0.5191,0,0,0.5191,219.059,286.5417)" stroke-linecap="butt" stroke="rgb(166,166,178)">
      <rect fill="none" width="480.3441" x="-8" height="17.9688" y="-26"/>
    </g>
    <g fill="rgb(238,238,255)" transform="matrix(0.5191,0,0,0.5191,219.059,286.5417)" stroke="rgb(238,238,255)">
      <rect width="509.37" x="-8" height="153.4607" y="-8.0312" stroke="none"/>
    </g>
    <g fill="rgb(166,166,178)" stroke-miterlimit="1.45" transform="matrix(0.5191,0,0,0.5191,219.059,286.5417)" stroke-linecap="butt" stroke="rgb(166,166,178)">
      <rect fill="none" width="509.37" x="-8" height="153.4607" y="-8.0312"/>
    </g>
    <g font-family="sans-serif" transform="matrix(0.5191,0,0,0.5191,219.059,286.5417)">
      <text xml:space="preserve" x="-2" y="-12.8613" onclick="umlload('package-summary.html')" stroke="none">com.msopentech.odatajclient.engine.communication.request.retrieve</text>
    </g>
    <g fill="rgb(187,187,255)" transform="matrix(0.5191,0,0,0.5191,219.059,286.5417)" stroke="rgb(187,187,255)">
      <rect x="0" y="0" clip-path="url(#clipPath6)" width="493.37" height="26.625" stroke="none"/>
      <line clip-path="url(#clipPath6)" fill="none" x1="0" x2="493.37" y1="26.625" y2="26.625" stroke="black"/>
      <rect x="0" y="27.625" clip-path="url(#clipPath6)" width="493.37" height="15.9688" stroke="none"/>
      <line clip-path="url(#clipPath6)" fill="none" x1="0" x2="493.37" y1="43.5938" y2="43.5938" stroke="black"/>
      <rect x="0" y="44.5938" clip-path="url(#clipPath6)" width="493.37" height="92.8357" stroke="none"/>
    </g>
    <g fill="rgb(130,130,178)" stroke-miterlimit="1.45" transform="matrix(0.5191,0,0,0.5191,219.059,286.5417)" stroke-linecap="butt" stroke="rgb(130,130,178)">
      <rect fill="none" width="493.37" x="0" height="137.4295" y="0"/>
    </g>
    <g font-size="16" font-weight="bold" font-family="sans-serif" transform="matrix(0.5191,0,0,0.5191,219.059,286.5417)">
      <text xml:space="preserve" x="11.185" y="18.8516" onclick="umlload('#')" stroke="none">ODataMetadataRequest.ODataMetadataResponsImpl</text>
    </g>
    <g font-family="sans-serif" transform="matrix(0.5191,0,0,0.5191,219.059,286.5417)">
      <text xml:space="preserve" x="4" y="38.1719" stroke="none">+</text>
      <text xml:space="preserve" x="19" y="39.7637" onclick="umlload('#ODataMetadataRequest.ODataMetadataResponsImpl()')" stroke="none">ODataMetadataRequest.ODataMetadataResponsImpl()</text>
    </g>
    <g font-family="sans-serif" transform="matrix(0.5191,0,0,0.5191,219.059,286.5417)">
      <text xml:space="preserve" x="4" y="55.1719" stroke="none">+</text>
      <text xml:space="preserve" x="19" y="56.7324" onclick="umlload('#getBody()')" stroke="none">getBody() : EdmMetadata</text>
    </g>
    <g font-family="sans-serif" transform="matrix(0.5191,0,0,0.5191,219.059,286.5417)">
      <text xml:space="preserve" x="-416" y="170.1543" onclick="umlload('http://www.yworks.com/')" stroke="none">yWorks UML Doclet</text>
    </g>
    <g stroke-miterlimit="1.45" transform="matrix(0.5191,0,0,0.5191,219.059,286.5417)" stroke-linecap="butt">
      <path fill="none" d="M246.685 0.0176 L246.685 -69"/>
      <path fill="white" d="M246.685 -84 L240.685 -68 L252.685 -68 Z" stroke="none"/>
      <path fill="none" d="M246.685 -84 L240.685 -68 L252.685 -68 Z"/>
      <path fill="none" d="M-0.0192 11.5664 L-297.93 11.5664"/>
      <line stroke-linecap="square" transform="matrix(-1,0,0,-1,-297.93,11.5664)" fill="none" x1="0" x2="-14" y1="0" y2="-4" stroke-miterlimit="10"/>
      <line stroke-linecap="square" transform="matrix(-1,0,0,-1,-297.93,11.5664)" fill="none" x1="0" x2="-14" y1="0" y2="4" stroke-miterlimit="10"/>
    </g>
    <g stroke-dasharray="6,2" stroke-miterlimit="1.45" transform="matrix(0.5191,0,0,0.5191,219.059,286.5417)" stroke-linecap="butt">
      <path fill="none" d="M493.3609 16.3574 L559.37 16.3574"/>
      <line stroke-linecap="square" transform="matrix(1,0,0,1,559.37,16.3574)" fill="none" x1="0" x2="-14" y1="0" y2="-4" stroke-dasharray="none" stroke-miterlimit="10"/>
      <line stroke-linecap="square" transform="matrix(1,0,0,1,559.37,16.3574)" fill="none" x1="0" x2="-14" y1="0" y2="4" stroke-dasharray="none" stroke-miterlimit="10"/>
    </g>
    <g stroke-dasharray="6,2" stroke-miterlimit="1.45" transform="matrix(0.5191,0,0,0.5191,219.059,286.5417)" stroke-linecap="butt">
      <path fill="none" d="M493.3957 113.0721 L559.37 113.0721"/>
      <line stroke-linecap="square" transform="matrix(1,0,0,1,559.37,113.0721)" fill="none" x1="0" x2="-14" y1="0" y2="-4" stroke-dasharray="none" stroke-miterlimit="10"/>
      <line stroke-linecap="square" transform="matrix(1,0,0,1,559.37,113.0721)" fill="none" x1="0" x2="-14" y1="0" y2="4" stroke-dasharray="none" stroke-miterlimit="10"/>
    </g>
  </g>
</svg>
