<?xml version="1.0" encoding="UTF-8"?><svg xmlns="http://www.w3.org/2000/svg" xmlns:xlink="http://www.w3.org/1999/xlink" fill-opacity="1" color-rendering="auto" color-interpolation="auto" stroke="black" text-rendering="auto" stroke-linecap="square" width="598" stroke-miterlimit="10" stroke-opacity="1" shape-rendering="auto" fill="black" stroke-dasharray="none" font-weight="normal" stroke-width="1" height="598" font-family="'Dialog'" font-style="normal" stroke-linejoin="miter" font-size="12" stroke-dashoffset="0" image-rendering="auto">
  <!--Generated by ySVG-->
  <defs id="genericDefs"/>
  <g>
    <defs id="defs1">
      <clipPath clipPathUnits="userSpaceOnUse" id="clipPath1">
        <path d="M0 0 L598 0 L598 598 L0 598 L0 0 Z"/>
      </clipPath>
      <clipPath clipPathUnits="userSpaceOnUse" id="clipPath2">
        <path d="M291.96 26 L453.67 26 L453.67 49.1328 L291.96 49.1328 L291.96 26 Z"/>
      </clipPath>
      <clipPath clipPathUnits="userSpaceOnUse" id="clipPath3">
        <path d="M498.67 26 L863.29 26 L863.29 49.1328 L498.67 49.1328 L498.67 26 Z"/>
      </clipPath>
      <clipPath clipPathUnits="userSpaceOnUse" id="clipPath4">
        <path d="M8 167.2656 L251.08 167.2656 L251.08 190.3984 L8 190.3984 L8 167.2656 Z"/>
      </clipPath>
      <clipPath clipPathUnits="userSpaceOnUse" id="clipPath5">
        <path d="M296.08 167.2656 L823.44 167.2656 L823.44 190.3984 L296.08 190.3984 L296.08 167.2656 Z"/>
      </clipPath>
      <clipPath clipPathUnits="userSpaceOnUse" id="clipPath6">
        <path d="M8 235.3984 L194.43 235.3984 L194.43 258.5312 L8 258.5312 L8 235.3984 Z"/>
      </clipPath>
      <clipPath clipPathUnits="userSpaceOnUse" id="clipPath7">
        <path d="M239.43 235.3984 L653.49 235.3984 L653.49 258.5312 L239.43 258.5312 L239.43 235.3984 Z"/>
      </clipPath>
      <clipPath clipPathUnits="userSpaceOnUse" id="clipPath8">
        <path d="M8 99.1328 L246.96 99.1328 L246.96 122.2656 L8 122.2656 L8 99.1328 Z"/>
      </clipPath>
      <clipPath clipPathUnits="userSpaceOnUse" id="clipPath9">
        <path d="M8 303.5312 L464.29 303.5312 L464.29 326.6641 L8 326.6641 L8 303.5312 Z"/>
      </clipPath>
      <clipPath clipPathUnits="userSpaceOnUse" id="clipPath10">
        <path d="M509.29 303.5312 L732.8 303.5312 L732.8 326.6641 L509.29 326.6641 L509.29 303.5312 Z"/>
      </clipPath>
      <clipPath clipPathUnits="userSpaceOnUse" id="clipPath11">
        <path d="M8 371.6641 L496.22 371.6641 L496.22 394.7969 L8 394.7969 L8 371.6641 Z"/>
      </clipPath>
      <clipPath clipPathUnits="userSpaceOnUse" id="clipPath12">
        <path d="M541.22 371.6641 L706.02 371.6641 L706.02 394.7969 L541.22 394.7969 L541.22 371.6641 Z"/>
      </clipPath>
      <clipPath clipPathUnits="userSpaceOnUse" id="clipPath13">
        <path d="M8 439.7969 L378.8 439.7969 L378.8 462.9297 L8 462.9297 L8 439.7969 Z"/>
      </clipPath>
      <clipPath clipPathUnits="userSpaceOnUse" id="clipPath14">
        <path d="M423.8 439.7969 L615.38 439.7969 L615.38 462.9297 L423.8 462.9297 L423.8 439.7969 Z"/>
      </clipPath>
      <clipPath clipPathUnits="userSpaceOnUse" id="clipPath15">
        <path d="M8 507.9297 L423.09 507.9297 L423.09 531.0625 L8 531.0625 L8 507.9297 Z"/>
      </clipPath>
      <clipPath clipPathUnits="userSpaceOnUse" id="clipPath16">
        <path d="M468.09 507.9297 L652.46 507.9297 L652.46 531.0625 L468.09 531.0625 L468.09 507.9297 Z"/>
      </clipPath>
      <clipPath clipPathUnits="userSpaceOnUse" id="clipPath17">
        <path d="M8 576.0625 L417.94 576.0625 L417.94 599.1953 L8 599.1953 L8 576.0625 Z"/>
      </clipPath>
      <clipPath clipPathUnits="userSpaceOnUse" id="clipPath18">
        <path d="M52.29 26 L202.67 26 L202.67 49.1328 L52.29 49.1328 L52.29 26 Z"/>
      </clipPath>
      <clipPath clipPathUnits="userSpaceOnUse" id="clipPath19">
        <path d="M462.94 576.0625 L700.87 576.0625 L700.87 599.1953 L462.94 599.1953 L462.94 576.0625 Z"/>
      </clipPath>
      <clipPath clipPathUnits="userSpaceOnUse" id="clipPath20">
        <path d="M8 644.1953 L258.29 644.1953 L258.29 667.3281 L8 667.3281 L8 644.1953 Z"/>
      </clipPath>
      <clipPath clipPathUnits="userSpaceOnUse" id="clipPath21">
        <path d="M303.29 644.1953 L767.82 644.1953 L767.82 667.3281 L303.29 667.3281 L303.29 644.1953 Z"/>
      </clipPath>
      <clipPath clipPathUnits="userSpaceOnUse" id="clipPath22">
        <path d="M8 712.3281 L168.68 712.3281 L168.68 735.4609 L8 735.4609 L8 712.3281 Z"/>
      </clipPath>
      <clipPath clipPathUnits="userSpaceOnUse" id="clipPath23">
        <path d="M213.68 712.3281 L576.24 712.3281 L576.24 735.4609 L213.68 735.4609 L213.68 712.3281 Z"/>
      </clipPath>
      <script type="text/ecmascript"><![CDATA[
function umlload(newLocation)
{
if (newLocation.charAt(0) != '#') {
if (newLocation.indexOf("://") > -1) {
window.parent.location.href = newLocation;
} else {
var tmp = window.parent.location.href;
tmp = tmp.substring(0, tmp.lastIndexOf("/") + 1);
window.parent.location.href = tmp.concat(newLocation);
}
} else {
window.parent.location.hash = newLocation;
}
}
]]></script>
    </defs>
    <g fill="rgb(238,238,255)" transform="matrix(0.6858,0,0,0.6858,0,31.5459)" stroke="rgb(238,238,255)">
      <rect width="480.3441" x="0" height="17.9688" y="0" stroke="none"/>
    </g>
    <g fill="rgb(166,166,178)" stroke-miterlimit="1.45" transform="matrix(0.6858,0,0,0.6858,0,31.5459)" stroke-linecap="butt" stroke="rgb(166,166,178)">
      <rect fill="none" width="480.3441" x="0" height="17.9688" y="0"/>
    </g>
    <g fill="rgb(238,238,255)" transform="matrix(0.6858,0,0,0.6858,0,31.5459)" stroke="rgb(238,238,255)">
      <rect width="871.29" x="0" height="725.4922" y="17.9688" stroke="none"/>
    </g>
    <g fill="rgb(166,166,178)" stroke-miterlimit="1.45" transform="matrix(0.6858,0,0,0.6858,0,31.5459)" stroke-linecap="butt" stroke="rgb(166,166,178)">
      <rect fill="none" width="871.29" x="0" height="725.4922" y="17.9688"/>
    </g>
    <g font-family="sans-serif" transform="matrix(0.6858,0,0,0.6858,0,31.5459)">
      <text xml:space="preserve" x="6" y="13.1387" onclick="umlload('#')" stroke="none">com.msopentech.odatajclient.engine.communication.request.retrieve</text>
    </g>
    <g fill="rgb(187,187,255)" transform="matrix(0.6858,0,0,0.6858,0,31.5459)" stroke="rgb(187,187,255)">
      <rect x="291.96" y="26" clip-path="url(#clipPath2)" width="161.71" height="23.1328" stroke="none"/>
    </g>
    <g fill="rgb(130,130,178)" stroke-miterlimit="1.45" transform="matrix(0.6858,0,0,0.6858,0,31.5459)" stroke-linecap="butt" stroke="rgb(130,130,178)">
      <rect fill="none" width="161.71" x="291.96" height="23.1328" y="26"/>
    </g>
    <g font-size="13" font-weight="bold" font-family="sans-serif" transform="matrix(0.6858,0,0,0.6858,0,31.5459)">
      <text xml:space="preserve" x="298.315" y="42.0669" onclick="umlload('ODataEntityRequest.html')" stroke="none">ODataEntityRequest</text>
    </g>
    <g fill="rgb(187,187,255)" transform="matrix(0.6858,0,0,0.6858,0,31.5459)" stroke="rgb(187,187,255)">
      <rect x="498.67" y="26" clip-path="url(#clipPath3)" width="364.62" height="23.1328" stroke="none"/>
    </g>
    <g fill="rgb(130,130,178)" stroke-miterlimit="1.45" transform="matrix(0.6858,0,0,0.6858,0,31.5459)" stroke-linecap="butt" stroke="rgb(130,130,178)">
      <rect fill="none" width="364.62" x="498.67" height="23.1328" y="26"/>
    </g>
    <g font-size="13" font-weight="bold" font-family="sans-serif" transform="matrix(0.6858,0,0,0.6858,0,31.5459)">
      <text xml:space="preserve" x="507.98" y="42.0669" onclick="umlload('ODataEntityRequest.ODataEntityResponseImpl.html')" stroke="none">ODataEntityRequest.ODataEntityResponseImpl</text>
    </g>
    <g fill="rgb(187,187,255)" transform="matrix(0.6858,0,0,0.6858,0,31.5459)" stroke="rgb(187,187,255)">
      <rect x="8" y="167.2656" clip-path="url(#clipPath4)" width="243.08" height="23.1328" stroke="none"/>
    </g>
    <g fill="rgb(130,130,178)" stroke-miterlimit="1.45" transform="matrix(0.6858,0,0,0.6858,0,31.5459)" stroke-linecap="butt" stroke="rgb(130,130,178)">
      <rect fill="none" width="243.08" x="8" height="23.1328" y="167.2656"/>
    </g>
    <g font-size="13" font-weight="bold" font-family="sans-serif" transform="matrix(0.6858,0,0,0.6858,0,31.5459)">
      <text xml:space="preserve" x="15.54" y="183.3325" onclick="umlload('ODataEntitySetIteratorRequest.html')" stroke="none">ODataEntitySetIteratorRequest</text>
    </g>
    <g fill="rgb(187,187,255)" transform="matrix(0.6858,0,0,0.6858,0,31.5459)" stroke="rgb(187,187,255)">
      <rect x="296.08" y="167.2656" clip-path="url(#clipPath5)" width="527.36" height="23.1328" stroke="none"/>
    </g>
    <g fill="rgb(130,130,178)" stroke-miterlimit="1.45" transform="matrix(0.6858,0,0,0.6858,0,31.5459)" stroke-linecap="butt" stroke="rgb(130,130,178)">
      <rect fill="none" width="527.36" x="296.08" height="23.1328" y="167.2656"/>
    </g>
    <g font-size="13" font-weight="bold" font-family="sans-serif" transform="matrix(0.6858,0,0,0.6858,0,31.5459)">
      <text xml:space="preserve" x="307.76" y="183.3325" onclick="umlload('ODataEntitySetIteratorRequest.ODataEntitySetIteratorResponseImpl.html')" stroke="none">ODataEntitySetIteratorRequest.ODataEntitySetIteratorResponseImpl</text>
    </g>
    <g fill="rgb(187,187,255)" transform="matrix(0.6858,0,0,0.6858,0,31.5459)" stroke="rgb(187,187,255)">
      <rect x="8" y="235.3984" clip-path="url(#clipPath6)" width="186.43" height="23.1328" stroke="none"/>
    </g>
    <g fill="rgb(130,130,178)" stroke-miterlimit="1.45" transform="matrix(0.6858,0,0,0.6858,0,31.5459)" stroke-linecap="butt" stroke="rgb(130,130,178)">
      <rect fill="none" width="186.43" x="8" height="23.1328" y="235.3984"/>
    </g>
    <g font-size="13" font-weight="bold" font-family="sans-serif" transform="matrix(0.6858,0,0,0.6858,0,31.5459)">
      <text xml:space="preserve" x="14.715" y="251.4653" onclick="umlload('ODataEntitySetRequest.html')" stroke="none">ODataEntitySetRequest</text>
    </g>
    <g fill="rgb(187,187,255)" transform="matrix(0.6858,0,0,0.6858,0,31.5459)" stroke="rgb(187,187,255)">
      <rect x="239.43" y="235.3984" clip-path="url(#clipPath7)" width="414.06" height="23.1328" stroke="none"/>
    </g>
    <g fill="rgb(130,130,178)" stroke-miterlimit="1.45" transform="matrix(0.6858,0,0,0.6858,0,31.5459)" stroke-linecap="butt" stroke="rgb(130,130,178)">
      <rect fill="none" width="414.06" x="239.43" height="23.1328" y="235.3984"/>
    </g>
    <g font-size="13" font-weight="bold" font-family="sans-serif" transform="matrix(0.6858,0,0,0.6858,0,31.5459)">
      <text xml:space="preserve" x="249.46" y="251.4653" onclick="umlload('ODataEntitySetRequest.ODataEntitySetResponseImpl.html')" stroke="none">ODataEntitySetRequest.ODataEntitySetResponseImpl</text>
    </g>
    <g fill="rgb(187,187,255)" transform="matrix(0.6858,0,0,0.6858,0,31.5459)" stroke="rgb(187,187,255)">
      <rect x="8" y="99.1328" clip-path="url(#clipPath8)" width="238.96" height="23.1328" stroke="none"/>
    </g>
    <g fill="rgb(130,130,178)" stroke-miterlimit="1.45" transform="matrix(0.6858,0,0,0.6858,0,31.5459)" stroke-linecap="butt" stroke="rgb(130,130,178)">
      <rect fill="none" width="238.96" x="8" height="23.1328" y="99.1328"/>
    </g>
    <g font-size="13" font-weight="bold" font-family="sans-serif" transform="matrix(0.6858,0,0,0.6858,0,31.5459)">
      <text xml:space="preserve" x="15.48" y="115.1997" onclick="umlload('ODataGenericRetrieveRequest.html')" stroke="none">ODataGenericRetrieveRequest</text>
    </g>
    <g fill="rgb(187,187,255)" transform="matrix(0.6858,0,0,0.6858,0,31.5459)" stroke="rgb(187,187,255)">
      <rect x="8" y="303.5312" clip-path="url(#clipPath9)" width="456.29" height="23.1328" stroke="none"/>
    </g>
    <g fill="rgb(130,130,178)" stroke-miterlimit="1.45" transform="matrix(0.6858,0,0,0.6858,0,31.5459)" stroke-linecap="butt" stroke="rgb(130,130,178)">
      <rect fill="none" width="456.29" x="8" height="23.1328" y="303.5312"/>
    </g>
    <g font-size="13" font-weight="bold" font-family="sans-serif" transform="matrix(0.6858,0,0,0.6858,0,31.5459)">
      <text xml:space="preserve" x="18.645" y="319.5981" onclick="umlload('ODataGenericRetrieveRequest.ODataGenericResponseImpl.html')" stroke="none">ODataGenericRetrieveRequest.ODataGenericResponseImpl</text>
    </g>
    <g fill="rgb(187,187,255)" transform="matrix(0.6858,0,0,0.6858,0,31.5459)" stroke="rgb(187,187,255)">
      <rect x="509.29" y="303.5312" clip-path="url(#clipPath10)" width="223.51" height="23.1328" stroke="none"/>
    </g>
    <g fill="rgb(130,130,178)" stroke-miterlimit="1.45" transform="matrix(0.6858,0,0,0.6858,0,31.5459)" stroke-linecap="butt" stroke="rgb(130,130,178)">
      <rect fill="none" width="223.51" x="509.29" height="23.1328" y="303.5312"/>
    </g>
    <g font-size="13" font-weight="bold" font-family="sans-serif" transform="matrix(0.6858,0,0,0.6858,0,31.5459)">
      <text xml:space="preserve" x="516.545" y="319.5981" onclick="umlload('ODataLinkCollectionRequest.html')" stroke="none">ODataLinkCollectionRequest</text>
    </g>
    <g fill="rgb(187,187,255)" transform="matrix(0.6858,0,0,0.6858,0,31.5459)" stroke="rgb(187,187,255)">
      <rect x="8" y="371.6641" clip-path="url(#clipPath11)" width="488.22" height="23.1328" stroke="none"/>
    </g>
    <g fill="rgb(130,130,178)" stroke-miterlimit="1.45" transform="matrix(0.6858,0,0,0.6858,0,31.5459)" stroke-linecap="butt" stroke="rgb(130,130,178)">
      <rect fill="none" width="488.22" x="8" height="23.1328" y="371.6641"/>
    </g>
    <g font-size="13" font-weight="bold" font-family="sans-serif" transform="matrix(0.6858,0,0,0.6858,0,31.5459)">
      <text xml:space="preserve" x="19.11" y="387.731" onclick="umlload('ODataLinkCollectionRequest.ODataLinkCollectionResponseImpl.html')" stroke="none">ODataLinkCollectionRequest.ODataLinkCollectionResponseImpl</text>
    </g>
    <g fill="rgb(187,187,255)" transform="matrix(0.6858,0,0,0.6858,0,31.5459)" stroke="rgb(187,187,255)">
      <rect x="541.22" y="371.6641" clip-path="url(#clipPath12)" width="164.8" height="23.1328" stroke="none"/>
    </g>
    <g fill="rgb(130,130,178)" stroke-miterlimit="1.45" transform="matrix(0.6858,0,0,0.6858,0,31.5459)" stroke-linecap="butt" stroke="rgb(130,130,178)">
      <rect fill="none" width="164.8" x="541.22" height="23.1328" y="371.6641"/>
    </g>
    <g font-size="13" font-weight="bold" font-family="sans-serif" transform="matrix(0.6858,0,0,0.6858,0,31.5459)">
      <text xml:space="preserve" x="547.62" y="387.731" onclick="umlload('ODataMediaRequest.html')" stroke="none">ODataMediaRequest</text>
    </g>
    <g fill="rgb(187,187,255)" transform="matrix(0.6858,0,0,0.6858,0,31.5459)" stroke="rgb(187,187,255)">
      <rect x="8" y="439.7969" clip-path="url(#clipPath13)" width="370.8" height="23.1328" stroke="none"/>
    </g>
    <g fill="rgb(130,130,178)" stroke-miterlimit="1.45" transform="matrix(0.6858,0,0,0.6858,0,31.5459)" stroke-linecap="butt" stroke="rgb(130,130,178)">
      <rect fill="none" width="370.8" x="8" height="23.1328" y="439.7969"/>
    </g>
    <g font-size="13" font-weight="bold" font-family="sans-serif" transform="matrix(0.6858,0,0,0.6858,0,31.5459)">
      <text xml:space="preserve" x="17.4" y="455.8638" onclick="umlload('ODataMediaRequest.ODataMediaResponseImpl.html')" stroke="none">ODataMediaRequest.ODataMediaResponseImpl</text>
    </g>
    <g fill="rgb(187,187,255)" transform="matrix(0.6858,0,0,0.6858,0,31.5459)" stroke="rgb(187,187,255)">
      <rect x="423.8" y="439.7969" clip-path="url(#clipPath14)" width="191.58" height="23.1328" stroke="none"/>
    </g>
    <g fill="rgb(130,130,178)" stroke-miterlimit="1.45" transform="matrix(0.6858,0,0,0.6858,0,31.5459)" stroke-linecap="butt" stroke="rgb(130,130,178)">
      <rect fill="none" width="191.58" x="423.8" height="23.1328" y="439.7969"/>
    </g>
    <g font-size="13" font-weight="bold" font-family="sans-serif" transform="matrix(0.6858,0,0,0.6858,0,31.5459)">
      <text xml:space="preserve" x="430.59" y="455.8638" onclick="umlload('ODataMetadataRequest.html')" stroke="none">ODataMetadataRequest</text>
    </g>
    <g fill="rgb(187,187,255)" transform="matrix(0.6858,0,0,0.6858,0,31.5459)" stroke="rgb(187,187,255)">
      <rect x="8" y="507.9297" clip-path="url(#clipPath15)" width="415.09" height="23.1328" stroke="none"/>
    </g>
    <g fill="rgb(130,130,178)" stroke-miterlimit="1.45" transform="matrix(0.6858,0,0,0.6858,0,31.5459)" stroke-linecap="butt" stroke="rgb(130,130,178)">
      <rect fill="none" width="415.09" x="8" height="23.1328" y="507.9297"/>
    </g>
    <g font-size="13" font-weight="bold" font-family="sans-serif" transform="matrix(0.6858,0,0,0.6858,0,31.5459)">
      <text xml:space="preserve" x="18.045" y="523.9966" onclick="umlload('ODataMetadataRequest.ODataMetadataResponsImpl.html')" stroke="none">ODataMetadataRequest.ODataMetadataResponsImpl</text>
    </g>
    <g fill="rgb(187,187,255)" transform="matrix(0.6858,0,0,0.6858,0,31.5459)" stroke="rgb(187,187,255)">
      <rect x="468.09" y="507.9297" clip-path="url(#clipPath16)" width="184.37" height="23.1328" stroke="none"/>
    </g>
    <g fill="rgb(130,130,178)" stroke-miterlimit="1.45" transform="matrix(0.6858,0,0,0.6858,0,31.5459)" stroke-linecap="butt" stroke="rgb(130,130,178)">
      <rect fill="none" width="184.37" x="468.09" height="23.1328" y="507.9297"/>
    </g>
    <g font-size="13" font-weight="bold" font-family="sans-serif" transform="matrix(0.6858,0,0,0.6858,0,31.5459)">
      <text xml:space="preserve" x="474.775" y="523.9966" onclick="umlload('ODataPropertyRequest.html')" stroke="none">ODataPropertyRequest</text>
    </g>
    <g fill="rgb(187,187,255)" transform="matrix(0.6858,0,0,0.6858,0,31.5459)" stroke="rgb(187,187,255)">
      <rect x="8" y="576.0625" clip-path="url(#clipPath17)" width="409.94" height="23.1328" stroke="none"/>
    </g>
    <g fill="rgb(130,130,178)" stroke-miterlimit="1.45" transform="matrix(0.6858,0,0,0.6858,0,31.5459)" stroke-linecap="butt" stroke="rgb(130,130,178)">
      <rect fill="none" width="409.94" x="8" height="23.1328" y="576.0625"/>
    </g>
    <g font-size="13" font-weight="bold" font-family="sans-serif" transform="matrix(0.6858,0,0,0.6858,0,31.5459)">
      <text xml:space="preserve" x="17.97" y="592.1294" onclick="umlload('ODataPropertyRequest.ODataPropertyResponseImpl.html')" stroke="none">ODataPropertyRequest.ODataPropertyResponseImpl</text>
    </g>
    <g fill="rgb(187,187,255)" transform="matrix(0.6858,0,0,0.6858,0,31.5459)" stroke="rgb(187,187,255)">
      <rect x="52.29" y="26" clip-path="url(#clipPath18)" width="150.38" height="23.1328" stroke="none"/>
    </g>
    <g fill="rgb(130,130,178)" stroke-miterlimit="1.45" transform="matrix(0.6858,0,0,0.6858,0,31.5459)" stroke-linecap="butt" stroke="rgb(130,130,178)">
      <rect fill="none" width="150.38" x="52.29" height="23.1328" y="26"/>
    </g>
    <g font-size="13" font-weight="bold" font-family="sans-serif" transform="matrix(0.6858,0,0,0.6858,0,31.5459)">
      <text xml:space="preserve" x="58.48" y="42.0669" onclick="umlload('ODataRawRequest.html')" stroke="none">ODataRawRequest</text>
    </g>
    <g fill="rgb(187,187,255)" transform="matrix(0.6858,0,0,0.6858,0,31.5459)" stroke="rgb(187,187,255)">
      <rect x="462.94" y="576.0625" clip-path="url(#clipPath19)" width="237.93" height="23.1328" stroke="none"/>
    </g>
    <g fill="rgb(130,130,178)" stroke-miterlimit="1.45" transform="matrix(0.6858,0,0,0.6858,0,31.5459)" stroke-linecap="butt" stroke="rgb(130,130,178)">
      <rect fill="none" width="237.93" x="462.94" height="23.1328" y="576.0625"/>
    </g>
    <g font-size="13" font-weight="bold" font-family="sans-serif" transform="matrix(0.6858,0,0,0.6858,0,31.5459)">
      <text xml:space="preserve" x="470.405" y="592.1294" onclick="umlload('ODataRetrieveRequestFactory.html')" stroke="none">ODataRetrieveRequestFactory</text>
    </g>
    <g fill="rgb(187,187,255)" transform="matrix(0.6858,0,0,0.6858,0,31.5459)" stroke="rgb(187,187,255)">
      <rect x="8" y="644.1953" clip-path="url(#clipPath20)" width="250.29" height="23.1328" stroke="none"/>
    </g>
    <g fill="rgb(130,130,178)" stroke-miterlimit="1.45" transform="matrix(0.6858,0,0,0.6858,0,31.5459)" stroke-linecap="butt" stroke="rgb(130,130,178)">
      <rect fill="none" width="250.29" x="8" height="23.1328" y="644.1953"/>
    </g>
    <g font-size="13" font-weight="bold" font-family="sans-serif" transform="matrix(0.6858,0,0,0.6858,0,31.5459)">
      <text xml:space="preserve" x="15.645" y="660.2622" onclick="umlload('ODataServiceDocumentRequest.html')" stroke="none">ODataServiceDocumentRequest</text>
    </g>
    <g fill="rgb(187,187,255)" transform="matrix(0.6858,0,0,0.6858,0,31.5459)" stroke="rgb(187,187,255)">
      <rect x="303.29" y="644.1953" clip-path="url(#clipPath21)" width="464.53" height="23.1328" stroke="none"/>
    </g>
    <g fill="rgb(130,130,178)" stroke-miterlimit="1.45" transform="matrix(0.6858,0,0,0.6858,0,31.5459)" stroke-linecap="butt" stroke="rgb(130,130,178)">
      <rect fill="none" width="464.53" x="303.29" height="23.1328" y="644.1953"/>
    </g>
    <g font-size="13" font-weight="bold" font-family="sans-serif" transform="matrix(0.6858,0,0,0.6858,0,31.5459)">
      <text xml:space="preserve" x="314.055" y="660.2622" onclick="umlload('ODataServiceDocumentRequest.ODataServiceResponseImpl.html')" stroke="none">ODataServiceDocumentRequest.ODataServiceResponseImpl</text>
    </g>
    <g fill="rgb(187,187,255)" transform="matrix(0.6858,0,0,0.6858,0,31.5459)" stroke="rgb(187,187,255)">
      <rect x="8" y="712.3281" clip-path="url(#clipPath22)" width="160.68" height="23.1328" stroke="none"/>
    </g>
    <g fill="rgb(130,130,178)" stroke-miterlimit="1.45" transform="matrix(0.6858,0,0,0.6858,0,31.5459)" stroke-linecap="butt" stroke="rgb(130,130,178)">
      <rect fill="none" width="160.68" x="8" height="23.1328" y="712.3281"/>
    </g>
    <g font-size="13" font-weight="bold" font-family="sans-serif" transform="matrix(0.6858,0,0,0.6858,0,31.5459)">
      <text xml:space="preserve" x="14.34" y="728.395" onclick="umlload('ODataValueRequest.html')" stroke="none">ODataValueRequest</text>
    </g>
    <g fill="rgb(187,187,255)" transform="matrix(0.6858,0,0,0.6858,0,31.5459)" stroke="rgb(187,187,255)">
      <rect x="213.68" y="712.3281" clip-path="url(#clipPath23)" width="362.56" height="23.1328" stroke="none"/>
    </g>
    <g fill="rgb(130,130,178)" stroke-miterlimit="1.45" transform="matrix(0.6858,0,0,0.6858,0,31.5459)" stroke-linecap="butt" stroke="rgb(130,130,178)">
      <rect fill="none" width="362.56" x="213.68" height="23.1328" y="712.3281"/>
    </g>
    <g font-size="13" font-weight="bold" font-family="sans-serif" transform="matrix(0.6858,0,0,0.6858,0,31.5459)">
      <text xml:space="preserve" x="222.96" y="728.395" onclick="umlload('ODataValueRequest.ODataValueResponseImpl.html')" stroke="none">ODataValueRequest.ODataValueResponseImpl</text>
    </g>
    <g font-family="sans-serif" transform="matrix(0.6858,0,0,0.6858,0,31.5459)">
      <text xml:space="preserve" x="6" y="768.1543" onclick="umlload('http://www.yworks.com/')" stroke="none">yWorks UML Doclet</text>
    </g>
    <g stroke-miterlimit="1.45" transform="matrix(0.6858,0,0,0.6858,0,31.5459)" stroke-linecap="butt">
      <path fill="none" d="M127.48 99.1328 L127.48 64.1328"/>
      <path fill="white" d="M127.48 49.1328 L121.48 65.1328 L133.48 65.1328 Z" stroke="none"/>
      <path fill="none" d="M127.48 49.1328 L121.48 65.1328 L133.48 65.1328 Z"/>
    </g>
  </g>
</svg>
