<?xml version="1.0" encoding="UTF-8"?><svg xmlns="http://www.w3.org/2000/svg" xmlns:xlink="http://www.w3.org/1999/xlink" fill-opacity="1" color-rendering="auto" color-interpolation="auto" stroke="black" text-rendering="auto" stroke-linecap="square" width="568" stroke-miterlimit="10" stroke-opacity="1" shape-rendering="auto" fill="black" stroke-dasharray="none" font-weight="normal" stroke-width="1" height="392" font-family="'Dialog'" font-style="normal" stroke-linejoin="miter" font-size="12" stroke-dashoffset="0" image-rendering="auto">
  <!--Generated by ySVG-->
  <defs id="genericDefs"/>
  <g>
    <defs id="defs1">
      <clipPath clipPathUnits="userSpaceOnUse" id="clipPath1">
        <path d="M0 0 L568 0 L568 392 L0 392 L0 0 Z"/>
      </clipPath>
      <clipPath clipPathUnits="userSpaceOnUse" id="clipPath2">
        <path d="M-66 190.623 C-66 199.6569 -86.543 206.9804 -111.8842 206.9804 C-137.2253 206.9804 -157.7683 199.6569 -157.7683 190.623 C-157.7683 181.5891 -137.2253 174.2656 -111.8842 174.2656 C-86.543 174.2656 -66 181.5891 -66 190.623 Z"/>
      </clipPath>
      <clipPath clipPathUnits="userSpaceOnUse" id="clipPath3">
        <path d="M-130.04 87.1328 L-76.48 87.1328 L-76.48 110.2656 L-130.04 110.2656 L-130.04 87.1328 Z"/>
      </clipPath>
      <clipPath clipPathUnits="userSpaceOnUse" id="clipPath4">
        <path d="M-307.2 0 L-255.7 0 L-255.7 23.1328 L-307.2 23.1328 L-307.2 0 Z"/>
      </clipPath>
      <clipPath clipPathUnits="userSpaceOnUse" id="clipPath5">
        <path d="M14.42 -107.1328 L123.6 -107.1328 L123.6 -84 L14.42 -84 L14.42 -107.1328 Z"/>
      </clipPath>
      <clipPath clipPathUnits="userSpaceOnUse" id="clipPath6">
        <path d="M0 0 L138.02 0 L138.02 214.9804 L0 214.9804 L0 0 Z"/>
      </clipPath>
      <script type="text/ecmascript"><![CDATA[
function umlload(newLocation)
{
if (newLocation.charAt(0) != '#') {
if (newLocation.indexOf("://") > -1) {
window.parent.location.href = newLocation;
} else {
var tmp = window.parent.location.href;
tmp = tmp.substring(0, tmp.lastIndexOf("/") + 1);
window.parent.location.href = tmp.concat(newLocation);
}
} else {
window.parent.location.hash = newLocation;
}
}
]]></script>
    </defs>
    <g fill="rgb(238,238,255)" transform="matrix(1,0,0,1,316,134)" stroke="rgb(238,238,255)">
      <rect width="67.654" x="-165.7683" height="17.9688" y="148.2656" stroke="none"/>
    </g>
    <g fill="rgb(166,166,178)" stroke-miterlimit="1.45" transform="matrix(1,0,0,1,316,134)" stroke-linecap="butt" stroke="rgb(166,166,178)">
      <rect fill="none" width="67.654" x="-165.7683" height="17.9688" y="148.2656"/>
    </g>
    <g fill="rgb(238,238,255)" transform="matrix(1,0,0,1,316,134)" stroke="rgb(238,238,255)">
      <rect width="107.7683" x="-165.7683" height="48.746" y="166.2344" stroke="none"/>
    </g>
    <g fill="rgb(166,166,178)" stroke-miterlimit="1.45" transform="matrix(1,0,0,1,316,134)" stroke-linecap="butt" stroke="rgb(166,166,178)">
      <rect fill="none" width="107.7683" x="-165.7683" height="48.746" y="166.2344"/>
    </g>
    <g font-family="sans-serif" transform="matrix(1,0,0,1,316,134)">
      <text xml:space="preserve" x="-159.7683" y="161.4043" onclick="umlload('http://docs.oracle.com/javase/6/docs/api/java/util/package-summary.html')" stroke="none">java.util</text>
    </g>
    <g fill="rgb(221,221,255)" transform="matrix(1,0,0,1,316,134)" stroke="rgb(221,221,255)">
      <rect x="-157.7683" y="174.2656" clip-path="url(#clipPath2)" width="91.7683" height="32.7147" stroke="none"/>
    </g>
    <g fill="rgb(154,154,178)" stroke-miterlimit="1.45" transform="matrix(1,0,0,1,316,134)" stroke-linecap="butt" stroke="rgb(154,154,178)">
      <ellipse rx="45.8842" fill="none" ry="16.3574" cx="-111.8842" cy="190.623"/>
    </g>
    <g font-style="italic" font-size="13" font-weight="bold" font-family="sans-serif" transform="matrix(1,0,0,1,316,134)">
      <text xml:space="preserve" x="-139.3842" y="195.1235" onclick="umlload('http://docs.oracle.com/javase/6/docs/api/java/util/Set.html')" stroke="none">Set&lt;E&gt;</text>
    </g>
    <g fill="rgb(238,238,255)" transform="matrix(1,0,0,1,316,134)" stroke="rgb(238,238,255)">
      <rect width="76.1412" x="-138.04" height="17.9688" y="61.1328" stroke="none"/>
    </g>
    <g fill="rgb(166,166,178)" stroke-miterlimit="1.45" transform="matrix(1,0,0,1,316,134)" stroke-linecap="butt" stroke="rgb(166,166,178)">
      <rect fill="none" width="76.1412" x="-138.04" height="17.9688" y="61.1328"/>
    </g>
    <g fill="rgb(238,238,255)" transform="matrix(1,0,0,1,316,134)" stroke="rgb(238,238,255)">
      <rect width="79.56" x="-138.04" height="39.1641" y="79.1016" stroke="none"/>
    </g>
    <g fill="rgb(166,166,178)" stroke-miterlimit="1.45" transform="matrix(1,0,0,1,316,134)" stroke-linecap="butt" stroke="rgb(166,166,178)">
      <rect fill="none" width="79.56" x="-138.04" height="39.1641" y="79.1016"/>
    </g>
    <g font-family="sans-serif" transform="matrix(1,0,0,1,316,134)">
      <text xml:space="preserve" x="-132.04" y="74.2715" onclick="umlload('http://docs.oracle.com/javase/6/docs/api/java/lang/package-summary.html')" stroke="none">java.lang</text>
    </g>
    <g fill="rgb(187,187,255)" transform="matrix(1,0,0,1,316,134)" stroke="rgb(187,187,255)">
      <rect x="-130.04" y="87.1328" clip-path="url(#clipPath3)" width="53.56" height="23.1328" stroke="none"/>
    </g>
    <g fill="rgb(130,130,178)" stroke-miterlimit="1.45" transform="matrix(1,0,0,1,316,134)" stroke-linecap="butt" stroke="rgb(130,130,178)">
      <rect fill="none" width="53.56" x="-130.04" height="23.1328" y="87.1328"/>
    </g>
    <g font-size="13" font-weight="bold" font-family="sans-serif" transform="matrix(1,0,0,1,316,134)">
      <text xml:space="preserve" x="-125.26" y="103.1997" onclick="umlload('http://docs.oracle.com/javase/6/docs/api/java/lang/String.html')" stroke="none">String</text>
    </g>
    <g fill="rgb(238,238,255)" transform="matrix(1,0,0,1,316,134)" stroke="rgb(238,238,255)">
      <rect width="258.616" x="-315.2" height="17.9688" y="-26" stroke="none"/>
    </g>
    <g fill="rgb(166,166,178)" stroke-miterlimit="1.45" transform="matrix(1,0,0,1,316,134)" stroke-linecap="butt" stroke="rgb(166,166,178)">
      <rect fill="none" width="258.616" x="-315.2" height="17.9688" y="-26"/>
    </g>
    <g fill="rgb(238,238,255)" transform="matrix(1,0,0,1,316,134)" stroke="rgb(238,238,255)">
      <rect width="258.616" x="-315.2" height="39.1641" y="-8.0312" stroke="none"/>
    </g>
    <g fill="rgb(166,166,178)" stroke-miterlimit="1.45" transform="matrix(1,0,0,1,316,134)" stroke-linecap="butt" stroke="rgb(166,166,178)">
      <rect fill="none" width="258.616" x="-315.2" height="39.1641" y="-8.0312"/>
    </g>
    <g font-family="sans-serif" transform="matrix(1,0,0,1,316,134)">
      <text xml:space="preserve" x="-309.2" y="-12.8613" onclick="umlload('../../../../com/msopentech/odatajclient/plugin/package-summary.html')" stroke="none">com.msopentech.odatajclient.plugin</text>
    </g>
    <g fill="rgb(187,187,255)" transform="matrix(1,0,0,1,316,134)" stroke="rgb(187,187,255)">
      <rect x="-307.2" y="0" clip-path="url(#clipPath4)" width="51.5" height="23.1328" stroke="none"/>
    </g>
    <g fill="rgb(130,130,178)" stroke-miterlimit="1.45" transform="matrix(1,0,0,1,316,134)" stroke-linecap="butt" stroke="rgb(130,130,178)">
      <rect fill="none" width="51.5" x="-307.2" height="23.1328" y="0"/>
    </g>
    <g font-size="13" font-weight="bold" font-family="sans-serif" transform="matrix(1,0,0,1,316,134)">
      <text xml:space="preserve" x="-302.45" y="16.0669" onclick="umlload('../../../../com/msopentech/odatajclient/plugin/Utility.html')" stroke="none">Utility</text>
    </g>
    <g fill="rgb(238,238,255)" transform="matrix(1,0,0,1,316,134)" stroke="rgb(238,238,255)">
      <rect width="185.4139" x="-18.58" height="17.9688" y="-133.1328" stroke="none"/>
    </g>
    <g fill="rgb(166,166,178)" stroke-miterlimit="1.45" transform="matrix(1,0,0,1,316,134)" stroke-linecap="butt" stroke="rgb(166,166,178)">
      <rect fill="none" width="185.4139" x="-18.58" height="17.9688" y="-133.1328"/>
    </g>
    <g fill="rgb(238,238,255)" transform="matrix(1,0,0,1,316,134)" stroke="rgb(238,238,255)">
      <rect width="185.4139" x="-18.58" height="39.1641" y="-115.1641" stroke="none"/>
    </g>
    <g fill="rgb(166,166,178)" stroke-miterlimit="1.45" transform="matrix(1,0,0,1,316,134)" stroke-linecap="butt" stroke="rgb(166,166,178)">
      <rect fill="none" width="185.4139" x="-18.58" height="39.1641" y="-115.1641"/>
    </g>
    <g font-family="sans-serif" transform="matrix(1,0,0,1,316,134)">
      <text xml:space="preserve" x="-12.58" y="-119.9941" stroke="none">org.apache.maven.plugin</text>
    </g>
    <g fill="rgb(204,204,255)" transform="matrix(1,0,0,1,316,134)" stroke="rgb(204,204,255)">
      <rect x="14.42" y="-107.1328" clip-path="url(#clipPath5)" width="109.18" height="23.1328" stroke="none"/>
    </g>
    <g fill="rgb(142,142,178)" stroke-miterlimit="1.45" transform="matrix(1,0,0,1,316,134)" stroke-linecap="butt" stroke="rgb(142,142,178)">
      <rect fill="none" width="109.18" x="14.42" height="23.1328" y="-107.1328"/>
    </g>
    <g font-size="13" font-weight="bold" font-family="sans-serif" transform="matrix(1,0,0,1,316,134)">
      <text xml:space="preserve" x="20.01" y="-91.0659" stroke="none">AbstractMojo</text>
    </g>
    <g fill="rgb(238,238,255)" transform="matrix(1,0,0,1,316,134)" stroke="rgb(238,238,255)">
      <rect width="258.616" x="-8" height="17.9688" y="-26" stroke="none"/>
    </g>
    <g fill="rgb(166,166,178)" stroke-miterlimit="1.45" transform="matrix(1,0,0,1,316,134)" stroke-linecap="butt" stroke="rgb(166,166,178)">
      <rect fill="none" width="258.616" x="-8" height="17.9688" y="-26"/>
    </g>
    <g fill="rgb(238,238,255)" transform="matrix(1,0,0,1,316,134)" stroke="rgb(238,238,255)">
      <rect width="259.02" x="-8" height="231.0116" y="-8.0312" stroke="none"/>
    </g>
    <g fill="rgb(166,166,178)" stroke-miterlimit="1.45" transform="matrix(1,0,0,1,316,134)" stroke-linecap="butt" stroke="rgb(166,166,178)">
      <rect fill="none" width="259.02" x="-8" height="231.0116" y="-8.0312"/>
    </g>
    <g font-family="sans-serif" transform="matrix(1,0,0,1,316,134)">
      <text xml:space="preserve" x="-2" y="-12.8613" onclick="umlload('package-summary.html')" stroke="none">com.msopentech.odatajclient.plugin</text>
    </g>
    <g fill="rgb(187,187,255)" transform="matrix(1,0,0,1,316,134)" stroke="rgb(187,187,255)">
      <rect x="0" y="0" clip-path="url(#clipPath6)" width="138.02" height="26.625" stroke="none"/>
      <line clip-path="url(#clipPath6)" fill="none" x1="0" x2="138.02" y1="26.625" y2="26.625" stroke="black"/>
      <rect x="0" y="27.625" clip-path="url(#clipPath6)" width="138.02" height="15.9688" stroke="none"/>
      <line clip-path="url(#clipPath6)" fill="none" x1="0" x2="138.02" y1="43.5938" y2="43.5938" stroke="black"/>
      <rect x="0" y="44.5938" clip-path="url(#clipPath6)" width="138.02" height="170.3866" stroke="none"/>
    </g>
    <g fill="rgb(130,130,178)" stroke-miterlimit="1.45" transform="matrix(1,0,0,1,316,134)" stroke-linecap="butt" stroke="rgb(130,130,178)">
      <rect fill="none" width="138.02" x="0" height="214.9804" y="0"/>
    </g>
    <g font-size="16" font-weight="bold" font-family="sans-serif" transform="matrix(1,0,0,1,316,134)">
      <text xml:space="preserve" x="6.01" y="18.8516" onclick="umlload('#')" stroke="none">MetadataMojo</text>
    </g>
    <g font-family="sans-serif" transform="matrix(1,0,0,1,316,134)">
      <text xml:space="preserve" x="4" y="38.1719" stroke="none">+</text>
      <text xml:space="preserve" x="19" y="39.7637" onclick="umlload('#MetadataMojo()')" stroke="none">MetadataMojo()</text>
    </g>
    <g font-family="sans-serif" transform="matrix(1,0,0,1,316,134)">
      <text xml:space="preserve" x="4" y="55.1719" stroke="none">+</text>
      <text xml:space="preserve" x="19" y="56.7324" onclick="umlload('#execute()')" stroke="none">execute() : void</text>
    </g>
    <g font-family="sans-serif" transform="matrix(1,0,0,1,316,134)">
      <text xml:space="preserve" x="-310" y="247.1543" onclick="umlload('http://www.yworks.com/')" stroke="none">yWorks UML Doclet</text>
    </g>
    <g stroke-miterlimit="1.45" transform="matrix(1,0,0,1,316,134)" stroke-linecap="butt">
      <path fill="none" d="M69.01 0.0176 L69.01 -69"/>
      <path fill="white" d="M69.01 -84 L63.01 -68 L75.01 -68 Z" stroke="none"/>
      <path fill="none" d="M69.01 -84 L63.01 -68 L75.01 -68 Z"/>
      <path fill="none" d="M0.0046 11.5664 L-255.7 11.5664"/>
      <line stroke-linecap="square" transform="matrix(-1,0,0,-1,-255.7,11.5664)" fill="none" x1="0" x2="-14" y1="0" y2="-4" stroke-miterlimit="10"/>
      <line stroke-linecap="square" transform="matrix(-1,0,0,-1,-255.7,11.5664)" fill="none" x1="0" x2="-14" y1="0" y2="4" stroke-miterlimit="10"/>
    </g>
    <g stroke-miterlimit="1.45" transform="matrix(1,0,0,1,316,134)" stroke-linecap="butt">
      <path fill="none" d="M-0.0074 98.6992 L-76.48 98.6992"/>
      <line stroke-linecap="square" transform="matrix(-1,0,0,-1,-76.48,98.6992)" fill="none" x1="0" x2="-14" y1="0" y2="-4" stroke-miterlimit="10"/>
      <line stroke-linecap="square" transform="matrix(-1,0,0,-1,-76.48,98.6992)" fill="none" x1="0" x2="-14" y1="0" y2="4" stroke-miterlimit="10"/>
    </g>
    <g stroke-miterlimit="1.45" transform="matrix(1,0,0,1,316,134)" stroke-linecap="butt">
      <path fill="none" d="M-0.0177 190.623 L-66 190.623"/>
      <line stroke-linecap="square" transform="matrix(-1,0,0,-1,-66,190.623)" fill="none" x1="0" x2="-14" y1="0" y2="-4" stroke-miterlimit="10"/>
      <line stroke-linecap="square" transform="matrix(-1,0,0,-1,-66,190.623)" fill="none" x1="0" x2="-14" y1="0" y2="4" stroke-miterlimit="10"/>
    </g>
  </g>
</svg>
