<?xml version="1.0" encoding="UTF-8"?><svg xmlns="http://www.w3.org/2000/svg" xmlns:xlink="http://www.w3.org/1999/xlink" fill-opacity="1" color-rendering="auto" color-interpolation="auto" stroke="black" text-rendering="auto" stroke-linecap="square" width="598" stroke-miterlimit="10" stroke-opacity="1" shape-rendering="auto" fill="black" stroke-dasharray="none" font-weight="normal" stroke-width="1" height="598" font-family="'Dialog'" font-style="normal" stroke-linejoin="miter" font-size="12" stroke-dashoffset="0" image-rendering="auto">
  <!--Generated by ySVG-->
  <defs id="genericDefs"/>
  <g>
    <defs id="defs1">
      <clipPath clipPathUnits="userSpaceOnUse" id="clipPath1">
        <path d="M0 0 L598 0 L598 598 L0 598 L0 0 Z"/>
      </clipPath>
      <clipPath clipPathUnits="userSpaceOnUse" id="clipPath2">
        <path d="M500.11 216.9804 L574.27 216.9804 L574.27 240.1132 L500.11 240.1132 L500.11 216.9804 Z"/>
      </clipPath>
      <clipPath clipPathUnits="userSpaceOnUse" id="clipPath3">
        <path d="M743.3689 136.623 C743.3689 145.6569 688.9135 152.9804 621.7394 152.9804 C554.5654 152.9804 500.11 145.6569 500.11 136.623 C500.11 127.5891 554.5654 120.2656 621.7394 120.2656 C688.9135 120.2656 743.3689 127.5891 743.3689 136.623 Z"/>
      </clipPath>
      <clipPath clipPathUnits="userSpaceOnUse" id="clipPath4">
        <path d="M500.11 0 L637.1 0 L637.1 23.1328 L500.11 23.1328 L500.11 0 Z"/>
      </clipPath>
      <clipPath clipPathUnits="userSpaceOnUse" id="clipPath5">
        <path d="M500.11 33.1328 L618.56 33.1328 L618.56 56.2656 L500.11 56.2656 L500.11 33.1328 Z"/>
      </clipPath>
      <clipPath clipPathUnits="userSpaceOnUse" id="clipPath6">
        <path d="M-510.11 0 L-348.4 0 L-348.4 23.1328 L-510.11 23.1328 L-510.11 0 Z"/>
      </clipPath>
      <clipPath clipPathUnits="userSpaceOnUse" id="clipPath7">
        <path d="M-510.11 33.1328 L-314.41 33.1328 L-314.41 56.2656 L-510.11 56.2656 L-510.11 33.1328 Z"/>
      </clipPath>
      <clipPath clipPathUnits="userSpaceOnUse" id="clipPath8">
        <path d="M16.48 -107.1328 L381.1 -107.1328 L381.1 -84 L16.48 -84 L16.48 -107.1328 Z"/>
      </clipPath>
      <clipPath clipPathUnits="userSpaceOnUse" id="clipPath9">
        <path d="M0 0 L397.58 0 L397.58 248.1132 L0 248.1132 L0 0 Z"/>
      </clipPath>
      <script type="text/ecmascript"><![CDATA[
function umlload(newLocation)
{
if (newLocation.charAt(0) != '#') {
if (newLocation.indexOf("://") > -1) {
window.parent.location.href = newLocation;
} else {
var tmp = window.parent.location.href;
tmp = tmp.substring(0, tmp.lastIndexOf("/") + 1);
window.parent.location.href = tmp.concat(newLocation);
}
} else {
window.parent.location.hash = newLocation;
}
}
]]></script>
    </defs>
    <g fill="rgb(238,238,255)" transform="matrix(0.4041,0,0,0.4041,209.7041,267.0797)" stroke="rgb(238,238,255)">
      <rect width="145.0997" x="492.11" height="17.9688" y="190.9804" stroke="none"/>
    </g>
    <g fill="rgb(166,166,178)" stroke-miterlimit="1.45" transform="matrix(0.4041,0,0,0.4041,209.7041,267.0797)" stroke-linecap="butt" stroke="rgb(166,166,178)">
      <rect fill="none" width="145.0997" x="492.11" height="17.9688" y="190.9804"/>
    </g>
    <g fill="rgb(238,238,255)" transform="matrix(0.4041,0,0,0.4041,209.7041,267.0797)" stroke="rgb(238,238,255)">
      <rect width="147.16" x="492.11" height="39.1641" y="208.9491" stroke="none"/>
    </g>
    <g fill="rgb(166,166,178)" stroke-miterlimit="1.45" transform="matrix(0.4041,0,0,0.4041,209.7041,267.0797)" stroke-linecap="butt" stroke="rgb(166,166,178)">
      <rect fill="none" width="147.16" x="492.11" height="39.1641" y="208.9491"/>
    </g>
    <g font-family="sans-serif" transform="matrix(0.4041,0,0,0.4041,209.7041,267.0797)">
      <text xml:space="preserve" x="498.11" y="204.119" onclick="umlload('http://docs.oracle.com/javase/6/docs/api/java/util/concurrent/package-summary.html')" stroke="none">java.util.concurrent</text>
    </g>
    <g fill="rgb(204,204,255)" transform="matrix(0.4041,0,0,0.4041,209.7041,267.0797)" stroke="rgb(204,204,255)">
      <rect x="500.11" y="216.9804" clip-path="url(#clipPath2)" width="74.16" height="23.1328" stroke="none"/>
    </g>
    <g fill="rgb(142,142,178)" stroke-miterlimit="1.45" transform="matrix(0.4041,0,0,0.4041,209.7041,267.0797)" stroke-linecap="butt" stroke="rgb(142,142,178)">
      <rect fill="none" width="74.16" x="500.11" height="23.1328" y="216.9804"/>
    </g>
    <g font-size="13" font-weight="bold" font-family="sans-serif" transform="matrix(0.4041,0,0,0.4041,209.7041,267.0797)">
      <text xml:space="preserve" x="505.19" y="233.0473" onclick="umlload('http://docs.oracle.com/javase/6/docs/api/java/util/concurrent/TimeUnit.html')" stroke="none">TimeUnit</text>
    </g>
    <g fill="rgb(238,238,255)" transform="matrix(0.4041,0,0,0.4041,209.7041,267.0797)" stroke="rgb(238,238,255)">
      <rect width="435.7863" x="492.11" height="17.9688" y="94.2656" stroke="none"/>
    </g>
    <g fill="rgb(166,166,178)" stroke-miterlimit="1.45" transform="matrix(0.4041,0,0,0.4041,209.7041,267.0797)" stroke-linecap="butt" stroke="rgb(166,166,178)">
      <rect fill="none" width="435.7863" x="492.11" height="17.9688" y="94.2656"/>
    </g>
    <g fill="rgb(238,238,255)" transform="matrix(0.4041,0,0,0.4041,209.7041,267.0797)" stroke="rgb(238,238,255)">
      <rect width="436.2589" x="492.11" height="48.746" y="112.2344" stroke="none"/>
    </g>
    <g fill="rgb(166,166,178)" stroke-miterlimit="1.45" transform="matrix(0.4041,0,0,0.4041,209.7041,267.0797)" stroke-linecap="butt" stroke="rgb(166,166,178)">
      <rect fill="none" width="436.2589" x="492.11" height="48.746" y="112.2344"/>
    </g>
    <g font-family="sans-serif" transform="matrix(0.4041,0,0,0.4041,209.7041,267.0797)">
      <text xml:space="preserve" x="498.11" y="107.4043" onclick="umlload('../../../../../../../com/msopentech/odatajclient/engine/communication/response/package-summary.html')" stroke="none">com.msopentech.odatajclient.engine.communication.response</text>
    </g>
    <g fill="rgb(221,221,255)" transform="matrix(0.4041,0,0,0.4041,209.7041,267.0797)" stroke="rgb(221,221,255)">
      <rect x="500.11" y="120.2656" clip-path="url(#clipPath3)" width="243.2589" height="32.7147" stroke="none"/>
    </g>
    <g fill="rgb(154,154,178)" stroke-miterlimit="1.45" transform="matrix(0.4041,0,0,0.4041,209.7041,267.0797)" stroke-linecap="butt" stroke="rgb(154,154,178)">
      <ellipse rx="121.6294" fill="none" ry="16.3574" cx="621.7394" cy="136.623"/>
    </g>
    <g font-style="italic" font-size="13" font-weight="bold" font-family="sans-serif" transform="matrix(0.4041,0,0,0.4041,209.7041,267.0797)">
      <text xml:space="preserve" x="542.2394" y="141.1235" onclick="umlload('../../../../../../../com/msopentech/odatajclient/engine/communication/response/ODataBatchResponse.html')" stroke="none">ODataBatchResponse</text>
    </g>
    <g fill="rgb(238,238,255)" transform="matrix(0.4041,0,0,0.4041,209.7041,267.0797)" stroke="rgb(238,238,255)">
      <rect width="467.6133" x="492.11" height="17.9688" y="-26" stroke="none"/>
    </g>
    <g fill="rgb(166,166,178)" stroke-miterlimit="1.45" transform="matrix(0.4041,0,0,0.4041,209.7041,267.0797)" stroke-linecap="butt" stroke="rgb(166,166,178)">
      <rect fill="none" width="467.6133" x="492.11" height="17.9688" y="-26"/>
    </g>
    <g fill="rgb(238,238,255)" transform="matrix(0.4041,0,0,0.4041,209.7041,267.0797)" stroke="rgb(238,238,255)">
      <rect width="467.99" x="492.11" height="72.2969" y="-8.0312" stroke="none"/>
    </g>
    <g fill="rgb(166,166,178)" stroke-miterlimit="1.45" transform="matrix(0.4041,0,0,0.4041,209.7041,267.0797)" stroke-linecap="butt" stroke="rgb(166,166,178)">
      <rect fill="none" width="467.99" x="492.11" height="72.2969" y="-8.0312"/>
    </g>
    <g font-family="sans-serif" transform="matrix(0.4041,0,0,0.4041,209.7041,267.0797)">
      <text xml:space="preserve" x="498.11" y="-12.8613" onclick="umlload('../../../../../../../com/msopentech/odatajclient/engine/communication/request/batch/package-summary.html')" stroke="none">com.msopentech.odatajclient.engine.communication.request.batch</text>
    </g>
    <g fill="rgb(187,187,255)" transform="matrix(0.4041,0,0,0.4041,209.7041,267.0797)" stroke="rgb(187,187,255)">
      <rect x="500.11" y="0" clip-path="url(#clipPath4)" width="136.99" height="23.1328" stroke="none"/>
    </g>
    <g fill="rgb(130,130,178)" stroke-miterlimit="1.45" transform="matrix(0.4041,0,0,0.4041,209.7041,267.0797)" stroke-linecap="butt" stroke="rgb(130,130,178)">
      <rect fill="none" width="136.99" x="500.11" height="23.1328" y="0"/>
    </g>
    <g font-size="13" font-weight="bold" font-family="sans-serif" transform="matrix(0.4041,0,0,0.4041,209.7041,267.0797)">
      <text xml:space="preserve" x="506.105" y="16.0669" onclick="umlload('../../../../../../../com/msopentech/odatajclient/engine/communication/request/batch/ODataChangeset.html')" stroke="none">ODataChangeset</text>
    </g>
    <g fill="rgb(187,187,255)" transform="matrix(0.4041,0,0,0.4041,209.7041,267.0797)" stroke="rgb(187,187,255)">
      <rect x="500.11" y="33.1328" clip-path="url(#clipPath5)" width="118.45" height="23.1328" stroke="none"/>
    </g>
    <g fill="rgb(130,130,178)" stroke-miterlimit="1.45" transform="matrix(0.4041,0,0,0.4041,209.7041,267.0797)" stroke-linecap="butt" stroke="rgb(130,130,178)">
      <rect fill="none" width="118.45" x="500.11" height="23.1328" y="33.1328"/>
    </g>
    <g font-size="13" font-weight="bold" font-family="sans-serif" transform="matrix(0.4041,0,0,0.4041,209.7041,267.0797)">
      <text xml:space="preserve" x="505.835" y="49.1997" onclick="umlload('../../../../../../../com/msopentech/odatajclient/engine/communication/request/batch/ODataRetrieve.html')" stroke="none">ODataRetrieve</text>
    </g>
    <g fill="rgb(238,238,255)" transform="matrix(0.4041,0,0,0.4041,209.7041,267.0797)" stroke="rgb(238,238,255)">
      <rect width="467.6133" x="-518.11" height="17.9688" y="-26" stroke="none"/>
    </g>
    <g fill="rgb(166,166,178)" stroke-miterlimit="1.45" transform="matrix(0.4041,0,0,0.4041,209.7041,267.0797)" stroke-linecap="butt" stroke="rgb(166,166,178)">
      <rect fill="none" width="467.6133" x="-518.11" height="17.9688" y="-26"/>
    </g>
    <g fill="rgb(238,238,255)" transform="matrix(0.4041,0,0,0.4041,209.7041,267.0797)" stroke="rgb(238,238,255)">
      <rect width="467.7" x="-518.11" height="72.2969" y="-8.0312" stroke="none"/>
    </g>
    <g fill="rgb(166,166,178)" stroke-miterlimit="1.45" transform="matrix(0.4041,0,0,0.4041,209.7041,267.0797)" stroke-linecap="butt" stroke="rgb(166,166,178)">
      <rect fill="none" width="467.7" x="-518.11" height="72.2969" y="-8.0312"/>
    </g>
    <g font-family="sans-serif" transform="matrix(0.4041,0,0,0.4041,209.7041,267.0797)">
      <text xml:space="preserve" x="-512.11" y="-12.8613" onclick="umlload('../../../../../../../com/msopentech/odatajclient/engine/communication/request/batch/package-summary.html')" stroke="none">com.msopentech.odatajclient.engine.communication.request.batch</text>
    </g>
    <g fill="rgb(187,187,255)" transform="matrix(0.4041,0,0,0.4041,209.7041,267.0797)" stroke="rgb(187,187,255)">
      <rect x="-510.11" y="0" clip-path="url(#clipPath6)" width="161.71" height="23.1328" stroke="none"/>
    </g>
    <g fill="rgb(130,130,178)" stroke-miterlimit="1.45" transform="matrix(0.4041,0,0,0.4041,209.7041,267.0797)" stroke-linecap="butt" stroke="rgb(130,130,178)">
      <rect fill="none" width="161.71" x="-510.11" height="23.1328" y="0"/>
    </g>
    <g font-size="13" font-weight="bold" font-family="sans-serif" transform="matrix(0.4041,0,0,0.4041,209.7041,267.0797)">
      <text xml:space="preserve" x="-503.755" y="16.0669" onclick="umlload('../../../../../../../com/msopentech/odatajclient/engine/communication/request/batch/ODataBatchRequest.html')" stroke="none">ODataBatchRequest</text>
    </g>
    <g fill="rgb(204,204,255)" transform="matrix(0.4041,0,0,0.4041,209.7041,267.0797)" stroke="rgb(204,204,255)">
      <rect x="-510.11" y="33.1328" clip-path="url(#clipPath7)" width="195.7" height="23.1328" stroke="none"/>
    </g>
    <g fill="rgb(142,142,178)" stroke-miterlimit="1.45" transform="matrix(0.4041,0,0,0.4041,209.7041,267.0797)" stroke-linecap="butt" stroke="rgb(142,142,178)">
      <rect fill="none" width="195.7" x="-510.11" height="23.1328" y="33.1328"/>
    </g>
    <g font-size="13" font-weight="bold" font-family="sans-serif" transform="matrix(0.4041,0,0,0.4041,209.7041,267.0797)">
      <text xml:space="preserve" x="-503.26" y="49.1997" onclick="umlload('../../../../../../../com/msopentech/odatajclient/engine/communication/request/batch/ODataBatchRequestItem.html')" stroke="none">ODataBatchRequestItem</text>
    </g>
    <g fill="rgb(238,238,255)" transform="matrix(0.4041,0,0,0.4041,209.7041,267.0797)" stroke="rgb(238,238,255)">
      <rect width="425.1773" x="-5.52" height="17.9688" y="-133.1328" stroke="none"/>
    </g>
    <g fill="rgb(166,166,178)" stroke-miterlimit="1.45" transform="matrix(0.4041,0,0,0.4041,209.7041,267.0797)" stroke-linecap="butt" stroke="rgb(166,166,178)">
      <rect fill="none" width="425.1773" x="-5.52" height="17.9688" y="-133.1328"/>
    </g>
    <g fill="rgb(238,238,255)" transform="matrix(0.4041,0,0,0.4041,209.7041,267.0797)" stroke="rgb(238,238,255)">
      <rect width="425.1773" x="-5.52" height="39.1641" y="-115.1641" stroke="none"/>
    </g>
    <g fill="rgb(166,166,178)" stroke-miterlimit="1.45" transform="matrix(0.4041,0,0,0.4041,209.7041,267.0797)" stroke-linecap="butt" stroke="rgb(166,166,178)">
      <rect fill="none" width="425.1773" x="-5.52" height="39.1641" y="-115.1641"/>
    </g>
    <g font-family="sans-serif" transform="matrix(0.4041,0,0,0.4041,209.7041,267.0797)">
      <text xml:space="preserve" x="0.48" y="-119.9941" onclick="umlload('../../../../../../../com/msopentech/odatajclient/engine/communication/request/package-summary.html')" stroke="none">com.msopentech.odatajclient.engine.communication.request</text>
    </g>
    <g fill="rgb(204,204,255)" transform="matrix(0.4041,0,0,0.4041,209.7041,267.0797)" stroke="rgb(204,204,255)">
      <rect x="16.48" y="-107.1328" clip-path="url(#clipPath8)" width="364.62" height="23.1328" stroke="none"/>
    </g>
    <g fill="rgb(142,142,178)" stroke-miterlimit="1.45" transform="matrix(0.4041,0,0,0.4041,209.7041,267.0797)" stroke-linecap="butt" stroke="rgb(142,142,178)">
      <rect fill="none" width="364.62" x="16.48" height="23.1328" y="-107.1328"/>
    </g>
    <g font-size="13" font-weight="bold" font-family="sans-serif" transform="matrix(0.4041,0,0,0.4041,209.7041,267.0797)">
      <text xml:space="preserve" x="25.79" y="-91.0659" onclick="umlload('../../../../../../../com/msopentech/odatajclient/engine/communication/request/ODataStreamManager.html')" stroke="none">ODataStreamManager&lt;ODataBatchResponse&gt;</text>
    </g>
    <g fill="rgb(238,238,255)" transform="matrix(0.4041,0,0,0.4041,209.7041,267.0797)" stroke="rgb(238,238,255)">
      <rect width="467.6133" x="-8" height="17.9688" y="-26" stroke="none"/>
    </g>
    <g fill="rgb(166,166,178)" stroke-miterlimit="1.45" transform="matrix(0.4041,0,0,0.4041,209.7041,267.0797)" stroke-linecap="butt" stroke="rgb(166,166,178)">
      <rect fill="none" width="467.6133" x="-8" height="17.9688" y="-26"/>
    </g>
    <g fill="rgb(238,238,255)" transform="matrix(0.4041,0,0,0.4041,209.7041,267.0797)" stroke="rgb(238,238,255)">
      <rect width="467.6133" x="-8" height="264.1444" y="-8.0312" stroke="none"/>
    </g>
    <g fill="rgb(166,166,178)" stroke-miterlimit="1.45" transform="matrix(0.4041,0,0,0.4041,209.7041,267.0797)" stroke-linecap="butt" stroke="rgb(166,166,178)">
      <rect fill="none" width="467.6133" x="-8" height="264.1444" y="-8.0312"/>
    </g>
    <g font-family="sans-serif" transform="matrix(0.4041,0,0,0.4041,209.7041,267.0797)">
      <text xml:space="preserve" x="-2" y="-12.8613" onclick="umlload('package-summary.html')" stroke="none">com.msopentech.odatajclient.engine.communication.request.batch</text>
    </g>
    <g fill="rgb(187,187,255)" transform="matrix(0.4041,0,0,0.4041,209.7041,267.0797)" stroke="rgb(187,187,255)">
      <rect x="0" y="0" clip-path="url(#clipPath9)" width="397.58" height="26.625" stroke="none"/>
      <line clip-path="url(#clipPath9)" fill="none" x1="0" x2="397.58" y1="26.625" y2="26.625" stroke="black"/>
      <line clip-path="url(#clipPath9)" x1="0" x2="397.58" y1="27.625" y2="27.625" stroke="none"/>
      <line clip-path="url(#clipPath9)" fill="none" x1="0" x2="397.58" y1="27.625" y2="27.625" stroke="black"/>
      <rect x="0" y="28.625" clip-path="url(#clipPath9)" width="397.58" height="219.4882" stroke="none"/>
    </g>
    <g fill="rgb(130,130,178)" stroke-miterlimit="1.45" transform="matrix(0.4041,0,0,0.4041,209.7041,267.0797)" stroke-linecap="butt" stroke="rgb(130,130,178)">
      <rect fill="none" width="397.58" x="0" height="248.1132" y="0"/>
    </g>
    <g font-size="16" font-weight="bold" font-family="sans-serif" transform="matrix(0.4041,0,0,0.4041,209.7041,267.0797)">
      <text xml:space="preserve" x="9.79" y="18.8516" onclick="umlload('#')" stroke="none">ODataBatchRequest.BatchStreamManager</text>
    </g>
    <g font-family="sans-serif" transform="matrix(0.4041,0,0,0.4041,209.7041,267.0797)">
      <text xml:space="preserve" x="4" y="39.1719" stroke="none">+</text>
      <text xml:space="preserve" x="19" y="40.7637" onclick="umlload('#addChangeset()')" stroke="none">addChangeset() : ODataChangeset</text>
    </g>
    <g font-family="sans-serif" transform="matrix(0.4041,0,0,0.4041,209.7041,267.0797)">
      <text xml:space="preserve" x="4" y="55.1719" stroke="none">+</text>
      <text xml:space="preserve" x="19" y="56.7324" onclick="umlload('#addRetrieve()')" stroke="none">addRetrieve() : ODataRetrieve</text>
    </g>
    <g font-family="sans-serif" transform="matrix(0.4041,0,0,0.4041,209.7041,267.0797)">
      <text xml:space="preserve" x="4" y="71.1719" stroke="none">#</text>
      <text xml:space="preserve" x="19" y="72.7012" onclick="umlload('#getResponse(long, java.util.concurrent.TimeUnit)')" stroke="none">getResponse(long, TimeUnit) : ODataBatchResponse</text>
    </g>
    <g font-family="sans-serif" transform="matrix(0.4041,0,0,0.4041,209.7041,267.0797)">
      <text xml:space="preserve" x="-513" y="281.1543" onclick="umlload('http://www.yworks.com/')" stroke="none">yWorks UML Doclet</text>
    </g>
    <g stroke-miterlimit="1.45" transform="matrix(0.4041,0,0,0.4041,209.7041,267.0797)" stroke-linecap="butt">
      <path fill="none" d="M198.79 0.0046 L198.79 -69"/>
      <path fill="white" d="M198.79 -84 L192.79 -68 L204.79 -68 Z" stroke="none"/>
      <path fill="none" d="M198.79 -84 L192.79 -68 L204.79 -68 Z"/>
      <path fill="none" d="M0.0343 11.5664 L-348.4 11.5664"/>
      <line stroke-linecap="square" transform="matrix(-1,0,0,-1,-348.4,11.5664)" fill="none" x1="0" x2="-14" y1="0" y2="-4" stroke-miterlimit="10"/>
      <line stroke-linecap="square" transform="matrix(-1,0,0,-1,-348.4,11.5664)" fill="none" x1="0" x2="-14" y1="0" y2="4" stroke-miterlimit="10"/>
    </g>
    <g stroke-miterlimit="1.45" transform="matrix(0.4041,0,0,0.4041,209.7041,267.0797)" stroke-linecap="butt">
      <path fill="none" d="M-0.0325 44.6992 L-314.41 44.6992"/>
      <line stroke-linecap="square" transform="matrix(-1,0,0,-1,-314.41,44.6992)" fill="none" x1="0" x2="-14" y1="0" y2="-4" stroke-miterlimit="10"/>
      <line stroke-linecap="square" transform="matrix(-1,0,0,-1,-314.41,44.6992)" fill="none" x1="0" x2="-14" y1="0" y2="4" stroke-miterlimit="10"/>
    </g>
    <g stroke-dasharray="6,2" stroke-miterlimit="1.45" transform="matrix(0.4041,0,0,0.4041,209.7041,267.0797)" stroke-linecap="butt">
      <path fill="none" d="M397.5565 11.5664 L500.11 11.5664"/>
      <line stroke-linecap="square" transform="matrix(1,0,0,1,500.11,11.5664)" fill="none" x1="0" x2="-14" y1="0" y2="-4" stroke-dasharray="none" stroke-miterlimit="10"/>
      <line stroke-linecap="square" transform="matrix(1,0,0,1,500.11,11.5664)" fill="none" x1="0" x2="-14" y1="0" y2="4" stroke-dasharray="none" stroke-miterlimit="10"/>
    </g>
    <g stroke-dasharray="6,2" stroke-miterlimit="1.45" transform="matrix(0.4041,0,0,0.4041,209.7041,267.0797)" stroke-linecap="butt">
      <path fill="none" d="M397.5915 44.6992 L500.11 44.6992"/>
      <line stroke-linecap="square" transform="matrix(1,0,0,1,500.11,44.6992)" fill="none" x1="0" x2="-14" y1="0" y2="-4" stroke-dasharray="none" stroke-miterlimit="10"/>
      <line stroke-linecap="square" transform="matrix(1,0,0,1,500.11,44.6992)" fill="none" x1="0" x2="-14" y1="0" y2="4" stroke-dasharray="none" stroke-miterlimit="10"/>
    </g>
    <g stroke-dasharray="6,2" stroke-miterlimit="1.45" transform="matrix(0.4041,0,0,0.4041,209.7041,267.0797)" stroke-linecap="butt">
      <path fill="none" d="M397.5897 136.623 L500.11 136.623"/>
      <line stroke-linecap="square" transform="matrix(1,0,0,1,500.11,136.623)" fill="none" x1="0" x2="-14" y1="0" y2="-4" stroke-dasharray="none" stroke-miterlimit="10"/>
      <line stroke-linecap="square" transform="matrix(1,0,0,1,500.11,136.623)" fill="none" x1="0" x2="-14" y1="0" y2="4" stroke-dasharray="none" stroke-miterlimit="10"/>
    </g>
    <g stroke-dasharray="6,2" stroke-miterlimit="1.45" transform="matrix(0.4041,0,0,0.4041,209.7041,267.0797)" stroke-linecap="butt">
      <path fill="none" d="M397.6083 228.5468 L500.11 228.5468"/>
      <line stroke-linecap="square" transform="matrix(1,0,0,1,500.11,228.5468)" fill="none" x1="0" x2="-14" y1="0" y2="-4" stroke-dasharray="none" stroke-miterlimit="10"/>
      <line stroke-linecap="square" transform="matrix(1,0,0,1,500.11,228.5468)" fill="none" x1="0" x2="-14" y1="0" y2="4" stroke-dasharray="none" stroke-miterlimit="10"/>
    </g>
  </g>
</svg>
