<?xml version="1.0" encoding="UTF-8"?><svg xmlns="http://www.w3.org/2000/svg" xmlns:xlink="http://www.w3.org/1999/xlink" fill-opacity="1" color-rendering="auto" color-interpolation="auto" stroke="black" text-rendering="auto" stroke-linecap="square" width="598" stroke-miterlimit="10" stroke-opacity="1" shape-rendering="auto" fill="black" stroke-dasharray="none" font-weight="normal" stroke-width="1" height="598" font-family="'Dialog'" font-style="normal" stroke-linejoin="miter" font-size="12" stroke-dashoffset="0" image-rendering="auto">
  <!--Generated by ySVG-->
  <defs id="genericDefs"/>
  <g>
    <defs id="defs1">
      <clipPath clipPathUnits="userSpaceOnUse" id="clipPath1">
        <path d="M0 0 L598 0 L598 598 L0 598 L0 0 Z"/>
      </clipPath>
      <clipPath clipPathUnits="userSpaceOnUse" id="clipPath2">
        <path d="M500.11 87.1328 L553.67 87.1328 L553.67 110.2656 L500.11 110.2656 L500.11 87.1328 Z"/>
      </clipPath>
      <clipPath clipPathUnits="userSpaceOnUse" id="clipPath3">
        <path d="M500.11 0 L661.82 0 L661.82 23.1328 L500.11 23.1328 L500.11 0 Z"/>
      </clipPath>
      <clipPath clipPathUnits="userSpaceOnUse" id="clipPath4">
        <path d="M134.93 -107.1328 L192.61 -107.1328 L192.61 -84 L134.93 -84 L134.93 -107.1328 Z"/>
      </clipPath>
      <clipPath clipPathUnits="userSpaceOnUse" id="clipPath5">
        <path d="M0 0 L327.54 0 L327.54 118.2656 L0 118.2656 L0 0 Z"/>
      </clipPath>
      <script type="text/ecmascript"><![CDATA[
function umlload(newLocation)
{
if (newLocation.charAt(0) != '#') {
if (newLocation.indexOf("://") > -1) {
window.parent.location.href = newLocation;
} else {
var tmp = window.parent.location.href;
tmp = tmp.substring(0, tmp.lastIndexOf("/") + 1);
window.parent.location.href = tmp.concat(newLocation);
}
} else {
window.parent.location.hash = newLocation;
}
}
]]></script>
    </defs>
    <g fill="rgb(238,238,255)" transform="matrix(0.6178,0,0,0.6178,4.9421,290.3512)" stroke="rgb(238,238,255)">
      <rect width="76.1412" x="492.11" height="17.9688" y="61.1328" stroke="none"/>
    </g>
    <g fill="rgb(166,166,178)" stroke-miterlimit="1.45" transform="matrix(0.6178,0,0,0.6178,4.9421,290.3512)" stroke-linecap="butt" stroke="rgb(166,166,178)">
      <rect fill="none" width="76.1412" x="492.11" height="17.9688" y="61.1328"/>
    </g>
    <g fill="rgb(238,238,255)" transform="matrix(0.6178,0,0,0.6178,4.9421,290.3512)" stroke="rgb(238,238,255)">
      <rect width="79.56" x="492.11" height="39.1641" y="79.1016" stroke="none"/>
    </g>
    <g fill="rgb(166,166,178)" stroke-miterlimit="1.45" transform="matrix(0.6178,0,0,0.6178,4.9421,290.3512)" stroke-linecap="butt" stroke="rgb(166,166,178)">
      <rect fill="none" width="79.56" x="492.11" height="39.1641" y="79.1016"/>
    </g>
    <g font-family="sans-serif" transform="matrix(0.6178,0,0,0.6178,4.9421,290.3512)">
      <text xml:space="preserve" x="498.11" y="74.2715" onclick="umlload('http://docs.oracle.com/javase/6/docs/api/java/lang/package-summary.html')" stroke="none">java.lang</text>
    </g>
    <g fill="rgb(187,187,255)" transform="matrix(0.6178,0,0,0.6178,4.9421,290.3512)" stroke="rgb(187,187,255)">
      <rect x="500.11" y="87.1328" clip-path="url(#clipPath2)" width="53.56" height="23.1328" stroke="none"/>
    </g>
    <g fill="rgb(130,130,178)" stroke-miterlimit="1.45" transform="matrix(0.6178,0,0,0.6178,4.9421,290.3512)" stroke-linecap="butt" stroke="rgb(130,130,178)">
      <rect fill="none" width="53.56" x="500.11" height="23.1328" y="87.1328"/>
    </g>
    <g font-size="13" font-weight="bold" font-family="sans-serif" transform="matrix(0.6178,0,0,0.6178,4.9421,290.3512)">
      <text xml:space="preserve" x="504.89" y="103.1997" onclick="umlload('http://docs.oracle.com/javase/6/docs/api/java/lang/String.html')" stroke="none">String</text>
    </g>
    <g fill="rgb(238,238,255)" transform="matrix(0.6178,0,0,0.6178,4.9421,290.3512)" stroke="rgb(238,238,255)">
      <rect width="467.6133" x="492.11" height="17.9688" y="-26" stroke="none"/>
    </g>
    <g fill="rgb(166,166,178)" stroke-miterlimit="1.45" transform="matrix(0.6178,0,0,0.6178,4.9421,290.3512)" stroke-linecap="butt" stroke="rgb(166,166,178)">
      <rect fill="none" width="467.6133" x="492.11" height="17.9688" y="-26"/>
    </g>
    <g fill="rgb(238,238,255)" transform="matrix(0.6178,0,0,0.6178,4.9421,290.3512)" stroke="rgb(238,238,255)">
      <rect width="467.71" x="492.11" height="39.1641" y="-8.0312" stroke="none"/>
    </g>
    <g fill="rgb(166,166,178)" stroke-miterlimit="1.45" transform="matrix(0.6178,0,0,0.6178,4.9421,290.3512)" stroke-linecap="butt" stroke="rgb(166,166,178)">
      <rect fill="none" width="467.71" x="492.11" height="39.1641" y="-8.0312"/>
    </g>
    <g font-family="sans-serif" transform="matrix(0.6178,0,0,0.6178,4.9421,290.3512)">
      <text xml:space="preserve" x="498.11" y="-12.8613" onclick="umlload('../../../../../../../com/msopentech/odatajclient/engine/communication/request/batch/package-summary.html')" stroke="none">com.msopentech.odatajclient.engine.communication.request.batch</text>
    </g>
    <g fill="rgb(187,187,255)" transform="matrix(0.6178,0,0,0.6178,4.9421,290.3512)" stroke="rgb(187,187,255)">
      <rect x="500.11" y="0" clip-path="url(#clipPath3)" width="161.71" height="23.1328" stroke="none"/>
    </g>
    <g fill="rgb(130,130,178)" stroke-miterlimit="1.45" transform="matrix(0.6178,0,0,0.6178,4.9421,290.3512)" stroke-linecap="butt" stroke="rgb(130,130,178)">
      <rect fill="none" width="161.71" x="500.11" height="23.1328" y="0"/>
    </g>
    <g font-size="13" font-weight="bold" font-family="sans-serif" transform="matrix(0.6178,0,0,0.6178,4.9421,290.3512)">
      <text xml:space="preserve" x="506.465" y="16.0669" onclick="umlload('../../../../../../../com/msopentech/odatajclient/engine/communication/request/batch/ODataBatchRequest.html')" stroke="none">ODataBatchRequest</text>
    </g>
    <g fill="rgb(238,238,255)" transform="matrix(0.6178,0,0,0.6178,4.9421,290.3512)" stroke="rgb(238,238,255)">
      <rect width="76.1412" x="126.93" height="17.9688" y="-133.1328" stroke="none"/>
    </g>
    <g fill="rgb(166,166,178)" stroke-miterlimit="1.45" transform="matrix(0.6178,0,0,0.6178,4.9421,290.3512)" stroke-linecap="butt" stroke="rgb(166,166,178)">
      <rect fill="none" width="76.1412" x="126.93" height="17.9688" y="-133.1328"/>
    </g>
    <g fill="rgb(238,238,255)" transform="matrix(0.6178,0,0,0.6178,4.9421,290.3512)" stroke="rgb(238,238,255)">
      <rect width="76.1412" x="126.93" height="39.1641" y="-115.1641" stroke="none"/>
    </g>
    <g fill="rgb(166,166,178)" stroke-miterlimit="1.45" transform="matrix(0.6178,0,0,0.6178,4.9421,290.3512)" stroke-linecap="butt" stroke="rgb(166,166,178)">
      <rect fill="none" width="76.1412" x="126.93" height="39.1641" y="-115.1641"/>
    </g>
    <g font-family="sans-serif" transform="matrix(0.6178,0,0,0.6178,4.9421,290.3512)">
      <text xml:space="preserve" x="132.93" y="-119.9941" onclick="umlload('http://docs.oracle.com/javase/6/docs/api/java/lang/package-summary.html')" stroke="none">java.lang</text>
    </g>
    <g fill="rgb(187,187,255)" transform="matrix(0.6178,0,0,0.6178,4.9421,290.3512)" stroke="rgb(187,187,255)">
      <rect x="134.93" y="-107.1328" clip-path="url(#clipPath4)" width="57.68" height="23.1328" stroke="none"/>
    </g>
    <g fill="rgb(130,130,178)" stroke-miterlimit="1.45" transform="matrix(0.6178,0,0,0.6178,4.9421,290.3512)" stroke-linecap="butt" stroke="rgb(130,130,178)">
      <rect fill="none" width="57.68" x="134.93" height="23.1328" y="-107.1328"/>
    </g>
    <g font-size="13" font-weight="bold" font-family="sans-serif" transform="matrix(0.6178,0,0,0.6178,4.9421,290.3512)">
      <text xml:space="preserve" x="139.77" y="-91.0659" onclick="umlload('http://docs.oracle.com/javase/6/docs/api/java/lang/Object.html')" stroke="none">Object</text>
    </g>
    <g fill="rgb(238,238,255)" transform="matrix(0.6178,0,0,0.6178,4.9421,290.3512)" stroke="rgb(238,238,255)">
      <rect width="467.6133" x="-8" height="17.9688" y="-26" stroke="none"/>
    </g>
    <g fill="rgb(166,166,178)" stroke-miterlimit="1.45" transform="matrix(0.6178,0,0,0.6178,4.9421,290.3512)" stroke-linecap="butt" stroke="rgb(166,166,178)">
      <rect fill="none" width="467.6133" x="-8" height="17.9688" y="-26"/>
    </g>
    <g fill="rgb(238,238,255)" transform="matrix(0.6178,0,0,0.6178,4.9421,290.3512)" stroke="rgb(238,238,255)">
      <rect width="467.6133" x="-8" height="134.2969" y="-8.0312" stroke="none"/>
    </g>
    <g fill="rgb(166,166,178)" stroke-miterlimit="1.45" transform="matrix(0.6178,0,0,0.6178,4.9421,290.3512)" stroke-linecap="butt" stroke="rgb(166,166,178)">
      <rect fill="none" width="467.6133" x="-8" height="134.2969" y="-8.0312"/>
    </g>
    <g font-family="sans-serif" transform="matrix(0.6178,0,0,0.6178,4.9421,290.3512)">
      <text xml:space="preserve" x="-2" y="-12.8613" onclick="umlload('package-summary.html')" stroke="none">com.msopentech.odatajclient.engine.communication.request.batch</text>
    </g>
    <g fill="rgb(187,187,255)" transform="matrix(0.6178,0,0,0.6178,4.9421,290.3512)" stroke="rgb(187,187,255)">
      <rect x="0" y="0" clip-path="url(#clipPath5)" width="327.54" height="26.625" stroke="none"/>
      <line clip-path="url(#clipPath5)" fill="none" x1="0" x2="327.54" y1="26.625" y2="26.625" stroke="black"/>
      <line clip-path="url(#clipPath5)" x1="0" x2="327.54" y1="27.625" y2="27.625" stroke="none"/>
      <line clip-path="url(#clipPath5)" fill="none" x1="0" x2="327.54" y1="27.625" y2="27.625" stroke="black"/>
      <rect x="0" y="28.625" clip-path="url(#clipPath5)" width="327.54" height="89.6406" stroke="none"/>
    </g>
    <g fill="rgb(130,130,178)" stroke-miterlimit="1.45" transform="matrix(0.6178,0,0,0.6178,4.9421,290.3512)" stroke-linecap="butt" stroke="rgb(130,130,178)">
      <rect fill="none" width="327.54" x="0" height="118.2656" y="0"/>
    </g>
    <g font-size="16" font-weight="bold" font-family="sans-serif" transform="matrix(0.6178,0,0,0.6178,4.9421,290.3512)">
      <text xml:space="preserve" x="40.27" y="18.8516" onclick="umlload('#')" stroke="none">ODataBatchRequestFactory</text>
    </g>
    <g font-family="sans-serif" transform="matrix(0.6178,0,0,0.6178,4.9421,290.3512)">
      <text xml:space="preserve" x="4" y="39.1719" stroke="none">+</text>
      <text xml:space="preserve" x="19" y="40.7637" onclick="umlload('#getBatchRequest(java.lang.String)')" stroke="none">getBatchRequest(String) : ODataBatchRequest</text>
      <line y2="43.5938" fill="none" x1="19" x2="314" y1="43.5938"/>
    </g>
    <g font-family="sans-serif" transform="matrix(0.6178,0,0,0.6178,4.9421,290.3512)">
      <text xml:space="preserve" x="-2" y="151.1543" onclick="umlload('http://www.yworks.com/')" stroke="none">yWorks UML Doclet</text>
    </g>
    <g stroke-miterlimit="1.45" transform="matrix(0.6178,0,0,0.6178,4.9421,290.3512)" stroke-linecap="butt">
      <path fill="none" d="M163.77 -0.0039 L163.77 -69"/>
      <path fill="white" d="M163.77 -84 L157.77 -68 L169.77 -68 Z" stroke="none"/>
      <path fill="none" d="M163.77 -84 L157.77 -68 L169.77 -68 Z"/>
      <path fill="none" stroke-dasharray="6,2" d="M327.5262 11.5664 L500.11 11.5664"/>
      <line stroke-linecap="square" transform="matrix(1,0,0,1,500.11,11.5664)" fill="none" x1="0" x2="-14" y1="0" y2="-4" stroke-miterlimit="10"/>
      <line stroke-linecap="square" transform="matrix(1,0,0,1,500.11,11.5664)" fill="none" x1="0" x2="-14" y1="0" y2="4" stroke-miterlimit="10"/>
    </g>
    <g stroke-dasharray="6,2" stroke-miterlimit="1.45" transform="matrix(0.6178,0,0,0.6178,4.9421,290.3512)" stroke-linecap="butt">
      <path fill="none" d="M327.5552 98.6992 L500.11 98.6992"/>
      <line stroke-linecap="square" transform="matrix(1,0,0,1,500.11,98.6992)" fill="none" x1="0" x2="-14" y1="0" y2="-4" stroke-dasharray="none" stroke-miterlimit="10"/>
      <line stroke-linecap="square" transform="matrix(1,0,0,1,500.11,98.6992)" fill="none" x1="0" x2="-14" y1="0" y2="4" stroke-dasharray="none" stroke-miterlimit="10"/>
    </g>
  </g>
</svg>
