<?xml version="1.0" encoding="UTF-8"?><svg xmlns="http://www.w3.org/2000/svg" xmlns:xlink="http://www.w3.org/1999/xlink" fill-opacity="1" color-rendering="auto" color-interpolation="auto" stroke="black" text-rendering="auto" stroke-linecap="square" width="598" stroke-miterlimit="10" stroke-opacity="1" shape-rendering="auto" fill="black" stroke-dasharray="none" font-weight="normal" stroke-width="1" height="598" font-family="'Dialog'" font-style="normal" stroke-linejoin="miter" font-size="12" stroke-dashoffset="0" image-rendering="auto">
  <!--Generated by ySVG-->
  <defs id="genericDefs"/>
  <g>
    <defs id="defs1">
      <clipPath clipPathUnits="userSpaceOnUse" id="clipPath1">
        <path d="M0 0 L598 0 L598 598 L0 598 L0 0 Z"/>
      </clipPath>
      <clipPath clipPathUnits="userSpaceOnUse" id="clipPath2">
        <path d="M-227.89 87.1328 L-132.1 87.1328 L-132.1 110.2656 L-227.89 110.2656 L-227.89 87.1328 Z"/>
      </clipPath>
      <clipPath clipPathUnits="userSpaceOnUse" id="clipPath3">
        <path d="M-130.04 -0 L-76.48 -0 L-76.48 23.1328 L-130.04 23.1328 L-130.04 -0 Z"/>
      </clipPath>
      <clipPath clipPathUnits="userSpaceOnUse" id="clipPath4">
        <path d="M392.5266 -100.3574 C392.5266 -91.3234 350.4622 -84 298.5733 -84 C246.6843 -84 204.62 -91.3234 204.62 -100.3574 C204.62 -109.3913 246.6843 -116.7147 298.5733 -116.7147 C350.4622 -116.7147 392.5266 -109.3913 392.5266 -100.3574 Z"/>
      </clipPath>
      <clipPath clipPathUnits="userSpaceOnUse" id="clipPath5">
        <path d="M100.94 -107.1328 L158.62 -107.1328 L158.62 -84 L100.94 -84 L100.94 -107.1328 Z"/>
      </clipPath>
      <clipPath clipPathUnits="userSpaceOnUse" id="clipPath6">
        <path d="M0 -0 L259.56 -0 L259.56 124.4375 L0 124.4375 L0 -0 Z"/>
      </clipPath>
      <script type="text/ecmascript"><![CDATA[
function umlload(newLocation)
{
if (newLocation.charAt(0) != '#') {
if (newLocation.indexOf("://") > -1) {
window.parent.location.href = newLocation;
} else {
var tmp = window.parent.location.href;
tmp = tmp.substring(0, tmp.lastIndexOf("/") + 1);
window.parent.location.href = tmp.concat(newLocation);
}
} else {
window.parent.location.hash = newLocation;
}
}
]]></script>
    </defs>
    <g fill="rgb(238,238,255)" transform="matrix(0.8592,0,0,0.8592,202.7701,287.8305)" stroke="rgb(238,238,255)">
      <rect width="176.9267" x="-235.89" height="17.9688" y="61.1328" stroke="none"/>
    </g>
    <g fill="rgb(166,166,178)" stroke-miterlimit="1.45" transform="matrix(0.8592,0,0,0.8592,202.7701,287.8305)" stroke-linecap="butt" stroke="rgb(166,166,178)">
      <rect fill="none" width="176.9267" x="-235.89" height="17.9688" y="61.1328"/>
    </g>
    <g fill="rgb(238,238,255)" transform="matrix(0.8592,0,0,0.8592,202.7701,287.8305)" stroke="rgb(238,238,255)">
      <rect width="177.79" x="-235.89" height="39.1641" y="79.1016" stroke="none"/>
    </g>
    <g fill="rgb(166,166,178)" stroke-miterlimit="1.45" transform="matrix(0.8592,0,0,0.8592,202.7701,287.8305)" stroke-linecap="butt" stroke="rgb(166,166,178)">
      <rect fill="none" width="177.79" x="-235.89" height="39.1641" y="79.1016"/>
    </g>
    <g font-family="sans-serif" transform="matrix(0.8592,0,0,0.8592,202.7701,287.8305)">
      <text xml:space="preserve" x="-229.89" y="74.2715" stroke="none">org.apache.commons.io</text>
    </g>
    <g fill="rgb(187,187,255)" transform="matrix(0.8592,0,0,0.8592,202.7701,287.8305)" stroke="rgb(187,187,255)">
      <rect x="-227.89" y="87.1328" clip-path="url(#clipPath2)" width="95.79" height="23.1328" stroke="none"/>
    </g>
    <g fill="rgb(130,130,178)" stroke-miterlimit="1.45" transform="matrix(0.8592,0,0,0.8592,202.7701,287.8305)" stroke-linecap="butt" stroke="rgb(130,130,178)">
      <rect fill="none" width="95.79" x="-227.89" height="23.1328" y="87.1328"/>
    </g>
    <g font-size="13" font-weight="bold" font-family="sans-serif" transform="matrix(0.8592,0,0,0.8592,202.7701,287.8305)">
      <text xml:space="preserve" x="-222.495" y="103.1997" stroke="none">LineIterator</text>
    </g>
    <g fill="rgb(238,238,255)" transform="matrix(0.8592,0,0,0.8592,202.7701,287.8305)" stroke="rgb(238,238,255)">
      <rect width="76.1412" x="-138.04" height="17.9688" y="-26" stroke="none"/>
    </g>
    <g fill="rgb(166,166,178)" stroke-miterlimit="1.45" transform="matrix(0.8592,0,0,0.8592,202.7701,287.8305)" stroke-linecap="butt" stroke="rgb(166,166,178)">
      <rect fill="none" width="76.1412" x="-138.04" height="17.9688" y="-26"/>
    </g>
    <g fill="rgb(238,238,255)" transform="matrix(0.8592,0,0,0.8592,202.7701,287.8305)" stroke="rgb(238,238,255)">
      <rect width="79.56" x="-138.04" height="39.1641" y="-8.0312" stroke="none"/>
    </g>
    <g fill="rgb(166,166,178)" stroke-miterlimit="1.45" transform="matrix(0.8592,0,0,0.8592,202.7701,287.8305)" stroke-linecap="butt" stroke="rgb(166,166,178)">
      <rect fill="none" width="79.56" x="-138.04" height="39.1641" y="-8.0312"/>
    </g>
    <g font-family="sans-serif" transform="matrix(0.8592,0,0,0.8592,202.7701,287.8305)">
      <text xml:space="preserve" x="-132.04" y="-12.8613" onclick="umlload('http://docs.oracle.com/javase/6/docs/api/java/lang/package-summary.html')" stroke="none">java.lang</text>
    </g>
    <g fill="rgb(187,187,255)" transform="matrix(0.8592,0,0,0.8592,202.7701,287.8305)" stroke="rgb(187,187,255)">
      <rect x="-130.04" y="0" clip-path="url(#clipPath3)" width="53.56" height="23.1328" stroke="none"/>
    </g>
    <g fill="rgb(130,130,178)" stroke-miterlimit="1.45" transform="matrix(0.8592,0,0,0.8592,202.7701,287.8305)" stroke-linecap="butt" stroke="rgb(130,130,178)">
      <rect fill="none" width="53.56" x="-130.04" height="23.1328" y="0"/>
    </g>
    <g font-size="13" font-weight="bold" font-family="sans-serif" transform="matrix(0.8592,0,0,0.8592,202.7701,287.8305)">
      <text xml:space="preserve" x="-125.26" y="16.0669" onclick="umlload('http://docs.oracle.com/javase/6/docs/api/java/lang/String.html')" stroke="none">String</text>
    </g>
    <g fill="rgb(238,238,255)" transform="matrix(0.8592,0,0,0.8592,202.7701,287.8305)" stroke="rgb(238,238,255)">
      <rect width="67.654" x="196.62" height="17.9688" y="-142.7147" stroke="none"/>
    </g>
    <g fill="rgb(166,166,178)" stroke-miterlimit="1.45" transform="matrix(0.8592,0,0,0.8592,202.7701,287.8305)" stroke-linecap="butt" stroke="rgb(166,166,178)">
      <rect fill="none" width="67.654" x="196.62" height="17.9688" y="-142.7147"/>
    </g>
    <g fill="rgb(238,238,255)" transform="matrix(0.8592,0,0,0.8592,202.7701,287.8305)" stroke="rgb(238,238,255)">
      <rect width="203.9066" x="196.62" height="48.746" y="-124.746" stroke="none"/>
    </g>
    <g fill="rgb(166,166,178)" stroke-miterlimit="1.45" transform="matrix(0.8592,0,0,0.8592,202.7701,287.8305)" stroke-linecap="butt" stroke="rgb(166,166,178)">
      <rect fill="none" width="203.9066" x="196.62" height="48.746" y="-124.746"/>
    </g>
    <g font-family="sans-serif" transform="matrix(0.8592,0,0,0.8592,202.7701,287.8305)">
      <text xml:space="preserve" x="202.62" y="-129.5761" onclick="umlload('http://docs.oracle.com/javase/6/docs/api/java/util/package-summary.html')" stroke="none">java.util</text>
    </g>
    <g fill="rgb(221,221,255)" transform="matrix(0.8592,0,0,0.8592,202.7701,287.8305)" stroke="rgb(221,221,255)">
      <rect x="204.62" y="-116.7147" clip-path="url(#clipPath4)" width="187.9066" height="32.7147" stroke="none"/>
    </g>
    <g fill="rgb(154,154,178)" stroke-miterlimit="1.45" transform="matrix(0.8592,0,0,0.8592,202.7701,287.8305)" stroke-linecap="butt" stroke="rgb(154,154,178)">
      <ellipse rx="93.9533" fill="none" ry="16.3574" cx="298.5733" cy="-100.3574"/>
    </g>
    <g font-style="italic" font-size="13" font-weight="bold" font-family="sans-serif" transform="matrix(0.8592,0,0,0.8592,202.7701,287.8305)">
      <text xml:space="preserve" x="238.0733" y="-95.8569" onclick="umlload('http://docs.oracle.com/javase/6/docs/api/java/util/Iterator.html')" stroke="none">Iterator&lt;String&gt;</text>
    </g>
    <g fill="rgb(238,238,255)" transform="matrix(0.8592,0,0,0.8592,202.7701,287.8305)" stroke="rgb(238,238,255)">
      <rect width="76.1412" x="92.94" height="17.9688" y="-133.1328" stroke="none"/>
    </g>
    <g fill="rgb(166,166,178)" stroke-miterlimit="1.45" transform="matrix(0.8592,0,0,0.8592,202.7701,287.8305)" stroke-linecap="butt" stroke="rgb(166,166,178)">
      <rect fill="none" width="76.1412" x="92.94" height="17.9688" y="-133.1328"/>
    </g>
    <g fill="rgb(238,238,255)" transform="matrix(0.8592,0,0,0.8592,202.7701,287.8305)" stroke="rgb(238,238,255)">
      <rect width="76.1412" x="92.94" height="39.1641" y="-115.1641" stroke="none"/>
    </g>
    <g fill="rgb(166,166,178)" stroke-miterlimit="1.45" transform="matrix(0.8592,0,0,0.8592,202.7701,287.8305)" stroke-linecap="butt" stroke="rgb(166,166,178)">
      <rect fill="none" width="76.1412" x="92.94" height="39.1641" y="-115.1641"/>
    </g>
    <g font-family="sans-serif" transform="matrix(0.8592,0,0,0.8592,202.7701,287.8305)">
      <text xml:space="preserve" x="98.94" y="-119.9941" onclick="umlload('http://docs.oracle.com/javase/6/docs/api/java/lang/package-summary.html')" stroke="none">java.lang</text>
    </g>
    <g fill="rgb(187,187,255)" transform="matrix(0.8592,0,0,0.8592,202.7701,287.8305)" stroke="rgb(187,187,255)">
      <rect x="100.94" y="-107.1328" clip-path="url(#clipPath5)" width="57.68" height="23.1328" stroke="none"/>
    </g>
    <g fill="rgb(130,130,178)" stroke-miterlimit="1.45" transform="matrix(0.8592,0,0,0.8592,202.7701,287.8305)" stroke-linecap="butt" stroke="rgb(130,130,178)">
      <rect fill="none" width="57.68" x="100.94" height="23.1328" y="-107.1328"/>
    </g>
    <g font-size="13" font-weight="bold" font-family="sans-serif" transform="matrix(0.8592,0,0,0.8592,202.7701,287.8305)">
      <text xml:space="preserve" x="105.78" y="-91.0659" onclick="umlload('http://docs.oracle.com/javase/6/docs/api/java/lang/Object.html')" stroke="none">Object</text>
    </g>
    <g fill="rgb(238,238,255)" transform="matrix(0.8592,0,0,0.8592,202.7701,287.8305)" stroke="rgb(238,238,255)">
      <rect width="467.6133" x="-8" height="17.9688" y="-26" stroke="none"/>
    </g>
    <g fill="rgb(166,166,178)" stroke-miterlimit="1.45" transform="matrix(0.8592,0,0,0.8592,202.7701,287.8305)" stroke-linecap="butt" stroke="rgb(166,166,178)">
      <rect fill="none" width="467.6133" x="-8" height="17.9688" y="-26"/>
    </g>
    <g fill="rgb(238,238,255)" transform="matrix(0.8592,0,0,0.8592,202.7701,287.8305)" stroke="rgb(238,238,255)">
      <rect width="467.6133" x="-8" height="140.4688" y="-8.0312" stroke="none"/>
    </g>
    <g fill="rgb(166,166,178)" stroke-miterlimit="1.45" transform="matrix(0.8592,0,0,0.8592,202.7701,287.8305)" stroke-linecap="butt" stroke="rgb(166,166,178)">
      <rect fill="none" width="467.6133" x="-8" height="140.4688" y="-8.0312"/>
    </g>
    <g font-family="sans-serif" transform="matrix(0.8592,0,0,0.8592,202.7701,287.8305)">
      <text xml:space="preserve" x="-2" y="-12.8613" onclick="umlload('package-summary.html')" stroke="none">com.msopentech.odatajclient.engine.communication.request.batch</text>
    </g>
    <g fill="rgb(187,187,255)" transform="matrix(0.8592,0,0,0.8592,202.7701,287.8305)" stroke="rgb(187,187,255)">
      <rect x="0" y="0" clip-path="url(#clipPath6)" width="259.56" height="26.625" stroke="none"/>
      <line clip-path="url(#clipPath6)" fill="none" x1="0" x2="259.56" y1="26.625" y2="26.625" stroke="black"/>
      <rect x="0" y="27.625" clip-path="url(#clipPath6)" width="259.56" height="15.9688" stroke="none"/>
      <line clip-path="url(#clipPath6)" fill="none" x1="0" x2="259.56" y1="43.5938" y2="43.5938" stroke="black"/>
      <rect x="0" y="44.5938" clip-path="url(#clipPath6)" width="259.56" height="79.8438" stroke="none"/>
    </g>
    <g fill="rgb(130,130,178)" stroke-miterlimit="1.45" transform="matrix(0.8592,0,0,0.8592,202.7701,287.8305)" stroke-linecap="butt" stroke="rgb(130,130,178)">
      <rect fill="none" width="259.56" x="0" height="124.4375" y="0"/>
    </g>
    <g font-size="16" font-weight="bold" font-family="sans-serif" transform="matrix(0.8592,0,0,0.8592,202.7701,287.8305)">
      <text xml:space="preserve" x="23.78" y="18.8516" onclick="umlload('#')" stroke="none">ODataBatchLineIterator</text>
    </g>
    <g font-family="sans-serif" transform="matrix(0.8592,0,0,0.8592,202.7701,287.8305)">
      <text xml:space="preserve" x="4" y="38.1719" stroke="none">+</text>
      <text xml:space="preserve" x="19" y="39.7637" onclick="umlload('#ODataBatchLineIterator(org.apache.commons.io.LineIterator)')" stroke="none">ODataBatchLineIterator(LineIterator)</text>
    </g>
    <g font-family="sans-serif" transform="matrix(0.8592,0,0,0.8592,202.7701,287.8305)">
      <text xml:space="preserve" x="4" y="55.1719" stroke="none">+</text>
      <text xml:space="preserve" x="19" y="56.7324" onclick="umlload('#getCurrent()')" stroke="none">getCurrent() : String</text>
    </g>
    <g font-family="sans-serif" transform="matrix(0.8592,0,0,0.8592,202.7701,287.8305)">
      <text xml:space="preserve" x="4" y="71.1719" stroke="none">+</text>
      <text xml:space="preserve" x="19" y="72.7012" onclick="umlload('#hasNext()')" stroke="none">hasNext() : boolean</text>
    </g>
    <g font-family="sans-serif" transform="matrix(0.8592,0,0,0.8592,202.7701,287.8305)">
      <text xml:space="preserve" x="4" y="87.1719" stroke="none">+</text>
      <text xml:space="preserve" x="19" y="88.6699" onclick="umlload('#next()')" stroke="none">next() : String</text>
    </g>
    <g font-family="sans-serif" transform="matrix(0.8592,0,0,0.8592,202.7701,287.8305)">
      <text xml:space="preserve" x="4" y="103.1719" stroke="none">+</text>
      <text xml:space="preserve" x="19" y="104.6387" onclick="umlload('#nextLine()')" stroke="none">nextLine() : String</text>
    </g>
    <g font-family="sans-serif" transform="matrix(0.8592,0,0,0.8592,202.7701,287.8305)">
      <text xml:space="preserve" x="4" y="119.1719" stroke="none">+</text>
      <text xml:space="preserve" x="19" y="120.6074" onclick="umlload('#remove()')" stroke="none">remove() : void</text>
    </g>
    <g font-family="sans-serif" transform="matrix(0.8592,0,0,0.8592,202.7701,287.8305)">
      <text xml:space="preserve" x="-230" y="157.1543" onclick="umlload('http://www.yworks.com/')" stroke="none">yWorks UML Doclet</text>
    </g>
    <g stroke-miterlimit="1.45" transform="matrix(0.8592,0,0,0.8592,202.7701,287.8305)" stroke-linecap="butt">
      <path fill="none" d="M129.78 0 L129.78 -69"/>
      <path fill="white" d="M129.78 -84 L123.78 -68 L135.78 -68 Z" stroke="none"/>
      <path fill="none" d="M129.78 -84 L123.78 -68 L135.78 -68 Z"/>
      <path fill="none" stroke-dasharray="6,2" d="M194.67 -0.0018 L194.67 -51 L298.5733 -51 L298.5733 -69"/>
      <path fill="white" stroke-dasharray="6,2" d="M298.5733 -84 L292.5733 -68 L304.5733 -68 Z" stroke="none"/>
      <path fill="none" d="M298.5733 -84 L292.5733 -68 L304.5733 -68 Z"/>
      <path fill="none" d="M-0.0249 11.5664 L-76.48 11.5664"/>
      <line stroke-linecap="square" transform="matrix(-1,0,0,-1,-76.48,11.5664)" fill="none" x1="0" x2="-14" y1="0" y2="-4" stroke-miterlimit="10"/>
      <line stroke-linecap="square" transform="matrix(-1,0,0,-1,-76.48,11.5664)" fill="none" x1="0" x2="-14" y1="0" y2="4" stroke-miterlimit="10"/>
    </g>
    <g stroke-miterlimit="1.45" transform="matrix(0.8592,0,0,0.8592,202.7701,287.8305)" stroke-linecap="butt">
      <path fill="none" d="M-0.0366 98.6992 L-132.1 98.6992"/>
      <line stroke-linecap="square" transform="matrix(-1,0,0,-1,-132.1,98.6992)" fill="none" x1="0" x2="-14" y1="0" y2="-4" stroke-miterlimit="10"/>
      <line stroke-linecap="square" transform="matrix(-1,0,0,-1,-132.1,98.6992)" fill="none" x1="0" x2="-14" y1="0" y2="4" stroke-miterlimit="10"/>
    </g>
  </g>
</svg>
