<?xml version="1.0" encoding="UTF-8"?><svg xmlns="http://www.w3.org/2000/svg" xmlns:xlink="http://www.w3.org/1999/xlink" fill-opacity="1" color-rendering="auto" color-interpolation="auto" stroke="black" text-rendering="auto" stroke-linecap="square" width="598" stroke-miterlimit="10" stroke-opacity="1" shape-rendering="auto" fill="black" stroke-dasharray="none" font-weight="normal" stroke-width="1" height="598" font-family="'Dialog'" font-style="normal" stroke-linejoin="miter" font-size="12" stroke-dashoffset="0" image-rendering="auto">
  <!--Generated by ySVG-->
  <defs id="genericDefs"/>
  <g>
    <defs id="defs1">
      <clipPath clipPathUnits="userSpaceOnUse" id="clipPath1">
        <path d="M0 0 L598 0 L598 598 L0 598 L0 0 Z"/>
      </clipPath>
      <clipPath clipPathUnits="userSpaceOnUse" id="clipPath2">
        <path d="M500.11 0 L661.82 0 L661.82 23.1328 L500.11 23.1328 L500.11 0 Z"/>
      </clipPath>
      <clipPath clipPathUnits="userSpaceOnUse" id="clipPath3">
        <path d="M772.5016 49.4902 C772.5016 58.5241 711.5247 65.8475 636.3058 65.8475 C561.087 65.8475 500.11 58.5241 500.11 49.4902 C500.11 40.4563 561.087 33.1328 636.3058 33.1328 C711.5247 33.1328 772.5016 40.4563 772.5016 49.4902 Z"/>
      </clipPath>
      <clipPath clipPathUnits="userSpaceOnUse" id="clipPath4">
        <path d="M-510.11 0 L-283.51 0 L-283.51 23.1328 L-510.11 23.1328 L-510.11 0 Z"/>
      </clipPath>
      <clipPath clipPathUnits="userSpaceOnUse" id="clipPath5">
        <path d="M88.065 -107.1328 L283.765 -107.1328 L283.765 -84 L88.065 -84 L88.065 -107.1328 Z"/>
      </clipPath>
      <clipPath clipPathUnits="userSpaceOnUse" id="clipPath6">
        <path d="M0 0 L371.83 0 L371.83 73.8475 L0 73.8475 L0 0 Z"/>
      </clipPath>
      <script type="text/ecmascript"><![CDATA[
function umlload(newLocation)
{
if (newLocation.charAt(0) != '#') {
if (newLocation.indexOf("://") > -1) {
window.parent.location.href = newLocation;
} else {
var tmp = window.parent.location.href;
tmp = tmp.substring(0, tmp.lastIndexOf("/") + 1);
window.parent.location.href = tmp.concat(newLocation);
}
} else {
window.parent.location.hash = newLocation;
}
}
]]></script>
    </defs>
    <g fill="rgb(238,238,255)" transform="matrix(0.4043,0,0,0.4043,209.8458,302.4368)" stroke="rgb(238,238,255)">
      <rect width="467.6133" x="492.11" height="17.9688" y="-26" stroke="none"/>
    </g>
    <g fill="rgb(166,166,178)" stroke-miterlimit="1.45" transform="matrix(0.4043,0,0,0.4043,209.8458,302.4368)" stroke-linecap="butt" stroke="rgb(166,166,178)">
      <rect fill="none" width="467.6133" x="492.11" height="17.9688" y="-26"/>
    </g>
    <g fill="rgb(238,238,255)" transform="matrix(0.4043,0,0,0.4043,209.8458,302.4368)" stroke="rgb(238,238,255)">
      <rect width="467.6133" x="492.11" height="81.8788" y="-8.0312" stroke="none"/>
    </g>
    <g fill="rgb(166,166,178)" stroke-miterlimit="1.45" transform="matrix(0.4043,0,0,0.4043,209.8458,302.4368)" stroke-linecap="butt" stroke="rgb(166,166,178)">
      <rect fill="none" width="467.6133" x="492.11" height="81.8788" y="-8.0312"/>
    </g>
    <g font-family="sans-serif" transform="matrix(0.4043,0,0,0.4043,209.8458,302.4368)">
      <text xml:space="preserve" x="498.11" y="-12.8613" onclick="umlload('../../../../../../../com/msopentech/odatajclient/engine/communication/request/batch/package-summary.html')" stroke="none">com.msopentech.odatajclient.engine.communication.request.batch</text>
    </g>
    <g fill="rgb(187,187,255)" transform="matrix(0.4043,0,0,0.4043,209.8458,302.4368)" stroke="rgb(187,187,255)">
      <rect x="500.11" y="0" clip-path="url(#clipPath2)" width="161.71" height="23.1328" stroke="none"/>
    </g>
    <g fill="rgb(130,130,178)" stroke-miterlimit="1.45" transform="matrix(0.4043,0,0,0.4043,209.8458,302.4368)" stroke-linecap="butt" stroke="rgb(130,130,178)">
      <rect fill="none" width="161.71" x="500.11" height="23.1328" y="0"/>
    </g>
    <g font-size="13" font-weight="bold" font-family="sans-serif" transform="matrix(0.4043,0,0,0.4043,209.8458,302.4368)">
      <text xml:space="preserve" x="506.465" y="16.0669" onclick="umlload('../../../../../../../com/msopentech/odatajclient/engine/communication/request/batch/ODataBatchRequest.html')" stroke="none">ODataBatchRequest</text>
    </g>
    <g fill="rgb(221,221,255)" transform="matrix(0.4043,0,0,0.4043,209.8458,302.4368)" stroke="rgb(221,221,255)">
      <rect x="500.11" y="33.1328" clip-path="url(#clipPath3)" width="272.3917" height="32.7147" stroke="none"/>
    </g>
    <g fill="rgb(154,154,178)" stroke-miterlimit="1.45" transform="matrix(0.4043,0,0,0.4043,209.8458,302.4368)" stroke-linecap="butt" stroke="rgb(154,154,178)">
      <ellipse rx="136.1958" fill="none" ry="16.3574" cx="636.3058" cy="49.4902"/>
    </g>
    <g font-style="italic" font-size="13" font-weight="bold" font-family="sans-serif" transform="matrix(0.4043,0,0,0.4043,209.8458,302.4368)">
      <text xml:space="preserve" x="546.8058" y="53.9907" onclick="umlload('../../../../../../../com/msopentech/odatajclient/engine/communication/request/batch/ODataBatchableRequest.html')" stroke="none">ODataBatchableRequest</text>
    </g>
    <g fill="rgb(238,238,255)" transform="matrix(0.4043,0,0,0.4043,209.8458,302.4368)" stroke="rgb(238,238,255)">
      <rect width="467.6133" x="-518.11" height="17.9688" y="-26" stroke="none"/>
    </g>
    <g fill="rgb(166,166,178)" stroke-miterlimit="1.45" transform="matrix(0.4043,0,0,0.4043,209.8458,302.4368)" stroke-linecap="butt" stroke="rgb(166,166,178)">
      <rect fill="none" width="467.6133" x="-518.11" height="17.9688" y="-26"/>
    </g>
    <g fill="rgb(238,238,255)" transform="matrix(0.4043,0,0,0.4043,209.8458,302.4368)" stroke="rgb(238,238,255)">
      <rect width="467.6133" x="-518.11" height="39.1641" y="-8.0312" stroke="none"/>
    </g>
    <g fill="rgb(166,166,178)" stroke-miterlimit="1.45" transform="matrix(0.4043,0,0,0.4043,209.8458,302.4368)" stroke-linecap="butt" stroke="rgb(166,166,178)">
      <rect fill="none" width="467.6133" x="-518.11" height="39.1641" y="-8.0312"/>
    </g>
    <g font-family="sans-serif" transform="matrix(0.4043,0,0,0.4043,209.8458,302.4368)">
      <text xml:space="preserve" x="-512.11" y="-12.8613" onclick="umlload('../../../../../../../com/msopentech/odatajclient/engine/communication/request/batch/package-summary.html')" stroke="none">com.msopentech.odatajclient.engine.communication.request.batch</text>
    </g>
    <g fill="rgb(187,187,255)" transform="matrix(0.4043,0,0,0.4043,209.8458,302.4368)" stroke="rgb(187,187,255)">
      <rect x="-510.11" y="0" clip-path="url(#clipPath4)" width="226.6" height="23.1328" stroke="none"/>
    </g>
    <g fill="rgb(130,130,178)" stroke-miterlimit="1.45" transform="matrix(0.4043,0,0,0.4043,209.8458,302.4368)" stroke-linecap="butt" stroke="rgb(130,130,178)">
      <rect fill="none" width="226.6" x="-510.11" height="23.1328" y="0"/>
    </g>
    <g font-size="13" font-weight="bold" font-family="sans-serif" transform="matrix(0.4043,0,0,0.4043,209.8458,302.4368)">
      <text xml:space="preserve" x="-502.81" y="16.0669" onclick="umlload('../../../../../../../com/msopentech/odatajclient/engine/communication/request/batch/ODataRetrieveResponseItem.html')" stroke="none">ODataRetrieveResponseItem</text>
    </g>
    <g fill="rgb(238,238,255)" transform="matrix(0.4043,0,0,0.4043,209.8458,302.4368)" stroke="rgb(238,238,255)">
      <rect width="467.6133" x="-38.935" height="17.9688" y="-133.1328" stroke="none"/>
    </g>
    <g fill="rgb(166,166,178)" stroke-miterlimit="1.45" transform="matrix(0.4043,0,0,0.4043,209.8458,302.4368)" stroke-linecap="butt" stroke="rgb(166,166,178)">
      <rect fill="none" width="467.6133" x="-38.935" height="17.9688" y="-133.1328"/>
    </g>
    <g fill="rgb(238,238,255)" transform="matrix(0.4043,0,0,0.4043,209.8458,302.4368)" stroke="rgb(238,238,255)">
      <rect width="467.7" x="-38.935" height="39.1641" y="-115.1641" stroke="none"/>
    </g>
    <g fill="rgb(166,166,178)" stroke-miterlimit="1.45" transform="matrix(0.4043,0,0,0.4043,209.8458,302.4368)" stroke-linecap="butt" stroke="rgb(166,166,178)">
      <rect fill="none" width="467.7" x="-38.935" height="39.1641" y="-115.1641"/>
    </g>
    <g font-family="sans-serif" transform="matrix(0.4043,0,0,0.4043,209.8458,302.4368)">
      <text xml:space="preserve" x="-32.935" y="-119.9941" onclick="umlload('../../../../../../../com/msopentech/odatajclient/engine/communication/request/batch/package-summary.html')" stroke="none">com.msopentech.odatajclient.engine.communication.request.batch</text>
    </g>
    <g fill="rgb(204,204,255)" transform="matrix(0.4043,0,0,0.4043,209.8458,302.4368)" stroke="rgb(204,204,255)">
      <rect x="88.065" y="-107.1328" clip-path="url(#clipPath5)" width="195.7" height="23.1328" stroke="none"/>
    </g>
    <g fill="rgb(142,142,178)" stroke-miterlimit="1.45" transform="matrix(0.4043,0,0,0.4043,209.8458,302.4368)" stroke-linecap="butt" stroke="rgb(142,142,178)">
      <rect fill="none" width="195.7" x="88.065" height="23.1328" y="-107.1328"/>
    </g>
    <g font-size="13" font-weight="bold" font-family="sans-serif" transform="matrix(0.4043,0,0,0.4043,209.8458,302.4368)">
      <text xml:space="preserve" x="94.915" y="-91.0659" onclick="umlload('../../../../../../../com/msopentech/odatajclient/engine/communication/request/batch/ODataBatchRequestItem.html')" stroke="none">ODataBatchRequestItem</text>
    </g>
    <g fill="rgb(238,238,255)" transform="matrix(0.4043,0,0,0.4043,209.8458,302.4368)" stroke="rgb(238,238,255)">
      <rect width="467.6133" x="-8" height="17.9688" y="-26" stroke="none"/>
    </g>
    <g fill="rgb(166,166,178)" stroke-miterlimit="1.45" transform="matrix(0.4043,0,0,0.4043,209.8458,302.4368)" stroke-linecap="butt" stroke="rgb(166,166,178)">
      <rect fill="none" width="467.6133" x="-8" height="17.9688" y="-26"/>
    </g>
    <g fill="rgb(238,238,255)" transform="matrix(0.4043,0,0,0.4043,209.8458,302.4368)" stroke="rgb(238,238,255)">
      <rect width="467.83" x="-8" height="89.8788" y="-8.0312" stroke="none"/>
    </g>
    <g fill="rgb(166,166,178)" stroke-miterlimit="1.45" transform="matrix(0.4043,0,0,0.4043,209.8458,302.4368)" stroke-linecap="butt" stroke="rgb(166,166,178)">
      <rect fill="none" width="467.83" x="-8" height="89.8788" y="-8.0312"/>
    </g>
    <g font-family="sans-serif" transform="matrix(0.4043,0,0,0.4043,209.8458,302.4368)">
      <text xml:space="preserve" x="-2" y="-12.8613" onclick="umlload('package-summary.html')" stroke="none">com.msopentech.odatajclient.engine.communication.request.batch</text>
    </g>
    <g fill="rgb(187,187,255)" transform="matrix(0.4043,0,0,0.4043,209.8458,302.4368)" stroke="rgb(187,187,255)">
      <rect x="0" y="0" clip-path="url(#clipPath6)" width="371.83" height="26.625" stroke="none"/>
      <line clip-path="url(#clipPath6)" fill="none" x1="0" x2="371.83" y1="26.625" y2="26.625" stroke="black"/>
      <line clip-path="url(#clipPath6)" x1="0" x2="371.83" y1="27.625" y2="27.625" stroke="none"/>
      <line clip-path="url(#clipPath6)" fill="none" x1="0" x2="371.83" y1="27.625" y2="27.625" stroke="black"/>
      <rect x="0" y="28.625" clip-path="url(#clipPath6)" width="371.83" height="45.2225" stroke="none"/>
    </g>
    <g fill="rgb(130,130,178)" stroke-miterlimit="1.45" transform="matrix(0.4043,0,0,0.4043,209.8458,302.4368)" stroke-linecap="butt" stroke="rgb(130,130,178)">
      <rect fill="none" width="371.83" x="0" height="73.8475" y="0"/>
    </g>
    <g font-size="16" font-weight="bold" font-family="sans-serif" transform="matrix(0.4043,0,0,0.4043,209.8458,302.4368)">
      <text xml:space="preserve" x="120.915" y="18.8516" onclick="umlload('#')" stroke="none">ODataRetrieve</text>
    </g>
    <g font-family="sans-serif" transform="matrix(0.4043,0,0,0.4043,209.8458,302.4368)">
      <text xml:space="preserve" x="4" y="39.1719" stroke="none">#</text>
      <text xml:space="preserve" x="19" y="40.7637" onclick="umlload('#closeItem()')" stroke="none">closeItem() : void</text>
    </g>
    <g font-family="sans-serif" transform="matrix(0.4043,0,0,0.4043,209.8458,302.4368)">
      <text xml:space="preserve" x="4" y="55.1719" stroke="none">+</text>
      <text xml:space="preserve" x="19" y="56.7324" onclick="umlload('#setRequest(com.msopentech.odatajclient.engine.communication.request.batch.ODataBatchableRequest)')" stroke="none">setRequest(ODataBatchableRequest) : ODataRetrieve</text>
    </g>
    <g font-family="sans-serif" transform="matrix(0.4043,0,0,0.4043,209.8458,302.4368)">
      <text xml:space="preserve" x="-513" y="106.1543" onclick="umlload('http://www.yworks.com/')" stroke="none">yWorks UML Doclet</text>
    </g>
    <g stroke-miterlimit="1.45" transform="matrix(0.4043,0,0,0.4043,209.8458,302.4368)" stroke-linecap="butt">
      <path fill="none" d="M185.915 0.0176 L185.915 -69"/>
      <path fill="white" d="M185.915 -84 L179.915 -68 L191.915 -68 Z" stroke="none"/>
      <path fill="none" d="M185.915 -84 L179.915 -68 L191.915 -68 Z"/>
      <path fill="none" d="M0.0078 11.5664 L-283.51 11.5664"/>
      <line stroke-linecap="square" transform="matrix(-1,0,0,-1,-283.51,11.5664)" fill="none" x1="0" x2="-14" y1="0" y2="-4" stroke-miterlimit="10"/>
      <line stroke-linecap="square" transform="matrix(-1,0,0,-1,-283.51,11.5664)" fill="none" x1="0" x2="-14" y1="0" y2="4" stroke-miterlimit="10"/>
    </g>
    <g stroke-dasharray="6,2" stroke-miterlimit="1.45" transform="matrix(0.4043,0,0,0.4043,209.8458,302.4368)" stroke-linecap="butt">
      <path fill="none" d="M371.8181 11.5664 L500.11 11.5664"/>
      <line stroke-linecap="square" transform="matrix(1,0,0,1,500.11,11.5664)" fill="none" x1="0" x2="-14" y1="0" y2="-4" stroke-dasharray="none" stroke-miterlimit="10"/>
      <line stroke-linecap="square" transform="matrix(1,0,0,1,500.11,11.5664)" fill="none" x1="0" x2="-14" y1="0" y2="4" stroke-dasharray="none" stroke-miterlimit="10"/>
    </g>
    <g stroke-dasharray="6,2" stroke-miterlimit="1.45" transform="matrix(0.4043,0,0,0.4043,209.8458,302.4368)" stroke-linecap="butt">
      <path fill="none" d="M371.8277 49.4902 L500.11 49.4902"/>
      <line stroke-linecap="square" transform="matrix(1,0,0,1,500.11,49.4902)" fill="none" x1="0" x2="-14" y1="0" y2="-4" stroke-dasharray="none" stroke-miterlimit="10"/>
      <line stroke-linecap="square" transform="matrix(1,0,0,1,500.11,49.4902)" fill="none" x1="0" x2="-14" y1="0" y2="4" stroke-dasharray="none" stroke-miterlimit="10"/>
    </g>
  </g>
</svg>
