<?xml version="1.0" encoding="UTF-8"?><svg xmlns="http://www.w3.org/2000/svg" xmlns:xlink="http://www.w3.org/1999/xlink" fill-opacity="1" color-rendering="auto" color-interpolation="auto" stroke="black" text-rendering="auto" stroke-linecap="square" width="598" stroke-miterlimit="10" stroke-opacity="1" shape-rendering="auto" fill="black" stroke-dasharray="none" font-weight="normal" stroke-width="1" height="598" font-family="'Dialog'" font-style="normal" stroke-linejoin="miter" font-size="12" stroke-dashoffset="0" image-rendering="auto">
  <!--Generated by ySVG-->
  <defs id="genericDefs"/>
  <g>
    <defs id="defs1">
      <clipPath clipPathUnits="userSpaceOnUse" id="clipPath1">
        <path d="M0 0 L598 0 L598 598 L0 598 L0 0 Z"/>
      </clipPath>
      <clipPath clipPathUnits="userSpaceOnUse" id="clipPath2">
        <path d="M797.277 344.0214 C797.277 353.0554 761.0822 360.3788 716.4335 360.3788 C671.7849 360.3788 635.59 353.0554 635.59 344.0214 C635.59 334.9875 671.7849 327.6641 716.4335 327.6641 C761.0822 327.6641 797.277 334.9875 797.277 344.0214 Z"/>
      </clipPath>
      <clipPath clipPathUnits="userSpaceOnUse" id="clipPath3">
        <path d="M768.1442 386.7362 C768.1442 395.7701 738.4709 403.0935 701.8671 403.0935 C665.2633 403.0935 635.59 395.7701 635.59 386.7362 C635.59 377.7022 665.2633 370.3788 701.8671 370.3788 C738.4709 370.3788 768.1442 377.7022 768.1442 386.7362 Z"/>
      </clipPath>
      <clipPath clipPathUnits="userSpaceOnUse" id="clipPath4">
        <path d="M830.7798 429.4509 C830.7798 438.4848 787.085 445.8083 733.1849 445.8083 C679.2847 445.8083 635.59 438.4848 635.59 429.4509 C635.59 420.417 679.2847 413.0935 733.1849 413.0935 C787.085 413.0935 830.7798 420.417 830.7798 429.4509 Z"/>
      </clipPath>
      <clipPath clipPathUnits="userSpaceOnUse" id="clipPath5">
        <path d="M635.59 240.5312 L689.15 240.5312 L689.15 263.6641 L635.59 263.6641 L635.59 240.5312 Z"/>
      </clipPath>
      <clipPath clipPathUnits="userSpaceOnUse" id="clipPath6">
        <path d="M635.59 153.3984 L750.95 153.3984 L750.95 176.5312 L635.59 176.5312 L635.59 153.3984 Z"/>
      </clipPath>
      <clipPath clipPathUnits="userSpaceOnUse" id="clipPath7">
        <path d="M635.59 0 L808.63 0 L808.63 23.1328 L635.59 23.1328 L635.59 0 Z"/>
      </clipPath>
      <clipPath clipPathUnits="userSpaceOnUse" id="clipPath8">
        <path d="M635.59 33.1328 L822.02 33.1328 L822.02 56.2656 L635.59 56.2656 L635.59 33.1328 Z"/>
      </clipPath>
      <clipPath clipPathUnits="userSpaceOnUse" id="clipPath9">
        <path d="M635.59 66.2656 L909.57 66.2656 L909.57 89.3984 L635.59 89.3984 L635.59 66.2656 Z"/>
      </clipPath>
      <clipPath clipPathUnits="userSpaceOnUse" id="clipPath10">
        <path d="M-66 103.4902 C-66 112.5241 -84.9126 119.8475 -108.2426 119.8475 C-131.5725 119.8475 -150.4851 112.5241 -150.4851 103.4902 C-150.4851 94.4563 -131.5725 87.1328 -108.2426 87.1328 C-84.9126 87.1328 -66 94.4563 -66 103.4902 Z"/>
      </clipPath>
      <clipPath clipPathUnits="userSpaceOnUse" id="clipPath11">
        <path d="M-161.97 0 L-97.08 0 L-97.08 23.1328 L-161.97 23.1328 L-161.97 0 Z"/>
      </clipPath>
      <clipPath clipPathUnits="userSpaceOnUse" id="clipPath12">
        <path d="M255.955 -107.1328 L313.635 -107.1328 L313.635 -84 L255.955 -84 L255.955 -107.1328 Z"/>
      </clipPath>
      <clipPath clipPathUnits="userSpaceOnUse" id="clipPath13">
        <path d="M0 0 L569.59 0 L569.59 453.8083 L0 453.8083 L0 0 Z"/>
      </clipPath>
      <script type="text/ecmascript"><![CDATA[
function umlload(newLocation)
{
if (newLocation.charAt(0) != '#') {
if (newLocation.indexOf("://") > -1) {
window.parent.location.href = newLocation;
} else {
var tmp = window.parent.location.href;
tmp = tmp.substring(0, tmp.lastIndexOf("/") + 1);
window.parent.location.href = tmp.concat(newLocation);
}
} else {
window.parent.location.hash = newLocation;
}
}
]]></script>
    </defs>
    <g fill="rgb(238,238,255)" transform="matrix(0.4724,0,0,0.4724,80.3002,213.0316)" stroke="rgb(238,238,255)">
      <rect width="67.654" x="627.59" height="17.9688" y="301.6641" stroke="none"/>
    </g>
    <g fill="rgb(166,166,178)" stroke-miterlimit="1.45" transform="matrix(0.4724,0,0,0.4724,80.3002,213.0316)" stroke-linecap="butt" stroke="rgb(166,166,178)">
      <rect fill="none" width="67.654" x="627.59" height="17.9688" y="301.6641"/>
    </g>
    <g fill="rgb(238,238,255)" transform="matrix(0.4724,0,0,0.4724,80.3002,213.0316)" stroke="rgb(238,238,255)">
      <rect width="211.1898" x="627.59" height="134.1755" y="319.6328" stroke="none"/>
    </g>
    <g fill="rgb(166,166,178)" stroke-miterlimit="1.45" transform="matrix(0.4724,0,0,0.4724,80.3002,213.0316)" stroke-linecap="butt" stroke="rgb(166,166,178)">
      <rect fill="none" width="211.1898" x="627.59" height="134.1755" y="319.6328"/>
    </g>
    <g font-family="sans-serif" transform="matrix(0.4724,0,0,0.4724,80.3002,213.0316)">
      <text xml:space="preserve" x="633.59" y="314.8027" onclick="umlload('http://docs.oracle.com/javase/6/docs/api/java/util/package-summary.html')" stroke="none">java.util</text>
    </g>
    <g fill="rgb(221,221,255)" transform="matrix(0.4724,0,0,0.4724,80.3002,213.0316)" stroke="rgb(221,221,255)">
      <rect x="635.59" y="327.6641" clip-path="url(#clipPath2)" width="161.687" height="32.7147" stroke="none"/>
    </g>
    <g fill="rgb(154,154,178)" stroke-miterlimit="1.45" transform="matrix(0.4724,0,0,0.4724,80.3002,213.0316)" stroke-linecap="butt" stroke="rgb(154,154,178)">
      <ellipse rx="80.8435" fill="none" ry="16.3574" cx="716.4335" cy="344.0214"/>
    </g>
    <g font-style="italic" font-size="13" font-weight="bold" font-family="sans-serif" transform="matrix(0.4724,0,0,0.4724,80.3002,213.0316)">
      <text xml:space="preserve" x="664.9335" y="348.5219" onclick="umlload('http://docs.oracle.com/javase/6/docs/api/java/util/Collection.html')" stroke="none">Collection&lt;E&gt;</text>
    </g>
    <g fill="rgb(221,221,255)" transform="matrix(0.4724,0,0,0.4724,80.3002,213.0316)" stroke="rgb(221,221,255)">
      <rect x="635.59" y="370.3788" clip-path="url(#clipPath3)" width="132.5542" height="32.7147" stroke="none"/>
    </g>
    <g fill="rgb(154,154,178)" stroke-miterlimit="1.45" transform="matrix(0.4724,0,0,0.4724,80.3002,213.0316)" stroke-linecap="butt" stroke="rgb(154,154,178)">
      <ellipse rx="66.2771" fill="none" ry="16.3574" cx="701.8671" cy="386.7362"/>
    </g>
    <g font-style="italic" font-size="13" font-weight="bold" font-family="sans-serif" transform="matrix(0.4724,0,0,0.4724,80.3002,213.0316)">
      <text xml:space="preserve" x="660.3671" y="391.2367" onclick="umlload('http://docs.oracle.com/javase/6/docs/api/java/util/Map.html')" stroke="none">Map&lt;K, V&gt;</text>
    </g>
    <g fill="rgb(221,221,255)" transform="matrix(0.4724,0,0,0.4724,80.3002,213.0316)" stroke="rgb(221,221,255)">
      <rect x="635.59" y="413.0935" clip-path="url(#clipPath4)" width="195.1898" height="32.7147" stroke="none"/>
    </g>
    <g fill="rgb(154,154,178)" stroke-miterlimit="1.45" transform="matrix(0.4724,0,0,0.4724,80.3002,213.0316)" stroke-linecap="butt" stroke="rgb(154,154,178)">
      <ellipse rx="97.5949" fill="none" ry="16.3574" cx="733.1849" cy="429.4509"/>
    </g>
    <g font-style="italic" font-size="13" font-weight="bold" font-family="sans-serif" transform="matrix(0.4724,0,0,0.4724,80.3002,213.0316)">
      <text xml:space="preserve" x="670.1849" y="433.9514" onclick="umlload('http://docs.oracle.com/javase/6/docs/api/java/util/Map.Entry.html')" stroke="none">Map.Entry&lt;K, V&gt;</text>
    </g>
    <g fill="rgb(238,238,255)" transform="matrix(0.4724,0,0,0.4724,80.3002,213.0316)" stroke="rgb(238,238,255)">
      <rect width="76.1412" x="627.59" height="17.9688" y="214.5312" stroke="none"/>
    </g>
    <g fill="rgb(166,166,178)" stroke-miterlimit="1.45" transform="matrix(0.4724,0,0,0.4724,80.3002,213.0316)" stroke-linecap="butt" stroke="rgb(166,166,178)">
      <rect fill="none" width="76.1412" x="627.59" height="17.9688" y="214.5312"/>
    </g>
    <g fill="rgb(238,238,255)" transform="matrix(0.4724,0,0,0.4724,80.3002,213.0316)" stroke="rgb(238,238,255)">
      <rect width="79.56" x="627.59" height="39.1641" y="232.5" stroke="none"/>
    </g>
    <g fill="rgb(166,166,178)" stroke-miterlimit="1.45" transform="matrix(0.4724,0,0,0.4724,80.3002,213.0316)" stroke-linecap="butt" stroke="rgb(166,166,178)">
      <rect fill="none" width="79.56" x="627.59" height="39.1641" y="232.5"/>
    </g>
    <g font-family="sans-serif" transform="matrix(0.4724,0,0,0.4724,80.3002,213.0316)">
      <text xml:space="preserve" x="633.59" y="227.6699" onclick="umlload('http://docs.oracle.com/javase/6/docs/api/java/lang/package-summary.html')" stroke="none">java.lang</text>
    </g>
    <g fill="rgb(187,187,255)" transform="matrix(0.4724,0,0,0.4724,80.3002,213.0316)" stroke="rgb(187,187,255)">
      <rect x="635.59" y="240.5312" clip-path="url(#clipPath5)" width="53.56" height="23.1328" stroke="none"/>
    </g>
    <g fill="rgb(130,130,178)" stroke-miterlimit="1.45" transform="matrix(0.4724,0,0,0.4724,80.3002,213.0316)" stroke-linecap="butt" stroke="rgb(130,130,178)">
      <rect fill="none" width="53.56" x="635.59" height="23.1328" y="240.5312"/>
    </g>
    <g font-size="13" font-weight="bold" font-family="sans-serif" transform="matrix(0.4724,0,0,0.4724,80.3002,213.0316)">
      <text xml:space="preserve" x="640.37" y="256.5981" onclick="umlload('http://docs.oracle.com/javase/6/docs/api/java/lang/String.html')" stroke="none">String</text>
    </g>
    <g fill="rgb(238,238,255)" transform="matrix(0.4724,0,0,0.4724,80.3002,213.0316)" stroke="rgb(238,238,255)">
      <rect width="59.1668" x="627.59" height="17.9688" y="127.3984" stroke="none"/>
    </g>
    <g fill="rgb(166,166,178)" stroke-miterlimit="1.45" transform="matrix(0.4724,0,0,0.4724,80.3002,213.0316)" stroke-linecap="butt" stroke="rgb(166,166,178)">
      <rect fill="none" width="59.1668" x="627.59" height="17.9688" y="127.3984"/>
    </g>
    <g fill="rgb(238,238,255)" transform="matrix(0.4724,0,0,0.4724,80.3002,213.0316)" stroke="rgb(238,238,255)">
      <rect width="131.36" x="627.59" height="39.1641" y="145.3672" stroke="none"/>
    </g>
    <g fill="rgb(166,166,178)" stroke-miterlimit="1.45" transform="matrix(0.4724,0,0,0.4724,80.3002,213.0316)" stroke-linecap="butt" stroke="rgb(166,166,178)">
      <rect fill="none" width="131.36" x="627.59" height="39.1641" y="145.3672"/>
    </g>
    <g font-family="sans-serif" transform="matrix(0.4724,0,0,0.4724,80.3002,213.0316)">
      <text xml:space="preserve" x="633.59" y="140.5371" onclick="umlload('http://docs.oracle.com/javase/6/docs/api/java/io/package-summary.html')" stroke="none">java.io</text>
    </g>
    <g fill="rgb(204,204,255)" transform="matrix(0.4724,0,0,0.4724,80.3002,213.0316)" stroke="rgb(204,204,255)">
      <rect x="635.59" y="153.3984" clip-path="url(#clipPath6)" width="115.36" height="23.1328" stroke="none"/>
    </g>
    <g fill="rgb(142,142,178)" stroke-miterlimit="1.45" transform="matrix(0.4724,0,0,0.4724,80.3002,213.0316)" stroke-linecap="butt" stroke="rgb(142,142,178)">
      <rect fill="none" width="115.36" x="635.59" height="23.1328" y="153.3984"/>
    </g>
    <g font-size="13" font-weight="bold" font-family="sans-serif" transform="matrix(0.4724,0,0,0.4724,80.3002,213.0316)">
      <text xml:space="preserve" x="641.27" y="169.4653" onclick="umlload('http://docs.oracle.com/javase/6/docs/api/java/io/OutputStream.html')" stroke="none">OutputStream</text>
    </g>
    <g fill="rgb(238,238,255)" transform="matrix(0.4724,0,0,0.4724,80.3002,213.0316)" stroke="rgb(238,238,255)">
      <rect width="467.6133" x="627.59" height="17.9688" y="-26" stroke="none"/>
    </g>
    <g fill="rgb(166,166,178)" stroke-miterlimit="1.45" transform="matrix(0.4724,0,0,0.4724,80.3002,213.0316)" stroke-linecap="butt" stroke="rgb(166,166,178)">
      <rect fill="none" width="467.6133" x="627.59" height="17.9688" y="-26"/>
    </g>
    <g fill="rgb(238,238,255)" transform="matrix(0.4724,0,0,0.4724,80.3002,213.0316)" stroke="rgb(238,238,255)">
      <rect width="467.98" x="627.59" height="105.4297" y="-8.0312" stroke="none"/>
    </g>
    <g fill="rgb(166,166,178)" stroke-miterlimit="1.45" transform="matrix(0.4724,0,0,0.4724,80.3002,213.0316)" stroke-linecap="butt" stroke="rgb(166,166,178)">
      <rect fill="none" width="467.98" x="627.59" height="105.4297" y="-8.0312"/>
    </g>
    <g font-family="sans-serif" transform="matrix(0.4724,0,0,0.4724,80.3002,213.0316)">
      <text xml:space="preserve" x="633.59" y="-12.8613" onclick="umlload('../../../../../../../com/msopentech/odatajclient/engine/communication/request/batch/package-summary.html')" stroke="none">com.msopentech.odatajclient.engine.communication.request.batch</text>
    </g>
    <g fill="rgb(187,187,255)" transform="matrix(0.4724,0,0,0.4724,80.3002,213.0316)" stroke="rgb(187,187,255)">
      <rect x="635.59" y="0" clip-path="url(#clipPath7)" width="173.04" height="23.1328" stroke="none"/>
    </g>
    <g fill="rgb(130,130,178)" stroke-miterlimit="1.45" transform="matrix(0.4724,0,0,0.4724,80.3002,213.0316)" stroke-linecap="butt" stroke="rgb(130,130,178)">
      <rect fill="none" width="173.04" x="635.59" height="23.1328" y="0"/>
    </g>
    <g font-size="13" font-weight="bold" font-family="sans-serif" transform="matrix(0.4724,0,0,0.4724,80.3002,213.0316)">
      <text xml:space="preserve" x="642.11" y="16.0669" onclick="umlload('../../../../../../../com/msopentech/odatajclient/engine/communication/request/batch/ODataBatchController.html')" stroke="none">ODataBatchController</text>
    </g>
    <g fill="rgb(187,187,255)" transform="matrix(0.4724,0,0,0.4724,80.3002,213.0316)" stroke="rgb(187,187,255)">
      <rect x="635.59" y="33.1328" clip-path="url(#clipPath8)" width="186.43" height="23.1328" stroke="none"/>
    </g>
    <g fill="rgb(130,130,178)" stroke-miterlimit="1.45" transform="matrix(0.4724,0,0,0.4724,80.3002,213.0316)" stroke-linecap="butt" stroke="rgb(130,130,178)">
      <rect fill="none" width="186.43" x="635.59" height="23.1328" y="33.1328"/>
    </g>
    <g font-size="13" font-weight="bold" font-family="sans-serif" transform="matrix(0.4724,0,0,0.4724,80.3002,213.0316)">
      <text xml:space="preserve" x="642.305" y="49.1997" onclick="umlload('../../../../../../../com/msopentech/odatajclient/engine/communication/request/batch/ODataBatchLineIterator.html')" stroke="none">ODataBatchLineIterator</text>
    </g>
    <g fill="rgb(170,170,255)" transform="matrix(0.4724,0,0,0.4724,80.3002,213.0316)" stroke="rgb(170,170,255)">
      <rect x="635.59" y="66.2656" clip-path="url(#clipPath9)" width="273.98" height="23.1328" stroke="none"/>
    </g>
    <g fill="rgb(118,118,178)" stroke-miterlimit="1.45" transform="matrix(0.4724,0,0,0.4724,80.3002,213.0316)" stroke-linecap="butt" stroke="rgb(118,118,178)">
      <rect fill="none" width="273.98" x="635.59" height="23.1328" y="66.2656"/>
    </g>
    <g font-size="13" font-weight="bold" font-family="sans-serif" transform="matrix(0.4724,0,0,0.4724,80.3002,213.0316)">
      <text xml:space="preserve" x="643.58" y="82.3325" onclick="umlload('../../../../../../../com/msopentech/odatajclient/engine/communication/request/batch/ODataBatchUtilities.BatchItemType.html')" stroke="none">ODataBatchUtilities.BatchItemType</text>
    </g>
    <g fill="rgb(238,238,255)" transform="matrix(0.4724,0,0,0.4724,80.3002,213.0316)" stroke="rgb(238,238,255)">
      <rect width="69.7758" x="-158.4851" height="17.9688" y="61.1328" stroke="none"/>
    </g>
    <g fill="rgb(166,166,178)" stroke-miterlimit="1.45" transform="matrix(0.4724,0,0,0.4724,80.3002,213.0316)" stroke-linecap="butt" stroke="rgb(166,166,178)">
      <rect fill="none" width="69.7758" x="-158.4851" height="17.9688" y="61.1328"/>
    </g>
    <g fill="rgb(238,238,255)" transform="matrix(0.4724,0,0,0.4724,80.3002,213.0316)" stroke="rgb(238,238,255)">
      <rect width="100.4851" x="-158.4851" height="48.746" y="79.1016" stroke="none"/>
    </g>
    <g fill="rgb(166,166,178)" stroke-miterlimit="1.45" transform="matrix(0.4724,0,0,0.4724,80.3002,213.0316)" stroke-linecap="butt" stroke="rgb(166,166,178)">
      <rect fill="none" width="100.4851" x="-158.4851" height="48.746" y="79.1016"/>
    </g>
    <g font-family="sans-serif" transform="matrix(0.4724,0,0,0.4724,80.3002,213.0316)">
      <text xml:space="preserve" x="-152.4851" y="74.2715" stroke="none">org.slf4j</text>
    </g>
    <g fill="rgb(221,221,255)" transform="matrix(0.4724,0,0,0.4724,80.3002,213.0316)" stroke="rgb(221,221,255)">
      <rect x="-150.4851" y="87.1328" clip-path="url(#clipPath10)" width="84.4851" height="32.7147" stroke="none"/>
    </g>
    <g fill="rgb(154,154,178)" stroke-miterlimit="1.45" transform="matrix(0.4724,0,0,0.4724,80.3002,213.0316)" stroke-linecap="butt" stroke="rgb(154,154,178)">
      <ellipse rx="42.2426" fill="none" ry="16.3574" cx="-108.2426" cy="103.4902"/>
    </g>
    <g font-style="italic" font-size="13" font-weight="bold" font-family="sans-serif" transform="matrix(0.4724,0,0,0.4724,80.3002,213.0316)">
      <text xml:space="preserve" x="-133.2426" y="107.9907" stroke="none">Logger</text>
    </g>
    <g fill="rgb(238,238,255)" transform="matrix(0.4724,0,0,0.4724,80.3002,213.0316)" stroke="rgb(238,238,255)">
      <rect width="109.0291" x="-169.97" height="17.9688" y="-26" stroke="none"/>
    </g>
    <g fill="rgb(166,166,178)" stroke-miterlimit="1.45" transform="matrix(0.4724,0,0,0.4724,80.3002,213.0316)" stroke-linecap="butt" stroke="rgb(166,166,178)">
      <rect fill="none" width="109.0291" x="-169.97" height="17.9688" y="-26"/>
    </g>
    <g fill="rgb(238,238,255)" transform="matrix(0.4724,0,0,0.4724,80.3002,213.0316)" stroke="rgb(238,238,255)">
      <rect width="111.89" x="-169.97" height="39.1641" y="-8.0312" stroke="none"/>
    </g>
    <g fill="rgb(166,166,178)" stroke-miterlimit="1.45" transform="matrix(0.4724,0,0,0.4724,80.3002,213.0316)" stroke-linecap="butt" stroke="rgb(166,166,178)">
      <rect fill="none" width="111.89" x="-169.97" height="39.1641" y="-8.0312"/>
    </g>
    <g font-family="sans-serif" transform="matrix(0.4724,0,0,0.4724,80.3002,213.0316)">
      <text xml:space="preserve" x="-163.97" y="-12.8613" onclick="umlload('http://docs.oracle.com/javase/6/docs/api/java/util/regex/package-summary.html')" stroke="none">java.util.regex</text>
    </g>
    <g fill="rgb(187,187,255)" transform="matrix(0.4724,0,0,0.4724,80.3002,213.0316)" stroke="rgb(187,187,255)">
      <rect x="-161.97" y="0" clip-path="url(#clipPath11)" width="64.89" height="23.1328" stroke="none"/>
    </g>
    <g fill="rgb(130,130,178)" stroke-miterlimit="1.45" transform="matrix(0.4724,0,0,0.4724,80.3002,213.0316)" stroke-linecap="butt" stroke="rgb(130,130,178)">
      <rect fill="none" width="64.89" x="-161.97" height="23.1328" y="0"/>
    </g>
    <g font-size="13" font-weight="bold" font-family="sans-serif" transform="matrix(0.4724,0,0,0.4724,80.3002,213.0316)">
      <text xml:space="preserve" x="-157.025" y="16.0669" onclick="umlload('http://docs.oracle.com/javase/6/docs/api/java/util/regex/Pattern.html')" stroke="none">Pattern</text>
    </g>
    <g fill="rgb(238,238,255)" transform="matrix(0.4724,0,0,0.4724,80.3002,213.0316)" stroke="rgb(238,238,255)">
      <rect width="76.1412" x="247.955" height="17.9688" y="-133.1328" stroke="none"/>
    </g>
    <g fill="rgb(166,166,178)" stroke-miterlimit="1.45" transform="matrix(0.4724,0,0,0.4724,80.3002,213.0316)" stroke-linecap="butt" stroke="rgb(166,166,178)">
      <rect fill="none" width="76.1412" x="247.955" height="17.9688" y="-133.1328"/>
    </g>
    <g fill="rgb(238,238,255)" transform="matrix(0.4724,0,0,0.4724,80.3002,213.0316)" stroke="rgb(238,238,255)">
      <rect width="76.1412" x="247.955" height="39.1641" y="-115.1641" stroke="none"/>
    </g>
    <g fill="rgb(166,166,178)" stroke-miterlimit="1.45" transform="matrix(0.4724,0,0,0.4724,80.3002,213.0316)" stroke-linecap="butt" stroke="rgb(166,166,178)">
      <rect fill="none" width="76.1412" x="247.955" height="39.1641" y="-115.1641"/>
    </g>
    <g font-family="sans-serif" transform="matrix(0.4724,0,0,0.4724,80.3002,213.0316)">
      <text xml:space="preserve" x="253.955" y="-119.9941" onclick="umlload('http://docs.oracle.com/javase/6/docs/api/java/lang/package-summary.html')" stroke="none">java.lang</text>
    </g>
    <g fill="rgb(187,187,255)" transform="matrix(0.4724,0,0,0.4724,80.3002,213.0316)" stroke="rgb(187,187,255)">
      <rect x="255.955" y="-107.1328" clip-path="url(#clipPath12)" width="57.68" height="23.1328" stroke="none"/>
    </g>
    <g fill="rgb(130,130,178)" stroke-miterlimit="1.45" transform="matrix(0.4724,0,0,0.4724,80.3002,213.0316)" stroke-linecap="butt" stroke="rgb(130,130,178)">
      <rect fill="none" width="57.68" x="255.955" height="23.1328" y="-107.1328"/>
    </g>
    <g font-size="13" font-weight="bold" font-family="sans-serif" transform="matrix(0.4724,0,0,0.4724,80.3002,213.0316)">
      <text xml:space="preserve" x="260.795" y="-91.0659" onclick="umlload('http://docs.oracle.com/javase/6/docs/api/java/lang/Object.html')" stroke="none">Object</text>
    </g>
    <g fill="rgb(238,238,255)" transform="matrix(0.4724,0,0,0.4724,80.3002,213.0316)" stroke="rgb(238,238,255)">
      <rect width="467.6133" x="-8" height="17.9688" y="-26" stroke="none"/>
    </g>
    <g fill="rgb(166,166,178)" stroke-miterlimit="1.45" transform="matrix(0.4724,0,0,0.4724,80.3002,213.0316)" stroke-linecap="butt" stroke="rgb(166,166,178)">
      <rect fill="none" width="467.6133" x="-8" height="17.9688" y="-26"/>
    </g>
    <g fill="rgb(238,238,255)" transform="matrix(0.4724,0,0,0.4724,80.3002,213.0316)" stroke="rgb(238,238,255)">
      <rect width="585.59" x="-8" height="469.8395" y="-8.0312" stroke="none"/>
    </g>
    <g fill="rgb(166,166,178)" stroke-miterlimit="1.45" transform="matrix(0.4724,0,0,0.4724,80.3002,213.0316)" stroke-linecap="butt" stroke="rgb(166,166,178)">
      <rect fill="none" width="585.59" x="-8" height="469.8395" y="-8.0312"/>
    </g>
    <g font-family="sans-serif" transform="matrix(0.4724,0,0,0.4724,80.3002,213.0316)">
      <text xml:space="preserve" x="-2" y="-12.8613" onclick="umlload('package-summary.html')" stroke="none">com.msopentech.odatajclient.engine.communication.request.batch</text>
    </g>
    <g fill="rgb(187,187,255)" transform="matrix(0.4724,0,0,0.4724,80.3002,213.0316)" stroke="rgb(187,187,255)">
      <rect x="0" y="0" clip-path="url(#clipPath13)" width="569.59" height="26.625" stroke="none"/>
      <line clip-path="url(#clipPath13)" fill="none" x1="0" x2="569.59" y1="26.625" y2="26.625" stroke="black"/>
      <rect x="0" y="27.625" clip-path="url(#clipPath13)" width="569.59" height="15.9688" stroke="none"/>
      <line clip-path="url(#clipPath13)" fill="none" x1="0" x2="569.59" y1="43.5938" y2="43.5938" stroke="black"/>
      <rect x="0" y="44.5938" clip-path="url(#clipPath13)" width="569.59" height="409.2145" stroke="none"/>
    </g>
    <g fill="rgb(130,130,178)" stroke-miterlimit="1.45" transform="matrix(0.4724,0,0,0.4724,80.3002,213.0316)" stroke-linecap="butt" stroke="rgb(130,130,178)">
      <rect fill="none" width="569.59" x="0" height="453.8083" y="0"/>
    </g>
    <g font-size="16" font-weight="bold" font-family="sans-serif" transform="matrix(0.4724,0,0,0.4724,80.3002,213.0316)">
      <text xml:space="preserve" x="199.295" y="18.8516" onclick="umlload('#')" stroke="none">ODataBatchUtilities</text>
    </g>
    <g font-family="sans-serif" transform="matrix(0.4724,0,0,0.4724,80.3002,213.0316)">
      <text xml:space="preserve" x="4" y="38.1719" stroke="none">+</text>
      <text xml:space="preserve" x="19" y="39.7637" onclick="umlload('#ODataBatchUtilities()')" stroke="none">ODataBatchUtilities()</text>
    </g>
    <g font-family="sans-serif" transform="matrix(0.4724,0,0,0.4724,80.3002,213.0316)">
      <text xml:space="preserve" x="4" y="55.1719" stroke="none">+</text>
      <text xml:space="preserve" x="19" y="56.7324" onclick="umlload('#addHeaderLine(java.lang.String, java.util.Map)')" stroke="none">addHeaderLine(String, Map&lt;String, Collection&lt;String&gt;&gt;) : void</text>
      <line y2="59.5625" fill="none" x1="19" x2="415" y1="59.5625"/>
    </g>
    <g font-family="sans-serif" transform="matrix(0.4724,0,0,0.4724,80.3002,213.0316)">
      <text xml:space="preserve" x="4" y="71.1719" stroke="none">+</text>
      <text xml:space="preserve" x="19" y="72.7012" onclick="umlload('#getBoundaryFromHeader(java.util.Collection)')" stroke="none">getBoundaryFromHeader(Collection&lt;String&gt;) : String</text>
      <line y2="75.5312" fill="none" x1="19" x2="353" y1="75.5312"/>
    </g>
    <g font-family="sans-serif" transform="matrix(0.4724,0,0,0.4724,80.3002,213.0316)">
      <text xml:space="preserve" x="4" y="87.1719" stroke="none">+</text>
      <text xml:space="preserve" x="19" y="88.6699" onclick="umlload('#getItemType(java.util.Map)')" stroke="none">getItemType(Map&lt;String, Collection&lt;String&gt;&gt;) : ODataBatchUtilities.BatchItemType</text>
      <line y2="91.5" fill="none" x1="19" x2="544" y1="91.5"/>
    </g>
    <g font-family="sans-serif" transform="matrix(0.4724,0,0,0.4724,80.3002,213.0316)">
      <text xml:space="preserve" x="4" y="103.1719" stroke="none">+</text>
      <text xml:space="preserve" x="19" y="104.6387" onclick="umlload('#nextItemHeaders(com.msopentech.odatajclient.engine.communication.request.batch.ODataBatchLineIterator, java.lang.String)')" stroke="none">nextItemHeaders(ODataBatchLineIterator, String) : Map&lt;String, Collection&lt;String&gt;&gt;</text>
      <line y2="107.4688" fill="none" x1="19" x2="549" y1="107.4688"/>
    </g>
    <g font-family="sans-serif" transform="matrix(0.4724,0,0,0.4724,80.3002,213.0316)">
      <text xml:space="preserve" x="4" y="119.1719" stroke="none">+</text>
      <text xml:space="preserve" x="19" y="120.6074" onclick="umlload('#readBatchPart(com.msopentech.odatajclient.engine.communication.request.batch.ODataBatchController, boolean)')" stroke="none">readBatchPart(ODataBatchController, boolean) : String</text>
      <line y2="123.4375" fill="none" x1="19" x2="364" y1="123.4375"/>
    </g>
    <g font-family="sans-serif" transform="matrix(0.4724,0,0,0.4724,80.3002,213.0316)">
      <text xml:space="preserve" x="4" y="135.1719" stroke="none">+</text>
      <text xml:space="preserve" x="19" y="136.5762" onclick="umlload('#readBatchPart(com.msopentech.odatajclient.engine.communication.request.batch.ODataBatchController, int)')" stroke="none">readBatchPart(ODataBatchController, int) : String</text>
      <line y2="139.4062" fill="none" x1="19" x2="329" y1="139.4062"/>
    </g>
    <g font-family="sans-serif" transform="matrix(0.4724,0,0,0.4724,80.3002,213.0316)">
      <text xml:space="preserve" x="4" y="151.1719" stroke="none">+</text>
      <text xml:space="preserve" x="19" y="152.5449" onclick="umlload('#readBatchPart(com.msopentech.odatajclient.engine.communication.request.batch.ODataBatchController, java.io.OutputStream, boolean)')" stroke="none">readBatchPart(ODataBatchController, OutputStream, boolean) : String</text>
      <line y2="155.375" fill="none" x1="19" x2="460" y1="155.375"/>
    </g>
    <g font-family="sans-serif" transform="matrix(0.4724,0,0,0.4724,80.3002,213.0316)">
      <text xml:space="preserve" x="4" y="167.1719" stroke="none">+</text>
      <text xml:space="preserve" x="19" y="168.5137" onclick="umlload('#readBatchPart(com.msopentech.odatajclient.engine.communication.request.batch.ODataBatchController, java.io.OutputStream, int, boolean)')" stroke="none">readBatchPart(ODataBatchController, OutputStream, int, boolean) : String</text>
      <line y2="171.3438" fill="none" x1="19" x2="484" y1="171.3438"/>
    </g>
    <g font-family="sans-serif" transform="matrix(0.4724,0,0,0.4724,80.3002,213.0316)">
      <text xml:space="preserve" x="4" y="183.1719" stroke="none">+</text>
      <text xml:space="preserve" x="19" y="184.4824" onclick="umlload('#readHeaders(com.msopentech.odatajclient.engine.communication.request.batch.ODataBatchLineIterator)')" stroke="none">readHeaders(ODataBatchLineIterator) : Map&lt;String, Collection&lt;String&gt;&gt;</text>
      <line y2="187.3125" fill="none" x1="19" x2="479" y1="187.3125"/>
    </g>
    <g font-family="sans-serif" transform="matrix(0.4724,0,0,0.4724,80.3002,213.0316)">
      <text xml:space="preserve" x="4" y="199.1719" stroke="none">+</text>
      <text xml:space="preserve" x="19" y="200.4512" onclick="umlload('#readHeaders(com.msopentech.odatajclient.engine.communication.request.batch.ODataBatchLineIterator, java.util.Map)')" stroke="none">readHeaders(ODataBatchLineIterator, Map&lt;String, Collection&lt;String&gt;&gt;) : void</text>
      <line y2="203.2812" fill="none" x1="19" x2="512" y1="203.2812"/>
    </g>
    <g font-family="sans-serif" transform="matrix(0.4724,0,0,0.4724,80.3002,213.0316)">
      <text xml:space="preserve" x="4" y="215.1719" stroke="none">+</text>
      <text xml:space="preserve" x="19" y="216.4199" onclick="umlload('#readResponseLine(com.msopentech.odatajclient.engine.communication.request.batch.ODataBatchLineIterator)')" stroke="none">readResponseLine(ODataBatchLineIterator) : Map.Entry&lt;Integer, String&gt;</text>
      <line y2="219.25" fill="none" x1="19" x2="476" y1="219.25"/>
    </g>
    <g font-family="sans-serif" transform="matrix(0.4724,0,0,0.4724,80.3002,213.0316)">
      <text xml:space="preserve" x="-164" y="486.1543" onclick="umlload('http://www.yworks.com/')" stroke="none">yWorks UML Doclet</text>
    </g>
    <g stroke-miterlimit="1.45" transform="matrix(0.4724,0,0,0.4724,80.3002,213.0316)" stroke-linecap="butt">
      <path fill="none" d="M284.795 0.0228 L284.795 -69"/>
      <path fill="white" d="M284.795 -84 L278.795 -68 L290.795 -68 Z" stroke="none"/>
      <path fill="none" d="M284.795 -84 L278.795 -68 L290.795 -68 Z"/>
      <path fill="none" d="M-0.0247 11.5664 L-97.08 11.5664"/>
      <line stroke-linecap="square" transform="matrix(-1,0,0,-1,-97.08,11.5664)" fill="none" x1="0" x2="-14" y1="0" y2="-4" stroke-miterlimit="10"/>
      <line stroke-linecap="square" transform="matrix(-1,0,0,-1,-97.08,11.5664)" fill="none" x1="0" x2="-14" y1="0" y2="4" stroke-miterlimit="10"/>
    </g>
    <g stroke-miterlimit="1.45" transform="matrix(0.4724,0,0,0.4724,80.3002,213.0316)" stroke-linecap="butt">
      <path fill="none" d="M0.0443 103.4902 L-66 103.4902"/>
      <line stroke-linecap="square" transform="matrix(-1,0,0,-1,-66,103.4902)" fill="none" x1="0" x2="-14" y1="0" y2="-4" stroke-miterlimit="10"/>
      <line stroke-linecap="square" transform="matrix(-1,0,0,-1,-66,103.4902)" fill="none" x1="0" x2="-14" y1="0" y2="4" stroke-miterlimit="10"/>
    </g>
    <g stroke-dasharray="6,2" stroke-miterlimit="1.45" transform="matrix(0.4724,0,0,0.4724,80.3002,213.0316)" stroke-linecap="butt">
      <path fill="none" d="M569.5676 11.5664 L635.59 11.5664"/>
      <line stroke-linecap="square" transform="matrix(1,0,0,1,635.59,11.5664)" fill="none" x1="0" x2="-14" y1="0" y2="-4" stroke-dasharray="none" stroke-miterlimit="10"/>
      <line stroke-linecap="square" transform="matrix(1,0,0,1,635.59,11.5664)" fill="none" x1="0" x2="-14" y1="0" y2="4" stroke-dasharray="none" stroke-miterlimit="10"/>
    </g>
    <g stroke-dasharray="6,2" stroke-miterlimit="1.45" transform="matrix(0.4724,0,0,0.4724,80.3002,213.0316)" stroke-linecap="butt">
      <path fill="none" d="M569.5912 44.6992 L635.59 44.6992"/>
      <line stroke-linecap="square" transform="matrix(1,0,0,1,635.59,44.6992)" fill="none" x1="0" x2="-14" y1="0" y2="-4" stroke-dasharray="none" stroke-miterlimit="10"/>
      <line stroke-linecap="square" transform="matrix(1,0,0,1,635.59,44.6992)" fill="none" x1="0" x2="-14" y1="0" y2="4" stroke-dasharray="none" stroke-miterlimit="10"/>
    </g>
    <g stroke-dasharray="6,2" stroke-miterlimit="1.45" transform="matrix(0.4724,0,0,0.4724,80.3002,213.0316)" stroke-linecap="butt">
      <path fill="none" d="M569.5645 77.832 L635.59 77.832"/>
      <line stroke-linecap="square" transform="matrix(1,0,0,1,635.59,77.832)" fill="none" x1="0" x2="-14" y1="0" y2="-4" stroke-dasharray="none" stroke-miterlimit="10"/>
      <line stroke-linecap="square" transform="matrix(1,0,0,1,635.59,77.832)" fill="none" x1="0" x2="-14" y1="0" y2="4" stroke-dasharray="none" stroke-miterlimit="10"/>
    </g>
    <g stroke-dasharray="6,2" stroke-miterlimit="1.45" transform="matrix(0.4724,0,0,0.4724,80.3002,213.0316)" stroke-linecap="butt">
      <path fill="none" d="M569.5607 164.9648 L635.59 164.9648"/>
      <line stroke-linecap="square" transform="matrix(1,0,0,1,635.59,164.9648)" fill="none" x1="0" x2="-14" y1="0" y2="-4" stroke-dasharray="none" stroke-miterlimit="10"/>
      <line stroke-linecap="square" transform="matrix(1,0,0,1,635.59,164.9648)" fill="none" x1="0" x2="-14" y1="0" y2="4" stroke-dasharray="none" stroke-miterlimit="10"/>
    </g>
    <g stroke-dasharray="6,2" stroke-miterlimit="1.45" transform="matrix(0.4724,0,0,0.4724,80.3002,213.0316)" stroke-linecap="butt">
      <path fill="none" d="M569.5894 252.0977 L635.59 252.0977"/>
      <line stroke-linecap="square" transform="matrix(1,0,0,1,635.59,252.0977)" fill="none" x1="0" x2="-14" y1="0" y2="-4" stroke-dasharray="none" stroke-miterlimit="10"/>
      <line stroke-linecap="square" transform="matrix(1,0,0,1,635.59,252.0977)" fill="none" x1="0" x2="-14" y1="0" y2="4" stroke-dasharray="none" stroke-miterlimit="10"/>
    </g>
    <g stroke-dasharray="6,2" stroke-miterlimit="1.45" transform="matrix(0.4724,0,0,0.4724,80.3002,213.0316)" stroke-linecap="butt">
      <path fill="none" d="M569.6121 344.0214 L635.59 344.0214"/>
      <line stroke-linecap="square" transform="matrix(1,0,0,1,635.59,344.0214)" fill="none" x1="0" x2="-14" y1="0" y2="-4" stroke-dasharray="none" stroke-miterlimit="10"/>
      <line stroke-linecap="square" transform="matrix(1,0,0,1,635.59,344.0214)" fill="none" x1="0" x2="-14" y1="0" y2="4" stroke-dasharray="none" stroke-miterlimit="10"/>
    </g>
    <g stroke-dasharray="6,2" stroke-miterlimit="1.45" transform="matrix(0.4724,0,0,0.4724,80.3002,213.0316)" stroke-linecap="butt">
      <path fill="none" d="M569.572 386.7362 L635.59 386.7362"/>
      <line stroke-linecap="square" transform="matrix(1,0,0,1,635.59,386.7362)" fill="none" x1="0" x2="-14" y1="0" y2="-4" stroke-dasharray="none" stroke-miterlimit="10"/>
      <line stroke-linecap="square" transform="matrix(1,0,0,1,635.59,386.7362)" fill="none" x1="0" x2="-14" y1="0" y2="4" stroke-dasharray="none" stroke-miterlimit="10"/>
    </g>
    <g stroke-dasharray="6,2" stroke-miterlimit="1.45" transform="matrix(0.4724,0,0,0.4724,80.3002,213.0316)" stroke-linecap="butt">
      <path fill="none" d="M569.6091 429.4509 L635.59 429.4509"/>
      <line stroke-linecap="square" transform="matrix(1,0,0,1,635.59,429.4509)" fill="none" x1="0" x2="-14" y1="0" y2="-4" stroke-dasharray="none" stroke-miterlimit="10"/>
      <line stroke-linecap="square" transform="matrix(1,0,0,1,635.59,429.4509)" fill="none" x1="0" x2="-14" y1="0" y2="4" stroke-dasharray="none" stroke-miterlimit="10"/>
    </g>
  </g>
</svg>
