<?xml version="1.0" encoding="UTF-8"?><svg xmlns="http://www.w3.org/2000/svg" xmlns:xlink="http://www.w3.org/1999/xlink" fill-opacity="1" color-rendering="auto" color-interpolation="auto" stroke="black" text-rendering="auto" stroke-linecap="square" width="598" stroke-miterlimit="10" stroke-opacity="1" shape-rendering="auto" fill="black" stroke-dasharray="none" font-weight="normal" stroke-width="1" height="598" font-family="'Dialog'" font-style="normal" stroke-linejoin="miter" font-size="12" stroke-dashoffset="0" image-rendering="auto">
  <!--Generated by ySVG-->
  <defs id="genericDefs"/>
  <g>
    <defs id="defs1">
      <clipPath clipPathUnits="userSpaceOnUse" id="clipPath1">
        <path d="M0 0 L598 0 L598 598 L0 598 L0 0 Z"/>
      </clipPath>
      <clipPath clipPathUnits="userSpaceOnUse" id="clipPath2">
        <path d="M752.9316 113.0721 C752.9316 122.106 731.7364 129.4295 705.5908 129.4295 C679.4452 129.4295 658.25 122.106 658.25 113.0721 C658.25 104.0382 679.4452 96.7147 705.5908 96.7147 C731.7364 96.7147 752.9316 104.0382 752.9316 113.0721 Z"/>
      </clipPath>
      <clipPath clipPathUnits="userSpaceOnUse" id="clipPath3">
        <path d="M901.5089 16.3574 C901.5089 25.3913 847.0535 32.7147 779.8795 32.7147 C712.7054 32.7147 658.25 25.3913 658.25 16.3574 C658.25 7.3234 712.7054 0 779.8795 0 C847.0535 0 901.5089 7.3234 901.5089 16.3574 Z"/>
      </clipPath>
      <clipPath clipPathUnits="userSpaceOnUse" id="clipPath4">
        <path d="M-66 320.4706 C-66 329.5045 -84.9126 336.8279 -108.2426 336.8279 C-131.5725 336.8279 -150.4851 329.5045 -150.4851 320.4706 C-150.4851 311.4366 -131.5725 304.1132 -108.2426 304.1132 C-84.9126 304.1132 -66 311.4366 -66 320.4706 Z"/>
      </clipPath>
      <clipPath clipPathUnits="userSpaceOnUse" id="clipPath5">
        <path d="M-66 223.7558 C-66 232.7897 -96.9776 240.1132 -135.1904 240.1132 C-173.4032 240.1132 -204.3808 232.7897 -204.3808 223.7558 C-204.3808 214.7219 -173.4032 207.3984 -135.1904 207.3984 C-96.9776 207.3984 -66 214.7219 -66 223.7558 Z"/>
      </clipPath>
      <clipPath clipPathUnits="userSpaceOnUse" id="clipPath6">
        <path d="M-130.04 120.2656 L-76.48 120.2656 L-76.48 143.3984 L-130.04 143.3984 L-130.04 120.2656 Z"/>
      </clipPath>
      <clipPath clipPathUnits="userSpaceOnUse" id="clipPath7">
        <path d="M-510.11 0 L-323.68 0 L-323.68 23.1328 L-510.11 23.1328 L-510.11 0 Z"/>
      </clipPath>
      <clipPath clipPathUnits="userSpaceOnUse" id="clipPath8">
        <path d="M-510.11 33.1328 L-303.08 33.1328 L-303.08 56.2656 L-510.11 56.2656 L-510.11 33.1328 Z"/>
      </clipPath>
      <clipPath clipPathUnits="userSpaceOnUse" id="clipPath9">
        <path d="M777.3676 -100.3574 C777.3676 -91.3234 686.3912 -84 574.1663 -84 C461.9413 -84 370.965 -91.3234 370.965 -100.3574 C370.965 -109.3913 461.9413 -116.7147 574.1663 -116.7147 C686.3912 -116.7147 777.3676 -109.3913 777.3676 -100.3574 Z"/>
      </clipPath>
      <clipPath clipPathUnits="userSpaceOnUse" id="clipPath10">
        <path d="M267.285 -107.1328 L324.965 -107.1328 L324.965 -84 L267.285 -84 L267.285 -107.1328 Z"/>
      </clipPath>
      <clipPath clipPathUnits="userSpaceOnUse" id="clipPath11">
        <path d="M0 0 L592.25 0 L592.25 344.8279 L0 344.8279 L0 0 Z"/>
      </clipPath>
      <script type="text/ecmascript"><![CDATA[
function umlload(newLocation)
{
if (newLocation.charAt(0) != '#') {
if (newLocation.indexOf("://") > -1) {
window.parent.location.href = newLocation;
} else {
var tmp = window.parent.location.href;
tmp = tmp.substring(0, tmp.lastIndexOf("/") + 1);
window.parent.location.href = tmp.concat(newLocation);
}
} else {
window.parent.location.hash = newLocation;
}
}
]]></script>
    </defs>
    <g fill="rgb(238,238,255)" transform="matrix(0.3724,0,0,0.3724,193.2516,253.2005)" stroke="rgb(238,238,255)">
      <rect width="67.654" x="650.25" height="17.9688" y="70.7147" stroke="none"/>
    </g>
    <g fill="rgb(166,166,178)" stroke-miterlimit="1.45" transform="matrix(0.3724,0,0,0.3724,193.2516,253.2005)" stroke-linecap="butt" stroke="rgb(166,166,178)">
      <rect fill="none" width="67.654" x="650.25" height="17.9688" y="70.7147"/>
    </g>
    <g fill="rgb(238,238,255)" transform="matrix(0.3724,0,0,0.3724,193.2516,253.2005)" stroke="rgb(238,238,255)">
      <rect width="110.6816" x="650.25" height="48.746" y="88.6835" stroke="none"/>
    </g>
    <g fill="rgb(166,166,178)" stroke-miterlimit="1.45" transform="matrix(0.3724,0,0,0.3724,193.2516,253.2005)" stroke-linecap="butt" stroke="rgb(166,166,178)">
      <rect fill="none" width="110.6816" x="650.25" height="48.746" y="88.6835"/>
    </g>
    <g font-family="sans-serif" transform="matrix(0.3724,0,0,0.3724,193.2516,253.2005)">
      <text xml:space="preserve" x="656.25" y="83.8534" onclick="umlload('http://docs.oracle.com/javase/6/docs/api/java/util/package-summary.html')" stroke="none">java.util</text>
    </g>
    <g fill="rgb(221,221,255)" transform="matrix(0.3724,0,0,0.3724,193.2516,253.2005)" stroke="rgb(221,221,255)">
      <rect x="658.25" y="96.7147" clip-path="url(#clipPath2)" width="94.6816" height="32.7147" stroke="none"/>
    </g>
    <g fill="rgb(154,154,178)" stroke-miterlimit="1.45" transform="matrix(0.3724,0,0,0.3724,193.2516,253.2005)" stroke-linecap="butt" stroke="rgb(154,154,178)">
      <ellipse rx="47.3408" fill="none" ry="16.3574" cx="705.5908" cy="113.0721"/>
    </g>
    <g font-style="italic" font-size="13" font-weight="bold" font-family="sans-serif" transform="matrix(0.3724,0,0,0.3724,193.2516,253.2005)">
      <text xml:space="preserve" x="677.0908" y="117.5726" onclick="umlload('http://docs.oracle.com/javase/6/docs/api/java/util/List.html')" stroke="none">List&lt;E&gt;</text>
    </g>
    <g fill="rgb(238,238,255)" transform="matrix(0.3724,0,0,0.3724,193.2516,253.2005)" stroke="rgb(238,238,255)">
      <rect width="435.7863" x="650.25" height="17.9688" y="-26" stroke="none"/>
    </g>
    <g fill="rgb(166,166,178)" stroke-miterlimit="1.45" transform="matrix(0.3724,0,0,0.3724,193.2516,253.2005)" stroke-linecap="butt" stroke="rgb(166,166,178)">
      <rect fill="none" width="435.7863" x="650.25" height="17.9688" y="-26"/>
    </g>
    <g fill="rgb(238,238,255)" transform="matrix(0.3724,0,0,0.3724,193.2516,253.2005)" stroke="rgb(238,238,255)">
      <rect width="436.2589" x="650.25" height="48.746" y="-8.0312" stroke="none"/>
    </g>
    <g fill="rgb(166,166,178)" stroke-miterlimit="1.45" transform="matrix(0.3724,0,0,0.3724,193.2516,253.2005)" stroke-linecap="butt" stroke="rgb(166,166,178)">
      <rect fill="none" width="436.2589" x="650.25" height="48.746" y="-8.0312"/>
    </g>
    <g font-family="sans-serif" transform="matrix(0.3724,0,0,0.3724,193.2516,253.2005)">
      <text xml:space="preserve" x="656.25" y="-12.8613" onclick="umlload('../../../../../../../com/msopentech/odatajclient/engine/communication/response/package-summary.html')" stroke="none">com.msopentech.odatajclient.engine.communication.response</text>
    </g>
    <g fill="rgb(221,221,255)" transform="matrix(0.3724,0,0,0.3724,193.2516,253.2005)" stroke="rgb(221,221,255)">
      <rect x="658.25" y="0" clip-path="url(#clipPath3)" width="243.2589" height="32.7147" stroke="none"/>
    </g>
    <g fill="rgb(154,154,178)" stroke-miterlimit="1.45" transform="matrix(0.3724,0,0,0.3724,193.2516,253.2005)" stroke-linecap="butt" stroke="rgb(154,154,178)">
      <ellipse rx="121.6294" fill="none" ry="16.3574" cx="779.8794" cy="16.3574"/>
    </g>
    <g font-style="italic" font-size="13" font-weight="bold" font-family="sans-serif" transform="matrix(0.3724,0,0,0.3724,193.2516,253.2005)">
      <text xml:space="preserve" x="700.3795" y="20.8579" onclick="umlload('../../../../../../../com/msopentech/odatajclient/engine/communication/response/ODataBatchResponse.html')" stroke="none">ODataBatchResponse</text>
    </g>
    <g fill="rgb(238,238,255)" transform="matrix(0.3724,0,0,0.3724,193.2516,253.2005)" stroke="rgb(238,238,255)">
      <rect width="69.7758" x="-158.4851" height="17.9688" y="278.1132" stroke="none"/>
    </g>
    <g fill="rgb(166,166,178)" stroke-miterlimit="1.45" transform="matrix(0.3724,0,0,0.3724,193.2516,253.2005)" stroke-linecap="butt" stroke="rgb(166,166,178)">
      <rect fill="none" width="69.7758" x="-158.4851" height="17.9688" y="278.1132"/>
    </g>
    <g fill="rgb(238,238,255)" transform="matrix(0.3724,0,0,0.3724,193.2516,253.2005)" stroke="rgb(238,238,255)">
      <rect width="100.4851" x="-158.4851" height="48.746" y="296.0819" stroke="none"/>
    </g>
    <g fill="rgb(166,166,178)" stroke-miterlimit="1.45" transform="matrix(0.3724,0,0,0.3724,193.2516,253.2005)" stroke-linecap="butt" stroke="rgb(166,166,178)">
      <rect fill="none" width="100.4851" x="-158.4851" height="48.746" y="296.0819"/>
    </g>
    <g font-family="sans-serif" transform="matrix(0.3724,0,0,0.3724,193.2516,253.2005)">
      <text xml:space="preserve" x="-152.4851" y="291.2519" stroke="none">org.slf4j</text>
    </g>
    <g fill="rgb(221,221,255)" transform="matrix(0.3724,0,0,0.3724,193.2516,253.2005)" stroke="rgb(221,221,255)">
      <rect x="-150.4851" y="304.1132" clip-path="url(#clipPath4)" width="84.4851" height="32.7147" stroke="none"/>
    </g>
    <g fill="rgb(154,154,178)" stroke-miterlimit="1.45" transform="matrix(0.3724,0,0,0.3724,193.2516,253.2005)" stroke-linecap="butt" stroke="rgb(154,154,178)">
      <ellipse rx="42.2426" fill="none" ry="16.3574" cx="-108.2426" cy="320.4705"/>
    </g>
    <g font-style="italic" font-size="13" font-weight="bold" font-family="sans-serif" transform="matrix(0.3724,0,0,0.3724,193.2516,253.2005)">
      <text xml:space="preserve" x="-133.2426" y="324.971" stroke="none">Logger</text>
    </g>
    <g fill="rgb(238,238,255)" transform="matrix(0.3724,0,0,0.3724,193.2516,253.2005)" stroke="rgb(238,238,255)">
      <rect width="67.654" x="-212.3808" height="17.9688" y="181.3984" stroke="none"/>
    </g>
    <g fill="rgb(166,166,178)" stroke-miterlimit="1.45" transform="matrix(0.3724,0,0,0.3724,193.2516,253.2005)" stroke-linecap="butt" stroke="rgb(166,166,178)">
      <rect fill="none" width="67.654" x="-212.3808" height="17.9688" y="181.3984"/>
    </g>
    <g fill="rgb(238,238,255)" transform="matrix(0.3724,0,0,0.3724,193.2516,253.2005)" stroke="rgb(238,238,255)">
      <rect width="154.3808" x="-212.3808" height="48.746" y="199.3672" stroke="none"/>
    </g>
    <g fill="rgb(166,166,178)" stroke-miterlimit="1.45" transform="matrix(0.3724,0,0,0.3724,193.2516,253.2005)" stroke-linecap="butt" stroke="rgb(166,166,178)">
      <rect fill="none" width="154.3808" x="-212.3808" height="48.746" y="199.3672"/>
    </g>
    <g font-family="sans-serif" transform="matrix(0.3724,0,0,0.3724,193.2516,253.2005)">
      <text xml:space="preserve" x="-206.3808" y="194.5371" onclick="umlload('http://docs.oracle.com/javase/6/docs/api/java/util/package-summary.html')" stroke="none">java.util</text>
    </g>
    <g fill="rgb(221,221,255)" transform="matrix(0.3724,0,0,0.3724,193.2516,253.2005)" stroke="rgb(221,221,255)">
      <rect x="-204.3808" y="207.3984" clip-path="url(#clipPath5)" width="138.3808" height="32.7147" stroke="none"/>
    </g>
    <g fill="rgb(154,154,178)" stroke-miterlimit="1.45" transform="matrix(0.3724,0,0,0.3724,193.2516,253.2005)" stroke-linecap="butt" stroke="rgb(154,154,178)">
      <ellipse rx="69.1904" fill="none" ry="16.3574" cx="-135.1904" cy="223.7558"/>
    </g>
    <g font-style="italic" font-size="13" font-weight="bold" font-family="sans-serif" transform="matrix(0.3724,0,0,0.3724,193.2516,253.2005)">
      <text xml:space="preserve" x="-178.6904" y="228.2563" onclick="umlload('http://docs.oracle.com/javase/6/docs/api/java/util/Iterator.html')" stroke="none">Iterator&lt;E&gt;</text>
    </g>
    <g fill="rgb(238,238,255)" transform="matrix(0.3724,0,0,0.3724,193.2516,253.2005)" stroke="rgb(238,238,255)">
      <rect width="76.1412" x="-138.04" height="17.9688" y="94.2656" stroke="none"/>
    </g>
    <g fill="rgb(166,166,178)" stroke-miterlimit="1.45" transform="matrix(0.3724,0,0,0.3724,193.2516,253.2005)" stroke-linecap="butt" stroke="rgb(166,166,178)">
      <rect fill="none" width="76.1412" x="-138.04" height="17.9688" y="94.2656"/>
    </g>
    <g fill="rgb(238,238,255)" transform="matrix(0.3724,0,0,0.3724,193.2516,253.2005)" stroke="rgb(238,238,255)">
      <rect width="79.56" x="-138.04" height="39.1641" y="112.2344" stroke="none"/>
    </g>
    <g fill="rgb(166,166,178)" stroke-miterlimit="1.45" transform="matrix(0.3724,0,0,0.3724,193.2516,253.2005)" stroke-linecap="butt" stroke="rgb(166,166,178)">
      <rect fill="none" width="79.56" x="-138.04" height="39.1641" y="112.2344"/>
    </g>
    <g font-family="sans-serif" transform="matrix(0.3724,0,0,0.3724,193.2516,253.2005)">
      <text xml:space="preserve" x="-132.04" y="107.4043" onclick="umlload('http://docs.oracle.com/javase/6/docs/api/java/lang/package-summary.html')" stroke="none">java.lang</text>
    </g>
    <g fill="rgb(187,187,255)" transform="matrix(0.3724,0,0,0.3724,193.2516,253.2005)" stroke="rgb(187,187,255)">
      <rect x="-130.04" y="120.2656" clip-path="url(#clipPath6)" width="53.56" height="23.1328" stroke="none"/>
    </g>
    <g fill="rgb(130,130,178)" stroke-miterlimit="1.45" transform="matrix(0.3724,0,0,0.3724,193.2516,253.2005)" stroke-linecap="butt" stroke="rgb(130,130,178)">
      <rect fill="none" width="53.56" x="-130.04" height="23.1328" y="120.2656"/>
    </g>
    <g font-size="13" font-weight="bold" font-family="sans-serif" transform="matrix(0.3724,0,0,0.3724,193.2516,253.2005)">
      <text xml:space="preserve" x="-125.26" y="136.3325" onclick="umlload('http://docs.oracle.com/javase/6/docs/api/java/lang/String.html')" stroke="none">String</text>
    </g>
    <g fill="rgb(238,238,255)" transform="matrix(0.3724,0,0,0.3724,193.2516,253.2005)" stroke="rgb(238,238,255)">
      <rect width="467.6133" x="-518.11" height="17.9688" y="-26" stroke="none"/>
    </g>
    <g fill="rgb(166,166,178)" stroke-miterlimit="1.45" transform="matrix(0.3724,0,0,0.3724,193.2516,253.2005)" stroke-linecap="butt" stroke="rgb(166,166,178)">
      <rect fill="none" width="467.6133" x="-518.11" height="17.9688" y="-26"/>
    </g>
    <g fill="rgb(238,238,255)" transform="matrix(0.3724,0,0,0.3724,193.2516,253.2005)" stroke="rgb(238,238,255)">
      <rect width="468.03" x="-518.11" height="72.2969" y="-8.0312" stroke="none"/>
    </g>
    <g fill="rgb(166,166,178)" stroke-miterlimit="1.45" transform="matrix(0.3724,0,0,0.3724,193.2516,253.2005)" stroke-linecap="butt" stroke="rgb(166,166,178)">
      <rect fill="none" width="468.03" x="-518.11" height="72.2969" y="-8.0312"/>
    </g>
    <g font-family="sans-serif" transform="matrix(0.3724,0,0,0.3724,193.2516,253.2005)">
      <text xml:space="preserve" x="-512.11" y="-12.8613" onclick="umlload('../../../../../../../com/msopentech/odatajclient/engine/communication/request/batch/package-summary.html')" stroke="none">com.msopentech.odatajclient.engine.communication.request.batch</text>
    </g>
    <g fill="rgb(187,187,255)" transform="matrix(0.3724,0,0,0.3724,193.2516,253.2005)" stroke="rgb(187,187,255)">
      <rect x="-510.11" y="0" clip-path="url(#clipPath7)" width="186.43" height="23.1328" stroke="none"/>
    </g>
    <g fill="rgb(130,130,178)" stroke-miterlimit="1.45" transform="matrix(0.3724,0,0,0.3724,193.2516,253.2005)" stroke-linecap="butt" stroke="rgb(130,130,178)">
      <rect fill="none" width="186.43" x="-510.11" height="23.1328" y="0"/>
    </g>
    <g font-size="13" font-weight="bold" font-family="sans-serif" transform="matrix(0.3724,0,0,0.3724,193.2516,253.2005)">
      <text xml:space="preserve" x="-503.395" y="16.0669" onclick="umlload('../../../../../../../com/msopentech/odatajclient/engine/communication/request/batch/ODataBatchLineIterator.html')" stroke="none">ODataBatchLineIterator</text>
    </g>
    <g fill="rgb(204,204,255)" transform="matrix(0.3724,0,0,0.3724,193.2516,253.2005)" stroke="rgb(204,204,255)">
      <rect x="-510.11" y="33.1328" clip-path="url(#clipPath8)" width="207.03" height="23.1328" stroke="none"/>
    </g>
    <g fill="rgb(142,142,178)" stroke-miterlimit="1.45" transform="matrix(0.3724,0,0,0.3724,193.2516,253.2005)" stroke-linecap="butt" stroke="rgb(142,142,178)">
      <rect fill="none" width="207.03" x="-510.11" height="23.1328" y="33.1328"/>
    </g>
    <g font-size="13" font-weight="bold" font-family="sans-serif" transform="matrix(0.3724,0,0,0.3724,193.2516,253.2005)">
      <text xml:space="preserve" x="-503.095" y="49.1997" onclick="umlload('../../../../../../../com/msopentech/odatajclient/engine/communication/request/batch/ODataBatchResponseItem.html')" stroke="none">ODataBatchResponseItem</text>
    </g>
    <g fill="rgb(238,238,255)" transform="matrix(0.3724,0,0,0.3724,193.2516,253.2005)" stroke="rgb(238,238,255)">
      <rect width="67.654" x="362.965" height="17.9688" y="-142.7147" stroke="none"/>
    </g>
    <g fill="rgb(166,166,178)" stroke-miterlimit="1.45" transform="matrix(0.3724,0,0,0.3724,193.2516,253.2005)" stroke-linecap="butt" stroke="rgb(166,166,178)">
      <rect fill="none" width="67.654" x="362.965" height="17.9688" y="-142.7147"/>
    </g>
    <g fill="rgb(238,238,255)" transform="matrix(0.3724,0,0,0.3724,193.2516,253.2005)" stroke="rgb(238,238,255)">
      <rect width="422.4026" x="362.965" height="48.746" y="-124.746" stroke="none"/>
    </g>
    <g fill="rgb(166,166,178)" stroke-miterlimit="1.45" transform="matrix(0.3724,0,0,0.3724,193.2516,253.2005)" stroke-linecap="butt" stroke="rgb(166,166,178)">
      <rect fill="none" width="422.4026" x="362.965" height="48.746" y="-124.746"/>
    </g>
    <g font-family="sans-serif" transform="matrix(0.3724,0,0,0.3724,193.2516,253.2005)">
      <text xml:space="preserve" x="368.965" y="-129.5761" onclick="umlload('http://docs.oracle.com/javase/6/docs/api/java/util/package-summary.html')" stroke="none">java.util</text>
    </g>
    <g fill="rgb(221,221,255)" transform="matrix(0.3724,0,0,0.3724,193.2516,253.2005)" stroke="rgb(221,221,255)">
      <rect x="370.965" y="-116.7147" clip-path="url(#clipPath9)" width="406.4026" height="32.7147" stroke="none"/>
    </g>
    <g fill="rgb(154,154,178)" stroke-miterlimit="1.45" transform="matrix(0.3724,0,0,0.3724,193.2516,253.2005)" stroke-linecap="butt" stroke="rgb(154,154,178)">
      <ellipse rx="203.2013" fill="none" ry="16.3574" cx="574.1663" cy="-100.3574"/>
    </g>
    <g font-style="italic" font-size="13" font-weight="bold" font-family="sans-serif" transform="matrix(0.3724,0,0,0.3724,193.2516,253.2005)">
      <text xml:space="preserve" x="438.6663" y="-95.8569" onclick="umlload('http://docs.oracle.com/javase/6/docs/api/java/util/Iterator.html')" stroke="none">Iterator&lt;ODataBatchResponseItem&gt;</text>
    </g>
    <g fill="rgb(238,238,255)" transform="matrix(0.3724,0,0,0.3724,193.2516,253.2005)" stroke="rgb(238,238,255)">
      <rect width="76.1412" x="259.285" height="17.9688" y="-133.1328" stroke="none"/>
    </g>
    <g fill="rgb(166,166,178)" stroke-miterlimit="1.45" transform="matrix(0.3724,0,0,0.3724,193.2516,253.2005)" stroke-linecap="butt" stroke="rgb(166,166,178)">
      <rect fill="none" width="76.1412" x="259.285" height="17.9688" y="-133.1328"/>
    </g>
    <g fill="rgb(238,238,255)" transform="matrix(0.3724,0,0,0.3724,193.2516,253.2005)" stroke="rgb(238,238,255)">
      <rect width="76.1412" x="259.285" height="39.1641" y="-115.1641" stroke="none"/>
    </g>
    <g fill="rgb(166,166,178)" stroke-miterlimit="1.45" transform="matrix(0.3724,0,0,0.3724,193.2516,253.2005)" stroke-linecap="butt" stroke="rgb(166,166,178)">
      <rect fill="none" width="76.1412" x="259.285" height="39.1641" y="-115.1641"/>
    </g>
    <g font-family="sans-serif" transform="matrix(0.3724,0,0,0.3724,193.2516,253.2005)">
      <text xml:space="preserve" x="265.285" y="-119.9941" onclick="umlload('http://docs.oracle.com/javase/6/docs/api/java/lang/package-summary.html')" stroke="none">java.lang</text>
    </g>
    <g fill="rgb(187,187,255)" transform="matrix(0.3724,0,0,0.3724,193.2516,253.2005)" stroke="rgb(187,187,255)">
      <rect x="267.285" y="-107.1328" clip-path="url(#clipPath10)" width="57.68" height="23.1328" stroke="none"/>
    </g>
    <g fill="rgb(130,130,178)" stroke-miterlimit="1.45" transform="matrix(0.3724,0,0,0.3724,193.2516,253.2005)" stroke-linecap="butt" stroke="rgb(130,130,178)">
      <rect fill="none" width="57.68" x="267.285" height="23.1328" y="-107.1328"/>
    </g>
    <g font-size="13" font-weight="bold" font-family="sans-serif" transform="matrix(0.3724,0,0,0.3724,193.2516,253.2005)">
      <text xml:space="preserve" x="272.125" y="-91.0659" onclick="umlload('http://docs.oracle.com/javase/6/docs/api/java/lang/Object.html')" stroke="none">Object</text>
    </g>
    <g fill="rgb(238,238,255)" transform="matrix(0.3724,0,0,0.3724,193.2516,253.2005)" stroke="rgb(238,238,255)">
      <rect width="467.6133" x="-8" height="17.9688" y="-26" stroke="none"/>
    </g>
    <g fill="rgb(166,166,178)" stroke-miterlimit="1.45" transform="matrix(0.3724,0,0,0.3724,193.2516,253.2005)" stroke-linecap="butt" stroke="rgb(166,166,178)">
      <rect fill="none" width="467.6133" x="-8" height="17.9688" y="-26"/>
    </g>
    <g fill="rgb(238,238,255)" transform="matrix(0.3724,0,0,0.3724,193.2516,253.2005)" stroke="rgb(238,238,255)">
      <rect width="608.25" x="-8" height="360.8592" y="-8.0312" stroke="none"/>
    </g>
    <g fill="rgb(166,166,178)" stroke-miterlimit="1.45" transform="matrix(0.3724,0,0,0.3724,193.2516,253.2005)" stroke-linecap="butt" stroke="rgb(166,166,178)">
      <rect fill="none" width="608.25" x="-8" height="360.8592" y="-8.0312"/>
    </g>
    <g font-family="sans-serif" transform="matrix(0.3724,0,0,0.3724,193.2516,253.2005)">
      <text xml:space="preserve" x="-2" y="-12.8613" onclick="umlload('package-summary.html')" stroke="none">com.msopentech.odatajclient.engine.communication.request.batch</text>
    </g>
    <g fill="rgb(187,187,255)" transform="matrix(0.3724,0,0,0.3724,193.2516,253.2005)" stroke="rgb(187,187,255)">
      <rect x="0" y="0" clip-path="url(#clipPath11)" width="592.25" height="26.625" stroke="none"/>
      <line clip-path="url(#clipPath11)" fill="none" x1="0" x2="592.25" y1="26.625" y2="26.625" stroke="black"/>
      <rect x="0" y="27.625" clip-path="url(#clipPath11)" width="592.25" height="15.9688" stroke="none"/>
      <line clip-path="url(#clipPath11)" fill="none" x1="0" x2="592.25" y1="43.5938" y2="43.5938" stroke="black"/>
      <rect x="0" y="44.5938" clip-path="url(#clipPath11)" width="592.25" height="300.2342" stroke="none"/>
    </g>
    <g fill="rgb(130,130,178)" stroke-miterlimit="1.45" transform="matrix(0.3724,0,0,0.3724,193.2516,253.2005)" stroke-linecap="butt" stroke="rgb(130,130,178)">
      <rect fill="none" width="592.25" x="0" height="344.8279" y="0"/>
    </g>
    <g font-size="16" font-weight="bold" font-family="sans-serif" transform="matrix(0.3724,0,0,0.3724,193.2516,253.2005)">
      <text xml:space="preserve" x="161.125" y="18.8516" onclick="umlload('#')" stroke="none">ODataBatchResponseManager</text>
    </g>
    <g font-family="sans-serif" transform="matrix(0.3724,0,0,0.3724,193.2516,253.2005)">
      <text xml:space="preserve" x="4" y="38.1719" stroke="none">+</text>
      <text xml:space="preserve" x="19" y="39.7637" onclick="umlload('#ODataBatchResponseManager(com.msopentech.odatajclient.engine.communication.response.ODataBatchResponse, java.util.List)')" stroke="none">ODataBatchResponseManager(ODataBatchResponse, List&lt;ODataBatchResponseItem&gt;)</text>
    </g>
    <g font-family="sans-serif" transform="matrix(0.3724,0,0,0.3724,193.2516,253.2005)">
      <text xml:space="preserve" x="4" y="55.1719" stroke="none">+</text>
      <text xml:space="preserve" x="19" y="56.7324" onclick="umlload('#hasNext()')" stroke="none">hasNext() : boolean</text>
    </g>
    <g font-family="sans-serif" transform="matrix(0.3724,0,0,0.3724,193.2516,253.2005)">
      <text xml:space="preserve" x="4" y="71.1719" stroke="none">+</text>
      <text xml:space="preserve" x="19" y="72.7012" onclick="umlload('#next()')" stroke="none">next() : ODataBatchResponseItem</text>
    </g>
    <g font-family="sans-serif" transform="matrix(0.3724,0,0,0.3724,193.2516,253.2005)">
      <text xml:space="preserve" x="4" y="87.1719" stroke="none">+</text>
      <text xml:space="preserve" x="19" y="88.6699" onclick="umlload('#remove()')" stroke="none">remove() : void</text>
    </g>
    <g font-family="sans-serif" transform="matrix(0.3724,0,0,0.3724,193.2516,253.2005)">
      <text xml:space="preserve" x="-513" y="377.1543" onclick="umlload('http://www.yworks.com/')" stroke="none">yWorks UML Doclet</text>
    </g>
    <g stroke-miterlimit="1.45" transform="matrix(0.3724,0,0,0.3724,193.2516,253.2005)" stroke-linecap="butt">
      <path fill="none" d="M296.125 0.0281 L296.125 -69"/>
      <path fill="white" d="M296.125 -84 L290.125 -68 L302.125 -68 Z" stroke="none"/>
      <path fill="none" d="M296.125 -84 L290.125 -68 L302.125 -68 Z"/>
      <path fill="none" stroke-dasharray="6,2" d="M444.1875 0.0468 L444.1875 -51 L574.1663 -51 L574.1663 -69"/>
      <path fill="white" stroke-dasharray="6,2" d="M574.1663 -84 L568.1663 -68 L580.1663 -68 Z" stroke="none"/>
      <path fill="none" d="M574.1663 -84 L568.1663 -68 L580.1663 -68 Z"/>
      <path fill="none" d="M-0.0237 11.5664 L-323.68 11.5664"/>
      <line stroke-linecap="square" transform="matrix(-1,0,0,-1,-323.68,11.5664)" fill="none" x1="0" x2="-14" y1="0" y2="-4" stroke-miterlimit="10"/>
      <line stroke-linecap="square" transform="matrix(-1,0,0,-1,-323.68,11.5664)" fill="none" x1="0" x2="-14" y1="0" y2="4" stroke-miterlimit="10"/>
    </g>
    <g stroke-miterlimit="1.45" transform="matrix(0.3724,0,0,0.3724,193.2516,253.2005)" stroke-linecap="butt">
      <path fill="none" d="M-0.0348 44.6992 L-303.08 44.6992"/>
      <line stroke-linecap="square" transform="matrix(-1,0,0,-1,-303.08,44.6992)" fill="none" x1="0" x2="-14" y1="0" y2="-4" stroke-miterlimit="10"/>
      <line stroke-linecap="square" transform="matrix(-1,0,0,-1,-303.08,44.6992)" fill="none" x1="0" x2="-14" y1="0" y2="4" stroke-miterlimit="10"/>
    </g>
    <g stroke-miterlimit="1.45" transform="matrix(0.3724,0,0,0.3724,193.2516,253.2005)" stroke-linecap="butt">
      <path fill="none" d="M0.0477 131.832 L-76.48 131.832"/>
      <line stroke-linecap="square" transform="matrix(-1,0,0,-1,-76.48,131.832)" fill="none" x1="0" x2="-14" y1="0" y2="-4" stroke-miterlimit="10"/>
      <line stroke-linecap="square" transform="matrix(-1,0,0,-1,-76.48,131.832)" fill="none" x1="0" x2="-14" y1="0" y2="4" stroke-miterlimit="10"/>
    </g>
    <g stroke-miterlimit="1.45" transform="matrix(0.3724,0,0,0.3724,193.2516,253.2005)" stroke-linecap="butt">
      <path fill="none" d="M-0.0095 223.7558 L-66 223.7558"/>
      <line stroke-linecap="square" transform="matrix(-1,0,0,-1,-66,223.7558)" fill="none" x1="0" x2="-14" y1="0" y2="-4" stroke-miterlimit="10"/>
      <line stroke-linecap="square" transform="matrix(-1,0,0,-1,-66,223.7558)" fill="none" x1="0" x2="-14" y1="0" y2="4" stroke-miterlimit="10"/>
    </g>
    <g stroke-miterlimit="1.45" transform="matrix(0.3724,0,0,0.3724,193.2516,253.2005)" stroke-linecap="butt">
      <path fill="none" d="M0.0067 320.4706 L-66 320.4706"/>
      <line stroke-linecap="square" transform="matrix(-1,0,0,-1,-66,320.4706)" fill="none" x1="0" x2="-14" y1="0" y2="-4" stroke-miterlimit="10"/>
      <line stroke-linecap="square" transform="matrix(-1,0,0,-1,-66,320.4706)" fill="none" x1="0" x2="-14" y1="0" y2="4" stroke-miterlimit="10"/>
    </g>
    <g stroke-dasharray="6,2" stroke-miterlimit="1.45" transform="matrix(0.3724,0,0,0.3724,193.2516,253.2005)" stroke-linecap="butt">
      <path fill="none" d="M592.2415 16.3574 L658.25 16.3574"/>
      <line stroke-linecap="square" transform="matrix(1,0,0,1,658.25,16.3574)" fill="none" x1="0" x2="-14" y1="0" y2="-4" stroke-dasharray="none" stroke-miterlimit="10"/>
      <line stroke-linecap="square" transform="matrix(1,0,0,1,658.25,16.3574)" fill="none" x1="0" x2="-14" y1="0" y2="4" stroke-dasharray="none" stroke-miterlimit="10"/>
    </g>
    <g stroke-dasharray="6,2" stroke-miterlimit="1.45" transform="matrix(0.3724,0,0,0.3724,193.2516,253.2005)" stroke-linecap="butt">
      <path fill="none" d="M592.278 113.0721 L658.25 113.0721"/>
      <line stroke-linecap="square" transform="matrix(1,0,0,1,658.25,113.0721)" fill="none" x1="0" x2="-14" y1="0" y2="-4" stroke-dasharray="none" stroke-miterlimit="10"/>
      <line stroke-linecap="square" transform="matrix(1,0,0,1,658.25,113.0721)" fill="none" x1="0" x2="-14" y1="0" y2="4" stroke-dasharray="none" stroke-miterlimit="10"/>
    </g>
  </g>
</svg>
