<?xml version="1.0" encoding="UTF-8"?><svg xmlns="http://www.w3.org/2000/svg" xmlns:xlink="http://www.w3.org/1999/xlink" fill-opacity="1" color-rendering="auto" color-interpolation="auto" stroke="black" text-rendering="auto" stroke-linecap="square" width="598" stroke-miterlimit="10" stroke-opacity="1" shape-rendering="auto" fill="black" stroke-dasharray="none" font-weight="normal" stroke-width="1" height="598" font-family="'Dialog'" font-style="normal" stroke-linejoin="miter" font-size="12" stroke-dashoffset="0" image-rendering="auto">
  <!--Generated by ySVG-->
  <defs id="genericDefs"/>
  <g>
    <defs id="defs1">
      <clipPath clipPathUnits="userSpaceOnUse" id="clipPath1">
        <path d="M0 0 L598 0 L598 598 L0 598 L0 0 Z"/>
      </clipPath>
      <clipPath clipPathUnits="userSpaceOnUse" id="clipPath2">
        <path d="M682.19 16.3574 C682.19 25.3913 641.43 32.7147 591.15 32.7147 C540.87 32.7147 500.11 25.3913 500.11 16.3574 C500.11 7.3234 540.87 0 591.15 0 C641.43 0 682.19 7.3234 682.19 16.3574 Z"/>
      </clipPath>
      <clipPath clipPathUnits="userSpaceOnUse" id="clipPath3">
        <path d="M-130.04 0 L-76.48 0 L-76.48 23.1328 L-130.04 23.1328 L-130.04 0 Z"/>
      </clipPath>
      <clipPath clipPathUnits="userSpaceOnUse" id="clipPath4">
        <path d="M33.475 -107.1328 L240.505 -107.1328 L240.505 -84 L33.475 -84 L33.475 -107.1328 Z"/>
      </clipPath>
      <clipPath clipPathUnits="userSpaceOnUse" id="clipPath5">
        <path d="M0 0 L273.98 0 L273.98 109.4688 L0 109.4688 L0 0 Z"/>
      </clipPath>
      <script type="text/ecmascript"><![CDATA[
function umlload(newLocation)
{
if (newLocation.charAt(0) != '#') {
if (newLocation.indexOf("://") > -1) {
window.parent.location.href = newLocation;
} else {
var tmp = window.parent.location.href;
tmp = tmp.substring(0, tmp.lastIndexOf("/") + 1);
window.parent.location.href = tmp.concat(newLocation);
}
} else {
window.parent.location.hash = newLocation;
}
}
]]></script>
    </defs>
    <g fill="rgb(238,238,255)" transform="matrix(0.5599,0,0,0.5599,77.8296,293.4007)" stroke="rgb(238,238,255)">
      <rect width="435.7863" x="492.11" height="17.9688" y="-26" stroke="none"/>
    </g>
    <g fill="rgb(166,166,178)" stroke-miterlimit="1.45" transform="matrix(0.5599,0,0,0.5599,77.8296,293.4007)" stroke-linecap="butt" stroke="rgb(166,166,178)">
      <rect fill="none" width="435.7863" x="492.11" height="17.9688" y="-26"/>
    </g>
    <g fill="rgb(238,238,255)" transform="matrix(0.5599,0,0,0.5599,77.8296,293.4007)" stroke="rgb(238,238,255)">
      <rect width="436.08" x="492.11" height="48.746" y="-8.0312" stroke="none"/>
    </g>
    <g fill="rgb(166,166,178)" stroke-miterlimit="1.45" transform="matrix(0.5599,0,0,0.5599,77.8296,293.4007)" stroke-linecap="butt" stroke="rgb(166,166,178)">
      <rect fill="none" width="436.08" x="492.11" height="48.746" y="-8.0312"/>
    </g>
    <g font-family="sans-serif" transform="matrix(0.5599,0,0,0.5599,77.8296,293.4007)">
      <text xml:space="preserve" x="498.11" y="-12.8613" onclick="umlload('../../../../../../../com/msopentech/odatajclient/engine/communication/response/package-summary.html')" stroke="none">com.msopentech.odatajclient.engine.communication.response</text>
    </g>
    <g fill="rgb(221,221,255)" transform="matrix(0.5599,0,0,0.5599,77.8296,293.4007)" stroke="rgb(221,221,255)">
      <rect x="500.11" y="0" clip-path="url(#clipPath2)" width="182.08" height="32.7147" stroke="none"/>
    </g>
    <g fill="rgb(154,154,178)" stroke-miterlimit="1.45" transform="matrix(0.5599,0,0,0.5599,77.8296,293.4007)" stroke-linecap="butt" stroke="rgb(154,154,178)">
      <ellipse rx="91.04" fill="none" ry="16.3574" cx="591.15" cy="16.3574"/>
    </g>
    <g font-style="italic" font-size="13" font-weight="bold" font-family="sans-serif" transform="matrix(0.5599,0,0,0.5599,77.8296,293.4007)">
      <text xml:space="preserve" x="532.65" y="20.8579" onclick="umlload('../../../../../../../com/msopentech/odatajclient/engine/communication/response/ODataResponse.html')" stroke="none">ODataResponse</text>
    </g>
    <g fill="rgb(238,238,255)" transform="matrix(0.5599,0,0,0.5599,77.8296,293.4007)" stroke="rgb(238,238,255)">
      <rect width="76.1412" x="-138.04" height="17.9688" y="-26" stroke="none"/>
    </g>
    <g fill="rgb(166,166,178)" stroke-miterlimit="1.45" transform="matrix(0.5599,0,0,0.5599,77.8296,293.4007)" stroke-linecap="butt" stroke="rgb(166,166,178)">
      <rect fill="none" width="76.1412" x="-138.04" height="17.9688" y="-26"/>
    </g>
    <g fill="rgb(238,238,255)" transform="matrix(0.5599,0,0,0.5599,77.8296,293.4007)" stroke="rgb(238,238,255)">
      <rect width="79.56" x="-138.04" height="39.1641" y="-8.0312" stroke="none"/>
    </g>
    <g fill="rgb(166,166,178)" stroke-miterlimit="1.45" transform="matrix(0.5599,0,0,0.5599,77.8296,293.4007)" stroke-linecap="butt" stroke="rgb(166,166,178)">
      <rect fill="none" width="79.56" x="-138.04" height="39.1641" y="-8.0312"/>
    </g>
    <g font-family="sans-serif" transform="matrix(0.5599,0,0,0.5599,77.8296,293.4007)">
      <text xml:space="preserve" x="-132.04" y="-12.8613" onclick="umlload('http://docs.oracle.com/javase/6/docs/api/java/lang/package-summary.html')" stroke="none">java.lang</text>
    </g>
    <g fill="rgb(187,187,255)" transform="matrix(0.5599,0,0,0.5599,77.8296,293.4007)" stroke="rgb(187,187,255)">
      <rect x="-130.04" y="0" clip-path="url(#clipPath3)" width="53.56" height="23.1328" stroke="none"/>
    </g>
    <g fill="rgb(130,130,178)" stroke-miterlimit="1.45" transform="matrix(0.5599,0,0,0.5599,77.8296,293.4007)" stroke-linecap="butt" stroke="rgb(130,130,178)">
      <rect fill="none" width="53.56" x="-130.04" height="23.1328" y="0"/>
    </g>
    <g font-size="13" font-weight="bold" font-family="sans-serif" transform="matrix(0.5599,0,0,0.5599,77.8296,293.4007)">
      <text xml:space="preserve" x="-125.26" y="16.0669" onclick="umlload('http://docs.oracle.com/javase/6/docs/api/java/lang/String.html')" stroke="none">String</text>
    </g>
    <g fill="rgb(238,238,255)" transform="matrix(0.5599,0,0,0.5599,77.8296,293.4007)" stroke="rgb(238,238,255)">
      <rect width="467.6133" x="-88.525" height="17.9688" y="-133.1328" stroke="none"/>
    </g>
    <g fill="rgb(166,166,178)" stroke-miterlimit="1.45" transform="matrix(0.5599,0,0,0.5599,77.8296,293.4007)" stroke-linecap="butt" stroke="rgb(166,166,178)">
      <rect fill="none" width="467.6133" x="-88.525" height="17.9688" y="-133.1328"/>
    </g>
    <g fill="rgb(238,238,255)" transform="matrix(0.5599,0,0,0.5599,77.8296,293.4007)" stroke="rgb(238,238,255)">
      <rect width="468.03" x="-88.525" height="39.1641" y="-115.1641" stroke="none"/>
    </g>
    <g fill="rgb(166,166,178)" stroke-miterlimit="1.45" transform="matrix(0.5599,0,0,0.5599,77.8296,293.4007)" stroke-linecap="butt" stroke="rgb(166,166,178)">
      <rect fill="none" width="468.03" x="-88.525" height="39.1641" y="-115.1641"/>
    </g>
    <g font-family="sans-serif" transform="matrix(0.5599,0,0,0.5599,77.8296,293.4007)">
      <text xml:space="preserve" x="-82.525" y="-119.9941" onclick="umlload('../../../../../../../com/msopentech/odatajclient/engine/communication/request/batch/package-summary.html')" stroke="none">com.msopentech.odatajclient.engine.communication.request.batch</text>
    </g>
    <g fill="rgb(204,204,255)" transform="matrix(0.5599,0,0,0.5599,77.8296,293.4007)" stroke="rgb(204,204,255)">
      <rect x="33.475" y="-107.1328" clip-path="url(#clipPath4)" width="207.03" height="23.1328" stroke="none"/>
    </g>
    <g fill="rgb(142,142,178)" stroke-miterlimit="1.45" transform="matrix(0.5599,0,0,0.5599,77.8296,293.4007)" stroke-linecap="butt" stroke="rgb(142,142,178)">
      <rect fill="none" width="207.03" x="33.475" height="23.1328" y="-107.1328"/>
    </g>
    <g font-size="13" font-weight="bold" font-family="sans-serif" transform="matrix(0.5599,0,0,0.5599,77.8296,293.4007)">
      <text xml:space="preserve" x="40.49" y="-91.0659" onclick="umlload('../../../../../../../com/msopentech/odatajclient/engine/communication/request/batch/ODataBatchResponseItem.html')" stroke="none">ODataBatchResponseItem</text>
    </g>
    <g fill="rgb(238,238,255)" transform="matrix(0.5599,0,0,0.5599,77.8296,293.4007)" stroke="rgb(238,238,255)">
      <rect width="467.6133" x="-8" height="17.9688" y="-26" stroke="none"/>
    </g>
    <g fill="rgb(166,166,178)" stroke-miterlimit="1.45" transform="matrix(0.5599,0,0,0.5599,77.8296,293.4007)" stroke-linecap="butt" stroke="rgb(166,166,178)">
      <rect fill="none" width="467.6133" x="-8" height="17.9688" y="-26"/>
    </g>
    <g fill="rgb(238,238,255)" transform="matrix(0.5599,0,0,0.5599,77.8296,293.4007)" stroke="rgb(238,238,255)">
      <rect width="467.98" x="-8" height="125.5" y="-8.0312" stroke="none"/>
    </g>
    <g fill="rgb(166,166,178)" stroke-miterlimit="1.45" transform="matrix(0.5599,0,0,0.5599,77.8296,293.4007)" stroke-linecap="butt" stroke="rgb(166,166,178)">
      <rect fill="none" width="467.98" x="-8" height="125.5" y="-8.0312"/>
    </g>
    <g font-family="sans-serif" transform="matrix(0.5599,0,0,0.5599,77.8296,293.4007)">
      <text xml:space="preserve" x="-2" y="-12.8613" onclick="umlload('package-summary.html')" stroke="none">com.msopentech.odatajclient.engine.communication.request.batch</text>
    </g>
    <g fill="rgb(187,187,255)" transform="matrix(0.5599,0,0,0.5599,77.8296,293.4007)" stroke="rgb(187,187,255)">
      <rect x="0" y="0" clip-path="url(#clipPath5)" width="273.98" height="26.625" stroke="none"/>
      <line clip-path="url(#clipPath5)" fill="none" x1="0" x2="273.98" y1="26.625" y2="26.625" stroke="black"/>
      <rect x="0" y="27.625" clip-path="url(#clipPath5)" width="273.98" height="15.9688" stroke="none"/>
      <line clip-path="url(#clipPath5)" fill="none" x1="0" x2="273.98" y1="43.5938" y2="43.5938" stroke="black"/>
      <rect x="0" y="44.5938" clip-path="url(#clipPath5)" width="273.98" height="15.9688" stroke="none"/>
      <line clip-path="url(#clipPath5)" fill="none" x1="0" x2="273.98" y1="60.5625" y2="60.5625" stroke="black"/>
      <rect x="0" y="61.5625" clip-path="url(#clipPath5)" width="273.98" height="47.9062" stroke="none"/>
    </g>
    <g fill="rgb(130,130,178)" stroke-miterlimit="1.45" transform="matrix(0.5599,0,0,0.5599,77.8296,293.4007)" stroke-linecap="butt" stroke="rgb(130,130,178)">
      <rect fill="none" width="273.98" x="0" height="109.4688" y="0"/>
    </g>
    <g font-size="16" font-weight="bold" font-family="sans-serif" transform="matrix(0.5599,0,0,0.5599,77.8296,293.4007)">
      <text xml:space="preserve" x="7.99" y="18.8516" onclick="umlload('#')" stroke="none">ODataRetrieveResponseItem</text>
    </g>
    <g font-family="sans-serif" transform="matrix(0.5599,0,0,0.5599,77.8296,293.4007)">
      <text xml:space="preserve" x="4" y="38.1719" stroke="none">+</text>
      <text xml:space="preserve" x="19" y="39.7637" onclick="umlload('#RETRIEVE_CONTENT_ID')" stroke="none">RETRIEVE_CONTENT_ID : String</text>
      <line y2="42.5938" fill="none" x1="19" x2="207" y1="42.5938"/>
    </g>
    <g font-family="sans-serif" transform="matrix(0.5599,0,0,0.5599,77.8296,293.4007)">
      <text xml:space="preserve" x="4" y="55.1719" stroke="none">+</text>
      <text xml:space="preserve" x="19" y="56.7324" onclick="umlload('#ODataRetrieveResponseItem()')" stroke="none">ODataRetrieveResponseItem()</text>
    </g>
    <g font-family="sans-serif" transform="matrix(0.5599,0,0,0.5599,77.8296,293.4007)">
      <text xml:space="preserve" x="4" y="72.1719" stroke="none">+</text>
      <text xml:space="preserve" x="19" y="73.7012" onclick="umlload('#hasNext()')" stroke="none">hasNext() : boolean</text>
    </g>
    <g font-family="sans-serif" transform="matrix(0.5599,0,0,0.5599,77.8296,293.4007)">
      <text xml:space="preserve" x="4" y="88.1719" stroke="none">+</text>
      <text xml:space="preserve" x="19" y="89.6699" onclick="umlload('#next()')" stroke="none">next() : ODataResponse</text>
    </g>
    <g font-family="sans-serif" transform="matrix(0.5599,0,0,0.5599,77.8296,293.4007)">
      <text xml:space="preserve" x="4" y="104.1719" stroke="none">+</text>
      <text xml:space="preserve" x="19" y="105.6387" onclick="umlload('#remove()')" stroke="none">remove() : void</text>
    </g>
    <g font-family="sans-serif" transform="matrix(0.5599,0,0,0.5599,77.8296,293.4007)">
      <text xml:space="preserve" x="-133" y="142.1543" onclick="umlload('http://www.yworks.com/')" stroke="none">yWorks UML Doclet</text>
    </g>
    <g stroke-miterlimit="1.45" transform="matrix(0.5599,0,0,0.5599,77.8296,293.4007)" stroke-linecap="butt">
      <path fill="none" d="M136.99 0 L136.99 -69"/>
      <path fill="white" d="M136.99 -84 L130.99 -68 L142.99 -68 Z" stroke="none"/>
      <path fill="none" d="M136.99 -84 L130.99 -68 L142.99 -68 Z"/>
      <path fill="none" d="M0.0017 11.5664 L-76.48 11.5664"/>
      <line stroke-linecap="square" transform="matrix(-1,0,0,-1,-76.48,11.5664)" fill="none" x1="0" x2="-14" y1="0" y2="-4" stroke-miterlimit="10"/>
      <line stroke-linecap="square" transform="matrix(-1,0,0,-1,-76.48,11.5664)" fill="none" x1="0" x2="-14" y1="0" y2="4" stroke-miterlimit="10"/>
    </g>
    <g stroke-dasharray="6,2" stroke-miterlimit="1.45" transform="matrix(0.5599,0,0,0.5599,77.8296,293.4007)" stroke-linecap="butt">
      <path fill="none" d="M273.9532 16.3574 L500.11 16.3574"/>
      <line stroke-linecap="square" transform="matrix(1,0,0,1,500.11,16.3574)" fill="none" x1="0" x2="-14" y1="0" y2="-4" stroke-dasharray="none" stroke-miterlimit="10"/>
      <line stroke-linecap="square" transform="matrix(1,0,0,1,500.11,16.3574)" fill="none" x1="0" x2="-14" y1="0" y2="4" stroke-dasharray="none" stroke-miterlimit="10"/>
    </g>
  </g>
</svg>
