<?xml version="1.0" encoding="UTF-8"?><svg xmlns="http://www.w3.org/2000/svg" xmlns:xlink="http://www.w3.org/1999/xlink" fill-opacity="1" color-rendering="auto" color-interpolation="auto" stroke="black" text-rendering="auto" stroke-linecap="square" width="598" stroke-miterlimit="10" stroke-opacity="1" shape-rendering="auto" fill="black" stroke-dasharray="none" font-weight="normal" stroke-width="1" height="598" font-family="'Dialog'" font-style="normal" stroke-linejoin="miter" font-size="12" stroke-dashoffset="0" image-rendering="auto">
  <!--Generated by ySVG-->
  <defs id="genericDefs"/>
  <g>
    <defs id="defs1">
      <clipPath clipPathUnits="userSpaceOnUse" id="clipPath1">
        <path d="M0 0 L598 0 L598 598 L0 598 L0 0 Z"/>
      </clipPath>
      <clipPath clipPathUnits="userSpaceOnUse" id="clipPath2">
        <path d="M511.99 87.1328 L544.95 87.1328 L544.95 110.2656 L511.99 110.2656 L511.99 87.1328 Z"/>
      </clipPath>
      <clipPath clipPathUnits="userSpaceOnUse" id="clipPath3">
        <path d="M511.99 0 L843.65 0 L843.65 23.1328 L511.99 23.1328 L511.99 0 Z"/>
      </clipPath>
      <clipPath clipPathUnits="userSpaceOnUse" id="clipPath4">
        <path d="M-66 103.4902 C-66 112.5241 -87.1952 119.8475 -113.3408 119.8475 C-139.4864 119.8475 -160.6816 112.5241 -160.6816 103.4902 C-160.6816 94.4563 -139.4864 87.1328 -113.3408 87.1328 C-87.1952 87.1328 -66 94.4563 -66 103.4902 Z"/>
      </clipPath>
      <clipPath clipPathUnits="userSpaceOnUse" id="clipPath5">
        <path d="M-130.04 0 L-76.48 0 L-76.48 23.1328 L-130.04 23.1328 L-130.04 0 Z"/>
      </clipPath>
      <clipPath clipPathUnits="userSpaceOnUse" id="clipPath6">
        <path d="M-150.38 -107.1328 L596.37 -107.1328 L596.37 -84 L-150.38 -84 L-150.38 -107.1328 Z"/>
      </clipPath>
      <clipPath clipPathUnits="userSpaceOnUse" id="clipPath7">
        <path d="M0 0 L445.99 0 L445.99 127.8475 L0 127.8475 L0 0 Z"/>
      </clipPath>
      <script type="text/ecmascript"><![CDATA[
function umlload(newLocation)
{
if (newLocation.charAt(0) != '#') {
if (newLocation.indexOf("://") > -1) {
window.parent.location.href = newLocation;
} else {
var tmp = window.parent.location.href;
tmp = tmp.substring(0, tmp.lastIndexOf("/") + 1);
window.parent.location.href = tmp.concat(newLocation);
}
} else {
window.parent.location.hash = newLocation;
}
}
]]></script>
    </defs>
    <g fill="rgb(238,238,255)" transform="matrix(0.5241,0,0,0.5241,88.5732,289.3041)" stroke="rgb(238,238,255)">
      <rect width="69.7758" x="503.99" height="17.9688" y="61.1328" stroke="none"/>
    </g>
    <g fill="rgb(166,166,178)" stroke-miterlimit="1.45" transform="matrix(0.5241,0,0,0.5241,88.5732,289.3041)" stroke-linecap="butt" stroke="rgb(166,166,178)">
      <rect fill="none" width="69.7758" x="503.99" height="17.9688" y="61.1328"/>
    </g>
    <g fill="rgb(238,238,255)" transform="matrix(0.5241,0,0,0.5241,88.5732,289.3041)" stroke="rgb(238,238,255)">
      <rect width="73.96" x="503.99" height="39.1641" y="79.1016" stroke="none"/>
    </g>
    <g fill="rgb(166,166,178)" stroke-miterlimit="1.45" transform="matrix(0.5241,0,0,0.5241,88.5732,289.3041)" stroke-linecap="butt" stroke="rgb(166,166,178)">
      <rect fill="none" width="73.96" x="503.99" height="39.1641" y="79.1016"/>
    </g>
    <g font-family="sans-serif" transform="matrix(0.5241,0,0,0.5241,88.5732,289.3041)">
      <text xml:space="preserve" x="509.99" y="74.2715" onclick="umlload('http://docs.oracle.com/javase/6/docs/api/java/net/package-summary.html')" stroke="none">java.net</text>
    </g>
    <g fill="rgb(187,187,255)" transform="matrix(0.5241,0,0,0.5241,88.5732,289.3041)" stroke="rgb(187,187,255)">
      <rect x="511.99" y="87.1328" clip-path="url(#clipPath2)" width="32.96" height="23.1328" stroke="none"/>
    </g>
    <g fill="rgb(130,130,178)" stroke-miterlimit="1.45" transform="matrix(0.5241,0,0,0.5241,88.5732,289.3041)" stroke-linecap="butt" stroke="rgb(130,130,178)">
      <rect fill="none" width="32.96" x="511.99" height="23.1328" y="87.1328"/>
    </g>
    <g font-size="13" font-weight="bold" font-family="sans-serif" transform="matrix(0.5241,0,0,0.5241,88.5732,289.3041)">
      <text xml:space="preserve" x="516.47" y="103.1997" onclick="umlload('http://docs.oracle.com/javase/6/docs/api/java/net/URI.html')" stroke="none">URI</text>
    </g>
    <g fill="rgb(238,238,255)" transform="matrix(0.5241,0,0,0.5241,88.5732,289.3041)" stroke="rgb(238,238,255)">
      <rect width="467.6133" x="503.99" height="17.9688" y="-26" stroke="none"/>
    </g>
    <g fill="rgb(166,166,178)" stroke-miterlimit="1.45" transform="matrix(0.5241,0,0,0.5241,88.5732,289.3041)" stroke-linecap="butt" stroke="rgb(166,166,178)">
      <rect fill="none" width="467.6133" x="503.99" height="17.9688" y="-26"/>
    </g>
    <g fill="rgb(238,238,255)" transform="matrix(0.5241,0,0,0.5241,88.5732,289.3041)" stroke="rgb(238,238,255)">
      <rect width="467.66" x="503.99" height="39.1641" y="-8.0312" stroke="none"/>
    </g>
    <g fill="rgb(166,166,178)" stroke-miterlimit="1.45" transform="matrix(0.5241,0,0,0.5241,88.5732,289.3041)" stroke-linecap="butt" stroke="rgb(166,166,178)">
      <rect fill="none" width="467.66" x="503.99" height="39.1641" y="-8.0312"/>
    </g>
    <g font-family="sans-serif" transform="matrix(0.5241,0,0,0.5241,88.5732,289.3041)">
      <text xml:space="preserve" x="509.99" y="-12.8613" onclick="umlload('../../../../../../../com/msopentech/odatajclient/engine/communication/request/batch/package-summary.html')" stroke="none">com.msopentech.odatajclient.engine.communication.request.batch</text>
    </g>
    <g fill="rgb(187,187,255)" transform="matrix(0.5241,0,0,0.5241,88.5732,289.3041)" stroke="rgb(187,187,255)">
      <rect x="511.99" y="0" clip-path="url(#clipPath3)" width="331.66" height="23.1328" stroke="none"/>
    </g>
    <g fill="rgb(130,130,178)" stroke-miterlimit="1.45" transform="matrix(0.5241,0,0,0.5241,88.5732,289.3041)" stroke-linecap="butt" stroke="rgb(130,130,178)">
      <rect fill="none" width="331.66" x="511.99" height="23.1328" y="0"/>
    </g>
    <g font-size="13" font-weight="bold" font-family="sans-serif" transform="matrix(0.5241,0,0,0.5241,88.5732,289.3041)">
      <text xml:space="preserve" x="520.82" y="16.0669" onclick="umlload('../../../../../../../com/msopentech/odatajclient/engine/communication/request/batch/ODataBatchRequest.BatchStreamManager.html')" stroke="none">ODataBatchRequest.BatchStreamManager</text>
    </g>
    <g fill="rgb(238,238,255)" transform="matrix(0.5241,0,0,0.5241,88.5732,289.3041)" stroke="rgb(238,238,255)">
      <rect width="67.654" x="-168.6816" height="17.9688" y="61.1328" stroke="none"/>
    </g>
    <g fill="rgb(166,166,178)" stroke-miterlimit="1.45" transform="matrix(0.5241,0,0,0.5241,88.5732,289.3041)" stroke-linecap="butt" stroke="rgb(166,166,178)">
      <rect fill="none" width="67.654" x="-168.6816" height="17.9688" y="61.1328"/>
    </g>
    <g fill="rgb(238,238,255)" transform="matrix(0.5241,0,0,0.5241,88.5732,289.3041)" stroke="rgb(238,238,255)">
      <rect width="110.6816" x="-168.6816" height="48.746" y="79.1016" stroke="none"/>
    </g>
    <g fill="rgb(166,166,178)" stroke-miterlimit="1.45" transform="matrix(0.5241,0,0,0.5241,88.5732,289.3041)" stroke-linecap="butt" stroke="rgb(166,166,178)">
      <rect fill="none" width="110.6816" x="-168.6816" height="48.746" y="79.1016"/>
    </g>
    <g font-family="sans-serif" transform="matrix(0.5241,0,0,0.5241,88.5732,289.3041)">
      <text xml:space="preserve" x="-162.6816" y="74.2715" onclick="umlload('http://docs.oracle.com/javase/6/docs/api/java/util/package-summary.html')" stroke="none">java.util</text>
    </g>
    <g fill="rgb(221,221,255)" transform="matrix(0.5241,0,0,0.5241,88.5732,289.3041)" stroke="rgb(221,221,255)">
      <rect x="-160.6816" y="87.1328" clip-path="url(#clipPath4)" width="94.6816" height="32.7147" stroke="none"/>
    </g>
    <g fill="rgb(154,154,178)" stroke-miterlimit="1.45" transform="matrix(0.5241,0,0,0.5241,88.5732,289.3041)" stroke-linecap="butt" stroke="rgb(154,154,178)">
      <ellipse rx="47.3408" fill="none" ry="16.3574" cx="-113.3408" cy="103.4902"/>
    </g>
    <g font-style="italic" font-size="13" font-weight="bold" font-family="sans-serif" transform="matrix(0.5241,0,0,0.5241,88.5732,289.3041)">
      <text xml:space="preserve" x="-141.8408" y="107.9907" onclick="umlload('http://docs.oracle.com/javase/6/docs/api/java/util/List.html')" stroke="none">List&lt;E&gt;</text>
    </g>
    <g fill="rgb(238,238,255)" transform="matrix(0.5241,0,0,0.5241,88.5732,289.3041)" stroke="rgb(238,238,255)">
      <rect width="76.1412" x="-138.04" height="17.9688" y="-26" stroke="none"/>
    </g>
    <g fill="rgb(166,166,178)" stroke-miterlimit="1.45" transform="matrix(0.5241,0,0,0.5241,88.5732,289.3041)" stroke-linecap="butt" stroke="rgb(166,166,178)">
      <rect fill="none" width="76.1412" x="-138.04" height="17.9688" y="-26"/>
    </g>
    <g fill="rgb(238,238,255)" transform="matrix(0.5241,0,0,0.5241,88.5732,289.3041)" stroke="rgb(238,238,255)">
      <rect width="79.56" x="-138.04" height="39.1641" y="-8.0312" stroke="none"/>
    </g>
    <g fill="rgb(166,166,178)" stroke-miterlimit="1.45" transform="matrix(0.5241,0,0,0.5241,88.5732,289.3041)" stroke-linecap="butt" stroke="rgb(166,166,178)">
      <rect fill="none" width="79.56" x="-138.04" height="39.1641" y="-8.0312"/>
    </g>
    <g font-family="sans-serif" transform="matrix(0.5241,0,0,0.5241,88.5732,289.3041)">
      <text xml:space="preserve" x="-132.04" y="-12.8613" onclick="umlload('http://docs.oracle.com/javase/6/docs/api/java/lang/package-summary.html')" stroke="none">java.lang</text>
    </g>
    <g fill="rgb(187,187,255)" transform="matrix(0.5241,0,0,0.5241,88.5732,289.3041)" stroke="rgb(187,187,255)">
      <rect x="-130.04" y="0" clip-path="url(#clipPath5)" width="53.56" height="23.1328" stroke="none"/>
    </g>
    <g fill="rgb(130,130,178)" stroke-miterlimit="1.45" transform="matrix(0.5241,0,0,0.5241,88.5732,289.3041)" stroke-linecap="butt" stroke="rgb(130,130,178)">
      <rect fill="none" width="53.56" x="-130.04" height="23.1328" y="0"/>
    </g>
    <g font-size="13" font-weight="bold" font-family="sans-serif" transform="matrix(0.5241,0,0,0.5241,88.5732,289.3041)">
      <text xml:space="preserve" x="-125.26" y="16.0669" onclick="umlload('http://docs.oracle.com/javase/6/docs/api/java/lang/String.html')" stroke="none">String</text>
    </g>
    <g fill="rgb(238,238,255)" transform="matrix(0.5241,0,0,0.5241,88.5732,289.3041)" stroke="rgb(238,238,255)">
      <rect width="493.0749" x="-158.38" height="17.9688" y="-133.1328" stroke="none"/>
    </g>
    <g fill="rgb(166,166,178)" stroke-miterlimit="1.45" transform="matrix(0.5241,0,0,0.5241,88.5732,289.3041)" stroke-linecap="butt" stroke="rgb(166,166,178)">
      <rect fill="none" width="493.0749" x="-158.38" height="17.9688" y="-133.1328"/>
    </g>
    <g fill="rgb(238,238,255)" transform="matrix(0.5241,0,0,0.5241,88.5732,289.3041)" stroke="rgb(238,238,255)">
      <rect width="762.75" x="-158.38" height="39.1641" y="-115.1641" stroke="none"/>
    </g>
    <g fill="rgb(166,166,178)" stroke-miterlimit="1.45" transform="matrix(0.5241,0,0,0.5241,88.5732,289.3041)" stroke-linecap="butt" stroke="rgb(166,166,178)">
      <rect fill="none" width="762.75" x="-158.38" height="39.1641" y="-115.1641"/>
    </g>
    <g font-family="sans-serif" transform="matrix(0.5241,0,0,0.5241,88.5732,289.3041)">
      <text xml:space="preserve" x="-152.38" y="-119.9941" onclick="umlload('../../../../../../../com/msopentech/odatajclient/engine/communication/request/streamed/package-summary.html')" stroke="none">com.msopentech.odatajclient.engine.communication.request.streamed</text>
    </g>
    <g fill="rgb(204,204,255)" transform="matrix(0.5241,0,0,0.5241,88.5732,289.3041)" stroke="rgb(204,204,255)">
      <rect x="-150.38" y="-107.1328" clip-path="url(#clipPath6)" width="746.75" height="23.1328" stroke="none"/>
    </g>
    <g fill="rgb(142,142,178)" stroke-miterlimit="1.45" transform="matrix(0.5241,0,0,0.5241,88.5732,289.3041)" stroke-linecap="butt" stroke="rgb(142,142,178)">
      <rect fill="none" width="746.75" x="-150.38" height="23.1328" y="-107.1328"/>
    </g>
    <g font-size="13" font-weight="bold" font-family="sans-serif" transform="matrix(0.5241,0,0,0.5241,88.5732,289.3041)">
      <text xml:space="preserve" x="-135.505" y="-91.0659" onclick="umlload('../../../../../../../com/msopentech/odatajclient/engine/communication/request/streamed/ODataStreamedRequestImpl.html')" stroke="none">ODataStreamedRequestImpl&lt;ODataBatchResponse, ODataBatchRequest.BatchStreamManager&gt;</text>
    </g>
    <g fill="rgb(238,238,255)" transform="matrix(0.5241,0,0,0.5241,88.5732,289.3041)" stroke="rgb(238,238,255)">
      <rect width="467.6133" x="-8" height="17.9688" y="-26" stroke="none"/>
    </g>
    <g fill="rgb(166,166,178)" stroke-miterlimit="1.45" transform="matrix(0.5241,0,0,0.5241,88.5732,289.3041)" stroke-linecap="butt" stroke="rgb(166,166,178)">
      <rect fill="none" width="467.6133" x="-8" height="17.9688" y="-26"/>
    </g>
    <g fill="rgb(238,238,255)" transform="matrix(0.5241,0,0,0.5241,88.5732,289.3041)" stroke="rgb(238,238,255)">
      <rect width="467.99" x="-8" height="143.8788" y="-8.0312" stroke="none"/>
    </g>
    <g fill="rgb(166,166,178)" stroke-miterlimit="1.45" transform="matrix(0.5241,0,0,0.5241,88.5732,289.3041)" stroke-linecap="butt" stroke="rgb(166,166,178)">
      <rect fill="none" width="467.99" x="-8" height="143.8788" y="-8.0312"/>
    </g>
    <g font-family="sans-serif" transform="matrix(0.5241,0,0,0.5241,88.5732,289.3041)">
      <text xml:space="preserve" x="-2" y="-12.8613" onclick="umlload('package-summary.html')" stroke="none">com.msopentech.odatajclient.engine.communication.request.batch</text>
    </g>
    <g fill="rgb(187,187,255)" transform="matrix(0.5241,0,0,0.5241,88.5732,289.3041)" stroke="rgb(187,187,255)">
      <rect x="0" y="0" clip-path="url(#clipPath7)" width="445.99" height="26.625" stroke="none"/>
      <line clip-path="url(#clipPath7)" fill="none" x1="0" x2="445.99" y1="26.625" y2="26.625" stroke="black"/>
      <line clip-path="url(#clipPath7)" x1="0" x2="445.99" y1="27.625" y2="27.625" stroke="none"/>
      <line clip-path="url(#clipPath7)" fill="none" x1="0" x2="445.99" y1="27.625" y2="27.625" stroke="black"/>
      <rect x="0" y="28.625" clip-path="url(#clipPath7)" width="445.99" height="99.2225" stroke="none"/>
    </g>
    <g fill="rgb(130,130,178)" stroke-miterlimit="1.45" transform="matrix(0.5241,0,0,0.5241,88.5732,289.3041)" stroke-linecap="butt" stroke="rgb(130,130,178)">
      <rect fill="none" width="445.99" x="0" height="127.8475" y="0"/>
    </g>
    <g font-size="16" font-weight="bold" font-family="sans-serif" transform="matrix(0.5241,0,0,0.5241,88.5732,289.3041)">
      <text xml:space="preserve" x="132.995" y="18.8516" onclick="umlload('#')" stroke="none">ODataBatchRequest</text>
    </g>
    <g font-family="sans-serif" transform="matrix(0.5241,0,0,0.5241,88.5732,289.3041)">
      <text xml:space="preserve" x="4" y="39.1719" stroke="none">+</text>
      <text xml:space="preserve" x="19" y="40.7637" onclick="umlload('#batch(com.msopentech.odatajclient.engine.communication.request.batch.ODataBatchRequest)')" stroke="none">batch(ODataBatchRequest) : void</text>
    </g>
    <g font-family="sans-serif" transform="matrix(0.5241,0,0,0.5241,88.5732,289.3041)">
      <text xml:space="preserve" x="4" y="55.1719" stroke="none">#</text>
      <text xml:space="preserve" x="19" y="56.7324" onclick="umlload('#getStreamManager()')" stroke="none">getStreamManager() : ODataBatchRequest.BatchStreamManager</text>
    </g>
    <g font-family="sans-serif" transform="matrix(0.5241,0,0,0.5241,88.5732,289.3041)">
      <text xml:space="preserve" x="4" y="71.1719" stroke="none">+</text>
      <text xml:space="preserve" x="19" y="72.7012" onclick="umlload('#rawAppend(byte[])')" stroke="none">rawAppend(byte[]) : ODataBatchRequest</text>
    </g>
    <g font-family="sans-serif" transform="matrix(0.5241,0,0,0.5241,88.5732,289.3041)">
      <text xml:space="preserve" x="4" y="87.1719" stroke="none">+</text>
      <text xml:space="preserve" x="19" y="88.6699" onclick="umlload('#rawAppend(byte[], int, int)')" stroke="none">rawAppend(byte[], int, int) : ODataBatchRequest</text>
    </g>
    <g font-family="sans-serif" transform="matrix(0.5241,0,0,0.5241,88.5732,289.3041)">
      <text xml:space="preserve" x="-163" y="160.1543" onclick="umlload('http://www.yworks.com/')" stroke="none">yWorks UML Doclet</text>
    </g>
    <g stroke-miterlimit="1.45" transform="matrix(0.5241,0,0,0.5241,88.5732,289.3041)" stroke-linecap="butt">
      <path fill="none" d="M222.995 0.0281 L222.995 -69"/>
      <path fill="white" d="M222.995 -84 L216.995 -68 L228.995 -68 Z" stroke="none"/>
      <path fill="none" d="M222.995 -84 L216.995 -68 L228.995 -68 Z"/>
      <path fill="none" d="M0.0089 11.5664 L-76.48 11.5664"/>
      <line stroke-linecap="square" transform="matrix(-1,0,0,-1,-76.48,11.5664)" fill="none" x1="0" x2="-14" y1="0" y2="-4" stroke-miterlimit="10"/>
      <line stroke-linecap="square" transform="matrix(-1,0,0,-1,-76.48,11.5664)" fill="none" x1="0" x2="-14" y1="0" y2="4" stroke-miterlimit="10"/>
    </g>
    <g stroke-miterlimit="1.45" transform="matrix(0.5241,0,0,0.5241,88.5732,289.3041)" stroke-linecap="butt">
      <path fill="none" d="M0.0165 103.4902 L-66 103.4902"/>
      <line stroke-linecap="square" transform="matrix(-1,0,0,-1,-66,103.4902)" fill="none" x1="0" x2="-14" y1="0" y2="-4" stroke-miterlimit="10"/>
      <line stroke-linecap="square" transform="matrix(-1,0,0,-1,-66,103.4902)" fill="none" x1="0" x2="-14" y1="0" y2="4" stroke-miterlimit="10"/>
    </g>
    <g stroke-dasharray="6,2" stroke-miterlimit="1.45" transform="matrix(0.5241,0,0,0.5241,88.5732,289.3041)" stroke-linecap="butt">
      <path fill="none" d="M445.9936 11.5664 L511.99 11.5664"/>
      <line stroke-linecap="square" transform="matrix(1,0,0,1,511.99,11.5664)" fill="none" x1="0" x2="-14" y1="0" y2="-4" stroke-dasharray="none" stroke-miterlimit="10"/>
      <line stroke-linecap="square" transform="matrix(1,0,0,1,511.99,11.5664)" fill="none" x1="0" x2="-14" y1="0" y2="4" stroke-dasharray="none" stroke-miterlimit="10"/>
    </g>
    <g stroke-dasharray="6,2" stroke-miterlimit="1.45" transform="matrix(0.5241,0,0,0.5241,88.5732,289.3041)" stroke-linecap="butt">
      <path fill="none" d="M446.0231 98.6992 L511.99 98.6992"/>
      <line stroke-linecap="square" transform="matrix(1,0,0,1,511.99,98.6992)" fill="none" x1="0" x2="-14" y1="0" y2="-4" stroke-dasharray="none" stroke-miterlimit="10"/>
      <line stroke-linecap="square" transform="matrix(1,0,0,1,511.99,98.6992)" fill="none" x1="0" x2="-14" y1="0" y2="4" stroke-dasharray="none" stroke-miterlimit="10"/>
    </g>
  </g>
</svg>
