<?xml version="1.0" encoding="UTF-8"?><svg xmlns="http://www.w3.org/2000/svg" xmlns:xlink="http://www.w3.org/1999/xlink" fill-opacity="1" color-rendering="auto" color-interpolation="auto" stroke="black" text-rendering="auto" stroke-linecap="square" width="598" stroke-miterlimit="10" stroke-opacity="1" shape-rendering="auto" fill="black" stroke-dasharray="none" font-weight="normal" stroke-width="1" height="598" font-family="'Dialog'" font-style="normal" stroke-linejoin="miter" font-size="12" stroke-dashoffset="0" image-rendering="auto">
  <!--Generated by ySVG-->
  <defs id="genericDefs"/>
  <g>
    <defs id="defs1">
      <clipPath clipPathUnits="userSpaceOnUse" id="clipPath1">
        <path d="M0 0 L598 0 L598 598 L0 598 L0 0 Z"/>
      </clipPath>
      <clipPath clipPathUnits="userSpaceOnUse" id="clipPath2">
        <path d="M772.5016 16.3574 C772.5016 25.3913 711.5247 32.7147 636.3058 32.7147 C561.087 32.7147 500.11 25.3913 500.11 16.3574 C500.11 7.3234 561.087 0 636.3058 0 C711.5247 0 772.5016 7.3234 772.5016 16.3574 Z"/>
      </clipPath>
      <clipPath clipPathUnits="userSpaceOnUse" id="clipPath3">
        <path d="M-510.11 0 L-348.4 0 L-348.4 23.1328 L-510.11 23.1328 L-510.11 0 Z"/>
      </clipPath>
      <clipPath clipPathUnits="userSpaceOnUse" id="clipPath4">
        <path d="M138.02 -107.1328 L263.68 -107.1328 L263.68 -84 L138.02 -84 L138.02 -107.1328 Z"/>
      </clipPath>
      <clipPath clipPathUnits="userSpaceOnUse" id="clipPath5">
        <path d="M0 0 L401.7 0 L401.7 185.3125 L0 185.3125 L0 0 Z"/>
      </clipPath>
      <script type="text/ecmascript"><![CDATA[
function umlload(newLocation)
{
if (newLocation.charAt(0) != '#') {
if (newLocation.indexOf("://") > -1) {
window.parent.location.href = newLocation;
} else {
var tmp = window.parent.location.href;
tmp = tmp.substring(0, tmp.lastIndexOf("/") + 1);
window.parent.location.href = tmp.concat(newLocation);
}
} else {
window.parent.location.hash = newLocation;
}
}
]]></script>
    </defs>
    <g fill="rgb(238,238,255)" transform="matrix(0.4043,0,0,0.4043,209.8458,279.7945)" stroke="rgb(238,238,255)">
      <rect width="467.6133" x="492.11" height="17.9688" y="-26" stroke="none"/>
    </g>
    <g fill="rgb(166,166,178)" stroke-miterlimit="1.45" transform="matrix(0.4043,0,0,0.4043,209.8458,279.7945)" stroke-linecap="butt" stroke="rgb(166,166,178)">
      <rect fill="none" width="467.6133" x="492.11" height="17.9688" y="-26"/>
    </g>
    <g fill="rgb(238,238,255)" transform="matrix(0.4043,0,0,0.4043,209.8458,279.7945)" stroke="rgb(238,238,255)">
      <rect width="467.6133" x="492.11" height="48.746" y="-8.0312" stroke="none"/>
    </g>
    <g fill="rgb(166,166,178)" stroke-miterlimit="1.45" transform="matrix(0.4043,0,0,0.4043,209.8458,279.7945)" stroke-linecap="butt" stroke="rgb(166,166,178)">
      <rect fill="none" width="467.6133" x="492.11" height="48.746" y="-8.0312"/>
    </g>
    <g font-family="sans-serif" transform="matrix(0.4043,0,0,0.4043,209.8458,279.7945)">
      <text xml:space="preserve" x="498.11" y="-12.8613" onclick="umlload('../../../../../../../com/msopentech/odatajclient/engine/communication/request/batch/package-summary.html')" stroke="none">com.msopentech.odatajclient.engine.communication.request.batch</text>
    </g>
    <g fill="rgb(221,221,255)" transform="matrix(0.4043,0,0,0.4043,209.8458,279.7945)" stroke="rgb(221,221,255)">
      <rect x="500.11" y="0" clip-path="url(#clipPath2)" width="272.3917" height="32.7147" stroke="none"/>
    </g>
    <g fill="rgb(154,154,178)" stroke-miterlimit="1.45" transform="matrix(0.4043,0,0,0.4043,209.8458,279.7945)" stroke-linecap="butt" stroke="rgb(154,154,178)">
      <ellipse rx="136.1958" fill="none" ry="16.3574" cx="636.3058" cy="16.3574"/>
    </g>
    <g font-style="italic" font-size="13" font-weight="bold" font-family="sans-serif" transform="matrix(0.4043,0,0,0.4043,209.8458,279.7945)">
      <text xml:space="preserve" x="546.8058" y="20.8579" onclick="umlload('../../../../../../../com/msopentech/odatajclient/engine/communication/request/batch/ODataBatchableRequest.html')" stroke="none">ODataBatchableRequest</text>
    </g>
    <g fill="rgb(238,238,255)" transform="matrix(0.4043,0,0,0.4043,209.8458,279.7945)" stroke="rgb(238,238,255)">
      <rect width="467.6133" x="-518.11" height="17.9688" y="-26" stroke="none"/>
    </g>
    <g fill="rgb(166,166,178)" stroke-miterlimit="1.45" transform="matrix(0.4043,0,0,0.4043,209.8458,279.7945)" stroke-linecap="butt" stroke="rgb(166,166,178)">
      <rect fill="none" width="467.6133" x="-518.11" height="17.9688" y="-26"/>
    </g>
    <g fill="rgb(238,238,255)" transform="matrix(0.4043,0,0,0.4043,209.8458,279.7945)" stroke="rgb(238,238,255)">
      <rect width="467.71" x="-518.11" height="39.1641" y="-8.0312" stroke="none"/>
    </g>
    <g fill="rgb(166,166,178)" stroke-miterlimit="1.45" transform="matrix(0.4043,0,0,0.4043,209.8458,279.7945)" stroke-linecap="butt" stroke="rgb(166,166,178)">
      <rect fill="none" width="467.71" x="-518.11" height="39.1641" y="-8.0312"/>
    </g>
    <g font-family="sans-serif" transform="matrix(0.4043,0,0,0.4043,209.8458,279.7945)">
      <text xml:space="preserve" x="-512.11" y="-12.8613" onclick="umlload('../../../../../../../com/msopentech/odatajclient/engine/communication/request/batch/package-summary.html')" stroke="none">com.msopentech.odatajclient.engine.communication.request.batch</text>
    </g>
    <g fill="rgb(187,187,255)" transform="matrix(0.4043,0,0,0.4043,209.8458,279.7945)" stroke="rgb(187,187,255)">
      <rect x="-510.11" y="0" clip-path="url(#clipPath3)" width="161.71" height="23.1328" stroke="none"/>
    </g>
    <g fill="rgb(130,130,178)" stroke-miterlimit="1.45" transform="matrix(0.4043,0,0,0.4043,209.8458,279.7945)" stroke-linecap="butt" stroke="rgb(130,130,178)">
      <rect fill="none" width="161.71" x="-510.11" height="23.1328" y="0"/>
    </g>
    <g font-size="13" font-weight="bold" font-family="sans-serif" transform="matrix(0.4043,0,0,0.4043,209.8458,279.7945)">
      <text xml:space="preserve" x="-503.755" y="16.0669" onclick="umlload('../../../../../../../com/msopentech/odatajclient/engine/communication/request/batch/ODataBatchRequest.html')" stroke="none">ODataBatchRequest</text>
    </g>
    <g fill="rgb(238,238,255)" transform="matrix(0.4043,0,0,0.4043,209.8458,279.7945)" stroke="rgb(238,238,255)">
      <rect width="425.1773" x="-3.98" height="17.9688" y="-133.1328" stroke="none"/>
    </g>
    <g fill="rgb(166,166,178)" stroke-miterlimit="1.45" transform="matrix(0.4043,0,0,0.4043,209.8458,279.7945)" stroke-linecap="butt" stroke="rgb(166,166,178)">
      <rect fill="none" width="425.1773" x="-3.98" height="17.9688" y="-133.1328"/>
    </g>
    <g fill="rgb(238,238,255)" transform="matrix(0.4043,0,0,0.4043,209.8458,279.7945)" stroke="rgb(238,238,255)">
      <rect width="425.66" x="-3.98" height="39.1641" y="-115.1641" stroke="none"/>
    </g>
    <g fill="rgb(166,166,178)" stroke-miterlimit="1.45" transform="matrix(0.4043,0,0,0.4043,209.8458,279.7945)" stroke-linecap="butt" stroke="rgb(166,166,178)">
      <rect fill="none" width="425.66" x="-3.98" height="39.1641" y="-115.1641"/>
    </g>
    <g font-family="sans-serif" transform="matrix(0.4043,0,0,0.4043,209.8458,279.7945)">
      <text xml:space="preserve" x="2.02" y="-119.9941" onclick="umlload('../../../../../../../com/msopentech/odatajclient/engine/communication/request/package-summary.html')" stroke="none">com.msopentech.odatajclient.engine.communication.request</text>
    </g>
    <g fill="rgb(204,204,255)" transform="matrix(0.4043,0,0,0.4043,209.8458,279.7945)" stroke="rgb(204,204,255)">
      <rect x="138.02" y="-107.1328" clip-path="url(#clipPath4)" width="125.66" height="23.1328" stroke="none"/>
    </g>
    <g fill="rgb(142,142,178)" stroke-miterlimit="1.45" transform="matrix(0.4043,0,0,0.4043,209.8458,279.7945)" stroke-linecap="butt" stroke="rgb(142,142,178)">
      <rect fill="none" width="125.66" x="138.02" height="23.1328" y="-107.1328"/>
    </g>
    <g font-size="13" font-weight="bold" font-family="sans-serif" transform="matrix(0.4043,0,0,0.4043,209.8458,279.7945)">
      <text xml:space="preserve" x="143.85" y="-91.0659" onclick="umlload('../../../../../../../com/msopentech/odatajclient/engine/communication/request/ODataStreamer.html')" stroke="none">ODataStreamer</text>
    </g>
    <g fill="rgb(238,238,255)" transform="matrix(0.4043,0,0,0.4043,209.8458,279.7945)" stroke="rgb(238,238,255)">
      <rect width="467.6133" x="-8" height="17.9688" y="-26" stroke="none"/>
    </g>
    <g fill="rgb(166,166,178)" stroke-miterlimit="1.45" transform="matrix(0.4043,0,0,0.4043,209.8458,279.7945)" stroke-linecap="butt" stroke="rgb(166,166,178)">
      <rect fill="none" width="467.6133" x="-8" height="17.9688" y="-26"/>
    </g>
    <g fill="rgb(238,238,255)" transform="matrix(0.4043,0,0,0.4043,209.8458,279.7945)" stroke="rgb(238,238,255)">
      <rect width="467.7" x="-8" height="201.3438" y="-8.0312" stroke="none"/>
    </g>
    <g fill="rgb(166,166,178)" stroke-miterlimit="1.45" transform="matrix(0.4043,0,0,0.4043,209.8458,279.7945)" stroke-linecap="butt" stroke="rgb(166,166,178)">
      <rect fill="none" width="467.7" x="-8" height="201.3438" y="-8.0312"/>
    </g>
    <g font-family="sans-serif" transform="matrix(0.4043,0,0,0.4043,209.8458,279.7945)">
      <text xml:space="preserve" x="-2" y="-12.8613" onclick="umlload('package-summary.html')" stroke="none">com.msopentech.odatajclient.engine.communication.request.batch</text>
    </g>
    <g fill="rgb(204,204,255)" transform="matrix(0.4043,0,0,0.4043,209.8458,279.7945)" stroke="rgb(204,204,255)">
      <rect x="0" y="0" clip-path="url(#clipPath5)" width="401.7" height="38.5938" stroke="none"/>
      <line clip-path="url(#clipPath5)" fill="none" x1="0" x2="401.7" y1="38.5938" y2="38.5938" stroke="black"/>
      <rect x="0" y="39.5938" clip-path="url(#clipPath5)" width="401.7" height="31.9375" stroke="none"/>
      <line clip-path="url(#clipPath5)" fill="none" x1="0" x2="401.7" y1="71.5312" y2="71.5312" stroke="black"/>
      <rect x="0" y="72.5312" clip-path="url(#clipPath5)" width="401.7" height="15.9688" stroke="none"/>
      <line clip-path="url(#clipPath5)" fill="none" x1="0" x2="401.7" y1="88.5" y2="88.5" stroke="black"/>
      <rect x="0" y="89.5" clip-path="url(#clipPath5)" width="401.7" height="95.8125" stroke="none"/>
    </g>
    <g fill="rgb(142,142,178)" stroke-miterlimit="1.45" transform="matrix(0.4043,0,0,0.4043,209.8458,279.7945)" stroke-linecap="butt" stroke="rgb(142,142,178)">
      <rect fill="none" width="401.7" x="0" height="185.3125" y="0"/>
    </g>
    <g font-size="16" font-weight="bold" font-family="sans-serif" transform="matrix(0.4043,0,0,0.4043,209.8458,279.7945)">
      <text xml:space="preserve" x="90.35" y="16.8516" onclick="umlload('#')" stroke="none">ODataBatchRequestItem</text>
    </g>
    <g font-family="sans-serif" transform="matrix(0.4043,0,0,0.4043,209.8458,279.7945)">
      <text xml:space="preserve" x="328.7" y="33.7637" stroke="none">{abstract}</text>
    </g>
    <g font-family="sans-serif" transform="matrix(0.4043,0,0,0.4043,209.8458,279.7945)">
      <text xml:space="preserve" x="4" y="50.1719" stroke="none">#</text>
      <text xml:space="preserve" x="19" y="51.7324" onclick="umlload('#hasStreamedSomething')" stroke="none">hasStreamedSomething : boolean</text>
    </g>
    <g font-family="sans-serif" transform="matrix(0.4043,0,0,0.4043,209.8458,279.7945)">
      <text xml:space="preserve" x="4" y="66.1719" stroke="none">#</text>
      <text xml:space="preserve" x="19" y="67.7012" onclick="umlload('#req')" stroke="none">req : ODataBatchRequest</text>
    </g>
    <g font-family="sans-serif" transform="matrix(0.4043,0,0,0.4043,209.8458,279.7945)">
      <text xml:space="preserve" x="4" y="83.1719" stroke="none">+</text>
      <text xml:space="preserve" x="19" y="84.6699" onclick="umlload('#ODataBatchRequestItem(com.msopentech.odatajclient.engine.communication.request.batch.ODataBatchRequest)')" stroke="none">ODataBatchRequestItem(ODataBatchRequest)</text>
    </g>
    <g font-family="sans-serif" transform="matrix(0.4043,0,0,0.4043,209.8458,279.7945)">
      <text xml:space="preserve" x="4" y="100.1719" stroke="none">+</text>
      <text xml:space="preserve" x="19" y="101.6387" onclick="umlload('#close()')" stroke="none">close() : void</text>
    </g>
    <g font-family="sans-serif" transform="matrix(0.4043,0,0,0.4043,209.8458,279.7945)">
      <text xml:space="preserve" x="4" y="116.1719" stroke="none">#</text>
      <text xml:space="preserve" x="19" y="117.6074" onclick="umlload('#closeItem()')" stroke="none">closeItem() : void</text>
    </g>
    <g font-family="sans-serif" transform="matrix(0.4043,0,0,0.4043,209.8458,279.7945)">
      <text xml:space="preserve" x="4" y="132.1719" stroke="none">+</text>
      <text xml:space="preserve" x="19" y="133.5762" onclick="umlload('#hasStreamedSomething()')" stroke="none">hasStreamedSomething() : boolean</text>
    </g>
    <g font-family="sans-serif" transform="matrix(0.4043,0,0,0.4043,209.8458,279.7945)">
      <text xml:space="preserve" x="4" y="148.1719" stroke="none">+</text>
      <text xml:space="preserve" x="19" y="149.5449" onclick="umlload('#isOpen()')" stroke="none">isOpen() : boolean</text>
    </g>
    <g font-family="sans-serif" transform="matrix(0.4043,0,0,0.4043,209.8458,279.7945)">
      <text xml:space="preserve" x="4" y="164.1719" stroke="none">#</text>
      <text xml:space="preserve" x="19" y="165.5137" onclick="umlload('#streamRequestHeader(com.msopentech.odatajclient.engine.communication.request.batch.ODataBatchableRequest)')" stroke="none">streamRequestHeader(ODataBatchableRequest) : void</text>
    </g>
    <g font-family="sans-serif" transform="matrix(0.4043,0,0,0.4043,209.8458,279.7945)">
      <text xml:space="preserve" x="4" y="180.1719" stroke="none">#</text>
      <text xml:space="preserve" x="19" y="181.4824" onclick="umlload('#streamRequestHeader(com.msopentech.odatajclient.engine.communication.request.batch.ODataBatchableRequest, int)')" stroke="none">streamRequestHeader(ODataBatchableRequest, int) : void</text>
    </g>
    <g font-family="sans-serif" transform="matrix(0.4043,0,0,0.4043,209.8458,279.7945)">
      <text xml:space="preserve" x="-513" y="218.1543" onclick="umlload('http://www.yworks.com/')" stroke="none">yWorks UML Doclet</text>
    </g>
    <g stroke-miterlimit="1.45" transform="matrix(0.4043,0,0,0.4043,209.8458,279.7945)" stroke-linecap="butt">
      <path fill="none" d="M200.85 -0.0305 L200.85 -69"/>
      <path fill="white" d="M200.85 -84 L194.85 -68 L206.85 -68 Z" stroke="none"/>
      <path fill="none" d="M200.85 -84 L194.85 -68 L206.85 -68 Z"/>
      <path fill="none" d="M-0.019 11.5664 L-348.4 11.5664"/>
      <line stroke-linecap="square" transform="matrix(-1,0,0,-1,-348.4,11.5664)" fill="none" x1="0" x2="-14" y1="0" y2="-4" stroke-miterlimit="10"/>
      <line stroke-linecap="square" transform="matrix(-1,0,0,-1,-348.4,11.5664)" fill="none" x1="0" x2="-14" y1="0" y2="4" stroke-miterlimit="10"/>
    </g>
    <g stroke-dasharray="6,2" stroke-miterlimit="1.45" transform="matrix(0.4043,0,0,0.4043,209.8458,279.7945)" stroke-linecap="butt">
      <path fill="none" d="M401.7008 16.3574 L500.11 16.3574"/>
      <line stroke-linecap="square" transform="matrix(1,0,0,1,500.11,16.3574)" fill="none" x1="0" x2="-14" y1="0" y2="-4" stroke-dasharray="none" stroke-miterlimit="10"/>
      <line stroke-linecap="square" transform="matrix(1,0,0,1,500.11,16.3574)" fill="none" x1="0" x2="-14" y1="0" y2="4" stroke-dasharray="none" stroke-miterlimit="10"/>
    </g>
  </g>
</svg>
