<?xml version="1.0" encoding="UTF-8"?><svg xmlns="http://www.w3.org/2000/svg" xmlns:xlink="http://www.w3.org/1999/xlink" fill-opacity="1" color-rendering="auto" color-interpolation="auto" stroke="black" text-rendering="auto" stroke-linecap="square" width="598" stroke-miterlimit="10" stroke-opacity="1" shape-rendering="auto" fill="black" stroke-dasharray="none" font-weight="normal" stroke-width="1" height="598" font-family="'Dialog'" font-style="normal" stroke-linejoin="miter" font-size="12" stroke-dashoffset="0" image-rendering="auto">
  <!--Generated by ySVG-->
  <defs id="genericDefs"/>
  <g>
    <defs id="defs1">
      <clipPath clipPathUnits="userSpaceOnUse" id="clipPath1">
        <path d="M0 0 L598 0 L598 598 L0 598 L0 0 Z"/>
      </clipPath>
      <clipPath clipPathUnits="userSpaceOnUse" id="clipPath2">
        <path d="M-297.13 16.3574 C-297.13 25.3913 -337.89 32.7147 -388.17 32.7147 C-438.45 32.7147 -479.21 25.3913 -479.21 16.3574 C-479.21 7.3234 -438.45 0 -388.17 0 C-337.89 0 -297.13 7.3234 -297.13 16.3574 Z"/>
      </clipPath>
      <clipPath clipPathUnits="userSpaceOnUse" id="clipPath3">
        <path d="M43.775 -107.1328 L250.805 -107.1328 L250.805 -84 L43.775 -84 L43.775 -107.1328 Z"/>
      </clipPath>
      <clipPath clipPathUnits="userSpaceOnUse" id="clipPath4">
        <path d="M-0 0 L294.58 0 L294.58 92.5 L-0 92.5 L-0 0 Z"/>
      </clipPath>
      <script type="text/ecmascript"><![CDATA[
function umlload(newLocation)
{
if (newLocation.charAt(0) != '#') {
if (newLocation.indexOf("://") > -1) {
window.parent.location.href = newLocation;
} else {
var tmp = window.parent.location.href;
tmp = tmp.substring(0, tmp.lastIndexOf("/") + 1);
window.parent.location.href = tmp.concat(newLocation);
}
} else {
window.parent.location.hash = newLocation;
}
}
]]></script>
    </defs>
    <g fill="rgb(238,238,255)" transform="matrix(0.6308,0,0,0.6308,307.8312,298.3692)" stroke="rgb(238,238,255)">
      <rect width="435.7863" x="-487.21" height="17.9688" y="-26" stroke="none"/>
    </g>
    <g fill="rgb(166,166,178)" stroke-miterlimit="1.45" transform="matrix(0.6308,0,0,0.6308,307.8312,298.3692)" stroke-linecap="butt" stroke="rgb(166,166,178)">
      <rect fill="none" width="435.7863" x="-487.21" height="17.9688" y="-26"/>
    </g>
    <g fill="rgb(238,238,255)" transform="matrix(0.6308,0,0,0.6308,307.8312,298.3692)" stroke="rgb(238,238,255)">
      <rect width="436.08" x="-487.21" height="48.746" y="-8.0312" stroke="none"/>
    </g>
    <g fill="rgb(166,166,178)" stroke-miterlimit="1.45" transform="matrix(0.6308,0,0,0.6308,307.8312,298.3692)" stroke-linecap="butt" stroke="rgb(166,166,178)">
      <rect fill="none" width="436.08" x="-487.21" height="48.746" y="-8.0312"/>
    </g>
    <g font-family="sans-serif" transform="matrix(0.6308,0,0,0.6308,307.8312,298.3692)">
      <text xml:space="preserve" x="-481.21" y="-12.8613" onclick="umlload('../../../../../../../com/msopentech/odatajclient/engine/communication/response/package-summary.html')" stroke="none">com.msopentech.odatajclient.engine.communication.response</text>
    </g>
    <g fill="rgb(221,221,255)" transform="matrix(0.6308,0,0,0.6308,307.8312,298.3692)" stroke="rgb(221,221,255)">
      <rect x="-479.21" y="0" clip-path="url(#clipPath2)" width="182.08" height="32.7147" stroke="none"/>
    </g>
    <g fill="rgb(154,154,178)" stroke-miterlimit="1.45" transform="matrix(0.6308,0,0,0.6308,307.8312,298.3692)" stroke-linecap="butt" stroke="rgb(154,154,178)">
      <ellipse rx="91.04" fill="none" ry="16.3574" cx="-388.17" cy="16.3574"/>
    </g>
    <g font-style="italic" font-size="13" font-weight="bold" font-family="sans-serif" transform="matrix(0.6308,0,0,0.6308,307.8312,298.3692)">
      <text xml:space="preserve" x="-446.67" y="20.8579" onclick="umlload('../../../../../../../com/msopentech/odatajclient/engine/communication/response/ODataResponse.html')" stroke="none">ODataResponse</text>
    </g>
    <g fill="rgb(238,238,255)" transform="matrix(0.6308,0,0,0.6308,307.8312,298.3692)" stroke="rgb(238,238,255)">
      <rect width="467.6133" x="-78.225" height="17.9688" y="-133.1328" stroke="none"/>
    </g>
    <g fill="rgb(166,166,178)" stroke-miterlimit="1.45" transform="matrix(0.6308,0,0,0.6308,307.8312,298.3692)" stroke-linecap="butt" stroke="rgb(166,166,178)">
      <rect fill="none" width="467.6133" x="-78.225" height="17.9688" y="-133.1328"/>
    </g>
    <g fill="rgb(238,238,255)" transform="matrix(0.6308,0,0,0.6308,307.8312,298.3692)" stroke="rgb(238,238,255)">
      <rect width="468.03" x="-78.225" height="39.1641" y="-115.1641" stroke="none"/>
    </g>
    <g fill="rgb(166,166,178)" stroke-miterlimit="1.45" transform="matrix(0.6308,0,0,0.6308,307.8312,298.3692)" stroke-linecap="butt" stroke="rgb(166,166,178)">
      <rect fill="none" width="468.03" x="-78.225" height="39.1641" y="-115.1641"/>
    </g>
    <g font-family="sans-serif" transform="matrix(0.6308,0,0,0.6308,307.8312,298.3692)">
      <text xml:space="preserve" x="-72.225" y="-119.9941" onclick="umlload('../../../../../../../com/msopentech/odatajclient/engine/communication/request/batch/package-summary.html')" stroke="none">com.msopentech.odatajclient.engine.communication.request.batch</text>
    </g>
    <g fill="rgb(204,204,255)" transform="matrix(0.6308,0,0,0.6308,307.8312,298.3692)" stroke="rgb(204,204,255)">
      <rect x="43.775" y="-107.1328" clip-path="url(#clipPath3)" width="207.03" height="23.1328" stroke="none"/>
    </g>
    <g fill="rgb(142,142,178)" stroke-miterlimit="1.45" transform="matrix(0.6308,0,0,0.6308,307.8312,298.3692)" stroke-linecap="butt" stroke="rgb(142,142,178)">
      <rect fill="none" width="207.03" x="43.775" height="23.1328" y="-107.1328"/>
    </g>
    <g font-size="13" font-weight="bold" font-family="sans-serif" transform="matrix(0.6308,0,0,0.6308,307.8312,298.3692)">
      <text xml:space="preserve" x="50.79" y="-91.0659" onclick="umlload('../../../../../../../com/msopentech/odatajclient/engine/communication/request/batch/ODataBatchResponseItem.html')" stroke="none">ODataBatchResponseItem</text>
    </g>
    <g fill="rgb(238,238,255)" transform="matrix(0.6308,0,0,0.6308,307.8312,298.3692)" stroke="rgb(238,238,255)">
      <rect width="467.6133" x="-8" height="17.9688" y="-26" stroke="none"/>
    </g>
    <g fill="rgb(166,166,178)" stroke-miterlimit="1.45" transform="matrix(0.6308,0,0,0.6308,307.8312,298.3692)" stroke-linecap="butt" stroke="rgb(166,166,178)">
      <rect fill="none" width="467.6133" x="-8" height="17.9688" y="-26"/>
    </g>
    <g fill="rgb(238,238,255)" transform="matrix(0.6308,0,0,0.6308,307.8312,298.3692)" stroke="rgb(238,238,255)">
      <rect width="467.6133" x="-8" height="108.5312" y="-8.0312" stroke="none"/>
    </g>
    <g fill="rgb(166,166,178)" stroke-miterlimit="1.45" transform="matrix(0.6308,0,0,0.6308,307.8312,298.3692)" stroke-linecap="butt" stroke="rgb(166,166,178)">
      <rect fill="none" width="467.6133" x="-8" height="108.5312" y="-8.0312"/>
    </g>
    <g font-family="sans-serif" transform="matrix(0.6308,0,0,0.6308,307.8312,298.3692)">
      <text xml:space="preserve" x="-2" y="-12.8613" onclick="umlload('package-summary.html')" stroke="none">com.msopentech.odatajclient.engine.communication.request.batch</text>
    </g>
    <g fill="rgb(187,187,255)" transform="matrix(0.6308,0,0,0.6308,307.8312,298.3692)" stroke="rgb(187,187,255)">
      <rect x="0" y="0" clip-path="url(#clipPath4)" width="294.58" height="26.625" stroke="none"/>
      <line clip-path="url(#clipPath4)" fill="none" x1="0" x2="294.58" y1="26.625" y2="26.625" stroke="black"/>
      <rect x="0" y="27.625" clip-path="url(#clipPath4)" width="294.58" height="15.9688" stroke="none"/>
      <line clip-path="url(#clipPath4)" fill="none" x1="0" x2="294.58" y1="43.5938" y2="43.5938" stroke="black"/>
      <rect x="0" y="44.5938" clip-path="url(#clipPath4)" width="294.58" height="47.9062" stroke="none"/>
    </g>
    <g fill="rgb(130,130,178)" stroke-miterlimit="1.45" transform="matrix(0.6308,0,0,0.6308,307.8312,298.3692)" stroke-linecap="butt" stroke="rgb(130,130,178)">
      <rect fill="none" width="294.58" x="0" height="92.5" y="0"/>
    </g>
    <g font-size="16" font-weight="bold" font-family="sans-serif" transform="matrix(0.6308,0,0,0.6308,307.8312,298.3692)">
      <text xml:space="preserve" x="8.29" y="18.8516" onclick="umlload('#')" stroke="none">ODataChangesetResponseItem</text>
    </g>
    <g font-family="sans-serif" transform="matrix(0.6308,0,0,0.6308,307.8312,298.3692)">
      <text xml:space="preserve" x="4" y="38.1719" stroke="none">+</text>
      <text xml:space="preserve" x="19" y="39.7637" onclick="umlload('#ODataChangesetResponseItem()')" stroke="none">ODataChangesetResponseItem()</text>
    </g>
    <g font-family="sans-serif" transform="matrix(0.6308,0,0,0.6308,307.8312,298.3692)">
      <text xml:space="preserve" x="4" y="55.1719" stroke="none">+</text>
      <text xml:space="preserve" x="19" y="56.7324" onclick="umlload('#hasNext()')" stroke="none">hasNext() : boolean</text>
    </g>
    <g font-family="sans-serif" transform="matrix(0.6308,0,0,0.6308,307.8312,298.3692)">
      <text xml:space="preserve" x="4" y="71.1719" stroke="none">+</text>
      <text xml:space="preserve" x="19" y="72.7012" onclick="umlload('#next()')" stroke="none">next() : ODataResponse</text>
    </g>
    <g font-family="sans-serif" transform="matrix(0.6308,0,0,0.6308,307.8312,298.3692)">
      <text xml:space="preserve" x="4" y="87.1719" stroke="none">+</text>
      <text xml:space="preserve" x="19" y="88.6699" onclick="umlload('#remove()')" stroke="none">remove() : void</text>
    </g>
    <g font-family="sans-serif" transform="matrix(0.6308,0,0,0.6308,307.8312,298.3692)">
      <text xml:space="preserve" x="-482" y="125.1543" onclick="umlload('http://www.yworks.com/')" stroke="none">yWorks UML Doclet</text>
    </g>
    <g stroke-miterlimit="1.45" transform="matrix(0.6308,0,0,0.6308,307.8312,298.3692)" stroke-linecap="butt">
      <path fill="none" d="M147.29 0 L147.29 -69"/>
      <path fill="white" d="M147.29 -84 L141.29 -68 L153.29 -68 Z" stroke="none"/>
      <path fill="none" d="M147.29 -84 L141.29 -68 L153.29 -68 Z"/>
      <path fill="none" d="M-0.0073 16.3574 L-297.13 16.3574"/>
      <line stroke-linecap="square" transform="matrix(-1,0,0,-1,-297.13,16.3574)" fill="none" x1="0" x2="-14" y1="0" y2="-4" stroke-miterlimit="10"/>
      <line stroke-linecap="square" transform="matrix(-1,0,0,-1,-297.13,16.3574)" fill="none" x1="0" x2="-14" y1="0" y2="4" stroke-miterlimit="10"/>
    </g>
  </g>
</svg>
