<?xml version="1.0" encoding="UTF-8"?><svg xmlns="http://www.w3.org/2000/svg" xmlns:xlink="http://www.w3.org/1999/xlink" fill-opacity="1" color-rendering="auto" color-interpolation="auto" stroke="black" text-rendering="auto" stroke-linecap="square" width="598" stroke-miterlimit="10" stroke-opacity="1" shape-rendering="auto" fill="black" stroke-dasharray="none" font-weight="normal" stroke-width="1" height="598" font-family="'Dialog'" font-style="normal" stroke-linejoin="miter" font-size="12" stroke-dashoffset="0" image-rendering="auto">
  <!--Generated by ySVG-->
  <defs id="genericDefs"/>
  <g>
    <defs id="defs1">
      <clipPath clipPathUnits="userSpaceOnUse" id="clipPath1">
        <path d="M0 0 L598 0 L598 598 L0 598 L0 0 Z"/>
      </clipPath>
      <clipPath clipPathUnits="userSpaceOnUse" id="clipPath2">
        <path d="M682.19 16.3574 C682.19 25.3913 641.43 32.7147 591.15 32.7147 C540.87 32.7147 500.11 25.3913 500.11 16.3574 C500.11 7.3234 540.87 0 591.15 0 C641.43 0 682.19 7.3234 682.19 16.3574 Z"/>
      </clipPath>
      <clipPath clipPathUnits="userSpaceOnUse" id="clipPath3">
        <path d="M-66 330.0525 C-66 339.0864 -84.9126 346.4099 -108.2426 346.4099 C-131.5725 346.4099 -150.4851 339.0864 -150.4851 330.0525 C-150.4851 321.0186 -131.5725 313.6951 -108.2426 313.6951 C-84.9126 313.6951 -66 321.0186 -66 330.0525 Z"/>
      </clipPath>
      <clipPath clipPathUnits="userSpaceOnUse" id="clipPath4">
        <path d="M-66 190.623 C-66 199.6569 -96.9776 206.9804 -135.1904 206.9804 C-173.4032 206.9804 -204.3808 199.6569 -204.3808 190.623 C-204.3808 181.5891 -173.4032 174.2656 -135.1904 174.2656 C-96.9776 174.2656 -66 181.5891 -66 190.623 Z"/>
      </clipPath>
      <clipPath clipPathUnits="userSpaceOnUse" id="clipPath5">
        <path d="M-71.8266 233.3377 C-71.8266 242.3717 -101.4998 249.6951 -138.1037 249.6951 C-174.7075 249.6951 -204.3808 242.3717 -204.3808 233.3377 C-204.3808 224.3038 -174.7075 216.9804 -138.1037 216.9804 C-101.4998 216.9804 -71.8266 224.3038 -71.8266 233.3377 Z"/>
      </clipPath>
      <clipPath clipPathUnits="userSpaceOnUse" id="clipPath6">
        <path d="M-130.04 87.1328 L-76.48 87.1328 L-76.48 110.2656 L-130.04 110.2656 L-130.04 87.1328 Z"/>
      </clipPath>
      <clipPath clipPathUnits="userSpaceOnUse" id="clipPath7">
        <path d="M-510.11 0 L-323.68 0 L-323.68 23.1328 L-510.11 23.1328 L-510.11 0 Z"/>
      </clipPath>
      <clipPath clipPathUnits="userSpaceOnUse" id="clipPath8">
        <path d="M547.1829 -100.3574 C547.1829 -91.3234 480.9887 -84 399.334 -84 C317.6792 -84 251.485 -91.3234 251.485 -100.3574 C251.485 -109.3913 317.6792 -116.7147 399.334 -116.7147 C480.9887 -116.7147 547.1829 -109.3913 547.1829 -100.3574 Z"/>
      </clipPath>
      <clipPath clipPathUnits="userSpaceOnUse" id="clipPath9">
        <path d="M147.805 -107.1328 L205.485 -107.1328 L205.485 -84 L147.805 -84 L147.805 -107.1328 Z"/>
      </clipPath>
      <clipPath clipPathUnits="userSpaceOnUse" id="clipPath10">
        <path d="M0 0 L353.29 0 L353.29 354.4099 L0 354.4099 L0 0 Z"/>
      </clipPath>
      <script type="text/ecmascript"><![CDATA[
function umlload(newLocation)
{
if (newLocation.charAt(0) != '#') {
if (newLocation.indexOf("://") > -1) {
window.parent.location.href = newLocation;
} else {
var tmp = window.parent.location.href;
tmp = tmp.substring(0, tmp.lastIndexOf("/") + 1);
window.parent.location.href = tmp.concat(newLocation);
}
} else {
window.parent.location.hash = newLocation;
}
}
]]></script>
    </defs>
    <g fill="rgb(238,238,255)" transform="matrix(0.413,0,0,0.413,214.3384,246.1381)" stroke="rgb(238,238,255)">
      <rect width="435.7863" x="492.11" height="17.9688" y="-26" stroke="none"/>
    </g>
    <g fill="rgb(166,166,178)" stroke-miterlimit="1.45" transform="matrix(0.413,0,0,0.413,214.3384,246.1381)" stroke-linecap="butt" stroke="rgb(166,166,178)">
      <rect fill="none" width="435.7863" x="492.11" height="17.9688" y="-26"/>
    </g>
    <g fill="rgb(238,238,255)" transform="matrix(0.413,0,0,0.413,214.3384,246.1381)" stroke="rgb(238,238,255)">
      <rect width="436.08" x="492.11" height="48.746" y="-8.0312" stroke="none"/>
    </g>
    <g fill="rgb(166,166,178)" stroke-miterlimit="1.45" transform="matrix(0.413,0,0,0.413,214.3384,246.1381)" stroke-linecap="butt" stroke="rgb(166,166,178)">
      <rect fill="none" width="436.08" x="492.11" height="48.746" y="-8.0312"/>
    </g>
    <g font-family="sans-serif" transform="matrix(0.413,0,0,0.413,214.3384,246.1381)">
      <text xml:space="preserve" x="498.11" y="-12.8613" onclick="umlload('../../../../../../../com/msopentech/odatajclient/engine/communication/response/package-summary.html')" stroke="none">com.msopentech.odatajclient.engine.communication.response</text>
    </g>
    <g fill="rgb(221,221,255)" transform="matrix(0.413,0,0,0.413,214.3384,246.1381)" stroke="rgb(221,221,255)">
      <rect x="500.11" y="0" clip-path="url(#clipPath2)" width="182.08" height="32.7147" stroke="none"/>
    </g>
    <g fill="rgb(154,154,178)" stroke-miterlimit="1.45" transform="matrix(0.413,0,0,0.413,214.3384,246.1381)" stroke-linecap="butt" stroke="rgb(154,154,178)">
      <ellipse rx="91.04" fill="none" ry="16.3574" cx="591.15" cy="16.3574"/>
    </g>
    <g font-style="italic" font-size="13" font-weight="bold" font-family="sans-serif" transform="matrix(0.413,0,0,0.413,214.3384,246.1381)">
      <text xml:space="preserve" x="532.65" y="20.8579" onclick="umlload('../../../../../../../com/msopentech/odatajclient/engine/communication/response/ODataResponse.html')" stroke="none">ODataResponse</text>
    </g>
    <g fill="rgb(238,238,255)" transform="matrix(0.413,0,0,0.413,214.3384,246.1381)" stroke="rgb(238,238,255)">
      <rect width="69.7758" x="-158.4851" height="17.9688" y="287.6951" stroke="none"/>
    </g>
    <g fill="rgb(166,166,178)" stroke-miterlimit="1.45" transform="matrix(0.413,0,0,0.413,214.3384,246.1381)" stroke-linecap="butt" stroke="rgb(166,166,178)">
      <rect fill="none" width="69.7758" x="-158.4851" height="17.9688" y="287.6951"/>
    </g>
    <g fill="rgb(238,238,255)" transform="matrix(0.413,0,0,0.413,214.3384,246.1381)" stroke="rgb(238,238,255)">
      <rect width="100.4851" x="-158.4851" height="48.746" y="305.6638" stroke="none"/>
    </g>
    <g fill="rgb(166,166,178)" stroke-miterlimit="1.45" transform="matrix(0.413,0,0,0.413,214.3384,246.1381)" stroke-linecap="butt" stroke="rgb(166,166,178)">
      <rect fill="none" width="100.4851" x="-158.4851" height="48.746" y="305.6638"/>
    </g>
    <g font-family="sans-serif" transform="matrix(0.413,0,0,0.413,214.3384,246.1381)">
      <text xml:space="preserve" x="-152.4851" y="300.8338" stroke="none">org.slf4j</text>
    </g>
    <g fill="rgb(221,221,255)" transform="matrix(0.413,0,0,0.413,214.3384,246.1381)" stroke="rgb(221,221,255)">
      <rect x="-150.4851" y="313.6951" clip-path="url(#clipPath3)" width="84.4851" height="32.7147" stroke="none"/>
    </g>
    <g fill="rgb(154,154,178)" stroke-miterlimit="1.45" transform="matrix(0.413,0,0,0.413,214.3384,246.1381)" stroke-linecap="butt" stroke="rgb(154,154,178)">
      <ellipse rx="42.2426" fill="none" ry="16.3574" cx="-108.2426" cy="330.0525"/>
    </g>
    <g font-style="italic" font-size="13" font-weight="bold" font-family="sans-serif" transform="matrix(0.413,0,0,0.413,214.3384,246.1381)">
      <text xml:space="preserve" x="-133.2426" y="334.5529" stroke="none">Logger</text>
    </g>
    <g fill="rgb(238,238,255)" transform="matrix(0.413,0,0,0.413,214.3384,246.1381)" stroke="rgb(238,238,255)">
      <rect width="67.654" x="-212.3808" height="17.9688" y="148.2656" stroke="none"/>
    </g>
    <g fill="rgb(166,166,178)" stroke-miterlimit="1.45" transform="matrix(0.413,0,0,0.413,214.3384,246.1381)" stroke-linecap="butt" stroke="rgb(166,166,178)">
      <rect fill="none" width="67.654" x="-212.3808" height="17.9688" y="148.2656"/>
    </g>
    <g fill="rgb(238,238,255)" transform="matrix(0.413,0,0,0.413,214.3384,246.1381)" stroke="rgb(238,238,255)">
      <rect width="154.3808" x="-212.3808" height="91.4607" y="166.2344" stroke="none"/>
    </g>
    <g fill="rgb(166,166,178)" stroke-miterlimit="1.45" transform="matrix(0.413,0,0,0.413,214.3384,246.1381)" stroke-linecap="butt" stroke="rgb(166,166,178)">
      <rect fill="none" width="154.3808" x="-212.3808" height="91.4607" y="166.2344"/>
    </g>
    <g font-family="sans-serif" transform="matrix(0.413,0,0,0.413,214.3384,246.1381)">
      <text xml:space="preserve" x="-206.3808" y="161.4043" onclick="umlload('http://docs.oracle.com/javase/6/docs/api/java/util/package-summary.html')" stroke="none">java.util</text>
    </g>
    <g fill="rgb(221,221,255)" transform="matrix(0.413,0,0,0.413,214.3384,246.1381)" stroke="rgb(221,221,255)">
      <rect x="-204.3808" y="174.2656" clip-path="url(#clipPath4)" width="138.3808" height="32.7147" stroke="none"/>
    </g>
    <g fill="rgb(154,154,178)" stroke-miterlimit="1.45" transform="matrix(0.413,0,0,0.413,214.3384,246.1381)" stroke-linecap="butt" stroke="rgb(154,154,178)">
      <ellipse rx="69.1904" fill="none" ry="16.3574" cx="-135.1904" cy="190.623"/>
    </g>
    <g font-style="italic" font-size="13" font-weight="bold" font-family="sans-serif" transform="matrix(0.413,0,0,0.413,214.3384,246.1381)">
      <text xml:space="preserve" x="-178.6904" y="195.1235" onclick="umlload('http://docs.oracle.com/javase/6/docs/api/java/util/Iterator.html')" stroke="none">Iterator&lt;E&gt;</text>
    </g>
    <g fill="rgb(221,221,255)" transform="matrix(0.413,0,0,0.413,214.3384,246.1381)" stroke="rgb(221,221,255)">
      <rect x="-204.3808" y="216.9804" clip-path="url(#clipPath5)" width="132.5542" height="32.7147" stroke="none"/>
    </g>
    <g fill="rgb(154,154,178)" stroke-miterlimit="1.45" transform="matrix(0.413,0,0,0.413,214.3384,246.1381)" stroke-linecap="butt" stroke="rgb(154,154,178)">
      <ellipse rx="66.2771" fill="none" ry="16.3574" cx="-138.1037" cy="233.3377"/>
    </g>
    <g font-style="italic" font-size="13" font-weight="bold" font-family="sans-serif" transform="matrix(0.413,0,0,0.413,214.3384,246.1381)">
      <text xml:space="preserve" x="-179.6037" y="237.8382" onclick="umlload('http://docs.oracle.com/javase/6/docs/api/java/util/Map.html')" stroke="none">Map&lt;K, V&gt;</text>
    </g>
    <g fill="rgb(238,238,255)" transform="matrix(0.413,0,0,0.413,214.3384,246.1381)" stroke="rgb(238,238,255)">
      <rect width="76.1412" x="-138.04" height="17.9688" y="61.1328" stroke="none"/>
    </g>
    <g fill="rgb(166,166,178)" stroke-miterlimit="1.45" transform="matrix(0.413,0,0,0.413,214.3384,246.1381)" stroke-linecap="butt" stroke="rgb(166,166,178)">
      <rect fill="none" width="76.1412" x="-138.04" height="17.9688" y="61.1328"/>
    </g>
    <g fill="rgb(238,238,255)" transform="matrix(0.413,0,0,0.413,214.3384,246.1381)" stroke="rgb(238,238,255)">
      <rect width="79.56" x="-138.04" height="39.1641" y="79.1016" stroke="none"/>
    </g>
    <g fill="rgb(166,166,178)" stroke-miterlimit="1.45" transform="matrix(0.413,0,0,0.413,214.3384,246.1381)" stroke-linecap="butt" stroke="rgb(166,166,178)">
      <rect fill="none" width="79.56" x="-138.04" height="39.1641" y="79.1016"/>
    </g>
    <g font-family="sans-serif" transform="matrix(0.413,0,0,0.413,214.3384,246.1381)">
      <text xml:space="preserve" x="-132.04" y="74.2715" onclick="umlload('http://docs.oracle.com/javase/6/docs/api/java/lang/package-summary.html')" stroke="none">java.lang</text>
    </g>
    <g fill="rgb(187,187,255)" transform="matrix(0.413,0,0,0.413,214.3384,246.1381)" stroke="rgb(187,187,255)">
      <rect x="-130.04" y="87.1328" clip-path="url(#clipPath6)" width="53.56" height="23.1328" stroke="none"/>
    </g>
    <g fill="rgb(130,130,178)" stroke-miterlimit="1.45" transform="matrix(0.413,0,0,0.413,214.3384,246.1381)" stroke-linecap="butt" stroke="rgb(130,130,178)">
      <rect fill="none" width="53.56" x="-130.04" height="23.1328" y="87.1328"/>
    </g>
    <g font-size="13" font-weight="bold" font-family="sans-serif" transform="matrix(0.413,0,0,0.413,214.3384,246.1381)">
      <text xml:space="preserve" x="-125.26" y="103.1997" onclick="umlload('http://docs.oracle.com/javase/6/docs/api/java/lang/String.html')" stroke="none">String</text>
    </g>
    <g fill="rgb(238,238,255)" transform="matrix(0.413,0,0,0.413,214.3384,246.1381)" stroke="rgb(238,238,255)">
      <rect width="467.6133" x="-518.11" height="17.9688" y="-26" stroke="none"/>
    </g>
    <g fill="rgb(166,166,178)" stroke-miterlimit="1.45" transform="matrix(0.413,0,0,0.413,214.3384,246.1381)" stroke-linecap="butt" stroke="rgb(166,166,178)">
      <rect fill="none" width="467.6133" x="-518.11" height="17.9688" y="-26"/>
    </g>
    <g fill="rgb(238,238,255)" transform="matrix(0.413,0,0,0.413,214.3384,246.1381)" stroke="rgb(238,238,255)">
      <rect width="467.6133" x="-518.11" height="39.1641" y="-8.0312" stroke="none"/>
    </g>
    <g fill="rgb(166,166,178)" stroke-miterlimit="1.45" transform="matrix(0.413,0,0,0.413,214.3384,246.1381)" stroke-linecap="butt" stroke="rgb(166,166,178)">
      <rect fill="none" width="467.6133" x="-518.11" height="39.1641" y="-8.0312"/>
    </g>
    <g font-family="sans-serif" transform="matrix(0.413,0,0,0.413,214.3384,246.1381)">
      <text xml:space="preserve" x="-512.11" y="-12.8613" onclick="umlload('../../../../../../../com/msopentech/odatajclient/engine/communication/request/batch/package-summary.html')" stroke="none">com.msopentech.odatajclient.engine.communication.request.batch</text>
    </g>
    <g fill="rgb(187,187,255)" transform="matrix(0.413,0,0,0.413,214.3384,246.1381)" stroke="rgb(187,187,255)">
      <rect x="-510.11" y="0" clip-path="url(#clipPath7)" width="186.43" height="23.1328" stroke="none"/>
    </g>
    <g fill="rgb(130,130,178)" stroke-miterlimit="1.45" transform="matrix(0.413,0,0,0.413,214.3384,246.1381)" stroke-linecap="butt" stroke="rgb(130,130,178)">
      <rect fill="none" width="186.43" x="-510.11" height="23.1328" y="0"/>
    </g>
    <g font-size="13" font-weight="bold" font-family="sans-serif" transform="matrix(0.413,0,0,0.413,214.3384,246.1381)">
      <text xml:space="preserve" x="-503.395" y="16.0669" onclick="umlload('../../../../../../../com/msopentech/odatajclient/engine/communication/request/batch/ODataBatchLineIterator.html')" stroke="none">ODataBatchLineIterator</text>
    </g>
    <g fill="rgb(238,238,255)" transform="matrix(0.413,0,0,0.413,214.3384,246.1381)" stroke="rgb(238,238,255)">
      <rect width="67.654" x="243.485" height="17.9688" y="-142.7147" stroke="none"/>
    </g>
    <g fill="rgb(166,166,178)" stroke-miterlimit="1.45" transform="matrix(0.413,0,0,0.413,214.3384,246.1381)" stroke-linecap="butt" stroke="rgb(166,166,178)">
      <rect fill="none" width="67.654" x="243.485" height="17.9688" y="-142.7147"/>
    </g>
    <g fill="rgb(238,238,255)" transform="matrix(0.413,0,0,0.413,214.3384,246.1381)" stroke="rgb(238,238,255)">
      <rect width="311.6979" x="243.485" height="48.746" y="-124.746" stroke="none"/>
    </g>
    <g fill="rgb(166,166,178)" stroke-miterlimit="1.45" transform="matrix(0.413,0,0,0.413,214.3384,246.1381)" stroke-linecap="butt" stroke="rgb(166,166,178)">
      <rect fill="none" width="311.6979" x="243.485" height="48.746" y="-124.746"/>
    </g>
    <g font-family="sans-serif" transform="matrix(0.413,0,0,0.413,214.3384,246.1381)">
      <text xml:space="preserve" x="249.485" y="-129.5761" onclick="umlload('http://docs.oracle.com/javase/6/docs/api/java/util/package-summary.html')" stroke="none">java.util</text>
    </g>
    <g fill="rgb(221,221,255)" transform="matrix(0.413,0,0,0.413,214.3384,246.1381)" stroke="rgb(221,221,255)">
      <rect x="251.485" y="-116.7147" clip-path="url(#clipPath8)" width="295.6979" height="32.7147" stroke="none"/>
    </g>
    <g fill="rgb(154,154,178)" stroke-miterlimit="1.45" transform="matrix(0.413,0,0,0.413,214.3384,246.1381)" stroke-linecap="butt" stroke="rgb(154,154,178)">
      <ellipse rx="147.849" fill="none" ry="16.3574" cx="399.334" cy="-100.3574"/>
    </g>
    <g font-style="italic" font-size="13" font-weight="bold" font-family="sans-serif" transform="matrix(0.413,0,0,0.413,214.3384,246.1381)">
      <text xml:space="preserve" x="301.834" y="-95.8569" onclick="umlload('http://docs.oracle.com/javase/6/docs/api/java/util/Iterator.html')" stroke="none">Iterator&lt;ODataResponse&gt;</text>
    </g>
    <g fill="rgb(238,238,255)" transform="matrix(0.413,0,0,0.413,214.3384,246.1381)" stroke="rgb(238,238,255)">
      <rect width="76.1412" x="139.805" height="17.9688" y="-133.1328" stroke="none"/>
    </g>
    <g fill="rgb(166,166,178)" stroke-miterlimit="1.45" transform="matrix(0.413,0,0,0.413,214.3384,246.1381)" stroke-linecap="butt" stroke="rgb(166,166,178)">
      <rect fill="none" width="76.1412" x="139.805" height="17.9688" y="-133.1328"/>
    </g>
    <g fill="rgb(238,238,255)" transform="matrix(0.413,0,0,0.413,214.3384,246.1381)" stroke="rgb(238,238,255)">
      <rect width="76.1412" x="139.805" height="39.1641" y="-115.1641" stroke="none"/>
    </g>
    <g fill="rgb(166,166,178)" stroke-miterlimit="1.45" transform="matrix(0.413,0,0,0.413,214.3384,246.1381)" stroke-linecap="butt" stroke="rgb(166,166,178)">
      <rect fill="none" width="76.1412" x="139.805" height="39.1641" y="-115.1641"/>
    </g>
    <g font-family="sans-serif" transform="matrix(0.413,0,0,0.413,214.3384,246.1381)">
      <text xml:space="preserve" x="145.805" y="-119.9941" onclick="umlload('http://docs.oracle.com/javase/6/docs/api/java/lang/package-summary.html')" stroke="none">java.lang</text>
    </g>
    <g fill="rgb(187,187,255)" transform="matrix(0.413,0,0,0.413,214.3384,246.1381)" stroke="rgb(187,187,255)">
      <rect x="147.805" y="-107.1328" clip-path="url(#clipPath9)" width="57.68" height="23.1328" stroke="none"/>
    </g>
    <g fill="rgb(130,130,178)" stroke-miterlimit="1.45" transform="matrix(0.413,0,0,0.413,214.3384,246.1381)" stroke-linecap="butt" stroke="rgb(130,130,178)">
      <rect fill="none" width="57.68" x="147.805" height="23.1328" y="-107.1328"/>
    </g>
    <g font-size="13" font-weight="bold" font-family="sans-serif" transform="matrix(0.413,0,0,0.413,214.3384,246.1381)">
      <text xml:space="preserve" x="152.645" y="-91.0659" onclick="umlload('http://docs.oracle.com/javase/6/docs/api/java/lang/Object.html')" stroke="none">Object</text>
    </g>
    <g fill="rgb(238,238,255)" transform="matrix(0.413,0,0,0.413,214.3384,246.1381)" stroke="rgb(238,238,255)">
      <rect width="467.6133" x="-8" height="17.9688" y="-26" stroke="none"/>
    </g>
    <g fill="rgb(166,166,178)" stroke-miterlimit="1.45" transform="matrix(0.413,0,0,0.413,214.3384,246.1381)" stroke-linecap="butt" stroke="rgb(166,166,178)">
      <rect fill="none" width="467.6133" x="-8" height="17.9688" y="-26"/>
    </g>
    <g fill="rgb(238,238,255)" transform="matrix(0.413,0,0,0.413,214.3384,246.1381)" stroke="rgb(238,238,255)">
      <rect width="467.6133" x="-8" height="370.4411" y="-8.0312" stroke="none"/>
    </g>
    <g fill="rgb(166,166,178)" stroke-miterlimit="1.45" transform="matrix(0.413,0,0,0.413,214.3384,246.1381)" stroke-linecap="butt" stroke="rgb(166,166,178)">
      <rect fill="none" width="467.6133" x="-8" height="370.4411" y="-8.0312"/>
    </g>
    <g font-family="sans-serif" transform="matrix(0.413,0,0,0.413,214.3384,246.1381)">
      <text xml:space="preserve" x="-2" y="-12.8613" onclick="umlload('package-summary.html')" stroke="none">com.msopentech.odatajclient.engine.communication.request.batch</text>
    </g>
    <g fill="rgb(204,204,255)" transform="matrix(0.413,0,0,0.413,214.3384,246.1381)" stroke="rgb(204,204,255)">
      <rect x="0" y="0" clip-path="url(#clipPath10)" width="353.29" height="38.5938" stroke="none"/>
      <line clip-path="url(#clipPath10)" fill="none" x1="0" x2="353.29" y1="38.5938" y2="38.5938" stroke="black"/>
      <rect x="0" y="39.5938" clip-path="url(#clipPath10)" width="353.29" height="95.8125" stroke="none"/>
      <line clip-path="url(#clipPath10)" fill="none" x1="0" x2="353.29" y1="135.4062" y2="135.4062" stroke="black"/>
      <rect x="0" y="136.4062" clip-path="url(#clipPath10)" width="353.29" height="15.9688" stroke="none"/>
      <line clip-path="url(#clipPath10)" fill="none" x1="0" x2="353.29" y1="152.375" y2="152.375" stroke="black"/>
      <rect x="0" y="153.375" clip-path="url(#clipPath10)" width="353.29" height="201.0348" stroke="none"/>
    </g>
    <g fill="rgb(142,142,178)" stroke-miterlimit="1.45" transform="matrix(0.413,0,0,0.413,214.3384,246.1381)" stroke-linecap="butt" stroke="rgb(142,142,178)">
      <rect fill="none" width="353.29" x="0" height="354.4098" y="0"/>
    </g>
    <g font-size="16" font-weight="bold" font-family="sans-serif" transform="matrix(0.413,0,0,0.413,214.3384,246.1381)">
      <text xml:space="preserve" x="59.645" y="16.8516" onclick="umlload('#')" stroke="none">ODataBatchResponseItem</text>
    </g>
    <g font-family="sans-serif" transform="matrix(0.413,0,0,0.413,214.3384,246.1381)">
      <text xml:space="preserve" x="280.29" y="33.7637" stroke="none">{abstract}</text>
    </g>
    <g font-family="sans-serif" transform="matrix(0.413,0,0,0.413,214.3384,246.1381)">
      <text xml:space="preserve" x="4" y="50.1719" stroke="none">#</text>
      <text xml:space="preserve" x="19" y="51.7324" onclick="umlload('#LOG')" stroke="none">LOG : Logger</text>
      <line y2="54.5625" fill="none" x1="19" x2="98" y1="54.5625"/>
    </g>
    <g font-family="sans-serif" transform="matrix(0.413,0,0,0.413,214.3384,246.1381)">
      <text xml:space="preserve" x="4" y="66.1719" stroke="none">#</text>
      <text xml:space="preserve" x="19" y="67.7012" onclick="umlload('#batchLineIterator')" stroke="none">batchLineIterator : ODataBatchLineIterator</text>
    </g>
    <g font-family="sans-serif" transform="matrix(0.413,0,0,0.413,214.3384,246.1381)">
      <text xml:space="preserve" x="4" y="82.1719" stroke="none">#</text>
      <text xml:space="preserve" x="19" y="83.6699" onclick="umlload('#boundary')" stroke="none">boundary : String</text>
    </g>
    <g font-family="sans-serif" transform="matrix(0.413,0,0,0.413,214.3384,246.1381)">
      <text xml:space="preserve" x="4" y="98.1719" stroke="none">#</text>
      <text xml:space="preserve" x="19" y="99.6387" onclick="umlload('#closed')" stroke="none">closed : boolean</text>
    </g>
    <g font-family="sans-serif" transform="matrix(0.413,0,0,0.413,214.3384,246.1381)">
      <text xml:space="preserve" x="4" y="114.1719" stroke="none">#</text>
      <text xml:space="preserve" x="19" y="115.6074" onclick="umlload('#expectedItemsIterator')" stroke="none">expectedItemsIterator : Iterator&lt;ODataResponse&gt;</text>
    </g>
    <g font-family="sans-serif" transform="matrix(0.413,0,0,0.413,214.3384,246.1381)">
      <text xml:space="preserve" x="4" y="130.1719" stroke="none">#</text>
      <text xml:space="preserve" x="19" y="131.5762" onclick="umlload('#responses')" stroke="none">responses : Map&lt;String, ODataResponse&gt;</text>
    </g>
    <g font-family="sans-serif" transform="matrix(0.413,0,0,0.413,214.3384,246.1381)">
      <text xml:space="preserve" x="4" y="147.1719" stroke="none">+</text>
      <text xml:space="preserve" x="19" y="148.5449" onclick="umlload('#ODataBatchResponseItem(boolean)')" stroke="none">ODataBatchResponseItem(boolean)</text>
    </g>
    <g font-family="sans-serif" transform="matrix(0.413,0,0,0.413,214.3384,246.1381)">
      <text xml:space="preserve" x="4" y="164.1719" stroke="none">+</text>
      <text xml:space="preserve" x="19" y="165.5137" onclick="umlload('#close()')" stroke="none">close() : void</text>
    </g>
    <g font-family="sans-serif" transform="matrix(0.413,0,0,0.413,214.3384,246.1381)">
      <text xml:space="preserve" x="4" y="180.1719" stroke="none">#</text>
      <text xml:space="preserve" x="19" y="181.4824" onclick="umlload('#getResponse(java.lang.String)')" stroke="none">getResponse(String) : ODataResponse</text>
    </g>
    <g font-family="sans-serif" transform="matrix(0.413,0,0,0.413,214.3384,246.1381)">
      <text xml:space="preserve" x="4" y="196.1719" stroke="none">#</text>
      <text xml:space="preserve" x="19" y="197.4512" onclick="umlload('#getResponseIterator()')" stroke="none">getResponseIterator() : Iterator&lt;ODataResponse&gt;</text>
    </g>
    <g font-family="sans-serif" transform="matrix(0.413,0,0,0.413,214.3384,246.1381)">
      <text xml:space="preserve" x="4" y="212.1719" stroke="none">+</text>
      <text xml:space="preserve" x="19" y="213.4199" onclick="umlload('#isChangeset()')" stroke="none">isChangeset() : boolean</text>
    </g>
    <g font-family="sans-serif" transform="matrix(0.413,0,0,0.413,214.3384,246.1381)">
      <text xml:space="preserve" x="-513" y="387.1543" onclick="umlload('http://www.yworks.com/')" stroke="none">yWorks UML Doclet</text>
    </g>
    <g stroke-miterlimit="1.45" transform="matrix(0.413,0,0,0.413,214.3384,246.1381)" stroke-linecap="butt">
      <path fill="none" d="M176.645 -0.0012 L176.645 -69"/>
      <path fill="white" d="M176.645 -84 L170.645 -68 L182.645 -68 Z" stroke="none"/>
      <path fill="none" d="M176.645 -84 L170.645 -68 L182.645 -68 Z"/>
      <path fill="none" stroke-dasharray="6,2" d="M264.9675 0.013 L264.9675 -51 L399.334 -51 L399.334 -69"/>
      <path fill="white" stroke-dasharray="6,2" d="M399.334 -84 L393.334 -68 L405.334 -68 Z" stroke="none"/>
      <path fill="none" d="M399.334 -84 L393.334 -68 L405.334 -68 Z"/>
      <path fill="none" d="M-0.0331 11.5664 L-323.68 11.5664"/>
      <line stroke-linecap="square" transform="matrix(-1,0,0,-1,-323.68,11.5664)" fill="none" x1="0" x2="-14" y1="0" y2="-4" stroke-miterlimit="10"/>
      <line stroke-linecap="square" transform="matrix(-1,0,0,-1,-323.68,11.5664)" fill="none" x1="0" x2="-14" y1="0" y2="4" stroke-miterlimit="10"/>
    </g>
    <g stroke-miterlimit="1.45" transform="matrix(0.413,0,0,0.413,214.3384,246.1381)" stroke-linecap="butt">
      <path fill="none" d="M0.0301 98.6992 L-76.48 98.6992"/>
      <line stroke-linecap="square" transform="matrix(-1,0,0,-1,-76.48,98.6992)" fill="none" x1="0" x2="-14" y1="0" y2="-4" stroke-miterlimit="10"/>
      <line stroke-linecap="square" transform="matrix(-1,0,0,-1,-76.48,98.6992)" fill="none" x1="0" x2="-14" y1="0" y2="4" stroke-miterlimit="10"/>
    </g>
    <g stroke-miterlimit="1.45" transform="matrix(0.413,0,0,0.413,214.3384,246.1381)" stroke-linecap="butt">
      <path fill="none" d="M-0.0186 190.623 L-66 190.623"/>
      <line stroke-linecap="square" transform="matrix(-1,0,0,-1,-66,190.623)" fill="none" x1="0" x2="-14" y1="0" y2="-4" stroke-miterlimit="10"/>
      <line stroke-linecap="square" transform="matrix(-1,0,0,-1,-66,190.623)" fill="none" x1="0" x2="-14" y1="0" y2="4" stroke-miterlimit="10"/>
    </g>
    <g stroke-miterlimit="1.45" transform="matrix(0.413,0,0,0.413,214.3384,246.1381)" stroke-linecap="butt">
      <path fill="none" d="M0.0215 233.3377 L-71.8266 233.3377"/>
      <line stroke-linecap="square" transform="matrix(-1,0,0,-1,-71.8266,233.3377)" fill="none" x1="0" x2="-14" y1="0" y2="-4" stroke-miterlimit="10"/>
      <line stroke-linecap="square" transform="matrix(-1,0,0,-1,-71.8266,233.3377)" fill="none" x1="0" x2="-14" y1="0" y2="4" stroke-miterlimit="10"/>
    </g>
    <g stroke-miterlimit="1.45" transform="matrix(0.413,0,0,0.413,214.3384,246.1381)" stroke-linecap="butt">
      <path fill="none" d="M0.0161 330.0525 L-66 330.0525"/>
      <line stroke-linecap="square" transform="matrix(-1,0,0,-1,-66,330.0525)" fill="none" x1="0" x2="-14" y1="0" y2="-4" stroke-miterlimit="10"/>
      <line stroke-linecap="square" transform="matrix(-1,0,0,-1,-66,330.0525)" fill="none" x1="0" x2="-14" y1="0" y2="4" stroke-miterlimit="10"/>
    </g>
    <g stroke-dasharray="6,2" stroke-miterlimit="1.45" transform="matrix(0.413,0,0,0.413,214.3384,246.1381)" stroke-linecap="butt">
      <path fill="none" d="M353.3105 16.3574 L500.11 16.3574"/>
      <line stroke-linecap="square" transform="matrix(1,0,0,1,500.11,16.3574)" fill="none" x1="0" x2="-14" y1="0" y2="-4" stroke-dasharray="none" stroke-miterlimit="10"/>
      <line stroke-linecap="square" transform="matrix(1,0,0,1,500.11,16.3574)" fill="none" x1="0" x2="-14" y1="0" y2="4" stroke-dasharray="none" stroke-miterlimit="10"/>
    </g>
  </g>
</svg>
