<?xml version="1.0" encoding="UTF-8"?><svg xmlns="http://www.w3.org/2000/svg" xmlns:xlink="http://www.w3.org/1999/xlink" fill-opacity="1" color-rendering="auto" color-interpolation="auto" stroke="black" text-rendering="auto" stroke-linecap="square" width="598" stroke-miterlimit="10" stroke-opacity="1" shape-rendering="auto" fill="black" stroke-dasharray="none" font-weight="normal" stroke-width="1" height="598" font-family="'Dialog'" font-style="normal" stroke-linejoin="miter" font-size="12" stroke-dashoffset="0" image-rendering="auto">
  <!--Generated by ySVG-->
  <defs id="genericDefs"/>
  <g>
    <defs id="defs1">
      <clipPath clipPathUnits="userSpaceOnUse" id="clipPath1">
        <path d="M0 0 L598 0 L598 598 L0 598 L0 0 Z"/>
      </clipPath>
      <clipPath clipPathUnits="userSpaceOnUse" id="clipPath2">
        <path d="M280.3917 42.3574 C280.3917 51.3913 219.4147 58.7147 144.1958 58.7147 C68.977 58.7147 8 51.3913 8 42.3574 C8 33.3234 68.977 26 144.1958 26 C219.4147 26 280.3917 33.3234 280.3917 42.3574 Z"/>
      </clipPath>
      <clipPath clipPathUnits="userSpaceOnUse" id="clipPath3">
        <path d="M62.87 103.7147 L258.57 103.7147 L258.57 126.8475 L62.87 126.8475 L62.87 103.7147 Z"/>
      </clipPath>
      <clipPath clipPathUnits="userSpaceOnUse" id="clipPath4">
        <path d="M169.9901 244.9804 L377.0201 244.9804 L377.0201 268.1132 L169.9901 268.1132 L169.9901 244.9804 Z"/>
      </clipPath>
      <clipPath clipPathUnits="userSpaceOnUse" id="clipPath5">
        <path d="M8 386.246 L181.04 386.246 L181.04 409.3788 L8 409.3788 L8 386.246 Z"/>
      </clipPath>
      <clipPath clipPathUnits="userSpaceOnUse" id="clipPath6">
        <path d="M226.04 386.246 L412.47 386.246 L412.47 409.3788 L226.04 409.3788 L226.04 386.246 Z"/>
      </clipPath>
      <clipPath clipPathUnits="userSpaceOnUse" id="clipPath7">
        <path d="M457.47 386.246 L619.18 386.246 L619.18 409.3788 L457.47 409.3788 L457.47 386.246 Z"/>
      </clipPath>
      <clipPath clipPathUnits="userSpaceOnUse" id="clipPath8">
        <path d="M8 454.3788 L339.66 454.3788 L339.66 477.5116 L8 477.5116 L8 454.3788 Z"/>
      </clipPath>
      <clipPath clipPathUnits="userSpaceOnUse" id="clipPath9">
        <path d="M384.66 454.3788 L603.02 454.3788 L603.02 477.5116 L384.66 477.5116 L384.66 454.3788 Z"/>
      </clipPath>
      <clipPath clipPathUnits="userSpaceOnUse" id="clipPath10">
        <path d="M8 522.5116 L247.99 522.5116 L247.99 545.6444 L8 545.6444 L8 522.5116 Z"/>
      </clipPath>
      <clipPath clipPathUnits="userSpaceOnUse" id="clipPath11">
        <path d="M292.99 522.5116 L448.52 522.5116 L448.52 545.6444 L292.99 545.6444 L292.99 522.5116 Z"/>
      </clipPath>
      <clipPath clipPathUnits="userSpaceOnUse" id="clipPath12">
        <path d="M8 176.8475 L144.99 176.8475 L144.99 199.9804 L8 199.9804 L8 176.8475 Z"/>
      </clipPath>
      <clipPath clipPathUnits="userSpaceOnUse" id="clipPath13">
        <path d="M8 318.1132 L253.14 318.1132 L253.14 341.246 L8 341.246 L8 318.1132 Z"/>
      </clipPath>
      <clipPath clipPathUnits="userSpaceOnUse" id="clipPath14">
        <path d="M194.9902 176.8475 L313.4402 176.8475 L313.4402 199.9804 L194.9902 199.9804 L194.9902 176.8475 Z"/>
      </clipPath>
      <clipPath clipPathUnits="userSpaceOnUse" id="clipPath15">
        <path d="M303.1402 318.1132 L529.7402 318.1132 L529.7402 341.246 L303.1402 341.246 L303.1402 318.1132 Z"/>
      </clipPath>
      <clipPath clipPathUnits="userSpaceOnUse" id="clipPath16">
        <path d="M8 590.6444 L281.98 590.6444 L281.98 613.7772 L8 613.7772 L8 590.6444 Z"/>
      </clipPath>
      <script type="text/ecmascript"><![CDATA[
function umlload(newLocation)
{
if (newLocation.charAt(0) != '#') {
if (newLocation.indexOf("://") > -1) {
window.parent.location.href = newLocation;
} else {
var tmp = window.parent.location.href;
tmp = tmp.substring(0, tmp.lastIndexOf("/") + 1);
window.parent.location.href = tmp.concat(newLocation);
}
} else {
window.parent.location.hash = newLocation;
}
}
]]></script>
    </defs>
    <g fill="rgb(238,238,255)" transform="matrix(0.9102,0,0,0.9102,12.7428,0)" stroke="rgb(238,238,255)">
      <rect width="467.6133" x="0" height="17.9688" y="0" stroke="none"/>
    </g>
    <g fill="rgb(166,166,178)" stroke-miterlimit="1.45" transform="matrix(0.9102,0,0,0.9102,12.7428,0)" stroke-linecap="butt" stroke="rgb(166,166,178)">
      <rect fill="none" width="467.6133" x="0" height="17.9688" y="0"/>
    </g>
    <g fill="rgb(238,238,255)" transform="matrix(0.9102,0,0,0.9102,12.7428,0)" stroke="rgb(238,238,255)">
      <rect width="627.18" x="0" height="603.8085" y="17.9688" stroke="none"/>
    </g>
    <g fill="rgb(166,166,178)" stroke-miterlimit="1.45" transform="matrix(0.9102,0,0,0.9102,12.7428,0)" stroke-linecap="butt" stroke="rgb(166,166,178)">
      <rect fill="none" width="627.18" x="0" height="603.8085" y="17.9688"/>
    </g>
    <g font-family="sans-serif" transform="matrix(0.9102,0,0,0.9102,12.7428,0)">
      <text xml:space="preserve" x="6" y="13.1387" onclick="umlload('#')" stroke="none">com.msopentech.odatajclient.engine.communication.request.batch</text>
    </g>
    <g fill="rgb(221,221,255)" transform="matrix(0.9102,0,0,0.9102,12.7428,0)" stroke="rgb(221,221,255)">
      <rect x="8" y="26" clip-path="url(#clipPath2)" width="272.3917" height="32.7147" stroke="none"/>
    </g>
    <g fill="rgb(154,154,178)" stroke-miterlimit="1.45" transform="matrix(0.9102,0,0,0.9102,12.7428,0)" stroke-linecap="butt" stroke="rgb(154,154,178)">
      <ellipse rx="136.1958" fill="none" ry="16.3574" cx="144.1958" cy="42.3574"/>
    </g>
    <g font-style="italic" font-size="13" font-weight="bold" font-family="sans-serif" transform="matrix(0.9102,0,0,0.9102,12.7428,0)">
      <text xml:space="preserve" x="54.6958" y="46.8579" onclick="umlload('ODataBatchableRequest.html')" stroke="none">ODataBatchableRequest</text>
    </g>
    <g fill="rgb(204,204,255)" transform="matrix(0.9102,0,0,0.9102,12.7428,0)" stroke="rgb(204,204,255)">
      <rect x="62.87" y="103.7147" clip-path="url(#clipPath3)" width="195.7" height="23.1328" stroke="none"/>
    </g>
    <g fill="rgb(142,142,178)" stroke-miterlimit="1.45" transform="matrix(0.9102,0,0,0.9102,12.7428,0)" stroke-linecap="butt" stroke="rgb(142,142,178)">
      <rect fill="none" width="195.7" x="62.87" height="23.1328" y="103.7147"/>
    </g>
    <g font-size="13" font-weight="bold" font-family="sans-serif" transform="matrix(0.9102,0,0,0.9102,12.7428,0)">
      <text xml:space="preserve" x="69.72" y="119.7816" onclick="umlload('ODataBatchRequestItem.html')" stroke="none">ODataBatchRequestItem</text>
    </g>
    <g fill="rgb(204,204,255)" transform="matrix(0.9102,0,0,0.9102,12.7428,0)" stroke="rgb(204,204,255)">
      <rect x="169.9901" y="244.9804" clip-path="url(#clipPath4)" width="207.03" height="23.1328" stroke="none"/>
    </g>
    <g fill="rgb(142,142,178)" stroke-miterlimit="1.45" transform="matrix(0.9102,0,0,0.9102,12.7428,0)" stroke-linecap="butt" stroke="rgb(142,142,178)">
      <rect fill="none" width="207.03" x="169.9901" height="23.1328" y="244.9804"/>
    </g>
    <g font-size="13" font-weight="bold" font-family="sans-serif" transform="matrix(0.9102,0,0,0.9102,12.7428,0)">
      <text xml:space="preserve" x="177.0051" y="261.0473" onclick="umlload('ODataBatchResponseItem.html')" stroke="none">ODataBatchResponseItem</text>
    </g>
    <g fill="rgb(187,187,255)" transform="matrix(0.9102,0,0,0.9102,12.7428,0)" stroke="rgb(187,187,255)">
      <rect x="8" y="386.246" clip-path="url(#clipPath5)" width="173.04" height="23.1328" stroke="none"/>
    </g>
    <g fill="rgb(130,130,178)" stroke-miterlimit="1.45" transform="matrix(0.9102,0,0,0.9102,12.7428,0)" stroke-linecap="butt" stroke="rgb(130,130,178)">
      <rect fill="none" width="173.04" x="8" height="23.1328" y="386.246"/>
    </g>
    <g font-size="13" font-weight="bold" font-family="sans-serif" transform="matrix(0.9102,0,0,0.9102,12.7428,0)">
      <text xml:space="preserve" x="14.52" y="402.3129" onclick="umlload('ODataBatchController.html')" stroke="none">ODataBatchController</text>
    </g>
    <g fill="rgb(187,187,255)" transform="matrix(0.9102,0,0,0.9102,12.7428,0)" stroke="rgb(187,187,255)">
      <rect x="226.04" y="386.246" clip-path="url(#clipPath6)" width="186.43" height="23.1328" stroke="none"/>
    </g>
    <g fill="rgb(130,130,178)" stroke-miterlimit="1.45" transform="matrix(0.9102,0,0,0.9102,12.7428,0)" stroke-linecap="butt" stroke="rgb(130,130,178)">
      <rect fill="none" width="186.43" x="226.04" height="23.1328" y="386.246"/>
    </g>
    <g font-size="13" font-weight="bold" font-family="sans-serif" transform="matrix(0.9102,0,0,0.9102,12.7428,0)">
      <text xml:space="preserve" x="232.755" y="402.3129" onclick="umlload('ODataBatchLineIterator.html')" stroke="none">ODataBatchLineIterator</text>
    </g>
    <g fill="rgb(187,187,255)" transform="matrix(0.9102,0,0,0.9102,12.7428,0)" stroke="rgb(187,187,255)">
      <rect x="457.47" y="386.246" clip-path="url(#clipPath7)" width="161.71" height="23.1328" stroke="none"/>
    </g>
    <g fill="rgb(130,130,178)" stroke-miterlimit="1.45" transform="matrix(0.9102,0,0,0.9102,12.7428,0)" stroke-linecap="butt" stroke="rgb(130,130,178)">
      <rect fill="none" width="161.71" x="457.47" height="23.1328" y="386.246"/>
    </g>
    <g font-size="13" font-weight="bold" font-family="sans-serif" transform="matrix(0.9102,0,0,0.9102,12.7428,0)">
      <text xml:space="preserve" x="463.825" y="402.3129" onclick="umlload('ODataBatchRequest.html')" stroke="none">ODataBatchRequest</text>
    </g>
    <g fill="rgb(187,187,255)" transform="matrix(0.9102,0,0,0.9102,12.7428,0)" stroke="rgb(187,187,255)">
      <rect x="8" y="454.3788" clip-path="url(#clipPath8)" width="331.66" height="23.1328" stroke="none"/>
    </g>
    <g fill="rgb(130,130,178)" stroke-miterlimit="1.45" transform="matrix(0.9102,0,0,0.9102,12.7428,0)" stroke-linecap="butt" stroke="rgb(130,130,178)">
      <rect fill="none" width="331.66" x="8" height="23.1328" y="454.3788"/>
    </g>
    <g font-size="13" font-weight="bold" font-family="sans-serif" transform="matrix(0.9102,0,0,0.9102,12.7428,0)">
      <text xml:space="preserve" x="16.83" y="470.4457" onclick="umlload('ODataBatchRequest.BatchStreamManager.html')" stroke="none">ODataBatchRequest.BatchStreamManager</text>
    </g>
    <g fill="rgb(187,187,255)" transform="matrix(0.9102,0,0,0.9102,12.7428,0)" stroke="rgb(187,187,255)">
      <rect x="384.66" y="454.3788" clip-path="url(#clipPath9)" width="218.36" height="23.1328" stroke="none"/>
    </g>
    <g fill="rgb(130,130,178)" stroke-miterlimit="1.45" transform="matrix(0.9102,0,0,0.9102,12.7428,0)" stroke-linecap="butt" stroke="rgb(130,130,178)">
      <rect fill="none" width="218.36" x="384.66" height="23.1328" y="454.3788"/>
    </g>
    <g font-size="13" font-weight="bold" font-family="sans-serif" transform="matrix(0.9102,0,0,0.9102,12.7428,0)">
      <text xml:space="preserve" x="391.84" y="470.4457" onclick="umlload('ODataBatchRequestFactory.html')" stroke="none">ODataBatchRequestFactory</text>
    </g>
    <g fill="rgb(187,187,255)" transform="matrix(0.9102,0,0,0.9102,12.7428,0)" stroke="rgb(187,187,255)">
      <rect x="8" y="522.5116" clip-path="url(#clipPath10)" width="239.99" height="23.1328" stroke="none"/>
    </g>
    <g fill="rgb(130,130,178)" stroke-miterlimit="1.45" transform="matrix(0.9102,0,0,0.9102,12.7428,0)" stroke-linecap="butt" stroke="rgb(130,130,178)">
      <rect fill="none" width="239.99" x="8" height="23.1328" y="522.5116"/>
    </g>
    <g font-size="13" font-weight="bold" font-family="sans-serif" transform="matrix(0.9102,0,0,0.9102,12.7428,0)">
      <text xml:space="preserve" x="15.495" y="538.5785" onclick="umlload('ODataBatchResponseManager.html')" stroke="none">ODataBatchResponseManager</text>
    </g>
    <g fill="rgb(187,187,255)" transform="matrix(0.9102,0,0,0.9102,12.7428,0)" stroke="rgb(187,187,255)">
      <rect x="292.99" y="522.5116" clip-path="url(#clipPath11)" width="155.53" height="23.1328" stroke="none"/>
    </g>
    <g fill="rgb(130,130,178)" stroke-miterlimit="1.45" transform="matrix(0.9102,0,0,0.9102,12.7428,0)" stroke-linecap="butt" stroke="rgb(130,130,178)">
      <rect fill="none" width="155.53" x="292.99" height="23.1328" y="522.5116"/>
    </g>
    <g font-size="13" font-weight="bold" font-family="sans-serif" transform="matrix(0.9102,0,0,0.9102,12.7428,0)">
      <text xml:space="preserve" x="299.255" y="538.5785" onclick="umlload('ODataBatchUtilities.html')" stroke="none">ODataBatchUtilities</text>
    </g>
    <g fill="rgb(187,187,255)" transform="matrix(0.9102,0,0,0.9102,12.7428,0)" stroke="rgb(187,187,255)">
      <rect x="8" y="176.8475" clip-path="url(#clipPath12)" width="136.99" height="23.1328" stroke="none"/>
    </g>
    <g fill="rgb(130,130,178)" stroke-miterlimit="1.45" transform="matrix(0.9102,0,0,0.9102,12.7428,0)" stroke-linecap="butt" stroke="rgb(130,130,178)">
      <rect fill="none" width="136.99" x="8" height="23.1328" y="176.8475"/>
    </g>
    <g font-size="13" font-weight="bold" font-family="sans-serif" transform="matrix(0.9102,0,0,0.9102,12.7428,0)">
      <text xml:space="preserve" x="13.995" y="192.9144" onclick="umlload('ODataChangeset.html')" stroke="none">ODataChangeset</text>
    </g>
    <g fill="rgb(187,187,255)" transform="matrix(0.9102,0,0,0.9102,12.7428,0)" stroke="rgb(187,187,255)">
      <rect x="8" y="318.1132" clip-path="url(#clipPath13)" width="245.14" height="23.1328" stroke="none"/>
    </g>
    <g fill="rgb(130,130,178)" stroke-miterlimit="1.45" transform="matrix(0.9102,0,0,0.9102,12.7428,0)" stroke-linecap="butt" stroke="rgb(130,130,178)">
      <rect fill="none" width="245.14" x="8" height="23.1328" y="318.1132"/>
    </g>
    <g font-size="13" font-weight="bold" font-family="sans-serif" transform="matrix(0.9102,0,0,0.9102,12.7428,0)">
      <text xml:space="preserve" x="15.57" y="334.1801" onclick="umlload('ODataChangesetResponseItem.html')" stroke="none">ODataChangesetResponseItem</text>
    </g>
    <g fill="rgb(187,187,255)" transform="matrix(0.9102,0,0,0.9102,12.7428,0)" stroke="rgb(187,187,255)">
      <rect x="194.9902" y="176.8475" clip-path="url(#clipPath14)" width="118.45" height="23.1328" stroke="none"/>
    </g>
    <g fill="rgb(130,130,178)" stroke-miterlimit="1.45" transform="matrix(0.9102,0,0,0.9102,12.7428,0)" stroke-linecap="butt" stroke="rgb(130,130,178)">
      <rect fill="none" width="118.45" x="194.9902" height="23.1328" y="176.8475"/>
    </g>
    <g font-size="13" font-weight="bold" font-family="sans-serif" transform="matrix(0.9102,0,0,0.9102,12.7428,0)">
      <text xml:space="preserve" x="200.7152" y="192.9144" onclick="umlload('ODataRetrieve.html')" stroke="none">ODataRetrieve</text>
    </g>
    <g fill="rgb(187,187,255)" transform="matrix(0.9102,0,0,0.9102,12.7428,0)" stroke="rgb(187,187,255)">
      <rect x="303.1402" y="318.1132" clip-path="url(#clipPath15)" width="226.6" height="23.1328" stroke="none"/>
    </g>
    <g fill="rgb(130,130,178)" stroke-miterlimit="1.45" transform="matrix(0.9102,0,0,0.9102,12.7428,0)" stroke-linecap="butt" stroke="rgb(130,130,178)">
      <rect fill="none" width="226.6" x="303.1402" height="23.1328" y="318.1132"/>
    </g>
    <g font-size="13" font-weight="bold" font-family="sans-serif" transform="matrix(0.9102,0,0,0.9102,12.7428,0)">
      <text xml:space="preserve" x="310.4402" y="334.1801" onclick="umlload('ODataRetrieveResponseItem.html')" stroke="none">ODataRetrieveResponseItem</text>
    </g>
    <g fill="rgb(170,170,255)" transform="matrix(0.9102,0,0,0.9102,12.7428,0)" stroke="rgb(170,170,255)">
      <rect x="8" y="590.6444" clip-path="url(#clipPath16)" width="273.98" height="23.1328" stroke="none"/>
    </g>
    <g fill="rgb(118,118,178)" stroke-miterlimit="1.45" transform="matrix(0.9102,0,0,0.9102,12.7428,0)" stroke-linecap="butt" stroke="rgb(118,118,178)">
      <rect fill="none" width="273.98" x="8" height="23.1328" y="590.6444"/>
    </g>
    <g font-size="13" font-weight="bold" font-family="sans-serif" transform="matrix(0.9102,0,0,0.9102,12.7428,0)">
      <text xml:space="preserve" x="15.99" y="606.7113" onclick="umlload('ODataBatchUtilities.BatchItemType.html')" stroke="none">ODataBatchUtilities.BatchItemType</text>
    </g>
    <g font-family="sans-serif" transform="matrix(0.9102,0,0,0.9102,12.7428,0)">
      <text xml:space="preserve" x="6" y="646.1543" onclick="umlload('http://www.yworks.com/')" stroke="none">yWorks UML Doclet</text>
    </g>
    <g stroke-miterlimit="1.45" transform="matrix(0.9102,0,0,0.9102,12.7428,0)" stroke-linecap="butt">
      <path fill="none" d="M76.495 176.8475 L76.495 151.8475 L160.72 151.8475 L160.72 141.8475"/>
      <path fill="white" d="M160.72 126.8475 L154.72 142.8475 L166.72 142.8475 Z" stroke="none"/>
      <path fill="none" d="M160.72 126.8475 L154.72 142.8475 L166.72 142.8475 Z"/>
      <path fill="none" d="M130.57 318.1132 L130.57 293.1132 L273.5051 293.1132 L273.5051 283.1132"/>
      <path fill="white" d="M273.5051 268.1132 L267.5051 284.1132 L279.5051 284.1132 Z" stroke="none"/>
      <path fill="none" d="M273.5051 268.1132 L267.5051 284.1132 L279.5051 284.1132 Z"/>
      <path fill="none" d="M254.2152 176.8475 L254.2152 151.8475 L160.72 151.8475 L160.72 141.8475"/>
      <path fill="white" d="M160.72 126.8475 L154.72 142.8475 L166.72 142.8475 Z" stroke="none"/>
      <path fill="none" d="M160.72 126.8475 L154.72 142.8475 L166.72 142.8475 Z"/>
      <path fill="none" d="M416.4402 318.1132 L416.4402 293.1132 L273.5051 293.1132 L273.5051 283.1132"/>
      <path fill="white" d="M273.5051 268.1132 L267.5051 284.1132 L279.5051 284.1132 Z" stroke="none"/>
      <path fill="none" d="M273.5051 268.1132 L267.5051 284.1132 L279.5051 284.1132 Z"/>
    </g>
  </g>
</svg>
