<?xml version="1.0" encoding="UTF-8"?><svg xmlns="http://www.w3.org/2000/svg" xmlns:xlink="http://www.w3.org/1999/xlink" fill-opacity="1" color-rendering="auto" color-interpolation="auto" stroke="black" text-rendering="auto" stroke-linecap="square" width="378" stroke-miterlimit="10" stroke-opacity="1" shape-rendering="auto" fill="black" stroke-dasharray="none" font-weight="normal" stroke-width="1" height="225" font-family="'Dialog'" font-style="normal" stroke-linejoin="miter" font-size="12" stroke-dashoffset="0" image-rendering="auto">
  <!--Generated by ySVG-->
  <defs id="genericDefs"/>
  <g>
    <defs id="defs1">
      <clipPath clipPathUnits="userSpaceOnUse" id="clipPath1">
        <path d="M0 0 L378 0 L378 225 L0 225 L0 0 Z"/>
      </clipPath>
      <clipPath clipPathUnits="userSpaceOnUse" id="clipPath2">
        <path d="M115.0772 -100.3574 C115.0772 -91.3234 86.3821 -84 50.985 -84 C15.5879 -84 -13.1072 -91.3234 -13.1072 -100.3574 C-13.1072 -109.3913 15.5879 -116.7147 50.985 -116.7147 C86.3821 -116.7147 115.0772 -109.3913 115.0772 -100.3574 Z"/>
      </clipPath>
      <clipPath clipPathUnits="userSpaceOnUse" id="clipPath3">
        <path d="M0 0 L101.97 0 L101.97 38.5938 L0 38.5938 L0 0 Z"/>
      </clipPath>
      <script type="text/ecmascript"><![CDATA[
function umlload(newLocation)
{
if (newLocation.charAt(0) != '#') {
if (newLocation.indexOf("://") > -1) {
window.parent.location.href = newLocation;
} else {
var tmp = window.parent.location.href;
tmp = tmp.substring(0, tmp.lastIndexOf("/") + 1);
window.parent.location.href = tmp.concat(newLocation);
}
} else {
window.parent.location.hash = newLocation;
}
}
]]></script>
    </defs>
    <g fill="rgb(238,238,255)" transform="matrix(1,0,0,1,23,143)" stroke="rgb(238,238,255)">
      <rect width="153.5869" x="-22.1072" height="17.9688" y="-142.7147" stroke="none"/>
    </g>
    <g fill="rgb(166,166,178)" stroke-miterlimit="1.45" transform="matrix(1,0,0,1,23,143)" stroke-linecap="butt" stroke="rgb(166,166,178)">
      <rect fill="none" width="153.5869" x="-22.1072" height="17.9688" y="-142.7147"/>
    </g>
    <g fill="rgb(238,238,255)" transform="matrix(1,0,0,1,23,143)" stroke="rgb(238,238,255)">
      <rect width="154.1843" x="-22.1072" height="48.746" y="-124.746" stroke="none"/>
    </g>
    <g fill="rgb(166,166,178)" stroke-miterlimit="1.45" transform="matrix(1,0,0,1,23,143)" stroke-linecap="butt" stroke="rgb(166,166,178)">
      <rect fill="none" width="154.1843" x="-22.1072" height="48.746" y="-124.746"/>
    </g>
    <g font-family="sans-serif" transform="matrix(1,0,0,1,23,143)">
      <text xml:space="preserve" x="-16.1072" y="-129.5761" onclick="umlload('http://docs.oracle.com/javase/6/docs/api/java/lang/annotation/package-summary.html')" stroke="none">java.lang.annotation</text>
    </g>
    <g fill="rgb(221,221,255)" transform="matrix(1,0,0,1,23,143)" stroke="rgb(221,221,255)">
      <rect x="-13.1072" y="-116.7147" clip-path="url(#clipPath2)" width="128.1843" height="32.7147" stroke="none"/>
    </g>
    <g fill="rgb(154,154,178)" stroke-miterlimit="1.45" transform="matrix(1,0,0,1,23,143)" stroke-linecap="butt" stroke="rgb(154,154,178)">
      <ellipse rx="64.0922" fill="none" ry="16.3574" cx="50.985" cy="-100.3574"/>
    </g>
    <g font-style="italic" font-size="13" font-weight="bold" font-family="sans-serif" transform="matrix(1,0,0,1,23,143)">
      <text xml:space="preserve" x="10.985" y="-95.8569" onclick="umlload('http://docs.oracle.com/javase/6/docs/api/java/lang/annotation/Annotation.html')" stroke="none">Annotation</text>
    </g>
    <g fill="rgb(238,238,255)" transform="matrix(1,0,0,1,23,143)" stroke="rgb(238,238,255)">
      <rect width="362.5842" x="-8" height="17.9688" y="-26" stroke="none"/>
    </g>
    <g fill="rgb(166,166,178)" stroke-miterlimit="1.45" transform="matrix(1,0,0,1,23,143)" stroke-linecap="butt" stroke="rgb(166,166,178)">
      <rect fill="none" width="362.5842" x="-8" height="17.9688" y="-26"/>
    </g>
    <g fill="rgb(238,238,255)" transform="matrix(1,0,0,1,23,143)" stroke="rgb(238,238,255)">
      <rect width="362.97" x="-8" height="54.625" y="-8.0312" stroke="none"/>
    </g>
    <g fill="rgb(166,166,178)" stroke-miterlimit="1.45" transform="matrix(1,0,0,1,23,143)" stroke-linecap="butt" stroke="rgb(166,166,178)">
      <rect fill="none" width="362.97" x="-8" height="54.625" y="-8.0312"/>
    </g>
    <g font-family="sans-serif" transform="matrix(1,0,0,1,23,143)">
      <text xml:space="preserve" x="-2" y="-12.8613" onclick="umlload('package-summary.html')" stroke="none">com.msopentech.odatajclient.proxy.api.annotations</text>
    </g>
    <g fill="rgb(213,213,255)" transform="matrix(1,0,0,1,23,143)" stroke="rgb(213,213,255)">
      <rect x="0" y="0" clip-path="url(#clipPath3)" width="101.97" height="38.5938" stroke="none"/>
    </g>
    <g fill="rgb(148,148,178)" stroke-miterlimit="1.45" transform="matrix(1,0,0,1,23,143)" stroke-linecap="butt" stroke="rgb(148,148,178)">
      <rect fill="none" width="101.97" x="0" height="38.5938" y="0"/>
    </g>
    <g font-size="16" font-weight="bold" font-family="sans-serif" transform="matrix(1,0,0,1,23,143)">
      <text xml:space="preserve" x="5.485" y="32.8203" onclick="umlload('#')" stroke="none">EnumType</text>
    </g>
    <g font-family="sans-serif" transform="matrix(1,0,0,1,23,143)">
      <text xml:space="preserve" x="9.485" y="13.1387" stroke="none">«annotation»</text>
    </g>
    <g font-family="sans-serif" transform="matrix(1,0,0,1,23,143)">
      <text xml:space="preserve" x="-17" y="71.1543" onclick="umlload('http://www.yworks.com/')" stroke="none">yWorks UML Doclet</text>
    </g>
    <g stroke-dasharray="6,2" stroke-miterlimit="1.45" transform="matrix(1,0,0,1,23,143)" stroke-linecap="butt">
      <path fill="none" d="M50.985 0 L50.985 -69"/>
      <path fill="white" d="M50.985 -84 L44.985 -68 L56.985 -68 Z" stroke="none"/>
      <path fill="none" stroke-dasharray="none" d="M50.985 -84 L44.985 -68 L56.985 -68 Z"/>
    </g>
  </g>
</svg>
