<?xml version="1.0" encoding="UTF-8"?><svg xmlns="http://www.w3.org/2000/svg" xmlns:xlink="http://www.w3.org/1999/xlink" fill-opacity="1" color-rendering="auto" color-interpolation="auto" stroke="black" text-rendering="auto" stroke-linecap="square" width="577" stroke-miterlimit="10" stroke-opacity="1" shape-rendering="auto" fill="black" stroke-dasharray="none" font-weight="normal" stroke-width="1" height="569" font-family="'Dialog'" font-style="normal" stroke-linejoin="miter" font-size="12" stroke-dashoffset="0" image-rendering="auto">
  <!--Generated by ySVG-->
  <defs id="genericDefs"/>
  <g>
    <defs id="defs1">
      <clipPath clipPathUnits="userSpaceOnUse" id="clipPath1">
        <path d="M0 0 L577 0 L577 569 L0 569 L0 0 Z"/>
      </clipPath>
      <clipPath clipPathUnits="userSpaceOnUse" id="clipPath2">
        <path d="M163.8605 42.3574 C163.8605 51.3913 128.9699 58.7147 85.9302 58.7147 C42.8906 58.7147 8 51.3913 8 42.3574 C8 33.3234 42.8906 26 85.9302 26 C128.9699 26 163.8605 33.3234 163.8605 42.3574 Z"/>
      </clipPath>
      <clipPath clipPathUnits="userSpaceOnUse" id="clipPath3">
        <path d="M376.3741 42.3574 C376.3741 51.3913 338.8749 58.7147 292.6173 58.7147 C246.3597 58.7147 208.8605 51.3913 208.8605 42.3574 C208.8605 33.3234 246.3597 26 292.6173 26 C338.8749 26 376.3741 33.3234 376.3741 42.3574 Z"/>
      </clipPath>
      <clipPath clipPathUnits="userSpaceOnUse" id="clipPath4">
        <path d="M262.912 120.0721 C262.912 129.106 205.848 136.4295 135.456 136.4295 C65.064 136.4295 8 129.106 8 120.0721 C8 111.0382 65.064 103.7147 135.456 103.7147 C205.848 103.7147 262.912 111.0382 262.912 120.0721 Z"/>
      </clipPath>
      <clipPath clipPathUnits="userSpaceOnUse" id="clipPath5">
        <path d="M484.1654 120.0721 C484.1654 129.106 444.7097 136.4295 396.0387 136.4295 C347.3677 136.4295 307.912 129.106 307.912 120.0721 C307.912 111.0382 347.3677 103.7147 396.0387 103.7147 C444.7097 103.7147 484.1654 111.0382 484.1654 120.0721 Z"/>
      </clipPath>
      <clipPath clipPathUnits="userSpaceOnUse" id="clipPath6">
        <path d="M115.7914 197.7868 C115.7914 206.8208 91.6614 214.1442 61.8957 214.1442 C32.1299 214.1442 8 206.8208 8 197.7868 C8 188.7529 32.1299 181.4295 61.8957 181.4295 C91.6614 181.4295 115.7914 188.7529 115.7914 197.7868 Z"/>
      </clipPath>
      <clipPath clipPathUnits="userSpaceOnUse" id="clipPath7">
        <path d="M284.6057 197.7868 C284.6057 206.8208 256.8889 214.1442 222.6986 214.1442 C188.5081 214.1442 160.7914 206.8208 160.7914 197.7868 C160.7914 188.7529 188.5081 181.4295 222.6986 181.4295 C256.8889 181.4295 284.6057 188.7529 284.6057 197.7868 Z"/>
      </clipPath>
      <clipPath clipPathUnits="userSpaceOnUse" id="clipPath8">
        <path d="M451.9635 197.7868 C451.9635 206.8208 424.5728 214.1442 390.7846 214.1442 C356.9965 214.1442 329.6057 206.8208 329.6057 197.7868 C329.6057 188.7529 356.9965 181.4295 390.7846 181.4295 C424.5728 181.4295 451.9635 188.7529 451.9635 197.7868 Z"/>
      </clipPath>
      <clipPath clipPathUnits="userSpaceOnUse" id="clipPath9">
        <path d="M182.7968 275.5016 C182.7968 284.5355 143.6672 291.8589 95.3984 291.8589 C47.1296 291.8589 8 284.5355 8 275.5016 C8 266.4677 47.1296 259.1442 95.3984 259.1442 C143.6672 259.1442 182.7968 266.4677 182.7968 275.5016 Z"/>
      </clipPath>
      <clipPath clipPathUnits="userSpaceOnUse" id="clipPath10">
        <path d="M278.7792 275.5016 C278.7792 284.5355 267.3664 291.8589 253.288 291.8589 C239.2096 291.8589 227.7968 284.5355 227.7968 275.5016 C227.7968 266.4677 239.2096 259.1442 253.288 259.1442 C267.3664 259.1442 278.7792 266.4677 278.7792 275.5016 Z"/>
      </clipPath>
      <clipPath clipPathUnits="userSpaceOnUse" id="clipPath11">
        <path d="M431.5706 275.5016 C431.5706 284.5355 407.4406 291.8589 377.6749 291.8589 C347.9091 291.8589 323.7792 284.5355 323.7792 275.5016 C323.7792 266.4677 347.9091 259.1442 377.6749 259.1442 C407.4406 259.1442 431.5706 266.4677 431.5706 275.5016 Z"/>
      </clipPath>
      <clipPath clipPathUnits="userSpaceOnUse" id="clipPath12">
        <path d="M563.9689 275.5016 C563.9689 284.5355 544.4042 291.8589 520.2698 291.8589 C496.1353 291.8589 476.5706 284.5355 476.5706 275.5016 C476.5706 266.4677 496.1353 259.1442 520.2698 259.1442 C544.4042 259.1442 563.9689 266.4677 563.9689 275.5016 Z"/>
      </clipPath>
      <clipPath clipPathUnits="userSpaceOnUse" id="clipPath13">
        <path d="M146.3808 353.2163 C146.3808 362.2502 115.4032 369.5737 77.1904 369.5737 C38.9776 369.5737 8 362.2502 8 353.2163 C8 344.1824 38.9776 336.8589 77.1904 336.8589 C115.4032 336.8589 146.3808 344.1824 146.3808 353.2163 Z"/>
      </clipPath>
      <clipPath clipPathUnits="userSpaceOnUse" id="clipPath14">
        <path d="M411.3334 353.2163 C411.3334 362.2502 362.0954 369.5737 301.3571 369.5737 C240.6189 369.5737 191.3808 362.2502 191.3808 353.2163 C191.3808 344.1824 240.6189 336.8589 301.3571 336.8589 C362.0954 336.8589 411.3334 344.1824 411.3334 353.2163 Z"/>
      </clipPath>
      <clipPath clipPathUnits="userSpaceOnUse" id="clipPath15">
        <path d="M133.271 430.9311 C133.271 439.965 105.2282 447.2884 70.6355 447.2884 C36.0429 447.2884 8 439.965 8 430.9311 C8 421.8971 36.0429 414.5737 70.6355 414.5737 C105.2282 414.5737 133.271 421.8971 133.271 430.9311 Z"/>
      </clipPath>
      <clipPath clipPathUnits="userSpaceOnUse" id="clipPath16">
        <path d="M283.1491 430.9311 C283.1491 439.965 259.6714 447.2884 230.7101 447.2884 C201.7488 447.2884 178.271 439.965 178.271 430.9311 C178.271 421.8971 201.7488 414.5737 230.7101 414.5737 C259.6714 414.5737 283.1491 421.8971 283.1491 430.9311 Z"/>
      </clipPath>
      <clipPath clipPathUnits="userSpaceOnUse" id="clipPath17">
        <path d="M568.4947 430.9311 C568.4947 439.965 514.6915 447.2884 448.3219 447.2884 C381.9523 447.2884 328.1491 439.965 328.1491 430.9311 C328.1491 421.8971 381.9523 414.5737 448.3219 414.5737 C514.6915 414.5737 568.4947 421.8971 568.4947 430.9311 Z"/>
      </clipPath>
      <clipPath clipPathUnits="userSpaceOnUse" id="clipPath18">
        <path d="M115.7914 508.6458 C115.7914 517.6797 91.6614 525.0032 61.8957 525.0032 C32.1299 525.0032 8 517.6797 8 508.6458 C8 499.6119 32.1299 492.2884 61.8957 492.2884 C91.6614 492.2884 115.7914 499.6119 115.7914 508.6458 Z"/>
      </clipPath>
      <script type="text/ecmascript"><![CDATA[
function umlload(newLocation)
{
if (newLocation.charAt(0) != '#') {
if (newLocation.indexOf("://") > -1) {
window.parent.location.href = newLocation;
} else {
var tmp = window.parent.location.href;
tmp = tmp.substring(0, tmp.lastIndexOf("/") + 1);
window.parent.location.href = tmp.concat(newLocation);
}
} else {
window.parent.location.hash = newLocation;
}
}
]]></script>
    </defs>
    <g fill="rgb(238,238,255)" stroke="rgb(238,238,255)">
      <rect width="362.5842" x="0" height="17.9688" y="0" stroke="none"/>
    </g>
    <g fill="rgb(166,166,178)" stroke-miterlimit="1.45" stroke-linecap="butt" stroke="rgb(166,166,178)">
      <rect fill="none" width="362.5842" x="0" height="17.9688" y="0"/>
    </g>
    <g fill="rgb(238,238,255)" stroke="rgb(238,238,255)">
      <rect width="576.4947" x="0" height="515.0344" y="17.9688" stroke="none"/>
    </g>
    <g fill="rgb(166,166,178)" stroke-miterlimit="1.45" stroke-linecap="butt" stroke="rgb(166,166,178)">
      <rect fill="none" width="576.4947" x="0" height="515.0344" y="17.9688"/>
    </g>
    <g font-family="sans-serif">
      <text xml:space="preserve" x="6" y="13.1387" onclick="umlload('#')" stroke="none">com.msopentech.odatajclient.proxy.api.annotations</text>
    </g>
    <g fill="rgb(213,213,255)" stroke="rgb(213,213,255)">
      <rect x="8" y="26" clip-path="url(#clipPath2)" width="155.8605" height="32.7147" stroke="none"/>
    </g>
    <g fill="rgb(148,148,178)" stroke-miterlimit="1.45" stroke-linecap="butt" stroke="rgb(148,148,178)">
      <ellipse rx="77.9302" fill="none" ry="16.3574" cx="85.9302" cy="42.3574"/>
    </g>
    <g font-size="13" font-weight="bold" font-family="sans-serif">
      <text xml:space="preserve" x="36.4302" y="46.8579" onclick="umlload('ComplexType.html')" stroke="none">ComplexType</text>
    </g>
    <g fill="rgb(213,213,255)" stroke="rgb(213,213,255)">
      <rect x="208.8605" y="26" clip-path="url(#clipPath3)" width="167.5136" height="32.7147" stroke="none"/>
    </g>
    <g fill="rgb(148,148,178)" stroke-miterlimit="1.45" stroke-linecap="butt" stroke="rgb(148,148,178)">
      <ellipse rx="83.7568" fill="none" ry="16.3574" cx="292.6173" cy="42.3574"/>
    </g>
    <g font-size="13" font-weight="bold" font-family="sans-serif">
      <text xml:space="preserve" x="239.1173" y="46.8579" onclick="umlload('CompoundKey.html')" stroke="none">CompoundKey</text>
    </g>
    <g fill="rgb(213,213,255)" stroke="rgb(213,213,255)">
      <rect x="8" y="103.7147" clip-path="url(#clipPath4)" width="254.912" height="32.7147" stroke="none"/>
    </g>
    <g fill="rgb(148,148,178)" stroke-miterlimit="1.45" stroke-linecap="butt" stroke="rgb(148,148,178)">
      <ellipse rx="127.456" fill="none" ry="16.3574" cx="135.456" cy="120.0721"/>
    </g>
    <g font-size="13" font-weight="bold" font-family="sans-serif">
      <text xml:space="preserve" x="51.956" y="124.5726" onclick="umlload('CompoundKeyElement.html')" stroke="none">CompoundKeyElement</text>
    </g>
    <g fill="rgb(213,213,255)" stroke="rgb(213,213,255)">
      <rect x="307.912" y="103.7147" clip-path="url(#clipPath5)" width="176.2534" height="32.7147" stroke="none"/>
    </g>
    <g fill="rgb(148,148,178)" stroke-miterlimit="1.45" stroke-linecap="butt" stroke="rgb(148,148,178)">
      <ellipse rx="88.1267" fill="none" ry="16.3574" cx="396.0387" cy="120.0721"/>
    </g>
    <g font-size="13" font-weight="bold" font-family="sans-serif">
      <text xml:space="preserve" x="339.5387" y="124.5726" onclick="umlload('EntityContainer.html')" stroke="none">EntityContainer</text>
    </g>
    <g fill="rgb(213,213,255)" stroke="rgb(213,213,255)">
      <rect x="8" y="181.4295" clip-path="url(#clipPath6)" width="107.7914" height="32.7147" stroke="none"/>
    </g>
    <g fill="rgb(148,148,178)" stroke-miterlimit="1.45" stroke-linecap="butt" stroke="rgb(148,148,178)">
      <ellipse rx="53.8957" fill="none" ry="16.3574" cx="61.8957" cy="197.7868"/>
    </g>
    <g font-size="13" font-weight="bold" font-family="sans-serif">
      <text xml:space="preserve" x="28.8957" y="202.2873" onclick="umlload('EntitySet.html')" stroke="none">EntitySet</text>
    </g>
    <g fill="rgb(213,213,255)" stroke="rgb(213,213,255)">
      <rect x="160.7914" y="181.4295" clip-path="url(#clipPath7)" width="123.8144" height="32.7147" stroke="none"/>
    </g>
    <g fill="rgb(148,148,178)" stroke-miterlimit="1.45" stroke-linecap="butt" stroke="rgb(148,148,178)">
      <ellipse rx="61.9072" fill="none" ry="16.3574" cx="222.6986" cy="197.7868"/>
    </g>
    <g font-size="13" font-weight="bold" font-family="sans-serif">
      <text xml:space="preserve" x="184.1986" y="202.2873" onclick="umlload('EntityType.html')" stroke="none">EntityType</text>
    </g>
    <g fill="rgb(213,213,255)" stroke="rgb(213,213,255)">
      <rect x="329.6058" y="181.4295" clip-path="url(#clipPath8)" width="122.3578" height="32.7147" stroke="none"/>
    </g>
    <g fill="rgb(148,148,178)" stroke-miterlimit="1.45" stroke-linecap="butt" stroke="rgb(148,148,178)">
      <ellipse rx="61.1789" fill="none" ry="16.3574" cx="390.7846" cy="197.7868"/>
    </g>
    <g font-size="13" font-weight="bold" font-family="sans-serif">
      <text xml:space="preserve" x="352.7846" y="202.2873" onclick="umlload('EnumType.html')" stroke="none">EnumType</text>
    </g>
    <g fill="rgb(213,213,255)" stroke="rgb(213,213,255)">
      <rect x="8" y="259.1442" clip-path="url(#clipPath9)" width="174.7968" height="32.7147" stroke="none"/>
    </g>
    <g fill="rgb(148,148,178)" stroke-miterlimit="1.45" stroke-linecap="butt" stroke="rgb(148,148,178)">
      <ellipse rx="87.3984" fill="none" ry="16.3574" cx="95.3984" cy="275.5016"/>
    </g>
    <g font-size="13" font-weight="bold" font-family="sans-serif">
      <text xml:space="preserve" x="39.3984" y="280.0021" onclick="umlload('FunctionImport.html')" stroke="none">FunctionImport</text>
    </g>
    <g fill="rgb(213,213,255)" stroke="rgb(213,213,255)">
      <rect x="227.7968" y="259.1442" clip-path="url(#clipPath10)" width="50.9824" height="32.7147" stroke="none"/>
    </g>
    <g fill="rgb(148,148,178)" stroke-miterlimit="1.45" stroke-linecap="butt" stroke="rgb(148,148,178)">
      <ellipse rx="25.4912" fill="none" ry="16.3574" cx="253.288" cy="275.5016"/>
    </g>
    <g font-size="13" font-weight="bold" font-family="sans-serif">
      <text xml:space="preserve" x="239.788" y="280.0021" onclick="umlload('Key.html')" stroke="none">Key</text>
    </g>
    <g fill="rgb(213,213,255)" stroke="rgb(213,213,255)">
      <rect x="323.7792" y="259.1442" clip-path="url(#clipPath11)" width="107.7914" height="32.7147" stroke="none"/>
    </g>
    <g fill="rgb(148,148,178)" stroke-miterlimit="1.45" stroke-linecap="butt" stroke="rgb(148,148,178)">
      <ellipse rx="53.8957" fill="none" ry="16.3574" cx="377.6749" cy="275.5016"/>
    </g>
    <g font-size="13" font-weight="bold" font-family="sans-serif">
      <text xml:space="preserve" x="344.6749" y="280.0021" onclick="umlload('KeyClass.html')" stroke="none">KeyClass</text>
    </g>
    <g fill="rgb(213,213,255)" stroke="rgb(213,213,255)">
      <rect x="476.5706" y="259.1442" clip-path="url(#clipPath12)" width="87.3984" height="32.7147" stroke="none"/>
    </g>
    <g fill="rgb(148,148,178)" stroke-miterlimit="1.45" stroke-linecap="butt" stroke="rgb(148,148,178)">
      <ellipse rx="43.6992" fill="none" ry="16.3574" cx="520.2698" cy="275.5016"/>
    </g>
    <g font-size="13" font-weight="bold" font-family="sans-serif">
      <text xml:space="preserve" x="494.2697" y="280.0021" onclick="umlload('KeyRef.html')" stroke="none">KeyRef</text>
    </g>
    <g fill="rgb(213,213,255)" stroke="rgb(213,213,255)">
      <rect x="8" y="336.8589" clip-path="url(#clipPath13)" width="138.3808" height="32.7147" stroke="none"/>
    </g>
    <g fill="rgb(148,148,178)" stroke-miterlimit="1.45" stroke-linecap="butt" stroke="rgb(148,148,178)">
      <ellipse rx="69.1904" fill="none" ry="16.3574" cx="77.1904" cy="353.2163"/>
    </g>
    <g font-size="13" font-weight="bold" font-family="sans-serif">
      <text xml:space="preserve" x="33.6904" y="357.7168" onclick="umlload('Namespace.html')" stroke="none">Namespace</text>
    </g>
    <g fill="rgb(213,213,255)" stroke="rgb(213,213,255)">
      <rect x="191.3808" y="336.8589" clip-path="url(#clipPath14)" width="219.9526" height="32.7147" stroke="none"/>
    </g>
    <g fill="rgb(148,148,178)" stroke-miterlimit="1.45" stroke-linecap="butt" stroke="rgb(148,148,178)">
      <ellipse rx="109.9763" fill="none" ry="16.3574" cx="301.3571" cy="353.2163"/>
    </g>
    <g font-size="13" font-weight="bold" font-family="sans-serif">
      <text xml:space="preserve" x="229.8571" y="357.7168" onclick="umlload('NavigationProperty.html')" stroke="none">NavigationProperty</text>
    </g>
    <g fill="rgb(213,213,255)" stroke="rgb(213,213,255)">
      <rect x="8" y="414.5737" clip-path="url(#clipPath15)" width="125.271" height="32.7147" stroke="none"/>
    </g>
    <g fill="rgb(148,148,178)" stroke-miterlimit="1.45" stroke-linecap="butt" stroke="rgb(148,148,178)">
      <ellipse rx="62.6355" fill="none" ry="16.3574" cx="70.6355" cy="430.9311"/>
    </g>
    <g font-size="13" font-weight="bold" font-family="sans-serif">
      <text xml:space="preserve" x="31.6355" y="435.4315" onclick="umlload('Parameter.html')" stroke="none">Parameter</text>
    </g>
    <g fill="rgb(213,213,255)" stroke="rgb(213,213,255)">
      <rect x="178.271" y="414.5737" clip-path="url(#clipPath16)" width="104.8781" height="32.7147" stroke="none"/>
    </g>
    <g fill="rgb(148,148,178)" stroke-miterlimit="1.45" stroke-linecap="butt" stroke="rgb(148,148,178)">
      <ellipse rx="52.439" fill="none" ry="16.3574" cx="230.7101" cy="430.9311"/>
    </g>
    <g font-size="13" font-weight="bold" font-family="sans-serif">
      <text xml:space="preserve" x="198.7101" y="435.4315" onclick="umlload('Property.html')" stroke="none">Property</text>
    </g>
    <g fill="rgb(213,213,255)" stroke="rgb(213,213,255)">
      <rect x="328.1491" y="414.5737" clip-path="url(#clipPath17)" width="240.3456" height="32.7147" stroke="none"/>
    </g>
    <g fill="rgb(148,148,178)" stroke-miterlimit="1.45" stroke-linecap="butt" stroke="rgb(148,148,178)">
      <ellipse rx="120.1728" fill="none" ry="16.3574" cx="448.3219" cy="430.9311"/>
    </g>
    <g font-size="13" font-weight="bold" font-family="sans-serif">
      <text xml:space="preserve" x="369.8219" y="435.4315" onclick="umlload('ReferentialConstraint.html')" stroke="none">ReferentialConstraint</text>
    </g>
    <g fill="rgb(213,213,255)" stroke="rgb(213,213,255)">
      <rect x="8" y="492.2884" clip-path="url(#clipPath18)" width="107.7914" height="32.7147" stroke="none"/>
    </g>
    <g fill="rgb(148,148,178)" stroke-miterlimit="1.45" stroke-linecap="butt" stroke="rgb(148,148,178)">
      <ellipse rx="53.8957" fill="none" ry="16.3574" cx="61.8957" cy="508.6458"/>
    </g>
    <g font-size="13" font-weight="bold" font-family="sans-serif">
      <text xml:space="preserve" x="28.8957" y="513.1463" onclick="umlload('RowType.html')" stroke="none">RowType</text>
    </g>
    <g font-family="sans-serif">
      <text xml:space="preserve" x="6" y="558.1543" onclick="umlload('http://www.yworks.com/')" stroke="none">yWorks UML Doclet</text>
    </g>
  </g>
</svg>
