<?xml version="1.0" encoding="UTF-8"?><svg xmlns="http://www.w3.org/2000/svg" xmlns:xlink="http://www.w3.org/1999/xlink" fill-opacity="1" color-rendering="auto" color-interpolation="auto" stroke="black" text-rendering="auto" stroke-linecap="square" width="598" stroke-miterlimit="10" stroke-opacity="1" shape-rendering="auto" fill="black" stroke-dasharray="none" font-weight="normal" stroke-width="1" height="598" font-family="'Dialog'" font-style="normal" stroke-linejoin="miter" font-size="12" stroke-dashoffset="0" image-rendering="auto">
  <!--Generated by ySVG-->
  <defs id="genericDefs"/>
  <g>
    <defs id="defs1">
      <clipPath clipPathUnits="userSpaceOnUse" id="clipPath1">
        <path d="M0 0 L598 0 L598 598 L0 598 L0 0 Z"/>
      </clipPath>
      <clipPath clipPathUnits="userSpaceOnUse" id="clipPath2">
        <path d="M355.91 96.7147 L409.47 96.7147 L409.47 119.8475 L355.91 119.8475 L355.91 96.7147 Z"/>
      </clipPath>
      <clipPath clipPathUnits="userSpaceOnUse" id="clipPath3">
        <path d="M526.3369 16.3574 C526.3369 25.3913 488.1855 32.7147 441.1234 32.7147 C394.0614 32.7147 355.91 25.3913 355.91 16.3574 C355.91 7.3234 394.0614 0 441.1234 0 C488.1855 0 526.3369 7.3234 526.3369 16.3574 Z"/>
      </clipPath>
      <clipPath clipPathUnits="userSpaceOnUse" id="clipPath4">
        <path d="M-36.05 -107.1328 L159.65 -107.1328 L159.65 -84 L-36.05 -84 L-36.05 -107.1328 Z"/>
      </clipPath>
      <clipPath clipPathUnits="userSpaceOnUse" id="clipPath5">
        <path d="M0 0 L123.6 0 L123.6 127.8475 L0 127.8475 L0 0 Z"/>
      </clipPath>
      <script type="text/ecmascript"><![CDATA[
function umlload(newLocation)
{
if (newLocation.charAt(0) != '#') {
if (newLocation.indexOf("://") > -1) {
window.parent.location.href = newLocation;
} else {
var tmp = window.parent.location.href;
tmp = tmp.substring(0, tmp.lastIndexOf("/") + 1);
window.parent.location.href = tmp.concat(newLocation);
}
} else {
window.parent.location.hash = newLocation;
}
}
]]></script>
    </defs>
    <g fill="rgb(238,238,255)" transform="matrix(0.7868,0,0,0.7868,72.3895,284.05)" stroke="rgb(238,238,255)">
      <rect width="76.1412" x="347.91" height="17.9688" y="70.7147" stroke="none"/>
    </g>
    <g fill="rgb(166,166,178)" stroke-miterlimit="1.45" transform="matrix(0.7868,0,0,0.7868,72.3895,284.05)" stroke-linecap="butt" stroke="rgb(166,166,178)">
      <rect fill="none" width="76.1412" x="347.91" height="17.9688" y="70.7147"/>
    </g>
    <g fill="rgb(238,238,255)" transform="matrix(0.7868,0,0,0.7868,72.3895,284.05)" stroke="rgb(238,238,255)">
      <rect width="79.56" x="347.91" height="39.1641" y="88.6835" stroke="none"/>
    </g>
    <g fill="rgb(166,166,178)" stroke-miterlimit="1.45" transform="matrix(0.7868,0,0,0.7868,72.3895,284.05)" stroke-linecap="butt" stroke="rgb(166,166,178)">
      <rect fill="none" width="79.56" x="347.91" height="39.1641" y="88.6835"/>
    </g>
    <g font-family="sans-serif" transform="matrix(0.7868,0,0,0.7868,72.3895,284.05)">
      <text xml:space="preserve" x="353.91" y="83.8534" onclick="umlload('http://docs.oracle.com/javase/6/docs/api/java/lang/package-summary.html')" stroke="none">java.lang</text>
    </g>
    <g fill="rgb(187,187,255)" transform="matrix(0.7868,0,0,0.7868,72.3895,284.05)" stroke="rgb(187,187,255)">
      <rect x="355.91" y="96.7147" clip-path="url(#clipPath2)" width="53.56" height="23.1328" stroke="none"/>
    </g>
    <g fill="rgb(130,130,178)" stroke-miterlimit="1.45" transform="matrix(0.7868,0,0,0.7868,72.3895,284.05)" stroke-linecap="butt" stroke="rgb(130,130,178)">
      <rect fill="none" width="53.56" x="355.91" height="23.1328" y="96.7147"/>
    </g>
    <g font-size="13" font-weight="bold" font-family="sans-serif" transform="matrix(0.7868,0,0,0.7868,72.3895,284.05)">
      <text xml:space="preserve" x="360.69" y="112.7816" onclick="umlload('http://docs.oracle.com/javase/6/docs/api/java/lang/String.html')" stroke="none">String</text>
    </g>
    <g fill="rgb(238,238,255)" transform="matrix(0.7868,0,0,0.7868,72.3895,284.05)" stroke="rgb(238,238,255)">
      <rect width="319.0873" x="347.91" height="17.9688" y="-26" stroke="none"/>
    </g>
    <g fill="rgb(166,166,178)" stroke-miterlimit="1.45" transform="matrix(0.7868,0,0,0.7868,72.3895,284.05)" stroke-linecap="butt" stroke="rgb(166,166,178)">
      <rect fill="none" width="319.0873" x="347.91" height="17.9688" y="-26"/>
    </g>
    <g fill="rgb(238,238,255)" transform="matrix(0.7868,0,0,0.7868,72.3895,284.05)" stroke="rgb(238,238,255)">
      <rect width="319.4269" x="347.91" height="48.746" y="-8.0312" stroke="none"/>
    </g>
    <g fill="rgb(166,166,178)" stroke-miterlimit="1.45" transform="matrix(0.7868,0,0,0.7868,72.3895,284.05)" stroke-linecap="butt" stroke="rgb(166,166,178)">
      <rect fill="none" width="319.4269" x="347.91" height="48.746" y="-8.0312"/>
    </g>
    <g font-family="sans-serif" transform="matrix(0.7868,0,0,0.7868,72.3895,284.05)">
      <text xml:space="preserve" x="353.91" y="-12.8613" onclick="umlload('../../../../../../com/msopentech/odatajclient/engine/uri/filter/package-summary.html')" stroke="none">com.msopentech.odatajclient.engine.uri.filter</text>
    </g>
    <g fill="rgb(221,221,255)" transform="matrix(0.7868,0,0,0.7868,72.3895,284.05)" stroke="rgb(221,221,255)">
      <rect x="355.91" y="0" clip-path="url(#clipPath3)" width="170.4269" height="32.7147" stroke="none"/>
    </g>
    <g fill="rgb(154,154,178)" stroke-miterlimit="1.45" transform="matrix(0.7868,0,0,0.7868,72.3895,284.05)" stroke-linecap="butt" stroke="rgb(154,154,178)">
      <ellipse rx="85.2134" fill="none" ry="16.3574" cx="441.1234" cy="16.3574"/>
    </g>
    <g font-style="italic" font-size="13" font-weight="bold" font-family="sans-serif" transform="matrix(0.7868,0,0,0.7868,72.3895,284.05)">
      <text xml:space="preserve" x="386.6234" y="20.8579" onclick="umlload('../../../../../../com/msopentech/odatajclient/engine/uri/filter/ODataFilterArg.html')" stroke="none">ODataFilterArg</text>
    </g>
    <g fill="rgb(238,238,255)" transform="matrix(0.7868,0,0,0.7868,72.3895,284.05)" stroke="rgb(238,238,255)">
      <rect width="319.0873" x="-91.05" height="17.9688" y="-133.1328" stroke="none"/>
    </g>
    <g fill="rgb(166,166,178)" stroke-miterlimit="1.45" transform="matrix(0.7868,0,0,0.7868,72.3895,284.05)" stroke-linecap="butt" stroke="rgb(166,166,178)">
      <rect fill="none" width="319.0873" x="-91.05" height="17.9688" y="-133.1328"/>
    </g>
    <g fill="rgb(238,238,255)" transform="matrix(0.7868,0,0,0.7868,72.3895,284.05)" stroke="rgb(238,238,255)">
      <rect width="319.0873" x="-91.05" height="39.1641" y="-115.1641" stroke="none"/>
    </g>
    <g fill="rgb(166,166,178)" stroke-miterlimit="1.45" transform="matrix(0.7868,0,0,0.7868,72.3895,284.05)" stroke-linecap="butt" stroke="rgb(166,166,178)">
      <rect fill="none" width="319.0873" x="-91.05" height="39.1641" y="-115.1641"/>
    </g>
    <g font-family="sans-serif" transform="matrix(0.7868,0,0,0.7868,72.3895,284.05)">
      <text xml:space="preserve" x="-85.05" y="-119.9941" onclick="umlload('../../../../../../com/msopentech/odatajclient/engine/uri/filter/package-summary.html')" stroke="none">com.msopentech.odatajclient.engine.uri.filter</text>
    </g>
    <g fill="rgb(204,204,255)" transform="matrix(0.7868,0,0,0.7868,72.3895,284.05)" stroke="rgb(204,204,255)">
      <rect x="-36.05" y="-107.1328" clip-path="url(#clipPath4)" width="195.7" height="23.1328" stroke="none"/>
    </g>
    <g fill="rgb(142,142,178)" stroke-miterlimit="1.45" transform="matrix(0.7868,0,0,0.7868,72.3895,284.05)" stroke-linecap="butt" stroke="rgb(142,142,178)">
      <rect fill="none" width="195.7" x="-36.05" height="23.1328" y="-107.1328"/>
    </g>
    <g font-size="13" font-weight="bold" font-family="sans-serif" transform="matrix(0.7868,0,0,0.7868,72.3895,284.05)">
      <text xml:space="preserve" x="-29.2" y="-91.0659" stroke="none">AbstractComparingFilter</text>
    </g>
    <g fill="rgb(238,238,255)" transform="matrix(0.7868,0,0,0.7868,72.3895,284.05)" stroke="rgb(238,238,255)">
      <rect width="319.0873" x="-8" height="17.9688" y="-26" stroke="none"/>
    </g>
    <g fill="rgb(166,166,178)" stroke-miterlimit="1.45" transform="matrix(0.7868,0,0,0.7868,72.3895,284.05)" stroke-linecap="butt" stroke="rgb(166,166,178)">
      <rect fill="none" width="319.0873" x="-8" height="17.9688" y="-26"/>
    </g>
    <g fill="rgb(238,238,255)" transform="matrix(0.7868,0,0,0.7868,72.3895,284.05)" stroke="rgb(238,238,255)">
      <rect width="319.0873" x="-8" height="143.8788" y="-8.0312" stroke="none"/>
    </g>
    <g fill="rgb(166,166,178)" stroke-miterlimit="1.45" transform="matrix(0.7868,0,0,0.7868,72.3895,284.05)" stroke-linecap="butt" stroke="rgb(166,166,178)">
      <rect fill="none" width="319.0873" x="-8" height="143.8788" y="-8.0312"/>
    </g>
    <g font-family="sans-serif" transform="matrix(0.7868,0,0,0.7868,72.3895,284.05)">
      <text xml:space="preserve" x="-2" y="-12.8613" onclick="umlload('package-summary.html')" stroke="none">com.msopentech.odatajclient.engine.uri.filter</text>
    </g>
    <g fill="rgb(187,187,255)" transform="matrix(0.7868,0,0,0.7868,72.3895,284.05)" stroke="rgb(187,187,255)">
      <rect x="0" y="0" clip-path="url(#clipPath5)" width="123.6" height="26.625" stroke="none"/>
      <line clip-path="url(#clipPath5)" fill="none" x1="0" x2="123.6" y1="26.625" y2="26.625" stroke="black"/>
      <line clip-path="url(#clipPath5)" x1="0" x2="123.6" y1="27.625" y2="27.625" stroke="none"/>
      <line clip-path="url(#clipPath5)" fill="none" x1="0" x2="123.6" y1="27.625" y2="27.625" stroke="black"/>
      <rect x="0" y="28.625" clip-path="url(#clipPath5)" width="123.6" height="99.2225" stroke="none"/>
    </g>
    <g fill="rgb(130,130,178)" stroke-miterlimit="1.45" transform="matrix(0.7868,0,0,0.7868,72.3895,284.05)" stroke-linecap="butt" stroke="rgb(130,130,178)">
      <rect fill="none" width="123.6" x="0" height="127.8475" y="0"/>
    </g>
    <g font-size="16" font-weight="bold" font-family="sans-serif" transform="matrix(0.7868,0,0,0.7868,72.3895,284.05)">
      <text xml:space="preserve" x="28.8" y="18.8516" onclick="umlload('#')" stroke="none">GtFilter</text>
    </g>
    <g font-family="sans-serif" transform="matrix(0.7868,0,0,0.7868,72.3895,284.05)">
      <text xml:space="preserve" x="4" y="39.1719" stroke="none">#</text>
      <text xml:space="preserve" x="19" y="40.7637" onclick="umlload('#getOp()')" stroke="none">getOp() : String</text>
    </g>
    <g font-family="sans-serif" transform="matrix(0.7868,0,0,0.7868,72.3895,284.05)">
      <text xml:space="preserve" x="-86" y="160.1543" onclick="umlload('http://www.yworks.com/')" stroke="none">yWorks UML Doclet</text>
    </g>
    <g stroke-miterlimit="1.45" transform="matrix(0.7868,0,0,0.7868,72.3895,284.05)" stroke-linecap="butt">
      <path fill="none" d="M61.8 -0.0039 L61.8 -69"/>
      <path fill="white" d="M61.8 -84 L55.8 -68 L67.8 -68 Z" stroke="none"/>
      <path fill="none" d="M61.8 -84 L55.8 -68 L67.8 -68 Z"/>
      <path fill="none" stroke-dasharray="6,2" d="M123.616 16.3574 L355.91 16.3574"/>
      <line stroke-linecap="square" transform="matrix(1,0,0,1,355.91,16.3574)" fill="none" x1="0" x2="-14" y1="0" y2="-4" stroke-miterlimit="10"/>
      <line stroke-linecap="square" transform="matrix(1,0,0,1,355.91,16.3574)" fill="none" x1="0" x2="-14" y1="0" y2="4" stroke-miterlimit="10"/>
    </g>
    <g stroke-dasharray="6,2" stroke-miterlimit="1.45" transform="matrix(0.7868,0,0,0.7868,72.3895,284.05)" stroke-linecap="butt">
      <path fill="none" d="M123.5729 108.2811 L355.91 108.2811"/>
      <line stroke-linecap="square" transform="matrix(1,0,0,1,355.91,108.2811)" fill="none" x1="0" x2="-14" y1="0" y2="-4" stroke-dasharray="none" stroke-miterlimit="10"/>
      <line stroke-linecap="square" transform="matrix(1,0,0,1,355.91,108.2811)" fill="none" x1="0" x2="-14" y1="0" y2="4" stroke-dasharray="none" stroke-miterlimit="10"/>
    </g>
  </g>
</svg>
