<?xml version="1.0" encoding="UTF-8"?><svg xmlns="http://www.w3.org/2000/svg" xmlns:xlink="http://www.w3.org/1999/xlink" fill-opacity="1" color-rendering="auto" color-interpolation="auto" stroke="black" text-rendering="auto" stroke-linecap="square" width="598" stroke-miterlimit="10" stroke-opacity="1" shape-rendering="auto" fill="black" stroke-dasharray="none" font-weight="normal" stroke-width="1" height="598" font-family="'Dialog'" font-style="normal" stroke-linejoin="miter" font-size="12" stroke-dashoffset="0" image-rendering="auto">
  <!--Generated by ySVG-->
  <defs id="genericDefs"/>
  <g>
    <defs id="defs1">
      <clipPath clipPathUnits="userSpaceOnUse" id="clipPath1">
        <path d="M0 0 L598 0 L598 598 L0 598 L0 0 Z"/>
      </clipPath>
      <clipPath clipPathUnits="userSpaceOnUse" id="clipPath2">
        <path d="M355.91 0 L409.47 0 L409.47 23.1328 L355.91 23.1328 L355.91 0 Z"/>
      </clipPath>
      <clipPath clipPathUnits="userSpaceOnUse" id="clipPath3">
        <path d="M-195.4831 16.3574 C-195.4831 25.3913 -233.6345 32.7147 -280.6966 32.7147 C-327.7586 32.7147 -365.91 25.3913 -365.91 16.3574 C-365.91 7.3234 -327.7586 0 -280.6966 0 C-233.6345 0 -195.4831 7.3234 -195.4831 16.3574 Z"/>
      </clipPath>
      <clipPath clipPathUnits="userSpaceOnUse" id="clipPath4">
        <path d="M344.4804 -100.3574 C344.4804 -91.3234 314.4811 -84 277.475 -84 C240.4689 -84 210.4696 -91.3234 210.4696 -100.3574 C210.4696 -109.3913 240.4689 -116.7147 277.475 -116.7147 C314.4811 -116.7147 344.4804 -109.3913 344.4804 -100.3574 Z"/>
      </clipPath>
      <clipPath clipPathUnits="userSpaceOnUse" id="clipPath5">
        <path d="M28.84 -107.1328 L86.52 -107.1328 L86.52 -84 L28.84 -84 L28.84 -107.1328 Z"/>
      </clipPath>
      <clipPath clipPathUnits="userSpaceOnUse" id="clipPath6">
        <path d="M-0 0 L115.36 0 L115.36 44.5938 L-0 44.5938 L-0 0 Z"/>
      </clipPath>
      <script type="text/ecmascript"><![CDATA[
function umlload(newLocation)
{
if (newLocation.charAt(0) != '#') {
if (newLocation.indexOf("://") > -1) {
window.parent.location.href = newLocation;
} else {
var tmp = window.parent.location.href;
tmp = tmp.substring(0, tmp.lastIndexOf("/") + 1);
window.parent.location.href = tmp.concat(newLocation);
}
} else {
window.parent.location.hash = newLocation;
}
}
]]></script>
    </defs>
    <g fill="rgb(238,238,255)" transform="matrix(0.7311,0,0,0.7311,273.4132,318.7384)" stroke="rgb(238,238,255)">
      <rect width="76.1412" x="347.91" height="17.9688" y="-26" stroke="none"/>
    </g>
    <g fill="rgb(166,166,178)" stroke-miterlimit="1.45" transform="matrix(0.7311,0,0,0.7311,273.4132,318.7384)" stroke-linecap="butt" stroke="rgb(166,166,178)">
      <rect fill="none" width="76.1412" x="347.91" height="17.9688" y="-26"/>
    </g>
    <g fill="rgb(238,238,255)" transform="matrix(0.7311,0,0,0.7311,273.4132,318.7384)" stroke="rgb(238,238,255)">
      <rect width="79.56" x="347.91" height="39.1641" y="-8.0312" stroke="none"/>
    </g>
    <g fill="rgb(166,166,178)" stroke-miterlimit="1.45" transform="matrix(0.7311,0,0,0.7311,273.4132,318.7384)" stroke-linecap="butt" stroke="rgb(166,166,178)">
      <rect fill="none" width="79.56" x="347.91" height="39.1641" y="-8.0312"/>
    </g>
    <g font-family="sans-serif" transform="matrix(0.7311,0,0,0.7311,273.4132,318.7384)">
      <text xml:space="preserve" x="353.91" y="-12.8613" onclick="umlload('http://docs.oracle.com/javase/6/docs/api/java/lang/package-summary.html')" stroke="none">java.lang</text>
    </g>
    <g fill="rgb(187,187,255)" transform="matrix(0.7311,0,0,0.7311,273.4132,318.7384)" stroke="rgb(187,187,255)">
      <rect x="355.91" y="0" clip-path="url(#clipPath2)" width="53.56" height="23.1328" stroke="none"/>
    </g>
    <g fill="rgb(130,130,178)" stroke-miterlimit="1.45" transform="matrix(0.7311,0,0,0.7311,273.4132,318.7384)" stroke-linecap="butt" stroke="rgb(130,130,178)">
      <rect fill="none" width="53.56" x="355.91" height="23.1328" y="0"/>
    </g>
    <g font-size="13" font-weight="bold" font-family="sans-serif" transform="matrix(0.7311,0,0,0.7311,273.4132,318.7384)">
      <text xml:space="preserve" x="360.69" y="16.0669" onclick="umlload('http://docs.oracle.com/javase/6/docs/api/java/lang/String.html')" stroke="none">String</text>
    </g>
    <g fill="rgb(238,238,255)" transform="matrix(0.7311,0,0,0.7311,273.4132,318.7384)" stroke="rgb(238,238,255)">
      <rect width="319.0873" x="-373.91" height="17.9688" y="-26" stroke="none"/>
    </g>
    <g fill="rgb(166,166,178)" stroke-miterlimit="1.45" transform="matrix(0.7311,0,0,0.7311,273.4132,318.7384)" stroke-linecap="butt" stroke="rgb(166,166,178)">
      <rect fill="none" width="319.0873" x="-373.91" height="17.9688" y="-26"/>
    </g>
    <g fill="rgb(238,238,255)" transform="matrix(0.7311,0,0,0.7311,273.4132,318.7384)" stroke="rgb(238,238,255)">
      <rect width="319.4269" x="-373.91" height="48.746" y="-8.0312" stroke="none"/>
    </g>
    <g fill="rgb(166,166,178)" stroke-miterlimit="1.45" transform="matrix(0.7311,0,0,0.7311,273.4132,318.7384)" stroke-linecap="butt" stroke="rgb(166,166,178)">
      <rect fill="none" width="319.4269" x="-373.91" height="48.746" y="-8.0312"/>
    </g>
    <g font-family="sans-serif" transform="matrix(0.7311,0,0,0.7311,273.4132,318.7384)">
      <text xml:space="preserve" x="-367.91" y="-12.8613" onclick="umlload('../../../../../../com/msopentech/odatajclient/engine/uri/filter/package-summary.html')" stroke="none">com.msopentech.odatajclient.engine.uri.filter</text>
    </g>
    <g fill="rgb(221,221,255)" transform="matrix(0.7311,0,0,0.7311,273.4132,318.7384)" stroke="rgb(221,221,255)">
      <rect x="-365.91" y="0" clip-path="url(#clipPath3)" width="170.4269" height="32.7147" stroke="none"/>
    </g>
    <g fill="rgb(154,154,178)" stroke-miterlimit="1.45" transform="matrix(0.7311,0,0,0.7311,273.4132,318.7384)" stroke-linecap="butt" stroke="rgb(154,154,178)">
      <ellipse rx="85.2134" fill="none" ry="16.3574" cx="-280.6966" cy="16.3574"/>
    </g>
    <g font-style="italic" font-size="13" font-weight="bold" font-family="sans-serif" transform="matrix(0.7311,0,0,0.7311,273.4132,318.7384)">
      <text xml:space="preserve" x="-335.1966" y="20.8579" onclick="umlload('../../../../../../com/msopentech/odatajclient/engine/uri/filter/ODataFilterArg.html')" stroke="none">ODataFilterArg</text>
    </g>
    <g fill="rgb(238,238,255)" transform="matrix(0.7311,0,0,0.7311,273.4132,318.7384)" stroke="rgb(238,238,255)">
      <rect width="319.0873" x="124.4696" height="17.9688" y="-142.7147" stroke="none"/>
    </g>
    <g fill="rgb(166,166,178)" stroke-miterlimit="1.45" transform="matrix(0.7311,0,0,0.7311,273.4132,318.7384)" stroke-linecap="butt" stroke="rgb(166,166,178)">
      <rect fill="none" width="319.0873" x="124.4696" height="17.9688" y="-142.7147"/>
    </g>
    <g fill="rgb(238,238,255)" transform="matrix(0.7311,0,0,0.7311,273.4132,318.7384)" stroke="rgb(238,238,255)">
      <rect width="319.0873" x="124.4696" height="48.746" y="-124.746" stroke="none"/>
    </g>
    <g fill="rgb(166,166,178)" stroke-miterlimit="1.45" transform="matrix(0.7311,0,0,0.7311,273.4132,318.7384)" stroke-linecap="butt" stroke="rgb(166,166,178)">
      <rect fill="none" width="319.0873" x="124.4696" height="48.746" y="-124.746"/>
    </g>
    <g font-family="sans-serif" transform="matrix(0.7311,0,0,0.7311,273.4132,318.7384)">
      <text xml:space="preserve" x="130.4696" y="-129.5761" onclick="umlload('../../../../../../com/msopentech/odatajclient/engine/uri/filter/package-summary.html')" stroke="none">com.msopentech.odatajclient.engine.uri.filter</text>
    </g>
    <g fill="rgb(221,221,255)" transform="matrix(0.7311,0,0,0.7311,273.4132,318.7384)" stroke="rgb(221,221,255)">
      <rect x="210.4696" y="-116.7147" clip-path="url(#clipPath4)" width="134.0109" height="32.7147" stroke="none"/>
    </g>
    <g fill="rgb(154,154,178)" stroke-miterlimit="1.45" transform="matrix(0.7311,0,0,0.7311,273.4132,318.7384)" stroke-linecap="butt" stroke="rgb(154,154,178)">
      <ellipse rx="67.0054" fill="none" ry="16.3574" cx="277.475" cy="-100.3574"/>
    </g>
    <g font-style="italic" font-size="13" font-weight="bold" font-family="sans-serif" transform="matrix(0.7311,0,0,0.7311,273.4132,318.7384)">
      <text xml:space="preserve" x="235.475" y="-95.8569" onclick="umlload('../../../../../../com/msopentech/odatajclient/engine/uri/filter/ODataFilter.html')" stroke="none">ODataFilter</text>
    </g>
    <g fill="rgb(238,238,255)" transform="matrix(0.7311,0,0,0.7311,273.4132,318.7384)" stroke="rgb(238,238,255)">
      <rect width="76.1412" x="20.84" height="17.9688" y="-133.1328" stroke="none"/>
    </g>
    <g fill="rgb(166,166,178)" stroke-miterlimit="1.45" transform="matrix(0.7311,0,0,0.7311,273.4132,318.7384)" stroke-linecap="butt" stroke="rgb(166,166,178)">
      <rect fill="none" width="76.1412" x="20.84" height="17.9688" y="-133.1328"/>
    </g>
    <g fill="rgb(238,238,255)" transform="matrix(0.7311,0,0,0.7311,273.4132,318.7384)" stroke="rgb(238,238,255)">
      <rect width="76.1412" x="20.84" height="39.1641" y="-115.1641" stroke="none"/>
    </g>
    <g fill="rgb(166,166,178)" stroke-miterlimit="1.45" transform="matrix(0.7311,0,0,0.7311,273.4132,318.7384)" stroke-linecap="butt" stroke="rgb(166,166,178)">
      <rect fill="none" width="76.1412" x="20.84" height="39.1641" y="-115.1641"/>
    </g>
    <g font-family="sans-serif" transform="matrix(0.7311,0,0,0.7311,273.4132,318.7384)">
      <text xml:space="preserve" x="26.84" y="-119.9941" onclick="umlload('http://docs.oracle.com/javase/6/docs/api/java/lang/package-summary.html')" stroke="none">java.lang</text>
    </g>
    <g fill="rgb(187,187,255)" transform="matrix(0.7311,0,0,0.7311,273.4132,318.7384)" stroke="rgb(187,187,255)">
      <rect x="28.84" y="-107.1328" clip-path="url(#clipPath5)" width="57.68" height="23.1328" stroke="none"/>
    </g>
    <g fill="rgb(130,130,178)" stroke-miterlimit="1.45" transform="matrix(0.7311,0,0,0.7311,273.4132,318.7384)" stroke-linecap="butt" stroke="rgb(130,130,178)">
      <rect fill="none" width="57.68" x="28.84" height="23.1328" y="-107.1328"/>
    </g>
    <g font-size="13" font-weight="bold" font-family="sans-serif" transform="matrix(0.7311,0,0,0.7311,273.4132,318.7384)">
      <text xml:space="preserve" x="33.68" y="-91.0659" onclick="umlload('http://docs.oracle.com/javase/6/docs/api/java/lang/Object.html')" stroke="none">Object</text>
    </g>
    <g fill="rgb(238,238,255)" transform="matrix(0.7311,0,0,0.7311,273.4132,318.7384)" stroke="rgb(238,238,255)">
      <rect width="319.0873" x="-8" height="17.9688" y="-26" stroke="none"/>
    </g>
    <g fill="rgb(166,166,178)" stroke-miterlimit="1.45" transform="matrix(0.7311,0,0,0.7311,273.4132,318.7384)" stroke-linecap="butt" stroke="rgb(166,166,178)">
      <rect fill="none" width="319.0873" x="-8" height="17.9688" y="-26"/>
    </g>
    <g fill="rgb(238,238,255)" transform="matrix(0.7311,0,0,0.7311,273.4132,318.7384)" stroke="rgb(238,238,255)">
      <rect width="319.36" x="-8" height="60.625" y="-8.0312" stroke="none"/>
    </g>
    <g fill="rgb(166,166,178)" stroke-miterlimit="1.45" transform="matrix(0.7311,0,0,0.7311,273.4132,318.7384)" stroke-linecap="butt" stroke="rgb(166,166,178)">
      <rect fill="none" width="319.36" x="-8" height="60.625" y="-8.0312"/>
    </g>
    <g font-family="sans-serif" transform="matrix(0.7311,0,0,0.7311,273.4132,318.7384)">
      <text xml:space="preserve" x="-2" y="-12.8613" onclick="umlload('package-summary.html')" stroke="none">com.msopentech.odatajclient.engine.uri.filter</text>
    </g>
    <g fill="rgb(187,187,255)" transform="matrix(0.7311,0,0,0.7311,273.4132,318.7384)" stroke="rgb(187,187,255)">
      <rect x="0" y="0" clip-path="url(#clipPath6)" width="115.36" height="26.625" stroke="none"/>
      <line clip-path="url(#clipPath6)" fill="none" x1="0" x2="115.36" y1="26.625" y2="26.625" stroke="black"/>
      <line clip-path="url(#clipPath6)" x1="0" x2="115.36" y1="27.625" y2="27.625" stroke="none"/>
      <line clip-path="url(#clipPath6)" fill="none" x1="0" x2="115.36" y1="27.625" y2="27.625" stroke="black"/>
      <rect x="0" y="28.625" clip-path="url(#clipPath6)" width="115.36" height="15.9688" stroke="none"/>
    </g>
    <g fill="rgb(130,130,178)" stroke-miterlimit="1.45" transform="matrix(0.7311,0,0,0.7311,273.4132,318.7384)" stroke-linecap="butt" stroke="rgb(130,130,178)">
      <rect fill="none" width="115.36" x="0" height="44.5938" y="0"/>
    </g>
    <g font-size="16" font-weight="bold" font-family="sans-serif" transform="matrix(0.7311,0,0,0.7311,273.4132,318.7384)">
      <text xml:space="preserve" x="7.68" y="18.8516" onclick="umlload('#')" stroke="none">MatchFilter</text>
    </g>
    <g font-family="sans-serif" transform="matrix(0.7311,0,0,0.7311,273.4132,318.7384)">
      <text xml:space="preserve" x="4" y="39.1719" stroke="none">+</text>
      <text xml:space="preserve" x="19" y="40.7637" onclick="umlload('#build()')" stroke="none">build() : String</text>
    </g>
    <g font-family="sans-serif" transform="matrix(0.7311,0,0,0.7311,273.4132,318.7384)">
      <text xml:space="preserve" x="-368" y="77.1543" onclick="umlload('http://www.yworks.com/')" stroke="none">yWorks UML Doclet</text>
    </g>
    <g stroke-miterlimit="1.45" transform="matrix(0.7311,0,0,0.7311,273.4132,318.7384)" stroke-linecap="butt">
      <path fill="none" d="M57.68 -0.0039 L57.68 -69"/>
      <path fill="white" d="M57.68 -84 L51.68 -68 L63.68 -68 Z" stroke="none"/>
      <path fill="none" d="M57.68 -84 L51.68 -68 L63.68 -68 Z"/>
      <path fill="none" stroke-dasharray="6,2" d="M86.52 0 L86.52 -51 L277.475 -51 L277.475 -69"/>
      <path fill="white" stroke-dasharray="6,2" d="M277.475 -84 L271.475 -68 L283.475 -68 Z" stroke="none"/>
      <path fill="none" d="M277.475 -84 L271.475 -68 L283.475 -68 Z"/>
      <path fill="none" d="M-0.0241 16.3574 L-195.4831 16.3574"/>
      <line stroke-linecap="square" transform="matrix(-1,0,0,-1,-195.4831,16.3574)" fill="none" x1="0" x2="-14" y1="0" y2="-4" stroke-miterlimit="10"/>
      <line stroke-linecap="square" transform="matrix(-1,0,0,-1,-195.4831,16.3574)" fill="none" x1="0" x2="-14" y1="0" y2="4" stroke-miterlimit="10"/>
    </g>
    <g stroke-dasharray="6,2" stroke-miterlimit="1.45" transform="matrix(0.7311,0,0,0.7311,273.4132,318.7384)" stroke-linecap="butt">
      <path fill="none" d="M115.3264 11.5664 L355.91 11.5664"/>
      <line stroke-linecap="square" transform="matrix(1,0,0,1,355.91,11.5664)" fill="none" x1="0" x2="-14" y1="0" y2="-4" stroke-dasharray="none" stroke-miterlimit="10"/>
      <line stroke-linecap="square" transform="matrix(1,0,0,1,355.91,11.5664)" fill="none" x1="0" x2="-14" y1="0" y2="4" stroke-dasharray="none" stroke-miterlimit="10"/>
    </g>
  </g>
</svg>
