<?xml version="1.0" encoding="UTF-8"?><svg xmlns="http://www.w3.org/2000/svg" xmlns:xlink="http://www.w3.org/1999/xlink" fill-opacity="1" color-rendering="auto" color-interpolation="auto" stroke="black" text-rendering="auto" stroke-linecap="square" width="598" stroke-miterlimit="10" stroke-opacity="1" shape-rendering="auto" fill="black" stroke-dasharray="none" font-weight="normal" stroke-width="1" height="598" font-family="'Dialog'" font-style="normal" stroke-linejoin="miter" font-size="12" stroke-dashoffset="0" image-rendering="auto">
  <!--Generated by ySVG-->
  <defs id="genericDefs"/>
  <g>
    <defs id="defs1">
      <clipPath clipPathUnits="userSpaceOnUse" id="clipPath1">
        <path d="M0 0 L598 0 L598 598 L0 598 L0 0 Z"/>
      </clipPath>
      <clipPath clipPathUnits="userSpaceOnUse" id="clipPath2">
        <path d="M564.52 96.7147 L622.2 96.7147 L622.2 119.8475 L564.52 119.8475 L564.52 96.7147 Z"/>
      </clipPath>
      <clipPath clipPathUnits="userSpaceOnUse" id="clipPath3">
        <path d="M564.52 129.8475 L618.08 129.8475 L618.08 152.9804 L564.52 152.9804 L564.52 129.8475 Z"/>
      </clipPath>
      <clipPath clipPathUnits="userSpaceOnUse" id="clipPath4">
        <path d="M734.9469 16.3574 C734.9469 25.3913 696.7955 32.7147 649.7335 32.7147 C602.6713 32.7147 564.52 25.3913 564.52 16.3574 C564.52 7.3234 602.6713 0 649.7335 0 C696.7955 0 734.9469 7.3234 734.9469 16.3574 Z"/>
      </clipPath>
      <clipPath clipPathUnits="userSpaceOnUse" id="clipPath5">
        <path d="M220.42 -107.1328 L278.1 -107.1328 L278.1 -84 L220.42 -84 L220.42 -107.1328 Z"/>
      </clipPath>
      <clipPath clipPathUnits="userSpaceOnUse" id="clipPath6">
        <path d="M0 0 L498.52 0 L498.52 507.6875 L0 507.6875 L0 0 Z"/>
      </clipPath>
      <script type="text/ecmascript"><![CDATA[
function umlload(newLocation)
{
if (newLocation.charAt(0) != '#') {
if (newLocation.indexOf("://") > -1) {
window.parent.location.href = newLocation;
} else {
var tmp = window.parent.location.href;
tmp = tmp.substring(0, tmp.lastIndexOf("/") + 1);
window.parent.location.href = tmp.concat(newLocation);
}
} else {
window.parent.location.hash = newLocation;
}
}
]]></script>
    </defs>
    <g fill="rgb(238,238,255)" transform="matrix(0.6765,0,0,0.6765,5.4118,157.6176)" stroke="rgb(238,238,255)">
      <rect width="76.1412" x="556.52" height="17.9688" y="70.7147" stroke="none"/>
    </g>
    <g fill="rgb(166,166,178)" stroke-miterlimit="1.45" transform="matrix(0.6765,0,0,0.6765,5.4118,157.6176)" stroke-linecap="butt" stroke="rgb(166,166,178)">
      <rect fill="none" width="76.1412" x="556.52" height="17.9688" y="70.7147"/>
    </g>
    <g fill="rgb(238,238,255)" transform="matrix(0.6765,0,0,0.6765,5.4118,157.6176)" stroke="rgb(238,238,255)">
      <rect width="79.68" x="556.52" height="72.2969" y="88.6835" stroke="none"/>
    </g>
    <g fill="rgb(166,166,178)" stroke-miterlimit="1.45" transform="matrix(0.6765,0,0,0.6765,5.4118,157.6176)" stroke-linecap="butt" stroke="rgb(166,166,178)">
      <rect fill="none" width="79.68" x="556.52" height="72.2969" y="88.6835"/>
    </g>
    <g font-family="sans-serif" transform="matrix(0.6765,0,0,0.6765,5.4118,157.6176)">
      <text xml:space="preserve" x="562.52" y="83.8534" onclick="umlload('http://docs.oracle.com/javase/6/docs/api/java/lang/package-summary.html')" stroke="none">java.lang</text>
    </g>
    <g fill="rgb(187,187,255)" transform="matrix(0.6765,0,0,0.6765,5.4118,157.6176)" stroke="rgb(187,187,255)">
      <rect x="564.52" y="96.7147" clip-path="url(#clipPath2)" width="57.68" height="23.1328" stroke="none"/>
    </g>
    <g fill="rgb(130,130,178)" stroke-miterlimit="1.45" transform="matrix(0.6765,0,0,0.6765,5.4118,157.6176)" stroke-linecap="butt" stroke="rgb(130,130,178)">
      <rect fill="none" width="57.68" x="564.52" height="23.1328" y="96.7147"/>
    </g>
    <g font-size="13" font-weight="bold" font-family="sans-serif" transform="matrix(0.6765,0,0,0.6765,5.4118,157.6176)">
      <text xml:space="preserve" x="569.36" y="112.7816" onclick="umlload('http://docs.oracle.com/javase/6/docs/api/java/lang/Object.html')" stroke="none">Object</text>
    </g>
    <g fill="rgb(187,187,255)" transform="matrix(0.6765,0,0,0.6765,5.4118,157.6176)" stroke="rgb(187,187,255)">
      <rect x="564.52" y="129.8475" clip-path="url(#clipPath3)" width="53.56" height="23.1328" stroke="none"/>
    </g>
    <g fill="rgb(130,130,178)" stroke-miterlimit="1.45" transform="matrix(0.6765,0,0,0.6765,5.4118,157.6176)" stroke-linecap="butt" stroke="rgb(130,130,178)">
      <rect fill="none" width="53.56" x="564.52" height="23.1328" y="129.8475"/>
    </g>
    <g font-size="13" font-weight="bold" font-family="sans-serif" transform="matrix(0.6765,0,0,0.6765,5.4118,157.6176)">
      <text xml:space="preserve" x="569.3" y="145.9144" onclick="umlload('http://docs.oracle.com/javase/6/docs/api/java/lang/String.html')" stroke="none">String</text>
    </g>
    <g fill="rgb(238,238,255)" transform="matrix(0.6765,0,0,0.6765,5.4118,157.6176)" stroke="rgb(238,238,255)">
      <rect width="319.0873" x="556.52" height="17.9688" y="-26" stroke="none"/>
    </g>
    <g fill="rgb(166,166,178)" stroke-miterlimit="1.45" transform="matrix(0.6765,0,0,0.6765,5.4118,157.6176)" stroke-linecap="butt" stroke="rgb(166,166,178)">
      <rect fill="none" width="319.0873" x="556.52" height="17.9688" y="-26"/>
    </g>
    <g fill="rgb(238,238,255)" transform="matrix(0.6765,0,0,0.6765,5.4118,157.6176)" stroke="rgb(238,238,255)">
      <rect width="319.4269" x="556.52" height="48.746" y="-8.0312" stroke="none"/>
    </g>
    <g fill="rgb(166,166,178)" stroke-miterlimit="1.45" transform="matrix(0.6765,0,0,0.6765,5.4118,157.6176)" stroke-linecap="butt" stroke="rgb(166,166,178)">
      <rect fill="none" width="319.4269" x="556.52" height="48.746" y="-8.0312"/>
    </g>
    <g font-family="sans-serif" transform="matrix(0.6765,0,0,0.6765,5.4118,157.6176)">
      <text xml:space="preserve" x="562.52" y="-12.8613" onclick="umlload('../../../../../../com/msopentech/odatajclient/engine/uri/filter/package-summary.html')" stroke="none">com.msopentech.odatajclient.engine.uri.filter</text>
    </g>
    <g fill="rgb(221,221,255)" transform="matrix(0.6765,0,0,0.6765,5.4118,157.6176)" stroke="rgb(221,221,255)">
      <rect x="564.52" y="0" clip-path="url(#clipPath4)" width="170.4269" height="32.7147" stroke="none"/>
    </g>
    <g fill="rgb(154,154,178)" stroke-miterlimit="1.45" transform="matrix(0.6765,0,0,0.6765,5.4118,157.6176)" stroke-linecap="butt" stroke="rgb(154,154,178)">
      <ellipse rx="85.2134" fill="none" ry="16.3574" cx="649.7334" cy="16.3574"/>
    </g>
    <g font-style="italic" font-size="13" font-weight="bold" font-family="sans-serif" transform="matrix(0.6765,0,0,0.6765,5.4118,157.6176)">
      <text xml:space="preserve" x="595.2335" y="20.8579" onclick="umlload('../../../../../../com/msopentech/odatajclient/engine/uri/filter/ODataFilterArg.html')" stroke="none">ODataFilterArg</text>
    </g>
    <g fill="rgb(238,238,255)" transform="matrix(0.6765,0,0,0.6765,5.4118,157.6176)" stroke="rgb(238,238,255)">
      <rect width="76.1412" x="212.42" height="17.9688" y="-133.1328" stroke="none"/>
    </g>
    <g fill="rgb(166,166,178)" stroke-miterlimit="1.45" transform="matrix(0.6765,0,0,0.6765,5.4118,157.6176)" stroke-linecap="butt" stroke="rgb(166,166,178)">
      <rect fill="none" width="76.1412" x="212.42" height="17.9688" y="-133.1328"/>
    </g>
    <g fill="rgb(238,238,255)" transform="matrix(0.6765,0,0,0.6765,5.4118,157.6176)" stroke="rgb(238,238,255)">
      <rect width="76.1412" x="212.42" height="39.1641" y="-115.1641" stroke="none"/>
    </g>
    <g fill="rgb(166,166,178)" stroke-miterlimit="1.45" transform="matrix(0.6765,0,0,0.6765,5.4118,157.6176)" stroke-linecap="butt" stroke="rgb(166,166,178)">
      <rect fill="none" width="76.1412" x="212.42" height="39.1641" y="-115.1641"/>
    </g>
    <g font-family="sans-serif" transform="matrix(0.6765,0,0,0.6765,5.4118,157.6176)">
      <text xml:space="preserve" x="218.42" y="-119.9941" onclick="umlload('http://docs.oracle.com/javase/6/docs/api/java/lang/package-summary.html')" stroke="none">java.lang</text>
    </g>
    <g fill="rgb(187,187,255)" transform="matrix(0.6765,0,0,0.6765,5.4118,157.6176)" stroke="rgb(187,187,255)">
      <rect x="220.42" y="-107.1328" clip-path="url(#clipPath5)" width="57.68" height="23.1328" stroke="none"/>
    </g>
    <g fill="rgb(130,130,178)" stroke-miterlimit="1.45" transform="matrix(0.6765,0,0,0.6765,5.4118,157.6176)" stroke-linecap="butt" stroke="rgb(130,130,178)">
      <rect fill="none" width="57.68" x="220.42" height="23.1328" y="-107.1328"/>
    </g>
    <g font-size="13" font-weight="bold" font-family="sans-serif" transform="matrix(0.6765,0,0,0.6765,5.4118,157.6176)">
      <text xml:space="preserve" x="225.26" y="-91.0659" onclick="umlload('http://docs.oracle.com/javase/6/docs/api/java/lang/Object.html')" stroke="none">Object</text>
    </g>
    <g fill="rgb(238,238,255)" transform="matrix(0.6765,0,0,0.6765,5.4118,157.6176)" stroke="rgb(238,238,255)">
      <rect width="319.0873" x="-8" height="17.9688" y="-26" stroke="none"/>
    </g>
    <g fill="rgb(166,166,178)" stroke-miterlimit="1.45" transform="matrix(0.6765,0,0,0.6765,5.4118,157.6176)" stroke-linecap="butt" stroke="rgb(166,166,178)">
      <rect fill="none" width="319.0873" x="-8" height="17.9688" y="-26"/>
    </g>
    <g fill="rgb(238,238,255)" transform="matrix(0.6765,0,0,0.6765,5.4118,157.6176)" stroke="rgb(238,238,255)">
      <rect width="514.52" x="-8" height="523.7188" y="-8.0312" stroke="none"/>
    </g>
    <g fill="rgb(166,166,178)" stroke-miterlimit="1.45" transform="matrix(0.6765,0,0,0.6765,5.4118,157.6176)" stroke-linecap="butt" stroke="rgb(166,166,178)">
      <rect fill="none" width="514.52" x="-8" height="523.7188" y="-8.0312"/>
    </g>
    <g font-family="sans-serif" transform="matrix(0.6765,0,0,0.6765,5.4118,157.6176)">
      <text xml:space="preserve" x="-2" y="-12.8613" onclick="umlload('package-summary.html')" stroke="none">com.msopentech.odatajclient.engine.uri.filter</text>
    </g>
    <g fill="rgb(187,187,255)" transform="matrix(0.6765,0,0,0.6765,5.4118,157.6176)" stroke="rgb(187,187,255)">
      <rect x="0" y="0" clip-path="url(#clipPath6)" width="498.52" height="26.625" stroke="none"/>
      <line clip-path="url(#clipPath6)" fill="none" x1="0" x2="498.52" y1="26.625" y2="26.625" stroke="black"/>
      <line clip-path="url(#clipPath6)" x1="0" x2="498.52" y1="27.625" y2="27.625" stroke="none"/>
      <line clip-path="url(#clipPath6)" fill="none" x1="0" x2="498.52" y1="27.625" y2="27.625" stroke="black"/>
      <rect x="0" y="28.625" clip-path="url(#clipPath6)" width="498.52" height="479.0625" stroke="none"/>
    </g>
    <g fill="rgb(130,130,178)" stroke-miterlimit="1.45" transform="matrix(0.6765,0,0,0.6765,5.4118,157.6176)" stroke-linecap="butt" stroke="rgb(130,130,178)">
      <rect fill="none" width="498.52" x="0" height="507.6875" y="0"/>
    </g>
    <g font-size="16" font-weight="bold" font-family="sans-serif" transform="matrix(0.6765,0,0,0.6765,5.4118,157.6176)">
      <text xml:space="preserve" x="150.26" y="18.8516" onclick="umlload('#')" stroke="none">ODataFilterArgFactory</text>
    </g>
    <g font-family="sans-serif" transform="matrix(0.6765,0,0,0.6765,5.4118,157.6176)">
      <text xml:space="preserve" x="4" y="39.1719" stroke="none">+</text>
      <text xml:space="preserve" x="19" y="40.7637" onclick="umlload('#add(com.msopentech.odatajclient.engine.uri.filter.ODataFilterArg, com.msopentech.odatajclient.engine.uri.filter.ODataFilterArg)')" stroke="none">add(ODataFilterArg, ODataFilterArg) : ODataFilterArg</text>
      <line y2="43.5938" fill="none" x1="19" x2="346" y1="43.5938"/>
    </g>
    <g font-family="sans-serif" transform="matrix(0.6765,0,0,0.6765,5.4118,157.6176)">
      <text xml:space="preserve" x="4" y="55.1719" stroke="none">+</text>
      <text xml:space="preserve" x="19" y="56.7324" onclick="umlload('#ceiling(com.msopentech.odatajclient.engine.uri.filter.ODataFilterArg)')" stroke="none">ceiling(ODataFilterArg) : ODataFilterArg</text>
      <line y2="59.5625" fill="none" x1="19" x2="263" y1="59.5625"/>
    </g>
    <g font-family="sans-serif" transform="matrix(0.6765,0,0,0.6765,5.4118,157.6176)">
      <text xml:space="preserve" x="4" y="71.1719" stroke="none">+</text>
      <text xml:space="preserve" x="19" y="72.7012" onclick="umlload('#concat(com.msopentech.odatajclient.engine.uri.filter.ODataFilterArg, com.msopentech.odatajclient.engine.uri.filter.ODataFilterArg)')" stroke="none">concat(ODataFilterArg, ODataFilterArg) : ODataFilterArg</text>
      <line y2="75.5312" fill="none" x1="19" x2="365" y1="75.5312"/>
    </g>
    <g font-family="sans-serif" transform="matrix(0.6765,0,0,0.6765,5.4118,157.6176)">
      <text xml:space="preserve" x="4" y="87.1719" stroke="none">+</text>
      <text xml:space="preserve" x="19" y="88.6699" onclick="umlload('#day(com.msopentech.odatajclient.engine.uri.filter.ODataFilterArg)')" stroke="none">day(ODataFilterArg) : ODataFilterArg</text>
      <line y2="91.5" fill="none" x1="19" x2="245" y1="91.5"/>
    </g>
    <g font-family="sans-serif" transform="matrix(0.6765,0,0,0.6765,5.4118,157.6176)">
      <text xml:space="preserve" x="4" y="103.1719" stroke="none">+</text>
      <text xml:space="preserve" x="19" y="104.6387" onclick="umlload('#div(com.msopentech.odatajclient.engine.uri.filter.ODataFilterArg, com.msopentech.odatajclient.engine.uri.filter.ODataFilterArg)')" stroke="none">div(ODataFilterArg, ODataFilterArg) : ODataFilterArg</text>
      <line y2="107.4688" fill="none" x1="19" x2="339" y1="107.4688"/>
    </g>
    <g font-family="sans-serif" transform="matrix(0.6765,0,0,0.6765,5.4118,157.6176)">
      <text xml:space="preserve" x="4" y="119.1719" stroke="none">+</text>
      <text xml:space="preserve" x="19" y="120.6074" onclick="umlload('#endswith(com.msopentech.odatajclient.engine.uri.filter.ODataFilterArg, com.msopentech.odatajclient.engine.uri.filter.ODataFilterArg)')" stroke="none">endswith(ODataFilterArg, ODataFilterArg) : ODataFilterArg</text>
      <line y2="123.4375" fill="none" x1="19" x2="378" y1="123.4375"/>
    </g>
    <g font-family="sans-serif" transform="matrix(0.6765,0,0,0.6765,5.4118,157.6176)">
      <text xml:space="preserve" x="4" y="135.1719" stroke="none">+</text>
      <text xml:space="preserve" x="19" y="136.5762" onclick="umlload('#floor(com.msopentech.odatajclient.engine.uri.filter.ODataFilterArg)')" stroke="none">floor(ODataFilterArg) : ODataFilterArg</text>
      <line y2="139.4062" fill="none" x1="19" x2="251" y1="139.4062"/>
    </g>
    <g font-family="sans-serif" transform="matrix(0.6765,0,0,0.6765,5.4118,157.6176)">
      <text xml:space="preserve" x="4" y="151.1719" stroke="none">+</text>
      <text xml:space="preserve" x="19" y="152.5449" onclick="umlload('#hour(com.msopentech.odatajclient.engine.uri.filter.ODataFilterArg)')" stroke="none">hour(ODataFilterArg) : ODataFilterArg</text>
      <line y2="155.375" fill="none" x1="19" x2="252" y1="155.375"/>
    </g>
    <g font-family="sans-serif" transform="matrix(0.6765,0,0,0.6765,5.4118,157.6176)">
      <text xml:space="preserve" x="4" y="167.1719" stroke="none">+</text>
      <text xml:space="preserve" x="19" y="168.5137" onclick="umlload('#indexof(com.msopentech.odatajclient.engine.uri.filter.ODataFilterArg, com.msopentech.odatajclient.engine.uri.filter.ODataFilterArg)')" stroke="none">indexof(ODataFilterArg, ODataFilterArg) : ODataFilterArg</text>
      <line y2="171.3438" fill="none" x1="19" x2="367" y1="171.3438"/>
    </g>
    <g font-family="sans-serif" transform="matrix(0.6765,0,0,0.6765,5.4118,157.6176)">
      <text xml:space="preserve" x="4" y="183.1719" stroke="none">+</text>
      <text xml:space="preserve" x="19" y="184.4824" onclick="umlload('#isof(com.msopentech.odatajclient.engine.uri.filter.ODataFilterArg)')" stroke="none">isof(ODataFilterArg) : ODataFilterArg</text>
      <line y2="187.3125" fill="none" x1="19" x2="245" y1="187.3125"/>
    </g>
    <g font-family="sans-serif" transform="matrix(0.6765,0,0,0.6765,5.4118,157.6176)">
      <text xml:space="preserve" x="4" y="199.1719" stroke="none">+</text>
      <text xml:space="preserve" x="19" y="200.4512" onclick="umlload('#isof(com.msopentech.odatajclient.engine.uri.filter.ODataFilterArg, com.msopentech.odatajclient.engine.uri.filter.ODataFilterArg)')" stroke="none">isof(ODataFilterArg, ODataFilterArg) : ODataFilterArg</text>
      <line y2="203.2812" fill="none" x1="19" x2="344" y1="203.2812"/>
    </g>
    <g font-family="sans-serif" transform="matrix(0.6765,0,0,0.6765,5.4118,157.6176)">
      <text xml:space="preserve" x="4" y="215.1719" stroke="none">+</text>
      <text xml:space="preserve" x="19" y="216.4199" onclick="umlload('#length(com.msopentech.odatajclient.engine.uri.filter.ODataFilterArg)')" stroke="none">length(ODataFilterArg) : ODataFilterArg</text>
      <line y2="219.25" fill="none" x1="19" x2="263" y1="219.25"/>
    </g>
    <g font-family="sans-serif" transform="matrix(0.6765,0,0,0.6765,5.4118,157.6176)">
      <text xml:space="preserve" x="4" y="231.1719" stroke="none">+</text>
      <text xml:space="preserve" x="19" y="232.3887" onclick="umlload('#literal(java.lang.Object)')" stroke="none">literal(Object) : ODataFilterArg</text>
      <line y2="235.2188" fill="none" x1="19" x2="207" y1="235.2188"/>
    </g>
    <g font-family="sans-serif" transform="matrix(0.6765,0,0,0.6765,5.4118,157.6176)">
      <text xml:space="preserve" x="4" y="247.1719" stroke="none">+</text>
      <text xml:space="preserve" x="19" y="248.3574" onclick="umlload('#minute(com.msopentech.odatajclient.engine.uri.filter.ODataFilterArg)')" stroke="none">minute(ODataFilterArg) : ODataFilterArg</text>
      <line y2="251.1875" fill="none" x1="19" x2="266" y1="251.1875"/>
    </g>
    <g font-family="sans-serif" transform="matrix(0.6765,0,0,0.6765,5.4118,157.6176)">
      <text xml:space="preserve" x="4" y="263.1719" stroke="none">+</text>
      <text xml:space="preserve" x="19" y="264.3262" onclick="umlload('#mod(com.msopentech.odatajclient.engine.uri.filter.ODataFilterArg, com.msopentech.odatajclient.engine.uri.filter.ODataFilterArg)')" stroke="none">mod(ODataFilterArg, ODataFilterArg) : ODataFilterArg</text>
      <line y2="267.1562" fill="none" x1="19" x2="349" y1="267.1562"/>
    </g>
    <g font-family="sans-serif" transform="matrix(0.6765,0,0,0.6765,5.4118,157.6176)">
      <text xml:space="preserve" x="4" y="279.1719" stroke="none">+</text>
      <text xml:space="preserve" x="19" y="280.2949" onclick="umlload('#month(com.msopentech.odatajclient.engine.uri.filter.ODataFilterArg)')" stroke="none">month(ODataFilterArg) : ODataFilterArg</text>
      <line y2="283.125" fill="none" x1="19" x2="263" y1="283.125"/>
    </g>
    <g font-family="sans-serif" transform="matrix(0.6765,0,0,0.6765,5.4118,157.6176)">
      <text xml:space="preserve" x="4" y="295.1719" stroke="none">+</text>
      <text xml:space="preserve" x="19" y="296.2637" onclick="umlload('#mul(com.msopentech.odatajclient.engine.uri.filter.ODataFilterArg, com.msopentech.odatajclient.engine.uri.filter.ODataFilterArg)')" stroke="none">mul(ODataFilterArg, ODataFilterArg) : ODataFilterArg</text>
      <line y2="299.0938" fill="none" x1="19" x2="344" y1="299.0938"/>
    </g>
    <g font-family="sans-serif" transform="matrix(0.6765,0,0,0.6765,5.4118,157.6176)">
      <text xml:space="preserve" x="4" y="311.1719" stroke="none">+</text>
      <text xml:space="preserve" x="19" y="312.2324" onclick="umlload('#property(java.lang.String)')" stroke="none">property(String) : ODataFilterArg</text>
      <line y2="315.0625" fill="none" x1="19" x2="222" y1="315.0625"/>
    </g>
    <g font-family="sans-serif" transform="matrix(0.6765,0,0,0.6765,5.4118,157.6176)">
      <text xml:space="preserve" x="4" y="327.1719" stroke="none">+</text>
      <text xml:space="preserve" x="19" y="328.2012" onclick="umlload('#replace(com.msopentech.odatajclient.engine.uri.filter.ODataFilterArg, com.msopentech.odatajclient.engine.uri.filter.ODataFilterArg, com.msopentech.odatajclient.engine.uri.filter.ODataFilterArg)')" stroke="none">replace(ODataFilterArg, ODataFilterArg, ODataFilterArg) : ODataFilterArg</text>
      <line y2="331.0312" fill="none" x1="19" x2="468" y1="331.0312"/>
    </g>
    <g font-family="sans-serif" transform="matrix(0.6765,0,0,0.6765,5.4118,157.6176)">
      <text xml:space="preserve" x="4" y="343.1719" stroke="none">+</text>
      <text xml:space="preserve" x="19" y="344.1699" onclick="umlload('#round(com.msopentech.odatajclient.engine.uri.filter.ODataFilterArg)')" stroke="none">round(ODataFilterArg) : ODataFilterArg</text>
      <line y2="347" fill="none" x1="19" x2="260" y1="347"/>
    </g>
    <g font-family="sans-serif" transform="matrix(0.6765,0,0,0.6765,5.4118,157.6176)">
      <text xml:space="preserve" x="4" y="358.1719" stroke="none">+</text>
      <text xml:space="preserve" x="19" y="360.1387" onclick="umlload('#second(com.msopentech.odatajclient.engine.uri.filter.ODataFilterArg)')" stroke="none">second(ODataFilterArg) : ODataFilterArg</text>
      <line y2="362.9688" fill="none" x1="19" x2="269" y1="362.9688"/>
    </g>
    <g font-family="sans-serif" transform="matrix(0.6765,0,0,0.6765,5.4118,157.6176)">
      <text xml:space="preserve" x="4" y="374.1719" stroke="none">+</text>
      <text xml:space="preserve" x="19" y="376.1074" onclick="umlload('#startswith(com.msopentech.odatajclient.engine.uri.filter.ODataFilterArg, com.msopentech.odatajclient.engine.uri.filter.ODataFilterArg)')" stroke="none">startswith(ODataFilterArg, ODataFilterArg) : ODataFilterArg</text>
      <line y2="378.9375" fill="none" x1="19" x2="384" y1="378.9375"/>
    </g>
    <g font-family="sans-serif" transform="matrix(0.6765,0,0,0.6765,5.4118,157.6176)">
      <text xml:space="preserve" x="4" y="390.1719" stroke="none">+</text>
      <text xml:space="preserve" x="19" y="392.0762" onclick="umlload('#sub(com.msopentech.odatajclient.engine.uri.filter.ODataFilterArg, com.msopentech.odatajclient.engine.uri.filter.ODataFilterArg)')" stroke="none">sub(ODataFilterArg, ODataFilterArg) : ODataFilterArg</text>
      <line y2="394.9062" fill="none" x1="19" x2="345" y1="394.9062"/>
    </g>
    <g font-family="sans-serif" transform="matrix(0.6765,0,0,0.6765,5.4118,157.6176)">
      <text xml:space="preserve" x="4" y="406.1719" stroke="none">+</text>
      <text xml:space="preserve" x="19" y="408.0449" onclick="umlload('#substring(com.msopentech.odatajclient.engine.uri.filter.ODataFilterArg, com.msopentech.odatajclient.engine.uri.filter.ODataFilterArg)')" stroke="none">substring(ODataFilterArg, ODataFilterArg) : ODataFilterArg</text>
      <line y2="410.875" fill="none" x1="19" x2="381" y1="410.875"/>
    </g>
    <g font-family="sans-serif" transform="matrix(0.6765,0,0,0.6765,5.4118,157.6176)">
      <text xml:space="preserve" x="4" y="422.1719" stroke="none">+</text>
      <text xml:space="preserve" x="19" y="424.0137" onclick="umlload('#substring(com.msopentech.odatajclient.engine.uri.filter.ODataFilterArg, com.msopentech.odatajclient.engine.uri.filter.ODataFilterArg, com.msopentech.odatajclient.engine.uri.filter.ODataFilterArg)')" stroke="none">substring(ODataFilterArg, ODataFilterArg, ODataFilterArg) : ODataFilterArg</text>
      <line y2="426.8438" fill="none" x1="19" x2="480" y1="426.8438"/>
    </g>
    <g font-family="sans-serif" transform="matrix(0.6765,0,0,0.6765,5.4118,157.6176)">
      <text xml:space="preserve" x="4" y="438.1719" stroke="none">+</text>
      <text xml:space="preserve" x="19" y="439.9824" onclick="umlload('#substringof(com.msopentech.odatajclient.engine.uri.filter.ODataFilterArg, com.msopentech.odatajclient.engine.uri.filter.ODataFilterArg)')" stroke="none">substringof(ODataFilterArg, ODataFilterArg) : ODataFilterArg</text>
      <line y2="442.8125" fill="none" x1="19" x2="393" y1="442.8125"/>
    </g>
    <g font-family="sans-serif" transform="matrix(0.6765,0,0,0.6765,5.4118,157.6176)">
      <text xml:space="preserve" x="4" y="454.1719" stroke="none">+</text>
      <text xml:space="preserve" x="19" y="455.9512" onclick="umlload('#tolower(com.msopentech.odatajclient.engine.uri.filter.ODataFilterArg)')" stroke="none">tolower(ODataFilterArg) : ODataFilterArg</text>
      <line y2="458.7812" fill="none" x1="19" x2="269" y1="458.7812"/>
    </g>
    <g font-family="sans-serif" transform="matrix(0.6765,0,0,0.6765,5.4118,157.6176)">
      <text xml:space="preserve" x="4" y="470.1719" stroke="none">+</text>
      <text xml:space="preserve" x="19" y="471.9199" onclick="umlload('#toupper(com.msopentech.odatajclient.engine.uri.filter.ODataFilterArg)')" stroke="none">toupper(ODataFilterArg) : ODataFilterArg</text>
      <line y2="474.75" fill="none" x1="19" x2="273" y1="474.75"/>
    </g>
    <g font-family="sans-serif" transform="matrix(0.6765,0,0,0.6765,5.4118,157.6176)">
      <text xml:space="preserve" x="4" y="486.1719" stroke="none">+</text>
      <text xml:space="preserve" x="19" y="487.8887" onclick="umlload('#trim(com.msopentech.odatajclient.engine.uri.filter.ODataFilterArg)')" stroke="none">trim(ODataFilterArg) : ODataFilterArg</text>
      <line y2="490.7188" fill="none" x1="19" x2="247" y1="490.7188"/>
    </g>
    <g font-family="sans-serif" transform="matrix(0.6765,0,0,0.6765,5.4118,157.6176)">
      <text xml:space="preserve" x="4" y="502.1719" stroke="none">+</text>
      <text xml:space="preserve" x="19" y="503.8574" onclick="umlload('#year(com.msopentech.odatajclient.engine.uri.filter.ODataFilterArg)')" stroke="none">year(ODataFilterArg) : ODataFilterArg</text>
      <line y2="506.6875" fill="none" x1="19" x2="250" y1="506.6875"/>
    </g>
    <g font-family="sans-serif" transform="matrix(0.6765,0,0,0.6765,5.4118,157.6176)">
      <text xml:space="preserve" x="-2" y="540.1543" onclick="umlload('http://www.yworks.com/')" stroke="none">yWorks UML Doclet</text>
    </g>
    <g stroke-miterlimit="1.45" transform="matrix(0.6765,0,0,0.6765,5.4118,157.6176)" stroke-linecap="butt">
      <path fill="none" d="M249.26 0 L249.26 -69"/>
      <path fill="white" d="M249.26 -84 L243.26 -68 L255.26 -68 Z" stroke="none"/>
      <path fill="none" d="M249.26 -84 L243.26 -68 L255.26 -68 Z"/>
      <path fill="none" stroke-dasharray="6,2" d="M498.5293 16.3574 L564.52 16.3574"/>
      <line stroke-linecap="square" transform="matrix(1,0,0,1,564.52,16.3574)" fill="none" x1="0" x2="-14" y1="0" y2="-4" stroke-miterlimit="10"/>
      <line stroke-linecap="square" transform="matrix(1,0,0,1,564.52,16.3574)" fill="none" x1="0" x2="-14" y1="0" y2="4" stroke-miterlimit="10"/>
    </g>
    <g stroke-dasharray="6,2" stroke-miterlimit="1.45" transform="matrix(0.6765,0,0,0.6765,5.4118,157.6176)" stroke-linecap="butt">
      <path fill="none" d="M498.5561 108.2811 L564.52 108.2811"/>
      <line stroke-linecap="square" transform="matrix(1,0,0,1,564.52,108.2811)" fill="none" x1="0" x2="-14" y1="0" y2="-4" stroke-dasharray="none" stroke-miterlimit="10"/>
      <line stroke-linecap="square" transform="matrix(1,0,0,1,564.52,108.2811)" fill="none" x1="0" x2="-14" y1="0" y2="4" stroke-dasharray="none" stroke-miterlimit="10"/>
    </g>
    <g stroke-dasharray="6,2" stroke-miterlimit="1.45" transform="matrix(0.6765,0,0,0.6765,5.4118,157.6176)" stroke-linecap="butt">
      <path fill="none" d="M498.4832 141.414 L564.52 141.414"/>
      <line stroke-linecap="square" transform="matrix(1,0,0,1,564.52,141.414)" fill="none" x1="0" x2="-14" y1="0" y2="-4" stroke-dasharray="none" stroke-miterlimit="10"/>
      <line stroke-linecap="square" transform="matrix(1,0,0,1,564.52,141.414)" fill="none" x1="0" x2="-14" y1="0" y2="4" stroke-dasharray="none" stroke-miterlimit="10"/>
    </g>
  </g>
</svg>
