<?xml version="1.0" encoding="UTF-8"?><svg xmlns="http://www.w3.org/2000/svg" xmlns:xlink="http://www.w3.org/1999/xlink" fill-opacity="1" color-rendering="auto" color-interpolation="auto" stroke="black" text-rendering="auto" stroke-linecap="square" width="598" stroke-miterlimit="10" stroke-opacity="1" shape-rendering="auto" fill="black" stroke-dasharray="none" font-weight="normal" stroke-width="1" height="598" font-family="'Dialog'" font-style="normal" stroke-linejoin="miter" font-size="12" stroke-dashoffset="0" image-rendering="auto">
  <!--Generated by ySVG-->
  <defs id="genericDefs"/>
  <g>
    <defs id="defs1">
      <clipPath clipPathUnits="userSpaceOnUse" id="clipPath1">
        <path d="M0 0 L598 0 L598 598 L0 598 L0 0 Z"/>
      </clipPath>
      <clipPath clipPathUnits="userSpaceOnUse" id="clipPath2">
        <path d="M-130.04 0 L-76.48 0 L-76.48 23.1328 L-130.04 23.1328 L-130.04 0 Z"/>
      </clipPath>
      <clipPath clipPathUnits="userSpaceOnUse" id="clipPath3">
        <path d="M401.3134 -100.3574 C401.3134 -91.3234 363.1621 -84 316.1 -84 C269.0379 -84 230.8866 -91.3234 230.8866 -100.3574 C230.8866 -109.3913 269.0379 -116.7147 316.1 -116.7147 C363.1621 -116.7147 401.3134 -109.3913 401.3134 -100.3574 Z"/>
      </clipPath>
      <clipPath clipPathUnits="userSpaceOnUse" id="clipPath4">
        <path d="M67.465 -107.1328 L125.145 -107.1328 L125.145 -84 L67.465 -84 L67.465 -107.1328 Z"/>
      </clipPath>
      <clipPath clipPathUnits="userSpaceOnUse" id="clipPath5">
        <path d="M0 0 L192.61 0 L192.61 44.5938 L0 44.5938 L0 0 Z"/>
      </clipPath>
      <script type="text/ecmascript"><![CDATA[
function umlload(newLocation)
{
if (newLocation.charAt(0) != '#') {
if (newLocation.indexOf("://") > -1) {
window.parent.location.href = newLocation;
} else {
var tmp = window.parent.location.href;
tmp = tmp.substring(0, tmp.lastIndexOf("/") + 1);
window.parent.location.href = tmp.concat(newLocation);
}
} else {
window.parent.location.hash = newLocation;
}
}
]]></script>
    </defs>
    <g fill="rgb(238,238,255)" transform="matrix(0.9614,0,0,0.9614,133.6367,324.9582)" stroke="rgb(238,238,255)">
      <rect width="76.1412" x="-138.04" height="17.9688" y="-26" stroke="none"/>
    </g>
    <g fill="rgb(166,166,178)" stroke-miterlimit="1.45" transform="matrix(0.9614,0,0,0.9614,133.6367,324.9582)" stroke-linecap="butt" stroke="rgb(166,166,178)">
      <rect fill="none" width="76.1412" x="-138.04" height="17.9688" y="-26"/>
    </g>
    <g fill="rgb(238,238,255)" transform="matrix(0.9614,0,0,0.9614,133.6367,324.9582)" stroke="rgb(238,238,255)">
      <rect width="79.56" x="-138.04" height="39.1641" y="-8.0312" stroke="none"/>
    </g>
    <g fill="rgb(166,166,178)" stroke-miterlimit="1.45" transform="matrix(0.9614,0,0,0.9614,133.6367,324.9582)" stroke-linecap="butt" stroke="rgb(166,166,178)">
      <rect fill="none" width="79.56" x="-138.04" height="39.1641" y="-8.0312"/>
    </g>
    <g font-family="sans-serif" transform="matrix(0.9614,0,0,0.9614,133.6367,324.9582)">
      <text xml:space="preserve" x="-132.04" y="-12.8613" onclick="umlload('http://docs.oracle.com/javase/6/docs/api/java/lang/package-summary.html')" stroke="none">java.lang</text>
    </g>
    <g fill="rgb(187,187,255)" transform="matrix(0.9614,0,0,0.9614,133.6367,324.9582)" stroke="rgb(187,187,255)">
      <rect x="-130.04" y="0" clip-path="url(#clipPath2)" width="53.56" height="23.1328" stroke="none"/>
    </g>
    <g fill="rgb(130,130,178)" stroke-miterlimit="1.45" transform="matrix(0.9614,0,0,0.9614,133.6367,324.9582)" stroke-linecap="butt" stroke="rgb(130,130,178)">
      <rect fill="none" width="53.56" x="-130.04" height="23.1328" y="0"/>
    </g>
    <g font-size="13" font-weight="bold" font-family="sans-serif" transform="matrix(0.9614,0,0,0.9614,133.6367,324.9582)">
      <text xml:space="preserve" x="-125.26" y="16.0669" onclick="umlload('http://docs.oracle.com/javase/6/docs/api/java/lang/String.html')" stroke="none">String</text>
    </g>
    <g fill="rgb(238,238,255)" transform="matrix(0.9614,0,0,0.9614,133.6367,324.9582)" stroke="rgb(238,238,255)">
      <rect width="319.0873" x="162.8866" height="17.9688" y="-142.7147" stroke="none"/>
    </g>
    <g fill="rgb(166,166,178)" stroke-miterlimit="1.45" transform="matrix(0.9614,0,0,0.9614,133.6367,324.9582)" stroke-linecap="butt" stroke="rgb(166,166,178)">
      <rect fill="none" width="319.0873" x="162.8866" height="17.9688" y="-142.7147"/>
    </g>
    <g fill="rgb(238,238,255)" transform="matrix(0.9614,0,0,0.9614,133.6367,324.9582)" stroke="rgb(238,238,255)">
      <rect width="319.4269" x="162.8866" height="48.746" y="-124.746" stroke="none"/>
    </g>
    <g fill="rgb(166,166,178)" stroke-miterlimit="1.45" transform="matrix(0.9614,0,0,0.9614,133.6367,324.9582)" stroke-linecap="butt" stroke="rgb(166,166,178)">
      <rect fill="none" width="319.4269" x="162.8866" height="48.746" y="-124.746"/>
    </g>
    <g font-family="sans-serif" transform="matrix(0.9614,0,0,0.9614,133.6367,324.9582)">
      <text xml:space="preserve" x="168.8866" y="-129.5761" onclick="umlload('../../../../../../com/msopentech/odatajclient/engine/uri/filter/package-summary.html')" stroke="none">com.msopentech.odatajclient.engine.uri.filter</text>
    </g>
    <g fill="rgb(221,221,255)" transform="matrix(0.9614,0,0,0.9614,133.6367,324.9582)" stroke="rgb(221,221,255)">
      <rect x="230.8866" y="-116.7147" clip-path="url(#clipPath3)" width="170.4269" height="32.7147" stroke="none"/>
    </g>
    <g fill="rgb(154,154,178)" stroke-miterlimit="1.45" transform="matrix(0.9614,0,0,0.9614,133.6367,324.9582)" stroke-linecap="butt" stroke="rgb(154,154,178)">
      <ellipse rx="85.2134" fill="none" ry="16.3574" cx="316.1" cy="-100.3574"/>
    </g>
    <g font-style="italic" font-size="13" font-weight="bold" font-family="sans-serif" transform="matrix(0.9614,0,0,0.9614,133.6367,324.9582)">
      <text xml:space="preserve" x="261.6" y="-95.8569" onclick="umlload('../../../../../../com/msopentech/odatajclient/engine/uri/filter/ODataFilterArg.html')" stroke="none">ODataFilterArg</text>
    </g>
    <g fill="rgb(238,238,255)" transform="matrix(0.9614,0,0,0.9614,133.6367,324.9582)" stroke="rgb(238,238,255)">
      <rect width="76.1412" x="59.465" height="17.9688" y="-133.1328" stroke="none"/>
    </g>
    <g fill="rgb(166,166,178)" stroke-miterlimit="1.45" transform="matrix(0.9614,0,0,0.9614,133.6367,324.9582)" stroke-linecap="butt" stroke="rgb(166,166,178)">
      <rect fill="none" width="76.1412" x="59.465" height="17.9688" y="-133.1328"/>
    </g>
    <g fill="rgb(238,238,255)" transform="matrix(0.9614,0,0,0.9614,133.6367,324.9582)" stroke="rgb(238,238,255)">
      <rect width="76.1412" x="59.465" height="39.1641" y="-115.1641" stroke="none"/>
    </g>
    <g fill="rgb(166,166,178)" stroke-miterlimit="1.45" transform="matrix(0.9614,0,0,0.9614,133.6367,324.9582)" stroke-linecap="butt" stroke="rgb(166,166,178)">
      <rect fill="none" width="76.1412" x="59.465" height="39.1641" y="-115.1641"/>
    </g>
    <g font-family="sans-serif" transform="matrix(0.9614,0,0,0.9614,133.6367,324.9582)">
      <text xml:space="preserve" x="65.465" y="-119.9941" onclick="umlload('http://docs.oracle.com/javase/6/docs/api/java/lang/package-summary.html')" stroke="none">java.lang</text>
    </g>
    <g fill="rgb(187,187,255)" transform="matrix(0.9614,0,0,0.9614,133.6367,324.9582)" stroke="rgb(187,187,255)">
      <rect x="67.465" y="-107.1328" clip-path="url(#clipPath4)" width="57.68" height="23.1328" stroke="none"/>
    </g>
    <g fill="rgb(130,130,178)" stroke-miterlimit="1.45" transform="matrix(0.9614,0,0,0.9614,133.6367,324.9582)" stroke-linecap="butt" stroke="rgb(130,130,178)">
      <rect fill="none" width="57.68" x="67.465" height="23.1328" y="-107.1328"/>
    </g>
    <g font-size="13" font-weight="bold" font-family="sans-serif" transform="matrix(0.9614,0,0,0.9614,133.6367,324.9582)">
      <text xml:space="preserve" x="72.305" y="-91.0659" onclick="umlload('http://docs.oracle.com/javase/6/docs/api/java/lang/Object.html')" stroke="none">Object</text>
    </g>
    <g fill="rgb(238,238,255)" transform="matrix(0.9614,0,0,0.9614,133.6367,324.9582)" stroke="rgb(238,238,255)">
      <rect width="319.0873" x="-8" height="17.9688" y="-26" stroke="none"/>
    </g>
    <g fill="rgb(166,166,178)" stroke-miterlimit="1.45" transform="matrix(0.9614,0,0,0.9614,133.6367,324.9582)" stroke-linecap="butt" stroke="rgb(166,166,178)">
      <rect fill="none" width="319.0873" x="-8" height="17.9688" y="-26"/>
    </g>
    <g fill="rgb(238,238,255)" transform="matrix(0.9614,0,0,0.9614,133.6367,324.9582)" stroke="rgb(238,238,255)">
      <rect width="319.0873" x="-8" height="60.625" y="-8.0312" stroke="none"/>
    </g>
    <g fill="rgb(166,166,178)" stroke-miterlimit="1.45" transform="matrix(0.9614,0,0,0.9614,133.6367,324.9582)" stroke-linecap="butt" stroke="rgb(166,166,178)">
      <rect fill="none" width="319.0873" x="-8" height="60.625" y="-8.0312"/>
    </g>
    <g font-family="sans-serif" transform="matrix(0.9614,0,0,0.9614,133.6367,324.9582)">
      <text xml:space="preserve" x="-2" y="-12.8613" onclick="umlload('package-summary.html')" stroke="none">com.msopentech.odatajclient.engine.uri.filter</text>
    </g>
    <g fill="rgb(187,187,255)" transform="matrix(0.9614,0,0,0.9614,133.6367,324.9582)" stroke="rgb(187,187,255)">
      <rect x="0" y="0" clip-path="url(#clipPath5)" width="192.61" height="26.625" stroke="none"/>
      <line clip-path="url(#clipPath5)" fill="none" x1="0" x2="192.61" y1="26.625" y2="26.625" stroke="black"/>
      <line clip-path="url(#clipPath5)" x1="0" x2="192.61" y1="27.625" y2="27.625" stroke="none"/>
      <line clip-path="url(#clipPath5)" fill="none" x1="0" x2="192.61" y1="27.625" y2="27.625" stroke="black"/>
      <rect x="0" y="28.625" clip-path="url(#clipPath5)" width="192.61" height="15.9688" stroke="none"/>
    </g>
    <g fill="rgb(130,130,178)" stroke-miterlimit="1.45" transform="matrix(0.9614,0,0,0.9614,133.6367,324.9582)" stroke-linecap="butt" stroke="rgb(130,130,178)">
      <rect fill="none" width="192.61" x="0" height="44.5938" y="0"/>
    </g>
    <g font-size="16" font-weight="bold" font-family="sans-serif" transform="matrix(0.9614,0,0,0.9614,133.6367,324.9582)">
      <text xml:space="preserve" x="6.805" y="18.8516" onclick="umlload('#')" stroke="none">ODataFilterProperty</text>
    </g>
    <g font-family="sans-serif" transform="matrix(0.9614,0,0,0.9614,133.6367,324.9582)">
      <text xml:space="preserve" x="4" y="39.1719" stroke="none">+</text>
      <text xml:space="preserve" x="19" y="40.7637" onclick="umlload('#build()')" stroke="none">build() : String</text>
    </g>
    <g font-family="sans-serif" transform="matrix(0.9614,0,0,0.9614,133.6367,324.9582)">
      <text xml:space="preserve" x="-133" y="77.1543" onclick="umlload('http://www.yworks.com/')" stroke="none">yWorks UML Doclet</text>
    </g>
    <g stroke-miterlimit="1.45" transform="matrix(0.9614,0,0,0.9614,133.6367,324.9582)" stroke-linecap="butt">
      <path fill="none" d="M96.305 0 L96.305 -69"/>
      <path fill="white" d="M96.305 -84 L90.305 -68 L102.305 -68 Z" stroke="none"/>
      <path fill="none" d="M96.305 -84 L90.305 -68 L102.305 -68 Z"/>
      <path fill="none" stroke-dasharray="6,2" d="M144.4575 0 L144.4575 -51 L316.1 -51 L316.1 -69"/>
      <path fill="white" stroke-dasharray="6,2" d="M316.1 -84 L310.1 -68 L322.1 -68 Z" stroke="none"/>
      <path fill="none" d="M316.1 -84 L310.1 -68 L322.1 -68 Z"/>
      <path fill="none" d="M-0.0182 11.5664 L-76.48 11.5664"/>
      <line stroke-linecap="square" transform="matrix(-1,0,0,-1,-76.48,11.5664)" fill="none" x1="0" x2="-14" y1="0" y2="-4" stroke-miterlimit="10"/>
      <line stroke-linecap="square" transform="matrix(-1,0,0,-1,-76.48,11.5664)" fill="none" x1="0" x2="-14" y1="0" y2="4" stroke-miterlimit="10"/>
    </g>
  </g>
</svg>
