<?xml version="1.0" encoding="UTF-8"?><svg xmlns="http://www.w3.org/2000/svg" xmlns:xlink="http://www.w3.org/1999/xlink" fill-opacity="1" color-rendering="auto" color-interpolation="auto" stroke="black" text-rendering="auto" stroke-linecap="square" width="598" stroke-miterlimit="10" stroke-opacity="1" shape-rendering="auto" fill="black" stroke-dasharray="none" font-weight="normal" stroke-width="1" height="598" font-family="'Dialog'" font-style="normal" stroke-linejoin="miter" font-size="12" stroke-dashoffset="0" image-rendering="auto">
  <!--Generated by ySVG-->
  <defs id="genericDefs"/>
  <g>
    <defs id="defs1">
      <clipPath clipPathUnits="userSpaceOnUse" id="clipPath1">
        <path d="M0 0 L598 0 L598 598 L0 598 L0 0 Z"/>
      </clipPath>
      <clipPath clipPathUnits="userSpaceOnUse" id="clipPath2">
        <path d="M-130.04 96.7147 L-76.48 96.7147 L-76.48 119.8475 L-130.04 119.8475 L-130.04 96.7147 Z"/>
      </clipPath>
      <clipPath clipPathUnits="userSpaceOnUse" id="clipPath3">
        <path d="M-195.4831 16.3574 C-195.4831 25.3913 -233.6345 32.7147 -280.6966 32.7147 C-327.7586 32.7147 -365.91 25.3913 -365.91 16.3574 C-365.91 7.3234 -327.7586 0 -280.6966 0 C-233.6345 0 -195.4831 7.3234 -195.4831 16.3574 Z"/>
      </clipPath>
      <clipPath clipPathUnits="userSpaceOnUse" id="clipPath4">
        <path d="M399.7684 -100.3574 C399.7684 -91.3234 361.6171 -84 314.555 -84 C267.4929 -84 229.3416 -91.3234 229.3416 -100.3574 C229.3416 -109.3913 267.4929 -116.7147 314.555 -116.7147 C361.6171 -116.7147 399.7684 -109.3913 399.7684 -100.3574 Z"/>
      </clipPath>
      <clipPath clipPathUnits="userSpaceOnUse" id="clipPath5">
        <path d="M65.92 -107.1328 L123.6 -107.1328 L123.6 -84 L65.92 -84 L65.92 -107.1328 Z"/>
      </clipPath>
      <clipPath clipPathUnits="userSpaceOnUse" id="clipPath6">
        <path d="M0 0 L189.52 0 L189.52 127.8475 L0 127.8475 L0 0 Z"/>
      </clipPath>
      <script type="text/ecmascript"><![CDATA[
function umlload(newLocation)
{
if (newLocation.charAt(0) != '#') {
if (newLocation.indexOf("://") > -1) {
window.parent.location.href = newLocation;
} else {
var tmp = window.parent.location.href;
tmp = tmp.substring(0, tmp.lastIndexOf("/") + 1);
window.parent.location.href = tmp.concat(newLocation);
}
} else {
window.parent.location.hash = newLocation;
}
}
]]></script>
    </defs>
    <g fill="rgb(238,238,255)" transform="matrix(0.6994,0,0,0.6994,261.5813,288.8585)" stroke="rgb(238,238,255)">
      <rect width="76.1412" x="-138.04" height="17.9688" y="70.7147" stroke="none"/>
    </g>
    <g fill="rgb(166,166,178)" stroke-miterlimit="1.45" transform="matrix(0.6994,0,0,0.6994,261.5813,288.8585)" stroke-linecap="butt" stroke="rgb(166,166,178)">
      <rect fill="none" width="76.1412" x="-138.04" height="17.9688" y="70.7147"/>
    </g>
    <g fill="rgb(238,238,255)" transform="matrix(0.6994,0,0,0.6994,261.5813,288.8585)" stroke="rgb(238,238,255)">
      <rect width="79.56" x="-138.04" height="39.1641" y="88.6835" stroke="none"/>
    </g>
    <g fill="rgb(166,166,178)" stroke-miterlimit="1.45" transform="matrix(0.6994,0,0,0.6994,261.5813,288.8585)" stroke-linecap="butt" stroke="rgb(166,166,178)">
      <rect fill="none" width="79.56" x="-138.04" height="39.1641" y="88.6835"/>
    </g>
    <g font-family="sans-serif" transform="matrix(0.6994,0,0,0.6994,261.5813,288.8585)">
      <text xml:space="preserve" x="-132.04" y="83.8534" onclick="umlload('http://docs.oracle.com/javase/6/docs/api/java/lang/package-summary.html')" stroke="none">java.lang</text>
    </g>
    <g fill="rgb(187,187,255)" transform="matrix(0.6994,0,0,0.6994,261.5813,288.8585)" stroke="rgb(187,187,255)">
      <rect x="-130.04" y="96.7147" clip-path="url(#clipPath2)" width="53.56" height="23.1328" stroke="none"/>
    </g>
    <g fill="rgb(130,130,178)" stroke-miterlimit="1.45" transform="matrix(0.6994,0,0,0.6994,261.5813,288.8585)" stroke-linecap="butt" stroke="rgb(130,130,178)">
      <rect fill="none" width="53.56" x="-130.04" height="23.1328" y="96.7147"/>
    </g>
    <g font-size="13" font-weight="bold" font-family="sans-serif" transform="matrix(0.6994,0,0,0.6994,261.5813,288.8585)">
      <text xml:space="preserve" x="-125.26" y="112.7816" onclick="umlload('http://docs.oracle.com/javase/6/docs/api/java/lang/String.html')" stroke="none">String</text>
    </g>
    <g fill="rgb(238,238,255)" transform="matrix(0.6994,0,0,0.6994,261.5813,288.8585)" stroke="rgb(238,238,255)">
      <rect width="319.0873" x="-373.91" height="17.9688" y="-26" stroke="none"/>
    </g>
    <g fill="rgb(166,166,178)" stroke-miterlimit="1.45" transform="matrix(0.6994,0,0,0.6994,261.5813,288.8585)" stroke-linecap="butt" stroke="rgb(166,166,178)">
      <rect fill="none" width="319.0873" x="-373.91" height="17.9688" y="-26"/>
    </g>
    <g fill="rgb(238,238,255)" transform="matrix(0.6994,0,0,0.6994,261.5813,288.8585)" stroke="rgb(238,238,255)">
      <rect width="319.4269" x="-373.91" height="48.746" y="-8.0312" stroke="none"/>
    </g>
    <g fill="rgb(166,166,178)" stroke-miterlimit="1.45" transform="matrix(0.6994,0,0,0.6994,261.5813,288.8585)" stroke-linecap="butt" stroke="rgb(166,166,178)">
      <rect fill="none" width="319.4269" x="-373.91" height="48.746" y="-8.0312"/>
    </g>
    <g font-family="sans-serif" transform="matrix(0.6994,0,0,0.6994,261.5813,288.8585)">
      <text xml:space="preserve" x="-367.91" y="-12.8613" onclick="umlload('../../../../../../com/msopentech/odatajclient/engine/uri/filter/package-summary.html')" stroke="none">com.msopentech.odatajclient.engine.uri.filter</text>
    </g>
    <g fill="rgb(221,221,255)" transform="matrix(0.6994,0,0,0.6994,261.5813,288.8585)" stroke="rgb(221,221,255)">
      <rect x="-365.91" y="0" clip-path="url(#clipPath3)" width="170.4269" height="32.7147" stroke="none"/>
    </g>
    <g fill="rgb(154,154,178)" stroke-miterlimit="1.45" transform="matrix(0.6994,0,0,0.6994,261.5813,288.8585)" stroke-linecap="butt" stroke="rgb(154,154,178)">
      <ellipse rx="85.2134" fill="none" ry="16.3574" cx="-280.6966" cy="16.3574"/>
    </g>
    <g font-style="italic" font-size="13" font-weight="bold" font-family="sans-serif" transform="matrix(0.6994,0,0,0.6994,261.5813,288.8585)">
      <text xml:space="preserve" x="-335.1966" y="20.8579" onclick="umlload('../../../../../../com/msopentech/odatajclient/engine/uri/filter/ODataFilterArg.html')" stroke="none">ODataFilterArg</text>
    </g>
    <g fill="rgb(238,238,255)" transform="matrix(0.6994,0,0,0.6994,261.5813,288.8585)" stroke="rgb(238,238,255)">
      <rect width="319.0873" x="161.3416" height="17.9688" y="-142.7147" stroke="none"/>
    </g>
    <g fill="rgb(166,166,178)" stroke-miterlimit="1.45" transform="matrix(0.6994,0,0,0.6994,261.5813,288.8585)" stroke-linecap="butt" stroke="rgb(166,166,178)">
      <rect fill="none" width="319.0873" x="161.3416" height="17.9688" y="-142.7147"/>
    </g>
    <g fill="rgb(238,238,255)" transform="matrix(0.6994,0,0,0.6994,261.5813,288.8585)" stroke="rgb(238,238,255)">
      <rect width="319.4269" x="161.3416" height="48.746" y="-124.746" stroke="none"/>
    </g>
    <g fill="rgb(166,166,178)" stroke-miterlimit="1.45" transform="matrix(0.6994,0,0,0.6994,261.5813,288.8585)" stroke-linecap="butt" stroke="rgb(166,166,178)">
      <rect fill="none" width="319.4269" x="161.3416" height="48.746" y="-124.746"/>
    </g>
    <g font-family="sans-serif" transform="matrix(0.6994,0,0,0.6994,261.5813,288.8585)">
      <text xml:space="preserve" x="167.3416" y="-129.5761" onclick="umlload('../../../../../../com/msopentech/odatajclient/engine/uri/filter/package-summary.html')" stroke="none">com.msopentech.odatajclient.engine.uri.filter</text>
    </g>
    <g fill="rgb(221,221,255)" transform="matrix(0.6994,0,0,0.6994,261.5813,288.8585)" stroke="rgb(221,221,255)">
      <rect x="229.3416" y="-116.7147" clip-path="url(#clipPath4)" width="170.4269" height="32.7147" stroke="none"/>
    </g>
    <g fill="rgb(154,154,178)" stroke-miterlimit="1.45" transform="matrix(0.6994,0,0,0.6994,261.5813,288.8585)" stroke-linecap="butt" stroke="rgb(154,154,178)">
      <ellipse rx="85.2134" fill="none" ry="16.3574" cx="314.555" cy="-100.3574"/>
    </g>
    <g font-style="italic" font-size="13" font-weight="bold" font-family="sans-serif" transform="matrix(0.6994,0,0,0.6994,261.5813,288.8585)">
      <text xml:space="preserve" x="260.055" y="-95.8569" onclick="umlload('../../../../../../com/msopentech/odatajclient/engine/uri/filter/ODataFilterArg.html')" stroke="none">ODataFilterArg</text>
    </g>
    <g fill="rgb(238,238,255)" transform="matrix(0.6994,0,0,0.6994,261.5813,288.8585)" stroke="rgb(238,238,255)">
      <rect width="76.1412" x="57.92" height="17.9688" y="-133.1328" stroke="none"/>
    </g>
    <g fill="rgb(166,166,178)" stroke-miterlimit="1.45" transform="matrix(0.6994,0,0,0.6994,261.5813,288.8585)" stroke-linecap="butt" stroke="rgb(166,166,178)">
      <rect fill="none" width="76.1412" x="57.92" height="17.9688" y="-133.1328"/>
    </g>
    <g fill="rgb(238,238,255)" transform="matrix(0.6994,0,0,0.6994,261.5813,288.8585)" stroke="rgb(238,238,255)">
      <rect width="76.1412" x="57.92" height="39.1641" y="-115.1641" stroke="none"/>
    </g>
    <g fill="rgb(166,166,178)" stroke-miterlimit="1.45" transform="matrix(0.6994,0,0,0.6994,261.5813,288.8585)" stroke-linecap="butt" stroke="rgb(166,166,178)">
      <rect fill="none" width="76.1412" x="57.92" height="39.1641" y="-115.1641"/>
    </g>
    <g font-family="sans-serif" transform="matrix(0.6994,0,0,0.6994,261.5813,288.8585)">
      <text xml:space="preserve" x="63.92" y="-119.9941" onclick="umlload('http://docs.oracle.com/javase/6/docs/api/java/lang/package-summary.html')" stroke="none">java.lang</text>
    </g>
    <g fill="rgb(187,187,255)" transform="matrix(0.6994,0,0,0.6994,261.5813,288.8585)" stroke="rgb(187,187,255)">
      <rect x="65.92" y="-107.1328" clip-path="url(#clipPath5)" width="57.68" height="23.1328" stroke="none"/>
    </g>
    <g fill="rgb(130,130,178)" stroke-miterlimit="1.45" transform="matrix(0.6994,0,0,0.6994,261.5813,288.8585)" stroke-linecap="butt" stroke="rgb(130,130,178)">
      <rect fill="none" width="57.68" x="65.92" height="23.1328" y="-107.1328"/>
    </g>
    <g font-size="13" font-weight="bold" font-family="sans-serif" transform="matrix(0.6994,0,0,0.6994,261.5813,288.8585)">
      <text xml:space="preserve" x="70.76" y="-91.0659" onclick="umlload('http://docs.oracle.com/javase/6/docs/api/java/lang/Object.html')" stroke="none">Object</text>
    </g>
    <g fill="rgb(238,238,255)" transform="matrix(0.6994,0,0,0.6994,261.5813,288.8585)" stroke="rgb(238,238,255)">
      <rect width="319.0873" x="-8" height="17.9688" y="-26" stroke="none"/>
    </g>
    <g fill="rgb(166,166,178)" stroke-miterlimit="1.45" transform="matrix(0.6994,0,0,0.6994,261.5813,288.8585)" stroke-linecap="butt" stroke="rgb(166,166,178)">
      <rect fill="none" width="319.0873" x="-8" height="17.9688" y="-26"/>
    </g>
    <g fill="rgb(238,238,255)" transform="matrix(0.6994,0,0,0.6994,261.5813,288.8585)" stroke="rgb(238,238,255)">
      <rect width="319.52" x="-8" height="143.8788" y="-8.0312" stroke="none"/>
    </g>
    <g fill="rgb(166,166,178)" stroke-miterlimit="1.45" transform="matrix(0.6994,0,0,0.6994,261.5813,288.8585)" stroke-linecap="butt" stroke="rgb(166,166,178)">
      <rect fill="none" width="319.52" x="-8" height="143.8788" y="-8.0312"/>
    </g>
    <g font-family="sans-serif" transform="matrix(0.6994,0,0,0.6994,261.5813,288.8585)">
      <text xml:space="preserve" x="-2" y="-12.8613" onclick="umlload('package-summary.html')" stroke="none">com.msopentech.odatajclient.engine.uri.filter</text>
    </g>
    <g fill="rgb(187,187,255)" transform="matrix(0.6994,0,0,0.6994,261.5813,288.8585)" stroke="rgb(187,187,255)">
      <rect x="0" y="0" clip-path="url(#clipPath6)" width="189.52" height="26.625" stroke="none"/>
      <line clip-path="url(#clipPath6)" fill="none" x1="0" x2="189.52" y1="26.625" y2="26.625" stroke="black"/>
      <line clip-path="url(#clipPath6)" x1="0" x2="189.52" y1="27.625" y2="27.625" stroke="none"/>
      <line clip-path="url(#clipPath6)" fill="none" x1="0" x2="189.52" y1="27.625" y2="27.625" stroke="black"/>
      <rect x="0" y="28.625" clip-path="url(#clipPath6)" width="189.52" height="99.2225" stroke="none"/>
    </g>
    <g fill="rgb(130,130,178)" stroke-miterlimit="1.45" transform="matrix(0.6994,0,0,0.6994,261.5813,288.8585)" stroke-linecap="butt" stroke="rgb(130,130,178)">
      <rect fill="none" width="189.52" x="0" height="127.8475" y="0"/>
    </g>
    <g font-size="16" font-weight="bold" font-family="sans-serif" transform="matrix(0.6994,0,0,0.6994,261.5813,288.8585)">
      <text xml:space="preserve" x="6.76" y="18.8516" onclick="umlload('#')" stroke="none">ODataFilterFunction</text>
    </g>
    <g font-family="sans-serif" transform="matrix(0.6994,0,0,0.6994,261.5813,288.8585)">
      <text xml:space="preserve" x="4" y="39.1719" stroke="none">+</text>
      <text xml:space="preserve" x="19" y="40.7637" onclick="umlload('#build()')" stroke="none">build() : String</text>
    </g>
    <g font-family="sans-serif" transform="matrix(0.6994,0,0,0.6994,261.5813,288.8585)">
      <text xml:space="preserve" x="-368" y="160.1543" onclick="umlload('http://www.yworks.com/')" stroke="none">yWorks UML Doclet</text>
    </g>
    <g stroke-miterlimit="1.45" transform="matrix(0.6994,0,0,0.6994,261.5813,288.8585)" stroke-linecap="butt">
      <path fill="none" d="M94.76 -0.0039 L94.76 -69"/>
      <path fill="white" d="M94.76 -84 L88.76 -68 L100.76 -68 Z" stroke="none"/>
      <path fill="none" d="M94.76 -84 L88.76 -68 L100.76 -68 Z"/>
      <path fill="none" stroke-dasharray="6,2" d="M142.14 0 L142.14 -51 L314.555 -51 L314.555 -69"/>
      <path fill="white" stroke-dasharray="6,2" d="M314.555 -84 L308.555 -68 L320.555 -68 Z" stroke="none"/>
      <path fill="none" d="M314.555 -84 L308.555 -68 L320.555 -68 Z"/>
      <path fill="none" d="M0.025 16.3574 L-195.4831 16.3574"/>
      <line stroke-linecap="square" transform="matrix(-1,0,0,-1,-195.4831,16.3574)" fill="none" x1="0" x2="-14" y1="0" y2="-4" stroke-miterlimit="10"/>
      <line stroke-linecap="square" transform="matrix(-1,0,0,-1,-195.4831,16.3574)" fill="none" x1="0" x2="-14" y1="0" y2="4" stroke-miterlimit="10"/>
    </g>
    <g stroke-miterlimit="1.45" transform="matrix(0.6994,0,0,0.6994,261.5813,288.8585)" stroke-linecap="butt">
      <path fill="none" d="M-0.044 108.2811 L-76.48 108.2811"/>
      <line stroke-linecap="square" transform="matrix(-1,0,0,-1,-76.48,108.2811)" fill="none" x1="0" x2="-14" y1="0" y2="-4" stroke-miterlimit="10"/>
      <line stroke-linecap="square" transform="matrix(-1,0,0,-1,-76.48,108.2811)" fill="none" x1="0" x2="-14" y1="0" y2="4" stroke-miterlimit="10"/>
    </g>
  </g>
</svg>
