<?xml version="1.0" encoding="UTF-8"?><svg xmlns="http://www.w3.org/2000/svg" xmlns:xlink="http://www.w3.org/1999/xlink" fill-opacity="1" color-rendering="auto" color-interpolation="auto" stroke="black" text-rendering="auto" stroke-linecap="square" width="598" stroke-miterlimit="10" stroke-opacity="1" shape-rendering="auto" fill="black" stroke-dasharray="none" font-weight="normal" stroke-width="1" height="598" font-family="'Dialog'" font-style="normal" stroke-linejoin="miter" font-size="12" stroke-dashoffset="0" image-rendering="auto">
  <!--Generated by ySVG-->
  <defs id="genericDefs"/>
  <g>
    <defs id="defs1">
      <clipPath clipPathUnits="userSpaceOnUse" id="clipPath1">
        <path d="M0 0 L598 0 L598 598 L0 598 L0 0 Z"/>
      </clipPath>
      <clipPath clipPathUnits="userSpaceOnUse" id="clipPath2">
        <path d="M396.63 139.4295 L454.31 139.4295 L454.31 162.5623 L396.63 162.5623 L396.63 139.4295 Z"/>
      </clipPath>
      <clipPath clipPathUnits="userSpaceOnUse" id="clipPath3">
        <path d="M530.6409 16.3574 C530.6409 25.3913 500.6415 32.7147 463.6354 32.7147 C426.6294 32.7147 396.63 25.3913 396.63 16.3574 C396.63 7.3234 426.6294 0 463.6354 0 C500.6415 0 530.6409 7.3234 530.6409 16.3574 Z"/>
      </clipPath>
      <clipPath clipPathUnits="userSpaceOnUse" id="clipPath4">
        <path d="M567.0569 59.0721 C567.0569 68.106 528.9055 75.4295 481.8434 75.4295 C434.7813 75.4295 396.63 68.106 396.63 59.0721 C396.63 50.0382 434.7813 42.7147 481.8434 42.7147 C528.9055 42.7147 567.0569 50.0382 567.0569 59.0721 Z"/>
      </clipPath>
      <clipPath clipPathUnits="userSpaceOnUse" id="clipPath5">
        <path d="M-130.04 0 L-76.48 0 L-76.48 23.1328 L-130.04 23.1328 L-130.04 0 Z"/>
      </clipPath>
      <clipPath clipPathUnits="userSpaceOnUse" id="clipPath6">
        <path d="M136.475 -107.1328 L194.155 -107.1328 L194.155 -84 L136.475 -84 L136.475 -107.1328 Z"/>
      </clipPath>
      <clipPath clipPathUnits="userSpaceOnUse" id="clipPath7">
        <path d="M0 0 L330.63 0 L330.63 284.125 L0 284.125 L0 0 Z"/>
      </clipPath>
      <script type="text/ecmascript"><![CDATA[
function umlload(newLocation)
{
if (newLocation.charAt(0) != '#') {
if (newLocation.indexOf("://") > -1) {
window.parent.location.href = newLocation;
} else {
var tmp = window.parent.location.href;
tmp = tmp.substring(0, tmp.lastIndexOf("/") + 1);
window.parent.location.href = tmp.concat(newLocation);
}
} else {
window.parent.location.hash = newLocation;
}
}
]]></script>
    </defs>
    <g fill="rgb(238,238,255)" transform="matrix(0.7052,0,0,0.7052,98.0212,230.5967)" stroke="rgb(238,238,255)">
      <rect width="76.1412" x="388.63" height="17.9688" y="113.4295" stroke="none"/>
    </g>
    <g fill="rgb(166,166,178)" stroke-miterlimit="1.45" transform="matrix(0.7052,0,0,0.7052,98.0212,230.5967)" stroke-linecap="butt" stroke="rgb(166,166,178)">
      <rect fill="none" width="76.1412" x="388.63" height="17.9688" y="113.4295"/>
    </g>
    <g fill="rgb(238,238,255)" transform="matrix(0.7052,0,0,0.7052,98.0212,230.5967)" stroke="rgb(238,238,255)">
      <rect width="79.68" x="388.63" height="39.1641" y="131.3982" stroke="none"/>
    </g>
    <g fill="rgb(166,166,178)" stroke-miterlimit="1.45" transform="matrix(0.7052,0,0,0.7052,98.0212,230.5967)" stroke-linecap="butt" stroke="rgb(166,166,178)">
      <rect fill="none" width="79.68" x="388.63" height="39.1641" y="131.3982"/>
    </g>
    <g font-family="sans-serif" transform="matrix(0.7052,0,0,0.7052,98.0212,230.5967)">
      <text xml:space="preserve" x="394.63" y="126.5681" onclick="umlload('http://docs.oracle.com/javase/6/docs/api/java/lang/package-summary.html')" stroke="none">java.lang</text>
    </g>
    <g fill="rgb(187,187,255)" transform="matrix(0.7052,0,0,0.7052,98.0212,230.5967)" stroke="rgb(187,187,255)">
      <rect x="396.63" y="139.4295" clip-path="url(#clipPath2)" width="57.68" height="23.1328" stroke="none"/>
    </g>
    <g fill="rgb(130,130,178)" stroke-miterlimit="1.45" transform="matrix(0.7052,0,0,0.7052,98.0212,230.5967)" stroke-linecap="butt" stroke="rgb(130,130,178)">
      <rect fill="none" width="57.68" x="396.63" height="23.1328" y="139.4295"/>
    </g>
    <g font-size="13" font-weight="bold" font-family="sans-serif" transform="matrix(0.7052,0,0,0.7052,98.0212,230.5967)">
      <text xml:space="preserve" x="401.47" y="155.4964" onclick="umlload('http://docs.oracle.com/javase/6/docs/api/java/lang/Object.html')" stroke="none">Object</text>
    </g>
    <g fill="rgb(238,238,255)" transform="matrix(0.7052,0,0,0.7052,98.0212,230.5967)" stroke="rgb(238,238,255)">
      <rect width="319.0873" x="388.63" height="17.9688" y="-26" stroke="none"/>
    </g>
    <g fill="rgb(166,166,178)" stroke-miterlimit="1.45" transform="matrix(0.7052,0,0,0.7052,98.0212,230.5967)" stroke-linecap="butt" stroke="rgb(166,166,178)">
      <rect fill="none" width="319.0873" x="388.63" height="17.9688" y="-26"/>
    </g>
    <g fill="rgb(238,238,255)" transform="matrix(0.7052,0,0,0.7052,98.0212,230.5967)" stroke="rgb(238,238,255)">
      <rect width="319.4269" x="388.63" height="91.4607" y="-8.0312" stroke="none"/>
    </g>
    <g fill="rgb(166,166,178)" stroke-miterlimit="1.45" transform="matrix(0.7052,0,0,0.7052,98.0212,230.5967)" stroke-linecap="butt" stroke="rgb(166,166,178)">
      <rect fill="none" width="319.4269" x="388.63" height="91.4607" y="-8.0312"/>
    </g>
    <g font-family="sans-serif" transform="matrix(0.7052,0,0,0.7052,98.0212,230.5967)">
      <text xml:space="preserve" x="394.63" y="-12.8613" onclick="umlload('../../../../../../com/msopentech/odatajclient/engine/uri/filter/package-summary.html')" stroke="none">com.msopentech.odatajclient.engine.uri.filter</text>
    </g>
    <g fill="rgb(221,221,255)" transform="matrix(0.7052,0,0,0.7052,98.0212,230.5967)" stroke="rgb(221,221,255)">
      <rect x="396.63" y="0" clip-path="url(#clipPath3)" width="134.0109" height="32.7147" stroke="none"/>
    </g>
    <g fill="rgb(154,154,178)" stroke-miterlimit="1.45" transform="matrix(0.7052,0,0,0.7052,98.0212,230.5967)" stroke-linecap="butt" stroke="rgb(154,154,178)">
      <ellipse rx="67.0054" fill="none" ry="16.3574" cx="463.6354" cy="16.3574"/>
    </g>
    <g font-style="italic" font-size="13" font-weight="bold" font-family="sans-serif" transform="matrix(0.7052,0,0,0.7052,98.0212,230.5967)">
      <text xml:space="preserve" x="421.6354" y="20.8579" onclick="umlload('../../../../../../com/msopentech/odatajclient/engine/uri/filter/ODataFilter.html')" stroke="none">ODataFilter</text>
    </g>
    <g fill="rgb(221,221,255)" transform="matrix(0.7052,0,0,0.7052,98.0212,230.5967)" stroke="rgb(221,221,255)">
      <rect x="396.63" y="42.7147" clip-path="url(#clipPath4)" width="170.4269" height="32.7147" stroke="none"/>
    </g>
    <g fill="rgb(154,154,178)" stroke-miterlimit="1.45" transform="matrix(0.7052,0,0,0.7052,98.0212,230.5967)" stroke-linecap="butt" stroke="rgb(154,154,178)">
      <ellipse rx="85.2134" fill="none" ry="16.3574" cx="481.8434" cy="59.0721"/>
    </g>
    <g font-style="italic" font-size="13" font-weight="bold" font-family="sans-serif" transform="matrix(0.7052,0,0,0.7052,98.0212,230.5967)">
      <text xml:space="preserve" x="427.3434" y="63.5726" onclick="umlload('../../../../../../com/msopentech/odatajclient/engine/uri/filter/ODataFilterArg.html')" stroke="none">ODataFilterArg</text>
    </g>
    <g fill="rgb(238,238,255)" transform="matrix(0.7052,0,0,0.7052,98.0212,230.5967)" stroke="rgb(238,238,255)">
      <rect width="76.1412" x="-138.04" height="17.9688" y="-26" stroke="none"/>
    </g>
    <g fill="rgb(166,166,178)" stroke-miterlimit="1.45" transform="matrix(0.7052,0,0,0.7052,98.0212,230.5967)" stroke-linecap="butt" stroke="rgb(166,166,178)">
      <rect fill="none" width="76.1412" x="-138.04" height="17.9688" y="-26"/>
    </g>
    <g fill="rgb(238,238,255)" transform="matrix(0.7052,0,0,0.7052,98.0212,230.5967)" stroke="rgb(238,238,255)">
      <rect width="79.56" x="-138.04" height="39.1641" y="-8.0312" stroke="none"/>
    </g>
    <g fill="rgb(166,166,178)" stroke-miterlimit="1.45" transform="matrix(0.7052,0,0,0.7052,98.0212,230.5967)" stroke-linecap="butt" stroke="rgb(166,166,178)">
      <rect fill="none" width="79.56" x="-138.04" height="39.1641" y="-8.0312"/>
    </g>
    <g font-family="sans-serif" transform="matrix(0.7052,0,0,0.7052,98.0212,230.5967)">
      <text xml:space="preserve" x="-132.04" y="-12.8613" onclick="umlload('http://docs.oracle.com/javase/6/docs/api/java/lang/package-summary.html')" stroke="none">java.lang</text>
    </g>
    <g fill="rgb(187,187,255)" transform="matrix(0.7052,0,0,0.7052,98.0212,230.5967)" stroke="rgb(187,187,255)">
      <rect x="-130.04" y="0" clip-path="url(#clipPath5)" width="53.56" height="23.1328" stroke="none"/>
    </g>
    <g fill="rgb(130,130,178)" stroke-miterlimit="1.45" transform="matrix(0.7052,0,0,0.7052,98.0212,230.5967)" stroke-linecap="butt" stroke="rgb(130,130,178)">
      <rect fill="none" width="53.56" x="-130.04" height="23.1328" y="0"/>
    </g>
    <g font-size="13" font-weight="bold" font-family="sans-serif" transform="matrix(0.7052,0,0,0.7052,98.0212,230.5967)">
      <text xml:space="preserve" x="-125.26" y="16.0669" onclick="umlload('http://docs.oracle.com/javase/6/docs/api/java/lang/String.html')" stroke="none">String</text>
    </g>
    <g fill="rgb(238,238,255)" transform="matrix(0.7052,0,0,0.7052,98.0212,230.5967)" stroke="rgb(238,238,255)">
      <rect width="76.1412" x="128.475" height="17.9688" y="-133.1328" stroke="none"/>
    </g>
    <g fill="rgb(166,166,178)" stroke-miterlimit="1.45" transform="matrix(0.7052,0,0,0.7052,98.0212,230.5967)" stroke-linecap="butt" stroke="rgb(166,166,178)">
      <rect fill="none" width="76.1412" x="128.475" height="17.9688" y="-133.1328"/>
    </g>
    <g fill="rgb(238,238,255)" transform="matrix(0.7052,0,0,0.7052,98.0212,230.5967)" stroke="rgb(238,238,255)">
      <rect width="76.1412" x="128.475" height="39.1641" y="-115.1641" stroke="none"/>
    </g>
    <g fill="rgb(166,166,178)" stroke-miterlimit="1.45" transform="matrix(0.7052,0,0,0.7052,98.0212,230.5967)" stroke-linecap="butt" stroke="rgb(166,166,178)">
      <rect fill="none" width="76.1412" x="128.475" height="39.1641" y="-115.1641"/>
    </g>
    <g font-family="sans-serif" transform="matrix(0.7052,0,0,0.7052,98.0212,230.5967)">
      <text xml:space="preserve" x="134.475" y="-119.9941" onclick="umlload('http://docs.oracle.com/javase/6/docs/api/java/lang/package-summary.html')" stroke="none">java.lang</text>
    </g>
    <g fill="rgb(187,187,255)" transform="matrix(0.7052,0,0,0.7052,98.0212,230.5967)" stroke="rgb(187,187,255)">
      <rect x="136.475" y="-107.1328" clip-path="url(#clipPath6)" width="57.68" height="23.1328" stroke="none"/>
    </g>
    <g fill="rgb(130,130,178)" stroke-miterlimit="1.45" transform="matrix(0.7052,0,0,0.7052,98.0212,230.5967)" stroke-linecap="butt" stroke="rgb(130,130,178)">
      <rect fill="none" width="57.68" x="136.475" height="23.1328" y="-107.1328"/>
    </g>
    <g font-size="13" font-weight="bold" font-family="sans-serif" transform="matrix(0.7052,0,0,0.7052,98.0212,230.5967)">
      <text xml:space="preserve" x="141.315" y="-91.0659" onclick="umlload('http://docs.oracle.com/javase/6/docs/api/java/lang/Object.html')" stroke="none">Object</text>
    </g>
    <g fill="rgb(238,238,255)" transform="matrix(0.7052,0,0,0.7052,98.0212,230.5967)" stroke="rgb(238,238,255)">
      <rect width="319.0873" x="-8" height="17.9688" y="-26" stroke="none"/>
    </g>
    <g fill="rgb(166,166,178)" stroke-miterlimit="1.45" transform="matrix(0.7052,0,0,0.7052,98.0212,230.5967)" stroke-linecap="butt" stroke="rgb(166,166,178)">
      <rect fill="none" width="319.0873" x="-8" height="17.9688" y="-26"/>
    </g>
    <g fill="rgb(238,238,255)" transform="matrix(0.7052,0,0,0.7052,98.0212,230.5967)" stroke="rgb(238,238,255)">
      <rect width="346.63" x="-8" height="300.1562" y="-8.0312" stroke="none"/>
    </g>
    <g fill="rgb(166,166,178)" stroke-miterlimit="1.45" transform="matrix(0.7052,0,0,0.7052,98.0212,230.5967)" stroke-linecap="butt" stroke="rgb(166,166,178)">
      <rect fill="none" width="346.63" x="-8" height="300.1562" y="-8.0312"/>
    </g>
    <g font-family="sans-serif" transform="matrix(0.7052,0,0,0.7052,98.0212,230.5967)">
      <text xml:space="preserve" x="-2" y="-12.8613" onclick="umlload('package-summary.html')" stroke="none">com.msopentech.odatajclient.engine.uri.filter</text>
    </g>
    <g fill="rgb(187,187,255)" transform="matrix(0.7052,0,0,0.7052,98.0212,230.5967)" stroke="rgb(187,187,255)">
      <rect x="0" y="0" clip-path="url(#clipPath7)" width="330.63" height="26.625" stroke="none"/>
      <line clip-path="url(#clipPath7)" fill="none" x1="0" x2="330.63" y1="26.625" y2="26.625" stroke="black"/>
      <line clip-path="url(#clipPath7)" x1="0" x2="330.63" y1="27.625" y2="27.625" stroke="none"/>
      <line clip-path="url(#clipPath7)" fill="none" x1="0" x2="330.63" y1="27.625" y2="27.625" stroke="black"/>
      <rect x="0" y="28.625" clip-path="url(#clipPath7)" width="330.63" height="255.5" stroke="none"/>
    </g>
    <g fill="rgb(130,130,178)" stroke-miterlimit="1.45" transform="matrix(0.7052,0,0,0.7052,98.0212,230.5967)" stroke-linecap="butt" stroke="rgb(130,130,178)">
      <rect fill="none" width="330.63" x="0" height="284.125" y="0"/>
    </g>
    <g font-size="16" font-weight="bold" font-family="sans-serif" transform="matrix(0.7052,0,0,0.7052,98.0212,230.5967)">
      <text xml:space="preserve" x="81.815" y="18.8516" onclick="umlload('#')" stroke="none">ODataFilterFactory</text>
    </g>
    <g font-family="sans-serif" transform="matrix(0.7052,0,0,0.7052,98.0212,230.5967)">
      <text xml:space="preserve" x="4" y="39.1719" stroke="none">+</text>
      <text xml:space="preserve" x="19" y="40.7637" onclick="umlload('#and(com.msopentech.odatajclient.engine.uri.filter.ODataFilter, com.msopentech.odatajclient.engine.uri.filter.ODataFilter)')" stroke="none">and(ODataFilter, ODataFilter) : ODataFilter</text>
      <line y2="43.5938" fill="none" x1="19" x2="283" y1="43.5938"/>
    </g>
    <g font-family="sans-serif" transform="matrix(0.7052,0,0,0.7052,98.0212,230.5967)">
      <text xml:space="preserve" x="4" y="55.1719" stroke="none">+</text>
      <text xml:space="preserve" x="19" y="56.7324" onclick="umlload('#eq(com.msopentech.odatajclient.engine.uri.filter.ODataFilterArg, com.msopentech.odatajclient.engine.uri.filter.ODataFilterArg)')" stroke="none">eq(ODataFilterArg, ODataFilterArg) : ODataFilter</text>
      <line y2="59.5625" fill="none" x1="19" x2="317" y1="59.5625"/>
    </g>
    <g font-family="sans-serif" transform="matrix(0.7052,0,0,0.7052,98.0212,230.5967)">
      <text xml:space="preserve" x="4" y="71.1719" stroke="none">+</text>
      <text xml:space="preserve" x="19" y="72.7012" onclick="umlload('#eq(java.lang.String, java.lang.Object)')" stroke="none">eq(String, Object) : ODataFilter</text>
      <line y2="75.5312" fill="none" x1="19" x2="212" y1="75.5312"/>
    </g>
    <g font-family="sans-serif" transform="matrix(0.7052,0,0,0.7052,98.0212,230.5967)">
      <text xml:space="preserve" x="4" y="87.1719" stroke="none">+</text>
      <text xml:space="preserve" x="19" y="88.6699" onclick="umlload('#ge(com.msopentech.odatajclient.engine.uri.filter.ODataFilterArg, com.msopentech.odatajclient.engine.uri.filter.ODataFilterArg)')" stroke="none">ge(ODataFilterArg, ODataFilterArg) : ODataFilter</text>
      <line y2="91.5" fill="none" x1="19" x2="317" y1="91.5"/>
    </g>
    <g font-family="sans-serif" transform="matrix(0.7052,0,0,0.7052,98.0212,230.5967)">
      <text xml:space="preserve" x="4" y="103.1719" stroke="none">+</text>
      <text xml:space="preserve" x="19" y="104.6387" onclick="umlload('#ge(java.lang.String, java.lang.Object)')" stroke="none">ge(String, Object) : ODataFilter</text>
      <line y2="107.4688" fill="none" x1="19" x2="212" y1="107.4688"/>
    </g>
    <g font-family="sans-serif" transform="matrix(0.7052,0,0,0.7052,98.0212,230.5967)">
      <text xml:space="preserve" x="4" y="119.1719" stroke="none">+</text>
      <text xml:space="preserve" x="19" y="120.6074" onclick="umlload('#gt(com.msopentech.odatajclient.engine.uri.filter.ODataFilterArg, com.msopentech.odatajclient.engine.uri.filter.ODataFilterArg)')" stroke="none">gt(ODataFilterArg, ODataFilterArg) : ODataFilter</text>
      <line y2="123.4375" fill="none" x1="19" x2="314" y1="123.4375"/>
    </g>
    <g font-family="sans-serif" transform="matrix(0.7052,0,0,0.7052,98.0212,230.5967)">
      <text xml:space="preserve" x="4" y="135.1719" stroke="none">+</text>
      <text xml:space="preserve" x="19" y="136.5762" onclick="umlload('#gt(java.lang.String, java.lang.Object)')" stroke="none">gt(String, Object) : ODataFilter</text>
      <line y2="139.4062" fill="none" x1="19" x2="209" y1="139.4062"/>
    </g>
    <g font-family="sans-serif" transform="matrix(0.7052,0,0,0.7052,98.0212,230.5967)">
      <text xml:space="preserve" x="4" y="151.1719" stroke="none">+</text>
      <text xml:space="preserve" x="19" y="152.5449" onclick="umlload('#le(com.msopentech.odatajclient.engine.uri.filter.ODataFilterArg, com.msopentech.odatajclient.engine.uri.filter.ODataFilterArg)')" stroke="none">le(ODataFilterArg, ODataFilterArg) : ODataFilter</text>
      <line y2="155.375" fill="none" x1="19" x2="312" y1="155.375"/>
    </g>
    <g font-family="sans-serif" transform="matrix(0.7052,0,0,0.7052,98.0212,230.5967)">
      <text xml:space="preserve" x="4" y="167.1719" stroke="none">+</text>
      <text xml:space="preserve" x="19" y="168.5137" onclick="umlload('#le(java.lang.String, java.lang.Object)')" stroke="none">le(String, Object) : ODataFilter</text>
      <line y2="171.3438" fill="none" x1="19" x2="207" y1="171.3438"/>
    </g>
    <g font-family="sans-serif" transform="matrix(0.7052,0,0,0.7052,98.0212,230.5967)">
      <text xml:space="preserve" x="4" y="183.1719" stroke="none">+</text>
      <text xml:space="preserve" x="19" y="184.4824" onclick="umlload('#lt(com.msopentech.odatajclient.engine.uri.filter.ODataFilterArg, com.msopentech.odatajclient.engine.uri.filter.ODataFilterArg)')" stroke="none">lt(ODataFilterArg, ODataFilterArg) : ODataFilter</text>
      <line y2="187.3125" fill="none" x1="19" x2="309" y1="187.3125"/>
    </g>
    <g font-family="sans-serif" transform="matrix(0.7052,0,0,0.7052,98.0212,230.5967)">
      <text xml:space="preserve" x="4" y="199.1719" stroke="none">+</text>
      <text xml:space="preserve" x="19" y="200.4512" onclick="umlload('#lt(java.lang.String, java.lang.Object)')" stroke="none">lt(String, Object) : ODataFilter</text>
      <line y2="203.2812" fill="none" x1="19" x2="204" y1="203.2812"/>
    </g>
    <g font-family="sans-serif" transform="matrix(0.7052,0,0,0.7052,98.0212,230.5967)">
      <text xml:space="preserve" x="4" y="215.1719" stroke="none">+</text>
      <text xml:space="preserve" x="19" y="216.4199" onclick="umlload('#match(com.msopentech.odatajclient.engine.uri.filter.ODataFilterArg)')" stroke="none">match(ODataFilterArg) : ODataFilter</text>
      <line y2="219.25" fill="none" x1="19" x2="241" y1="219.25"/>
    </g>
    <g font-family="sans-serif" transform="matrix(0.7052,0,0,0.7052,98.0212,230.5967)">
      <text xml:space="preserve" x="4" y="231.1719" stroke="none">+</text>
      <text xml:space="preserve" x="19" y="232.3887" onclick="umlload('#ne(com.msopentech.odatajclient.engine.uri.filter.ODataFilterArg, com.msopentech.odatajclient.engine.uri.filter.ODataFilterArg)')" stroke="none">ne(ODataFilterArg, ODataFilterArg) : ODataFilter</text>
      <line y2="235.2188" fill="none" x1="19" x2="317" y1="235.2188"/>
    </g>
    <g font-family="sans-serif" transform="matrix(0.7052,0,0,0.7052,98.0212,230.5967)">
      <text xml:space="preserve" x="4" y="247.1719" stroke="none">+</text>
      <text xml:space="preserve" x="19" y="248.3574" onclick="umlload('#ne(java.lang.String, java.lang.Object)')" stroke="none">ne(String, Object) : ODataFilter</text>
      <line y2="251.1875" fill="none" x1="19" x2="212" y1="251.1875"/>
    </g>
    <g font-family="sans-serif" transform="matrix(0.7052,0,0,0.7052,98.0212,230.5967)">
      <text xml:space="preserve" x="4" y="263.1719" stroke="none">+</text>
      <text xml:space="preserve" x="19" y="264.3262" onclick="umlload('#not(com.msopentech.odatajclient.engine.uri.filter.ODataFilter)')" stroke="none">not(ODataFilter) : ODataFilter</text>
      <line y2="267.1562" fill="none" x1="19" x2="202" y1="267.1562"/>
    </g>
    <g font-family="sans-serif" transform="matrix(0.7052,0,0,0.7052,98.0212,230.5967)">
      <text xml:space="preserve" x="4" y="279.1719" stroke="none">+</text>
      <text xml:space="preserve" x="19" y="280.2949" onclick="umlload('#or(com.msopentech.odatajclient.engine.uri.filter.ODataFilter, com.msopentech.odatajclient.engine.uri.filter.ODataFilter)')" stroke="none">or(ODataFilter, ODataFilter) : ODataFilter</text>
      <line y2="283.125" fill="none" x1="19" x2="272" y1="283.125"/>
    </g>
    <g font-family="sans-serif" transform="matrix(0.7052,0,0,0.7052,98.0212,230.5967)">
      <text xml:space="preserve" x="-133" y="317.1543" onclick="umlload('http://www.yworks.com/')" stroke="none">yWorks UML Doclet</text>
    </g>
    <g stroke-miterlimit="1.45" transform="matrix(0.7052,0,0,0.7052,98.0212,230.5967)" stroke-linecap="butt">
      <path fill="none" d="M165.315 0 L165.315 -69"/>
      <path fill="white" d="M165.315 -84 L159.315 -68 L171.315 -68 Z" stroke="none"/>
      <path fill="none" d="M165.315 -84 L159.315 -68 L171.315 -68 Z"/>
      <path fill="none" d="M-0.0199 11.5664 L-76.48 11.5664"/>
      <line stroke-linecap="square" transform="matrix(-1,0,0,-1,-76.48,11.5664)" fill="none" x1="0" x2="-14" y1="0" y2="-4" stroke-miterlimit="10"/>
      <line stroke-linecap="square" transform="matrix(-1,0,0,-1,-76.48,11.5664)" fill="none" x1="0" x2="-14" y1="0" y2="4" stroke-miterlimit="10"/>
    </g>
    <g stroke-dasharray="6,2" stroke-miterlimit="1.45" transform="matrix(0.7052,0,0,0.7052,98.0212,230.5967)" stroke-linecap="butt">
      <path fill="none" d="M330.6075 16.3574 L396.63 16.3574"/>
      <line stroke-linecap="square" transform="matrix(1,0,0,1,396.63,16.3574)" fill="none" x1="0" x2="-14" y1="0" y2="-4" stroke-dasharray="none" stroke-miterlimit="10"/>
      <line stroke-linecap="square" transform="matrix(1,0,0,1,396.63,16.3574)" fill="none" x1="0" x2="-14" y1="0" y2="4" stroke-dasharray="none" stroke-miterlimit="10"/>
    </g>
    <g stroke-dasharray="6,2" stroke-miterlimit="1.45" transform="matrix(0.7052,0,0,0.7052,98.0212,230.5967)" stroke-linecap="butt">
      <path fill="none" d="M330.6501 59.0721 L396.63 59.0721"/>
      <line stroke-linecap="square" transform="matrix(1,0,0,1,396.63,59.0721)" fill="none" x1="0" x2="-14" y1="0" y2="-4" stroke-dasharray="none" stroke-miterlimit="10"/>
      <line stroke-linecap="square" transform="matrix(1,0,0,1,396.63,59.0721)" fill="none" x1="0" x2="-14" y1="0" y2="4" stroke-dasharray="none" stroke-miterlimit="10"/>
    </g>
    <g stroke-dasharray="6,2" stroke-miterlimit="1.45" transform="matrix(0.7052,0,0,0.7052,98.0212,230.5967)" stroke-linecap="butt">
      <path fill="none" d="M330.6112 150.9959 L396.63 150.9959"/>
      <line stroke-linecap="square" transform="matrix(1,0,0,1,396.63,150.9959)" fill="none" x1="0" x2="-14" y1="0" y2="-4" stroke-dasharray="none" stroke-miterlimit="10"/>
      <line stroke-linecap="square" transform="matrix(1,0,0,1,396.63,150.9959)" fill="none" x1="0" x2="-14" y1="0" y2="4" stroke-dasharray="none" stroke-miterlimit="10"/>
    </g>
  </g>
</svg>
