<?xml version="1.0" encoding="UTF-8"?><svg xmlns="http://www.w3.org/2000/svg" xmlns:xlink="http://www.w3.org/1999/xlink" fill-opacity="1" color-rendering="auto" color-interpolation="auto" stroke="black" text-rendering="auto" stroke-linecap="square" width="598" stroke-miterlimit="10" stroke-opacity="1" shape-rendering="auto" fill="black" stroke-dasharray="none" font-weight="normal" stroke-width="1" height="598" font-family="'Dialog'" font-style="normal" stroke-linejoin="miter" font-size="12" stroke-dashoffset="0" image-rendering="auto">
  <!--Generated by ySVG-->
  <defs id="genericDefs"/>
  <g>
    <defs id="defs1">
      <clipPath clipPathUnits="userSpaceOnUse" id="clipPath1">
        <path d="M0 0 L598 0 L598 598 L0 598 L0 0 Z"/>
      </clipPath>
      <clipPath clipPathUnits="userSpaceOnUse" id="clipPath2">
        <path d="M355.91 -0 L409.47 -0 L409.47 23.1328 L355.91 23.1328 L355.91 -0 Z"/>
      </clipPath>
      <clipPath clipPathUnits="userSpaceOnUse" id="clipPath3">
        <path d="M-130.04 -0 L-72.36 -0 L-72.36 23.1328 L-130.04 23.1328 L-130.04 -0 Z"/>
      </clipPath>
      <clipPath clipPathUnits="userSpaceOnUse" id="clipPath4">
        <path d="M388.9534 -100.3574 C388.9534 -91.3234 350.8021 -84 303.74 -84 C256.6779 -84 218.5266 -91.3234 218.5266 -100.3574 C218.5266 -109.3913 256.6779 -116.7147 303.74 -116.7147 C350.8021 -116.7147 388.9534 -109.3913 388.9534 -100.3574 Z"/>
      </clipPath>
      <clipPath clipPathUnits="userSpaceOnUse" id="clipPath5">
        <path d="M55.105 -107.1328 L112.785 -107.1328 L112.785 -84 L55.105 -84 L55.105 -107.1328 Z"/>
      </clipPath>
      <clipPath clipPathUnits="userSpaceOnUse" id="clipPath6">
        <path d="M0 -0 L167.89 -0 L167.89 44.5938 L0 44.5938 L0 -0 Z"/>
      </clipPath>
      <script type="text/ecmascript"><![CDATA[
function umlload(newLocation)
{
if (newLocation.charAt(0) != '#') {
if (newLocation.indexOf("://") > -1) {
window.parent.location.href = newLocation;
} else {
var tmp = window.parent.location.href;
tmp = tmp.substring(0, tmp.lastIndexOf("/") + 1);
window.parent.location.href = tmp.concat(newLocation);
}
} else {
window.parent.location.hash = newLocation;
}
}
]]></script>
    </defs>
    <g fill="rgb(238,238,255)" transform="matrix(0.9819,0,0,0.9819,136.4893,326.0033)" stroke="rgb(238,238,255)">
      <rect width="76.1412" x="347.91" height="17.9688" y="-26" stroke="none"/>
    </g>
    <g fill="rgb(166,166,178)" stroke-miterlimit="1.45" transform="matrix(0.9819,0,0,0.9819,136.4893,326.0033)" stroke-linecap="butt" stroke="rgb(166,166,178)">
      <rect fill="none" width="76.1412" x="347.91" height="17.9688" y="-26"/>
    </g>
    <g fill="rgb(238,238,255)" transform="matrix(0.9819,0,0,0.9819,136.4893,326.0033)" stroke="rgb(238,238,255)">
      <rect width="79.56" x="347.91" height="39.1641" y="-8.0312" stroke="none"/>
    </g>
    <g fill="rgb(166,166,178)" stroke-miterlimit="1.45" transform="matrix(0.9819,0,0,0.9819,136.4893,326.0033)" stroke-linecap="butt" stroke="rgb(166,166,178)">
      <rect fill="none" width="79.56" x="347.91" height="39.1641" y="-8.0312"/>
    </g>
    <g font-family="sans-serif" transform="matrix(0.9819,0,0,0.9819,136.4893,326.0033)">
      <text xml:space="preserve" x="353.91" y="-12.8613" onclick="umlload('http://docs.oracle.com/javase/6/docs/api/java/lang/package-summary.html')" stroke="none">java.lang</text>
    </g>
    <g fill="rgb(187,187,255)" transform="matrix(0.9819,0,0,0.9819,136.4893,326.0033)" stroke="rgb(187,187,255)">
      <rect x="355.91" y="0" clip-path="url(#clipPath2)" width="53.56" height="23.1328" stroke="none"/>
    </g>
    <g fill="rgb(130,130,178)" stroke-miterlimit="1.45" transform="matrix(0.9819,0,0,0.9819,136.4893,326.0033)" stroke-linecap="butt" stroke="rgb(130,130,178)">
      <rect fill="none" width="53.56" x="355.91" height="23.1328" y="0"/>
    </g>
    <g font-size="13" font-weight="bold" font-family="sans-serif" transform="matrix(0.9819,0,0,0.9819,136.4893,326.0033)">
      <text xml:space="preserve" x="360.69" y="16.0669" onclick="umlload('http://docs.oracle.com/javase/6/docs/api/java/lang/String.html')" stroke="none">String</text>
    </g>
    <g fill="rgb(238,238,255)" transform="matrix(0.9819,0,0,0.9819,136.4893,326.0033)" stroke="rgb(238,238,255)">
      <rect width="76.1412" x="-138.04" height="17.9688" y="-26" stroke="none"/>
    </g>
    <g fill="rgb(166,166,178)" stroke-miterlimit="1.45" transform="matrix(0.9819,0,0,0.9819,136.4893,326.0033)" stroke-linecap="butt" stroke="rgb(166,166,178)">
      <rect fill="none" width="76.1412" x="-138.04" height="17.9688" y="-26"/>
    </g>
    <g fill="rgb(238,238,255)" transform="matrix(0.9819,0,0,0.9819,136.4893,326.0033)" stroke="rgb(238,238,255)">
      <rect width="79.68" x="-138.04" height="39.1641" y="-8.0312" stroke="none"/>
    </g>
    <g fill="rgb(166,166,178)" stroke-miterlimit="1.45" transform="matrix(0.9819,0,0,0.9819,136.4893,326.0033)" stroke-linecap="butt" stroke="rgb(166,166,178)">
      <rect fill="none" width="79.68" x="-138.04" height="39.1641" y="-8.0312"/>
    </g>
    <g font-family="sans-serif" transform="matrix(0.9819,0,0,0.9819,136.4893,326.0033)">
      <text xml:space="preserve" x="-132.04" y="-12.8613" onclick="umlload('http://docs.oracle.com/javase/6/docs/api/java/lang/package-summary.html')" stroke="none">java.lang</text>
    </g>
    <g fill="rgb(187,187,255)" transform="matrix(0.9819,0,0,0.9819,136.4893,326.0033)" stroke="rgb(187,187,255)">
      <rect x="-130.04" y="0" clip-path="url(#clipPath3)" width="57.68" height="23.1328" stroke="none"/>
    </g>
    <g fill="rgb(130,130,178)" stroke-miterlimit="1.45" transform="matrix(0.9819,0,0,0.9819,136.4893,326.0033)" stroke-linecap="butt" stroke="rgb(130,130,178)">
      <rect fill="none" width="57.68" x="-130.04" height="23.1328" y="0"/>
    </g>
    <g font-size="13" font-weight="bold" font-family="sans-serif" transform="matrix(0.9819,0,0,0.9819,136.4893,326.0033)">
      <text xml:space="preserve" x="-125.2" y="16.0669" onclick="umlload('http://docs.oracle.com/javase/6/docs/api/java/lang/Object.html')" stroke="none">Object</text>
    </g>
    <g fill="rgb(238,238,255)" transform="matrix(0.9819,0,0,0.9819,136.4893,326.0033)" stroke="rgb(238,238,255)">
      <rect width="319.0873" x="150.5266" height="17.9688" y="-142.7147" stroke="none"/>
    </g>
    <g fill="rgb(166,166,178)" stroke-miterlimit="1.45" transform="matrix(0.9819,0,0,0.9819,136.4893,326.0033)" stroke-linecap="butt" stroke="rgb(166,166,178)">
      <rect fill="none" width="319.0873" x="150.5266" height="17.9688" y="-142.7147"/>
    </g>
    <g fill="rgb(238,238,255)" transform="matrix(0.9819,0,0,0.9819,136.4893,326.0033)" stroke="rgb(238,238,255)">
      <rect width="319.4269" x="150.5266" height="48.746" y="-124.746" stroke="none"/>
    </g>
    <g fill="rgb(166,166,178)" stroke-miterlimit="1.45" transform="matrix(0.9819,0,0,0.9819,136.4893,326.0033)" stroke-linecap="butt" stroke="rgb(166,166,178)">
      <rect fill="none" width="319.4269" x="150.5266" height="48.746" y="-124.746"/>
    </g>
    <g font-family="sans-serif" transform="matrix(0.9819,0,0,0.9819,136.4893,326.0033)">
      <text xml:space="preserve" x="156.5266" y="-129.5761" onclick="umlload('../../../../../../com/msopentech/odatajclient/engine/uri/filter/package-summary.html')" stroke="none">com.msopentech.odatajclient.engine.uri.filter</text>
    </g>
    <g fill="rgb(221,221,255)" transform="matrix(0.9819,0,0,0.9819,136.4893,326.0033)" stroke="rgb(221,221,255)">
      <rect x="218.5266" y="-116.7147" clip-path="url(#clipPath4)" width="170.4269" height="32.7147" stroke="none"/>
    </g>
    <g fill="rgb(154,154,178)" stroke-miterlimit="1.45" transform="matrix(0.9819,0,0,0.9819,136.4893,326.0033)" stroke-linecap="butt" stroke="rgb(154,154,178)">
      <ellipse rx="85.2134" fill="none" ry="16.3574" cx="303.74" cy="-100.3574"/>
    </g>
    <g font-style="italic" font-size="13" font-weight="bold" font-family="sans-serif" transform="matrix(0.9819,0,0,0.9819,136.4893,326.0033)">
      <text xml:space="preserve" x="249.24" y="-95.8569" onclick="umlload('../../../../../../com/msopentech/odatajclient/engine/uri/filter/ODataFilterArg.html')" stroke="none">ODataFilterArg</text>
    </g>
    <g fill="rgb(238,238,255)" transform="matrix(0.9819,0,0,0.9819,136.4893,326.0033)" stroke="rgb(238,238,255)">
      <rect width="76.1412" x="47.105" height="17.9688" y="-133.1328" stroke="none"/>
    </g>
    <g fill="rgb(166,166,178)" stroke-miterlimit="1.45" transform="matrix(0.9819,0,0,0.9819,136.4893,326.0033)" stroke-linecap="butt" stroke="rgb(166,166,178)">
      <rect fill="none" width="76.1412" x="47.105" height="17.9688" y="-133.1328"/>
    </g>
    <g fill="rgb(238,238,255)" transform="matrix(0.9819,0,0,0.9819,136.4893,326.0033)" stroke="rgb(238,238,255)">
      <rect width="76.1412" x="47.105" height="39.1641" y="-115.1641" stroke="none"/>
    </g>
    <g fill="rgb(166,166,178)" stroke-miterlimit="1.45" transform="matrix(0.9819,0,0,0.9819,136.4893,326.0033)" stroke-linecap="butt" stroke="rgb(166,166,178)">
      <rect fill="none" width="76.1412" x="47.105" height="39.1641" y="-115.1641"/>
    </g>
    <g font-family="sans-serif" transform="matrix(0.9819,0,0,0.9819,136.4893,326.0033)">
      <text xml:space="preserve" x="53.105" y="-119.9941" onclick="umlload('http://docs.oracle.com/javase/6/docs/api/java/lang/package-summary.html')" stroke="none">java.lang</text>
    </g>
    <g fill="rgb(187,187,255)" transform="matrix(0.9819,0,0,0.9819,136.4893,326.0033)" stroke="rgb(187,187,255)">
      <rect x="55.105" y="-107.1328" clip-path="url(#clipPath5)" width="57.68" height="23.1328" stroke="none"/>
    </g>
    <g fill="rgb(130,130,178)" stroke-miterlimit="1.45" transform="matrix(0.9819,0,0,0.9819,136.4893,326.0033)" stroke-linecap="butt" stroke="rgb(130,130,178)">
      <rect fill="none" width="57.68" x="55.105" height="23.1328" y="-107.1328"/>
    </g>
    <g font-size="13" font-weight="bold" font-family="sans-serif" transform="matrix(0.9819,0,0,0.9819,136.4893,326.0033)">
      <text xml:space="preserve" x="59.945" y="-91.0659" onclick="umlload('http://docs.oracle.com/javase/6/docs/api/java/lang/Object.html')" stroke="none">Object</text>
    </g>
    <g fill="rgb(238,238,255)" transform="matrix(0.9819,0,0,0.9819,136.4893,326.0033)" stroke="rgb(238,238,255)">
      <rect width="319.0873" x="-8" height="17.9688" y="-26" stroke="none"/>
    </g>
    <g fill="rgb(166,166,178)" stroke-miterlimit="1.45" transform="matrix(0.9819,0,0,0.9819,136.4893,326.0033)" stroke-linecap="butt" stroke="rgb(166,166,178)">
      <rect fill="none" width="319.0873" x="-8" height="17.9688" y="-26"/>
    </g>
    <g fill="rgb(238,238,255)" transform="matrix(0.9819,0,0,0.9819,136.4893,326.0033)" stroke="rgb(238,238,255)">
      <rect width="319.0873" x="-8" height="60.625" y="-8.0312" stroke="none"/>
    </g>
    <g fill="rgb(166,166,178)" stroke-miterlimit="1.45" transform="matrix(0.9819,0,0,0.9819,136.4893,326.0033)" stroke-linecap="butt" stroke="rgb(166,166,178)">
      <rect fill="none" width="319.0873" x="-8" height="60.625" y="-8.0312"/>
    </g>
    <g font-family="sans-serif" transform="matrix(0.9819,0,0,0.9819,136.4893,326.0033)">
      <text xml:space="preserve" x="-2" y="-12.8613" onclick="umlload('package-summary.html')" stroke="none">com.msopentech.odatajclient.engine.uri.filter</text>
    </g>
    <g fill="rgb(187,187,255)" transform="matrix(0.9819,0,0,0.9819,136.4893,326.0033)" stroke="rgb(187,187,255)">
      <rect x="0" y="0" clip-path="url(#clipPath6)" width="167.89" height="26.625" stroke="none"/>
      <line clip-path="url(#clipPath6)" fill="none" x1="0" x2="167.89" y1="26.625" y2="26.625" stroke="black"/>
      <line clip-path="url(#clipPath6)" x1="0" x2="167.89" y1="27.625" y2="27.625" stroke="none"/>
      <line clip-path="url(#clipPath6)" fill="none" x1="0" x2="167.89" y1="27.625" y2="27.625" stroke="black"/>
      <rect x="0" y="28.625" clip-path="url(#clipPath6)" width="167.89" height="15.9688" stroke="none"/>
    </g>
    <g fill="rgb(130,130,178)" stroke-miterlimit="1.45" transform="matrix(0.9819,0,0,0.9819,136.4893,326.0033)" stroke-linecap="butt" stroke="rgb(130,130,178)">
      <rect fill="none" width="167.89" x="0" height="44.5938" y="0"/>
    </g>
    <g font-size="16" font-weight="bold" font-family="sans-serif" transform="matrix(0.9819,0,0,0.9819,136.4893,326.0033)">
      <text xml:space="preserve" x="6.445" y="18.8516" onclick="umlload('#')" stroke="none">ODataFilterLiteral</text>
    </g>
    <g font-family="sans-serif" transform="matrix(0.9819,0,0,0.9819,136.4893,326.0033)">
      <text xml:space="preserve" x="4" y="39.1719" stroke="none">+</text>
      <text xml:space="preserve" x="19" y="40.7637" onclick="umlload('#build()')" stroke="none">build() : String</text>
    </g>
    <g font-family="sans-serif" transform="matrix(0.9819,0,0,0.9819,136.4893,326.0033)">
      <text xml:space="preserve" x="-133" y="77.1543" onclick="umlload('http://www.yworks.com/')" stroke="none">yWorks UML Doclet</text>
    </g>
    <g stroke-miterlimit="1.45" transform="matrix(0.9819,0,0,0.9819,136.4893,326.0033)" stroke-linecap="butt">
      <path fill="none" d="M83.945 0 L83.945 -69"/>
      <path fill="white" d="M83.945 -84 L77.945 -68 L89.945 -68 Z" stroke="none"/>
      <path fill="none" d="M83.945 -84 L77.945 -68 L89.945 -68 Z"/>
      <path fill="none" stroke-dasharray="6,2" d="M125.9175 0 L125.9175 -51 L303.74 -51 L303.74 -69"/>
      <path fill="white" stroke-dasharray="6,2" d="M303.74 -84 L297.74 -68 L309.74 -68 Z" stroke="none"/>
      <path fill="none" d="M303.74 -84 L297.74 -68 L309.74 -68 Z"/>
      <path fill="none" d="M0.006 11.5664 L-72.36 11.5664"/>
      <line stroke-linecap="square" transform="matrix(-1,0,0,-1,-72.36,11.5664)" fill="none" x1="0" x2="-14" y1="0" y2="-4" stroke-miterlimit="10"/>
      <line stroke-linecap="square" transform="matrix(-1,0,0,-1,-72.36,11.5664)" fill="none" x1="0" x2="-14" y1="0" y2="4" stroke-miterlimit="10"/>
    </g>
    <g stroke-dasharray="6,2" stroke-miterlimit="1.45" transform="matrix(0.9819,0,0,0.9819,136.4893,326.0033)" stroke-linecap="butt">
      <path fill="none" d="M167.8576 11.5664 L355.91 11.5664"/>
      <line stroke-linecap="square" transform="matrix(1,0,0,1,355.91,11.5664)" fill="none" x1="0" x2="-14" y1="0" y2="-4" stroke-dasharray="none" stroke-miterlimit="10"/>
      <line stroke-linecap="square" transform="matrix(1,0,0,1,355.91,11.5664)" fill="none" x1="0" x2="-14" y1="0" y2="4" stroke-dasharray="none" stroke-miterlimit="10"/>
    </g>
  </g>
</svg>
