<?xml version="1.0" encoding="UTF-8"?><svg xmlns="http://www.w3.org/2000/svg" xmlns:xlink="http://www.w3.org/1999/xlink" fill-opacity="1" color-rendering="auto" color-interpolation="auto" stroke="black" text-rendering="auto" stroke-linecap="square" width="598" stroke-miterlimit="10" stroke-opacity="1" shape-rendering="auto" fill="black" stroke-dasharray="none" font-weight="normal" stroke-width="1" height="598" font-family="'Dialog'" font-style="normal" stroke-linejoin="miter" font-size="12" stroke-dashoffset="0" image-rendering="auto">
  <!--Generated by ySVG-->
  <defs id="genericDefs"/>
  <g>
    <defs id="defs1">
      <clipPath clipPathUnits="userSpaceOnUse" id="clipPath1">
        <path d="M0 0 L598 0 L598 598 L0 598 L0 0 Z"/>
      </clipPath>
      <clipPath clipPathUnits="userSpaceOnUse" id="clipPath2">
        <path d="M355.91 0 L409.47 0 L409.47 23.1328 L355.91 23.1328 L355.91 0 Z"/>
      </clipPath>
      <clipPath clipPathUnits="userSpaceOnUse" id="clipPath3">
        <path d="M-231.8991 16.3574 C-231.8991 25.3913 -261.8985 32.7147 -298.9046 32.7147 C-335.9106 32.7147 -365.91 25.3913 -365.91 16.3574 C-365.91 7.3234 -335.9106 0 -298.9046 0 C-261.8985 0 -231.8991 7.3234 -231.8991 16.3574 Z"/>
      </clipPath>
      <clipPath clipPathUnits="userSpaceOnUse" id="clipPath4">
        <path d="M403.1904 -100.3574 C403.1904 -91.3234 373.1911 -84 336.185 -84 C299.1789 -84 269.1796 -91.3234 269.1796 -100.3574 C269.1796 -109.3913 299.1789 -116.7147 336.185 -116.7147 C373.1911 -116.7147 403.1904 -109.3913 403.1904 -100.3574 Z"/>
      </clipPath>
      <clipPath clipPathUnits="userSpaceOnUse" id="clipPath5">
        <path d="M87.55 -107.1328 L145.23 -107.1328 L145.23 -84 L87.55 -84 L87.55 -107.1328 Z"/>
      </clipPath>
      <clipPath clipPathUnits="userSpaceOnUse" id="clipPath6">
        <path d="M0 0 L232.78 0 L232.78 60.5625 L0 60.5625 L0 0 Z"/>
      </clipPath>
      <script type="text/ecmascript"><![CDATA[
function umlload(newLocation)
{
if (newLocation.charAt(0) != '#') {
if (newLocation.indexOf("://") > -1) {
window.parent.location.href = newLocation;
} else {
var tmp = window.parent.location.href;
tmp = tmp.substring(0, tmp.lastIndexOf("/") + 1);
window.parent.location.href = tmp.concat(newLocation);
}
} else {
window.parent.location.hash = newLocation;
}
}
]]></script>
    </defs>
    <g fill="rgb(238,238,255)" transform="matrix(0.6819,0,0,0.6819,255.0194,312.2965)" stroke="rgb(238,238,255)">
      <rect width="76.1412" x="347.91" height="17.9688" y="-26" stroke="none"/>
    </g>
    <g fill="rgb(166,166,178)" stroke-miterlimit="1.45" transform="matrix(0.6819,0,0,0.6819,255.0194,312.2965)" stroke-linecap="butt" stroke="rgb(166,166,178)">
      <rect fill="none" width="76.1412" x="347.91" height="17.9688" y="-26"/>
    </g>
    <g fill="rgb(238,238,255)" transform="matrix(0.6819,0,0,0.6819,255.0194,312.2965)" stroke="rgb(238,238,255)">
      <rect width="79.56" x="347.91" height="39.1641" y="-8.0312" stroke="none"/>
    </g>
    <g fill="rgb(166,166,178)" stroke-miterlimit="1.45" transform="matrix(0.6819,0,0,0.6819,255.0194,312.2965)" stroke-linecap="butt" stroke="rgb(166,166,178)">
      <rect fill="none" width="79.56" x="347.91" height="39.1641" y="-8.0312"/>
    </g>
    <g font-family="sans-serif" transform="matrix(0.6819,0,0,0.6819,255.0194,312.2965)">
      <text xml:space="preserve" x="353.91" y="-12.8613" onclick="umlload('http://docs.oracle.com/javase/6/docs/api/java/lang/package-summary.html')" stroke="none">java.lang</text>
    </g>
    <g fill="rgb(187,187,255)" transform="matrix(0.6819,0,0,0.6819,255.0194,312.2965)" stroke="rgb(187,187,255)">
      <rect x="355.91" y="0" clip-path="url(#clipPath2)" width="53.56" height="23.1328" stroke="none"/>
    </g>
    <g fill="rgb(130,130,178)" stroke-miterlimit="1.45" transform="matrix(0.6819,0,0,0.6819,255.0194,312.2965)" stroke-linecap="butt" stroke="rgb(130,130,178)">
      <rect fill="none" width="53.56" x="355.91" height="23.1328" y="0"/>
    </g>
    <g font-size="13" font-weight="bold" font-family="sans-serif" transform="matrix(0.6819,0,0,0.6819,255.0194,312.2965)">
      <text xml:space="preserve" x="360.69" y="16.0669" onclick="umlload('http://docs.oracle.com/javase/6/docs/api/java/lang/String.html')" stroke="none">String</text>
    </g>
    <g fill="rgb(238,238,255)" transform="matrix(0.6819,0,0,0.6819,255.0194,312.2965)" stroke="rgb(238,238,255)">
      <rect width="319.0873" x="-373.91" height="17.9688" y="-26" stroke="none"/>
    </g>
    <g fill="rgb(166,166,178)" stroke-miterlimit="1.45" transform="matrix(0.6819,0,0,0.6819,255.0194,312.2965)" stroke-linecap="butt" stroke="rgb(166,166,178)">
      <rect fill="none" width="319.0873" x="-373.91" height="17.9688" y="-26"/>
    </g>
    <g fill="rgb(238,238,255)" transform="matrix(0.6819,0,0,0.6819,255.0194,312.2965)" stroke="rgb(238,238,255)">
      <rect width="319.0873" x="-373.91" height="48.746" y="-8.0312" stroke="none"/>
    </g>
    <g fill="rgb(166,166,178)" stroke-miterlimit="1.45" transform="matrix(0.6819,0,0,0.6819,255.0194,312.2965)" stroke-linecap="butt" stroke="rgb(166,166,178)">
      <rect fill="none" width="319.0873" x="-373.91" height="48.746" y="-8.0312"/>
    </g>
    <g font-family="sans-serif" transform="matrix(0.6819,0,0,0.6819,255.0194,312.2965)">
      <text xml:space="preserve" x="-367.91" y="-12.8613" onclick="umlload('../../../../../../com/msopentech/odatajclient/engine/uri/filter/package-summary.html')" stroke="none">com.msopentech.odatajclient.engine.uri.filter</text>
    </g>
    <g fill="rgb(221,221,255)" transform="matrix(0.6819,0,0,0.6819,255.0194,312.2965)" stroke="rgb(221,221,255)">
      <rect x="-365.91" y="0" clip-path="url(#clipPath3)" width="134.0109" height="32.7147" stroke="none"/>
    </g>
    <g fill="rgb(154,154,178)" stroke-miterlimit="1.45" transform="matrix(0.6819,0,0,0.6819,255.0194,312.2965)" stroke-linecap="butt" stroke="rgb(154,154,178)">
      <ellipse rx="67.0054" fill="none" ry="16.3574" cx="-298.9046" cy="16.3574"/>
    </g>
    <g font-style="italic" font-size="13" font-weight="bold" font-family="sans-serif" transform="matrix(0.6819,0,0,0.6819,255.0194,312.2965)">
      <text xml:space="preserve" x="-340.9046" y="20.8579" onclick="umlload('../../../../../../com/msopentech/odatajclient/engine/uri/filter/ODataFilter.html')" stroke="none">ODataFilter</text>
    </g>
    <g fill="rgb(238,238,255)" transform="matrix(0.6819,0,0,0.6819,255.0194,312.2965)" stroke="rgb(238,238,255)">
      <rect width="319.0873" x="183.1796" height="17.9688" y="-142.7147" stroke="none"/>
    </g>
    <g fill="rgb(166,166,178)" stroke-miterlimit="1.45" transform="matrix(0.6819,0,0,0.6819,255.0194,312.2965)" stroke-linecap="butt" stroke="rgb(166,166,178)">
      <rect fill="none" width="319.0873" x="183.1796" height="17.9688" y="-142.7147"/>
    </g>
    <g fill="rgb(238,238,255)" transform="matrix(0.6819,0,0,0.6819,255.0194,312.2965)" stroke="rgb(238,238,255)">
      <rect width="319.0873" x="183.1796" height="48.746" y="-124.746" stroke="none"/>
    </g>
    <g fill="rgb(166,166,178)" stroke-miterlimit="1.45" transform="matrix(0.6819,0,0,0.6819,255.0194,312.2965)" stroke-linecap="butt" stroke="rgb(166,166,178)">
      <rect fill="none" width="319.0873" x="183.1796" height="48.746" y="-124.746"/>
    </g>
    <g font-family="sans-serif" transform="matrix(0.6819,0,0,0.6819,255.0194,312.2965)">
      <text xml:space="preserve" x="189.1796" y="-129.5761" onclick="umlload('../../../../../../com/msopentech/odatajclient/engine/uri/filter/package-summary.html')" stroke="none">com.msopentech.odatajclient.engine.uri.filter</text>
    </g>
    <g fill="rgb(221,221,255)" transform="matrix(0.6819,0,0,0.6819,255.0194,312.2965)" stroke="rgb(221,221,255)">
      <rect x="269.1796" y="-116.7147" clip-path="url(#clipPath4)" width="134.0109" height="32.7147" stroke="none"/>
    </g>
    <g fill="rgb(154,154,178)" stroke-miterlimit="1.45" transform="matrix(0.6819,0,0,0.6819,255.0194,312.2965)" stroke-linecap="butt" stroke="rgb(154,154,178)">
      <ellipse rx="67.0054" fill="none" ry="16.3574" cx="336.185" cy="-100.3574"/>
    </g>
    <g font-style="italic" font-size="13" font-weight="bold" font-family="sans-serif" transform="matrix(0.6819,0,0,0.6819,255.0194,312.2965)">
      <text xml:space="preserve" x="294.185" y="-95.8569" onclick="umlload('../../../../../../com/msopentech/odatajclient/engine/uri/filter/ODataFilter.html')" stroke="none">ODataFilter</text>
    </g>
    <g fill="rgb(238,238,255)" transform="matrix(0.6819,0,0,0.6819,255.0194,312.2965)" stroke="rgb(238,238,255)">
      <rect width="76.1412" x="79.55" height="17.9688" y="-133.1328" stroke="none"/>
    </g>
    <g fill="rgb(166,166,178)" stroke-miterlimit="1.45" transform="matrix(0.6819,0,0,0.6819,255.0194,312.2965)" stroke-linecap="butt" stroke="rgb(166,166,178)">
      <rect fill="none" width="76.1412" x="79.55" height="17.9688" y="-133.1328"/>
    </g>
    <g fill="rgb(238,238,255)" transform="matrix(0.6819,0,0,0.6819,255.0194,312.2965)" stroke="rgb(238,238,255)">
      <rect width="76.1412" x="79.55" height="39.1641" y="-115.1641" stroke="none"/>
    </g>
    <g fill="rgb(166,166,178)" stroke-miterlimit="1.45" transform="matrix(0.6819,0,0,0.6819,255.0194,312.2965)" stroke-linecap="butt" stroke="rgb(166,166,178)">
      <rect fill="none" width="76.1412" x="79.55" height="39.1641" y="-115.1641"/>
    </g>
    <g font-family="sans-serif" transform="matrix(0.6819,0,0,0.6819,255.0194,312.2965)">
      <text xml:space="preserve" x="85.55" y="-119.9941" onclick="umlload('http://docs.oracle.com/javase/6/docs/api/java/lang/package-summary.html')" stroke="none">java.lang</text>
    </g>
    <g fill="rgb(187,187,255)" transform="matrix(0.6819,0,0,0.6819,255.0194,312.2965)" stroke="rgb(187,187,255)">
      <rect x="87.55" y="-107.1328" clip-path="url(#clipPath5)" width="57.68" height="23.1328" stroke="none"/>
    </g>
    <g fill="rgb(130,130,178)" stroke-miterlimit="1.45" transform="matrix(0.6819,0,0,0.6819,255.0194,312.2965)" stroke-linecap="butt" stroke="rgb(130,130,178)">
      <rect fill="none" width="57.68" x="87.55" height="23.1328" y="-107.1328"/>
    </g>
    <g font-size="13" font-weight="bold" font-family="sans-serif" transform="matrix(0.6819,0,0,0.6819,255.0194,312.2965)">
      <text xml:space="preserve" x="92.39" y="-91.0659" onclick="umlload('http://docs.oracle.com/javase/6/docs/api/java/lang/Object.html')" stroke="none">Object</text>
    </g>
    <g fill="rgb(238,238,255)" transform="matrix(0.6819,0,0,0.6819,255.0194,312.2965)" stroke="rgb(238,238,255)">
      <rect width="319.0873" x="-8" height="17.9688" y="-26" stroke="none"/>
    </g>
    <g fill="rgb(166,166,178)" stroke-miterlimit="1.45" transform="matrix(0.6819,0,0,0.6819,255.0194,312.2965)" stroke-linecap="butt" stroke="rgb(166,166,178)">
      <rect fill="none" width="319.0873" x="-8" height="17.9688" y="-26"/>
    </g>
    <g fill="rgb(238,238,255)" transform="matrix(0.6819,0,0,0.6819,255.0194,312.2965)" stroke="rgb(238,238,255)">
      <rect width="319.0873" x="-8" height="76.5938" y="-8.0312" stroke="none"/>
    </g>
    <g fill="rgb(166,166,178)" stroke-miterlimit="1.45" transform="matrix(0.6819,0,0,0.6819,255.0194,312.2965)" stroke-linecap="butt" stroke="rgb(166,166,178)">
      <rect fill="none" width="319.0873" x="-8" height="76.5938" y="-8.0312"/>
    </g>
    <g font-family="sans-serif" transform="matrix(0.6819,0,0,0.6819,255.0194,312.2965)">
      <text xml:space="preserve" x="-2" y="-12.8613" onclick="umlload('package-summary.html')" stroke="none">com.msopentech.odatajclient.engine.uri.filter</text>
    </g>
    <g fill="rgb(187,187,255)" transform="matrix(0.6819,0,0,0.6819,255.0194,312.2965)" stroke="rgb(187,187,255)">
      <rect x="0" y="0" clip-path="url(#clipPath6)" width="232.78" height="26.625" stroke="none"/>
      <line clip-path="url(#clipPath6)" fill="none" x1="0" x2="232.78" y1="26.625" y2="26.625" stroke="black"/>
      <rect x="0" y="27.625" clip-path="url(#clipPath6)" width="232.78" height="15.9688" stroke="none"/>
      <line clip-path="url(#clipPath6)" fill="none" x1="0" x2="232.78" y1="43.5938" y2="43.5938" stroke="black"/>
      <rect x="0" y="44.5938" clip-path="url(#clipPath6)" width="232.78" height="15.9688" stroke="none"/>
    </g>
    <g fill="rgb(130,130,178)" stroke-miterlimit="1.45" transform="matrix(0.6819,0,0,0.6819,255.0194,312.2965)" stroke-linecap="butt" stroke="rgb(130,130,178)">
      <rect fill="none" width="232.78" x="0" height="60.5625" y="0"/>
    </g>
    <g font-size="16" font-weight="bold" font-family="sans-serif" transform="matrix(0.6819,0,0,0.6819,255.0194,312.2965)">
      <text xml:space="preserve" x="82.89" y="18.8516" onclick="umlload('#')" stroke="none">OrFilter</text>
    </g>
    <g font-family="sans-serif" transform="matrix(0.6819,0,0,0.6819,255.0194,312.2965)">
      <text xml:space="preserve" x="4" y="38.1719" stroke="none">+</text>
      <text xml:space="preserve" x="19" y="39.7637" onclick="umlload('#OrFilter(com.msopentech.odatajclient.engine.uri.filter.ODataFilter, com.msopentech.odatajclient.engine.uri.filter.ODataFilter)')" stroke="none">OrFilter(ODataFilter, ODataFilter)</text>
    </g>
    <g font-family="sans-serif" transform="matrix(0.6819,0,0,0.6819,255.0194,312.2965)">
      <text xml:space="preserve" x="4" y="55.1719" stroke="none">+</text>
      <text xml:space="preserve" x="19" y="56.7324" onclick="umlload('#build()')" stroke="none">build() : String</text>
    </g>
    <g font-family="sans-serif" transform="matrix(0.6819,0,0,0.6819,255.0194,312.2965)">
      <text xml:space="preserve" x="-368" y="93.1543" onclick="umlload('http://www.yworks.com/')" stroke="none">yWorks UML Doclet</text>
    </g>
    <g stroke-miterlimit="1.45" transform="matrix(0.6819,0,0,0.6819,255.0194,312.2965)" stroke-linecap="butt">
      <path fill="none" d="M116.39 0 L116.39 -69"/>
      <path fill="white" d="M116.39 -84 L110.39 -68 L122.39 -68 Z" stroke="none"/>
      <path fill="none" d="M116.39 -84 L110.39 -68 L122.39 -68 Z"/>
      <path fill="none" stroke-dasharray="6,2" d="M174.585 -0.0008 L174.585 -51 L336.185 -51 L336.185 -69"/>
      <path fill="white" stroke-dasharray="6,2" d="M336.185 -84 L330.185 -68 L342.185 -68 Z" stroke="none"/>
      <path fill="none" d="M336.185 -84 L330.185 -68 L342.185 -68 Z"/>
      <path fill="none" d="M0.0193 16.3574 L-231.8991 16.3574"/>
      <line stroke-linecap="square" transform="matrix(-1,0,0,-1,-231.8991,16.3574)" fill="none" x1="0" x2="-14" y1="0" y2="-4" stroke-miterlimit="10"/>
      <line stroke-linecap="square" transform="matrix(-1,0,0,-1,-231.8991,16.3574)" fill="none" x1="0" x2="-14" y1="0" y2="4" stroke-miterlimit="10"/>
    </g>
    <g stroke-dasharray="6,2" stroke-miterlimit="1.45" transform="matrix(0.6819,0,0,0.6819,255.0194,312.2965)" stroke-linecap="butt">
      <path fill="none" d="M232.7987 11.5664 L355.91 11.5664"/>
      <line stroke-linecap="square" transform="matrix(1,0,0,1,355.91,11.5664)" fill="none" x1="0" x2="-14" y1="0" y2="-4" stroke-dasharray="none" stroke-miterlimit="10"/>
      <line stroke-linecap="square" transform="matrix(1,0,0,1,355.91,11.5664)" fill="none" x1="0" x2="-14" y1="0" y2="4" stroke-dasharray="none" stroke-miterlimit="10"/>
    </g>
  </g>
</svg>
