<?xml version="1.0" encoding="UTF-8"?><svg xmlns="http://www.w3.org/2000/svg" xmlns:xlink="http://www.w3.org/1999/xlink" fill-opacity="1" color-rendering="auto" color-interpolation="auto" stroke="black" text-rendering="auto" stroke-linecap="square" width="598" stroke-miterlimit="10" stroke-opacity="1" shape-rendering="auto" fill="black" stroke-dasharray="none" font-weight="normal" stroke-width="1" height="598" font-family="'Dialog'" font-style="normal" stroke-linejoin="miter" font-size="12" stroke-dashoffset="0" image-rendering="auto">
  <!--Generated by ySVG-->
  <defs id="genericDefs"/>
  <g>
    <defs id="defs1">
      <clipPath clipPathUnits="userSpaceOnUse" id="clipPath1">
        <path d="M0 0 L598 0 L598 598 L0 598 L0 0 Z"/>
      </clipPath>
      <clipPath clipPathUnits="userSpaceOnUse" id="clipPath2">
        <path d="M316.0931 42.3574 C316.0931 51.3913 286.0938 58.7147 249.0877 58.7147 C212.0816 58.7147 182.0823 51.3913 182.0823 42.3574 C182.0823 33.3234 212.0816 26 249.0877 26 C286.0938 26 316.0931 33.3234 316.0931 42.3574 Z"/>
      </clipPath>
      <clipPath clipPathUnits="userSpaceOnUse" id="clipPath3">
        <path d="M463.5662 193.2049 C463.5662 202.2388 425.4149 209.5623 378.3528 209.5623 C331.2907 209.5623 293.1393 202.2388 293.1393 193.2049 C293.1393 184.171 331.2907 176.8475 378.3528 176.8475 C425.4149 176.8475 463.5662 184.171 463.5662 193.2049 Z"/>
      </clipPath>
      <clipPath clipPathUnits="userSpaceOnUse" id="clipPath4">
        <path d="M8 108.7147 L85.25 108.7147 L85.25 131.8475 L8 131.8475 L8 108.7147 Z"/>
      </clipPath>
      <clipPath clipPathUnits="userSpaceOnUse" id="clipPath5">
        <path d="M8 327.6951 L74.95 327.6951 L74.95 350.8279 L8 350.8279 L8 327.6951 Z"/>
      </clipPath>
      <clipPath clipPathUnits="userSpaceOnUse" id="clipPath6">
        <path d="M119.95 327.6951 L187.93 327.6951 L187.93 350.8279 L119.95 350.8279 L119.95 327.6951 Z"/>
      </clipPath>
      <clipPath clipPathUnits="userSpaceOnUse" id="clipPath7">
        <path d="M232.93 327.6951 L297.82 327.6951 L297.82 350.8279 L232.93 350.8279 L232.93 327.6951 Z"/>
      </clipPath>
      <clipPath clipPathUnits="userSpaceOnUse" id="clipPath8">
        <path d="M342.82 327.6951 L407.71 327.6951 L407.71 350.8279 L342.82 350.8279 L342.82 327.6951 Z"/>
      </clipPath>
      <clipPath clipPathUnits="userSpaceOnUse" id="clipPath9">
        <path d="M8 395.8279 L69.8 395.8279 L69.8 418.9607 L8 418.9607 L8 395.8279 Z"/>
      </clipPath>
      <clipPath clipPathUnits="userSpaceOnUse" id="clipPath10">
        <path d="M135.2501 108.7147 L228.9801 108.7147 L228.9801 131.8475 L135.2501 131.8475 L135.2501 108.7147 Z"/>
      </clipPath>
      <clipPath clipPathUnits="userSpaceOnUse" id="clipPath11">
        <path d="M114.8 395.8279 L182.78 395.8279 L182.78 418.9607 L114.8 418.9607 L114.8 395.8279 Z"/>
      </clipPath>
      <clipPath clipPathUnits="userSpaceOnUse" id="clipPath12">
        <path d="M278.9803 108.7147 L353.1403 108.7147 L353.1403 131.8475 L278.9803 131.8475 L278.9803 108.7147 Z"/>
      </clipPath>
      <clipPath clipPathUnits="userSpaceOnUse" id="clipPath13">
        <path d="M227.78 395.8279 L405.97 395.8279 L405.97 418.9607 L227.78 418.9607 L227.78 395.8279 Z"/>
      </clipPath>
      <clipPath clipPathUnits="userSpaceOnUse" id="clipPath14">
        <path d="M8 463.9607 L159.41 463.9607 L159.41 487.0935 L8 487.0935 L8 463.9607 Z"/>
      </clipPath>
      <clipPath clipPathUnits="userSpaceOnUse" id="clipPath15">
        <path d="M8 259.5623 L167.65 259.5623 L167.65 282.6951 L8 282.6951 L8 259.5623 Z"/>
      </clipPath>
      <clipPath clipPathUnits="userSpaceOnUse" id="clipPath16">
        <path d="M217.6502 259.5623 L359.7903 259.5623 L359.7903 282.6951 L217.6502 282.6951 L217.6502 259.5623 Z"/>
      </clipPath>
      <clipPath clipPathUnits="userSpaceOnUse" id="clipPath17">
        <path d="M409.7903 259.5623 L526.1803 259.5623 L526.1803 282.6951 L409.7903 282.6951 L409.7903 259.5623 Z"/>
      </clipPath>
      <clipPath clipPathUnits="userSpaceOnUse" id="clipPath18">
        <path d="M576.1807 259.5623 L736.8607 259.5623 L736.8607 282.6951 L576.1807 282.6951 L576.1807 259.5623 Z"/>
      </clipPath>
      <clipPath clipPathUnits="userSpaceOnUse" id="clipPath19">
        <path d="M403.1403 108.7147 L468.0303 108.7147 L468.0303 131.8475 L403.1403 131.8475 L403.1403 108.7147 Z"/>
      </clipPath>
      <script type="text/ecmascript"><![CDATA[
function umlload(newLocation)
{
if (newLocation.charAt(0) != '#') {
if (newLocation.indexOf("://") > -1) {
window.parent.location.href = newLocation;
} else {
var tmp = window.parent.location.href;
tmp = tmp.substring(0, tmp.lastIndexOf("/") + 1);
window.parent.location.href = tmp.concat(newLocation);
}
} else {
window.parent.location.hash = newLocation;
}
}
]]></script>
    </defs>
    <g fill="rgb(238,238,255)" transform="matrix(0.8027,0,0,0.8027,0,85.8872)" stroke="rgb(238,238,255)">
      <rect width="319.0873" x="0" height="17.9688" y="0" stroke="none"/>
    </g>
    <g fill="rgb(166,166,178)" stroke-miterlimit="1.45" transform="matrix(0.8027,0,0,0.8027,0,85.8872)" stroke-linecap="butt" stroke="rgb(166,166,178)">
      <rect fill="none" width="319.0873" x="0" height="17.9688" y="0"/>
    </g>
    <g fill="rgb(238,238,255)" transform="matrix(0.8027,0,0,0.8027,0,85.8872)" stroke="rgb(238,238,255)">
      <rect width="744.8606" x="0" height="477.1248" y="17.9688" stroke="none"/>
    </g>
    <g fill="rgb(166,166,178)" stroke-miterlimit="1.45" transform="matrix(0.8027,0,0,0.8027,0,85.8872)" stroke-linecap="butt" stroke="rgb(166,166,178)">
      <rect fill="none" width="744.8606" x="0" height="477.1248" y="17.9688"/>
    </g>
    <g font-family="sans-serif" transform="matrix(0.8027,0,0,0.8027,0,85.8872)">
      <text xml:space="preserve" x="6" y="13.1387" onclick="umlload('#')" stroke="none">com.msopentech.odatajclient.engine.uri.filter</text>
    </g>
    <g fill="rgb(221,221,255)" transform="matrix(0.8027,0,0,0.8027,0,85.8872)" stroke="rgb(221,221,255)">
      <rect x="182.0823" y="26" clip-path="url(#clipPath2)" width="134.0109" height="32.7147" stroke="none"/>
    </g>
    <g fill="rgb(154,154,178)" stroke-miterlimit="1.45" transform="matrix(0.8027,0,0,0.8027,0,85.8872)" stroke-linecap="butt" stroke="rgb(154,154,178)">
      <ellipse rx="67.0054" fill="none" ry="16.3574" cx="249.0877" cy="42.3574"/>
    </g>
    <g font-style="italic" font-size="13" font-weight="bold" font-family="sans-serif" transform="matrix(0.8027,0,0,0.8027,0,85.8872)">
      <text xml:space="preserve" x="207.0877" y="46.8579" onclick="umlload('ODataFilter.html')" stroke="none">ODataFilter</text>
    </g>
    <g fill="rgb(221,221,255)" transform="matrix(0.8027,0,0,0.8027,0,85.8872)" stroke="rgb(221,221,255)">
      <rect x="293.1393" y="176.8475" clip-path="url(#clipPath3)" width="170.4269" height="32.7147" stroke="none"/>
    </g>
    <g fill="rgb(154,154,178)" stroke-miterlimit="1.45" transform="matrix(0.8027,0,0,0.8027,0,85.8872)" stroke-linecap="butt" stroke="rgb(154,154,178)">
      <ellipse rx="85.2134" fill="none" ry="16.3574" cx="378.3528" cy="193.2049"/>
    </g>
    <g font-style="italic" font-size="13" font-weight="bold" font-family="sans-serif" transform="matrix(0.8027,0,0,0.8027,0,85.8872)">
      <text xml:space="preserve" x="323.8528" y="197.7054" onclick="umlload('ODataFilterArg.html')" stroke="none">ODataFilterArg</text>
    </g>
    <g fill="rgb(187,187,255)" transform="matrix(0.8027,0,0,0.8027,0,85.8872)" stroke="rgb(187,187,255)">
      <rect x="8" y="108.7147" clip-path="url(#clipPath4)" width="77.25" height="23.1328" stroke="none"/>
    </g>
    <g fill="rgb(130,130,178)" stroke-miterlimit="1.45" transform="matrix(0.8027,0,0,0.8027,0,85.8872)" stroke-linecap="butt" stroke="rgb(130,130,178)">
      <rect fill="none" width="77.25" x="8" height="23.1328" y="108.7147"/>
    </g>
    <g font-size="13" font-weight="bold" font-family="sans-serif" transform="matrix(0.8027,0,0,0.8027,0,85.8872)">
      <text xml:space="preserve" x="13.125" y="124.7816" onclick="umlload('AndFilter.html')" stroke="none">AndFilter</text>
    </g>
    <g fill="rgb(187,187,255)" transform="matrix(0.8027,0,0,0.8027,0,85.8872)" stroke="rgb(187,187,255)">
      <rect x="8" y="327.6951" clip-path="url(#clipPath5)" width="66.95" height="23.1328" stroke="none"/>
    </g>
    <g fill="rgb(130,130,178)" stroke-miterlimit="1.45" transform="matrix(0.8027,0,0,0.8027,0,85.8872)" stroke-linecap="butt" stroke="rgb(130,130,178)">
      <rect fill="none" width="66.95" x="8" height="23.1328" y="327.6951"/>
    </g>
    <g font-size="13" font-weight="bold" font-family="sans-serif" transform="matrix(0.8027,0,0,0.8027,0,85.8872)">
      <text xml:space="preserve" x="12.975" y="343.762" onclick="umlload('EqFilter.html')" stroke="none">EqFilter</text>
    </g>
    <g fill="rgb(187,187,255)" transform="matrix(0.8027,0,0,0.8027,0,85.8872)" stroke="rgb(187,187,255)">
      <rect x="119.95" y="327.6951" clip-path="url(#clipPath6)" width="67.98" height="23.1328" stroke="none"/>
    </g>
    <g fill="rgb(130,130,178)" stroke-miterlimit="1.45" transform="matrix(0.8027,0,0,0.8027,0,85.8872)" stroke-linecap="butt" stroke="rgb(130,130,178)">
      <rect fill="none" width="67.98" x="119.95" height="23.1328" y="327.6951"/>
    </g>
    <g font-size="13" font-weight="bold" font-family="sans-serif" transform="matrix(0.8027,0,0,0.8027,0,85.8872)">
      <text xml:space="preserve" x="124.94" y="343.762" onclick="umlload('GeFilter.html')" stroke="none">GeFilter</text>
    </g>
    <g fill="rgb(187,187,255)" transform="matrix(0.8027,0,0,0.8027,0,85.8872)" stroke="rgb(187,187,255)">
      <rect x="232.93" y="327.6951" clip-path="url(#clipPath7)" width="64.89" height="23.1328" stroke="none"/>
    </g>
    <g fill="rgb(130,130,178)" stroke-miterlimit="1.45" transform="matrix(0.8027,0,0,0.8027,0,85.8872)" stroke-linecap="butt" stroke="rgb(130,130,178)">
      <rect fill="none" width="64.89" x="232.93" height="23.1328" y="327.6951"/>
    </g>
    <g font-size="13" font-weight="bold" font-family="sans-serif" transform="matrix(0.8027,0,0,0.8027,0,85.8872)">
      <text xml:space="preserve" x="237.875" y="343.762" onclick="umlload('GtFilter.html')" stroke="none">GtFilter</text>
    </g>
    <g fill="rgb(187,187,255)" transform="matrix(0.8027,0,0,0.8027,0,85.8872)" stroke="rgb(187,187,255)">
      <rect x="342.82" y="327.6951" clip-path="url(#clipPath8)" width="64.89" height="23.1328" stroke="none"/>
    </g>
    <g fill="rgb(130,130,178)" stroke-miterlimit="1.45" transform="matrix(0.8027,0,0,0.8027,0,85.8872)" stroke-linecap="butt" stroke="rgb(130,130,178)">
      <rect fill="none" width="64.89" x="342.82" height="23.1328" y="327.6951"/>
    </g>
    <g font-size="13" font-weight="bold" font-family="sans-serif" transform="matrix(0.8027,0,0,0.8027,0,85.8872)">
      <text xml:space="preserve" x="347.765" y="343.762" onclick="umlload('LeFilter.html')" stroke="none">LeFilter</text>
    </g>
    <g fill="rgb(187,187,255)" transform="matrix(0.8027,0,0,0.8027,0,85.8872)" stroke="rgb(187,187,255)">
      <rect x="8" y="395.8279" clip-path="url(#clipPath9)" width="61.8" height="23.1328" stroke="none"/>
    </g>
    <g fill="rgb(130,130,178)" stroke-miterlimit="1.45" transform="matrix(0.8027,0,0,0.8027,0,85.8872)" stroke-linecap="butt" stroke="rgb(130,130,178)">
      <rect fill="none" width="61.8" x="8" height="23.1328" y="395.8279"/>
    </g>
    <g font-size="13" font-weight="bold" font-family="sans-serif" transform="matrix(0.8027,0,0,0.8027,0,85.8872)">
      <text xml:space="preserve" x="12.9" y="411.8948" onclick="umlload('LtFilter.html')" stroke="none">LtFilter</text>
    </g>
    <g fill="rgb(187,187,255)" transform="matrix(0.8027,0,0,0.8027,0,85.8872)" stroke="rgb(187,187,255)">
      <rect x="135.2501" y="108.7147" clip-path="url(#clipPath10)" width="93.73" height="23.1328" stroke="none"/>
    </g>
    <g fill="rgb(130,130,178)" stroke-miterlimit="1.45" transform="matrix(0.8027,0,0,0.8027,0,85.8872)" stroke-linecap="butt" stroke="rgb(130,130,178)">
      <rect fill="none" width="93.73" x="135.2501" height="23.1328" y="108.7147"/>
    </g>
    <g font-size="13" font-weight="bold" font-family="sans-serif" transform="matrix(0.8027,0,0,0.8027,0,85.8872)">
      <text xml:space="preserve" x="140.6151" y="124.7816" onclick="umlload('MatchFilter.html')" stroke="none">MatchFilter</text>
    </g>
    <g fill="rgb(187,187,255)" transform="matrix(0.8027,0,0,0.8027,0,85.8872)" stroke="rgb(187,187,255)">
      <rect x="114.8" y="395.8279" clip-path="url(#clipPath11)" width="67.98" height="23.1328" stroke="none"/>
    </g>
    <g fill="rgb(130,130,178)" stroke-miterlimit="1.45" transform="matrix(0.8027,0,0,0.8027,0,85.8872)" stroke-linecap="butt" stroke="rgb(130,130,178)">
      <rect fill="none" width="67.98" x="114.8" height="23.1328" y="395.8279"/>
    </g>
    <g font-size="13" font-weight="bold" font-family="sans-serif" transform="matrix(0.8027,0,0,0.8027,0,85.8872)">
      <text xml:space="preserve" x="119.79" y="411.8948" onclick="umlload('NeFilter.html')" stroke="none">NeFilter</text>
    </g>
    <g fill="rgb(187,187,255)" transform="matrix(0.8027,0,0,0.8027,0,85.8872)" stroke="rgb(187,187,255)">
      <rect x="278.9803" y="108.7147" clip-path="url(#clipPath12)" width="74.16" height="23.1328" stroke="none"/>
    </g>
    <g fill="rgb(130,130,178)" stroke-miterlimit="1.45" transform="matrix(0.8027,0,0,0.8027,0,85.8872)" stroke-linecap="butt" stroke="rgb(130,130,178)">
      <rect fill="none" width="74.16" x="278.9803" height="23.1328" y="108.7147"/>
    </g>
    <g font-size="13" font-weight="bold" font-family="sans-serif" transform="matrix(0.8027,0,0,0.8027,0,85.8872)">
      <text xml:space="preserve" x="284.0603" y="124.7816" onclick="umlload('NotFilter.html')" stroke="none">NotFilter</text>
    </g>
    <g fill="rgb(187,187,255)" transform="matrix(0.8027,0,0,0.8027,0,85.8872)" stroke="rgb(187,187,255)">
      <rect x="227.78" y="395.8279" clip-path="url(#clipPath13)" width="178.19" height="23.1328" stroke="none"/>
    </g>
    <g fill="rgb(130,130,178)" stroke-miterlimit="1.45" transform="matrix(0.8027,0,0,0.8027,0,85.8872)" stroke-linecap="butt" stroke="rgb(130,130,178)">
      <rect fill="none" width="178.19" x="227.78" height="23.1328" y="395.8279"/>
    </g>
    <g font-size="13" font-weight="bold" font-family="sans-serif" transform="matrix(0.8027,0,0,0.8027,0,85.8872)">
      <text xml:space="preserve" x="234.375" y="411.8948" onclick="umlload('ODataFilterArgFactory.html')" stroke="none">ODataFilterArgFactory</text>
    </g>
    <g fill="rgb(187,187,255)" transform="matrix(0.8027,0,0,0.8027,0,85.8872)" stroke="rgb(187,187,255)">
      <rect x="8" y="463.9607" clip-path="url(#clipPath14)" width="151.41" height="23.1328" stroke="none"/>
    </g>
    <g fill="rgb(130,130,178)" stroke-miterlimit="1.45" transform="matrix(0.8027,0,0,0.8027,0,85.8872)" stroke-linecap="butt" stroke="rgb(130,130,178)">
      <rect fill="none" width="151.41" x="8" height="23.1328" y="463.9607"/>
    </g>
    <g font-size="13" font-weight="bold" font-family="sans-serif" transform="matrix(0.8027,0,0,0.8027,0,85.8872)">
      <text xml:space="preserve" x="14.205" y="480.0276" onclick="umlload('ODataFilterFactory.html')" stroke="none">ODataFilterFactory</text>
    </g>
    <g fill="rgb(187,187,255)" transform="matrix(0.8027,0,0,0.8027,0,85.8872)" stroke="rgb(187,187,255)">
      <rect x="8" y="259.5623" clip-path="url(#clipPath15)" width="159.65" height="23.1328" stroke="none"/>
    </g>
    <g fill="rgb(130,130,178)" stroke-miterlimit="1.45" transform="matrix(0.8027,0,0,0.8027,0,85.8872)" stroke-linecap="butt" stroke="rgb(130,130,178)">
      <rect fill="none" width="159.65" x="8" height="23.1328" y="259.5623"/>
    </g>
    <g font-size="13" font-weight="bold" font-family="sans-serif" transform="matrix(0.8027,0,0,0.8027,0,85.8872)">
      <text xml:space="preserve" x="14.325" y="275.6292" onclick="umlload('ODataFilterFunction.html')" stroke="none">ODataFilterFunction</text>
    </g>
    <g fill="rgb(187,187,255)" transform="matrix(0.8027,0,0,0.8027,0,85.8872)" stroke="rgb(187,187,255)">
      <rect x="217.6502" y="259.5623" clip-path="url(#clipPath16)" width="142.14" height="23.1328" stroke="none"/>
    </g>
    <g fill="rgb(130,130,178)" stroke-miterlimit="1.45" transform="matrix(0.8027,0,0,0.8027,0,85.8872)" stroke-linecap="butt" stroke="rgb(130,130,178)">
      <rect fill="none" width="142.14" x="217.6502" height="23.1328" y="259.5623"/>
    </g>
    <g font-size="13" font-weight="bold" font-family="sans-serif" transform="matrix(0.8027,0,0,0.8027,0,85.8872)">
      <text xml:space="preserve" x="223.7202" y="275.6292" onclick="umlload('ODataFilterLiteral.html')" stroke="none">ODataFilterLiteral</text>
    </g>
    <g fill="rgb(187,187,255)" transform="matrix(0.8027,0,0,0.8027,0,85.8872)" stroke="rgb(187,187,255)">
      <rect x="409.7903" y="259.5623" clip-path="url(#clipPath17)" width="116.39" height="23.1328" stroke="none"/>
    </g>
    <g fill="rgb(130,130,178)" stroke-miterlimit="1.45" transform="matrix(0.8027,0,0,0.8027,0,85.8872)" stroke-linecap="butt" stroke="rgb(130,130,178)">
      <rect fill="none" width="116.39" x="409.7903" height="23.1328" y="259.5623"/>
    </g>
    <g font-size="13" font-weight="bold" font-family="sans-serif" transform="matrix(0.8027,0,0,0.8027,0,85.8872)">
      <text xml:space="preserve" x="415.4853" y="275.6292" onclick="umlload('ODataFilterOp.html')" stroke="none">ODataFilterOp</text>
    </g>
    <g fill="rgb(187,187,255)" transform="matrix(0.8027,0,0,0.8027,0,85.8872)" stroke="rgb(187,187,255)">
      <rect x="576.1806" y="259.5623" clip-path="url(#clipPath18)" width="160.68" height="23.1328" stroke="none"/>
    </g>
    <g fill="rgb(130,130,178)" stroke-miterlimit="1.45" transform="matrix(0.8027,0,0,0.8027,0,85.8872)" stroke-linecap="butt" stroke="rgb(130,130,178)">
      <rect fill="none" width="160.68" x="576.1806" height="23.1328" y="259.5623"/>
    </g>
    <g font-size="13" font-weight="bold" font-family="sans-serif" transform="matrix(0.8027,0,0,0.8027,0,85.8872)">
      <text xml:space="preserve" x="582.5206" y="275.6292" onclick="umlload('ODataFilterProperty.html')" stroke="none">ODataFilterProperty</text>
    </g>
    <g fill="rgb(187,187,255)" transform="matrix(0.8027,0,0,0.8027,0,85.8872)" stroke="rgb(187,187,255)">
      <rect x="403.1403" y="108.7147" clip-path="url(#clipPath19)" width="64.89" height="23.1328" stroke="none"/>
    </g>
    <g fill="rgb(130,130,178)" stroke-miterlimit="1.45" transform="matrix(0.8027,0,0,0.8027,0,85.8872)" stroke-linecap="butt" stroke="rgb(130,130,178)">
      <rect fill="none" width="64.89" x="403.1403" height="23.1328" y="108.7147"/>
    </g>
    <g font-size="13" font-weight="bold" font-family="sans-serif" transform="matrix(0.8027,0,0,0.8027,0,85.8872)">
      <text xml:space="preserve" x="408.0853" y="124.7816" onclick="umlload('OrFilter.html')" stroke="none">OrFilter</text>
    </g>
    <g font-family="sans-serif" transform="matrix(0.8027,0,0,0.8027,0,85.8872)">
      <text xml:space="preserve" x="6" y="520.1543" onclick="umlload('http://www.yworks.com/')" stroke="none">yWorks UML Doclet</text>
    </g>
    <g stroke-dasharray="6,2" stroke-miterlimit="1.45" transform="matrix(0.8027,0,0,0.8027,0,85.8872)" stroke-linecap="butt">
      <path fill="none" d="M249.0877 73.7147 L249.0877 83.7147 L46.625 83.7147 L46.625 108.7147"/>
      <path fill="white" d="M249.0877 58.7147 L243.0877 74.7147 L255.0877 74.7147 Z" stroke="none"/>
      <path fill="none" stroke-dasharray="none" d="M249.0877 58.7147 L243.0877 74.7147 L255.0877 74.7147 Z"/>
      <path fill="none" d="M249.0877 73.7147 L249.0877 83.7147 L182.1151 83.7147 L182.1151 108.7147"/>
      <path fill="white" d="M249.0877 58.7147 L243.0877 74.7147 L255.0877 74.7147 Z" stroke="none"/>
      <path fill="none" stroke-dasharray="none" d="M249.0877 58.7147 L243.0877 74.7147 L255.0877 74.7147 Z"/>
      <path fill="none" d="M249.0877 73.7147 L249.0877 83.7147 L316.0603 83.7147 L316.0603 108.7147"/>
      <path fill="white" d="M249.0877 58.7147 L243.0877 74.7147 L255.0877 74.7147 Z" stroke="none"/>
      <path fill="none" stroke-dasharray="none" d="M249.0877 58.7147 L243.0877 74.7147 L255.0877 74.7147 Z"/>
      <path fill="none" d="M378.3528 224.5623 L378.3528 234.5623 L87.825 234.5623 L87.825 259.5623"/>
      <path fill="white" d="M378.3528 209.5623 L372.3528 225.5623 L384.3528 225.5623 Z" stroke="none"/>
      <path fill="none" stroke-dasharray="none" d="M378.3528 209.5623 L372.3528 225.5623 L384.3528 225.5623 Z"/>
      <path fill="none" d="M378.3528 224.5623 L378.3528 234.5623 L288.7202 234.5623 L288.7202 259.5623"/>
      <path fill="white" d="M378.3528 209.5623 L372.3528 225.5623 L384.3528 225.5623 Z" stroke="none"/>
      <path fill="none" stroke-dasharray="none" d="M378.3528 209.5623 L372.3528 225.5623 L384.3528 225.5623 Z"/>
      <path fill="none" d="M378.3528 224.5623 L378.3528 234.5623 L467.9853 234.5623 L467.9853 259.5623"/>
      <path fill="white" d="M378.3528 209.5623 L372.3528 225.5623 L384.3528 225.5623 Z" stroke="none"/>
      <path fill="none" stroke-dasharray="none" d="M378.3528 209.5623 L372.3528 225.5623 L384.3528 225.5623 Z"/>
      <path fill="none" d="M378.3528 224.5623 L378.3528 234.5623 L656.5206 234.5623 L656.5206 259.5623"/>
      <path fill="white" d="M378.3528 209.5623 L372.3528 225.5623 L384.3528 225.5623 Z" stroke="none"/>
      <path fill="none" stroke-dasharray="none" d="M378.3528 209.5623 L372.3528 225.5623 L384.3528 225.5623 Z"/>
      <path fill="none" d="M249.0877 73.7147 L249.0877 83.7147 L435.5853 83.7147 L435.5853 108.7147"/>
      <path fill="white" d="M249.0877 58.7147 L243.0877 74.7147 L255.0877 74.7147 Z" stroke="none"/>
      <path fill="none" stroke-dasharray="none" d="M249.0877 58.7147 L243.0877 74.7147 L255.0877 74.7147 Z"/>
    </g>
  </g>
</svg>
