<?xml version="1.0" encoding="UTF-8"?><svg xmlns="http://www.w3.org/2000/svg" xmlns:xlink="http://www.w3.org/1999/xlink" fill-opacity="1" color-rendering="auto" color-interpolation="auto" stroke="black" text-rendering="auto" stroke-linecap="square" width="598" stroke-miterlimit="10" stroke-opacity="1" shape-rendering="auto" fill="black" stroke-dasharray="none" font-weight="normal" stroke-width="1" height="598" font-family="'Dialog'" font-style="normal" stroke-linejoin="miter" font-size="12" stroke-dashoffset="0" image-rendering="auto">
  <!--Generated by ySVG-->
  <defs id="genericDefs"/>
  <g>
    <defs id="defs1">
      <clipPath clipPathUnits="userSpaceOnUse" id="clipPath1">
        <path d="M0 0 L598 0 L598 598 L0 598 L0 0 Z"/>
      </clipPath>
      <clipPath clipPathUnits="userSpaceOnUse" id="clipPath2">
        <path d="M640.7045 113.0721 C640.7045 122.106 613.9659 129.4295 580.9822 129.4295 C547.9985 129.4295 521.26 122.106 521.26 113.0721 C521.26 104.0382 547.9985 96.7147 580.9822 96.7147 C613.9659 96.7147 640.7045 104.0382 640.7045 113.0721 Z"/>
      </clipPath>
      <clipPath clipPathUnits="userSpaceOnUse" id="clipPath3">
        <path d="M682.947 16.3574 C682.947 25.3913 646.7521 32.7147 602.1035 32.7147 C557.4549 32.7147 521.26 25.3913 521.26 16.3574 C521.26 7.3234 557.4549 0 602.1035 0 C646.7521 0 682.947 7.3234 682.947 16.3574 Z"/>
      </clipPath>
      <clipPath clipPathUnits="userSpaceOnUse" id="clipPath4">
        <path d="M1078.2839 -100.3574 C1078.2839 -91.3234 943.2869 -84 776.7595 -84 C610.2321 -84 475.235 -91.3234 475.235 -100.3574 C475.235 -109.3913 610.2321 -116.7147 776.7595 -116.7147 C943.2869 -116.7147 1078.2839 -109.3913 1078.2839 -100.3574 Z"/>
      </clipPath>
      <clipPath clipPathUnits="userSpaceOnUse" id="clipPath5">
        <path d="M146.26 -107.1328 L309 -107.1328 L309 -84 L146.26 -84 L146.26 -107.1328 Z"/>
      </clipPath>
      <clipPath clipPathUnits="userSpaceOnUse" id="clipPath6">
        <path d="M0 0 L455.26 0 L455.26 137.4295 L0 137.4295 L0 0 Z"/>
      </clipPath>
      <script type="text/ecmascript"><![CDATA[
function umlload(newLocation)
{
if (newLocation.charAt(0) != '#') {
if (newLocation.indexOf("://") > -1) {
window.parent.location.href = newLocation;
} else {
var tmp = window.parent.location.href;
tmp = tmp.substring(0, tmp.lastIndexOf("/") + 1);
window.parent.location.href = tmp.concat(newLocation);
}
} else {
window.parent.location.hash = newLocation;
}
}
]]></script>
    </defs>
    <g fill="rgb(238,238,255)" transform="matrix(0.5461,0,0,0.5461,4.3689,288.3507)" stroke="rgb(238,238,255)">
      <rect width="165.2568" x="513.26" height="17.9688" y="70.7147" stroke="none"/>
    </g>
    <g fill="rgb(166,166,178)" stroke-miterlimit="1.45" transform="matrix(0.5461,0,0,0.5461,4.3689,288.3507)" stroke-linecap="butt" stroke="rgb(166,166,178)">
      <rect fill="none" width="165.2568" x="513.26" height="17.9688" y="70.7147"/>
    </g>
    <g fill="rgb(238,238,255)" transform="matrix(0.5461,0,0,0.5461,4.3689,288.3507)" stroke="rgb(238,238,255)">
      <rect width="166.4445" x="513.26" height="48.746" y="88.6835" stroke="none"/>
    </g>
    <g fill="rgb(166,166,178)" stroke-miterlimit="1.45" transform="matrix(0.5461,0,0,0.5461,4.3689,288.3507)" stroke-linecap="butt" stroke="rgb(166,166,178)">
      <rect fill="none" width="166.4445" x="513.26" height="48.746" y="88.6835"/>
    </g>
    <g font-family="sans-serif" transform="matrix(0.5461,0,0,0.5461,4.3689,288.3507)">
      <text xml:space="preserve" x="519.26" y="83.8534" stroke="none">org.apache.http.client</text>
    </g>
    <g fill="rgb(221,221,255)" transform="matrix(0.5461,0,0,0.5461,4.3689,288.3507)" stroke="rgb(221,221,255)">
      <rect x="521.26" y="96.7147" clip-path="url(#clipPath2)" width="119.4445" height="32.7147" stroke="none"/>
    </g>
    <g fill="rgb(154,154,178)" stroke-miterlimit="1.45" transform="matrix(0.5461,0,0,0.5461,4.3689,288.3507)" stroke-linecap="butt" stroke="rgb(154,154,178)">
      <ellipse rx="59.7222" fill="none" ry="16.3574" cx="580.9822" cy="113.0721"/>
    </g>
    <g font-style="italic" font-size="13" font-weight="bold" font-family="sans-serif" transform="matrix(0.5461,0,0,0.5461,4.3689,288.3507)">
      <text xml:space="preserve" x="543.9822" y="117.5726" stroke="none">HttpClient</text>
    </g>
    <g fill="rgb(238,238,255)" transform="matrix(0.5461,0,0,0.5461,4.3689,288.3507)" stroke="rgb(238,238,255)">
      <rect width="124.9426" x="513.26" height="17.9688" y="-26" stroke="none"/>
    </g>
    <g fill="rgb(166,166,178)" stroke-miterlimit="1.45" transform="matrix(0.5461,0,0,0.5461,4.3689,288.3507)" stroke-linecap="butt" stroke="rgb(166,166,178)">
      <rect fill="none" width="124.9426" x="513.26" height="17.9688" y="-26"/>
    </g>
    <g fill="rgb(238,238,255)" transform="matrix(0.5461,0,0,0.5461,4.3689,288.3507)" stroke="rgb(238,238,255)">
      <rect width="177.687" x="513.26" height="48.746" y="-8.0312" stroke="none"/>
    </g>
    <g fill="rgb(166,166,178)" stroke-miterlimit="1.45" transform="matrix(0.5461,0,0,0.5461,4.3689,288.3507)" stroke-linecap="butt" stroke="rgb(166,166,178)">
      <rect fill="none" width="177.687" x="513.26" height="48.746" y="-8.0312"/>
    </g>
    <g font-family="sans-serif" transform="matrix(0.5461,0,0,0.5461,4.3689,288.3507)">
      <text xml:space="preserve" x="519.26" y="-12.8613" stroke="none">org.apache.http</text>
    </g>
    <g fill="rgb(221,221,255)" transform="matrix(0.5461,0,0,0.5461,4.3689,288.3507)" stroke="rgb(221,221,255)">
      <rect x="521.26" y="0" clip-path="url(#clipPath3)" width="161.687" height="32.7147" stroke="none"/>
    </g>
    <g fill="rgb(154,154,178)" stroke-miterlimit="1.45" transform="matrix(0.5461,0,0,0.5461,4.3689,288.3507)" stroke-linecap="butt" stroke="rgb(154,154,178)">
      <ellipse rx="80.8435" fill="none" ry="16.3574" cx="602.1035" cy="16.3574"/>
    </g>
    <g font-style="italic" font-size="13" font-weight="bold" font-family="sans-serif" transform="matrix(0.5461,0,0,0.5461,4.3689,288.3507)">
      <text xml:space="preserve" x="550.6035" y="20.8579" stroke="none">HttpResponse</text>
    </g>
    <g fill="rgb(238,238,255)" transform="matrix(0.5461,0,0,0.5461,4.3689,288.3507)" stroke="rgb(238,238,255)">
      <rect width="435.7863" x="467.235" height="17.9688" y="-142.7147" stroke="none"/>
    </g>
    <g fill="rgb(166,166,178)" stroke-miterlimit="1.45" transform="matrix(0.5461,0,0,0.5461,4.3689,288.3507)" stroke-linecap="butt" stroke="rgb(166,166,178)">
      <rect fill="none" width="435.7863" x="467.235" height="17.9688" y="-142.7147"/>
    </g>
    <g fill="rgb(238,238,255)" transform="matrix(0.5461,0,0,0.5461,4.3689,288.3507)" stroke="rgb(238,238,255)">
      <rect width="619.0489" x="467.235" height="48.746" y="-124.746" stroke="none"/>
    </g>
    <g fill="rgb(166,166,178)" stroke-miterlimit="1.45" transform="matrix(0.5461,0,0,0.5461,4.3689,288.3507)" stroke-linecap="butt" stroke="rgb(166,166,178)">
      <rect fill="none" width="619.0489" x="467.235" height="48.746" y="-124.746"/>
    </g>
    <g font-family="sans-serif" transform="matrix(0.5461,0,0,0.5461,4.3689,288.3507)">
      <text xml:space="preserve" x="473.235" y="-129.5761" onclick="umlload('../../../../../../../com/msopentech/odatajclient/engine/communication/response/package-summary.html')" stroke="none">com.msopentech.odatajclient.engine.communication.response</text>
    </g>
    <g fill="rgb(221,221,255)" transform="matrix(0.5461,0,0,0.5461,4.3689,288.3507)" stroke="rgb(221,221,255)">
      <rect x="475.235" y="-116.7147" clip-path="url(#clipPath4)" width="603.0489" height="32.7147" stroke="none"/>
    </g>
    <g fill="rgb(154,154,178)" stroke-miterlimit="1.45" transform="matrix(0.5461,0,0,0.5461,4.3689,288.3507)" stroke-linecap="butt" stroke="rgb(154,154,178)">
      <ellipse rx="301.5245" fill="none" ry="16.3574" cx="776.7595" cy="-100.3574"/>
    </g>
    <g font-style="italic" font-size="13" font-weight="bold" font-family="sans-serif" transform="matrix(0.5461,0,0,0.5461,4.3689,288.3507)">
      <text xml:space="preserve" x="573.7595" y="-95.8569" onclick="umlload('../../../../../../../com/msopentech/odatajclient/engine/communication/response/ODataInvokeResponse.html')" stroke="none">ODataInvokeResponse&lt;T extends ODataInvokeResult&gt;</text>
    </g>
    <g fill="rgb(238,238,255)" transform="matrix(0.5461,0,0,0.5461,4.3689,288.3507)" stroke="rgb(238,238,255)">
      <rect width="435.7863" x="18.26" height="17.9688" y="-133.1328" stroke="none"/>
    </g>
    <g fill="rgb(166,166,178)" stroke-miterlimit="1.45" transform="matrix(0.5461,0,0,0.5461,4.3689,288.3507)" stroke-linecap="butt" stroke="rgb(166,166,178)">
      <rect fill="none" width="435.7863" x="18.26" height="17.9688" y="-133.1328"/>
    </g>
    <g fill="rgb(238,238,255)" transform="matrix(0.5461,0,0,0.5461,4.3689,288.3507)" stroke="rgb(238,238,255)">
      <rect width="435.7863" x="18.26" height="39.1641" y="-115.1641" stroke="none"/>
    </g>
    <g fill="rgb(166,166,178)" stroke-miterlimit="1.45" transform="matrix(0.5461,0,0,0.5461,4.3689,288.3507)" stroke-linecap="butt" stroke="rgb(166,166,178)">
      <rect fill="none" width="435.7863" x="18.26" height="39.1641" y="-115.1641"/>
    </g>
    <g font-family="sans-serif" transform="matrix(0.5461,0,0,0.5461,4.3689,288.3507)">
      <text xml:space="preserve" x="24.26" y="-119.9941" onclick="umlload('../../../../../../../com/msopentech/odatajclient/engine/communication/response/package-summary.html')" stroke="none">com.msopentech.odatajclient.engine.communication.response</text>
    </g>
    <g fill="rgb(204,204,255)" transform="matrix(0.5461,0,0,0.5461,4.3689,288.3507)" stroke="rgb(204,204,255)">
      <rect x="146.26" y="-107.1328" clip-path="url(#clipPath5)" width="162.74" height="23.1328" stroke="none"/>
    </g>
    <g fill="rgb(142,142,178)" stroke-miterlimit="1.45" transform="matrix(0.5461,0,0,0.5461,4.3689,288.3507)" stroke-linecap="butt" stroke="rgb(142,142,178)">
      <rect fill="none" width="162.74" x="146.26" height="23.1328" y="-107.1328"/>
    </g>
    <g font-size="13" font-weight="bold" font-family="sans-serif" transform="matrix(0.5461,0,0,0.5461,4.3689,288.3507)">
      <text xml:space="preserve" x="152.63" y="-91.0659" onclick="umlload('../../../../../../../com/msopentech/odatajclient/engine/communication/response/ODataResponseImpl.html')" stroke="none">ODataResponseImpl</text>
    </g>
    <g fill="rgb(238,238,255)" transform="matrix(0.5461,0,0,0.5461,4.3689,288.3507)" stroke="rgb(238,238,255)">
      <rect width="471.8569" x="-8" height="17.9688" y="-26" stroke="none"/>
    </g>
    <g fill="rgb(166,166,178)" stroke-miterlimit="1.45" transform="matrix(0.5461,0,0,0.5461,4.3689,288.3507)" stroke-linecap="butt" stroke="rgb(166,166,178)">
      <rect fill="none" width="471.8569" x="-8" height="17.9688" y="-26"/>
    </g>
    <g fill="rgb(238,238,255)" transform="matrix(0.5461,0,0,0.5461,4.3689,288.3507)" stroke="rgb(238,238,255)">
      <rect width="472.26" x="-8" height="153.4607" y="-8.0312" stroke="none"/>
    </g>
    <g fill="rgb(166,166,178)" stroke-miterlimit="1.45" transform="matrix(0.5461,0,0,0.5461,4.3689,288.3507)" stroke-linecap="butt" stroke="rgb(166,166,178)">
      <rect fill="none" width="472.26" x="-8" height="153.4607" y="-8.0312"/>
    </g>
    <g font-family="sans-serif" transform="matrix(0.5461,0,0,0.5461,4.3689,288.3507)">
      <text xml:space="preserve" x="-2" y="-12.8613" onclick="umlload('package-summary.html')" stroke="none">com.msopentech.odatajclient.engine.communication.request.invoke</text>
    </g>
    <g fill="rgb(187,187,255)" transform="matrix(0.5461,0,0,0.5461,4.3689,288.3507)" stroke="rgb(187,187,255)">
      <rect x="0" y="0" clip-path="url(#clipPath6)" width="455.26" height="26.625" stroke="none"/>
      <line clip-path="url(#clipPath6)" fill="none" x1="0" x2="455.26" y1="26.625" y2="26.625" stroke="black"/>
      <line clip-path="url(#clipPath6)" x1="0" x2="455.26" y1="27.625" y2="27.625" stroke="none"/>
      <line clip-path="url(#clipPath6)" fill="none" x1="0" x2="455.26" y1="27.625" y2="27.625" stroke="black"/>
      <rect x="0" y="28.625" clip-path="url(#clipPath6)" width="455.26" height="108.8045" stroke="none"/>
    </g>
    <g fill="rgb(130,130,178)" stroke-miterlimit="1.45" transform="matrix(0.5461,0,0,0.5461,4.3689,288.3507)" stroke-linecap="butt" stroke="rgb(130,130,178)">
      <rect fill="none" width="455.26" x="0" height="137.4295" y="0"/>
    </g>
    <g font-size="16" font-weight="bold" font-family="sans-serif" transform="matrix(0.5461,0,0,0.5461,4.3689,288.3507)">
      <text xml:space="preserve" x="10.63" y="18.8516" onclick="umlload('#')" stroke="none">ODataInvokeRequest.ODataInvokeResponseImpl</text>
    </g>
    <g font-family="sans-serif" transform="matrix(0.5461,0,0,0.5461,4.3689,288.3507)">
      <text xml:space="preserve" x="4" y="39.1719" stroke="none">+</text>
      <text xml:space="preserve" x="19" y="40.7637" onclick="umlload('#getBody()')" stroke="none">getBody() : T</text>
    </g>
    <g font-family="sans-serif" transform="matrix(0.5461,0,0,0.5461,4.3689,288.3507)">
      <text xml:space="preserve" x="-2" y="170.1543" onclick="umlload('http://www.yworks.com/')" stroke="none">yWorks UML Doclet</text>
    </g>
    <g stroke-miterlimit="1.45" transform="matrix(0.5461,0,0,0.5461,4.3689,288.3507)" stroke-linecap="butt">
      <path fill="none" d="M227.63 -0.0039 L227.63 -69"/>
      <path fill="white" d="M227.63 -84 L221.63 -68 L233.63 -68 Z" stroke="none"/>
      <path fill="none" d="M227.63 -84 L221.63 -68 L233.63 -68 Z"/>
      <path fill="none" stroke-dasharray="6,2" d="M341.445 0 L341.445 -51 L776.7595 -51 L776.7595 -69"/>
      <path fill="white" stroke-dasharray="6,2" d="M776.7595 -84 L770.7595 -68 L782.7595 -68 Z" stroke="none"/>
      <path fill="none" d="M776.7595 -84 L770.7595 -68 L782.7595 -68 Z"/>
      <path fill="none" stroke-dasharray="6,2" d="M455.2305 16.3574 L521.26 16.3574"/>
      <line stroke-linecap="square" transform="matrix(1,0,0,1,521.26,16.3574)" fill="none" x1="0" x2="-14" y1="0" y2="-4" stroke-miterlimit="10"/>
      <line stroke-linecap="square" transform="matrix(1,0,0,1,521.26,16.3574)" fill="none" x1="0" x2="-14" y1="0" y2="4" stroke-miterlimit="10"/>
    </g>
    <g stroke-dasharray="6,2" stroke-miterlimit="1.45" transform="matrix(0.5461,0,0,0.5461,4.3689,288.3507)" stroke-linecap="butt">
      <path fill="none" d="M455.2472 113.0721 L521.26 113.0721"/>
      <line stroke-linecap="square" transform="matrix(1,0,0,1,521.26,113.0721)" fill="none" x1="0" x2="-14" y1="0" y2="-4" stroke-dasharray="none" stroke-miterlimit="10"/>
      <line stroke-linecap="square" transform="matrix(1,0,0,1,521.26,113.0721)" fill="none" x1="0" x2="-14" y1="0" y2="4" stroke-dasharray="none" stroke-miterlimit="10"/>
    </g>
  </g>
</svg>
