<?xml version="1.0" encoding="UTF-8"?><svg xmlns="http://www.w3.org/2000/svg" xmlns:xlink="http://www.w3.org/1999/xlink" fill-opacity="1" color-rendering="auto" color-interpolation="auto" stroke="black" text-rendering="auto" stroke-linecap="square" width="598" stroke-miterlimit="10" stroke-opacity="1" shape-rendering="auto" fill="black" stroke-dasharray="none" font-weight="normal" stroke-width="1" height="598" font-family="'Dialog'" font-style="normal" stroke-linejoin="miter" font-size="12" stroke-dashoffset="0" image-rendering="auto">
  <!--Generated by ySVG-->
  <defs id="genericDefs"/>
  <g>
    <defs id="defs1">
      <clipPath clipPathUnits="userSpaceOnUse" id="clipPath1">
        <path d="M0 0 L598 0 L598 598 L0 598 L0 0 Z"/>
      </clipPath>
      <clipPath clipPathUnits="userSpaceOnUse" id="clipPath2">
        <path d="M1423.2242 364.8886 C1423.2242 373.9225 1393.5509 381.246 1356.9471 381.246 C1320.3433 381.246 1290.67 373.9225 1290.67 364.8886 C1290.67 355.8547 1320.3433 348.5312 1356.9471 348.5312 C1393.5509 348.5312 1423.2242 355.8547 1423.2242 364.8886 Z"/>
      </clipPath>
      <clipPath clipPathUnits="userSpaceOnUse" id="clipPath3">
        <path d="M1290.67 261.3984 L1323.63 261.3984 L1323.63 284.5312 L1290.67 284.5312 L1290.67 261.3984 Z"/>
      </clipPath>
      <clipPath clipPathUnits="userSpaceOnUse" id="clipPath4">
        <path d="M1290.67 174.2656 L1535.8101 174.2656 L1535.8101 197.3984 L1290.67 197.3984 L1290.67 174.2656 Z"/>
      </clipPath>
      <clipPath clipPathUnits="userSpaceOnUse" id="clipPath5">
        <path d="M1290.67 87.1328 L1406.03 87.1328 L1406.03 110.2656 L1290.67 110.2656 L1290.67 87.1328 Z"/>
      </clipPath>
      <clipPath clipPathUnits="userSpaceOnUse" id="clipPath6">
        <path d="M1290.67 -0 L1704.73 -0 L1704.73 23.1328 L1290.67 23.1328 L1290.67 -0 Z"/>
      </clipPath>
      <clipPath clipPathUnits="userSpaceOnUse" id="clipPath7">
        <path d="M583.495 -107.1328 L641.175 -107.1328 L641.175 -84 L583.495 -84 L583.495 -107.1328 Z"/>
      </clipPath>
      <clipPath clipPathUnits="userSpaceOnUse" id="clipPath8">
        <path d="M-0 -0 L1224.67 -0 L1224.67 389.246 L-0 389.246 L-0 -0 Z"/>
      </clipPath>
      <script type="text/ecmascript"><![CDATA[
function umlload(newLocation)
{
if (newLocation.charAt(0) != '#') {
if (newLocation.indexOf("://") > -1) {
window.parent.location.href = newLocation;
} else {
var tmp = window.parent.location.href;
tmp = tmp.substring(0, tmp.lastIndexOf("/") + 1);
window.parent.location.href = tmp.concat(newLocation);
}
} else {
window.parent.location.hash = newLocation;
}
}
]]></script>
    </defs>
    <g fill="rgb(238,238,255)" transform="matrix(0.3392,0,0,0.3392,2.7136,248.2904)" stroke="rgb(238,238,255)">
      <rect width="67.654" x="1282.67" height="17.9688" y="322.5312" stroke="none"/>
    </g>
    <g fill="rgb(166,166,178)" stroke-miterlimit="1.45" transform="matrix(0.3392,0,0,0.3392,2.7136,248.2904)" stroke-linecap="butt" stroke="rgb(166,166,178)">
      <rect fill="none" width="67.654" x="1282.67" height="17.9688" y="322.5312"/>
    </g>
    <g fill="rgb(238,238,255)" transform="matrix(0.3392,0,0,0.3392,2.7136,248.2904)" stroke="rgb(238,238,255)">
      <rect width="148.5542" x="1282.67" height="48.746" y="340.5" stroke="none"/>
    </g>
    <g fill="rgb(166,166,178)" stroke-miterlimit="1.45" transform="matrix(0.3392,0,0,0.3392,2.7136,248.2904)" stroke-linecap="butt" stroke="rgb(166,166,178)">
      <rect fill="none" width="148.5542" x="1282.67" height="48.746" y="340.5"/>
    </g>
    <g font-family="sans-serif" transform="matrix(0.3392,0,0,0.3392,2.7136,248.2904)">
      <text xml:space="preserve" x="1288.67" y="335.6699" onclick="umlload('http://docs.oracle.com/javase/6/docs/api/java/util/package-summary.html')" stroke="none">java.util</text>
    </g>
    <g fill="rgb(221,221,255)" transform="matrix(0.3392,0,0,0.3392,2.7136,248.2904)" stroke="rgb(221,221,255)">
      <rect x="1290.67" y="348.5312" clip-path="url(#clipPath2)" width="132.5542" height="32.7147" stroke="none"/>
    </g>
    <g fill="rgb(154,154,178)" stroke-miterlimit="1.45" transform="matrix(0.3392,0,0,0.3392,2.7136,248.2904)" stroke-linecap="butt" stroke="rgb(154,154,178)">
      <ellipse rx="66.2771" fill="none" ry="16.3574" cx="1356.9471" cy="364.8886"/>
    </g>
    <g font-style="italic" font-size="13" font-weight="bold" font-family="sans-serif" transform="matrix(0.3392,0,0,0.3392,2.7136,248.2904)">
      <text xml:space="preserve" x="1315.4471" y="369.3891" onclick="umlload('http://docs.oracle.com/javase/6/docs/api/java/util/Map.html')" stroke="none">Map&lt;K, V&gt;</text>
    </g>
    <g fill="rgb(238,238,255)" transform="matrix(0.3392,0,0,0.3392,2.7136,248.2904)" stroke="rgb(238,238,255)">
      <rect width="69.7758" x="1282.67" height="17.9688" y="235.3984" stroke="none"/>
    </g>
    <g fill="rgb(166,166,178)" stroke-miterlimit="1.45" transform="matrix(0.3392,0,0,0.3392,2.7136,248.2904)" stroke-linecap="butt" stroke="rgb(166,166,178)">
      <rect fill="none" width="69.7758" x="1282.67" height="17.9688" y="235.3984"/>
    </g>
    <g fill="rgb(238,238,255)" transform="matrix(0.3392,0,0,0.3392,2.7136,248.2904)" stroke="rgb(238,238,255)">
      <rect width="73.96" x="1282.67" height="39.1641" y="253.3672" stroke="none"/>
    </g>
    <g fill="rgb(166,166,178)" stroke-miterlimit="1.45" transform="matrix(0.3392,0,0,0.3392,2.7136,248.2904)" stroke-linecap="butt" stroke="rgb(166,166,178)">
      <rect fill="none" width="73.96" x="1282.67" height="39.1641" y="253.3672"/>
    </g>
    <g font-family="sans-serif" transform="matrix(0.3392,0,0,0.3392,2.7136,248.2904)">
      <text xml:space="preserve" x="1288.67" y="248.5371" onclick="umlload('http://docs.oracle.com/javase/6/docs/api/java/net/package-summary.html')" stroke="none">java.net</text>
    </g>
    <g fill="rgb(187,187,255)" transform="matrix(0.3392,0,0,0.3392,2.7136,248.2904)" stroke="rgb(187,187,255)">
      <rect x="1290.67" y="261.3984" clip-path="url(#clipPath3)" width="32.96" height="23.1328" stroke="none"/>
    </g>
    <g fill="rgb(130,130,178)" stroke-miterlimit="1.45" transform="matrix(0.3392,0,0,0.3392,2.7136,248.2904)" stroke-linecap="butt" stroke="rgb(130,130,178)">
      <rect fill="none" width="32.96" x="1290.67" height="23.1328" y="261.3984"/>
    </g>
    <g font-size="13" font-weight="bold" font-family="sans-serif" transform="matrix(0.3392,0,0,0.3392,2.7136,248.2904)">
      <text xml:space="preserve" x="1295.15" y="277.4653" onclick="umlload('http://docs.oracle.com/javase/6/docs/api/java/net/URI.html')" stroke="none">URI</text>
    </g>
    <g fill="rgb(238,238,255)" transform="matrix(0.3392,0,0,0.3392,2.7136,248.2904)" stroke="rgb(238,238,255)">
      <rect width="400.7766" x="1282.67" height="17.9688" y="148.2656" stroke="none"/>
    </g>
    <g fill="rgb(166,166,178)" stroke-miterlimit="1.45" transform="matrix(0.3392,0,0,0.3392,2.7136,248.2904)" stroke-linecap="butt" stroke="rgb(166,166,178)">
      <rect fill="none" width="400.7766" x="1282.67" height="17.9688" y="148.2656"/>
    </g>
    <g fill="rgb(238,238,255)" transform="matrix(0.3392,0,0,0.3392,2.7136,248.2904)" stroke="rgb(238,238,255)">
      <rect width="401.14" x="1282.67" height="39.1641" y="166.2344" stroke="none"/>
    </g>
    <g fill="rgb(166,166,178)" stroke-miterlimit="1.45" transform="matrix(0.3392,0,0,0.3392,2.7136,248.2904)" stroke-linecap="butt" stroke="rgb(166,166,178)">
      <rect fill="none" width="401.14" x="1282.67" height="39.1641" y="166.2344"/>
    </g>
    <g font-family="sans-serif" transform="matrix(0.3392,0,0,0.3392,2.7136,248.2904)">
      <text xml:space="preserve" x="1288.67" y="161.4043" onclick="umlload('../../../../../../../com/msopentech/odatajclient/engine/data/metadata/edm/package-summary.html')" stroke="none">com.msopentech.odatajclient.engine.data.metadata.edm</text>
    </g>
    <g fill="rgb(187,187,255)" transform="matrix(0.3392,0,0,0.3392,2.7136,248.2904)" stroke="rgb(187,187,255)">
      <rect x="1290.67" y="174.2656" clip-path="url(#clipPath4)" width="245.14" height="23.1328" stroke="none"/>
    </g>
    <g fill="rgb(130,130,178)" stroke-miterlimit="1.45" transform="matrix(0.3392,0,0,0.3392,2.7136,248.2904)" stroke-linecap="butt" stroke="rgb(130,130,178)">
      <rect fill="none" width="245.14" x="1290.67" height="23.1328" y="174.2656"/>
    </g>
    <g font-size="13" font-weight="bold" font-family="sans-serif" transform="matrix(0.3392,0,0,0.3392,2.7136,248.2904)">
      <text xml:space="preserve" x="1298.24" y="190.3325" onclick="umlload('../../../../../../../com/msopentech/odatajclient/engine/data/metadata/edm/EntityContainer.FunctionImport.html')" stroke="none">EntityContainer.FunctionImport</text>
    </g>
    <g fill="rgb(238,238,255)" transform="matrix(0.3392,0,0,0.3392,2.7136,248.2904)" stroke="rgb(238,238,255)">
      <rect width="367.8887" x="1282.67" height="17.9688" y="61.1328" stroke="none"/>
    </g>
    <g fill="rgb(166,166,178)" stroke-miterlimit="1.45" transform="matrix(0.3392,0,0,0.3392,2.7136,248.2904)" stroke-linecap="butt" stroke="rgb(166,166,178)">
      <rect fill="none" width="367.8887" x="1282.67" height="17.9688" y="61.1328"/>
    </g>
    <g fill="rgb(238,238,255)" transform="matrix(0.3392,0,0,0.3392,2.7136,248.2904)" stroke="rgb(238,238,255)">
      <rect width="368.36" x="1282.67" height="39.1641" y="79.1016" stroke="none"/>
    </g>
    <g fill="rgb(166,166,178)" stroke-miterlimit="1.45" transform="matrix(0.3392,0,0,0.3392,2.7136,248.2904)" stroke-linecap="butt" stroke="rgb(166,166,178)">
      <rect fill="none" width="368.36" x="1282.67" height="39.1641" y="79.1016"/>
    </g>
    <g font-family="sans-serif" transform="matrix(0.3392,0,0,0.3392,2.7136,248.2904)">
      <text xml:space="preserve" x="1288.67" y="74.2715" onclick="umlload('../../../../../../../com/msopentech/odatajclient/engine/data/metadata/package-summary.html')" stroke="none">com.msopentech.odatajclient.engine.data.metadata</text>
    </g>
    <g fill="rgb(187,187,255)" transform="matrix(0.3392,0,0,0.3392,2.7136,248.2904)" stroke="rgb(187,187,255)">
      <rect x="1290.67" y="87.1328" clip-path="url(#clipPath5)" width="115.36" height="23.1328" stroke="none"/>
    </g>
    <g fill="rgb(130,130,178)" stroke-miterlimit="1.45" transform="matrix(0.3392,0,0,0.3392,2.7136,248.2904)" stroke-linecap="butt" stroke="rgb(130,130,178)">
      <rect fill="none" width="115.36" x="1290.67" height="23.1328" y="87.1328"/>
    </g>
    <g font-size="13" font-weight="bold" font-family="sans-serif" transform="matrix(0.3392,0,0,0.3392,2.7136,248.2904)">
      <text xml:space="preserve" x="1296.35" y="103.1997" onclick="umlload('../../../../../../../com/msopentech/odatajclient/engine/data/metadata/EdmMetadata.html')" stroke="none">EdmMetadata</text>
    </g>
    <g fill="rgb(238,238,255)" transform="matrix(0.3392,0,0,0.3392,2.7136,248.2904)" stroke="rgb(238,238,255)">
      <rect width="471.8569" x="1282.67" height="17.9688" y="-26" stroke="none"/>
    </g>
    <g fill="rgb(166,166,178)" stroke-miterlimit="1.45" transform="matrix(0.3392,0,0,0.3392,2.7136,248.2904)" stroke-linecap="butt" stroke="rgb(166,166,178)">
      <rect fill="none" width="471.8569" x="1282.67" height="17.9688" y="-26"/>
    </g>
    <g fill="rgb(238,238,255)" transform="matrix(0.3392,0,0,0.3392,2.7136,248.2904)" stroke="rgb(238,238,255)">
      <rect width="472.06" x="1282.67" height="39.1641" y="-8.0312" stroke="none"/>
    </g>
    <g fill="rgb(166,166,178)" stroke-miterlimit="1.45" transform="matrix(0.3392,0,0,0.3392,2.7136,248.2904)" stroke-linecap="butt" stroke="rgb(166,166,178)">
      <rect fill="none" width="472.06" x="1282.67" height="39.1641" y="-8.0312"/>
    </g>
    <g font-family="sans-serif" transform="matrix(0.3392,0,0,0.3392,2.7136,248.2904)">
      <text xml:space="preserve" x="1288.67" y="-12.8613" onclick="umlload('../../../../../../../com/msopentech/odatajclient/engine/communication/request/invoke/package-summary.html')" stroke="none">com.msopentech.odatajclient.engine.communication.request.invoke</text>
    </g>
    <g fill="rgb(187,187,255)" transform="matrix(0.3392,0,0,0.3392,2.7136,248.2904)" stroke="rgb(187,187,255)">
      <rect x="1290.67" y="0" clip-path="url(#clipPath6)" width="414.06" height="23.1328" stroke="none"/>
    </g>
    <g fill="rgb(130,130,178)" stroke-miterlimit="1.45" transform="matrix(0.3392,0,0,0.3392,2.7136,248.2904)" stroke-linecap="butt" stroke="rgb(130,130,178)">
      <rect fill="none" width="414.06" x="1290.67" height="23.1328" y="0"/>
    </g>
    <g font-size="13" font-weight="bold" font-family="sans-serif" transform="matrix(0.3392,0,0,0.3392,2.7136,248.2904)">
      <text xml:space="preserve" x="1300.7" y="16.0669" onclick="umlload('../../../../../../../com/msopentech/odatajclient/engine/communication/request/invoke/ODataInvokeRequest.html')" stroke="none">ODataInvokeRequest&lt;T extends ODataInvokeResult&gt;</text>
    </g>
    <g fill="rgb(238,238,255)" transform="matrix(0.3392,0,0,0.3392,2.7136,248.2904)" stroke="rgb(238,238,255)">
      <rect width="76.1412" x="575.495" height="17.9688" y="-133.1328" stroke="none"/>
    </g>
    <g fill="rgb(166,166,178)" stroke-miterlimit="1.45" transform="matrix(0.3392,0,0,0.3392,2.7136,248.2904)" stroke-linecap="butt" stroke="rgb(166,166,178)">
      <rect fill="none" width="76.1412" x="575.495" height="17.9688" y="-133.1328"/>
    </g>
    <g fill="rgb(238,238,255)" transform="matrix(0.3392,0,0,0.3392,2.7136,248.2904)" stroke="rgb(238,238,255)">
      <rect width="76.1412" x="575.495" height="39.1641" y="-115.1641" stroke="none"/>
    </g>
    <g fill="rgb(166,166,178)" stroke-miterlimit="1.45" transform="matrix(0.3392,0,0,0.3392,2.7136,248.2904)" stroke-linecap="butt" stroke="rgb(166,166,178)">
      <rect fill="none" width="76.1412" x="575.495" height="39.1641" y="-115.1641"/>
    </g>
    <g font-family="sans-serif" transform="matrix(0.3392,0,0,0.3392,2.7136,248.2904)">
      <text xml:space="preserve" x="581.495" y="-119.9941" onclick="umlload('http://docs.oracle.com/javase/6/docs/api/java/lang/package-summary.html')" stroke="none">java.lang</text>
    </g>
    <g fill="rgb(187,187,255)" transform="matrix(0.3392,0,0,0.3392,2.7136,248.2904)" stroke="rgb(187,187,255)">
      <rect x="583.495" y="-107.1328" clip-path="url(#clipPath7)" width="57.68" height="23.1328" stroke="none"/>
    </g>
    <g fill="rgb(130,130,178)" stroke-miterlimit="1.45" transform="matrix(0.3392,0,0,0.3392,2.7136,248.2904)" stroke-linecap="butt" stroke="rgb(130,130,178)">
      <rect fill="none" width="57.68" x="583.495" height="23.1328" y="-107.1328"/>
    </g>
    <g font-size="13" font-weight="bold" font-family="sans-serif" transform="matrix(0.3392,0,0,0.3392,2.7136,248.2904)">
      <text xml:space="preserve" x="588.335" y="-91.0659" onclick="umlload('http://docs.oracle.com/javase/6/docs/api/java/lang/Object.html')" stroke="none">Object</text>
    </g>
    <g fill="rgb(238,238,255)" transform="matrix(0.3392,0,0,0.3392,2.7136,248.2904)" stroke="rgb(238,238,255)">
      <rect width="471.8569" x="-8" height="17.9688" y="-26" stroke="none"/>
    </g>
    <g fill="rgb(166,166,178)" stroke-miterlimit="1.45" transform="matrix(0.3392,0,0,0.3392,2.7136,248.2904)" stroke-linecap="butt" stroke="rgb(166,166,178)">
      <rect fill="none" width="471.8569" x="-8" height="17.9688" y="-26"/>
    </g>
    <g fill="rgb(238,238,255)" transform="matrix(0.3392,0,0,0.3392,2.7136,248.2904)" stroke="rgb(238,238,255)">
      <rect width="1240.67" x="-8" height="405.2772" y="-8.0312" stroke="none"/>
    </g>
    <g fill="rgb(166,166,178)" stroke-miterlimit="1.45" transform="matrix(0.3392,0,0,0.3392,2.7136,248.2904)" stroke-linecap="butt" stroke="rgb(166,166,178)">
      <rect fill="none" width="1240.67" x="-8" height="405.2772" y="-8.0312"/>
    </g>
    <g font-family="sans-serif" transform="matrix(0.3392,0,0,0.3392,2.7136,248.2904)">
      <text xml:space="preserve" x="-2" y="-12.8613" onclick="umlload('package-summary.html')" stroke="none">com.msopentech.odatajclient.engine.communication.request.invoke</text>
    </g>
    <g fill="rgb(187,187,255)" transform="matrix(0.3392,0,0,0.3392,2.7136,248.2904)" stroke="rgb(187,187,255)">
      <rect x="0" y="0" clip-path="url(#clipPath8)" width="1224.67" height="26.625" stroke="none"/>
      <line clip-path="url(#clipPath8)" fill="none" x1="0" x2="1224.67" y1="26.625" y2="26.625" stroke="black"/>
      <rect x="0" y="27.625" clip-path="url(#clipPath8)" width="1224.67" height="15.9688" stroke="none"/>
      <line clip-path="url(#clipPath8)" fill="none" x1="0" x2="1224.67" y1="43.5938" y2="43.5938" stroke="black"/>
      <rect x="0" y="44.5938" clip-path="url(#clipPath8)" width="1224.67" height="344.6522" stroke="none"/>
    </g>
    <g fill="rgb(130,130,178)" stroke-miterlimit="1.45" transform="matrix(0.3392,0,0,0.3392,2.7136,248.2904)" stroke-linecap="butt" stroke="rgb(130,130,178)">
      <rect fill="none" width="1224.67" x="0" height="389.246" y="0"/>
    </g>
    <g font-size="16" font-weight="bold" font-family="sans-serif" transform="matrix(0.3392,0,0,0.3392,2.7136,248.2904)">
      <text xml:space="preserve" x="484.335" y="18.8516" onclick="umlload('#')" stroke="none">ODataInvokeRequestFactory</text>
    </g>
    <g font-family="sans-serif" transform="matrix(0.3392,0,0,0.3392,2.7136,248.2904)">
      <text xml:space="preserve" x="4" y="38.1719" stroke="none">+</text>
      <text xml:space="preserve" x="19" y="39.7637" onclick="umlload('#ODataInvokeRequestFactory()')" stroke="none">ODataInvokeRequestFactory()</text>
    </g>
    <g font-family="sans-serif" transform="matrix(0.3392,0,0,0.3392,2.7136,248.2904)">
      <text xml:space="preserve" x="4" y="55.1719" stroke="none">+</text>
      <text xml:space="preserve" x="19" y="56.7324" onclick="umlload('#getInvokeRequest(java.net.URI, com.msopentech.odatajclient.engine.data.metadata.EdmMetadata, com.msopentech.odatajclient.engine.data.metadata.edm.EntityContainer.FunctionImport)')" stroke="none">getInvokeRequest(URI, EdmMetadata, EntityContainer.FunctionImport) : &lt;T extends ODataInvokeResult&gt; ODataInvokeRequest&lt;T extends ODataInvokeResult&gt;</text>
      <line y2="59.5625" fill="none" x1="19" x2="1012" y1="59.5625"/>
    </g>
    <g font-family="sans-serif" transform="matrix(0.3392,0,0,0.3392,2.7136,248.2904)">
      <text xml:space="preserve" x="4" y="71.1719" stroke="none">+</text>
      <text xml:space="preserve" x="19" y="72.7012" onclick="umlload('#getInvokeRequest(java.net.URI, com.msopentech.odatajclient.engine.data.metadata.EdmMetadata, com.msopentech.odatajclient.engine.data.metadata.edm.EntityContainer.FunctionImport, java.util.Map)')" stroke="none">getInvokeRequest(URI, EdmMetadata, EntityContainer.FunctionImport, Map&lt;String, ODataValue&gt;) : &lt;T extends ODataInvokeResult&gt; ODataInvokeRequest&lt;T extends ODataInvokeResult&gt;</text>
      <line y2="75.5312" fill="none" x1="19" x2="1185" y1="75.5312"/>
    </g>
    <g font-family="sans-serif" transform="matrix(0.3392,0,0,0.3392,2.7136,248.2904)">
      <text xml:space="preserve" x="-2" y="422.1543" onclick="umlload('http://www.yworks.com/')" stroke="none">yWorks UML Doclet</text>
    </g>
    <g stroke-miterlimit="1.45" transform="matrix(0.3392,0,0,0.3392,2.7136,248.2904)" stroke-linecap="butt">
      <path fill="none" d="M612.335 0.0046 L612.335 -69"/>
      <path fill="white" d="M612.335 -84 L606.335 -68 L618.335 -68 Z" stroke="none"/>
      <path fill="none" d="M612.335 -84 L606.335 -68 L618.335 -68 Z"/>
      <path fill="none" stroke-dasharray="6,2" d="M1224.671 11.5664 L1290.67 11.5664"/>
      <line stroke-linecap="square" transform="matrix(1,0,0,1,1290.67,11.5664)" fill="none" x1="0" x2="-14" y1="0" y2="-4" stroke-miterlimit="10"/>
      <line stroke-linecap="square" transform="matrix(1,0,0,1,1290.67,11.5664)" fill="none" x1="0" x2="-14" y1="0" y2="4" stroke-miterlimit="10"/>
    </g>
    <g stroke-dasharray="6,2" stroke-miterlimit="1.45" transform="matrix(0.3392,0,0,0.3392,2.7136,248.2904)" stroke-linecap="butt">
      <path fill="none" d="M1224.6776 98.6992 L1290.67 98.6992"/>
      <line stroke-linecap="square" transform="matrix(1,0,0,1,1290.67,98.6992)" fill="none" x1="0" x2="-14" y1="0" y2="-4" stroke-dasharray="none" stroke-miterlimit="10"/>
      <line stroke-linecap="square" transform="matrix(1,0,0,1,1290.67,98.6992)" fill="none" x1="0" x2="-14" y1="0" y2="4" stroke-dasharray="none" stroke-miterlimit="10"/>
    </g>
    <g stroke-dasharray="6,2" stroke-miterlimit="1.45" transform="matrix(0.3392,0,0,0.3392,2.7136,248.2904)" stroke-linecap="butt">
      <path fill="none" d="M1224.6969 185.832 L1290.67 185.832"/>
      <line stroke-linecap="square" transform="matrix(1,0,0,1,1290.67,185.832)" fill="none" x1="0" x2="-14" y1="0" y2="-4" stroke-dasharray="none" stroke-miterlimit="10"/>
      <line stroke-linecap="square" transform="matrix(1,0,0,1,1290.67,185.832)" fill="none" x1="0" x2="-14" y1="0" y2="4" stroke-dasharray="none" stroke-miterlimit="10"/>
    </g>
    <g stroke-dasharray="6,2" stroke-miterlimit="1.45" transform="matrix(0.3392,0,0,0.3392,2.7136,248.2904)" stroke-linecap="butt">
      <path fill="none" d="M1224.6661 272.9648 L1290.67 272.9648"/>
      <line stroke-linecap="square" transform="matrix(1,0,0,1,1290.67,272.9648)" fill="none" x1="0" x2="-14" y1="0" y2="-4" stroke-dasharray="none" stroke-miterlimit="10"/>
      <line stroke-linecap="square" transform="matrix(1,0,0,1,1290.67,272.9648)" fill="none" x1="0" x2="-14" y1="0" y2="4" stroke-dasharray="none" stroke-miterlimit="10"/>
    </g>
    <g stroke-dasharray="6,2" stroke-miterlimit="1.45" transform="matrix(0.3392,0,0,0.3392,2.7136,248.2904)" stroke-linecap="butt">
      <path fill="none" d="M1224.6494 364.8886 L1290.67 364.8886"/>
      <line stroke-linecap="square" transform="matrix(1,0,0,1,1290.67,364.8886)" fill="none" x1="0" x2="-14" y1="0" y2="-4" stroke-dasharray="none" stroke-miterlimit="10"/>
      <line stroke-linecap="square" transform="matrix(1,0,0,1,1290.67,364.8886)" fill="none" x1="0" x2="-14" y1="0" y2="4" stroke-dasharray="none" stroke-miterlimit="10"/>
    </g>
  </g>
</svg>
