<?xml version="1.0" encoding="UTF-8"?><svg xmlns="http://www.w3.org/2000/svg" xmlns:xlink="http://www.w3.org/1999/xlink" fill-opacity="1" color-rendering="auto" color-interpolation="auto" stroke="black" text-rendering="auto" stroke-linecap="square" width="598" stroke-miterlimit="10" stroke-opacity="1" shape-rendering="auto" fill="black" stroke-dasharray="none" font-weight="normal" stroke-width="1" height="598" font-family="'Dialog'" font-style="normal" stroke-linejoin="miter" font-size="12" stroke-dashoffset="0" image-rendering="auto">
  <!--Generated by ySVG-->
  <defs id="genericDefs"/>
  <g>
    <defs id="defs1">
      <clipPath clipPathUnits="userSpaceOnUse" id="clipPath1">
        <path d="M0 0 L598 0 L598 598 L0 598 L0 0 Z"/>
      </clipPath>
      <clipPath clipPathUnits="userSpaceOnUse" id="clipPath2">
        <path d="M569.67 358.1132 L602.63 358.1132 L602.63 381.246 L569.67 381.246 L569.67 358.1132 Z"/>
      </clipPath>
      <clipPath clipPathUnits="userSpaceOnUse" id="clipPath3">
        <path d="M569.67 270.9804 L671.64 270.9804 L671.64 294.1132 L569.67 294.1132 L569.67 270.9804 Z"/>
      </clipPath>
      <clipPath clipPathUnits="userSpaceOnUse" id="clipPath4">
        <path d="M569.67 183.8475 L709.75 183.8475 L709.75 206.9804 L569.67 206.9804 L569.67 183.8475 Z"/>
      </clipPath>
      <clipPath clipPathUnits="userSpaceOnUse" id="clipPath5">
        <path d="M1172.719 103.4902 C1172.719 112.5241 1037.7218 119.8475 871.1945 119.8475 C704.6671 119.8475 569.67 112.5241 569.67 103.4902 C569.67 94.4563 704.6671 87.1328 871.1945 87.1328 C1037.7218 87.1328 1172.719 94.4563 1172.719 103.4902 Z"/>
      </clipPath>
      <clipPath clipPathUnits="userSpaceOnUse" id="clipPath6">
        <path d="M569.67 -0 L669.58 -0 L669.58 23.1328 L569.67 23.1328 L569.67 -0 Z"/>
      </clipPath>
      <clipPath clipPathUnits="userSpaceOnUse" id="clipPath7">
        <path d="M-66 136.623 C-66 145.6569 -95.6733 152.9804 -132.2771 152.9804 C-168.881 152.9804 -198.5542 145.6569 -198.5542 136.623 C-198.5542 127.5891 -168.881 120.2656 -132.2771 120.2656 C-95.6733 120.2656 -66 127.5891 -66 136.623 Z"/>
      </clipPath>
      <clipPath clipPathUnits="userSpaceOnUse" id="clipPath8">
        <path d="M-145.31 -0 L-66 -0 L-66 23.1328 L-145.31 23.1328 L-145.31 -0 Z"/>
      </clipPath>
      <clipPath clipPathUnits="userSpaceOnUse" id="clipPath9">
        <path d="M-145.31 33.1328 L-91.75 33.1328 L-91.75 56.2656 L-145.31 56.2656 L-145.31 33.1328 Z"/>
      </clipPath>
      <clipPath clipPathUnits="userSpaceOnUse" id="clipPath10">
        <path d="M1037.8508 -100.3574 C1037.8508 -91.3234 976.8739 -84 901.655 -84 C826.4361 -84 765.4592 -91.3234 765.4592 -100.3574 C765.4592 -109.3913 826.4361 -116.7147 901.655 -116.7147 C976.8739 -116.7147 1037.8508 -109.3913 1037.8508 -100.3574 Z"/>
      </clipPath>
      <clipPath clipPathUnits="userSpaceOnUse" id="clipPath11">
        <path d="M-134.93 -107.1328 L638.6 -107.1328 L638.6 -84 L-134.93 -84 L-134.93 -107.1328 Z"/>
      </clipPath>
      <clipPath clipPathUnits="userSpaceOnUse" id="clipPath12">
        <path d="M0 -0 L503.67 -0 L503.67 389.246 L0 389.246 L0 -0 Z"/>
      </clipPath>
      <script type="text/ecmascript"><![CDATA[
function umlload(newLocation)
{
if (newLocation.charAt(0) != '#') {
if (newLocation.indexOf("://") > -1) {
window.parent.location.href = newLocation;
} else {
var tmp = window.parent.location.href;
tmp = tmp.substring(0, tmp.lastIndexOf("/") + 1);
window.parent.location.href = tmp.concat(newLocation);
}
} else {
window.parent.location.hash = newLocation;
}
}
]]></script>
    </defs>
    <g fill="rgb(238,238,255)" transform="matrix(0.4308,0,0,0.4308,89.183,236.5288)" stroke="rgb(238,238,255)">
      <rect width="69.7758" x="561.67" height="17.9688" y="332.1132" stroke="none"/>
    </g>
    <g fill="rgb(166,166,178)" stroke-miterlimit="1.45" transform="matrix(0.4308,0,0,0.4308,89.183,236.5288)" stroke-linecap="butt" stroke="rgb(166,166,178)">
      <rect fill="none" width="69.7758" x="561.67" height="17.9688" y="332.1132"/>
    </g>
    <g fill="rgb(238,238,255)" transform="matrix(0.4308,0,0,0.4308,89.183,236.5288)" stroke="rgb(238,238,255)">
      <rect width="73.96" x="561.67" height="39.1641" y="350.0819" stroke="none"/>
    </g>
    <g fill="rgb(166,166,178)" stroke-miterlimit="1.45" transform="matrix(0.4308,0,0,0.4308,89.183,236.5288)" stroke-linecap="butt" stroke="rgb(166,166,178)">
      <rect fill="none" width="73.96" x="561.67" height="39.1641" y="350.0819"/>
    </g>
    <g font-family="sans-serif" transform="matrix(0.4308,0,0,0.4308,89.183,236.5288)">
      <text xml:space="preserve" x="567.67" y="345.2519" onclick="umlload('http://docs.oracle.com/javase/6/docs/api/java/net/package-summary.html')" stroke="none">java.net</text>
    </g>
    <g fill="rgb(187,187,255)" transform="matrix(0.4308,0,0,0.4308,89.183,236.5288)" stroke="rgb(187,187,255)">
      <rect x="569.67" y="358.1132" clip-path="url(#clipPath2)" width="32.96" height="23.1328" stroke="none"/>
    </g>
    <g fill="rgb(130,130,178)" stroke-miterlimit="1.45" transform="matrix(0.4308,0,0,0.4308,89.183,236.5288)" stroke-linecap="butt" stroke="rgb(130,130,178)">
      <rect fill="none" width="32.96" x="569.67" height="23.1328" y="358.1132"/>
    </g>
    <g font-size="13" font-weight="bold" font-family="sans-serif" transform="matrix(0.4308,0,0,0.4308,89.183,236.5288)">
      <text xml:space="preserve" x="574.15" y="374.1801" onclick="umlload('http://docs.oracle.com/javase/6/docs/api/java/net/URI.html')" stroke="none">URI</text>
    </g>
    <g fill="rgb(238,238,255)" transform="matrix(0.4308,0,0,0.4308,89.183,236.5288)" stroke="rgb(238,238,255)">
      <rect width="59.1668" x="561.67" height="17.9688" y="244.9804" stroke="none"/>
    </g>
    <g fill="rgb(166,166,178)" stroke-miterlimit="1.45" transform="matrix(0.4308,0,0,0.4308,89.183,236.5288)" stroke-linecap="butt" stroke="rgb(166,166,178)">
      <rect fill="none" width="59.1668" x="561.67" height="17.9688" y="244.9804"/>
    </g>
    <g fill="rgb(238,238,255)" transform="matrix(0.4308,0,0,0.4308,89.183,236.5288)" stroke="rgb(238,238,255)">
      <rect width="117.97" x="561.67" height="39.1641" y="262.9491" stroke="none"/>
    </g>
    <g fill="rgb(166,166,178)" stroke-miterlimit="1.45" transform="matrix(0.4308,0,0,0.4308,89.183,236.5288)" stroke-linecap="butt" stroke="rgb(166,166,178)">
      <rect fill="none" width="117.97" x="561.67" height="39.1641" y="262.9491"/>
    </g>
    <g font-family="sans-serif" transform="matrix(0.4308,0,0,0.4308,89.183,236.5288)">
      <text xml:space="preserve" x="567.67" y="258.119" onclick="umlload('http://docs.oracle.com/javase/6/docs/api/java/io/package-summary.html')" stroke="none">java.io</text>
    </g>
    <g fill="rgb(204,204,255)" transform="matrix(0.4308,0,0,0.4308,89.183,236.5288)" stroke="rgb(204,204,255)">
      <rect x="569.67" y="270.9804" clip-path="url(#clipPath3)" width="101.97" height="23.1328" stroke="none"/>
    </g>
    <g fill="rgb(142,142,178)" stroke-miterlimit="1.45" transform="matrix(0.4308,0,0,0.4308,89.183,236.5288)" stroke-linecap="butt" stroke="rgb(142,142,178)">
      <rect fill="none" width="101.97" x="569.67" height="23.1328" y="270.9804"/>
    </g>
    <g font-size="13" font-weight="bold" font-family="sans-serif" transform="matrix(0.4308,0,0,0.4308,89.183,236.5288)">
      <text xml:space="preserve" x="575.155" y="287.0473" onclick="umlload('http://docs.oracle.com/javase/6/docs/api/java/io/InputStream.html')" stroke="none">InputStream</text>
    </g>
    <g fill="rgb(238,238,255)" transform="matrix(0.4308,0,0,0.4308,89.183,236.5288)" stroke="rgb(238,238,255)">
      <rect width="311.661" x="561.67" height="17.9688" y="157.8475" stroke="none"/>
    </g>
    <g fill="rgb(166,166,178)" stroke-miterlimit="1.45" transform="matrix(0.4308,0,0,0.4308,89.183,236.5288)" stroke-linecap="butt" stroke="rgb(166,166,178)">
      <rect fill="none" width="311.661" x="561.67" height="17.9688" y="157.8475"/>
    </g>
    <g fill="rgb(238,238,255)" transform="matrix(0.4308,0,0,0.4308,89.183,236.5288)" stroke="rgb(238,238,255)">
      <rect width="312.08" x="561.67" height="39.1641" y="175.8163" stroke="none"/>
    </g>
    <g fill="rgb(166,166,178)" stroke-miterlimit="1.45" transform="matrix(0.4308,0,0,0.4308,89.183,236.5288)" stroke-linecap="butt" stroke="rgb(166,166,178)">
      <rect fill="none" width="312.08" x="561.67" height="39.1641" y="175.8163"/>
    </g>
    <g font-family="sans-serif" transform="matrix(0.4308,0,0,0.4308,89.183,236.5288)">
      <text xml:space="preserve" x="567.67" y="170.9862" onclick="umlload('../../../../../../../com/msopentech/odatajclient/engine/format/package-summary.html')" stroke="none">com.msopentech.odatajclient.engine.format</text>
    </g>
    <g fill="rgb(170,170,255)" transform="matrix(0.4308,0,0,0.4308,89.183,236.5288)" stroke="rgb(170,170,255)">
      <rect x="569.67" y="183.8475" clip-path="url(#clipPath4)" width="140.08" height="23.1328" stroke="none"/>
    </g>
    <g fill="rgb(118,118,178)" stroke-miterlimit="1.45" transform="matrix(0.4308,0,0,0.4308,89.183,236.5288)" stroke-linecap="butt" stroke="rgb(118,118,178)">
      <rect fill="none" width="140.08" x="569.67" height="23.1328" y="183.8475"/>
    </g>
    <g font-size="13" font-weight="bold" font-family="sans-serif" transform="matrix(0.4308,0,0,0.4308,89.183,236.5288)">
      <text xml:space="preserve" x="575.71" y="199.9144" onclick="umlload('../../../../../../../com/msopentech/odatajclient/engine/format/ODataPubFormat.html')" stroke="none">ODataPubFormat</text>
    </g>
    <g fill="rgb(238,238,255)" transform="matrix(0.4308,0,0,0.4308,89.183,236.5288)" stroke="rgb(238,238,255)">
      <rect width="435.7863" x="561.67" height="17.9688" y="61.1328" stroke="none"/>
    </g>
    <g fill="rgb(166,166,178)" stroke-miterlimit="1.45" transform="matrix(0.4308,0,0,0.4308,89.183,236.5288)" stroke-linecap="butt" stroke="rgb(166,166,178)">
      <rect fill="none" width="435.7863" x="561.67" height="17.9688" y="61.1328"/>
    </g>
    <g fill="rgb(238,238,255)" transform="matrix(0.4308,0,0,0.4308,89.183,236.5288)" stroke="rgb(238,238,255)">
      <rect width="619.0489" x="561.67" height="48.746" y="79.1016" stroke="none"/>
    </g>
    <g fill="rgb(166,166,178)" stroke-miterlimit="1.45" transform="matrix(0.4308,0,0,0.4308,89.183,236.5288)" stroke-linecap="butt" stroke="rgb(166,166,178)">
      <rect fill="none" width="619.0489" x="561.67" height="48.746" y="79.1016"/>
    </g>
    <g font-family="sans-serif" transform="matrix(0.4308,0,0,0.4308,89.183,236.5288)">
      <text xml:space="preserve" x="567.67" y="74.2715" onclick="umlload('../../../../../../../com/msopentech/odatajclient/engine/communication/response/package-summary.html')" stroke="none">com.msopentech.odatajclient.engine.communication.response</text>
    </g>
    <g fill="rgb(221,221,255)" transform="matrix(0.4308,0,0,0.4308,89.183,236.5288)" stroke="rgb(221,221,255)">
      <rect x="569.67" y="87.1328" clip-path="url(#clipPath5)" width="603.0489" height="32.7147" stroke="none"/>
    </g>
    <g fill="rgb(154,154,178)" stroke-miterlimit="1.45" transform="matrix(0.4308,0,0,0.4308,89.183,236.5288)" stroke-linecap="butt" stroke="rgb(154,154,178)">
      <ellipse rx="301.5245" fill="none" ry="16.3574" cx="871.1945" cy="103.4902"/>
    </g>
    <g font-style="italic" font-size="13" font-weight="bold" font-family="sans-serif" transform="matrix(0.4308,0,0,0.4308,89.183,236.5288)">
      <text xml:space="preserve" x="668.1945" y="107.9907" onclick="umlload('../../../../../../../com/msopentech/odatajclient/engine/communication/response/ODataInvokeResponse.html')" stroke="none">ODataInvokeResponse&lt;T extends ODataInvokeResult&gt;</text>
    </g>
    <g fill="rgb(238,238,255)" transform="matrix(0.4308,0,0,0.4308,89.183,236.5288)" stroke="rgb(238,238,255)">
      <rect width="336.0617" x="561.67" height="17.9688" y="-26" stroke="none"/>
    </g>
    <g fill="rgb(166,166,178)" stroke-miterlimit="1.45" transform="matrix(0.4308,0,0,0.4308,89.183,236.5288)" stroke-linecap="butt" stroke="rgb(166,166,178)">
      <rect fill="none" width="336.0617" x="561.67" height="17.9688" y="-26"/>
    </g>
    <g fill="rgb(238,238,255)" transform="matrix(0.4308,0,0,0.4308,89.183,236.5288)" stroke="rgb(238,238,255)">
      <rect width="336.0617" x="561.67" height="39.1641" y="-8.0312" stroke="none"/>
    </g>
    <g fill="rgb(166,166,178)" stroke-miterlimit="1.45" transform="matrix(0.4308,0,0,0.4308,89.183,236.5288)" stroke-linecap="butt" stroke="rgb(166,166,178)">
      <rect fill="none" width="336.0617" x="561.67" height="39.1641" y="-8.0312"/>
    </g>
    <g font-family="sans-serif" transform="matrix(0.4308,0,0,0.4308,89.183,236.5288)">
      <text xml:space="preserve" x="567.67" y="-12.8613" onclick="umlload('../../../../../../../com/msopentech/odatajclient/engine/client/http/package-summary.html')" stroke="none">com.msopentech.odatajclient.engine.client.http</text>
    </g>
    <g fill="rgb(170,170,255)" transform="matrix(0.4308,0,0,0.4308,89.183,236.5288)" stroke="rgb(170,170,255)">
      <rect x="569.67" y="0" clip-path="url(#clipPath6)" width="99.91" height="23.1328" stroke="none"/>
    </g>
    <g fill="rgb(118,118,178)" stroke-miterlimit="1.45" transform="matrix(0.4308,0,0,0.4308,89.183,236.5288)" stroke-linecap="butt" stroke="rgb(118,118,178)">
      <rect fill="none" width="99.91" x="569.67" height="23.1328" y="0"/>
    </g>
    <g font-size="13" font-weight="bold" font-family="sans-serif" transform="matrix(0.4308,0,0,0.4308,89.183,236.5288)">
      <text xml:space="preserve" x="575.125" y="16.0669" onclick="umlload('../../../../../../../com/msopentech/odatajclient/engine/client/http/HttpMethod.html')" stroke="none">HttpMethod</text>
    </g>
    <g fill="rgb(238,238,255)" transform="matrix(0.4308,0,0,0.4308,89.183,236.5288)" stroke="rgb(238,238,255)">
      <rect width="67.654" x="-206.5542" height="17.9688" y="94.2656" stroke="none"/>
    </g>
    <g fill="rgb(166,166,178)" stroke-miterlimit="1.45" transform="matrix(0.4308,0,0,0.4308,89.183,236.5288)" stroke-linecap="butt" stroke="rgb(166,166,178)">
      <rect fill="none" width="67.654" x="-206.5542" height="17.9688" y="94.2656"/>
    </g>
    <g fill="rgb(238,238,255)" transform="matrix(0.4308,0,0,0.4308,89.183,236.5288)" stroke="rgb(238,238,255)">
      <rect width="148.5542" x="-206.5542" height="48.746" y="112.2344" stroke="none"/>
    </g>
    <g fill="rgb(166,166,178)" stroke-miterlimit="1.45" transform="matrix(0.4308,0,0,0.4308,89.183,236.5288)" stroke-linecap="butt" stroke="rgb(166,166,178)">
      <rect fill="none" width="148.5542" x="-206.5542" height="48.746" y="112.2344"/>
    </g>
    <g font-family="sans-serif" transform="matrix(0.4308,0,0,0.4308,89.183,236.5288)">
      <text xml:space="preserve" x="-200.5542" y="107.4043" onclick="umlload('http://docs.oracle.com/javase/6/docs/api/java/util/package-summary.html')" stroke="none">java.util</text>
    </g>
    <g fill="rgb(221,221,255)" transform="matrix(0.4308,0,0,0.4308,89.183,236.5288)" stroke="rgb(221,221,255)">
      <rect x="-198.5542" y="120.2656" clip-path="url(#clipPath7)" width="132.5542" height="32.7147" stroke="none"/>
    </g>
    <g fill="rgb(154,154,178)" stroke-miterlimit="1.45" transform="matrix(0.4308,0,0,0.4308,89.183,236.5288)" stroke-linecap="butt" stroke="rgb(154,154,178)">
      <ellipse rx="66.2771" fill="none" ry="16.3574" cx="-132.2771" cy="136.623"/>
    </g>
    <g font-style="italic" font-size="13" font-weight="bold" font-family="sans-serif" transform="matrix(0.4308,0,0,0.4308,89.183,236.5288)">
      <text xml:space="preserve" x="-173.7771" y="141.1235" onclick="umlload('http://docs.oracle.com/javase/6/docs/api/java/util/Map.html')" stroke="none">Map&lt;K, V&gt;</text>
    </g>
    <g fill="rgb(238,238,255)" transform="matrix(0.4308,0,0,0.4308,89.183,236.5288)" stroke="rgb(238,238,255)">
      <rect width="76.1412" x="-153.31" height="17.9688" y="-26" stroke="none"/>
    </g>
    <g fill="rgb(166,166,178)" stroke-miterlimit="1.45" transform="matrix(0.4308,0,0,0.4308,89.183,236.5288)" stroke-linecap="butt" stroke="rgb(166,166,178)">
      <rect fill="none" width="76.1412" x="-153.31" height="17.9688" y="-26"/>
    </g>
    <g fill="rgb(238,238,255)" transform="matrix(0.4308,0,0,0.4308,89.183,236.5288)" stroke="rgb(238,238,255)">
      <rect width="95.31" x="-153.31" height="72.2969" y="-8.0312" stroke="none"/>
    </g>
    <g fill="rgb(166,166,178)" stroke-miterlimit="1.45" transform="matrix(0.4308,0,0,0.4308,89.183,236.5288)" stroke-linecap="butt" stroke="rgb(166,166,178)">
      <rect fill="none" width="95.31" x="-153.31" height="72.2969" y="-8.0312"/>
    </g>
    <g font-family="sans-serif" transform="matrix(0.4308,0,0,0.4308,89.183,236.5288)">
      <text xml:space="preserve" x="-147.31" y="-12.8613" onclick="umlload('http://docs.oracle.com/javase/6/docs/api/java/lang/package-summary.html')" stroke="none">java.lang</text>
    </g>
    <g fill="rgb(187,187,255)" transform="matrix(0.4308,0,0,0.4308,89.183,236.5288)" stroke="rgb(187,187,255)">
      <rect x="-145.31" y="0" clip-path="url(#clipPath8)" width="79.31" height="23.1328" stroke="none"/>
    </g>
    <g fill="rgb(130,130,178)" stroke-miterlimit="1.45" transform="matrix(0.4308,0,0,0.4308,89.183,236.5288)" stroke-linecap="butt" stroke="rgb(130,130,178)">
      <rect fill="none" width="79.31" x="-145.31" height="23.1328" y="0"/>
    </g>
    <g font-size="13" font-weight="bold" font-family="sans-serif" transform="matrix(0.4308,0,0,0.4308,89.183,236.5288)">
      <text xml:space="preserve" x="-140.155" y="16.0669" onclick="umlload('http://docs.oracle.com/javase/6/docs/api/java/lang/Class.html')" stroke="none">Class&lt;T&gt;</text>
    </g>
    <g fill="rgb(187,187,255)" transform="matrix(0.4308,0,0,0.4308,89.183,236.5288)" stroke="rgb(187,187,255)">
      <rect x="-145.31" y="33.1328" clip-path="url(#clipPath9)" width="53.56" height="23.1328" stroke="none"/>
    </g>
    <g fill="rgb(130,130,178)" stroke-miterlimit="1.45" transform="matrix(0.4308,0,0,0.4308,89.183,236.5288)" stroke-linecap="butt" stroke="rgb(130,130,178)">
      <rect fill="none" width="53.56" x="-145.31" height="23.1328" y="33.1328"/>
    </g>
    <g font-size="13" font-weight="bold" font-family="sans-serif" transform="matrix(0.4308,0,0,0.4308,89.183,236.5288)">
      <text xml:space="preserve" x="-140.53" y="49.1997" onclick="umlload('http://docs.oracle.com/javase/6/docs/api/java/lang/String.html')" stroke="none">String</text>
    </g>
    <g fill="rgb(238,238,255)" transform="matrix(0.4308,0,0,0.4308,89.183,236.5288)" stroke="rgb(238,238,255)">
      <rect width="467.6133" x="676.4592" height="17.9688" y="-142.7147" stroke="none"/>
    </g>
    <g fill="rgb(166,166,178)" stroke-miterlimit="1.45" transform="matrix(0.4308,0,0,0.4308,89.183,236.5288)" stroke-linecap="butt" stroke="rgb(166,166,178)">
      <rect fill="none" width="467.6133" x="676.4592" height="17.9688" y="-142.7147"/>
    </g>
    <g fill="rgb(238,238,255)" transform="matrix(0.4308,0,0,0.4308,89.183,236.5288)" stroke="rgb(238,238,255)">
      <rect width="467.6133" x="676.4592" height="48.746" y="-124.746" stroke="none"/>
    </g>
    <g fill="rgb(166,166,178)" stroke-miterlimit="1.45" transform="matrix(0.4308,0,0,0.4308,89.183,236.5288)" stroke-linecap="butt" stroke="rgb(166,166,178)">
      <rect fill="none" width="467.6133" x="676.4592" height="48.746" y="-124.746"/>
    </g>
    <g font-family="sans-serif" transform="matrix(0.4308,0,0,0.4308,89.183,236.5288)">
      <text xml:space="preserve" x="682.4592" y="-129.5761" onclick="umlload('../../../../../../../com/msopentech/odatajclient/engine/communication/request/batch/package-summary.html')" stroke="none">com.msopentech.odatajclient.engine.communication.request.batch</text>
    </g>
    <g fill="rgb(221,221,255)" transform="matrix(0.4308,0,0,0.4308,89.183,236.5288)" stroke="rgb(221,221,255)">
      <rect x="765.4592" y="-116.7147" clip-path="url(#clipPath10)" width="272.3917" height="32.7147" stroke="none"/>
    </g>
    <g fill="rgb(154,154,178)" stroke-miterlimit="1.45" transform="matrix(0.4308,0,0,0.4308,89.183,236.5288)" stroke-linecap="butt" stroke="rgb(154,154,178)">
      <ellipse rx="136.1958" fill="none" ry="16.3574" cx="901.655" cy="-100.3574"/>
    </g>
    <g font-style="italic" font-size="13" font-weight="bold" font-family="sans-serif" transform="matrix(0.4308,0,0,0.4308,89.183,236.5288)">
      <text xml:space="preserve" x="812.155" y="-95.8569" onclick="umlload('../../../../../../../com/msopentech/odatajclient/engine/communication/request/batch/ODataBatchableRequest.html')" stroke="none">ODataBatchableRequest</text>
    </g>
    <g fill="rgb(238,238,255)" transform="matrix(0.4308,0,0,0.4308,89.183,236.5288)" stroke="rgb(238,238,255)">
      <rect width="425.1773" x="-142.93" height="17.9688" y="-133.1328" stroke="none"/>
    </g>
    <g fill="rgb(166,166,178)" stroke-miterlimit="1.45" transform="matrix(0.4308,0,0,0.4308,89.183,236.5288)" stroke-linecap="butt" stroke="rgb(166,166,178)">
      <rect fill="none" width="425.1773" x="-142.93" height="17.9688" y="-133.1328"/>
    </g>
    <g fill="rgb(238,238,255)" transform="matrix(0.4308,0,0,0.4308,89.183,236.5288)" stroke="rgb(238,238,255)">
      <rect width="789.53" x="-142.93" height="39.1641" y="-115.1641" stroke="none"/>
    </g>
    <g fill="rgb(166,166,178)" stroke-miterlimit="1.45" transform="matrix(0.4308,0,0,0.4308,89.183,236.5288)" stroke-linecap="butt" stroke="rgb(166,166,178)">
      <rect fill="none" width="789.53" x="-142.93" height="39.1641" y="-115.1641"/>
    </g>
    <g font-family="sans-serif" transform="matrix(0.4308,0,0,0.4308,89.183,236.5288)">
      <text xml:space="preserve" x="-136.93" y="-119.9941" onclick="umlload('../../../../../../../com/msopentech/odatajclient/engine/communication/request/package-summary.html')" stroke="none">com.msopentech.odatajclient.engine.communication.request</text>
    </g>
    <g fill="rgb(204,204,255)" transform="matrix(0.4308,0,0,0.4308,89.183,236.5288)" stroke="rgb(204,204,255)">
      <rect x="-134.93" y="-107.1328" clip-path="url(#clipPath11)" width="773.53" height="23.1328" stroke="none"/>
    </g>
    <g fill="rgb(142,142,178)" stroke-miterlimit="1.45" transform="matrix(0.4308,0,0,0.4308,89.183,236.5288)" stroke-linecap="butt" stroke="rgb(142,142,178)">
      <rect fill="none" width="773.53" x="-134.93" height="23.1328" y="-107.1328"/>
    </g>
    <g font-size="13" font-weight="bold" font-family="sans-serif" transform="matrix(0.4308,0,0,0.4308,89.183,236.5288)">
      <text xml:space="preserve" x="-119.665" y="-91.0659" onclick="umlload('../../../../../../../com/msopentech/odatajclient/engine/communication/request/ODataBasicRequestImpl.html')" stroke="none">ODataBasicRequestImpl&lt;ODataInvokeResponse&lt;T extends ODataInvokeResult&gt;, ODataPubFormat&gt;</text>
    </g>
    <g fill="rgb(238,238,255)" transform="matrix(0.4308,0,0,0.4308,89.183,236.5288)" stroke="rgb(238,238,255)">
      <rect width="471.8569" x="-8" height="17.9688" y="-26" stroke="none"/>
    </g>
    <g fill="rgb(166,166,178)" stroke-miterlimit="1.45" transform="matrix(0.4308,0,0,0.4308,89.183,236.5288)" stroke-linecap="butt" stroke="rgb(166,166,178)">
      <rect fill="none" width="471.8569" x="-8" height="17.9688" y="-26"/>
    </g>
    <g fill="rgb(238,238,255)" transform="matrix(0.4308,0,0,0.4308,89.183,236.5288)" stroke="rgb(238,238,255)">
      <rect width="519.67" x="-8" height="405.2772" y="-8.0312" stroke="none"/>
    </g>
    <g fill="rgb(166,166,178)" stroke-miterlimit="1.45" transform="matrix(0.4308,0,0,0.4308,89.183,236.5288)" stroke-linecap="butt" stroke="rgb(166,166,178)">
      <rect fill="none" width="519.67" x="-8" height="405.2772" y="-8.0312"/>
    </g>
    <g font-family="sans-serif" transform="matrix(0.4308,0,0,0.4308,89.183,236.5288)">
      <text xml:space="preserve" x="-2" y="-12.8613" onclick="umlload('package-summary.html')" stroke="none">com.msopentech.odatajclient.engine.communication.request.invoke</text>
    </g>
    <g fill="rgb(187,187,255)" transform="matrix(0.4308,0,0,0.4308,89.183,236.5288)" stroke="rgb(187,187,255)">
      <rect x="0" y="0" clip-path="url(#clipPath12)" width="503.67" height="26.625" stroke="none"/>
      <line clip-path="url(#clipPath12)" fill="none" x1="0" x2="503.67" y1="26.625" y2="26.625" stroke="black"/>
      <line clip-path="url(#clipPath12)" x1="0" x2="503.67" y1="27.625" y2="27.625" stroke="none"/>
      <line clip-path="url(#clipPath12)" fill="none" x1="0" x2="503.67" y1="27.625" y2="27.625" stroke="black"/>
      <rect x="0" y="28.625" clip-path="url(#clipPath12)" width="503.67" height="360.621" stroke="none"/>
    </g>
    <g fill="rgb(130,130,178)" stroke-miterlimit="1.45" transform="matrix(0.4308,0,0,0.4308,89.183,236.5288)" stroke-linecap="butt" stroke="rgb(130,130,178)">
      <rect fill="none" width="503.67" x="0" height="389.246" y="0"/>
    </g>
    <g font-size="16" font-weight="bold" font-family="sans-serif" transform="matrix(0.4308,0,0,0.4308,89.183,236.5288)">
      <text xml:space="preserve" x="11.335" y="18.8516" onclick="umlload('#')" stroke="none">ODataInvokeRequest&lt;T extends ODataInvokeResult&gt;</text>
    </g>
    <g font-family="sans-serif" transform="matrix(0.4308,0,0,0.4308,89.183,236.5288)">
      <text xml:space="preserve" x="4" y="39.1719" stroke="none">+</text>
      <text xml:space="preserve" x="19" y="40.7637" onclick="umlload('#execute()')" stroke="none">execute() : ODataInvokeResponse&lt;T extends ODataInvokeResult&gt;</text>
    </g>
    <g font-family="sans-serif" transform="matrix(0.4308,0,0,0.4308,89.183,236.5288)">
      <text xml:space="preserve" x="4" y="55.1719" stroke="none">#</text>
      <text xml:space="preserve" x="19" y="56.7324" onclick="umlload('#getPayload()')" stroke="none">getPayload() : InputStream</text>
    </g>
    <g font-family="sans-serif" transform="matrix(0.4308,0,0,0.4308,89.183,236.5288)">
      <text xml:space="preserve" x="4" y="71.1719" stroke="none">+</text>
      <text xml:space="preserve" x="19" y="72.7012" onclick="umlload('#setFormat(com.msopentech.odatajclient.engine.format.ODataPubFormat)')" stroke="none">setFormat(ODataPubFormat) : void</text>
    </g>
    <g font-family="sans-serif" transform="matrix(0.4308,0,0,0.4308,89.183,236.5288)">
      <text xml:space="preserve" x="4" y="87.1719" stroke="none">+</text>
      <text xml:space="preserve" x="19" y="88.6699" onclick="umlload('#setParameters(java.util.Map)')" stroke="none">setParameters(Map&lt;String, ODataValue&gt;) : void</text>
    </g>
    <g font-family="sans-serif" transform="matrix(0.4308,0,0,0.4308,89.183,236.5288)">
      <text xml:space="preserve" x="-201" y="422.1543" onclick="umlload('http://www.yworks.com/')" stroke="none">yWorks UML Doclet</text>
    </g>
    <g stroke-miterlimit="1.45" transform="matrix(0.4308,0,0,0.4308,89.183,236.5288)" stroke-linecap="butt">
      <path fill="none" d="M251.835 0.0281 L251.835 -69"/>
      <path fill="white" d="M251.835 -84 L245.835 -68 L257.835 -68 Z" stroke="none"/>
      <path fill="none" d="M251.835 -84 L245.835 -68 L257.835 -68 Z"/>
      <path fill="none" stroke-dasharray="6,2" d="M377.7525 0.0468 L377.7525 -51 L901.655 -51 L901.655 -69"/>
      <path fill="white" stroke-dasharray="6,2" d="M901.655 -84 L895.655 -68 L907.655 -68 Z" stroke="none"/>
      <path fill="none" d="M901.655 -84 L895.655 -68 L907.655 -68 Z"/>
      <path fill="none" d="M-0.0052 11.5664 L-66 11.5664"/>
      <line stroke-linecap="square" transform="matrix(-1,0,0,-1,-66,11.5664)" fill="none" x1="0" x2="-14" y1="0" y2="-4" stroke-miterlimit="10"/>
      <line stroke-linecap="square" transform="matrix(-1,0,0,-1,-66,11.5664)" fill="none" x1="0" x2="-14" y1="0" y2="4" stroke-miterlimit="10"/>
    </g>
    <g stroke-miterlimit="1.45" transform="matrix(0.4308,0,0,0.4308,89.183,236.5288)" stroke-linecap="butt">
      <path fill="none" d="M-0.0331 44.6992 L-91.75 44.6992"/>
      <line stroke-linecap="square" transform="matrix(-1,0,0,-1,-91.75,44.6992)" fill="none" x1="0" x2="-14" y1="0" y2="-4" stroke-miterlimit="10"/>
      <line stroke-linecap="square" transform="matrix(-1,0,0,-1,-91.75,44.6992)" fill="none" x1="0" x2="-14" y1="0" y2="4" stroke-miterlimit="10"/>
    </g>
    <g stroke-miterlimit="1.45" transform="matrix(0.4308,0,0,0.4308,89.183,236.5288)" stroke-linecap="butt">
      <path fill="none" d="M-0.0041 136.623 L-66 136.623"/>
      <line stroke-linecap="square" transform="matrix(-1,0,0,-1,-66,136.623)" fill="none" x1="0" x2="-14" y1="0" y2="-4" stroke-miterlimit="10"/>
      <line stroke-linecap="square" transform="matrix(-1,0,0,-1,-66,136.623)" fill="none" x1="0" x2="-14" y1="0" y2="4" stroke-miterlimit="10"/>
    </g>
    <g stroke-dasharray="6,2" stroke-miterlimit="1.45" transform="matrix(0.4308,0,0,0.4308,89.183,236.5288)" stroke-linecap="butt">
      <path fill="none" d="M503.658 11.5664 L569.67 11.5664"/>
      <line stroke-linecap="square" transform="matrix(1,0,0,1,569.67,11.5664)" fill="none" x1="0" x2="-14" y1="0" y2="-4" stroke-dasharray="none" stroke-miterlimit="10"/>
      <line stroke-linecap="square" transform="matrix(1,0,0,1,569.67,11.5664)" fill="none" x1="0" x2="-14" y1="0" y2="4" stroke-dasharray="none" stroke-miterlimit="10"/>
    </g>
    <g stroke-dasharray="6,2" stroke-miterlimit="1.45" transform="matrix(0.4308,0,0,0.4308,89.183,236.5288)" stroke-linecap="butt">
      <path fill="none" d="M503.6388 103.4902 L569.67 103.4902"/>
      <line stroke-linecap="square" transform="matrix(1,0,0,1,569.67,103.4902)" fill="none" x1="0" x2="-14" y1="0" y2="-4" stroke-dasharray="none" stroke-miterlimit="10"/>
      <line stroke-linecap="square" transform="matrix(1,0,0,1,569.67,103.4902)" fill="none" x1="0" x2="-14" y1="0" y2="4" stroke-dasharray="none" stroke-miterlimit="10"/>
    </g>
    <g stroke-dasharray="6,2" stroke-miterlimit="1.45" transform="matrix(0.4308,0,0,0.4308,89.183,236.5288)" stroke-linecap="butt">
      <path fill="none" d="M503.6791 195.414 L569.67 195.414"/>
      <line stroke-linecap="square" transform="matrix(1,0,0,1,569.67,195.414)" fill="none" x1="0" x2="-14" y1="0" y2="-4" stroke-dasharray="none" stroke-miterlimit="10"/>
      <line stroke-linecap="square" transform="matrix(1,0,0,1,569.67,195.414)" fill="none" x1="0" x2="-14" y1="0" y2="4" stroke-dasharray="none" stroke-miterlimit="10"/>
    </g>
    <g stroke-dasharray="6,2" stroke-miterlimit="1.45" transform="matrix(0.4308,0,0,0.4308,89.183,236.5288)" stroke-linecap="butt">
      <path fill="none" d="M503.6429 282.5468 L569.67 282.5468"/>
      <line stroke-linecap="square" transform="matrix(1,0,0,1,569.67,282.5468)" fill="none" x1="0" x2="-14" y1="0" y2="-4" stroke-dasharray="none" stroke-miterlimit="10"/>
      <line stroke-linecap="square" transform="matrix(1,0,0,1,569.67,282.5468)" fill="none" x1="0" x2="-14" y1="0" y2="4" stroke-dasharray="none" stroke-miterlimit="10"/>
    </g>
    <g stroke-dasharray="6,2" stroke-miterlimit="1.45" transform="matrix(0.4308,0,0,0.4308,89.183,236.5288)" stroke-linecap="butt">
      <path fill="none" d="M503.6731 369.6796 L569.67 369.6796"/>
      <line stroke-linecap="square" transform="matrix(1,0,0,1,569.67,369.6796)" fill="none" x1="0" x2="-14" y1="0" y2="-4" stroke-dasharray="none" stroke-miterlimit="10"/>
      <line stroke-linecap="square" transform="matrix(1,0,0,1,569.67,369.6796)" fill="none" x1="0" x2="-14" y1="0" y2="4" stroke-dasharray="none" stroke-miterlimit="10"/>
    </g>
  </g>
</svg>
